ply
format ascii 1.0
element vertex 66
property float x
property float y
property float z
property float u
property float v
element face 91
property list uchar int vertex_indices
end_header
-19.9065 -5.85337 20.8954 488.015 429.855
-19.5121 -0.616409 20.4825 488.252 451.139
-18.7159 4.56292 20.124 490.155 472.304
-17.3415 9.63054 18.1649 494.221 492.513
-15.0975 14.3807 13.4035 501.52 510.518
-11.7452 18.4465 7.80209 513.405 525.661
-7.51499 21.6304 3.1346 529.242 537.786
-2.60396 23.711 -0.833048 548.245 545.853
2.75689 23.846 -4.4498 569.631 546.232
7.33998 22.3172 -0.846898 589.3 542.517
11.0104 19.252 3.39374 605.713 532.574
14.0964 15.6431 8.19724 619.952 520.5
16.3366 11.4646 13.8574 630.997 506.245
17.6858 6.79177 18.5331 638.375 489.371
18.3756 1.8828 20.6572 642.743 470.363
18.6365 -3.11469 20.9873 645.117 450.178
18.6342 -8.11126 21.3806 646.422 429.96
-15.5673 -15.4611 0.204331 505.189 383.469
-13.6742 -17.1462 -1.49761 513.116 376.368
-11.19 -17.8947 -2.95285 523.262 373.324
-8.58196 -17.9482 -4.33448 533.751 373.173
-6.03901 -17.4314 -5.62163 543.843 375.37
3.36241 -17.9296 -5.42144 582.483 375.642
6.18486 -18.9375 -4.14691 594.476 372.708
9.15331 -19.3051 -2.69828 606.93 372.487
12.0593 -18.6546 -1.27409 618.869 376.394
14.2856 -16.771 0.358022 627.746 385.252
-1.52654 -11.7104 -5.08798 560.953 399.978
-1.55703 -9.01859 -7.61128 559.784 409.943
-1.55609 -6.35356 -10.3391 558.721 419.724
-1.50019 -3.72175 -13.121 557.883 429.362
-4.16592 0.112854 -6.0565 547.032 447.179
-2.65481 0.4153 -7.05014 552.997 448.374
-1.08287 0.440335 -8.09383 559.274 448.433
0.728474 0.133249 -7.07929 566.914 448.013
2.42672 -0.425044 -6.02006 574.16 446.56
-11.5085 -10.2198 -1.29262 520.268 405.205
-9.99811 -11.5045 -1.17851 526.79 400.369
-7.94413 -11.668 -0.98832 535.267 400.264
-6.23146 -10.7782 -0.541109 542.119 404.476
-7.88496 -9.83521 -0.931679 535.056 407.775
-9.7753 -9.59215 -1.09761 527.233 408.252
5.56797 -11.8527 -0.969757 590.629 402.716
7.21086 -12.8797 -0.926052 597.619 398.934
9.27106 -12.8121 -0.802773 606.053 399.746
10.9168 -11.6979 -0.718721 612.522 404.712
9.21847 -10.9812 -0.863261 605.369 407.175
7.30488 -10.9983 -1.04007 597.514 406.582
-5.14912 10.0761 -2.76074 540.978 488.885
-3.71563 8.41333 -4.9671 546.944 481.566
-1.95132 6.94514 -6.65015 554.292 475.326
0.235219 6.99117 -8.154 563.012 475.433
2.516 6.45724 -6.46457 572.729 474.468
4.68586 7.47023 -4.80314 581.597 479.773
6.70948 8.68616 -2.82923 589.862 485.996
5.26146 10.3242 -4.08919 583.339 491.831
3.36911 11.4697 -5.43434 575.109 495.519
1.10718 12.0941 -6.76326 565.499 497.001
-1.27542 12.131 -5.54261 555.914 497.073
-3.47462 11.4981 -4.2956 547.252 494.469
-1.25174 9.1019 -4.96701 556.857 484.956
0.510777 8.79996 -7.17687 563.827 483.263
2.49895 8.54917 -5.188 572.318 483.502
2.55036 8.83941 -4.59663 572.541 484.933
0.657303 9.34484 -6.44714 564.396 485.81
-1.16597 9.37156 -4.55939 557.2 486.239
3 20 21 23
3 21 22 23
3 0 1 36
3 15 16 45
3 0 17 36
3 16 26 45
3 17 18 37
3 25 26 44
3 17 36 37
3 26 44 45
3 18 19 38
3 24 25 43
3 18 37 38
3 25 43 44
3 19 20 38
3 23 24 43
3 20 21 39
3 22 23 42
3 20 38 39
3 23 42 43
3 21 22 27
3 21 27 39
3 22 27 42
3 27 28 42
3 27 28 39
3 28 42 47
3 28 39 40
3 1 36 41
3 15 45 46
3 1 2 41
3 14 15 46
3 28 29 40
3 28 29 47
3 2 40 41
3 14 46 47
3 2 29 40
3 14 29 47
3 2 3 29
3 13 14 29
3 29 30 31
3 29 30 35
3 3 29 31
3 13 29 35
3 30 32 33
3 30 33 34
3 30 31 32
3 30 34 35
3 3 4 31
3 12 13 35
3 4 5 48
3 11 12 54
3 5 6 48
3 10 11 54
3 6 48 59
3 10 54 55
3 6 7 59
3 9 10 55
3 7 58 59
3 9 55 56
3 8 57 58
3 8 56 57
3 7 8 58
3 8 9 56
3 4 31 48
3 12 35 54
3 31 48 49
3 35 53 54
3 31 49 50
3 35 52 53
3 31 32 50
3 34 35 52
3 32 33 50
3 33 34 52
3 33 50 51
3 33 51 52
3 48 49 60
3 49 60 50
3 50 60 61
3 50 51 61
3 51 52 61
3 61 62 52
3 52 53 62
3 53 54 62
3 54 55 63
3 55 56 63
3 56 63 64
3 56 57 64
3 64 65 57
3 57 58 65
3 58 59 65
3 48 59 65
