ply
format ascii 1.0
element vertex 66
property float x
property float y
property float z
property float u
property float v
element face 91
property list uchar int vertex_indices
end_header
-20.1302 -5.20635 20.8218 489.935 428.43
-19.5765 -0.162429 20.2992 490.429 449.01
-18.625 4.8242 19.9938 492.626 469.552
-17.1339 9.67131 18.0442 496.635 489.115
-14.7966 14.1877 13.3124 503.471 506.615
-11.4772 18.1031 7.79308 514.306 521.683
-7.38818 21.2685 3.14114 528.76 534.221
-2.64728 23.4323 -0.898188 546.366 543.077
2.59978 23.6187 -4.36273 566.832 544.21
7.17035 22.1744 -0.876477 586.91 540.896
10.833 19.1688 3.38878 603.987 531.204
13.9299 15.6234 8.16914 619.064 519.317
16.2224 11.5267 13.7559 631.245 505.218
17.614 6.90671 18.495 639.688 488.417
18.3695 1.97898 20.5577 644.917 469.238
18.758 -3.06529 20.8866 648.223 448.872
18.8861 -8.10997 21.4262 650.521 428.499
-15.5562 -15.4605 0.180032 506.456 380.763
-13.532 -16.9827 -1.47254 514.783 374.581
-11.0404 -17.6317 -2.91428 524.794 372.178
-8.46513 -17.6674 -4.31083 534.961 372.32
-5.9589 -17.1651 -5.5946 544.701 374.679
3.55898 -17.9151 -5.37084 583.91 374.552
6.34073 -18.9 -4.12785 595.93 371.797
9.25576 -19.2712 -2.68162 608.35 371.659
12.127 -18.6904 -1.26849 620.275 375.383
14.4292 -16.9722 0.343017 629.559 383.65
-1.46323 -11.3195 -5.02156 561.341 400.097
-1.41895 -8.47924 -7.64431 559.907 410.797
-1.34659 -5.6647 -10.4228 558.554 421.346
-1.23283 -2.87152 -13.1186 557.399 431.85
-3.96497 0.490102 -6.11403 547.007 447.189
-2.49373 0.890353 -7.09395 552.631 448.925
-0.936014 0.973007 -8.06338 558.714 449.393
0.826842 0.611371 -7.11886 566.288 448.774
2.45047 -0.0368126 -6.07301 573.413 446.978
-11.6679 -10.6029 -1.21148 520.41 401.282
-10.2564 -11.6175 -1.05255 526.55 397.618
-8.45597 -11.8218 -0.871422 534.024 397.388
-6.90644 -11.2229 -0.636384 540.227 400.38
-8.41074 -10.4912 -0.922561 533.765 402.817
-10.0969 -10.2611 -1.06194 526.761 403.201
6.0039 -12.4299 -0.922661 593.314 399.229
7.52362 -13.2141 -0.781762 599.817 396.532
9.35977 -13.1133 -0.723514 607.306 397.515
10.9022 -12.2787 -0.742752 613.336 401.379
9.32603 -11.8236 -0.843331 606.719 402.73
7.60063 -11.8191 -0.976535 599.629 402.183
-4.97688 10.038 -2.81868 540.661 487.017
-3.60109 8.42901 -4.98067 546.23 480.109
-1.88171 7.05331 -6.60247 553.272 474.445
0.221987 7.10334 -8.20317 561.429 474.725
2.4006 6.58984 -6.50338 570.953 473.872
4.49027 7.544 -4.87816 579.619 478.96
6.41174 8.72485 -2.84748 587.631 485.065
4.97468 10.3027 -4.03538 580.931 490.663
3.14683 11.416 -5.28143 572.768 494.228
0.963598 12.0219 -6.58509 563.301 495.593
-1.31116 12.0263 -5.35238 554.329 495.357
-3.38793 11.3916 -4.21928 546.347 492.535
-1.13933 9.05639 -5.02195 556.079 483.396
0.44524 8.76505 -7.29577 562.046 481.892
2.21526 8.564 -5.24298 569.892 482.316
2.22115 8.94027 -4.57687 569.972 484.085
0.556504 9.44094 -6.34353 562.536 485.016
-1.05506 9.41117 -4.52346 556.442 485.043
3 20 21 23
3 21 22 23
3 0 1 36
3 15 16 45
3 0 17 36
3 16 26 45
3 17 18 37
3 25 26 44
3 17 36 37
3 26 44 45
3 18 19 38
3 24 25 43
3 18 37 38
3 25 43 44
3 19 20 38
3 23 24 43
3 20 21 39
3 22 23 42
3 20 38 39
3 23 42 43
3 21 22 27
3 21 27 39
3 22 27 42
3 27 28 42
3 27 28 39
3 28 42 47
3 28 39 40
3 1 36 41
3 15 45 46
3 1 2 41
3 14 15 46
3 28 29 40
3 28 29 47
3 2 40 41
3 14 46 47
3 2 29 40
3 14 29 47
3 2 3 29
3 13 14 29
3 29 30 31
3 29 30 35
3 3 29 31
3 13 29 35
3 30 32 33
3 30 33 34
3 30 31 32
3 30 34 35
3 3 4 31
3 12 13 35
3 4 5 48
3 11 12 54
3 5 6 48
3 10 11 54
3 6 48 59
3 10 54 55
3 6 7 59
3 9 10 55
3 7 58 59
3 9 55 56
3 8 57 58
3 8 56 57
3 7 8 58
3 8 9 56
3 4 31 48
3 12 35 54
3 31 48 49
3 35 53 54
3 31 49 50
3 35 52 53
3 31 32 50
3 34 35 52
3 32 33 50
3 33 34 52
3 33 50 51
3 33 51 52
3 48 49 60
3 49 60 50
3 50 60 61
3 50 51 61
3 51 52 61
3 61 62 52
3 52 53 62
3 53 54 62
3 54 55 63
3 55 56 63
3 56 63 64
3 56 57 64
3 64 65 57
3 57 58 65
3 58 59 65
3 48 59 65
