ply
format ascii 1.0
element vertex 66
property float x
property float y
property float z
property float u
property float v
element face 91
property list uchar int vertex_indices
end_header
-20.1067 -5.26004 20.7557 490.338 430.83
-19.6479 -0.275152 20.3182 490.263 450.931
-18.7722 4.65082 20.0452 491.933 470.995
-17.2916 9.45197 18.0326 495.655 490.146
-14.9287 13.9905 13.3098 502.354 507.58
-11.5764 17.9672 7.79749 513.056 522.808
-7.41931 21.1447 3.16569 527.519 535.401
-2.59486 23.2806 -0.823 545.218 544.25
2.70256 23.4819 -4.40088 565.636 545.606
7.22991 22.0409 -0.903295 585.32 542.585
10.9417 19.1696 3.34443 602.421 533.783
14.1255 15.7467 8.13983 617.729 522.771
16.4246 11.6632 13.7733 629.916 509.089
17.744 6.97407 18.569 638.158 492.333
18.4489 1.96669 20.731 643.373 473.151
18.789 -3.15167 21.0993 646.705 452.761
18.8935 -8.2731 21.5852 649.117 432.32
-15.5943 -15.3926 0.23022 507.099 384.247
-13.637 -17.0919 -1.48781 515.19 377.456
-11.1081 -17.8471 -2.94072 525.312 374.761
-8.45985 -17.9046 -4.32232 535.679 374.946
-5.89678 -17.3512 -5.60915 545.503 377.598
3.36172 -18.1924 -5.31604 583.267 377.478
6.2826 -19.33 -4.08062 595.786 374.329
9.36714 -19.7536 -2.64589 608.755 374.185
12.3926 -19.075 -1.2341 621.078 378.456
14.7446 -17.133 0.407478 630.279 387.673
-1.6297 -11.3383 -5.05881 560.678 403.497
-1.57366 -8.44079 -7.6313 559.201 414.287
-1.48214 -5.57012 -10.3859 557.832 424.917
-1.34411 -2.72756 -13.1177 556.667 435.457
-3.83047 0.333294 -6.02171 547.293 449.462
-2.51222 0.607887 -7.04717 552.258 450.657
-1.13614 0.63424 -8.09022 557.543 450.865
0.511381 0.326597 -7.11518 564.552 450.533
2.06282 -0.197209 -6.01944 571.282 449.34
-11.7313 -10.0452 -1.25794 520.373 406.601
-10.2444 -11.2768 -1.13178 526.858 402.189
-8.24683 -11.475 -0.964797 535.037 402.133
-6.57453 -10.7139 -0.638171 541.594 405.889
-8.18545 -9.8174 -0.980644 534.677 408.831
-10.0248 -9.54849 -1.10827 527.12 409.241
5.85974 -12.0122 -0.909258 592.206 404.813
7.49501 -13.03 -0.84885 599.195 401.29
9.55091 -12.9565 -0.757456 607.492 402.322
11.2379 -11.9476 -0.738342 613.94 406.974
9.53259 -11.3008 -0.855099 606.79 408.957
7.62544 -11.2724 -1.01821 599.038 408.361
-4.79632 10.1571 -2.8325 540.611 489.871
-3.53266 8.45704 -4.9896 545.792 482.684
-1.90768 6.96863 -6.58963 552.494 476.672
0.15966 6.99196 -8.16629 560.437 476.915
2.3215 6.47331 -6.55846 569.759 476.133
4.37634 7.53107 -4.95161 578.073 481.671
6.27943 8.76044 -2.9199 585.819 487.998
4.83445 10.2717 -4.1435 579.126 493.164
3.05056 11.3635 -5.42275 571.204 496.502
0.926032 12 -6.67728 562.079 497.897
-1.27395 12.0171 -5.42106 553.505 497.658
-3.27934 11.4343 -4.25821 545.912 495.035
-1.122 9.0221 -4.93545 555.333 485.807
0.381475 8.689 -7.24646 560.945 484.159
2.09571 8.48477 -5.28236 568.434 484.618
2.08699 8.87665 -4.64355 568.416 486.422
0.481414 9.38668 -6.32622 561.325 487.332
-1.05115 9.38548 -4.47947 555.601 487.458
3 20 21 23
3 21 22 23
3 0 1 36
3 15 16 45
3 0 17 36
3 16 26 45
3 17 18 37
3 25 26 44
3 17 36 37
3 26 44 45
3 18 19 38
3 24 25 43
3 18 37 38
3 25 43 44
3 19 20 38
3 23 24 43
3 20 21 39
3 22 23 42
3 20 38 39
3 23 42 43
3 21 22 27
3 21 27 39
3 22 27 42
3 27 28 42
3 27 28 39
3 28 42 47
3 28 39 40
3 1 36 41
3 15 45 46
3 1 2 41
3 14 15 46
3 28 29 40
3 28 29 47
3 2 40 41
3 14 46 47
3 2 29 40
3 14 29 47
3 2 3 29
3 13 14 29
3 29 30 31
3 29 30 35
3 3 29 31
3 13 29 35
3 30 32 33
3 30 33 34
3 30 31 32
3 30 34 35
3 3 4 31
3 12 13 35
3 4 5 48
3 11 12 54
3 5 6 48
3 10 11 54
3 6 48 59
3 10 54 55
3 6 7 59
3 9 10 55
3 7 58 59
3 9 55 56
3 8 57 58
3 8 56 57
3 7 8 58
3 8 9 56
3 4 31 48
3 12 35 54
3 31 48 49
3 35 53 54
3 31 49 50
3 35 52 53
3 31 32 50
3 34 35 52
3 32 33 50
3 33 34 52
3 33 50 51
3 33 51 52
3 48 49 60
3 49 60 50
3 50 60 61
3 50 51 61
3 51 52 61
3 61 62 52
3 52 53 62
3 53 54 62
3 54 55 63
3 55 56 63
3 56 63 64
3 56 57 64
3 64 65 57
3 57 58 65
3 58 59 65
3 48 59 65
