ply
format ascii 1.0
element vertex 66
property float x
property float y
property float z
property float u
property float v
element face 91
property list uchar int vertex_indices
end_header
-20.1174 -5.36519 20.9042 490.781 426.524
-19.5609 -0.216104 20.4466 491.417 447.549
-18.6351 4.87693 20.0782 493.599 468.483
-17.2227 9.81281 18.1119 497.53 488.336
-14.9936 14.3645 13.3189 504.407 505.831
-11.6647 18.2501 7.85914 515.87 520.678
-7.4886 21.3108 3.18678 531.195 532.683
-2.6522 23.3277 -0.882009 549.65 540.832
2.65765 23.3854 -4.39783 570.738 541.315
7.21824 21.9431 -0.906831 590.487 537.992
10.8694 18.965 3.42336 607.129 528.439
13.9889 15.5009 8.23922 621.83 516.925
16.28 11.4815 13.7734 633.437 503.166
17.6314 6.93784 18.5086 641.209 486.708
18.3627 2.05419 20.644 646.072 467.743
18.7482 -2.97734 21.0232 649.244 447.439
18.8982 -8.01778 21.4751 651.468 427.058
-15.7704 -15.3047 0.196767 507.828 379.675
-13.641 -16.9769 -1.52401 516.742 372.832
-11.0122 -17.7096 -2.97271 527.466 370.067
-8.28993 -17.7854 -4.33903 538.389 370.042
-5.64471 -17.2535 -5.58562 548.833 372.52
3.20424 -17.8845 -5.37068 585.302 372.552
6.07304 -18.9546 -4.13911 597.599 369.448
9.1093 -19.3551 -2.69422 610.417 369.203
12.122 -18.8042 -1.26066 622.849 372.834
14.5868 -17.0511 0.364888 632.708 381.288
-1.48593 -11.587 -5.05553 564.244 397.046
-1.4704 -8.50144 -7.66073 562.899 408.711
-1.42378 -5.45045 -10.4682 561.655 420.17
-1.32976 -2.42116 -13.2125 560.623 431.577
-3.50589 0.529855 -6.07084 552.117 445.592
-2.299 0.739742 -7.08607 556.811 446.427
-1.04371 0.743623 -8.11419 561.763 446.43
0.445454 0.506868 -7.1269 568.113 446.247
1.85747 0.0875174 -6.03471 574.221 445.333
-11.6545 -10.5756 -1.18375 522.999 399.67
-10.0893 -11.8588 -1.10111 529.813 394.906
-8.01832 -12.0192 -0.974416 538.366 394.889
-6.32863 -11.0365 -0.595266 545.057 399.524
-8.03145 -10.2669 -0.918353 537.792 402.063
-9.91936 -10.0467 -1.06701 529.966 402.368
5.70094 -12.2169 -0.963473 594.612 398.01
7.30217 -13.3794 -0.874362 601.537 393.753
9.39197 -13.3487 -0.715201 610.115 394.534
11.1131 -12.2589 -0.637104 616.848 399.506
9.40358 -11.6035 -0.826766 609.614 401.625
7.48533 -11.5674 -1.00228 601.715 401.16
-5.34287 10.0457 -2.82796 542.301 485.108
-3.77208 8.48531 -5.03835 548.804 478.384
-1.96163 7.10787 -6.65605 556.341 472.69
0.201033 7.12156 -8.21488 564.91 472.801
2.44439 6.62639 -6.52666 574.555 472.031
4.63016 7.55842 -4.91197 583.517 477.047
6.74743 8.66101 -2.8889 592.222 482.889
5.21587 10.2692 -4.11981 585.239 488.574
3.27939 11.4147 -5.31041 576.745 492.268
0.987523 12.0273 -6.56111 566.946 493.662
-1.41373 12.0655 -5.38132 557.315 493.558
-3.63285 11.4322 -4.28956 548.618 490.731
-1.40248 9.08711 -5.04687 558.324 481.517
0.438836 8.7452 -7.30959 565.557 479.828
2.48262 8.53747 -5.28155 574.359 480.298
2.52093 8.93328 -4.57422 574.524 482.182
0.561923 9.38918 -6.33465 566.043 482.846
-1.3362 9.46871 -4.51881 558.576 483.285
3 20 21 23
3 21 22 23
3 0 1 36
3 15 16 45
3 0 17 36
3 16 26 45
3 17 18 37
3 25 26 44
3 17 36 37
3 26 44 45
3 18 19 38
3 24 25 43
3 18 37 38
3 25 43 44
3 19 20 38
3 23 24 43
3 20 21 39
3 22 23 42
3 20 38 39
3 23 42 43
3 21 22 27
3 21 27 39
3 22 27 42
3 27 28 42
3 27 28 39
3 28 42 47
3 28 39 40
3 1 36 41
3 15 45 46
3 1 2 41
3 14 15 46
3 28 29 40
3 28 29 47
3 2 40 41
3 14 46 47
3 2 29 40
3 14 29 47
3 2 3 29
3 13 14 29
3 29 30 31
3 29 30 35
3 3 29 31
3 13 29 35
3 30 32 33
3 30 33 34
3 30 31 32
3 30 34 35
3 3 4 31
3 12 13 35
3 4 5 48
3 11 12 54
3 5 6 48
3 10 11 54
3 6 48 59
3 10 54 55
3 6 7 59
3 9 10 55
3 7 58 59
3 9 55 56
3 8 57 58
3 8 56 57
3 7 8 58
3 8 9 56
3 4 31 48
3 12 35 54
3 31 48 49
3 35 53 54
3 31 49 50
3 35 52 53
3 31 32 50
3 34 35 52
3 32 33 50
3 33 34 52
3 33 50 51
3 33 51 52
3 48 49 60
3 49 60 50
3 50 60 61
3 50 51 61
3 51 52 61
3 61 62 52
3 52 53 62
3 53 54 62
3 54 55 63
3 55 56 63
3 56 63 64
3 56 57 64
3 64 65 57
3 57 58 65
3 58 59 65
3 48 59 65
