ply
format ascii 1.0
element vertex 66
property float x
property float y
property float z
property float u
property float v
element face 91
property list uchar int vertex_indices
end_header
-20.0591 -5.48373 20.7854 488.565 428.658
-19.6265 -0.438596 20.3939 488.562 449.087
-18.7713 4.54065 20.076 490.313 469.407
-17.2968 9.41674 18.0506 494.238 488.898
-14.9371 14.0519 13.3579 501.255 506.746
-11.5811 18.095 7.798 512.321 522.198
-7.42142 21.3216 3.15471 527.119 534.919
-2.60331 23.5092 -0.819438 545.08 543.874
2.69079 23.7625 -4.42819 565.693 545.273
7.25045 22.2753 -0.868038 585.466 541.933
10.9693 19.3169 3.34711 602.457 532.603
14.1291 15.7842 8.14343 617.497 520.979
16.4111 11.6017 13.8091 629.379 506.757
17.7445 6.84855 18.5309 637.395 489.594
18.4464 1.84708 20.6873 642.372 470.321
18.7445 -3.2318 21.0597 645.347 449.976
18.7808 -8.31587 21.4932 647.274 429.55
-15.4915 -15.3314 0.197236 505.876 382.909
-13.6226 -16.9998 -1.49246 513.645 376.136
-11.1609 -17.7419 -2.9475 523.564 373.383
-8.57241 -17.7932 -4.3404 533.781 373.489
-6.05306 -17.2805 -5.63824 543.552 375.892
3.50089 -18.0354 -5.38351 582.629 375.904
6.33419 -19.0826 -4.12286 594.749 372.993
9.30852 -19.4769 -2.67762 607.264 372.835
12.2164 -18.821 -1.25952 619.157 376.9
14.4451 -16.9413 0.364391 627.932 385.783
-1.53739 -11.3872 -5.06953 560.047 401.37
-1.5055 -8.79327 -7.59885 558.765 410.99
-1.44079 -6.22363 -10.3207 557.583 420.453
-1.33065 -3.68692 -13.0813 556.587 429.784
-3.9204 0.070716 -6.01731 546.372 446.696
-2.50883 0.334189 -7.02172 551.794 447.848
-1.04685 0.358163 -8.07333 557.489 448.028
0.659391 0.0531661 -7.06985 564.733 447.681
2.27381 -0.46168 -5.9885 571.691 446.482
-11.6802 -10.0257 -1.26729 519.265 405.067
-10.2214 -11.2697 -1.15061 525.622 400.525
-8.23094 -11.4745 -0.979102 533.805 400.377
-6.55889 -10.7246 -0.625627 540.419 404.061
-8.14367 -9.74511 -0.971308 533.588 407.411
-9.98561 -9.46825 -1.09568 525.994 407.914
5.79087 -11.9342 -0.909614 590.874 402.912
7.42144 -12.9065 -0.873672 597.822 399.496
9.45752 -12.823 -0.796813 606.073 400.496
11.0961 -11.781 -0.772277 612.383 405.236
9.41783 -11.0908 -0.864086 605.323 407.475
7.52043 -11.0932 -1.02275 597.59 406.818
-4.87745 10.2254 -2.80448 539.822 488.662
-3.629 8.43429 -4.95989 545.012 481.034
-1.97213 6.84625 -6.5946 551.906 474.541
0.184362 6.87302 -8.12866 560.314 474.778
2.42933 6.36254 -6.52897 569.942 473.977
4.50635 7.53306 -4.89277 578.34 479.945
6.36739 8.88954 -2.88071 585.881 486.732
4.92277 10.4043 -4.12058 579.246 491.977
3.11401 11.4763 -5.45628 571.259 495.281
0.959021 12.1016 -6.73902 562.027 496.688
-1.28059 12.1024 -5.48308 553.212 496.437
-3.3197 11.5138 -4.25834 545.399 493.851
-1.24476 8.9696 -4.93031 554.517 483.956
0.41183 8.63505 -7.19581 560.856 482.316
2.27139 8.44288 -5.21581 568.898 482.818
2.2716 8.9428 -4.62286 568.862 485.053
0.534376 9.48275 -6.38232 561.25 486.075
-1.14528 9.44034 -4.50651 554.857 486.044
3 20 21 23
3 21 22 23
3 0 1 36
3 15 16 45
3 0 17 36
3 16 26 45
3 17 18 37
3 25 26 44
3 17 36 37
3 26 44 45
3 18 19 38
3 24 25 43
3 18 37 38
3 25 43 44
3 19 20 38
3 23 24 43
3 20 21 39
3 22 23 42
3 20 38 39
3 23 42 43
3 21 22 27
3 21 27 39
3 22 27 42
3 27 28 42
3 27 28 39
3 28 42 47
3 28 39 40
3 1 36 41
3 15 45 46
3 1 2 41
3 14 15 46
3 28 29 40
3 28 29 47
3 2 40 41
3 14 46 47
3 2 29 40
3 14 29 47
3 2 3 29
3 13 14 29
3 29 30 31
3 29 30 35
3 3 29 31
3 13 29 35
3 30 32 33
3 30 33 34
3 30 31 32
3 30 34 35
3 3 4 31
3 12 13 35
3 4 5 48
3 11 12 54
3 5 6 48
3 10 11 54
3 6 48 59
3 10 54 55
3 6 7 59
3 9 10 55
3 7 58 59
3 9 55 56
3 8 57 58
3 8 56 57
3 7 8 58
3 8 9 56
3 4 31 48
3 12 35 54
3 31 48 49
3 35 53 54
3 31 49 50
3 35 52 53
3 31 32 50
3 34 35 52
3 32 33 50
3 33 34 52
3 33 50 51
3 33 51 52
3 48 49 60
3 49 60 50
3 50 60 61
3 50 51 61
3 51 52 61
3 61 62 52
3 52 53 62
3 53 54 62
3 54 55 63
3 55 56 63
3 56 63 64
3 56 57 64
3 64 65 57
3 57 58 65
3 58 59 65
3 48 59 65
