ply
format ascii 1.0
element vertex 66
property float x
property float y
property float z
property float u
property float v
element face 91
property list uchar int vertex_indices
end_header
-20.0949 -5.26823 20.7738 490.516 431.571
-19.6396 -0.280494 20.3275 490.572 451.66
-18.7674 4.64812 20.0358 492.368 471.703
-17.2987 9.46178 18.0531 496.237 490.812
-14.9389 14.0062 13.3155 503.186 508.045
-11.5786 17.9752 7.79709 514.201 522.968
-7.43097 21.1619 3.1658 528.862 535.33
-2.61663 23.3085 -0.823271 546.716 543.957
2.67204 23.5092 -4.39318 567.239 545.047
7.20182 22.0637 -0.9104 586.827 542
10.8949 19.156 3.34436 603.698 533.092
14.0645 15.7088 8.14041 618.755 522.053
16.3806 11.6285 13.7838 630.764 508.521
17.7292 6.94737 18.5626 638.869 491.923
18.4494 1.95501 20.7173 643.951 472.851
18.7972 -3.14134 21.0974 647.165 452.551
18.8999 -8.24203 21.5744 649.411 432.194
-15.5956 -15.3914 0.257867 507.546 384.177
-13.6882 -17.0576 -1.48565 515.434 377.38
-11.2145 -17.8055 -2.944 525.365 374.577
-8.61874 -17.8771 -4.31557 535.581 374.574
-6.09661 -17.3699 -5.58653 545.326 376.921
3.45444 -18.1619 -5.31159 584.284 376.848
6.33156 -19.2701 -4.07634 596.571 373.767
9.36519 -19.6957 -2.64063 609.305 373.566
12.3464 -19.0605 -1.21689 621.466 377.622
14.6775 -17.1907 0.421272 630.628 386.538
-1.61284 -11.3226 -5.06168 561.534 402.934
-1.57262 -8.47946 -7.64157 560.158 413.411
-1.49638 -5.66279 -10.4023 558.897 423.723
-1.37165 -2.87426 -13.1366 557.847 433.947
-3.98551 0.440043 -6.09103 547.731 449.231
-2.58495 0.743743 -7.08032 553.072 450.514
-1.12182 0.778447 -8.09335 558.751 450.721
0.615068 0.451901 -7.14455 566.098 450.321
2.24814 -0.111991 -6.08558 573.131 448.974
-11.5761 -10.0921 -1.23803 521.677 406.24
-10.1012 -11.3406 -1.14347 528.085 401.706
-8.10716 -11.515 -0.990551 536.243 401.692
-6.44624 -10.7001 -0.62171 542.768 405.646
-8.05046 -9.80251 -0.958373 535.901 408.63
-9.88227 -9.5478 -1.10001 528.375 409.024
5.82114 -11.9828 -0.917859 592.75 404.229
7.43499 -13.0407 -0.87622 599.644 400.487
9.47929 -12.9831 -0.757184 607.919 401.411
11.1507 -11.9537 -0.699339 614.343 406.113
9.46664 -11.267 -0.844073 607.268 408.295
7.57264 -11.2305 -1.00492 599.56 407.782
-5.09386 10.0347 -2.78494 540.745 488.869
-3.70264 8.3944 -4.97917 546.435 481.839
-1.96921 6.97678 -6.60688 553.561 476.034
0.17243 7.01619 -8.16817 561.86 476.262
2.41002 6.4764 -6.55154 571.454 475.42
4.55982 7.45314 -4.91868 580.184 480.673
6.5782 8.60891 -2.87187 588.414 486.768
5.06367 10.2077 -4.1226 581.469 492.253
3.17377 11.3498 -5.40545 573.152 495.764
0.939579 11.994 -6.66678 563.616 497.167
-1.36958 12.0162 -5.41609 554.549 497.014
-3.49155 11.398 -4.23223 546.441 494.311
-1.28485 9.02205 -4.96101 556.006 485.14
0.39686 8.71616 -7.25776 562.397 483.544
2.28871 8.4622 -5.30063 570.572 483.878
2.30103 8.863 -4.65244 570.631 485.751
0.498641 9.38758 -6.38428 562.777 486.624
-1.23085 9.39815 -4.4946 556.201 486.856
3 20 21 23
3 21 22 23
3 0 1 36
3 15 16 45
3 0 17 36
3 16 26 45
3 17 18 37
3 25 26 44
3 17 36 37
3 26 44 45
3 18 19 38
3 24 25 43
3 18 37 38
3 25 43 44
3 19 20 38
3 23 24 43
3 20 21 39
3 22 23 42
3 20 38 39
3 23 42 43
3 21 22 27
3 21 27 39
3 22 27 42
3 27 28 42
3 27 28 39
3 28 42 47
3 28 39 40
3 1 36 41
3 15 45 46
3 1 2 41
3 14 15 46
3 28 29 40
3 28 29 47
3 2 40 41
3 14 46 47
3 2 29 40
3 14 29 47
3 2 3 29
3 13 14 29
3 29 30 31
3 29 30 35
3 3 29 31
3 13 29 35
3 30 32 33
3 30 33 34
3 30 31 32
3 30 34 35
3 3 4 31
3 12 13 35
3 4 5 48
3 11 12 54
3 5 6 48
3 10 11 54
3 6 48 59
3 10 54 55
3 6 7 59
3 9 10 55
3 7 58 59
3 9 55 56
3 8 57 58
3 8 56 57
3 7 8 58
3 8 9 56
3 4 31 48
3 12 35 54
3 31 48 49
3 35 53 54
3 31 49 50
3 35 52 53
3 31 32 50
3 34 35 52
3 32 33 50
3 33 34 52
3 33 50 51
3 33 51 52
3 48 49 60
3 49 60 50
3 50 60 61
3 50 51 61
3 51 52 61
3 61 62 52
3 52 53 62
3 53 54 62
3 54 55 63
3 55 56 63
3 56 63 64
3 56 57 64
3 64 65 57
3 57 58 65
3 58 59 65
3 48 59 65
