ply
format ascii 1.0
element vertex 66
property float x
property float y
property float z
property float u
property float v
element face 91
property list uchar int vertex_indices
end_header
-20.1588 -5.94704 20.8955 496.466 433.085
-19.8351 -0.808971 20.4691 496.726 453.933
-19.0966 4.28257 20.1639 498.717 474.755
-17.7359 9.19782 18.1649 503.325 493.896
-15.477 13.725 13.4326 511.74 509.876
-12.0669 17.5579 7.87362 525.076 522.719
-7.77253 20.5273 3.21929 542.262 532.79
-2.9015 22.5937 -0.764482 562.03 539.711
2.45462 22.7583 -4.36585 584.21 539.185
7.22336 21.7233 -0.820875 604.209 538.214
11.2629 19.1972 3.35666 621.498 531.388
14.738 16.0215 8.08993 636.582 522.139
17.2252 12.1021 13.7086 647.725 510.206
18.4749 7.46516 18.6137 653.887 494.617
18.9787 2.40827 20.6752 657.042 475.324
19.091 -2.78398 21.0614 658.601 454.319
18.9691 -7.95422 21.5333 659.185 433.41
-15.8739 -15.6891 0.32774 516.285 380.836
-14.0052 -17.3326 -1.43408 524.382 373.358
-11.6205 -18.1028 -2.92362 534.435 369.74
-9.11732 -18.2124 -4.26142 544.841 368.952
-6.6854 -17.7787 -5.4902 554.836 370.446
3.65877 -18.5399 -5.15734 597.903 369.692
6.49112 -19.3829 -4.0081 609.828 367.565
9.43071 -19.5863 -2.71576 622.065 368.174
12.2614 -18.7309 -1.32683 633.626 373.161
14.402 -16.7064 0.540783 642.079 383.103
-1.54423 -11.5161 -5.10605 574.842 397.425
-1.38929 -8.75858 -7.69565 574.903 407.093
-1.21056 -6.02634 -10.462 575.069 416.549
-0.990562 -3.31521 -13.2193 575.409 425.932
-3.94832 0.888937 -6.29887 562.257 446.993
-2.32851 1.12303 -7.17162 568.927 447.728
-0.668077 1.08826 -8.06879 575.821 447.354
1.18516 0.799182 -7.17556 583.569 447.129
2.93078 0.254206 -6.33548 590.924 445.799
-11.1054 -10.0683 -1.16632 534.88 403.901
-9.71754 -11.3728 -1.17787 540.911 398.837
-7.79093 -11.4397 -1.09335 548.917 399.018
-6.23453 -10.3633 -0.619708 555.146 404.057
-7.75477 -9.43482 -0.982209 548.645 407.312
-9.50587 -9.2708 -1.12957 541.347 407.526
4.59124 -11.2552 -0.695664 600.237 402.605
6.05572 -12.5588 -1.06134 606.586 397.333
8.00495 -12.6506 -0.964859 614.69 397.424
9.60728 -11.5808 -0.764254 621.111 402.271
8.06946 -10.6308 -0.895339 614.533 405.759
6.27043 -10.53 -0.901247 607.049 405.794
-6.04894 9.81803 -2.70794 551.665 485.454
-4.12477 8.28951 -4.97964 559.967 478.13
-2.0078 6.94103 -6.69451 569.032 471.943
0.452686 6.94419 -8.24107 579.236 471.474
2.98129 6.42736 -6.60788 589.834 470.932
5.47222 7.27748 -4.91597 599.987 476.021
7.94467 8.27697 -2.70899 610.032 482.049
6.16467 10.1119 -4.00305 602.263 488.367
3.84366 11.3269 -5.38003 592.379 491.978
1.18341 11.8831 -6.61083 581.227 492.912
-1.53018 11.9732 -5.43669 569.953 493.472
-4.05416 11.2955 -4.17352 559.627 490.981
-1.6632 9.03127 -5.08855 570.021 481.612
0.680153 8.66599 -7.30174 579.817 479.18
3.18872 8.43169 -5.31815 590.272 480.017
3.31002 8.97978 -4.67718 590.66 482.7
0.798623 9.39202 -6.47787 580.156 482.71
-1.628 9.54879 -4.54876 570.058 484.087
3 20 21 23
3 21 22 23
3 0 1 36
3 15 16 45
3 0 17 36
3 16 26 45
3 17 18 37
3 25 26 44
3 17 36 37
3 26 44 45
3 18 19 38
3 24 25 43
3 18 37 38
3 25 43 44
3 19 20 38
3 23 24 43
3 20 21 39
3 22 23 42
3 20 38 39
3 23 42 43
3 21 22 27
3 21 27 39
3 22 27 42
3 27 28 42
3 27 28 39
3 28 42 47
3 28 39 40
3 1 36 41
3 15 45 46
3 1 2 41
3 14 15 46
3 28 29 40
3 28 29 47
3 2 40 41
3 14 46 47
3 2 29 40
3 14 29 47
3 2 3 29
3 13 14 29
3 29 30 31
3 29 30 35
3 3 29 31
3 13 29 35
3 30 32 33
3 30 33 34
3 30 31 32
3 30 34 35
3 3 4 31
3 12 13 35
3 4 5 48
3 11 12 54
3 5 6 48
3 10 11 54
3 6 48 59
3 10 54 55
3 6 7 59
3 9 10 55
3 7 58 59
3 9 55 56
3 8 57 58
3 8 56 57
3 7 8 58
3 8 9 56
3 4 31 48
3 12 35 54
3 31 48 49
3 35 53 54
3 31 49 50
3 35 52 53
3 31 32 50
3 34 35 52
3 32 33 50
3 33 34 52
3 33 50 51
3 33 51 52
3 48 49 60
3 49 60 50
3 50 60 61
3 50 51 61
3 51 52 61
3 61 62 52
3 52 53 62
3 53 54 62
3 54 55 63
3 55 56 63
3 56 63 64
3 56 57 64
3 64 65 57
3 57 58 65
3 58 59 65
3 48 59 65
