ply
format ascii 1.0
element vertex 66
property float x
property float y
property float z
property float u
property float v
element face 91
property list uchar int vertex_indices
end_header
-20.0622 -5.84483 20.9272 496.329 432.257
-19.6838 -0.701468 20.5325 496.663 453.383
-18.9066 4.3909 20.2114 498.677 474.442
-17.5704 9.30943 18.1594 503.122 493.836
-15.3574 13.8519 13.4641 511.407 510.235
-11.9726 17.701 7.9209 524.79 523.523
-7.68029 20.6623 3.22611 542.162 533.894
-2.77363 22.6485 -0.767645 562.324 540.821
2.59164 22.7422 -4.36733 584.858 540.278
7.25428 21.6012 -0.885104 604.545 538.889
11.1682 19.0138 3.35246 621.433 531.804
14.5415 15.8354 8.17184 636.185 522.505
16.9317 11.9329 13.8175 646.978 510.485
18.1529 7.34692 18.5878 653.072 494.8
18.6922 2.36433 20.7824 656.485 475.694
18.891 -2.77348 21.1785 658.565 454.734
18.8708 -7.90204 21.6062 659.725 433.779
-15.9132 -15.4271 0.270859 516.646 380.7
-13.9675 -17.1034 -1.46105 525.249 373.16
-11.5002 -17.8808 -2.96279 535.808 369.612
-8.9198 -18.0098 -4.32492 546.677 368.862
-6.4115 -17.5783 -5.58118 557.104 370.479
3.36284 -18.218 -5.27909 598.152 370.434
6.24041 -19.1688 -4.06132 610.39 367.973
9.25597 -19.466 -2.68751 623.041 368.347
12.2075 -18.759 -1.25932 635.176 372.895
14.5348 -16.8548 0.457863 644.397 382.423
-1.6001 -11.7619 -5.11203 575.798 396.024
-1.50018 -8.85903 -7.66901 575.579 406.457
-1.37116 -5.99021 -10.4586 575.498 416.611
-1.19321 -3.14648 -13.2768 575.628 426.655
-3.78569 0.671451 -6.20067 563.636 446.243
-2.35059 0.839779 -7.15222 569.628 446.698
-0.887261 0.791637 -8.1245 575.792 446.251
0.819026 0.544227 -7.18826 582.965 446.235
2.45202 0.0954904 -6.21939 589.879 445.388
-11.5822 -10.0247 -1.13549 533.486 403.239
-10.0255 -11.4553 -1.15334 540.351 397.693
-7.87973 -11.5445 -1.11343 549.35 397.878
-6.15932 -10.3859 -0.672756 556.252 403.372
-7.87269 -9.46301 -1.00793 548.866 406.558
-9.81347 -9.25074 -1.12815 540.697 406.882
5.04619 -11.4102 -0.883631 603.398 401.768
6.6653 -12.799 -1.04332 610.518 396.321
8.83384 -12.8636 -0.837687 619.602 396.718
10.6099 -11.6777 -0.623827 626.737 402.197
8.89391 -10.748 -0.870488 619.336 405.465
6.90287 -10.6689 -0.992477 610.989 405.225
-6.05854 9.92295 -2.75255 551.757 486.118
-4.17212 8.34953 -4.97015 560.101 478.685
-2.08005 6.96537 -6.67214 569.245 472.409
0.35415 6.9436 -8.2393 579.482 471.938
2.8718 6.44464 -6.57101 590.09 471.539
5.36128 7.33506 -4.88991 600.239 476.891
7.83994 8.37342 -2.82055 610.295 483.094
6.05377 10.1715 -4.12013 602.419 489.279
3.76459 11.3941 -5.41686 592.578 492.96
1.13697 11.9848 -6.61187 581.474 494.007
-1.56594 12.0753 -5.45511 570.107 494.439
-4.08435 11.4049 -4.25061 559.698 491.798
-1.80599 9.02509 -5.05884 569.839 482.008
0.588389 8.64374 -7.34478 580.019 479.59
3.17973 8.38768 -5.34333 590.866 480.423
3.29179 8.97019 -4.683 591.173 483.274
0.71901 9.42236 -6.43552 580.348 483.413
-1.76826 9.57928 -4.53013 569.845 484.642
3 20 21 23
3 21 22 23
3 0 1 36
3 15 16 45
3 0 17 36
3 16 26 45
3 17 18 37
3 25 26 44
3 17 36 37
3 26 44 45
3 18 19 38
3 24 25 43
3 18 37 38
3 25 43 44
3 19 20 38
3 23 24 43
3 20 21 39
3 22 23 42
3 20 38 39
3 23 42 43
3 21 22 27
3 21 27 39
3 22 27 42
3 27 28 42
3 27 28 39
3 28 42 47
3 28 39 40
3 1 36 41
3 15 45 46
3 1 2 41
3 14 15 46
3 28 29 40
3 28 29 47
3 2 40 41
3 14 46 47
3 2 29 40
3 14 29 47
3 2 3 29
3 13 14 29
3 29 30 31
3 29 30 35
3 3 29 31
3 13 29 35
3 30 32 33
3 30 33 34
3 30 31 32
3 30 34 35
3 3 4 31
3 12 13 35
3 4 5 48
3 11 12 54
3 5 6 48
3 10 11 54
3 6 48 59
3 10 54 55
3 6 7 59
3 9 10 55
3 7 58 59
3 9 55 56
3 8 57 58
3 8 56 57
3 7 8 58
3 8 9 56
3 4 31 48
3 12 35 54
3 31 48 49
3 35 53 54
3 31 49 50
3 35 52 53
3 31 32 50
3 34 35 52
3 32 33 50
3 33 34 52
3 33 50 51
3 33 51 52
3 48 49 60
3 49 60 50
3 50 60 61
3 50 51 61
3 51 52 61
3 61 62 52
3 52 53 62
3 53 54 62
3 54 55 63
3 55 56 63
3 56 63 64
3 56 57 64
3 64 65 57
3 57 58 65
3 58 59 65
3 48 59 65
