ply
format ascii 1.0
element vertex 66
property float x
property float y
property float z
property float u
property float v
element face 91
property list uchar int vertex_indices
end_header
-19.8291 -5.89444 20.9224 494.59 431.594
-19.4323 -0.6457 20.5109 494.984 453.305
-18.6244 4.55302 20.181 497.117 474.96
-17.2584 9.54146 18.2031 501.735 494.874
-15.0655 14.0789 13.4834 510.081 511.443
-11.7804 17.9276 7.90982 523.237 524.896
-7.59542 20.9363 3.17086 540.348 535.586
-2.74783 22.9419 -0.787976 560.458 542.742
2.60495 22.9877 -4.36477 583.159 542.095
7.27512 21.7185 -0.839651 602.957 540.137
11.0582 18.9024 3.33448 619.371 531.908
14.2344 15.5335 8.19424 633.332 521.644
16.4983 11.5749 13.833 643.559 509.169
17.7888 7.07347 18.5178 649.871 493.606
18.4072 2.19 20.6225 653.575 474.706
18.6074 -2.8684 20.9559 655.651 453.89
18.5302 -7.91692 21.3924 656.551 433.109
-15.7198 -15.4583 0.226582 515.283 380.15
-13.8513 -17.1918 -1.45065 523.661 372.375
-11.4064 -17.9843 -2.91818 534.222 368.793
-8.84691 -18.0794 -4.31173 545.09 368.19
-6.35711 -17.6304 -5.61936 555.526 369.888
3.71947 -18.2723 -5.35999 598.092 369.908
6.3895 -19.1646 -4.07102 609.489 367.65
9.19923 -19.4697 -2.64003 621.321 367.961
11.9646 -18.8409 -1.21315 632.736 372.147
14.1264 -17.0355 0.428893 641.31 381.214
-1.39105 -11.7804 -5.09005 574.961 395.827
-1.35171 -9.13111 -7.64188 574.599 405.313
-1.28555 -6.51265 -10.39 574.368 414.558
-1.17625 -3.91751 -13.1716 574.326 423.696
-3.80609 0.403187 -6.17528 561.839 445.305
-2.32986 0.598691 -7.11053 568.052 445.919
-0.812416 0.563581 -8.05989 574.496 445.575
0.898862 0.333017 -7.11283 581.71 445.624
2.52372 -0.109856 -6.1108 588.61 444.8
-11.7563 -10.28 -1.17063 530.759 401.863
-10.1637 -11.7224 -1.10905 537.817 396.293
-7.96433 -11.847 -1.02863 547.103 396.377
-6.21639 -10.6747 -0.630961 554.152 401.942
-7.95767 -9.65563 -1.01484 546.589 405.514
-9.96428 -9.43586 -1.11406 538.092 405.864
5.24161 -11.6782 -0.885276 602.648 400.49
6.8677 -13.0347 -0.921632 609.831 395.227
9.07435 -13.0841 -0.768747 619.125 395.67
10.8466 -11.8467 -0.674128 626.276 401.328
9.13342 -10.8575 -0.875427 618.829 404.894
7.10099 -10.8088 -1.03721 610.269 404.487
-5.11763 10.2444 -2.76789 553.717 488.047
-3.60372 8.59504 -4.98078 560.608 480.207
-1.8524 7.07612 -6.69983 568.441 473.271
0.302587 7.06964 -8.30006 577.595 472.808
2.52288 6.62774 -6.56735 586.964 472.585
4.63764 7.73246 -4.86868 595.51 478.756
6.66196 8.97253 -2.83086 603.624 485.676
5.27792 10.6687 -4.13595 597.443 491.595
3.39211 11.8645 -5.49312 589.277 495.272
1.08474 12.439 -6.74223 579.483 496.322
-1.32743 12.4584 -5.56244 569.265 496.516
-3.48893 11.7162 -4.30187 560.286 493.651
-1.37865 9.22331 -5.00286 569.821 483.37
0.540287 8.8186 -7.27531 578.112 480.779
2.64093 8.70836 -5.17588 586.878 482.131
2.72127 9.26991 -4.59204 587.048 484.847
0.687937 9.72234 -6.3751 578.466 485.13
-1.29731 9.76451 -4.5449 570.006 485.924
3 20 21 23
3 21 22 23
3 0 1 36
3 15 16 45
3 0 17 36
3 16 26 45
3 17 18 37
3 25 26 44
3 17 36 37
3 26 44 45
3 18 19 38
3 24 25 43
3 18 37 38
3 25 43 44
3 19 20 38
3 23 24 43
3 20 21 39
3 22 23 42
3 20 38 39
3 23 42 43
3 21 22 27
3 21 27 39
3 22 27 42
3 27 28 42
3 27 28 39
3 28 42 47
3 28 39 40
3 1 36 41
3 15 45 46
3 1 2 41
3 14 15 46
3 28 29 40
3 28 29 47
3 2 40 41
3 14 46 47
3 2 29 40
3 14 29 47
3 2 3 29
3 13 14 29
3 29 30 31
3 29 30 35
3 3 29 31
3 13 29 35
3 30 32 33
3 30 33 34
3 30 31 32
3 30 34 35
3 3 4 31
3 12 13 35
3 4 5 48
3 11 12 54
3 5 6 48
3 10 11 54
3 6 48 59
3 10 54 55
3 6 7 59
3 9 10 55
3 7 58 59
3 9 55 56
3 8 57 58
3 8 56 57
3 7 8 58
3 8 9 56
3 4 31 48
3 12 35 54
3 31 48 49
3 35 53 54
3 31 49 50
3 35 52 53
3 31 32 50
3 34 35 52
3 32 33 50
3 33 34 52
3 33 50 51
3 33 51 52
3 48 49 60
3 49 60 50
3 50 60 61
3 50 51 61
3 51 52 61
3 61 62 52
3 52 53 62
3 53 54 62
3 54 55 63
3 55 56 63
3 56 63 64
3 56 57 64
3 64 65 57
3 57 58 65
3 58 59 65
3 48 59 65
