ply
format ascii 1.0
element vertex 66
property float x
property float y
property float z
property float u
property float v
element face 91
property list uchar int vertex_indices
end_header
-19.9949 -5.79789 20.9331 496.427 431.195
-19.6433 -0.669413 20.5199 496.551 452.427
-18.8958 4.41624 20.2491 498.348 473.671
-17.6144 9.29816 18.1653 502.502 493.151
-15.4537 13.7857 13.5129 510.54 509.724
-12.0997 17.5952 7.9521 523.808 523.262
-7.79576 20.5055 3.2397 541.29 533.801
-2.84678 22.4093 -0.75308 561.733 540.737
2.5541 22.4353 -4.34031 584.568 540.202
7.25498 21.4013 -0.924467 604.529 539.146
11.2484 18.9548 3.32225 621.864 532.496
14.6892 15.8858 8.17835 637.02 523.458
17.0681 12.0399 13.8801 647.888 511.39
18.2091 7.4626 18.6217 653.77 495.38
18.6837 2.43125 20.8777 657.043 475.849
18.8585 -2.79748 21.2647 659.162 454.325
18.8263 -8.01234 21.7191 660.404 432.842
-15.9474 -15.2111 0.2487 516.597 380.976
-14.006 -16.8944 -1.45928 525.269 373.484
-11.5493 -17.6697 -2.96414 535.862 370.033
-8.98989 -17.8172 -4.34231 546.716 369.302
-6.50539 -17.4291 -5.63167 557.11 370.835
3.33488 -18.0976 -5.3132 598.699 370.875
6.21833 -19.0808 -4.05244 611.061 368.286
9.25065 -19.4218 -2.65039 623.874 368.496
12.2472 -18.7793 -1.21503 636.273 372.815
14.6583 -16.9221 0.427886 645.877 382.163
-1.63999 -11.7161 -5.1407 576.05 396.243
-1.52941 -8.83058 -7.68338 575.822 406.818
-1.38795 -5.98325 -10.4788 575.742 417.096
-1.19742 -3.15875 -13.3035 575.875 427.274
-3.92974 0.719707 -6.22536 563.127 446.837
-2.44174 0.9092 -7.17873 569.368 447.47
-0.919289 0.858804 -8.12861 575.819 447.115
0.868087 0.594352 -7.22883 583.386 447.017
2.57906 0.107537 -6.25046 590.688 446.017
-11.8636 -9.92461 -1.11447 532.417 403.315
-10.2123 -11.3572 -1.13547 539.751 397.774
-7.99026 -11.4453 -1.11709 549.127 398.014
-6.19092 -10.3048 -0.73772 556.385 403.473
-7.99679 -9.43363 -1.04794 548.561 406.439
-10.017 -9.20125 -1.14649 539.998 406.808
5.21158 -11.4144 -0.927669 604.684 401.797
6.9148 -12.8296 -1.01994 612.234 396.301
9.17185 -12.9065 -0.789683 621.748 396.72
11.0639 -11.7525 -0.579216 629.398 402.161
9.25815 -10.8456 -0.869577 621.564 405.288
7.17355 -10.7491 -1.01728 612.768 405.044
-6.05941 9.93558 -2.7716 551.599 486.698
-4.17599 8.32626 -4.94631 560.022 479.226
-2.07749 6.95596 -6.6608 569.272 473.077
0.336838 6.91662 -8.26498 579.494 472.626
2.83791 6.43412 -6.59028 590.1 472.262
5.34066 7.31723 -4.89103 600.348 477.607
7.84446 8.37443 -2.86408 610.544 483.868
6.01431 10.1287 -4.14762 602.411 489.941
3.70521 11.3045 -5.44033 592.417 493.469
1.08578 11.858 -6.60839 581.278 494.392
-1.59052 11.9905 -5.44365 569.942 494.905
-4.09769 11.3743 -4.22407 559.517 492.375
-1.96046 9.0209 -5.05275 569.166 482.655
0.55551 8.60723 -7.37883 579.936 480.249
3.27133 8.35554 -5.38888 591.376 481.089
3.36125 8.89504 -4.72159 591.59 483.751
0.665956 9.31852 -6.43438 580.183 483.794
-1.93697 9.52951 -4.51555 569.113 485.094
3 20 21 23
3 21 22 23
3 0 1 36
3 15 16 45
3 0 17 36
3 16 26 45
3 17 18 37
3 25 26 44
3 17 36 37
3 26 44 45
3 18 19 38
3 24 25 43
3 18 37 38
3 25 43 44
3 19 20 38
3 23 24 43
3 20 21 39
3 22 23 42
3 20 38 39
3 23 42 43
3 21 22 27
3 21 27 39
3 22 27 42
3 27 28 42
3 27 28 39
3 28 42 47
3 28 39 40
3 1 36 41
3 15 45 46
3 1 2 41
3 14 15 46
3 28 29 40
3 28 29 47
3 2 40 41
3 14 46 47
3 2 29 40
3 14 29 47
3 2 3 29
3 13 14 29
3 29 30 31
3 29 30 35
3 3 29 31
3 13 29 35
3 30 32 33
3 30 33 34
3 30 31 32
3 30 34 35
3 3 4 31
3 12 13 35
3 4 5 48
3 11 12 54
3 5 6 48
3 10 11 54
3 6 48 59
3 10 54 55
3 6 7 59
3 9 10 55
3 7 58 59
3 9 55 56
3 8 57 58
3 8 56 57
3 7 8 58
3 8 9 56
3 4 31 48
3 12 35 54
3 31 48 49
3 35 53 54
3 31 49 50
3 35 52 53
3 31 32 50
3 34 35 52
3 32 33 50
3 33 34 52
3 33 50 51
3 33 51 52
3 48 49 60
3 49 60 50
3 50 60 61
3 50 51 61
3 51 52 61
3 61 62 52
3 52 53 62
3 53 54 62
3 54 55 63
3 55 56 63
3 56 63 64
3 56 57 64
3 64 65 57
3 57 58 65
3 58 59 65
3 48 59 65
