ply
format ascii 1.0
element vertex 66
property float x
property float y
property float z
property float u
property float v
element face 91
property list uchar int vertex_indices
end_header
-20.5701 -5.68523 21.5224 485.023 430.864
-19.6676 -0.249988 20.9766 487.745 452.764
-18.5051 5.15379 20.5063 491.494 474.639
-17.0719 10.3447 18.4984 496.983 495.011
-15.1404 14.9289 13.2229 505.889 511.548
-12.1013 18.5825 7.87601 519.497 524.58
-8.1938 21.3308 3.27318 536.517 534.526
-3.76671 23.1766 -0.938458 555.675 541.145
1.11862 23.4584 -4.74291 576.855 541.76
6.22482 22.2252 -0.652849 596.168 539.979
10.366 19.1104 3.47422 611.959 530.38
13.7002 15.2098 8.03826 624.481 517.609
16.2479 10.8502 13.2762 633.656 503.099
17.9961 6.31003 18.0853 639.803 487.458
18.975 1.64888 20.1233 643.946 469.85
19.3013 -3.11338 20.3227 646.188 450.816
19.1154 -7.87723 20.7306 646.277 431.742
-17.3575 -14.6268 0.246858 508.191 385.755
-15.174 -17.1847 -1.63629 518.293 375.119
-12.1063 -18.5281 -2.8832 531.467 369.902
-8.76605 -18.6273 -4.1191 545.478 369.779
-5.47039 -17.89 -5.20296 559.073 373.088
3.54338 -17.9906 -5.41925 595.629 374.873
5.92191 -18.9609 -4.1409 604.953 372.156
8.51725 -19.3133 -2.77229 614.989 372.029
11.125 -18.9983 -1.358 624.917 374.617
13.408 -17.6692 0.424258 633.174 381.385
0.268296 -10.9644 -4.77017 580.657 402.683
0.41182 -7.88817 -7.82723 581.783 413.711
0.531823 -4.81241 -10.7302 582.755 424.803
0.623109 -1.72711 -13.2015 583.44 436.126
-1.72136 0.726893 -6.28147 570.745 448.635
-0.406619 0.910695 -7.13158 576.354 449.317
0.953194 0.963378 -7.96868 582.169 449.487
2.03891 0.876345 -6.92484 586.171 449.895
3.05916 0.64266 -5.97407 589.975 449.653
-12.3196 -10.5913 -1.022 528.212 402.725
-10.5369 -11.7626 -1.06442 535.684 398.434
-8.34368 -12.0426 -1.00145 544.587 397.891
-6.48443 -11.0327 -0.716359 551.782 402.569
-8.37939 -10.293 -1.00508 544.076 404.938
-10.4289 -10.1369 -0.987087 535.749 405.055
5.25957 -11.4983 -0.705777 599.368 403.681
6.86228 -12.5428 -0.823971 606.114 399.821
8.96826 -12.6416 -0.931457 614.693 399.908
10.7317 -11.5991 -0.97366 621.622 404.541
9.01591 -10.9121 -0.94284 614.527 406.89
7.07443 -10.9144 -0.968748 606.687 406.376
-4.18722 9.83996 -2.93762 557.555 486.316
-3.12922 7.64938 -5.30146 563.215 476.654
-1.55408 5.78898 -6.76095 570.545 468.874
0.573267 5.84812 -8.39382 579.772 468.897
2.56382 5.70427 -6.46048 587.098 469.718
4.09545 7.51124 -4.99493 592.341 478.075
4.95742 9.8772 -2.75364 594.455 488.876
4.00612 11.0789 -3.91749 590.81 492.942
2.5927 11.8631 -5.06598 585.378 495.214
0.791643 12.1082 -6.78295 578.713 494.949
-1.12694 11.8315 -5.30878 570.437 494.029
-2.77102 11.0279 -4.0713 563.475 490.943
-0.741645 8.20913 -5.24727 572.732 479.544
0.686684 7.91503 -7.15581 579.314 477.836
1.99911 8.31853 -4.68081 583.571 480.944
1.9189 9.00799 -4.19148 582.911 483.932
0.788676 9.12066 -6.10848 579.065 483.211
-0.506115 8.92437 -4.64524 573.299 482.768
3 20 21 23
3 21 22 23
3 0 1 36
3 15 16 45
3 0 17 36
3 16 26 45
3 17 18 37
3 25 26 44
3 17 36 37
3 26 44 45
3 18 19 38
3 24 25 43
3 18 37 38
3 25 43 44
3 19 20 38
3 23 24 43
3 20 21 39
3 22 23 42
3 20 38 39
3 23 42 43
3 21 22 27
3 21 27 39
3 22 27 42
3 27 28 42
3 27 28 39
3 28 42 47
3 28 39 40
3 1 36 41
3 15 45 46
3 1 2 41
3 14 15 46
3 28 29 40
3 28 29 47
3 2 40 41
3 14 46 47
3 2 29 40
3 14 29 47
3 2 3 29
3 13 14 29
3 29 30 31
3 29 30 35
3 3 29 31
3 13 29 35
3 30 32 33
3 30 33 34
3 30 31 32
3 30 34 35
3 3 4 31
3 12 13 35
3 4 5 48
3 11 12 54
3 5 6 48
3 10 11 54
3 6 48 59
3 10 54 55
3 6 7 59
3 9 10 55
3 7 58 59
3 9 55 56
3 8 57 58
3 8 56 57
3 7 8 58
3 8 9 56
3 4 31 48
3 12 35 54
3 31 48 49
3 35 53 54
3 31 49 50
3 35 52 53
3 31 32 50
3 34 35 52
3 32 33 50
3 33 34 52
3 33 50 51
3 33 51 52
3 48 49 60
3 49 60 50
3 50 60 61
3 50 51 61
3 51 52 61
3 61 62 52
3 52 53 62
3 53 54 62
3 54 55 63
3 55 56 63
3 56 63 64
3 56 57 64
3 64 65 57
3 57 58 65
3 58 59 65
3 48 59 65
