ply
format ascii 1.0
element vertex 66
property float x
property float y
property float z
property float u
property float v
element face 91
property list uchar int vertex_indices
end_header
-19.9834 -6.20969 21.2942 488.948 430.688
-19.394 -0.668882 20.7819 490.742 453.268
-18.4567 4.82865 20.2953 493.973 475.736
-17.1456 10.1037 18.4344 499.019 496.683
-15.2698 14.7778 13.4445 507.028 513.737
-12.2361 18.5666 7.86479 520.039 527.048
-8.21205 21.4231 3.15558 537.108 537.105
-3.55157 23.2858 -0.861265 556.814 543.515
1.59307 23.3806 -4.58364 578.701 542.885
6.60177 22.0878 -0.628392 598.855 540.251
10.5268 18.916 3.48625 614.754 529.819
13.7188 15.1356 8.15662 627.609 517.047
16.1548 10.9677 13.5859 637.26 502.936
17.8269 6.52776 18.2687 643.924 487.233
18.732 1.82604 20.2377 647.933 469.027
19.0107 -3.03073 20.5222 649.675 449.276
18.8312 -7.89092 20.831 649.52 429.453
-16.3609 -15.3501 0.204128 508.83 383.533
-14.4169 -17.4425 -1.52216 517.437 374.407
-11.7606 -18.4673 -2.87075 528.778 369.952
-8.9233 -18.5343 -4.19002 540.735 369.47
-6.13139 -17.9663 -5.41009 552.404 371.635
3.74047 -18.1945 -5.4295 593.199 372.186
6.18264 -19.0151 -4.1268 603.161 369.819
8.78915 -19.2917 -2.73023 613.714 369.754
11.3693 -18.7558 -1.3102 624.046 373.032
13.4364 -17.1069 0.405632 632.062 380.941
-0.565432 -11.6825 -4.97534 574.481 398.477
-0.58178 -9.24616 -7.69729 574.572 407.157
-0.598217 -6.82437 -10.4488 574.67 415.763
-0.597085 -4.4102 -13.0982 574.823 424.389
-2.67764 0.510532 -6.17945 564.364 447.612
-1.32673 0.616504 -7.08027 570.087 447.816
0.0536246 0.576231 -8.00902 575.955 447.411
1.37721 0.485151 -6.93575 581.243 447.757
2.62624 0.235023 -6.0702 586.281 447.338
-11.7274 -10.5505 -1.14425 527.567 403.281
-10.1658 -11.8975 -1.10824 534.186 398.007
-8.03698 -12.0848 -0.995828 542.981 397.616
-6.32959 -10.8981 -0.624696 549.809 402.924
-8.02348 -9.82294 -1.04878 542.748 406.874
-9.99246 -9.66682 -1.07348 534.602 407.205
5.10435 -11.5244 -0.83106 597.14 401.989
6.5804 -12.7244 -0.944186 603.413 397.233
8.62444 -12.803 -0.886553 611.853 397.249
10.2309 -11.5856 -0.792822 618.309 402.534
8.68335 -10.5533 -0.89869 611.802 406.484
6.79066 -10.5642 -1.03146 604.011 406.088
-4.27775 10.336 -2.84578 555.873 489.302
-2.98995 8.46468 -5.19071 561.851 480.684
-1.45391 6.6494 -6.86494 568.728 472.659
0.595643 6.63998 -8.41276 577.465 472.183
2.63635 6.3682 -6.479 585.586 472.312
4.357 7.89772 -4.84035 592.2 479.642
5.78016 9.63829 -2.67336 597.465 488.048
4.75225 11.0758 -3.96717 593.259 493.166
3.21776 12.0895 -5.29587 587.024 496.451
1.20966 12.497 -6.84906 578.952 497.068
-0.910318 12.3991 -5.59239 569.99 496.952
-2.77909 11.6546 -4.23052 562.132 494.271
-0.609654 9.03542 -5.12025 571.592 483.422
0.842421 8.65231 -7.0511 577.978 481.136
2.36096 8.8344 -4.81307 583.83 483.196
2.39289 9.2717 -4.3167 583.817 485.235
0.997482 9.51598 -6.24203 578.362 485.095
-0.437194 9.49274 -4.64625 572.16 485.554
3 20 21 23
3 21 22 23
3 0 1 36
3 15 16 45
3 0 17 36
3 16 26 45
3 17 18 37
3 25 26 44
3 17 36 37
3 26 44 45
3 18 19 38
3 24 25 43
3 18 37 38
3 25 43 44
3 19 20 38
3 23 24 43
3 20 21 39
3 22 23 42
3 20 38 39
3 23 42 43
3 21 22 27
3 21 27 39
3 22 27 42
3 27 28 42
3 27 28 39
3 28 42 47
3 28 39 40
3 1 36 41
3 15 45 46
3 1 2 41
3 14 15 46
3 28 29 40
3 28 29 47
3 2 40 41
3 14 46 47
3 2 29 40
3 14 29 47
3 2 3 29
3 13 14 29
3 29 30 31
3 29 30 35
3 3 29 31
3 13 29 35
3 30 32 33
3 30 33 34
3 30 31 32
3 30 34 35
3 3 4 31
3 12 13 35
3 4 5 48
3 11 12 54
3 5 6 48
3 10 11 54
3 6 48 59
3 10 54 55
3 6 7 59
3 9 10 55
3 7 58 59
3 9 55 56
3 8 57 58
3 8 56 57
3 7 8 58
3 8 9 56
3 4 31 48
3 12 35 54
3 31 48 49
3 35 53 54
3 31 49 50
3 35 52 53
3 31 32 50
3 34 35 52
3 32 33 50
3 33 34 52
3 33 50 51
3 33 51 52
3 48 49 60
3 49 60 50
3 50 60 61
3 50 51 61
3 51 52 61
3 61 62 52
3 52 53 62
3 53 54 62
3 54 55 63
3 55 56 63
3 56 63 64
3 56 57 64
3 64 65 57
3 57 58 65
3 58 59 65
3 48 59 65
