ply
format ascii 1.0
element vertex 66
property float x
property float y
property float z
property float u
property float v
element face 91
property list uchar int vertex_indices
end_header
-20.1016 -5.87518 20.8838 497.48 430.276
-19.7533 -0.799312 20.4766 497.641 450.871
-18.9969 4.22617 20.1898 499.504 471.433
-17.635 9.11149 18.1439 503.88 490.5
-15.3851 13.6945 13.4511 511.965 506.939
-12.0073 17.6242 7.87913 524.865 520.449
-7.73992 20.6733 3.2279 541.676 531.137
-2.86355 22.76 -0.728941 561.255 538.461
2.47341 22.9737 -4.3992 583.213 538.415
7.16559 21.8428 -0.860996 602.944 537.097
11.1469 19.2663 3.32825 620.108 530.09
14.587 16.0537 8.09136 635.203 520.697
17.0385 12.0737 13.768 646.416 508.479
18.2918 7.37568 18.6043 652.843 492.519
18.8412 2.31323 20.7833 656.415 473.278
19.0182 -2.86664 21.1854 658.451 452.384
18.9691 -8.03655 21.6242 659.551 431.498
-15.9054 -15.2905 0.296545 516.896 380.278
-14.1179 -17.0363 -1.47861 524.698 372.498
-11.7416 -17.8962 -2.9732 534.716 368.657
-9.2111 -18.058 -4.32254 545.199 367.797
-6.73965 -17.6563 -5.55555 555.298 369.297
3.57941 -18.404 -5.22708 598.149 368.977
6.46055 -19.3383 -4.04438 610.311 366.585
9.46473 -19.6003 -2.7002 622.815 367.071
12.3683 -18.7781 -1.286 634.632 372.007
14.5682 -16.7515 0.497119 643.243 381.921
-1.60225 -11.5234 -5.11533 575.004 395.908
-1.47572 -8.77684 -7.69257 574.802 405.602
-1.32046 -6.05486 -10.4424 574.722 415.098
-1.11958 -3.35791 -13.1957 574.837 424.5
-3.81347 0.56932 -6.16532 562.816 444.175
-2.33322 0.752634 -7.12605 568.875 444.704
-0.824592 0.715624 -8.12038 575.107 444.319
0.919255 0.439491 -7.16501 582.399 444.2
2.58477 -0.042689 -6.22178 589.419 443.212
-11.3946 -9.77858 -1.21072 534.14 403.01
-9.96826 -11.1062 -1.19567 540.37 397.941
-7.98282 -11.2353 -1.10641 548.611 397.956
-6.34478 -10.2855 -0.67685 555.151 402.504
-7.91011 -9.30882 -1.02119 548.43 405.903
-9.72287 -9.08086 -1.14737 540.877 406.313
5.06446 -11.338 -0.799694 602.579 400.932
6.62871 -12.5469 -1.04039 609.346 396.226
8.65421 -12.5735 -0.909376 617.727 396.695
10.3126 -11.4994 -0.731917 624.316 401.604
8.68364 -10.6294 -0.882271 617.362 404.669
6.80612 -10.5613 -0.953496 609.582 404.442
-5.83337 9.86045 -2.74056 552.184 483.757
-4.04097 8.26698 -4.96539 559.962 476.328
-2.00932 6.85921 -6.65852 568.69 470.04
0.401025 6.86238 -8.20387 578.632 469.706
2.88978 6.33709 -6.58861 589.075 469.153
5.32206 7.25635 -4.91347 598.923 474.529
7.70968 8.31425 -2.78982 608.558 480.735
5.94426 10.063 -4.08365 600.803 486.665
3.7048 11.2468 -5.43772 591.229 490.131
1.13909 11.8399 -6.67863 580.456 491.17
-1.47676 11.9108 -5.45405 569.642 491.562
-3.91194 11.2767 -4.18177 559.752 489.144
-1.62204 8.91938 -5.03259 569.797 479.55
0.623177 8.57059 -7.27243 579.135 477.312
3.04993 8.30348 -5.33801 589.261 477.994
3.14707 8.88892 -4.69034 589.525 480.806
0.739244 9.37025 -6.40312 579.426 481.14
-1.58638 9.47446 -4.5016 569.813 482.151
3 20 21 23
3 21 22 23
3 0 1 36
3 15 16 45
3 0 17 36
3 16 26 45
3 17 18 37
3 25 26 44
3 17 36 37
3 26 44 45
3 18 19 38
3 24 25 43
3 18 37 38
3 25 43 44
3 19 20 38
3 23 24 43
3 20 21 39
3 22 23 42
3 20 38 39
3 23 42 43
3 21 22 27
3 21 27 39
3 22 27 42
3 27 28 42
3 27 28 39
3 28 42 47
3 28 39 40
3 1 36 41
3 15 45 46
3 1 2 41
3 14 15 46
3 28 29 40
3 28 29 47
3 2 40 41
3 14 46 47
3 2 29 40
3 14 29 47
3 2 3 29
3 13 14 29
3 29 30 31
3 29 30 35
3 3 29 31
3 13 29 35
3 30 32 33
3 30 33 34
3 30 31 32
3 30 34 35
3 3 4 31
3 12 13 35
3 4 5 48
3 11 12 54
3 5 6 48
3 10 11 54
3 6 48 59
3 10 54 55
3 6 7 59
3 9 10 55
3 7 58 59
3 9 55 56
3 8 57 58
3 8 56 57
3 7 8 58
3 8 9 56
3 4 31 48
3 12 35 54
3 31 48 49
3 35 53 54
3 31 49 50
3 35 52 53
3 31 32 50
3 34 35 52
3 32 33 50
3 33 34 52
3 33 50 51
3 33 51 52
3 48 49 60
3 49 60 50
3 50 60 61
3 50 51 61
3 51 52 61
3 61 62 52
3 52 53 62
3 53 54 62
3 54 55 63
3 55 56 63
3 56 63 64
3 56 57 64
3 64 65 57
3 57 58 65
3 58 59 65
3 48 59 65
