ply
format ascii 1.0
element vertex 66
property float x
property float y
property float z
property float u
property float v
element face 91
property list uchar int vertex_indices
end_header
-20.0404 -5.2622 20.8393 490.033 430.005
-19.5016 -0.246429 20.3404 490.438 450.367
-18.5693 4.71284 20.0627 492.52 470.709
-17.1077 9.51372 18.0275 496.386 489.866
-14.8093 13.9916 13.3776 503.139 506.921
-11.5154 17.8767 7.83346 513.931 521.515
-7.41578 20.9869 3.14333 528.474 533.548
-2.67108 23.1164 -0.886185 546.132 542.058
2.57406 23.2959 -4.35653 566.616 543.016
7.13744 21.943 -0.90458 586.506 540.305
10.852 19.0786 3.35513 603.634 531.51
14.0126 15.6644 8.16885 618.822 520.53
16.3174 11.6451 13.7851 630.917 507.147
17.651 7.05054 18.5122 639.028 490.769
18.3483 2.11464 20.6551 644.034 471.772
18.7134 -2.96122 20.9923 647.295 451.38
18.8417 -8.03768 21.5209 649.637 430.989
-15.6584 -15.5178 0.174095 506.314 381.379
-13.6055 -17.0098 -1.42977 514.792 375.304
-11.1038 -17.6106 -2.90267 524.835 373.043
-8.54104 -17.6201 -4.33123 534.94 373.223
-6.06116 -17.0963 -5.64618 544.557 375.591
3.60508 -17.9315 -5.38052 584.307 375.284
6.39924 -18.9363 -4.12367 596.338 372.564
9.33226 -19.3229 -2.66633 608.776 372.48
12.231 -18.7484 -1.2376 620.748 376.283
14.5575 -17.0051 0.363135 630.039 384.73
-1.51782 -11.2859 -5.04167 561.29 400.862
-1.44222 -8.44657 -7.64038 560.023 411.389
-1.33891 -5.63679 -10.4231 558.835 421.732
-1.19523 -2.84946 -13.1556 557.831 432.016
-3.8213 0.408943 -6.04387 547.76 447.303
-2.41268 0.733827 -7.093 553.141 448.639
-0.936121 0.78249 -8.11368 558.897 448.884
0.749438 0.452639 -7.13654 566.115 448.454
2.32065 -0.126295 -6.04737 572.977 447.021
-12.0561 -10.4398 -1.17001 518.983 402.601
-10.5939 -11.5326 -1.01126 525.347 398.672
-8.70605 -11.7448 -0.878022 533.146 398.445
-7.10504 -11.0852 -0.71525 539.492 401.686
-8.665 -10.3043 -0.981904 532.808 404.273
-10.4249 -10.0593 -1.07724 525.528 404.688
6.02217 -12.3199 -0.938852 593.367 400.626
7.58566 -13.2045 -0.79388 600.07 397.57
9.51874 -13.126 -0.699371 607.948 398.523
11.1465 -12.2439 -0.707153 614.288 402.609
9.51516 -11.7193 -0.843281 607.43 404.185
7.70317 -11.6993 -0.993887 600 403.647
-4.99076 10.115 -2.87015 540.527 487.681
-3.56396 8.51232 -4.97339 546.369 480.762
-1.83675 7.11802 -6.59688 553.482 474.975
0.264976 7.14627 -8.24111 561.643 475.08
2.43647 6.63953 -6.53608 571.077 474.372
4.54807 7.59459 -4.91057 579.761 479.558
6.53903 8.73961 -2.90532 587.981 485.631
5.07842 10.343 -4.10688 581.202 491.219
3.21419 11.4682 -5.34153 572.928 494.725
1.00484 12.0792 -6.58967 563.415 496.028
-1.28805 12.0926 -5.3795 554.356 495.86
-3.38482 11.4645 -4.26587 546.287 493.105
-1.18549 9.10667 -5.024 555.855 483.892
0.48479 8.79209 -7.34796 562.207 482.198
2.3341 8.5849 -5.28704 570.314 482.751
2.34855 8.98777 -4.61453 570.401 484.663
0.591427 9.49295 -6.27937 562.667 485.508
-1.10906 9.48499 -4.5105 556.165 485.66
3 20 21 23
3 21 22 23
3 0 1 36
3 15 16 45
3 0 17 36
3 16 26 45
3 17 18 37
3 25 26 44
3 17 36 37
3 26 44 45
3 18 19 38
3 24 25 43
3 18 37 38
3 25 43 44
3 19 20 38
3 23 24 43
3 20 21 39
3 22 23 42
3 20 38 39
3 23 42 43
3 21 22 27
3 21 27 39
3 22 27 42
3 27 28 42
3 27 28 39
3 28 42 47
3 28 39 40
3 1 36 41
3 15 45 46
3 1 2 41
3 14 15 46
3 28 29 40
3 28 29 47
3 2 40 41
3 14 46 47
3 2 29 40
3 14 29 47
3 2 3 29
3 13 14 29
3 29 30 31
3 29 30 35
3 3 29 31
3 13 29 35
3 30 32 33
3 30 33 34
3 30 31 32
3 30 34 35
3 3 4 31
3 12 13 35
3 4 5 48
3 11 12 54
3 5 6 48
3 10 11 54
3 6 48 59
3 10 54 55
3 6 7 59
3 9 10 55
3 7 58 59
3 9 55 56
3 8 57 58
3 8 56 57
3 7 8 58
3 8 9 56
3 4 31 48
3 12 35 54
3 31 48 49
3 35 53 54
3 31 49 50
3 35 52 53
3 31 32 50
3 34 35 52
3 32 33 50
3 33 34 52
3 33 50 51
3 33 51 52
3 48 49 60
3 49 60 50
3 50 60 61
3 50 51 61
3 51 52 61
3 61 62 52
3 52 53 62
3 53 54 62
3 54 55 63
3 55 56 63
3 56 63 64
3 56 57 64
3 64 65 57
3 57 58 65
3 58 59 65
3 48 59 65
