ply
format ascii 1.0
element vertex 66
property float x
property float y
property float z
property float u
property float v
element face 91
property list uchar int vertex_indices
end_header
-20.0923 -5.65306 20.73 488.133 430.024
-19.6722 -0.536655 20.3545 488.213 450.572
-18.8361 4.51152 19.9956 489.997 470.965
-17.3404 9.47095 18.0193 494.07 490.52
-14.9558 14.1869 13.2932 501.125 508.212
-11.5503 18.2724 7.73399 512.283 523.305
-7.33958 21.516 3.13045 527.175 535.618
-2.5164 23.7752 -0.826634 544.991 544.402
2.79592 24.0566 -4.45685 565.449 545.494
7.37084 22.5183 -0.792263 585.27 542.045
11.08 19.4685 3.37192 602.17 532.483
14.2297 15.859 8.10577 617.119 520.75
16.4965 11.6015 13.7286 628.917 506.533
17.8091 6.80227 18.4843 636.813 489.522
18.4831 1.7949 20.5195 641.524 470.389
18.7199 -3.25389 20.8824 644.071 450.286
18.7026 -8.30296 21.3221 645.611 430.145
-15.325 -15.7045 0.220947 505.309 382.492
-13.468 -17.3192 -1.49414 512.86 375.798
-11.05 -18.0395 -2.94437 522.475 372.964
-8.50578 -18.0596 -4.31312 532.41 373.015
-6.03012 -17.5045 -5.56848 541.925 375.408
3.67059 -18.2693 -5.31113 581.36 375.072
6.43316 -19.2301 -4.11955 593.087 372.443
9.31305 -19.5439 -2.73026 605.143 372.531
12.0918 -18.7905 -1.33555 616.475 376.887
14.1667 -16.8666 0.397165 624.703 385.901
-1.48408 -11.3937 -5.07596 558.573 401.433
-1.44862 -8.84755 -7.59369 557.338 410.659
-1.38316 -6.31899 -10.2673 556.192 419.758
-1.2745 -3.82252 -12.9777 555.22 428.725
-3.70708 -0.045037 -5.95699 546.009 446.134
-2.36932 0.190369 -6.95354 551.092 447.037
-0.98472 0.21256 -8.03068 556.407 447.062
0.61369 -0.0658613 -6.96795 563.202 446.811
2.11841 -0.529268 -5.88884 569.677 445.796
-10.904 -10.2737 -1.36156 521.143 404.898
-9.72182 -11.3162 -1.18588 526.267 401.097
-8.0794 -11.5134 -0.926785 533.017 400.855
-6.6915 -10.9223 -0.504124 538.545 403.784
-7.96254 -9.93893 -0.905701 533.025 407.231
-9.49642 -9.71716 -1.08501 526.726 407.633
5.64958 -12.021 -0.779371 588.603 402.604
7.02399 -12.7621 -0.845658 594.353 399.968
8.70411 -12.6361 -0.8877 601.085 400.914
10.0164 -11.7281 -0.932184 606.099 404.906
8.62293 -11.1015 -0.89012 600.3 407.066
7.04976 -11.1228 -0.970146 593.939 406.52
-4.83229 10.2947 -2.8027 539.169 488.722
-3.56579 8.58223 -5.00295 544.248 481.277
-1.9508 6.96381 -6.61697 550.848 474.544
0.19896 7.0027 -8.08346 559.15 474.685
2.4322 6.49388 -6.52592 568.697 473.881
4.45945 7.70199 -4.91678 576.914 479.951
6.2975 9.00604 -2.84564 584.453 486.544
4.9 10.5139 -4.05171 578.068 491.738
3.12976 11.5804 -5.40747 570.274 494.995
0.991101 12.2118 -6.71549 561.134 496.42
-1.25195 12.1838 -5.4786 552.396 496.203
-3.2695 11.5711 -4.27383 544.734 493.682
-0.911436 9.08311 -4.94243 554.824 484.038
0.4357 8.75434 -7.12509 559.821 482.189
1.98356 8.62467 -5.15136 566.591 482.895
2.0021 9.13492 -4.56677 566.658 485.192
0.577412 9.64789 -6.3803 560.31 486.127
-0.793888 9.56217 -4.52281 555.26 486.169
3 20 21 23
3 21 22 23
3 0 1 36
3 15 16 45
3 0 17 36
3 16 26 45
3 17 18 37
3 25 26 44
3 17 36 37
3 26 44 45
3 18 19 38
3 24 25 43
3 18 37 38
3 25 43 44
3 19 20 38
3 23 24 43
3 20 21 39
3 22 23 42
3 20 38 39
3 23 42 43
3 21 22 27
3 21 27 39
3 22 27 42
3 27 28 42
3 27 28 39
3 28 42 47
3 28 39 40
3 1 36 41
3 15 45 46
3 1 2 41
3 14 15 46
3 28 29 40
3 28 29 47
3 2 40 41
3 14 46 47
3 2 29 40
3 14 29 47
3 2 3 29
3 13 14 29
3 29 30 31
3 29 30 35
3 3 29 31
3 13 29 35
3 30 32 33
3 30 33 34
3 30 31 32
3 30 34 35
3 3 4 31
3 12 13 35
3 4 5 48
3 11 12 54
3 5 6 48
3 10 11 54
3 6 48 59
3 10 54 55
3 6 7 59
3 9 10 55
3 7 58 59
3 9 55 56
3 8 57 58
3 8 56 57
3 7 8 58
3 8 9 56
3 4 31 48
3 12 35 54
3 31 48 49
3 35 53 54
3 31 49 50
3 35 52 53
3 31 32 50
3 34 35 52
3 32 33 50
3 33 34 52
3 33 50 51
3 33 51 52
3 48 49 60
3 49 60 50
3 50 60 61
3 50 51 61
3 51 52 61
3 61 62 52
3 52 53 62
3 53 54 62
3 54 55 63
3 55 56 63
3 56 63 64
3 56 57 64
3 64 65 57
3 57 58 65
3 58 59 65
3 48 59 65
