ply
format ascii 1.0
element vertex 66
property float x
property float y
property float z
property float u
property float v
element face 91
property list uchar int vertex_indices
end_header
-20.3942 -6.08107 21.8795 483.15 425.873
-19.4491 -0.4206 21.2192 486.18 449.257
-18.3224 5.22072 20.6102 489.943 472.616
-17.1477 10.6529 18.6628 494.433 494.757
-15.4707 15.3552 13.6307 502.259 513.158
-12.4316 18.9366 7.96208 516.148 527.059
-8.41592 21.571 3.18109 533.922 537.509
-3.85366 23.2715 -1.05657 553.932 544.372
1.14906 23.3356 -4.71637 575.866 544.739
6.33132 22.1409 -0.7411 596.003 542.03
10.4816 18.9542 3.44676 612.199 530.933
13.815 15.058 8.1619 624.976 516.872
16.3906 10.8175 13.6527 634.414 501.436
18.0526 6.37897 18.1588 640.487 484.714
18.8505 1.77384 20.1583 643.945 466.432
19.1438 -2.95732 20.4347 645.976 447.05
18.985 -7.69335 20.896 646.078 427.599
-17.3128 -14.6873 0.170091 505.438 385.127
-14.8996 -17.0312 -1.54982 516.466 375.517
-11.7649 -18.2477 -2.88663 530.106 370.821
-8.42433 -18.391 -4.13035 544.352 370.625
-5.11527 -17.7729 -5.2255 558.265 373.603
3.32623 -17.7553 -5.4665 593.13 375.464
5.67343 -18.5312 -4.17107 602.481 373.13
8.21431 -18.7876 -2.79144 612.497 373.006
10.7974 -18.5823 -1.27902 622.549 374.832
13.1891 -17.4779 0.384253 631.582 380.367
0.246998 -11.7227 -4.75592 579.007 399.873
0.332443 -8.64793 -7.74204 579.847 411.765
0.393469 -5.5984 -10.7905 580.614 423.531
0.432494 -2.54276 -13.611 581.206 435.38
-2.52572 1.47626 -6.59734 565.677 453.224
-0.807889 1.90704 -7.36534 572.951 455.169
1.00617 2.01974 -8.09173 580.668 455.835
2.50116 1.82056 -7.15157 586.524 455.597
3.85902 1.29185 -6.31341 591.917 453.942
-12.1234 -10.7308 -0.625029 526.338 402.374
-10.412 -11.9503 -1.0025 533.765 397.616
-8.28812 -12.1199 -1.29694 542.656 397.302
-6.4981 -10.8672 -1.02386 549.688 402.938
-8.34738 -10.2467 -1.04088 541.953 405.088
-10.3116 -10.1718 -0.953475 533.813 404.99
5.24296 -11.2759 -1.09746 598.171 403.81
6.72455 -12.4909 -1.15757 604.535 399.105
8.71362 -12.6926 -0.859702 612.661 398.791
10.3761 -11.564 -0.51266 619.164 403.907
8.77445 -10.8019 -0.892364 612.555 406.597
6.95142 -10.7746 -1.02144 605.085 406.274
-7.76685 8.32977 -2.71833 541.331 481.408
-4.84498 7.29059 -5.03734 554.418 477.131
-2.05315 6.51535 -6.75187 566.697 474.078
0.679602 6.6476 -8.3587 578.516 474.786
3.24362 6.32439 -6.36542 588.418 474.558
5.82018 6.83779 -4.64829 598.308 477.71
8.34835 7.80287 -2.47067 607.743 482.84
6.5909 10.0423 -3.87326 600.576 491.313
3.94912 11.4147 -4.989 589.829 496.091
0.91577 11.7627 -6.52096 577.821 496.444
-2.27788 11.592 -5.30088 564.251 495.371
-5.29176 10.4165 -4.11542 551.631 490.181
-2.22668 8.50786 -5.53287 565.149 482.593
0.832043 8.56093 -7.55029 578.477 482.934
3.70736 8.36496 -4.8914 589.393 483.481
3.9384 8.61372 -4.2601 590.066 484.73
0.900697 8.77367 -6.50537 578.337 484.112
-2.2979 8.83526 -4.80155 564.525 484.128
3 20 21 23
3 21 22 23
3 0 1 36
3 15 16 45
3 0 17 36
3 16 26 45
3 17 18 37
3 25 26 44
3 17 36 37
3 26 44 45
3 18 19 38
3 24 25 43
3 18 37 38
3 25 43 44
3 19 20 38
3 23 24 43
3 20 21 39
3 22 23 42
3 20 38 39
3 23 42 43
3 21 22 27
3 21 27 39
3 22 27 42
3 27 28 42
3 27 28 39
3 28 42 47
3 28 39 40
3 1 36 41
3 15 45 46
3 1 2 41
3 14 15 46
3 28 29 40
3 28 29 47
3 2 40 41
3 14 46 47
3 2 29 40
3 14 29 47
3 2 3 29
3 13 14 29
3 29 30 31
3 29 30 35
3 3 29 31
3 13 29 35
3 30 32 33
3 30 33 34
3 30 31 32
3 30 34 35
3 3 4 31
3 12 13 35
3 4 5 48
3 11 12 54
3 5 6 48
3 10 11 54
3 6 48 59
3 10 54 55
3 6 7 59
3 9 10 55
3 7 58 59
3 9 55 56
3 8 57 58
3 8 56 57
3 7 8 58
3 8 9 56
3 4 31 48
3 12 35 54
3 31 48 49
3 35 53 54
3 31 49 50
3 35 52 53
3 31 32 50
3 34 35 52
3 32 33 50
3 33 34 52
3 33 50 51
3 33 51 52
3 48 49 60
3 49 60 50
3 50 60 61
3 50 51 61
3 51 52 61
3 61 62 52
3 52 53 62
3 53 54 62
3 54 55 63
3 55 56 63
3 56 63 64
3 56 57 64
3 64 65 57
3 57 58 65
3 58 59 65
3 48 59 65
