ply
format ascii 1.0
element vertex 66
property float x
property float y
property float z
property float u
property float v
element face 91
property list uchar int vertex_indices
end_header
-20.1839 -6.04551 20.8825 496.313 432.189
-19.8666 -0.857777 20.4646 496.613 453.243
-19.1323 4.28382 20.1482 498.65 474.249
-17.7456 9.22812 18.1815 503.404 493.569
-15.4602 13.7454 13.4172 511.926 509.615
-12.0434 17.5733 7.88958 525.256 522.59
-7.75364 20.5623 3.22948 542.375 532.821
-2.89273 22.677 -0.774257 562.036 539.978
2.48764 22.8489 -4.37757 584.231 539.52
7.29113 21.8256 -0.801401 604.364 538.413
11.3384 19.2781 3.37497 621.669 531.283
14.7991 16.0751 8.10012 636.681 521.69
17.2806 12.1518 13.6674 647.789 509.471
18.5331 7.52737 18.6301 653.938 493.78
19.0265 2.45549 20.6163 656.992 474.306
19.1025 -2.75948 20.9988 658.325 453.194
18.9455 -7.94765 21.4808 658.689 432.208
-15.8461 -15.7301 0.319116 515.885 380.876
-13.935 -17.4068 -1.44435 524.1 373.303
-11.5046 -18.1897 -2.92378 534.295 369.662
-8.95763 -18.292 -4.25828 544.842 368.918
-6.49075 -17.8211 -5.47919 554.948 370.575
3.57081 -18.5911 -5.13611 596.758 369.544
6.42542 -19.4105 -4.01245 608.75 367.413
9.38529 -19.5691 -2.74593 621.051 368.095
12.2198 -18.6412 -1.37891 632.624 373.264
14.3334 -16.5306 0.548419 640.99 383.48
-1.52052 -11.5804 -5.10006 574.317 397.311
-1.34448 -8.78581 -7.69953 574.469 407.213
-1.14711 -6.01566 -10.4585 574.712 416.922
-0.911452 -3.26476 -13.1952 575.118 426.573
-3.83829 0.852092 -6.29614 562.29 447.062
-2.23999 1.05388 -7.15178 568.857 447.674
-0.606448 0.998927 -8.03471 575.619 447.224
1.19948 0.738573 -7.14404 583.158 447.042
2.90041 0.232528 -6.32421 590.309 445.79
-11.0049 -10.1917 -1.19468 534.832 403.562
-9.58906 -11.4769 -1.18225 540.944 398.576
-7.65249 -11.5444 -1.06955 548.976 398.736
-6.08034 -10.4652 -0.574402 555.282 403.755
-7.62555 -9.57534 -0.958496 548.706 406.873
-9.38759 -9.41923 -1.12407 541.379 407.077
4.21922 -11.2625 -0.618439 598.077 402.423
5.6992 -12.5664 -1.05018 604.452 397.103
7.65611 -12.6691 -1.00725 612.574 397.081
9.27887 -11.6166 -0.837034 619.09 401.804
7.72157 -10.6898 -0.90682 612.462 405.26
5.91539 -10.5877 -0.868916 604.965 405.358
-5.89114 9.82857 -2.70277 552.094 485.616
-4.01754 8.29678 -4.98637 560.119 478.313
-1.95146 6.93502 -6.69486 568.915 472.093
0.469774 6.936 -8.23971 578.919 471.621
2.95107 6.43298 -6.61463 589.31 471.018
5.38355 7.30361 -4.932 599.234 476.068
7.78668 8.32614 -2.69042 609.014 482.073
6.09872 10.1918 -3.98899 601.646 488.605
3.84191 11.4403 -5.38903 592.042 492.439
1.20634 11.9971 -6.62503 581.006 493.469
-1.49018 12.0688 -5.45245 569.843 493.96
-3.95756 11.3354 -4.1895 559.787 491.253
-1.65386 9.03641 -5.08248 569.76 481.734
0.696649 8.63534 -7.2873 579.54 479.201
3.20439 8.45004 -5.28079 589.985 480.137
3.33926 9.07066 -4.65038 590.431 483.087
0.82704 9.48576 -6.4688 579.925 483.206
-1.60757 9.62519 -4.54487 569.844 484.481
3 20 21 23
3 21 22 23
3 0 1 36
3 15 16 45
3 0 17 36
3 16 26 45
3 17 18 37
3 25 26 44
3 17 36 37
3 26 44 45
3 18 19 38
3 24 25 43
3 18 37 38
3 25 43 44
3 19 20 38
3 23 24 43
3 20 21 39
3 22 23 42
3 20 38 39
3 23 42 43
3 21 22 27
3 21 27 39
3 22 27 42
3 27 28 42
3 27 28 39
3 28 42 47
3 28 39 40
3 1 36 41
3 15 45 46
3 1 2 41
3 14 15 46
3 28 29 40
3 28 29 47
3 2 40 41
3 14 46 47
3 2 29 40
3 14 29 47
3 2 3 29
3 13 14 29
3 29 30 31
3 29 30 35
3 3 29 31
3 13 29 35
3 30 32 33
3 30 33 34
3 30 31 32
3 30 34 35
3 3 4 31
3 12 13 35
3 4 5 48
3 11 12 54
3 5 6 48
3 10 11 54
3 6 48 59
3 10 54 55
3 6 7 59
3 9 10 55
3 7 58 59
3 9 55 56
3 8 57 58
3 8 56 57
3 7 8 58
3 8 9 56
3 4 31 48
3 12 35 54
3 31 48 49
3 35 53 54
3 31 49 50
3 35 52 53
3 31 32 50
3 34 35 52
3 32 33 50
3 33 34 52
3 33 50 51
3 33 51 52
3 48 49 60
3 49 60 50
3 50 60 61
3 50 51 61
3 51 52 61
3 61 62 52
3 52 53 62
3 53 54 62
3 54 55 63
3 55 56 63
3 56 63 64
3 56 57 64
3 64 65 57
3 57 58 65
3 58 59 65
3 48 59 65
