ply
format ascii 1.0
element vertex 66
property float x
property float y
property float z
property float u
property float v
element face 91
property list uchar int vertex_indices
end_header
-19.5518 -6.10279 21.7143 482.906 426.448
-18.6574 -0.510231 21.0854 485.485 450.336
-17.5992 5.06748 20.4537 488.765 474.207
-16.4885 10.4399 18.5168 492.819 496.861
-14.9593 15.1586 13.6703 499.933 516.057
-12.1895 18.8712 8.0255 512.885 531.107
-8.40834 21.6504 3.0749 530.115 542.663
-4.05395 23.565 -1.0704 549.7 550.924
0.839777 23.7955 -4.71357 571.826 552.31
6.04281 22.5888 -0.759682 592.745 549.746
10.1225 19.2606 3.33229 609.393 537.868
13.3664 15.2447 8.18541 622.377 523.033
15.8421 10.8813 13.6324 631.962 506.661
17.4816 6.36746 18.0197 638.436 489.119
18.276 1.71506 20.027 642.263 470.094
18.5188 -3.06269 20.3623 644.416 449.919
18.3013 -7.85042 20.7404 644.599 429.582
-16.6826 -14.846 0.156037 505.604 384.152
-14.354 -17.1649 -1.51882 516.745 374.49
-11.3001 -18.3894 -2.83615 530.545 369.792
-8.03113 -18.546 -4.09771 544.959 369.716
-4.79961 -17.9349 -5.24533 558.97 372.928
2.88683 -17.9372 -5.52649 591.743 375.042
5.17305 -18.7246 -4.1774 601.151 372.715
7.6672 -18.9744 -2.78355 611.284 372.747
10.1987 -18.7538 -1.27621 621.41 374.824
12.5323 -17.6584 0.361537 630.416 380.603
0.2668 -11.814 -4.85128 578.751 400.54
0.373575 -8.90553 -7.71702 579.537 412.165
0.451861 -6.02306 -10.6773 580.245 423.646
0.501796 -3.13955 -13.4864 580.775 435.164
-2.34233 0.830583 -6.48789 564.982 453.165
-0.669391 1.15639 -7.24508 572.295 454.823
1.07689 1.22477 -7.97052 579.975 455.416
2.4803 1.07208 -7.06186 585.633 455.416
3.78029 0.643187 -6.30511 590.981 454.17
-11.92 -10.8318 -0.68349 525.115 402.372
-10.1843 -12.121 -0.976609 532.94 397.301
-7.98674 -12.2814 -1.2565 542.427 397.171
-6.18571 -10.9636 -0.964115 549.625 403.376
-8.07032 -10.3012 -1.04824 541.475 405.633
-10.0842 -10.2082 -0.960407 532.859 405.476
4.74183 -11.3371 -0.962548 596.161 404.916
6.20831 -12.657 -1.1596 602.814 399.664
8.27167 -12.9208 -0.893408 611.55 399.205
9.99448 -11.7623 -0.625292 618.466 404.702
8.3934 -10.8885 -0.906627 611.541 407.886
6.51201 -10.85 -0.980943 603.564 407.491
-7.28399 8.94242 -2.72662 540.427 487.307
-4.80753 7.35624 -5.0045 552.234 480.641
-2.14855 6.06991 -6.68584 564.512 475.467
0.739386 6.01689 -8.37155 577.441 475.606
3.46756 5.85086 -6.33004 588.3 476.24
5.96972 6.88237 -4.63683 598.018 481.81
8.10313 8.44323 -2.44136 605.84 489.666
6.59208 10.8556 -3.96904 599.37 499.083
4.15493 12.5353 -5.04761 588.985 505.239
1.0451 13.0284 -6.58158 576.225 506.028
-2.21465 12.7089 -5.33348 561.98 504.076
-5.04375 11.2157 -4.15252 549.897 497.234
-2.55961 8.07405 -5.35023 561.732 484.245
0.86588 7.77064 -7.54204 577.204 483.334
4.12129 7.88397 -4.72719 589.936 485.52
4.43202 9.83491 -4.1856 590.54 494.061
1.07944 10.3518 -6.35347 576.984 494.707
-2.49177 10.107 -4.69278 561.238 493.097
3 20 21 23
3 21 22 23
3 0 1 36
3 15 16 45
3 0 17 36
3 16 26 45
3 17 18 37
3 25 26 44
3 17 36 37
3 26 44 45
3 18 19 38
3 24 25 43
3 18 37 38
3 25 43 44
3 19 20 38
3 23 24 43
3 20 21 39
3 22 23 42
3 20 38 39
3 23 42 43
3 21 22 27
3 21 27 39
3 22 27 42
3 27 28 42
3 27 28 39
3 28 42 47
3 28 39 40
3 1 36 41
3 15 45 46
3 1 2 41
3 14 15 46
3 28 29 40
3 28 29 47
3 2 40 41
3 14 46 47
3 2 29 40
3 14 29 47
3 2 3 29
3 13 14 29
3 29 30 31
3 29 30 35
3 3 29 31
3 13 29 35
3 30 32 33
3 30 33 34
3 30 31 32
3 30 34 35
3 3 4 31
3 12 13 35
3 4 5 48
3 11 12 54
3 5 6 48
3 10 11 54
3 6 48 59
3 10 54 55
3 6 7 59
3 9 10 55
3 7 58 59
3 9 55 56
3 8 57 58
3 8 56 57
3 7 8 58
3 8 9 56
3 4 31 48
3 12 35 54
3 31 48 49
3 35 53 54
3 31 49 50
3 35 52 53
3 31 32 50
3 34 35 52
3 32 33 50
3 33 34 52
3 33 50 51
3 33 51 52
3 48 49 60
3 49 60 50
3 50 60 61
3 50 51 61
3 51 52 61
3 61 62 52
3 52 53 62
3 53 54 62
3 54 55 63
3 55 56 63
3 56 63 64
3 56 57 64
3 64 65 57
3 57 58 65
3 58 59 65
3 48 59 65
