ply
format ascii 1.0
element vertex 66
property float x
property float y
property float z
property float u
property float v
element face 91
property list uchar int vertex_indices
end_header
-20.4137 -5.91851 21.258 487.86 431.524
-19.7881 -0.450781 20.7117 489.621 453.431
-18.8008 4.97249 20.2535 492.845 475.264
-17.4001 10.1739 18.4477 498 495.627
-15.3692 14.7767 13.3821 506.335 512.116
-12.2495 18.5579 7.8208 519.303 525.244
-8.21207 21.4809 3.19078 535.983 535.52
-3.50227 23.3617 -0.868198 555.465 541.986
1.69277 23.4854 -4.59494 577.143 541.608
6.7268 22.1872 -0.676091 597.157 539.148
10.7216 19.0875 3.4759 613.198 529.348
13.9515 15.3073 8.11351 626.163 516.901
16.3908 11.103 13.6011 635.847 503.013
18.0525 6.58596 18.3604 642.541 487.375
18.9773 1.76764 20.2871 646.749 469.028
19.3008 -3.20827 20.5874 648.803 449.154
19.1737 -8.18488 20.9829 649.012 429.245
-16.4568 -15.1802 0.22773 508.797 384.73
-14.463 -17.3277 -1.52992 517.518 375.571
-11.731 -18.365 -2.86115 528.991 371.229
-8.81598 -18.4181 -4.17384 541.049 370.897
-5.96425 -17.7939 -5.38423 552.725 373.337
3.50998 -18.0252 -5.39199 591.234 374.074
6.05272 -19.0098 -4.08856 601.505 371.179
8.7916 -19.3894 -2.6769 612.458 370.811
11.5274 -18.9137 -1.27071 623.264 373.891
13.762 -17.2705 0.388544 631.809 381.715
-0.620699 -11.591 -4.92151 573.365 399.529
-0.603644 -8.89613 -7.72461 573.46 409.054
-0.583352 -6.21378 -10.5227 573.569 418.532
-0.545932 -3.53633 -13.1511 573.722 428.075
-2.82915 0.832495 -6.2734 562.646 448.609
-1.44874 1.06761 -7.13639 568.353 449.386
-0.00688124 1.08251 -7.99179 574.344 449.289
1.41946 0.918195 -6.99764 580.001 449.357
2.73477 0.532616 -6.11082 585.26 448.461
-12.0171 -10.3768 -1.16337 526.288 404.223
-10.2988 -11.7213 -1.14431 533.475 399.112
-8.03878 -11.927 -1.02084 542.665 398.741
-6.17371 -10.8052 -0.648109 550 403.776
-8.02865 -9.81361 -1.04968 542.376 407.255
-10.1277 -9.62368 -1.08124 533.828 407.635
5.25829 -11.5237 -0.854718 596.569 402.798
6.91974 -12.7186 -0.913756 603.514 398.243
9.11979 -12.7707 -0.876013 612.45 398.44
10.8999 -11.5887 -0.806373 619.479 403.556
9.16014 -10.6675 -0.906385 612.285 406.917
7.11777 -10.665 -1.05213 604.015 406.496
-4.01299 9.91726 -2.80213 555.836 486.724
-2.76799 8.28872 -5.14336 561.529 479.246
-1.32257 6.78049 -6.82648 567.909 472.606
0.504938 6.86045 -8.40879 575.573 472.489
2.32943 6.54265 -6.49436 582.723 472.452
3.93138 7.81759 -4.83332 588.757 478.679
5.31658 9.31142 -2.67907 593.796 485.988
4.25344 10.5137 -3.95176 589.494 490.037
2.80723 11.3377 -5.27606 583.705 492.468
0.994563 11.6882 -6.83129 576.541 492.813
-0.905512 11.616 -5.52933 568.626 492.813
-2.61536 11.0276 -4.16382 561.556 490.794
-0.540653 8.93357 -5.11277 570.466 482.256
0.704828 8.68095 -7.07686 575.881 480.511
2.01564 8.76462 -4.8731 580.834 482.142
1.99714 8.72432 -4.34576 580.68 482.23
0.786458 8.90027 -6.2603 576.046 481.803
-0.442955 8.90829 -4.61717 570.786 482.41
3 20 21 23
3 21 22 23
3 0 1 36
3 15 16 45
3 0 17 36
3 16 26 45
3 17 18 37
3 25 26 44
3 17 36 37
3 26 44 45
3 18 19 38
3 24 25 43
3 18 37 38
3 25 43 44
3 19 20 38
3 23 24 43
3 20 21 39
3 22 23 42
3 20 38 39
3 23 42 43
3 21 22 27
3 21 27 39
3 22 27 42
3 27 28 42
3 27 28 39
3 28 42 47
3 28 39 40
3 1 36 41
3 15 45 46
3 1 2 41
3 14 15 46
3 28 29 40
3 28 29 47
3 2 40 41
3 14 46 47
3 2 29 40
3 14 29 47
3 2 3 29
3 13 14 29
3 29 30 31
3 29 30 35
3 3 29 31
3 13 29 35
3 30 32 33
3 30 33 34
3 30 31 32
3 30 34 35
3 3 4 31
3 12 13 35
3 4 5 48
3 11 12 54
3 5 6 48
3 10 11 54
3 6 48 59
3 10 54 55
3 6 7 59
3 9 10 55
3 7 58 59
3 9 55 56
3 8 57 58
3 8 56 57
3 7 8 58
3 8 9 56
3 4 31 48
3 12 35 54
3 31 48 49
3 35 53 54
3 31 49 50
3 35 52 53
3 31 32 50
3 34 35 52
3 32 33 50
3 33 34 52
3 33 50 51
3 33 51 52
3 48 49 60
3 49 60 50
3 50 60 61
3 50 51 61
3 51 52 61
3 61 62 52
3 52 53 62
3 53 54 62
3 54 55 63
3 55 56 63
3 56 63 64
3 56 57 64
3 64 65 57
3 57 58 65
3 58 59 65
3 48 59 65
