ply
format ascii 1.0
element vertex 66
property float x
property float y
property float z
property float u
property float v
element face 91
property list uchar int vertex_indices
end_header
-20.5851 -6.03659 21.8198 483.883 427.673
-19.6444 -0.35861 21.1478 487.001 450.632
-18.5168 5.30555 20.5751 490.833 473.609
-17.2208 10.6828 18.6874 495.976 495.011
-15.4632 15.2236 13.487 504.592 511.994
-12.4973 18.6792 7.93851 518.43 524.719
-8.59085 21.2228 3.17338 535.882 534.215
-4.16695 22.9374 -1.01555 555.313 540.659
0.739909 23.1044 -4.7992 576.784 541.077
6.048 21.9753 -0.635308 596.591 539.04
10.2766 18.7981 3.44845 612.425 528.456
13.6643 14.9074 8.09567 624.734 514.997
16.3407 10.7008 13.4254 633.922 500.343
18.2396 6.35139 18.0886 640.287 484.72
19.2205 1.76018 20.0106 644.195 466.991
19.4925 -3.00181 20.2354 646.017 447.843
19.2489 -7.76356 20.6627 645.665 428.657
-17.5484 -14.7119 0.2455 507.177 385.833
-15.2715 -17.3083 -1.52955 517.61 375.193
-12.1351 -18.6515 -2.81345 531.083 369.976
-8.75692 -18.7447 -4.06861 545.305 369.881
-5.43395 -17.9865 -5.14376 559.078 373.282
3.5465 -17.9319 -5.42781 595.485 375.294
5.80678 -18.8095 -4.13892 604.201 372.655
8.30112 -19.1005 -2.75719 613.721 372.471
10.8362 -18.8229 -1.28135 623.266 374.631
13.1037 -17.5474 0.450666 631.445 380.862
0.473584 -11.3903 -4.74203 581.635 401.369
0.596795 -8.28896 -7.83163 582.962 412.9
0.686185 -5.19621 -10.8019 584.101 424.429
0.742728 -2.08644 -13.3996 584.94 436.148
-1.57841 1.08399 -6.38969 571.918 450.886
-0.187605 1.30779 -7.25076 577.88 451.791
1.26352 1.35355 -8.03399 584.082 452.014
2.34342 1.29569 -6.99169 587.996 452.362
3.33198 1.03141 -6.10954 591.647 451.8
-12.4893 -10.7317 -0.845878 527.417 402.64
-10.6413 -12.0401 -0.987621 535.173 397.682
-8.32682 -12.285 -1.11115 544.623 397.135
-6.4164 -10.965 -0.840174 551.996 402.973
-8.39325 -10.1727 -1.06674 543.97 405.689
-10.5373 -10.0827 -0.994836 535.259 405.627
4.94343 -11.2382 -0.815077 597.938 404.263
6.51096 -12.5284 -0.981857 604.569 399.311
8.68635 -12.7191 -0.902043 613.358 399.023
10.4891 -11.528 -0.80948 620.396 404.257
8.78334 -10.6359 -0.9477 613.41 407.463
6.79307 -10.6094 -0.992883 605.383 407.137
-5.39798 8.81705 -2.8455 553.583 482.603
-3.31475 7.62396 -5.18179 563.239 477.414
-1.30565 6.55017 -6.83134 572.272 472.926
0.808211 6.69686 -8.546 581.546 473.38
2.74103 6.50034 -6.41108 588.448 473.718
4.52567 7.4636 -4.76947 594.769 478.552
6.13763 8.76034 -2.54665 600.078 484.899
5.06596 10.5308 -3.94494 596.059 491.366
3.25915 11.7104 -5.10381 589.065 495.368
0.944539 12.0106 -6.7836 580.402 495.525
-1.50862 11.6955 -5.4548 569.956 494.186
-3.64688 10.5422 -4.17298 560.948 489.504
-1.10331 8.43044 -5.43539 572.149 481.057
0.914327 8.35789 -7.37546 581.171 480.527
2.7412 8.51647 -4.6931 587.342 482.467
2.90607 9.0617 -4.1113 587.657 484.907
1.0097 9.23266 -6.11913 580.851 484.517
-1.07964 9.05177 -4.70882 571.816 483.826
3 20 21 23
3 21 22 23
3 0 1 36
3 15 16 45
3 0 17 36
3 16 26 45
3 17 18 37
3 25 26 44
3 17 36 37
3 26 44 45
3 18 19 38
3 24 25 43
3 18 37 38
3 25 43 44
3 19 20 38
3 23 24 43
3 20 21 39
3 22 23 42
3 20 38 39
3 23 42 43
3 21 22 27
3 21 27 39
3 22 27 42
3 27 28 42
3 27 28 39
3 28 42 47
3 28 39 40
3 1 36 41
3 15 45 46
3 1 2 41
3 14 15 46
3 28 29 40
3 28 29 47
3 2 40 41
3 14 46 47
3 2 29 40
3 14 29 47
3 2 3 29
3 13 14 29
3 29 30 31
3 29 30 35
3 3 29 31
3 13 29 35
3 30 32 33
3 30 33 34
3 30 31 32
3 30 34 35
3 3 4 31
3 12 13 35
3 4 5 48
3 11 12 54
3 5 6 48
3 10 11 54
3 6 48 59
3 10 54 55
3 6 7 59
3 9 10 55
3 7 58 59
3 9 55 56
3 8 57 58
3 8 56 57
3 7 8 58
3 8 9 56
3 4 31 48
3 12 35 54
3 31 48 49
3 35 53 54
3 31 49 50
3 35 52 53
3 31 32 50
3 34 35 52
3 32 33 50
3 33 34 52
3 33 50 51
3 33 51 52
3 48 49 60
3 49 60 50
3 50 60 61
3 50 51 61
3 51 52 61
3 61 62 52
3 52 53 62
3 53 54 62
3 54 55 63
3 55 56 63
3 56 63 64
3 56 57 64
3 64 65 57
3 57 58 65
3 58 59 65
3 48 59 65
