ply
format ascii 1.0
element vertex 66
property float x
property float y
property float z
property float u
property float v
element face 91
property list uchar int vertex_indices
end_header
-19.9637 -5.82717 20.9468 496.449 431.854
-19.6171 -0.666034 20.5098 496.498 453.191
-18.8725 4.45457 20.232 498.231 474.569
-17.6018 9.35839 18.1835 502.295 494.084
-15.4605 13.8372 13.5148 510.225 510.434
-12.1319 17.6384 7.94333 523.374 523.724
-7.85097 20.5586 3.21672 540.755 534.134
-2.90913 22.4669 -0.778571 561.179 540.966
2.50003 22.491 -4.34308 584.079 540.342
7.24892 21.4708 -0.923575 604.273 539.543
11.264 19.0049 3.31503 621.749 533.025
14.6941 15.8971 8.17273 636.918 524.055
17.0675 12.0395 13.8702 647.814 512.191
18.216 7.46973 18.6199 653.772 496.426
18.6886 2.42829 20.8328 657.089 476.924
18.8518 -2.82085 21.2156 659.215 455.328
18.7947 -8.05293 21.6827 660.405 433.794
-15.8957 -15.337 0.251279 516.849 380.42
-13.9353 -16.9945 -1.44203 525.621 372.998
-11.4763 -17.7368 -2.93472 536.235 369.655
-8.92776 -17.8585 -4.31408 547.053 368.994
-6.46084 -17.4496 -5.61495 557.377 370.571
3.29378 -18.09 -5.30791 598.66 370.801
6.14525 -19.0729 -4.03582 610.911 368.289
9.15057 -19.4235 -2.63626 623.633 368.536
12.1295 -18.8075 -1.21129 635.976 372.82
14.5394 -16.9787 0.425829 645.578 382.134
-1.60175 -11.677 -5.12399 576.249 396.289
-1.48891 -8.79798 -7.6845 576.007 406.722
-1.34736 -5.95681 -10.4884 575.905 416.854
-1.15836 -3.13641 -13.3083 576.008 426.903
-4.00892 0.851115 -6.27794 562.679 447.123
-2.45563 1.09006 -7.19912 569.188 447.975
-0.855452 1.05475 -8.10155 575.969 447.708
0.994211 0.769731 -7.23381 583.818 447.576
2.74751 0.22816 -6.29594 591.329 446.39
-11.9154 -10.0116 -1.0878 532.196 402.888
-10.2376 -11.4731 -1.12429 539.672 397.239
-7.97836 -11.5446 -1.12113 549.214 397.57
-6.16531 -10.3287 -0.743526 556.509 403.377
-8.00083 -9.45471 -1.05381 548.54 406.317
-10.0515 -9.23855 -1.14025 539.84 406.595
5.13868 -11.4018 -0.925215 604.456 401.929
6.84058 -12.8846 -1.03046 612.042 396.154
9.12672 -12.9864 -0.790949 621.699 396.514
11.0422 -11.8042 -0.565284 629.439 402.114
9.23115 -10.8475 -0.867471 621.551 405.411
7.12362 -10.7382 -1.01824 612.642 405.188
-5.96511 9.86325 -2.7534 551.838 486.347
-4.09671 8.27308 -4.94332 560.219 478.87
-2.01609 6.94411 -6.67367 569.408 472.827
0.356863 6.90994 -8.29375 579.468 472.332
2.81403 6.43729 -6.58579 589.904 472.11
5.28315 7.28725 -4.87231 600.024 477.408
7.75051 8.33886 -2.82629 610.072 483.754
5.97373 10.1183 -4.12393 602.131 489.868
3.69629 11.3116 -5.42492 592.241 493.398
1.09455 11.8526 -6.61192 581.162 494.19
-1.56232 11.9807 -5.44849 569.893 494.713
-4.04177 11.3349 -4.2154 559.583 492.103
-1.89939 9.01564 -5.04812 569.278 482.51
0.57555 8.6142 -7.37342 579.891 480.071
3.24347 8.3705 -5.35366 591.143 481.057
3.33878 8.87173 -4.70383 591.386 483.579
0.682204 9.27656 -6.43378 580.13 483.449
-1.88309 9.48869 -4.52263 569.201 484.814
3 20 21 23
3 21 22 23
3 0 1 36
3 15 16 45
3 0 17 36
3 16 26 45
3 17 18 37
3 25 26 44
3 17 36 37
3 26 44 45
3 18 19 38
3 24 25 43
3 18 37 38
3 25 43 44
3 19 20 38
3 23 24 43
3 20 21 39
3 22 23 42
3 20 38 39
3 23 42 43
3 21 22 27
3 21 27 39
3 22 27 42
3 27 28 42
3 27 28 39
3 28 42 47
3 28 39 40
3 1 36 41
3 15 45 46
3 1 2 41
3 14 15 46
3 28 29 40
3 28 29 47
3 2 40 41
3 14 46 47
3 2 29 40
3 14 29 47
3 2 3 29
3 13 14 29
3 29 30 31
3 29 30 35
3 3 29 31
3 13 29 35
3 30 32 33
3 30 33 34
3 30 31 32
3 30 34 35
3 3 4 31
3 12 13 35
3 4 5 48
3 11 12 54
3 5 6 48
3 10 11 54
3 6 48 59
3 10 54 55
3 6 7 59
3 9 10 55
3 7 58 59
3 9 55 56
3 8 57 58
3 8 56 57
3 7 8 58
3 8 9 56
3 4 31 48
3 12 35 54
3 31 48 49
3 35 53 54
3 31 49 50
3 35 52 53
3 31 32 50
3 34 35 52
3 32 33 50
3 33 34 52
3 33 50 51
3 33 51 52
3 48 49 60
3 49 60 50
3 50 60 61
3 50 51 61
3 51 52 61
3 61 62 52
3 52 53 62
3 53 54 62
3 54 55 63
3 55 56 63
3 56 63 64
3 56 57 64
3 64 65 57
3 57 58 65
3 58 59 65
3 48 59 65
