ply
format ascii 1.0
element vertex 66
property float x
property float y
property float z
property float u
property float v
element face 91
property list uchar int vertex_indices
end_header
-20.1374 -6.11945 21.2866 490.515 429.017
-19.5368 -0.624457 20.8024 492.318 451.602
-18.5963 4.82146 20.3254 495.537 474.041
-17.3065 10.0584 18.3789 500.488 495.052
-15.4109 14.7491 13.4591 508.543 512.649
-12.2851 18.5683 7.8818 521.937 526.564
-8.14404 21.4225 3.19603 539.524 537.028
-3.34997 23.2248 -0.845845 559.857 543.523
1.88435 23.2603 -4.57285 582.211 542.922
6.81194 21.9875 -0.689225 602.161 540.078
10.7518 18.9649 3.50734 618.205 529.984
13.9931 15.3222 8.2024 631.352 517.429
16.39 11.2023 13.6947 640.926 503.106
17.9023 6.71752 18.3585 647.024 486.788
18.7175 1.94803 20.4385 650.717 468.095
19.0366 -2.98825 20.7642 652.678 447.896
18.9737 -7.9317 21.0887 653.055 427.606
-16.3476 -15.2381 0.18068 511.163 383.057
-14.3417 -17.2224 -1.54171 520.061 374.451
-11.708 -18.2018 -2.93325 531.365 370.234
-8.91292 -18.3315 -4.25855 543.208 369.58
-6.16467 -17.8221 -5.46666 554.746 371.607
3.56244 -18.0694 -5.43466 595.128 372.131
6.15528 -18.9211 -4.16158 605.784 369.558
8.91069 -19.1769 -2.75774 617.008 369.527
11.6345 -18.6014 -1.32343 627.979 372.937
13.8534 -16.9087 0.356513 636.656 380.986
-0.851232 -11.8179 -4.9834 575.861 397.445
-0.856927 -9.10559 -7.69594 575.925 407.502
-0.855477 -6.41615 -10.4922 576.036 417.431
-0.824674 -3.7371 -13.2 576.256 427.359
-2.56312 0.611206 -6.11477 567.209 448.031
-1.4148 0.626896 -7.09535 572.14 447.863
-0.25971 0.560095 -8.09938 577.115 447.346
0.93221 0.491872 -7.00207 581.879 447.714
2.08885 0.33085 -6.03512 586.533 447.639
-12.0036 -10.4037 -1.1281 528.732 403.155
-10.3577 -11.7792 -1.1228 535.752 397.736
-8.15177 -11.9736 -1.04494 544.917 397.313
-6.36002 -10.8222 -0.685067 552.126 402.502
-8.14729 -9.83469 -1.05461 544.637 406.143
-10.1824 -9.64313 -1.08077 536.172 406.603
5.32708 -11.5767 -0.966091 600.764 401.107
6.925 -12.7823 -0.993971 607.567 396.368
9.06985 -12.8127 -0.851343 616.445 396.64
10.7893 -11.5951 -0.696523 623.38 402.004
9.10694 -10.6937 -0.883608 616.307 405.384
7.12069 -10.7065 -1.07354 608.101 404.938
-4.70747 10.1698 -2.8629 556.409 488.541
-3.1865 8.49074 -5.17328 563.353 480.872
-1.53152 6.87028 -6.84834 570.736 473.734
0.52793 6.87878 -8.37799 579.542 473.449
2.60649 6.54041 -6.50332 587.889 473.169
4.49762 7.82343 -4.86285 595.271 479.457
6.2657 9.25553 -2.75878 602.041 486.536
4.95974 10.5943 -4.00918 596.651 491.333
3.23417 11.499 -5.27346 589.584 494.265
1.16945 11.9029 -6.74282 581.215 494.988
-1.00387 11.902 -5.52487 571.989 495.156
-3.02872 11.3457 -4.25131 563.447 493.077
-0.890575 9.09221 -5.1314 572.786 483.735
0.776952 8.76695 -7.12436 580.094 481.814
2.55392 8.77555 -4.9742 587.093 483.036
2.57729 8.85067 -4.38257 587.077 483.599
0.895136 9.05451 -6.22828 580.389 483.398
-0.777556 9.17635 -4.60675 573.152 484.322
3 20 21 23
3 21 22 23
3 0 1 36
3 15 16 45
3 0 17 36
3 16 26 45
3 17 18 37
3 25 26 44
3 17 36 37
3 26 44 45
3 18 19 38
3 24 25 43
3 18 37 38
3 25 43 44
3 19 20 38
3 23 24 43
3 20 21 39
3 22 23 42
3 20 38 39
3 23 42 43
3 21 22 27
3 21 27 39
3 22 27 42
3 27 28 42
3 27 28 39
3 28 42 47
3 28 39 40
3 1 36 41
3 15 45 46
3 1 2 41
3 14 15 46
3 28 29 40
3 28 29 47
3 2 40 41
3 14 46 47
3 2 29 40
3 14 29 47
3 2 3 29
3 13 14 29
3 29 30 31
3 29 30 35
3 3 29 31
3 13 29 35
3 30 32 33
3 30 33 34
3 30 31 32
3 30 34 35
3 3 4 31
3 12 13 35
3 4 5 48
3 11 12 54
3 5 6 48
3 10 11 54
3 6 48 59
3 10 54 55
3 6 7 59
3 9 10 55
3 7 58 59
3 9 55 56
3 8 57 58
3 8 56 57
3 7 8 58
3 8 9 56
3 4 31 48
3 12 35 54
3 31 48 49
3 35 53 54
3 31 49 50
3 35 52 53
3 31 32 50
3 34 35 52
3 32 33 50
3 33 34 52
3 33 50 51
3 33 51 52
3 48 49 60
3 49 60 50
3 50 60 61
3 50 51 61
3 51 52 61
3 61 62 52
3 52 53 62
3 53 54 62
3 54 55 63
3 55 56 63
3 56 63 64
3 56 57 64
3 64 65 57
3 57 58 65
3 58 59 65
3 48 59 65
