ply
format ascii 1.0
element vertex 66
property float x
property float y
property float z
property float u
property float v
element face 91
property list uchar int vertex_indices
end_header
-19.3512 -6.29385 20.8327 493.801 433.622
-19.0187 -0.914131 20.3324 494.311 456.249
-18.2646 4.42989 20.0427 496.615 478.956
-17.0059 9.52687 18.1659 501.366 499.626
-15.0528 14.137 13.4909 509.6 516.446
-11.9691 18.0554 7.89609 522.967 529.923
-7.82775 21.0431 3.13015 540.946 540.223
-2.96968 22.9773 -0.746498 562.083 546.795
2.41289 22.9313 -4.28649 585.799 545.276
7.14277 21.7287 -0.791798 605.912 543.524
10.8951 18.8741 3.33149 622.027 534.97
14.0292 15.5074 8.16001 635.471 524.593
16.2461 11.5959 13.7422 644.954 512.225
17.5591 7.20296 18.3636 650.767 496.963
18.2106 2.39524 20.4283 654.17 478.046
18.4061 -2.63865 20.7147 655.902 456.852
18.2905 -7.65718 21.1325 656.272 435.75
-15.3782 -15.7774 0.150467 515.63 379.876
-13.5628 -17.403 -1.46672 523.987 372.219
-11.2577 -18.1673 -2.89607 534.269 368.458
-8.85126 -18.2694 -4.29261 544.86 367.56
-6.50286 -17.8813 -5.6466 555.105 368.765
3.62288 -18.4459 -5.35058 598.816 368.643
6.14832 -19.258 -4.01807 609.662 366.618
8.80875 -19.5404 -2.5965 620.98 366.937
11.4408 -18.9374 -1.21294 632.017 370.994
13.5403 -17.2303 0.388243 640.524 379.79
-1.42022 -11.8578 -5.19116 575.836 395.764
-1.43351 -9.42629 -7.66741 575.683 404.414
-1.42057 -7.02276 -10.3076 575.671 412.838
-1.35774 -4.63639 -12.9753 575.881 421.18
-3.74765 0.281741 -6.08581 563.687 446.353
-2.30971 0.452025 -7.02311 569.987 446.73
-0.825552 0.396591 -7.97061 576.531 446.149
0.849973 0.18679 -6.99135 583.652 446.271
2.4229 -0.241065 -6.08965 590.383 445.391
-11.3088 -10.6262 -1.33723 532.432 401.621
-9.92101 -11.7717 -1.09871 538.592 397.193
-8.05319 -11.9035 -0.859444 546.634 397.179
-6.55142 -11.0187 -0.559726 552.901 401.46
-8.0386 -10.0734 -1.05149 546.386 404.842
-9.7779 -9.8811 -1.16791 538.87 405.223
5.39162 -12.0406 -0.807176 604.608 399.391
6.78779 -13.056 -0.785153 610.811 395.37
8.64773 -13.0754 -0.73849 618.826 395.701
10.1747 -12.1164 -0.74106 625.231 400.096
8.72631 -11.2426 -0.860142 618.843 403.437
6.97186 -11.216 -1.00811 611.296 403.088
-4.01314 11.1082 -2.85046 560.079 494.608
-3.00671 9.03108 -5.08448 565.121 484.44
-1.60199 7.03143 -6.77356 571.786 475.057
0.432448 6.88494 -8.38033 580.812 473.748
2.5582 6.5654 -6.526 589.771 474.096
4.40979 8.13395 -4.88822 597.229 482.278
5.99779 9.84456 -2.85943 603.468 491.278
4.89094 11.294 -4.07792 598.603 496.385
3.36929 12.3932 -5.40012 592.029 499.846
1.34143 12.9282 -6.7204 583.377 500.801
-0.783472 12.9827 -5.54201 574.039 501.405
-2.61533 12.3466 -4.26611 566.078 499.196
-0.668595 9.43383 -4.90644 575.1 486.757
0.724794 8.77757 -7.09089 581.539 482.75
2.35267 8.9508 -5.0328 588.231 485.234
2.37787 9.77177 -4.53046 588.116 489.078
0.935846 10.1905 -6.22892 582.065 489.4
-0.444908 10.229 -4.52225 575.862 490.451
3 20 21 23
3 21 22 23
3 0 1 36
3 15 16 45
3 0 17 36
3 16 26 45
3 17 18 37
3 25 26 44
3 17 36 37
3 26 44 45
3 18 19 38
3 24 25 43
3 18 37 38
3 25 43 44
3 19 20 38
3 23 24 43
3 20 21 39
3 22 23 42
3 20 38 39
3 23 42 43
3 21 22 27
3 21 27 39
3 22 27 42
3 27 28 42
3 27 28 39
3 28 42 47
3 28 39 40
3 1 36 41
3 15 45 46
3 1 2 41
3 14 15 46
3 28 29 40
3 28 29 47
3 2 40 41
3 14 46 47
3 2 29 40
3 14 29 47
3 2 3 29
3 13 14 29
3 29 30 31
3 29 30 35
3 3 29 31
3 13 29 35
3 30 32 33
3 30 33 34
3 30 31 32
3 30 34 35
3 3 4 31
3 12 13 35
3 4 5 48
3 11 12 54
3 5 6 48
3 10 11 54
3 6 48 59
3 10 54 55
3 6 7 59
3 9 10 55
3 7 58 59
3 9 55 56
3 8 57 58
3 8 56 57
3 7 8 58
3 8 9 56
3 4 31 48
3 12 35 54
3 31 48 49
3 35 53 54
3 31 49 50
3 35 52 53
3 31 32 50
3 34 35 52
3 32 33 50
3 33 34 52
3 33 50 51
3 33 51 52
3 48 49 60
3 49 60 50
3 50 60 61
3 50 51 61
3 51 52 61
3 61 62 52
3 52 53 62
3 53 54 62
3 54 55 63
3 55 56 63
3 56 63 64
3 56 57 64
3 64 65 57
3 57 58 65
3 58 59 65
3 48 59 65
