ply
format ascii 1.0
element vertex 66
property float x
property float y
property float z
property float u
property float v
element face 91
property list uchar int vertex_indices
end_header
-20.5597 -5.85758 21.5565 485.147 429.346
-19.6992 -0.312916 20.9836 487.673 451.624
-18.5859 5.20891 20.5112 491.185 473.916
-17.1951 10.4882 18.5706 496.421 494.665
-15.3 15.0866 13.2983 505.087 511.356
-12.2726 18.7265 7.88895 518.571 524.412
-8.33572 21.453 3.24885 535.623 534.353
-3.84467 23.2482 -0.937984 554.933 540.88
1.11182 23.4619 -4.75584 576.312 541.32
6.2739 22.2114 -0.642395 595.836 539.358
10.4233 19.0529 3.47401 611.675 529.467
13.7532 15.1401 8.06491 624.189 516.542
16.3151 10.8173 13.3383 633.435 502.072
18.1043 6.32688 18.1294 639.782 486.526
19.0813 1.65827 20.1152 643.949 468.844
19.3667 -3.14194 20.3056 646.032 449.681
19.1414 -7.94019 20.7136 645.973 430.494
-17.3044 -14.5751 0.216939 508.137 385.827
-15.1006 -17.1636 -1.6298 518.26 375.159
-12.0084 -18.5136 -2.88172 531.482 369.955
-8.65189 -18.6113 -4.13097 545.507 369.856
-5.34736 -17.8584 -5.23171 559.088 373.232
3.50093 -17.9532 -5.43474 594.86 374.968
5.87099 -18.9288 -4.14324 604.133 372.193
8.46962 -19.2788 -2.75832 614.162 372.032
11.0884 -18.9544 -1.33489 624.116 374.607
13.3744 -17.587 0.416271 632.388 381.439
0.236269 -11.308 -4.77385 580.058 401.181
0.35624 -8.17139 -7.81343 581.032 412.515
0.453811 -5.03814 -10.7145 581.863 423.89
0.525656 -1.89485 -13.2235 582.441 435.468
-1.8138 0.708867 -6.26834 569.843 448.378
-0.482082 0.919551 -7.13725 575.496 449.181
0.906809 0.969185 -7.97216 581.4 449.365
2.02072 0.8837 -6.92343 585.514 449.753
3.05238 0.622013 -5.97094 589.37 449.37
-12.3339 -10.5415 -1.0426 527.81 402.751
-10.5098 -11.7279 -1.07083 535.423 398.419
-8.26923 -12.0159 -1.01348 544.495 397.843
-6.35975 -10.9922 -0.731653 551.874 402.561
-8.29836 -10.2309 -1.03544 544.013 405.009
-10.3953 -10.0717 -1.01694 535.518 405.135
5.17096 -11.4534 -0.744524 598.467 403.573
6.81447 -12.506 -0.837284 605.348 399.706
8.96112 -12.6073 -0.915868 614.054 399.8
10.7607 -11.5495 -0.953584 621.103 404.488
9.00569 -10.841 -0.951302 613.878 406.903
7.022 -10.8475 -0.995071 605.898 406.363
-4.26376 9.57405 -2.91397 556.847 484.895
-3.03444 7.64775 -5.24423 563.085 476.44
-1.43741 5.99622 -6.76143 570.441 469.534
0.592881 6.07957 -8.41551 579.233 469.658
2.48498 5.91011 -6.43216 586.15 470.308
4.01148 7.48437 -4.91427 591.403 477.681
5.00747 9.55654 -2.71384 594.157 487.222
4.11819 10.9099 -3.94562 590.752 491.912
2.6986 11.8224 -5.13059 585.284 494.716
0.831154 12.0995 -6.83504 578.339 494.627
-1.16292 11.822 -5.3952 569.815 493.638
-2.85794 10.9166 -4.12065 562.689 490.125
-0.66626 8.31314 -5.2488 572.496 479.705
0.719483 8.07635 -7.16282 578.854 478.268
1.9863 8.4115 -4.66613 582.951 481.015
1.9643 8.93287 -4.17508 582.568 483.32
0.815253 9.06327 -6.11487 578.639 482.717
-0.496878 8.87436 -4.65425 572.837 482.264
3 20 21 23
3 21 22 23
3 0 1 36
3 15 16 45
3 0 17 36
3 16 26 45
3 17 18 37
3 25 26 44
3 17 36 37
3 26 44 45
3 18 19 38
3 24 25 43
3 18 37 38
3 25 43 44
3 19 20 38
3 23 24 43
3 20 21 39
3 22 23 42
3 20 38 39
3 23 42 43
3 21 22 27
3 21 27 39
3 22 27 42
3 27 28 42
3 27 28 39
3 28 42 47
3 28 39 40
3 1 36 41
3 15 45 46
3 1 2 41
3 14 15 46
3 28 29 40
3 28 29 47
3 2 40 41
3 14 46 47
3 2 29 40
3 14 29 47
3 2 3 29
3 13 14 29
3 29 30 31
3 29 30 35
3 3 29 31
3 13 29 35
3 30 32 33
3 30 33 34
3 30 31 32
3 30 34 35
3 3 4 31
3 12 13 35
3 4 5 48
3 11 12 54
3 5 6 48
3 10 11 54
3 6 48 59
3 10 54 55
3 6 7 59
3 9 10 55
3 7 58 59
3 9 55 56
3 8 57 58
3 8 56 57
3 7 8 58
3 8 9 56
3 4 31 48
3 12 35 54
3 31 48 49
3 35 53 54
3 31 49 50
3 35 52 53
3 31 32 50
3 34 35 52
3 32 33 50
3 33 34 52
3 33 50 51
3 33 51 52
3 48 49 60
3 49 60 50
3 50 60 61
3 50 51 61
3 51 52 61
3 61 62 52
3 52 53 62
3 53 54 62
3 54 55 63
3 55 56 63
3 56 63 64
3 56 57 64
3 64 65 57
3 57 58 65
3 58 59 65
3 48 59 65
