ply
format ascii 1.0
element vertex 66
property float x
property float y
property float z
property float u
property float v
element face 91
property list uchar int vertex_indices
end_header
-19.8691 -5.70116 20.9179 494.637 431.848
-19.4528 -0.589907 20.4481 495.1 453.05
-18.6513 4.47891 20.1923 497.193 474.307
-17.3525 9.33224 18.1261 501.524 493.677
-15.2184 13.7823 13.5369 509.604 510.025
-11.9468 17.5856 7.95762 522.704 523.355
-7.74614 20.5443 3.20638 539.913 533.905
-2.89054 22.5302 -0.79099 560.11 541.021
2.45869 22.5959 -4.32831 582.869 540.516
7.15356 21.5396 -0.92506 602.843 539.422
11.0811 18.9941 3.3179 619.919 532.415
14.4454 15.8539 8.18929 634.739 523.159
16.8043 12.0064 13.8779 645.454 511.185
17.9886 7.46641 18.5745 651.425 495.395
18.51 2.46316 20.7997 654.822 475.972
18.7397 -2.75073 21.168 657.122 454.447
18.758 -7.95371 21.657 658.52 432.987
-15.8276 -15.2763 0.192466 515.115 380.083
-13.8629 -16.8261 -1.43837 523.894 373.108
-11.4579 -17.5164 -2.94976 534.309 369.919
-8.97998 -17.6443 -4.36509 544.882 369.161
-6.57292 -17.2748 -5.67577 555.023 370.529
3.5025 -18.0049 -5.36158 597.801 370.304
6.29834 -18.9306 -4.08963 609.806 367.947
9.23029 -19.2552 -2.65894 622.224 368.237
12.1383 -18.6609 -1.21326 634.303 372.375
14.5154 -16.9133 0.384409 643.833 381.292
-1.60992 -11.7157 -5.11398 574.55 395.429
-1.49596 -8.86651 -7.67556 574.411 405.8
-1.35394 -6.05464 -10.4642 574.409 415.883
-1.16625 -3.26187 -13.2547 574.606 425.896
-3.80167 0.60531 -6.14202 562.15 445.766
-2.35605 0.812201 -7.15709 568.254 446.384
-0.869261 0.778834 -8.13721 574.593 446.03
0.855639 0.506783 -7.20058 581.915 445.92
2.4969 0.0100709 -6.18844 588.939 444.895
-12.0026 -10.1671 -1.10867 530.028 401.655
-10.4371 -11.4127 -1.05039 536.966 396.89
-8.391 -11.5545 -1.0155 545.654 396.854
-6.69321 -10.6632 -0.801541 552.593 401.159
-8.37912 -9.8602 -1.06301 545.269 403.916
-10.2667 -9.62201 -1.1341 537.229 404.374
5.54042 -11.8205 -0.959033 604.628 399.421
7.16714 -12.9765 -0.929413 611.804 395.029
9.253 -12.9949 -0.726133 620.62 395.623
11.0341 -12.0172 -0.59263 627.893 400.261
9.32206 -11.2904 -0.855284 620.478 402.692
7.37136 -11.2204 -1.00881 612.218 402.38
-5.81444 9.96065 -2.81937 551.078 486.423
-3.97197 8.41126 -4.93564 559.363 479.12
-1.94228 7.07347 -6.64144 568.366 473.004
0.382438 7.04001 -8.29536 578.278 472.453
2.78399 6.56246 -6.56399 588.479 472.15
5.20329 7.41438 -4.87217 598.414 477.389
7.63432 8.42232 -2.87506 608.346 483.472
5.92552 10.2566 -4.15369 600.703 489.911
3.70697 11.5147 -5.40925 591.053 493.82
1.12775 12.1002 -6.59113 580.048 494.866
-1.51089 12.1888 -5.42865 568.817 495.263
-3.94415 11.4849 -4.24562 558.657 492.41
-1.73455 9.11246 -5.05388 568.648 482.566
0.60207 8.72044 -7.39782 578.733 480.093
3.12337 8.47975 -5.36157 589.366 481
3.21763 9.03067 -4.68529 589.593 483.746
0.714207 9.49951 -6.33741 578.959 484.035
-1.71174 9.63796 -4.50407 568.584 485.109
3 20 21 23
3 21 22 23
3 0 1 36
3 15 16 45
3 0 17 36
3 16 26 45
3 17 18 37
3 25 26 44
3 17 36 37
3 26 44 45
3 18 19 38
3 24 25 43
3 18 37 38
3 25 43 44
3 19 20 38
3 23 24 43
3 20 21 39
3 22 23 42
3 20 38 39
3 23 42 43
3 21 22 27
3 21 27 39
3 22 27 42
3 27 28 42
3 27 28 39
3 28 42 47
3 28 39 40
3 1 36 41
3 15 45 46
3 1 2 41
3 14 15 46
3 28 29 40
3 28 29 47
3 2 40 41
3 14 46 47
3 2 29 40
3 14 29 47
3 2 3 29
3 13 14 29
3 29 30 31
3 29 30 35
3 3 29 31
3 13 29 35
3 30 32 33
3 30 33 34
3 30 31 32
3 30 34 35
3 3 4 31
3 12 13 35
3 4 5 48
3 11 12 54
3 5 6 48
3 10 11 54
3 6 48 59
3 10 54 55
3 6 7 59
3 9 10 55
3 7 58 59
3 9 55 56
3 8 57 58
3 8 56 57
3 7 8 58
3 8 9 56
3 4 31 48
3 12 35 54
3 31 48 49
3 35 53 54
3 31 49 50
3 35 52 53
3 31 32 50
3 34 35 52
3 32 33 50
3 33 34 52
3 33 50 51
3 33 51 52
3 48 49 60
3 49 60 50
3 50 60 61
3 50 51 61
3 51 52 61
3 61 62 52
3 52 53 62
3 53 54 62
3 54 55 63
3 55 56 63
3 56 63 64
3 56 57 64
3 64 65 57
3 57 58 65
3 58 59 65
3 48 59 65
