ply
format ascii 1.0
element vertex 66
property float x
property float y
property float z
property float u
property float v
element face 91
property list uchar int vertex_indices
end_header
-20.1918 -5.98266 20.9345 494.805 432.081
-19.7443 -0.644317 20.4825 495.307 453.753
-18.8844 4.64559 20.1533 497.527 475.41
-17.5255 9.68908 18.2448 501.896 495.189
-15.4168 14.247 13.3192 509.532 511.272
-12.165 18.1656 7.83456 522.07 524.677
-7.94652 21.259 3.22815 538.809 535.502
-2.98925 23.2636 -0.800217 558.875 542.424
2.4978 23.3284 -4.47702 581.623 541.763
7.42563 22.2313 -0.823198 602.255 540.822
11.5225 19.5813 3.36835 619.834 533.655
14.8641 16.1605 8.08801 634.475 523.475
17.0967 12.0559 13.6744 644.688 510.763
18.1774 7.37793 18.5898 650.286 494.989
18.6988 2.23465 20.5863 653.726 475.333
18.8929 -3.1227 20.9584 655.886 453.694
18.8066 -8.46175 21.4682 656.879 432.147
-15.957 -15.3716 0.244231 514.994 381.708
-14.0104 -17.2081 -1.54156 523.543 373.562
-11.5171 -18.0435 -2.94069 534.096 369.894
-8.91314 -18.1219 -4.28163 544.914 369.388
-6.40252 -17.5939 -5.53508 555.19 371.395
3.49546 -18.1835 -5.26113 596.313 371.661
6.21988 -19.2044 -4.02697 607.836 368.95
9.11617 -19.5632 -2.66306 619.899 369.074
11.9903 -18.9288 -1.316 631.619 373.246
14.3209 -17.0712 0.400176 640.773 382.518
-1.33652 -11.3437 -5.02047 574.568 398.577
-1.21443 -8.46756 -7.75715 574.378 408.653
-1.07098 -5.60997 -10.5128 574.282 418.647
-0.891405 -2.7552 -13.0863 574.334 428.754
-3.04551 0.984608 -6.21025 564.375 447.841
-1.86295 1.14629 -7.10532 569.241 448.238
-0.635619 1.11897 -7.98403 574.341 447.884
0.791522 0.919457 -7.05604 580.288 448.013
2.13065 0.545664 -6.08873 585.914 447.431
-11.788 -10.2936 -1.20704 530.982 402.628
-10.2199 -11.6062 -1.18437 537.808 397.669
-8.13259 -11.7402 -1.06755 546.481 397.722
-6.46142 -10.6656 -0.703992 553.122 402.771
-8.14232 -9.73463 -1.07312 545.931 405.923
-10.0665 -9.54658 -1.11967 537.918 406.176
5.42796 -11.6726 -0.851717 602.601 401.568
7.00016 -12.9534 -0.928083 609.437 396.677
9.11041 -12.9731 -0.865175 618.177 397.171
10.8554 -11.8837 -0.769671 625.123 402.13
9.19088 -10.9929 -0.886824 618.007 405.28
7.2358 -10.9052 -1.05167 609.893 405.04
-4.16134 9.95865 -2.79393 557.43 486.43
-2.98876 8.17619 -5.12001 562.768 477.968
-1.5437 6.63531 -6.77225 569.164 470.989
0.30149 6.63054 -8.3364 576.824 470.452
2.22148 6.27456 -6.6422 584.841 470.548
4.026 7.49928 -5.00891 591.979 477.044
5.7168 8.93661 -2.83528 598.585 484.723
4.44624 10.2366 -3.98392 593.01 488.997
2.84173 11.1147 -5.33104 586.162 491.336
0.94056 11.5246 -6.71249 578.205 491.662
-1.01926 11.587 -5.41621 570.059 492.237
-2.78569 11.0677 -4.13121 562.861 490.474
-0.661358 8.884 -4.95681 572.221 481.557
0.50371 8.5138 -7.07784 577.167 479.001
1.84566 8.52751 -5.10483 582.693 480.639
1.81399 8.54847 -4.51148 582.548 481.091
0.568048 8.70561 -6.18262 577.372 480.366
-0.596871 8.87005 -4.46077 572.485 481.828
3 20 21 23
3 21 22 23
3 0 1 36
3 15 16 45
3 0 17 36
3 16 26 45
3 17 18 37
3 25 26 44
3 17 36 37
3 26 44 45
3 18 19 38
3 24 25 43
3 18 37 38
3 25 43 44
3 19 20 38
3 23 24 43
3 20 21 39
3 22 23 42
3 20 38 39
3 23 42 43
3 21 22 27
3 21 27 39
3 22 27 42
3 27 28 42
3 27 28 39
3 28 42 47
3 28 39 40
3 1 36 41
3 15 45 46
3 1 2 41
3 14 15 46
3 28 29 40
3 28 29 47
3 2 40 41
3 14 46 47
3 2 29 40
3 14 29 47
3 2 3 29
3 13 14 29
3 29 30 31
3 29 30 35
3 3 29 31
3 13 29 35
3 30 32 33
3 30 33 34
3 30 31 32
3 30 34 35
3 3 4 31
3 12 13 35
3 4 5 48
3 11 12 54
3 5 6 48
3 10 11 54
3 6 48 59
3 10 54 55
3 6 7 59
3 9 10 55
3 7 58 59
3 9 55 56
3 8 57 58
3 8 56 57
3 7 8 58
3 8 9 56
3 4 31 48
3 12 35 54
3 31 48 49
3 35 53 54
3 31 49 50
3 35 52 53
3 31 32 50
3 34 35 52
3 32 33 50
3 33 34 52
3 33 50 51
3 33 51 52
3 48 49 60
3 49 60 50
3 50 60 61
3 50 51 61
3 51 52 61
3 61 62 52
3 52 53 62
3 53 54 62
3 54 55 63
3 55 56 63
3 56 63 64
3 56 57 64
3 64 65 57
3 57 58 65
3 58 59 65
3 48 59 65
