ply
format ascii 1.0
element vertex 66
property float x
property float y
property float z
property float u
property float v
element face 91
property list uchar int vertex_indices
end_header
-20.1155 -5.86553 20.9025 494.872 432.414
-19.6294 -0.554869 20.4467 495.533 454.085
-18.7305 4.70574 20.1253 497.918 475.74
-17.3244 9.70898 18.2187 502.518 495.492
-15.1705 14.208 13.2945 510.431 511.504
-11.9199 18.0827 7.85876 523.076 524.92
-7.74909 21.1756 3.22571 539.727 535.855
-2.85003 23.2107 -0.795203 559.662 543.009
2.59857 23.262 -4.45331 582.384 542.376
7.42124 22.0959 -0.837816 602.636 541.061
11.3696 19.3665 3.35968 619.645 533.454
14.5984 15.947 8.12154 633.827 523.172
16.7895 11.9057 13.6671 643.837 510.549
17.9187 7.32616 18.5485 649.59 495.029
18.5027 2.27752 20.5605 653.27 475.671
18.7488 -2.996 20.9125 655.645 454.279
18.7175 -8.254 21.4333 656.859 432.982
-15.9331 -15.4112 0.253063 515.233 381.535
-13.9893 -17.2449 -1.53812 523.83 373.398
-11.5059 -18.0979 -2.9479 534.406 369.667
-8.90807 -18.1999 -4.29577 545.262 369.089
-6.39996 -17.682 -5.54239 555.583 371.099
3.56517 -18.2698 -5.26823 597.141 371.433
6.2587 -19.2842 -4.03349 608.566 368.723
9.12595 -19.6315 -2.64879 620.537 368.891
11.9736 -19.0106 -1.28614 632.177 373.02
14.2981 -17.1941 0.412642 641.326 382.135
-1.34287 -11.4232 -5.00822 574.97 398.461
-1.23725 -8.4429 -7.75689 574.709 409.042
-1.10837 -5.48229 -10.5151 574.549 419.543
-0.941318 -2.52435 -13.0724 574.544 430.166
-2.91954 0.864396 -6.16465 565.275 447.84
-1.83445 0.97572 -7.08837 569.779 448.009
-0.714548 0.93414 -7.99461 574.467 447.569
0.616776 0.76824 -7.05106 580.019 447.814
1.87968 0.463966 -6.02963 585.32 447.52
-11.7948 -10.4226 -1.2198 531.181 402.202
-10.2018 -11.701 -1.14711 538.129 397.405
-8.10982 -11.8505 -1.01799 546.859 397.412
-6.43355 -10.8194 -0.676222 553.55 402.294
-8.13443 -9.92958 -1.05244 546.261 405.279
-10.0641 -9.73365 -1.11375 538.193 405.547
5.51695 -11.8529 -0.871365 603.486 401.022
7.10203 -13.0794 -0.864699 610.39 396.395
9.21798 -13.0753 -0.797872 619.181 397.001
10.9752 -12.0107 -0.753444 626.208 401.859
9.29073 -11.1853 -0.878523 618.997 404.738
7.3314 -11.1095 -1.05824 610.84 404.432
-4.03916 10.0641 -2.81039 558.164 487.428
-2.93088 8.2844 -5.13294 563.287 478.968
-1.542 6.71722 -6.76028 569.504 471.884
0.261538 6.70676 -8.35664 577.042 471.324
2.14031 6.35834 -6.63127 584.897 471.442
3.89579 7.61517 -5.02372 591.828 478.053
5.52841 9.0617 -2.88209 598.186 485.741
4.36852 10.4598 -4.04205 593.033 490.472
2.84382 11.4622 -5.34813 586.471 493.391
0.950104 11.9363 -6.71885 578.513 494.005
-1.02569 11.9475 -5.42321 570.267 494.338
-2.74854 11.2969 -4.18722 563.244 491.98
-0.659892 8.96066 -4.94244 572.546 482.453
0.468715 8.56026 -7.12102 577.394 479.757
1.78485 8.60065 -5.10261 582.803 481.508
1.77309 8.82151 -4.49683 582.682 482.786
0.561961 9.05871 -6.13715 577.628 482.436
-0.580778 9.14793 -4.4446 572.814 483.55
3 20 21 23
3 21 22 23
3 0 1 36
3 15 16 45
3 0 17 36
3 16 26 45
3 17 18 37
3 25 26 44
3 17 36 37
3 26 44 45
3 18 19 38
3 24 25 43
3 18 37 38
3 25 43 44
3 19 20 38
3 23 24 43
3 20 21 39
3 22 23 42
3 20 38 39
3 23 42 43
3 21 22 27
3 21 27 39
3 22 27 42
3 27 28 42
3 27 28 39
3 28 42 47
3 28 39 40
3 1 36 41
3 15 45 46
3 1 2 41
3 14 15 46
3 28 29 40
3 28 29 47
3 2 40 41
3 14 46 47
3 2 29 40
3 14 29 47
3 2 3 29
3 13 14 29
3 29 30 31
3 29 30 35
3 3 29 31
3 13 29 35
3 30 32 33
3 30 33 34
3 30 31 32
3 30 34 35
3 3 4 31
3 12 13 35
3 4 5 48
3 11 12 54
3 5 6 48
3 10 11 54
3 6 48 59
3 10 54 55
3 6 7 59
3 9 10 55
3 7 58 59
3 9 55 56
3 8 57 58
3 8 56 57
3 7 8 58
3 8 9 56
3 4 31 48
3 12 35 54
3 31 48 49
3 35 53 54
3 31 49 50
3 35 52 53
3 31 32 50
3 34 35 52
3 32 33 50
3 33 34 52
3 33 50 51
3 33 51 52
3 48 49 60
3 49 60 50
3 50 60 61
3 50 51 61
3 51 52 61
3 61 62 52
3 52 53 62
3 53 54 62
3 54 55 63
3 55 56 63
3 56 63 64
3 56 57 64
3 64 65 57
3 57 58 65
3 58 59 65
3 48 59 65
