ply
format ascii 1.0
element vertex 66
property float x
property float y
property float z
property float u
property float v
element face 91
property list uchar int vertex_indices
end_header
-20.043 -6.07735 21.7343 482.593 427.416
-19.0919 -0.461845 21.1342 485.54 450.868
-17.938 5.12418 20.5073 489.347 474.239
-16.7202 10.5176 18.5755 493.92 496.459
-15.0754 15.2602 13.5614 501.494 515.214
-12.1687 18.9791 7.96321 514.748 529.846
-8.28437 21.7714 3.17976 531.984 541.081
-3.81922 23.6163 -1.03574 551.643 548.669
1.13633 23.776 -4.71306 573.521 549.505
6.28061 22.5176 -0.722217 593.797 546.616
10.3391 19.2193 3.44239 609.938 535.016
13.5476 15.1944 8.15588 622.508 520.338
15.9995 10.8354 13.5747 631.754 504.282
17.6298 6.34053 18.0861 637.93 487.209
18.4755 1.73113 20.067 641.755 468.766
18.804 -2.98692 20.3723 644.041 449.278
18.6592 -7.71761 20.7717 644.327 429.65
-17.0139 -14.8937 0.169913 504.691 385.421
-14.68 -17.2263 -1.56716 515.52 375.784
-11.6096 -18.4461 -2.87768 529.022 371.079
-8.32179 -18.5876 -4.12522 543.171 370.936
-5.06594 -17.9601 -5.23684 556.973 374.025
3.24421 -17.9674 -5.48018 591.638 375.931
5.55272 -18.7519 -4.17373 600.955 373.584
8.05582 -19.0039 -2.79413 610.941 373.522
10.5887 -18.7728 -1.3094 620.908 375.509
12.9043 -17.6477 0.37945 629.705 381.224
0.23689 -11.6763 -4.79008 577.514 401.601
0.323296 -8.70236 -7.73866 578.263 413.188
0.38514 -5.74953 -10.7221 578.927 424.672
0.423818 -2.79339 -13.4749 579.412 436.227
-2.17906 1.13333 -6.48302 565.271 453.902
-0.635461 1.41612 -7.26278 571.906 455.235
0.972835 1.48123 -8.02957 578.854 455.681
2.27156 1.35434 -7.06114 583.945 455.735
3.47661 0.99358 -6.22331 588.743 454.756
-12.0828 -10.8605 -0.734598 524.65 403.157
-10.3461 -12.1426 -1.02199 532.256 398.156
-8.15167 -12.333 -1.22289 541.499 397.836
-6.33245 -11.0571 -0.918263 548.684 403.674
-8.21461 -10.3666 -1.02531 540.74 406.067
-10.2377 -10.2622 -0.945233 532.271 406.036
5.01108 -11.4504 -0.978514 595.991 404.755
6.51795 -12.7045 -1.09458 602.575 399.862
8.58404 -12.9028 -0.894391 611.144 399.591
10.289 -11.7243 -0.638455 617.893 404.982
8.65932 -10.9099 -0.889304 611.023 407.911
6.77036 -10.8964 -1.00083 603.199 407.481
-6.59947 9.12269 -2.76328 543.833 487.149
-4.31289 7.61807 -5.11984 554.503 480.777
-1.92256 6.36164 -6.7724 565.303 475.66
0.673581 6.41784 -8.37318 576.656 476.075
3.1151 6.18443 -6.40337 586.174 476.24
5.36494 7.22782 -4.74951 594.727 481.589
7.33172 8.73722 -2.52536 601.801 488.969
5.83077 10.6159 -3.89839 595.63 496.05
3.5963 11.8061 -4.99851 586.46 500.162
0.943539 12.139 -6.55892 575.898 500.474
-1.86147 11.931 -5.29356 563.827 499.284
-4.43948 10.8835 -4.1198 552.915 494.626
-1.92962 8.48955 -5.39709 564.328 484.904
0.823151 8.33711 -7.41782 576.525 484.371
3.42244 8.38488 -4.77412 586.401 485.933
3.56919 9.04928 -4.21572 586.671 488.891
0.936791 9.24841 -6.37067 576.432 488.486
-1.86454 9.21726 -4.73812 564.209 488.135
3 20 21 23
3 21 22 23
3 0 1 36
3 15 16 45
3 0 17 36
3 16 26 45
3 17 18 37
3 25 26 44
3 17 36 37
3 26 44 45
3 18 19 38
3 24 25 43
3 18 37 38
3 25 43 44
3 19 20 38
3 23 24 43
3 20 21 39
3 22 23 42
3 20 38 39
3 23 42 43
3 21 22 27
3 21 27 39
3 22 27 42
3 27 28 42
3 27 28 39
3 28 42 47
3 28 39 40
3 1 36 41
3 15 45 46
3 1 2 41
3 14 15 46
3 28 29 40
3 28 29 47
3 2 40 41
3 14 46 47
3 2 29 40
3 14 29 47
3 2 3 29
3 13 14 29
3 29 30 31
3 29 30 35
3 3 29 31
3 13 29 35
3 30 32 33
3 30 33 34
3 30 31 32
3 30 34 35
3 3 4 31
3 12 13 35
3 4 5 48
3 11 12 54
3 5 6 48
3 10 11 54
3 6 48 59
3 10 54 55
3 6 7 59
3 9 10 55
3 7 58 59
3 9 55 56
3 8 57 58
3 8 56 57
3 7 8 58
3 8 9 56
3 4 31 48
3 12 35 54
3 31 48 49
3 35 53 54
3 31 49 50
3 35 52 53
3 31 32 50
3 34 35 52
3 32 33 50
3 33 34 52
3 33 50 51
3 33 51 52
3 48 49 60
3 49 60 50
3 50 60 61
3 50 51 61
3 51 52 61
3 61 62 52
3 52 53 62
3 53 54 62
3 54 55 63
3 55 56 63
3 56 63 64
3 56 57 64
3 64 65 57
3 57 58 65
3 58 59 65
3 48 59 65
