ply
format ascii 1.0
element vertex 66
property float x
property float y
property float z
property float u
property float v
element face 91
property list uchar int vertex_indices
end_header
-20.1507 -5.84811 21.3892 490.035 431.19
-19.4958 -0.454926 20.6757 492.106 453.452
-18.5237 4.91023 20.2327 495.452 475.786
-17.3308 9.978 18.4365 500.066 496.26
-15.4882 14.3499 13.6448 508.167 512.488
-12.4361 17.9562 7.95846 521.654 525.303
-8.43604 20.8591 3.14693 539.035 535.78
-3.71402 22.8178 -0.952755 559.434 542.796
1.6038 22.8849 -4.50583 582.504 542.295
6.83205 22.0853 -0.866734 603.761 541.668
11.1191 19.4302 3.32367 621.236 533.403
14.5616 15.9715 8.14614 635.155 521.944
16.9937 11.9976 13.8497 644.722 508.584
18.2277 7.47344 18.5503 649.569 492.227
18.7674 2.37359 20.4513 652.204 471.98
19.0411 -3.00405 20.886 654.087 449.813
18.9864 -8.36339 21.5103 654.548 427.756
-16.3811 -15.2623 0.266393 511.913 382.308
-14.249 -17.0638 -1.41922 521.502 374.355
-11.6761 -17.9309 -2.84332 532.738 370.504
-9.01419 -18.0987 -4.15782 544.216 369.64
-6.42548 -17.7005 -5.37055 555.277 371.172
3.18825 -18.0013 -5.28549 595.627 371.678
5.80878 -18.855 -4.01825 606.473 369.204
8.60381 -19.1291 -2.66595 617.943 369.219
11.4287 -18.6635 -1.23089 629.406 372.365
13.9362 -17.1548 0.381893 639.338 379.892
-0.916241 -11.6588 -4.88299 577.345 397.593
-0.739497 -8.69689 -7.7832 578.263 408.564
-0.56218 -5.76518 -10.7397 579.201 419.382
-0.367065 -2.81986 -13.4863 580.165 430.362
-3.24911 2.18131 -6.71797 565.827 454.003
-1.61416 2.61866 -7.42849 572.772 455.773
0.122392 2.67318 -8.02116 580.176 456.022
1.88849 2.36782 -7.31249 587.476 455.41
3.48516 1.68119 -6.63502 594.131 453.162
-12.0711 -10.4986 -0.69399 529.465 402.478
-10.3845 -11.7807 -1.0192 536.808 397.274
-8.25457 -11.8302 -1.31312 545.813 397.306
-6.52466 -10.5641 -1.1167 552.831 402.991
-8.33451 -9.88676 -1.16243 545.145 405.47
-10.2965 -9.7877 -1.06265 536.879 405.581
5.2042 -11.3416 -1.13847 602.149 401.835
6.74332 -12.7769 -1.22828 608.846 396.08
8.83383 -12.958 -0.816224 617.552 395.899
10.6554 -11.9245 -0.378994 624.937 400.748
8.99814 -11.0233 -0.864967 617.953 403.973
7.05669 -10.8765 -1.05839 609.83 404.144
-7.06202 8.26912 -2.58676 547.993 480.724
-4.31834 7.39535 -4.92477 560.146 476.432
-1.76902 6.83448 -6.77872 571.33 473.645
0.624067 6.87895 -8.48351 581.733 473.427
3.02181 6.50179 -6.53455 591.422 473.233
5.64997 6.6773 -4.68803 602.015 475.334
8.5392 7.11546 -2.44492 613.575 478.771
6.69379 9.45846 -3.87531 605.786 487.516
4.07658 11.0102 -5.11105 594.839 492.918
1.03346 11.4708 -6.49365 582.307 493.621
-2.04806 11.4733 -5.30642 569.122 493.659
-4.8875 10.3448 -4.02197 557.106 489.07
-2.13314 8.63333 -5.27321 569.196 481.816
0.772288 8.53323 -7.52734 581.89 480.819
3.70406 8.19142 -5.18475 593.728 481.059
3.97612 8.52818 -4.46792 594.66 482.862
0.812611 8.7952 -6.40265 581.773 482.467
-2.33217 8.99893 -4.56687 568.151 483.649
3 20 21 23
3 21 22 23
3 0 1 36
3 15 16 45
3 0 17 36
3 16 26 45
3 17 18 37
3 25 26 44
3 17 36 37
3 26 44 45
3 18 19 38
3 24 25 43
3 18 37 38
3 25 43 44
3 19 20 38
3 23 24 43
3 20 21 39
3 22 23 42
3 20 38 39
3 23 42 43
3 21 22 27
3 21 27 39
3 22 27 42
3 27 28 42
3 27 28 39
3 28 42 47
3 28 39 40
3 1 36 41
3 15 45 46
3 1 2 41
3 14 15 46
3 28 29 40
3 28 29 47
3 2 40 41
3 14 46 47
3 2 29 40
3 14 29 47
3 2 3 29
3 13 14 29
3 29 30 31
3 29 30 35
3 3 29 31
3 13 29 35
3 30 32 33
3 30 33 34
3 30 31 32
3 30 34 35
3 3 4 31
3 12 13 35
3 4 5 48
3 11 12 54
3 5 6 48
3 10 11 54
3 6 48 59
3 10 54 55
3 6 7 59
3 9 10 55
3 7 58 59
3 9 55 56
3 8 57 58
3 8 56 57
3 7 8 58
3 8 9 56
3 4 31 48
3 12 35 54
3 31 48 49
3 35 53 54
3 31 49 50
3 35 52 53
3 31 32 50
3 34 35 52
3 32 33 50
3 33 34 52
3 33 50 51
3 33 51 52
3 48 49 60
3 49 60 50
3 50 60 61
3 50 51 61
3 51 52 61
3 61 62 52
3 52 53 62
3 53 54 62
3 54 55 63
3 55 56 63
3 56 63 64
3 56 57 64
3 64 65 57
3 57 58 65
3 58 59 65
3 48 59 65
