ply
format ascii 1.0
element vertex 66
property float x
property float y
property float z
property float u
property float v
element face 91
property list uchar int vertex_indices
end_header
-20.1217 -5.17596 20.7963 490.252 427.815
-19.5817 -0.150265 20.3076 490.697 448.344
-18.642 4.81721 20.0035 492.841 468.817
-17.1574 9.64019 18.0429 496.838 488.33
-14.8158 14.1347 13.2995 503.737 505.861
-11.4828 18.0447 7.82031 514.691 521.069
-7.37737 21.2089 3.16838 529.255 533.735
-2.60941 23.3582 -0.885563 547.01 542.655
2.6648 23.5156 -4.35424 567.631 543.784
7.20559 22.0766 -0.918552 587.531 540.409
10.8534 19.1101 3.38026 604.499 530.803
13.9613 15.6251 8.18161 619.558 519.078
16.2545 11.5727 13.7566 631.668 505.038
17.6184 6.96775 18.5209 639.954 488.195
18.3585 2.02627 20.6224 645.124 468.924
18.7485 -3.04492 20.9816 648.461 448.452
18.8935 -8.12053 21.5004 650.84 427.938
-15.5841 -15.3634 0.189927 506.878 380.921
-13.5422 -16.9203 -1.49183 515.302 374.642
-11.0188 -17.576 -2.93941 525.461 372.266
-8.41367 -17.6167 -4.33337 535.767 372.444
-5.88333 -17.1086 -5.61465 545.616 374.876
3.46493 -17.8991 -5.35908 584.144 374.587
6.28739 -18.9472 -4.1174 596.336 371.571
9.25671 -19.3629 -2.66444 608.976 371.252
12.1965 -18.8154 -1.24623 621.173 374.846
14.5706 -17.0881 0.36164 630.721 383.146
-1.52618 -11.2893 -5.04324 561.672 400.155
-1.48276 -8.40124 -7.65013 560.245 411.117
-1.40719 -5.54234 -10.4326 558.915 421.912
-1.28781 -2.70565 -13.1364 557.791 432.655
-3.89095 0.496068 -6.0945 547.899 447.217
-2.49972 0.834985 -7.08823 553.222 448.704
-1.03432 0.889095 -8.07891 558.941 449.051
0.667744 0.558548 -7.13306 566.245 448.528
2.25257 -0.0254234 -6.06246 573.185 446.975
-11.6948 -10.562 -1.20564 520.853 401.263
-10.2238 -11.6934 -1.06793 527.269 397.137
-8.3112 -11.8826 -0.901588 535.189 397.003
-6.70327 -11.1439 -0.62479 541.59 400.6
-8.28415 -10.3876 -0.921046 534.807 403.109
-10.0545 -10.1508 -1.06442 527.459 403.489
5.93171 -12.4065 -0.914363 593.565 399.21
7.49527 -13.3627 -0.789443 600.299 395.824
9.45166 -13.2914 -0.70301 608.293 396.74
11.0867 -12.3614 -0.70116 614.672 401.038
9.44505 -11.8169 -0.825339 607.754 402.72
7.62464 -11.7865 -0.972145 600.267 402.24
-5.01387 10.0939 -2.82343 541.013 487.127
-3.63448 8.46646 -4.99399 546.629 480.199
-1.91898 7.07272 -6.60725 553.684 474.509
0.183594 7.11169 -8.19724 561.86 474.795
2.36706 6.59251 -6.53703 571.375 473.88
4.47173 7.55677 -4.91767 580.074 478.986
6.43192 8.73215 -2.88461 588.219 485.043
4.97141 10.3109 -4.08748 581.43 490.654
3.12693 11.4276 -5.32097 573.214 494.25
0.935397 12.0424 -6.58007 563.737 495.683
-1.34347 12.0644 -5.35696 554.727 495.474
-3.4312 11.4461 -4.23567 546.682 492.674
-1.24992 9.0877 -5.01022 556.168 483.459
0.405254 8.76887 -7.29804 562.455 481.921
2.25551 8.55906 -5.28711 570.596 482.282
2.25242 8.93005 -4.60913 570.635 484.015
0.509539 9.42346 -6.34385 562.91 484.935
-1.17318 9.43547 -4.50766 556.496 485.066
3 20 21 23
3 21 22 23
3 0 1 36
3 15 16 45
3 0 17 36
3 16 26 45
3 17 18 37
3 25 26 44
3 17 36 37
3 26 44 45
3 18 19 38
3 24 25 43
3 18 37 38
3 25 43 44
3 19 20 38
3 23 24 43
3 20 21 39
3 22 23 42
3 20 38 39
3 23 42 43
3 21 22 27
3 21 27 39
3 22 27 42
3 27 28 42
3 27 28 39
3 28 42 47
3 28 39 40
3 1 36 41
3 15 45 46
3 1 2 41
3 14 15 46
3 28 29 40
3 28 29 47
3 2 40 41
3 14 46 47
3 2 29 40
3 14 29 47
3 2 3 29
3 13 14 29
3 29 30 31
3 29 30 35
3 3 29 31
3 13 29 35
3 30 32 33
3 30 33 34
3 30 31 32
3 30 34 35
3 3 4 31
3 12 13 35
3 4 5 48
3 11 12 54
3 5 6 48
3 10 11 54
3 6 48 59
3 10 54 55
3 6 7 59
3 9 10 55
3 7 58 59
3 9 55 56
3 8 57 58
3 8 56 57
3 7 8 58
3 8 9 56
3 4 31 48
3 12 35 54
3 31 48 49
3 35 53 54
3 31 49 50
3 35 52 53
3 31 32 50
3 34 35 52
3 32 33 50
3 33 34 52
3 33 50 51
3 33 51 52
3 48 49 60
3 49 60 50
3 50 60 61
3 50 51 61
3 51 52 61
3 61 62 52
3 52 53 62
3 53 54 62
3 54 55 63
3 55 56 63
3 56 63 64
3 56 57 64
3 64 65 57
3 57 58 65
3 58 59 65
3 48 59 65
