ply
format ascii 1.0
element vertex 66
property float x
property float y
property float z
property float u
property float v
element face 91
property list uchar int vertex_indices
end_header
-20.1116 -5.96329 20.9861 494.633 432.71
-19.6504 -0.62548 20.5265 495.311 454.42
-18.7923 4.66712 20.1877 497.639 476.115
-17.4637 9.6865 18.2575 502.066 495.812
-15.4076 14.1751 13.3518 509.791 511.654
-12.1997 18.0108 7.8855 522.477 524.747
-8.02746 21.0466 3.22368 539.309 535.294
-3.12937 23.0467 -0.814401 559.362 542.159
2.31809 23.1182 -4.50106 582.13 541.468
7.28342 22.0902 -0.841813 602.772 540.731
11.4075 19.4682 3.34898 620.273 533.587
14.7842 16.0951 8.10585 634.823 523.536
17.0703 12.0603 13.6632 644.963 511.008
18.1791 7.43959 18.5673 650.394 495.387
18.7018 2.30845 20.5948 653.665 475.739
18.89 -3.06479 20.9852 655.693 453.997
18.793 -8.42183 21.4797 656.528 432.318
-16.0122 -15.3938 0.257307 514.947 382.114
-14.046 -17.2399 -1.52808 523.631 373.906
-11.5504 -18.0867 -2.93619 534.254 370.158
-8.9499 -18.1868 -4.27404 545.132 369.541
-6.44398 -17.6718 -5.51687 555.468 371.482
3.46457 -18.2545 -5.25519 596.684 371.645
6.15388 -19.2651 -4.02294 608.01 368.918
9.02299 -19.6107 -2.66326 619.919 369.04
11.883 -19.0052 -1.29888 631.565 373.063
14.242 -17.1951 0.418822 640.831 382.124
-1.2699 -11.3211 -4.99848 575.4 399.09
-1.12789 -8.41559 -7.75935 575.449 409.317
-0.96766 -5.53169 -10.5408 575.579 419.446
-0.775346 -2.64766 -13.1285 575.832 429.704
-2.7661 1.06151 -6.2073 566.338 448.745
-1.65689 1.13541 -7.11845 570.968 448.748
-0.522242 1.06962 -8.00148 575.736 448.201
0.789995 0.926235 -7.06642 581.162 448.513
2.04324 0.649776 -6.11045 586.375 448.277
-11.9083 -10.3062 -1.12089 530.839 403.103
-10.2818 -11.6943 -1.14271 537.913 397.791
-8.10901 -11.8165 -1.0998 546.95 397.84
-6.39824 -10.6143 -0.764922 553.744 403.39
-8.14457 -9.67844 -1.10192 546.298 406.596
-10.1351 -9.50268 -1.1114 538.002 406.831
5.28497 -11.5889 -0.864549 602.43 402.149
6.86619 -13.0108 -0.964078 609.328 396.639
9.05552 -13.0774 -0.841714 618.417 396.97
10.8741 -11.9332 -0.702795 625.682 402.186
9.1784 -10.9589 -0.875077 618.428 405.665
7.16082 -10.8444 -1.04821 610.043 405.54
-4.4147 9.84698 -2.80548 557.25 486.489
-3.07689 8.12225 -5.13167 563.327 478.29
-1.53409 6.62843 -6.78577 570.164 471.506
0.361443 6.61008 -8.37748 578.113 470.896
2.31827 6.27337 -6.65357 586.217 471.062
4.191 7.44672 -5.01704 593.621 477.344
5.99923 8.81792 -2.82262 600.681 484.77
4.7316 10.3353 -4.03761 595.13 489.928
3.03217 11.3815 -5.34862 587.904 492.991
0.978508 11.8216 -6.71479 579.356 493.449
-1.12964 11.8491 -5.43485 570.539 493.851
-3.00331 11.1676 -4.16515 562.863 491.396
-0.859374 8.89802 -4.97794 572.332 482.101
0.556347 8.52184 -7.13085 578.405 479.558
2.12296 8.52861 -5.1037 584.794 481.227
2.13472 8.69891 -4.50445 584.771 482.302
0.622262 8.88066 -6.14939 578.542 481.657
-0.824999 9.04286 -4.45695 572.413 483.028
3 20 21 23
3 21 22 23
3 0 1 36
3 15 16 45
3 0 17 36
3 16 26 45
3 17 18 37
3 25 26 44
3 17 36 37
3 26 44 45
3 18 19 38
3 24 25 43
3 18 37 38
3 25 43 44
3 19 20 38
3 23 24 43
3 20 21 39
3 22 23 42
3 20 38 39
3 23 42 43
3 21 22 27
3 21 27 39
3 22 27 42
3 27 28 42
3 27 28 39
3 28 42 47
3 28 39 40
3 1 36 41
3 15 45 46
3 1 2 41
3 14 15 46
3 28 29 40
3 28 29 47
3 2 40 41
3 14 46 47
3 2 29 40
3 14 29 47
3 2 3 29
3 13 14 29
3 29 30 31
3 29 30 35
3 3 29 31
3 13 29 35
3 30 32 33
3 30 33 34
3 30 31 32
3 30 34 35
3 3 4 31
3 12 13 35
3 4 5 48
3 11 12 54
3 5 6 48
3 10 11 54
3 6 48 59
3 10 54 55
3 6 7 59
3 9 10 55
3 7 58 59
3 9 55 56
3 8 57 58
3 8 56 57
3 7 8 58
3 8 9 56
3 4 31 48
3 12 35 54
3 31 48 49
3 35 53 54
3 31 49 50
3 35 52 53
3 31 32 50
3 34 35 52
3 32 33 50
3 33 34 52
3 33 50 51
3 33 51 52
3 48 49 60
3 49 60 50
3 50 60 61
3 50 51 61
3 51 52 61
3 61 62 52
3 52 53 62
3 53 54 62
3 54 55 63
3 55 56 63
3 56 63 64
3 56 57 64
3 64 65 57
3 57 58 65
3 58 59 65
3 48 59 65
