ply
format ascii 1.0
element vertex 66
property float x
property float y
property float z
property float u
property float v
element face 91
property list uchar int vertex_indices
end_header
-19.7594 -5.60616 20.7365 495.455 431.983
-19.3317 -0.438855 20.3017 495.67 453.498
-18.4828 4.68124 20.0282 497.681 475.029
-17.0703 9.58701 18.1708 502.092 494.965
-14.8806 14.0785 13.3547 509.827 511.78
-11.7078 18.0206 7.87605 521.859 526.228
-7.65106 21.2046 3.22151 537.877 538.219
-2.86642 23.3535 -0.770205 557.3 546.458
2.48585 23.5035 -4.38179 579.74 546.711
7.25593 22.2762 -0.819641 600.344 544.952
11.1256 19.4586 3.35038 617.65 536.601
14.303 15.9728 8.1364 632.257 525.584
16.4784 11.8581 13.7296 642.849 512.076
17.6705 7.21414 18.5431 649.432 495.634
18.2881 2.1576 20.5185 653.637 475.739
18.5127 -3.08047 20.853 656.194 454.068
18.4462 -8.30437 21.339 657.522 432.453
-15.517 -15.4321 0.221347 515.787 380.904
-13.6764 -17.2548 -1.52952 524.062 372.868
-11.2386 -18.1303 -2.92962 534.578 369.168
-8.66028 -18.2662 -4.29532 545.462 368.623
-6.15592 -17.8103 -5.58586 555.855 370.574
3.36852 -18.4752 -5.32341 596.258 370.785
6.08482 -19.4678 -4.04674 608.059 368.142
8.96086 -19.8053 -2.63604 620.339 368.363
11.7948 -19.1586 -1.2694 632.138 372.665
14.044 -17.3295 0.380864 641.117 381.896
-1.39628 -11.8981 -5.04303 574.15 397.037
-1.29205 -9.00245 -7.66497 573.633 407.751
-1.16177 -6.1301 -10.3892 573.229 418.319
-0.995489 -3.27262 -13.0265 572.985 428.883
-3.45493 0.498766 -6.11922 561.647 447.711
-2.13181 0.714592 -7.04445 567.139 448.503
-0.74977 0.697105 -7.96221 572.951 448.341
0.842947 0.462299 -7.02909 579.77 448.346
2.33212 0.0166785 -6.02268 586.218 447.478
-11.483 -10.4637 -1.28844 531.251 402.076
-9.95451 -11.7899 -1.14927 538.11 397.06
-7.87599 -11.9525 -0.95026 546.937 397.11
-6.19158 -10.9767 -0.591609 553.757 401.894
-7.84924 -10.0178 -1.01923 546.457 405.177
-9.75933 -9.77426 -1.11784 538.319 405.571
5.29074 -12.0494 -0.757988 602.535 400.75
6.88826 -13.2573 -0.799856 609.644 396.15
9.00374 -13.2566 -0.809007 618.571 396.781
10.7256 -12.1541 -0.845047 625.499 401.89
9.04927 -11.3045 -0.88523 618.164 404.922
7.09288 -11.2566 -1.0121 609.89 404.468
-3.84045 10.5863 -2.8125 557.032 491.62
-2.86807 8.74959 -5.05156 561.634 482.999
-1.54648 7.07494 -6.69196 567.676 475.489
0.274096 7.07991 -8.29473 575.313 475.177
2.17038 6.69875 -6.60561 583.479 475.074
3.87378 8.0651 -4.97189 590.295 482.196
5.38263 9.56958 -2.87366 596.262 490.092
4.21042 10.8003 -4.10953 590.905 494.215
2.73956 11.682 -5.42978 584.392 496.742
0.919773 12.1468 -6.74355 576.534 497.423
-0.953988 12.1666 -5.47252 568.656 497.641
-2.59384 11.6465 -4.21504 561.93 495.662
-0.597727 9.31425 -4.88566 571.047 486.132
0.467691 8.8789 -7.10085 575.614 483.417
1.71811 8.95181 -5.08383 580.925 485.2
1.64143 9.11454 -4.56711 580.566 486.141
0.544529 9.39382 -6.25572 575.804 486.057
-0.487879 9.44143 -4.48131 571.483 486.919
3 20 21 23
3 21 22 23
3 0 1 36
3 15 16 45
3 0 17 36
3 16 26 45
3 17 18 37
3 25 26 44
3 17 36 37
3 26 44 45
3 18 19 38
3 24 25 43
3 18 37 38
3 25 43 44
3 19 20 38
3 23 24 43
3 20 21 39
3 22 23 42
3 20 38 39
3 23 42 43
3 21 22 27
3 21 27 39
3 22 27 42
3 27 28 42
3 27 28 39
3 28 42 47
3 28 39 40
3 1 36 41
3 15 45 46
3 1 2 41
3 14 15 46
3 28 29 40
3 28 29 47
3 2 40 41
3 14 46 47
3 2 29 40
3 14 29 47
3 2 3 29
3 13 14 29
3 29 30 31
3 29 30 35
3 3 29 31
3 13 29 35
3 30 32 33
3 30 33 34
3 30 31 32
3 30 34 35
3 3 4 31
3 12 13 35
3 4 5 48
3 11 12 54
3 5 6 48
3 10 11 54
3 6 48 59
3 10 54 55
3 6 7 59
3 9 10 55
3 7 58 59
3 9 55 56
3 8 57 58
3 8 56 57
3 7 8 58
3 8 9 56
3 4 31 48
3 12 35 54
3 31 48 49
3 35 53 54
3 31 49 50
3 35 52 53
3 31 32 50
3 34 35 52
3 32 33 50
3 33 34 52
3 33 50 51
3 33 51 52
3 48 49 60
3 49 60 50
3 50 60 61
3 50 51 61
3 51 52 61
3 61 62 52
3 52 53 62
3 53 54 62
3 54 55 63
3 55 56 63
3 56 63 64
3 56 57 64
3 64 65 57
3 57 58 65
3 58 59 65
3 48 59 65
