ply
format ascii 1.0
element vertex 66
property float x
property float y
property float z
property float u
property float v
element face 91
property list uchar int vertex_indices
end_header
-20.2676 -6.01701 20.9096 496.705 431.505
-19.903 -0.85105 20.4988 497.208 452.316
-19.1219 4.26407 20.1571 499.436 473.039
-17.6891 9.23363 18.1947 504.301 492.288
-15.3735 13.8329 13.3975 512.743 508.443
-11.952 17.7246 7.8691 525.834 521.471
-7.69055 20.7622 3.23591 542.577 531.73
-2.86632 22.8925 -0.756224 561.834 538.799
2.44303 23.1207 -4.38973 583.46 538.444
7.15812 21.9319 -0.787846 603.223 536.685
11.0879 19.2172 3.39468 620.071 528.94
14.4728 15.9004 8.08823 634.816 518.965
17.0031 11.9262 13.6301 646.208 506.685
18.4226 7.30747 18.5698 653.13 491.214
19.0538 2.3375 20.5913 656.753 472.373
19.2088 -2.72461 20.9755 658.365 452.061
19.1022 -7.7728 21.4065 658.9 431.787
-15.8975 -15.6169 0.319567 515.599 380.571
-14.0459 -17.3355 -1.47298 523.459 372.814
-11.6248 -18.1855 -2.94883 533.509 368.886
-9.04943 -18.3226 -4.27096 544.065 367.978
-6.5321 -17.8698 -5.46103 554.276 369.54
3.74929 -18.6488 -5.14107 596.702 368.429
6.55539 -19.4536 -4.02722 608.438 366.351
9.46163 -19.6026 -2.74729 620.468 367.06
12.2292 -18.6945 -1.358 631.733 372.108
14.2708 -16.6469 0.573929 639.821 381.992
-1.45056 -11.6634 -5.07325 574.007 395.925
-1.31474 -8.81895 -7.69328 573.914 405.896
-1.15634 -5.99556 -10.4634 573.912 415.693
-0.959216 -3.19659 -13.211 574.074 425.412
-3.80032 0.739157 -6.25833 561.95 445.185
-2.2238 0.931679 -7.14413 568.356 445.706
-0.616776 0.89266 -8.07446 574.929 445.264
1.14463 0.632749 -7.14382 582.259 445.1
2.812 0.150517 -6.30061 589.241 443.961
-11.0428 -10.0661 -1.22919 534.438 403.056
-9.62559 -11.3902 -1.20924 540.516 397.943
-7.65266 -11.5028 -1.07632 548.653 397.923
-6.03223 -10.4521 -0.547719 555.139 402.813
-7.5939 -9.49796 -0.946076 548.521 406.164
-9.38656 -9.31488 -1.12443 541.11 406.474
4.31416 -11.277 -0.633818 597.823 401.276
5.82807 -12.5389 -1.05041 604.267 396.163
7.81433 -12.6188 -1.00186 612.45 396.227
9.43008 -11.5157 -0.830709 618.89 401.109
7.84583 -10.5963 -0.892197 612.201 404.522
6.01676 -10.5263 -0.865026 604.67 404.493
-5.82514 9.83952 -2.69271 552.057 484.011
-3.99785 8.31692 -4.99096 559.758 476.734
-1.95266 6.93917 -6.68985 568.353 470.455
0.472949 6.97402 -8.2182 578.252 470.092
2.9462 6.43056 -6.58321 588.592 469.339
5.34114 7.30935 -4.91173 598.343 474.375
7.66115 8.34663 -2.67761 607.78 480.388
5.99491 10.1385 -4.00088 600.534 486.555
3.79126 11.3517 -5.38367 591.186 490.235
1.21997 11.9362 -6.64528 580.451 491.368
-1.42587 11.9781 -5.45358 569.618 491.796
-3.87461 11.286 -4.19313 559.737 489.318
-1.55623 9.00087 -5.08598 569.662 479.897
0.714336 8.66217 -7.25951 578.966 477.59
3.12928 8.42509 -5.25712 589.024 478.297
3.2541 8.98717 -4.62922 589.458 480.992
0.849782 9.4535 -6.4552 579.408 481.327
-1.49348 9.5404 -4.55368 569.84 482.43
3 20 21 23
3 21 22 23
3 0 1 36
3 15 16 45
3 0 17 36
3 16 26 45
3 17 18 37
3 25 26 44
3 17 36 37
3 26 44 45
3 18 19 38
3 24 25 43
3 18 37 38
3 25 43 44
3 19 20 38
3 23 24 43
3 20 21 39
3 22 23 42
3 20 38 39
3 23 42 43
3 21 22 27
3 21 27 39
3 22 27 42
3 27 28 42
3 27 28 39
3 28 42 47
3 28 39 40
3 1 36 41
3 15 45 46
3 1 2 41
3 14 15 46
3 28 29 40
3 28 29 47
3 2 40 41
3 14 46 47
3 2 29 40
3 14 29 47
3 2 3 29
3 13 14 29
3 29 30 31
3 29 30 35
3 3 29 31
3 13 29 35
3 30 32 33
3 30 33 34
3 30 31 32
3 30 34 35
3 3 4 31
3 12 13 35
3 4 5 48
3 11 12 54
3 5 6 48
3 10 11 54
3 6 48 59
3 10 54 55
3 6 7 59
3 9 10 55
3 7 58 59
3 9 55 56
3 8 57 58
3 8 56 57
3 7 8 58
3 8 9 56
3 4 31 48
3 12 35 54
3 31 48 49
3 35 53 54
3 31 49 50
3 35 52 53
3 31 32 50
3 34 35 52
3 32 33 50
3 33 34 52
3 33 50 51
3 33 51 52
3 48 49 60
3 49 60 50
3 50 60 61
3 50 51 61
3 51 52 61
3 61 62 52
3 52 53 62
3 53 54 62
3 54 55 63
3 55 56 63
3 56 63 64
3 56 57 64
3 64 65 57
3 57 58 65
3 58 59 65
3 48 59 65
