ply
format ascii 1.0
element vertex 66
property float x
property float y
property float z
property float u
property float v
element face 91
property list uchar int vertex_indices
end_header
-20.1432 -6.05946 20.8893 496.816 433.234
-19.8076 -0.893375 20.5093 497.161 454.162
-19.0691 4.22095 20.1761 499.185 474.99
-17.707 9.175 18.1484 503.798 494.147
-15.4542 13.7733 13.4195 512.13 510.214
-12.0297 17.6733 7.87403 525.442 523.107
-7.70646 20.6823 3.2285 542.671 533.139
-2.81215 22.7828 -0.757055 562.458 540.011
2.56363 22.9704 -4.41102 584.63 539.38
7.30265 21.8828 -0.82364 604.535 538.27
11.3216 19.3196 3.35774 621.764 531.385
14.7793 16.1103 8.09161 636.807 522.119
17.2247 12.1358 13.7052 647.824 510.117
18.4237 7.45234 18.5968 653.811 494.489
18.9055 2.3873 20.6805 656.858 475.277
19.0085 -2.79541 21.0856 658.334 454.383
18.8975 -7.96089 21.5294 658.921 433.544
-15.8589 -15.6579 0.318621 516.169 381.039
-13.9923 -17.3489 -1.46335 524.213 373.297
-11.5879 -18.1544 -2.95734 534.311 369.474
-9.05293 -18.2758 -4.29008 544.814 368.58
-6.5898 -17.8192 -5.4984 554.906 370.119
3.58122 -18.5545 -5.16276 597.189 369.332
6.43329 -19.4148 -4.03289 609.194 367.132
9.39556 -19.6057 -2.74504 621.523 367.797
12.2392 -18.7198 -1.35571 633.145 372.907
14.3742 -16.6532 0.532666 641.603 383.04
-1.54723 -11.5075 -5.11502 574.529 397.165
-1.39473 -8.7379 -7.69307 574.563 406.787
-1.21793 -5.99269 -10.4416 574.699 416.2
-0.99904 -3.2705 -13.1894 575.015 425.527
-3.62633 0.668283 -6.18909 563.45 445.809
-2.17806 0.795215 -7.11346 569.409 445.991
-0.712996 0.729854 -8.08732 575.475 445.358
0.953148 0.499716 -7.12366 582.438 445.39
2.54819 0.0875969 -6.2141 589.142 444.629
-11.0289 -10.0585 -1.20896 535.025 403.85
-9.6689 -11.371 -1.20326 540.922 398.755
-7.75939 -11.4565 -1.09903 548.851 398.85
-6.22076 -10.3982 -0.591826 555.019 403.818
-7.7129 -9.44561 -0.968082 548.641 407.167
-9.44554 -9.27357 -1.12325 541.427 407.426
4.59215 -11.2814 -0.686043 599.984 402.264
6.04633 -12.5571 -1.062 606.258 397.082
7.98156 -12.6207 -0.984845 614.288 397.253
9.553 -11.5317 -0.805054 620.581 402.133
8.02522 -10.6048 -0.895654 614.065 405.562
6.24398 -10.5184 -0.903175 606.669 405.561
-5.95544 9.89834 -2.73203 552 485.401
-4.0624 8.36842 -5.008 560.113 477.992
-1.99978 6.96959 -6.69811 568.912 471.544
0.435509 6.97415 -8.20535 578.974 471.029
2.93771 6.46044 -6.61664 589.467 470.485
5.38447 7.37038 -4.95194 599.445 475.801
7.83105 8.37927 -2.75501 609.411 481.879
6.06273 10.1487 -4.03556 601.71 487.906
3.78176 11.319 -5.39903 592.005 491.328
1.1781 11.8824 -6.62539 581.088 492.298
-1.49166 11.9606 -5.44742 570.032 492.885
-3.97485 11.3156 -4.2088 559.895 490.592
-1.62032 9.04416 -5.07116 570.092 481.19
0.663028 8.6721 -7.26835 579.59 478.643
3.11691 8.45147 -5.30693 589.829 479.538
3.23458 9.00259 -4.66072 590.216 482.247
0.788417 9.41411 -6.42847 579.973 482.264
-1.57503 9.56129 -4.52894 570.184 483.677
3 20 21 23
3 21 22 23
3 0 1 36
3 15 16 45
3 0 17 36
3 16 26 45
3 17 18 37
3 25 26 44
3 17 36 37
3 26 44 45
3 18 19 38
3 24 25 43
3 18 37 38
3 25 43 44
3 19 20 38
3 23 24 43
3 20 21 39
3 22 23 42
3 20 38 39
3 23 42 43
3 21 22 27
3 21 27 39
3 22 27 42
3 27 28 42
3 27 28 39
3 28 42 47
3 28 39 40
3 1 36 41
3 15 45 46
3 1 2 41
3 14 15 46
3 28 29 40
3 28 29 47
3 2 40 41
3 14 46 47
3 2 29 40
3 14 29 47
3 2 3 29
3 13 14 29
3 29 30 31
3 29 30 35
3 3 29 31
3 13 29 35
3 30 32 33
3 30 33 34
3 30 31 32
3 30 34 35
3 3 4 31
3 12 13 35
3 4 5 48
3 11 12 54
3 5 6 48
3 10 11 54
3 6 48 59
3 10 54 55
3 6 7 59
3 9 10 55
3 7 58 59
3 9 55 56
3 8 57 58
3 8 56 57
3 7 8 58
3 8 9 56
3 4 31 48
3 12 35 54
3 31 48 49
3 35 53 54
3 31 49 50
3 35 52 53
3 31 32 50
3 34 35 52
3 32 33 50
3 33 34 52
3 33 50 51
3 33 51 52
3 48 49 60
3 49 60 50
3 50 60 61
3 50 51 61
3 51 52 61
3 61 62 52
3 52 53 62
3 53 54 62
3 54 55 63
3 55 56 63
3 56 63 64
3 56 57 64
3 64 65 57
3 57 58 65
3 58 59 65
3 48 59 65
