ply
format ascii 1.0
element vertex 66
property float x
property float y
property float z
property float u
property float v
element face 91
property list uchar int vertex_indices
end_header
-19.9435 -5.68949 20.9466 494.922 431.446
-19.5366 -0.498328 20.4774 495.356 452.885
-18.7381 4.6539 20.1967 497.441 474.373
-17.4221 9.57715 18.2071 501.821 494.016
-15.2592 14.0208 13.4903 509.982 510.243
-11.9523 17.7693 7.96001 523.157 523.378
-7.73728 20.6791 3.22275 540.334 533.723
-2.86085 22.5839 -0.777322 560.517 540.49
2.49704 22.5612 -4.32881 583.191 539.621
7.17462 21.4105 -0.893401 603.032 538.063
11.0085 18.7377 3.3614 619.675 530.444
14.2882 15.5317 8.23229 634.097 520.833
16.6453 11.7072 13.8639 644.765 508.869
17.9447 7.26212 18.5617 651.171 493.497
18.5573 2.35486 20.7463 654.893 474.523
18.798 -2.77016 21.0819 657.172 453.443
18.7899 -7.8833 21.5445 658.396 432.426
-15.8776 -15.1715 0.219498 515.135 380.587
-13.9326 -16.8561 -1.47768 523.798 373.047
-11.4808 -17.6517 -2.96138 534.365 369.464
-8.9239 -17.8193 -4.34337 545.213 368.584
-6.42796 -17.4563 -5.62773 555.669 369.956
3.47503 -18.0551 -5.36566 597.469 370.114
6.24794 -18.9853 -4.08359 609.321 367.706
9.1695 -19.3098 -2.64494 621.641 367.951
12.0705 -18.7343 -1.19708 633.649 371.944
14.4433 -17.0028 0.398104 643.143 380.707
-1.51889 -11.9436 -5.09965 574.927 394.464
-1.46303 -9.00199 -7.6778 574.521 405.186
-1.37742 -6.09824 -10.4773 574.258 415.624
-1.24315 -3.21375 -13.2659 574.203 426.002
-3.90966 0.659964 -6.22122 561.767 445.675
-2.42792 0.87474 -7.172 567.981 446.374
-0.899574 0.837322 -8.10554 574.454 446.044
0.865022 0.587335 -7.20065 581.907 445.989
2.5422 0.102063 -6.21026 589.048 444.983
-11.8021 -10.2499 -1.14181 531.102 401.294
-10.12 -11.5818 -1.09227 538.509 396.201
-7.92364 -11.7004 -1.02675 547.776 396.3
-6.11701 -10.6559 -0.687328 555.104 401.308
-7.94097 -9.85503 -1.01443 547.243 403.987
-9.95529 -9.62362 -1.13329 538.715 404.373
5.32375 -11.751 -0.95751 603.517 399.468
7.02891 -13.0193 -0.920567 611.005 394.638
9.2425 -13.0628 -0.714009 620.321 395.138
11.1132 -11.9779 -0.578794 627.915 400.208
9.3093 -11.1834 -0.860114 620.139 402.894
7.25361 -11.119 -1.02329 611.48 402.546
-5.72783 9.97554 -2.7758 551.672 486.069
-3.94599 8.41942 -4.95798 559.634 478.733
-1.96083 7.07378 -6.67188 568.382 472.604
0.321733 7.05763 -8.30422 578.048 472.136
2.68223 6.58648 -6.53835 588.032 471.825
5.03579 7.46992 -4.84151 597.652 477.111
7.37018 8.53143 -2.84797 607.137 483.312
5.76604 10.3676 -4.15211 599.977 489.774
3.63511 11.6551 -5.42393 590.737 493.838
1.09782 12.2399 -6.64332 579.961 494.904
-1.52292 12.316 -5.47614 568.875 495.259
-3.91901 11.5569 -4.26227 558.94 492.221
-1.75839 9.16963 -5.05591 568.654 482.349
0.555638 8.7693 -7.36696 578.571 479.883
3.06379 8.55888 -5.30868 589.101 480.87
3.15934 9.07063 -4.65106 589.352 483.418
0.682354 9.5279 -6.41519 578.881 483.643
-1.72687 9.66442 -4.53563 568.644 484.729
3 20 21 23
3 21 22 23
3 0 1 36
3 15 16 45
3 0 17 36
3 16 26 45
3 17 18 37
3 25 26 44
3 17 36 37
3 26 44 45
3 18 19 38
3 24 25 43
3 18 37 38
3 25 43 44
3 19 20 38
3 23 24 43
3 20 21 39
3 22 23 42
3 20 38 39
3 23 42 43
3 21 22 27
3 21 27 39
3 22 27 42
3 27 28 42
3 27 28 39
3 28 42 47
3 28 39 40
3 1 36 41
3 15 45 46
3 1 2 41
3 14 15 46
3 28 29 40
3 28 29 47
3 2 40 41
3 14 46 47
3 2 29 40
3 14 29 47
3 2 3 29
3 13 14 29
3 29 30 31
3 29 30 35
3 3 29 31
3 13 29 35
3 30 32 33
3 30 33 34
3 30 31 32
3 30 34 35
3 3 4 31
3 12 13 35
3 4 5 48
3 11 12 54
3 5 6 48
3 10 11 54
3 6 48 59
3 10 54 55
3 6 7 59
3 9 10 55
3 7 58 59
3 9 55 56
3 8 57 58
3 8 56 57
3 7 8 58
3 8 9 56
3 4 31 48
3 12 35 54
3 31 48 49
3 35 53 54
3 31 49 50
3 35 52 53
3 31 32 50
3 34 35 52
3 32 33 50
3 33 34 52
3 33 50 51
3 33 51 52
3 48 49 60
3 49 60 50
3 50 60 61
3 50 51 61
3 51 52 61
3 61 62 52
3 52 53 62
3 53 54 62
3 54 55 63
3 55 56 63
3 56 63 64
3 56 57 64
3 64 65 57
3 57 58 65
3 58 59 65
3 48 59 65
