ply
format ascii 1.0
element vertex 66
property float x
property float y
property float z
property float u
property float v
element face 91
property list uchar int vertex_indices
end_header
-19.6557 -5.82301 20.8667 493.945 432.521
-19.2354 -0.58169 20.4387 494.427 454.434
-18.4031 4.61244 20.1455 496.666 476.344
-17.0404 9.58368 18.1819 501.347 496.381
-14.8979 14.1033 13.4844 509.67 512.962
-11.6903 17.9581 7.92055 522.766 526.466
-7.56537 20.9806 3.18915 539.921 537.243
-2.76168 22.993 -0.774391 560.17 544.439
2.56432 23.0217 -4.33475 583.123 543.676
7.23259 21.7635 -0.816111 603.073 541.875
10.985 18.9194 3.35169 619.479 533.569
14.1114 15.5199 8.20192 633.309 523.196
16.3127 11.546 13.8284 643.285 510.66
17.5786 7.06511 18.4707 649.48 495.108
18.2089 2.20686 20.5613 653.253 476.155
18.4292 -2.84003 20.8529 655.461 455.142
18.3576 -7.8756 21.3024 656.412 434.202
-15.6086 -15.4804 0.176962 515.206 379.597
-13.7494 -17.1719 -1.46903 523.684 371.904
-11.344 -17.96 -2.92357 534.244 368.284
-8.82742 -18.0749 -4.32957 545.101 367.56
-6.37007 -17.6711 -5.65688 555.568 369.057
3.77436 -18.3197 -5.40591 598.94 369.167
6.37342 -19.1658 -4.08949 610.133 367.137
9.10365 -19.4578 -2.63896 621.733 367.562
11.8001 -18.8751 -1.21574 632.966 371.645
13.9475 -17.1752 0.379106 641.563 380.4
-1.35143 -11.9578 -5.08905 575.447 394.814
-1.31412 -9.32171 -7.62643 575.121 404.295
-1.25083 -6.7166 -10.3525 574.927 413.531
-1.14699 -4.133 -13.1013 574.914 422.672
-3.72455 0.266609 -6.11002 562.283 445.022
-2.27581 0.453005 -7.07066 568.48 445.572
-0.782845 0.416453 -8.03834 574.923 445.19
0.893344 0.197842 -7.06285 582.048 445.34
2.48273 -0.225477 -6.02808 588.852 444.643
-11.6955 -10.4671 -1.21865 530.701 400.85
-10.1621 -11.7427 -1.07688 537.551 395.974
-8.10367 -11.9036 -0.929551 546.352 395.935
-6.4257 -10.9592 -0.631345 553.238 400.548
-8.08102 -10.0102 -1.02077 545.971 403.857
-9.98616 -9.77313 -1.11472 537.799 404.292
5.45691 -11.9977 -0.873489 604.153 399.158
7.03955 -13.1182 -0.806157 611.178 394.9
9.11102 -13.12 -0.730001 619.999 395.489
10.7993 -12.0371 -0.730039 626.916 400.497
9.15055 -11.2024 -0.876883 619.688 403.482
7.21874 -11.1846 -1.03894 611.464 402.942
-4.62513 10.65 -2.83079 555.543 490.631
-3.33614 8.85633 -5.00995 561.657 482.015
-1.75475 7.17253 -6.69613 568.952 474.255
0.30391 7.15092 -8.30773 577.85 473.671
2.42472 6.74774 -6.56018 586.859 473.658
4.37955 8.05218 -4.89328 594.731 480.742
6.17699 9.48388 -2.89055 601.873 488.536
4.89756 10.9958 -4.14277 596.128 493.761
3.18273 12.061 -5.46602 588.648 496.943
1.0667 12.5848 -6.72674 579.591 497.779
-1.14913 12.6116 -5.53757 570.054 498.071
-3.12335 11.9626 -4.30101 561.716 495.611
-1.07801 9.45109 -4.97605 571.124 485.138
0.541851 8.99621 -7.2258 578.311 482.203
2.34368 8.99461 -5.12692 585.832 484.023
2.34844 9.38367 -4.58432 585.712 486.012
0.67581 9.76611 -6.34287 578.619 486.049
-0.95199 9.81439 -4.55262 571.537 486.975
3 20 21 23
3 21 22 23
3 0 1 36
3 15 16 45
3 0 17 36
3 16 26 45
3 17 18 37
3 25 26 44
3 17 36 37
3 26 44 45
3 18 19 38
3 24 25 43
3 18 37 38
3 25 43 44
3 19 20 38
3 23 24 43
3 20 21 39
3 22 23 42
3 20 38 39
3 23 42 43
3 21 22 27
3 21 27 39
3 22 27 42
3 27 28 42
3 27 28 39
3 28 42 47
3 28 39 40
3 1 36 41
3 15 45 46
3 1 2 41
3 14 15 46
3 28 29 40
3 28 29 47
3 2 40 41
3 14 46 47
3 2 29 40
3 14 29 47
3 2 3 29
3 13 14 29
3 29 30 31
3 29 30 35
3 3 29 31
3 13 29 35
3 30 32 33
3 30 33 34
3 30 31 32
3 30 34 35
3 3 4 31
3 12 13 35
3 4 5 48
3 11 12 54
3 5 6 48
3 10 11 54
3 6 48 59
3 10 54 55
3 6 7 59
3 9 10 55
3 7 58 59
3 9 55 56
3 8 57 58
3 8 56 57
3 7 8 58
3 8 9 56
3 4 31 48
3 12 35 54
3 31 48 49
3 35 53 54
3 31 49 50
3 35 52 53
3 31 32 50
3 34 35 52
3 32 33 50
3 33 34 52
3 33 50 51
3 33 51 52
3 48 49 60
3 49 60 50
3 50 60 61
3 50 51 61
3 51 52 61
3 61 62 52
3 52 53 62
3 53 54 62
3 54 55 63
3 55 56 63
3 56 63 64
3 56 57 64
3 64 65 57
3 57 58 65
3 58 59 65
3 48 59 65
