ply
format ascii 1.0
element vertex 66
property float x
property float y
property float z
property float u
property float v
element face 91
property list uchar int vertex_indices
end_header
-20.0759 -5.68884 20.9391 497.627 429.818
-19.6918 -0.619406 20.4992 497.847 450.521
-18.8857 4.40089 20.2302 499.833 471.237
-17.5359 9.24646 18.1864 504.14 490.336
-15.3121 13.7359 13.5157 512.196 506.659
-11.9743 17.5885 7.92251 525.063 520.119
-7.7467 20.6037 3.23695 541.85 530.909
-2.85249 22.5908 -0.748978 561.682 538.062
2.50463 22.6959 -4.34716 583.947 537.824
7.19078 21.5923 -0.907846 603.699 536.577
11.1433 19.0559 3.32767 620.785 529.705
14.5198 15.8744 8.1531 635.648 520.37
16.9046 11.9675 13.8808 646.581 508.313
18.1291 7.35769 18.6479 652.889 492.485
18.6885 2.32875 20.8613 656.566 473.248
18.932 -2.86743 21.2509 658.989 452.163
18.9333 -8.05354 21.7245 660.403 431.103
-15.9742 -15.2008 0.262079 517.421 379.611
-14.0863 -16.9189 -1.45328 525.748 372.042
-11.641 -17.7329 -2.94911 536.145 368.473
-9.07013 -17.8887 -4.32237 546.884 367.719
-6.56669 -17.5042 -5.61255 557.194 369.218
3.43031 -18.2103 -5.30034 598.936 369.201
6.3304 -19.1931 -4.03958 611.247 366.685
9.37343 -19.5266 -2.63949 623.976 366.96
12.3619 -18.84 -1.20625 636.199 371.438
14.7212 -16.9375 0.444514 645.475 380.876
-1.62711 -11.7371 -5.08512 576.151 394.595
-1.52078 -8.89978 -7.66954 575.841 404.775
-1.38339 -6.09632 -10.4794 575.67 414.693
-1.19815 -3.31712 -13.3125 575.705 424.509
-4.12557 0.861989 -6.30159 562.347 445.042
-2.53231 1.13845 -7.2148 568.9 446.073
-0.888238 1.12461 -8.12389 575.745 445.925
1.01214 0.807622 -7.26363 583.723 445.642
2.81005 0.221612 -6.33138 591.348 444.266
-11.9855 -9.74411 -1.08726 532.525 402.347
-10.3226 -11.1727 -1.14527 539.826 396.885
-8.0824 -11.2859 -1.14628 549.168 397.024
-6.23355 -10.2213 -0.795944 556.56 402.112
-8.05617 -9.30828 -1.07374 548.738 405.211
-10.1023 -9.05186 -1.14484 540.164 405.671
5.27178 -11.3476 -0.975172 604.689 400.484
7.03112 -12.6987 -1.04826 612.37 395.358
9.30925 -12.759 -0.802121 621.853 395.871
11.2127 -11.6122 -0.560153 629.45 401.247
9.36948 -10.7263 -0.867585 621.55 404.212
7.25668 -10.6486 -1.03671 612.749 403.861
-5.98518 9.78001 -2.72233 552.163 483.341
-4.14574 8.19243 -4.9154 560.257 476.015
-2.05883 6.8786 -6.64532 569.302 470.155
0.331462 6.87342 -8.25459 579.25 469.832
2.80703 6.3604 -6.58061 589.667 469.377
5.28507 7.19071 -4.86167 599.728 474.476
7.73285 8.2342 -2.80205 609.602 480.645
5.92602 9.99855 -4.10668 601.622 486.647
3.64505 11.1832 -5.43601 591.829 490.121
1.06093 11.7486 -6.64153 580.943 491.039
-1.57211 11.8603 -5.43863 569.96 491.495
-4.05086 11.2328 -4.17922 559.818 488.984
-1.88818 8.96686 -5.04023 569.43 479.738
0.552516 8.63208 -7.36495 579.684 477.652
3.18026 8.3171 -5.37124 590.676 478.241
3.26029 8.70128 -4.72569 590.9 480.224
0.643047 9.14181 -6.47935 579.915 480.295
-1.88369 9.32366 -4.52509 569.348 481.511
3 20 21 23
3 21 22 23
3 0 1 36
3 15 16 45
3 0 17 36
3 16 26 45
3 17 18 37
3 25 26 44
3 17 36 37
3 26 44 45
3 18 19 38
3 24 25 43
3 18 37 38
3 25 43 44
3 19 20 38
3 23 24 43
3 20 21 39
3 22 23 42
3 20 38 39
3 23 42 43
3 21 22 27
3 21 27 39
3 22 27 42
3 27 28 42
3 27 28 39
3 28 42 47
3 28 39 40
3 1 36 41
3 15 45 46
3 1 2 41
3 14 15 46
3 28 29 40
3 28 29 47
3 2 40 41
3 14 46 47
3 2 29 40
3 14 29 47
3 2 3 29
3 13 14 29
3 29 30 31
3 29 30 35
3 3 29 31
3 13 29 35
3 30 32 33
3 30 33 34
3 30 31 32
3 30 34 35
3 3 4 31
3 12 13 35
3 4 5 48
3 11 12 54
3 5 6 48
3 10 11 54
3 6 48 59
3 10 54 55
3 6 7 59
3 9 10 55
3 7 58 59
3 9 55 56
3 8 57 58
3 8 56 57
3 7 8 58
3 8 9 56
3 4 31 48
3 12 35 54
3 31 48 49
3 35 53 54
3 31 49 50
3 35 52 53
3 31 32 50
3 34 35 52
3 32 33 50
3 33 34 52
3 33 50 51
3 33 51 52
3 48 49 60
3 49 60 50
3 50 60 61
3 50 51 61
3 51 52 61
3 61 62 52
3 52 53 62
3 53 54 62
3 54 55 63
3 55 56 63
3 56 63 64
3 56 57 64
3 64 65 57
3 57 58 65
3 58 59 65
3 48 59 65
