ply
format ascii 1.0
element vertex 66
property float x
property float y
property float z
property float u
property float v
element face 91
property list uchar int vertex_indices
end_header
-19.9581 -5.66819 20.9005 496.362 431.73
-19.6037 -0.574337 20.4748 496.453 452.759
-18.8403 4.47498 20.208 498.268 473.812
-17.5265 9.31113 18.1762 502.51 493.088
-15.3362 13.7325 13.5142 510.631 509.329
-12.0207 17.5116 7.96503 523.683 522.689
-7.80046 20.4574 3.23528 540.741 533.32
-2.92091 22.4182 -0.753523 560.818 540.477
2.44255 22.4844 -4.33655 583.439 540.129
7.15709 21.4368 -0.916486 603.425 539.108
11.112 18.9279 3.32686 620.599 532.284
14.5082 15.8139 8.19495 635.574 523.158
16.8979 11.9773 13.8848 646.496 511.232
18.1171 7.42755 18.6291 652.729 495.456
18.6613 2.39746 20.8505 656.339 476.003
18.8707 -2.84019 21.2415 658.657 454.512
18.8466 -8.06611 21.6852 659.99 433.036
-15.8918 -15.23 0.255093 516.736 380.9
-13.9798 -16.9017 -1.44722 525.283 373.475
-11.5486 -17.6659 -2.94883 535.753 370.088
-9.01681 -17.8099 -4.3369 546.47 369.374
-6.55887 -17.4324 -5.63737 556.73 370.86
3.30825 -18.079 -5.33625 598.344 371.099
6.18052 -19.0799 -4.05616 610.645 368.494
9.20655 -19.4449 -2.63492 623.412 368.659
12.2065 -18.8314 -1.19323 635.798 372.898
14.6262 -16.9974 0.418376 645.402 382.151
-1.64519 -11.8701 -5.11771 575.812 395.667
-1.53989 -8.9957 -7.66786 575.537 406.143
-1.40352 -6.15919 -10.4612 575.412 416.325
-1.2177 -3.34519 -13.2847 575.501 426.41
-3.95289 0.719062 -6.23488 562.666 446.715
-2.45213 0.920756 -7.18234 568.943 447.412
-0.912097 0.869899 -8.11395 575.455 447.079
0.897434 0.603268 -7.22856 583.102 446.998
2.62301 0.101082 -6.27031 590.459 445.957
-11.9083 -9.94111 -1.10729 532.045 403.199
-10.218 -11.4061 -1.1168 539.55 397.572
-7.93806 -11.4998 -1.09919 549.152 397.828
-6.09341 -10.3439 -0.745767 556.569 403.358
-7.94333 -9.4391 -1.06197 548.558 406.418
-10.0165 -9.1938 -1.14856 539.785 406.809
5.18262 -11.4597 -0.936809 604.245 401.747
6.92468 -12.8989 -1.0038 611.963 396.209
9.23896 -12.9766 -0.765468 621.698 396.671
11.1758 -11.802 -0.565158 629.501 402.214
9.33146 -10.8626 -0.86639 621.504 405.428
7.19318 -10.7694 -1.0266 612.502 405.125
-5.85225 9.94135 -2.76046 552.025 486.589
-4.03757 8.34204 -4.9292 560.158 479.163
-2.0004 6.97766 -6.6577 569.146 473.035
0.350269 6.94511 -8.29035 579.08 472.59
2.79481 6.46819 -6.57513 589.426 472.302
5.23424 7.35842 -4.8599 599.372 477.697
7.66588 8.41215 -2.83855 609.23 483.951
5.93163 10.2307 -4.17363 601.484 490.241
3.69503 11.4868 -5.47174 591.782 494.075
1.09369 12.0671 -6.65458 580.732 495.063
-1.55391 12.166 -5.4852 569.548 495.428
-3.99371 11.4645 -4.23813 559.456 492.568
-1.86912 9.06271 -5.02719 569.069 482.706
0.565936 8.65421 -7.36592 579.483 480.304
3.20309 8.41246 -5.3625 590.564 481.217
3.2949 8.9762 -4.71855 590.774 483.968
0.67424 9.43432 -6.43474 579.693 484.128
-1.85688 9.59962 -4.51413 568.956 485.245
3 20 21 23
3 21 22 23
3 0 1 36
3 15 16 45
3 0 17 36
3 16 26 45
3 17 18 37
3 25 26 44
3 17 36 37
3 26 44 45
3 18 19 38
3 24 25 43
3 18 37 38
3 25 43 44
3 19 20 38
3 23 24 43
3 20 21 39
3 22 23 42
3 20 38 39
3 23 42 43
3 21 22 27
3 21 27 39
3 22 27 42
3 27 28 42
3 27 28 39
3 28 42 47
3 28 39 40
3 1 36 41
3 15 45 46
3 1 2 41
3 14 15 46
3 28 29 40
3 28 29 47
3 2 40 41
3 14 46 47
3 2 29 40
3 14 29 47
3 2 3 29
3 13 14 29
3 29 30 31
3 29 30 35
3 3 29 31
3 13 29 35
3 30 32 33
3 30 33 34
3 30 31 32
3 30 34 35
3 3 4 31
3 12 13 35
3 4 5 48
3 11 12 54
3 5 6 48
3 10 11 54
3 6 48 59
3 10 54 55
3 6 7 59
3 9 10 55
3 7 58 59
3 9 55 56
3 8 57 58
3 8 56 57
3 7 8 58
3 8 9 56
3 4 31 48
3 12 35 54
3 31 48 49
3 35 53 54
3 31 49 50
3 35 52 53
3 31 32 50
3 34 35 52
3 32 33 50
3 33 34 52
3 33 50 51
3 33 51 52
3 48 49 60
3 49 60 50
3 50 60 61
3 50 51 61
3 51 52 61
3 61 62 52
3 52 53 62
3 53 54 62
3 54 55 63
3 55 56 63
3 56 63 64
3 56 57 64
3 64 65 57
3 57 58 65
3 58 59 65
3 48 59 65
