ply
format ascii 1.0
element vertex 66
property float x
property float y
property float z
property float u
property float v
element face 91
property list uchar int vertex_indices
end_header
-20.0894 -5.26609 20.7197 489.584 429.793
-19.6662 -0.287174 20.3153 489.321 449.873
-18.8123 4.63028 20.0264 490.847 469.9
-17.3228 9.42078 18.0585 494.608 489.041
-14.9448 13.9418 13.3168 501.431 506.42
-11.6101 17.9235 7.82689 512.153 521.697
-7.49361 21.1441 3.19539 526.515 534.493
-2.69634 23.3327 -0.790709 544.163 543.602
2.60017 23.57 -4.40468 564.649 545.155
7.17812 22.147 -0.886974 584.476 542.312
10.9107 19.2515 3.356 601.609 533.491
14.1054 15.7967 8.15246 616.905 522.42
16.4293 11.6935 13.779 629.118 508.723
17.7863 6.97798 18.5892 637.471 491.918
18.5182 1.92548 20.7262 642.82 472.574
18.844 -3.23934 21.1275 646.178 452.011
18.91 -8.4098 21.5674 648.499 431.346
-15.518 -15.2177 0.239855 507.17 383.967
-13.662 -16.9444 -1.51395 514.923 377.04
-11.2031 -17.7379 -2.96237 524.827 374.2
-8.60765 -17.8363 -4.33685 535.037 374.238
-6.08421 -17.3509 -5.61433 544.757 376.638
3.39427 -18.1714 -5.33202 583.418 376.815
6.29227 -19.2853 -4.09126 595.827 373.803
9.34814 -19.7029 -2.65407 608.654 373.726
12.3446 -19.0311 -1.23905 620.824 378.011
14.6628 -17.1012 0.401183 629.831 387.207
-1.62927 -11.5004 -5.07109 560.665 402.011
-1.57593 -8.71201 -7.62842 559.247 412.356
-1.48605 -5.94965 -10.3636 557.947 422.546
-1.34925 -3.21626 -13.0921 556.849 432.638
-3.81435 0.272315 -6.04739 547.169 448.346
-2.48822 0.491886 -7.0399 552.218 449.349
-1.11609 0.488236 -8.06501 557.53 449.457
0.537868 0.208096 -7.10573 564.534 449.262
2.11083 -0.266223 -6.05141 571.306 448.289
-11.5972 -9.98888 -1.2823 520.688 405.903
-10.0588 -11.3084 -1.16873 527.426 401.173
-7.96437 -11.4999 -0.989984 535.999 401.213
-6.22021 -10.6606 -0.605127 542.815 405.357
-7.89692 -9.70056 -0.976819 535.595 408.496
-9.82054 -9.41431 -1.11446 527.685 408.914
5.58739 -11.9326 -0.862578 590.933 404.352
7.28036 -13.0492 -0.868248 598.192 400.453
9.43385 -12.9974 -0.787718 606.889 401.459
11.1921 -11.9209 -0.7601 613.591 406.437
9.42965 -11.1785 -0.856497 606.169 408.767
7.43384 -11.1458 -1.00408 598.062 408.133
-4.71477 10.2201 -2.79428 540.51 489.297
-3.50259 8.4626 -4.97622 545.576 481.862
-1.90268 6.91201 -6.60374 552.256 475.599
0.173487 6.93285 -8.16201 560.282 475.866
2.35086 6.42299 -6.56997 569.63 475.158
4.38496 7.55792 -4.93375 577.789 481.046
6.24135 8.85057 -2.87942 585.264 487.656
4.81425 10.3532 -4.15603 578.643 492.748
3.04953 11.4519 -5.4725 570.801 496.076
0.918975 12.0842 -6.73197 561.671 497.413
-1.26871 12.095 -5.46672 553.116 497.129
-3.24076 11.4992 -4.23869 545.654 494.462
-1.24149 9.00091 -4.90889 554.522 484.864
0.38541 8.63261 -7.19463 560.715 483.141
2.22538 8.45319 -5.26211 568.653 483.767
2.21235 8.94267 -4.64756 568.554 485.956
0.486319 9.47307 -6.36183 560.993 486.864
-1.16945 9.46257 -4.46988 554.738 486.908
3 20 21 23
3 21 22 23
3 0 1 36
3 15 16 45
3 0 17 36
3 16 26 45
3 17 18 37
3 25 26 44
3 17 36 37
3 26 44 45
3 18 19 38
3 24 25 43
3 18 37 38
3 25 43 44
3 19 20 38
3 23 24 43
3 20 21 39
3 22 23 42
3 20 38 39
3 23 42 43
3 21 22 27
3 21 27 39
3 22 27 42
3 27 28 42
3 27 28 39
3 28 42 47
3 28 39 40
3 1 36 41
3 15 45 46
3 1 2 41
3 14 15 46
3 28 29 40
3 28 29 47
3 2 40 41
3 14 46 47
3 2 29 40
3 14 29 47
3 2 3 29
3 13 14 29
3 29 30 31
3 29 30 35
3 3 29 31
3 13 29 35
3 30 32 33
3 30 33 34
3 30 31 32
3 30 34 35
3 3 4 31
3 12 13 35
3 4 5 48
3 11 12 54
3 5 6 48
3 10 11 54
3 6 48 59
3 10 54 55
3 6 7 59
3 9 10 55
3 7 58 59
3 9 55 56
3 8 57 58
3 8 56 57
3 7 8 58
3 8 9 56
3 4 31 48
3 12 35 54
3 31 48 49
3 35 53 54
3 31 49 50
3 35 52 53
3 31 32 50
3 34 35 52
3 32 33 50
3 33 34 52
3 33 50 51
3 33 51 52
3 48 49 60
3 49 60 50
3 50 60 61
3 50 51 61
3 51 52 61
3 61 62 52
3 52 53 62
3 53 54 62
3 54 55 63
3 55 56 63
3 56 63 64
3 56 57 64
3 64 65 57
3 57 58 65
3 58 59 65
3 48 59 65
