ply
format ascii 1.0
element vertex 66
property float x
property float y
property float z
property float u
property float v
element face 91
property list uchar int vertex_indices
end_header
-20.1608 -5.49067 21.0251 490.497 425.589
-19.5215 -0.219519 20.603 491.681 447.12
-18.5244 4.99014 20.146 494.344 468.478
-17.1136 9.99279 18.2188 498.603 488.573
-15.0016 14.5061 13.3697 505.559 505.811
-11.7822 18.3201 7.9398 517.174 520.27
-7.68941 21.344 3.24434 532.651 531.984
-2.91759 23.3532 -0.858502 551.239 539.94
2.3769 23.4002 -4.48439 572.534 540.187
7.09969 22.0408 -0.820212 592.618 537.138
10.8372 19.0198 3.4926 609.171 527.286
13.9608 15.4735 8.29549 623.4 515.308
16.2491 11.4373 13.7655 634.405 501.355
17.6139 6.93526 18.5019 641.675 485.005
18.3892 2.04249 20.5695 646.356 465.962
18.8002 -3.03834 20.997 649.423 445.477
18.9266 -8.1351 21.3859 651.326 424.841
-15.9851 -15.1574 0.191646 507.98 379.785
-13.8401 -16.9629 -1.56135 517.059 372.335
-11.1843 -17.8172 -3.00251 528.012 369.01
-8.41464 -17.9701 -4.34552 539.256 368.612
-5.71283 -17.4773 -5.54725 550.068 370.882
3.27363 -18.014 -5.39992 587.031 371.024
6.06793 -18.9962 -4.18476 598.861 368.155
9.03239 -19.3055 -2.75796 611.233 368.151
11.9736 -18.73 -1.30652 623.279 371.763
14.426 -17.0058 0.353619 633.042 380.014
-1.28067 -12.1124 -4.99279 566.864 394.105
-1.24371 -8.95424 -7.66913 565.904 406.056
-1.1838 -5.83089 -10.5 565.031 417.816
-1.08539 -2.72129 -13.2491 564.328 429.559
-2.56758 0.626247 -6.07558 558.122 445.397
-1.66681 0.584213 -7.08183 561.717 445.096
-0.767773 0.493029 -8.10701 565.317 444.588
0.307033 0.432882 -7.08334 569.842 444.979
1.37784 0.330077 -6.01252 574.366 445.211
-11.7707 -10.5391 -1.119 523.887 399.242
-10.0643 -11.9128 -1.11055 531.239 394.07
-7.82401 -12.0955 -1.05109 540.469 393.914
-6.00355 -10.9965 -0.675121 547.675 398.996
-7.8547 -10.1754 -0.983909 539.845 401.768
-9.90141 -9.94396 -1.06388 531.392 402.165
5.28618 -12.0089 -0.9934 594.149 397.615
6.9761 -13.2748 -0.951365 601.409 392.89
9.2151 -13.2745 -0.767708 610.599 393.525
11.0618 -12.1021 -0.644578 617.866 398.824
9.25413 -11.3549 -0.852334 610.244 401.341
7.1983 -11.3306 -1.04977 601.796 400.849
-5.25044 9.99935 -2.82625 545 484.134
-3.59617 8.47706 -5.08839 551.942 477.536
-1.82478 7.05032 -6.72737 559.402 471.579
0.280866 7.04183 -8.28461 567.867 471.525
2.44627 6.63603 -6.55828 577.023 471.031
4.53147 7.67388 -4.92209 585.46 476.379
6.60488 8.80574 -2.83405 593.871 482.267
5.15051 10.414 -4.13111 587.355 488.003
3.26903 11.5863 -5.31298 579.217 491.891
0.983507 12.1561 -6.59547 569.572 493.181
-1.4078 12.1451 -5.42456 559.903 492.946
-3.57201 11.415 -4.30837 551.347 489.813
-1.46387 9.06732 -5.07083 560.521 480.493
0.500607 8.69794 -7.27964 568.435 478.699
2.62626 8.58918 -5.1769 577.389 479.541
2.68936 9.00457 -4.47711 577.61 481.502
0.617059 9.38447 -6.26807 568.836 481.89
-1.42113 9.48177 -4.51079 560.645 482.395
3 20 21 23
3 21 22 23
3 0 1 36
3 15 16 45
3 0 17 36
3 16 26 45
3 17 18 37
3 25 26 44
3 17 36 37
3 26 44 45
3 18 19 38
3 24 25 43
3 18 37 38
3 25 43 44
3 19 20 38
3 23 24 43
3 20 21 39
3 22 23 42
3 20 38 39
3 23 42 43
3 21 22 27
3 21 27 39
3 22 27 42
3 27 28 42
3 27 28 39
3 28 42 47
3 28 39 40
3 1 36 41
3 15 45 46
3 1 2 41
3 14 15 46
3 28 29 40
3 28 29 47
3 2 40 41
3 14 46 47
3 2 29 40
3 14 29 47
3 2 3 29
3 13 14 29
3 29 30 31
3 29 30 35
3 3 29 31
3 13 29 35
3 30 32 33
3 30 33 34
3 30 31 32
3 30 34 35
3 3 4 31
3 12 13 35
3 4 5 48
3 11 12 54
3 5 6 48
3 10 11 54
3 6 48 59
3 10 54 55
3 6 7 59
3 9 10 55
3 7 58 59
3 9 55 56
3 8 57 58
3 8 56 57
3 7 8 58
3 8 9 56
3 4 31 48
3 12 35 54
3 31 48 49
3 35 53 54
3 31 49 50
3 35 52 53
3 31 32 50
3 34 35 52
3 32 33 50
3 33 34 52
3 33 50 51
3 33 51 52
3 48 49 60
3 49 60 50
3 50 60 61
3 50 51 61
3 51 52 61
3 61 62 52
3 52 53 62
3 53 54 62
3 54 55 63
3 55 56 63
3 56 63 64
3 56 57 64
3 64 65 57
3 57 58 65
3 58 59 65
3 48 59 65
