ply
format ascii 1.0
element vertex 66
property float x
property float y
property float z
property float u
property float v
element face 91
property list uchar int vertex_indices
end_header
-19.974 -6.01948 21.2911 491.017 430.542
-19.4016 -0.599727 20.5797 492.838 453.042
-18.496 4.79653 20.1776 496.003 475.643
-17.305 9.87984 18.3956 500.705 496.325
-15.4473 14.2686 13.6478 508.937 512.801
-12.4089 17.9134 7.94678 522.452 525.895
-8.38909 20.8202 3.10815 540.027 536.455
-3.63965 22.778 -0.928837 560.642 543.528
1.71215 22.8263 -4.44741 583.95 542.927
6.90134 22.0133 -0.857464 605.198 542.036
11.1391 19.3695 3.29191 622.565 533.574
14.5465 15.9544 8.13564 636.389 522.07
16.9416 12.0164 13.8374 645.835 508.614
18.1862 7.53362 18.528 650.714 492.212
18.7179 2.46271 20.4172 653.255 471.907
18.9392 -2.89747 20.8151 654.84 449.637
18.8422 -8.23213 21.4349 655.031 427.527
-16.161 -15.431 0.248674 512.81 381.741
-14.09 -17.1676 -1.38615 522.127 374.013
-11.5858 -17.9775 -2.81207 533.102 370.343
-9.00638 -18.1059 -4.16081 544.284 369.581
-6.50878 -17.6914 -5.42156 555.027 371.125
3.25727 -18.032 -5.28852 596.243 371.319
5.84211 -18.8702 -3.99769 606.991 368.822
8.5974 -19.1432 -2.63149 618.364 368.761
11.375 -18.6414 -1.21691 629.715 371.977
13.7879 -17.0733 0.386904 639.342 379.699
-1.01965 -11.6577 -4.95181 577.257 397.543
-0.858215 -8.78276 -7.78446 578.139 408.299
-0.694044 -5.93648 -10.6791 579.05 418.905
-0.506833 -3.07944 -13.3959 580.018 429.644
-3.48087 1.88635 -6.64148 565.374 453.19
-1.79276 2.34289 -7.3793 572.587 455.028
0.00281281 2.39726 -7.98981 580.283 455.256
1.84743 2.07079 -7.26966 587.957 454.52
3.50697 1.34502 -6.58745 594.914 452.061
-12.0757 -10.5759 -0.81887 529.602 402.264
-10.4119 -11.8483 -1.01312 536.836 397.099
-8.29503 -11.9023 -1.21353 545.815 397.116
-6.58864 -10.6616 -1.01382 552.802 402.689
-8.37108 -9.93723 -1.15474 545.213 405.378
-10.3233 -9.83241 -1.09498 536.951 405.534
5.13302 -11.4432 -1.047 602.362 401.266
6.6577 -12.8505 -1.14797 609.008 395.557
8.73807 -13.0212 -0.806536 617.735 395.334
10.5432 -11.9979 -0.465244 625.138 400.077
8.9066 -11.0702 -0.875889 618.194 403.515
6.9693 -10.9309 -1.04087 610.037 403.712
-6.36853 8.65396 -2.61456 551.42 483.027
-3.94025 7.65059 -4.91775 562.284 478.119
-1.62202 6.92329 -6.7771 572.554 474.561
0.639991 6.93459 -8.52039 582.46 474.148
2.92168 6.5763 -6.52515 591.715 473.949
5.37562 6.90845 -4.68663 601.635 476.602
8.01973 7.48465 -2.48573 612.248 480.479
6.36725 9.69701 -3.89639 605.27 488.834
3.98963 11.2072 -5.17178 595.302 494.191
1.13349 11.6861 -6.5507 583.477 495.094
-1.76845 11.6878 -5.3686 570.987 495.195
-4.38266 10.6031 -4.06123 559.834 490.841
-1.81689 8.69426 -5.20154 571.158 482.704
0.804705 8.48596 -7.47951 582.724 481.175
3.49075 8.24701 -5.145 593.597 481.702
3.75741 8.82967 -4.4609 594.498 484.512
0.891631 9.16897 -6.31894 582.753 484.602
-1.94757 9.29646 -4.53981 570.385 485.522
3 20 21 23
3 21 22 23
3 0 1 36
3 15 16 45
3 0 17 36
3 16 26 45
3 17 18 37
3 25 26 44
3 17 36 37
3 26 44 45
3 18 19 38
3 24 25 43
3 18 37 38
3 25 43 44
3 19 20 38
3 23 24 43
3 20 21 39
3 22 23 42
3 20 38 39
3 23 42 43
3 21 22 27
3 21 27 39
3 22 27 42
3 27 28 42
3 27 28 39
3 28 42 47
3 28 39 40
3 1 36 41
3 15 45 46
3 1 2 41
3 14 15 46
3 28 29 40
3 28 29 47
3 2 40 41
3 14 46 47
3 2 29 40
3 14 29 47
3 2 3 29
3 13 14 29
3 29 30 31
3 29 30 35
3 3 29 31
3 13 29 35
3 30 32 33
3 30 33 34
3 30 31 32
3 30 34 35
3 3 4 31
3 12 13 35
3 4 5 48
3 11 12 54
3 5 6 48
3 10 11 54
3 6 48 59
3 10 54 55
3 6 7 59
3 9 10 55
3 7 58 59
3 9 55 56
3 8 57 58
3 8 56 57
3 7 8 58
3 8 9 56
3 4 31 48
3 12 35 54
3 31 48 49
3 35 53 54
3 31 49 50
3 35 52 53
3 31 32 50
3 34 35 52
3 32 33 50
3 33 34 52
3 33 50 51
3 33 51 52
3 48 49 60
3 49 60 50
3 50 60 61
3 50 51 61
3 51 52 61
3 61 62 52
3 52 53 62
3 53 54 62
3 54 55 63
3 55 56 63
3 56 63 64
3 56 57 64
3 64 65 57
3 57 58 65
3 58 59 65
3 48 59 65
