ply
format ascii 1.0
element vertex 66
property float x
property float y
property float z
property float u
property float v
element face 91
property list uchar int vertex_indices
end_header
-19.2043 -6.02278 20.7813 493.481 433.293
-18.8183 -0.832033 20.3321 493.943 455.316
-18.015 4.30598 20.0058 496.208 477.309
-16.7327 9.25905 18.1299 500.829 497.574
-14.7641 13.8611 13.5733 508.915 514.677
-11.781 17.9039 7.94381 521.7 528.919
-7.82774 21.1426 3.16114 538.762 540.559
-3.12582 23.3631 -0.767731 559.192 548.625
2.16689 23.5707 -4.34211 582.626 548.474
6.94686 22.3887 -0.850012 603.117 547.089
10.7517 19.4829 3.31461 619.703 538.525
13.8947 15.9731 8.16319 633.466 527.667
16.1107 11.8915 13.8349 643.227 514.678
17.38 7.2811 18.4341 649.174 498.434
18.0294 2.29318 20.5073 652.907 478.672
18.2886 -2.87428 20.9163 655.244 456.894
18.2391 -8.04449 21.2826 656.249 434.992
-15.2546 -15.5771 0.141446 516.069 379.252
-13.5108 -17.1259 -1.46509 524.253 371.982
-11.268 -17.8337 -2.92015 534.371 368.55
-8.92697 -17.9498 -4.34374 544.764 367.701
-6.63443 -17.6255 -5.70055 554.828 368.77
3.38826 -18.2251 -5.43215 598.391 369.067
5.98991 -19.0888 -4.08799 609.682 366.988
8.72005 -19.4233 -2.63802 621.384 367.282
11.4301 -18.8828 -1.22291 632.787 371.293
13.5998 -17.2227 0.331536 641.551 380.051
-1.48743 -11.9576 -5.15941 575.665 394.79
-1.44322 -9.67481 -7.62292 575.665 402.885
-1.37339 -7.42109 -10.2772 575.812 410.731
-1.25816 -5.19027 -13.0052 576.172 418.441
-3.65078 0.173108 -6.04406 563.428 445.552
-2.21826 0.309097 -7.02425 569.753 445.844
-0.752857 0.24343 -8.01673 576.272 445.272
0.919647 0.0213417 -7.02366 583.429 445.451
2.50942 -0.396249 -6.11636 590.288 444.711
-11.5235 -10.4672 -1.24621 531.195 401.178
-10.1072 -11.7569 -1.09268 537.631 396.139
-8.1317 -11.9187 -0.934646 546.212 396.084
-6.52775 -11.0225 -0.694001 552.909 400.515
-8.0699 -9.98853 -1.07909 546.026 404.266
-9.89864 -9.73452 -1.13032 538.042 404.83
5.31959 -12.1039 -0.839271 604.565 398.953
6.81951 -13.2185 -0.86883 611.347 394.56
8.81329 -13.2345 -0.772074 619.981 395.091
10.4356 -12.1926 -0.70992 626.748 400.029
8.88766 -11.2814 -0.830461 619.831 403.435
7.01316 -11.2557 -0.98754 611.721 402.936
-4.34816 10.9341 -2.81172 557.264 493.669
-3.16374 8.97003 -4.99945 563.213 484.071
-1.62175 7.10219 -6.72563 570.619 475.299
0.498979 7.00526 -8.31846 580.078 474.356
2.71138 6.63192 -6.54902 589.496 474.565
4.68631 8.07488 -4.85336 597.448 482.437
6.45428 9.61604 -2.80407 604.425 490.918
5.13915 11.0979 -4.13837 598.558 495.995
3.42269 12.1743 -5.44594 591.047 499.248
1.27251 12.7167 -6.72381 581.783 500.117
-0.916411 12.7582 -5.53497 572.104 500.527
-2.85512 12.17 -4.23166 563.647 498.385
-1.02776 9.41088 -4.89076 572.349 486.605
0.743383 8.85055 -7.10539 580.5 483.157
2.71882 8.88337 -5.09892 588.755 485.205
2.72319 9.57339 -4.60379 588.529 488.501
0.893363 10.0351 -6.27355 580.733 488.842
-0.87384 10.0747 -4.49927 572.794 489.758
3 20 21 23
3 21 22 23
3 0 1 36
3 15 16 45
3 0 17 36
3 16 26 45
3 17 18 37
3 25 26 44
3 17 36 37
3 26 44 45
3 18 19 38
3 24 25 43
3 18 37 38
3 25 43 44
3 19 20 38
3 23 24 43
3 20 21 39
3 22 23 42
3 20 38 39
3 23 42 43
3 21 22 27
3 21 27 39
3 22 27 42
3 27 28 42
3 27 28 39
3 28 42 47
3 28 39 40
3 1 36 41
3 15 45 46
3 1 2 41
3 14 15 46
3 28 29 40
3 28 29 47
3 2 40 41
3 14 46 47
3 2 29 40
3 14 29 47
3 2 3 29
3 13 14 29
3 29 30 31
3 29 30 35
3 3 29 31
3 13 29 35
3 30 32 33
3 30 33 34
3 30 31 32
3 30 34 35
3 3 4 31
3 12 13 35
3 4 5 48
3 11 12 54
3 5 6 48
3 10 11 54
3 6 48 59
3 10 54 55
3 6 7 59
3 9 10 55
3 7 58 59
3 9 55 56
3 8 57 58
3 8 56 57
3 7 8 58
3 8 9 56
3 4 31 48
3 12 35 54
3 31 48 49
3 35 53 54
3 31 49 50
3 35 52 53
3 31 32 50
3 34 35 52
3 32 33 50
3 33 34 52
3 33 50 51
3 33 51 52
3 48 49 60
3 49 60 50
3 50 60 61
3 50 51 61
3 51 52 61
3 61 62 52
3 52 53 62
3 53 54 62
3 54 55 63
3 55 56 63
3 56 63 64
3 56 57 64
3 64 65 57
3 57 58 65
3 58 59 65
3 48 59 65
