ply
format ascii 1.0
element vertex 66
property float x
property float y
property float z
property float u
property float v
element face 91
property list uchar int vertex_indices
end_header
-20.1252 -5.26594 20.805 490.9 427.161
-19.616 -0.200315 20.326 491.267 447.833
-18.7093 4.81091 20.0242 493.319 468.458
-17.2419 9.67461 18.0692 497.308 488.099
-14.9036 14.1923 13.2715 504.276 505.642
-11.5389 18.1017 7.82809 515.474 520.791
-7.38741 21.2376 3.18256 530.326 533.28
-2.57365 23.335 -0.866407 548.356 541.922
2.72629 23.4501 -4.35956 569.134 542.799
7.241 21.9916 -0.924194 588.879 539.318
10.8619 19.0229 3.39308 605.662 529.699
13.9629 15.5612 8.19595 620.593 518.075
16.2644 11.5402 13.7389 632.613 504.177
17.6497 6.97262 18.5235 640.877 487.526
18.3993 2.06573 20.6505 646.004 468.421
18.7751 -2.97604 20.9961 649.214 448.064
18.9117 -8.02008 21.4914 651.484 427.677
-15.6371 -15.3366 0.213309 507.425 380.549
-13.6058 -16.9428 -1.51394 515.815 374.019
-11.0738 -17.6436 -2.95933 526.034 371.427
-8.44621 -17.7119 -4.33636 536.46 371.468
-5.89141 -17.2057 -5.5975 546.437 373.871
3.38018 -17.9206 -5.34505 584.617 373.776
6.22908 -18.9886 -4.1121 596.897 370.666
9.23363 -19.3995 -2.66487 609.658 370.356
12.2055 -18.8352 -1.2481 621.97 374.007
14.6008 -17.0766 0.381469 631.6 382.434
-1.55876 -11.3548 -5.05713 562.43 399.216
-1.53254 -8.33781 -7.67046 560.951 410.674
-1.47243 -5.35054 -10.4559 559.579 421.963
-1.36357 -2.38614 -13.1476 558.436 433.205
-3.91342 0.484025 -6.09204 548.821 446.508
-2.54394 0.789448 -7.08728 554.08 447.829
-1.10754 0.826695 -8.08702 559.697 448.074
0.584478 0.515784 -7.13926 566.94 447.619
2.16956 -0.033788 -6.06399 573.853 446.2
-11.6273 -10.5456 -1.24875 521.947 400.808
-10.0843 -11.7253 -1.09924 528.662 396.497
-8.08438 -11.9001 -0.905984 536.938 396.438
-6.4106 -11.085 -0.556888 543.607 400.376
-8.07626 -10.3527 -0.896242 536.486 402.761
-9.9169 -10.1179 -1.07531 528.845 403.116
5.76258 -12.321 -0.903713 593.666 398.811
7.3822 -13.3441 -0.797991 600.633 395.148
9.41853 -13.2841 -0.706375 608.96 396.025
11.124 -12.3095 -0.69492 615.625 400.511
9.41315 -11.7511 -0.825107 608.425 402.242
7.52629 -11.7168 -0.968639 600.668 401.777
-4.9912 10.0983 -2.81475 542.178 486.525
-3.63963 8.43891 -5.01638 547.691 479.42
-1.92955 7.02893 -6.6211 554.736 473.637
0.175142 7.06548 -8.20097 562.943 473.884
2.36739 6.54003 -6.52517 572.476 472.942
4.48097 7.50934 -4.92218 581.197 478.055
6.43825 8.7113 -2.89832 589.309 484.211
4.99858 10.3009 -4.10284 582.631 489.876
3.16808 11.4411 -5.32863 574.492 493.583
0.975592 12.0679 -6.60062 565.025 495.073
-1.31613 12.0992 -5.37067 555.947 494.931
-3.41233 11.4702 -4.24995 547.85 492.116
-1.28925 9.07084 -5.00019 557.102 482.699
0.41165 8.72728 -7.28204 563.609 481.043
2.32613 8.51675 -5.29153 571.983 481.409
2.3314 8.91597 -4.6097 572.044 483.266
0.531668 9.41849 -6.34506 564.109 484.21
-1.20184 9.4464 -4.50324 557.462 484.423
3 20 21 23
3 21 22 23
3 0 1 36
3 15 16 45
3 0 17 36
3 16 26 45
3 17 18 37
3 25 26 44
3 17 36 37
3 26 44 45
3 18 19 38
3 24 25 43
3 18 37 38
3 25 43 44
3 19 20 38
3 23 24 43
3 20 21 39
3 22 23 42
3 20 38 39
3 23 42 43
3 21 22 27
3 21 27 39
3 22 27 42
3 27 28 42
3 27 28 39
3 28 42 47
3 28 39 40
3 1 36 41
3 15 45 46
3 1 2 41
3 14 15 46
3 28 29 40
3 28 29 47
3 2 40 41
3 14 46 47
3 2 29 40
3 14 29 47
3 2 3 29
3 13 14 29
3 29 30 31
3 29 30 35
3 3 29 31
3 13 29 35
3 30 32 33
3 30 33 34
3 30 31 32
3 30 34 35
3 3 4 31
3 12 13 35
3 4 5 48
3 11 12 54
3 5 6 48
3 10 11 54
3 6 48 59
3 10 54 55
3 6 7 59
3 9 10 55
3 7 58 59
3 9 55 56
3 8 57 58
3 8 56 57
3 7 8 58
3 8 9 56
3 4 31 48
3 12 35 54
3 31 48 49
3 35 53 54
3 31 49 50
3 35 52 53
3 31 32 50
3 34 35 52
3 32 33 50
3 33 34 52
3 33 50 51
3 33 51 52
3 48 49 60
3 49 60 50
3 50 60 61
3 50 51 61
3 51 52 61
3 61 62 52
3 52 53 62
3 53 54 62
3 54 55 63
3 55 56 63
3 56 63 64
3 56 57 64
3 64 65 57
3 57 58 65
3 58 59 65
3 48 59 65
