ply
format ascii 1.0
element vertex 66
property float x
property float y
property float z
property float u
property float v
element face 91
property list uchar int vertex_indices
end_header
-19.9561 -6.16771 21.0395 494.184 431.341
-19.488 -0.793161 20.5995 495.108 453.382
-18.6478 4.53191 20.2114 497.591 475.326
-17.3869 9.61788 18.2269 501.985 495.419
-15.4188 14.2282 13.4269 509.613 512.018
-12.2246 18.1543 7.90942 522.542 525.614
-8.01363 21.215 3.20296 539.831 536.325
-3.07641 23.2171 -0.821874 560.315 543.216
2.38832 23.2789 -4.51855 583.362 542.393
7.29243 22.1968 -0.869777 603.801 541.094
11.3489 19.5128 3.35836 620.979 533.347
14.6958 16.1255 8.15474 635.296 522.887
16.9654 12.0769 13.7445 645.194 509.945
18.0448 7.43761 18.5514 650.292 493.854
18.5457 2.33575 20.6642 653.247 474.132
18.7583 -2.99116 21.0976 655.155 452.423
18.7237 -8.31171 21.5357 656.03 430.693
-15.9717 -15.3325 0.222665 514.016 381.917
-13.9785 -17.0818 -1.52875 522.798 374.056
-11.5064 -17.8793 -2.97803 533.372 370.406
-8.94232 -17.9944 -4.32938 544.188 369.652
-6.46395 -17.5149 -5.56809 554.521 371.404
3.37754 -18.0503 -5.31047 595.69 371.359
6.11321 -19.028 -4.08666 607.22 368.606
9.01755 -19.3462 -2.71406 619.314 368.701
11.9052 -18.7247 -1.31629 631.151 372.691
14.2864 -16.9097 0.390687 640.619 381.692
-1.39065 -11.4284 -5.05687 574.464 397.894
-1.28454 -8.57528 -7.7528 574.526 408.103
-1.15808 -5.74849 -10.5226 574.682 418.162
-0.990646 -2.92716 -13.1687 575.002 428.281
-2.7382 0.820328 -6.1199 566.496 447.597
-1.7076 0.812835 -7.09762 570.865 447.196
-0.675219 0.719745 -8.07108 575.258 446.444
0.558311 0.604173 -7.07966 580.364 446.808
1.76556 0.40457 -6.09463 585.376 446.816
-11.8822 -10.2522 -1.12511 530.176 402.944
-10.2824 -11.5915 -1.14783 537.119 397.724
-8.15994 -11.7227 -1.12331 546.003 397.631
-6.46613 -10.6074 -0.788887 552.831 402.784
-8.18536 -9.71867 -1.09013 545.499 405.926
-10.1333 -9.53265 -1.1124 537.333 406.283
5.33377 -11.6017 -0.96131 602.293 400.988
6.91106 -12.9174 -1.0347 609.141 395.831
9.04425 -12.9538 -0.840301 618.04 396.233
10.8269 -11.8556 -0.643146 625.251 401.252
9.14255 -10.9791 -0.859065 618.062 404.401
7.16692 -10.8904 -1.05247 609.811 404.248
-5.07691 9.76334 -2.8012 554.749 486.042
-3.48503 8.07194 -5.10109 561.881 478.012
-1.71788 6.59324 -6.77372 569.661 471.27
0.392848 6.53431 -8.33262 578.588 470.532
2.57702 6.16854 -6.61207 587.662 470.49
4.70613 7.24326 -4.96527 596.227 476.345
6.81572 8.50167 -2.82055 604.641 483.251
5.36467 10.2036 -4.05516 598.332 489.252
3.43295 11.3928 -5.33285 590.119 493.011
1.117 11.9141 -6.66759 580.439 493.898
-1.27339 11.9574 -5.42877 570.369 494.324
-3.4275 11.2224 -4.19793 561.44 491.577
-1.29473 8.78285 -5.00044 570.877 481.457
0.6175 8.37452 -7.18163 579.086 478.865
2.70502 8.28567 -5.16874 587.682 480.122
2.7947 8.77954 -4.51127 587.915 482.571
0.733285 9.0922 -6.15523 579.359 482.464
-1.2599 9.25625 -4.44566 570.892 483.75
3 20 21 23
3 21 22 23
3 0 1 36
3 15 16 45
3 0 17 36
3 16 26 45
3 17 18 37
3 25 26 44
3 17 36 37
3 26 44 45
3 18 19 38
3 24 25 43
3 18 37 38
3 25 43 44
3 19 20 38
3 23 24 43
3 20 21 39
3 22 23 42
3 20 38 39
3 23 42 43
3 21 22 27
3 21 27 39
3 22 27 42
3 27 28 42
3 27 28 39
3 28 42 47
3 28 39 40
3 1 36 41
3 15 45 46
3 1 2 41
3 14 15 46
3 28 29 40
3 28 29 47
3 2 40 41
3 14 46 47
3 2 29 40
3 14 29 47
3 2 3 29
3 13 14 29
3 29 30 31
3 29 30 35
3 3 29 31
3 13 29 35
3 30 32 33
3 30 33 34
3 30 31 32
3 30 34 35
3 3 4 31
3 12 13 35
3 4 5 48
3 11 12 54
3 5 6 48
3 10 11 54
3 6 48 59
3 10 54 55
3 6 7 59
3 9 10 55
3 7 58 59
3 9 55 56
3 8 57 58
3 8 56 57
3 7 8 58
3 8 9 56
3 4 31 48
3 12 35 54
3 31 48 49
3 35 53 54
3 31 49 50
3 35 52 53
3 31 32 50
3 34 35 52
3 32 33 50
3 33 34 52
3 33 50 51
3 33 51 52
3 48 49 60
3 49 60 50
3 50 60 61
3 50 51 61
3 51 52 61
3 61 62 52
3 52 53 62
3 53 54 62
3 54 55 63
3 55 56 63
3 56 63 64
3 56 57 64
3 64 65 57
3 57 58 65
3 58 59 65
3 48 59 65
