ply
format ascii 1.0
element vertex 66
property float x
property float y
property float z
property float u
property float v
element face 91
property list uchar int vertex_indices
end_header
-19.9034 -5.74034 20.9585 494.772 431.155
-19.4962 -0.540606 20.4878 495.181 452.612
-18.695 4.61857 20.2051 497.245 474.115
-17.3797 9.55548 18.1927 501.624 493.795
-15.2244 14.0265 13.5033 509.799 510.159
-11.9224 17.79 7.93979 523.024 523.357
-7.70737 20.7026 3.2025 540.257 533.747
-2.83869 22.6136 -0.785303 560.451 540.587
2.50635 22.6014 -4.3375 583.115 539.811
7.17907 21.4376 -0.880246 602.858 538.251
11.0105 18.7479 3.35143 619.413 530.586
14.2775 15.5159 8.21542 633.699 520.895
16.6184 11.6651 13.8669 644.207 508.858
17.9084 7.20736 18.5327 650.509 493.434
18.5123 2.31764 20.7211 654.175 474.555
18.7432 -2.77805 21.0418 656.43 453.608
18.7181 -7.86112 21.5099 657.597 432.735
-15.8357 -15.3124 0.214644 515.465 380.016
-13.9061 -16.9594 -1.45728 524.088 372.67
-11.4791 -17.7287 -2.94322 534.567 369.216
-8.95212 -17.8751 -4.33109 545.301 368.437
-6.48531 -17.5033 -5.62595 555.645 369.855
3.59583 -18.1101 -5.36961 598.154 370.113
6.31756 -19.0076 -4.08095 609.75 367.858
9.17987 -19.3195 -2.64345 621.78 368.165
12.0183 -18.7473 -1.19511 633.482 372.15
14.3302 -17.0422 0.397918 642.674 380.797
-1.47438 -11.8356 -5.09449 575.227 395.058
-1.42344 -9.00809 -7.66348 574.861 405.301
-1.34433 -6.2171 -10.4536 574.635 415.267
-1.21831 -3.44662 -13.2486 574.612 425.158
-3.93867 0.610919 -6.21083 561.752 445.528
-2.42159 0.833525 -7.16308 568.123 446.281
-0.858115 0.80223 -8.10416 574.754 445.997
0.924494 0.547046 -7.18381 582.26 445.95
2.61785 0.054765 -6.1892 589.448 444.937
-11.8146 -10.2488 -1.13494 531.145 401.325
-10.1798 -11.526 -1.0793 538.339 396.471
-8.05033 -11.6512 -1.01191 547.317 396.546
-6.29005 -10.6711 -0.700478 554.447 401.268
-8.05564 -9.85757 -1.0196 546.836 404.002
-10.0189 -9.63144 -1.12621 538.534 404.367
5.42076 -11.7496 -0.964532 603.954 399.678
7.08702 -12.9366 -0.910326 611.257 395.207
9.23085 -12.9676 -0.71697 620.264 395.753
11.0389 -11.9219 -0.592435 627.588 400.649
9.28693 -11.1477 -0.863683 620.043 403.251
7.28742 -11.0947 -1.03008 611.635 402.851
-5.68466 10.0431 -2.78679 551.814 486.355
-3.92373 8.46491 -4.96344 559.738 478.95
-1.95452 7.08433 -6.6754 568.462 472.699
0.329835 7.0723 -8.30023 578.156 472.275
2.6858 6.60394 -6.53724 588.079 471.993
5.01863 7.5283 -4.84372 597.553 477.457
7.31706 8.62887 -2.85113 606.821 483.824
5.72902 10.4442 -4.138 599.754 490.194
3.61325 11.7018 -5.41804 590.612 494.111
1.10525 12.2753 -6.64726 579.993 495.109
-1.49197 12.3469 -5.4794 568.995 495.426
-3.87468 11.604 -4.26645 559.104 492.438
-1.70562 9.22476 -5.05828 568.871 482.633
0.568313 8.83487 -7.36089 578.655 480.23
3.02866 8.63259 -5.28466 588.932 481.269
3.11571 9.09355 -4.64568 589.145 483.591
0.695056 9.53798 -6.42157 578.956 483.749
-1.66269 9.66769 -4.55181 568.911 484.789
3 20 21 23
3 21 22 23
3 0 1 36
3 15 16 45
3 0 17 36
3 16 26 45
3 17 18 37
3 25 26 44
3 17 36 37
3 26 44 45
3 18 19 38
3 24 25 43
3 18 37 38
3 25 43 44
3 19 20 38
3 23 24 43
3 20 21 39
3 22 23 42
3 20 38 39
3 23 42 43
3 21 22 27
3 21 27 39
3 22 27 42
3 27 28 42
3 27 28 39
3 28 42 47
3 28 39 40
3 1 36 41
3 15 45 46
3 1 2 41
3 14 15 46
3 28 29 40
3 28 29 47
3 2 40 41
3 14 46 47
3 2 29 40
3 14 29 47
3 2 3 29
3 13 14 29
3 29 30 31
3 29 30 35
3 3 29 31
3 13 29 35
3 30 32 33
3 30 33 34
3 30 31 32
3 30 34 35
3 3 4 31
3 12 13 35
3 4 5 48
3 11 12 54
3 5 6 48
3 10 11 54
3 6 48 59
3 10 54 55
3 6 7 59
3 9 10 55
3 7 58 59
3 9 55 56
3 8 57 58
3 8 56 57
3 7 8 58
3 8 9 56
3 4 31 48
3 12 35 54
3 31 48 49
3 35 53 54
3 31 49 50
3 35 52 53
3 31 32 50
3 34 35 52
3 32 33 50
3 33 34 52
3 33 50 51
3 33 51 52
3 48 49 60
3 49 60 50
3 50 60 61
3 50 51 61
3 51 52 61
3 61 62 52
3 52 53 62
3 53 54 62
3 54 55 63
3 55 56 63
3 56 63 64
3 56 57 64
3 64 65 57
3 57 58 65
3 58 59 65
3 48 59 65
