ply
format ascii 1.0
element vertex 66
property float x
property float y
property float z
property float u
property float v
element face 91
property list uchar int vertex_indices
end_header
-20.02 -5.66434 20.9138 497.474 429.685
-19.6618 -0.61431 20.4699 497.603 450.326
-18.8871 4.39063 20.2142 499.472 471.004
-17.5654 9.222 18.1686 503.701 490.068
-15.3665 13.7094 13.5152 511.727 506.425
-12.046 17.5686 7.92389 524.61 519.95
-7.82067 20.58 3.23231 541.47 530.755
-2.92731 22.5671 -0.746676 561.373 537.94
2.42777 22.6834 -4.3448 583.697 537.767
7.13838 21.6107 -0.913781 603.518 536.638
11.129 19.104 3.31849 620.716 529.876
14.553 15.9464 8.14514 635.721 520.626
16.9677 12.0381 13.8723 646.712 508.538
18.1854 7.40176 18.6507 652.939 492.569
18.7255 2.33413 20.8747 656.517 473.142
18.9462 -2.90345 21.2733 658.85 451.86
18.931 -8.13023 21.7394 660.197 430.597
-15.8993 -15.1724 0.262738 517.628 379.539
-14.0309 -16.8704 -1.45769 525.898 372.045
-11.6154 -17.6786 -2.9516 536.199 368.497
-9.07506 -17.845 -4.32202 546.842 367.699
-6.60057 -17.48 -5.6115 557.066 369.12
3.41218 -18.2248 -5.29266 598.923 368.959
6.31199 -19.2095 -4.03633 611.231 366.427
9.35436 -19.5435 -2.64124 623.951 366.696
12.3424 -18.8549 -1.20947 636.168 371.183
14.7043 -16.9543 0.445534 645.445 380.624
-1.65167 -11.7048 -5.10266 576.079 394.553
-1.53547 -8.86758 -7.6738 575.844 404.767
-1.38793 -6.06446 -10.4769 575.755 414.712
-1.19314 -3.28554 -13.3031 575.869 424.557
-4.14833 0.844254 -6.28739 562.306 444.876
-2.54454 1.11718 -7.20685 568.924 445.898
-0.8902 1.09988 -8.11882 575.831 445.742
1.02376 0.778178 -7.26245 583.865 445.438
2.83633 0.186682 -6.3447 591.548 444.032
-11.9055 -9.72825 -1.10032 532.795 402.253
-10.2631 -11.1529 -1.15067 540.017 396.801
-8.04475 -11.2627 -1.14321 549.276 396.957
-6.21467 -10.2034 -0.789081 556.596 402.025
-8.01557 -9.29482 -1.07374 548.862 405.112
-10.0399 -9.03985 -1.15157 540.371 405.566
5.22617 -11.3534 -0.942154 604.515 400.308
6.96596 -12.7164 -1.05035 612.127 395.102
9.22697 -12.7865 -0.813584 621.549 395.567
11.1232 -11.6558 -0.575615 629.127 400.88
9.29802 -10.7616 -0.86655 621.295 403.897
7.20098 -10.6728 -1.01703 612.549 403.604
-6.0071 9.7976 -2.72821 552.067 483.339
-4.16539 8.18595 -4.9119 560.213 475.921
-2.06407 6.8576 -6.63904 569.353 470.008
0.348641 6.84154 -8.24953 579.429 469.654
2.8482 6.32811 -6.58539 589.935 469.194
5.34718 7.16365 -4.86614 600.07 474.322
7.80823 8.21609 -2.79656 609.982 480.539
5.97887 9.98836 -4.11193 601.916 486.572
3.67733 11.1819 -5.43674 592.043 490.087
1.06743 11.7495 -6.63561 581.054 491.013
-1.57855 11.8683 -5.43092 569.987 491.489
-4.06745 11.2476 -4.16682 559.774 488.996
-1.91644 8.93878 -5.02993 569.369 479.564
0.564722 8.58314 -7.35669 579.837 477.411
3.2318 8.27467 -5.3802 590.977 478.023
3.31064 8.73355 -4.7339 591.167 480.313
0.65342 9.18665 -6.46896 580.024 480.441
-1.91245 9.37118 -4.51313 569.257 481.649
3 20 21 23
3 21 22 23
3 0 1 36
3 15 16 45
3 0 17 36
3 16 26 45
3 17 18 37
3 25 26 44
3 17 36 37
3 26 44 45
3 18 19 38
3 24 25 43
3 18 37 38
3 25 43 44
3 19 20 38
3 23 24 43
3 20 21 39
3 22 23 42
3 20 38 39
3 23 42 43
3 21 22 27
3 21 27 39
3 22 27 42
3 27 28 42
3 27 28 39
3 28 42 47
3 28 39 40
3 1 36 41
3 15 45 46
3 1 2 41
3 14 15 46
3 28 29 40
3 28 29 47
3 2 40 41
3 14 46 47
3 2 29 40
3 14 29 47
3 2 3 29
3 13 14 29
3 29 30 31
3 29 30 35
3 3 29 31
3 13 29 35
3 30 32 33
3 30 33 34
3 30 31 32
3 30 34 35
3 3 4 31
3 12 13 35
3 4 5 48
3 11 12 54
3 5 6 48
3 10 11 54
3 6 48 59
3 10 54 55
3 6 7 59
3 9 10 55
3 7 58 59
3 9 55 56
3 8 57 58
3 8 56 57
3 7 8 58
3 8 9 56
3 4 31 48
3 12 35 54
3 31 48 49
3 35 53 54
3 31 49 50
3 35 52 53
3 31 32 50
3 34 35 52
3 32 33 50
3 33 34 52
3 33 50 51
3 33 51 52
3 48 49 60
3 49 60 50
3 50 60 61
3 50 51 61
3 51 52 61
3 61 62 52
3 52 53 62
3 53 54 62
3 54 55 63
3 55 56 63
3 56 63 64
3 56 57 64
3 64 65 57
3 57 58 65
3 58 59 65
3 48 59 65
