ply
format ascii 1.0
element vertex 66
property float x
property float y
property float z
property float u
property float v
element face 91
property list uchar int vertex_indices
end_header
-19.1455 -5.92857 20.6387 494.67 432.224
-18.7425 -0.796572 20.1895 494.779 453.957
-17.9506 4.288 19.8645 496.571 475.691
-16.6381 9.24797 18.0815 500.726 496.173
-14.6658 13.9569 13.4237 507.964 514.044
-11.7364 18.1741 7.86919 519.531 529.584
-7.85761 21.5971 3.16125 535.396 542.565
-3.23847 24.0232 -0.764385 554.726 552.017
1.99886 24.4278 -4.42248 577.353 553.217
6.82126 23.1491 -0.803845 598.329 551.552
10.6583 20.0862 3.32504 615.607 542.27
13.8293 16.3819 8.07162 630.189 530.415
16.0861 12.0815 13.6448 640.98 516.226
17.3886 7.27614 18.4105 647.869 499.079
18.0666 2.16334 20.3587 652.326 478.696
18.2999 -3.05848 20.7914 654.987 456.778
18.2344 -8.28531 21.1461 656.367 434.693
-15.0627 -15.6051 0.189451 516.508 379.816
-13.3948 -17.2584 -1.54677 524.319 372.252
-11.1732 -18.0872 -2.9555 534.232 368.584
-8.79793 -18.2442 -4.32332 544.587 367.855
-6.46359 -17.8737 -5.58942 554.591 369.423
3.33791 -18.6066 -5.32313 597.019 369.661
5.95287 -19.5033 -4.08641 608.5 367.448
8.69552 -19.7839 -2.70567 620.323 367.991
11.3666 -19.0977 -1.32913 631.528 372.629
13.4351 -17.3135 0.393527 639.765 381.963
-1.43122 -11.9271 -5.13487 574.322 396.692
-1.32949 -9.3653 -7.66396 574.077 406.1
-1.20511 -6.8191 -10.2803 573.939 415.396
-1.04509 -4.29292 -12.8644 573.96 424.638
-3.21694 -0.00163514 -5.8978 562.837 446.477
-1.94648 0.11546 -6.92056 568.327 446.766
-0.640672 0.0692857 -7.97041 574.024 446.355
0.836428 -0.146741 -6.91633 580.395 446.56
2.23177 -0.521481 -6.00376 586.474 445.976
-10.7185 -10.5659 -1.41964 533.683 401.732
-9.56042 -11.7128 -1.17889 539.026 397.368
-7.88433 -11.9234 -0.885841 546.295 397.197
-6.49811 -11.2323 -0.556735 552.024 400.796
-7.76197 -10.1939 -1.01343 546.272 404.531
-9.3137 -9.95442 -1.12965 539.52 404.974
5.06465 -12.3073 -0.599576 602.164 399.963
6.36716 -13.2269 -0.829652 608.082 396.328
8.07869 -13.1967 -0.915687 615.447 396.963
9.4446 -12.2803 -0.97071 621.037 401.281
8.10748 -11.4812 -0.847154 615.015 404.326
6.50316 -11.461 -0.875497 608.102 403.871
-3.7862 10.9201 -2.82166 556.699 494.727
-2.83596 8.93631 -5.05732 561.554 485.215
-1.47696 7.01782 -6.69651 568.115 476.479
0.535643 6.95433 -8.242 576.889 475.922
2.6234 6.56705 -6.55726 585.91 475.982
4.39974 8.09165 -4.93656 592.978 484.051
5.89044 9.69492 -2.76189 598.76 492.7
4.70717 11.0386 -4.09828 593.307 497.225
3.19513 12.0587 -5.38493 586.539 500.294
1.22904 12.6205 -6.73572 577.967 501.221
-0.755283 12.5881 -5.46258 569.361 501.213
-2.45925 12.0219 -4.17671 562.134 499.029
-0.420912 9.25851 -4.82594 571.837 487.518
0.754695 8.72388 -6.95483 577.191 484.323
2.10468 8.84048 -5.015 582.858 486.445
2.07358 9.60471 -4.53566 582.452 489.986
0.88965 10.0776 -6.13612 577.291 490.637
-0.24958 9.9997 -4.43545 572.315 490.972
3 20 21 23
3 21 22 23
3 0 1 36
3 15 16 45
3 0 17 36
3 16 26 45
3 17 18 37
3 25 26 44
3 17 36 37
3 26 44 45
3 18 19 38
3 24 25 43
3 18 37 38
3 25 43 44
3 19 20 38
3 23 24 43
3 20 21 39
3 22 23 42
3 20 38 39
3 23 42 43
3 21 22 27
3 21 27 39
3 22 27 42
3 27 28 42
3 27 28 39
3 28 42 47
3 28 39 40
3 1 36 41
3 15 45 46
3 1 2 41
3 14 15 46
3 28 29 40
3 28 29 47
3 2 40 41
3 14 46 47
3 2 29 40
3 14 29 47
3 2 3 29
3 13 14 29
3 29 30 31
3 29 30 35
3 3 29 31
3 13 29 35
3 30 32 33
3 30 33 34
3 30 31 32
3 30 34 35
3 3 4 31
3 12 13 35
3 4 5 48
3 11 12 54
3 5 6 48
3 10 11 54
3 6 48 59
3 10 54 55
3 6 7 59
3 9 10 55
3 7 58 59
3 9 55 56
3 8 57 58
3 8 56 57
3 7 8 58
3 8 9 56
3 4 31 48
3 12 35 54
3 31 48 49
3 35 53 54
3 31 49 50
3 35 52 53
3 31 32 50
3 34 35 52
3 32 33 50
3 33 34 52
3 33 50 51
3 33 51 52
3 48 49 60
3 49 60 50
3 50 60 61
3 50 51 61
3 51 52 61
3 61 62 52
3 52 53 62
3 53 54 62
3 54 55 63
3 55 56 63
3 56 63 64
3 56 57 64
3 64 65 57
3 57 58 65
3 58 59 65
3 48 59 65
