ply
format ascii 1.0
element vertex 66
property float x
property float y
property float z
property float u
property float v
element face 91
property list uchar int vertex_indices
end_header
-19.3864 -6.01639 21.7129 483.575 424.997
-18.5184 -0.455588 21.0631 485.79 449.016
-17.5027 5.09792 20.4464 488.63 473.062
-16.4233 10.4344 18.5029 492.284 495.856
-14.8727 15.1026 13.7503 499.17 515.216
-12.1073 18.7899 8.07824 511.904 530.532
-8.37336 21.61 3.03857 528.842 542.608
-4.05972 23.6096 -1.08237 548.196 551.587
0.836805 23.8705 -4.71449 570.423 553.417
6.05468 22.6847 -0.798786 591.792 551.073
10.1328 19.34 3.27007 608.891 539.11
13.367 15.3163 8.2345 622.262 524.176
15.8232 10.9493 13.7498 632.205 507.647
17.4179 6.4018 18.0572 638.938 489.745
18.1499 1.6815 20.0761 642.838 470.225
18.3437 -3.17792 20.4173 645.07 449.496
18.0995 -8.0406 20.8361 645.395 428.626
-16.506 -14.565 0.151624 506.297 383.697
-14.229 -16.8371 -1.50512 517.371 374.271
-11.2523 -18.0731 -2.84905 531.011 369.612
-8.05915 -18.2951 -4.12236 545.238 369.4
-4.89329 -17.7787 -5.27624 559.075 372.383
2.89302 -17.7875 -5.58255 592.602 374.875
5.16573 -18.5229 -4.21625 602.099 372.826
7.63672 -18.7332 -2.79863 612.264 373.113
10.1447 -18.5117 -1.25889 622.41 375.3
12.4831 -17.4687 0.326518 631.554 380.971
0.228107 -12.0284 -4.85117 579.101 398.917
0.354294 -9.08941 -7.71012 579.741 410.855
0.452195 -6.17989 -10.6858 580.311 422.627
0.520899 -3.26961 -13.5377 580.711 434.424
-2.68073 0.713744 -6.56915 563.24 452.257
-0.850083 1.11326 -7.28403 571.226 454.403
1.06673 1.20084 -7.94922 579.662 455.25
2.64752 0.998234 -7.12521 586.216 455.121
4.113 0.470043 -6.38905 592.408 453.53
-11.867 -10.7381 -0.627082 525.284 401.495
-10.0661 -11.9279 -0.951745 533.502 396.902
-7.87432 -12.0835 -1.30382 543.082 396.877
-6.02347 -10.9043 -1.04315 550.563 402.631
-7.9628 -10.366 -1.04459 542.072 404.294
-9.98782 -10.2571 -0.962999 533.318 404.105
4.68493 -11.2956 -1.04523 596.643 404.534
6.22848 -12.5044 -1.20222 603.701 399.817
8.29519 -12.7615 -0.871817 612.534 399.489
10.0792 -11.7207 -0.590246 619.764 404.631
8.40756 -10.9818 -0.927101 612.478 407.16
6.50474 -10.9434 -0.993993 604.324 406.671
-8.20294 8.39105 -2.64101 535.737 484.405
-5.41209 6.90942 -4.86193 548.969 478.403
-2.42297 5.82997 -6.59032 562.751 474.322
0.697538 5.76204 -8.33302 576.786 474.628
3.65652 5.58525 -6.27445 588.806 475.387
6.45975 6.38367 -4.51901 599.961 480.207
8.90368 7.7893 -2.37159 609.244 487.617
7.29107 10.7333 -3.99653 601.98 499.31
4.5702 12.8386 -5.0889 590.033 507.166
1.01806 13.4613 -6.60285 575.134 508.264
-2.69173 13.0708 -5.34218 558.886 505.667
-5.83526 11.1869 -4.14534 545.558 496.826
-3.31421 7.73266 -5.3434 557.886 482.52
0.799272 7.42653 -7.68619 576.47 481.981
4.73049 7.44915 -4.76243 592.293 484.144
5.17522 10.0846 -4.19173 593.173 495.764
1.05661 10.8352 -6.42945 576.06 497.037
-3.31016 10.461 -4.6611 556.806 494.42
3 20 21 23
3 21 22 23
3 0 1 36
3 15 16 45
3 0 17 36
3 16 26 45
3 17 18 37
3 25 26 44
3 17 36 37
3 26 44 45
3 18 19 38
3 24 25 43
3 18 37 38
3 25 43 44
3 19 20 38
3 23 24 43
3 20 21 39
3 22 23 42
3 20 38 39
3 23 42 43
3 21 22 27
3 21 27 39
3 22 27 42
3 27 28 42
3 27 28 39
3 28 42 47
3 28 39 40
3 1 36 41
3 15 45 46
3 1 2 41
3 14 15 46
3 28 29 40
3 28 29 47
3 2 40 41
3 14 46 47
3 2 29 40
3 14 29 47
3 2 3 29
3 13 14 29
3 29 30 31
3 29 30 35
3 3 29 31
3 13 29 35
3 30 32 33
3 30 33 34
3 30 31 32
3 30 34 35
3 3 4 31
3 12 13 35
3 4 5 48
3 11 12 54
3 5 6 48
3 10 11 54
3 6 48 59
3 10 54 55
3 6 7 59
3 9 10 55
3 7 58 59
3 9 55 56
3 8 57 58
3 8 56 57
3 7 8 58
3 8 9 56
3 4 31 48
3 12 35 54
3 31 48 49
3 35 53 54
3 31 49 50
3 35 52 53
3 31 32 50
3 34 35 52
3 32 33 50
3 33 34 52
3 33 50 51
3 33 51 52
3 48 49 60
3 49 60 50
3 50 60 61
3 50 51 61
3 51 52 61
3 61 62 52
3 52 53 62
3 53 54 62
3 54 55 63
3 55 56 63
3 56 63 64
3 56 57 64
3 64 65 57
3 57 58 65
3 58 59 65
3 48 59 65
