ply
format ascii 1.0
element vertex 66
property float x
property float y
property float z
property float u
property float v
element face 91
property list uchar int vertex_indices
end_header
-20.0607 -5.24616 20.7575 490.401 427.523
-19.5263 -0.247244 20.2616 490.642 447.883
-18.5812 4.69286 19.9819 492.631 468.22
-17.0886 9.48714 18.0291 496.491 487.567
-14.7556 13.976 13.3405 503.214 505.006
-11.465 17.9232 7.84341 513.837 520.286
-7.39944 21.1477 3.18677 528.089 533.18
-2.65794 23.3677 -0.861436 545.612 542.428
2.61721 23.581 -4.33585 566.181 543.89
7.18184 22.1999 -0.922107 586.133 541.015
10.8654 19.2811 3.36677 603.269 531.885
13.9896 15.8091 8.16253 618.45 520.488
16.2791 11.753 13.7611 630.639 506.707
17.6188 7.12167 18.5266 638.959 489.97
18.3435 2.13824 20.617 644.24 470.658
18.7348 -2.97862 20.9854 647.785 450.09
18.882 -8.09843 21.5155 650.375 429.482
-15.5257 -15.3773 0.162156 507.484 380.658
-13.5025 -16.8752 -1.48723 515.869 374.677
-11.0298 -17.5117 -2.94454 525.82 372.423
-8.48025 -17.5671 -4.35361 535.886 372.578
-6.00253 -17.0945 -5.6497 545.495 374.897
3.41675 -17.9126 -5.36028 584.261 374.886
6.23787 -18.9342 -4.11427 596.44 372.125
9.1968 -19.3303 -2.66605 609.004 372.028
12.1229 -18.7713 -1.25332 621.078 375.795
14.4953 -17.0616 0.344366 630.522 384.122
-1.58264 -11.4536 -5.04375 561.613 399.583
-1.50692 -8.57211 -7.64617 560.232 410.433
-1.39967 -5.71909 -10.4175 558.949 421.119
-1.24908 -2.88794 -13.1193 557.867 431.755
-3.88478 0.47579 -6.08155 547.638 446.999
-2.47775 0.815568 -7.08421 553.003 448.514
-0.99643 0.865814 -8.07128 558.779 448.881
0.724309 0.523714 -7.12908 566.151 448.404
2.32313 -0.0785181 -6.07956 573.147 446.864
-11.7442 -10.4982 -1.2206 520.786 401.331
-10.2937 -11.5412 -1.05965 527.117 397.637
-8.44481 -11.7536 -0.882968 534.775 397.465
-6.84679 -11.1748 -0.684189 541.128 400.437
-8.3947 -10.4486 -0.95848 534.487 402.769
-10.1239 -10.1892 -1.08198 527.313 403.191
5.89137 -12.4433 -0.906295 593.462 399.548
7.46786 -13.2678 -0.774886 600.22 396.776
9.37235 -13.1775 -0.712029 607.967 397.816
10.9962 -12.3565 -0.722948 614.285 401.709
9.35876 -11.8966 -0.827571 607.417 402.986
7.56614 -11.8769 -0.963339 600.069 402.406
-4.91297 10.144 -2.82551 540.738 487.14
-3.57128 8.4781 -4.96534 546.285 480.072
-1.86893 7.05523 -6.58557 553.341 474.297
0.237195 7.07941 -8.19952 561.519 474.553
2.42579 6.56746 -6.52988 571.04 473.798
4.53078 7.55413 -4.90725 579.663 479.099
6.47593 8.75477 -2.88101 587.656 485.357
5.00929 10.3229 -4.08814 580.81 490.819
3.16847 11.435 -5.31864 572.598 494.29
0.979561 12.0466 -6.56933 563.144 495.596
-1.28011 12.0715 -5.3404 554.227 495.353
-3.34062 11.464 -4.21394 546.326 492.568
-1.20416 9.09334 -4.98512 555.706 483.379
0.455671 8.75604 -7.28784 562.026 481.771
2.30884 8.55509 -5.28506 570.148 482.283
2.29937 8.93044 -4.62947 570.135 484.036
0.554936 9.4342 -6.32313 562.423 484.901
-1.12383 9.44014 -4.49131 556.029 484.99
3 20 21 23
3 21 22 23
3 0 1 36
3 15 16 45
3 0 17 36
3 16 26 45
3 17 18 37
3 25 26 44
3 17 36 37
3 26 44 45
3 18 19 38
3 24 25 43
3 18 37 38
3 25 43 44
3 19 20 38
3 23 24 43
3 20 21 39
3 22 23 42
3 20 38 39
3 23 42 43
3 21 22 27
3 21 27 39
3 22 27 42
3 27 28 42
3 27 28 39
3 28 42 47
3 28 39 40
3 1 36 41
3 15 45 46
3 1 2 41
3 14 15 46
3 28 29 40
3 28 29 47
3 2 40 41
3 14 46 47
3 2 29 40
3 14 29 47
3 2 3 29
3 13 14 29
3 29 30 31
3 29 30 35
3 3 29 31
3 13 29 35
3 30 32 33
3 30 33 34
3 30 31 32
3 30 34 35
3 3 4 31
3 12 13 35
3 4 5 48
3 11 12 54
3 5 6 48
3 10 11 54
3 6 48 59
3 10 54 55
3 6 7 59
3 9 10 55
3 7 58 59
3 9 55 56
3 8 57 58
3 8 56 57
3 7 8 58
3 8 9 56
3 4 31 48
3 12 35 54
3 31 48 49
3 35 53 54
3 31 49 50
3 35 52 53
3 31 32 50
3 34 35 52
3 32 33 50
3 33 34 52
3 33 50 51
3 33 51 52
3 48 49 60
3 49 60 50
3 50 60 61
3 50 51 61
3 51 52 61
3 61 62 52
3 52 53 62
3 53 54 62
3 54 55 63
3 55 56 63
3 56 63 64
3 56 57 64
3 64 65 57
3 57 58 65
3 58 59 65
3 48 59 65
