ply
format ascii 1.0
element vertex 66
property float x
property float y
property float z
property float u
property float v
element face 91
property list uchar int vertex_indices
end_header
-20.0854 -6.05285 21.0897 488.733 429.225
-19.5305 -0.602334 20.6764 490.107 451.531
-18.5915 4.78778 20.2031 493.085 473.635
-17.1916 9.94255 18.3206 498.168 494.258
-15.1602 14.5521 13.4299 506.301 511.478
-12.0442 18.4008 7.88238 519.12 525.499
-7.97581 21.3868 3.20307 535.921 536.526
-3.22145 23.3564 -0.802559 555.655 543.796
2.05807 23.4444 -4.5659 577.861 543.543
6.97148 22.1291 -0.687174 597.921 540.72
10.8526 19.0661 3.45512 614 530.641
14.0168 15.3991 8.18065 627.159 518.196
16.3144 11.2546 13.6975 636.736 503.964
17.7847 6.73564 18.3794 643.061 487.685
18.6112 1.87871 20.3727 647.099 468.75
18.9035 -3.15936 20.7422 649.153 448.278
18.8049 -8.20729 21.074 649.6 427.676
-16.0115 -15.2967 0.186733 509.593 383.121
-14.1236 -17.3252 -1.53629 517.941 374.413
-11.5529 -18.3055 -2.92358 528.883 370.279
-8.82029 -18.4054 -4.27298 540.333 369.806
-6.14995 -17.8663 -5.51365 551.4 371.992
3.66632 -18.2679 -5.4122 591.967 372.229
6.20885 -19.1804 -4.12603 602.472 369.509
8.92283 -19.4856 -2.70294 613.561 369.373
11.6106 -18.9001 -1.28576 624.385 372.886
13.7481 -17.1418 0.367696 632.704 381.211
-0.910851 -11.7683 -5.01461 571.885 398.224
-0.911007 -9.32529 -7.66541 571.758 407.124
-0.898083 -6.90208 -10.3779 571.697 415.918
-0.857065 -4.49116 -13.0458 571.748 424.685
-2.31939 0.27742 -6.01967 564.059 446.986
-1.34269 0.168222 -6.99635 568.222 446.305
-0.38043 0.0459523 -8.0219 572.333 445.546
0.662338 0.049557 -6.90814 576.507 446.232
1.70264 0.0342854 -5.89253 580.685 446.797
-11.8391 -10.3758 -1.23787 526.106 403.501
-10.1983 -11.7925 -1.14774 533.117 398.031
-7.95613 -12.0083 -0.997373 542.39 397.63
-6.15781 -10.8786 -0.612026 549.567 402.77
-7.93042 -9.75009 -1.06112 542.104 406.879
-10.0061 -9.524 -1.09278 533.502 407.404
5.21497 -11.6971 -0.842521 596.669 401.447
6.84174 -12.9321 -0.88697 603.605 396.663
9.05316 -12.9427 -0.848177 612.728 397.051
10.801 -11.695 -0.82729 619.718 402.511
9.1004 -10.6911 -0.893871 612.531 406.285
7.04957 -10.6991 -1.075 604.09 405.79
-3.71308 10.5992 -2.86744 556.12 490.447
-2.59201 8.87644 -5.17314 561.317 482.6
-1.33472 7.09143 -6.84894 567.014 474.793
0.430108 7.09698 -8.37457 574.472 474.496
2.22792 6.7995 -6.58571 581.737 474.376
3.7603 8.32163 -4.93575 587.601 481.617
5.1705 9.84004 -2.81599 592.907 489.02
4.14337 10.9798 -4.09363 588.615 492.961
2.78677 11.8047 -5.43037 583.025 495.523
1.04193 12.2192 -6.85325 575.916 496.29
-0.798407 12.1676 -5.62037 568.188 496.259
-2.41287 11.6239 -4.29746 561.469 494.288
-0.622671 9.29726 -5.01319 569.351 484.766
0.646379 8.87901 -7.0346 574.895 482.425
2.0438 9.03015 -4.91675 580.39 484.211
2.02277 9.2109 -4.38155 580.21 485.178
0.762667 9.44692 -6.17521 575.175 485.145
-0.491954 9.47569 -4.54893 569.805 485.721
3 20 21 23
3 21 22 23
3 0 1 36
3 15 16 45
3 0 17 36
3 16 26 45
3 17 18 37
3 25 26 44
3 17 36 37
3 26 44 45
3 18 19 38
3 24 25 43
3 18 37 38
3 25 43 44
3 19 20 38
3 23 24 43
3 20 21 39
3 22 23 42
3 20 38 39
3 23 42 43
3 21 22 27
3 21 27 39
3 22 27 42
3 27 28 42
3 27 28 39
3 28 42 47
3 28 39 40
3 1 36 41
3 15 45 46
3 1 2 41
3 14 15 46
3 28 29 40
3 28 29 47
3 2 40 41
3 14 46 47
3 2 29 40
3 14 29 47
3 2 3 29
3 13 14 29
3 29 30 31
3 29 30 35
3 3 29 31
3 13 29 35
3 30 32 33
3 30 33 34
3 30 31 32
3 30 34 35
3 3 4 31
3 12 13 35
3 4 5 48
3 11 12 54
3 5 6 48
3 10 11 54
3 6 48 59
3 10 54 55
3 6 7 59
3 9 10 55
3 7 58 59
3 9 55 56
3 8 57 58
3 8 56 57
3 7 8 58
3 8 9 56
3 4 31 48
3 12 35 54
3 31 48 49
3 35 53 54
3 31 49 50
3 35 52 53
3 31 32 50
3 34 35 52
3 32 33 50
3 33 34 52
3 33 50 51
3 33 51 52
3 48 49 60
3 49 60 50
3 50 60 61
3 50 51 61
3 51 52 61
3 61 62 52
3 52 53 62
3 53 54 62
3 54 55 63
3 55 56 63
3 56 63 64
3 56 57 64
3 64 65 57
3 57 58 65
3 58 59 65
3 48 59 65
