ply
format ascii 1.0
element vertex 66
property float x
property float y
property float z
property float u
property float v
element face 91
property list uchar int vertex_indices
end_header
-20.29 -6.07885 21.4091 487.65 430.372
-19.6684 -0.531079 20.8412 489.477 452.729
-18.7324 4.97666 20.3242 492.587 475.001
-17.4332 10.2593 18.4664 497.459 495.753
-15.4705 14.9009 13.5213 505.701 512.476
-12.3214 18.6396 7.85169 519.06 525.372
-8.24043 21.5128 3.10453 536.189 535.368
-3.50574 23.3879 -0.927036 556.007 541.776
1.71454 23.4753 -4.65059 578.019 541.158
6.75745 22.1634 -0.715019 598.116 538.638
10.7397 19.0027 3.42563 614.11 528.532
13.9742 15.221 8.17477 627.028 516.08
16.4349 11.0513 13.752 636.688 502.334
18.0615 6.5491 18.3771 643.16 486.623
18.8997 1.73455 20.3523 646.938 468.191
19.1704 -3.2456 20.6816 648.718 448.172
19.0334 -8.22724 21.0823 648.819 428.113
-16.4235 -15.1337 0.233852 508.653 383.706
-14.4211 -17.1729 -1.47574 517.453 374.91
-11.7448 -18.1452 -2.8675 528.794 370.719
-8.91374 -18.2102 -4.1966 540.622 370.271
-6.14126 -17.6313 -5.39596 552.092 372.493
3.72188 -17.841 -5.43786 592.461 373.283
6.20435 -18.7347 -4.14445 602.507 370.715
8.86925 -19.0579 -2.71549 613.191 370.563
11.5345 -18.5913 -1.24684 623.753 373.639
13.7288 -17.0017 0.389472 632.193 381.28
-0.621386 -11.599 -4.92405 573.687 398.161
-0.625497 -8.98028 -7.71381 573.793 407.409
-0.628025 -6.38014 -10.5449 573.915 416.561
-0.611012 -3.78594 -13.2695 574.099 425.745
-2.94689 0.787071 -6.29955 562.603 447.395
-1.51058 1.02261 -7.18799 568.603 448.151
-0.0190872 1.03596 -8.06273 574.859 448.022
1.4415 0.869807 -7.06526 580.675 448.09
2.80309 0.47825 -6.15974 586.135 447.179
-12.006 -10.3298 -1.0253 526.238 403.337
-10.3139 -11.6505 -1.09815 533.365 398.222
-8.10048 -11.8309 -1.12398 542.447 397.849
-6.27815 -10.6766 -0.761303 549.662 403.025
-8.1001 -9.71841 -1.05071 542.124 406.466
-10.1556 -9.5629 -1.0637 533.698 406.745
5.34742 -11.3707 -1.02127 597.349 402.037
6.96058 -12.5631 -1.05071 604.126 397.451
9.0984 -12.6233 -0.846902 612.839 397.668
10.8316 -11.4476 -0.666186 619.72 402.826
9.13667 -10.5364 -0.904267 612.699 406.123
7.15114 -10.5261 -1.08175 604.611 405.742
-5.54475 9.08403 -2.7259 550.106 482.436
-3.55491 7.88463 -5.02983 558.839 476.753
-1.59027 6.79556 -6.798 567.355 471.781
0.525748 6.89353 -8.39011 576.284 471.743
2.62585 6.51309 -6.44672 584.573 471.519
4.68443 7.2857 -4.69743 592.558 475.875
6.74595 8.24784 -2.58439 600.46 481.183
5.45737 10.1614 -3.97831 595.163 488.044
3.51255 11.4921 -5.30789 587.257 492.46
1.07104 11.9961 -6.8221 577.475 493.342
-1.49382 11.8727 -5.58113 566.78 493.025
-3.78987 10.8631 -4.22658 557.293 489.212
-1.34467 8.74448 -5.2034 567.782 480.532
0.7331 8.60503 -7.26747 576.675 479.289
2.85099 8.45217 -4.95111 584.935 480.178
3.03962 8.83853 -4.33096 585.536 482.088
0.856051 9.21531 -6.32387 576.915 482.258
-1.37151 9.17103 -4.6275 567.504 482.547
3 20 21 23
3 21 22 23
3 0 1 36
3 15 16 45
3 0 17 36
3 16 26 45
3 17 18 37
3 25 26 44
3 17 36 37
3 26 44 45
3 18 19 38
3 24 25 43
3 18 37 38
3 25 43 44
3 19 20 38
3 23 24 43
3 20 21 39
3 22 23 42
3 20 38 39
3 23 42 43
3 21 22 27
3 21 27 39
3 22 27 42
3 27 28 42
3 27 28 39
3 28 42 47
3 28 39 40
3 1 36 41
3 15 45 46
3 1 2 41
3 14 15 46
3 28 29 40
3 28 29 47
3 2 40 41
3 14 46 47
3 2 29 40
3 14 29 47
3 2 3 29
3 13 14 29
3 29 30 31
3 29 30 35
3 3 29 31
3 13 29 35
3 30 32 33
3 30 33 34
3 30 31 32
3 30 34 35
3 3 4 31
3 12 13 35
3 4 5 48
3 11 12 54
3 5 6 48
3 10 11 54
3 6 48 59
3 10 54 55
3 6 7 59
3 9 10 55
3 7 58 59
3 9 55 56
3 8 57 58
3 8 56 57
3 7 8 58
3 8 9 56
3 4 31 48
3 12 35 54
3 31 48 49
3 35 53 54
3 31 49 50
3 35 52 53
3 31 32 50
3 34 35 52
3 32 33 50
3 33 34 52
3 33 50 51
3 33 51 52
3 48 49 60
3 49 60 50
3 50 60 61
3 50 51 61
3 51 52 61
3 61 62 52
3 52 53 62
3 53 54 62
3 54 55 63
3 55 56 63
3 56 63 64
3 56 57 64
3 64 65 57
3 57 58 65
3 58 59 65
3 48 59 65
