ply
format ascii 1.0
element vertex 66
property float x
property float y
property float z
property float u
property float v
element face 91
property list uchar int vertex_indices
end_header
-19.9429 -5.6509 20.9273 495.772 432.049
-19.5751 -0.509003 20.4507 495.907 453.341
-18.8015 4.59512 20.2012 497.758 474.724
-17.5044 9.45573 18.1908 501.933 494.189
-15.3409 13.8452 13.5104 509.97 510.34
-12.0372 17.5767 7.94916 523.024 523.538
-7.8165 20.4888 3.21442 540.151 534.061
-2.92637 22.4099 -0.788585 560.357 541.069
2.45895 22.4144 -4.31021 583.172 540.497
7.22394 21.416 -0.900444 603.454 539.687
11.2156 18.9282 3.33083 620.865 532.93
14.6014 15.8022 8.19474 635.88 523.715
16.9557 11.9742 13.8791 646.716 511.767
18.1263 7.45587 18.6326 652.777 496.053
18.625 2.42723 20.7906 656.219 476.476
18.8095 -2.8322 21.1372 658.45 454.77
18.7568 -8.06953 21.6475 659.67 433.187
-15.8523 -15.348 0.244082 516.306 380.391
-13.904 -16.9581 -1.42968 525.019 373.215
-11.4871 -17.6794 -2.91643 535.456 369.994
-8.99093 -17.8111 -4.30715 546.062 369.314
-6.57131 -17.4422 -5.62045 556.203 370.749
3.47326 -18.1108 -5.32856 598.751 370.936
6.27435 -19.0375 -4.04493 610.788 368.612
9.21849 -19.3625 -2.63208 623.258 368.918
12.1398 -18.7559 -1.20756 635.372 373.115
14.519 -16.975 0.40732 644.868 382.177
-1.57602 -11.7892 -5.09082 575.687 396.067
-1.45855 -8.88451 -7.681 575.447 406.689
-1.31364 -6.0175 -10.4955 575.34 417.028
-1.12367 -3.16726 -13.2942 575.427 427.319
-4.1092 0.943143 -6.32305 561.494 447.798
-2.4939 1.23842 -7.22342 568.251 448.947
-0.816347 1.22177 -8.08023 575.356 448.836
1.09991 0.913919 -7.24678 583.502 448.582
2.89912 0.314483 -6.31949 591.232 447.132
-11.9545 -10.1732 -1.06979 531.345 402.309
-10.2749 -11.5585 -1.0801 538.816 396.986
-8.05865 -11.6388 -1.06936 548.187 397.277
-6.26168 -10.5039 -0.758779 555.442 402.703
-8.08515 -9.67702 -1.05362 547.529 405.471
-10.1108 -9.46101 -1.13354 538.926 405.76
5.23332 -11.5818 -0.937087 604.236 401.306
6.92994 -12.9786 -0.974517 611.782 395.924
9.17399 -13.0644 -0.754854 621.266 396.324
11.0752 -11.952 -0.571647 628.971 401.609
9.27615 -11.0629 -0.873441 621.144 404.641
7.19626 -10.961 -1.02527 612.346 404.395
-5.80468 9.86212 -2.75454 551.761 486.694
-3.9822 8.30122 -4.93198 559.944 479.389
-1.95065 7.0128 -6.66952 568.921 473.542
0.346292 6.99462 -8.32863 578.662 473.121
2.72547 6.52881 -6.5824 588.778 472.879
5.1303 7.3594 -4.85655 598.643 478.046
7.53134 8.40121 -2.8136 608.424 484.283
5.83586 10.2118 -4.10568 600.805 490.602
3.62339 11.4352 -5.41212 591.168 494.316
1.06203 11.9674 -6.6142 580.25 495.108
-1.55151 12.0826 -5.446 569.16 495.554
-3.96603 11.3843 -4.20869 559.135 492.7
-1.78475 9.1119 -5.05348 568.992 483.316
0.558983 8.72654 -7.3912 579.051 480.971
3.08936 8.50355 -5.33686 589.729 481.969
3.1714 8.9133 -4.69075 589.943 484.087
0.653247 9.30108 -6.43712 579.262 483.964
-1.77737 9.49491 -4.53188 568.902 485.228
3 20 21 23
3 21 22 23
3 0 1 36
3 15 16 45
3 0 17 36
3 16 26 45
3 17 18 37
3 25 26 44
3 17 36 37
3 26 44 45
3 18 19 38
3 24 25 43
3 18 37 38
3 25 43 44
3 19 20 38
3 23 24 43
3 20 21 39
3 22 23 42
3 20 38 39
3 23 42 43
3 21 22 27
3 21 27 39
3 22 27 42
3 27 28 42
3 27 28 39
3 28 42 47
3 28 39 40
3 1 36 41
3 15 45 46
3 1 2 41
3 14 15 46
3 28 29 40
3 28 29 47
3 2 40 41
3 14 46 47
3 2 29 40
3 14 29 47
3 2 3 29
3 13 14 29
3 29 30 31
3 29 30 35
3 3 29 31
3 13 29 35
3 30 32 33
3 30 33 34
3 30 31 32
3 30 34 35
3 3 4 31
3 12 13 35
3 4 5 48
3 11 12 54
3 5 6 48
3 10 11 54
3 6 48 59
3 10 54 55
3 6 7 59
3 9 10 55
3 7 58 59
3 9 55 56
3 8 57 58
3 8 56 57
3 7 8 58
3 8 9 56
3 4 31 48
3 12 35 54
3 31 48 49
3 35 53 54
3 31 49 50
3 35 52 53
3 31 32 50
3 34 35 52
3 32 33 50
3 33 34 52
3 33 50 51
3 33 51 52
3 48 49 60
3 49 60 50
3 50 60 61
3 50 51 61
3 51 52 61
3 61 62 52
3 52 53 62
3 53 54 62
3 54 55 63
3 55 56 63
3 56 63 64
3 56 57 64
3 64 65 57
3 57 58 65
3 58 59 65
3 48 59 65
