ply
format ascii 1.0
element vertex 66
property float x
property float y
property float z
property float u
property float v
element face 91
property list uchar int vertex_indices
end_header
-20.1733 -5.67192 21.0573 489.592 423.844
-19.4807 -0.397499 20.6149 490.998 445.449
-18.3932 4.79654 20.0872 494.051 466.797
-16.9289 9.77207 18.2211 498.699 486.791
-14.844 14.2497 13.5139 506.006 503.724
-11.7519 18.0724 7.95329 517.628 517.89
-7.82203 21.2212 3.23353 532.892 529.874
-3.18875 23.4341 -0.868393 551.316 538.474
2.07283 23.6057 -4.51233 572.888 539.074
6.95621 22.3372 -0.803976 593.383 536.752
10.7764 19.255 3.43702 610.002 526.936
13.9055 15.5986 8.22053 623.938 514.808
16.2142 11.5067 13.7975 634.626 501.007
17.6108 6.94893 18.4386 641.674 484.66
18.4238 1.97685 20.4024 646.401 465.336
18.8699 -3.18594 20.9299 649.654 444.532
18.9565 -8.37905 21.339 651.433 423.456
-15.8519 -15.1161 0.115503 509.718 377.564
-13.8082 -16.8982 -1.53173 518.599 370.128
-11.2386 -17.7141 -2.97004 529.384 366.879
-8.56855 -17.8175 -4.34135 540.389 366.603
-5.95654 -17.3708 -5.58841 551.007 368.617
3.5059 -17.9996 -5.41055 590.138 368.675
6.1318 -18.8952 -4.15369 601.208 366.243
8.90422 -19.2274 -2.72696 612.729 366.23
11.6783 -18.7369 -1.27596 624.033 369.596
14.0037 -17.1292 0.310245 633.186 377.474
-1.07355 -11.6845 -4.98503 569.564 393.481
-1.03446 -9.46124 -7.61848 569.088 401.495
-0.976876 -7.26793 -10.3789 568.694 409.339
-0.892696 -5.08446 -13.1362 568.412 417.151
-2.26618 0.673215 -6.12663 561.267 443.296
-1.34725 0.573402 -7.05918 565.067 442.745
-0.444013 0.449851 -8.04535 568.808 442.071
0.574983 0.430827 -7.00345 573.02 442.705
1.59959 0.386901 -6.04447 577.262 443.203
-11.7319 -10.498 -0.999809 525.406 397.126
-10.2244 -11.7387 -1.06744 531.951 392.424
-8.21618 -11.9518 -1.09055 540.276 392.085
-6.5668 -11.0452 -0.887333 546.822 396.329
-8.17757 -10.0736 -1.08791 539.923 399.789
-10.0565 -9.84179 -1.0395 532.124 400.251
5.50383 -12.0548 -1.00428 596.791 395.409
7.02811 -13.1441 -0.955459 603.365 391.38
9.04206 -13.1428 -0.773264 611.658 392.006
10.6911 -12.1009 -0.615855 618.164 396.786
9.10542 -11.2695 -0.819481 611.407 399.677
7.21564 -11.2497 -1.04345 603.619 399.153
-5.19485 10.1139 -2.79887 546.671 482.565
-3.44997 8.64416 -5.06791 554.229 476.067
-1.70774 7.14388 -6.78089 561.792 469.676
0.391616 7.12073 -8.28448 570.424 469.52
2.53095 6.77023 -6.62047 579.347 469.359
4.53729 7.92665 -4.90763 587.311 475.356
6.5951 9.04327 -2.73623 595.503 481.395
5.167 10.6907 -4.08026 589.158 487.193
3.27106 11.8426 -5.3509 581.023 490.867
0.967859 12.3606 -6.62776 571.385 491.831
-1.40002 12.3177 -5.47189 561.661 491.499
-3.53377 11.5576 -4.23606 553.099 488.326
-1.53198 9.26844 -5.09506 561.955 479.132
0.58567 8.91093 -7.21524 570.746 477.352
2.80592 8.8412 -5.10336 579.931 478.551
2.86368 9.17929 -4.4671 580.084 480.218
0.668985 9.51596 -6.32512 570.935 480.226
-1.51771 9.61174 -4.53717 561.927 480.775
3 20 21 23
3 21 22 23
3 0 1 36
3 15 16 45
3 0 17 36
3 16 26 45
3 17 18 37
3 25 26 44
3 17 36 37
3 26 44 45
3 18 19 38
3 24 25 43
3 18 37 38
3 25 43 44
3 19 20 38
3 23 24 43
3 20 21 39
3 22 23 42
3 20 38 39
3 23 42 43
3 21 22 27
3 21 27 39
3 22 27 42
3 27 28 42
3 27 28 39
3 28 42 47
3 28 39 40
3 1 36 41
3 15 45 46
3 1 2 41
3 14 15 46
3 28 29 40
3 28 29 47
3 2 40 41
3 14 46 47
3 2 29 40
3 14 29 47
3 2 3 29
3 13 14 29
3 29 30 31
3 29 30 35
3 3 29 31
3 13 29 35
3 30 32 33
3 30 33 34
3 30 31 32
3 30 34 35
3 3 4 31
3 12 13 35
3 4 5 48
3 11 12 54
3 5 6 48
3 10 11 54
3 6 48 59
3 10 54 55
3 6 7 59
3 9 10 55
3 7 58 59
3 9 55 56
3 8 57 58
3 8 56 57
3 7 8 58
3 8 9 56
3 4 31 48
3 12 35 54
3 31 48 49
3 35 53 54
3 31 49 50
3 35 52 53
3 31 32 50
3 34 35 52
3 32 33 50
3 33 34 52
3 33 50 51
3 33 51 52
3 48 49 60
3 49 60 50
3 50 60 61
3 50 51 61
3 51 52 61
3 61 62 52
3 52 53 62
3 53 54 62
3 54 55 63
3 55 56 63
3 56 63 64
3 56 57 64
3 64 65 57
3 57 58 65
3 58 59 65
3 48 59 65
