ply
format ascii 1.0
element vertex 66
property float x
property float y
property float z
property float u
property float v
element face 91
property list uchar int vertex_indices
end_header
-19.9979 -5.93629 21.112 489.765 430.33
-19.3698 -0.499584 20.5915 491.559 452.753
-18.3607 4.88551 20.1419 494.936 475.059
-16.9453 10.0488 18.3867 500.233 495.971
-14.9768 14.6583 13.37 508.403 513.319
-11.9989 18.5401 7.84321 520.97 527.618
-8.08731 21.601 3.18978 537.432 539.049
-3.4701 23.636 -0.833678 556.907 546.62
1.69896 23.8342 -4.56198 578.94 546.803
6.71976 22.5343 -0.625637 599.478 543.968
10.6423 19.3624 3.48547 615.727 533.253
13.7564 15.4947 8.13319 628.648 519.735
16.0509 11.2172 13.5799 638.106 504.708
17.6226 6.67263 18.3313 644.702 488.152
18.5449 1.83523 20.1858 649.068 469.051
18.8946 -3.16178 20.4906 651.304 448.535
18.7867 -8.16052 20.8633 651.626 427.959
-16.1341 -15.3551 0.195294 510.476 383.215
-14.2296 -17.4838 -1.5548 519.013 374.001
-11.6006 -18.5528 -2.87015 530.327 369.491
-8.77425 -18.6554 -4.19102 542.303 369.017
-6.00182 -18.0905 -5.42218 553.932 371.338
3.39498 -18.319 -5.41324 593.087 372.079
5.93784 -19.229 -4.10706 603.631 369.312
8.65794 -19.5261 -2.70757 614.798 369.156
11.3427 -18.9312 -1.3351 625.675 372.678
13.4894 -17.1972 0.345824 634.078 380.953
-0.708995 -11.9399 -4.92967 574.878 397.98
-0.678667 -9.29666 -7.69719 574.974 407.776
-0.645513 -6.66333 -10.4337 575.079 417.546
-0.593733 -4.03386 -13.007 575.238 427.371
-2.51088 0.595237 -6.16289 565.488 449.081
-1.2999 0.738014 -7.04739 570.635 449.519
-0.0432331 0.720408 -7.93686 576 449.297
1.21545 0.60444 -6.9037 581.107 449.476
2.38008 0.32351 -6.01989 585.872 448.892
-11.763 -10.6108 -1.22863 528.098 403.06
-10.1827 -11.936 -1.1349 534.882 397.891
-8.0428 -12.1573 -0.954841 543.8 397.433
-6.30244 -11.1033 -0.621897 550.822 402.252
-8.01305 -10.0347 -1.0699 543.59 406.185
-9.99977 -9.82965 -1.08341 535.288 406.673
5.20811 -11.8098 -0.804324 598.883 401.31
6.76101 -12.9277 -0.868907 605.542 396.929
8.84805 -12.9421 -0.891925 614.235 397.234
10.4973 -11.7702 -0.885265 620.907 402.388
8.88147 -10.8408 -0.909333 614.03 405.94
6.94367 -10.867 -1.05686 605.989 405.422
-3.19744 10.5575 -2.84179 560.497 491.633
-2.35671 8.62801 -5.19398 564.661 482.801
-1.19623 6.76415 -6.842 570.041 474.594
0.529553 6.77097 -8.42117 577.456 474.269
2.27622 6.53186 -6.50595 584.486 474.395
3.6654 8.18793 -4.88597 589.758 482.186
4.72031 10.0173 -2.70922 593.527 490.869
3.8483 11.0553 -3.96085 589.91 494.488
2.66744 11.8236 -5.28031 585.061 496.906
1.07172 12.1776 -6.85721 578.591 497.426
-0.601217 12.0787 -5.54173 571.45 497.268
-2.02648 11.5176 -4.18164 565.41 495.259
-0.0490382 9.08419 -4.99808 574.163 485.187
0.739071 8.69232 -6.95741 577.796 482.882
1.62831 8.96684 -4.77107 581.132 485.096
1.55941 9.13844 -4.31089 580.749 485.988
0.850288 9.31049 -6.14479 578.038 485.804
0.132407 9.25645 -4.57068 574.827 486.113
3 20 21 23
3 21 22 23
3 0 1 36
3 15 16 45
3 0 17 36
3 16 26 45
3 17 18 37
3 25 26 44
3 17 36 37
3 26 44 45
3 18 19 38
3 24 25 43
3 18 37 38
3 25 43 44
3 19 20 38
3 23 24 43
3 20 21 39
3 22 23 42
3 20 38 39
3 23 42 43
3 21 22 27
3 21 27 39
3 22 27 42
3 27 28 42
3 27 28 39
3 28 42 47
3 28 39 40
3 1 36 41
3 15 45 46
3 1 2 41
3 14 15 46
3 28 29 40
3 28 29 47
3 2 40 41
3 14 46 47
3 2 29 40
3 14 29 47
3 2 3 29
3 13 14 29
3 29 30 31
3 29 30 35
3 3 29 31
3 13 29 35
3 30 32 33
3 30 33 34
3 30 31 32
3 30 34 35
3 3 4 31
3 12 13 35
3 4 5 48
3 11 12 54
3 5 6 48
3 10 11 54
3 6 48 59
3 10 54 55
3 6 7 59
3 9 10 55
3 7 58 59
3 9 55 56
3 8 57 58
3 8 56 57
3 7 8 58
3 8 9 56
3 4 31 48
3 12 35 54
3 31 48 49
3 35 53 54
3 31 49 50
3 35 52 53
3 31 32 50
3 34 35 52
3 32 33 50
3 33 34 52
3 33 50 51
3 33 51 52
3 48 49 60
3 49 60 50
3 50 60 61
3 50 51 61
3 51 52 61
3 61 62 52
3 52 53 62
3 53 54 62
3 54 55 63
3 55 56 63
3 56 63 64
3 56 57 64
3 64 65 57
3 57 58 65
3 58 59 65
3 48 59 65
