ply
format ascii 1.0
element vertex 66
property float x
property float y
property float z
property float u
property float v
element face 91
property list uchar int vertex_indices
end_header
-20.168 -5.58517 21.0439 489.557 425.363
-19.5158 -0.304421 20.6209 490.852 446.909
-18.4747 4.89942 20.1045 493.76 468.201
-17.0311 9.88524 18.1988 498.335 488.131
-14.9141 14.3707 13.4637 505.723 505.017
-11.7478 18.1755 7.92489 517.568 519.059
-7.736 21.265 3.20359 533.09 530.736
-3.02937 23.3894 -0.885682 551.732 538.914
2.26483 23.4882 -4.50951 573.322 539.165
7.0824 22.1622 -0.818778 593.534 536.51
10.862 19.0932 3.43354 609.957 526.71
13.9781 15.4777 8.24858 623.815 514.742
16.2513 11.4008 13.8223 634.356 500.991
17.6048 6.85412 18.4593 641.22 484.699
18.3805 1.903 20.4685 645.743 465.52
18.7946 -3.23938 20.9654 648.788 444.841
18.8752 -8.4071 21.3746 650.47 423.938
-15.8052 -15.218 0.147145 509.356 378.495
-13.7296 -16.9899 -1.51874 518.283 371.102
-11.1303 -17.7773 -2.95911 529.109 367.954
-8.43988 -17.8575 -4.32657 540.128 367.746
-5.81909 -17.3677 -5.57901 550.717 369.894
3.47393 -17.9757 -5.41442 589.003 369.85
6.13788 -18.9225 -4.15373 600.213 367.188
8.96019 -19.2814 -2.7153 611.926 367.039
11.7857 -18.79 -1.2625 623.431 370.367
14.1425 -17.1459 0.319308 632.719 378.334
-1.13963 -11.6114 -4.99873 568.439 394.824
-1.12438 -9.24131 -7.61399 567.812 403.418
-1.08748 -6.904 -10.387 567.279 411.819
-1.01902 -4.57973 -13.1636 566.878 420.173
-2.47643 0.630763 -6.12262 559.75 443.988
-1.53963 0.561841 -7.06059 563.584 443.556
-0.612378 0.45185 -8.0529 567.388 442.933
0.461894 0.414903 -7.02468 571.834 443.482
1.5379 0.342301 -6.01751 576.296 443.877
-11.7463 -10.5075 -1.01289 524.753 398.277
-10.1809 -11.8276 -1.07626 531.516 393.262
-8.08127 -12.0084 -1.09316 540.176 393.052
-6.39315 -10.9669 -0.81058 546.839 397.851
-8.07524 -10.0021 -1.04704 539.682 401.262
-10.0193 -9.78331 -1.03591 531.65 401.664
5.5629 -12.0014 -1.02841 596.15 396.587
7.12236 -13.2097 -0.959703 602.863 392.081
9.22422 -13.2166 -0.753051 611.493 392.675
10.9287 -12.0829 -0.598742 618.196 397.801
9.28768 -11.2096 -0.828983 611.231 400.851
7.33592 -11.179 -1.06908 603.209 400.379
-5.27528 10.0847 -2.80297 545.912 483.239
-3.55307 8.60279 -5.07135 553.296 476.689
-1.80357 7.12494 -6.76874 560.808 470.399
0.2954 7.10524 -8.27273 569.381 470.231
2.44694 6.73903 -6.61331 578.35 469.973
4.4823 7.86495 -4.91289 586.457 475.792
6.56247 8.98125 -2.77763 594.762 481.764
5.13133 10.6472 -4.10236 588.421 487.65
3.23343 11.8219 -5.36758 580.295 491.437
0.926732 12.3644 -6.63356 570.655 492.538
-1.46591 12.3326 -5.48446 560.88 492.275
-3.62233 11.5626 -4.2794 552.268 489.081
-1.5958 9.2272 -5.08159 561.164 479.733
0.497727 8.86534 -7.2463 569.784 477.892
2.72113 8.77765 -5.12795 578.989 478.979
2.78622 9.1722 -4.47404 579.172 480.877
0.595779 9.52864 -6.34453 570.04 480.999
-1.57804 9.62462 -4.53869 561.149 481.584
3 20 21 23
3 21 22 23
3 0 1 36
3 15 16 45
3 0 17 36
3 16 26 45
3 17 18 37
3 25 26 44
3 17 36 37
3 26 44 45
3 18 19 38
3 24 25 43
3 18 37 38
3 25 43 44
3 19 20 38
3 23 24 43
3 20 21 39
3 22 23 42
3 20 38 39
3 23 42 43
3 21 22 27
3 21 27 39
3 22 27 42
3 27 28 42
3 27 28 39
3 28 42 47
3 28 39 40
3 1 36 41
3 15 45 46
3 1 2 41
3 14 15 46
3 28 29 40
3 28 29 47
3 2 40 41
3 14 46 47
3 2 29 40
3 14 29 47
3 2 3 29
3 13 14 29
3 29 30 31
3 29 30 35
3 3 29 31
3 13 29 35
3 30 32 33
3 30 33 34
3 30 31 32
3 30 34 35
3 3 4 31
3 12 13 35
3 4 5 48
3 11 12 54
3 5 6 48
3 10 11 54
3 6 48 59
3 10 54 55
3 6 7 59
3 9 10 55
3 7 58 59
3 9 55 56
3 8 57 58
3 8 56 57
3 7 8 58
3 8 9 56
3 4 31 48
3 12 35 54
3 31 48 49
3 35 53 54
3 31 49 50
3 35 52 53
3 31 32 50
3 34 35 52
3 32 33 50
3 33 34 52
3 33 50 51
3 33 51 52
3 48 49 60
3 49 60 50
3 50 60 61
3 50 51 61
3 51 52 61
3 61 62 52
3 52 53 62
3 53 54 62
3 54 55 63
3 55 56 63
3 56 63 64
3 56 57 64
3 64 65 57
3 57 58 65
3 58 59 65
3 48 59 65
