ply
format ascii 1.0
element vertex 66
property float x
property float y
property float z
property float u
property float v
element face 91
property list uchar int vertex_indices
end_header
-19.7649 -6.0402 21.0287 486.81 430.887
-19.3495 -0.682368 20.5445 487.552 452.821
-18.5526 4.62543 20.1396 489.885 474.65
-17.2434 9.79506 18.2429 494.321 495.373
-15.1348 14.562 13.4804 502.058 513.372
-11.9007 18.5898 7.82658 514.56 528.151
-7.74884 21.7288 3.08859 531.048 539.816
-2.89286 23.7588 -0.873983 550.671 547.364
2.42916 23.8687 -4.4858 572.579 547.234
7.12011 22.3575 -0.82775 592.372 543.375
10.7925 19.1698 3.40619 608.267 532.674
13.8386 15.4543 8.22837 621.681 519.936
16.1171 11.2784 13.8714 632.024 505.513
17.6038 6.69041 18.4644 639.133 488.812
18.3766 1.85516 20.5618 643.261 469.917
18.6554 -3.09619 20.8814 645.314 449.709
18.6216 -8.0478 21.2417 646.074 429.463
-15.6269 -15.4947 0.183515 505.046 383.912
-13.6976 -17.1838 -1.47002 513.289 376.6
-11.1879 -17.9255 -2.91038 523.77 373.381
-8.56422 -17.9616 -4.2968 534.598 373.111
-6.00315 -17.4372 -5.59728 545.068 375.174
3.22001 -17.7396 -5.48566 583.304 375.598
5.96277 -18.7232 -4.16257 594.872 372.587
8.8659 -19.1021 -2.69279 606.999 372.156
11.7345 -18.5377 -1.25195 618.813 375.59
13.979 -16.7613 0.328596 627.829 383.966
-1.36111 -11.7986 -5.08689 563.284 399.427
-1.43036 -9.2098 -7.62341 562.46 409.009
-1.47523 -6.64871 -10.3568 561.736 418.399
-1.46658 -4.11774 -13.1496 561.238 427.649
-4.19252 0.155774 -6.11938 549.385 447.726
-2.57659 0.481928 -7.08248 555.988 448.948
-0.893441 0.505506 -8.07635 562.923 448.924
0.971746 0.208052 -7.08218 570.726 448.445
2.71034 -0.375482 -6.11344 578.055 446.755
-11.6856 -10.3241 -1.25772 520.39 405.293
-10.0527 -11.5839 -1.1449 527.379 400.44
-7.905 -11.7446 -0.975417 536.303 400.227
-6.09435 -10.8292 -0.565279 543.645 404.488
-7.87186 -9.94634 -0.950908 536.118 407.649
-9.86133 -9.71614 -1.09714 527.837 408.185
5.3987 -11.7846 -1.02345 591.379 402.383
7.10177 -12.7936 -0.954684 598.612 398.556
9.21982 -12.7603 -0.788831 607.378 399.136
10.9487 -11.6742 -0.67023 614.343 403.963
9.18833 -10.9659 -0.860483 606.923 406.49
7.20601 -10.9938 -1.04982 598.717 405.947
-5.18979 9.95399 -2.73964 543.592 489.323
-3.68532 8.30144 -4.95696 550.054 481.85
-1.859 6.85903 -6.68514 557.824 475.504
0.359217 6.88186 -8.22719 566.958 475.34
2.66027 6.39171 -6.3954 576.623 474.497
4.84376 7.37261 -4.70025 585.533 479.634
6.85167 8.6115 -2.73946 593.678 485.914
5.49332 10.4031 -4.06368 587.695 492.496
3.60324 11.6919 -5.39654 579.602 496.911
1.24356 12.3259 -6.79585 569.681 498.518
-1.24444 12.329 -5.58341 559.416 498.603
-3.49818 11.5497 -4.2945 550.263 495.539
-1.41648 9.01201 -4.99567 559.316 485.159
0.648961 8.67675 -7.19249 567.864 483.218
2.9226 8.45583 -5.10382 577.375 483.587
3.03457 8.99203 -4.53044 577.758 486.056
0.832983 9.56004 -6.44669 568.488 487.202
-1.3246 9.54662 -4.58698 559.612 487.549
3 20 21 23
3 21 22 23
3 0 1 36
3 15 16 45
3 0 17 36
3 16 26 45
3 17 18 37
3 25 26 44
3 17 36 37
3 26 44 45
3 18 19 38
3 24 25 43
3 18 37 38
3 25 43 44
3 19 20 38
3 23 24 43
3 20 21 39
3 22 23 42
3 20 38 39
3 23 42 43
3 21 22 27
3 21 27 39
3 22 27 42
3 27 28 42
3 27 28 39
3 28 42 47
3 28 39 40
3 1 36 41
3 15 45 46
3 1 2 41
3 14 15 46
3 28 29 40
3 28 29 47
3 2 40 41
3 14 46 47
3 2 29 40
3 14 29 47
3 2 3 29
3 13 14 29
3 29 30 31
3 29 30 35
3 3 29 31
3 13 29 35
3 30 32 33
3 30 33 34
3 30 31 32
3 30 34 35
3 3 4 31
3 12 13 35
3 4 5 48
3 11 12 54
3 5 6 48
3 10 11 54
3 6 48 59
3 10 54 55
3 6 7 59
3 9 10 55
3 7 58 59
3 9 55 56
3 8 57 58
3 8 56 57
3 7 8 58
3 8 9 56
3 4 31 48
3 12 35 54
3 31 48 49
3 35 53 54
3 31 49 50
3 35 52 53
3 31 32 50
3 34 35 52
3 32 33 50
3 33 34 52
3 33 50 51
3 33 51 52
3 48 49 60
3 49 60 50
3 50 60 61
3 50 51 61
3 51 52 61
3 61 62 52
3 52 53 62
3 53 54 62
3 54 55 63
3 55 56 63
3 56 63 64
3 56 57 64
3 64 65 57
3 57 58 65
3 58 59 65
3 48 59 65
