ply
format ascii 1.0
element vertex 66
property float x
property float y
property float z
property float u
property float v
element face 91
property list uchar int vertex_indices
end_header
-20.2107 -6.14226 20.8925 496.436 432.215
-19.8807 -0.926912 20.5005 496.805 453.211
-19.1378 4.23946 20.1582 498.883 474.116
-17.7381 9.24035 18.1986 503.658 493.405
-15.4593 13.8492 13.3917 512.06 509.391
-12.0451 17.7506 7.87152 525.252 522.241
-7.75746 20.7868 3.23872 542.222 532.317
-2.8957 22.9146 -0.752505 561.741 539.227
2.46406 23.1206 -4.41061 583.678 538.637
7.23168 21.9849 -0.78774 603.599 537.269
11.2191 19.3143 3.38912 620.61 529.885
14.6391 16.018 8.08281 635.415 520.195
17.1455 12.0371 13.625 646.608 508.114
18.4891 7.39629 18.584 653.126 492.757
19.059 2.3725 20.5947 656.463 473.766
19.1616 -2.76228 20.9854 657.859 453.176
19.014 -7.87942 21.4086 658.224 432.633
-15.8711 -15.6534 0.323957 515.611 380.847
-14.0308 -17.3551 -1.47677 523.465 373.084
-11.6368 -18.1746 -2.95438 533.438 369.22
-9.10352 -18.2918 -4.28087 543.857 368.333
-6.63551 -17.8297 -5.47289 553.9 369.877
3.77535 -18.5994 -5.14164 596.904 368.862
6.55645 -19.4121 -4.02954 608.53 366.795
9.44102 -19.5746 -2.75299 620.463 367.498
12.1981 -18.6811 -1.37082 631.675 372.539
14.2395 -16.6306 0.571204 639.736 382.518
-1.46486 -11.5971 -5.09902 574.02 396.391
-1.32014 -8.80064 -7.71008 574.029 406.066
-1.15314 -6.02459 -10.4547 574.131 415.575
-0.94697 -3.27052 -13.1688 574.399 425.021
-3.66984 0.674332 -6.21829 562.61 445.121
-2.15525 0.811974 -7.1178 568.798 445.365
-0.619828 0.747686 -8.06308 575.108 444.762
1.07894 0.519396 -7.11176 582.165 444.768
2.69648 0.0961713 -6.25411 588.922 443.906
-10.9571 -10.1172 -1.26346 534.76 403.196
-9.55516 -11.4257 -1.22062 540.777 398.162
-7.60715 -11.5288 -1.06329 548.818 398.201
-6.01859 -10.4689 -0.524336 555.17 403.151
-7.55519 -9.51052 -0.945876 548.655 406.489
-9.32812 -9.33921 -1.12907 541.321 406.742
4.26099 -11.2778 -0.597843 597.631 401.686
5.74675 -12.5483 -1.03681 603.975 396.505
7.71015 -12.6287 -1.01846 612.072 396.548
9.31238 -11.5431 -0.870445 618.466 401.348
7.75474 -10.6035 -0.897769 611.878 404.865
5.94402 -10.5222 -0.859933 604.41 404.891
-5.65098 9.88663 -2.70736 552.805 484.501
-3.87339 8.33908 -5.0133 560.359 477.022
-1.89271 6.92326 -6.71177 568.738 470.513
0.479145 6.9486 -8.22757 578.461 470.052
2.90294 6.42537 -6.60544 588.573 469.433
5.24448 7.35472 -4.93728 598.075 474.731
7.52865 8.41982 -2.6967 607.328 480.946
5.9079 10.1884 -4.0051 600.294 486.978
3.75254 11.3813 -5.40208 591.166 490.517
1.22572 11.9474 -6.66692 580.63 491.527
-1.37191 11.9982 -5.47287 569.956 492.044
-3.75964 11.3144 -4.19734 560.286 489.669
-1.47852 9.02082 -5.06996 570.087 480.191
0.717688 8.64893 -7.21827 579.147 477.668
3.06574 8.45615 -5.24637 588.893 478.607
3.18502 9.00766 -4.62274 589.295 481.279
0.852252 9.43941 -6.42045 579.57 481.429
-1.414 9.54568 -4.53866 570.266 482.684
3 20 21 23
3 21 22 23
3 0 1 36
3 15 16 45
3 0 17 36
3 16 26 45
3 17 18 37
3 25 26 44
3 17 36 37
3 26 44 45
3 18 19 38
3 24 25 43
3 18 37 38
3 25 43 44
3 19 20 38
3 23 24 43
3 20 21 39
3 22 23 42
3 20 38 39
3 23 42 43
3 21 22 27
3 21 27 39
3 22 27 42
3 27 28 42
3 27 28 39
3 28 42 47
3 28 39 40
3 1 36 41
3 15 45 46
3 1 2 41
3 14 15 46
3 28 29 40
3 28 29 47
3 2 40 41
3 14 46 47
3 2 29 40
3 14 29 47
3 2 3 29
3 13 14 29
3 29 30 31
3 29 30 35
3 3 29 31
3 13 29 35
3 30 32 33
3 30 33 34
3 30 31 32
3 30 34 35
3 3 4 31
3 12 13 35
3 4 5 48
3 11 12 54
3 5 6 48
3 10 11 54
3 6 48 59
3 10 54 55
3 6 7 59
3 9 10 55
3 7 58 59
3 9 55 56
3 8 57 58
3 8 56 57
3 7 8 58
3 8 9 56
3 4 31 48
3 12 35 54
3 31 48 49
3 35 53 54
3 31 49 50
3 35 52 53
3 31 32 50
3 34 35 52
3 32 33 50
3 33 34 52
3 33 50 51
3 33 51 52
3 48 49 60
3 49 60 50
3 50 60 61
3 50 51 61
3 51 52 61
3 61 62 52
3 52 53 62
3 53 54 62
3 54 55 63
3 55 56 63
3 56 63 64
3 56 57 64
3 64 65 57
3 57 58 65
3 58 59 65
3 48 59 65
