ply
format ascii 1.0
element vertex 66
property float x
property float y
property float z
property float u
property float v
element face 91
property list uchar int vertex_indices
end_header
-20.5289 -6.14907 21.5631 477.193 302.092
-20.0669 -0.664955 21.1134 476.372 323.814
-19.3694 4.81627 20.8482 476.466 345.724
-18.3438 10.0038 18.512 478.262 365.742
-16.6071 14.5889 13.6113 483.496 382.628
-13.404 18.168 7.99615 495.146 395.968
-9.01391 20.5603 3.29597 511.992 405.612
-4.07658 21.9746 -0.865851 531.433 411.898
1.17082 21.9677 -4.69024 552.77 412.867
6.51181 21.2784 -0.723762 573.869 414.555
11.237 19.0054 3.49251 593.272 409.778
15.2406 15.8361 8.17253 610.193 401.293
18.0106 11.7778 13.7476 622.539 389.058
19.3344 7.08083 18.5493 629.544 373.233
19.775 1.98323 20.9436 633.527 354.336
19.7285 -3.35124 21.1492 635.956 333.31
19.3604 -8.6604 21.4646 637.081 312.269
-17.4707 -13.7382 0.069539 495.723 264.335
-15.2613 -15.8752 -1.55572 505.763 256.299
-12.3612 -16.7853 -2.97162 517.919 253.553
-9.35175 -16.7849 -4.38309 530.059 254.465
-6.41826 -16.21 -5.65782 541.595 257.668
3.7399 -16.6089 -5.68809 582.194 261.209
6.46022 -17.5861 -4.32834 593.33 259.307
9.36377 -18.0277 -2.86393 604.917 259.661
12.3175 -17.6554 -1.38121 616.299 263.266
14.8215 -15.9982 0.247488 625.24 271.788
-0.583711 -11.376 -5.06552 562.335 279.984
-0.402153 -8.66152 -7.78205 562.044 289.633
-0.229922 -5.97325 -10.6167 561.743 299.123
-0.0582799 -3.28651 -13.3295 561.426 308.659
-2.89079 0.0875819 -6.00747 547.603 323.736
-1.30582 0.265627 -7.15358 553.957 324.745
0.315071 0.239515 -8.21204 560.544 325.002
1.84714 0.0640122 -7.06626 566.585 325.578
3.30973 -0.327567 -5.98181 572.463 325.237
-13.2274 -9.64732 -1.04621 510.709 282.171
-11.384 -10.8514 -1.03755 518.634 278.345
-9.13982 -11.1156 -1.02031 527.688 278.441
-7.16785 -10.2639 -0.964489 535.102 282.829
-9.10904 -9.47878 -1.17428 527.019 284.862
-11.2352 -9.24555 -1.13562 518.444 284.727
5.62172 -11.0365 -0.907858 586.339 286.259
7.41691 -12.087 -0.959436 594.004 282.99
9.63394 -12.1542 -0.919061 602.849 283.861
11.5895 -11.2145 -0.855563 610.154 288.592
9.70978 -10.5418 -0.988365 602.362 290.245
7.60468 -10.5161 -1.04379 593.984 289.259
-5.87745 9.30325 -3.07359 530.809 359.933
-3.97158 7.37271 -5.02163 539.58 352.42
-1.80018 5.84495 -6.66584 549.171 346.766
0.662851 5.84646 -8.32125 559.167 347.3
3.06733 5.53806 -6.46529 568.656 348.098
5.36474 6.75252 -4.8168 576.991 354.773
7.40897 8.44256 -2.89216 584.051 363.32
5.76507 10.067 -4.05209 576.85 368.41
3.52708 10.984 -5.39668 567.66 370.324
1.02032 11.2359 -6.87126 557.746 369.416
-1.51778 11.2887 -5.56051 547.467 368.91
-3.91301 10.6904 -4.1559 538.067 365.942
-1.56458 8.18624 -5.31746 548.786 356.725
0.816919 7.89654 -7.26033 558.636 355.942
3.17479 7.90022 -5.13563 567.753 358.066
3.18023 8.13811 -4.50092 567.58 359.284
0.856901 8.25223 -6.24071 558.495 357.809
-1.50817 8.43534 -4.65125 548.806 358.026
3 20 21 23
3 21 22 23
3 0 1 36
3 15 16 45
3 0 17 36
3 16 26 45
3 17 18 37
3 25 26 44
3 17 36 37
3 26 44 45
3 18 19 38
3 24 25 43
3 18 37 38
3 25 43 44
3 19 20 38
3 23 24 43
3 20 21 39
3 22 23 42
3 20 38 39
3 23 42 43
3 21 22 27
3 21 27 39
3 22 27 42
3 27 28 42
3 27 28 39
3 28 42 47
3 28 39 40
3 1 36 41
3 15 45 46
3 1 2 41
3 14 15 46
3 28 29 40
3 28 29 47
3 2 40 41
3 14 46 47
3 2 29 40
3 14 29 47
3 2 3 29
3 13 14 29
3 29 30 31
3 29 30 35
3 3 29 31
3 13 29 35
3 30 32 33
3 30 33 34
3 30 31 32
3 30 34 35
3 3 4 31
3 12 13 35
3 4 5 48
3 11 12 54
3 5 6 48
3 10 11 54
3 6 48 59
3 10 54 55
3 6 7 59
3 9 10 55
3 7 58 59
3 9 55 56
3 8 57 58
3 8 56 57
3 7 8 58
3 8 9 56
3 4 31 48
3 12 35 54
3 31 48 49
3 35 53 54
3 31 49 50
3 35 52 53
3 31 32 50
3 34 35 52
3 32 33 50
3 33 34 52
3 33 50 51
3 33 51 52
3 48 49 60
3 49 60 50
3 50 60 61
3 50 51 61
3 51 52 61
3 61 62 52
3 52 53 62
3 53 54 62
3 54 55 63
3 55 56 63
3 56 63 64
3 56 57 64
3 64 65 57
3 57 58 65
3 58 59 65
3 48 59 65
