ply
format ascii 1.0
element vertex 66
property float x
property float y
property float z
property float u
property float v
element face 91
property list uchar int vertex_indices
end_header
-20.0836 -6.41879 21.5006 471.277 309.868
-19.6343 -0.70509 21.1052 471.872 333.788
-18.9299 4.99357 20.7266 473.545 357.726
-17.868 10.3617 18.3537 477.339 379.307
-16.1302 15.0383 13.5133 484.815 396.851
-12.8993 18.5877 7.97328 499.069 409.7
-8.44205 20.8319 3.13885 518.646 417.784
-3.50192 22.1243 -0.957276 540.304 422.399
1.74352 21.9129 -4.5786 563.499 421.035
6.83521 20.9305 -0.62294 584.229 420.443
11.1255 18.3337 3.55143 601.91 412.961
14.7269 15.0478 8.34904 616.683 402.726
17.2151 11.0344 13.7238 626.775 389.432
18.573 6.61746 18.2828 632.402 373.692
19.0898 1.91265 20.6354 635.126 355.327
19.0484 -3.03468 20.7234 636.149 334.575
18.6695 -7.94939 20.9792 635.691 313.957
-16.7854 -14.8537 -0.0120261 493 263.835
-14.3399 -16.7172 -1.47127 504.189 255.905
-11.3685 -17.4232 -2.86607 517.299 253.021
-8.35575 -17.3032 -4.30249 530.391 253.596
-5.44155 -16.597 -5.66399 542.902 256.646
3.39725 -16.6806 -5.78276 580.336 258.695
6.00989 -17.4819 -4.36498 591.208 256.815
8.78796 -17.7977 -2.88907 602.645 257.051
11.5893 -17.3773 -1.44806 614.008 260.37
13.9543 -15.7758 0.152381 623.192 268.614
-0.558339 -11.6854 -5.12849 562.201 278.931
-0.520406 -9.02184 -7.66721 562.376 288.774
-0.494898 -6.39444 -10.4453 562.57 298.334
-0.456915 -3.78013 -13.2393 562.825 307.834
-2.9778 -0.477426 -5.95058 549.42 324.909
-1.46668 -0.373087 -7.02782 556.07 325.192
0.0624745 -0.421948 -8.07146 562.825 324.854
1.48369 -0.516074 -6.91262 568.553 325.475
2.84823 -0.775244 -5.83096 574.102 325.345
-12.9929 -10.5551 -1.11521 508.271 282.362
-11.1042 -11.7309 -0.946744 516.504 278.038
-8.82068 -11.9127 -0.825342 526.175 277.976
-6.92986 -10.8535 -0.646807 533.863 283.048
-8.91877 -10.1522 -1.02851 525.379 285.237
-11.0598 -9.98909 -1.08525 516.298 285.295
5.31195 -11.3436 -0.921701 585.831 284.254
7.00881 -12.3856 -0.865017 593.249 280.379
9.19407 -12.4563 -0.851207 602.505 280.698
11.0637 -11.4143 -0.889048 610.165 285.577
9.26249 -10.7292 -1.01528 602.412 287.886
7.2107 -10.7728 -1.09895 593.767 287.086
-5.18656 10.5435 -3.14351 536.615 372.101
-3.90469 7.96026 -5.11868 543.197 360.548
-2.01929 5.72268 -6.69501 552.14 350.828
0.53087 5.52448 -8.35846 563.415 349.816
3.0607 5.39307 -6.33422 573.611 351.052
5.19199 7.30014 -4.78837 581.745 360.486
6.71021 9.77215 -2.97386 587.076 372.266
5.46762 11.3336 -4.02944 581.715 377.916
3.62369 12.3699 -5.30965 573.999 381.071
1.28153 12.7221 -6.80167 564.401 381.1
-1.22683 12.7057 -5.62141 553.484 380.964
-3.41004 11.9384 -4.39532 544.116 377.787
-1.53124 8.27421 -5.21674 553.184 362.476
0.782695 7.58305 -7.27787 563.686 359.114
3.18722 7.97709 -4.87913 573.123 362.723
3.24791 9.4681 -4.32707 572.866 369.3
1.05997 9.7799 -6.21719 564.036 368.989
-1.19097 9.76157 -4.69904 554.119 369.097
3 20 21 23
3 21 22 23
3 0 1 36
3 15 16 45
3 0 17 36
3 16 26 45
3 17 18 37
3 25 26 44
3 17 36 37
3 26 44 45
3 18 19 38
3 24 25 43
3 18 37 38
3 25 43 44
3 19 20 38
3 23 24 43
3 20 21 39
3 22 23 42
3 20 38 39
3 23 42 43
3 21 22 27
3 21 27 39
3 22 27 42
3 27 28 42
3 27 28 39
3 28 42 47
3 28 39 40
3 1 36 41
3 15 45 46
3 1 2 41
3 14 15 46
3 28 29 40
3 28 29 47
3 2 40 41
3 14 46 47
3 2 29 40
3 14 29 47
3 2 3 29
3 13 14 29
3 29 30 31
3 29 30 35
3 3 29 31
3 13 29 35
3 30 32 33
3 30 33 34
3 30 31 32
3 30 34 35
3 3 4 31
3 12 13 35
3 4 5 48
3 11 12 54
3 5 6 48
3 10 11 54
3 6 48 59
3 10 54 55
3 6 7 59
3 9 10 55
3 7 58 59
3 9 55 56
3 8 57 58
3 8 56 57
3 7 8 58
3 8 9 56
3 4 31 48
3 12 35 54
3 31 48 49
3 35 53 54
3 31 49 50
3 35 52 53
3 31 32 50
3 34 35 52
3 32 33 50
3 33 34 52
3 33 50 51
3 33 51 52
3 48 49 60
3 49 60 50
3 50 60 61
3 50 51 61
3 51 52 61
3 61 62 52
3 52 53 62
3 53 54 62
3 54 55 63
3 55 56 63
3 56 63 64
3 56 57 64
3 64 65 57
3 57 58 65
3 58 59 65
3 48 59 65
