ply
format ascii 1.0
element vertex 66
property float x
property float y
property float z
property float u
property float v
element face 91
property list uchar int vertex_indices
end_header
-19.2693 -5.91038 21.3995 474.25 301.054
-18.6151 -0.429216 20.9188 473.926 325.346
-17.8297 5.04101 20.446 474.18 349.669
-16.8393 10.3548 18.3931 475.596 373.224
-15.2552 15.2253 13.8043 480.146 394.866
-12.4029 19.2068 7.96785 490.902 413.213
-8.42818 22.1341 3.08696 507.086 427.74
-3.80576 24.0718 -0.972889 526.598 438.432
1.27806 24.2937 -4.7379 549.11 441.933
6.44662 23.0524 -0.717485 572.009 440.096
10.6518 19.8776 3.38834 591.829 429.243
14.0428 15.9408 8.26268 608.454 414.675
16.3711 11.3791 14.0187 620.705 396.858
17.6614 6.48545 18.3399 628.769 376.787
18.1798 1.46316 20.4534 633.773 355.409
18.227 -3.66218 20.7514 636.975 333.066
17.9791 -8.79133 21.0618 638.887 310.533
-16.0224 -14.298 0.0519821 495.726 263.545
-14.0732 -16.3405 -1.52776 505.629 255.568
-11.4095 -17.3676 -2.94203 518.039 252.476
-8.56976 -17.559 -4.34704 530.724 253.143
-5.75355 -17.1323 -5.57518 542.921 256.522
3.65345 -17.4909 -5.78388 584.295 260.514
6.04514 -18.2401 -4.42463 595.05 258.834
8.59112 -18.4614 -2.89255 606.148 259.577
11.1313 -18.0662 -1.33491 616.854 263.015
13.2539 -16.672 0.185629 625.148 270.568
-0.391131 -12.3824 -5.03368 563.508 280.545
-0.295717 -9.58354 -7.64585 562.556 292.501
-0.211722 -6.81423 -10.4567 561.593 304.295
-0.135855 -4.06301 -13.2953 560.608 316.002
-2.74902 -0.647792 -5.84581 546.352 330.347
-1.25407 -0.460503 -7.03142 552.909 331.9
0.28817 -0.439941 -8.17109 559.765 332.758
1.6746 -0.598887 -6.97235 565.792 333.042
3.00577 -0.927063 -5.76945 571.677 332.553
-12.0946 -10.5379 -1.12727 510.811 282.165
-10.5001 -11.7561 -1.0414 518.495 277.797
-8.43983 -12.0796 -1.00791 527.692 277.61
-6.62529 -11.2976 -0.773791 535.14 282.137
-8.34334 -10.4483 -0.9955 527.149 284.802
-10.2813 -10.1907 -1.02835 518.525 284.773
5.44536 -12.0383 -0.892629 588.379 286.051
7.07299 -12.9228 -0.947219 596.026 283.143
9.08803 -12.9074 -0.917167 604.826 284.411
10.7351 -11.8476 -1.00052 611.412 290.012
9.04474 -11.2847 -0.970163 603.683 291.473
7.15769 -11.3574 -1.00824 595.478 290.03
-6.10208 9.42705 -2.90206 525.417 372.787
-3.80125 8.39151 -4.86147 536.304 369.372
-1.63531 7.37876 -6.61615 546.565 366.003
0.640613 7.53214 -8.24733 556.605 367.814
2.81237 7.13142 -6.41028 566.14 367.589
4.95752 7.87623 -4.62218 574.887 372.351
7.13824 8.71077 -2.71101 583.723 377.542
5.52181 10.2874 -4.16423 575.88 383.288
3.36789 11.2617 -5.3875 566.018 386.11
0.873878 11.6529 -6.78714 555.032 386.159
-1.71234 11.5353 -5.566 543.659 384.267
-4.10416 10.8357 -4.30132 533.474 379.951
-1.80106 8.89993 -5.24188 544.792 372.733
0.734688 8.77135 -7.38723 556.191 373.399
3.1941 8.6531 -4.96197 566.753 374.657
3.32061 9.13972 -4.3355 566.951 376.941
0.804447 9.55684 -6.22165 555.905 377.026
-1.83446 9.43923 -4.61729 544.26 375.152
3 20 21 23
3 21 22 23
3 0 1 36
3 15 16 45
3 0 17 36
3 16 26 45
3 17 18 37
3 25 26 44
3 17 36 37
3 26 44 45
3 18 19 38
3 24 25 43
3 18 37 38
3 25 43 44
3 19 20 38
3 23 24 43
3 20 21 39
3 22 23 42
3 20 38 39
3 23 42 43
3 21 22 27
3 21 27 39
3 22 27 42
3 27 28 42
3 27 28 39
3 28 42 47
3 28 39 40
3 1 36 41
3 15 45 46
3 1 2 41
3 14 15 46
3 28 29 40
3 28 29 47
3 2 40 41
3 14 46 47
3 2 29 40
3 14 29 47
3 2 3 29
3 13 14 29
3 29 30 31
3 29 30 35
3 3 29 31
3 13 29 35
3 30 32 33
3 30 33 34
3 30 31 32
3 30 34 35
3 3 4 31
3 12 13 35
3 4 5 48
3 11 12 54
3 5 6 48
3 10 11 54
3 6 48 59
3 10 54 55
3 6 7 59
3 9 10 55
3 7 58 59
3 9 55 56
3 8 57 58
3 8 56 57
3 7 8 58
3 8 9 56
3 4 31 48
3 12 35 54
3 31 48 49
3 35 53 54
3 31 49 50
3 35 52 53
3 31 32 50
3 34 35 52
3 32 33 50
3 33 34 52
3 33 50 51
3 33 51 52
3 48 49 60
3 49 60 50
3 50 60 61
3 50 51 61
3 51 52 61
3 61 62 52
3 52 53 62
3 53 54 62
3 54 55 63
3 55 56 63
3 56 63 64
3 56 57 64
3 64 65 57
3 57 58 65
3 58 59 65
3 48 59 65
