ply
format ascii 1.0
element vertex 66
property float x
property float y
property float z
property float u
property float v
element face 91
property list uchar int vertex_indices
end_header
-19.9357 -5.78779 21.4392 479.945 295.367
-19.4134 -0.442991 20.998 478.772 317.504
-18.6982 4.90071 20.6918 478.387 339.767
-17.6608 9.9607 18.4292 479.518 360.906
-15.8743 14.4287 13.7622 484.109 379.89
-12.7537 17.9769 8.11205 494.737 395.859
-8.56238 20.5 3.23109 510.37 408.365
-3.83317 22.1895 -0.865593 528.709 417.863
1.33097 22.249 -4.62536 549.833 420.994
6.51141 21.4392 -0.805805 571.471 421.215
10.9715 18.9498 3.33304 591.201 414.15
14.7627 15.7253 8.25556 608.642 403.73
17.3784 11.6859 13.9411 621.773 389.314
18.6291 7.01995 18.5038 629.725 371.396
19.0221 1.94379 20.8352 634.451 351.083
18.9697 -3.36131 21.1159 637.523 329.387
18.6491 -8.64969 21.5005 639.486 307.601
-16.8743 -13.5092 0.0939616 497.509 263.919
-14.8168 -15.7339 -1.54259 507.321 255.964
-12.0161 -16.8223 -3.00097 519.465 253.129
-9.05163 -17.013 -4.4058 531.721 254.071
-6.13522 -16.609 -5.65501 543.411 257.427
3.73062 -17.1702 -5.68148 584.099 261.249
6.35384 -18.0348 -4.32809 595.344 259.454
9.14499 -18.3555 -2.83353 606.938 259.999
11.963 -17.9382 -1.2833 618.183 263.582
14.3594 -16.3635 0.27553 626.986 271.635
-0.564344 -11.9178 -5.07077 563.273 280.108
-0.371179 -9.17175 -7.71397 562.393 291.233
-0.181875 -6.46191 -10.5606 561.521 302.191
0.000219723 -3.75851 -13.3857 560.623 313.119
-2.90294 -0.195089 -6.04918 546.455 326.499
-1.33876 -0.0367933 -7.1481 552.765 328.024
0.259389 -0.0739998 -8.17979 559.336 328.777
1.77331 -0.229509 -7.10812 565.609 329.169
3.24463 -0.582006 -5.97459 571.83 328.736
-12.4939 -9.88059 -0.929784 513.182 281.384
-10.7685 -11.1553 -0.990508 521.028 277.238
-8.59321 -11.3951 -1.13069 530.073 277.595
-6.72419 -10.4639 -0.999161 537.136 282.572
-8.56202 -9.6683 -1.12221 529.129 284.674
-10.5941 -9.42858 -1.10047 520.672 284.395
5.4667 -11.3274 -0.926544 587.517 286.608
7.15658 -12.4929 -0.990207 595.15 282.886
9.32527 -12.5904 -0.831986 604.076 283.846
11.1944 -11.5648 -0.783812 611.082 289.202
9.40574 -10.83 -0.979627 603.315 291.079
7.37773 -10.7855 -1.02457 594.996 290
-7.29577 8.97116 -2.93083 522.772 361.506
-4.74489 7.55238 -4.83992 534.105 357.129
-2.16403 6.39216 -6.55337 545.398 353.843
0.545087 6.39782 -8.25876 556.492 355.404
3.17036 6.06256 -6.4762 567.412 355.811
5.79474 6.90108 -4.72375 577.602 361.012
8.37946 8.01735 -2.81532 587.455 367.338
6.5851 10.3326 -4.22686 578.7 375.572
3.97131 11.8394 -5.52615 567.094 380.002
0.858275 12.3228 -6.82536 554.081 379.939
-2.31613 12.2164 -5.5836 541.153 377.639
-5.14377 11.0513 -4.25169 530.297 371.234
-2.57925 8.32286 -5.31179 542.488 361.582
0.631547 8.03811 -7.54311 555.82 362.223
3.77637 7.94014 -5.18881 568.711 363.969
3.99046 9.19439 -4.5045 568.8 369.287
0.728623 9.66639 -6.33185 555.192 369.041
-2.64283 9.61346 -4.59823 541.419 366.878
3 20 21 23
3 21 22 23
3 0 1 36
3 15 16 45
3 0 17 36
3 16 26 45
3 17 18 37
3 25 26 44
3 17 36 37
3 26 44 45
3 18 19 38
3 24 25 43
3 18 37 38
3 25 43 44
3 19 20 38
3 23 24 43
3 20 21 39
3 22 23 42
3 20 38 39
3 23 42 43
3 21 22 27
3 21 27 39
3 22 27 42
3 27 28 42
3 27 28 39
3 28 42 47
3 28 39 40
3 1 36 41
3 15 45 46
3 1 2 41
3 14 15 46
3 28 29 40
3 28 29 47
3 2 40 41
3 14 46 47
3 2 29 40
3 14 29 47
3 2 3 29
3 13 14 29
3 29 30 31
3 29 30 35
3 3 29 31
3 13 29 35
3 30 32 33
3 30 33 34
3 30 31 32
3 30 34 35
3 3 4 31
3 12 13 35
3 4 5 48
3 11 12 54
3 5 6 48
3 10 11 54
3 6 48 59
3 10 54 55
3 6 7 59
3 9 10 55
3 7 58 59
3 9 55 56
3 8 57 58
3 8 56 57
3 7 8 58
3 8 9 56
3 4 31 48
3 12 35 54
3 31 48 49
3 35 53 54
3 31 49 50
3 35 52 53
3 31 32 50
3 34 35 52
3 32 33 50
3 33 34 52
3 33 50 51
3 33 51 52
3 48 49 60
3 49 60 50
3 50 60 61
3 50 51 61
3 51 52 61
3 61 62 52
3 52 53 62
3 53 54 62
3 54 55 63
3 55 56 63
3 56 63 64
3 56 57 64
3 64 65 57
3 57 58 65
3 58 59 65
3 48 59 65
