ply
format ascii 1.0
element vertex 66
property float x
property float y
property float z
property float u
property float v
element face 91
property list uchar int vertex_indices
end_header
-19.9961 -5.809 21.4869 479.994 294.747
-19.4598 -0.488827 21.0379 478.843 316.714
-18.7319 4.83019 20.7487 478.471 338.811
-17.7054 9.87206 18.4418 479.509 359.784
-15.9397 14.3477 13.8015 483.935 378.702
-12.8272 17.9091 8.12067 494.432 394.648
-8.6263 20.4309 3.24586 510.008 407.115
-3.88231 22.1024 -0.866804 528.325 416.529
1.28108 22.1759 -4.63117 549.35 419.73
6.47515 21.4134 -0.822825 570.957 420.23
10.9949 19.0014 3.3346 590.848 413.621
14.8404 15.817 8.24226 608.471 403.509
17.4907 11.7875 13.954 621.748 389.278
18.7252 7.09971 18.5421 629.679 371.375
19.0975 1.99893 20.9121 634.377 351.046
19.058 -3.32976 21.2004 637.559 329.342
18.7591 -8.64296 21.5921 639.674 307.548
-17.0347 -13.4254 0.0785808 497.035 263.641
-14.9355 -15.6508 -1.53389 507 255.748
-12.0948 -16.7244 -3.00343 519.261 253.025
-9.09711 -16.9026 -4.42002 531.599 254.053
-6.15227 -16.484 -5.67993 543.346 257.492
3.72604 -17.1044 -5.68466 583.983 261.168
6.40473 -17.987 -4.33271 595.439 259.377
9.25173 -18.316 -2.84017 607.232 259.96
12.1239 -17.8834 -1.28596 618.648 263.666
14.5582 -16.2661 0.280482 627.537 271.925
-0.594446 -11.8618 -5.06337 563.083 279.866
-0.378679 -9.09723 -7.71989 562.25 291.021
-0.167543 -6.36974 -10.5871 561.424 302.004
0.0350679 -3.64875 -13.4346 560.567 312.956
-2.93359 -0.11494 -6.05019 546.186 326.156
-1.34082 0.0607824 -7.17565 552.575 327.77
0.286978 0.0294218 -8.22029 559.237 328.57
1.82469 -0.145222 -7.14637 565.602 328.921
3.31624 -0.529094 -6.01283 571.91 328.397
-12.7967 -9.70867 -0.889426 511.977 281.353
-11.0391 -10.9918 -0.979098 519.945 277.222
-8.83351 -11.2495 -1.15457 529.094 277.541
-6.91727 -10.3524 -1.08539 536.338 282.405
-8.78978 -9.56398 -1.16233 528.214 284.434
-10.8538 -9.30832 -1.10724 519.644 284.184
5.5207 -11.2421 -0.96505 587.572 286.602
7.26004 -12.4034 -1.0231 595.388 282.958
9.46607 -12.5037 -0.837645 604.438 283.951
11.3843 -11.4916 -0.750835 611.617 289.287
9.54753 -10.7835 -0.975286 603.691 290.997
7.47893 -10.7372 -1.03085 595.234 289.882
-7.44869 8.84645 -2.94462 522.136 360.106
-4.81406 7.45025 -4.82317 533.763 355.903
-2.16414 6.34442 -6.54019 545.27 352.906
0.579791 6.35495 -8.259 556.459 354.516
3.23334 5.9981 -6.48538 567.478 354.89
5.92429 6.7589 -4.72849 577.948 359.838
8.59754 7.82499 -2.81928 588.153 366.032
6.7184 10.1396 -4.22056 579.057 374.153
4.02219 11.6146 -5.52164 567.157 378.35
0.873808 12.0826 -6.80802 554.047 378.163
-2.32449 12.0032 -5.56226 541.055 375.944
-5.21797 10.8942 -4.23163 529.95 369.731
-2.63588 8.26735 -5.33599 542.13 360.552
0.667414 8.02056 -7.57002 555.764 361.418
3.89101 7.86065 -5.23449 568.977 363.003
4.09938 8.96317 -4.53458 569.127 367.688
0.742155 9.41159 -6.32682 555.184 367.244
-2.71814 9.40596 -4.60105 541.073 365.205
3 20 21 23
3 21 22 23
3 0 1 36
3 15 16 45
3 0 17 36
3 16 26 45
3 17 18 37
3 25 26 44
3 17 36 37
3 26 44 45
3 18 19 38
3 24 25 43
3 18 37 38
3 25 43 44
3 19 20 38
3 23 24 43
3 20 21 39
3 22 23 42
3 20 38 39
3 23 42 43
3 21 22 27
3 21 27 39
3 22 27 42
3 27 28 42
3 27 28 39
3 28 42 47
3 28 39 40
3 1 36 41
3 15 45 46
3 1 2 41
3 14 15 46
3 28 29 40
3 28 29 47
3 2 40 41
3 14 46 47
3 2 29 40
3 14 29 47
3 2 3 29
3 13 14 29
3 29 30 31
3 29 30 35
3 3 29 31
3 13 29 35
3 30 32 33
3 30 33 34
3 30 31 32
3 30 34 35
3 3 4 31
3 12 13 35
3 4 5 48
3 11 12 54
3 5 6 48
3 10 11 54
3 6 48 59
3 10 54 55
3 6 7 59
3 9 10 55
3 7 58 59
3 9 55 56
3 8 57 58
3 8 56 57
3 7 8 58
3 8 9 56
3 4 31 48
3 12 35 54
3 31 48 49
3 35 53 54
3 31 49 50
3 35 52 53
3 31 32 50
3 34 35 52
3 32 33 50
3 33 34 52
3 33 50 51
3 33 51 52
3 48 49 60
3 49 60 50
3 50 60 61
3 50 51 61
3 51 52 61
3 61 62 52
3 52 53 62
3 53 54 62
3 54 55 63
3 55 56 63
3 56 63 64
3 56 57 64
3 64 65 57
3 57 58 65
3 58 59 65
3 48 59 65
