ply
format ascii 1.0
element vertex 66
property float x
property float y
property float z
property float u
property float v
element face 91
property list uchar int vertex_indices
end_header
-20.4635 -6.06207 21.5343 476.435 302.865
-20.0054 -0.537589 21.0017 475.708 324.858
-19.3306 4.99562 20.7103 475.809 347.108
-18.299 10.1818 18.4464 477.82 367.218
-16.5321 14.6629 13.6367 483.522 383.678
-13.3491 18.1244 7.99031 495.528 396.38
-8.99355 20.4259 3.17023 512.664 405.429
-4.0923 21.811 -0.895338 532.309 411.453
1.15979 21.7392 -4.6356 554.01 411.997
6.49546 21.0152 -0.734781 575.148 413.597
11.1345 18.6729 3.39093 594.232 408.509
15.0795 15.5455 8.19333 610.799 400.269
17.8412 11.5898 13.7882 622.891 388.516
19.2531 7.01646 18.4625 630.009 373.198
19.7371 1.96679 20.8016 634.002 354.417
19.6731 -3.36826 21.0158 636.27 333.223
19.2956 -8.67294 21.3997 637.238 312.075
-17.1055 -13.8517 0.0955085 497.039 263.34
-14.9292 -15.9184 -1.47446 507.011 255.437
-12.1153 -16.8127 -2.89551 518.955 252.594
-9.20624 -16.8267 -4.31818 530.859 253.305
-6.38189 -16.2666 -5.60729 542.127 256.326
3.8826 -16.7039 -5.65148 583.529 259.643
6.44968 -17.6435 -4.27456 594.062 257.819
9.21251 -18.0613 -2.78378 605.112 258.227
12.0398 -17.7186 -1.28264 616.054 261.702
14.4787 -16.1657 0.267349 624.85 269.832
-0.548435 -11.347 -5.10378 563.095 279.059
-0.391965 -8.58454 -7.8089 562.826 288.867
-0.244887 -5.85001 -10.6348 562.553 298.503
-0.0986336 -3.1133 -13.3464 562.257 308.2
-2.94755 0.0772824 -6.0906 548.147 322.938
-1.36027 0.300211 -7.17535 554.581 324.1
0.277455 0.295081 -8.13385 561.306 324.436
1.81941 0.107365 -7.08909 567.417 324.946
3.28044 -0.317881 -6.0519 573.319 324.465
-13.1516 -9.79806 -1.06425 511.143 280.905
-11.2481 -10.9673 -0.994001 519.331 277.22
-8.9693 -11.2077 -1.00398 528.591 277.385
-7.00192 -10.3024 -0.90709 536.035 282.013
-8.9911 -9.56402 -1.15847 527.74 283.853
-11.1484 -9.35997 -1.15928 518.986 283.598
5.59608 -11.0875 -0.892553 586.958 285.127
7.3751 -12.1783 -0.935901 594.626 281.639
9.61789 -12.2737 -0.856198 603.658 282.407
11.6169 -11.3625 -0.86043 611.242 287.026
9.73558 -10.6567 -1.01373 603.38 288.835
7.60937 -10.6052 -1.0525 594.83 287.97
-5.97041 9.02205 -3.0031 531.24 358.553
-3.96611 7.34901 -4.93638 540.39 351.963
-1.77435 6.01558 -6.64333 550.094 346.926
0.629811 5.97578 -8.42126 560.041 347.116
2.9768 5.71717 -6.43397 569.268 348.187
5.25837 6.73724 -4.71789 577.661 354.194
7.34758 8.16936 -2.81851 585.057 361.834
5.84162 10.0474 -4.07749 578.313 367.979
3.67334 11.2935 -5.4088 569.226 371.243
1.01344 11.6788 -6.85846 558.598 370.776
-1.70486 11.6249 -5.5832 547.515 369.819
-4.09643 10.6938 -4.19506 538.146 365.581
-1.90013 7.8963 -5.29579 548.474 354.997
0.75065 7.51634 -7.42263 559.629 353.789
3.38626 7.57406 -5.09507 569.808 356.424
3.55922 8.86224 -4.39516 569.774 361.975
0.888488 9.26954 -6.13523 559.138 361.453
-1.86339 9.21542 -4.57676 547.875 360.613
3 20 21 23
3 21 22 23
3 0 1 36
3 15 16 45
3 0 17 36
3 16 26 45
3 17 18 37
3 25 26 44
3 17 36 37
3 26 44 45
3 18 19 38
3 24 25 43
3 18 37 38
3 25 43 44
3 19 20 38
3 23 24 43
3 20 21 39
3 22 23 42
3 20 38 39
3 23 42 43
3 21 22 27
3 21 27 39
3 22 27 42
3 27 28 42
3 27 28 39
3 28 42 47
3 28 39 40
3 1 36 41
3 15 45 46
3 1 2 41
3 14 15 46
3 28 29 40
3 28 29 47
3 2 40 41
3 14 46 47
3 2 29 40
3 14 29 47
3 2 3 29
3 13 14 29
3 29 30 31
3 29 30 35
3 3 29 31
3 13 29 35
3 30 32 33
3 30 33 34
3 30 31 32
3 30 34 35
3 3 4 31
3 12 13 35
3 4 5 48
3 11 12 54
3 5 6 48
3 10 11 54
3 6 48 59
3 10 54 55
3 6 7 59
3 9 10 55
3 7 58 59
3 9 55 56
3 8 57 58
3 8 56 57
3 7 8 58
3 8 9 56
3 4 31 48
3 12 35 54
3 31 48 49
3 35 53 54
3 31 49 50
3 35 52 53
3 31 32 50
3 34 35 52
3 32 33 50
3 33 34 52
3 33 50 51
3 33 51 52
3 48 49 60
3 49 60 50
3 50 60 61
3 50 51 61
3 51 52 61
3 61 62 52
3 52 53 62
3 53 54 62
3 54 55 63
3 55 56 63
3 56 63 64
3 56 57 64
3 64 65 57
3 57 58 65
3 58 59 65
3 48 59 65
