ply
format ascii 1.0
element vertex 66
property float x
property float y
property float z
property float u
property float v
element face 91
property list uchar int vertex_indices
end_header
-19.8635 -5.71291 21.4226 480.14 296.366
-19.3232 -0.409015 20.9535 478.916 318.365
-18.6008 4.89641 20.6571 478.434 340.51
-17.5651 9.93156 18.4154 479.457 361.515
-15.7987 14.4019 13.7618 483.896 380.389
-12.7296 17.9808 8.10201 494.273 396.339
-8.59514 20.5487 3.21444 509.65 408.939
-3.91692 22.2938 -0.870081 527.768 418.623
1.20834 22.4115 -4.64206 548.767 421.976
6.39955 21.5903 -0.804631 570.461 422.46
10.8585 19.0582 3.32169 590.263 415.502
14.6503 15.7902 8.23878 607.791 405.195
17.2837 11.7136 13.9248 621.084 390.92
18.5646 7.01409 18.4994 629.272 373.08
18.9832 1.91267 20.8168 634.244 352.759
18.9503 -3.40795 21.1049 637.56 330.999
18.6492 -8.71409 21.4954 639.766 309.136
-16.8556 -13.4624 0.10011 498.007 264.001
-14.8195 -15.7127 -1.54497 507.845 255.915
-12.0252 -16.8296 -2.9986 520.047 252.984
-9.05542 -17.0305 -4.40098 532.37 253.921
-6.13147 -16.6231 -5.64137 544.107 257.338
3.70688 -17.2233 -5.67537 584.777 261.275
6.34551 -18.1078 -4.33217 596.122 259.536
9.15497 -18.4284 -2.83952 607.797 260.233
11.9838 -17.982 -1.28687 619.051 264.089
14.375 -16.3741 0.283989 627.758 272.416
-0.560949 -11.9069 -5.06624 563.835 280.331
-0.356733 -9.12928 -7.72384 562.93 291.506
-0.157308 -6.38527 -10.5629 562.032 302.518
0.0327285 -3.64657 -13.3624 561.098 313.507
-2.85419 -0.242102 -6.01653 546.889 326.46
-1.30241 -0.0628715 -7.13649 553.153 328.066
0.288966 -0.0871245 -8.18134 559.709 328.873
1.78656 -0.257137 -7.10276 565.925 329.283
3.2353 -0.632641 -5.97566 572.073 328.827
-12.4204 -9.84614 -0.947556 513.841 281.556
-10.7519 -11.0608 -0.987178 521.463 277.665
-8.65663 -11.3227 -1.11771 530.214 277.94
-6.83203 -10.4941 -1.01702 537.144 282.53
-8.60477 -9.70759 -1.13051 529.377 284.582
-10.5692 -9.46263 -1.10574 521.175 284.31
5.52712 -11.3898 -0.913433 588.324 286.914
7.18072 -12.4637 -0.986236 595.793 283.585
9.27489 -12.5436 -0.842452 604.416 284.638
11.0895 -11.5828 -0.814316 611.22 289.753
9.34477 -10.9056 -0.980936 603.641 291.369
7.38027 -10.8665 -1.01049 595.573 290.249
-7.25627 8.89294 -2.93361 522.855 361.358
-4.71132 7.49686 -4.83025 534.227 357.068
-2.13193 6.35929 -6.53344 545.568 353.882
0.573522 6.36408 -8.2539 556.684 355.45
3.19241 6.02598 -6.46452 567.582 355.988
5.80828 6.83747 -4.71746 577.722 361.224
8.37485 7.92559 -2.7948 587.477 367.581
6.60245 10.2946 -4.22663 578.715 375.948
4.00314 11.8651 -5.516 567.084 380.527
0.869187 12.3804 -6.83506 553.95 380.437
-2.31642 12.2429 -5.56969 540.966 377.957
-5.12943 11.023 -4.23519 530.21 371.299
-2.50006 8.24162 -5.30047 542.808 361.496
0.652386 7.96605 -7.54032 555.948 362.145
3.72941 7.86737 -5.18295 568.553 364.03
3.95732 9.24894 -4.49204 568.572 369.916
0.751621 9.77315 -6.29013 555.15 369.757
-2.57224 9.66491 -4.57759 541.57 367.362
3 20 21 23
3 21 22 23
3 0 1 36
3 15 16 45
3 0 17 36
3 16 26 45
3 17 18 37
3 25 26 44
3 17 36 37
3 26 44 45
3 18 19 38
3 24 25 43
3 18 37 38
3 25 43 44
3 19 20 38
3 23 24 43
3 20 21 39
3 22 23 42
3 20 38 39
3 23 42 43
3 21 22 27
3 21 27 39
3 22 27 42
3 27 28 42
3 27 28 39
3 28 42 47
3 28 39 40
3 1 36 41
3 15 45 46
3 1 2 41
3 14 15 46
3 28 29 40
3 28 29 47
3 2 40 41
3 14 46 47
3 2 29 40
3 14 29 47
3 2 3 29
3 13 14 29
3 29 30 31
3 29 30 35
3 3 29 31
3 13 29 35
3 30 32 33
3 30 33 34
3 30 31 32
3 30 34 35
3 3 4 31
3 12 13 35
3 4 5 48
3 11 12 54
3 5 6 48
3 10 11 54
3 6 48 59
3 10 54 55
3 6 7 59
3 9 10 55
3 7 58 59
3 9 55 56
3 8 57 58
3 8 56 57
3 7 8 58
3 8 9 56
3 4 31 48
3 12 35 54
3 31 48 49
3 35 53 54
3 31 49 50
3 35 52 53
3 31 32 50
3 34 35 52
3 32 33 50
3 33 34 52
3 33 50 51
3 33 51 52
3 48 49 60
3 49 60 50
3 50 60 61
3 50 51 61
3 51 52 61
3 61 62 52
3 52 53 62
3 53 54 62
3 54 55 63
3 55 56 63
3 56 63 64
3 56 57 64
3 64 65 57
3 57 58 65
3 58 59 65
3 48 59 65
