ply
format ascii 1.0
element vertex 66
property float x
property float y
property float z
property float u
property float v
element face 91
property list uchar int vertex_indices
end_header
-19.6439 -6.10519 21.5518 474.728 300.44
-18.9251 -0.578123 21.1736 474.716 324.467
-18.0851 4.92237 20.6551 475.252 348.418
-17.1823 10.3916 18.5275 476.216 371.933
-15.7439 15.6067 13.823 479.849 394.118
-12.8309 19.8772 7.89543 490.454 412.836
-8.67064 22.9387 3.27663 506.982 427.358
-3.80127 24.7434 -0.972944 527.232 436.974
1.37963 24.9407 -4.81485 549.695 439.962
6.61598 23.6937 -0.713625 572.516 438.466
11.0539 20.6206 3.58807 592.928 428.728
14.5927 16.5439 8.19991 610.021 414.241
16.9369 11.7182 14.0384 622.303 396.12
18.0307 6.53261 18.4994 629.544 375.453
18.4275 1.39106 20.6636 633.969 354.092
18.5174 -3.74975 21.0108 637.235 332.176
18.3303 -8.91116 21.2278 639.336 309.987
-16.4474 -14.2726 -0.00359043 494.963 262.695
-14.3891 -16.2579 -1.63935 505.066 255.011
-11.6163 -17.21 -3.04641 517.629 252.213
-8.67547 -17.3865 -4.4202 530.472 252.842
-5.74027 -16.9618 -5.59843 542.933 256.087
3.70956 -17.3734 -5.79027 583.743 259.668
6.22116 -18.1206 -4.49004 594.833 258.171
8.86217 -18.3549 -2.9988 606.17 258.987
11.4885 -18.0215 -1.45336 617.118 262.239
13.6826 -16.665 0.161704 625.626 269.647
-0.417497 -12.3964 -4.98057 563.14 278.825
-0.30785 -9.46207 -7.62475 562.181 290.91
-0.208662 -6.56025 -10.5305 561.218 302.794
-0.118072 -3.68564 -13.4653 560.236 314.551
-2.7628 -0.136095 -5.80475 546.203 329.879
-1.24278 0.02831 -7.08669 552.746 331.179
0.314735 0.0549665 -8.36214 559.528 331.912
1.71106 -0.118543 -7.03127 565.503 332.245
3.06282 -0.432178 -5.74031 571.369 331.943
-12.4654 -10.3796 -1.10307 509.946 281.423
-10.8574 -11.8208 -1.18243 517.672 276.144
-8.67708 -12.1805 -1.11346 527.227 275.859
-6.72284 -11.2596 -0.812052 535.067 280.985
-8.50611 -10.3354 -0.976599 526.904 283.896
-10.5403 -10.0369 -0.974349 518.004 284.017
5.44332 -12.0153 -0.915022 587.723 284.658
7.18847 -13.0657 -1.05674 595.821 281.119
9.32937 -13.0442 -1.06358 604.998 282.43
11.0262 -11.7702 -0.976085 611.552 288.878
9.22529 -11.1866 -0.910116 603.486 290.368
7.23524 -11.2805 -0.977332 595.004 288.817
-6.11855 9.63028 -2.95865 526.019 370.439
-3.60346 8.81322 -4.97854 537.454 367.943
-1.43888 7.99994 -6.73198 547.359 365.32
0.706811 8.3625 -8.12745 556.486 367.802
2.71805 7.75645 -6.53933 565.322 366.686
4.8371 8.28541 -4.75501 573.961 370.538
7.20462 8.86216 -2.76339 583.622 374.781
5.03232 9.35316 -4.03697 574.132 375.379
2.69983 9.17768 -5.24181 564.325 373.043
0.722256 9.15728 -6.59625 555.968 371.542
-1.29559 9.39015 -5.41013 547.071 371.641
-3.70896 9.86837 -4.17849 536.333 372.575
-1.33312 9.67428 -5.38862 546.747 372.842
0.830516 9.90485 -7.18275 556.06 374.685
2.87129 9.46732 -5.11603 564.886 374.409
2.66495 7.15637 -4.48933 565.254 364.516
0.634384 6.87553 -6.40598 556.866 361.749
-1.42592 7.39609 -4.76279 547.584 363.154
3 20 21 23
3 21 22 23
3 0 1 36
3 15 16 45
3 0 17 36
3 16 26 45
3 17 18 37
3 25 26 44
3 17 36 37
3 26 44 45
3 18 19 38
3 24 25 43
3 18 37 38
3 25 43 44
3 19 20 38
3 23 24 43
3 20 21 39
3 22 23 42
3 20 38 39
3 23 42 43
3 21 22 27
3 21 27 39
3 22 27 42
3 27 28 42
3 27 28 39
3 28 42 47
3 28 39 40
3 1 36 41
3 15 45 46
3 1 2 41
3 14 15 46
3 28 29 40
3 28 29 47
3 2 40 41
3 14 46 47
3 2 29 40
3 14 29 47
3 2 3 29
3 13 14 29
3 29 30 31
3 29 30 35
3 3 29 31
3 13 29 35
3 30 32 33
3 30 33 34
3 30 31 32
3 30 34 35
3 3 4 31
3 12 13 35
3 4 5 48
3 11 12 54
3 5 6 48
3 10 11 54
3 6 48 59
3 10 54 55
3 6 7 59
3 9 10 55
3 7 58 59
3 9 55 56
3 8 57 58
3 8 56 57
3 7 8 58
3 8 9 56
3 4 31 48
3 12 35 54
3 31 48 49
3 35 53 54
3 31 49 50
3 35 52 53
3 31 32 50
3 34 35 52
3 32 33 50
3 33 34 52
3 33 50 51
3 33 51 52
3 48 49 60
3 49 60 50
3 50 60 61
3 50 51 61
3 51 52 61
3 61 62 52
3 52 53 62
3 53 54 62
3 54 55 63
3 55 56 63
3 56 63 64
3 56 57 64
3 64 65 57
3 57 58 65
3 58 59 65
3 48 59 65
