ply
format ascii 1.0
element vertex 66
property float x
property float y
property float z
property float u
property float v
element face 91
property list uchar int vertex_indices
end_header
-20.5954 -5.98182 21.5165 474.878 302.633
-20.1325 -0.514613 20.996 474.236 324.439
-19.4356 4.95643 20.7236 474.484 346.492
-18.3498 10.0878 18.4594 476.844 366.455
-16.5093 14.5302 13.6131 483.066 382.841
-13.3005 17.9853 7.99913 495.402 395.607
-8.97031 20.3255 3.20125 512.612 404.859
-4.10286 21.769 -0.88725 532.268 411.129
1.12447 21.7649 -4.63626 553.992 411.957
6.45391 21.0437 -0.73642 574.976 413.535
11.0995 18.7161 3.40857 593.931 408.478
15.0579 15.59 8.18559 610.382 400.187
17.8679 11.6412 13.7549 622.459 388.413
19.3344 7.05771 18.5021 629.604 373.057
19.8589 1.99072 20.8367 633.666 354.182
19.821 -3.35197 21.0543 636.014 332.942
19.4594 -8.66602 21.4307 637.018 311.73
-17.2183 -13.7554 0.0950542 496.315 263.31
-15.0448 -15.84 -1.48498 506.343 255.333
-12.2118 -16.7326 -2.90635 518.422 252.513
-9.27965 -16.7351 -4.3367 530.476 253.29
-6.43275 -16.1642 -5.62499 541.888 256.379
3.86112 -16.6245 -5.65245 583.449 259.631
6.48814 -17.5919 -4.28336 594.191 257.709
9.30872 -18.0267 -2.79428 605.434 258.065
12.1876 -17.6651 -1.29994 616.532 261.63
14.645 -16.0583 0.270094 625.329 269.992
-0.582297 -11.3592 -5.07297 562.987 278.712
-0.405817 -8.5784 -7.80444 562.905 288.626
-0.238422 -5.82339 -10.6384 562.819 298.385
-0.0721761 -3.06638 -13.3391 562.701 308.213
-2.95794 0.0972003 -6.08304 548.192 322.786
-1.35963 0.336007 -7.18141 554.711 324.02
0.291124 0.33635 -8.14745 561.528 324.39
1.85165 0.133253 -7.09562 567.686 324.842
3.32417 -0.317772 -6.05946 573.612 324.254
-13.2936 -9.71898 -1.05283 510.379 280.83
-11.3763 -10.9359 -0.988979 518.644 276.954
-9.05646 -11.1915 -1.00189 528.084 277.077
-7.05231 -10.2785 -0.933621 535.684 281.746
-9.06336 -9.49766 -1.17233 527.284 283.754
-11.2541 -9.27679 -1.15922 518.379 283.556
5.56955 -11.0709 -0.882501 586.736 284.862
7.38608 -12.1926 -0.935494 594.575 281.261
9.6777 -12.2826 -0.860426 603.805 282.072
11.7097 -11.3402 -0.856139 611.516 286.842
9.79085 -10.6163 -1.00683 603.495 288.71
7.62281 -10.5659 -1.04336 594.772 287.82
-5.85233 8.96895 -3.0076 531.748 358.19
-3.90774 7.26245 -4.93108 540.744 351.448
-1.74167 5.9249 -6.629 550.41 346.393
0.64429 5.90473 -8.41212 560.348 346.665
2.97544 5.62548 -6.43297 569.456 347.627
5.23949 6.65067 -4.72578 577.727 353.635
7.2877 8.11149 -2.81865 584.885 361.368
5.80895 10.0115 -4.08474 578.289 367.628
3.65669 11.2667 -5.43452 569.312 370.943
1.02027 11.6581 -6.89444 558.824 370.519
-1.66144 11.5951 -5.60013 547.833 369.541
-4.02161 10.6568 -4.18987 538.527 365.283
-1.77059 7.86801 -5.29008 549.108 354.757
0.766024 7.5278 -7.39614 559.866 353.676
3.28418 7.55749 -5.10817 569.518 356.107
3.43592 8.71171 -4.42011 569.444 361.109
0.885386 9.10872 -6.13487 559.347 360.631
-1.73966 9.04943 -4.57822 548.531 359.818
3 20 21 23
3 21 22 23
3 0 1 36
3 15 16 45
3 0 17 36
3 16 26 45
3 17 18 37
3 25 26 44
3 17 36 37
3 26 44 45
3 18 19 38
3 24 25 43
3 18 37 38
3 25 43 44
3 19 20 38
3 23 24 43
3 20 21 39
3 22 23 42
3 20 38 39
3 23 42 43
3 21 22 27
3 21 27 39
3 22 27 42
3 27 28 42
3 27 28 39
3 28 42 47
3 28 39 40
3 1 36 41
3 15 45 46
3 1 2 41
3 14 15 46
3 28 29 40
3 28 29 47
3 2 40 41
3 14 46 47
3 2 29 40
3 14 29 47
3 2 3 29
3 13 14 29
3 29 30 31
3 29 30 35
3 3 29 31
3 13 29 35
3 30 32 33
3 30 33 34
3 30 31 32
3 30 34 35
3 3 4 31
3 12 13 35
3 4 5 48
3 11 12 54
3 5 6 48
3 10 11 54
3 6 48 59
3 10 54 55
3 6 7 59
3 9 10 55
3 7 58 59
3 9 55 56
3 8 57 58
3 8 56 57
3 7 8 58
3 8 9 56
3 4 31 48
3 12 35 54
3 31 48 49
3 35 53 54
3 31 49 50
3 35 52 53
3 31 32 50
3 34 35 52
3 32 33 50
3 33 34 52
3 33 50 51
3 33 51 52
3 48 49 60
3 49 60 50
3 50 60 61
3 50 51 61
3 51 52 61
3 61 62 52
3 52 53 62
3 53 54 62
3 54 55 63
3 55 56 63
3 56 63 64
3 56 57 64
3 64 65 57
3 57 58 65
3 58 59 65
3 48 59 65
