ply
format ascii 1.0
element vertex 66
property float x
property float y
property float z
property float u
property float v
element face 91
property list uchar int vertex_indices
end_header
-20.7896 -6.17187 21.6752 477.587 303.117
-20.3082 -0.612221 21.1939 476.818 324.795
-19.6074 4.95009 20.8989 476.886 346.691
-18.6177 10.2065 18.5547 478.52 366.472
-16.9043 14.8079 13.6065 483.679 382.707
-13.6361 18.3315 7.96984 495.578 395.163
-9.14525 20.6204 3.28678 512.764 403.917
-4.10225 21.8794 -0.901439 532.56 409.191
1.20518 21.7579 -4.69731 554.02 409.417
6.58362 21.0801 -0.743644 574.975 411.548
11.3696 18.8572 3.50608 594.317 407.507
15.4351 15.7335 8.17373 611.209 399.806
18.2544 11.7165 13.7602 623.511 388.472
19.5799 7.04893 18.5734 630.359 373.442
19.9995 1.957 20.981 634.181 355.047
19.9512 -3.38775 21.1952 636.585 334.286
19.591 -8.70589 21.5364 637.731 313.539
-17.6478 -13.6955 0.0841597 496.59 264.106
-15.3275 -15.8166 -1.54425 506.982 256.155
-12.3496 -16.6882 -2.96033 519.32 253.52
-9.28427 -16.6568 -4.35748 531.557 254.462
-6.3055 -16.0412 -5.61834 543.147 257.709
3.80456 -16.4448 -5.65951 583.13 261.215
6.51926 -17.4512 -4.30949 594.12 259.363
9.43074 -17.9272 -2.84759 605.61 259.737
12.4148 -17.6226 -1.35472 616.998 263.209
14.9967 -16.0281 0.268453 626.152 271.577
-0.542631 -11.208 -5.06361 563.373 279.759
-0.376442 -8.36753 -7.8169 563.009 289.487
-0.219627 -5.55625 -10.7028 562.64 299.028
-0.0632463 -2.74373 -13.4441 562.25 308.649
-3.0046 0.427723 -6.12121 548.12 323.351
-1.37009 0.66499 -7.22786 554.586 324.525
0.313577 0.663748 -8.23078 561.348 324.847
1.89914 0.464044 -7.13821 567.535 325.438
3.40164 0.0164782 -6.07632 573.522 325.003
-13.3903 -9.60266 -0.992873 511.479 281.658
-11.4495 -10.837 -1.05263 519.729 277.792
-9.11721 -11.0736 -1.08269 529.026 278.03
-7.07937 -10.1053 -0.979892 536.555 282.889
-9.12353 -9.38936 -1.1652 528.186 284.553
-11.3258 -9.18348 -1.13421 519.416 284.261
5.65671 -10.882 -0.964012 587.046 286.295
7.49784 -12.0405 -1.0155 594.865 282.678
9.79172 -12.1453 -0.916134 603.929 283.479
11.8337 -11.1736 -0.785771 611.468 288.367
9.88856 -10.4813 -0.987265 603.503 289.981
7.71868 -10.4279 -1.05743 594.948 289.058
-6.35364 8.89653 -3.03945 530.366 356.3
-4.19996 7.15147 -5.01199 539.965 349.552
-1.86882 5.84789 -6.68472 550.006 344.772
0.630348 5.87092 -8.34234 560.054 345.26
3.06228 5.53621 -6.47191 569.531 346.156
5.47914 6.50486 -4.79225 578.336 352.029
7.72923 7.98729 -2.85519 586.197 359.956
5.94841 9.62839 -3.99884 578.541 364.863
3.56877 10.5247 -5.33395 568.92 366.463
0.966067 10.7493 -6.79624 558.769 365.263
-1.6788 10.8475 -5.50981 548.139 364.982
-4.2322 10.2906 -4.12362 538.176 362.243
-1.82801 8.0343 -5.39314 548.917 353.994
0.783438 7.80805 -7.33424 559.568 353.418
3.35933 7.71772 -5.18954 569.454 355.483
3.39821 7.82513 -4.48748 569.459 356.288
0.809709 7.90015 -6.28171 559.482 354.339
-1.81799 8.16282 -4.66831 548.794 354.878
3 20 21 23
3 21 22 23
3 0 1 36
3 15 16 45
3 0 17 36
3 16 26 45
3 17 18 37
3 25 26 44
3 17 36 37
3 26 44 45
3 18 19 38
3 24 25 43
3 18 37 38
3 25 43 44
3 19 20 38
3 23 24 43
3 20 21 39
3 22 23 42
3 20 38 39
3 23 42 43
3 21 22 27
3 21 27 39
3 22 27 42
3 27 28 42
3 27 28 39
3 28 42 47
3 28 39 40
3 1 36 41
3 15 45 46
3 1 2 41
3 14 15 46
3 28 29 40
3 28 29 47
3 2 40 41
3 14 46 47
3 2 29 40
3 14 29 47
3 2 3 29
3 13 14 29
3 29 30 31
3 29 30 35
3 3 29 31
3 13 29 35
3 30 32 33
3 30 33 34
3 30 31 32
3 30 34 35
3 3 4 31
3 12 13 35
3 4 5 48
3 11 12 54
3 5 6 48
3 10 11 54
3 6 48 59
3 10 54 55
3 6 7 59
3 9 10 55
3 7 58 59
3 9 55 56
3 8 57 58
3 8 56 57
3 7 8 58
3 8 9 56
3 4 31 48
3 12 35 54
3 31 48 49
3 35 53 54
3 31 49 50
3 35 52 53
3 31 32 50
3 34 35 52
3 32 33 50
3 33 34 52
3 33 50 51
3 33 51 52
3 48 49 60
3 49 60 50
3 50 60 61
3 50 51 61
3 51 52 61
3 61 62 52
3 52 53 62
3 53 54 62
3 54 55 63
3 55 56 63
3 56 63 64
3 56 57 64
3 64 65 57
3 57 58 65
3 58 59 65
3 48 59 65
