ply
format ascii 1.0
element vertex 66
property float x
property float y
property float z
property float u
property float v
element face 91
property list uchar int vertex_indices
end_header
-20.4985 -6.05194 21.534 476.49 302.411
-20.0268 -0.529917 21.0029 475.787 324.453
-19.3425 4.99994 20.6989 475.899 346.734
-18.2921 10.1921 18.4535 477.941 366.982
-16.4957 14.6787 13.6304 483.712 383.635
-13.2948 18.1397 7.99142 495.745 396.53
-8.945 20.452 3.1728 512.824 405.779
-4.06393 21.8667 -0.898063 532.358 412.043
1.17346 21.8153 -4.64048 553.984 412.78
6.49179 21.0555 -0.735726 575.116 414.145
11.0998 18.6665 3.38915 594.152 408.75
15.0252 15.5125 8.19214 610.715 400.263
17.7948 11.5462 13.7799 622.912 388.307
19.2391 6.97484 18.4481 630.219 372.864
19.7438 1.94362 20.7685 634.333 354.068
19.6838 -3.35955 20.9848 636.631 332.964
19.3084 -8.63377 21.3701 637.623 311.894
-17.1154 -13.8125 0.098265 497.097 263.543
-14.9338 -15.9214 -1.4848 507.121 255.506
-12.0902 -16.8488 -2.90271 519.206 252.59
-9.13908 -16.8694 -4.31705 531.282 253.348
-6.26996 -16.2997 -5.5922 542.721 256.484
3.81233 -16.7106 -5.64486 583.416 259.852
6.38805 -17.657 -4.27499 594.011 257.971
9.16063 -18.0744 -2.78758 605.121 258.352
11.9939 -17.7297 -1.28469 616.103 261.813
14.4337 -16.1769 0.27131 624.912 269.925
-0.512842 -11.3869 -5.09669 563.382 279.191
-0.359622 -8.61515 -7.80299 563.065 289.123
-0.21588 -5.87075 -10.6298 562.741 298.888
-0.073898 -3.12492 -13.3448 562.392 308.707
-2.9477 0.0466599 -6.09602 548.212 323.172
-1.3504 0.286032 -7.17058 554.673 324.445
0.30111 0.288393 -8.12786 561.45 324.851
1.84852 0.097116 -7.07951 567.597 325.328
3.31045 -0.339717 -6.04096 573.522 324.777
-13.0043 -9.83341 -1.0659 511.854 280.96
-11.1308 -10.9918 -1.00087 519.929 277.299
-8.8834 -11.2318 -1.01049 529.072 277.458
-6.9398 -10.3338 -0.889463 536.423 282.067
-8.90009 -9.59924 -1.13938 528.233 283.909
-11.0259 -9.39948 -1.15288 519.601 283.64
5.55921 -11.1018 -0.879029 586.987 285.242
7.31385 -12.1748 -0.934488 594.562 281.81
9.52305 -12.2678 -0.860162 603.468 282.574
11.4847 -11.3564 -0.868077 610.905 287.188
9.62927 -10.6601 -1.01299 603.138 288.977
7.53804 -10.6129 -1.03994 594.721 288.11
-6.11427 8.95954 -2.98757 530.701 358.561
-4.05023 7.3376 -4.92662 540.071 352.25
-1.81417 6.04135 -6.63212 549.938 347.429
0.623667 6.01278 -8.39922 560.01 347.742
2.99917 5.74633 -6.41919 569.378 348.748
5.30894 6.73241 -4.7038 577.915 354.604
7.43364 8.11977 -2.80505 585.486 362.05
5.91788 10.0562 -4.08145 578.654 368.454
3.71491 11.3469 -5.40984 569.383 371.914
1.00238 11.7503 -6.85913 558.515 371.524
-1.77533 11.6757 -5.58609 547.203 370.408
-4.21222 10.694 -4.20121 537.682 365.892
-1.94031 7.89653 -5.30747 548.331 355.364
0.741411 7.53504 -7.43208 559.598 354.31
3.40091 7.58153 -5.09016 569.9 356.869
3.58995 8.91659 -4.39118 569.905 362.605
0.884476 9.34654 -6.16249 559.101 362.18
-1.91042 9.26529 -4.58563 547.677 361.165
3 20 21 23
3 21 22 23
3 0 1 36
3 15 16 45
3 0 17 36
3 16 26 45
3 17 18 37
3 25 26 44
3 17 36 37
3 26 44 45
3 18 19 38
3 24 25 43
3 18 37 38
3 25 43 44
3 19 20 38
3 23 24 43
3 20 21 39
3 22 23 42
3 20 38 39
3 23 42 43
3 21 22 27
3 21 27 39
3 22 27 42
3 27 28 42
3 27 28 39
3 28 42 47
3 28 39 40
3 1 36 41
3 15 45 46
3 1 2 41
3 14 15 46
3 28 29 40
3 28 29 47
3 2 40 41
3 14 46 47
3 2 29 40
3 14 29 47
3 2 3 29
3 13 14 29
3 29 30 31
3 29 30 35
3 3 29 31
3 13 29 35
3 30 32 33
3 30 33 34
3 30 31 32
3 30 34 35
3 3 4 31
3 12 13 35
3 4 5 48
3 11 12 54
3 5 6 48
3 10 11 54
3 6 48 59
3 10 54 55
3 6 7 59
3 9 10 55
3 7 58 59
3 9 55 56
3 8 57 58
3 8 56 57
3 7 8 58
3 8 9 56
3 4 31 48
3 12 35 54
3 31 48 49
3 35 53 54
3 31 49 50
3 35 52 53
3 31 32 50
3 34 35 52
3 32 33 50
3 33 34 52
3 33 50 51
3 33 51 52
3 48 49 60
3 49 60 50
3 50 60 61
3 50 51 61
3 51 52 61
3 61 62 52
3 52 53 62
3 53 54 62
3 54 55 63
3 55 56 63
3 56 63 64
3 56 57 64
3 64 65 57
3 57 58 65
3 58 59 65
3 48 59 65
