ply
format ascii 1.0
element vertex 66
property float x
property float y
property float z
property float u
property float v
element face 91
property list uchar int vertex_indices
end_header
-19.7191 -6.09739 21.4696 474.96 301.134
-19.037 -0.562318 21.0731 474.635 324.989
-18.2256 4.9495 20.541 474.888 348.783
-17.2777 10.4047 18.475 475.905 371.982
-15.7473 15.5586 13.7568 479.841 393.49
-12.7914 19.7875 7.8802 490.515 411.582
-8.63372 22.8502 3.22407 506.888 425.774
-3.77523 24.7089 -0.965663 526.918 435.392
1.4377 24.9145 -4.79499 549.402 438.287
6.67047 23.6362 -0.730027 572.088 437.124
11.0621 20.5232 3.5183 592.253 427.701
14.5863 16.4731 8.18499 609.231 413.891
16.9447 11.6897 13.9982 621.56 396.59
18.0928 6.53359 18.4608 629.076 376.597
18.5234 1.3668 20.5841 633.764 355.464
18.5886 -3.81897 20.9584 637.072 333.536
18.3794 -9.02163 21.2048 639.232 311.336
-16.2727 -14.1938 0.0391313 496.513 262.631
-14.2695 -16.1652 -1.62643 506.384 254.96
-11.5628 -17.1164 -3.03203 518.628 252.126
-8.68796 -17.2816 -4.39957 531.121 252.748
-5.82521 -16.8512 -5.56709 543.191 255.956
3.77377 -17.2761 -5.74375 584.406 259.822
6.22526 -18.0602 -4.45038 595.202 258.315
8.817 -18.3322 -2.95539 606.274 259.128
11.4065 -18.0243 -1.41224 616.99 262.422
13.5881 -16.7033 0.189085 625.361 269.802
-0.442715 -12.2376 -5.02543 563.371 278.958
-0.343293 -9.33442 -7.67066 562.333 290.623
-0.251442 -6.4593 -10.5331 561.301 302.102
-0.165655 -3.60764 -13.3995 560.256 313.476
-2.79645 -0.223763 -5.8609 546.307 328.455
-1.30107 -0.03633 -7.07282 552.692 329.8
0.239186 0.00187045 -8.27591 559.356 330.539
1.64322 -0.184467 -7.01845 565.334 330.941
2.99614 -0.519471 -5.77677 571.183 330.675
-12.121 -10.3849 -1.17357 512.088 280.975
-10.5331 -11.7337 -1.20299 519.662 276.172
-8.41829 -12.0701 -1.1093 528.873 276.028
-6.53001 -11.1963 -0.73913 536.375 280.979
-8.27251 -10.3065 -0.948883 528.436 283.668
-10.2515 -10.0312 -1.00053 519.837 283.645
5.41123 -11.9796 -0.860706 587.788 284.733
7.10537 -12.9822 -1.03285 595.624 281.427
9.18514 -12.9613 -1.05551 604.486 282.75
10.8542 -11.7775 -1.02458 610.903 288.793
9.10204 -11.1944 -0.929439 603.075 290.257
7.16445 -11.2647 -0.96185 594.854 288.793
-6.15364 9.37678 -2.8891 526.023 368.164
-3.72148 8.51721 -4.93394 537.103 365.374
-1.55116 7.69065 -6.69883 547.02 362.648
0.636946 7.9934 -8.14103 556.314 364.831
2.7088 7.43859 -6.5105 565.323 364.169
4.84692 7.9859 -4.71213 573.947 368.286
7.16151 8.60777 -2.71516 583.26 372.882
5.12234 9.38057 -4.03196 574.231 374.58
2.84801 9.53412 -5.26066 564.557 373.528
0.716024 9.64794 -6.63299 555.528 372.35
-1.4699 9.77922 -5.42057 546.009 371.95
-3.86562 9.92487 -4.16021 535.582 371.5
-1.55645 9.19914 -5.33496 545.974 369.454
0.740931 9.31604 -7.21615 555.886 370.787
2.94203 8.96274 -5.08663 565.279 371.201
2.85356 7.66445 -4.4274 565.606 365.81
0.636628 7.63336 -6.35017 556.353 363.808
-1.63533 7.93891 -4.68462 546.32 364.228
3 20 21 23
3 21 22 23
3 0 1 36
3 15 16 45
3 0 17 36
3 16 26 45
3 17 18 37
3 25 26 44
3 17 36 37
3 26 44 45
3 18 19 38
3 24 25 43
3 18 37 38
3 25 43 44
3 19 20 38
3 23 24 43
3 20 21 39
3 22 23 42
3 20 38 39
3 23 42 43
3 21 22 27
3 21 27 39
3 22 27 42
3 27 28 42
3 27 28 39
3 28 42 47
3 28 39 40
3 1 36 41
3 15 45 46
3 1 2 41
3 14 15 46
3 28 29 40
3 28 29 47
3 2 40 41
3 14 46 47
3 2 29 40
3 14 29 47
3 2 3 29
3 13 14 29
3 29 30 31
3 29 30 35
3 3 29 31
3 13 29 35
3 30 32 33
3 30 33 34
3 30 31 32
3 30 34 35
3 3 4 31
3 12 13 35
3 4 5 48
3 11 12 54
3 5 6 48
3 10 11 54
3 6 48 59
3 10 54 55
3 6 7 59
3 9 10 55
3 7 58 59
3 9 55 56
3 8 57 58
3 8 56 57
3 7 8 58
3 8 9 56
3 4 31 48
3 12 35 54
3 31 48 49
3 35 53 54
3 31 49 50
3 35 52 53
3 31 32 50
3 34 35 52
3 32 33 50
3 33 34 52
3 33 50 51
3 33 51 52
3 48 49 60
3 49 60 50
3 50 60 61
3 50 51 61
3 51 52 61
3 61 62 52
3 52 53 62
3 53 54 62
3 54 55 63
3 55 56 63
3 56 63 64
3 56 57 64
3 64 65 57
3 57 58 65
3 58 59 65
3 48 59 65
