ply
format ascii 1.0
element vertex 66
property float x
property float y
property float z
property float u
property float v
element face 91
property list uchar int vertex_indices
end_header
-20.2397 -6.05183 21.4108 476.705 302.046
-19.7801 -0.557088 20.8977 475.851 324.314
-19.0809 4.94172 20.607 475.939 346.815
-17.9931 10.0991 18.3992 478.048 367.352
-16.2018 14.5815 13.5922 483.723 384.458
-13.0942 18.1225 8.00263 495.341 398.119
-8.84641 20.5583 3.16165 512.054 408.207
-4.03103 22.0906 -0.88137 531.423 415.259
1.19613 22.0948 -4.61121 553.201 416.469
6.48926 21.291 -0.728345 574.596 417.558
11.0173 18.8211 3.37075 593.696 411.594
14.8394 15.5893 8.19506 610.213 402.476
17.52 11.5736 13.7331 622.385 389.883
18.9486 6.99167 18.4177 629.873 373.999
19.485 1.94964 20.6985 634.3 354.804
19.4463 -3.36818 20.9215 636.817 333.351
19.0747 -8.65809 21.2936 637.944 311.9
-16.8666 -13.8941 0.075236 497.388 263.328
-14.7136 -15.9857 -1.49935 507.428 255.338
-11.9046 -16.909 -2.8981 519.517 252.49
-8.98611 -16.9251 -4.32212 531.594 253.36
-6.1526 -16.3526 -5.62825 543.009 256.617
3.71196 -16.8138 -5.65575 583.368 259.87
6.2761 -17.7676 -4.26774 594.088 257.911
9.0375 -18.1867 -2.77736 605.325 258.261
11.8535 -17.8171 -1.29954 616.383 261.827
14.2646 -16.2412 0.257353 625.171 270.097
-0.565915 -11.5008 -5.11133 563.191 279.371
-0.410095 -8.77167 -7.79172 562.811 289.401
-0.262392 -6.06751 -10.5715 562.424 299.286
-0.116276 -3.36208 -13.2414 562.014 309.219
-2.88702 -0.146246 -6.05726 548.108 323.734
-1.34537 0.0679655 -7.11208 554.416 324.971
0.247776 0.0604509 -8.05531 561.031 325.383
1.74942 -0.120262 -7.02709 567.087 325.854
3.16825 -0.530429 -6.01764 572.925 325.345
-12.9247 -9.89856 -1.12419 511.555 281.059
-11.0645 -11.0249 -1.00021 519.676 277.519
-8.8363 -11.2783 -0.96233 528.862 277.668
-6.91151 -10.4516 -0.868435 536.257 282.054
-8.85252 -9.70096 -1.15468 528.021 283.965
-10.9651 -9.48181 -1.16302 519.319 283.749
5.47872 -11.2442 -0.837001 587.049 285.303
7.22627 -12.2625 -0.884784 594.681 282.071
9.42519 -12.3461 -0.85903 603.663 282.887
11.3818 -11.4747 -0.924554 611.187 287.405
9.5399 -10.7874 -1.01385 603.359 289.193
7.45274 -10.7498 -1.04052 594.854 288.248
-5.4673 9.35542 -2.99798 532.354 362.101
-3.82613 7.37177 -4.94024 540.309 354.131
-1.80658 5.75416 -6.60878 549.578 347.952
0.591283 5.64401 -8.39889 559.636 348.02
2.94319 5.44985 -6.41361 569.023 349.27
5.09528 6.77295 -4.73514 576.869 356.432
6.87002 8.56194 -2.82067 582.91 365.379
5.57234 10.4711 -4.09014 576.839 371.912
3.613 11.827 -5.4254 568.366 375.834
1.03907 12.2762 -6.89525 557.874 375.712
-1.59858 12.1509 -5.58637 547.028 374.368
-3.79855 11.0846 -4.19828 538.429 369.476
-1.74262 7.7682 -5.19265 548.616 356.716
0.716642 7.25376 -7.35482 559.181 355.028
3.17894 7.46759 -4.99912 568.759 358.139
3.34823 9.28099 -4.36229 568.436 365.827
0.908238 9.79715 -6.09075 558.491 365.939
-1.62972 9.60733 -4.53632 548.048 364.487
3 20 21 23
3 21 22 23
3 0 1 36
3 15 16 45
3 0 17 36
3 16 26 45
3 17 18 37
3 25 26 44
3 17 36 37
3 26 44 45
3 18 19 38
3 24 25 43
3 18 37 38
3 25 43 44
3 19 20 38
3 23 24 43
3 20 21 39
3 22 23 42
3 20 38 39
3 23 42 43
3 21 22 27
3 21 27 39
3 22 27 42
3 27 28 42
3 27 28 39
3 28 42 47
3 28 39 40
3 1 36 41
3 15 45 46
3 1 2 41
3 14 15 46
3 28 29 40
3 28 29 47
3 2 40 41
3 14 46 47
3 2 29 40
3 14 29 47
3 2 3 29
3 13 14 29
3 29 30 31
3 29 30 35
3 3 29 31
3 13 29 35
3 30 32 33
3 30 33 34
3 30 31 32
3 30 34 35
3 3 4 31
3 12 13 35
3 4 5 48
3 11 12 54
3 5 6 48
3 10 11 54
3 6 48 59
3 10 54 55
3 6 7 59
3 9 10 55
3 7 58 59
3 9 55 56
3 8 57 58
3 8 56 57
3 7 8 58
3 8 9 56
3 4 31 48
3 12 35 54
3 31 48 49
3 35 53 54
3 31 49 50
3 35 52 53
3 31 32 50
3 34 35 52
3 32 33 50
3 33 34 52
3 33 50 51
3 33 51 52
3 48 49 60
3 49 60 50
3 50 60 61
3 50 51 61
3 51 52 61
3 61 62 52
3 52 53 62
3 53 54 62
3 54 55 63
3 55 56 63
3 56 63 64
3 56 57 64
3 64 65 57
3 57 58 65
3 58 59 65
3 48 59 65
