ply
format ascii 1.0
element vertex 66
property float x
property float y
property float z
property float u
property float v
element face 91
property list uchar int vertex_indices
end_header
-19.8103 -5.70214 21.4098 479.991 296.366
-19.2608 -0.397176 20.9588 478.871 318.485
-18.5257 4.90501 20.6456 478.515 340.727
-17.4753 9.94133 18.4114 479.658 361.851
-15.6942 14.418 13.7666 484.204 380.857
-12.6322 18.0166 8.10744 494.599 396.95
-8.52377 20.6268 3.20807 509.919 409.735
-3.8657 22.4159 -0.882349 528.012 419.59
1.25443 22.5553 -4.64302 549.054 422.993
6.43176 21.7001 -0.804719 570.842 423.234
10.8537 19.1181 3.32563 590.618 415.925
14.5924 15.7983 8.25775 608.042 405.238
17.1846 11.6909 13.9448 621.238 390.669
18.456 6.98307 18.4999 629.401 372.652
18.8795 1.88744 20.8011 634.36 352.233
18.8559 -3.4209 21.0936 637.649 330.418
18.5617 -8.71605 21.4727 639.814 308.494
-16.7944 -13.5501 0.0964252 497.768 263.506
-14.747 -15.7544 -1.53301 507.628 255.556
-11.9567 -16.8303 -2.99191 519.821 252.742
-9.0019 -17.0125 -4.40578 532.12 253.714
-6.09523 -16.5964 -5.656 543.835 257.136
3.68043 -17.1656 -5.70382 584.426 261.035
6.30813 -18.0455 -4.35 595.778 259.254
9.10488 -18.3716 -2.84527 607.47 259.877
11.9244 -17.9491 -1.28845 618.777 263.599
14.3127 -16.3719 0.268694 627.571 271.796
-0.568247 -12.0208 -5.05561 563.646 279.559
-0.366568 -9.23045 -7.70656 562.738 290.853
-0.170015 -6.4745 -10.5481 561.833 301.981
0.01778 -3.72567 -13.3658 560.897 313.076
-2.87622 -0.297131 -6.01367 546.676 326.194
-1.31941 -0.113887 -7.13392 552.984 327.811
0.277483 -0.135404 -8.17809 559.586 328.62
1.78192 -0.307086 -7.10003 565.869 329.002
3.23611 -0.684513 -5.96202 572.075 328.512
-12.4693 -9.90765 -0.938078 513.256 281.131
-10.7759 -11.1557 -0.978539 521.022 277.074
-8.63807 -11.4156 -1.11474 529.987 277.355
-6.78749 -10.5526 -1.01152 537.049 282.1
-8.59134 -9.75087 -1.12283 529.116 284.232
-10.591 -9.50091 -1.09484 520.728 283.985
5.49174 -11.4253 -0.929746 588.134 286.365
7.16963 -12.5256 -0.988829 595.742 282.904
9.3036 -12.603 -0.838014 604.57 283.967
11.14 -11.6049 -0.810901 611.489 289.249
9.36911 -10.9131 -0.981295 603.763 290.943
7.37181 -10.8818 -1.02091 595.524 289.791
-7.22976 8.91122 -2.9237 522.829 361.652
-4.70732 7.51064 -4.81542 534.135 357.28
-2.13769 6.37105 -6.52649 545.465 354.034
0.562667 6.38076 -8.25268 556.599 355.596
3.17898 6.04279 -6.45367 567.551 356.089
5.78694 6.86193 -4.69877 577.73 361.331
8.33444 7.96132 -2.7897 587.479 367.705
6.58347 10.3441 -4.23658 578.776 376.217
3.99873 11.9297 -5.5244 567.149 380.936
0.869565 12.456 -6.84019 553.958 380.947
-2.31746 12.3054 -5.58371 540.919 378.439
-5.12047 11.0624 -4.25679 530.157 371.691
-2.51091 8.25317 -5.28812 542.706 361.682
0.642407 7.98233 -7.54478 555.892 362.318
3.72446 7.88216 -5.16654 568.599 364.155
3.95567 9.28209 -4.4879 568.645 370.14
0.747723 9.82302 -6.29883 555.129 370.103
-2.57947 9.69346 -4.58156 541.492 367.646
3 20 21 23
3 21 22 23
3 0 1 36
3 15 16 45
3 0 17 36
3 16 26 45
3 17 18 37
3 25 26 44
3 17 36 37
3 26 44 45
3 18 19 38
3 24 25 43
3 18 37 38
3 25 43 44
3 19 20 38
3 23 24 43
3 20 21 39
3 22 23 42
3 20 38 39
3 23 42 43
3 21 22 27
3 21 27 39
3 22 27 42
3 27 28 42
3 27 28 39
3 28 42 47
3 28 39 40
3 1 36 41
3 15 45 46
3 1 2 41
3 14 15 46
3 28 29 40
3 28 29 47
3 2 40 41
3 14 46 47
3 2 29 40
3 14 29 47
3 2 3 29
3 13 14 29
3 29 30 31
3 29 30 35
3 3 29 31
3 13 29 35
3 30 32 33
3 30 33 34
3 30 31 32
3 30 34 35
3 3 4 31
3 12 13 35
3 4 5 48
3 11 12 54
3 5 6 48
3 10 11 54
3 6 48 59
3 10 54 55
3 6 7 59
3 9 10 55
3 7 58 59
3 9 55 56
3 8 57 58
3 8 56 57
3 7 8 58
3 8 9 56
3 4 31 48
3 12 35 54
3 31 48 49
3 35 53 54
3 31 49 50
3 35 52 53
3 31 32 50
3 34 35 52
3 32 33 50
3 33 34 52
3 33 50 51
3 33 51 52
3 48 49 60
3 49 60 50
3 50 60 61
3 50 51 61
3 51 52 61
3 61 62 52
3 52 53 62
3 53 54 62
3 54 55 63
3 55 56 63
3 56 63 64
3 56 57 64
3 64 65 57
3 57 58 65
3 58 59 65
3 48 59 65
