ply
format ascii 1.0
element vertex 66
property float x
property float y
property float z
property float u
property float v
element face 91
property list uchar int vertex_indices
end_header
-20.3362 -5.9662 21.529 476.343 302.133
-19.8515 -0.450424 20.9905 475.562 324.413
-19.1701 5.07711 20.6934 475.541 346.942
-18.1435 10.2593 18.4376 477.346 367.445
-16.3853 14.729 13.6753 482.802 384.415
-13.2316 18.1711 8.00018 494.558 397.588
-8.91808 20.4663 3.1444 511.497 407.078
-4.07415 21.8828 -0.913112 530.933 413.632
1.13639 21.8188 -4.63672 552.568 414.543
6.45497 21.0489 -0.724884 574.025 415.832
11.0471 18.626 3.37043 593.357 410.15
14.9515 15.4537 8.20836 610.188 401.396
17.6895 11.4768 13.8213 622.601 389.109
19.109 6.9106 18.4292 630.097 373.342
19.5895 1.88779 20.7396 634.314 354.289
19.5107 -3.41179 20.9404 636.674 332.954
19.12 -8.68203 21.3397 637.73 311.656
-16.992 -13.8456 0.0781972 496.67 263.188
-14.8119 -15.9426 -1.46777 506.777 255.223
-11.9772 -16.869 -2.88897 518.925 252.373
-9.03893 -16.8983 -4.31507 531.036 253.194
-6.1809 -16.3415 -5.60562 542.505 256.394
3.9321 -16.8274 -5.67111 583.765 259.675
6.44603 -17.7306 -4.28882 594.242 257.915
9.15163 -18.1213 -2.78682 605.219 258.372
11.9181 -17.7824 -1.2693 616.068 261.81
14.3086 -16.2694 0.261296 624.792 269.795
-0.455294 -11.4919 -5.09056 563.178 279.153
-0.299989 -8.73954 -7.77398 562.746 289.223
-0.155529 -6.01684 -10.6015 562.304 299.108
-0.0179146 -3.29324 -13.3452 561.822 309.028
-2.91792 -0.0641002 -6.06065 547.484 323.566
-1.3162 0.179574 -7.15651 553.994 324.929
0.342955 0.185241 -8.12735 560.842 325.413
1.87267 -0.000247219 -7.06612 567.003 325.903
3.31805 -0.430456 -5.99481 572.946 325.365
-12.9787 -9.90412 -1.04009 511.073 280.715
-11.1539 -11.0321 -0.965061 519.038 277.146
-8.96494 -11.2849 -0.994655 528.046 277.255
-7.06982 -10.4271 -0.916506 535.282 281.735
-8.97293 -9.68276 -1.14802 527.215 283.65
-11.0496 -9.48302 -1.14532 518.693 283.375
5.66435 -11.2162 -0.886759 587.312 285.199
7.3708 -12.2465 -0.909386 594.759 281.922
9.52335 -12.3352 -0.837239 603.523 282.716
11.4297 -11.4406 -0.880857 610.801 287.3
9.62704 -10.7554 -1.02094 603.16 289.066
7.58727 -10.715 -1.0501 594.873 288.154
-6.20213 9.00335 -3.00804 529.148 359.699
-4.06375 7.46307 -4.90346 538.847 353.814
-1.81293 6.20305 -6.61341 548.835 349.194
0.613331 6.179 -8.39989 558.913 349.619
2.96258 5.9179 -6.42317 568.319 350.61
5.26026 6.87717 -4.69372 576.924 356.395
7.41015 8.19396 -2.81173 584.727 363.608
5.91124 10.183 -4.11217 577.801 370.311
3.70026 11.5128 -5.43226 568.327 373.975
0.959854 11.925 -6.85435 557.187 373.62
-1.85042 11.8284 -5.60073 545.682 372.287
-4.3027 10.7957 -4.23629 536.092 367.409
-1.94249 8.02219 -5.31359 547.215 357.004
0.720276 7.67333 -7.4729 558.465 356.088
3.33862 7.73072 -5.07171 568.745 358.68
3.53704 9.08118 -4.37905 568.771 364.518
0.857359 9.52193 -6.15719 557.909 364.162
-1.92889 9.41312 -4.5953 546.468 362.92
3 20 21 23
3 21 22 23
3 0 1 36
3 15 16 45
3 0 17 36
3 16 26 45
3 17 18 37
3 25 26 44
3 17 36 37
3 26 44 45
3 18 19 38
3 24 25 43
3 18 37 38
3 25 43 44
3 19 20 38
3 23 24 43
3 20 21 39
3 22 23 42
3 20 38 39
3 23 42 43
3 21 22 27
3 21 27 39
3 22 27 42
3 27 28 42
3 27 28 39
3 28 42 47
3 28 39 40
3 1 36 41
3 15 45 46
3 1 2 41
3 14 15 46
3 28 29 40
3 28 29 47
3 2 40 41
3 14 46 47
3 2 29 40
3 14 29 47
3 2 3 29
3 13 14 29
3 29 30 31
3 29 30 35
3 3 29 31
3 13 29 35
3 30 32 33
3 30 33 34
3 30 31 32
3 30 34 35
3 3 4 31
3 12 13 35
3 4 5 48
3 11 12 54
3 5 6 48
3 10 11 54
3 6 48 59
3 10 54 55
3 6 7 59
3 9 10 55
3 7 58 59
3 9 55 56
3 8 57 58
3 8 56 57
3 7 8 58
3 8 9 56
3 4 31 48
3 12 35 54
3 31 48 49
3 35 53 54
3 31 49 50
3 35 52 53
3 31 32 50
3 34 35 52
3 32 33 50
3 33 34 52
3 33 50 51
3 33 51 52
3 48 49 60
3 49 60 50
3 50 60 61
3 50 51 61
3 51 52 61
3 61 62 52
3 52 53 62
3 53 54 62
3 54 55 63
3 55 56 63
3 56 63 64
3 56 57 64
3 64 65 57
3 57 58 65
3 58 59 65
3 48 59 65
