ply
format ascii 1.0
element vertex 66
property float x
property float y
property float z
property float u
property float v
element face 91
property list uchar int vertex_indices
end_header
-19.7983 -6.82243 21.4383 472.353 307.54
-19.4696 -0.868857 21.0154 472.029 332.565
-18.9016 5.08769 20.5699 472.729 357.675
-17.9849 10.7162 18.4066 475.591 380.564
-16.4361 15.6071 13.4278 482.315 398.987
-13.2931 19.3384 7.89733 496.365 412.771
-8.7994 21.6966 3.07407 516.347 421.629
-3.71715 22.9579 -0.936528 538.901 426.519
1.68399 22.6524 -4.62951 563.194 425.081
6.93146 21.5568 -0.588611 584.484 424.577
11.2437 18.7182 3.53228 602.317 416.423
14.8121 15.2006 8.31923 616.978 405.509
17.2435 11.008 13.6668 626.828 391.655
18.5813 6.49009 18.2335 632.394 375.602
19.0803 1.68168 20.4614 635.272 356.716
18.9352 -3.37671 20.588 636.195 335.371
18.4267 -8.39895 20.7881 635.538 314.09
-16.2984 -14.686 0.021628 496.881 263.596
-14.0492 -16.6207 -1.57967 507.585 255.328
-11.2488 -17.4356 -2.90734 520.188 252.138
-8.36717 -17.3894 -4.26917 532.879 252.595
-5.56169 -16.7641 -5.57787 545.048 255.501
3.46971 -16.751 -5.73392 583.484 258.676
5.89749 -17.5353 -4.32815 593.576 257.011
8.5043 -17.8542 -2.87334 604.267 257.403
11.147 -17.4748 -1.46125 614.907 260.734
13.4058 -15.9629 0.162092 623.49 268.829
-0.507646 -11.6924 -5.21721 564.822 278.918
-0.5584 -9.10369 -7.74531 564.645 288.42
-0.617551 -6.54282 -10.4369 564.496 297.71
-0.657735 -3.98887 -13.0956 564.419 306.996
-3.06919 -0.485862 -6.01778 550.697 324.892
-1.5692 -0.369647 -6.97317 557.357 325.381
-0.0362281 -0.412034 -7.92966 564.207 325.212
1.40784 -0.499564 -6.83496 570.005 325.967
2.78389 -0.757724 -5.87575 575.612 325.901
-11.94 -10.717 -1.31424 514.613 281.16
-10.1511 -11.8395 -1.11708 522.502 277.164
-7.98346 -11.9709 -0.875791 531.675 277.514
-6.21433 -10.8463 -0.436929 538.696 283.138
-8.09481 -10.135 -0.962485 530.657 285.18
-10.1289 -10.0266 -1.12008 522.03 284.828
5.08837 -11.3452 -0.82484 587.024 284.827
6.63942 -12.3978 -0.896724 593.97 280.892
8.68662 -12.4909 -0.938006 602.714 281.202
10.4266 -11.4715 -0.989604 609.809 286.097
8.77523 -10.6884 -1.02005 602.555 288.801
6.85188 -10.7068 -1.07034 594.402 288.012
-4.86604 10.4258 -3.01997 538.638 372.016
-3.80014 7.69461 -5.15438 544.74 359.666
-2.0332 5.34645 -6.76458 553.526 349.475
0.470386 5.09313 -8.33883 564.775 348.414
2.97729 5.01796 -6.31062 574.773 350.121
4.9984 7.04574 -4.73538 582.2 360.284
6.30663 9.70259 -2.83663 586.292 373.031
5.24174 11.2772 -3.92103 581.637 378.697
3.58653 12.4179 -5.26099 574.695 382.178
1.28746 12.798 -6.86773 565.344 382.069
-1.18594 12.7682 -5.62676 554.423 381.759
-3.24367 11.8992 -4.28421 545.498 378.108
-1.42013 7.906 -5.10564 554.774 361.431
0.737768 7.09619 -7.06349 564.857 357.682
3.02211 7.61877 -4.72538 573.618 362.008
3.13344 9.64275 -4.19504 573.279 370.892
1.0776 10.0242 -6.18516 565.09 370.661
-1.05387 9.94339 -4.62866 555.533 370.433
3 20 21 23
3 21 22 23
3 0 1 36
3 15 16 45
3 0 17 36
3 16 26 45
3 17 18 37
3 25 26 44
3 17 36 37
3 26 44 45
3 18 19 38
3 24 25 43
3 18 37 38
3 25 43 44
3 19 20 38
3 23 24 43
3 20 21 39
3 22 23 42
3 20 38 39
3 23 42 43
3 21 22 27
3 21 27 39
3 22 27 42
3 27 28 42
3 27 28 39
3 28 42 47
3 28 39 40
3 1 36 41
3 15 45 46
3 1 2 41
3 14 15 46
3 28 29 40
3 28 29 47
3 2 40 41
3 14 46 47
3 2 29 40
3 14 29 47
3 2 3 29
3 13 14 29
3 29 30 31
3 29 30 35
3 3 29 31
3 13 29 35
3 30 32 33
3 30 33 34
3 30 31 32
3 30 34 35
3 3 4 31
3 12 13 35
3 4 5 48
3 11 12 54
3 5 6 48
3 10 11 54
3 6 48 59
3 10 54 55
3 6 7 59
3 9 10 55
3 7 58 59
3 9 55 56
3 8 57 58
3 8 56 57
3 7 8 58
3 8 9 56
3 4 31 48
3 12 35 54
3 31 48 49
3 35 53 54
3 31 49 50
3 35 52 53
3 31 32 50
3 34 35 52
3 32 33 50
3 33 34 52
3 33 50 51
3 33 51 52
3 48 49 60
3 49 60 50
3 50 60 61
3 50 51 61
3 51 52 61
3 61 62 52
3 52 53 62
3 53 54 62
3 54 55 63
3 55 56 63
3 56 63 64
3 56 57 64
3 64 65 57
3 57 58 65
3 58 59 65
3 48 59 65
