ply
format ascii 1.0
element vertex 66
property float x
property float y
property float z
property float u
property float v
element face 91
property list uchar int vertex_indices
end_header
-19.1988 -5.98901 21.1313 478.467 298.39
-18.6987 -0.651412 20.6906 477.407 321.5
-17.9444 4.6694 20.3743 477.437 344.702
-16.7806 9.72697 18.2993 479.498 366.88
-14.9659 14.2843 13.7107 484.819 387.105
-12.1062 18.147 8.0955 495.103 404.905
-8.25751 21.1634 3.13896 510.087 419.738
-3.76223 23.347 -0.862391 528.278 431.478
1.35125 23.6942 -4.63292 550.21 435.753
6.48481 22.6422 -0.773566 572.556 434.684
10.6558 19.6935 3.27723 591.917 424.93
14.0494 16.0214 8.24353 608.326 411.684
16.4104 11.7208 13.8593 620.651 395.176
17.7359 6.97245 18.3733 628.891 376.033
18.2908 1.87912 20.5183 634.203 354.75
18.3067 -3.41402 20.8077 637.455 332.131
17.9921 -8.69545 21.155 639.282 309.367
-15.952 -14.059 0.0261915 498.685 264.076
-14.0871 -16.1014 -1.54089 508.01 256.337
-11.5214 -17.1097 -2.96099 519.698 253.46
-8.79376 -17.274 -4.41424 531.571 254.291
-6.11093 -16.8695 -5.73135 542.898 257.54
3.48686 -17.363 -5.7497 584.277 261.248
5.96836 -18.1901 -4.34742 595.303 259.33
8.60718 -18.4776 -2.82538 606.668 259.826
11.2497 -18.0126 -1.33051 617.594 263.542
13.4362 -16.456 0.193738 625.907 271.656
-0.664066 -12.2196 -5.06233 563.351 280.799
-0.492735 -9.72774 -7.66238 562.753 291.352
-0.32602 -7.25939 -10.3625 562.156 301.793
-0.162155 -4.80122 -13.0518 561.553 312.19
-2.77983 -0.924493 -5.8565 547.513 327.788
-1.31739 -0.816841 -6.96139 553.782 329.045
0.173158 -0.866295 -8.00929 560.263 329.65
1.59574 -1.00632 -6.91245 566.362 330.005
2.97193 -1.30862 -5.82839 572.361 329.635
-12.2535 -10.2294 -1.15895 512.278 282.61
-10.5955 -11.286 -0.975184 520.001 279.109
-8.55632 -11.6099 -0.924068 528.921 278.964
-6.74002 -11.0828 -0.898964 536.374 282.324
-8.47848 -10.2548 -1.12334 528.448 284.794
-10.4275 -9.95498 -1.10527 519.923 284.897
5.25207 -11.9042 -0.829926 588.193 286.087
6.9448 -12.6518 -0.825182 595.89 283.915
8.98624 -12.6393 -0.83723 604.621 285.206
10.7601 -11.8294 -0.995043 611.734 289.735
9.01775 -11.288 -0.972437 603.947 290.997
7.06531 -11.3239 -1.00839 595.615 289.656
-5.2559 9.7763 -2.92115 530.239 372.324
-3.74206 7.78847 -4.83905 538.052 364.577
-1.81601 6.06909 -6.51122 547.45 358.248
0.582082 5.98363 -8.26605 557.885 359.192
2.93305 5.7619 -6.39216 567.954 359.824
5.01313 7.21373 -4.69882 575.862 367.439
6.68515 9.00865 -2.79143 581.802 376.293
5.58814 11.271 -4.24975 575.837 385.188
3.7099 12.9531 -5.57373 566.87 391.138
1.06212 13.5767 -7.00322 555.258 392.083
-1.65576 13.2914 -5.66251 543.707 389.324
-3.7885 11.8832 -4.29091 535.337 382.118
-1.82169 8.25743 -5.00134 545.998 367.735
0.696605 7.73547 -7.29587 557.249 366.839
3.20888 7.94266 -4.88385 567.712 369.449
3.39954 10.0303 -4.3869 567.23 378.54
0.906307 10.7761 -6.11341 556.225 380.076
-1.71991 10.3672 -4.48308 545.122 376.869
3 20 21 23
3 21 22 23
3 0 1 36
3 15 16 45
3 0 17 36
3 16 26 45
3 17 18 37
3 25 26 44
3 17 36 37
3 26 44 45
3 18 19 38
3 24 25 43
3 18 37 38
3 25 43 44
3 19 20 38
3 23 24 43
3 20 21 39
3 22 23 42
3 20 38 39
3 23 42 43
3 21 22 27
3 21 27 39
3 22 27 42
3 27 28 42
3 27 28 39
3 28 42 47
3 28 39 40
3 1 36 41
3 15 45 46
3 1 2 41
3 14 15 46
3 28 29 40
3 28 29 47
3 2 40 41
3 14 46 47
3 2 29 40
3 14 29 47
3 2 3 29
3 13 14 29
3 29 30 31
3 29 30 35
3 3 29 31
3 13 29 35
3 30 32 33
3 30 33 34
3 30 31 32
3 30 34 35
3 3 4 31
3 12 13 35
3 4 5 48
3 11 12 54
3 5 6 48
3 10 11 54
3 6 48 59
3 10 54 55
3 6 7 59
3 9 10 55
3 7 58 59
3 9 55 56
3 8 57 58
3 8 56 57
3 7 8 58
3 8 9 56
3 4 31 48
3 12 35 54
3 31 48 49
3 35 53 54
3 31 49 50
3 35 52 53
3 31 32 50
3 34 35 52
3 32 33 50
3 33 34 52
3 33 50 51
3 33 51 52
3 48 49 60
3 49 60 50
3 50 60 61
3 50 51 61
3 51 52 61
3 61 62 52
3 52 53 62
3 53 54 62
3 54 55 63
3 55 56 63
3 56 63 64
3 56 57 64
3 64 65 57
3 57 58 65
3 58 59 65
3 48 59 65
