ply
format ascii 1.0
element vertex 66
property float x
property float y
property float z
property float u
property float v
element face 91
property list uchar int vertex_indices
end_header
-20.6047 -6.15276 21.5616 477.465 302.332
-20.1339 -0.633003 21.0533 476.671 324.067
-19.4522 4.89248 20.742 476.683 346.023
-18.4344 10.1134 18.4654 478.449 366.023
-16.6786 14.6937 13.6169 483.809 382.658
-13.4545 18.2504 7.9638 495.607 395.627
-9.03847 20.6112 3.20915 512.601 404.916
-4.07391 22.0104 -0.887732 532.156 411.009
1.21568 21.9618 -4.65165 553.67 411.723
6.56751 21.2434 -0.747216 574.712 413.456
11.2785 18.939 3.41085 593.964 408.738
15.288 15.7907 8.15397 610.771 400.618
18.0703 11.7562 13.7676 623.031 388.798
19.4144 7.07157 18.5134 630.028 373.277
19.8458 1.95282 20.8549 633.951 354.446
19.778 -3.41355 21.1078 636.302 333.4
19.4167 -8.75255 21.4855 637.458 312.371
-17.2829 -13.6701 0.112625 497.29 264.277
-15.0989 -15.7516 -1.5105 507.203 256.421
-12.2621 -16.6503 -2.93585 519.091 253.648
-9.32162 -16.6576 -4.33988 530.946 254.448
-6.4611 -16.0958 -5.59578 542.183 257.518
3.96414 -16.5912 -5.61978 583.771 260.847
6.58443 -17.5428 -4.28307 594.449 259.062
9.39092 -17.9722 -2.81872 605.589 259.488
12.2516 -17.6143 -1.32096 616.551 263.057
14.7025 -16.0283 0.296312 625.263 271.311
-0.574547 -11.2154 -5.12169 563.046 279.948
-0.400689 -8.43592 -7.84649 562.734 289.693
-0.235126 -5.68111 -10.679 562.415 299.286
-0.0706813 -2.92423 -13.3763 562.073 308.95
-3.02987 0.198911 -6.13251 547.802 323.171
-1.40113 0.460828 -7.20101 554.278 324.524
0.283298 0.477916 -8.16036 561.08 324.992
1.87439 0.253112 -7.12391 567.358 325.405
3.3764 -0.223412 -6.10256 573.41 324.773
-12.9976 -9.67512 -1.07429 512.469 281.622
-11.1654 -10.8282 -1.05804 520.303 278.019
-8.96465 -11.0651 -1.06683 529.148 278.199
-7.04474 -10.1869 -0.914266 536.305 282.703
-8.96401 -9.45763 -1.13889 528.365 284.495
-11.0477 -9.25941 -1.156 520.007 284.21
5.5812 -10.9897 -0.87311 586.763 285.97
7.32118 -12.0656 -0.997998 594.211 282.557
9.49333 -12.1599 -0.928963 602.862 283.321
11.4314 -11.2652 -0.881312 610.098 287.85
9.5962 -10.579 -1.00988 602.499 289.56
7.53648 -10.5197 -1.02075 594.304 288.743
-6.37778 8.79577 -2.96509 529.841 356.821
-4.24486 7.12772 -4.93297 539.393 350.405
-1.91062 5.84975 -6.64071 549.515 345.75
0.621073 5.826 -8.36227 559.801 346.128
3.09197 5.5252 -6.45669 569.487 347.098
5.51437 6.46524 -4.73643 578.392 352.843
7.74438 7.86342 -2.78594 586.276 360.402
6.0421 9.68114 -4.00383 578.794 366.12
3.71318 10.8269 -5.35558 569.177 368.811
0.97927 11.1814 -6.80372 558.359 368.135
-1.80382 11.175 -5.50879 547.149 367.309
-4.32966 10.3695 -4.10989 537.341 363.516
-2.02476 7.69817 -5.33681 547.97 353.587
0.739711 7.3682 -7.40193 559.377 352.715
3.48035 7.35042 -5.15978 569.947 355.096
3.64342 8.51249 -4.42088 569.918 360.104
0.857389 8.87558 -6.1821 558.932 359.287
-1.99977 8.8878 -4.57629 547.376 358.644
3 20 21 23
3 21 22 23
3 0 1 36
3 15 16 45
3 0 17 36
3 16 26 45
3 17 18 37
3 25 26 44
3 17 36 37
3 26 44 45
3 18 19 38
3 24 25 43
3 18 37 38
3 25 43 44
3 19 20 38
3 23 24 43
3 20 21 39
3 22 23 42
3 20 38 39
3 23 42 43
3 21 22 27
3 21 27 39
3 22 27 42
3 27 28 42
3 27 28 39
3 28 42 47
3 28 39 40
3 1 36 41
3 15 45 46
3 1 2 41
3 14 15 46
3 28 29 40
3 28 29 47
3 2 40 41
3 14 46 47
3 2 29 40
3 14 29 47
3 2 3 29
3 13 14 29
3 29 30 31
3 29 30 35
3 3 29 31
3 13 29 35
3 30 32 33
3 30 33 34
3 30 31 32
3 30 34 35
3 3 4 31
3 12 13 35
3 4 5 48
3 11 12 54
3 5 6 48
3 10 11 54
3 6 48 59
3 10 54 55
3 6 7 59
3 9 10 55
3 7 58 59
3 9 55 56
3 8 57 58
3 8 56 57
3 7 8 58
3 8 9 56
3 4 31 48
3 12 35 54
3 31 48 49
3 35 53 54
3 31 49 50
3 35 52 53
3 31 32 50
3 34 35 52
3 32 33 50
3 33 34 52
3 33 50 51
3 33 51 52
3 48 49 60
3 49 60 50
3 50 60 61
3 50 51 61
3 51 52 61
3 61 62 52
3 52 53 62
3 53 54 62
3 54 55 63
3 55 56 63
3 56 63 64
3 56 57 64
3 64 65 57
3 57 58 65
3 58 59 65
3 48 59 65
