ply
format ascii 1.0
element vertex 66
property float x
property float y
property float z
property float u
property float v
element face 91
property list uchar int vertex_indices
end_header
-20.6021 -5.9169 21.5366 474.634 305.627
-20.1227 -0.429273 20.9986 474.15 327.337
-19.4187 5.06439 20.7148 474.517 349.324
-18.3395 10.2108 18.4752 476.902 368.994
-16.5088 14.6366 13.5868 483.113 384.651
-13.2991 18.0573 7.98044 495.442 396.565
-8.97077 20.3663 3.18888 512.615 405.066
-4.10742 21.7792 -0.915449 532.218 410.656
1.1139 21.7396 -4.64779 553.851 410.863
6.45314 21.0092 -0.732777 574.88 412.75
11.0838 18.6479 3.42414 593.769 407.962
15.0211 15.4977 8.19394 610.125 400.059
17.8203 11.5493 13.7471 622.14 388.891
19.2958 6.99122 18.5006 629.272 374.213
19.8305 1.9441 20.808 633.299 355.746
19.7987 -3.3848 21.0118 635.567 334.69
19.44 -8.68344 21.3975 636.477 313.7
-17.2829 -13.8762 0.121206 495.475 263.384
-15.0562 -15.9601 -1.46924 505.645 255.266
-12.1764 -16.8239 -2.88469 517.844 252.404
-9.21047 -16.7866 -4.3101 529.978 253.156
-6.33854 -16.1679 -5.59325 541.445 256.252
3.83614 -16.5823 -5.65309 582.442 259.435
6.45896 -17.5847 -4.282 593.167 257.492
9.28618 -18.0545 -2.78849 604.445 257.831
12.1861 -17.7332 -1.29069 615.654 261.347
14.6794 -16.1495 0.28126 624.642 269.724
-0.537834 -11.3056 -5.06898 562.389 278.629
-0.372325 -8.4721 -7.81401 562.259 288.391
-0.216986 -5.66463 -10.6563 562.118 297.99
-0.0632378 -2.85352 -13.3469 561.941 307.688
-2.99727 0.173973 -6.1081 547.477 322.44
-1.37622 0.447127 -7.19452 554.05 323.678
0.306942 0.459126 -8.14357 560.966 323.989
1.89104 0.249676 -7.10147 567.223 324.509
3.37494 -0.228875 -6.06527 573.203 323.91
-13.216 -9.84033 -1.04882 510.153 280.683
-11.2922 -11.0335 -0.981244 518.399 276.904
-8.98359 -11.2721 -0.983182 527.765 277.059
-6.99532 -10.331 -0.897022 535.292 281.795
-9.00929 -9.59063 -1.14552 526.924 283.63
-11.1887 -9.39169 -1.14709 518.095 283.377
5.58264 -11.1001 -0.881612 586.074 284.761
7.37818 -12.2258 -0.921957 593.794 281.127
9.64938 -12.3222 -0.85454 602.933 281.868
11.6686 -11.389 -0.859958 610.604 286.535
9.76457 -10.6749 -1.0098 602.671 288.375
7.61874 -10.6191 -1.04283 594.048 287.552
-5.86971 8.91553 -3.00796 531.405 357.545
-3.899 7.2601 -4.94854 540.415 350.806
-1.72974 5.974 -6.64195 550.009 345.769
0.631518 5.9668 -8.42633 559.805 345.85
2.93665 5.68906 -6.4277 568.81 346.99
5.18733 6.67237 -4.72334 577.076 352.943
7.2368 8.09443 -2.81103 584.296 360.661
5.77606 10.0057 -4.06981 577.796 366.832
3.63295 11.2663 -5.40648 568.871 370.05
1.00084 11.6499 -6.88112 558.41 369.474
-1.68353 11.5846 -5.59218 547.442 368.667
-4.04553 10.63 -4.19533 538.153 364.546
-1.73825 7.905 -5.31502 548.852 354.19
0.753118 7.57735 -7.41009 559.372 352.883
3.22529 7.61503 -5.10639 568.848 355.53
3.37762 8.70863 -4.40823 568.833 360.343
0.869879 9.0809 -6.15693 558.926 359.624
-1.71414 9.0292 -4.59799 548.305 359.074
3 20 21 23
3 21 22 23
3 0 1 36
3 15 16 45
3 0 17 36
3 16 26 45
3 17 18 37
3 25 26 44
3 17 36 37
3 26 44 45
3 18 19 38
3 24 25 43
3 18 37 38
3 25 43 44
3 19 20 38
3 23 24 43
3 20 21 39
3 22 23 42
3 20 38 39
3 23 42 43
3 21 22 27
3 21 27 39
3 22 27 42
3 27 28 42
3 27 28 39
3 28 42 47
3 28 39 40
3 1 36 41
3 15 45 46
3 1 2 41
3 14 15 46
3 28 29 40
3 28 29 47
3 2 40 41
3 14 46 47
3 2 29 40
3 14 29 47
3 2 3 29
3 13 14 29
3 29 30 31
3 29 30 35
3 3 29 31
3 13 29 35
3 30 32 33
3 30 33 34
3 30 31 32
3 30 34 35
3 3 4 31
3 12 13 35
3 4 5 48
3 11 12 54
3 5 6 48
3 10 11 54
3 6 48 59
3 10 54 55
3 6 7 59
3 9 10 55
3 7 58 59
3 9 55 56
3 8 57 58
3 8 56 57
3 7 8 58
3 8 9 56
3 4 31 48
3 12 35 54
3 31 48 49
3 35 53 54
3 31 49 50
3 35 52 53
3 31 32 50
3 34 35 52
3 32 33 50
3 33 34 52
3 33 50 51
3 33 51 52
3 48 49 60
3 49 60 50
3 50 60 61
3 50 51 61
3 51 52 61
3 61 62 52
3 52 53 62
3 53 54 62
3 54 55 63
3 55 56 63
3 56 63 64
3 56 57 64
3 64 65 57
3 57 58 65
3 58 59 65
3 48 59 65
