ply
format ascii 1.0
element vertex 66
property float x
property float y
property float z
property float u
property float v
element face 91
property list uchar int vertex_indices
end_header
-20.5909 -5.91617 21.518 474.344 304.584
-20.1204 -0.438036 20.9855 473.86 326.331
-19.4275 5.0451 20.6907 474.222 348.328
-18.3518 10.1833 18.438 476.633 368.105
-16.5202 14.6141 13.5998 482.868 384.066
-13.3089 18.0384 7.98162 495.237 396.264
-8.96988 20.3336 3.17551 512.491 404.923
-4.10627 21.749 -0.910413 532.115 410.706
1.11503 21.7166 -4.63829 553.763 411.082
6.45638 20.9969 -0.722056 574.806 412.787
11.0996 18.6558 3.41561 593.739 407.825
15.0579 15.5285 8.19882 610.159 399.75
17.8564 11.576 13.7641 622.155 388.254
19.3149 6.99802 18.4849 629.21 373.194
19.8344 1.93491 20.796 633.156 354.498
19.7908 -3.40709 21.015 635.349 333.33
19.4281 -8.71907 21.3997 636.219 312.217
-17.1604 -13.8766 0.111128 495.607 263.293
-14.9514 -15.9425 -1.46447 505.691 255.284
-12.1007 -16.8156 -2.88208 517.782 252.409
-9.15961 -16.8014 -4.30519 529.838 253.105
-6.30971 -16.2075 -5.58937 541.241 256.138
3.7975 -16.6336 -5.6481 582.002 259.172
6.42597 -17.604 -4.2829 592.738 257.264
9.25174 -18.0377 -2.79784 604.001 257.647
12.1369 -17.6727 -1.3029 615.142 261.242
14.6059 -16.0661 0.266387 624.038 269.623
-0.560003 -11.3246 -5.08835 562.02 278.544
-0.391715 -8.53796 -7.80436 561.935 288.291
-0.233682 -5.77826 -10.6363 561.842 297.865
-0.0771064 -3.01627 -13.3432 561.719 307.513
-2.94822 0.113169 -6.10126 547.465 322.414
-1.35499 0.357354 -7.17975 553.945 323.57
0.292763 0.359805 -8.12919 560.729 323.859
1.84504 0.161683 -7.0906 566.858 324.346
3.30731 -0.286924 -6.06676 572.741 323.786
-13.145 -9.82763 -1.05791 510.108 280.687
-11.2394 -11.0136 -0.986084 518.277 276.902
-8.94958 -11.2493 -0.989377 527.572 277.041
-6.97911 -10.3211 -0.886786 535.042 281.717
-8.97363 -9.57813 -1.14211 526.75 283.601
-11.1357 -9.37715 -1.15048 517.985 283.378
5.52504 -11.0832 -0.866391 585.559 284.585
7.30788 -12.198 -0.937167 593.228 280.95
9.5622 -12.2933 -0.871707 602.306 281.667
11.5655 -11.3673 -0.880502 609.929 286.292
9.67747 -10.6544 -1.01869 602.056 288.168
7.54616 -10.6015 -1.03945 593.483 287.363
-5.93455 8.98703 -3.005 530.915 357.95
-3.94903 7.32304 -4.93712 539.985 351.25
-1.76487 6.00349 -6.63647 549.655 346.135
0.634108 5.97381 -8.41844 559.621 346.213
2.98145 5.71005 -6.42919 568.796 347.312
5.2571 6.7214 -4.71761 577.159 353.307
7.33086 8.14336 -2.80445 584.49 360.946
5.82703 10.022 -4.06731 577.839 367.053
3.66388 11.2726 -5.40284 568.839 370.312
1.00474 11.6629 -6.86149 558.259 369.848
-1.70456 11.5978 -5.58667 547.183 368.981
-4.07958 10.6584 -4.19661 537.823 364.852
-1.85984 7.86014 -5.30669 548.194 354.178
0.748144 7.49061 -7.42615 559.213 352.824
3.34352 7.54945 -5.10506 569.178 355.498
3.51224 8.85167 -4.39765 569.138 361.131
0.882904 9.26487 -6.14923 558.721 360.619
-1.82397 9.19182 -4.58273 547.606 359.875
3 20 21 23
3 21 22 23
3 0 1 36
3 15 16 45
3 0 17 36
3 16 26 45
3 17 18 37
3 25 26 44
3 17 36 37
3 26 44 45
3 18 19 38
3 24 25 43
3 18 37 38
3 25 43 44
3 19 20 38
3 23 24 43
3 20 21 39
3 22 23 42
3 20 38 39
3 23 42 43
3 21 22 27
3 21 27 39
3 22 27 42
3 27 28 42
3 27 28 39
3 28 42 47
3 28 39 40
3 1 36 41
3 15 45 46
3 1 2 41
3 14 15 46
3 28 29 40
3 28 29 47
3 2 40 41
3 14 46 47
3 2 29 40
3 14 29 47
3 2 3 29
3 13 14 29
3 29 30 31
3 29 30 35
3 3 29 31
3 13 29 35
3 30 32 33
3 30 33 34
3 30 31 32
3 30 34 35
3 3 4 31
3 12 13 35
3 4 5 48
3 11 12 54
3 5 6 48
3 10 11 54
3 6 48 59
3 10 54 55
3 6 7 59
3 9 10 55
3 7 58 59
3 9 55 56
3 8 57 58
3 8 56 57
3 7 8 58
3 8 9 56
3 4 31 48
3 12 35 54
3 31 48 49
3 35 53 54
3 31 49 50
3 35 52 53
3 31 32 50
3 34 35 52
3 32 33 50
3 33 34 52
3 33 50 51
3 33 51 52
3 48 49 60
3 49 60 50
3 50 60 61
3 50 51 61
3 51 52 61
3 61 62 52
3 52 53 62
3 53 54 62
3 54 55 63
3 55 56 63
3 56 63 64
3 56 57 64
3 64 65 57
3 57 58 65
3 58 59 65
3 48 59 65
