ply
format ascii 1.0
element vertex 66
property float x
property float y
property float z
property float u
property float v
element face 91
property list uchar int vertex_indices
end_header
-20.1699 -6.1066 21.5154 476.529 299.684
-19.5443 -0.649313 21.1667 475.962 322.346
-18.7443 4.78275 20.7398 476.136 344.985
-17.8046 10.1502 18.5453 477.12 366.912
-16.2829 15.2506 13.7014 480.952 387.293
-13.2435 19.4031 7.90293 491.687 404.393
-8.93567 22.2899 3.41077 508.233 417.437
-3.95116 23.9119 -0.873188 528.276 425.751
1.28408 24.0438 -4.76272 550.176 428.214
6.57874 23.0267 -0.717522 572.101 428.37
11.2248 20.3343 3.63466 592.299 421.36
15.0398 16.5888 8.13102 609.675 409.581
17.5816 11.9479 13.8921 622.193 393.755
18.7126 6.79709 18.5668 629.325 374.679
19.1195 1.58962 20.8424 633.779 354.227
19.1942 -3.65713 21.1898 637.105 332.841
18.9737 -8.91896 21.3859 639.242 311.173
-16.9326 -13.8303 0.0151322 496.757 263.461
-14.8853 -15.94 -1.70452 506.602 255.494
-12.0702 -16.9425 -3.09079 518.925 252.624
-9.07333 -17.1066 -4.4416 531.503 253.313
-6.08655 -16.6895 -5.61507 543.68 256.434
3.65801 -17.1429 -5.71462 584.05 260.287
6.32706 -18.0113 -4.42343 595.394 258.682
9.1376 -18.3513 -2.96787 606.993 259.379
11.9496 -18.0157 -1.46669 618.2 262.863
14.2964 -16.5345 0.191557 626.807 270.821
-0.531403 -11.9244 -5.04724 563.697 279.436
-0.394329 -9.12778 -7.69836 562.928 290.202
-0.262281 -6.36009 -10.5729 562.181 300.779
-0.134082 -3.61422 -13.4095 561.426 311.276
-2.75665 0.0977707 -5.85035 547.625 327.226
-1.25737 0.202213 -7.09736 553.873 328.166
0.264524 0.187561 -8.35199 560.284 328.627
1.68619 0.027668 -7.04097 566.08 329.201
3.07484 -0.257967 -5.81876 571.823 329.213
-12.5918 -10.0053 -1.17464 512.522 281.362
-10.9224 -11.4643 -1.24566 520.249 276.337
-8.68481 -11.8046 -1.10065 529.637 276.302
-6.67836 -10.8731 -0.790738 537.316 281.401
-8.51984 -9.94492 -1.01734 529.223 284.057
-10.6112 -9.63426 -1.03081 520.439 284.095
5.42108 -11.7074 -0.80363 587.587 285.104
7.22606 -12.8414 -1.01576 595.699 281.45
9.44612 -12.8511 -1.09128 604.847 282.696
11.2568 -11.6201 -0.989536 611.569 288.846
9.3928 -10.9659 -0.905818 603.509 290.457
7.31736 -11.0154 -0.941717 595.002 289.02
-5.59369 9.98458 -3.02822 529.875 366.976
-3.44943 8.70059 -5.0827 539.676 362.356
-1.44597 7.5232 -6.77591 548.795 358.198
0.709858 7.81679 -8.13554 557.646 360.267
2.76206 7.25595 -6.60453 566.246 359.632
4.81183 8.15561 -4.88953 573.964 365.046
6.95173 9.19247 -2.86006 581.937 371.17
4.74501 9.35496 -3.99608 572.89 370.196
2.50936 8.91126 -5.24776 564.09 366.683
0.726392 8.77699 -6.6212 556.985 364.67
-1.04141 9.11818 -5.37806 549.374 365.401
-3.27251 9.87448 -4.06041 539.605 367.584
-1.15468 9.49095 -5.38561 548.691 366.862
0.838529 9.5796 -7.04632 557.027 367.903
2.74904 9.26681 -5.20352 564.864 368.297
2.4172 6.82702 -4.58061 564.85 358.274
0.616682 6.38863 -6.41405 557.903 354.865
-1.16987 7.05912 -4.74833 549.974 357.062
3 20 21 23
3 21 22 23
3 0 1 36
3 15 16 45
3 0 17 36
3 16 26 45
3 17 18 37
3 25 26 44
3 17 36 37
3 26 44 45
3 18 19 38
3 24 25 43
3 18 37 38
3 25 43 44
3 19 20 38
3 23 24 43
3 20 21 39
3 22 23 42
3 20 38 39
3 23 42 43
3 21 22 27
3 21 27 39
3 22 27 42
3 27 28 42
3 27 28 39
3 28 42 47
3 28 39 40
3 1 36 41
3 15 45 46
3 1 2 41
3 14 15 46
3 28 29 40
3 28 29 47
3 2 40 41
3 14 46 47
3 2 29 40
3 14 29 47
3 2 3 29
3 13 14 29
3 29 30 31
3 29 30 35
3 3 29 31
3 13 29 35
3 30 32 33
3 30 33 34
3 30 31 32
3 30 34 35
3 3 4 31
3 12 13 35
3 4 5 48
3 11 12 54
3 5 6 48
3 10 11 54
3 6 48 59
3 10 54 55
3 6 7 59
3 9 10 55
3 7 58 59
3 9 55 56
3 8 57 58
3 8 56 57
3 7 8 58
3 8 9 56
3 4 31 48
3 12 35 54
3 31 48 49
3 35 53 54
3 31 49 50
3 35 52 53
3 31 32 50
3 34 35 52
3 32 33 50
3 33 34 52
3 33 50 51
3 33 51 52
3 48 49 60
3 49 60 50
3 50 60 61
3 50 51 61
3 51 52 61
3 61 62 52
3 52 53 62
3 53 54 62
3 54 55 63
3 55 56 63
3 56 63 64
3 56 57 64
3 64 65 57
3 57 58 65
3 58 59 65
3 48 59 65
