ply
format ascii 1.0
element vertex 66
property float x
property float y
property float z
property float u
property float v
element face 91
property list uchar int vertex_indices
end_header
-19.9031 -5.92085 21.4594 478.921 297.6
-19.3631 -0.520605 20.9635 477.891 320.033
-18.6268 4.88141 20.667 477.661 342.629
-17.5611 9.98528 18.4606 479.035 363.84
-15.7921 14.469 13.756 483.767 382.458
-12.7576 18.0552 8.08667 494.285 397.973
-8.65761 20.6471 3.18227 509.762 410.191
-3.98915 22.3979 -0.88396 528.057 419.453
1.14482 22.5341 -4.66642 549.236 422.414
6.38182 21.6754 -0.784497 571.168 422.791
10.8271 19.0626 3.31453 590.895 415.519
14.5573 15.706 8.22151 608.102 404.907
17.1856 11.6165 13.8782 621.192 390.756
18.5669 6.97252 18.4574 629.524 373.366
19.0605 1.91999 20.7413 634.533 353.326
19.034 -3.36901 20.9912 637.617 331.616
18.6992 -8.64096 21.3746 639.418 309.813
-16.9034 -13.5591 0.0738653 496.652 263.995
-14.8723 -15.7884 -1.52198 506.417 255.762
-12.0848 -16.854 -2.96089 518.584 252.801
-9.13931 -16.986 -4.39423 530.836 253.775
-6.2493 -16.5174 -5.66601 542.49 257.214
3.81342 -17.0304 -5.71425 584.21 261.2
6.35365 -17.9249 -4.33125 595.155 259.323
9.07547 -18.2839 -2.81108 606.518 259.784
11.8382 -17.9065 -1.26959 617.603 263.302
14.1835 -16.3582 0.265938 626.262 271.378
-0.471641 -11.8415 -5.03879 563.411 280.058
-0.285765 -9.12983 -7.7393 562.63 290.809
-0.10864 -6.44625 -10.5591 561.835 301.417
0.0586773 -3.76479 -13.3058 560.998 312.023
-2.79828 -0.33469 -5.98812 546.904 325.768
-1.23491 -0.130137 -7.12502 553.254 327.343
0.375916 -0.140129 -8.15754 559.925 328.085
1.86451 -0.31357 -7.05935 566.116 328.481
3.28746 -0.707659 -5.93444 572.17 327.936
-12.8191 -9.88356 -0.987328 511.272 281.381
-11.0694 -11.0876 -0.958201 519.2 277.498
-8.89695 -11.3824 -1.05448 528.321 277.585
-7.0029 -10.5761 -1.0221 535.626 282.054
-8.84942 -9.74589 -1.16802 527.53 284.32
-10.9002 -9.49551 -1.11833 518.938 284.115
5.61461 -11.4138 -0.925827 588.05 286.281
7.32637 -12.4381 -0.930799 595.714 283.108
9.48346 -12.5011 -0.81463 604.624 284.179
11.3549 -11.5482 -0.837699 611.749 289.226
9.55594 -10.8656 -0.984615 603.939 290.914
7.52097 -10.8445 -1.03793 595.554 289.756
-6.4862 8.89295 -2.95153 526.033 362.035
-4.22926 7.42078 -4.8412 536.279 356.997
-1.88057 6.22183 -6.55488 546.731 353.17
0.623424 6.23396 -8.32746 557.09 354.405
3.03661 5.93181 -6.42483 567.136 354.984
5.41324 6.83787 -4.6827 576.305 360.478
7.66717 8.06954 -2.79244 584.766 367.264
6.18847 10.4028 -4.21818 577.32 375.69
3.86903 11.9893 -5.53901 566.862 380.556
0.949268 12.5046 -6.93848 554.585 380.64
-2.03542 12.3164 -5.64007 542.371 378.301
-4.59796 11.0307 -4.25653 532.555 371.722
-2.07244 8.15267 -5.25917 544.726 361.235
0.717278 7.8812 -7.47084 556.449 361.394
3.43168 7.85108 -5.07174 567.551 363.368
3.65846 9.23462 -4.42703 567.623 369.314
0.837454 9.77639 -6.17661 555.749 369.501
-2.11284 9.57971 -4.56939 543.671 367.206
3 20 21 23
3 21 22 23
3 0 1 36
3 15 16 45
3 0 17 36
3 16 26 45
3 17 18 37
3 25 26 44
3 17 36 37
3 26 44 45
3 18 19 38
3 24 25 43
3 18 37 38
3 25 43 44
3 19 20 38
3 23 24 43
3 20 21 39
3 22 23 42
3 20 38 39
3 23 42 43
3 21 22 27
3 21 27 39
3 22 27 42
3 27 28 42
3 27 28 39
3 28 42 47
3 28 39 40
3 1 36 41
3 15 45 46
3 1 2 41
3 14 15 46
3 28 29 40
3 28 29 47
3 2 40 41
3 14 46 47
3 2 29 40
3 14 29 47
3 2 3 29
3 13 14 29
3 29 30 31
3 29 30 35
3 3 29 31
3 13 29 35
3 30 32 33
3 30 33 34
3 30 31 32
3 30 34 35
3 3 4 31
3 12 13 35
3 4 5 48
3 11 12 54
3 5 6 48
3 10 11 54
3 6 48 59
3 10 54 55
3 6 7 59
3 9 10 55
3 7 58 59
3 9 55 56
3 8 57 58
3 8 56 57
3 7 8 58
3 8 9 56
3 4 31 48
3 12 35 54
3 31 48 49
3 35 53 54
3 31 49 50
3 35 52 53
3 31 32 50
3 34 35 52
3 32 33 50
3 33 34 52
3 33 50 51
3 33 51 52
3 48 49 60
3 49 60 50
3 50 60 61
3 50 51 61
3 51 52 61
3 61 62 52
3 52 53 62
3 53 54 62
3 54 55 63
3 55 56 63
3 56 63 64
3 56 57 64
3 64 65 57
3 57 58 65
3 58 59 65
3 48 59 65
