ply
format ascii 1.0
element vertex 66
property float x
property float y
property float z
property float u
property float v
element face 91
property list uchar int vertex_indices
end_header
-20.6001 -6.62379 21.8097 473.362 306.428
-20.1715 -0.79071 21.3328 473.242 329.796
-19.5573 5.05568 21.0128 473.837 353.37
-18.7302 10.539 18.5085 475.882 374.377
-17.2312 15.2529 13.701 481.402 391.285
-13.9081 18.6077 7.94976 494.979 402.873
-9.10286 20.36 3.22247 514.89 409.104
-3.84293 21.0458 -0.891643 536.873 411.539
1.50958 20.4873 -4.5714 559.557 409.236
6.76435 19.8438 -0.61454 580.248 410.689
11.4631 17.7732 3.59124 599.111 406.334
15.5215 14.9377 8.2759 615.531 398.929
18.2331 11.1507 13.8594 626.615 387.694
19.4931 6.79432 18.3474 632.235 373.05
19.8382 2.08592 20.889 634.677 355.605
19.7074 -2.92201 20.9361 635.819 335.432
19.2858 -7.89017 21.2318 635.716 315.449
-17.5536 -14.456 -0.0135156 492.998 264.201
-15.0586 -16.4693 -1.45444 504.102 256.222
-12.004 -17.2731 -2.87823 517.067 253.322
-8.90212 -17.2083 -4.29253 529.93 253.94
-5.89119 -16.5635 -5.62857 542.212 256.9
3.75536 -16.6804 -5.72749 581.406 259.866
6.36414 -17.481 -4.30488 591.955 258.359
9.15322 -17.8233 -2.83288 603.071 258.787
12.0059 -17.4859 -1.34289 614.213 261.983
14.4907 -15.9442 0.191214 623.449 269.916
-0.45762 -11.46 -5.21283 562.451 279.627
-0.425343 -8.7635 -7.74048 562.213 289.12
-0.40597 -6.11264 -10.5892 562.007 298.252
-0.375456 -3.46998 -13.4767 561.857 307.333
-2.99429 0.101769 -5.99417 548.441 324.809
-1.41531 0.205961 -7.16004 555.059 325.168
0.18437 0.145358 -8.26035 561.803 324.907
1.65572 0.0586906 -7.03391 567.54 325.755
3.07505 -0.210208 -5.88638 573.144 325.807
-13.3971 -10.0966 -1.07876 508.621 282.67
-11.4927 -11.2683 -0.986646 516.721 278.693
-9.22199 -11.4468 -0.905869 525.975 278.84
-7.29797 -10.3604 -0.750479 533.382 283.992
-9.29714 -9.69571 -1.1109 525.125 285.748
-11.4442 -9.54893 -1.1482 516.374 285.542
5.81712 -10.9463 -0.981038 586.832 286.254
7.52186 -12.0326 -0.907762 594.097 282.54
9.68949 -12.1391 -0.844543 602.913 282.93
11.5836 -11.118 -0.79437 610.243 287.751
9.77781 -10.4116 -1.0289 602.73 289.813
7.72294 -10.4231 -1.12779 594.419 288.97
-5.9717 10.3071 -3.23888 532.346 366.287
-3.91475 8.42845 -5.16011 541.73 358.432
-1.78487 6.70706 -6.82071 551.303 351.377
0.669839 6.62993 -8.44346 561.632 351.076
3.06457 6.39727 -6.4373 570.998 352.093
5.33811 7.76102 -4.81266 579.417 359.282
7.48365 9.44252 -3.05787 587.182 367.774
5.64894 10.3573 -3.99879 579.632 370.282
3.43513 10.6803 -5.25025 570.809 370.103
1.16746 10.7128 -6.64336 561.895 368.66
-1.222 10.9879 -5.56006 551.879 369.488
-3.67652 10.9808 -4.31801 541.66 369.244
-1.55189 8.88435 -5.4911 551.233 360.942
0.898864 8.4219 -7.38228 561.733 358.944
3.38838 8.57861 -5.13031 571.3 361.695
3.35171 8.41023 -4.43875 571.061 361.378
1.00237 8.25928 -6.29526 561.976 358.916
-1.35718 8.72306 -4.80747 551.932 360.734
3 20 21 23
3 21 22 23
3 0 1 36
3 15 16 45
3 0 17 36
3 16 26 45
3 17 18 37
3 25 26 44
3 17 36 37
3 26 44 45
3 18 19 38
3 24 25 43
3 18 37 38
3 25 43 44
3 19 20 38
3 23 24 43
3 20 21 39
3 22 23 42
3 20 38 39
3 23 42 43
3 21 22 27
3 21 27 39
3 22 27 42
3 27 28 42
3 27 28 39
3 28 42 47
3 28 39 40
3 1 36 41
3 15 45 46
3 1 2 41
3 14 15 46
3 28 29 40
3 28 29 47
3 2 40 41
3 14 46 47
3 2 29 40
3 14 29 47
3 2 3 29
3 13 14 29
3 29 30 31
3 29 30 35
3 3 29 31
3 13 29 35
3 30 32 33
3 30 33 34
3 30 31 32
3 30 34 35
3 3 4 31
3 12 13 35
3 4 5 48
3 11 12 54
3 5 6 48
3 10 11 54
3 6 48 59
3 10 54 55
3 6 7 59
3 9 10 55
3 7 58 59
3 9 55 56
3 8 57 58
3 8 56 57
3 7 8 58
3 8 9 56
3 4 31 48
3 12 35 54
3 31 48 49
3 35 53 54
3 31 49 50
3 35 52 53
3 31 32 50
3 34 35 52
3 32 33 50
3 33 34 52
3 33 50 51
3 33 51 52
3 48 49 60
3 49 60 50
3 50 60 61
3 50 51 61
3 51 52 61
3 61 62 52
3 52 53 62
3 53 54 62
3 54 55 63
3 55 56 63
3 56 63 64
3 56 57 64
3 64 65 57
3 57 58 65
3 58 59 65
3 48 59 65
