ply
format ascii 1.0
element vertex 66
property float x
property float y
property float z
property float u
property float v
element face 91
property list uchar int vertex_indices
end_header
-20.7548 -6.1191 21.6511 477.705 302.92
-20.2739 -0.591972 21.1714 476.924 324.483
-19.5662 4.93674 20.8897 477.006 346.267
-18.5589 10.165 18.5503 478.706 365.988
-16.8293 14.7561 13.6017 483.932 382.268
-13.5756 18.2962 7.96681 495.77 394.876
-9.11774 20.6275 3.28834 512.808 403.868
-4.10006 21.93 -0.891554 532.487 409.386
1.19184 21.8405 -4.68944 553.882 409.808
6.56434 21.1579 -0.732536 574.791 411.893
11.3429 18.9232 3.507 594.095 407.765
15.3929 15.7761 8.16822 610.925 399.92
18.2091 11.7438 13.753 623.212 388.461
19.5394 7.06032 18.594 630.082 373.328
19.9675 1.95422 20.9875 633.959 354.843
19.9269 -3.3985 21.2004 636.423 334.05
19.5711 -8.72456 21.5443 637.616 313.266
-17.6144 -13.6886 0.0961918 496.854 264.052
-15.3559 -15.7875 -1.54198 507.009 256.184
-12.4388 -16.6599 -2.96123 519.115 253.549
-9.4291 -16.6453 -4.3631 531.143 254.429
-6.49966 -16.0616 -5.62177 542.553 257.561
4.00444 -16.5348 -5.65347 584.105 261.055
6.69518 -17.5028 -4.31436 594.979 259.331
9.57077 -17.9483 -2.85419 606.303 259.8
12.5056 -17.6082 -1.36156 617.467 263.382
15.0193 -15.9933 0.284899 626.32 271.799
-0.563394 -11.2221 -5.05017 563.42 279.756
-0.386554 -8.37486 -7.82198 563.096 289.546
-0.218992 -5.55474 -10.7077 562.765 299.168
-0.0527351 -2.73311 -13.4329 562.405 308.876
-3.02478 0.429517 -6.11969 548.114 323.41
-1.37971 0.66651 -7.23336 554.624 324.608
0.313639 0.668165 -8.23719 561.425 324.968
1.90894 0.460149 -7.14934 567.649 325.522
3.42153 0.00769568 -6.08809 573.673 325.067
-13.4356 -9.58198 -0.999275 511.408 281.646
-11.5043 -10.8384 -1.05072 519.634 277.704
-9.16595 -11.0873 -1.07689 528.958 277.912
-7.12338 -10.1227 -0.983072 536.5 282.764
-9.15999 -9.36897 -1.16966 528.143 284.571
-11.3674 -9.15405 -1.13448 519.349 284.302
5.64135 -10.9113 -0.94746 587.09 286.215
7.48861 -12.0793 -1.01418 594.944 282.567
9.79417 -12.1784 -0.925072 604.049 283.401
11.8377 -11.1905 -0.804649 611.579 288.358
9.88931 -10.4822 -0.988223 603.591 290.035
7.70916 -10.4302 -1.05212 595 289.093
-6.21428 8.89804 -3.03161 530.935 356.386
-4.11242 7.15337 -5.00767 540.346 349.649
-1.82369 5.85274 -6.68477 550.229 344.891
0.6358 5.89108 -8.3531 560.119 345.448
3.02689 5.54163 -6.48903 569.434 346.25
5.40488 6.509 -4.80246 578.069 352.092
7.60905 7.99029 -2.84341 585.727 359.989
5.85995 9.61508 -3.9934 578.204 364.852
3.52084 10.5028 -5.34716 568.755 366.434
0.962236 10.7309 -6.81545 558.787 365.274
-1.63215 10.8222 -5.51313 548.354 364.968
-4.13672 10.2731 -4.11275 538.577 362.26
-1.74068 8.03718 -5.37977 549.289 354.117
0.786528 7.82974 -7.32232 559.605 353.61
3.27424 7.72855 -5.18909 569.139 355.567
3.30394 7.79614 -4.48724 569.123 356.202
0.804782 7.87834 -6.25545 559.503 354.351
-1.73295 8.12489 -4.65573 549.173 354.83
3 20 21 23
3 21 22 23
3 0 1 36
3 15 16 45
3 0 17 36
3 16 26 45
3 17 18 37
3 25 26 44
3 17 36 37
3 26 44 45
3 18 19 38
3 24 25 43
3 18 37 38
3 25 43 44
3 19 20 38
3 23 24 43
3 20 21 39
3 22 23 42
3 20 38 39
3 23 42 43
3 21 22 27
3 21 27 39
3 22 27 42
3 27 28 42
3 27 28 39
3 28 42 47
3 28 39 40
3 1 36 41
3 15 45 46
3 1 2 41
3 14 15 46
3 28 29 40
3 28 29 47
3 2 40 41
3 14 46 47
3 2 29 40
3 14 29 47
3 2 3 29
3 13 14 29
3 29 30 31
3 29 30 35
3 3 29 31
3 13 29 35
3 30 32 33
3 30 33 34
3 30 31 32
3 30 34 35
3 3 4 31
3 12 13 35
3 4 5 48
3 11 12 54
3 5 6 48
3 10 11 54
3 6 48 59
3 10 54 55
3 6 7 59
3 9 10 55
3 7 58 59
3 9 55 56
3 8 57 58
3 8 56 57
3 7 8 58
3 8 9 56
3 4 31 48
3 12 35 54
3 31 48 49
3 35 53 54
3 31 49 50
3 35 52 53
3 31 32 50
3 34 35 52
3 32 33 50
3 33 34 52
3 33 50 51
3 33 51 52
3 48 49 60
3 49 60 50
3 50 60 61
3 50 51 61
3 51 52 61
3 61 62 52
3 52 53 62
3 53 54 62
3 54 55 63
3 55 56 63
3 56 63 64
3 56 57 64
3 64 65 57
3 57 58 65
3 58 59 65
3 48 59 65
