ply
format ascii 1.0
element vertex 66
property float x
property float y
property float z
property float u
property float v
element face 91
property list uchar int vertex_indices
end_header
-20.0301 -5.87124 21.3748 476.372 301.67
-19.555 -0.470159 20.9194 475.487 323.961
-18.844 4.92744 20.6462 475.554 346.423
-17.7683 10.0297 18.4326 477.51 367.247
-15.9881 14.5332 13.6261 482.993 385.161
-12.909 18.1378 8.03926 494.399 399.84
-8.73616 20.6997 3.23626 510.776 411.083
-3.98726 22.353 -0.875798 529.931 419.131
1.18038 22.4378 -4.64099 551.61 421.078
6.42902 21.5977 -0.744614 573.216 421.735
10.9145 19.0545 3.4195 592.561 415.07
14.69 15.7275 8.21821 609.327 405.005
17.3445 11.6355 13.7785 621.797 391.434
18.7293 6.97878 18.4732 629.443 374.576
19.2456 1.91556 20.7652 634.014 354.803
19.2259 -3.38418 20.9917 636.747 333.103
18.8748 -8.66506 21.3167 638.093 311.332
-16.8077 -13.8862 0.0620166 496.45 263.655
-14.7305 -15.9945 -1.55273 506.324 255.608
-11.9554 -16.9501 -2.95865 518.43 252.741
-9.05091 -17.0314 -4.37861 530.602 253.529
-6.20757 -16.5392 -5.66434 542.199 256.683
3.687 -17.0206 -5.6979 583.209 260.075
6.27965 -17.941 -4.32077 594.217 258.148
9.05078 -18.3297 -2.82498 605.661 258.54
11.8645 -17.9633 -1.33229 616.876 262.054
14.2508 -16.3986 0.237738 625.679 270.281
-0.579496 -11.7248 -5.04919 562.724 279.709
-0.412558 -9.01389 -7.71914 562.272 290.073
-0.251839 -6.33171 -10.5257 561.827 300.272
-0.0944962 -3.65428 -13.2435 561.36 310.477
-2.84376 -0.206572 -5.94947 547.331 325.486
-1.31543 -0.0577609 -7.08664 553.679 326.562
0.249515 -0.0955712 -8.13819 560.268 326.919
1.73101 -0.246144 -7.01278 566.317 327.469
3.15289 -0.591543 -5.91211 572.228 327.177
-12.8083 -10.0235 -1.06761 510.982 281.328
-11.0183 -11.2885 -0.994717 519.023 277.13
-8.77643 -11.5601 -0.969538 528.398 277.242
-6.84862 -10.6585 -0.890532 535.845 282.017
-8.74607 -9.81642 -1.13294 527.608 284.366
-10.853 -9.5686 -1.11299 518.796 284.244
5.46042 -11.4835 -0.838022 586.971 285.339
7.20165 -12.5978 -0.875386 594.744 281.698
9.42538 -12.6689 -0.847476 603.936 282.624
11.3447 -11.6614 -0.882205 611.304 287.794
9.51002 -10.9265 -0.967755 603.365 289.786
7.4178 -10.9022 -1.01498 594.741 288.733
-5.5439 9.59325 -3.03476 530.615 365.196
-3.75677 7.76066 -4.97196 539.185 358.019
-1.72846 6.22905 -6.62589 548.554 352.301
0.615838 6.23132 -8.32526 558.407 353.038
2.89911 5.93682 -6.46164 567.748 353.67
5.04244 7.18628 -4.79 575.708 360.503
6.93851 8.80155 -2.86685 582.424 368.786
5.52747 10.6 -4.17046 575.802 374.984
3.46666 11.7496 -5.48281 566.854 378.162
0.974867 12.1177 -6.90768 556.563 377.86
-1.5569 12.0551 -5.61634 546.018 376.642
-3.81018 11.2024 -4.24267 537.034 372.358
-1.55038 8.47077 -5.21344 547.919 362.057
0.746878 8.12693 -7.28555 557.808 361.228
3.01652 8.19973 -5.0481 566.852 363.48
3.06017 8.88271 -4.46453 566.597 366.496
0.819257 9.17654 -6.19974 557.415 365.926
-1.49795 9.1751 -4.60697 547.686 365.173
3 20 21 23
3 21 22 23
3 0 1 36
3 15 16 45
3 0 17 36
3 16 26 45
3 17 18 37
3 25 26 44
3 17 36 37
3 26 44 45
3 18 19 38
3 24 25 43
3 18 37 38
3 25 43 44
3 19 20 38
3 23 24 43
3 20 21 39
3 22 23 42
3 20 38 39
3 23 42 43
3 21 22 27
3 21 27 39
3 22 27 42
3 27 28 42
3 27 28 39
3 28 42 47
3 28 39 40
3 1 36 41
3 15 45 46
3 1 2 41
3 14 15 46
3 28 29 40
3 28 29 47
3 2 40 41
3 14 46 47
3 2 29 40
3 14 29 47
3 2 3 29
3 13 14 29
3 29 30 31
3 29 30 35
3 3 29 31
3 13 29 35
3 30 32 33
3 30 33 34
3 30 31 32
3 30 34 35
3 3 4 31
3 12 13 35
3 4 5 48
3 11 12 54
3 5 6 48
3 10 11 54
3 6 48 59
3 10 54 55
3 6 7 59
3 9 10 55
3 7 58 59
3 9 55 56
3 8 57 58
3 8 56 57
3 7 8 58
3 8 9 56
3 4 31 48
3 12 35 54
3 31 48 49
3 35 53 54
3 31 49 50
3 35 52 53
3 31 32 50
3 34 35 52
3 32 33 50
3 33 34 52
3 33 50 51
3 33 51 52
3 48 49 60
3 49 60 50
3 50 60 61
3 50 51 61
3 51 52 61
3 61 62 52
3 52 53 62
3 53 54 62
3 54 55 63
3 55 56 63
3 56 63 64
3 56 57 64
3 64 65 57
3 57 58 65
3 58 59 65
3 48 59 65
