ply
format ascii 1.0
element vertex 66
property float x
property float y
property float z
property float u
property float v
element face 91
property list uchar int vertex_indices
end_header
-19.2649 -5.84189 21.3713 476.887 299.912
-18.652 -0.393923 20.8967 476.237 323.744
-17.8772 5.04888 20.4977 476.286 347.66
-16.8372 10.2527 18.4378 477.707 370.543
-15.1657 14.8868 13.7559 482.333 391.094
-12.2699 18.6569 8.07223 492.819 408.567
-8.32638 21.4845 3.13657 508.362 422.686
-3.76854 23.4381 -0.939308 527.046 433.495
1.31739 23.5958 -4.69581 549.087 436.908
6.44608 22.4641 -0.758605 571.71 435.542
10.5873 19.3893 3.3611 591.246 425.209
13.9763 15.6522 8.30811 607.899 411.641
16.3589 11.3418 13.9453 620.523 395.053
17.6922 6.65423 18.3921 628.908 376.081
18.2228 1.68245 20.5245 634.119 355.164
18.2499 -3.46903 20.7892 637.36 332.982
17.9741 -8.61522 21.1313 639.288 310.644
-16.36 -13.9659 0.0806955 495.442 264.537
-14.3594 -16.1709 -1.55532 505.501 256.083
-11.5987 -17.2684 -2.97857 518.154 252.893
-8.66068 -17.4546 -4.38477 531.017 253.744
-5.75827 -17.0106 -5.62034 543.334 257.308
3.62961 -17.4217 -5.76254 584.103 261.248
6.10496 -18.235 -4.39935 595.212 259.384
8.74924 -18.5066 -2.87096 606.712 259.976
11.4073 -18.095 -1.31528 617.853 263.527
13.6375 -16.5884 0.245119 626.481 271.542
-0.424143 -12.3351 -5.03432 563.475 280.793
-0.309003 -9.56074 -7.67369 562.415 292.572
-0.201623 -6.81763 -10.4704 561.348 304.197
-0.101902 -4.08381 -13.2437 560.252 315.78
-2.74687 -0.634123 -5.9021 546.368 329.772
-1.26198 -0.475861 -7.04251 552.737 331.249
0.266216 -0.497716 -8.13512 559.399 331.979
1.66086 -0.621194 -6.98637 565.435 332.411
3.00457 -0.927231 -5.81159 571.361 332.026
-11.9505 -10.5211 -1.05149 512.429 281.978
-10.3381 -11.6934 -0.983223 520.098 277.911
-8.29937 -11.9798 -1.00573 529.072 277.917
-6.52591 -11.1734 -0.837528 536.225 282.495
-8.24519 -10.3832 -1.02609 528.334 284.837
-10.1601 -10.1487 -1.04613 519.928 284.678
5.35613 -11.9421 -0.902032 587.972 286.422
6.94538 -12.8791 -0.904267 595.401 283.349
8.94804 -12.9053 -0.831271 604.055 284.465
10.6288 -11.9098 -0.907349 610.706 289.778
8.95842 -11.3066 -0.962805 603.133 291.355
7.08429 -11.3348 -1.00611 595.065 290.086
-6.48893 9.27506 -2.90676 524.033 370.536
-4.19709 7.95221 -4.86875 534.827 366.034
-1.89953 6.76584 -6.57539 545.551 362.149
0.568138 6.81919 -8.2536 556.251 363.72
2.94144 6.4858 -6.40683 566.603 363.911
5.24879 7.38778 -4.66545 575.923 369.382
7.48121 8.49797 -2.74813 584.784 375.723
6.05348 10.793 -4.23426 577.3 384.607
3.80039 12.3684 -5.49555 566.681 389.905
0.931862 12.9181 -6.8879 554.037 390.389
-2.04318 12.7004 -5.6331 541.268 387.758
-4.60064 11.4158 -4.33518 530.949 380.783
-2.0584 8.67819 -5.22919 543.632 370.435
0.680052 8.41077 -7.43423 555.724 370.735
3.35093 8.39291 -4.98896 567.137 372.529
3.56836 9.62208 -4.37277 567.296 378.025
0.812963 10.1761 -6.26088 555.163 378.548
-2.08761 9.96076 -4.60386 542.694 376.013
3 20 21 23
3 21 22 23
3 0 1 36
3 15 16 45
3 0 17 36
3 16 26 45
3 17 18 37
3 25 26 44
3 17 36 37
3 26 44 45
3 18 19 38
3 24 25 43
3 18 37 38
3 25 43 44
3 19 20 38
3 23 24 43
3 20 21 39
3 22 23 42
3 20 38 39
3 23 42 43
3 21 22 27
3 21 27 39
3 22 27 42
3 27 28 42
3 27 28 39
3 28 42 47
3 28 39 40
3 1 36 41
3 15 45 46
3 1 2 41
3 14 15 46
3 28 29 40
3 28 29 47
3 2 40 41
3 14 46 47
3 2 29 40
3 14 29 47
3 2 3 29
3 13 14 29
3 29 30 31
3 29 30 35
3 3 29 31
3 13 29 35
3 30 32 33
3 30 33 34
3 30 31 32
3 30 34 35
3 3 4 31
3 12 13 35
3 4 5 48
3 11 12 54
3 5 6 48
3 10 11 54
3 6 48 59
3 10 54 55
3 6 7 59
3 9 10 55
3 7 58 59
3 9 55 56
3 8 57 58
3 8 56 57
3 7 8 58
3 8 9 56
3 4 31 48
3 12 35 54
3 31 48 49
3 35 53 54
3 31 49 50
3 35 52 53
3 31 32 50
3 34 35 52
3 32 33 50
3 33 34 52
3 33 50 51
3 33 51 52
3 48 49 60
3 49 60 50
3 50 60 61
3 50 51 61
3 51 52 61
3 61 62 52
3 52 53 62
3 53 54 62
3 54 55 63
3 55 56 63
3 56 63 64
3 56 57 64
3 64 65 57
3 57 58 65
3 58 59 65
3 48 59 65
