ply
format ascii 1.0
element vertex 66
property float x
property float y
property float z
property float u
property float v
element face 91
property list uchar int vertex_indices
end_header
-20.5478 -6.11572 21.5811 477.334 302.891
-20.0834 -0.579177 21.0634 476.541 324.726
-19.4131 4.96715 20.7637 476.532 346.807
-18.4168 10.1886 18.4811 478.245 366.825
-16.6936 14.7332 13.6189 483.525 383.308
-13.4856 18.2328 7.97263 495.323 396.039
-9.07145 20.5291 3.20852 512.384 405.046
-4.11251 21.8724 -0.877851 531.985 410.889
1.16582 21.771 -4.64966 553.521 411.342
6.52945 21.0818 -0.721424 574.645 413.186
11.2394 18.7866 3.4253 593.928 408.468
15.2512 15.665 8.17563 610.759 400.426
18.0341 11.6697 13.7754 623.02 388.724
19.3836 7.033 18.5118 630.013 373.36
19.818 1.94157 20.8615 633.914 354.605
19.7416 -3.4173 21.0892 636.201 333.528
19.3647 -8.74628 21.4646 637.26 312.487
-17.3229 -13.6206 0.124534 496.713 264.67
-15.1814 -15.7283 -1.51183 506.475 256.647
-12.38 -16.6581 -2.93632 518.255 253.705
-9.46874 -16.6927 -4.33727 530.031 254.363
-6.63027 -16.168 -5.58867 541.224 257.262
4.15064 -16.6629 -5.6327 584.318 260.699
6.73307 -17.5703 -4.29342 594.845 259.052
9.49656 -17.9696 -2.82437 605.826 259.564
12.3122 -17.593 -1.31901 616.629 263.181
14.7203 -15.9999 0.302072 625.202 271.449
-0.540423 -11.2244 -5.12646 562.946 280.048
-0.378813 -8.47169 -7.85652 562.609 289.691
-0.226158 -5.74394 -10.6845 562.263 299.185
-0.0749137 -3.0118 -13.364 561.888 308.766
-2.97241 0.178489 -6.12702 547.837 323.35
-1.36386 0.402065 -7.20161 554.265 324.527
0.293009 0.401896 -8.16653 560.98 324.899
1.85136 0.204909 -7.12193 567.129 325.401
3.33263 -0.224904 -6.0921 573.087 324.939
-12.977 -9.71914 -1.07722 512.238 281.675
-11.1392 -10.8637 -1.04498 520.097 278.096
-8.94043 -11.0992 -1.04663 528.951 278.269
-7.02673 -10.2118 -0.897281 536.103 282.803
-8.94668 -9.48158 -1.13693 528.147 284.607
-11.0323 -9.28929 -1.15747 519.767 284.309
5.61278 -11.0065 -0.875149 586.721 286.022
7.34161 -12.0786 -0.980634 594.131 282.608
9.50652 -12.1722 -0.915064 602.772 283.357
11.4403 -11.2794 -0.885592 610.016 287.865
9.61571 -10.5849 -1.01743 602.443 289.627
7.56017 -10.5275 -1.03053 594.247 288.815
-6.31175 8.87259 -2.98249 529.888 357.481
-4.18941 7.1915 -4.95757 539.412 350.972
-1.88388 5.87979 -6.66467 549.446 346.139
0.621794 5.85219 -8.39063 559.65 346.466
3.06559 5.56586 -6.4685 569.244 347.478
5.45583 6.54881 -4.74804 578.031 353.377
7.66144 7.97207 -2.7969 585.837 361.03
6.00031 9.79922 -4.00777 578.505 366.83
3.70209 10.958 -5.36672 568.987 369.602
0.981718 11.304 -6.82838 558.203 368.905
-1.79046 11.2968 -5.5307 547.015 368.104
-4.29488 10.4696 -4.11916 537.276 364.255
-2.0036 7.76847 -5.3484 547.869 354.159
0.742394 7.4176 -7.40155 559.231 353.175
3.46505 7.43298 -5.15342 569.741 355.673
3.62573 8.60348 -4.4062 569.706 360.729
0.863136 8.95107 -6.16915 558.794 359.874
-1.97475 8.96916 -4.58095 547.293 359.278
3 20 21 23
3 21 22 23
3 0 1 36
3 15 16 45
3 0 17 36
3 16 26 45
3 17 18 37
3 25 26 44
3 17 36 37
3 26 44 45
3 18 19 38
3 24 25 43
3 18 37 38
3 25 43 44
3 19 20 38
3 23 24 43
3 20 21 39
3 22 23 42
3 20 38 39
3 23 42 43
3 21 22 27
3 21 27 39
3 22 27 42
3 27 28 42
3 27 28 39
3 28 42 47
3 28 39 40
3 1 36 41
3 15 45 46
3 1 2 41
3 14 15 46
3 28 29 40
3 28 29 47
3 2 40 41
3 14 46 47
3 2 29 40
3 14 29 47
3 2 3 29
3 13 14 29
3 29 30 31
3 29 30 35
3 3 29 31
3 13 29 35
3 30 32 33
3 30 33 34
3 30 31 32
3 30 34 35
3 3 4 31
3 12 13 35
3 4 5 48
3 11 12 54
3 5 6 48
3 10 11 54
3 6 48 59
3 10 54 55
3 6 7 59
3 9 10 55
3 7 58 59
3 9 55 56
3 8 57 58
3 8 56 57
3 7 8 58
3 8 9 56
3 4 31 48
3 12 35 54
3 31 48 49
3 35 53 54
3 31 49 50
3 35 52 53
3 31 32 50
3 34 35 52
3 32 33 50
3 33 34 52
3 33 50 51
3 33 51 52
3 48 49 60
3 49 60 50
3 50 60 61
3 50 51 61
3 51 52 61
3 61 62 52
3 52 53 62
3 53 54 62
3 54 55 63
3 55 56 63
3 56 63 64
3 56 57 64
3 64 65 57
3 57 58 65
3 58 59 65
3 48 59 65
