ply
format ascii 1.0
element vertex 66
property float x
property float y
property float z
property float u
property float v
element face 91
property list uchar int vertex_indices
end_header
-20.7212 -6.10514 21.5796 478.186 302.502
-20.2646 -0.578651 21.0779 477.244 324.069
-19.5913 4.95338 20.782 477.122 345.87
-18.584 10.1779 18.4803 478.755 365.666
-16.8282 14.7511 13.5836 484.032 382.043
-13.5614 18.2689 7.9465 495.895 394.728
-9.0916 20.5639 3.23269 512.979 403.719
-4.08627 21.8838 -0.887511 532.581 409.472
1.20941 21.7981 -4.66423 553.991 410.059
6.5768 21.1045 -0.726631 574.894 412.077
11.3326 18.8542 3.4531 594.15 407.818
15.3923 15.7432 8.15608 611.03 400.09
18.2023 11.724 13.7541 623.33 388.603
19.5398 7.04269 18.5256 630.292 373.358
19.9651 1.9274 20.8906 634.229 354.767
19.8932 -3.43841 21.1165 636.642 333.894
19.5192 -8.77456 21.4839 637.831 313.048
-17.3663 -13.7322 0.108596 498.312 263.995
-15.1498 -15.8129 -1.5248 508.32 256.233
-12.2892 -16.7008 -2.94106 520.224 253.569
-9.32948 -16.6985 -4.33441 532.062 254.443
-6.44986 -16.1278 -5.58771 543.277 257.563
3.91356 -16.5678 -5.6244 584.267 261.239
6.56378 -17.5335 -4.28647 594.992 259.506
9.40141 -17.9751 -2.82918 606.17 259.976
12.2975 -17.6279 -1.33984 617.173 263.571
14.7905 -16.0412 0.27567 625.942 271.856
-0.571872 -11.1963 -5.10048 563.82 280.12
-0.405206 -8.40151 -7.82959 563.443 289.784
-0.246872 -5.63236 -10.6738 563.062 299.287
-0.0883541 -2.861 -13.3759 562.661 308.868
-3.01365 0.294088 -6.1213 548.519 323.2
-1.39659 0.550846 -7.19935 554.902 324.52
0.27554 0.564539 -8.17339 561.611 324.971
1.86124 0.347626 -7.11008 567.807 325.472
3.35737 -0.119629 -6.07332 573.782 324.935
-13.0011 -9.67612 -1.06066 513.586 281.537
-11.182 -10.8256 -1.05984 521.325 278
-8.99661 -11.0536 -1.05724 530.036 278.252
-7.09202 -10.1648 -0.912634 537.055 282.787
-8.99684 -9.4347 -1.14103 529.224 284.531
-11.0669 -9.24419 -1.15103 520.986 284.189
5.69459 -10.9642 -0.894929 587.751 286.352
7.4207 -12.0345 -0.989414 595.098 283.03
9.57356 -12.1206 -0.925259 603.6 283.849
11.4892 -11.2199 -0.861493 610.668 288.397
9.66948 -10.5343 -1.00856 603.183 290.051
7.62794 -10.4785 -1.0372 595.129 289.188
-6.30336 8.895 -3.00523 530.765 356.578
-4.19569 7.1814 -4.97842 540.206 350.026
-1.89216 5.86436 -6.66373 550.176 345.264
0.612922 5.85616 -8.35087 560.273 345.717
3.06291 5.55024 -6.45779 569.796 346.726
5.46298 6.5392 -4.76207 578.492 352.668
7.67821 7.98878 -2.82106 586.192 360.431
5.94826 9.70024 -3.99303 578.684 365.636
3.62038 10.7252 -5.33621 569.198 367.766
0.962418 11.0211 -6.79998 558.802 366.818
-1.73866 11.0591 -5.51032 547.975 366.186
-4.24744 10.3686 -4.11514 538.26 362.862
-1.83756 7.8594 -5.35293 549.19 353.721
0.744154 7.56472 -7.35507 559.779 352.941
3.30799 7.54232 -5.16348 569.563 355.263
3.41125 8.27962 -4.44247 569.492 358.547
0.825431 8.51122 -6.22207 559.456 357.231
-1.81285 8.61948 -4.61423 548.796 357.062
3 20 21 23
3 21 22 23
3 0 1 36
3 15 16 45
3 0 17 36
3 16 26 45
3 17 18 37
3 25 26 44
3 17 36 37
3 26 44 45
3 18 19 38
3 24 25 43
3 18 37 38
3 25 43 44
3 19 20 38
3 23 24 43
3 20 21 39
3 22 23 42
3 20 38 39
3 23 42 43
3 21 22 27
3 21 27 39
3 22 27 42
3 27 28 42
3 27 28 39
3 28 42 47
3 28 39 40
3 1 36 41
3 15 45 46
3 1 2 41
3 14 15 46
3 28 29 40
3 28 29 47
3 2 40 41
3 14 46 47
3 2 29 40
3 14 29 47
3 2 3 29
3 13 14 29
3 29 30 31
3 29 30 35
3 3 29 31
3 13 29 35
3 30 32 33
3 30 33 34
3 30 31 32
3 30 34 35
3 3 4 31
3 12 13 35
3 4 5 48
3 11 12 54
3 5 6 48
3 10 11 54
3 6 48 59
3 10 54 55
3 6 7 59
3 9 10 55
3 7 58 59
3 9 55 56
3 8 57 58
3 8 56 57
3 7 8 58
3 8 9 56
3 4 31 48
3 12 35 54
3 31 48 49
3 35 53 54
3 31 49 50
3 35 52 53
3 31 32 50
3 34 35 52
3 32 33 50
3 33 34 52
3 33 50 51
3 33 51 52
3 48 49 60
3 49 60 50
3 50 60 61
3 50 51 61
3 51 52 61
3 61 62 52
3 52 53 62
3 53 54 62
3 54 55 63
3 55 56 63
3 56 63 64
3 56 57 64
3 64 65 57
3 57 58 65
3 58 59 65
3 48 59 65
