ply
format ascii 1.0
element vertex 66
property float x
property float y
property float z
property float u
property float v
element face 91
property list uchar int vertex_indices
end_header
-20.474 -6.07314 21.5406 475.283 303.284
-20.0104 -0.535666 21.0126 474.644 325.31
-19.3279 5.00997 20.713 474.844 347.59
-18.2848 10.2068 18.4768 476.966 367.677
-16.5128 14.6849 13.6247 482.77 383.929
-13.3387 18.1499 7.99707 494.801 396.431
-9.00552 20.477 3.18223 511.888 405.368
-4.11943 21.8861 -0.90063 531.507 411.284
1.13031 21.8234 -4.64593 553.22 411.68
6.47881 21.086 -0.732579 574.417 413.303
11.1045 18.7019 3.40906 593.443 408.129
15.0283 15.5349 8.20015 609.912 399.824
17.7999 11.5715 13.7668 622.001 388.179
19.2457 7.00788 18.4813 629.182 373.071
19.755 1.9604 20.7928 633.214 354.369
19.6988 -3.37245 21.0109 635.442 333.198
19.32 -8.67605 21.381 636.337 312.065
-17.176 -13.8219 0.103881 495.579 263.169
-14.985 -15.9094 -1.48203 505.607 255.108
-12.1429 -16.7999 -2.89972 517.663 252.217
-9.20735 -16.7965 -4.32274 529.679 252.931
-6.35891 -16.2151 -5.60634 541.053 255.977
3.88622 -16.6498 -5.65596 582.409 259.171
6.46252 -17.606 -4.2835 592.982 257.299
9.2381 -18.0399 -2.79189 604.092 257.665
12.0816 -17.7063 -1.29056 615.115 261.127
14.5277 -16.1392 0.281274 623.956 269.349
-0.533522 -11.3859 -5.09736 562.112 278.296
-0.377858 -8.60019 -7.81752 561.873 288.099
-0.231954 -5.84149 -10.6446 561.624 297.737
-0.087329 -3.07987 -13.3437 561.348 307.45
-2.94878 0.0860927 -6.09798 547.218 322.343
-1.35149 0.311323 -7.17984 553.701 323.467
0.297701 0.303694 -8.13438 560.48 323.751
1.84418 0.119311 -7.09136 566.61 324.291
3.30637 -0.308097 -6.06432 572.517 323.813
-13.1459 -9.82555 -1.07015 510.087 280.452
-11.215 -11.0206 -0.999849 518.388 276.658
-8.89852 -11.262 -1.00088 527.804 276.815
-6.90113 -10.3214 -0.891447 535.369 281.584
-8.9229 -9.57813 -1.15002 526.944 283.439
-11.1118 -9.3746 -1.15596 518.059 283.189
5.47492 -11.0837 -0.875042 585.425 284.537
7.27478 -12.2103 -0.937277 593.189 280.886
9.55206 -12.3154 -0.866319 602.372 281.603
11.5795 -11.3816 -0.868892 610.079 286.303
9.67303 -10.6564 -1.0104 602.107 288.201
7.518 -10.6025 -1.04085 593.432 287.358
-5.91768 8.97435 -2.9934 530.648 357.899
-3.9338 7.29473 -4.9399 539.711 351.181
-1.75308 5.9667 -6.64814 549.363 346.08
0.638181 5.93502 -8.42457 559.266 346.212
2.96983 5.67078 -6.43318 568.434 347.292
5.23429 6.68529 -4.71623 576.779 353.297
7.29376 8.13054 -2.80039 584.069 361.02
5.83129 10.0479 -4.07383 577.504 367.312
3.68446 11.3266 -5.41727 568.501 370.692
1.02593 11.7187 -6.87919 557.875 370.231
-1.69134 11.655 -5.59679 546.787 369.311
-4.07112 10.6899 -4.19413 537.455 365.023
-1.87 7.87713 -5.29916 547.785 354.319
0.763202 7.50307 -7.40501 558.872 353.037
3.37672 7.56078 -5.08749 568.97 355.701
3.55106 8.82482 -4.39111 568.969 361.175
0.900128 9.23245 -6.14221 558.413 360.633
-1.83505 9.17447 -4.58189 547.205 359.868
3 20 21 23
3 21 22 23
3 0 1 36
3 15 16 45
3 0 17 36
3 16 26 45
3 17 18 37
3 25 26 44
3 17 36 37
3 26 44 45
3 18 19 38
3 24 25 43
3 18 37 38
3 25 43 44
3 19 20 38
3 23 24 43
3 20 21 39
3 22 23 42
3 20 38 39
3 23 42 43
3 21 22 27
3 21 27 39
3 22 27 42
3 27 28 42
3 27 28 39
3 28 42 47
3 28 39 40
3 1 36 41
3 15 45 46
3 1 2 41
3 14 15 46
3 28 29 40
3 28 29 47
3 2 40 41
3 14 46 47
3 2 29 40
3 14 29 47
3 2 3 29
3 13 14 29
3 29 30 31
3 29 30 35
3 3 29 31
3 13 29 35
3 30 32 33
3 30 33 34
3 30 31 32
3 30 34 35
3 3 4 31
3 12 13 35
3 4 5 48
3 11 12 54
3 5 6 48
3 10 11 54
3 6 48 59
3 10 54 55
3 6 7 59
3 9 10 55
3 7 58 59
3 9 55 56
3 8 57 58
3 8 56 57
3 7 8 58
3 8 9 56
3 4 31 48
3 12 35 54
3 31 48 49
3 35 53 54
3 31 49 50
3 35 52 53
3 31 32 50
3 34 35 52
3 32 33 50
3 33 34 52
3 33 50 51
3 33 51 52
3 48 49 60
3 49 60 50
3 50 60 61
3 50 51 61
3 51 52 61
3 61 62 52
3 52 53 62
3 53 54 62
3 54 55 63
3 55 56 63
3 56 63 64
3 56 57 64
3 64 65 57
3 57 58 65
3 58 59 65
3 48 59 65
