ply
format ascii 1.0
element vertex 66
property float x
property float y
property float z
property float u
property float v
element face 91
property list uchar int vertex_indices
end_header
-20.6672 -6.09527 21.5923 478.08 302.233
-20.1936 -0.567221 21.104 477.204 323.911
-19.5006 4.9651 20.8027 477.167 345.807
-18.4817 10.1877 18.5058 478.836 365.712
-16.7274 14.7573 13.5955 484.083 382.2
-13.4813 18.291 7.96028 495.839 395.061
-9.04407 20.6338 3.24429 512.78 404.311
-4.04955 21.9845 -0.881405 532.348 410.244
1.25281 21.8876 -4.66689 553.821 410.826
6.60965 21.176 -0.729749 574.808 412.695
11.3361 18.8888 3.45388 594.074 408.179
15.3478 15.7373 8.16782 610.889 400.156
18.1235 11.7055 13.7683 623.157 388.461
19.4415 7.02651 18.5638 630.107 373.089
19.8638 1.90821 20.9137 634.066 354.368
19.8008 -3.4624 21.1486 636.516 333.401
19.4356 -8.80504 21.5195 637.741 312.451
-17.4267 -13.62 0.126747 497.515 264.24
-15.2476 -15.7282 -1.52905 507.405 256.326
-12.4026 -16.6344 -2.95306 519.281 253.58
-9.45355 -16.6447 -4.35052 531.109 254.411
-6.58147 -16.0916 -5.59838 542.327 257.48
4.17878 -16.6239 -5.62767 585.069 260.98
6.79934 -17.5618 -4.29867 595.713 259.3
9.60109 -17.986 -2.835 606.794 259.791
12.4563 -17.6226 -1.33413 617.681 263.414
14.8932 -16.0158 0.310293 626.266 271.759
-0.558949 -11.1937 -5.09657 563.541 280.046
-0.390729 -8.40398 -7.84803 563.148 289.759
-0.230083 -5.63914 -10.6974 562.752 299.324
-0.0710765 -2.87118 -13.3907 562.326 308.974
-3.01772 0.29511 -6.14513 548.135 323.289
-1.39846 0.529383 -7.21744 554.548 324.54
0.270289 0.534042 -8.1869 561.259 324.967
1.8477 0.328377 -7.14092 567.452 325.478
3.34628 -0.112945 -6.09464 573.453 325.026
-13.0875 -9.63821 -1.05197 512.772 281.542
-11.2182 -10.8287 -1.06551 520.756 277.843
-8.9686 -11.0669 -1.07732 529.758 278.075
-7.00856 -10.1466 -0.922208 537.005 282.775
-8.96832 -9.40049 -1.13914 528.92 284.576
-11.0978 -9.19944 -1.14548 520.414 284.252
5.61769 -10.9554 -0.898241 587.245 286.188
7.39394 -12.0738 -0.999672 594.837 282.682
9.61509 -12.1683 -0.930129 603.642 283.5
11.5892 -11.2326 -0.865878 610.949 288.225
9.71585 -10.5253 -1.00839 603.215 289.954
7.61223 -10.4658 -1.03917 594.887 289.078
-6.33181 8.81094 -2.97907 530.311 356.438
-4.21331 7.11916 -4.96877 539.794 349.966
-1.90665 5.83388 -6.66657 549.774 345.324
0.584219 5.83871 -8.3594 559.825 345.835
3.01099 5.51943 -6.49217 569.319 346.734
5.40333 6.47809 -4.77786 578.049 352.55
7.61696 7.90899 -2.80677 585.799 360.245
5.91107 9.66611 -3.99168 578.329 365.68
3.59067 10.7258 -5.36456 568.813 367.973
0.927395 11.034 -6.82068 558.336 367.103
-1.78419 11.0613 -5.51392 547.449 366.419
-4.2929 10.3326 -4.10374 537.733 362.928
-1.95663 7.81906 -5.35727 548.396 353.699
0.71143 7.53296 -7.37184 559.336 353.01
3.34937 7.49139 -5.17678 569.48 355.262
3.46299 8.2555 -4.43822 569.443 358.666
0.790739 8.50866 -6.22018 559.002 357.421
-1.94402 8.60889 -4.60255 547.945 357.159
3 20 21 23
3 21 22 23
3 0 1 36
3 15 16 45
3 0 17 36
3 16 26 45
3 17 18 37
3 25 26 44
3 17 36 37
3 26 44 45
3 18 19 38
3 24 25 43
3 18 37 38
3 25 43 44
3 19 20 38
3 23 24 43
3 20 21 39
3 22 23 42
3 20 38 39
3 23 42 43
3 21 22 27
3 21 27 39
3 22 27 42
3 27 28 42
3 27 28 39
3 28 42 47
3 28 39 40
3 1 36 41
3 15 45 46
3 1 2 41
3 14 15 46
3 28 29 40
3 28 29 47
3 2 40 41
3 14 46 47
3 2 29 40
3 14 29 47
3 2 3 29
3 13 14 29
3 29 30 31
3 29 30 35
3 3 29 31
3 13 29 35
3 30 32 33
3 30 33 34
3 30 31 32
3 30 34 35
3 3 4 31
3 12 13 35
3 4 5 48
3 11 12 54
3 5 6 48
3 10 11 54
3 6 48 59
3 10 54 55
3 6 7 59
3 9 10 55
3 7 58 59
3 9 55 56
3 8 57 58
3 8 56 57
3 7 8 58
3 8 9 56
3 4 31 48
3 12 35 54
3 31 48 49
3 35 53 54
3 31 49 50
3 35 52 53
3 31 32 50
3 34 35 52
3 32 33 50
3 33 34 52
3 33 50 51
3 33 51 52
3 48 49 60
3 49 60 50
3 50 60 61
3 50 51 61
3 51 52 61
3 61 62 52
3 52 53 62
3 53 54 62
3 54 55 63
3 55 56 63
3 56 63 64
3 56 57 64
3 64 65 57
3 57 58 65
3 58 59 65
3 48 59 65
