ply
format ascii 1.0
element vertex 66
property float x
property float y
property float z
property float u
property float v
element face 91
property list uchar int vertex_indices
end_header
-19.932 -5.19252 20.4886 471.66 545.22
-19.5658 -0.347058 20.0142 473.694 569.315
-18.742 4.46374 19.8629 478.116 593.153
-17.2625 9.06851 17.8363 485.04 616.222
-14.9292 13.4659 13.2863 495.195 638.606
-11.8027 17.5926 7.87658 508.919 659.727
-7.90019 21.15 3.1293 526.694 677.862
-3.2142 23.7425 -0.82174 548.574 691.025
2.19234 24.3036 -4.38408 574.001 693.994
7.2098 23.2599 -0.972611 600.07 687.909
11.5312 20.7266 3.05547 622.807 674.384
15.0819 17.2601 7.95452 641.99 656.144
17.4178 12.8924 13.5979 655.371 633.398
18.3571 7.71388 18.6099 661.528 606.83
18.7175 2.01544 20.6227 663.614 578.205
18.7907 -3.85323 21.1303 663.682 548.996
18.61 -9.69469 21.825 662.567 519.91
-14.6786 -14.5114 0.104077 488.983 501.867
-12.826 -15.9923 -1.57646 497.378 494.655
-10.6026 -16.7346 -2.95658 507.786 491.034
-8.27355 -16.9156 -4.32617 518.768 490.189
-6.02941 -16.5805 -5.66373 529.385 491.906
3.64651 -18.1411 -5.21229 577.321 483.398
6.28078 -19.1088 -3.99325 590.751 478.212
9.04093 -19.4221 -2.65593 604.904 476.246
11.7466 -18.7655 -1.33934 618.862 479.1
14.0259 -17.142 0.328699 630.926 486.726
-1.49571 -11.0471 -4.98704 552.551 518.932
-1.12515 -8.17449 -7.71174 553.57 533.597
-0.730618 -5.31443 -10.4568 554.699 548.201
-0.335201 -2.45796 -13.0176 555.904 562.758
-3.76886 0.679396 -6.39039 541.739 577.51
-2.18103 1.15828 -7.08183 549.37 579.884
-0.487638 1.27592 -7.68555 557.528 580.443
1.37641 0.800908 -7.13389 566.928 577.864
3.0938 0.00720871 -6.3904 575.65 573.684
-11.7409 -9.48398 -1.11114 503.474 526.8
-10.2655 -10.2588 -1.14329 510.699 522.855
-8.55947 -10.5003 -1.16339 519.115 521.537
-6.98793 -10.3393 -1.11933 526.924 522.217
-8.48827 -9.71101 -1.19855 519.52 525.455
-10.1405 -9.4099 -1.16667 511.38 527.062
5.44999 -11.7829 -0.740467 588.513 514.104
7.06612 -12.4894 -0.921294 596.383 510.511
8.92897 -12.5057 -0.936288 605.596 510.3
10.7014 -12.1013 -0.956703 614.395 512.183
9.04559 -11.6862 -0.936628 606.242 514.358
7.24282 -11.5373 -0.948143 597.327 515.228
-5.24645 9.06338 -2.6503 536.577 618.62
-4.38794 6.42462 -4.7118 539.806 605.795
-2.4833 4.62075 -6.28384 548.473 596.959
0.0619809 4.36933 -8.07485 560.357 595.817
2.65781 4.117 -6.59284 573.758 594.142
4.95018 5.56935 -4.94044 585.866 600.92
6.46916 7.81578 -2.66245 594.455 611.594
5.15705 10.1546 -3.9554 587.656 623.501
3.26293 12.0093 -5.3391 577.9 633.062
0.601962 12.7877 -6.62776 564.295 637.321
-2.02964 12.563 -5.12336 551.834 636.153
-3.99944 11.1183 -3.85109 542.456 628.921
-2.19643 6.87128 -4.65093 550.714 607.845
0.123624 6.22199 -7.27468 561.127 604.878
2.51709 6.34806 -5.04895 573.846 604.976
2.66344 9.37958 -4.51992 575.03 619.924
0.301067 10.3176 -6.13636 562.789 625.006
-2.1071 9.87317 -4.17906 551.591 622.66
3 20 21 23
3 21 22 23
3 0 1 36
3 15 16 45
3 0 17 36
3 16 26 45
3 17 18 37
3 25 26 44
3 17 36 37
3 26 44 45
3 18 19 38
3 24 25 43
3 18 37 38
3 25 43 44
3 19 20 38
3 23 24 43
3 20 21 39
3 22 23 42
3 20 38 39
3 23 42 43
3 21 22 27
3 21 27 39
3 22 27 42
3 27 28 42
3 27 28 39
3 28 42 47
3 28 39 40
3 1 36 41
3 15 45 46
3 1 2 41
3 14 15 46
3 28 29 40
3 28 29 47
3 2 40 41
3 14 46 47
3 2 29 40
3 14 29 47
3 2 3 29
3 13 14 29
3 29 30 31
3 29 30 35
3 3 29 31
3 13 29 35
3 30 32 33
3 30 33 34
3 30 31 32
3 30 34 35
3 3 4 31
3 12 13 35
3 4 5 48
3 11 12 54
3 5 6 48
3 10 11 54
3 6 48 59
3 10 54 55
3 6 7 59
3 9 10 55
3 7 58 59
3 9 55 56
3 8 57 58
3 8 56 57
3 7 8 58
3 8 9 56
3 4 31 48
3 12 35 54
3 31 48 49
3 35 53 54
3 31 49 50
3 35 52 53
3 31 32 50
3 34 35 52
3 32 33 50
3 33 34 52
3 33 50 51
3 33 51 52
3 48 49 60
3 49 60 50
3 50 60 61
3 50 51 61
3 51 52 61
3 61 62 52
3 52 53 62
3 53 54 62
3 54 55 63
3 55 56 63
3 56 63 64
3 56 57 64
3 64 65 57
3 57 58 65
3 58 59 65
3 48 59 65
