ply
format ascii 1.0
element vertex 66
property float x
property float y
property float z
property float u
property float v
element face 91
property list uchar int vertex_indices
end_header
-18.8238 -6.34394 21.0353 466.278 540.369
-18.3003 -1.03421 20.7149 470.729 565.666
-17.5127 4.23407 20.2364 476.449 590.691
-16.4907 9.45719 18.1947 483.473 615.637
-14.9534 14.5615 13.637 493.239 640.182
-12.219 19.0739 7.97396 508.668 661.615
-8.39573 22.6942 3.19339 528.885 678.255
-3.79717 25.23 -0.893769 552.343 689.319
1.41294 25.8725 -4.71904 578.02 691.055
6.67095 24.7349 -0.79963 602.318 683.148
11.0571 21.651 3.32778 621.716 666.202
14.4861 17.5028 8.09611 636.065 644.411
16.706 12.5943 13.7647 644.235 619.288
17.594 7.21446 18.4006 645.983 592.534
17.8965 1.75153 20.4609 645.218 565.958
17.9219 -3.72612 20.9848 643.313 539.629
17.6407 -9.21139 21.2281 639.971 513.414
-15.1776 -14.8623 0.0540485 483.333 501.202
-13.3733 -16.4016 -1.66042 491.643 493.416
-11.124 -17.2232 -3.06359 502.303 488.865
-8.7234 -17.4826 -4.39856 513.882 486.943
-6.32268 -17.2545 -5.60478 525.62 487.338
3.40779 -17.9029 -5.58039 572.014 480.708
5.78696 -18.5342 -4.33277 583.033 476.646
8.25012 -18.6584 -2.97952 594.623 474.969
10.6571 -18.1917 -1.53922 606.144 476.131
12.732 -16.9319 0.211279 616.319 481.169
-0.832046 -12.3523 -4.9797 553.608 508.752
-0.566834 -9.61414 -7.63962 556.193 522.152
-0.307212 -6.8938 -10.4141 558.759 535.485
-0.0532788 -4.1924 -13.1603 561.288 548.725
-2.73209 -0.0420188 -6.0411 549.044 568.573
-1.24087 0.0596324 -7.00309 556.347 568.657
0.266067 0.0512257 -7.98243 563.688 568.21
1.71072 -0.167016 -6.9676 570.406 566.498
3.12111 -0.502188 -6.09203 576.935 564.258
-11.3027 -10.184 -1.05683 503.716 522.373
-9.94812 -11.3028 -1.21418 509.826 516.545
-8.15703 -11.5595 -1.23904 518.321 514.671
-6.55551 -10.9505 -1.00011 526.184 516.976
-8.02186 -10.1044 -1.09236 519.471 521.573
-9.70836 -9.8386 -1.02692 511.476 523.448
4.672 -11.7418 -0.81165 579.681 509.097
6.15064 -12.6095 -1.19193 586.503 504.459
7.95668 -12.6527 -1.16312 595.139 503.594
9.48315 -11.7907 -0.96916 602.739 507.145
7.97425 -11.1748 -0.903352 595.72 510.632
6.26325 -11.1742 -0.914516 587.522 511.255
-6.27342 9.60126 -2.72824 535.11 615.591
-4.5355 7.32661 -4.89023 542.895 604.369
-2.22057 5.54922 -6.55065 553.561 595.25
0.631236 5.47614 -8.04015 567.388 594.079
3.43887 5.1474 -6.48143 580.529 591.268
5.94581 6.57211 -4.78946 592.841 596.949
7.93105 8.5619 -2.54768 602.786 605.447
6.13179 10.4152 -3.96134 595.004 615.178
3.75471 11.5922 -5.19485 584.189 621.852
1.01639 12.0457 -6.61831 571.407 625.217
-1.72889 11.9592 -5.25851 558.05 625.602
-4.22673 11.1518 -3.98944 545.632 622.458
-2.07339 8.02539 -4.92624 554.949 606.832
0.769568 7.66299 -7.05541 568.71 604.368
3.5727 7.63387 -4.86734 581.858 602.905
3.61997 8.79407 -4.43904 582.447 608.387
0.853908 9.21956 -6.27294 569.573 611.685
-1.981 9.18845 -4.46799 555.751 612.306
3 20 21 23
3 21 22 23
3 0 1 36
3 15 16 45
3 0 17 36
3 16 26 45
3 17 18 37
3 25 26 44
3 17 36 37
3 26 44 45
3 18 19 38
3 24 25 43
3 18 37 38
3 25 43 44
3 19 20 38
3 23 24 43
3 20 21 39
3 22 23 42
3 20 38 39
3 23 42 43
3 21 22 27
3 21 27 39
3 22 27 42
3 27 28 42
3 27 28 39
3 28 42 47
3 28 39 40
3 1 36 41
3 15 45 46
3 1 2 41
3 14 15 46
3 28 29 40
3 28 29 47
3 2 40 41
3 14 46 47
3 2 29 40
3 14 29 47
3 2 3 29
3 13 14 29
3 29 30 31
3 29 30 35
3 3 29 31
3 13 29 35
3 30 32 33
3 30 33 34
3 30 31 32
3 30 34 35
3 3 4 31
3 12 13 35
3 4 5 48
3 11 12 54
3 5 6 48
3 10 11 54
3 6 48 59
3 10 54 55
3 6 7 59
3 9 10 55
3 7 58 59
3 9 55 56
3 8 57 58
3 8 56 57
3 7 8 58
3 8 9 56
3 4 31 48
3 12 35 54
3 31 48 49
3 35 53 54
3 31 49 50
3 35 52 53
3 31 32 50
3 34 35 52
3 32 33 50
3 33 34 52
3 33 50 51
3 33 51 52
3 48 49 60
3 49 60 50
3 50 60 61
3 50 51 61
3 51 52 61
3 61 62 52
3 52 53 62
3 53 54 62
3 54 55 63
3 55 56 63
3 56 63 64
3 56 57 64
3 64 65 57
3 57 58 65
3 58 59 65
3 48 59 65
