ply
format ascii 1.0
element vertex 66
property float x
property float y
property float z
property float u
property float v
element face 91
property list uchar int vertex_indices
end_header
-19.5359 -6.74877 21.4235 457.097 554.799
-18.9802 -1.22169 21.0015 465.027 580.743
-18.2116 4.27905 20.48 473.967 606.367
-17.2597 9.7674 18.3207 484.075 631.861
-15.7532 15.082 13.6293 497.138 656.159
-12.7722 19.5042 7.81724 516.619 674.869
-8.59233 22.7681 3.15388 540.532 686.835
-3.73845 24.8669 -0.896672 566.46 692.553
1.51409 25.2984 -4.83428 592.706 689.912
6.77513 24.1237 -0.712725 615.998 679.075
11.2995 21.1404 3.36867 634.074 660.282
14.905 17.0818 8.00223 646.645 637.177
17.2793 12.2021 13.7458 652.353 611.235
18.255 6.87047 18.3351 651.161 584.522
18.5464 1.58911 20.4893 647.194 558.847
18.5198 -3.65461 20.9007 642.063 533.76
18.1894 -8.89305 21.2177 635.502 508.991
-15.8874 -14.9276 0.148099 470.78 513.562
-14.0421 -16.7204 -1.64249 478.249 503.358
-11.6547 -17.7617 -3.03755 488.943 496.213
-9.04676 -18.0569 -4.27716 501.364 492.42
-6.42844 -17.7379 -5.3748 514.385 491.547
3.79739 -18.1787 -5.43953 562.877 479.802
6.16504 -18.7462 -4.26829 573.449 474.782
8.61895 -18.7556 -2.99506 584.938 472.344
10.9654 -18.1308 -1.54327 596.477 473.03
12.9263 -16.748 0.32098 606.809 477.681
-0.52995 -11.7298 -4.94865 548.156 514.702
-0.32942 -8.8927 -7.72103 552.293 528.259
-0.141757 -6.06613 -10.5682 556.371 541.783
0.0398233 -3.25691 -13.337 560.39 555.224
-2.86643 0.426879 -6.2039 548.64 575.141
-1.22459 0.62448 -7.11323 556.844 574.595
0.442927 0.675132 -8.07441 565.042 573.326
1.96605 0.427486 -7.03622 571.901 570.64
3.43863 0.0236873 -6.16744 578.402 567.266
-11.24 -9.74617 -1.05329 498.092 534.044
-9.91348 -10.641 -1.30192 503.64 528.529
-8.27787 -10.8875 -1.34309 511.237 525.81
-6.71878 -10.4184 -0.963134 519.062 526.561
-8.13285 -9.71033 -1.05194 512.983 531.287
-9.70727 -9.5187 -1.03982 505.632 533.687
4.94009 -11.034 -0.918016 574.222 512.623
6.37967 -11.6223 -1.31896 580.626 508.476
7.98052 -11.6371 -1.25825 588.255 506.893
9.3573 -10.9073 -0.961779 595.469 509.068
7.9135 -10.4792 -0.96038 588.968 512.476
6.37176 -10.5108 -0.961049 581.567 513.779
-7.31159 8.82094 -2.69235 534.627 619.269
-4.98636 7.0024 -4.95712 544.453 608.519
-2.32706 5.63947 -6.62812 556.196 599.596
0.653999 5.67516 -8.03102 570.742 597.044
3.54632 5.26606 -6.44167 583.894 592.261
6.27823 6.25093 -4.75777 597.572 594.292
8.67144 7.80624 -2.49771 610.059 599.336
6.55101 9.54416 -3.77425 601.789 609.729
3.86815 10.5154 -5.02445 590.105 616.982
1.00642 10.8663 -6.55865 577.034 621.455
-1.92729 10.8546 -5.18196 562.742 624.078
-4.79279 10.2409 -3.92181 548.231 623.764
-2.30252 7.88143 -5.15149 558.148 610.206
0.819797 7.75145 -7.15973 573.325 606.767
3.86076 7.51405 -4.91645 587.229 602.624
3.97575 8.09713 -4.37438 588.227 605.271
0.889717 8.37719 -6.38863 574.106 609.646
-2.27077 8.48532 -4.5736 558.761 613.029
3 20 21 23
3 21 22 23
3 0 1 36
3 15 16 45
3 0 17 36
3 16 26 45
3 17 18 37
3 25 26 44
3 17 36 37
3 26 44 45
3 18 19 38
3 24 25 43
3 18 37 38
3 25 43 44
3 19 20 38
3 23 24 43
3 20 21 39
3 22 23 42
3 20 38 39
3 23 42 43
3 21 22 27
3 21 27 39
3 22 27 42
3 27 28 42
3 27 28 39
3 28 42 47
3 28 39 40
3 1 36 41
3 15 45 46
3 1 2 41
3 14 15 46
3 28 29 40
3 28 29 47
3 2 40 41
3 14 46 47
3 2 29 40
3 14 29 47
3 2 3 29
3 13 14 29
3 29 30 31
3 29 30 35
3 3 29 31
3 13 29 35
3 30 32 33
3 30 33 34
3 30 31 32
3 30 34 35
3 3 4 31
3 12 13 35
3 4 5 48
3 11 12 54
3 5 6 48
3 10 11 54
3 6 48 59
3 10 54 55
3 6 7 59
3 9 10 55
3 7 58 59
3 9 55 56
3 8 57 58
3 8 56 57
3 7 8 58
3 8 9 56
3 4 31 48
3 12 35 54
3 31 48 49
3 35 53 54
3 31 49 50
3 35 52 53
3 31 32 50
3 34 35 52
3 32 33 50
3 33 34 52
3 33 50 51
3 33 51 52
3 48 49 60
3 49 60 50
3 50 60 61
3 50 51 61
3 51 52 61
3 61 62 52
3 52 53 62
3 53 54 62
3 54 55 63
3 55 56 63
3 56 63 64
3 56 57 64
3 64 65 57
3 57 58 65
3 58 59 65
3 48 59 65
