ply
format ascii 1.0
element vertex 66
property float x
property float y
property float z
property float u
property float v
element face 91
property list uchar int vertex_indices
end_header
-19.0564 -6.7768 21.1959 465.225 540.067
-18.5306 -1.24266 20.8499 470.187 566.425
-17.7767 4.2567 20.3073 476.268 592.536
-16.7375 9.68481 18.325 483.979 618.326
-15.1271 14.8531 13.7347 494.846 642.881
-12.2831 19.2725 7.9739 511.544 663.426
-8.34715 22.7246 3.1382 532.876 678.765
-3.69289 25.1232 -0.909012 557.041 688.661
1.53382 25.6735 -4.72182 583.111 689.418
6.75255 24.4094 -0.765797 606.79 680.7
11.0238 21.1842 3.32099 625.059 662.971
14.363 17.0127 8.12248 638.309 641.033
16.6225 12.1948 13.8201 645.923 616.374
17.7444 7.01358 18.3105 648.171 590.583
18.1459 1.78739 20.3226 647.449 565.136
18.1169 -3.45053 20.7701 644.975 539.974
17.7736 -8.69143 20.9977 641.037 514.956
-15.3758 -14.9397 0.0495659 483.663 501.415
-13.5684 -16.5635 -1.58881 491.966 493.005
-11.2382 -17.406 -3.01088 503.066 488.096
-8.7522 -17.6109 -4.38248 515.177 486.173
-6.27091 -17.2945 -5.58741 527.454 486.737
3.5207 -17.6668 -5.62609 574.251 480.715
5.76825 -18.2511 -4.34234 584.517 476.811
8.11178 -18.365 -2.93917 595.42 475.111
10.4098 -17.963 -1.46643 606.312 475.898
12.3601 -16.7639 0.227307 615.834 480.638
-0.629155 -12.5941 -5.00097 556.4 506.787
-0.437296 -9.82946 -7.64813 559.042 520.231
-0.255996 -7.08236 -10.4236 561.651 533.608
-0.0767424 -4.35861 -13.2219 564.245 546.877
-2.88517 -0.345352 -6.01423 551.037 566.63
-1.27572 -0.186471 -7.02219 559.026 566.796
0.363096 -0.173553 -8.02768 567.094 566.248
1.87903 -0.388895 -6.94235 574.05 564.451
3.33461 -0.761027 -5.99414 580.677 561.941
-11.538 -10.3953 -1.14873 504.255 521.675
-10.0541 -11.6365 -1.19632 510.848 515.083
-8.06866 -11.9033 -1.17432 520.249 512.941
-6.33013 -11.0961 -0.826937 528.86 516.027
-7.95044 -10.1753 -1.02892 521.527 521.166
-9.80558 -9.92707 -1.03856 512.74 523.161
4.45582 -11.6676 -0.771764 580.321 508.61
6.02212 -12.6251 -1.14176 587.496 503.374
7.97439 -12.672 -1.12583 596.833 502.303
9.56916 -11.6357 -1.01124 604.901 506.573
7.96085 -10.9315 -0.928763 597.474 510.639
6.129 -10.9694 -0.914397 588.672 511.249
-6.16794 9.36842 -2.69682 538.786 614.324
-4.18643 7.67562 -4.8297 547.994 605.557
-1.90745 6.27394 -6.59526 558.679 598.021
0.730703 6.3213 -8.13917 571.662 597.26
3.29136 5.93803 -6.39499 583.422 594.139
5.66214 7.00223 -4.6298 594.887 598.043
7.72063 8.46407 -2.52418 604.956 603.955
6.06838 10.2603 -4.01306 598.106 613.437
3.7949 11.4031 -5.28284 587.952 620.03
1.12899 11.8578 -6.71642 575.655 623.508
-1.61147 11.7298 -5.43665 562.201 623.953
-4.09835 10.9048 -4.13429 549.659 620.942
-1.9287 8.27778 -5.02934 559.118 607.489
0.877406 8.0417 -7.14581 572.901 605.352
3.63172 7.93468 -4.8165 585.589 603.414
3.7846 8.94501 -4.36107 586.662 608.15
1.00729 9.44395 -6.24477 573.942 611.933
-1.86412 9.30777 -4.53249 559.768 612.353
3 20 21 23
3 21 22 23
3 0 1 36
3 15 16 45
3 0 17 36
3 16 26 45
3 17 18 37
3 25 26 44
3 17 36 37
3 26 44 45
3 18 19 38
3 24 25 43
3 18 37 38
3 25 43 44
3 19 20 38
3 23 24 43
3 20 21 39
3 22 23 42
3 20 38 39
3 23 42 43
3 21 22 27
3 21 27 39
3 22 27 42
3 27 28 42
3 27 28 39
3 28 42 47
3 28 39 40
3 1 36 41
3 15 45 46
3 1 2 41
3 14 15 46
3 28 29 40
3 28 29 47
3 2 40 41
3 14 46 47
3 2 29 40
3 14 29 47
3 2 3 29
3 13 14 29
3 29 30 31
3 29 30 35
3 3 29 31
3 13 29 35
3 30 32 33
3 30 33 34
3 30 31 32
3 30 34 35
3 3 4 31
3 12 13 35
3 4 5 48
3 11 12 54
3 5 6 48
3 10 11 54
3 6 48 59
3 10 54 55
3 6 7 59
3 9 10 55
3 7 58 59
3 9 55 56
3 8 57 58
3 8 56 57
3 7 8 58
3 8 9 56
3 4 31 48
3 12 35 54
3 31 48 49
3 35 53 54
3 31 49 50
3 35 52 53
3 31 32 50
3 34 35 52
3 32 33 50
3 33 34 52
3 33 50 51
3 33 51 52
3 48 49 60
3 49 60 50
3 50 60 61
3 50 51 61
3 51 52 61
3 61 62 52
3 52 53 62
3 53 54 62
3 54 55 63
3 55 56 63
3 56 63 64
3 56 57 64
3 64 65 57
3 57 58 65
3 58 59 65
3 48 59 65
