ply
format ascii 1.0
element vertex 66
property float x
property float y
property float z
property float u
property float v
element face 91
property list uchar int vertex_indices
end_header
-18.57 -5.87037 20.9021 459.495 545.098
-18.0792 -0.660868 20.3909 464.655 570.804
-17.3124 4.53587 20.0536 471.153 596.267
-16.3557 9.55106 18.1426 478.738 621.07
-14.9403 14.2559 13.5829 488.842 644.669
-12.3743 18.4153 8.05208 504.527 665.178
-8.6937 21.7598 3.19936 525.23 680.925
-4.23726 24.1318 -0.884872 549.175 691.281
0.887521 24.6357 -4.50271 575.419 691.925
6.2734 23.8879 -0.786269 601.219 684.645
10.7477 21.0994 3.34069 621.395 667.619
14.2916 17.2855 8.12704 636.332 645.842
16.6249 12.7438 13.6459 644.778 620.919
17.5974 7.67172 18.3348 646.323 594.243
17.9471 2.25373 20.3288 645.007 566.751
18.0103 -3.33545 20.7793 642.413 538.89
17.7344 -8.91043 21.1161 638.16 511.298
-14.9541 -15.2476 0.0658131 475.818 501.198
-13.1183 -16.576 -1.60996 484.51 494.024
-11.0353 -17.3261 -2.97188 494.676 489.524
-8.84822 -17.6696 -4.30016 505.559 486.981
-6.65668 -17.613 -5.54254 516.655 486.402
3.13195 -18.1971 -5.50406 564.951 478.462
5.44237 -18.739 -4.21968 575.953 474.308
7.83943 -18.8195 -2.8879 587.613 472.389
10.2232 -18.4204 -1.49513 599.44 472.844
12.4476 -17.3495 0.181866 610.776 476.652
-0.917665 -12.5668 -4.98595 547.628 508.369
-0.59695 -9.51579 -7.69192 551.178 523.925
-0.285739 -6.49038 -10.4992 554.682 539.381
0.0205612 -3.4649 -13.1359 558.137 554.802
-2.79928 0.715017 -6.2109 545.219 575.501
-1.22376 0.89243 -7.09026 553.263 575.76
0.398954 0.878688 -7.87708 561.431 575.027
1.97524 0.631791 -7.01719 569.002 572.806
3.46605 0.176937 -6.34103 576.071 569.637
-11.2086 -10.8824 -1.00793 496.793 521.162
-9.82696 -11.9286 -1.06833 503.13 515.273
-8.07934 -12.0996 -1.06083 511.719 513.525
-6.57363 -11.372 -0.971996 519.551 516.341
-8.05139 -10.7325 -1.1256 512.562 520.307
-9.68764 -10.5274 -1.0605 504.533 522.152
4.5126 -12.1748 -0.687967 574.14 506.596
5.86516 -13.1872 -1.04617 580.395 500.954
7.61966 -13.3258 -1.03334 589.033 499.361
9.1986 -12.5954 -0.885389 597.221 502.141
7.77449 -11.9426 -0.881809 590.482 506.112
6.1102 -11.8623 -0.849447 582.255 507.359
-5.47732 10.2321 -2.80691 536.246 623.366
-3.99335 7.77262 -4.98325 542.691 610.869
-1.87459 5.84291 -6.62671 552.477 600.558
0.809747 5.66439 -8.28782 565.964 598.65
3.48203 5.46077 -6.48968 578.857 595.878
5.83344 7.04827 -4.82572 591.087 602.187
7.61666 9.21408 -2.54595 600.698 611.525
5.96723 10.9479 -3.94386 593.6 621.277
3.78006 12.1118 -5.03912 583.497 628.413
1.16286 12.4753 -6.46602 570.903 631.87
-1.39261 12.4518 -5.15806 558.007 632.786
-3.6517 11.6672 -3.93653 546.209 629.791
-1.60637 8.41456 -4.91215 554.858 612.811
0.937763 7.83276 -7.09079 567.521 609.085
3.4795 8.05432 -4.85817 579.917 608.396
3.45955 9.34332 -4.44518 580.41 614.713
1.01613 9.64712 -6.14621 568.69 617.844
-1.45832 9.70004 -4.44751 556.176 619.013
3 20 21 23
3 21 22 23
3 0 1 36
3 15 16 45
3 0 17 36
3 16 26 45
3 17 18 37
3 25 26 44
3 17 36 37
3 26 44 45
3 18 19 38
3 24 25 43
3 18 37 38
3 25 43 44
3 19 20 38
3 23 24 43
3 20 21 39
3 22 23 42
3 20 38 39
3 23 42 43
3 21 22 27
3 21 27 39
3 22 27 42
3 27 28 42
3 27 28 39
3 28 42 47
3 28 39 40
3 1 36 41
3 15 45 46
3 1 2 41
3 14 15 46
3 28 29 40
3 28 29 47
3 2 40 41
3 14 46 47
3 2 29 40
3 14 29 47
3 2 3 29
3 13 14 29
3 29 30 31
3 29 30 35
3 3 29 31
3 13 29 35
3 30 32 33
3 30 33 34
3 30 31 32
3 30 34 35
3 3 4 31
3 12 13 35
3 4 5 48
3 11 12 54
3 5 6 48
3 10 11 54
3 6 48 59
3 10 54 55
3 6 7 59
3 9 10 55
3 7 58 59
3 9 55 56
3 8 57 58
3 8 56 57
3 7 8 58
3 8 9 56
3 4 31 48
3 12 35 54
3 31 48 49
3 35 53 54
3 31 49 50
3 35 52 53
3 31 32 50
3 34 35 52
3 32 33 50
3 33 34 52
3 33 50 51
3 33 51 52
3 48 49 60
3 49 60 50
3 50 60 61
3 50 51 61
3 51 52 61
3 61 62 52
3 52 53 62
3 53 54 62
3 54 55 63
3 55 56 63
3 56 63 64
3 56 57 64
3 64 65 57
3 57 58 65
3 58 59 65
3 48 59 65
