ply
format ascii 1.0
element vertex 66
property float x
property float y
property float z
property float u
property float v
element face 91
property list uchar int vertex_indices
end_header
-20.0121 -7.38183 21.7406 475.162 528.037
-19.3773 -1.57944 21.4008 476.94 554.946
-18.5818 4.19102 20.7576 479.603 581.791
-17.6326 9.94836 18.5234 483.713 608.862
-16.109 15.4241 13.684 491.727 635.173
-13.0047 19.8122 7.9099 507.664 656.953
-8.71415 22.9531 3.19702 528.824 673.063
-3.83077 24.95 -0.973986 552.703 683.941
1.40531 25.4036 -4.89181 578.425 687.743
6.72234 24.1244 -0.750489 601.16 682.287
11.252 20.9848 3.41884 620.686 668.095
14.86 16.8028 8.06088 636 648.837
17.3832 11.8996 13.7002 646.038 625.871
18.6291 6.66895 18.2045 650.82 601.316
19.0293 1.60124 20.4574 652.735 577.697
18.9709 -3.39972 20.8383 653.401 554.591
18.5653 -8.40657 21.0008 652.579 531.422
-16.6448 -14.1298 0.0106286 502.189 501.146
-14.6094 -15.9498 -1.68342 512.711 493.457
-11.9727 -16.8646 -3.08676 525.653 490.015
-9.15412 -16.9847 -4.40486 539.212 490.257
-6.32009 -16.5549 -5.51371 552.624 493.001
3.77139 -16.5612 -5.70605 598.975 495.092
6.00167 -17.1383 -4.43435 608.737 492.691
8.32781 -17.3201 -3.05287 618.8 492.114
10.6392 -17.1165 -1.5519 628.653 493.289
12.697 -16.1274 0.201595 637.052 497.989
-0.104231 -11.7043 -4.95841 579.782 516.539
0.0411355 -9.03449 -7.76013 581.156 529.314
0.161709 -6.3735 -10.6318 582.451 542.056
0.271249 -3.73151 -13.4187 583.661 554.694
-2.85553 -0.140186 -6.15627 565.156 569.42
-1.03496 0.136035 -7.13697 573.896 571.227
0.821565 0.237352 -8.14925 582.854 572.24
2.41133 -0.0294103 -6.99077 589.663 571.155
3.93023 -0.491723 -6.03462 596.285 569.187
-12.1329 -10.0262 -1.01547 522.437 521.144
-10.5789 -11.1467 -1.25292 529.92 516.343
-8.62072 -11.4273 -1.32353 538.992 515.468
-6.83351 -10.6481 -0.934973 546.831 519.364
-8.51528 -9.87432 -1.00142 538.98 522.59
-10.3691 -9.68582 -0.999841 530.439 523.074
4.9784 -11.0152 -0.953034 601.069 520.121
6.55349 -11.81 -1.29799 608.626 516.842
8.41647 -11.8575 -1.20648 617.135 516.994
9.96656 -10.8761 -0.906402 623.883 521.787
8.35299 -10.33 -0.937077 616.379 523.973
6.59061 -10.3984 -0.931898 608.313 523.292
-7.74544 8.35715 -2.70841 539.25 606.989
-5.28536 6.47232 -4.89459 551.962 599.169
-2.40287 5.13776 -6.62074 566.274 593.897
0.78141 5.22102 -8.0448 581.514 595.168
3.82196 4.82063 -6.27031 594.718 593.668
6.6658 5.80101 -4.56227 606.743 598.498
9.02258 7.54931 -2.49632 616.199 606.706
6.97676 9.47199 -3.79165 606.995 615.345
4.18736 10.5183 -5.06329 594.566 619.791
1.15991 10.8577 -6.67676 581.361 620.987
-2.00388 10.7707 -5.3235 566.249 619.714
-5.06564 10.0058 -3.98795 551.763 615.343
-2.52937 7.30533 -5.30658 564.602 603.642
0.962731 7.26494 -7.16935 581.485 604.478
4.32228 6.99895 -4.83469 595.86 603.574
4.51446 7.90449 -4.28802 596.286 607.696
1.11183 8.27609 -6.35892 581.567 609.036
-2.43119 8.24422 -4.65993 564.543 607.883
3 20 21 23
3 21 22 23
3 0 1 36
3 15 16 45
3 0 17 36
3 16 26 45
3 17 18 37
3 25 26 44
3 17 36 37
3 26 44 45
3 18 19 38
3 24 25 43
3 18 37 38
3 25 43 44
3 19 20 38
3 23 24 43
3 20 21 39
3 22 23 42
3 20 38 39
3 23 42 43
3 21 22 27
3 21 27 39
3 22 27 42
3 27 28 42
3 27 28 39
3 28 42 47
3 28 39 40
3 1 36 41
3 15 45 46
3 1 2 41
3 14 15 46
3 28 29 40
3 28 29 47
3 2 40 41
3 14 46 47
3 2 29 40
3 14 29 47
3 2 3 29
3 13 14 29
3 29 30 31
3 29 30 35
3 3 29 31
3 13 29 35
3 30 32 33
3 30 33 34
3 30 31 32
3 30 34 35
3 3 4 31
3 12 13 35
3 4 5 48
3 11 12 54
3 5 6 48
3 10 11 54
3 6 48 59
3 10 54 55
3 6 7 59
3 9 10 55
3 7 58 59
3 9 55 56
3 8 57 58
3 8 56 57
3 7 8 58
3 8 9 56
3 4 31 48
3 12 35 54
3 31 48 49
3 35 53 54
3 31 49 50
3 35 52 53
3 31 32 50
3 34 35 52
3 32 33 50
3 33 34 52
3 33 50 51
3 33 51 52
3 48 49 60
3 49 60 50
3 50 60 61
3 50 51 61
3 51 52 61
3 61 62 52
3 52 53 62
3 53 54 62
3 54 55 63
3 55 56 63
3 56 63 64
3 56 57 64
3 64 65 57
3 57 58 65
3 58 59 65
3 48 59 65
