ply
format ascii 1.0
element vertex 66
property float x
property float y
property float z
property float u
property float v
element face 91
property list uchar int vertex_indices
end_header
-19.0062 -6.59148 21.3033 467.81 535.313
-18.4532 -1.08743 20.922 472.219 561.767
-17.718 4.39181 20.3552 477.551 588.076
-16.7578 9.81862 18.3125 484.377 614.3
-15.2396 14.9907 13.7113 494.553 639.536
-12.4147 19.3407 7.96349 511.113 660.588
-8.48644 22.6741 3.10708 532.435 676.253
-3.89403 25.0015 -0.947397 556.429 686.73
1.23317 25.5656 -4.80369 582.422 688.502
6.50874 24.3356 -0.752533 606.324 680.296
10.8604 21.1018 3.3132 625.174 662.701
14.3023 16.9166 8.122 639.143 640.674
16.6454 12.0493 13.7961 647.363 615.552
17.7847 6.81639 18.2387 650.026 589.234
18.1727 1.58802 20.3158 649.749 563.549
18.1188 -3.63235 20.7585 647.813 538.301
17.7377 -8.85538 20.9815 644.363 513.175
-15.4608 -14.8327 0.0955029 488.553 497.87
-13.6264 -16.5938 -1.61305 497.365 489.084
-11.2311 -17.5761 -3.0091 509.022 483.834
-8.637 -17.8492 -4.31286 521.821 481.931
-6.03472 -17.5447 -5.45982 534.786 482.788
3.30309 -17.8166 -5.60961 579.763 478.637
5.57184 -18.4051 -4.34534 590.162 474.898
7.94691 -18.4853 -2.97994 601.195 473.563
10.2665 -18.0589 -1.49154 612.076 474.669
12.2688 -16.881 0.233707 621.582 479.463
-0.416951 -12.3499 -4.97674 563.27 506.057
-0.219805 -9.56557 -7.6509 565.815 519.865
-0.0393772 -6.79945 -10.4625 568.313 533.611
0.129798 -4.05494 -13.2752 570.751 547.257
-2.76208 -0.239307 -6.08761 555.876 565.4
-1.10878 -0.0816708 -7.03663 564.166 565.807
0.569348 -0.0636238 -8.00991 572.541 565.536
2.07028 -0.264138 -6.9513 579.412 563.938
3.52584 -0.618878 -6.06027 586.068 561.636
-11.1741 -10.3113 -1.04939 510.889 518.561
-9.72916 -11.4606 -1.20161 517.557 512.596
-7.84153 -11.695 -1.2523 526.602 510.894
-6.16787 -10.9133 -0.858301 534.789 514.09
-7.74087 -10.1105 -1.00272 527.485 518.47
-9.50558 -9.90137 -1.01018 519.042 520.021
4.42998 -11.4309 -0.801321 585.708 508.334
5.91791 -12.3362 -1.22945 592.735 503.578
7.75521 -12.4173 -1.16832 601.55 502.614
9.2784 -11.4566 -0.985244 609.125 506.753
7.74399 -10.8142 -0.944915 601.908 510.317
6.02154 -10.8394 -0.906376 593.586 510.718
-7.08689 9.10127 -2.68878 536.821 611.256
-4.82531 7.32052 -4.85516 547.818 602.318
-2.22358 5.90904 -6.57295 560.435 594.985
0.734564 5.91922 -8.08076 575.132 594.37
3.59505 5.57533 -6.35932 588.325 591.556
6.23036 6.6535 -4.62399 600.85 595.672
8.48126 8.22178 -2.46905 611.547 602.203
6.64767 10.3015 -3.98324 603.76 613.046
4.08629 11.6424 -5.19212 592.157 620.497
1.07823 12.1245 -6.67512 578.226 623.985
-2.00497 11.9491 -5.36522 562.934 623.872
-4.79481 10.9234 -4.09053 548.814 619.572
-2.49505 7.99632 -5.08576 559.318 604.902
0.8616 7.74051 -7.21748 576.037 602.982
4.12474 7.64651 -4.79938 591.044 601.138
4.33025 9.12824 -4.33083 592.34 608.15
1.01038 9.67635 -6.33648 577.075 612.136
-2.44223 9.51413 -4.55752 559.871 612.125
3 20 21 23
3 21 22 23
3 0 1 36
3 15 16 45
3 0 17 36
3 16 26 45
3 17 18 37
3 25 26 44
3 17 36 37
3 26 44 45
3 18 19 38
3 24 25 43
3 18 37 38
3 25 43 44
3 19 20 38
3 23 24 43
3 20 21 39
3 22 23 42
3 20 38 39
3 23 42 43
3 21 22 27
3 21 27 39
3 22 27 42
3 27 28 42
3 27 28 39
3 28 42 47
3 28 39 40
3 1 36 41
3 15 45 46
3 1 2 41
3 14 15 46
3 28 29 40
3 28 29 47
3 2 40 41
3 14 46 47
3 2 29 40
3 14 29 47
3 2 3 29
3 13 14 29
3 29 30 31
3 29 30 35
3 3 29 31
3 13 29 35
3 30 32 33
3 30 33 34
3 30 31 32
3 30 34 35
3 3 4 31
3 12 13 35
3 4 5 48
3 11 12 54
3 5 6 48
3 10 11 54
3 6 48 59
3 10 54 55
3 6 7 59
3 9 10 55
3 7 58 59
3 9 55 56
3 8 57 58
3 8 56 57
3 7 8 58
3 8 9 56
3 4 31 48
3 12 35 54
3 31 48 49
3 35 53 54
3 31 49 50
3 35 52 53
3 31 32 50
3 34 35 52
3 32 33 50
3 33 34 52
3 33 50 51
3 33 51 52
3 48 49 60
3 49 60 50
3 50 60 61
3 50 51 61
3 51 52 61
3 61 62 52
3 52 53 62
3 53 54 62
3 54 55 63
3 55 56 63
3 56 63 64
3 56 57 64
3 64 65 57
3 57 58 65
3 58 59 65
3 48 59 65
