ply
format ascii 1.0
element vertex 66
property float x
property float y
property float z
property float u
property float v
element face 91
property list uchar int vertex_indices
end_header
-19.6549 -7.28747 21.5685 475.666 529.269
-19.0278 -1.5847 21.198 477.428 556.161
-18.2227 4.08626 20.5883 480.14 582.985
-17.2525 9.72725 18.4418 484.348 609.976
-15.7578 15.0979 13.7054 492.275 636.272
-12.7925 19.4794 7.96339 507.757 658.436
-8.65967 22.6899 3.20497 528.491 675.198
-3.92462 24.8347 -0.941558 551.994 686.994
1.24334 25.3677 -4.80824 577.759 691.292
6.54213 24.167 -0.75877 600.833 686.108
10.999 21.0286 3.39059 620.39 671.654
14.5538 16.8904 8.05272 635.737 652.235
17.0599 12.0629 13.6552 645.919 629.196
18.338 6.8984 18.1362 650.982 604.512
18.7844 1.83895 20.3279 653.218 580.542
18.765 -3.17893 20.7343 654.109 556.981
18.3903 -8.20468 20.9007 653.46 533.348
-16.2661 -14.4747 -0.00524547 503.235 500.171
-14.28 -16.2006 -1.6659 513.67 492.817
-11.7506 -17.1051 -3.06617 526.322 489.379
-9.0423 -17.2758 -4.39111 539.602 489.401
-6.31299 -16.9164 -5.51881 552.763 491.875
3.45872 -16.9492 -5.65828 598.366 493.866
5.66902 -17.492 -4.38315 608.194 491.58
7.96979 -17.6334 -3.01851 618.309 491.176
10.2515 -17.4049 -1.53785 628.193 492.48
12.3063 -16.4495 0.197548 636.732 497.091
-0.207311 -11.9802 -4.98099 579.807 516.207
-0.0303985 -9.32436 -7.73168 581.298 529.161
0.122517 -6.67974 -10.5653 582.72 542.072
0.265264 -4.05353 -13.3306 584.066 554.882
-2.67152 -0.15813 -6.09754 566.086 571.201
-0.931925 0.0446273 -7.0865 574.607 572.702
0.833222 0.102331 -8.09892 583.292 573.533
2.34976 -0.128613 -6.93966 589.869 572.577
3.80378 -0.532224 -6.0446 596.319 570.846
-11.8055 -10.3017 -1.05622 523.536 520.855
-10.3475 -11.3679 -1.21012 530.651 516.208
-8.49733 -11.646 -1.23099 539.346 515.312
-6.80854 -10.9414 -0.910434 546.9 518.919
-8.38718 -10.1834 -1.01716 539.418 522.143
-10.1397 -9.98717 -1.01265 531.204 522.681
4.7136 -11.3211 -0.835327 600.64 519.629
6.19696 -12.0748 -1.21729 607.906 516.49
7.96389 -12.1339 -1.17797 616.135 516.59
9.44858 -11.2349 -0.934288 622.728 521.077
7.9305 -10.6909 -0.912099 615.517 523.29
6.25172 -10.7513 -0.870956 607.69 522.636
-7.16938 8.97324 -2.7415 541.424 612.371
-4.90236 7.00743 -4.92096 553.466 604.047
-2.20292 5.49375 -6.63169 567.199 597.85
0.892091 5.52307 -8.09386 582.297 598.916
3.85762 5.16732 -6.2851 595.351 597.576
6.56367 6.32514 -4.60054 606.9 603.284
8.77036 8.14099 -2.50837 615.778 611.893
6.83111 9.96639 -3.85399 606.946 620.253
4.19356 11.0002 -5.05783 594.979 624.732
1.27236 11.3473 -6.62533 582.021 625.999
-1.75213 11.2512 -5.30788 567.334 624.661
-4.63382 10.5095 -4.01115 553.473 620.335
-2.26346 7.70305 -5.23408 565.746 607.93
1.06992 7.52942 -7.13714 582.209 608.176
4.28864 7.39173 -4.80257 596.146 607.818
4.44611 8.42588 -4.31429 596.409 612.607
1.2262 8.81414 -6.29354 582.242 614.074
-2.12241 8.76302 -4.63081 565.873 612.815
3 20 21 23
3 21 22 23
3 0 1 36
3 15 16 45
3 0 17 36
3 16 26 45
3 17 18 37
3 25 26 44
3 17 36 37
3 26 44 45
3 18 19 38
3 24 25 43
3 18 37 38
3 25 43 44
3 19 20 38
3 23 24 43
3 20 21 39
3 22 23 42
3 20 38 39
3 23 42 43
3 21 22 27
3 21 27 39
3 22 27 42
3 27 28 42
3 27 28 39
3 28 42 47
3 28 39 40
3 1 36 41
3 15 45 46
3 1 2 41
3 14 15 46
3 28 29 40
3 28 29 47
3 2 40 41
3 14 46 47
3 2 29 40
3 14 29 47
3 2 3 29
3 13 14 29
3 29 30 31
3 29 30 35
3 3 29 31
3 13 29 35
3 30 32 33
3 30 33 34
3 30 31 32
3 30 34 35
3 3 4 31
3 12 13 35
3 4 5 48
3 11 12 54
3 5 6 48
3 10 11 54
3 6 48 59
3 10 54 55
3 6 7 59
3 9 10 55
3 7 58 59
3 9 55 56
3 8 57 58
3 8 56 57
3 7 8 58
3 8 9 56
3 4 31 48
3 12 35 54
3 31 48 49
3 35 53 54
3 31 49 50
3 35 52 53
3 31 32 50
3 34 35 52
3 32 33 50
3 33 34 52
3 33 50 51
3 33 51 52
3 48 49 60
3 49 60 50
3 50 60 61
3 50 51 61
3 51 52 61
3 61 62 52
3 52 53 62
3 53 54 62
3 54 55 63
3 55 56 63
3 56 63 64
3 56 57 64
3 64 65 57
3 57 58 65
3 58 59 65
3 48 59 65
