ply
format ascii 1.0
element vertex 66
property float x
property float y
property float z
property float u
property float v
element face 91
property list uchar int vertex_indices
end_header
-20.0706 -7.30464 21.6494 475.088 528.912
-19.4732 -1.53926 21.3329 476.916 555.569
-18.6823 4.18601 20.6934 479.778 582.13
-17.692 9.89627 18.4847 484.241 608.92
-16.0936 15.3375 13.6699 492.673 635.016
-12.9463 19.736 7.91095 508.799 656.735
-8.6364 22.9191 3.20859 530.008 672.88
-3.72092 24.9548 -0.963612 553.967 683.761
1.56167 25.4108 -4.85025 579.769 687.393
6.85294 24.133 -0.737549 602.436 681.7
11.3581 21.031 3.45719 621.798 667.477
14.9457 16.8843 8.09898 636.954 648.222
17.4382 12.006 13.7374 646.793 625.254
18.6477 6.76658 18.2777 651.301 600.599
19.0411 1.65167 20.4911 653.065 576.774
19.003 -3.40325 20.892 653.633 553.461
18.6316 -8.46211 21.0527 652.779 530.115
-16.4579 -14.3224 -0.00182672 502.349 500.916
-14.383 -16.028 -1.66999 512.887 493.702
-11.7695 -16.8632 -3.08557 525.623 490.536
-8.99792 -16.9745 -4.41415 538.914 490.709
-6.22026 -16.5511 -5.54585 552.05 493.308
3.54943 -16.5597 -5.70011 596.855 494.916
5.89651 -17.1417 -4.43908 607.158 492.417
8.33143 -17.3036 -3.06785 617.739 491.844
10.7339 -17.0198 -1.58593 628.043 493.297
12.8397 -15.9258 0.168979 636.721 498.379
-0.331133 -12.0208 -4.95883 577.939 515.014
-0.18135 -9.26794 -7.71991 579.33 528.162
-0.052084 -6.52759 -10.5901 580.677 541.268
0.0748995 -3.80965 -13.4211 582 554.263
-2.98873 -0.0664246 -6.16621 564.128 569.735
-1.19796 0.209156 -7.13437 572.7 571.463
0.628837 0.299891 -8.13441 581.485 572.352
2.24733 0.0233117 -7.0014 588.452 571.158
3.78726 -0.455285 -6.06817 595.184 569.055
-12.0955 -10.0236 -1.02856 521.992 521.577
-10.5197 -11.1776 -1.26322 529.52 516.573
-8.52137 -11.4388 -1.31952 538.742 515.713
-6.70681 -10.6443 -0.920187 546.733 519.599
-8.41952 -9.86517 -1.0024 538.785 522.911
-10.3034 -9.66203 -1.01035 530.125 523.533
4.82026 -11.0189 -0.975354 599.608 519.8
6.44434 -11.8426 -1.32318 607.346 516.342
8.35636 -11.8768 -1.21812 616.062 516.484
9.94469 -10.8732 -0.891278 623.011 521.306
8.2846 -10.3256 -0.941148 615.331 523.556
6.47803 -10.4002 -0.949647 607.076 522.915
-7.66858 8.46672 -2.69422 539.636 607.599
-5.2615 6.56366 -4.87079 551.953 599.618
-2.41493 5.21028 -6.61021 565.992 594.163
0.749973 5.27522 -8.02949 581.092 595.228
3.80714 4.86033 -6.26631 594.397 593.529
6.67838 5.82864 -4.54867 606.62 598.166
9.08536 7.53887 -2.49262 616.434 606.08
6.9996 9.42039 -3.78714 607.107 614.603
4.20968 10.4523 -5.0705 594.704 619.101
1.19318 10.8072 -6.64859 581.515 620.499
-1.95024 10.7608 -5.33356 566.556 619.542
-5.00009 10.0518 -4.01188 552.143 615.552
-2.48825 7.38843 -5.2638 564.674 603.937
0.947271 7.32118 -7.15516 581.243 604.518
4.2973 7.03161 -4.86539 595.636 603.355
4.47991 7.84217 -4.3228 596.089 607.02
1.09561 8.20961 -6.40232 581.432 608.5
-2.39109 8.22122 -4.65325 564.701 607.678
3 20 21 23
3 21 22 23
3 0 1 36
3 15 16 45
3 0 17 36
3 16 26 45
3 17 18 37
3 25 26 44
3 17 36 37
3 26 44 45
3 18 19 38
3 24 25 43
3 18 37 38
3 25 43 44
3 19 20 38
3 23 24 43
3 20 21 39
3 22 23 42
3 20 38 39
3 23 42 43
3 21 22 27
3 21 27 39
3 22 27 42
3 27 28 42
3 27 28 39
3 28 42 47
3 28 39 40
3 1 36 41
3 15 45 46
3 1 2 41
3 14 15 46
3 28 29 40
3 28 29 47
3 2 40 41
3 14 46 47
3 2 29 40
3 14 29 47
3 2 3 29
3 13 14 29
3 29 30 31
3 29 30 35
3 3 29 31
3 13 29 35
3 30 32 33
3 30 33 34
3 30 31 32
3 30 34 35
3 3 4 31
3 12 13 35
3 4 5 48
3 11 12 54
3 5 6 48
3 10 11 54
3 6 48 59
3 10 54 55
3 6 7 59
3 9 10 55
3 7 58 59
3 9 55 56
3 8 57 58
3 8 56 57
3 7 8 58
3 8 9 56
3 4 31 48
3 12 35 54
3 31 48 49
3 35 53 54
3 31 49 50
3 35 52 53
3 31 32 50
3 34 35 52
3 32 33 50
3 33 34 52
3 33 50 51
3 33 51 52
3 48 49 60
3 49 60 50
3 50 60 61
3 50 51 61
3 51 52 61
3 61 62 52
3 52 53 62
3 53 54 62
3 54 55 63
3 55 56 63
3 56 63 64
3 56 57 64
3 64 65 57
3 57 58 65
3 58 59 65
3 48 59 65
