ply
format ascii 1.0
element vertex 66
property float x
property float y
property float z
property float u
property float v
element face 91
property list uchar int vertex_indices
end_header
-20.0055 -7.39518 21.7788 475.609 526.749
-19.3678 -1.51701 21.4264 477.68 554.075
-18.5824 4.33173 20.7605 480.577 581.347
-17.6714 10.1417 18.5227 484.767 608.758
-16.194 15.6139 13.6646 492.799 635.191
-13.0875 19.9521 7.89248 508.937 656.813
-8.77578 23.0323 3.16352 530.371 672.612
-3.87533 24.9758 -1.00893 554.46 683.147
1.37696 25.3791 -4.90072 580.311 686.566
6.76308 24.1295 -0.716212 603.431 680.841
11.339 20.9785 3.43334 623.169 666.21
14.9553 16.7652 8.08265 638.451 646.428
17.4537 11.8417 13.706 648.274 623.004
18.6568 6.61661 18.174 652.709 598.204
19.0194 1.54461 20.4035 654.256 574.404
18.927 -3.47968 20.7615 654.543 551.107
18.4797 -8.50426 20.931 653.282 527.79
-16.5567 -14.2159 0.00532542 502.46 499.893
-14.5346 -15.9224 -1.67181 512.816 492.642
-11.982 -16.7651 -3.069 525.338 489.411
-9.27359 -16.8749 -4.39078 538.415 489.576
-6.54419 -16.4848 -5.49889 551.406 492.014
4.02878 -16.4259 -5.74266 600.159 493.982
6.13155 -16.9094 -4.46249 609.344 491.834
8.31563 -17.0579 -3.07386 618.795 491.226
10.4986 -16.9122 -1.57274 628.14 491.955
12.4976 -16.0527 0.160695 636.41 495.91
-0.0153588 -11.6277 -4.94457 580.356 515.37
0.120342 -9.00174 -7.7711 581.796 528.059
0.227092 -6.38373 -10.6474 583.126 540.716
0.320881 -3.77992 -13.4062 584.346 553.284
-2.78127 -0.0855817 -6.18513 566.18 568.503
-0.960507 0.193384 -7.14682 574.943 570.258
0.898015 0.304848 -8.12613 583.916 571.248
2.46813 0.0444559 -6.97333 590.668 570.072
3.96616 -0.405867 -6.01837 597.21 568.044
-12.1275 -10.2705 -0.990288 522.604 519.002
-10.5952 -11.3589 -1.22584 529.951 514.257
-8.68061 -11.6204 -1.30355 538.842 513.362
-6.95574 -10.7957 -0.917292 546.462 517.369
-8.60202 -10.0357 -0.982911 538.783 520.636
-10.4209 -9.88167 -0.97965 530.385 521.063
5.11326 -11.1081 -0.971466 602.079 517.819
6.61883 -11.9004 -1.28943 609.288 514.453
8.4229 -11.9445 -1.19919 617.557 514.514
9.9189 -10.9684 -0.912941 624.143 519.203
8.37187 -10.4093 -0.947948 616.942 521.551
6.66344 -10.4759 -0.947431 609.092 520.977
-7.72734 8.2961 -2.71183 540.4 605.801
-5.25894 6.41095 -4.91434 553.077 597.892
-2.38102 5.08723 -6.65489 567.334 592.555
0.778846 5.17342 -8.08331 582.502 593.716
3.7934 4.80383 -6.26363 595.62 592.135
6.61217 5.80014 -4.54137 607.643 596.852
8.94199 7.58221 -2.47666 617.126 605.058
6.93178 9.50915 -3.74318 608.11 613.888
4.16102 10.549 -5.01506 595.752 618.501
1.14476 10.8572 -6.66672 582.561 619.767
-2.01728 10.7659 -5.32214 567.421 618.597
-5.06537 9.97317 -3.98375 552.93 614.205
-2.48405 7.25511 -5.32581 565.885 602.304
0.955972 7.2211 -7.1642 582.548 603.031
4.26164 6.99401 -4.78678 596.73 602.048
4.46124 7.93852 -4.22809 597.233 606.337
1.11356 8.27414 -6.32467 582.712 607.762
-2.38046 8.23454 -4.66529 565.894 606.72
3 20 21 23
3 21 22 23
3 0 1 36
3 15 16 45
3 0 17 36
3 16 26 45
3 17 18 37
3 25 26 44
3 17 36 37
3 26 44 45
3 18 19 38
3 24 25 43
3 18 37 38
3 25 43 44
3 19 20 38
3 23 24 43
3 20 21 39
3 22 23 42
3 20 38 39
3 23 42 43
3 21 22 27
3 21 27 39
3 22 27 42
3 27 28 42
3 27 28 39
3 28 42 47
3 28 39 40
3 1 36 41
3 15 45 46
3 1 2 41
3 14 15 46
3 28 29 40
3 28 29 47
3 2 40 41
3 14 46 47
3 2 29 40
3 14 29 47
3 2 3 29
3 13 14 29
3 29 30 31
3 29 30 35
3 3 29 31
3 13 29 35
3 30 32 33
3 30 33 34
3 30 31 32
3 30 34 35
3 3 4 31
3 12 13 35
3 4 5 48
3 11 12 54
3 5 6 48
3 10 11 54
3 6 48 59
3 10 54 55
3 6 7 59
3 9 10 55
3 7 58 59
3 9 55 56
3 8 57 58
3 8 56 57
3 7 8 58
3 8 9 56
3 4 31 48
3 12 35 54
3 31 48 49
3 35 53 54
3 31 49 50
3 35 52 53
3 31 32 50
3 34 35 52
3 32 33 50
3 33 34 52
3 33 50 51
3 33 51 52
3 48 49 60
3 49 60 50
3 50 60 61
3 50 51 61
3 51 52 61
3 61 62 52
3 52 53 62
3 53 54 62
3 54 55 63
3 55 56 63
3 56 63 64
3 56 57 64
3 64 65 57
3 57 58 65
3 58 59 65
3 48 59 65
