ply
format ascii 1.0
element vertex 66
property float x
property float y
property float z
property float u
property float v
element face 91
property list uchar int vertex_indices
end_header
-20.0648 -7.39235 21.788 475.099 527.66
-19.4283 -1.52013 21.4556 477.161 554.752
-18.6407 4.32089 20.7757 480.079 581.781
-17.7177 10.1403 18.538 484.344 608.99
-16.2223 15.6398 13.6533 492.508 635.255
-13.094 19.9958 7.89144 508.731 656.671
-8.76355 23.0759 3.18208 530.171 672.246
-3.85234 25.0048 -1.0065 554.216 682.543
1.39456 25.4081 -4.90318 579.918 685.845
6.7615 24.1259 -0.713345 602.695 680.099
11.3254 20.9602 3.45476 622.136 665.592
14.9432 16.7355 8.08532 637.222 646.005
17.4613 11.798 13.6912 646.954 622.817
18.6934 6.56364 18.1859 651.381 598.253
19.0742 1.50706 20.414 652.944 574.747
18.9868 -3.48293 20.7804 653.224 551.781
18.5401 -8.47561 20.9297 651.964 528.784
-16.6127 -14.1903 0.0107911 502.146 500.599
-14.5525 -15.9655 -1.68704 512.645 493.053
-11.9225 -16.8467 -3.0755 525.45 489.645
-9.12209 -16.9557 -4.38143 538.863 489.792
-6.30295 -16.5332 -5.48095 552.176 492.347
3.87784 -16.4743 -5.72647 598.768 494.227
6.04722 -16.9875 -4.45645 608.171 491.997
8.30312 -17.1398 -3.08207 617.859 491.42
10.5462 -16.9612 -1.58647 627.376 492.338
12.568 -16.037 0.178359 635.63 496.599
-0.00954715 -11.6707 -4.94741 579.838 515.536
0.121034 -9.01141 -7.75977 581.289 528.219
0.223429 -6.36118 -10.6458 582.648 540.869
0.312659 -3.72841 -13.4347 583.904 553.421
-2.85019 -0.0603987 -6.20929 565.477 568.569
-0.998439 0.224166 -7.15004 574.322 570.315
0.890973 0.333718 -8.12622 583.385 571.27
2.48782 0.0729145 -6.98206 590.189 570.131
4.01142 -0.38414 -6.04632 596.789 568.114
-12.072 -10.2039 -0.990202 522.667 519.752
-10.5042 -11.3591 -1.25546 530.146 514.738
-8.52147 -11.6115 -1.33176 539.278 513.899
-6.74464 -10.7109 -0.886827 547.032 518.23
-8.44374 -9.94143 -0.965818 539.179 521.512
-10.3134 -9.78337 -0.976393 530.619 521.95
4.91234 -10.9983 -0.948414 600.338 518.719
6.45721 -11.8711 -1.3202 607.714 515.015
8.32621 -11.9391 -1.22997 616.218 514.976
9.86453 -10.8977 -0.914968 622.919 519.939
8.27237 -10.2981 -0.947266 615.562 522.449
6.5143 -10.3634 -0.93545 607.539 521.877
-7.83449 8.34333 -2.70058 539.656 605.773
-5.35814 6.42091 -4.91856 552.322 597.702
-2.44807 5.06755 -6.65082 566.646 592.228
0.766158 5.15307 -8.0526 581.961 593.347
3.83252 4.77152 -6.26561 595.196 591.775
6.68432 5.78721 -4.55038 607.248 596.591
9.02135 7.60699 -2.46633 616.641 604.956
6.96163 9.48355 -3.73746 607.507 613.456
4.1585 10.4749 -5.01489 595.133 617.783
1.13541 10.7723 -6.65539 582.041 618.952
-2.03502 10.6977 -5.3165 566.954 617.9
-5.11815 9.96133 -3.98128 552.38 613.826
-2.57812 7.25436 -5.33483 565.068 602.023
0.948761 7.21347 -7.15926 582.028 602.68
4.3387 6.97794 -4.79386 596.448 601.732
4.52619 7.87741 -4.24333 596.895 605.796
1.10392 8.19744 -6.38414 582.209 607.09
-2.46385 8.18902 -4.68484 565.129 606.221
3 20 21 23
3 21 22 23
3 0 1 36
3 15 16 45
3 0 17 36
3 16 26 45
3 17 18 37
3 25 26 44
3 17 36 37
3 26 44 45
3 18 19 38
3 24 25 43
3 18 37 38
3 25 43 44
3 19 20 38
3 23 24 43
3 20 21 39
3 22 23 42
3 20 38 39
3 23 42 43
3 21 22 27
3 21 27 39
3 22 27 42
3 27 28 42
3 27 28 39
3 28 42 47
3 28 39 40
3 1 36 41
3 15 45 46
3 1 2 41
3 14 15 46
3 28 29 40
3 28 29 47
3 2 40 41
3 14 46 47
3 2 29 40
3 14 29 47
3 2 3 29
3 13 14 29
3 29 30 31
3 29 30 35
3 3 29 31
3 13 29 35
3 30 32 33
3 30 33 34
3 30 31 32
3 30 34 35
3 3 4 31
3 12 13 35
3 4 5 48
3 11 12 54
3 5 6 48
3 10 11 54
3 6 48 59
3 10 54 55
3 6 7 59
3 9 10 55
3 7 58 59
3 9 55 56
3 8 57 58
3 8 56 57
3 7 8 58
3 8 9 56
3 4 31 48
3 12 35 54
3 31 48 49
3 35 53 54
3 31 49 50
3 35 52 53
3 31 32 50
3 34 35 52
3 32 33 50
3 33 34 52
3 33 50 51
3 33 51 52
3 48 49 60
3 49 60 50
3 50 60 61
3 50 51 61
3 51 52 61
3 61 62 52
3 52 53 62
3 53 54 62
3 54 55 63
3 55 56 63
3 56 63 64
3 56 57 64
3 64 65 57
3 57 58 65
3 58 59 65
3 48 59 65
