ply
format ascii 1.0
element vertex 66
property float x
property float y
property float z
property float u
property float v
element face 91
property list uchar int vertex_indices
end_header
-18.6135 -5.77927 20.8106 453.735 550.673
-18.0865 -0.632984 20.3717 460.388 575.922
-17.2729 4.47254 19.9741 468.435 600.728
-16.2175 9.46866 18.0307 477.477 625.499
-14.6282 14.2853 13.6076 488.836 650.081
-11.9362 18.6199 7.95896 505.194 671.968
-8.21534 22.2106 3.1365 526.137 688.999
-3.70495 24.8202 -0.920048 550.286 700.214
1.4955 25.3913 -4.5582 576.281 700.616
6.68989 24.3821 -0.803329 601.571 689.876
10.958 21.3829 3.33161 620.717 669.843
14.3167 17.4146 8.14458 634.633 645.419
16.4801 12.7354 13.8149 642.116 618.026
17.3028 7.51084 18.4494 642.43 589.447
17.5974 2.01832 20.4014 639.701 561.161
17.7115 -3.57558 20.9179 635.884 533.161
17.5662 -9.1697 21.2913 630.767 505.427
-14.6393 -15.4977 0.0743489 464.175 508.813
-12.8782 -16.6251 -1.56039 471.902 502.595
-10.9117 -17.2059 -3.00198 481.097 498.834
-8.87985 -17.4761 -4.38113 490.867 496.531
-6.85112 -17.3823 -5.62477 500.919 495.971
3.71714 -18.2269 -5.51623 552.744 483.49
6.05629 -18.7439 -4.29981 564.046 478.558
8.44419 -18.7962 -2.93929 575.969 475.822
10.7771 -18.2706 -1.50893 588.082 475.957
12.8232 -17.0303 0.192147 599.356 479.731
-1.19469 -12.3677 -4.98477 533.026 516.078
-0.915485 -9.58042 -7.62705 536.411 530.84
-0.635386 -6.81686 -10.3893 539.774 545.538
-0.349745 -4.06342 -13.0784 543.161 560.149
-2.79386 0.317623 -6.00893 535.037 580.554
-1.42961 0.429904 -7.01758 541.822 580.498
-0.0381659 0.415217 -7.98212 548.646 579.773
1.38597 0.175963 -6.99931 555.606 577.035
2.75673 -0.193464 -6.1222 562.189 573.742
-11.0082 -10.8241 -1.04675 485.817 529.607
-9.88768 -11.7492 -1.07432 490.648 524.167
-8.41834 -11.9749 -1.06015 497.767 521.896
-7.11798 -11.5172 -0.985604 504.593 523.112
-8.30283 -10.7542 -1.07558 499.305 527.853
-9.70322 -10.5293 -1.02143 492.533 530.035
5.10162 -12.4868 -0.807876 564.525 508.692
6.33696 -13.2111 -1.05396 570.068 504.254
7.84811 -13.1936 -1.02652 577.589 503.148
9.15548 -12.5231 -0.918738 584.62 505.396
7.89417 -12.0133 -0.870616 578.763 508.883
6.44342 -11.9856 -0.890338 571.579 510.161
-5.84883 9.90679 -2.77715 527.7 628.932
-4.06597 7.97649 -4.91364 534.861 618.951
-1.92291 6.39416 -6.59611 544.122 610.205
0.643377 6.33068 -8.16364 556.695 608.592
3.21821 5.96762 -6.5473 569.321 604.057
5.62824 7.15886 -4.83165 582.365 607.298
7.7745 8.6795 -2.57783 594.401 612.132
6.01666 10.5432 -3.97074 587.037 623.352
3.72472 11.7689 -5.13884 576.533 631.733
1.06398 12.2561 -6.47817 563.601 636.824
-1.57039 12.2222 -5.21285 550.59 638.144
-3.9541 11.4405 -4.03577 538.225 635.608
-1.59517 8.70093 -4.91599 547.705 620.607
0.783021 8.3321 -7.13031 559.052 617.921
3.18783 8.27554 -4.99032 571.116 614.8
3.21902 9.12586 -4.47585 571.983 618.752
0.833352 9.5216 -6.1693 560.317 623.335
-1.55884 9.54437 -4.42655 548.59 624.531
3 20 21 23
3 21 22 23
3 0 1 36
3 15 16 45
3 0 17 36
3 16 26 45
3 17 18 37
3 25 26 44
3 17 36 37
3 26 44 45
3 18 19 38
3 24 25 43
3 18 37 38
3 25 43 44
3 19 20 38
3 23 24 43
3 20 21 39
3 22 23 42
3 20 38 39
3 23 42 43
3 21 22 27
3 21 27 39
3 22 27 42
3 27 28 42
3 27 28 39
3 28 42 47
3 28 39 40
3 1 36 41
3 15 45 46
3 1 2 41
3 14 15 46
3 28 29 40
3 28 29 47
3 2 40 41
3 14 46 47
3 2 29 40
3 14 29 47
3 2 3 29
3 13 14 29
3 29 30 31
3 29 30 35
3 3 29 31
3 13 29 35
3 30 32 33
3 30 33 34
3 30 31 32
3 30 34 35
3 3 4 31
3 12 13 35
3 4 5 48
3 11 12 54
3 5 6 48
3 10 11 54
3 6 48 59
3 10 54 55
3 6 7 59
3 9 10 55
3 7 58 59
3 9 55 56
3 8 57 58
3 8 56 57
3 7 8 58
3 8 9 56
3 4 31 48
3 12 35 54
3 31 48 49
3 35 53 54
3 31 49 50
3 35 52 53
3 31 32 50
3 34 35 52
3 32 33 50
3 33 34 52
3 33 50 51
3 33 51 52
3 48 49 60
3 49 60 50
3 50 60 61
3 50 51 61
3 51 52 61
3 61 62 52
3 52 53 62
3 53 54 62
3 54 55 63
3 55 56 63
3 56 63 64
3 56 57 64
3 64 65 57
3 57 58 65
3 58 59 65
3 48 59 65
