ply
format ascii 1.0
element vertex 66
property float x
property float y
property float z
property float u
property float v
element face 91
property list uchar int vertex_indices
end_header
-18.8521 -6.63134 21.2011 469.069 535.266
-18.2598 -1.10139 20.8591 473.226 561.904
-17.4325 4.39068 20.3001 478.579 588.354
-16.4145 9.82307 18.3293 485.301 614.792
-14.9362 15.0173 13.6317 495.081 640.589
-12.2041 19.4818 7.97925 511.064 662.79
-8.36196 22.9977 3.18902 531.914 679.961
-3.77717 25.424 -0.924877 555.891 691.547
1.39951 25.9708 -4.75787 582.226 693.86
6.6614 24.7099 -0.71589 606.011 685.646
10.9265 21.3903 3.41109 624.518 667.704
14.2058 17.0699 8.15284 637.856 645.018
16.3929 12.1384 13.7211 645.525 619.448
17.4369 6.91282 18.2885 647.944 592.947
17.8496 1.67908 20.2644 648.164 567.138
17.8841 -3.55939 20.7045 647.06 541.74
17.5622 -8.80341 20.9115 644.313 516.451
-15.4122 -14.93 0.0376977 490.787 499.192
-13.5248 -16.6415 -1.68812 500.085 490.884
-11.1231 -17.5809 -3.05435 511.912 486.104
-8.53882 -17.8443 -4.36201 524.746 484.532
-5.94427 -17.5538 -5.53185 537.703 485.601
3.2936 -17.879 -5.62996 582.217 481.923
5.59844 -18.4291 -4.37035 592.803 478.451
7.99249 -18.4875 -3.01916 603.895 477.312
10.3233 -18.0262 -1.58023 614.765 478.677
12.335 -16.8064 0.197416 624.148 483.7
-0.521637 -12.6626 -4.94499 564.715 507.832
-0.32612 -9.84304 -7.64122 567.145 522.008
-0.144691 -7.04001 -10.4302 569.534 536.129
0.0286876 -4.25443 -13.172 571.864 550.157
-2.58797 -0.124965 -6.07077 557.813 569.091
-1.06474 -0.0183247 -6.99947 565.486 569.465
0.478422 -0.0224974 -7.96556 573.243 569.307
1.87004 -0.18963 -6.90369 579.571 567.94
3.21766 -0.481266 -6.0312 585.723 566.024
-11.1453 -10.5801 -1.0847 512.667 519.462
-9.72907 -11.6947 -1.21445 519.3 513.784
-7.88546 -11.9476 -1.19305 528.13 512.133
-6.24324 -11.2332 -0.86281 536.096 515.129
-7.78243 -10.4363 -1.01905 528.895 519.366
-9.51531 -10.2074 -0.997504 520.58 520.866
4.39048 -11.7656 -0.805421 587.246 510.094
5.86406 -12.6029 -1.1677 594.291 505.794
7.66509 -12.6529 -1.17308 602.968 505.139
9.158 -11.7207 -1.00368 610.313 509.257
7.64854 -11.1268 -0.919046 603.133 512.453
5.95152 -11.1754 -0.918363 594.938 512.609
-6.156 9.69894 -2.72532 541.625 616.585
-4.41443 7.46919 -4.95265 550.272 605.922
-2.13606 5.66728 -6.61359 561.415 597.073
0.682714 5.62308 -8.07493 575.477 596.54
3.4273 5.33064 -6.39976 588.104 594.117
5.82253 6.81736 -4.72851 599.429 600.365
7.6597 8.88146 -2.51242 608.009 609.406
6.02494 10.6876 -3.91554 600.972 618.819
3.76514 11.8311 -5.13733 590.718 625.137
1.10456 12.2419 -6.65314 578.471 628.076
-1.62548 12.1177 -5.3146 564.84 627.803
-4.09792 11.2644 -4.0514 552.32 623.968
-1.90632 8.18537 -5.00051 562.538 608.813
0.853308 7.83412 -7.03167 576.435 606.94
3.5549 7.89123 -4.72486 588.723 606.071
3.62179 8.94377 -4.32657 589.141 611.047
0.980309 9.31009 -6.30883 577.129 613.873
-1.76274 9.25375 -4.55442 563.314 613.837
3 20 21 23
3 21 22 23
3 0 1 36
3 15 16 45
3 0 17 36
3 16 26 45
3 17 18 37
3 25 26 44
3 17 36 37
3 26 44 45
3 18 19 38
3 24 25 43
3 18 37 38
3 25 43 44
3 19 20 38
3 23 24 43
3 20 21 39
3 22 23 42
3 20 38 39
3 23 42 43
3 21 22 27
3 21 27 39
3 22 27 42
3 27 28 42
3 27 28 39
3 28 42 47
3 28 39 40
3 1 36 41
3 15 45 46
3 1 2 41
3 14 15 46
3 28 29 40
3 28 29 47
3 2 40 41
3 14 46 47
3 2 29 40
3 14 29 47
3 2 3 29
3 13 14 29
3 29 30 31
3 29 30 35
3 3 29 31
3 13 29 35
3 30 32 33
3 30 33 34
3 30 31 32
3 30 34 35
3 3 4 31
3 12 13 35
3 4 5 48
3 11 12 54
3 5 6 48
3 10 11 54
3 6 48 59
3 10 54 55
3 6 7 59
3 9 10 55
3 7 58 59
3 9 55 56
3 8 57 58
3 8 56 57
3 7 8 58
3 8 9 56
3 4 31 48
3 12 35 54
3 31 48 49
3 35 53 54
3 31 49 50
3 35 52 53
3 31 32 50
3 34 35 52
3 32 33 50
3 33 34 52
3 33 50 51
3 33 51 52
3 48 49 60
3 49 60 50
3 50 60 61
3 50 51 61
3 51 52 61
3 61 62 52
3 52 53 62
3 53 54 62
3 54 55 63
3 55 56 63
3 56 63 64
3 56 57 64
3 64 65 57
3 57 58 65
3 58 59 65
3 48 59 65
