ply
format ascii 1.0
element vertex 66
property float x
property float y
property float z
property float u
property float v
element face 91
property list uchar int vertex_indices
end_header
-20.0515 -7.51205 21.7054 475.233 529.048
-19.4228 -1.7171 21.3716 477.012 555.927
-18.6192 4.04202 20.7239 479.747 582.714
-17.638 9.80188 18.5113 484.035 609.727
-16.0765 15.3002 13.6713 492.279 635.964
-12.9496 19.7201 7.91491 508.368 657.662
-8.64927 22.892 3.21081 529.615 673.727
-3.76942 24.932 -0.958534 553.514 684.631
1.46897 25.4196 -4.85658 579.268 688.422
6.73532 24.119 -0.774746 601.78 683.034
11.2167 20.9767 3.40338 621.047 668.984
14.8072 16.821 8.03065 636.238 650.027
17.3543 11.9531 13.647 646.334 627.453
18.6481 6.75275 18.1682 651.269 603.217
19.079 1.72718 20.4159 653.281 579.877
19.0369 -3.21753 20.8131 653.978 557.031
18.6481 -8.17115 20.968 653.201 534.1
-16.6281 -14.2157 0.00215485 502.619 501.421
-14.5829 -16.0338 -1.69036 513.192 493.664
-11.9301 -16.9478 -3.09305 526.218 490.165
-9.09067 -17.0569 -4.40889 539.883 490.405
-6.23641 -16.6097 -5.51637 553.398 493.188
3.60095 -16.5974 -5.66022 598.577 495.295
5.85291 -17.1927 -4.3969 608.439 492.868
8.20107 -17.3875 -3.0315 618.607 492.294
10.5313 -17.186 -1.54697 628.55 493.53
12.5974 -16.1919 0.221285 636.975 498.33
-0.143565 -11.6594 -4.97365 580.005 517.2
0.00072064 -9.02189 -7.75921 581.405 529.716
0.122015 -6.39235 -10.618 582.735 542.198
0.235257 -3.78361 -13.3994 583.997 554.574
-2.87844 -0.119583 -6.15192 565.505 569.962
-1.05602 0.162891 -7.12561 574.259 571.756
0.802977 0.26456 -8.14195 583.242 572.729
2.4044 -0.0113287 -6.97456 590.096 571.651
3.92786 -0.490156 -6.0439 596.748 569.649
-12.0221 -10.0743 -1.0361 523.33 521.585
-10.521 -11.2236 -1.26406 530.572 516.625
-8.58879 -11.4949 -1.31924 539.518 515.78
-6.84287 -10.6744 -0.908307 547.152 519.875
-8.47963 -9.87123 -0.995649 539.512 523.248
-10.2978 -9.68896 -1.00558 531.139 523.714
4.8802 -11.0341 -0.903856 600.991 520.64
6.40773 -11.8705 -1.29023 608.36 517.147
8.24479 -11.9313 -1.20458 616.758 517.237
9.7559 -10.9228 -0.890298 623.32 522.16
8.18753 -10.3279 -0.914209 616.009 524.58
6.45737 -10.3892 -0.89628 608.079 523.938
-7.65901 8.49686 -2.70145 540.078 608.281
-5.24621 6.57603 -4.90714 552.601 600.187
-2.38739 5.18363 -6.62727 566.825 594.563
0.81498 5.25477 -8.03804 582.161 595.72
3.87742 4.84746 -6.2643 595.458 594.266
6.71859 5.86681 -4.5748 607.469 599.353
9.0548 7.64234 -2.50057 616.819 607.775
7.01613 9.53292 -3.79637 607.669 616.22
4.24107 10.5599 -5.05842 595.313 620.529
1.23188 10.9091 -6.65473 582.189 621.704
-1.91534 10.8282 -5.31629 567.143 620.523
-4.96837 10.0969 -3.98969 552.676 616.364
-2.42087 7.36381 -5.29654 565.57 604.448
1.01047 7.30269 -7.14344 582.189 605.094
4.3202 7.04277 -4.83687 596.338 604.308
4.5095 7.96703 -4.30799 596.755 608.545
1.17274 8.347 -6.35399 582.334 609.848
-2.29589 8.31594 -4.66028 565.636 608.787
3 20 21 23
3 21 22 23
3 0 1 36
3 15 16 45
3 0 17 36
3 16 26 45
3 17 18 37
3 25 26 44
3 17 36 37
3 26 44 45
3 18 19 38
3 24 25 43
3 18 37 38
3 25 43 44
3 19 20 38
3 23 24 43
3 20 21 39
3 22 23 42
3 20 38 39
3 23 42 43
3 21 22 27
3 21 27 39
3 22 27 42
3 27 28 42
3 27 28 39
3 28 42 47
3 28 39 40
3 1 36 41
3 15 45 46
3 1 2 41
3 14 15 46
3 28 29 40
3 28 29 47
3 2 40 41
3 14 46 47
3 2 29 40
3 14 29 47
3 2 3 29
3 13 14 29
3 29 30 31
3 29 30 35
3 3 29 31
3 13 29 35
3 30 32 33
3 30 33 34
3 30 31 32
3 30 34 35
3 3 4 31
3 12 13 35
3 4 5 48
3 11 12 54
3 5 6 48
3 10 11 54
3 6 48 59
3 10 54 55
3 6 7 59
3 9 10 55
3 7 58 59
3 9 55 56
3 8 57 58
3 8 56 57
3 7 8 58
3 8 9 56
3 4 31 48
3 12 35 54
3 31 48 49
3 35 53 54
3 31 49 50
3 35 52 53
3 31 32 50
3 34 35 52
3 32 33 50
3 33 34 52
3 33 50 51
3 33 51 52
3 48 49 60
3 49 60 50
3 50 60 61
3 50 51 61
3 51 52 61
3 61 62 52
3 52 53 62
3 53 54 62
3 54 55 63
3 55 56 63
3 56 63 64
3 56 57 64
3 64 65 57
3 57 58 65
3 58 59 65
3 48 59 65
