ply
format ascii 1.0
element vertex 66
property float x
property float y
property float z
property float u
property float v
element face 91
property list uchar int vertex_indices
end_header
-20.1324 -7.40724 21.729 476.186 528.264
-19.49 -1.6026 21.3707 477.91 555.164
-18.6801 4.16974 20.7192 480.539 581.979
-17.6994 9.92895 18.5347 484.63 608.896
-16.1283 15.3741 13.6303 492.7 634.725
-12.9826 19.7102 7.9175 508.605 655.877
-8.69802 22.8283 3.21236 529.575 671.602
-3.84978 24.8394 -0.974229 553.163 682.318
1.35535 25.3131 -4.84084 578.609 686.013
6.64475 24.0229 -0.767006 601.362 680.962
11.1187 20.8484 3.42378 620.772 667.039
14.713 16.6857 8.04332 636.197 648.328
17.3219 11.8609 13.608 646.846 626.266
18.7022 6.71953 18.1405 652.395 602.546
19.1824 1.7336 20.3793 654.792 579.521
19.1539 -3.18352 20.7601 655.66 556.846
18.7592 -8.10879 20.9073 654.955 534.068
-16.6626 -14.1936 0.023784 503.264 499.583
-14.6546 -15.926 -1.6915 513.634 492.21
-12.0821 -16.7977 -3.09186 526.247 488.904
-9.33403 -16.9172 -4.40482 539.449 489.094
-6.55679 -16.5293 -5.48921 552.563 491.609
3.85906 -16.4674 -5.67051 600.364 494.309
6.00068 -17.0047 -4.40883 609.751 492.227
8.22877 -17.1972 -3.03138 619.401 491.743
10.4586 -17.0922 -1.53433 628.935 492.619
12.4984 -16.261 0.221848 637.312 496.773
-0.0697782 -11.63 -4.94655 580.891 515.615
0.0654125 -8.92993 -7.78455 582.121 528.307
0.175772 -6.23663 -10.6676 583.258 540.966
0.277469 -3.55998 -13.412 584.299 553.535
-2.89049 0.0214208 -6.19939 565.751 568.707
-1.02984 0.326631 -7.1626 574.631 570.62
0.873469 0.443038 -8.14733 583.76 571.674
2.50515 0.157449 -6.99353 590.797 570.642
4.05205 -0.342077 -6.07667 597.601 568.625
-12.0047 -10.2833 -1.01401 524.141 518.744
-10.4942 -11.4582 -1.23928 531.442 513.702
-8.54608 -11.7156 -1.29571 540.456 512.97
-6.81214 -10.8035 -0.873372 548 517.535
-8.45974 -10.0069 -0.966267 540.301 520.83
-10.2861 -9.84873 -0.991589 531.904 521.139
4.93081 -11.1419 -0.891118 601.906 518.686
6.42443 -12.0462 -1.26754 609.132 514.898
8.26483 -12.1207 -1.17282 617.542 514.972
9.77478 -11.0811 -0.86071 624.078 520.081
8.22715 -10.4438 -0.90233 616.852 522.661
6.50178 -10.4918 -0.875436 608.945 522.04
-7.69828 8.36634 -2.68993 540.19 605.732
-5.23413 6.5089 -4.92268 552.908 597.93
-2.34388 5.19723 -6.65578 567.229 592.699
0.841451 5.30143 -8.08526 582.433 594.029
3.88184 4.88274 -6.25101 595.658 592.653
6.72508 5.83323 -4.54984 607.713 597.547
9.07263 7.56041 -2.47004 617.146 605.871
7.06084 9.51303 -3.78108 608.04 614.503
4.27327 10.5817 -5.02357 595.559 618.881
1.23748 10.9242 -6.6495 582.281 619.889
-1.93582 10.8313 -5.3139 567.171 618.622
-5.01315 10.0483 -3.9792 552.665 614.199
-2.36506 7.36353 -5.33319 566.035 602.56
1.03477 7.3496 -7.14765 582.42 603.427
4.30422 7.07053 -4.83161 596.449 602.708
4.49716 7.93981 -4.28378 596.886 606.71
1.19166 8.30681 -6.33692 582.554 607.804
-2.25134 8.26652 -4.67176 566.051 606.689
3 20 21 23
3 21 22 23
3 0 1 36
3 15 16 45
3 0 17 36
3 16 26 45
3 17 18 37
3 25 26 44
3 17 36 37
3 26 44 45
3 18 19 38
3 24 25 43
3 18 37 38
3 25 43 44
3 19 20 38
3 23 24 43
3 20 21 39
3 22 23 42
3 20 38 39
3 23 42 43
3 21 22 27
3 21 27 39
3 22 27 42
3 27 28 42
3 27 28 39
3 28 42 47
3 28 39 40
3 1 36 41
3 15 45 46
3 1 2 41
3 14 15 46
3 28 29 40
3 28 29 47
3 2 40 41
3 14 46 47
3 2 29 40
3 14 29 47
3 2 3 29
3 13 14 29
3 29 30 31
3 29 30 35
3 3 29 31
3 13 29 35
3 30 32 33
3 30 33 34
3 30 31 32
3 30 34 35
3 3 4 31
3 12 13 35
3 4 5 48
3 11 12 54
3 5 6 48
3 10 11 54
3 6 48 59
3 10 54 55
3 6 7 59
3 9 10 55
3 7 58 59
3 9 55 56
3 8 57 58
3 8 56 57
3 7 8 58
3 8 9 56
3 4 31 48
3 12 35 54
3 31 48 49
3 35 53 54
3 31 49 50
3 35 52 53
3 31 32 50
3 34 35 52
3 32 33 50
3 33 34 52
3 33 50 51
3 33 51 52
3 48 49 60
3 49 60 50
3 50 60 61
3 50 51 61
3 51 52 61
3 61 62 52
3 52 53 62
3 53 54 62
3 54 55 63
3 55 56 63
3 56 63 64
3 56 57 64
3 64 65 57
3 57 58 65
3 58 59 65
3 48 59 65
