ply
format ascii 1.0
element vertex 66
property float x
property float y
property float z
property float u
property float v
element face 91
property list uchar int vertex_indices
end_header
-19.3512 -5.95198 20.6498 464.558 546.407
-19.0288 -0.90032 20.1962 468.454 571.644
-18.3333 4.11969 19.9643 474.269 596.469
-17.1828 8.94881 17.9601 481.679 620.791
-15.3052 13.5462 13.643 491.841 644.48
-12.3183 17.6944 8.01734 506.892 665.905
-8.27687 21.0393 3.2262 527.096 682.528
-3.46789 23.4023 -0.76294 550.923 693.601
1.97399 23.7711 -4.3471 577.083 694.28
7.01833 22.967 -0.949021 603 686.699
11.3658 20.5655 3.22194 624.924 671.177
15.0161 17.3188 8.06879 643.184 651.504
17.4145 13.1756 13.8131 655.058 627.596
18.2883 8.179 18.5856 658.589 600.487
18.536 2.65104 20.6878 657.855 572.001
18.5954 -3.07981 21.2434 655.572 543.162
18.4807 -8.79955 21.7301 652.403 514.483
-14.7058 -15.2013 0.0298887 476.473 505.756
-12.8523 -16.4171 -1.54351 484.619 499.422
-10.7835 -17.0405 -3.03023 494.155 495.915
-8.65822 -17.3375 -4.42816 504.159 493.978
-6.57937 -17.2118 -5.73742 514.164 494.139
3.21689 -18.3932 -5.27111 562.653 483.587
5.87444 -19.1236 -4.07613 575.962 478.283
8.61907 -19.2611 -2.75182 590.035 475.849
11.3075 -18.5911 -1.36954 604.237 477.452
13.6038 -17.0196 0.281818 617.003 483.633
-1.76398 -12.1512 -5.12536 540.846 516.97
-1.45451 -9.28745 -7.64351 542.939 532.056
-1.12179 -6.4599 -10.3901 545.055 547.036
-0.763029 -3.64663 -13.1568 547.288 561.94
-3.23231 0.652182 -6.04836 539.383 581.893
-1.92046 0.733699 -7.05051 545.64 582.071
-0.586873 0.656131 -7.99057 551.949 581.422
0.954548 0.396668 -7.09861 559.814 579.091
2.44195 -0.0171083 -6.25813 567.318 576.034
-11.3836 -10.0712 -1.14052 495.144 530.277
-10.0837 -11.081 -1.12238 501.152 524.635
-8.41136 -11.2819 -1.09779 509.412 522.858
-6.93232 -10.8056 -1.02794 517.048 524.532
-8.30843 -10.0726 -1.18512 510.48 528.879
-9.88588 -9.79429 -1.17123 502.744 530.985
4.89627 -12.0625 -0.735704 575.588 512.738
6.35083 -12.9913 -1.0088 582.311 507.538
8.13028 -13.0317 -0.927966 591.202 506.492
9.75062 -12.3936 -0.786103 599.645 508.883
8.24787 -11.8055 -0.846373 592.407 512.529
6.53923 -11.6899 -0.868561 583.926 513.895
-5.81089 9.98772 -2.7935 532.088 628.466
-3.97452 8.24345 -4.8362 539.739 619.676
-1.88412 6.78649 -6.54745 548.906 612.081
0.569898 6.65001 -8.183 560.55 610.883
3.08216 6.22466 -6.63266 573.399 607.036
5.5762 7.16629 -4.91015 586.873 609.957
8.02765 8.29545 -2.73391 600.375 613.665
6.13025 10.0676 -4.10419 591.304 623.887
3.78881 11.2694 -5.32061 579.793 631.407
1.11338 11.8021 -6.41844 566.331 635.697
-1.50329 11.9238 -5.23844 553.717 637.065
-3.90224 11.3232 -4.0632 541.84 634.729
-1.83958 8.84253 -4.87294 550.673 621.703
0.724293 8.34182 -7.23806 562.449 618.907
3.39831 8.17186 -5.26525 576.368 616.104
3.45907 8.98757 -4.68194 577.258 619.932
0.767722 9.44158 -6.18369 563.545 623.986
-1.8489 9.62904 -4.34808 551.18 625.439
3 20 21 23
3 21 22 23
3 0 1 36
3 15 16 45
3 0 17 36
3 16 26 45
3 17 18 37
3 25 26 44
3 17 36 37
3 26 44 45
3 18 19 38
3 24 25 43
3 18 37 38
3 25 43 44
3 19 20 38
3 23 24 43
3 20 21 39
3 22 23 42
3 20 38 39
3 23 42 43
3 21 22 27
3 21 27 39
3 22 27 42
3 27 28 42
3 27 28 39
3 28 42 47
3 28 39 40
3 1 36 41
3 15 45 46
3 1 2 41
3 14 15 46
3 28 29 40
3 28 29 47
3 2 40 41
3 14 46 47
3 2 29 40
3 14 29 47
3 2 3 29
3 13 14 29
3 29 30 31
3 29 30 35
3 3 29 31
3 13 29 35
3 30 32 33
3 30 33 34
3 30 31 32
3 30 34 35
3 3 4 31
3 12 13 35
3 4 5 48
3 11 12 54
3 5 6 48
3 10 11 54
3 6 48 59
3 10 54 55
3 6 7 59
3 9 10 55
3 7 58 59
3 9 55 56
3 8 57 58
3 8 56 57
3 7 8 58
3 8 9 56
3 4 31 48
3 12 35 54
3 31 48 49
3 35 53 54
3 31 49 50
3 35 52 53
3 31 32 50
3 34 35 52
3 32 33 50
3 33 34 52
3 33 50 51
3 33 51 52
3 48 49 60
3 49 60 50
3 50 60 61
3 50 51 61
3 51 52 61
3 61 62 52
3 52 53 62
3 53 54 62
3 54 55 63
3 55 56 63
3 56 63 64
3 56 57 64
3 64 65 57
3 57 58 65
3 58 59 65
3 48 59 65
