ply
format ascii 1.0
element vertex 66
property float x
property float y
property float z
property float u
property float v
element face 91
property list uchar int vertex_indices
end_header
-19.1486 -6.47683 21.1674 449.285 559.239
-18.6498 -1.15771 20.7955 458.052 583.771
-17.903 4.12605 20.3259 467.963 607.862
-16.9405 9.40775 18.2392 479.195 632.05
-15.3908 14.6117 13.6646 493.573 655.733
-12.5039 19.1443 7.89382 513.678 674.92
-8.48054 22.6818 3.18913 537.75 687.814
-3.69914 25.0621 -0.872798 563.892 694.202
1.58792 25.6449 -4.75178 590.238 691.477
6.83296 24.5598 -0.824092 612.917 679.176
11.3516 21.6694 3.30558 629.981 659.2
14.9248 17.6462 8.02273 641.127 634.891
17.1925 12.7484 13.8351 644.87 607.784
17.9832 7.29418 18.4754 641.21 580.097
18.1804 1.79471 20.5995 635.177 553.482
18.1762 -3.68691 21.1165 628.52 527.557
17.9142 -9.16704 21.4324 620.688 501.995
-15.453 -14.9483 0.145241 460.578 519.685
-13.6783 -16.5695 -1.63842 467.346 510.324
-11.4245 -17.4878 -3.06106 477.141 503.617
-8.98399 -17.8043 -4.34275 488.508 499.486
-6.54226 -17.5778 -5.49339 500.503 497.881
3.33771 -18.1274 -5.45694 546.401 483.418
5.83981 -18.7933 -4.26019 557.171 477.006
8.43118 -18.8801 -2.96049 569.033 473.189
10.9343 -18.294 -1.5204 581.256 472.615
13.0462 -16.8955 0.277282 592.536 476.256
-0.924114 -12.1104 -4.96652 533.401 516.759
-0.651684 -9.17323 -7.68453 538.704 530.88
-0.382886 -6.25281 -10.5221 543.992 544.953
-0.112094 -3.35261 -13.315 549.257 558.919
-3.0969 0.484965 -6.19086 538.419 578.957
-1.4668 0.708057 -7.11406 546.542 578.259
0.19796 0.748891 -8.05761 554.615 576.666
1.83576 0.445751 -7.08891 561.788 573.051
3.40953 -0.0412084 -6.23225 568.461 568.673
-11.2606 -9.78742 -1.01787 486.713 539.216
-9.9182 -10.9099 -1.2952 491.752 532.381
-8.14567 -11.1224 -1.38335 499.869 529.271
-6.53443 -10.4845 -1.03717 508.157 530.261
-8.00027 -9.68777 -1.09217 502.21 535.786
-9.66226 -9.44797 -1.0456 494.655 538.901
4.79769 -11.273 -0.91031 560.596 512.908
6.30168 -12.1569 -1.34369 566.712 507.038
8.08616 -12.1991 -1.22159 575.048 504.668
9.59779 -11.3282 -0.881168 583.146 506.876
8.0675 -10.7472 -0.917148 576.634 511.458
6.37987 -10.7298 -0.945318 568.707 513.573
-7.18424 8.93765 -2.6439 528.568 622.863
-4.93374 7.09578 -4.86787 537.398 611.992
-2.30695 5.76875 -6.57275 548.517 602.975
0.635718 5.78604 -8.01688 562.679 599.85
3.53774 5.34708 -6.4904 575.542 593.951
6.326 6.27436 -4.76171 589.461 594.576
8.82299 7.73607 -2.50323 602.544 597.946
6.62386 9.53697 -3.87901 594.589 609.38
3.88763 10.572 -5.11481 583.163 617.822
0.978869 10.9711 -6.53866 570.201 623.518
-1.93781 10.991 -5.17743 556.222 626.806
-4.76736 10.3828 -3.91211 541.922 627.053
-2.32823 8.00269 -5.02041 550.788 613.167
0.774242 7.8442 -7.14717 565.622 609.178
3.84145 7.54593 -5.01376 579.317 603.605
3.92543 8.10688 -4.50344 580.285 606.029
0.802378 8.42726 -6.38327 566.306 611.716
-2.34556 8.56545 -4.49366 551.278 615.718
3 20 21 23
3 21 22 23
3 0 1 36
3 15 16 45
3 0 17 36
3 16 26 45
3 17 18 37
3 25 26 44
3 17 36 37
3 26 44 45
3 18 19 38
3 24 25 43
3 18 37 38
3 25 43 44
3 19 20 38
3 23 24 43
3 20 21 39
3 22 23 42
3 20 38 39
3 23 42 43
3 21 22 27
3 21 27 39
3 22 27 42
3 27 28 42
3 27 28 39
3 28 42 47
3 28 39 40
3 1 36 41
3 15 45 46
3 1 2 41
3 14 15 46
3 28 29 40
3 28 29 47
3 2 40 41
3 14 46 47
3 2 29 40
3 14 29 47
3 2 3 29
3 13 14 29
3 29 30 31
3 29 30 35
3 3 29 31
3 13 29 35
3 30 32 33
3 30 33 34
3 30 31 32
3 30 34 35
3 3 4 31
3 12 13 35
3 4 5 48
3 11 12 54
3 5 6 48
3 10 11 54
3 6 48 59
3 10 54 55
3 6 7 59
3 9 10 55
3 7 58 59
3 9 55 56
3 8 57 58
3 8 56 57
3 7 8 58
3 8 9 56
3 4 31 48
3 12 35 54
3 31 48 49
3 35 53 54
3 31 49 50
3 35 52 53
3 31 32 50
3 34 35 52
3 32 33 50
3 33 34 52
3 33 50 51
3 33 51 52
3 48 49 60
3 49 60 50
3 50 60 61
3 50 51 61
3 51 52 61
3 61 62 52
3 52 53 62
3 53 54 62
3 54 55 63
3 55 56 63
3 56 63 64
3 56 57 64
3 64 65 57
3 57 58 65
3 58 59 65
3 48 59 65
