ply
format ascii 1.0
element vertex 66
property float x
property float y
property float z
property float u
property float v
element face 91
property list uchar int vertex_indices
end_header
-19.3428 -7.24534 21.4608 475.813 528.393
-18.7354 -1.56227 21.0592 477.643 555.477
-17.9584 4.09392 20.4675 480.369 582.511
-16.9937 9.70233 18.4179 484.687 609.697
-15.5229 15.0182 13.7389 492.708 636.212
-12.6535 19.3931 7.96365 508.044 658.803
-8.61661 22.6394 3.16497 528.652 676.054
-3.96932 24.8801 -0.934278 552.017 688.502
1.16632 25.4481 -4.79656 577.928 693.079
6.47272 24.2574 -0.740365 601.232 687.518
10.8754 21.0563 3.35151 620.696 672.269
14.3719 16.8966 8.03944 635.813 652.173
16.8255 12.0799 13.6637 645.712 628.551
18.1093 6.94831 18.1054 650.737 603.492
18.5622 1.88665 20.1996 652.956 579.154
18.5181 -3.14816 20.5975 653.641 555.244
18.1228 -8.18831 20.7846 652.773 531.291
-15.9833 -14.788 0.0126904 503.518 498.395
-14.0744 -16.5474 -1.63199 513.673 490.827
-11.5982 -17.4849 -3.02648 526.202 487.196
-8.93515 -17.6668 -4.35909 539.42 487.16
-6.25655 -17.2982 -5.49714 552.499 489.684
3.33974 -17.3393 -5.62548 597.761 491.363
5.50942 -17.8843 -4.34764 607.484 488.904
7.77688 -18.0042 -2.98392 617.535 488.453
10.0177 -17.7213 -1.51168 627.323 489.877
12.0009 -16.7041 0.215411 635.617 494.663
-0.215606 -12.1454 -4.99637 579.6 515.093
-0.0322118 -9.52998 -7.70706 581.198 528.131
0.126781 -6.92515 -10.4943 582.72 541.131
0.274374 -4.33806 -13.2345 584.17 554.035
-2.52701 -0.311069 -5.99973 566.65 570.845
-0.853056 -0.134772 -7.02643 574.986 572.24
0.848839 -0.097297 -8.06955 583.492 572.989
2.30069 -0.299758 -6.8688 589.798 572.029
3.68519 -0.670092 -5.95691 595.961 570.331
-11.428 -10.5393 -1.12247 524.599 519.626
-10.1038 -11.584 -1.18542 531.09 514.956
-8.37283 -11.8634 -1.15394 539.286 513.959
-6.80803 -11.1777 -0.841538 546.359 517.429
-8.24411 -10.3549 -1.01298 539.501 521.084
-9.88296 -10.1704 -1.01945 531.747 521.643
4.61724 -11.5482 -0.731311 600.19 517.847
5.97771 -12.2755 -1.14209 606.949 514.765
7.62874 -12.3255 -1.16499 614.746 514.851
8.98531 -11.4367 -1.01425 620.871 519.28
7.5965 -10.8467 -0.91504 614.157 521.779
6.02982 -10.9072 -0.844553 606.758 521.176
-6.62434 9.27761 -2.7652 543.745 614.642
-4.41612 7.52055 -4.93246 555.559 607.265
-1.91998 6.04914 -6.65337 568.454 601.19
0.954638 6.1005 -8.13664 582.69 602.332
3.70016 5.75441 -6.30393 594.816 600.794
6.19545 6.89782 -4.61185 605.512 606.284
8.30761 8.51254 -2.51486 614.108 613.834
6.53155 10.2714 -3.92085 606.038 622.139
4.07627 11.2935 -5.11584 594.828 626.781
1.29803 11.6473 -6.66372 582.409 628.282
-1.57307 11.5183 -5.3735 568.299 626.818
-4.26484 10.7648 -4.07703 555.164 622.435
-1.82691 8.1568 -5.19339 567.74 610.832
1.11881 7.97153 -7.11083 582.569 610.971
3.95126 7.90409 -4.75554 594.796 610.645
4.10416 8.82089 -4.30493 595.103 614.904
1.26396 9.20045 -6.23012 582.567 616.604
-1.70388 9.10182 -4.62227 567.843 615.191
3 20 21 23
3 21 22 23
3 0 1 36
3 15 16 45
3 0 17 36
3 16 26 45
3 17 18 37
3 25 26 44
3 17 36 37
3 26 44 45
3 18 19 38
3 24 25 43
3 18 37 38
3 25 43 44
3 19 20 38
3 23 24 43
3 20 21 39
3 22 23 42
3 20 38 39
3 23 42 43
3 21 22 27
3 21 27 39
3 22 27 42
3 27 28 42
3 27 28 39
3 28 42 47
3 28 39 40
3 1 36 41
3 15 45 46
3 1 2 41
3 14 15 46
3 28 29 40
3 28 29 47
3 2 40 41
3 14 46 47
3 2 29 40
3 14 29 47
3 2 3 29
3 13 14 29
3 29 30 31
3 29 30 35
3 3 29 31
3 13 29 35
3 30 32 33
3 30 33 34
3 30 31 32
3 30 34 35
3 3 4 31
3 12 13 35
3 4 5 48
3 11 12 54
3 5 6 48
3 10 11 54
3 6 48 59
3 10 54 55
3 6 7 59
3 9 10 55
3 7 58 59
3 9 55 56
3 8 57 58
3 8 56 57
3 7 8 58
3 8 9 56
3 4 31 48
3 12 35 54
3 31 48 49
3 35 53 54
3 31 49 50
3 35 52 53
3 31 32 50
3 34 35 52
3 32 33 50
3 33 34 52
3 33 50 51
3 33 51 52
3 48 49 60
3 49 60 50
3 50 60 61
3 50 51 61
3 51 52 61
3 61 62 52
3 52 53 62
3 53 54 62
3 54 55 63
3 55 56 63
3 56 63 64
3 56 57 64
3 64 65 57
3 57 58 65
3 58 59 65
3 48 59 65
