ply
format ascii 1.0
element vertex 66
property float x
property float y
property float z
property float u
property float v
element face 91
property list uchar int vertex_indices
end_header
-19.9246 -5.30488 20.4907 474.201 543.735
-19.5305 -0.451647 20.0324 475.548 567.668
-18.6658 4.35769 19.8483 479.303 591.35
-17.2077 8.99176 17.8431 485.279 614.817
-14.9409 13.4481 13.304 494.258 638.307
-11.8019 17.5976 7.87838 507.188 660.672
-7.85445 21.151 3.19291 524.402 679.973
-3.13543 23.718 -0.8121 545.729 694.315
2.27778 24.2262 -4.30447 570.818 698.497
7.23884 23.2116 -0.959496 596.429 693.008
11.5177 20.705 3.13861 619.118 679.907
15.0562 17.2827 7.94627 638.534 662.019
17.4213 12.9893 13.5561 652.593 639.488
18.3405 7.87241 18.6048 659.438 612.95
18.6871 2.25483 20.5841 662.356 584.875
18.8147 -3.5123 21.1231 663.667 556.502
18.6974 -9.26044 21.7874 663.827 528.156
-14.6302 -15.012 0.098957 493.119 503.294
-12.7466 -16.2838 -1.57862 501.794 497.809
-10.6052 -16.9202 -2.98152 511.78 495.373
-8.38621 -17.1225 -4.33517 522.129 495.054
-6.23321 -16.8678 -5.64499 532.133 496.949
3.85034 -18.5098 -5.1203 581.763 489.842
6.436 -19.3204 -3.96491 594.911 485.789
9.10478 -19.5335 -2.68265 608.464 484.628
11.6992 -18.8612 -1.37449 621.589 487.783
13.8992 -17.3155 0.378526 632.882 495.027
-1.58875 -11.1993 -4.97362 554.62 524.972
-1.22205 -8.30215 -7.68293 555.137 540.047
-0.829411 -5.4228 -10.4659 555.755 555.06
-0.431024 -2.54943 -13.0816 556.466 569.992
-3.69273 1.13486 -6.40615 542.758 585.544
-2.14535 1.54127 -7.11798 550.017 587.926
-0.509042 1.62731 -7.76265 557.763 588.729
1.30084 1.18205 -7.1588 566.878 586.555
2.97614 0.452037 -6.44673 575.4 582.939
-11.4578 -9.81347 -1.05024 507.755 529.437
-10.1546 -10.6868 -1.14501 514.163 525.335
-8.55339 -10.8909 -1.17322 521.996 524.519
-7.1273 -10.5437 -1.09805 528.967 526.348
-8.47362 -9.84846 -1.17428 522.299 529.628
-10.0013 -9.58609 -1.13708 514.823 530.735
5.25746 -11.9548 -0.695063 589.781 520.659
6.69969 -12.8223 -0.961432 596.802 516.655
8.44803 -12.8773 -0.952268 605.357 516.573
10.0685 -12.3556 -0.861752 613.27 519.272
8.58134 -11.8006 -0.875095 605.948 521.83
6.90676 -11.6356 -0.883822 597.745 522.459
-5.45838 9.45488 -2.66516 534.858 624.87
-4.34237 7.01211 -4.80298 539.703 613.719
-2.38002 5.26769 -6.39274 548.835 605.902
0.168439 5.0681 -8.09014 560.663 605.74
2.76331 4.72558 -6.66998 573.918 603.895
5.12777 6.05315 -5.018 585.995 610.121
6.90428 8.03763 -2.65055 595.416 619.271
5.34983 10.0895 -3.90757 587.167 629.54
3.29488 11.6074 -5.23966 576.487 637.167
0.70706 12.2629 -6.44093 563.324 640.476
-1.83992 12.1916 -5.04974 551.409 639.409
-3.95073 11.147 -3.85422 541.634 633.69
-1.90184 7.60631 -4.74128 551.607 616.871
0.277287 7.0572 -7.23124 561.356 615.211
2.52713 7.05944 -5.13139 573.155 614.799
2.57931 9.00502 -4.59222 573.453 624.152
0.373293 9.66202 -6.20764 561.998 627.64
-1.82536 9.51444 -4.25982 552.005 626.061
3 20 21 23
3 21 22 23
3 0 1 36
3 15 16 45
3 0 17 36
3 16 26 45
3 17 18 37
3 25 26 44
3 17 36 37
3 26 44 45
3 18 19 38
3 24 25 43
3 18 37 38
3 25 43 44
3 19 20 38
3 23 24 43
3 20 21 39
3 22 23 42
3 20 38 39
3 23 42 43
3 21 22 27
3 21 27 39
3 22 27 42
3 27 28 42
3 27 28 39
3 28 42 47
3 28 39 40
3 1 36 41
3 15 45 46
3 1 2 41
3 14 15 46
3 28 29 40
3 28 29 47
3 2 40 41
3 14 46 47
3 2 29 40
3 14 29 47
3 2 3 29
3 13 14 29
3 29 30 31
3 29 30 35
3 3 29 31
3 13 29 35
3 30 32 33
3 30 33 34
3 30 31 32
3 30 34 35
3 3 4 31
3 12 13 35
3 4 5 48
3 11 12 54
3 5 6 48
3 10 11 54
3 6 48 59
3 10 54 55
3 6 7 59
3 9 10 55
3 7 58 59
3 9 55 56
3 8 57 58
3 8 56 57
3 7 8 58
3 8 9 56
3 4 31 48
3 12 35 54
3 31 48 49
3 35 53 54
3 31 49 50
3 35 52 53
3 31 32 50
3 34 35 52
3 32 33 50
3 33 34 52
3 33 50 51
3 33 51 52
3 48 49 60
3 49 60 50
3 50 60 61
3 50 51 61
3 51 52 61
3 61 62 52
3 52 53 62
3 53 54 62
3 54 55 63
3 55 56 63
3 56 63 64
3 56 57 64
3 64 65 57
3 57 58 65
3 58 59 65
3 48 59 65
