ply
format ascii 1.0
element vertex 66
property float x
property float y
property float z
property float u
property float v
element face 91
property list uchar int vertex_indices
end_header
-19.0911 -6.45778 21.1312 447.844 559.12
-18.5853 -1.10272 20.7578 456.663 583.95
-17.8321 4.22199 20.3073 466.634 608.362
-16.8795 9.49017 18.2827 477.804 632.717
-15.356 14.5975 13.701 492.008 656.358
-12.5242 19.0618 7.96975 511.882 675.721
-8.54636 22.5767 3.2263 535.857 688.941
-3.78684 24.9554 -0.874537 562.057 695.669
1.53049 25.4982 -4.6815 588.663 692.963
6.85511 24.5156 -0.830603 611.934 680.85
11.4198 21.687 3.31346 629.357 660.831
14.9982 17.7072 8.06618 640.62 636.373
17.2359 12.8668 13.8502 644.301 609.154
17.9911 7.47525 18.4964 640.54 581.425
18.1563 1.95075 20.5509 634.355 554.512
18.1293 -3.60831 21.0612 627.534 528.106
17.8397 -9.16068 21.3907 619.514 502.097
-15.424 -14.73 0.0766636 459.702 521.612
-13.5885 -16.3405 -1.65711 466.841 512.294
-11.3005 -17.2289 -3.06597 476.913 505.757
-8.84921 -17.5464 -4.37859 488.415 501.698
-6.40033 -17.3573 -5.56674 500.481 500.003
3.17245 -17.883 -5.51775 545.19 486.055
5.65187 -18.5253 -4.27722 555.92 479.698
8.22249 -18.6313 -2.94965 567.7 475.744
10.7368 -18.1355 -1.52297 579.906 474.675
12.9268 -16.8333 0.209225 591.469 477.722
-0.903583 -12.4987 -4.9689 532.154 516.239
-0.602147 -9.48193 -7.68102 537.711 530.92
-0.306019 -6.48633 -10.5251 543.244 545.546
-0.0115312 -3.50536 -13.3116 548.741 560.087
-3.07604 0.52294 -6.22038 537.554 580.783
-1.4197 0.790559 -7.12742 545.902 580.327
0.289604 0.836645 -8.01334 554.233 578.753
1.96172 0.524894 -7.07826 561.593 575.013
3.545 -0.00890679 -6.23113 568.287 570.353
-11.4061 -10.0922 -0.994317 484.449 539.048
-10.008 -11.3023 -1.25285 489.69 531.726
-8.14782 -11.5055 -1.35118 498.28 528.569
-6.49947 -10.7376 -1.05529 506.938 530.145
-8.03141 -9.9414 -1.11199 500.637 535.759
-9.76333 -9.69696 -1.04862 492.71 538.968
4.69425 -11.5092 -0.872494 559.006 513.057
6.21288 -12.542 -1.28463 565.059 506.473
8.08647 -12.6184 -1.17689 573.821 503.841
9.67332 -11.6776 -0.873887 582.391 506.306
8.10944 -11.0211 -0.913958 575.77 511.293
6.3496 -10.9876 -0.936782 567.478 513.562
-6.93025 9.06942 -2.65706 528.702 624.799
-4.74852 7.21288 -4.83672 537.28 614.031
-2.19697 5.87565 -6.56922 548.134 605.148
0.657777 5.87631 -8.06999 561.962 602.166
3.46895 5.48461 -6.48944 574.491 596.5
6.168 6.45531 -4.73318 588.068 597.363
8.57687 7.95931 -2.51157 600.807 600.963
6.4569 9.70237 -3.90226 593.116 612.139
3.80092 10.6965 -5.13667 581.965 620.369
0.953868 11.0445 -6.52701 569.176 625.816
-1.88661 11.0759 -5.19886 555.488 628.982
-4.61143 10.4721 -3.91973 541.605 629.021
-2.17301 8.09197 -5.01584 550.557 615.16
0.776705 7.89154 -7.14674 564.726 611.292
3.68597 7.68156 -4.98477 577.816 606.203
3.74738 8.20552 -4.49728 578.629 608.469
0.793587 8.46484 -6.35057 565.323 613.756
-2.18493 8.61456 -4.49136 551.013 617.496
3 20 21 23
3 21 22 23
3 0 1 36
3 15 16 45
3 0 17 36
3 16 26 45
3 17 18 37
3 25 26 44
3 17 36 37
3 26 44 45
3 18 19 38
3 24 25 43
3 18 37 38
3 25 43 44
3 19 20 38
3 23 24 43
3 20 21 39
3 22 23 42
3 20 38 39
3 23 42 43
3 21 22 27
3 21 27 39
3 22 27 42
3 27 28 42
3 27 28 39
3 28 42 47
3 28 39 40
3 1 36 41
3 15 45 46
3 1 2 41
3 14 15 46
3 28 29 40
3 28 29 47
3 2 40 41
3 14 46 47
3 2 29 40
3 14 29 47
3 2 3 29
3 13 14 29
3 29 30 31
3 29 30 35
3 3 29 31
3 13 29 35
3 30 32 33
3 30 33 34
3 30 31 32
3 30 34 35
3 3 4 31
3 12 13 35
3 4 5 48
3 11 12 54
3 5 6 48
3 10 11 54
3 6 48 59
3 10 54 55
3 6 7 59
3 9 10 55
3 7 58 59
3 9 55 56
3 8 57 58
3 8 56 57
3 7 8 58
3 8 9 56
3 4 31 48
3 12 35 54
3 31 48 49
3 35 53 54
3 31 49 50
3 35 52 53
3 31 32 50
3 34 35 52
3 32 33 50
3 33 34 52
3 33 50 51
3 33 51 52
3 48 49 60
3 49 60 50
3 50 60 61
3 50 51 61
3 51 52 61
3 61 62 52
3 52 53 62
3 53 54 62
3 54 55 63
3 55 56 63
3 56 63 64
3 56 57 64
3 64 65 57
3 57 58 65
3 58 59 65
3 48 59 65
