ply
format ascii 1.0
element vertex 66
property float x
property float y
property float z
property float u
property float v
element face 91
property list uchar int vertex_indices
end_header
-20.0583 -7.34608 21.7581 475.818 527.391
-19.4127 -1.51761 21.3962 477.706 554.459
-18.6108 4.2804 20.7392 480.451 581.462
-17.6613 10.0597 18.5301 484.573 608.641
-16.1399 15.5236 13.6444 492.59 634.878
-13.0317 19.8713 7.89768 508.519 656.411
-8.75836 22.9865 3.18222 529.599 672.337
-3.90316 24.9709 -1.00041 553.352 683.082
1.30343 25.4245 -4.87952 578.909 686.792
6.6429 24.1283 -0.736105 601.848 681.255
11.1566 20.924 3.43941 621.387 666.748
14.7515 16.697 8.06526 636.721 647.274
17.3238 11.8026 13.6502 647.07 624.373
18.6576 6.61125 18.1598 652.277 600.018
19.1092 1.58529 20.3942 654.418 576.589
19.0623 -3.37578 20.7611 655.093 553.641
18.646 -8.34328 20.9092 654.171 530.622
-16.599 -14.1826 0.0122196 502.917 499.797
-14.5924 -15.8955 -1.68161 513.257 492.548
-12.0327 -16.7462 -3.07652 525.821 489.342
-9.30651 -16.8565 -4.39678 538.957 489.573
-6.55321 -16.4656 -5.49419 552.011 492.088
4.0116 -16.4396 -5.71831 600.628 494.345
6.12599 -16.9489 -4.44729 609.877 492.226
8.32329 -17.1209 -3.058 619.382 491.662
10.5189 -16.9965 -1.5547 628.765 492.448
12.5185 -16.1505 0.193845 636.984 496.487
-0.0273421 -11.5992 -4.93882 580.699 515.752
0.102317 -8.94517 -7.77544 582.003 528.445
0.20472 -6.29792 -10.6577 583.203 541.107
0.295134 -3.66692 -13.4086 584.293 553.673
-2.86971 -0.0625544 -6.17959 565.747 568.588
-1.0095 0.235005 -7.15371 574.665 570.477
0.891729 0.352719 -8.14479 583.816 571.546
2.50378 0.075062 -6.98734 590.76 570.413
4.03696 -0.406471 -6.05247 597.484 568.357
-12.1363 -10.2598 -1.00801 523.037 518.933
-10.5952 -11.3975 -1.22885 530.456 514.024
-8.64136 -11.6713 -1.28603 539.513 513.159
-6.88314 -10.817 -0.891375 547.229 517.39
-8.55185 -10.0332 -0.971519 539.435 520.686
-10.3975 -9.86877 -0.982409 530.928 521.078
5.01661 -11.1533 -0.926544 601.969 518.213
6.54113 -11.9934 -1.27276 609.305 514.693
8.38567 -12.0506 -1.18812 617.751 514.783
9.90915 -11.0407 -0.897699 624.403 519.701
8.33788 -10.453 -0.922321 617.072 522.104
6.59849 -10.5152 -0.905406 609.089 521.468
-7.62162 8.33662 -2.70692 540.578 605.867
-5.19209 6.45829 -4.91792 553.128 598.017
-2.33288 5.14004 -6.65258 567.318 592.765
0.817441 5.24644 -8.08443 582.407 594.096
3.81856 4.84024 -6.2563 595.456 592.547
6.61988 5.81194 -4.54358 607.347 597.33
8.91216 7.57807 -2.46471 616.567 605.622
6.92758 9.49866 -3.7611 607.625 614.281
4.18143 10.5408 -5.02217 595.357 618.73
1.19034 10.8667 -6.67142 582.29 619.885
-1.93917 10.771 -5.32248 567.332 618.618
-4.97253 9.999 -3.97965 552.962 614.253
-2.40059 7.30822 -5.32835 565.952 602.554
1.00421 7.29657 -7.14697 582.408 603.45
4.26935 7.03314 -4.80337 596.409 602.534
4.4547 7.89699 -4.25121 596.828 606.474
1.15539 8.25683 -6.32561 582.53 607.787
-2.29045 8.20982 -4.67122 565.971 606.637
3 20 21 23
3 21 22 23
3 0 1 36
3 15 16 45
3 0 17 36
3 16 26 45
3 17 18 37
3 25 26 44
3 17 36 37
3 26 44 45
3 18 19 38
3 24 25 43
3 18 37 38
3 25 43 44
3 19 20 38
3 23 24 43
3 20 21 39
3 22 23 42
3 20 38 39
3 23 42 43
3 21 22 27
3 21 27 39
3 22 27 42
3 27 28 42
3 27 28 39
3 28 42 47
3 28 39 40
3 1 36 41
3 15 45 46
3 1 2 41
3 14 15 46
3 28 29 40
3 28 29 47
3 2 40 41
3 14 46 47
3 2 29 40
3 14 29 47
3 2 3 29
3 13 14 29
3 29 30 31
3 29 30 35
3 3 29 31
3 13 29 35
3 30 32 33
3 30 33 34
3 30 31 32
3 30 34 35
3 3 4 31
3 12 13 35
3 4 5 48
3 11 12 54
3 5 6 48
3 10 11 54
3 6 48 59
3 10 54 55
3 6 7 59
3 9 10 55
3 7 58 59
3 9 55 56
3 8 57 58
3 8 56 57
3 7 8 58
3 8 9 56
3 4 31 48
3 12 35 54
3 31 48 49
3 35 53 54
3 31 49 50
3 35 52 53
3 31 32 50
3 34 35 52
3 32 33 50
3 33 34 52
3 33 50 51
3 33 51 52
3 48 49 60
3 49 60 50
3 50 60 61
3 50 51 61
3 51 52 61
3 61 62 52
3 52 53 62
3 53 54 62
3 54 55 63
3 55 56 63
3 56 63 64
3 56 57 64
3 64 65 57
3 57 58 65
3 58 59 65
3 48 59 65
