ply
format ascii 1.0
element vertex 66
property float x
property float y
property float z
property float u
property float v
element face 91
property list uchar int vertex_indices
end_header
-19.2987 -6.73192 21.2674 466.262 538.394
-18.733 -1.25297 20.9663 471.083 564.265
-17.9375 4.18665 20.4118 477.046 589.866
-16.927 9.62559 18.285 484.425 615.411
-15.3673 14.9349 13.5653 495.015 640.177
-12.4493 19.4659 7.92363 512 660.743
-8.40931 22.9343 3.1941 533.692 675.812
-3.68666 25.2884 -0.921244 558.056 685.309
1.53721 25.892 -4.77538 584.08 686.281
6.78621 24.656 -0.765177 607.56 678.349
11.2261 21.5468 3.36222 626.463 661.805
14.721 17.3517 8.07183 640.319 640.437
17.0113 12.3567 13.6812 647.924 615.7
17.9656 6.95475 18.31 649.272 589.548
18.2698 1.62455 20.4286 648.186 564.025
18.2494 -3.65099 20.8963 645.991 538.914
17.9128 -8.92877 21.1161 642.354 513.916
-15.7296 -14.5285 0.0541207 485.618 500.31
-13.784 -16.2558 -1.71292 494.661 491.386
-11.3084 -17.1884 -3.08859 506.423 486.038
-8.63872 -17.4088 -4.37471 519.353 484.005
-5.96347 -17.0721 -5.52196 532.483 484.62
3.24908 -17.4201 -5.59495 576.161 479.493
5.67198 -18.0534 -4.36068 587.131 475.544
8.18258 -18.1811 -3.03946 598.685 473.967
10.6235 -17.7323 -1.60858 610.098 475.158
12.7322 -16.4949 0.206589 620.13 480.221
-0.555653 -12.1653 -4.97272 559.893 505.928
-0.321536 -9.31019 -7.69146 562.759 519.477
-0.100552 -6.46637 -10.5024 565.582 532.979
0.111991 -3.64219 -13.2488 568.341 546.389
-2.90468 -0.0397397 -6.17568 553.581 564.549
-1.2339 0.219324 -7.04982 561.839 565.168
0.477774 0.296934 -7.97331 570.236 564.909
2.04946 0.00900641 -6.97036 577.347 562.928
3.54798 -0.465577 -6.1227 584.08 560.09
-11.2278 -10.0904 -1.04372 508.958 519.757
-9.87635 -11.1667 -1.28405 515.039 514.129
-8.11752 -11.395 -1.33089 523.325 512.38
-6.53464 -10.7262 -0.940841 531.002 514.96
-8.00649 -9.95746 -1.02513 524.316 519.176
-9.65535 -9.7426 -1.01373 516.556 520.819
4.69975 -11.3169 -0.852708 584.159 507.913
6.13818 -12.1292 -1.29184 590.802 503.513
7.86736 -12.1817 -1.24761 598.99 502.61
9.30886 -11.2924 -0.978676 606.109 506.295
7.83829 -10.7285 -0.941547 599.321 509.533
6.21213 -10.7549 -0.920879 591.576 510.019
-7.1906 9.0832 -2.67551 535.756 609.527
-5.28704 6.62288 -4.89026 544.436 597.138
-2.63332 4.81029 -6.52383 556.779 587.538
0.598637 4.71734 -7.96072 572.467 585.903
3.76113 4.41476 -6.35762 586.984 583.243
6.54896 5.87109 -4.70637 600.368 589.095
8.61849 8.12823 -2.4977 610.499 599.02
6.65625 10.1054 -3.81887 602.245 609.194
4.03869 11.3376 -5.06533 590.578 616.067
1.04373 11.7916 -6.5969 576.897 619.384
-2.02272 11.6726 -5.20039 561.926 619.949
-4.82812 10.7667 -3.9281 547.932 616.671
-2.40618 7.2765 -5.03446 558.411 599.165
0.755445 6.94426 -7.08744 573.83 596.428
3.86027 6.91744 -4.81329 588.008 595.091
3.99009 8.60804 -4.35679 589.145 603.081
0.924224 9.08638 -6.35949 575.254 606.548
-2.24612 8.97375 -4.52461 559.682 607.175
3 20 21 23
3 21 22 23
3 0 1 36
3 15 16 45
3 0 17 36
3 16 26 45
3 17 18 37
3 25 26 44
3 17 36 37
3 26 44 45
3 18 19 38
3 24 25 43
3 18 37 38
3 25 43 44
3 19 20 38
3 23 24 43
3 20 21 39
3 22 23 42
3 20 38 39
3 23 42 43
3 21 22 27
3 21 27 39
3 22 27 42
3 27 28 42
3 27 28 39
3 28 42 47
3 28 39 40
3 1 36 41
3 15 45 46
3 1 2 41
3 14 15 46
3 28 29 40
3 28 29 47
3 2 40 41
3 14 46 47
3 2 29 40
3 14 29 47
3 2 3 29
3 13 14 29
3 29 30 31
3 29 30 35
3 3 29 31
3 13 29 35
3 30 32 33
3 30 33 34
3 30 31 32
3 30 34 35
3 3 4 31
3 12 13 35
3 4 5 48
3 11 12 54
3 5 6 48
3 10 11 54
3 6 48 59
3 10 54 55
3 6 7 59
3 9 10 55
3 7 58 59
3 9 55 56
3 8 57 58
3 8 56 57
3 7 8 58
3 8 9 56
3 4 31 48
3 12 35 54
3 31 48 49
3 35 53 54
3 31 49 50
3 35 52 53
3 31 32 50
3 34 35 52
3 32 33 50
3 33 34 52
3 33 50 51
3 33 51 52
3 48 49 60
3 49 60 50
3 50 60 61
3 50 51 61
3 51 52 61
3 61 62 52
3 52 53 62
3 53 54 62
3 54 55 63
3 55 56 63
3 56 63 64
3 56 57 64
3 64 65 57
3 57 58 65
3 58 59 65
3 48 59 65
