ply
format ascii 1.0
element vertex 66
property float x
property float y
property float z
property float u
property float v
element face 91
property list uchar int vertex_indices
end_header
-19.8278 -7.42571 21.6836 475.319 527.864
-19.199 -1.6218 21.332 477.162 554.947
-18.4037 4.15104 20.6937 479.915 581.978
-17.4564 9.90502 18.5037 484.104 609.274
-15.9638 15.3772 13.6906 492.106 635.918
-12.9194 19.7903 7.92285 507.94 658.149
-8.67583 22.9669 3.18964 529.078 674.664
-3.82826 25.0108 -0.96503 552.967 685.925
1.40215 25.472 -4.86521 578.837 689.872
6.70868 24.1937 -0.744475 601.641 684.098
11.1922 21.0201 3.40977 621.032 669.379
14.7501 16.8224 8.06293 636.135 649.636
17.2297 11.9235 13.6845 645.954 626.235
18.4666 6.71759 18.1756 650.638 601.412
18.873 1.66549 20.3863 652.536 577.621
18.8192 -3.32672 20.7666 653.16 554.402
18.4152 -8.32402 20.9343 652.271 531.137
-16.4924 -14.25 -0.00501303 502.372 501.416
-14.4571 -16.0881 -1.68899 512.942 493.639
-11.8205 -17.0305 -3.08056 525.959 490.066
-8.99495 -17.1671 -4.3947 539.642 490.245
-6.15453 -16.7407 -5.51435 553.182 492.996
3.5735 -16.7344 -5.68977 598.137 494.913
5.81705 -17.3023 -4.4144 608.005 492.442
8.15727 -17.4608 -3.04501 618.188 491.867
10.4737 -17.214 -1.56176 628.121 493.141
12.5248 -16.1857 0.196193 636.537 497.928
-0.129936 -11.8335 -4.97373 579.683 516.764
0.0148343 -9.18376 -7.74669 581.101 529.648
0.135072 -6.54334 -10.5939 582.441 542.5
0.245009 -3.92166 -13.3699 583.705 555.247
-2.8197 -0.182269 -6.13923 565.37 570.477
-1.02149 0.0848328 -7.10652 574.065 572.259
0.813725 0.175723 -8.11181 582.985 573.24
2.3843 -0.080457 -6.95601 589.739 572.11
3.87975 -0.534381 -6.02906 596.296 570.098
-11.9217 -10.154 -1.04132 523.081 521.479
-10.424 -11.2392 -1.24881 530.316 516.78
-8.53157 -11.5141 -1.29494 539.126 515.876
-6.80355 -10.766 -0.913147 546.759 519.591
-8.42552 -10.0026 -1.00289 539.159 522.838
-10.2181 -9.81781 -1.00487 530.852 523.354
4.86775 -11.1213 -0.916959 600.674 520.167
6.38674 -11.8801 -1.27416 608.009 517.015
8.18375 -11.93 -1.20537 616.276 517.112
9.67712 -10.9798 -0.925532 622.833 521.74
8.12382 -10.4408 -0.932759 615.557 523.943
6.42151 -10.5127 -0.918253 607.713 523.283
-7.52214 8.61475 -2.71503 540.209 609.624
-5.17171 6.64428 -4.90897 552.501 601.4
-2.36682 5.19469 -6.62333 566.554 595.576
0.800869 5.23961 -8.04829 581.829 596.685
3.83143 4.87147 -6.26544 595.045 595.184
6.61914 5.96513 -4.57394 606.876 600.428
8.88485 7.80651 -2.49708 615.96 608.956
6.90998 9.71246 -3.79755 607.062 617.682
4.1989 10.7771 -5.05744 594.925 622.363
1.20991 11.1269 -6.66666 581.823 623.751
-1.91478 11.0316 -5.32189 566.795 622.433
-4.90523 10.2474 -3.99765 552.541 617.954
-2.40572 7.41661 -5.26865 565.267 605.58
0.989912 7.3026 -7.14196 581.838 606.09
4.26502 7.11435 -4.79576 595.879 605.35
4.45281 8.15042 -4.2811 596.284 610.079
1.15767 8.53354 -6.3444 581.977 611.658
-2.27654 8.48348 -4.65202 565.348 610.419
3 20 21 23
3 21 22 23
3 0 1 36
3 15 16 45
3 0 17 36
3 16 26 45
3 17 18 37
3 25 26 44
3 17 36 37
3 26 44 45
3 18 19 38
3 24 25 43
3 18 37 38
3 25 43 44
3 19 20 38
3 23 24 43
3 20 21 39
3 22 23 42
3 20 38 39
3 23 42 43
3 21 22 27
3 21 27 39
3 22 27 42
3 27 28 42
3 27 28 39
3 28 42 47
3 28 39 40
3 1 36 41
3 15 45 46
3 1 2 41
3 14 15 46
3 28 29 40
3 28 29 47
3 2 40 41
3 14 46 47
3 2 29 40
3 14 29 47
3 2 3 29
3 13 14 29
3 29 30 31
3 29 30 35
3 3 29 31
3 13 29 35
3 30 32 33
3 30 33 34
3 30 31 32
3 30 34 35
3 3 4 31
3 12 13 35
3 4 5 48
3 11 12 54
3 5 6 48
3 10 11 54
3 6 48 59
3 10 54 55
3 6 7 59
3 9 10 55
3 7 58 59
3 9 55 56
3 8 57 58
3 8 56 57
3 7 8 58
3 8 9 56
3 4 31 48
3 12 35 54
3 31 48 49
3 35 53 54
3 31 49 50
3 35 52 53
3 31 32 50
3 34 35 52
3 32 33 50
3 33 34 52
3 33 50 51
3 33 51 52
3 48 49 60
3 49 60 50
3 50 60 61
3 50 51 61
3 51 52 61
3 61 62 52
3 52 53 62
3 53 54 62
3 54 55 63
3 55 56 63
3 56 63 64
3 56 57 64
3 64 65 57
3 57 58 65
3 58 59 65
3 48 59 65
