ply
format ascii 1.0
element vertex 66
property float x
property float y
property float z
property float u
property float v
element face 91
property list uchar int vertex_indices
end_header
-18.7344 -6.46864 21.0808 457.882 542.34
-18.1333 -1.00202 20.6938 464.818 569.301
-17.2656 4.4235 20.1815 473.084 595.908
-16.255 9.76787 18.1816 482.349 622.524
-14.7802 14.9019 13.5654 494.382 648.664
-12.0318 19.3802 7.95358 512.543 670.966
-8.15322 22.9343 3.16234 535.513 687.563
-3.49999 25.3661 -0.958135 561.409 697.776
1.76886 25.8375 -4.60419 588.893 697.608
6.98974 24.7035 -0.748161 613.292 686.87
11.2772 21.5866 3.39534 631.569 666.815
14.5255 17.3822 8.16841 643.746 641.865
16.5298 12.4832 13.7463 649.036 614.065
17.2652 7.23449 18.3229 647.972 585.78
17.5045 1.9232 20.2685 644.987 558.451
17.5642 -3.42912 20.6968 641.423 531.572
17.3221 -8.7705 21.0377 636.38 504.994
-15.0544 -15.3224 0.00975757 474.858 502.853
-13.0751 -16.6815 -1.65363 484.17 495.231
-10.8114 -17.4188 -3.02333 495.272 490.405
-8.43381 -17.6831 -4.34317 507.264 487.837
-6.05386 -17.4839 -5.56299 519.572 487.544
3.24706 -17.8659 -5.59243 565.769 478.974
5.58208 -18.3024 -4.33715 576.838 474.686
7.96977 -18.2873 -3.01656 588.474 472.59
10.286 -17.7885 -1.63501 600.078 472.935
12.3587 -16.6366 0.123925 610.839 476.581
-0.795706 -12.5749 -4.94545 549.148 508.034
-0.551711 -9.58012 -7.65729 553.093 523.731
-0.319582 -6.60575 -10.4764 556.989 539.372
-0.088354 -3.64204 -13.1896 560.849 554.924
-2.97586 0.399934 -6.25085 547.681 574.747
-1.36628 0.665283 -7.07132 556.095 575.199
0.296508 0.728429 -7.88841 564.632 574.603
1.8756 0.443543 -6.98379 572.112 571.735
3.35926 -0.0448933 -6.18633 578.998 567.959
-11.1868 -10.9726 -1.00199 497.467 522.116
-9.85766 -11.9452 -1.16043 503.459 516.367
-8.19133 -12.1264 -1.17671 511.659 514.273
-6.72287 -11.4702 -0.926945 519.398 516.404
-8.15078 -10.8591 -1.01407 512.716 520.507
-9.72223 -10.6694 -0.980651 504.992 522.569
4.71307 -12.0741 -0.890639 576.089 505.171
6.06788 -12.8525 -1.17169 582.374 500.415
7.70837 -12.8893 -1.13701 590.534 499.042
9.11426 -12.0939 -0.924055 598.067 501.925
7.71911 -11.63 -0.914319 591.422 505.236
6.16519 -11.6508 -0.943136 583.652 506.258
-6.26677 9.83408 -2.70086 537.064 622.92
-4.67072 7.3193 -4.94995 543.783 610.014
-2.34398 5.40913 -6.59361 554.438 599.389
0.58052 5.26841 -8.10168 569.292 597.11
3.47725 5.02738 -6.41835 583.207 593.246
6.0185 6.59249 -4.76459 596.623 598.653
7.89264 8.88894 -2.52641 607.088 607.982
6.10487 10.6153 -3.77076 599.656 618.305
3.77046 11.6937 -4.94423 589.022 625.764
1.0904 12.0736 -6.42909 576.242 630.097
-1.65521 12.038 -5.10958 562.201 631.434
-4.15242 11.2784 -3.95266 548.928 629.038
-1.96771 7.98184 -4.95394 557.752 611.379
0.757351 7.51965 -7.09929 571.529 607.861
3.49211 7.6326 -4.77834 584.738 605.657
3.53445 8.9427 -4.34161 585.771 612.008
0.909548 9.26759 -6.28513 573.333 616.186
-1.76531 9.27723 -4.50268 559.57 617.536
3 20 21 23
3 21 22 23
3 0 1 36
3 15 16 45
3 0 17 36
3 16 26 45
3 17 18 37
3 25 26 44
3 17 36 37
3 26 44 45
3 18 19 38
3 24 25 43
3 18 37 38
3 25 43 44
3 19 20 38
3 23 24 43
3 20 21 39
3 22 23 42
3 20 38 39
3 23 42 43
3 21 22 27
3 21 27 39
3 22 27 42
3 27 28 42
3 27 28 39
3 28 42 47
3 28 39 40
3 1 36 41
3 15 45 46
3 1 2 41
3 14 15 46
3 28 29 40
3 28 29 47
3 2 40 41
3 14 46 47
3 2 29 40
3 14 29 47
3 2 3 29
3 13 14 29
3 29 30 31
3 29 30 35
3 3 29 31
3 13 29 35
3 30 32 33
3 30 33 34
3 30 31 32
3 30 34 35
3 3 4 31
3 12 13 35
3 4 5 48
3 11 12 54
3 5 6 48
3 10 11 54
3 6 48 59
3 10 54 55
3 6 7 59
3 9 10 55
3 7 58 59
3 9 55 56
3 8 57 58
3 8 56 57
3 7 8 58
3 8 9 56
3 4 31 48
3 12 35 54
3 31 48 49
3 35 53 54
3 31 49 50
3 35 52 53
3 31 32 50
3 34 35 52
3 32 33 50
3 33 34 52
3 33 50 51
3 33 51 52
3 48 49 60
3 49 60 50
3 50 60 61
3 50 51 61
3 51 52 61
3 61 62 52
3 52 53 62
3 53 54 62
3 54 55 63
3 55 56 63
3 56 63 64
3 56 57 64
3 64 65 57
3 57 58 65
3 58 59 65
3 48 59 65
