ply
format ascii 1.0
element vertex 66
property float x
property float y
property float z
property float u
property float v
element face 91
property list uchar int vertex_indices
end_header
-18.2675 -6.17232 20.7233 455.471 551.768
-17.9387 -1.01151 20.2829 461.544 577.386
-17.2806 4.11975 19.9462 469.238 602.514
-16.2333 9.09499 18.0716 478.755 627.447
-14.6197 13.8612 13.7405 490.94 652.312
-12.041 18.2356 8.02214 507.625 675.23
-8.40329 21.8818 3.06879 528.978 693.175
-3.9128 24.5474 -0.829216 553.75 704.897
1.32094 25.1995 -4.56152 580.511 705.884
6.55479 24.2319 -0.845059 605.837 694.416
10.8316 21.2938 3.17364 624.685 673.796
14.1952 17.4142 8.10561 638.152 648.737
16.389 12.8275 13.8563 645.156 620.677
17.3553 7.66797 18.4634 645.537 591.495
17.7064 2.14771 20.4405 642.546 562.603
17.7171 -3.52038 20.9716 637.736 534.122
17.4385 -9.18157 21.2958 631.486 506.045
-14.4098 -15.4841 0.10272 466.91 514.43
-12.8438 -16.8791 -1.49559 473.557 507.111
-10.888 -17.6201 -2.92826 482.713 502.611
-8.81711 -17.9039 -4.33712 492.837 500.27
-6.77841 -17.7426 -5.66644 503.181 500.121
3.1561 -18.5265 -5.48716 552.199 487.652
5.57252 -19.2186 -4.18041 563.685 481.381
8.09707 -19.3412 -2.79597 576.199 477.8
10.5614 -18.7048 -1.38516 589.062 478.026
12.5813 -17.1754 0.252604 600.466 482.932
-1.32463 -12.5111 -5.06648 534.943 521.105
-1.04992 -9.9156 -7.61608 538.559 535.274
-0.770743 -7.34296 -10.2958 542.178 549.402
-0.479281 -4.78782 -13.0161 545.844 563.457
-3.07613 -0.072606 -5.98089 536.854 584.929
-1.60488 0.000432468 -6.97449 544.282 584.626
-0.114131 -0.0735939 -7.90705 551.681 583.54
1.4509 -0.298302 -6.97996 559.311 580.541
2.96042 -0.678657 -6.19894 566.53 576.902
-11.463 -10.1999 -1.15992 486.189 538.915
-10.0262 -11.4542 -1.11413 492.3 531.432
-8.06582 -11.676 -1.09611 501.915 528.649
-6.39791 -10.9557 -0.961166 510.875 530.725
-7.95265 -9.96887 -1.19605 503.946 537.092
-9.78057 -9.67556 -1.12374 495.054 540.065
4.39154 -11.8934 -0.723271 564.038 516.73
5.94659 -12.9768 -1.09167 570.889 510.241
7.9532 -13.0533 -1.02681 580.86 508.112
9.66449 -12.1532 -0.932063 590.191 511.068
8.06514 -11.3194 -0.893814 582.906 516.551
6.16359 -11.2626 -0.925483 573.443 518.473
-4.84197 10.1046 -2.7249 536.729 635.064
-3.45495 8.05736 -4.81901 541.924 624.951
-1.61397 6.33058 -6.57266 549.662 615.842
0.742771 6.19551 -8.26143 561.345 614.162
3.12997 5.89483 -6.52604 573.017 609.606
5.29069 7.22922 -4.75932 584.958 613.347
7.11681 8.86199 -2.55536 595.479 618.597
5.74791 10.8434 -4.14516 590.341 630.548
3.79586 12.3183 -5.42544 581.85 640.297
1.24418 12.9221 -6.76753 569.612 646.266
-1.26128 12.7991 -5.45892 556.967 647.015
-3.33114 11.7797 -4.11428 545.731 642.92
-1.59905 8.55326 -4.71739 551.631 625.773
0.878887 7.99856 -7.09036 563.565 622.31
3.41802 8.05551 -4.88437 576.301 619.122
3.54256 9.70652 -4.49543 578.337 626.988
1.00833 10.3759 -6.06842 566.245 633.404
-1.54204 10.2011 -4.33968 553.327 633.687
3 20 21 23
3 21 22 23
3 0 1 36
3 15 16 45
3 0 17 36
3 16 26 45
3 17 18 37
3 25 26 44
3 17 36 37
3 26 44 45
3 18 19 38
3 24 25 43
3 18 37 38
3 25 43 44
3 19 20 38
3 23 24 43
3 20 21 39
3 22 23 42
3 20 38 39
3 23 42 43
3 21 22 27
3 21 27 39
3 22 27 42
3 27 28 42
3 27 28 39
3 28 42 47
3 28 39 40
3 1 36 41
3 15 45 46
3 1 2 41
3 14 15 46
3 28 29 40
3 28 29 47
3 2 40 41
3 14 46 47
3 2 29 40
3 14 29 47
3 2 3 29
3 13 14 29
3 29 30 31
3 29 30 35
3 3 29 31
3 13 29 35
3 30 32 33
3 30 33 34
3 30 31 32
3 30 34 35
3 3 4 31
3 12 13 35
3 4 5 48
3 11 12 54
3 5 6 48
3 10 11 54
3 6 48 59
3 10 54 55
3 6 7 59
3 9 10 55
3 7 58 59
3 9 55 56
3 8 57 58
3 8 56 57
3 7 8 58
3 8 9 56
3 4 31 48
3 12 35 54
3 31 48 49
3 35 53 54
3 31 49 50
3 35 52 53
3 31 32 50
3 34 35 52
3 32 33 50
3 33 34 52
3 33 50 51
3 33 51 52
3 48 49 60
3 49 60 50
3 50 60 61
3 50 51 61
3 51 52 61
3 61 62 52
3 52 53 62
3 53 54 62
3 54 55 63
3 55 56 63
3 56 63 64
3 56 57 64
3 64 65 57
3 57 58 65
3 58 59 65
3 48 59 65
