ply
format ascii 1.0
element vertex 66
property float x
property float y
property float z
property float u
property float v
element face 91
property list uchar int vertex_indices
end_header
-20.0858 -7.42547 21.732 475.718 528.101
-19.4655 -1.59323 21.39 477.492 554.998
-18.6816 4.20656 20.7346 480.166 581.825
-17.7329 10.0034 18.5233 484.325 608.902
-16.1957 15.518 13.6381 492.487 635.196
-13.0499 19.9226 7.87107 508.631 656.848
-8.71498 23.0626 3.18817 529.951 672.774
-3.79364 25.0457 -0.984412 553.945 683.437
1.46712 25.4807 -4.89371 579.685 687.033
6.78231 24.1645 -0.742605 602.24 681.417
11.3044 20.9913 3.4297 621.556 667.134
14.9141 16.786 8.04221 636.719 647.879
17.4466 11.8634 13.6659 646.643 624.978
18.6998 6.62047 18.1956 651.316 600.523
19.0998 1.55571 20.4223 653.147 577.06
19.03 -3.42963 20.8 653.69 554.145
18.6114 -8.42031 20.9641 652.745 531.17
-16.6131 -14.1851 0.0177907 503.196 501.025
-14.5798 -15.9996 -1.69838 513.655 493.36
-11.9436 -16.9012 -3.08953 526.519 489.947
-9.12611 -16.9988 -4.39369 540.002 490.241
-6.29259 -16.5512 -5.49104 553.346 493.005
3.80731 -16.5473 -5.67902 599.489 495.012
6.02718 -17.1273 -4.42195 609.14 492.598
8.34 -17.3206 -3.05381 619.082 491.959
10.6367 -17.1196 -1.56673 628.812 493.105
12.6725 -16.1259 0.209042 637.051 497.79
-0.0954554 -11.541 -4.96539 580.313 517.089
0.029796 -8.93659 -7.76468 581.66 529.464
0.131365 -6.33876 -10.6235 582.929 541.813
0.223524 -3.75945 -13.3854 584.113 554.061
-2.92838 -0.0881261 -6.16686 565.573 569.2
-1.08973 0.221271 -7.12761 574.345 571.118
0.792985 0.33812 -8.13441 583.38 572.168
2.41179 0.0554255 -6.9698 590.272 571.014
3.94691 -0.438441 -6.02503 596.93 568.909
-11.8906 -10.1203 -1.03753 524.38 520.726
-10.4261 -11.2186 -1.27588 531.399 516.013
-8.55855 -11.482 -1.32016 539.991 515.175
-6.86334 -10.6834 -0.883911 547.349 519.099
-8.4506 -9.89275 -0.971284 539.988 522.427
-10.2177 -9.73096 -0.992364 531.906 522.828
5.04434 -11.052 -0.926891 601.745 519.728
6.52734 -11.8391 -1.29298 608.844 516.464
8.29492 -11.8828 -1.2201 616.879 516.596
9.74405 -10.8999 -0.917368 623.139 521.336
8.22593 -10.3291 -0.929487 616.103 523.659
6.55694 -10.3924 -0.91546 608.499 523.043
-7.73483 8.35631 -2.70042 540.261 606.448
-5.28979 6.46929 -4.92134 552.851 598.606
-2.42113 5.12713 -6.64106 567.022 593.268
0.759145 5.21995 -8.02271 582.156 594.516
3.80015 4.80799 -6.2712 595.283 592.958
6.63452 5.79365 -4.57239 607.201 597.773
8.98043 7.54787 -2.48522 616.549 605.957
6.93718 9.4428 -3.75112 607.434 614.432
4.15626 10.4536 -5.03827 595.149 618.715
1.15507 10.7817 -6.66908 582.164 619.878
-1.98787 10.7096 -5.31681 567.21 618.737
-5.04969 9.98144 -3.97262 552.766 614.606
-2.39448 7.32928 -5.31454 566.059 603.167
0.951696 7.3077 -7.12311 582.174 603.987
4.17302 7.03946 -4.82715 595.837 603.042
4.35343 7.83751 -4.27972 596.236 606.653
1.09852 8.17036 -6.38214 582.315 607.858
-2.29003 8.15981 -4.67377 566.06 606.898
3 20 21 23
3 21 22 23
3 0 1 36
3 15 16 45
3 0 17 36
3 16 26 45
3 17 18 37
3 25 26 44
3 17 36 37
3 26 44 45
3 18 19 38
3 24 25 43
3 18 37 38
3 25 43 44
3 19 20 38
3 23 24 43
3 20 21 39
3 22 23 42
3 20 38 39
3 23 42 43
3 21 22 27
3 21 27 39
3 22 27 42
3 27 28 42
3 27 28 39
3 28 42 47
3 28 39 40
3 1 36 41
3 15 45 46
3 1 2 41
3 14 15 46
3 28 29 40
3 28 29 47
3 2 40 41
3 14 46 47
3 2 29 40
3 14 29 47
3 2 3 29
3 13 14 29
3 29 30 31
3 29 30 35
3 3 29 31
3 13 29 35
3 30 32 33
3 30 33 34
3 30 31 32
3 30 34 35
3 3 4 31
3 12 13 35
3 4 5 48
3 11 12 54
3 5 6 48
3 10 11 54
3 6 48 59
3 10 54 55
3 6 7 59
3 9 10 55
3 7 58 59
3 9 55 56
3 8 57 58
3 8 56 57
3 7 8 58
3 8 9 56
3 4 31 48
3 12 35 54
3 31 48 49
3 35 53 54
3 31 49 50
3 35 52 53
3 31 32 50
3 34 35 52
3 32 33 50
3 33 34 52
3 33 50 51
3 33 51 52
3 48 49 60
3 49 60 50
3 50 60 61
3 50 51 61
3 51 52 61
3 61 62 52
3 52 53 62
3 53 54 62
3 54 55 63
3 55 56 63
3 56 63 64
3 56 57 64
3 64 65 57
3 57 58 65
3 58 59 65
3 48 59 65
