ply
format ascii 1.0
element vertex 66
property float x
property float y
property float z
property float u
property float v
element face 91
property list uchar int vertex_indices
end_header
-18.9298 -6.34715 21.105 452.581 550.472
-18.3752 -0.96443 20.6896 460.189 576.295
-17.584 4.38912 20.2399 468.93 601.771
-16.6487 9.65533 18.2204 478.604 627.199
-15.1933 14.7149 13.6592 491.13 651.967
-12.4186 19.124 7.98785 509.724 672.731
-8.49012 22.6022 3.21099 532.931 687.631
-3.78723 24.9734 -0.940824 558.798 696.24
1.50058 25.4509 -4.60362 585.724 694.946
6.81583 24.4934 -0.810331 610.029 684.244
11.2978 21.5981 3.38975 628.456 664.736
14.7958 17.5948 8.14085 640.985 640.553
17.0084 12.8097 13.8047 646.368 613.437
17.7747 7.52127 18.447 644.451 585.513
17.9584 2.06927 20.463 640.065 558.168
17.9781 -3.45089 20.9368 635.123 531.137
17.7404 -8.96277 21.2736 628.961 504.424
-15.2506 -14.9331 0.00927176 466.984 512.153
-13.3109 -16.2366 -1.64428 475.597 504.583
-11.1006 -16.9147 -3.05593 486.043 499.733
-8.79919 -17.192 -4.40504 497.279 496.731
-6.49321 -17.06 -5.61574 508.877 495.671
3.40688 -17.6179 -5.58607 556.631 483.965
5.79248 -18.1073 -4.34986 567.578 479.021
8.23353 -18.1539 -3.00801 579.171 476.148
10.6307 -17.72 -1.58804 590.965 475.627
12.7924 -16.5788 0.143224 602.184 478.661
-0.929283 -12.4946 -4.98162 539.964 512.634
-0.638499 -9.45602 -7.69006 544.637 528.028
-0.356502 -6.44216 -10.5357 549.272 543.354
-0.0752538 -3.43762 -13.2722 553.874 558.6
-3.06809 0.512849 -6.18 541.426 578.253
-1.42146 0.776797 -7.12012 549.874 578.346
0.279479 0.826103 -8.00987 558.385 577.33
1.9228 0.515753 -7.06324 565.931 574.024
3.47185 -0.014008 -6.22426 572.842 569.771
-11.4316 -10.743 -0.995197 489.552 529.4
-10.094 -11.7872 -1.15204 495.167 523.156
-8.39255 -11.9936 -1.18772 503.283 520.62
-6.87095 -11.3318 -1.00293 511.257 522.4
-8.3136 -10.6944 -1.05023 504.805 526.826
-9.91495 -10.4811 -1.01168 497.182 529.304
4.77668 -12.0804 -0.848814 567.335 508.142
6.17888 -12.962 -1.18066 573.446 502.686
7.88235 -13.0137 -1.12316 581.692 500.871
9.37045 -12.2172 -0.889609 589.613 503.321
7.91883 -11.7243 -0.889546 582.979 507.037
6.30254 -11.7031 -0.883402 575.118 508.604
-6.69385 9.41636 -2.72853 531.046 623.754
-4.64533 7.39476 -4.8867 539.647 612.754
-2.15131 5.91548 -6.59321 550.815 603.843
0.703098 5.87588 -8.12247 564.996 601.554
3.51884 5.50808 -6.47099 578.067 596.678
6.19103 6.59182 -4.74623 591.724 598.971
8.494 8.26663 -2.5299 604.013 604.317
6.45018 9.98505 -3.84193 595.848 614.956
3.8674 10.9676 -5.01618 584.37 622.458
1.07109 11.3007 -6.41392 571.312 627.066
-1.72899 11.3587 -5.13201 557.462 629.475
-4.40715 10.7838 -3.93369 543.656 628.722
-2.04296 8.21182 -5.04714 553.096 614.421
0.849657 7.91943 -7.15348 567.35 611.052
3.71943 7.79465 -4.97578 580.798 607.14
3.75142 8.41268 -4.45196 581.404 609.95
0.89652 8.66001 -6.27599 568.069 614.331
-1.9799 8.82446 -4.5012 553.844 617.168
3 20 21 23
3 21 22 23
3 0 1 36
3 15 16 45
3 0 17 36
3 16 26 45
3 17 18 37
3 25 26 44
3 17 36 37
3 26 44 45
3 18 19 38
3 24 25 43
3 18 37 38
3 25 43 44
3 19 20 38
3 23 24 43
3 20 21 39
3 22 23 42
3 20 38 39
3 23 42 43
3 21 22 27
3 21 27 39
3 22 27 42
3 27 28 42
3 27 28 39
3 28 42 47
3 28 39 40
3 1 36 41
3 15 45 46
3 1 2 41
3 14 15 46
3 28 29 40
3 28 29 47
3 2 40 41
3 14 46 47
3 2 29 40
3 14 29 47
3 2 3 29
3 13 14 29
3 29 30 31
3 29 30 35
3 3 29 31
3 13 29 35
3 30 32 33
3 30 33 34
3 30 31 32
3 30 34 35
3 3 4 31
3 12 13 35
3 4 5 48
3 11 12 54
3 5 6 48
3 10 11 54
3 6 48 59
3 10 54 55
3 6 7 59
3 9 10 55
3 7 58 59
3 9 55 56
3 8 57 58
3 8 56 57
3 7 8 58
3 8 9 56
3 4 31 48
3 12 35 54
3 31 48 49
3 35 53 54
3 31 49 50
3 35 52 53
3 31 32 50
3 34 35 52
3 32 33 50
3 33 34 52
3 33 50 51
3 33 51 52
3 48 49 60
3 49 60 50
3 50 60 61
3 50 51 61
3 51 52 61
3 61 62 52
3 52 53 62
3 53 54 62
3 54 55 63
3 55 56 63
3 56 63 64
3 56 57 64
3 64 65 57
3 57 58 65
3 58 59 65
3 48 59 65
