ply
format ascii 1.0
element vertex 66
property float x
property float y
property float z
property float u
property float v
element face 91
property list uchar int vertex_indices
end_header
-18.7615 -6.90517 21.2074 469.26 534.861
-18.2808 -1.43626 20.7876 472.707 561.364
-17.6092 4.01263 20.275 477.105 587.744
-16.6576 9.42531 18.3279 483.333 614.037
-15.1737 14.6441 13.7906 492.971 639.547
-12.4916 19.1437 7.96791 508.714 661.469
-8.69764 22.6743 3.09095 529.355 678.388
-4.186 25.2081 -0.885906 552.994 690.244
0.91916 25.9761 -4.85288 579.19 693.415
6.26046 24.7663 -0.80488 603.497 686.149
10.6512 21.4858 3.19985 622.844 669.01
14.1248 17.2433 7.99617 637.312 647.292
16.5419 12.3304 13.7493 646.221 622.422
17.8048 7.02796 18.1961 649.906 596.004
18.2606 1.7149 20.2681 650.472 569.92
18.184 -3.58333 20.7496 648.994 544.165
17.7591 -8.89098 20.9417 645.922 518.457
-15.3142 -14.7399 0.0836938 491.619 498.275
-13.7165 -16.5976 -1.61741 499.596 489.128
-11.4531 -17.6502 -3.00874 510.838 483.734
-8.95672 -17.9285 -4.34111 523.328 482.051
-6.44762 -17.6301 -5.50625 535.926 483.148
3.16854 -17.9147 -5.58176 582.487 479.987
5.37413 -18.6126 -4.28569 592.614 476.06
7.70929 -18.7809 -2.89991 603.434 474.672
10.0057 -18.3918 -1.41865 614.134 475.987
11.9425 -17.1878 0.259088 623.172 481.306
-0.4453 -12.1374 -5.01388 565.822 508.65
-0.232863 -9.66363 -7.67312 568.182 520.883
-0.0358675 -7.19802 -10.39 570.484 533.086
0.150438 -4.75422 -13.1072 572.732 545.185
-2.62902 -0.591215 -5.89942 557.602 565.199
-1.00453 -0.470528 -6.95093 565.845 565.587
0.640799 -0.474389 -8.01349 574.17 565.367
2.11974 -0.675102 -6.86136 580.914 564.004
3.55213 -1.02475 -5.97253 587.494 561.952
-11.1879 -10.0591 -1.19265 512.873 520.359
-9.84336 -11.1874 -1.22298 519.195 514.634
-8.02749 -11.4948 -1.19507 527.928 512.802
-6.37765 -10.8973 -0.892732 535.926 515.365
-7.8409 -9.9324 -1.08837 529.075 520.341
-9.55732 -9.67797 -1.06507 520.798 521.893
4.48846 -11.5051 -0.686381 588.391 510.374
5.95665 -12.2924 -1.15243 595.519 506.325
7.74424 -12.3419 -1.16165 604.173 505.754
9.22103 -11.4577 -1.05902 611.451 509.761
7.73384 -10.7765 -0.911407 604.319 513.33
6.03398 -10.8024 -0.853507 596.06 513.515
-6.07611 9.21681 -2.70654 541.588 613.14
-4.05673 7.53832 -4.83899 551.784 604.827
-1.75413 6.12832 -6.58214 563.269 597.726
0.921827 6.1769 -8.11404 576.754 597.616
3.4968 5.81359 -6.35809 588.577 595.199
5.83907 6.9079 -4.61454 599.537 599.904
7.84683 8.36865 -2.47248 608.809 606.41
6.27367 10.385 -4.08573 602.088 616.652
3.98833 11.7218 -5.33147 591.671 623.69
1.21213 12.2297 -6.85653 578.822 626.823
-1.5916 12.0012 -5.4793 564.738 626.098
-4.07345 10.9815 -4.08104 552.065 621.471
-1.88121 8.18017 -4.97826 562.484 607.552
1.03867 7.95663 -7.06042 577.286 606.13
3.85292 7.86607 -4.74349 590.13 604.938
4.04015 9.19148 -4.35902 591.145 611.3
1.16091 9.8025 -6.1684 577.91 614.98
-1.85221 9.54452 -4.49418 562.707 614.122
3 20 21 23
3 21 22 23
3 0 1 36
3 15 16 45
3 0 17 36
3 16 26 45
3 17 18 37
3 25 26 44
3 17 36 37
3 26 44 45
3 18 19 38
3 24 25 43
3 18 37 38
3 25 43 44
3 19 20 38
3 23 24 43
3 20 21 39
3 22 23 42
3 20 38 39
3 23 42 43
3 21 22 27
3 21 27 39
3 22 27 42
3 27 28 42
3 27 28 39
3 28 42 47
3 28 39 40
3 1 36 41
3 15 45 46
3 1 2 41
3 14 15 46
3 28 29 40
3 28 29 47
3 2 40 41
3 14 46 47
3 2 29 40
3 14 29 47
3 2 3 29
3 13 14 29
3 29 30 31
3 29 30 35
3 3 29 31
3 13 29 35
3 30 32 33
3 30 33 34
3 30 31 32
3 30 34 35
3 3 4 31
3 12 13 35
3 4 5 48
3 11 12 54
3 5 6 48
3 10 11 54
3 6 48 59
3 10 54 55
3 6 7 59
3 9 10 55
3 7 58 59
3 9 55 56
3 8 57 58
3 8 56 57
3 7 8 58
3 8 9 56
3 4 31 48
3 12 35 54
3 31 48 49
3 35 53 54
3 31 49 50
3 35 52 53
3 31 32 50
3 34 35 52
3 32 33 50
3 33 34 52
3 33 50 51
3 33 51 52
3 48 49 60
3 49 60 50
3 50 60 61
3 50 51 61
3 51 52 61
3 61 62 52
3 52 53 62
3 53 54 62
3 54 55 63
3 55 56 63
3 56 63 64
3 56 57 64
3 64 65 57
3 57 58 65
3 58 59 65
3 48 59 65
