ply
format ascii 1.0
element vertex 66
property float x
property float y
property float z
property float u
property float v
element face 91
property list uchar int vertex_indices
end_header
-18.9375 -6.58496 21.2801 470.527 535.006
-18.4351 -1.15268 20.8445 473.814 561.347
-17.7586 4.26613 20.369 477.953 587.606
-16.8447 9.5969 18.3184 483.642 613.693
-15.3782 14.6558 13.8007 492.615 638.835
-12.6337 18.9201 7.96152 508.017 660.181
-8.75124 22.1757 3.09798 528.54 676.292
-4.21203 24.4985 -0.904775 551.892 687.626
0.872912 25.1316 -4.84282 577.642 690.677
6.27241 24.1076 -0.763325 602.595 684.174
10.8237 21.0879 3.21471 623.194 668.138
14.4598 17.0675 8.00815 639.01 647.234
16.9012 12.2752 13.797 648.673 622.58
18.0326 7.02507 18.2179 652.285 596.149
18.3732 1.70233 20.3263 652.66 569.907
18.2482 -3.64917 20.7553 651.214 543.903
17.7871 -8.99832 21.0195 648.184 517.99
-15.508 -14.923 0.110831 491.539 497.979
-13.8091 -16.7866 -1.56618 499.955 489.005
-11.4882 -17.8305 -2.96351 511.422 483.862
-8.95611 -18.105 -4.2836 523.996 482.405
-6.42333 -17.7991 -5.45338 536.614 483.733
3.32468 -18.1252 -5.55875 583.822 480.748
5.52063 -18.7885 -4.26212 594.032 476.972
7.84525 -18.9292 -2.89321 604.917 475.699
10.1415 -18.54 -1.40283 615.705 476.976
12.1321 -17.3637 0.255938 625.075 482.083
-0.338646 -12.0569 -4.97063 566.747 510.593
-0.0860924 -9.51036 -7.64544 569.016 523.393
0.146878 -6.97839 -10.4199 571.214 536.145
0.36031 -4.46308 -13.1934 573.314 548.818
-2.45755 -0.245952 -5.96509 558.348 568.343
-0.851925 -0.126557 -7.00215 566.414 568.878
0.775989 -0.133813 -8.03067 574.568 568.795
2.21218 -0.311206 -6.8902 581.204 567.515
3.60579 -0.636816 -5.96129 587.668 565.562
-11.273 -10.078 -1.04624 513.018 521.061
-9.96996 -11.1778 -1.15626 519.21 515.559
-8.22296 -11.4441 -1.21803 527.653 514.024
-6.66301 -10.7811 -0.977941 535.238 516.967
-8.06661 -9.84684 -1.12059 528.602 521.727
-9.71974 -9.63342 -1.04795 520.604 522.99
4.78019 -11.3802 -0.735101 590.531 512.346
6.15925 -12.2199 -1.15295 597.207 508.151
7.8776 -12.2942 -1.13255 605.516 507.536
9.29816 -11.4155 -1.0127 612.486 511.566
7.89217 -10.6959 -0.945823 605.755 515.248
6.2631 -10.6961 -0.908076 597.853 515.478
-6.52112 9.20362 -2.77797 539.114 614.16
-4.2207 7.68875 -4.8763 550.601 606.867
-1.80472 6.39403 -6.60372 562.581 600.555
0.881064 6.45968 -8.15017 576.005 600.766
3.45119 6.12409 -6.4163 587.958 598.444
5.85908 7.14571 -4.67176 599.306 602.724
8.07438 8.45162 -2.53042 609.657 608.338
6.32489 10.4019 -4.08425 601.853 618.334
3.87491 11.6067 -5.29486 590.464 624.755
1.04764 12.0083 -6.76851 577.206 627.386
-1.79677 11.831 -5.44381 563.056 626.698
-4.38917 10.8994 -4.10407 550.02 622.314
-1.9102 8.46589 -5.07947 561.953 610.334
0.966337 8.30318 -7.17368 576.414 609.511
3.70654 8.22225 -4.79772 589.058 608.281
3.85418 9.10136 -4.38608 589.785 612.445
1.02179 9.50213 -6.23447 576.601 615.142
-1.93627 9.38226 -4.55675 561.815 614.684
3 20 21 23
3 21 22 23
3 0 1 36
3 15 16 45
3 0 17 36
3 16 26 45
3 17 18 37
3 25 26 44
3 17 36 37
3 26 44 45
3 18 19 38
3 24 25 43
3 18 37 38
3 25 43 44
3 19 20 38
3 23 24 43
3 20 21 39
3 22 23 42
3 20 38 39
3 23 42 43
3 21 22 27
3 21 27 39
3 22 27 42
3 27 28 42
3 27 28 39
3 28 42 47
3 28 39 40
3 1 36 41
3 15 45 46
3 1 2 41
3 14 15 46
3 28 29 40
3 28 29 47
3 2 40 41
3 14 46 47
3 2 29 40
3 14 29 47
3 2 3 29
3 13 14 29
3 29 30 31
3 29 30 35
3 3 29 31
3 13 29 35
3 30 32 33
3 30 33 34
3 30 31 32
3 30 34 35
3 3 4 31
3 12 13 35
3 4 5 48
3 11 12 54
3 5 6 48
3 10 11 54
3 6 48 59
3 10 54 55
3 6 7 59
3 9 10 55
3 7 58 59
3 9 55 56
3 8 57 58
3 8 56 57
3 7 8 58
3 8 9 56
3 4 31 48
3 12 35 54
3 31 48 49
3 35 53 54
3 31 49 50
3 35 52 53
3 31 32 50
3 34 35 52
3 32 33 50
3 33 34 52
3 33 50 51
3 33 51 52
3 48 49 60
3 49 60 50
3 50 60 61
3 50 51 61
3 51 52 61
3 61 62 52
3 52 53 62
3 53 54 62
3 54 55 63
3 55 56 63
3 56 63 64
3 56 57 64
3 64 65 57
3 57 58 65
3 58 59 65
3 48 59 65
