ply
format ascii 1.0
element vertex 66
property float x
property float y
property float z
property float u
property float v
element face 91
property list uchar int vertex_indices
end_header
-18.9706 -6.15956 21.036 453.465 550.653
-18.3601 -0.887906 20.6608 460.811 576.046
-17.4918 4.33625 20.1703 469.381 601.022
-16.452 9.51289 18.1461 478.742 626.007
-14.8596 14.5531 13.6372 490.682 650.486
-12.0393 19.0076 7.96208 508.149 671.377
-8.17964 22.6366 3.18831 530.032 687.144
-3.55331 25.1998 -0.958333 554.796 696.906
1.69874 25.7946 -4.59969 581.003 696.391
6.90567 24.7231 -0.846995 605.66 685.915
11.2676 21.7266 3.34143 624.587 666.606
14.6529 17.641 8.11969 637.832 642.624
16.8035 12.8021 13.8272 644.41 615.743
17.5486 7.45731 18.4432 643.674 587.817
17.757 1.99378 20.4404 640.193 560.405
17.843 -3.49545 20.9732 636.081 533.334
17.6794 -8.98662 21.3303 630.744 506.502
-15.0947 -15.1794 0.0544719 464.868 508.534
-13.2053 -16.34 -1.59931 473.158 501.707
-11.0831 -16.9218 -3.04563 483.068 497.468
-8.88672 -17.1635 -4.40989 493.623 494.813
-6.68583 -17.0301 -5.61367 504.512 493.95
3.68662 -17.696 -5.55785 554.795 482.118
6.0043 -18.1809 -4.34151 565.76 477.529
8.36256 -18.2474 -2.98831 577.272 474.921
10.6769 -17.8636 -1.54585 588.94 474.53
12.7716 -16.8181 0.17877 600.081 477.49
-0.97688 -12.363 -4.93659 536.352 511.914
-0.676262 -9.39168 -7.66234 540.263 526.889
-0.38116 -6.44276 -10.5185 544.128 541.791
-0.0868038 -3.50711 -13.2809 547.979 556.605
-3.038 0.541907 -6.19867 536.908 577.094
-1.43988 0.807988 -7.13074 544.954 577.31
0.208224 0.876047 -8.0239 553.081 576.506
1.82113 0.547384 -7.08872 560.72 573.334
3.34894 0.0218651 -6.21156 567.779 569.282
-11.4007 -10.724 -0.930955 486.648 527.539
-10.143 -11.8032 -1.13656 491.918 521.27
-8.48382 -12.0096 -1.23389 499.878 518.915
-7.02755 -11.3347 -1.04786 507.574 520.971
-8.38979 -10.607 -1.04031 501.499 525.655
-9.94379 -10.3914 -0.979299 494.062 527.977
4.9845 -12.1447 -0.891484 565.774 507.056
6.33791 -13.05 -1.20309 571.656 501.586
8.01425 -13.08 -1.10099 579.848 500.03
9.43709 -12.2363 -0.847193 587.52 502.923
8.03895 -11.69 -0.872055 581.119 506.757
6.45923 -11.6651 -0.894565 573.398 508.187
-6.95666 9.21733 -2.66929 524.897 621.912
-4.80632 7.34585 -4.84467 533.874 611.519
-2.25082 5.9911 -6.56615 545.267 603.208
0.62729 5.99193 -8.09432 559.363 601.219
3.46923 5.5791 -6.49859 572.96 596.455
6.19929 6.5436 -4.7487 587.148 598.488
8.61292 8.04632 -2.50699 600.233 603.293
6.52344 9.90556 -3.86364 591.52 614.455
3.86661 10.9978 -5.03427 579.395 622.285
0.988122 11.4092 -6.38735 565.619 627.011
-1.90242 11.4081 -5.11262 551.461 629.073
-4.64925 10.7226 -3.94909 537.44 627.694
-2.16195 8.18424 -5.03502 547.525 613.488
0.757724 7.98301 -7.21128 561.653 610.637
3.64974 7.75797 -5.0096 575.655 606.6
3.71569 8.46366 -4.46829 576.565 609.865
0.80192 8.80151 -6.29083 562.552 614.377
-2.1387 8.88223 -4.48157 548.22 616.748
3 20 21 23
3 21 22 23
3 0 1 36
3 15 16 45
3 0 17 36
3 16 26 45
3 17 18 37
3 25 26 44
3 17 36 37
3 26 44 45
3 18 19 38
3 24 25 43
3 18 37 38
3 25 43 44
3 19 20 38
3 23 24 43
3 20 21 39
3 22 23 42
3 20 38 39
3 23 42 43
3 21 22 27
3 21 27 39
3 22 27 42
3 27 28 42
3 27 28 39
3 28 42 47
3 28 39 40
3 1 36 41
3 15 45 46
3 1 2 41
3 14 15 46
3 28 29 40
3 28 29 47
3 2 40 41
3 14 46 47
3 2 29 40
3 14 29 47
3 2 3 29
3 13 14 29
3 29 30 31
3 29 30 35
3 3 29 31
3 13 29 35
3 30 32 33
3 30 33 34
3 30 31 32
3 30 34 35
3 3 4 31
3 12 13 35
3 4 5 48
3 11 12 54
3 5 6 48
3 10 11 54
3 6 48 59
3 10 54 55
3 6 7 59
3 9 10 55
3 7 58 59
3 9 55 56
3 8 57 58
3 8 56 57
3 7 8 58
3 8 9 56
3 4 31 48
3 12 35 54
3 31 48 49
3 35 53 54
3 31 49 50
3 35 52 53
3 31 32 50
3 34 35 52
3 32 33 50
3 33 34 52
3 33 50 51
3 33 51 52
3 48 49 60
3 49 60 50
3 50 60 61
3 50 51 61
3 51 52 61
3 61 62 52
3 52 53 62
3 53 54 62
3 54 55 63
3 55 56 63
3 56 63 64
3 56 57 64
3 64 65 57
3 57 58 65
3 58 59 65
3 48 59 65
