ply
format ascii 1.0
element vertex 66
property float x
property float y
property float z
property float u
property float v
element face 91
property list uchar int vertex_indices
end_header
-19.8278 -5.27573 20.5134 472.929 544.293
-19.43 -0.464601 20.0752 474.538 567.957
-18.5706 4.30157 19.9025 478.498 591.342
-17.1336 8.91002 17.8755 484.623 614.6
-14.9025 13.3756 13.3444 493.738 638.028
-11.8014 17.5448 7.91291 506.791 660.355
-7.88324 21.1075 3.23025 524.122 679.526
-3.20107 23.6897 -0.807401 545.448 693.742
2.1654 24.2419 -4.32889 570.373 697.917
7.1297 23.2573 -0.958365 595.844 692.305
11.4334 20.7738 3.16982 618.415 679.085
14.9973 17.3504 7.96125 637.646 661.013
17.3835 13.0391 13.5685 651.449 638.265
18.306 7.89894 18.6364 657.945 611.558
18.6482 2.28034 20.6376 660.535 583.483
18.7783 -3.47298 21.175 661.572 555.218
18.6644 -9.21058 21.8038 661.45 526.984
-14.7331 -14.9494 0.0850112 490.882 504.05
-12.8342 -16.342 -1.60065 499.603 497.916
-10.6091 -17.0552 -2.99666 509.995 495.024
-8.28188 -17.2885 -4.34445 520.885 494.468
-6.01898 -17.0242 -5.65196 531.457 496.324
3.53475 -18.6253 -5.13978 578.339 488.915
6.24283 -19.4625 -3.98536 592.002 484.612
9.03866 -19.656 -2.71461 606.11 483.42
11.7404 -18.9078 -1.41152 619.737 486.811
13.9793 -17.2274 0.369234 631.239 494.569
-1.58762 -11.3247 -4.95928 553.129 524.2
-1.20385 -8.41159 -7.65069 553.938 539.331
-0.795769 -5.51921 -10.448 554.828 554.398
-0.38375 -2.63634 -13.1031 555.788 569.372
-3.62211 1.07919 -6.34613 542.249 585.108
-2.07754 1.44473 -7.10315 549.506 587.235
-0.454469 1.50514 -7.80468 557.178 587.858
1.33242 1.08407 -7.15074 566.15 585.695
2.99537 0.389913 -6.4227 574.553 582.167
-11.5557 -9.77406 -1.02109 505.811 529.879
-10.2232 -10.7763 -1.14338 512.309 525.105
-8.52588 -10.9878 -1.18548 520.588 524.189
-7.02726 -10.542 -1.11253 527.914 526.433
-8.43021 -9.80101 -1.18245 521.013 529.99
-10.0285 -9.51787 -1.12447 513.22 531.257
5.04632 -11.9154 -0.67708 587.062 520.314
6.54117 -12.9 -0.991445 594.284 515.699
8.38513 -12.9743 -0.975423 603.294 515.443
10.0604 -12.3412 -0.850605 611.494 518.595
8.51263 -11.7354 -0.863642 603.911 521.464
6.76372 -11.5766 -0.869824 595.365 522.135
-5.43585 9.64829 -2.70421 534.377 625.654
-4.27787 7.21341 -4.82548 539.364 614.528
-2.3155 5.44716 -6.39967 548.448 606.537
0.234389 5.27176 -8.06678 560.31 606.38
2.8226 4.90538 -6.68295 573.451 604.294
5.18454 6.25124 -5.04708 585.515 610.474
6.991 8.21874 -2.67449 595.107 619.415
5.37497 10.1679 -3.95116 586.692 629.255
3.27876 11.56 -5.27283 575.936 636.359
0.733064 12.1653 -6.46018 563.064 639.55
-1.75487 12.1299 -5.0775 551.411 638.774
-3.87964 11.219 -3.88214 541.497 633.805
-1.84537 7.87262 -4.75509 551.24 617.872
0.346478 7.35434 -7.20813 561.086 616.277
2.59478 7.32837 -5.14888 572.797 615.611
2.59329 8.86814 -4.64015 572.914 622.964
0.399872 9.42797 -6.24413 561.614 626.091
-1.77564 9.37271 -4.29444 551.69 625.051
3 20 21 23
3 21 22 23
3 0 1 36
3 15 16 45
3 0 17 36
3 16 26 45
3 17 18 37
3 25 26 44
3 17 36 37
3 26 44 45
3 18 19 38
3 24 25 43
3 18 37 38
3 25 43 44
3 19 20 38
3 23 24 43
3 20 21 39
3 22 23 42
3 20 38 39
3 23 42 43
3 21 22 27
3 21 27 39
3 22 27 42
3 27 28 42
3 27 28 39
3 28 42 47
3 28 39 40
3 1 36 41
3 15 45 46
3 1 2 41
3 14 15 46
3 28 29 40
3 28 29 47
3 2 40 41
3 14 46 47
3 2 29 40
3 14 29 47
3 2 3 29
3 13 14 29
3 29 30 31
3 29 30 35
3 3 29 31
3 13 29 35
3 30 32 33
3 30 33 34
3 30 31 32
3 30 34 35
3 3 4 31
3 12 13 35
3 4 5 48
3 11 12 54
3 5 6 48
3 10 11 54
3 6 48 59
3 10 54 55
3 6 7 59
3 9 10 55
3 7 58 59
3 9 55 56
3 8 57 58
3 8 56 57
3 7 8 58
3 8 9 56
3 4 31 48
3 12 35 54
3 31 48 49
3 35 53 54
3 31 49 50
3 35 52 53
3 31 32 50
3 34 35 52
3 32 33 50
3 33 34 52
3 33 50 51
3 33 51 52
3 48 49 60
3 49 60 50
3 50 60 61
3 50 51 61
3 51 52 61
3 61 62 52
3 52 53 62
3 53 54 62
3 54 55 63
3 55 56 63
3 56 63 64
3 56 57 64
3 64 65 57
3 57 58 65
3 58 59 65
3 48 59 65
