ply
format ascii 1.0
element vertex 66
property float x
property float y
property float z
property float u
property float v
element face 91
property list uchar int vertex_indices
end_header
-20.1151 -7.48135 21.7352 475.393 528.601
-19.477 -1.6741 21.3843 477.197 555.447
-18.6682 4.099 20.7378 479.923 582.206
-17.6841 9.86634 18.5275 484.158 609.161
-16.1198 15.3516 13.6591 492.309 635.255
-12.9875 19.7464 7.90749 508.265 656.772
-8.68999 22.9008 3.20769 529.345 672.711
-3.81247 24.9211 -0.971955 553.089 683.5
1.419 25.3993 -4.87991 578.666 687.248
6.69808 24.0897 -0.773967 601.23 681.846
11.1785 20.9236 3.4174 620.512 667.742
14.7703 16.7529 8.03549 635.758 648.788
17.3457 11.8941 13.6377 646.064 626.346
18.6838 6.71188 18.1731 651.266 602.287
19.1445 1.69498 20.4253 653.452 579.074
19.115 -3.24766 20.8126 654.224 556.322
18.7318 -8.1994 20.9677 653.486 533.482
-16.7098 -14.2024 0.00846656 502.248 501.013
-14.6405 -16.0166 -1.68646 512.871 493.312
-11.9694 -16.9146 -3.08933 525.913 489.91
-9.11896 -17.0051 -4.40666 539.558 490.244
-6.25663 -16.5359 -5.50891 553.039 493.125
3.64154 -16.5094 -5.67042 598.356 495.327
5.89037 -17.1275 -4.40742 608.201 492.807
8.2419 -17.3436 -3.03405 618.378 492.141
10.585 -17.1672 -1.54155 628.376 493.262
12.674 -16.188 0.2239 636.915 497.986
-0.120478 -11.601 -4.96204 579.763 517.003
0.0162112 -8.93666 -7.76957 581.074 529.6
0.129208 -6.27976 -10.6356 582.304 542.166
0.234095 -3.64237 -13.405 583.457 554.628
-2.86656 -0.106726 -6.14591 565.229 569.362
-1.04664 0.177752 -7.13236 573.932 571.164
0.810657 0.28047 -8.15406 582.862 572.144
2.40456 0.00783444 -6.98051 589.678 571.084
3.92046 -0.469757 -6.04324 596.289 569.096
-12.0981 -10.0573 -1.03871 522.897 521.135
-10.5609 -11.1622 -1.25517 530.264 516.406
-8.62255 -11.4442 -1.30156 539.208 515.52
-6.85033 -10.6737 -0.912356 546.965 519.381
-8.51616 -9.90889 -0.99342 539.219 522.557
-10.3492 -9.72693 -1.00509 530.804 523.012
4.92421 -11.0339 -0.923151 600.876 520.18
6.48071 -11.8156 -1.2784 608.323 516.956
8.32084 -11.8662 -1.1947 616.709 517.096
9.85538 -10.9031 -0.888649 623.375 521.803
8.2585 -10.3618 -0.914608 615.968 523.96
6.51772 -10.4266 -0.899673 608.018 523.298
-7.64784 8.37924 -2.70951 539.961 606.934
-5.22191 6.48983 -4.91203 552.46 599.022
-2.35965 5.14364 -6.6279 566.615 593.638
0.819165 5.22791 -8.04649 581.769 594.855
3.8556 4.81299 -6.25209 594.93 593.369
6.68886 5.7856 -4.5663 606.908 598.227
9.02379 7.53178 -2.49814 616.266 606.488
7.01778 9.47614 -3.79463 607.255 615.154
4.25288 10.5468 -5.05237 594.95 619.644
1.23689 10.9059 -6.67043 581.814 620.857
-1.91969 10.8147 -5.32171 566.795 619.621
-4.97549 10.0415 -3.99292 552.394 615.277
-2.42077 7.33173 -5.3103 565.261 603.519
1.01803 7.29223 -7.14752 581.82 604.271
4.33066 7.01345 -4.83915 595.982 603.407
4.52596 7.89345 -4.29901 596.438 607.425
1.17689 8.28049 -6.35029 581.97 608.749
-2.30804 8.24418 -4.66558 565.285 607.657
3 20 21 23
3 21 22 23
3 0 1 36
3 15 16 45
3 0 17 36
3 16 26 45
3 17 18 37
3 25 26 44
3 17 36 37
3 26 44 45
3 18 19 38
3 24 25 43
3 18 37 38
3 25 43 44
3 19 20 38
3 23 24 43
3 20 21 39
3 22 23 42
3 20 38 39
3 23 42 43
3 21 22 27
3 21 27 39
3 22 27 42
3 27 28 42
3 27 28 39
3 28 42 47
3 28 39 40
3 1 36 41
3 15 45 46
3 1 2 41
3 14 15 46
3 28 29 40
3 28 29 47
3 2 40 41
3 14 46 47
3 2 29 40
3 14 29 47
3 2 3 29
3 13 14 29
3 29 30 31
3 29 30 35
3 3 29 31
3 13 29 35
3 30 32 33
3 30 33 34
3 30 31 32
3 30 34 35
3 3 4 31
3 12 13 35
3 4 5 48
3 11 12 54
3 5 6 48
3 10 11 54
3 6 48 59
3 10 54 55
3 6 7 59
3 9 10 55
3 7 58 59
3 9 55 56
3 8 57 58
3 8 56 57
3 7 8 58
3 8 9 56
3 4 31 48
3 12 35 54
3 31 48 49
3 35 53 54
3 31 49 50
3 35 52 53
3 31 32 50
3 34 35 52
3 32 33 50
3 33 34 52
3 33 50 51
3 33 51 52
3 48 49 60
3 49 60 50
3 50 60 61
3 50 51 61
3 51 52 61
3 61 62 52
3 52 53 62
3 53 54 62
3 54 55 63
3 55 56 63
3 56 63 64
3 56 57 64
3 64 65 57
3 57 58 65
3 58 59 65
3 48 59 65
