ply
format ascii 1.0
element vertex 66
property float x
property float y
property float z
property float u
property float v
element face 91
property list uchar int vertex_indices
end_header
-20.0869 -7.31566 21.6507 475.775 529.611
-19.4638 -1.56927 21.3099 477.486 556.124
-18.6557 4.14047 20.6806 480.181 582.532
-17.6528 9.84373 18.4979 484.472 609.077
-16.0525 15.2845 13.641 492.762 634.76
-12.9272 19.6962 7.90764 508.639 656.126
-8.66791 22.9278 3.21557 529.483 672.244
-3.8039 25.0276 -0.962707 553.107 683.261
1.44498 25.5412 -4.86072 578.715 687.066
6.74357 24.2502 -0.772424 601.327 681.971
11.2444 21.0995 3.41593 620.67 668.166
14.8386 16.9159 8.04182 635.909 649.393
17.3871 12.0281 13.6581 646.083 627.086
18.6651 6.78526 18.232 651.012 602.957
19.0973 1.67409 20.4453 653.125 579.437
19.0686 -3.36771 20.8563 653.936 556.278
18.6934 -8.41761 21.0282 653.277 533.026
-16.5312 -14.1397 0.0119055 503.354 500.814
-14.5266 -15.8892 -1.69796 513.67 493.363
-11.9486 -16.763 -3.10263 526.268 490.028
-9.19582 -16.8829 -4.42379 539.457 490.181
-6.42581 -16.4772 -5.52842 552.509 492.73
3.75803 -16.5469 -5.66762 599.061 494.633
6.00764 -17.1389 -4.41633 608.891 492.307
8.34672 -17.3356 -3.04306 618.986 491.803
10.67 -17.1323 -1.55718 628.868 493.121
12.7369 -16.1431 0.208073 637.277 497.965
-0.217813 -11.6968 -4.94901 579.505 515.953
-0.0592004 -9.01486 -7.76345 580.906 528.51
0.0782483 -6.33974 -10.6265 582.234 541.035
0.207958 -3.68275 -13.3803 583.482 553.467
-2.90171 -0.0500817 -6.1606 565.199 568.874
-1.09947 0.242845 -7.13406 573.8 570.686
0.743642 0.349634 -8.13434 582.641 571.656
2.35321 0.0605347 -6.99213 589.533 570.589
3.882 -0.433923 -6.06033 596.197 568.579
-12.0141 -10.0699 -1.0369 523.533 520.541
-10.5095 -11.1902 -1.26174 530.752 515.748
-8.59286 -11.4716 -1.31229 539.584 514.878
-6.84482 -10.7132 -0.929683 547.218 518.705
-8.47652 -9.92009 -0.998256 539.625 521.993
-10.2883 -9.72722 -1.00462 531.317 522.484
4.95373 -11.1354 -0.916473 601.148 519.329
6.5012 -11.9375 -1.28008 608.555 516.016
8.33688 -11.9761 -1.20079 616.905 516.231
9.86293 -11.0107 -0.901165 623.517 520.965
8.27812 -10.4554 -0.915218 616.166 523.168
6.5424 -10.5113 -0.900427 608.251 522.534
-7.58179 8.33387 -2.68614 540.387 606.027
-5.19343 6.45268 -4.88733 552.707 598.095
-2.36092 5.13453 -6.61386 566.712 592.803
0.77865 5.22597 -8.03569 581.664 594.017
3.78927 4.80038 -6.27978 594.701 592.579
6.61102 5.75201 -4.57297 606.59 597.419
8.94878 7.46629 -2.48075 615.925 605.621
6.9338 9.417 -3.78853 606.886 614.233
4.17791 10.4984 -5.06709 594.648 618.696
1.17299 10.8648 -6.67085 581.582 619.851
-1.95218 10.7772 -5.3116 566.723 618.663
-4.96767 10.0001 -3.96677 552.525 614.338
-2.3832 7.31479 -5.27335 565.514 602.689
0.96271 7.28856 -7.12841 581.631 603.443
4.19065 6.99457 -4.85594 595.395 602.614
4.37201 7.84371 -4.3112 595.785 606.504
1.10111 8.23106 -6.34494 581.695 607.732
-2.29428 8.19226 -4.63453 565.433 606.681
3 20 21 23
3 21 22 23
3 0 1 36
3 15 16 45
3 0 17 36
3 16 26 45
3 17 18 37
3 25 26 44
3 17 36 37
3 26 44 45
3 18 19 38
3 24 25 43
3 18 37 38
3 25 43 44
3 19 20 38
3 23 24 43
3 20 21 39
3 22 23 42
3 20 38 39
3 23 42 43
3 21 22 27
3 21 27 39
3 22 27 42
3 27 28 42
3 27 28 39
3 28 42 47
3 28 39 40
3 1 36 41
3 15 45 46
3 1 2 41
3 14 15 46
3 28 29 40
3 28 29 47
3 2 40 41
3 14 46 47
3 2 29 40
3 14 29 47
3 2 3 29
3 13 14 29
3 29 30 31
3 29 30 35
3 3 29 31
3 13 29 35
3 30 32 33
3 30 33 34
3 30 31 32
3 30 34 35
3 3 4 31
3 12 13 35
3 4 5 48
3 11 12 54
3 5 6 48
3 10 11 54
3 6 48 59
3 10 54 55
3 6 7 59
3 9 10 55
3 7 58 59
3 9 55 56
3 8 57 58
3 8 56 57
3 7 8 58
3 8 9 56
3 4 31 48
3 12 35 54
3 31 48 49
3 35 53 54
3 31 49 50
3 35 52 53
3 31 32 50
3 34 35 52
3 32 33 50
3 33 34 52
3 33 50 51
3 33 51 52
3 48 49 60
3 49 60 50
3 50 60 61
3 50 51 61
3 51 52 61
3 61 62 52
3 52 53 62
3 53 54 62
3 54 55 63
3 55 56 63
3 56 63 64
3 56 57 64
3 64 65 57
3 57 58 65
3 58 59 65
3 48 59 65
