ply
format ascii 1.0
element vertex 66
property float x
property float y
property float z
property float u
property float v
element face 91
property list uchar int vertex_indices
end_header
-19.9023 -5.33484 20.5589 472.409 543.472
-19.4769 -0.493567 20.1157 473.87 567.255
-18.6004 4.30315 19.9328 477.617 590.795
-17.1718 8.95561 17.939 483.49 614.243
-14.9539 13.4557 13.362 492.397 637.821
-11.8368 17.6327 7.93386 505.445 660.186
-7.90894 21.2065 3.28087 522.751 679.473
-3.21889 23.7848 -0.798015 544.053 693.822
2.14559 24.3306 -4.33471 569.013 698.179
7.11075 23.3342 -0.96003 594.39 692.883
11.401 20.8094 3.21391 616.881 679.818
14.9553 17.3507 7.97214 636.064 661.937
17.3709 13.0389 13.5718 650.049 639.51
18.3359 7.91506 18.6436 656.874 613.114
18.7041 2.32937 20.634 659.849 585.329
18.8567 -3.38029 21.1665 661.318 557.354
18.7614 -9.0771 21.7801 661.604 529.388
-14.8673 -14.8099 0.0704926 491.311 504.065
-12.9648 -16.2284 -1.64088 500.173 497.89
-10.7248 -16.9797 -3.03867 510.716 494.913
-8.36937 -17.2528 -4.37555 521.795 494.261
-6.06209 -17.0309 -5.65177 532.61 495.998
3.49181 -18.5486 -5.15339 579.481 489.568
6.20569 -19.3583 -4.01031 593.152 485.594
9.00093 -19.5358 -2.73982 607.2 484.671
11.7044 -18.8182 -1.42692 620.727 488.089
13.9678 -17.1926 0.357454 632.171 495.739
-1.55664 -11.5283 -4.93993 554.261 523.133
-1.18132 -8.53524 -7.65485 554.931 538.587
-0.781842 -5.56369 -10.474 555.686 553.97
-0.377086 -2.60146 -13.1343 556.519 569.261
-3.62269 1.14799 -6.34852 542.509 585.108
-2.05871 1.51699 -7.12154 549.848 587.323
-0.414659 1.57711 -7.84353 557.624 588.027
1.3859 1.15904 -7.15958 566.659 585.993
3.06011 0.461608 -6.41819 575.124 582.565
-11.4567 -9.86379 -1.02432 507.102 528.905
-10.1294 -10.8521 -1.15872 513.624 524.284
-8.44892 -11.0746 -1.18698 521.827 523.404
-6.93602 -10.6559 -1.10467 529.186 525.597
-8.33996 -9.95458 -1.15926 522.258 528.868
-9.92482 -9.66669 -1.11582 514.52 530.073
4.99521 -12.0006 -0.686612 587.602 520.313
6.50029 -12.9431 -0.988018 594.932 515.986
8.32078 -13.0049 -0.974009 603.815 515.893
9.97976 -12.3804 -0.82812 611.887 519.088
8.42498 -11.834 -0.846291 604.25 521.575
6.69534 -11.6897 -0.847023 595.806 522.076
-5.64986 9.56009 -2.69417 532.981 624.771
-4.32717 7.26981 -4.83058 538.966 614.408
-2.28401 5.62725 -6.41668 548.576 607.119
0.277179 5.50526 -8.04926 560.548 607.318
2.86658 5.09178 -6.66655 573.651 605.188
5.28023 6.30692 -5.02499 585.822 610.898
7.21233 8.12099 -2.66404 595.818 619.253
5.50922 10.0412 -3.94597 586.921 628.801
3.32045 11.3614 -5.24792 575.708 635.374
0.74916 11.9278 -6.43843 562.74 638.193
-1.76479 11.9273 -5.06803 550.926 637.482
-3.98462 11.0969 -3.87365 540.57 632.814
-1.82738 8.0655 -4.80752 551.08 618.572
0.398457 7.63289 -7.19266 561.206 617.444
2.66809 7.52436 -5.17716 572.924 616.572
2.64465 8.61346 -4.66092 572.869 621.722
0.416136 9.08979 -6.29852 561.437 624.278
-1.78731 9.1178 -4.33166 551.325 623.562
3 20 21 23
3 21 22 23
3 0 1 36
3 15 16 45
3 0 17 36
3 16 26 45
3 17 18 37
3 25 26 44
3 17 36 37
3 26 44 45
3 18 19 38
3 24 25 43
3 18 37 38
3 25 43 44
3 19 20 38
3 23 24 43
3 20 21 39
3 22 23 42
3 20 38 39
3 23 42 43
3 21 22 27
3 21 27 39
3 22 27 42
3 27 28 42
3 27 28 39
3 28 42 47
3 28 39 40
3 1 36 41
3 15 45 46
3 1 2 41
3 14 15 46
3 28 29 40
3 28 29 47
3 2 40 41
3 14 46 47
3 2 29 40
3 14 29 47
3 2 3 29
3 13 14 29
3 29 30 31
3 29 30 35
3 3 29 31
3 13 29 35
3 30 32 33
3 30 33 34
3 30 31 32
3 30 34 35
3 3 4 31
3 12 13 35
3 4 5 48
3 11 12 54
3 5 6 48
3 10 11 54
3 6 48 59
3 10 54 55
3 6 7 59
3 9 10 55
3 7 58 59
3 9 55 56
3 8 57 58
3 8 56 57
3 7 8 58
3 8 9 56
3 4 31 48
3 12 35 54
3 31 48 49
3 35 53 54
3 31 49 50
3 35 52 53
3 31 32 50
3 34 35 52
3 32 33 50
3 33 34 52
3 33 50 51
3 33 51 52
3 48 49 60
3 49 60 50
3 50 60 61
3 50 51 61
3 51 52 61
3 61 62 52
3 52 53 62
3 53 54 62
3 54 55 63
3 55 56 63
3 56 63 64
3 56 57 64
3 64 65 57
3 57 58 65
3 58 59 65
3 48 59 65
