ply
format ascii 1.0
element vertex 66
property float x
property float y
property float z
property float u
property float v
element face 91
property list uchar int vertex_indices
end_header
-20.053 -7.33774 21.7471 475.934 526.969
-19.4222 -1.49417 21.3984 477.891 554.061
-18.6344 4.31758 20.7307 480.714 581.092
-17.6945 10.1059 18.5339 484.912 608.317
-16.1718 15.5672 13.6265 493.034 634.623
-13.0463 19.9096 7.89112 509.085 656.197
-8.75099 23.0188 3.18299 530.283 672.103
-3.87418 25.0002 -1.00732 554.133 682.818
1.35825 25.4323 -4.89095 579.769 686.401
6.71505 24.1468 -0.727566 602.765 680.637
11.2429 20.9503 3.45194 622.306 665.926
14.8428 16.7231 8.07856 637.584 646.227
17.3855 11.814 13.6623 647.719 623.034
18.6669 6.60421 18.1849 652.586 598.432
19.0848 1.54935 20.3944 654.478 574.815
19.0176 -3.44415 20.7649 654.939 551.731
18.5873 -8.44192 20.9146 653.831 528.605
-16.5825 -14.187 0.0199144 502.676 499.928
-14.5633 -15.9413 -1.69299 513.022 492.498
-11.9753 -16.8052 -3.07993 525.669 489.209
-9.21971 -16.9097 -4.39013 538.909 489.433
-6.44187 -16.5032 -5.48501 552.062 491.976
3.88645 -16.4352 -5.71792 599.549 494.089
6.05062 -16.9638 -4.45101 609.024 491.793
8.30078 -17.1401 -3.07103 618.777 491.114
10.5456 -16.9831 -1.57929 628.395 491.95
12.5691 -16.0679 0.181743 636.737 496.192
-0.044384 -11.5806 -4.94685 580.266 515.647
0.0805928 -8.96842 -7.7688 581.59 528.213
0.178888 -6.36358 -10.6409 582.816 540.749
0.266488 -3.77438 -13.3877 583.94 553.189
-2.86244 -0.0523077 -6.18673 565.726 568.504
-1.02154 0.240902 -7.1416 574.538 570.341
0.860572 0.352033 -8.12741 583.587 571.351
2.46616 0.0835385 -6.97061 590.498 570.178
3.99175 -0.389224 -6.03765 597.178 568.091
-11.9649 -10.3243 -1.00582 523.596 518.695
-10.4532 -11.4811 -1.24327 530.854 513.666
-8.5176 -11.7309 -1.29894 539.808 512.854
-6.79501 -10.8216 -0.864083 547.352 517.258
-8.43585 -10.0291 -0.954312 539.714 520.646
-10.258 -9.87922 -0.973512 531.332 521.03
4.98095 -11.1404 -0.922432 601.479 517.803
6.47098 -12.022 -1.28708 608.642 514.06
8.29546 -12.0822 -1.20399 616.989 514.079
9.78671 -11.042 -0.903759 623.507 519.07
8.2477 -10.4216 -0.926605 616.338 521.671
6.53402 -10.4785 -0.910657 608.477 521.114
-7.66746 8.36309 -2.70289 540.575 605.829
-5.2302 6.4702 -4.93327 553.092 597.926
-2.37111 5.13224 -6.66428 567.222 592.56
0.787118 5.23211 -8.06463 582.312 593.811
3.80583 4.83625 -6.26545 595.449 592.176
6.6168 5.83542 -4.555 607.412 596.948
8.93152 7.61389 -2.46549 616.785 605.158
6.93252 9.53858 -3.74925 607.816 613.917
4.17027 10.5744 -5.02595 595.507 618.45
1.16693 10.8906 -6.67795 582.39 619.695
-1.97521 10.8063 -5.33396 567.396 618.529
-5.01905 10.0355 -3.98261 552.978 614.216
-2.40402 7.34141 -5.32649 566.072 602.491
0.973798 7.31597 -7.12677 582.368 603.274
4.22411 7.07187 -4.80325 596.31 602.282
4.40509 7.91081 -4.25234 596.742 606.079
1.12355 8.23643 -6.36042 582.547 607.402
-2.29646 8.21508 -4.67796 566.118 606.418
3 20 21 23
3 21 22 23
3 0 1 36
3 15 16 45
3 0 17 36
3 16 26 45
3 17 18 37
3 25 26 44
3 17 36 37
3 26 44 45
3 18 19 38
3 24 25 43
3 18 37 38
3 25 43 44
3 19 20 38
3 23 24 43
3 20 21 39
3 22 23 42
3 20 38 39
3 23 42 43
3 21 22 27
3 21 27 39
3 22 27 42
3 27 28 42
3 27 28 39
3 28 42 47
3 28 39 40
3 1 36 41
3 15 45 46
3 1 2 41
3 14 15 46
3 28 29 40
3 28 29 47
3 2 40 41
3 14 46 47
3 2 29 40
3 14 29 47
3 2 3 29
3 13 14 29
3 29 30 31
3 29 30 35
3 3 29 31
3 13 29 35
3 30 32 33
3 30 33 34
3 30 31 32
3 30 34 35
3 3 4 31
3 12 13 35
3 4 5 48
3 11 12 54
3 5 6 48
3 10 11 54
3 6 48 59
3 10 54 55
3 6 7 59
3 9 10 55
3 7 58 59
3 9 55 56
3 8 57 58
3 8 56 57
3 7 8 58
3 8 9 56
3 4 31 48
3 12 35 54
3 31 48 49
3 35 53 54
3 31 49 50
3 35 52 53
3 31 32 50
3 34 35 52
3 32 33 50
3 33 34 52
3 33 50 51
3 33 51 52
3 48 49 60
3 49 60 50
3 50 60 61
3 50 51 61
3 51 52 61
3 61 62 52
3 52 53 62
3 53 54 62
3 54 55 63
3 55 56 63
3 56 63 64
3 56 57 64
3 64 65 57
3 57 58 65
3 58 59 65
3 48 59 65
