ply
format ascii 1.0
element vertex 66
property float x
property float y
property float z
property float u
property float v
element face 91
property list uchar int vertex_indices
end_header
-19.2646 -5.62092 20.9379 449.142 560.316
-18.7135 -0.569754 20.6231 456.58 583.993
-17.8752 4.42439 20.1901 465.301 607.16
-16.7719 9.40629 18.0293 474.8 630.552
-14.9978 14.3679 13.5657 486.846 653.921
-12.0236 18.798 7.88318 503.768 673.988
-8.06144 22.3917 3.18152 524.862 688.82
-3.3647 24.9229 -0.956224 548.585 697.708
1.89687 25.5355 -4.61903 573.274 696.757
7.03251 24.456 -0.84091 597.765 685.549
11.4756 21.6467 3.34841 617.388 666.619
15.0035 17.7098 8.11075 631.71 643.002
17.1862 12.85 13.8934 639.001 615.946
17.8137 7.34292 18.6096 637.951 587.611
17.944 1.71684 20.6827 633.689 559.998
18.0147 -3.9029 21.2355 628.732 532.943
17.8795 -9.52396 21.6291 622.747 506.126
-15.0595 -15.1063 0.0995855 454.287 517.494
-13.1589 -16.3262 -1.57903 461.711 510.383
-10.9691 -16.904 -3.03609 471.197 505.992
-8.69931 -17.1114 -4.39267 481.452 503.262
-6.4488 -16.907 -5.61617 492.05 502.474
3.71248 -17.864 -5.51401 539.626 488.205
6.29203 -18.4794 -4.33717 551.658 482.449
8.91345 -18.5795 -3.00317 564.433 479.064
11.445 -17.9944 -1.57115 577.47 479.004
13.5827 -16.5981 0.198459 589.507 483.085
-1.21055 -11.972 -4.93779 522.009 520.828
-0.8854 -9.07974 -7.60219 525.632 535.144
-0.557415 -6.2119 -10.4619 529.191 549.402
-0.229142 -3.36549 -13.2943 532.738 563.548
-3.27504 0.527118 -6.16717 523.937 582.818
-1.70302 0.811473 -7.11282 531.452 582.972
-0.0837322 0.887044 -8.05054 538.993 582.081
1.57445 0.522137 -7.13109 546.802 578.477
3.15577 -0.0340784 -6.19368 554.064 574.028
-11.4674 -10.2001 -0.896784 475.905 537.796
-10.2543 -11.3459 -1.16732 480.507 531.257
-8.59393 -11.5457 -1.29665 488.199 528.763
-7.14296 -10.8925 -1.08311 495.813 530.434
-8.46427 -10.0718 -1.04879 490.314 535.597
-10.0099 -9.8281 -0.97942 483.196 538.209
5.25744 -11.8882 -0.922611 554.049 513.831
6.65292 -12.8479 -1.26142 559.683 508.028
8.37361 -12.8507 -1.14539 567.92 506.341
9.80377 -11.9536 -0.870575 575.688 509.176
8.37222 -11.3756 -0.902628 569.41 513.306
6.7621 -11.3368 -0.941779 561.756 515.036
-7.21608 9.17097 -2.70369 514.465 626.746
-5.06697 7.26867 -4.8212 522.292 616.278
-2.48779 5.91336 -6.49745 532.823 607.874
0.43256 5.92327 -7.97541 546.358 605.599
3.34654 5.45267 -6.57921 560.187 600.148
6.16607 6.40192 -4.83986 575.035 601.457
8.69995 7.85536 -2.57346 589.154 605.28
6.41368 9.63493 -3.87659 579.614 616.351
3.64981 10.6346 -5.11586 567.058 624.135
0.767025 11.0607 -6.40009 553.365 629.309
-2.09806 11.1081 -5.10911 540.098 631.863
-4.88078 10.5615 -3.94995 526.611 631.545
-2.32961 8.10517 -5.01238 536.109 617.724
0.540643 7.94381 -7.24546 549.032 614.912
3.40614 7.62833 -5.14766 562.973 610.031
3.41936 8.17707 -4.56508 563.728 612.457
0.532441 8.49645 -6.39989 549.761 617.296
-2.34913 8.63404 -4.47234 536.677 620.099
3 20 21 23
3 21 22 23
3 0 1 36
3 15 16 45
3 0 17 36
3 16 26 45
3 17 18 37
3 25 26 44
3 17 36 37
3 26 44 45
3 18 19 38
3 24 25 43
3 18 37 38
3 25 43 44
3 19 20 38
3 23 24 43
3 20 21 39
3 22 23 42
3 20 38 39
3 23 42 43
3 21 22 27
3 21 27 39
3 22 27 42
3 27 28 42
3 27 28 39
3 28 42 47
3 28 39 40
3 1 36 41
3 15 45 46
3 1 2 41
3 14 15 46
3 28 29 40
3 28 29 47
3 2 40 41
3 14 46 47
3 2 29 40
3 14 29 47
3 2 3 29
3 13 14 29
3 29 30 31
3 29 30 35
3 3 29 31
3 13 29 35
3 30 32 33
3 30 33 34
3 30 31 32
3 30 34 35
3 3 4 31
3 12 13 35
3 4 5 48
3 11 12 54
3 5 6 48
3 10 11 54
3 6 48 59
3 10 54 55
3 6 7 59
3 9 10 55
3 7 58 59
3 9 55 56
3 8 57 58
3 8 56 57
3 7 8 58
3 8 9 56
3 4 31 48
3 12 35 54
3 31 48 49
3 35 53 54
3 31 49 50
3 35 52 53
3 31 32 50
3 34 35 52
3 32 33 50
3 33 34 52
3 33 50 51
3 33 51 52
3 48 49 60
3 49 60 50
3 50 60 61
3 50 51 61
3 51 52 61
3 61 62 52
3 52 53 62
3 53 54 62
3 54 55 63
3 55 56 63
3 56 63 64
3 56 57 64
3 64 65 57
3 57 58 65
3 58 59 65
3 48 59 65
