ply
format ascii 1.0
element vertex 66
property float x
property float y
property float z
property float u
property float v
element face 91
property list uchar int vertex_indices
end_header
-20.1337 -7.40476 21.7019 475.907 528.489
-19.5157 -1.60752 21.3658 477.593 555.277
-18.7253 4.15596 20.7095 480.217 581.978
-17.7498 9.918 18.5081 484.379 608.865
-16.1734 15.3974 13.6265 492.551 634.849
-13.014 19.775 7.89231 508.585 656.196
-8.70229 22.9181 3.20226 529.693 672.017
-3.81701 24.9317 -0.968253 553.442 682.721
1.41693 25.4002 -4.8548 579.002 686.378
6.70535 24.0853 -0.765875 601.638 681.064
11.1975 20.9139 3.41092 621.008 667.047
14.8117 16.7448 8.02763 636.39 648.216
17.408 11.8806 13.6234 646.835 625.879
18.7426 6.67939 18.158 652.063 601.83
19.1905 1.64477 20.4035 654.226 578.583
19.139 -3.31009 20.804 654.913 555.778
18.7292 -8.2745 20.9494 654.08 532.879
-16.5596 -14.1971 0.029196 503.455 500.211
-14.5784 -15.9247 -1.69372 513.666 492.872
-12.0268 -16.7914 -3.09606 526.15 489.577
-9.29866 -16.9056 -4.40412 539.231 489.765
-6.54352 -16.5125 -5.49057 552.224 492.267
3.97049 -16.5485 -5.65262 600.364 494.366
6.10419 -17.094 -4.40112 609.678 492.193
8.32245 -17.2898 -3.02903 619.247 491.632
10.5361 -17.1633 -1.53146 628.668 492.537
12.5404 -16.3026 0.235296 636.847 496.743
-0.0981771 -11.5229 -4.96432 580.34 516.506
0.0324755 -8.90563 -7.77553 581.613 528.832
0.140672 -6.29482 -10.6431 582.81 541.129
0.239807 -3.70287 -13.3989 583.92 553.326
-2.90787 -0.0299005 -6.18525 565.486 568.805
-1.06761 0.253479 -7.14392 574.264 570.595
0.809953 0.363329 -8.14071 583.268 571.599
2.42681 0.0835282 -6.98712 590.205 570.546
3.9694 -0.392009 -6.0617 596.948 568.6
-11.9087 -10.1559 -1.03234 524.29 519.869
-10.4285 -11.3198 -1.26818 531.421 514.864
-8.51012 -11.5794 -1.31945 540.27 514.087
-6.79714 -10.6982 -0.870162 547.703 518.455
-8.40928 -9.87195 -0.967355 540.194 521.914
-10.2123 -9.70954 -0.995533 531.929 522.278
4.96195 -11.083 -0.88215 601.545 519.203
6.4449 -11.9718 -1.28076 608.7 515.478
8.265 -12.0418 -1.19662 616.997 515.538
9.75246 -11.0113 -0.887362 623.429 520.557
8.22324 -10.3604 -0.908088 616.303 523.222
6.51381 -10.4049 -0.880721 608.487 522.649
-7.731 8.37399 -2.68329 540.003 606.019
-5.27611 6.50819 -4.91657 552.639 598.197
-2.39649 5.17813 -6.64923 566.873 592.876
0.792784 5.27868 -8.05165 582.056 594.159
3.83905 4.85165 -6.279 595.282 592.674
6.68176 5.81745 -4.5708 607.297 597.547
9.03533 7.54256 -2.47225 616.732 605.764
6.99431 9.45809 -3.77708 607.561 614.254
4.20467 10.4961 -5.04403 595.145 618.55
1.18313 10.8409 -6.65107 581.976 619.647
-1.97311 10.7579 -5.31127 566.968 618.458
-5.04387 10.0131 -3.96952 552.497 614.248
-2.43311 7.33539 -5.3155 565.629 602.643
0.981993 7.31559 -7.13279 582.057 603.462
4.26687 7.02818 -4.84054 596.11 602.617
4.45439 7.90949 -4.2901 596.525 606.65
1.13297 8.2816 -6.35503 582.184 607.854
-2.32575 8.25024 -4.66115 565.623 606.802
3 20 21 23
3 21 22 23
3 0 1 36
3 15 16 45
3 0 17 36
3 16 26 45
3 17 18 37
3 25 26 44
3 17 36 37
3 26 44 45
3 18 19 38
3 24 25 43
3 18 37 38
3 25 43 44
3 19 20 38
3 23 24 43
3 20 21 39
3 22 23 42
3 20 38 39
3 23 42 43
3 21 22 27
3 21 27 39
3 22 27 42
3 27 28 42
3 27 28 39
3 28 42 47
3 28 39 40
3 1 36 41
3 15 45 46
3 1 2 41
3 14 15 46
3 28 29 40
3 28 29 47
3 2 40 41
3 14 46 47
3 2 29 40
3 14 29 47
3 2 3 29
3 13 14 29
3 29 30 31
3 29 30 35
3 3 29 31
3 13 29 35
3 30 32 33
3 30 33 34
3 30 31 32
3 30 34 35
3 3 4 31
3 12 13 35
3 4 5 48
3 11 12 54
3 5 6 48
3 10 11 54
3 6 48 59
3 10 54 55
3 6 7 59
3 9 10 55
3 7 58 59
3 9 55 56
3 8 57 58
3 8 56 57
3 7 8 58
3 8 9 56
3 4 31 48
3 12 35 54
3 31 48 49
3 35 53 54
3 31 49 50
3 35 52 53
3 31 32 50
3 34 35 52
3 32 33 50
3 33 34 52
3 33 50 51
3 33 51 52
3 48 49 60
3 49 60 50
3 50 60 61
3 50 51 61
3 51 52 61
3 61 62 52
3 52 53 62
3 53 54 62
3 54 55 63
3 55 56 63
3 56 63 64
3 56 57 64
3 64 65 57
3 57 58 65
3 58 59 65
3 48 59 65
