ply
format ascii 1.0
element vertex 66
property float x
property float y
property float z
property float u
property float v
element face 91
property list uchar int vertex_indices
end_header
-18.7081 -6.82865 21.0644 468.579 534.681
-18.2488 -1.36446 20.5875 472.341 561.267
-17.5606 4.08083 20.1009 477.216 587.704
-16.522 9.41631 18.2973 484.225 613.714
-14.9587 14.4441 13.737 494.668 638.51
-12.324 18.8242 8.0077 510.567 660.048
-8.62935 22.3392 3.0723 531.132 676.971
-4.2062 24.9376 -0.869551 554.666 689.086
0.897727 25.6902 -4.73954 581.028 692.015
6.23114 24.5337 -0.775678 605.308 684.382
10.5038 21.2392 3.21383 623.887 666.6
13.8742 17.0692 8.04357 637.566 644.658
16.2839 12.3331 13.6788 646.15 620.085
17.675 7.23072 18.1881 650.079 594.163
18.2467 1.97553 20.1285 650.876 568.103
18.2232 -3.33611 20.597 649.275 542.148
17.8343 -8.6495 20.8164 645.982 516.317
-15.112 -15.0053 0.0884654 491.321 497.094
-13.503 -16.7602 -1.57508 499.289 488.375
-11.3061 -17.7466 -2.95967 510.212 483.205
-8.90555 -18.0119 -4.31896 522.296 481.494
-6.50584 -17.7214 -5.51544 534.458 482.467
2.99913 -17.959 -5.54892 580.65 478.837
5.2216 -18.6371 -4.24825 590.841 474.754
7.57607 -18.7808 -2.86191 601.778 473.227
9.89108 -18.3318 -1.41593 612.649 474.591
11.8403 -17.0611 0.257055 621.867 480.021
-0.611813 -12.4885 -5.03146 564.268 506.363
-0.396357 -9.87247 -7.69512 566.893 519.465
-0.195234 -7.26432 -10.378 569.454 532.535
0.00350266 -4.67117 -13.0202 571.985 545.526
-2.58786 -0.513191 -5.92554 557.951 565.385
-1.03714 -0.394824 -6.94462 565.878 565.713
0.542248 -0.416854 -7.93039 573.898 565.344
1.99301 -0.606573 -6.84058 580.53 563.875
3.37407 -0.964994 -6.03981 586.881 561.646
-11.1241 -10.4299 -1.27191 512.335 518.563
-9.73061 -11.5559 -1.16815 518.797 512.696
-7.86902 -11.841 -1.06776 527.747 510.805
-6.2212 -11.1867 -0.792836 535.831 513.523
-7.73069 -10.2455 -1.08663 528.825 518.549
-9.48139 -10.0023 -1.09912 520.373 520.193
4.15731 -11.7434 -0.597725 586.114 508.074
5.62161 -12.5823 -1.06509 593.191 503.675
7.45023 -12.642 -1.11131 602.088 502.914
8.98206 -11.7788 -1.08749 609.747 506.719
7.48322 -11.0607 -0.914914 602.574 510.583
5.74715 -11.0757 -0.830173 594.095 510.95
-5.20037 9.52391 -2.70181 546.624 614.496
-3.5249 7.76028 -4.84777 555.08 605.79
-1.49757 6.2235 -6.60526 565.17 598.04
0.976732 6.20085 -8.24633 577.772 597.535
3.38972 5.90802 -6.33111 588.772 595.186
5.52176 7.12338 -4.59187 598.843 600.289
7.26794 8.66776 -2.44872 606.978 607.034
6.01175 10.7334 -4.09552 601.954 617.681
4.03612 12.2516 -5.33837 593.153 625.786
1.38031 12.8358 -6.8771 580.913 629.561
-1.2999 12.5558 -5.52821 567.336 628.688
-3.5046 11.3579 -4.1254 555.825 623.21
-1.4853 8.20235 -4.90085 565.131 607.422
1.10707 7.80937 -7.04729 578.39 605.158
3.65638 7.88728 -4.68719 589.992 604.513
3.88798 9.76313 -4.308 591.454 613.538
1.30352 10.5018 -6.03436 579.665 618.076
-1.39859 10.1112 -4.43572 565.867 616.632
3 20 21 23
3 21 22 23
3 0 1 36
3 15 16 45
3 0 17 36
3 16 26 45
3 17 18 37
3 25 26 44
3 17 36 37
3 26 44 45
3 18 19 38
3 24 25 43
3 18 37 38
3 25 43 44
3 19 20 38
3 23 24 43
3 20 21 39
3 22 23 42
3 20 38 39
3 23 42 43
3 21 22 27
3 21 27 39
3 22 27 42
3 27 28 42
3 27 28 39
3 28 42 47
3 28 39 40
3 1 36 41
3 15 45 46
3 1 2 41
3 14 15 46
3 28 29 40
3 28 29 47
3 2 40 41
3 14 46 47
3 2 29 40
3 14 29 47
3 2 3 29
3 13 14 29
3 29 30 31
3 29 30 35
3 3 29 31
3 13 29 35
3 30 32 33
3 30 33 34
3 30 31 32
3 30 34 35
3 3 4 31
3 12 13 35
3 4 5 48
3 11 12 54
3 5 6 48
3 10 11 54
3 6 48 59
3 10 54 55
3 6 7 59
3 9 10 55
3 7 58 59
3 9 55 56
3 8 57 58
3 8 56 57
3 7 8 58
3 8 9 56
3 4 31 48
3 12 35 54
3 31 48 49
3 35 53 54
3 31 49 50
3 35 52 53
3 31 32 50
3 34 35 52
3 32 33 50
3 33 34 52
3 33 50 51
3 33 51 52
3 48 49 60
3 49 60 50
3 50 60 61
3 50 51 61
3 51 52 61
3 61 62 52
3 52 53 62
3 53 54 62
3 54 55 63
3 55 56 63
3 56 63 64
3 56 57 64
3 64 65 57
3 57 58 65
3 58 59 65
3 48 59 65
