ply
format ascii 1.0
element vertex 66
property float x
property float y
property float z
property float u
property float v
element face 91
property list uchar int vertex_indices
end_header
-18.8071 -6.82226 21.1809 469.818 534.073
-18.3476 -1.36613 20.7338 473.121 560.526
-17.6859 4.0735 20.2711 477.406 586.865
-16.7259 9.4378 18.3434 483.633 613.085
-15.246 14.5542 13.7593 493.259 638.554
-12.5799 18.9516 7.9663 508.926 660.567
-8.79056 22.3808 3.11355 529.537 677.488
-4.2986 24.8505 -0.857181 553.077 689.446
0.78363 25.5907 -4.83823 579.185 692.915
6.17522 24.4953 -0.744445 603.664 685.769
10.6239 21.3209 3.24693 623.263 668.741
14.1541 17.1739 7.99782 637.988 647.013
16.6063 12.3461 13.7087 647.046 621.985
17.8986 7.11482 18.2128 650.844 595.464
18.3811 1.81069 20.2596 651.566 569.245
18.3066 -3.51513 20.6924 650.153 543.356
17.8678 -8.84273 20.8896 647.058 517.574
-15.4225 -14.8636 0.0986092 492.185 498.81
-13.8545 -16.7438 -1.60658 500.049 489.759
-11.6239 -17.8122 -2.98737 511.144 484.453
-9.1604 -18.0961 -4.32248 523.483 482.897
-6.68622 -17.8069 -5.49175 535.912 484.083
3.18395 -18.0317 -5.57291 583.668 481.189
5.41849 -18.7182 -4.27749 593.913 477.183
7.782 -18.8639 -2.90216 604.847 475.758
10.1002 -18.4085 -1.44098 615.633 477.237
12.0334 -17.113 0.251576 624.618 482.811
-0.472597 -12.2252 -5.00461 566.758 509.89
-0.247325 -9.71917 -7.68265 569.206 522.546
-0.0396116 -7.21925 -10.3828 571.576 535.18
0.159003 -4.73607 -13.0438 573.886 547.727
-2.44489 -0.532504 -5.8502 559.489 567.102
-0.893677 -0.454466 -6.93583 567.387 567.417
0.673312 -0.482644 -8.01383 575.341 567.213
2.08222 -0.65112 -6.82452 581.716 565.892
3.44413 -0.955733 -5.93544 587.946 563.982
-11.2085 -10.1464 -1.23692 513.842 521.172
-9.89235 -11.2457 -1.19638 520.011 515.592
-8.11529 -11.5563 -1.10933 528.528 513.741
-6.50357 -10.9859 -0.859005 536.337 516.157
-7.92778 -9.99762 -1.11069 529.7 521.262
-9.6144 -9.74859 -1.08359 521.57 522.774
4.51196 -11.5577 -0.6388 589.471 511.308
5.947 -12.3049 -1.0908 596.446 507.514
7.69335 -12.3348 -1.15636 604.915 507.061
9.13698 -11.4819 -1.1062 612.028 510.918
7.68782 -10.7979 -0.927166 605.069 514.464
6.01973 -10.8305 -0.85972 596.967 514.6
-5.40739 9.52328 -2.7775 545.785 615.756
-3.58011 7.80754 -4.90902 555.08 607.541
-1.4971 6.29982 -6.63326 565.506 600.204
0.990474 6.35145 -8.18509 578.094 600.315
3.3915 6.01866 -6.37222 589.025 597.886
5.53889 7.2398 -4.65696 599.025 603.055
7.37201 8.75634 -2.51607 607.407 609.627
5.92262 10.5754 -4.08603 601.248 619.034
3.8245 11.7732 -5.33367 591.733 625.484
1.26458 12.216 -6.89812 579.965 628.424
-1.30145 12.0124 -5.51838 567.032 627.627
-3.56492 11.1054 -4.09754 555.429 623.356
-1.35123 8.44264 -4.9733 565.996 610.222
1.11198 8.1955 -6.99237 578.578 608.985
3.48951 8.19748 -4.72395 589.293 608.089
3.613 9.19619 -4.35792 589.933 612.832
1.20946 9.68474 -6.1013 578.992 616.002
-1.30316 9.4721 -4.50328 566.239 615.106
3 20 21 23
3 21 22 23
3 0 1 36
3 15 16 45
3 0 17 36
3 16 26 45
3 17 18 37
3 25 26 44
3 17 36 37
3 26 44 45
3 18 19 38
3 24 25 43
3 18 37 38
3 25 43 44
3 19 20 38
3 23 24 43
3 20 21 39
3 22 23 42
3 20 38 39
3 23 42 43
3 21 22 27
3 21 27 39
3 22 27 42
3 27 28 42
3 27 28 39
3 28 42 47
3 28 39 40
3 1 36 41
3 15 45 46
3 1 2 41
3 14 15 46
3 28 29 40
3 28 29 47
3 2 40 41
3 14 46 47
3 2 29 40
3 14 29 47
3 2 3 29
3 13 14 29
3 29 30 31
3 29 30 35
3 3 29 31
3 13 29 35
3 30 32 33
3 30 33 34
3 30 31 32
3 30 34 35
3 3 4 31
3 12 13 35
3 4 5 48
3 11 12 54
3 5 6 48
3 10 11 54
3 6 48 59
3 10 54 55
3 6 7 59
3 9 10 55
3 7 58 59
3 9 55 56
3 8 57 58
3 8 56 57
3 7 8 58
3 8 9 56
3 4 31 48
3 12 35 54
3 31 48 49
3 35 53 54
3 31 49 50
3 35 52 53
3 31 32 50
3 34 35 52
3 32 33 50
3 33 34 52
3 33 50 51
3 33 51 52
3 48 49 60
3 49 60 50
3 50 60 61
3 50 51 61
3 51 52 61
3 61 62 52
3 52 53 62
3 53 54 62
3 54 55 63
3 55 56 63
3 56 63 64
3 56 57 64
3 64 65 57
3 57 58 65
3 58 59 65
3 48 59 65
