ply
format ascii 1.0
element vertex 66
property float x
property float y
property float z
property float u
property float v
element face 91
property list uchar int vertex_indices
end_header
-18.5165 -5.89447 20.9436 458.341 547.005
-18.0111 -0.671487 20.4113 464.143 572.719
-17.2436 4.54111 20.0643 471.203 598.176
-16.3132 9.57487 18.159 479.26 623.001
-14.9437 14.2896 13.6152 489.806 646.571
-12.4095 18.4368 8.05662 505.978 666.835
-8.74594 21.7557 3.18215 527.118 682.135
-4.31346 24.1148 -0.894613 551.335 692.018
0.784024 24.619 -4.51363 577.631 692.184
6.18248 23.8674 -0.781678 603.249 684.263
10.6516 21.0433 3.33554 622.915 666.551
14.1992 17.2153 8.12862 637.265 644.276
16.5572 12.6786 13.6535 645.14 619.057
17.5673 7.62505 18.3101 646.175 592.307
17.9339 2.2343 20.3074 644.318 564.888
18.0031 -3.32645 20.7571 641.178 537.161
17.7269 -8.8757 21.0868 636.353 509.733
-14.9934 -15.1905 0.0555678 474.136 503.464
-13.1579 -16.562 -1.61016 482.725 495.903
-11.0548 -17.3425 -2.9698 492.945 491.038
-8.83931 -17.6918 -4.29636 503.979 488.234
-6.61494 -17.6367 -5.53678 515.288 487.412
3.11369 -18.2022 -5.5151 563.218 478.575
5.41469 -18.7358 -4.22487 574.064 474.21
7.80359 -18.8134 -2.89 585.617 472.041
10.1801 -18.4155 -1.48845 597.386 472.224
12.3968 -17.3438 0.180063 608.722 475.787
-0.860936 -12.5547 -4.98707 546.843 508.929
-0.552438 -9.57336 -7.68699 550.712 524.139
-0.254903 -6.61777 -10.4922 554.531 539.252
0.0362002 -3.66151 -13.1366 558.287 554.336
-2.76063 0.691058 -6.19769 545.741 576.08
-1.17774 0.87771 -7.08864 553.881 576.228
0.454837 0.867812 -7.88852 562.129 575.349
2.02044 0.622858 -7.00863 569.581 572.964
3.4975 0.162434 -6.33862 576.502 569.613
-11.1604 -10.9014 -0.982466 495.977 522.599
-9.83284 -11.9413 -1.05392 501.943 516.635
-8.13499 -12.1154 -1.06889 510.265 514.723
-6.67594 -11.3859 -0.997503 517.938 517.421
-8.0983 -10.7249 -1.13629 511.31 521.613
-9.68762 -10.5292 -1.05815 503.527 523.55
4.59565 -12.1881 -0.706209 573.328 506.394
5.89025 -13.1872 -1.05896 579.21 500.716
7.58769 -13.3292 -1.02307 587.54 498.952
9.10619 -12.5959 -0.860237 595.492 501.612
7.74284 -11.9254 -0.875709 589.139 505.785
6.13273 -11.8482 -0.848841 581.191 507.159
-5.64892 10.184 -2.81272 536.562 624.184
-4.05861 7.78107 -4.98164 543.4 611.774
-1.87936 5.87952 -6.63243 553.368 601.368
0.844697 5.69848 -8.28974 567.092 599.159
3.54932 5.49625 -6.47508 580.044 596.068
5.94082 7.04681 -4.8043 592.54 601.897
7.79163 9.1549 -2.52785 602.578 610.689
6.1289 10.9765 -3.94801 595.711 621.077
3.88753 12.2028 -5.03899 585.546 628.796
1.19269 12.5805 -6.47291 572.677 632.665
-1.44222 12.5431 -5.17393 559.33 633.816
-3.77382 11.7044 -3.94417 547.012 630.821
-1.6062 8.43949 -4.93625 555.964 613.51
0.976057 7.87553 -7.10127 568.847 609.606
3.54301 8.08522 -4.85031 581.284 608.544
3.54588 9.41304 -4.43368 582.03 615.033
1.0584 9.73075 -6.14584 570.207 618.539
-1.46989 9.77178 -4.46105 557.363 619.926
3 20 21 23
3 21 22 23
3 0 1 36
3 15 16 45
3 0 17 36
3 16 26 45
3 17 18 37
3 25 26 44
3 17 36 37
3 26 44 45
3 18 19 38
3 24 25 43
3 18 37 38
3 25 43 44
3 19 20 38
3 23 24 43
3 20 21 39
3 22 23 42
3 20 38 39
3 23 42 43
3 21 22 27
3 21 27 39
3 22 27 42
3 27 28 42
3 27 28 39
3 28 42 47
3 28 39 40
3 1 36 41
3 15 45 46
3 1 2 41
3 14 15 46
3 28 29 40
3 28 29 47
3 2 40 41
3 14 46 47
3 2 29 40
3 14 29 47
3 2 3 29
3 13 14 29
3 29 30 31
3 29 30 35
3 3 29 31
3 13 29 35
3 30 32 33
3 30 33 34
3 30 31 32
3 30 34 35
3 3 4 31
3 12 13 35
3 4 5 48
3 11 12 54
3 5 6 48
3 10 11 54
3 6 48 59
3 10 54 55
3 6 7 59
3 9 10 55
3 7 58 59
3 9 55 56
3 8 57 58
3 8 56 57
3 7 8 58
3 8 9 56
3 4 31 48
3 12 35 54
3 31 48 49
3 35 53 54
3 31 49 50
3 35 52 53
3 31 32 50
3 34 35 52
3 32 33 50
3 33 34 52
3 33 50 51
3 33 51 52
3 48 49 60
3 49 60 50
3 50 60 61
3 50 51 61
3 51 52 61
3 61 62 52
3 52 53 62
3 53 54 62
3 54 55 63
3 55 56 63
3 56 63 64
3 56 57 64
3 64 65 57
3 57 58 65
3 58 59 65
3 48 59 65
