ply
format ascii 1.0
element vertex 66
property float x
property float y
property float z
property float u
property float v
element face 91
property list uchar int vertex_indices
end_header
-18.8502 -6.58581 21.2055 457.43 542.098
-18.2591 -1.01193 20.8126 464.827 569.43
-17.4402 4.5292 20.2868 473.364 596.467
-16.5169 9.95798 18.2282 482.719 623.449
-15.1095 15.1034 13.6488 494.896 649.599
-12.3057 19.4845 7.95277 513.7 671.266
-8.29999 22.8573 3.14819 537.468 686.63
-3.5448 25.1098 -0.97647 563.914 695.577
1.77612 25.4513 -4.63076 591.561 694.411
7.06696 24.3997 -0.729672 616.063 683.475
11.47 21.3922 3.40326 634.563 663.457
14.828 17.2885 8.18817 646.844 638.587
16.8588 12.4433 13.8396 651.728 610.769
17.5257 7.22138 18.3344 649.827 582.613
17.6656 1.91337 20.3152 645.873 555.41
17.6441 -3.46216 20.7161 641.462 528.605
17.3468 -8.82073 21.0701 635.704 502.121
-15.1873 -15.299 -0.00147235 474.181 504.029
-13.1752 -16.624 -1.6187 483.558 496.464
-10.9105 -17.3198 -3.01369 494.627 491.733
-8.55766 -17.5713 -4.34779 506.466 489.113
-6.20498 -17.3811 -5.56726 518.621 488.641
3.51447 -17.7357 -5.62683 566.688 479.134
5.76741 -18.1103 -4.36397 577.279 474.992
8.06882 -18.0742 -3.02684 588.414 472.821
10.3173 -17.6272 -1.61428 599.587 472.702
12.369 -16.5515 0.106857 610.196 475.742
-0.708169 -12.5642 -4.96243 549.567 507.914
-0.472139 -9.59618 -7.6598 553.742 523.48
-0.251048 -6.65312 -10.5003 557.859 538.988
-0.0329827 -3.71927 -13.2652 561.935 554.424
-2.91353 0.407249 -6.23236 549.064 574.518
-1.3002 0.647537 -7.09799 557.492 574.751
0.361665 0.70031 -7.94549 566.011 574.007
1.91391 0.441996 -6.99581 573.288 571.122
3.38126 -0.00699336 -6.12942 580.015 567.391
-11.3213 -10.9969 -0.968918 497.012 522.652
-9.98371 -11.9551 -1.13838 502.957 516.893
-8.32748 -12.1297 -1.18669 511.068 514.721
-6.86923 -11.4369 -0.943632 518.799 516.9
-8.2949 -10.8371 -1.01499 512.197 521.043
-9.86571 -10.6703 -0.979134 504.508 523.112
4.86564 -12.0016 -0.930865 576.705 504.711
6.20277 -12.784 -1.18056 582.805 499.855
7.82173 -12.8211 -1.1252 590.813 498.356
9.21125 -12.0185 -0.914203 598.296 501.147
7.83241 -11.55 -0.935557 591.812 504.581
6.294 -11.5697 -0.969227 584.155 505.727
-6.71197 9.60463 -2.72829 536.484 621.85
-4.7443 7.44156 -4.93363 545.133 610.386
-2.28716 5.79125 -6.6276 556.488 600.88
0.605117 5.70743 -8.13268 571.184 598.726
3.44896 5.43774 -6.43386 584.685 594.466
6.06005 6.74648 -4.72985 598.262 598.222
8.21452 8.67657 -2.54546 609.933 605.242
6.28341 10.3672 -3.77915 601.964 615.644
3.79456 11.3447 -4.95657 590.65 622.933
1.04509 11.656 -6.40473 577.587 627.228
-1.78117 11.672 -5.14543 563.228 629.087
-4.4296 11.0052 -3.99463 549.248 627.457
-2.09833 8.18235 -5.05738 558.901 611.993
0.769582 7.81731 -7.17808 573.411 608.698
3.62263 7.84458 -4.8277 587.026 605.656
3.68875 8.76175 -4.33597 587.947 609.966
0.887222 8.98686 -6.30496 574.69 614.074
-1.96398 9.09278 -4.54637 560.152 616.208
3 20 21 23
3 21 22 23
3 0 1 36
3 15 16 45
3 0 17 36
3 16 26 45
3 17 18 37
3 25 26 44
3 17 36 37
3 26 44 45
3 18 19 38
3 24 25 43
3 18 37 38
3 25 43 44
3 19 20 38
3 23 24 43
3 20 21 39
3 22 23 42
3 20 38 39
3 23 42 43
3 21 22 27
3 21 27 39
3 22 27 42
3 27 28 42
3 27 28 39
3 28 42 47
3 28 39 40
3 1 36 41
3 15 45 46
3 1 2 41
3 14 15 46
3 28 29 40
3 28 29 47
3 2 40 41
3 14 46 47
3 2 29 40
3 14 29 47
3 2 3 29
3 13 14 29
3 29 30 31
3 29 30 35
3 3 29 31
3 13 29 35
3 30 32 33
3 30 33 34
3 30 31 32
3 30 34 35
3 3 4 31
3 12 13 35
3 4 5 48
3 11 12 54
3 5 6 48
3 10 11 54
3 6 48 59
3 10 54 55
3 6 7 59
3 9 10 55
3 7 58 59
3 9 55 56
3 8 57 58
3 8 56 57
3 7 8 58
3 8 9 56
3 4 31 48
3 12 35 54
3 31 48 49
3 35 53 54
3 31 49 50
3 35 52 53
3 31 32 50
3 34 35 52
3 32 33 50
3 33 34 52
3 33 50 51
3 33 51 52
3 48 49 60
3 49 60 50
3 50 60 61
3 50 51 61
3 51 52 61
3 61 62 52
3 52 53 62
3 53 54 62
3 54 55 63
3 55 56 63
3 56 63 64
3 56 57 64
3 64 65 57
3 57 58 65
3 58 59 65
3 48 59 65
