ply
format ascii 1.0
element vertex 66
property float x
property float y
property float z
property float u
property float v
element face 91
property list uchar int vertex_indices
end_header
-20.1141 -7.27968 21.6508 476.233 529.624
-19.4929 -1.57047 21.3098 477.793 555.988
-18.6944 4.10428 20.6815 480.292 582.254
-17.7049 9.77722 18.5016 484.322 608.649
-16.1158 15.1928 13.6513 492.288 634.163
-12.996 19.575 7.94007 507.869 655.362
-8.73924 22.7608 3.24738 528.511 671.292
-3.89524 24.8337 -0.94579 551.901 682.23
1.32289 25.3577 -4.84078 577.26 686.137
6.6246 24.1199 -0.790797 600.071 681.524
11.147 21.0273 3.4239 619.714 668.201
14.7966 16.9139 8.04549 635.453 649.957
17.4093 12.0744 13.6476 646.219 628.071
18.736 6.85211 18.2176 651.644 604.174
19.193 1.75221 20.466 654.05 580.759
19.1775 -3.28049 20.8964 655.051 557.641
18.8162 -8.32405 21.0406 654.597 534.406
-16.6118 -14.0531 0.018418 503.094 500.655
-14.5873 -15.8273 -1.70517 513.515 493.11
-11.9797 -16.727 -3.11168 526.248 489.703
-9.18866 -16.8698 -4.42395 539.59 489.807
-6.37676 -16.4822 -5.51705 552.803 492.337
3.5059 -16.4876 -5.66344 598.013 494.742
5.80962 -17.1158 -4.40843 608.162 492.352
8.21178 -17.3367 -3.03735 618.609 491.848
10.6066 -17.1642 -1.54481 628.874 493.14
12.7593 -16.1989 0.208564 637.723 497.995
-0.233677 -11.794 -4.97533 579.468 515.32
-0.0666044 -9.04538 -7.77193 580.732 528.132
0.0795478 -6.30629 -10.6441 581.934 540.9
0.219242 -3.58667 -13.4157 583.069 553.571
-2.90147 -0.0184475 -6.17334 564.853 568.759
-1.08585 0.257635 -7.14601 573.491 570.526
0.766384 0.350763 -8.14598 582.353 571.465
2.39211 0.067513 -7.01073 589.369 570.498
3.942 -0.42164 -6.107 596.188 568.582
-11.9763 -10.0456 -1.04268 523.721 520.237
-10.4224 -11.2124 -1.27164 531.207 515.278
-8.44038 -11.481 -1.31733 540.348 514.534
-6.63834 -10.6682 -0.907459 548.204 518.681
-8.334 -9.90654 -0.989692 540.303 521.764
-10.1954 -9.70624 -1.01376 531.759 522.229
4.77126 -11.0791 -0.880399 600.417 519.589
6.35913 -11.9543 -1.29096 608.063 515.987
8.25861 -12.0214 -1.20485 616.721 516.139
9.85135 -11.0343 -0.884831 623.615 521.04
8.21539 -10.4601 -0.907889 616.008 523.274
6.42565 -10.5057 -0.870233 607.828 522.625
-7.73028 8.41672 -2.68888 539.213 606.073
-5.28145 6.52427 -4.88693 551.804 598.118
-2.38269 5.19228 -6.61372 566.11 592.817
0.831383 5.26987 -8.0408 581.379 594.043
3.9191 4.84544 -6.26903 594.839 592.75
6.81025 5.7982 -4.56466 607.087 597.731
9.21422 7.50496 -2.48142 616.76 606.03
7.10045 9.40339 -3.81353 607.195 614.299
4.26931 10.4458 -5.05355 594.528 618.459
1.20701 10.7983 -6.63587 581.121 619.417
-1.95964 10.7326 -5.29346 566.102 618.262
-5.03454 10.015 -3.95643 551.667 614.14
-2.54433 7.32286 -5.29333 564.281 602.476
1.00832 7.25843 -7.14923 581.314 603.158
4.44653 6.96704 -4.89396 596.137 602.533
4.62361 7.89131 -4.34234 596.481 606.785
1.14853 8.28615 -6.3698 581.367 607.862
-2.44649 8.27527 -4.6388 564.213 606.832
3 20 21 23
3 21 22 23
3 0 1 36
3 15 16 45
3 0 17 36
3 16 26 45
3 17 18 37
3 25 26 44
3 17 36 37
3 26 44 45
3 18 19 38
3 24 25 43
3 18 37 38
3 25 43 44
3 19 20 38
3 23 24 43
3 20 21 39
3 22 23 42
3 20 38 39
3 23 42 43
3 21 22 27
3 21 27 39
3 22 27 42
3 27 28 42
3 27 28 39
3 28 42 47
3 28 39 40
3 1 36 41
3 15 45 46
3 1 2 41
3 14 15 46
3 28 29 40
3 28 29 47
3 2 40 41
3 14 46 47
3 2 29 40
3 14 29 47
3 2 3 29
3 13 14 29
3 29 30 31
3 29 30 35
3 3 29 31
3 13 29 35
3 30 32 33
3 30 33 34
3 30 31 32
3 30 34 35
3 3 4 31
3 12 13 35
3 4 5 48
3 11 12 54
3 5 6 48
3 10 11 54
3 6 48 59
3 10 54 55
3 6 7 59
3 9 10 55
3 7 58 59
3 9 55 56
3 8 57 58
3 8 56 57
3 7 8 58
3 8 9 56
3 4 31 48
3 12 35 54
3 31 48 49
3 35 53 54
3 31 49 50
3 35 52 53
3 31 32 50
3 34 35 52
3 32 33 50
3 33 34 52
3 33 50 51
3 33 51 52
3 48 49 60
3 49 60 50
3 50 60 61
3 50 51 61
3 51 52 61
3 61 62 52
3 52 53 62
3 53 54 62
3 54 55 63
3 55 56 63
3 56 63 64
3 56 57 64
3 64 65 57
3 57 58 65
3 58 59 65
3 48 59 65
