ply
format ascii 1.0
element vertex 66
property float x
property float y
property float z
property float u
property float v
element face 91
property list uchar int vertex_indices
end_header
-20.1205 -7.45273 21.7468 475.558 528.956
-19.4905 -1.63069 21.4078 477.448 555.804
-18.6956 4.15768 20.7496 480.241 582.568
-17.7287 9.945 18.5323 484.526 609.56
-16.1805 15.4513 13.6475 492.73 635.713
-13.0408 19.8457 7.88558 508.811 657.173
-8.72078 22.9747 3.19607 530.039 672.913
-3.82612 24.9626 -0.977125 553.877 683.461
1.40658 25.4227 -4.89179 579.44 687.035
6.70922 24.1044 -0.743 602.01 681.434
11.2182 20.9296 3.43127 621.31 667.173
14.8304 16.7378 8.03808 636.521 648.03
17.4024 11.8421 13.6423 646.671 625.341
18.7198 6.62896 18.1814 651.642 601.103
19.1607 1.59771 20.4209 653.622 577.833
19.1076 -3.35066 20.8035 654.174 555.091
18.6982 -8.30739 20.9491 653.209 532.275
-16.6913 -14.1755 0.0179983 502.382 501.559
-14.653 -16.0128 -1.69196 512.818 493.731
-11.995 -16.9264 -3.08662 525.758 490.211
-9.15076 -17.0201 -4.39561 539.348 490.472
-6.29093 -16.5581 -5.49143 552.804 493.257
3.78927 -16.5559 -5.67395 598.88 495.143
6.0175 -17.143 -4.41852 608.592 492.7
8.34124 -17.3374 -3.05063 618.612 492.06
10.6462 -17.1314 -1.5599 628.412 493.236
12.6779 -16.1231 0.226104 636.675 498.003
-0.0798642 -11.557 -4.96372 579.926 517.255
0.0489842 -8.9425 -7.76674 581.274 529.624
0.153317 -6.33428 -10.6287 582.539 541.967
0.24763 -3.74554 -13.3967 583.719 554.206
-2.8545 -0.11948 -6.14863 565.565 569.327
-1.03186 0.164947 -7.12754 574.27 571.092
0.828252 0.272086 -8.1503 583.201 572.056
2.41395 0.00243947 -6.97033 589.953 570.96
3.9227 -0.466552 -6.02939 596.502 568.967
-12.0105 -10.073 -1.03814 523.417 521.361
-10.5142 -11.2198 -1.26894 530.573 516.409
-8.58868 -11.4937 -1.31607 539.434 515.513
-6.85065 -10.6561 -0.885191 547.004 519.617
-8.47861 -9.83569 -0.981453 539.46 523.091
-10.2934 -9.66563 -0.997523 531.153 523.539
4.94784 -11.0048 -0.907275 600.917 520.19
6.4606 -11.8382 -1.29627 608.159 516.698
8.28367 -11.8938 -1.22046 616.454 516.768
9.77379 -10.8727 -0.914348 622.914 521.683
8.22098 -10.2669 -0.925263 615.715 524.177
6.50476 -10.3309 -0.904761 607.888 523.565
-7.65512 8.39569 -2.70964 540.434 607.037
-5.22462 6.51053 -4.92458 552.898 599.127
-2.37325 5.1511 -6.64409 566.955 593.64
0.800038 5.244 -8.03992 582.049 594.828
3.82859 4.82992 -6.26845 595.145 593.259
6.64277 5.82678 -4.57399 607.021 598.128
8.96257 7.58246 -2.48579 616.315 606.335
6.94348 9.46646 -3.77119 607.317 614.765
4.18476 10.479 -5.05373 595.113 619.064
1.19739 10.8147 -6.68157 582.156 620.263
-1.93076 10.7311 -5.33304 567.287 619.131
-4.97558 10.0036 -3.98729 552.926 615.064
-2.3674 7.32921 -5.32049 565.955 603.455
0.994982 7.30341 -7.12784 582.122 604.187
4.22637 7.03679 -4.8252 595.873 603.263
4.41172 7.87237 -4.28024 596.308 607.058
1.14786 8.22609 -6.35672 582.289 608.346
-2.25394 8.19883 -4.67403 566.009 607.38
3 20 21 23
3 21 22 23
3 0 1 36
3 15 16 45
3 0 17 36
3 16 26 45
3 17 18 37
3 25 26 44
3 17 36 37
3 26 44 45
3 18 19 38
3 24 25 43
3 18 37 38
3 25 43 44
3 19 20 38
3 23 24 43
3 20 21 39
3 22 23 42
3 20 38 39
3 23 42 43
3 21 22 27
3 21 27 39
3 22 27 42
3 27 28 42
3 27 28 39
3 28 42 47
3 28 39 40
3 1 36 41
3 15 45 46
3 1 2 41
3 14 15 46
3 28 29 40
3 28 29 47
3 2 40 41
3 14 46 47
3 2 29 40
3 14 29 47
3 2 3 29
3 13 14 29
3 29 30 31
3 29 30 35
3 3 29 31
3 13 29 35
3 30 32 33
3 30 33 34
3 30 31 32
3 30 34 35
3 3 4 31
3 12 13 35
3 4 5 48
3 11 12 54
3 5 6 48
3 10 11 54
3 6 48 59
3 10 54 55
3 6 7 59
3 9 10 55
3 7 58 59
3 9 55 56
3 8 57 58
3 8 56 57
3 7 8 58
3 8 9 56
3 4 31 48
3 12 35 54
3 31 48 49
3 35 53 54
3 31 49 50
3 35 52 53
3 31 32 50
3 34 35 52
3 32 33 50
3 33 34 52
3 33 50 51
3 33 51 52
3 48 49 60
3 49 60 50
3 50 60 61
3 50 51 61
3 51 52 61
3 61 62 52
3 52 53 62
3 53 54 62
3 54 55 63
3 55 56 63
3 56 63 64
3 56 57 64
3 64 65 57
3 57 58 65
3 58 59 65
3 48 59 65
