ply
format ascii 1.0
element vertex 66
property float x
property float y
property float z
property float u
property float v
element face 91
property list uchar int vertex_indices
end_header
-18.7631 -5.68628 20.7563 450.606 558.925
-18.295 -0.63284 20.3791 457.523 583.449
-17.5182 4.37277 20.0056 465.912 607.458
-16.3744 9.29307 17.9894 475.536 631.543
-14.5683 14.103 13.6954 487.631 655.635
-11.7449 18.4755 7.93227 503.876 677.404
-7.95893 22.1244 3.09643 524.444 694.291
-3.3915 24.7986 -0.891803 548.189 705.27
1.85686 25.4133 -4.58179 573.437 705.395
6.93855 24.2898 -0.835094 598.448 693.414
11.1702 21.3304 3.23465 617.662 673.044
14.518 17.412 8.12657 631.884 648.362
16.6269 12.7034 13.98 639.568 620.444
17.3934 7.38353 18.5524 639.709 591.389
17.631 1.82156 20.5377 636.258 562.927
17.6843 -3.80551 21.0663 631.409 535.045
17.5176 -9.43109 21.493 625.45 507.421
-14.5275 -15.4077 0.0947157 456.166 517.864
-12.8202 -16.6544 -1.49484 462.91 511.012
-10.7908 -17.283 -2.97758 471.845 506.845
-8.67542 -17.5245 -4.38774 481.586 504.459
-6.58725 -17.3432 -5.6746 491.626 504.107
3.77504 -18.3839 -5.50657 541.579 489.56
6.21939 -19.0042 -4.27646 553.365 483.693
8.72494 -19.0886 -2.88709 566 480.317
11.146 -18.447 -1.43128 578.92 480.539
13.1359 -16.986 0.229444 590.551 485.064
-1.31704 -12.3744 -4.99581 522.355 523.345
-1.03141 -9.70074 -7.55698 525.5 537.474
-0.737458 -7.05264 -10.3059 528.606 551.565
-0.437634 -4.4277 -13.1252 531.699 565.571
-3.1858 -0.0284405 -5.98658 524.444 586.017
-1.73365 0.136538 -7.00529 531.426 586.025
-0.248796 0.135761 -7.99896 538.42 585.179
1.30927 -0.145749 -7.03652 546.092 581.908
2.81151 -0.579264 -6.06196 553.351 577.936
-11.244 -10.2042 -1.06008 476.816 540.969
-10.0418 -11.1881 -1.10527 481.784 535.085
-8.44877 -11.4445 -1.13852 489.356 532.406
-7.00749 -11.076 -1.03403 496.808 532.857
-8.28242 -10.205 -1.10426 491.343 538.311
-9.80417 -9.91723 -1.04768 484.158 541.068
5.16383 -12.1414 -0.86137 555.621 516.551
6.58376 -12.8419 -1.08468 561.87 511.948
8.25273 -12.7921 -1.03289 570.127 510.658
9.67161 -12.0716 -0.957613 577.79 512.867
8.24658 -11.5574 -0.916777 571.287 516.654
6.64486 -11.547 -0.959371 563.42 518.174
-6.21121 9.56664 -2.721 519.542 634.116
-4.26462 7.94019 -4.75502 526.973 625.411
-2.05816 6.60648 -6.48445 536.044 617.753
0.481784 6.59963 -8.07462 548.036 616.224
3.02779 6.16277 -6.56826 560.575 611.025
5.49401 7.10476 -4.78563 574.094 612.515
7.82223 8.27409 -2.60633 587.267 615.044
6.00265 10.2618 -4.07127 579.759 627.163
3.63572 11.5893 -5.34195 569.004 636.444
0.88441 12.1708 -6.58144 555.672 642.403
-1.85649 12.0926 -5.31634 542.517 643.86
-4.30835 11.216 -4.11035 530.016 641.175
-2.0077 8.64558 -4.87843 538.677 626.89
0.587883 8.36439 -7.25825 550.451 624.363
3.20482 8.15955 -5.06341 563.76 619.891
3.30604 9.12771 -4.54368 565.318 624.281
0.633569 9.69086 -6.27665 552.209 630.327
-2.05568 9.60697 -4.41147 539.481 631.408
3 20 21 23
3 21 22 23
3 0 1 36
3 15 16 45
3 0 17 36
3 16 26 45
3 17 18 37
3 25 26 44
3 17 36 37
3 26 44 45
3 18 19 38
3 24 25 43
3 18 37 38
3 25 43 44
3 19 20 38
3 23 24 43
3 20 21 39
3 22 23 42
3 20 38 39
3 23 42 43
3 21 22 27
3 21 27 39
3 22 27 42
3 27 28 42
3 27 28 39
3 28 42 47
3 28 39 40
3 1 36 41
3 15 45 46
3 1 2 41
3 14 15 46
3 28 29 40
3 28 29 47
3 2 40 41
3 14 46 47
3 2 29 40
3 14 29 47
3 2 3 29
3 13 14 29
3 29 30 31
3 29 30 35
3 3 29 31
3 13 29 35
3 30 32 33
3 30 33 34
3 30 31 32
3 30 34 35
3 3 4 31
3 12 13 35
3 4 5 48
3 11 12 54
3 5 6 48
3 10 11 54
3 6 48 59
3 10 54 55
3 6 7 59
3 9 10 55
3 7 58 59
3 9 55 56
3 8 57 58
3 8 56 57
3 7 8 58
3 8 9 56
3 4 31 48
3 12 35 54
3 31 48 49
3 35 53 54
3 31 49 50
3 35 52 53
3 31 32 50
3 34 35 52
3 32 33 50
3 33 34 52
3 33 50 51
3 33 51 52
3 48 49 60
3 49 60 50
3 50 60 61
3 50 51 61
3 51 52 61
3 61 62 52
3 52 53 62
3 53 54 62
3 54 55 63
3 55 56 63
3 56 63 64
3 56 57 64
3 64 65 57
3 57 58 65
3 58 59 65
3 48 59 65
