ply
format ascii 1.0
element vertex 66
property float x
property float y
property float z
property float u
property float v
element face 91
property list uchar int vertex_indices
end_header
-19.0889 -6.95051 21.3366 474.312 531.3
-18.4799 -1.37082 20.9294 476.821 558.192
-17.674 4.18046 20.3662 480.34 584.993
-16.6785 9.67418 18.3917 485.372 611.788
-15.2073 14.8872 13.7102 493.86 637.765
-12.4402 19.2686 7.99256 509.071 660.053
-8.54799 22.6262 3.18392 529.38 677.365
-3.99117 24.9699 -0.920271 552.672 689.744
1.11386 25.5658 -4.75922 578.652 693.74
6.40305 24.38 -0.752857 602.357 687.796
10.7334 21.1357 3.35513 621.648 671.876
14.1394 16.9345 8.06634 636.361 651.175
16.5269 12.1213 13.6595 645.892 627.291
17.7932 7.00137 18.1494 650.564 602.035
18.2843 1.89829 20.1898 652.571 577.232
18.2987 -3.19964 20.6109 652.988 552.703
17.9456 -8.30496 20.8053 651.744 528.147
-15.7646 -14.9049 0.0375654 500.097 497.261
-13.8824 -16.6672 -1.64197 509.993 489.274
-11.4389 -17.6282 -3.0208 522.362 485.126
-8.80281 -17.855 -4.34284 535.552 484.507
-6.15216 -17.5243 -5.49306 548.68 486.533
3.1663 -17.6452 -5.60423 593.293 486.79
5.38189 -18.2267 -4.32109 603.399 483.965
7.70379 -18.3495 -2.95891 613.933 483.335
9.9972 -18.0378 -1.49829 624.244 484.769
12.027 -16.9833 0.227928 633.105 489.695
-0.321215 -12.3863 -4.97312 575.806 511.598
-0.123114 -9.65367 -7.68706 577.626 525.211
0.0543014 -6.93438 -10.48 579.382 538.773
0.221006 -4.23207 -13.213 581.064 552.241
-2.54679 -0.157262 -6.04005 564.355 570.257
-0.906721 -0.000315625 -7.02803 572.601 571.331
0.761811 0.0165716 -8.02655 581.002 571.738
2.21636 -0.175078 -6.89168 587.493 570.742
3.60615 -0.533039 -6.02549 593.806 568.991
-11.3342 -10.5944 -1.10685 521.321 518.533
-9.94322 -11.7088 -1.18171 528.118 513.322
-8.11622 -11.9756 -1.15108 536.868 512.197
-6.48512 -11.2324 -0.84597 544.459 515.851
-8.00213 -10.4167 -1.02596 537.199 519.663
-9.71808 -10.2099 -1.01775 528.97 520.503
4.41511 -11.6673 -0.719144 596.565 514.698
5.83924 -12.504 -1.1286 603.635 510.883
7.60059 -12.5801 -1.1443 612.071 510.675
9.05962 -11.6549 -0.990056 618.885 515.214
7.59545 -11.0222 -0.90034 611.781 518.104
5.93415 -11.0647 -0.847407 603.82 517.745
-6.25312 9.53782 -2.74936 544.232 615.847
-4.24992 7.64383 -4.94482 554.94 607.332
-1.88352 6.06668 -6.64704 567.141 600.28
0.913952 6.08918 -8.15295 581.155 600.904
3.60057 5.76451 -6.34074 593.262 599.256
6.00225 7.02483 -4.656 603.897 605.21
7.96771 8.76822 -2.50659 612.199 613.359
6.28407 10.5133 -3.95533 604.586 621.843
3.94967 11.5728 -5.12952 593.815 626.932
1.25622 11.9429 -6.65822 581.55 628.745
-1.50482 11.8084 -5.35231 567.807 627.623
-4.05618 11.0256 -4.06678 555.142 623.414
-1.77596 8.30385 -5.11309 566.771 610.745
1.07313 8.04856 -7.08562 581.259 610.125
3.82411 8.04005 -4.74356 593.416 609.905
3.93228 8.95897 -4.33287 593.663 614.249
1.20045 9.33355 -6.24456 581.377 616.149
-1.64868 9.24823 -4.59532 567.062 615.194
3 20 21 23
3 21 22 23
3 0 1 36
3 15 16 45
3 0 17 36
3 16 26 45
3 17 18 37
3 25 26 44
3 17 36 37
3 26 44 45
3 18 19 38
3 24 25 43
3 18 37 38
3 25 43 44
3 19 20 38
3 23 24 43
3 20 21 39
3 22 23 42
3 20 38 39
3 23 42 43
3 21 22 27
3 21 27 39
3 22 27 42
3 27 28 42
3 27 28 39
3 28 42 47
3 28 39 40
3 1 36 41
3 15 45 46
3 1 2 41
3 14 15 46
3 28 29 40
3 28 29 47
3 2 40 41
3 14 46 47
3 2 29 40
3 14 29 47
3 2 3 29
3 13 14 29
3 29 30 31
3 29 30 35
3 3 29 31
3 13 29 35
3 30 32 33
3 30 33 34
3 30 31 32
3 30 34 35
3 3 4 31
3 12 13 35
3 4 5 48
3 11 12 54
3 5 6 48
3 10 11 54
3 6 48 59
3 10 54 55
3 6 7 59
3 9 10 55
3 7 58 59
3 9 55 56
3 8 57 58
3 8 56 57
3 7 8 58
3 8 9 56
3 4 31 48
3 12 35 54
3 31 48 49
3 35 53 54
3 31 49 50
3 35 52 53
3 31 32 50
3 34 35 52
3 32 33 50
3 33 34 52
3 33 50 51
3 33 51 52
3 48 49 60
3 49 60 50
3 50 60 61
3 50 51 61
3 51 52 61
3 61 62 52
3 52 53 62
3 53 54 62
3 54 55 63
3 55 56 63
3 56 63 64
3 56 57 64
3 64 65 57
3 57 58 65
3 58 59 65
3 48 59 65
