ply
format ascii 1.0
element vertex 66
property float x
property float y
property float z
property float u
property float v
element face 91
property list uchar int vertex_indices
end_header
-18.7006 -6.65394 21.14 469.974 534.938
-18.249 -1.25594 20.7375 472.995 561.133
-17.6005 4.1239 20.268 476.987 587.223
-16.6664 9.43358 18.3267 482.795 613.148
-15.1705 14.525 13.8164 492.066 638.313
-12.4909 18.9551 8.01845 507.373 660.29
-8.71087 22.4785 3.14019 527.618 677.576
-4.19357 25.0286 -0.87058 551.049 689.907
0.951197 25.7623 -4.83815 577.269 693.326
6.34619 24.6912 -0.810567 602.072 686.774
10.8236 21.5608 3.22087 622.155 670.355
14.3591 17.4194 8.04803 637.301 649.045
16.7304 12.5469 13.8378 646.421 624.209
17.8362 7.21049 18.3233 649.735 597.492
18.1869 1.76616 20.3684 650.105 570.717
18.0783 -3.70472 20.861 648.711 544.106
17.649 -9.1773 21.0893 645.841 517.571
-15.2583 -14.6349 0.0867123 491.907 498.813
-13.6377 -16.5072 -1.62845 500.028 489.75
-11.3708 -17.5728 -3.02886 511.294 484.464
-8.87966 -17.9012 -4.36033 523.723 482.714
-6.38247 -17.6569 -5.5356 536.211 483.721
2.95131 -17.9815 -5.59609 581.426 480.838
5.2827 -18.6973 -4.30252 592.245 476.845
7.74431 -18.8479 -2.92202 603.743 475.563
10.1649 -18.3949 -1.44472 615.094 477.204
12.2121 -17.0906 0.221463 624.69 483
-0.587181 -12.4566 -5.00574 564.827 508.066
-0.327545 -9.86796 -7.64749 567.217 520.983
-0.0808087 -7.29411 -10.3819 569.57 533.843
0.155611 -4.73993 -13.1318 571.875 546.611
-2.65034 -0.464182 -5.92877 556.683 566.7
-1.05096 -0.367769 -6.96607 564.759 567.095
0.567515 -0.402552 -8.00459 572.909 566.851
2.0657 -0.588146 -6.89363 579.814 565.575
3.52258 -0.924585 -5.99492 586.562 563.605
-11.1038 -10.0478 -1.14639 513.017 520.673
-9.71038 -11.1876 -1.21646 519.641 514.955
-7.85935 -11.4711 -1.21888 528.576 513.318
-6.16947 -10.8769 -0.942729 536.763 515.923
-7.68241 -9.97433 -1.10207 529.596 520.541
-9.43072 -9.70288 -1.06516 521.147 522.099
4.34986 -11.5206 -0.708155 587.594 511.28
5.88218 -12.3567 -1.16446 595.047 507.073
7.72663 -12.4107 -1.16237 603.979 506.551
9.28131 -11.5443 -1.0468 611.594 510.52
7.72533 -10.895 -0.926478 604.102 513.873
5.97073 -10.904 -0.873314 595.581 514.069
-6.31762 9.19543 -2.70763 539.217 613.628
-4.17062 7.58433 -4.80971 550.04 605.815
-1.80488 6.25847 -6.55943 561.856 599.303
0.872007 6.30738 -8.09322 575.296 599.389
3.46476 5.94314 -6.40113 587.308 597.006
5.88626 6.9629 -4.63554 598.651 601.354
8.06869 8.30403 -2.49371 608.765 607.241
6.3767 10.3683 -4.12 601.323 617.738
3.97139 11.7108 -5.36903 590.215 624.777
1.10902 12.1901 -6.83539 576.843 627.723
-1.75061 12.0081 -5.47563 562.552 627.043
-4.29562 10.995 -4.08247 549.666 622.28
-2.0799 8.36515 -4.97086 560.325 609.333
0.964144 8.13388 -7.09743 575.685 608.094
3.91217 8.02323 -4.81675 589.277 606.806
4.07385 9.10713 -4.42577 590.087 611.987
1.03602 9.63533 -6.25285 575.979 615.248
-2.11051 9.48034 -4.49143 560.18 614.68
3 20 21 23
3 21 22 23
3 0 1 36
3 15 16 45
3 0 17 36
3 16 26 45
3 17 18 37
3 25 26 44
3 17 36 37
3 26 44 45
3 18 19 38
3 24 25 43
3 18 37 38
3 25 43 44
3 19 20 38
3 23 24 43
3 20 21 39
3 22 23 42
3 20 38 39
3 23 42 43
3 21 22 27
3 21 27 39
3 22 27 42
3 27 28 42
3 27 28 39
3 28 42 47
3 28 39 40
3 1 36 41
3 15 45 46
3 1 2 41
3 14 15 46
3 28 29 40
3 28 29 47
3 2 40 41
3 14 46 47
3 2 29 40
3 14 29 47
3 2 3 29
3 13 14 29
3 29 30 31
3 29 30 35
3 3 29 31
3 13 29 35
3 30 32 33
3 30 33 34
3 30 31 32
3 30 34 35
3 3 4 31
3 12 13 35
3 4 5 48
3 11 12 54
3 5 6 48
3 10 11 54
3 6 48 59
3 10 54 55
3 6 7 59
3 9 10 55
3 7 58 59
3 9 55 56
3 8 57 58
3 8 56 57
3 7 8 58
3 8 9 56
3 4 31 48
3 12 35 54
3 31 48 49
3 35 53 54
3 31 49 50
3 35 52 53
3 31 32 50
3 34 35 52
3 32 33 50
3 33 34 52
3 33 50 51
3 33 51 52
3 48 49 60
3 49 60 50
3 50 60 61
3 50 51 61
3 51 52 61
3 61 62 52
3 52 53 62
3 53 54 62
3 54 55 63
3 55 56 63
3 56 63 64
3 56 57 64
3 64 65 57
3 57 58 65
3 58 59 65
3 48 59 65
