ply
format ascii 1.0
element vertex 66
property float x
property float y
property float z
property float u
property float v
element face 91
property list uchar int vertex_indices
end_header
-18.9292 -6.53534 21.128 464.76 540.826
-18.4015 -1.12527 20.8535 469.632 566.589
-17.6463 4.24375 20.3207 475.601 592.089
-16.624 9.59108 18.25 482.981 617.555
-15.0129 14.8015 13.6888 493.353 642.41
-12.1533 19.3211 7.96876 509.524 663.553
-8.21994 22.8865 3.16626 530.357 679.546
-3.55822 25.3707 -0.898403 554.157 689.949
1.67051 25.9705 -4.74311 579.852 691.04
6.83955 24.6815 -0.797489 603.75 682.159
11.1308 21.4817 3.30822 622.605 664.467
14.4928 17.283 8.12682 636.508 642.296
16.6818 12.3425 13.8556 644.384 616.962
17.6101 6.98242 18.3708 646.139 590.302
17.9033 1.62998 20.455 645.068 564.245
17.8682 -3.69602 20.9468 642.576 538.646
17.5521 -9.02973 21.1704 638.757 513.164
-15.2753 -14.6719 0.0683921 480.709 502.747
-13.5258 -16.2892 -1.64737 488.567 494.441
-11.2497 -17.161 -3.07797 499.246 489.452
-8.7989 -17.424 -4.42542 511.015 487.298
-6.3384 -17.1827 -5.60699 523.033 487.539
3.66612 -17.7203 -5.63596 570.815 480.661
5.96649 -18.3028 -4.38184 581.492 476.726
8.3447 -18.4047 -2.98942 592.736 475.048
10.6594 -17.9677 -1.50671 603.897 475.971
12.617 -16.7517 0.223178 613.656 480.755
-0.711966 -12.4611 -5.00231 551.999 507.702
-0.494578 -9.70814 -7.63881 554.457 521.134
-0.282951 -6.97315 -10.4186 556.893 534.5
-0.0755394 -4.26422 -13.2211 559.3 547.745
-2.91172 -0.413207 -6.01365 546.688 566.575
-1.34255 -0.283818 -7.0068 554.363 566.64
0.244271 -0.269432 -8.03514 562.077 566.151
1.74549 -0.494809 -6.97186 569.089 564.296
3.21507 -0.837717 -5.98368 575.905 561.9
-11.2901 -10.2113 -1.10298 501.848 522.576
-9.89404 -11.428 -1.23862 508.039 516.154
-8.00755 -11.6901 -1.26117 516.981 514.089
-6.34123 -10.9631 -0.884858 525.255 516.815
-7.86909 -10.0581 -1.01189 518.322 521.829
-9.63098 -9.7936 -1.01385 509.98 523.856
4.66364 -11.6683 -0.818054 577.758 508.691
6.19123 -12.5915 -1.19779 584.728 503.65
8.07359 -12.618 -1.15932 593.746 502.709
9.6069 -11.6102 -1.00487 601.522 506.866
8.04413 -10.9575 -0.926978 594.294 510.661
6.28044 -10.987 -0.923088 585.818 511.277
-6.77866 9.28996 -2.67703 531.983 614.392
-4.75237 7.36965 -4.81845 541.078 604.565
-2.29571 5.85657 -6.53569 552.374 596.455
0.583853 5.87342 -8.01424 566.333 595.475
3.39373 5.47806 -6.44028 579.506 592.181
5.97612 6.64684 -4.69564 592.242 596.468
8.15463 8.3024 -2.5481 603.211 603.217
6.29647 10.2158 -4.00395 595.244 613.371
3.81466 11.4155 -5.27302 583.961 620.348
0.972466 11.9036 -6.67568 570.657 624.08
-1.93301 11.7814 -5.34704 556.542 624.584
-4.58989 10.9249 -4.07001 543.311 621.463
-2.35284 8.01708 -4.99802 552.886 606.661
0.713103 7.76594 -7.14921 567.685 604.396
3.72593 7.62369 -4.88352 581.878 602.146
3.85686 8.85433 -4.40842 582.99 607.937
0.83047 9.37946 -6.31756 568.864 611.987
-2.29295 9.25985 -4.49928 553.66 612.538
3 20 21 23
3 21 22 23
3 0 1 36
3 15 16 45
3 0 17 36
3 16 26 45
3 17 18 37
3 25 26 44
3 17 36 37
3 26 44 45
3 18 19 38
3 24 25 43
3 18 37 38
3 25 43 44
3 19 20 38
3 23 24 43
3 20 21 39
3 22 23 42
3 20 38 39
3 23 42 43
3 21 22 27
3 21 27 39
3 22 27 42
3 27 28 42
3 27 28 39
3 28 42 47
3 28 39 40
3 1 36 41
3 15 45 46
3 1 2 41
3 14 15 46
3 28 29 40
3 28 29 47
3 2 40 41
3 14 46 47
3 2 29 40
3 14 29 47
3 2 3 29
3 13 14 29
3 29 30 31
3 29 30 35
3 3 29 31
3 13 29 35
3 30 32 33
3 30 33 34
3 30 31 32
3 30 34 35
3 3 4 31
3 12 13 35
3 4 5 48
3 11 12 54
3 5 6 48
3 10 11 54
3 6 48 59
3 10 54 55
3 6 7 59
3 9 10 55
3 7 58 59
3 9 55 56
3 8 57 58
3 8 56 57
3 7 8 58
3 8 9 56
3 4 31 48
3 12 35 54
3 31 48 49
3 35 53 54
3 31 49 50
3 35 52 53
3 31 32 50
3 34 35 52
3 32 33 50
3 33 34 52
3 33 50 51
3 33 51 52
3 48 49 60
3 49 60 50
3 50 60 61
3 50 51 61
3 51 52 61
3 61 62 52
3 52 53 62
3 53 54 62
3 54 55 63
3 55 56 63
3 56 63 64
3 56 57 64
3 64 65 57
3 57 58 65
3 58 59 65
3 48 59 65
