ply
format ascii 1.0
element vertex 66
property float x
property float y
property float z
property float u
property float v
element face 91
property list uchar int vertex_indices
end_header
-19.3044 -6.65969 21.2748 468.337 542.113
-18.7629 -1.24711 20.852 472.965 568.018
-18.0147 4.14125 20.3445 478.599 593.734
-17.0221 9.51242 18.2983 485.765 619.337
-15.4622 14.7113 13.6531 496.212 644
-12.5784 19.1186 7.89058 513.012 664.417
-8.58069 22.4861 3.16153 534.562 679.387
-3.92596 24.8216 -0.883006 558.747 689.125
1.22578 25.4565 -4.81734 584.695 690.487
6.51351 24.3311 -0.77488 608.797 683.028
11.0161 21.3114 3.2747 628.446 666.721
14.6219 17.2514 7.95741 643.26 645.699
17.0563 12.3942 13.6815 651.908 621.215
18.1485 7.06871 18.2597 654.197 594.997
18.5019 1.7508 20.3508 653.519 569.168
18.4572 -3.53014 20.8145 651.319 543.719
18.0951 -8.81063 21.1102 647.632 518.392
-15.6494 -14.9897 0.161757 487.934 501.431
-13.8795 -16.8555 -1.63572 496.214 491.873
-11.506 -17.9518 -3.01852 507.574 485.792
-8.89019 -18.2658 -4.26591 520.347 483.389
-6.26674 -17.9442 -5.36142 533.346 484.042
3.23083 -18.3097 -5.40729 578.943 478.889
5.57967 -18.9762 -4.21259 589.731 474.794
8.04158 -19.0561 -2.93258 601.252 473.483
10.421 -18.5232 -1.48729 612.555 475.149
12.4417 -17.2231 0.329827 622.316 480.626
-0.479637 -11.8884 -4.94908 563.255 511.141
-0.222223 -9.05382 -7.69938 566.147 524.808
0.0207359 -6.22899 -10.518 568.982 538.436
0.251523 -3.42214 -13.2619 571.735 551.978
-2.65527 0.252676 -6.13495 557.373 570.467
-1.03029 0.433046 -7.06075 565.477 570.789
0.622813 0.463949 -8.02163 573.67 570.383
2.12268 0.229364 -6.96861 580.559 568.678
3.56666 -0.169931 -6.12757 587.17 566.208
-10.9564 -9.94111 -1.07481 512.607 524.127
-9.66993 -10.978 -1.27616 518.479 518.678
-7.98228 -11.2169 -1.31109 526.525 516.926
-6.43499 -10.601 -0.92282 534.101 519.327
-7.83181 -9.79852 -1.05464 527.693 523.697
-9.42243 -9.59919 -1.0417 520.104 525.226
4.54422 -11.1909 -0.733335 586.694 512.554
5.93787 -11.9806 -1.25531 593.245 508.27
7.60139 -12.0504 -1.23631 601.223 507.339
8.99854 -11.2235 -1.00077 608.186 510.816
7.57927 -10.6269 -0.932341 601.55 514.195
6.00611 -10.6223 -0.870764 593.965 514.777
-6.91542 9.01531 -2.68481 539.168 614.09
-4.64688 7.31742 -4.92569 550.011 605.179
-2.09463 5.98292 -6.60256 562.216 597.897
0.786903 6.03506 -8.05908 576.447 597.172
3.56932 5.64699 -6.43101 589.32 594.249
6.16472 6.64977 -4.74327 601.772 598.092
8.45074 8.10157 -2.48144 612.76 604.19
6.47384 9.91121 -3.91869 604.224 613.669
3.89046 10.9858 -5.11772 592.453 619.813
1.03939 11.3764 -6.61328 579.22 622.768
-1.84494 11.2737 -5.24671 564.979 623.254
-4.57093 10.5216 -3.96858 551.29 620.558
-2.11161 8.11321 -5.08975 562.536 608.114
0.905763 7.95705 -7.14358 577.487 606.358
3.81734 7.79225 -4.86653 590.908 604.441
3.94216 8.60531 -4.40472 591.689 608.298
0.969793 8.96645 -6.3265 577.961 611.169
-2.09554 8.94897 -4.5428 562.781 612.116
3 20 21 23
3 21 22 23
3 0 1 36
3 15 16 45
3 0 17 36
3 16 26 45
3 17 18 37
3 25 26 44
3 17 36 37
3 26 44 45
3 18 19 38
3 24 25 43
3 18 37 38
3 25 43 44
3 19 20 38
3 23 24 43
3 20 21 39
3 22 23 42
3 20 38 39
3 23 42 43
3 21 22 27
3 21 27 39
3 22 27 42
3 27 28 42
3 27 28 39
3 28 42 47
3 28 39 40
3 1 36 41
3 15 45 46
3 1 2 41
3 14 15 46
3 28 29 40
3 28 29 47
3 2 40 41
3 14 46 47
3 2 29 40
3 14 29 47
3 2 3 29
3 13 14 29
3 29 30 31
3 29 30 35
3 3 29 31
3 13 29 35
3 30 32 33
3 30 33 34
3 30 31 32
3 30 34 35
3 3 4 31
3 12 13 35
3 4 5 48
3 11 12 54
3 5 6 48
3 10 11 54
3 6 48 59
3 10 54 55
3 6 7 59
3 9 10 55
3 7 58 59
3 9 55 56
3 8 57 58
3 8 56 57
3 7 8 58
3 8 9 56
3 4 31 48
3 12 35 54
3 31 48 49
3 35 53 54
3 31 49 50
3 35 52 53
3 31 32 50
3 34 35 52
3 32 33 50
3 33 34 52
3 33 50 51
3 33 51 52
3 48 49 60
3 49 60 50
3 50 60 61
3 50 51 61
3 51 52 61
3 61 62 52
3 52 53 62
3 53 54 62
3 54 55 63
3 55 56 63
3 56 63 64
3 56 57 64
3 64 65 57
3 57 58 65
3 58 59 65
3 48 59 65
