ply
format ascii 1.0
element vertex 66
property float x
property float y
property float z
property float u
property float v
element face 91
property list uchar int vertex_indices
end_header
-20.1046 -5.35007 20.6388 475.918 541.725
-19.6528 -0.468739 20.1676 476.641 565.882
-18.7513 4.375 20.0045 479.646 589.915
-17.2985 9.0256 17.9866 485.003 613.603
-15.0572 13.4337 13.3808 493.728 636.95
-11.9227 17.4761 7.97854 506.761 658.956
-7.98652 20.9151 3.29894 524.051 678.072
-3.30262 23.3745 -0.78636 545.413 692.468
2.04636 23.848 -4.2871 570.726 697.194
7.02596 22.9075 -0.96531 596.119 693.267
11.3255 20.4475 3.21115 618.798 681.494
14.9049 17.0863 7.98917 638.336 664.951
17.3987 12.9093 13.5523 652.957 643.906
18.4876 7.92869 18.6116 660.812 618.629
18.9244 2.43401 20.648 664.959 591.359
19.0938 -3.22803 21.1461 667.507 563.554
18.993 -8.87466 21.7678 668.754 535.715
-15.1459 -14.544 0.0562964 498.341 503.023
-13.2172 -15.9313 -1.61569 507.822 497.192
-10.9735 -16.6493 -3.02546 518.713 494.67
-8.63273 -16.9046 -4.39383 529.958 494.433
-6.33809 -16.7035 -5.68499 540.863 496.401
3.83532 -18.2278 -5.19595 591.256 491.816
6.43723 -19.0052 -4.01684 604.484 488.496
9.12324 -19.2144 -2.70372 617.992 487.951
11.7542 -18.629 -1.3639 631.01 491.277
14.0284 -17.1737 0.364984 642.118 498.667
-1.4525 -11.5396 -4.94695 563.497 522.963
-1.07957 -8.4789 -7.70654 563.853 538.72
-0.684839 -5.44021 -10.5494 564.303 554.396
-0.287511 -2.40628 -13.1923 564.811 570.001
-3.65765 1.16575 -6.40969 548.76 584.9
-2.02858 1.5529 -7.18058 556.465 587.459
-0.315476 1.62105 -7.85649 564.693 588.458
1.52419 1.19821 -7.21035 573.969 586.776
3.23468 0.482473 -6.4711 582.715 583.599
-11.973 -9.83418 -1.0202 512.316 527.286
-10.4628 -10.8167 -1.11086 519.975 522.94
-8.62943 -11.0625 -1.14452 529.022 522.284
-6.96993 -10.6403 -1.12533 537.038 524.837
-8.55311 -9.99595 -1.18106 529.085 527.54
-10.2929 -9.69393 -1.13886 520.483 528.496
5.04193 -11.9715 -0.696257 596.371 521.754
6.6755 -12.9274 -0.928634 604.597 517.608
8.64115 -13.0092 -0.910623 614.257 517.782
10.4728 -12.4121 -0.808141 623.085 521.223
8.77678 -11.8874 -0.856466 614.614 523.305
6.89986 -11.7394 -0.853209 605.375 523.476
-5.56147 9.42799 -2.70253 537.891 623.935
-4.27663 7.12066 -4.80096 544.385 613.508
-2.23396 5.50246 -6.41231 554.503 606.565
0.302855 5.37175 -8.14353 566.594 607.082
2.85066 4.98579 -6.645 579.515 605.587
5.23135 6.18813 -4.98225 591.202 611.785
7.08042 8.05663 -2.67449 600.235 620.937
5.46656 10.0106 -3.95672 591.492 630.337
3.33992 11.3897 -5.25688 580.395 636.774
0.767208 11.959 -6.45426 567.365 639.088
-1.75843 11.9308 -5.07931 555.297 637.88
-3.93978 11.0173 -3.86745 545.132 632.475
-1.96789 7.83323 -4.85259 555.485 617.692
0.414119 7.36645 -7.27087 566.762 616.68
2.82459 7.2937 -5.18097 579.051 616.539
2.83501 8.6874 -4.63004 578.826 623.239
0.463694 9.23974 -6.23315 566.699 625.625
-1.90783 9.19658 -4.32316 555.507 624.263
3 20 21 23
3 21 22 23
3 0 1 36
3 15 16 45
3 0 17 36
3 16 26 45
3 17 18 37
3 25 26 44
3 17 36 37
3 26 44 45
3 18 19 38
3 24 25 43
3 18 37 38
3 25 43 44
3 19 20 38
3 23 24 43
3 20 21 39
3 22 23 42
3 20 38 39
3 23 42 43
3 21 22 27
3 21 27 39
3 22 27 42
3 27 28 42
3 27 28 39
3 28 42 47
3 28 39 40
3 1 36 41
3 15 45 46
3 1 2 41
3 14 15 46
3 28 29 40
3 28 29 47
3 2 40 41
3 14 46 47
3 2 29 40
3 14 29 47
3 2 3 29
3 13 14 29
3 29 30 31
3 29 30 35
3 3 29 31
3 13 29 35
3 30 32 33
3 30 33 34
3 30 31 32
3 30 34 35
3 3 4 31
3 12 13 35
3 4 5 48
3 11 12 54
3 5 6 48
3 10 11 54
3 6 48 59
3 10 54 55
3 6 7 59
3 9 10 55
3 7 58 59
3 9 55 56
3 8 57 58
3 8 56 57
3 7 8 58
3 8 9 56
3 4 31 48
3 12 35 54
3 31 48 49
3 35 53 54
3 31 49 50
3 35 52 53
3 31 32 50
3 34 35 52
3 32 33 50
3 33 34 52
3 33 50 51
3 33 51 52
3 48 49 60
3 49 60 50
3 50 60 61
3 50 51 61
3 51 52 61
3 61 62 52
3 52 53 62
3 53 54 62
3 54 55 63
3 55 56 63
3 56 63 64
3 56 57 64
3 64 65 57
3 57 58 65
3 58 59 65
3 48 59 65
