ply
format ascii 1.0
element vertex 66
property float x
property float y
property float z
property float u
property float v
element face 91
property list uchar int vertex_indices
end_header
-18.9012 -6.33929 21.0881 454.116 545.281
-18.2967 -0.937251 20.7089 461.302 571.657
-17.449 4.42601 20.2229 469.673 597.684
-16.4574 9.70218 18.1939 478.815 623.634
-14.94 14.7737 13.6431 490.609 648.926
-12.1342 19.2171 7.99421 508.394 670.445
-8.22587 22.7877 3.21307 530.903 686.53
-3.5412 25.2642 -0.959029 556.368 696.418
1.77175 25.7546 -4.61304 583.376 695.837
7.0455 24.7405 -0.804264 608.429 685.592
11.4578 21.7705 3.39076 627.674 666.219
14.8336 17.6676 8.17581 640.862 641.864
16.8985 12.8029 13.8474 646.894 614.487
17.5426 7.47683 18.4513 645.614 586.248
17.6785 2.01753 20.4171 641.925 558.538
17.7039 -3.49769 20.8892 637.767 531.088
17.4834 -9.0013 21.2663 632.406 503.914
-15.1638 -15.0246 0.00903154 467.656 505.775
-13.1888 -16.2629 -1.6407 476.626 498.618
-10.9865 -16.9091 -3.06478 487.16 494.147
-8.70433 -17.1859 -4.41746 498.369 491.421
-6.41879 -17.0558 -5.62283 509.895 490.66
3.47988 -17.5793 -5.61547 558.558 480.411
5.83527 -18.0085 -4.38696 569.804 476.095
8.23059 -18.0076 -3.04472 581.569 473.842
10.5731 -17.5646 -1.6227 593.407 473.793
12.7068 -16.4736 0.115372 604.683 477.016
-0.910358 -12.6423 -4.95019 540.544 508.034
-0.606472 -9.55181 -7.67874 544.65 523.912
-0.312542 -6.48566 -10.5322 548.698 539.716
-0.0208799 -3.42882 -13.2757 552.719 555.443
-3.03414 0.447883 -6.23077 540.199 574.83
-1.40577 0.708594 -7.12075 548.543 575.129
0.273804 0.764524 -7.97393 556.981 574.364
1.89464 0.460518 -7.06254 564.707 571.331
3.42827 -0.0474464 -6.19449 571.848 567.37
-11.3502 -10.8676 -0.974574 489.84 523.69
-9.99003 -11.7907 -1.14675 495.885 518.122
-8.33954 -11.9973 -1.1957 503.912 515.839
-6.82666 -11.466 -1.0121 511.805 517.242
-8.27443 -10.9315 -1.01375 505.04 521.007
-9.84694 -10.7155 -0.981282 497.409 523.282
4.75009 -12.1505 -0.901872 568.654 504.867
6.18115 -12.8761 -1.1771 575.211 500.254
7.83593 -12.8887 -1.13453 583.4 498.899
9.30733 -12.1845 -0.924587 591.219 501.181
7.8381 -11.8407 -0.912466 584.2 504.015
6.25468 -11.845 -0.911792 576.348 505.218
-6.94046 9.29751 -2.68284 527.363 620.568
-4.88771 7.22566 -4.85491 536.119 609.384
-2.32902 5.74406 -6.55502 547.798 600.587
0.603251 5.697 -8.08245 562.42 598.547
3.49565 5.35268 -6.46027 576.361 594.117
6.22737 6.46551 -4.73559 590.62 596.99
8.53821 8.22008 -2.52496 603.247 603.217
6.49126 10.0556 -3.81017 594.617 614.269
3.87076 11.1337 -4.98527 582.553 621.985
0.995981 11.5003 -6.38315 568.698 626.444
-1.91415 11.5134 -5.09027 554.179 628.37
-4.63904 10.7997 -3.93623 540.029 626.598
-2.34077 8.06134 -5.03544 549.401 611.603
0.739402 7.75003 -7.20735 564.605 608.335
3.79969 7.64646 -4.94973 579.513 604.775
3.86529 8.53468 -4.42188 580.479 608.96
0.817123 8.84009 -6.32168 565.758 613.401
-2.26753 8.93694 -4.49147 550.395 615.715
3 20 21 23
3 21 22 23
3 0 1 36
3 15 16 45
3 0 17 36
3 16 26 45
3 17 18 37
3 25 26 44
3 17 36 37
3 26 44 45
3 18 19 38
3 24 25 43
3 18 37 38
3 25 43 44
3 19 20 38
3 23 24 43
3 20 21 39
3 22 23 42
3 20 38 39
3 23 42 43
3 21 22 27
3 21 27 39
3 22 27 42
3 27 28 42
3 27 28 39
3 28 42 47
3 28 39 40
3 1 36 41
3 15 45 46
3 1 2 41
3 14 15 46
3 28 29 40
3 28 29 47
3 2 40 41
3 14 46 47
3 2 29 40
3 14 29 47
3 2 3 29
3 13 14 29
3 29 30 31
3 29 30 35
3 3 29 31
3 13 29 35
3 30 32 33
3 30 33 34
3 30 31 32
3 30 34 35
3 3 4 31
3 12 13 35
3 4 5 48
3 11 12 54
3 5 6 48
3 10 11 54
3 6 48 59
3 10 54 55
3 6 7 59
3 9 10 55
3 7 58 59
3 9 55 56
3 8 57 58
3 8 56 57
3 7 8 58
3 8 9 56
3 4 31 48
3 12 35 54
3 31 48 49
3 35 53 54
3 31 49 50
3 35 52 53
3 31 32 50
3 34 35 52
3 32 33 50
3 33 34 52
3 33 50 51
3 33 51 52
3 48 49 60
3 49 60 50
3 50 60 61
3 50 51 61
3 51 52 61
3 61 62 52
3 52 53 62
3 53 54 62
3 54 55 63
3 55 56 63
3 56 63 64
3 56 57 64
3 64 65 57
3 57 58 65
3 58 59 65
3 48 59 65
