ply
format ascii 1.0
element vertex 66
property float x
property float y
property float z
property float u
property float v
element face 91
property list uchar int vertex_indices
end_header
-19.9689 -5.29124 20.3777 473.247 543.202
-19.6079 -0.433917 19.9555 474.435 567.467
-18.7409 4.37661 19.7708 478.254 591.49
-17.1699 8.95703 17.8248 484.641 614.923
-14.7357 13.2979 13.2652 493.938 637.966
-11.563 17.4312 7.91617 506.486 660.272
-7.66476 21.0961 3.17641 522.979 680.165
-2.96693 23.8245 -0.804774 543.896 695.288
2.53276 24.3634 -4.28915 569.209 699.492
7.50912 23.3388 -0.977644 595.637 694.038
11.7616 20.8299 3.06574 618.987 680.939
15.2241 17.3966 7.96618 638.953 662.936
17.4864 13.1035 13.553 653.414 640.35
18.3323 7.9798 18.6855 660.697 613.614
18.638 2.25654 20.5431 663.629 584.731
18.7057 -3.65054 21.1122 664.72 555.26
18.5385 -9.52807 21.849 664.735 525.866
-14.4647 -14.8078 0.115965 490.515 502.038
-12.573 -16.1985 -1.57704 499.083 495.794
-10.3755 -16.8882 -2.96945 509.267 492.981
-8.09486 -17.0794 -4.33229 519.839 492.644
-5.90897 -16.7625 -5.66534 529.919 494.811
3.74676 -18.5261 -5.08493 578.1 486.926
6.38963 -19.3878 -3.93492 591.839 482.617
9.12995 -19.5974 -2.66112 606.075 481.523
11.7815 -18.8181 -1.38527 619.797 485.328
13.9751 -17.0968 0.400499 631.451 493.622
-1.64417 -11.2677 -4.97475 550.945 522.354
-1.23146 -8.33172 -7.70017 551.323 537.712
-0.790658 -5.41109 -10.4568 551.824 553.005
-0.347951 -2.49259 -13.036 552.428 568.239
-3.7217 1.03608 -6.51201 538.914 583.629
-2.18768 1.46018 -7.10885 546.151 586.059
-0.558141 1.54069 -7.63205 553.926 586.774
1.26518 1.09504 -7.15903 563.224 584.627
2.94633 0.351454 -6.49079 571.946 580.933
-11.4514 -9.72643 -1.06953 504.397 527.904
-9.99896 -10.641 -1.16406 511.598 523.544
-8.24577 -10.8298 -1.21847 520.252 522.808
-6.70712 -10.4285 -1.08764 527.897 524.929
-8.20252 -9.74902 -1.17713 520.404 528.167
-9.86758 -9.47274 -1.15276 512.164 529.355
4.81043 -11.8071 -0.636393 585.186 519.187
6.38192 -12.7839 -0.965274 592.857 514.595
8.30344 -12.8679 -0.980102 602.356 514.386
10.0955 -12.3277 -0.944918 611.193 517.249
8.46439 -11.7299 -0.917829 603.097 520.035
6.635 -11.5365 -0.898773 594.047 520.796
-5.29986 9.17131 -2.56847 532.563 622.777
-4.3979 6.60138 -4.71166 536.091 610.696
-2.50783 4.81902 -6.31334 544.729 602.483
0.0186962 4.55384 -8.08339 556.308 601.915
2.60099 4.28588 -6.68971 569.83 600.482
4.90761 5.68852 -5.01194 582.01 607.235
6.51453 7.82901 -2.60701 591.057 617.38
5.19709 10.1992 -3.91893 583.67 629.362
3.28186 12.0716 -5.34814 573.303 638.84
0.60152 12.8552 -6.53295 559.366 642.766
-2.05528 12.6621 -5.09288 547.004 641.135
-4.04193 11.2125 -3.85425 537.947 633.392
-2.26177 7.07275 -4.63572 546.656 613.242
0.0897081 6.38262 -7.28603 556.938 610.785
2.52282 6.50831 -5.07241 570.124 611.068
2.68539 9.469 -4.54068 570.98 625.638
0.264936 10.3607 -6.18058 558.08 630.252
-2.17924 9.99195 -4.16415 547.087 627.615
3 20 21 23
3 21 22 23
3 0 1 36
3 15 16 45
3 0 17 36
3 16 26 45
3 17 18 37
3 25 26 44
3 17 36 37
3 26 44 45
3 18 19 38
3 24 25 43
3 18 37 38
3 25 43 44
3 19 20 38
3 23 24 43
3 20 21 39
3 22 23 42
3 20 38 39
3 23 42 43
3 21 22 27
3 21 27 39
3 22 27 42
3 27 28 42
3 27 28 39
3 28 42 47
3 28 39 40
3 1 36 41
3 15 45 46
3 1 2 41
3 14 15 46
3 28 29 40
3 28 29 47
3 2 40 41
3 14 46 47
3 2 29 40
3 14 29 47
3 2 3 29
3 13 14 29
3 29 30 31
3 29 30 35
3 3 29 31
3 13 29 35
3 30 32 33
3 30 33 34
3 30 31 32
3 30 34 35
3 3 4 31
3 12 13 35
3 4 5 48
3 11 12 54
3 5 6 48
3 10 11 54
3 6 48 59
3 10 54 55
3 6 7 59
3 9 10 55
3 7 58 59
3 9 55 56
3 8 57 58
3 8 56 57
3 7 8 58
3 8 9 56
3 4 31 48
3 12 35 54
3 31 48 49
3 35 53 54
3 31 49 50
3 35 52 53
3 31 32 50
3 34 35 52
3 32 33 50
3 33 34 52
3 33 50 51
3 33 51 52
3 48 49 60
3 49 60 50
3 50 60 61
3 50 51 61
3 51 52 61
3 61 62 52
3 52 53 62
3 53 54 62
3 54 55 63
3 55 56 63
3 56 63 64
3 56 57 64
3 64 65 57
3 57 58 65
3 58 59 65
3 48 59 65
