ply
format ascii 1.0
element vertex 66
property float x
property float y
property float z
property float u
property float v
element face 91
property list uchar int vertex_indices
end_header
-19.0232 -5.86534 20.9579 453.112 559.926
-18.481 -0.790694 20.6035 460.669 584.116
-17.6539 4.23222 20.1805 469.547 607.807
-16.5753 9.2471 18.015 479.353 631.889
-14.88 14.2637 13.6292 491.791 656.241
-12.0053 18.7574 7.89678 509.219 677.44
-8.09787 22.3782 3.13194 530.959 693.038
-3.44272 24.9345 -0.920421 555.399 702.483
1.7865 25.5941 -4.63284 580.818 702.055
6.90025 24.4958 -0.8368 605.175 690.323
11.2966 21.6414 3.28839 624.38 670.652
14.7802 17.6855 8.09041 638.185 646.267
16.9466 12.826 13.8956 644.873 618.393
17.6276 7.34967 18.5322 643.557 589.42
17.804 1.77985 20.65 639.289 561.455
17.891 -3.78465 21.1931 634.334 534.211
17.761 -9.35039 21.5759 628.3 507.232
-15.0433 -15.1548 0.0955116 459.896 519.148
-13.185 -16.426 -1.55508 467.397 511.831
-11.02 -17.0808 -3.01999 477.021 507.132
-8.7489 -17.3175 -4.37951 487.588 504.315
-6.49496 -17.1075 -5.61697 498.53 503.63
3.56914 -17.9952 -5.51568 546.515 489.558
6.13726 -18.6186 -4.31519 558.561 483.591
8.75851 -18.6967 -2.97957 571.423 480.162
11.2782 -18.0576 -1.53802 584.514 480.263
13.3927 -16.6267 0.213829 596.467 484.471
-1.21788 -12.1346 -4.96339 529.13 522.359
-0.902194 -9.23664 -7.61642 533.075 537.114
-0.585373 -6.36013 -10.4425 536.976 551.831
-0.265679 -3.50601 -13.2695 540.869 566.438
-3.22863 0.319782 -6.13516 531.412 585.076
-1.6674 0.592737 -7.09107 539.101 585.257
-0.0633485 0.66491 -8.03488 546.802 584.42
1.56933 0.302229 -7.11739 554.518 580.73
3.12829 -0.249647 -6.22082 561.688 576.203
-11.5182 -9.93303 -0.941536 481.962 541.429
-10.3004 -10.9396 -1.16524 486.847 535.463
-8.69774 -11.17 -1.29423 494.377 532.847
-7.24066 -10.7346 -1.14393 501.901 533.489
-8.55095 -9.95088 -1.11339 496.317 538.539
-10.0655 -9.6863 -1.02649 489.24 541.252
5.2803 -11.7176 -0.979526 561.725 516.554
6.69817 -12.4531 -1.28253 567.834 511.738
8.35517 -12.432 -1.14265 575.918 510.183
9.77117 -11.6835 -0.872533 583.569 512.335
8.3387 -11.2171 -0.922376 577.068 515.998
6.76087 -11.208 -0.975093 569.411 517.589
-7.17832 9.15579 -2.69347 521.485 630.361
-5.12007 7.09145 -4.78845 529.104 619.182
-2.5213 5.59593 -6.46072 539.973 610.071
0.497958 5.52016 -7.99885 554.3 607.379
3.51575 5.10848 -6.50623 568.784 601.889
6.37582 6.16862 -4.7832 583.986 603.592
8.83889 7.78801 -2.55372 597.894 608.191
6.65482 9.77908 -3.89629 589.031 620.465
3.93137 11.0352 -5.11942 576.848 629.656
0.926635 11.5702 -6.45009 562.575 635.667
-2.07531 11.5376 -5.12247 548.192 637.9
-4.87138 10.7552 -3.95343 534.045 636.363
-2.40408 7.79198 -4.94906 542.946 620.01
0.623065 7.52312 -7.26498 556.994 616.675
3.65748 7.2769 -5.08088 571.835 611.703
3.76169 8.56555 -4.52507 573.697 617.629
0.698266 9.08915 -6.31589 559.052 623.82
-2.3826 9.06748 -4.42666 544.388 625.965
3 20 21 23
3 21 22 23
3 0 1 36
3 15 16 45
3 0 17 36
3 16 26 45
3 17 18 37
3 25 26 44
3 17 36 37
3 26 44 45
3 18 19 38
3 24 25 43
3 18 37 38
3 25 43 44
3 19 20 38
3 23 24 43
3 20 21 39
3 22 23 42
3 20 38 39
3 23 42 43
3 21 22 27
3 21 27 39
3 22 27 42
3 27 28 42
3 27 28 39
3 28 42 47
3 28 39 40
3 1 36 41
3 15 45 46
3 1 2 41
3 14 15 46
3 28 29 40
3 28 29 47
3 2 40 41
3 14 46 47
3 2 29 40
3 14 29 47
3 2 3 29
3 13 14 29
3 29 30 31
3 29 30 35
3 3 29 31
3 13 29 35
3 30 32 33
3 30 33 34
3 30 31 32
3 30 34 35
3 3 4 31
3 12 13 35
3 4 5 48
3 11 12 54
3 5 6 48
3 10 11 54
3 6 48 59
3 10 54 55
3 6 7 59
3 9 10 55
3 7 58 59
3 9 55 56
3 8 57 58
3 8 56 57
3 7 8 58
3 8 9 56
3 4 31 48
3 12 35 54
3 31 48 49
3 35 53 54
3 31 49 50
3 35 52 53
3 31 32 50
3 34 35 52
3 32 33 50
3 33 34 52
3 33 50 51
3 33 51 52
3 48 49 60
3 49 60 50
3 50 60 61
3 50 51 61
3 51 52 61
3 61 62 52
3 52 53 62
3 53 54 62
3 54 55 63
3 55 56 63
3 56 63 64
3 56 57 64
3 64 65 57
3 57 58 65
3 58 59 65
3 48 59 65
