ply
format ascii 1.0
element vertex 66
property float x
property float y
property float z
property float u
property float v
element face 91
property list uchar int vertex_indices
end_header
-21.3008 -7.11285 21.4624 482.661 529.402
-20.7624 -1.21619 20.85 484.012 557.299
-19.9414 4.67496 20.3456 486.578 585.201
-18.7664 10.4019 18.7042 491.771 612.76
-17.0048 15.5573 13.2706 502.995 638.924
-13.8146 19.772 7.73309 521.154 661.043
-9.44221 22.8826 3.33159 544.124 677.923
-4.3134 24.7015 -0.827181 570.738 688.858
1.22826 24.9412 -4.7616 599.507 692.431
6.89226 23.8784 -0.593317 622.438 687.49
11.6826 20.9717 3.59346 641.838 673.718
15.5043 16.9639 7.8992 656.98 654.537
18.2775 12.3053 13.2947 666.558 631.742
19.8221 7.24029 18.513 670.733 606.82
20.4962 1.89226 20.2301 673.896 581.433
20.541 -3.54764 20.613 675.298 555.876
20.1644 -8.96404 20.9963 674.75 530.332
-16.8606 -13.6969 0.123689 522.787 506.055
-14.8816 -15.9602 -1.85199 534.191 496.513
-12.1965 -17.1959 -3.07678 547.938 491.714
-9.25529 -17.4047 -4.26294 562.548 491.766
-6.3321 -16.9119 -5.27464 576.734 495.043
3.50339 -17.1198 -5.25641 622.125 496.306
6.06066 -17.945 -4.15086 633.223 492.695
8.77604 -18.1525 -2.92488 644.777 491.972
11.4328 -17.5374 -1.63758 655.78 495.067
13.6548 -15.8844 0.336329 663.917 502.711
-0.468237 -11.7327 -4.94006 602.049 520.511
-0.296106 -8.41202 -8.01633 604.486 537.016
-0.135981 -5.07617 -10.8363 606.65 553.512
0.0269582 -1.72035 -13.1765 608.421 569.957
-2.72715 1.45025 -6.48438 589.251 582.142
-1.13809 1.92804 -7.21399 597.054 584.96
0.571798 2.07306 -7.88615 605.459 586.231
2.14768 1.73909 -6.99072 612.07 584.757
3.51939 1.05961 -6.38558 618.079 581.708
-11.3038 -10.0613 -1.44801 548.707 524.807
-9.71674 -11.0527 -1.49902 556.343 520.545
-7.81134 -11.32 -1.21523 564.966 519.643
-6.03156 -10.596 -0.632627 572.484 523.26
-7.72105 -9.89893 -1.02602 564.829 526.255
-9.54217 -9.74956 -1.17386 556.514 526.584
4.35167 -11.0933 -0.564795 620.44 523.279
5.94177 -11.9251 -1.14802 628.49 519.926
7.78651 -11.9695 -1.34933 637.177 520.199
9.41697 -11.1852 -1.18334 644.337 524.191
7.78159 -10.6296 -0.970493 636.464 526.353
6.02049 -10.6026 -0.838634 628.227 526.038
-4.64092 8.16887 -2.60628 575.318 611.969
-3.16929 6.49121 -5.07948 584.636 605.202
-1.33092 5.33238 -6.8099 594.88 600.722
0.758983 5.45017 -8.27005 605.702 602.19
2.79796 5.08915 -6.40757 613.649 600.404
4.68059 5.96572 -4.71419 620.671 604.422
6.18584 7.51258 -2.33162 625.19 611.283
4.74702 8.47724 -3.46286 619.232 615.81
3.00939 9.00503 -4.91526 612.287 618.322
1.04945 9.14571 -6.72993 604.726 619.082
-0.932405 9.20739 -5.23189 594.32 618.466
-2.84307 8.92919 -3.65962 584.275 616.254
-0.418128 7.20137 -5.17827 597.205 609.182
0.929519 7.1058 -6.7459 604.755 609.515
2.25444 7.0839 -4.79157 609.237 609.124
2.28118 6.97426 -4.16539 608.868 608.428
0.968205 6.98481 -6.10919 604.435 608.766
-0.359767 7.11653 -4.49065 596.924 608.59
3 20 21 23
3 21 22 23
3 0 1 36
3 15 16 45
3 0 17 36
3 16 26 45
3 17 18 37
3 25 26 44
3 17 36 37
3 26 44 45
3 18 19 38
3 24 25 43
3 18 37 38
3 25 43 44
3 19 20 38
3 23 24 43
3 20 21 39
3 22 23 42
3 20 38 39
3 23 42 43
3 21 22 27
3 21 27 39
3 22 27 42
3 27 28 42
3 27 28 39
3 28 42 47
3 28 39 40
3 1 36 41
3 15 45 46
3 1 2 41
3 14 15 46
3 28 29 40
3 28 29 47
3 2 40 41
3 14 46 47
3 2 29 40
3 14 29 47
3 2 3 29
3 13 14 29
3 29 30 31
3 29 30 35
3 3 29 31
3 13 29 35
3 30 32 33
3 30 33 34
3 30 31 32
3 30 34 35
3 3 4 31
3 12 13 35
3 4 5 48
3 11 12 54
3 5 6 48
3 10 11 54
3 6 48 59
3 10 54 55
3 6 7 59
3 9 10 55
3 7 58 59
3 9 55 56
3 8 57 58
3 8 56 57
3 7 8 58
3 8 9 56
3 4 31 48
3 12 35 54
3 31 48 49
3 35 53 54
3 31 49 50
3 35 52 53
3 31 32 50
3 34 35 52
3 32 33 50
3 33 34 52
3 33 50 51
3 33 51 52
3 48 49 60
3 49 60 50
3 50 60 61
3 50 51 61
3 51 52 61
3 61 62 52
3 52 53 62
3 53 54 62
3 54 55 63
3 55 56 63
3 56 63 64
3 56 57 64
3 64 65 57
3 57 58 65
3 58 59 65
3 48 59 65
