ply
format ascii 1.0
element vertex 66
property float x
property float y
property float z
property float u
property float v
element face 91
property list uchar int vertex_indices
end_header
-18.3841 -6.09904 20.9069 456.349 549.226
-17.9392 -0.931542 20.4741 462.659 574.999
-17.2362 4.20805 20.1141 470.248 600.386
-16.2796 9.23896 18.063 479.013 626.052
-14.7769 14.127 13.8301 490.397 651.892
-12.15 18.5065 7.98353 507.029 675.281
-8.3947 22.0356 3.06116 528.687 692.976
-3.8501 24.5846 -0.887695 553.559 704.563
1.35059 25.1995 -4.62593 580.216 705.83
6.59455 24.2471 -0.824648 605.929 694.675
11.0074 21.3836 3.18775 625.95 674.477
14.4978 17.5098 8.08876 640.535 649.409
16.6867 12.8141 13.9511 647.923 620.664
17.4644 7.52163 18.4487 647.715 590.859
17.6488 1.98702 20.5075 644.303 561.777
17.6246 -3.64298 21.0142 639.749 533.316
17.3611 -9.26878 21.3851 633.992 505.145
-14.6702 -15.3774 0.0540421 467.55 512.468
-12.9804 -16.7345 -1.49054 474.981 505.288
-10.9406 -17.4553 -2.95401 484.678 500.969
-8.79595 -17.7342 -4.36202 495.253 498.747
-6.6723 -17.5708 -5.66336 506.071 498.69
3.56754 -18.4842 -5.53217 556.956 486.039
5.92366 -19.0652 -4.25772 568.384 480.522
8.35709 -19.1202 -2.87965 580.617 477.515
10.7211 -18.5081 -1.42226 593.027 477.852
12.7023 -17.0997 0.222801 604.137 482.36
-1.11811 -12.394 -5.01841 538.147 519.868
-0.810962 -9.77303 -7.58257 541.735 534.29
-0.50614 -7.17799 -10.3281 545.289 548.694
-0.20352 -4.60116 -13.1419 548.818 563.049
-2.87596 -0.0552579 -5.92344 539.003 583.533
-1.40414 0.0669206 -7.00002 546.505 583.644
0.0931175 0.0447899 -8.01969 554.023 582.978
1.57976 -0.202425 -6.99818 561.33 579.964
3.01615 -0.597795 -6.07779 568.266 576.308
-11.5001 -10.1531 -1.01028 487.632 536.777
-10.3139 -11.2143 -1.07045 492.773 530.575
-8.69359 -11.4747 -1.16251 500.733 528.062
-7.26085 -10.9822 -1.13685 508.341 529.391
-8.52902 -10.0476 -1.20648 502.686 535.102
-10.0662 -9.77996 -1.07551 495.152 537.563
5.08665 -11.9557 -0.849046 569.801 514.698
6.43391 -12.7688 -1.14101 575.947 509.753
8.10311 -12.7886 -1.04545 584.344 508.292
9.51641 -12.0144 -0.917122 592.078 510.985
8.15239 -11.3637 -0.912997 585.717 515.304
6.55444 -11.3377 -0.955967 577.684 516.709
-6.13253 9.68088 -2.78796 530.294 632.909
-4.10773 7.97478 -4.794 539.134 623.999
-1.86405 6.54018 -6.5337 549.293 616.116
0.721094 6.47898 -8.16571 562.257 614.774
3.28068 6.11548 -6.53955 574.885 609.975
5.73836 7.15168 -4.76368 588.104 612.169
8.0443 8.43353 -2.58792 600.756 615.47
6.25638 10.4354 -4.09714 593.309 627.795
3.86665 11.7598 -5.32641 582.298 637.031
1.07416 12.2831 -6.61435 568.625 642.608
-1.68958 12.2048 -5.34968 554.648 643.613
-4.16945 11.3254 -4.10795 541.47 640.402
-1.80587 8.64724 -4.89344 551.263 625.626
0.833538 8.32329 -7.22657 564.286 623.35
3.44856 8.20504 -4.96997 577.393 619.354
3.56858 9.26169 -4.50378 578.835 624.266
0.885572 9.76735 -6.13741 565.697 629.879
-1.83468 9.71064 -4.41973 551.96 630.684
3 20 21 23
3 21 22 23
3 0 1 36
3 15 16 45
3 0 17 36
3 16 26 45
3 17 18 37
3 25 26 44
3 17 36 37
3 26 44 45
3 18 19 38
3 24 25 43
3 18 37 38
3 25 43 44
3 19 20 38
3 23 24 43
3 20 21 39
3 22 23 42
3 20 38 39
3 23 42 43
3 21 22 27
3 21 27 39
3 22 27 42
3 27 28 42
3 27 28 39
3 28 42 47
3 28 39 40
3 1 36 41
3 15 45 46
3 1 2 41
3 14 15 46
3 28 29 40
3 28 29 47
3 2 40 41
3 14 46 47
3 2 29 40
3 14 29 47
3 2 3 29
3 13 14 29
3 29 30 31
3 29 30 35
3 3 29 31
3 13 29 35
3 30 32 33
3 30 33 34
3 30 31 32
3 30 34 35
3 3 4 31
3 12 13 35
3 4 5 48
3 11 12 54
3 5 6 48
3 10 11 54
3 6 48 59
3 10 54 55
3 6 7 59
3 9 10 55
3 7 58 59
3 9 55 56
3 8 57 58
3 8 56 57
3 7 8 58
3 8 9 56
3 4 31 48
3 12 35 54
3 31 48 49
3 35 53 54
3 31 49 50
3 35 52 53
3 31 32 50
3 34 35 52
3 32 33 50
3 33 34 52
3 33 50 51
3 33 51 52
3 48 49 60
3 49 60 50
3 50 60 61
3 50 51 61
3 51 52 61
3 61 62 52
3 52 53 62
3 53 54 62
3 54 55 63
3 55 56 63
3 56 63 64
3 56 57 64
3 64 65 57
3 57 58 65
3 58 59 65
3 48 59 65
