ply
format ascii 1.0
element vertex 66
property float x
property float y
property float z
property float u
property float v
element face 91
property list uchar int vertex_indices
end_header
-19.1042 -5.87687 20.9529 450.193 556.866
-18.6091 -0.712267 20.639 457.373 581.092
-17.834 4.40844 20.1948 465.831 604.895
-16.8157 9.49413 18.1648 475.234 628.869
-15.1693 14.4885 13.6067 487.257 652.723
-12.2852 18.9394 7.96307 504.547 673.224
-8.34851 22.5404 3.24681 526.163 688.375
-3.61384 25.0083 -0.882385 550.586 697.183
1.6972 25.5591 -4.61121 576.001 696.191
6.92166 24.5195 -0.847679 600.366 685.052
11.3859 21.6751 3.36503 619.46 665.872
14.9202 17.7198 8.1371 633.141 642.072
17.1383 12.8964 13.8872 639.841 615.017
17.8442 7.4539 18.6121 638.632 586.786
18.0208 1.83712 20.6672 634.429 559.166
18.069 -3.81025 21.2442 629.417 532.044
17.8813 -9.46036 21.5564 623.247 505.222
-15.0897 -14.7447 0.106959 458.615 518.339
-13.2926 -16.1307 -1.66254 465.679 510.702
-11.1366 -16.8757 -3.0954 475.094 505.662
-8.85259 -17.2085 -4.41645 485.521 502.424
-6.56486 -17.1132 -5.60623 496.383 501.174
3.45697 -17.9021 -5.51734 543.437 488.073
6.00263 -18.5276 -4.31771 555.125 482.305
8.61244 -18.631 -2.9773 567.625 478.911
11.1539 -18.1086 -1.53978 580.399 478.524
13.3498 -16.7837 0.207723 592.314 482.167
-1.19152 -12.5392 -4.9719 526.376 517.719
-0.892978 -9.46448 -7.64539 530.384 533.021
-0.589361 -6.41644 -10.5038 534.369 548.258
-0.28032 -3.3873 -13.3176 538.368 563.383
-3.21993 0.611814 -6.22055 528.922 582.625
-1.66035 0.82693 -7.13072 536.457 582.522
-0.0605737 0.855798 -8.03078 544.009 581.492
1.59368 0.542216 -7.14119 551.704 578.146
3.18428 0.0510058 -6.27255 558.926 574.022
-11.2702 -10.1779 -0.969086 480.997 536.901
-9.88061 -11.5197 -1.25262 486.329 529.326
-7.96139 -11.6985 -1.35443 495.3 526.727
-6.3148 -10.8076 -1.00892 504.028 529.314
-7.85496 -9.96162 -1.05835 497.474 534.788
-9.61581 -9.69882 -1.02199 489.329 537.662
4.73202 -11.7587 -0.87515 555.823 514.473
6.26487 -12.9753 -1.2946 561.94 507.408
8.22811 -13.0481 -1.15436 571.249 505.186
9.86328 -11.998 -0.834022 580.069 508.549
8.26864 -11.2623 -0.888169 573.151 513.552
6.44781 -11.2034 -0.924491 564.52 515.538
-7.04668 9.21848 -2.64246 519.175 625.865
-4.91136 7.31483 -4.82813 527.317 615.598
-2.36531 5.95326 -6.55184 537.98 607.365
0.507106 5.95356 -8.02584 551.508 605.22
3.37649 5.50122 -6.56512 564.932 599.882
6.14933 6.46013 -4.79181 579.257 601.237
8.64978 7.92122 -2.52239 592.813 605.06
6.41188 9.64672 -3.92198 583.604 615.847
3.70151 10.6413 -5.15519 571.474 623.537
0.834749 11.0371 -6.45686 558.028 628.547
-1.99898 11.1124 -5.15989 544.735 631.079
-4.7459 10.5824 -3.92256 531.281 630.671
-2.36682 8.16201 -4.97855 540.229 617.318
0.621637 7.94535 -7.15941 554.025 614.283
3.61307 7.66256 -5.10662 568.258 609.428
3.62915 8.16081 -4.55865 568.866 611.59
0.61281 8.45102 -6.40325 554.545 616.429
-2.39557 8.65081 -4.45643 540.611 619.485
3 20 21 23
3 21 22 23
3 0 1 36
3 15 16 45
3 0 17 36
3 16 26 45
3 17 18 37
3 25 26 44
3 17 36 37
3 26 44 45
3 18 19 38
3 24 25 43
3 18 37 38
3 25 43 44
3 19 20 38
3 23 24 43
3 20 21 39
3 22 23 42
3 20 38 39
3 23 42 43
3 21 22 27
3 21 27 39
3 22 27 42
3 27 28 42
3 27 28 39
3 28 42 47
3 28 39 40
3 1 36 41
3 15 45 46
3 1 2 41
3 14 15 46
3 28 29 40
3 28 29 47
3 2 40 41
3 14 46 47
3 2 29 40
3 14 29 47
3 2 3 29
3 13 14 29
3 29 30 31
3 29 30 35
3 3 29 31
3 13 29 35
3 30 32 33
3 30 33 34
3 30 31 32
3 30 34 35
3 3 4 31
3 12 13 35
3 4 5 48
3 11 12 54
3 5 6 48
3 10 11 54
3 6 48 59
3 10 54 55
3 6 7 59
3 9 10 55
3 7 58 59
3 9 55 56
3 8 57 58
3 8 56 57
3 7 8 58
3 8 9 56
3 4 31 48
3 12 35 54
3 31 48 49
3 35 53 54
3 31 49 50
3 35 52 53
3 31 32 50
3 34 35 52
3 32 33 50
3 33 34 52
3 33 50 51
3 33 51 52
3 48 49 60
3 49 60 50
3 50 60 61
3 50 51 61
3 51 52 61
3 61 62 52
3 52 53 62
3 53 54 62
3 54 55 63
3 55 56 63
3 56 63 64
3 56 57 64
3 64 65 57
3 57 58 65
3 58 59 65
3 48 59 65
