ply
format ascii 1.0
element vertex 66
property float x
property float y
property float z
property float u
property float v
element face 91
property list uchar int vertex_indices
end_header
-20.1596 -7.375 21.8364 475.401 526.472
-19.4816 -1.48981 21.4637 477.637 553.7
-18.6638 4.36707 20.7924 480.651 580.881
-17.7209 10.2031 18.559 484.938 608.309
-16.2124 15.6993 13.6368 493.072 634.819
-13.0743 20.0208 7.87605 509.246 656.358
-8.74741 23.0572 3.17381 530.616 671.959
-3.85833 24.9512 -1.0086 554.528 682.29
1.34933 25.3454 -4.90714 580.036 685.72
6.687 24.0187 -0.704811 602.83 679.589
11.2038 20.7968 3.45546 622.219 664.629
14.7964 16.5555 8.07273 637.352 644.746
17.3467 11.6405 13.6607 647.4 621.404
18.6742 6.46381 18.1371 652.391 596.898
19.1248 1.48762 20.3772 654.329 573.637
19.0724 -3.41805 20.7072 654.804 551.017
18.6476 -8.32796 20.8736 653.647 528.353
-16.763 -14.0421 0.00555836 501.85 500.872
-14.7245 -15.8892 -1.69822 512.265 493.054
-12.0766 -16.8279 -3.07728 525.166 489.439
-9.23887 -16.946 -4.3821 538.759 489.609
-6.37323 -16.5207 -5.46674 552.286 492.235
4.01436 -16.4242 -5.73438 599.94 494.356
6.14602 -16.9317 -4.46072 609.22 492.094
8.36553 -17.0874 -3.07229 618.789 491.438
10.5745 -16.9259 -1.57003 628.203 492.215
12.568 -16.0276 0.181096 636.391 496.293
0.0896859 -11.5257 -4.93397 580.757 516.089
0.197156 -8.88641 -7.78285 582.055 528.823
0.275107 -6.25262 -10.6678 583.235 541.534
0.338652 -3.63366 -13.4127 584.289 554.146
-2.80011 -0.111634 -6.18536 566.081 568.349
-0.952519 0.203379 -7.14938 574.913 570.284
0.939969 0.335403 -8.14354 583.997 571.392
2.51748 0.0661727 -6.96899 590.742 570.158
4.01432 -0.408275 -6.00445 597.247 568.013
-12.1238 -10.2593 -1.01016 522.875 519.19
-10.5958 -11.3452 -1.23544 530.161 514.485
-8.68309 -11.6261 -1.2911 538.991 513.505
-6.94667 -10.8112 -0.877514 546.613 517.436
-8.59493 -10.0539 -0.957736 538.97 520.675
-10.4106 -9.89988 -0.975678 530.639 521.103
5.17812 -11.1122 -0.959851 602.207 517.963
6.68306 -11.8703 -1.26858 609.367 514.778
8.47516 -11.9069 -1.19294 617.543 514.874
9.94784 -10.9144 -0.919264 623.989 519.609
8.40191 -10.3835 -0.942911 616.829 521.812
6.70907 -10.4662 -0.933578 609.09 521.165
-7.70516 8.29093 -2.72113 540.607 605.481
-5.25129 6.42197 -4.93803 553.157 597.733
-2.38133 5.09975 -6.65796 567.294 592.461
0.7788 5.20918 -8.07114 582.37 593.749
3.77953 4.82417 -6.24103 595.359 592.07
6.56501 5.82339 -4.54182 607.178 596.746
8.833 7.62192 -2.48184 616.326 604.94
6.84806 9.49432 -3.73067 607.467 613.493
4.1129 10.4919 -5.00012 595.337 617.912
1.14281 10.7952 -6.68257 582.437 619.189
-1.98798 10.6914 -5.32122 567.516 617.942
-5.02658 9.92832 -3.98033 553.143 613.684
-2.40226 7.24683 -5.36524 566.245 602.057
0.963698 7.24557 -7.16071 582.453 602.948
4.18269 7.0125 -4.77939 596.169 601.888
4.37294 7.89407 -4.21113 596.632 605.851
1.12561 8.22858 -6.3369 582.655 607.32
-2.28159 8.16934 -4.69113 566.335 606.176
3 20 21 23
3 21 22 23
3 0 1 36
3 15 16 45
3 0 17 36
3 16 26 45
3 17 18 37
3 25 26 44
3 17 36 37
3 26 44 45
3 18 19 38
3 24 25 43
3 18 37 38
3 25 43 44
3 19 20 38
3 23 24 43
3 20 21 39
3 22 23 42
3 20 38 39
3 23 42 43
3 21 22 27
3 21 27 39
3 22 27 42
3 27 28 42
3 27 28 39
3 28 42 47
3 28 39 40
3 1 36 41
3 15 45 46
3 1 2 41
3 14 15 46
3 28 29 40
3 28 29 47
3 2 40 41
3 14 46 47
3 2 29 40
3 14 29 47
3 2 3 29
3 13 14 29
3 29 30 31
3 29 30 35
3 3 29 31
3 13 29 35
3 30 32 33
3 30 33 34
3 30 31 32
3 30 34 35
3 3 4 31
3 12 13 35
3 4 5 48
3 11 12 54
3 5 6 48
3 10 11 54
3 6 48 59
3 10 54 55
3 6 7 59
3 9 10 55
3 7 58 59
3 9 55 56
3 8 57 58
3 8 56 57
3 7 8 58
3 8 9 56
3 4 31 48
3 12 35 54
3 31 48 49
3 35 53 54
3 31 49 50
3 35 52 53
3 31 32 50
3 34 35 52
3 32 33 50
3 33 34 52
3 33 50 51
3 33 51 52
3 48 49 60
3 49 60 50
3 50 60 61
3 50 51 61
3 51 52 61
3 61 62 52
3 52 53 62
3 53 54 62
3 54 55 63
3 55 56 63
3 56 63 64
3 56 57 64
3 64 65 57
3 57 58 65
3 58 59 65
3 48 59 65
