ply
format ascii 1.0
element vertex 66
property float x
property float y
property float z
property float u
property float v
element face 91
property list uchar int vertex_indices
end_header
-18.9668 -5.86863 20.9578 453.595 557.487
-18.4252 -0.792258 20.581 460.941 581.857
-17.5912 4.23192 20.1576 469.659 605.721
-16.5029 9.2501 18.0076 479.336 630.04
-14.7982 14.2722 13.6627 491.673 654.721
-11.9405 18.7825 7.88058 508.927 676.445
-8.06097 22.4456 3.09492 530.533 692.687
-3.41343 25.0299 -0.933676 554.994 702.654
1.81752 25.6951 -4.62922 580.556 702.602
6.9094 24.5456 -0.845499 604.931 690.736
11.2603 21.6327 3.2605 624.088 670.836
14.6915 17.6346 8.07992 637.851 646.204
16.8446 12.7752 13.9197 644.732 618.135
17.5521 7.3134 18.5292 643.797 588.978
17.7449 1.75921 20.6282 639.861 560.889
17.8421 -3.78769 21.1723 635.216 533.57
17.7175 -9.33722 21.5762 629.465 506.501
-14.892 -15.3225 0.0935075 461.271 516.376
-13.0637 -16.5445 -1.52501 468.787 509.412
-10.9431 -17.1733 -2.9956 478.311 505.006
-8.72321 -17.4077 -4.36457 488.705 502.386
-6.52151 -17.1992 -5.61686 499.445 501.89
3.72043 -18.1669 -5.49478 548.539 487.68
6.22919 -18.7625 -4.29225 560.416 481.966
8.78756 -18.8197 -2.95167 573.062 478.77
11.2397 -18.1726 -1.50553 585.868 479.057
13.2825 -16.7559 0.233376 597.445 483.347
-1.22569 -12.0868 -4.93987 530.196 521.611
-0.920672 -9.232 -7.59612 533.939 536.331
-0.613702 -6.39914 -10.4314 537.642 551.017
-0.304134 -3.5902 -13.2847 541.333 565.591
-3.32023 0.382718 -6.14455 531.484 584.747
-1.72756 0.675381 -7.10306 539.378 585.101
-0.0879039 0.755665 -8.04071 547.306 584.369
1.57536 0.380143 -7.13275 555.215 580.629
3.15941 -0.194629 -6.23834 562.549 575.998
-11.6374 -9.90745 -0.915403 482.074 540.153
-10.4135 -10.9398 -1.14766 487.041 534.095
-8.78629 -11.1797 -1.30307 494.732 531.491
-7.31282 -10.7289 -1.17589 502.366 532.273
-8.63107 -9.90359 -1.13199 496.715 537.489
-10.1692 -9.6362 -1.02432 489.477 540.165
5.32376 -11.7389 -1.00764 563.114 515.628
6.75321 -12.496 -1.28868 569.335 510.741
8.43593 -12.4784 -1.11974 577.59 509.204
9.86301 -11.7033 -0.838886 585.327 511.544
8.4209 -11.2047 -0.911409 578.746 515.332
6.81923 -11.1937 -0.987339 570.927 516.894
-7.12126 9.08114 -2.67473 521.653 629.157
-5.01545 7.1612 -4.76607 529.794 618.737
-2.44075 5.77827 -6.46365 540.789 610.335
0.497955 5.73226 -8.01708 554.839 608.045
3.42837 5.2894 -6.51827 568.964 602.563
6.24983 6.22656 -4.76944 583.893 603.796
8.73998 7.68981 -2.53041 597.776 607.691
6.60074 9.72106 -3.90726 589.023 620.125
3.90415 11.0076 -5.14242 576.873 629.39
0.925903 11.561 -6.45757 562.647 635.378
-2.05475 11.5209 -5.1416 548.274 637.386
-4.84064 10.7185 -3.97436 534.112 635.564
-2.3598 7.92113 -4.93819 543.439 620.058
0.628735 7.71043 -7.28576 557.451 617.251
3.61328 7.40046 -5.07148 572.079 612.068
3.73101 8.53015 -4.52224 573.802 617.231
0.690111 9.06866 -6.30788 559.181 623.4
-2.36999 9.04357 -4.42838 544.524 625.32
3 20 21 23
3 21 22 23
3 0 1 36
3 15 16 45
3 0 17 36
3 16 26 45
3 17 18 37
3 25 26 44
3 17 36 37
3 26 44 45
3 18 19 38
3 24 25 43
3 18 37 38
3 25 43 44
3 19 20 38
3 23 24 43
3 20 21 39
3 22 23 42
3 20 38 39
3 23 42 43
3 21 22 27
3 21 27 39
3 22 27 42
3 27 28 42
3 27 28 39
3 28 42 47
3 28 39 40
3 1 36 41
3 15 45 46
3 1 2 41
3 14 15 46
3 28 29 40
3 28 29 47
3 2 40 41
3 14 46 47
3 2 29 40
3 14 29 47
3 2 3 29
3 13 14 29
3 29 30 31
3 29 30 35
3 3 29 31
3 13 29 35
3 30 32 33
3 30 33 34
3 30 31 32
3 30 34 35
3 3 4 31
3 12 13 35
3 4 5 48
3 11 12 54
3 5 6 48
3 10 11 54
3 6 48 59
3 10 54 55
3 6 7 59
3 9 10 55
3 7 58 59
3 9 55 56
3 8 57 58
3 8 56 57
3 7 8 58
3 8 9 56
3 4 31 48
3 12 35 54
3 31 48 49
3 35 53 54
3 31 49 50
3 35 52 53
3 31 32 50
3 34 35 52
3 32 33 50
3 33 34 52
3 33 50 51
3 33 51 52
3 48 49 60
3 49 60 50
3 50 60 61
3 50 51 61
3 51 52 61
3 61 62 52
3 52 53 62
3 53 54 62
3 54 55 63
3 55 56 63
3 56 63 64
3 56 57 64
3 64 65 57
3 57 58 65
3 58 59 65
3 48 59 65
