ply
format ascii 1.0
element vertex 66
property float x
property float y
property float z
property float u
property float v
element face 91
property list uchar int vertex_indices
end_header
-18.9557 -6.37972 21.1147 449.128 557.155
-18.455 -1.03855 20.7443 457.339 582.153
-17.7113 4.27316 20.2814 466.696 606.777
-16.7962 9.53199 18.2833 477.137 631.458
-15.3306 14.626 13.6783 490.575 655.594
-12.5402 19.0782 7.9896 509.869 675.583
-8.60466 22.5984 3.23358 533.425 689.589
-3.87607 24.9766 -0.87898 559.399 697.09
1.41375 25.5059 -4.64966 585.989 695.07
6.73618 24.5246 -0.839721 609.515 683.382
11.2599 21.6443 3.33894 627.111 663.405
14.8206 17.6489 8.09407 638.794 638.983
17.0955 12.8388 13.8231 643.264 611.767
17.8983 7.48341 18.4854 640.35 583.901
18.0972 1.98124 20.5532 634.946 556.828
18.0975 -3.56355 21.0866 628.871 530.262
17.8268 -9.10782 21.3647 621.558 504.076
-15.3424 -14.7106 0.0928503 461.823 520.338
-13.5724 -16.2123 -1.67304 469.02 511.833
-11.3965 -17.0471 -3.08541 478.796 505.948
-9.06914 -17.3917 -4.39599 489.801 502.197
-6.72585 -17.2934 -5.56875 501.329 500.494
3.40396 -17.8467 -5.52885 549.035 486.828
5.80276 -18.4271 -4.29566 559.591 481.059
8.27833 -18.5246 -2.95862 571.011 477.471
10.7099 -18.0973 -1.51827 582.763 476.396
12.8637 -16.9095 0.22212 593.946 479.147
-0.927835 -12.4919 -4.98153 534.021 516.853
-0.646085 -9.47788 -7.699 539.178 531.768
-0.368214 -6.48641 -10.5501 544.321 546.624
-0.0892274 -3.5083 -13.3141 549.437 561.386
-3.0744 0.605499 -6.22502 538.133 581.932
-1.43129 0.829973 -7.14307 546.404 581.509
0.255872 0.860782 -8.0363 554.671 580.108
1.91552 0.563227 -7.1014 562.069 576.585
3.50028 0.0666603 -6.27792 568.92 572.233
-11.3179 -10.2986 -0.978998 485.987 537.306
-9.92937 -11.6279 -1.2451 491.235 529.554
-8.01787 -11.8088 -1.34493 500.178 526.646
-6.38091 -10.8584 -1.00973 508.936 529.281
-7.92032 -10.0145 -1.08439 502.518 534.997
-9.67728 -9.7854 -1.03456 494.375 537.983
4.63544 -11.6586 -0.846198 560.578 513.436
6.10801 -12.8736 -1.29351 566.388 506.195
8.02547 -12.9853 -1.15455 575.383 503.533
9.62473 -11.936 -0.819976 584.068 506.68
8.08675 -11.1522 -0.879191 577.589 512.103
6.30444 -11.0952 -0.900421 569.155 514.32
-6.94702 9.17737 -2.65096 528.133 625.797
-4.75262 7.28483 -4.8704 537.029 615.116
-2.18484 5.91413 -6.61438 548.168 606.359
0.692146 5.91466 -8.1045 562.202 603.712
3.53131 5.50461 -6.50946 574.966 598.158
6.25818 6.4862 -4.74259 588.654 599.295
8.69328 8.00509 -2.48658 601.426 603.15
6.55906 9.76631 -3.9061 593.441 614.312
3.87719 10.773 -5.11879 581.989 622.412
1.00495 11.1225 -6.50439 568.959 627.646
-1.84962 11.1753 -5.19359 555.126 630.581
-4.61078 10.5943 -3.90996 541.063 630.405
-2.17215 8.16809 -5.02476 550.318 616.563
0.823191 7.95708 -7.11794 564.816 612.974
3.78439 7.73129 -5.00491 578.251 607.998
3.83244 8.23526 -4.49851 578.916 610.181
0.837744 8.48636 -6.32722 565.289 615.223
-2.17624 8.67492 -4.48803 550.731 618.807
3 20 21 23
3 21 22 23
3 0 1 36
3 15 16 45
3 0 17 36
3 16 26 45
3 17 18 37
3 25 26 44
3 17 36 37
3 26 44 45
3 18 19 38
3 24 25 43
3 18 37 38
3 25 43 44
3 19 20 38
3 23 24 43
3 20 21 39
3 22 23 42
3 20 38 39
3 23 42 43
3 21 22 27
3 21 27 39
3 22 27 42
3 27 28 42
3 27 28 39
3 28 42 47
3 28 39 40
3 1 36 41
3 15 45 46
3 1 2 41
3 14 15 46
3 28 29 40
3 28 29 47
3 2 40 41
3 14 46 47
3 2 29 40
3 14 29 47
3 2 3 29
3 13 14 29
3 29 30 31
3 29 30 35
3 3 29 31
3 13 29 35
3 30 32 33
3 30 33 34
3 30 31 32
3 30 34 35
3 3 4 31
3 12 13 35
3 4 5 48
3 11 12 54
3 5 6 48
3 10 11 54
3 6 48 59
3 10 54 55
3 6 7 59
3 9 10 55
3 7 58 59
3 9 55 56
3 8 57 58
3 8 56 57
3 7 8 58
3 8 9 56
3 4 31 48
3 12 35 54
3 31 48 49
3 35 53 54
3 31 49 50
3 35 52 53
3 31 32 50
3 34 35 52
3 32 33 50
3 33 34 52
3 33 50 51
3 33 51 52
3 48 49 60
3 49 60 50
3 50 60 61
3 50 51 61
3 51 52 61
3 61 62 52
3 52 53 62
3 53 54 62
3 54 55 63
3 55 56 63
3 56 63 64
3 56 57 64
3 64 65 57
3 57 58 65
3 58 59 65
3 48 59 65
