ply
format ascii 1.0
element vertex 66
property float x
property float y
property float z
property float u
property float v
element face 91
property list uchar int vertex_indices
end_header
-19.845 -5.19162 20.4526 474.139 542.944
-19.433 -0.400457 20.0633 475.405 566.924
-18.5415 4.3399 19.8843 479.152 590.647
-17.0476 8.91586 17.8492 485.017 614.382
-14.7468 13.3479 13.3165 493.702 638.515
-11.6131 17.5051 7.93358 506.139 661.753
-7.6985 21.0856 3.25734 522.854 681.978
-3.02483 23.6937 -0.791411 543.747 697.257
2.35222 24.2234 -4.28023 568.647 702.122
7.25668 23.2047 -0.954502 594.653 696.551
11.4944 20.7139 3.1745 617.922 683.257
14.9937 17.2974 7.98692 637.974 664.985
17.3133 12.9958 13.5711 652.66 641.829
18.1948 7.87636 18.6358 660.076 614.59
18.5319 2.28066 20.6197 663.381 586.113
18.6691 -3.44908 21.1587 665.023 557.508
18.5638 -9.16293 21.7936 665.506 528.904
-14.6616 -14.9462 0.0811769 491.275 503.412
-12.7488 -16.3003 -1.60529 500.109 497.668
-10.5277 -16.9935 -3.00714 510.525 495.139
-8.21024 -17.2295 -4.36131 521.385 494.874
-5.95627 -16.9821 -5.67613 531.891 496.981
3.66735 -18.6487 -5.1464 580.014 490.056
6.3407 -19.4498 -3.99031 593.906 486.059
9.09126 -19.6302 -2.7119 608.163 485.105
11.7472 -18.9034 -1.40773 621.852 488.623
13.9629 -17.2809 0.370866 633.477 496.327
-1.59786 -11.4973 -4.96115 553.146 524.602
-1.20898 -8.53195 -7.63753 553.428 540.423
-0.793541 -5.58906 -10.4365 553.786 556.186
-0.375182 -2.65736 -13.1069 554.222 571.842
-3.63266 1.02457 -6.37936 540.851 586.933
-2.10552 1.37077 -7.10075 548.027 589.179
-0.503909 1.42584 -7.77576 555.631 589.975
1.27049 1.01632 -7.15478 564.766 587.986
2.93026 0.352552 -6.40777 573.426 584.667
-11.5199 -9.84435 -1.02686 505.679 529.656
-10.1489 -10.8653 -1.14551 512.538 524.86
-8.40806 -11.0716 -1.18037 521.169 524.13
-6.88376 -10.6017 -1.0792 528.71 526.666
-8.32785 -9.86849 -1.15932 521.429 530.102
-9.96357 -9.57399 -1.11737 513.311 531.282
4.96039 -11.9754 -0.655165 587.745 521.594
6.48815 -12.9919 -0.958323 595.292 516.918
8.38261 -13.0703 -0.96591 604.682 516.837
10.0971 -12.4115 -0.875019 613.136 520.344
8.51269 -11.7954 -0.873354 605.213 523.144
6.72184 -11.6393 -0.874749 596.323 523.63
-5.39848 9.8188 -2.69034 532.787 628.811
-4.35072 7.272 -4.81272 537.275 617.184
-2.42574 5.40345 -6.37829 546.291 608.843
0.146118 5.20792 -8.05467 558.252 608.946
2.75698 4.86262 -6.70191 571.873 607.122
5.09576 6.33004 -5.06841 584.057 614.134
6.81303 8.43545 -2.69964 593.436 623.92
5.21847 10.333 -3.96027 584.703 633.57
3.17032 11.7054 -5.28534 573.756 640.567
0.659389 12.3156 -6.43177 560.697 643.64
-1.80687 12.269 -5.05941 549.143 642.473
-3.8808 11.3504 -3.89252 539.542 637.124
-1.96425 7.84551 -4.73674 549.061 620.383
0.249878 7.26842 -7.23169 558.906 618.858
2.52767 7.30265 -5.14251 571.183 618.573
2.5146 9.02829 -4.64035 571.146 626.932
0.321797 9.61079 -6.27088 559.434 630.109
-1.86058 9.52414 -4.28754 549.583 628.548
3 20 21 23
3 21 22 23
3 0 1 36
3 15 16 45
3 0 17 36
3 16 26 45
3 17 18 37
3 25 26 44
3 17 36 37
3 26 44 45
3 18 19 38
3 24 25 43
3 18 37 38
3 25 43 44
3 19 20 38
3 23 24 43
3 20 21 39
3 22 23 42
3 20 38 39
3 23 42 43
3 21 22 27
3 21 27 39
3 22 27 42
3 27 28 42
3 27 28 39
3 28 42 47
3 28 39 40
3 1 36 41
3 15 45 46
3 1 2 41
3 14 15 46
3 28 29 40
3 28 29 47
3 2 40 41
3 14 46 47
3 2 29 40
3 14 29 47
3 2 3 29
3 13 14 29
3 29 30 31
3 29 30 35
3 3 29 31
3 13 29 35
3 30 32 33
3 30 33 34
3 30 31 32
3 30 34 35
3 3 4 31
3 12 13 35
3 4 5 48
3 11 12 54
3 5 6 48
3 10 11 54
3 6 48 59
3 10 54 55
3 6 7 59
3 9 10 55
3 7 58 59
3 9 55 56
3 8 57 58
3 8 56 57
3 7 8 58
3 8 9 56
3 4 31 48
3 12 35 54
3 31 48 49
3 35 53 54
3 31 49 50
3 35 52 53
3 31 32 50
3 34 35 52
3 32 33 50
3 33 34 52
3 33 50 51
3 33 51 52
3 48 49 60
3 49 60 50
3 50 60 61
3 50 51 61
3 51 52 61
3 61 62 52
3 52 53 62
3 53 54 62
3 54 55 63
3 55 56 63
3 56 63 64
3 56 57 64
3 64 65 57
3 57 58 65
3 58 59 65
3 48 59 65
