ply
format ascii 1.0
element vertex 66
property float x
property float y
property float z
property float u
property float v
element face 91
property list uchar int vertex_indices
end_header
-19.841 -5.02184 20.3517 472.902 542.112
-19.4885 -0.274763 19.9648 473.828 565.984
-18.628 4.42143 19.8332 477.428 589.585
-17.1096 8.91927 17.8054 483.26 613.11
-14.7404 13.2533 13.2728 491.941 637.023
-11.5798 17.3753 7.91417 504.119 660.365
-7.6711 20.9946 3.24757 520.466 681.045
-2.9747 23.651 -0.784253 541.206 696.799
2.46326 24.163 -4.28618 566.203 701.78
7.39862 23.1924 -0.956703 592.715 696.413
11.6744 20.767 3.15316 616.573 683.356
15.1904 17.3918 7.98744 637.183 665.129
17.4624 13.1027 13.598 652.163 641.805
18.2401 7.94317 18.718 659.555 614.087
18.5161 2.22472 20.6722 662.754 584.828
18.6162 -3.6621 21.2089 664.308 555.295
18.4823 -9.52455 21.8964 664.779 525.779
-14.4804 -14.9742 0.102806 489.487 501.993
-12.6218 -16.278 -1.59809 497.938 496.541
-10.4859 -16.9261 -3.00211 507.85 494.278
-8.2731 -17.1522 -4.36237 518.113 494.114
-6.13472 -16.9204 -5.69745 527.962 496.206
3.82608 -18.7024 -5.13115 578.005 488.845
6.50769 -19.5294 -3.97748 592.082 484.712
9.26574 -19.7269 -2.69786 606.528 483.676
11.9329 -18.9643 -1.40684 620.406 487.402
14.1462 -17.2768 0.363274 632.178 495.453
-1.7186 -11.3447 -4.95694 549.605 524.447
-1.31449 -8.47108 -7.63333 549.747 539.958
-0.879679 -5.61885 -10.4054 549.99 555.409
-0.440343 -2.7744 -13.0342 550.337 570.761
-3.71129 1.04832 -6.38919 537.311 586.433
-2.21251 1.38592 -7.08448 544.326 588.671
-0.638673 1.42816 -7.72979 551.78 589.43
1.15784 1.01805 -7.1498 561.085 587.459
2.84155 0.356038 -6.39597 569.958 584.141
-11.4184 -9.7681 -1.03981 503.395 528.946
-10.0607 -10.6851 -1.14309 510.202 524.661
-8.39051 -10.8842 -1.16405 518.515 523.972
-6.9067 -10.5441 -1.10309 525.878 525.901
-8.30926 -9.83778 -1.17415 518.779 529.203
-9.90073 -9.54043 -1.12559 510.859 530.384
5.09951 -12.0048 -0.669724 585.969 520.556
6.6303 -12.9257 -0.921009 593.554 516.344
8.47813 -12.9741 -0.952936 602.724 516.442
10.1873 -12.4292 -0.90307 611.175 519.436
8.61198 -11.8689 -0.888321 603.284 521.944
6.84596 -11.6976 -0.903381 594.478 522.492
-5.19739 9.75022 -2.68553 530.882 627.962
-4.27617 7.14264 -4.8028 534.609 616.025
-2.44259 5.25838 -6.35966 543.091 607.616
0.0423267 5.05135 -8.04016 554.526 607.729
2.58937 4.71984 -6.74189 567.951 605.98
4.87364 6.22353 -5.10432 580.025 613.184
6.53847 8.3695 -2.71988 589.357 623.165
5.03624 10.3867 -3.96133 580.939 633.471
3.05773 11.8695 -5.3364 570.147 641.087
0.565537 12.5092 -6.48325 557.039 644.317
-1.86777 12.4519 -5.07698 545.742 643.012
-3.84866 11.4188 -3.87975 536.701 637.014
-1.95766 7.81929 -4.67395 546.116 619.75
0.134632 7.2138 -7.2072 555.173 618.167
2.31208 7.27254 -5.15523 567.133 617.98
2.29092 9.04185 -4.65863 567.079 626.581
0.19286 9.63334 -6.28362 555.668 629.842
-1.88274 9.53451 -4.25136 546.504 628.129
3 20 21 23
3 21 22 23
3 0 1 36
3 15 16 45
3 0 17 36
3 16 26 45
3 17 18 37
3 25 26 44
3 17 36 37
3 26 44 45
3 18 19 38
3 24 25 43
3 18 37 38
3 25 43 44
3 19 20 38
3 23 24 43
3 20 21 39
3 22 23 42
3 20 38 39
3 23 42 43
3 21 22 27
3 21 27 39
3 22 27 42
3 27 28 42
3 27 28 39
3 28 42 47
3 28 39 40
3 1 36 41
3 15 45 46
3 1 2 41
3 14 15 46
3 28 29 40
3 28 29 47
3 2 40 41
3 14 46 47
3 2 29 40
3 14 29 47
3 2 3 29
3 13 14 29
3 29 30 31
3 29 30 35
3 3 29 31
3 13 29 35
3 30 32 33
3 30 33 34
3 30 31 32
3 30 34 35
3 3 4 31
3 12 13 35
3 4 5 48
3 11 12 54
3 5 6 48
3 10 11 54
3 6 48 59
3 10 54 55
3 6 7 59
3 9 10 55
3 7 58 59
3 9 55 56
3 8 57 58
3 8 56 57
3 7 8 58
3 8 9 56
3 4 31 48
3 12 35 54
3 31 48 49
3 35 53 54
3 31 49 50
3 35 52 53
3 31 32 50
3 34 35 52
3 32 33 50
3 33 34 52
3 33 50 51
3 33 51 52
3 48 49 60
3 49 60 50
3 50 60 61
3 50 51 61
3 51 52 61
3 61 62 52
3 52 53 62
3 53 54 62
3 54 55 63
3 55 56 63
3 56 63 64
3 56 57 64
3 64 65 57
3 57 58 65
3 58 59 65
3 48 59 65
