ply
format ascii 1.0
element vertex 66
property float x
property float y
property float z
property float u
property float v
element face 91
property list uchar int vertex_indices
end_header
-18.9737 -6.2912 21.0734 450.646 550.44
-18.4188 -0.97388 20.7142 458.103 575.853
-17.623 4.30529 20.2572 466.7 600.903
-16.6762 9.51421 18.1686 476.019 626.118
-15.1748 14.5834 13.7069 487.983 651.088
-12.3562 19.0512 7.99661 505.851 672.458
-8.39999 22.617 3.22198 528.416 688.074
-3.6552 25.0729 -0.929304 553.804 697.364
1.68746 25.5947 -4.62233 580.357 696.569
6.98963 24.6611 -0.841751 605.183 685.832
11.5302 21.8573 3.35755 624.624 666.548
15.0699 17.8901 8.14165 638.142 642.292
17.2294 13.0578 13.9025 644.147 614.692
17.8235 7.64231 18.5366 642.057 586.105
17.8931 2.05621 20.585 637.343 558.172
17.8952 -3.58658 21.1206 632.297 530.616
17.6867 -9.22348 21.4794 626.239 503.346
-15.1612 -14.8722 0.0134807 462.164 513.697
-13.2437 -16.0794 -1.62878 470.459 506.779
-11.1014 -16.7021 -3.0849 480.362 502.418
-8.88459 -16.9958 -4.45031 490.919 499.551
-6.66695 -16.9017 -5.66231 501.822 498.502
3.58303 -17.6192 -5.5835 551.009 485.844
5.99906 -18.0936 -4.37361 562.293 480.914
8.45557 -18.1158 -3.03225 574.174 478.089
10.8568 -17.6427 -1.59212 586.226 477.674
13.0143 -16.4758 0.140703 597.704 480.725
-1.07403 -12.548 -4.976 532.879 514.337
-0.739617 -9.49269 -7.67399 537.316 529.901
-0.410611 -6.46423 -10.5334 541.708 545.402
-0.0821414 -3.44795 -13.3259 546.085 560.818
-2.9934 0.497698 -6.16637 535.235 579.735
-1.43001 0.706569 -7.12983 543.052 579.728
0.171181 0.741239 -8.0463 550.895 578.826
1.75365 0.436562 -7.10764 558.287 575.569
3.26989 -0.0423177 -6.21353 565.203 571.545
-11.5537 -10.475 -0.947683 483.659 532.162
-10.218 -11.522 -1.16688 489.224 525.981
-8.51975 -11.7405 -1.27191 497.288 523.447
-6.98265 -11.1522 -1.11014 505.281 524.863
-8.41827 -10.4961 -1.08108 498.887 529.312
-10.0223 -10.2541 -1.01135 491.303 531.89
4.86316 -11.9792 -0.917269 562.125 510.205
6.31678 -12.8425 -1.24993 568.431 504.854
8.0461 -12.8685 -1.1473 576.812 503.144
9.56412 -12.0894 -0.875371 584.879 505.458
8.06941 -11.6308 -0.90072 578.023 509.025
6.42325 -11.6051 -0.915279 570.044 510.625
-7.2155 9.10951 -2.69448 522.293 623.877
-4.93855 7.23949 -4.8149 531.758 613.612
-2.29369 5.91858 -6.54736 543.49 605.528
0.634724 5.89418 -8.07042 557.751 603.392
3.52924 5.48519 -6.51895 571.41 598.219
6.36224 6.39247 -4.75345 585.938 599.396
8.93533 7.8459 -2.53501 599.677 603.273
6.69649 9.65937 -3.86436 590.453 614.58
3.9185 10.6844 -5.05592 577.9 622.493
0.970987 11.0501 -6.37827 563.938 627.414
-1.97102 11.1192 -5.10517 549.658 629.878
-4.80352 10.5319 -3.92805 535.327 629.099
-2.4096 8.09208 -5.04039 544.821 615.574
0.756522 7.85875 -7.22452 560.072 612.472
3.89574 7.61088 -5.06521 575.045 607.624
3.96137 8.22979 -4.49548 575.899 610.341
0.779213 8.51666 -6.29428 560.741 615.276
-2.41463 8.70031 -4.46126 545.322 618.3
3 20 21 23
3 21 22 23
3 0 1 36
3 15 16 45
3 0 17 36
3 16 26 45
3 17 18 37
3 25 26 44
3 17 36 37
3 26 44 45
3 18 19 38
3 24 25 43
3 18 37 38
3 25 43 44
3 19 20 38
3 23 24 43
3 20 21 39
3 22 23 42
3 20 38 39
3 23 42 43
3 21 22 27
3 21 27 39
3 22 27 42
3 27 28 42
3 27 28 39
3 28 42 47
3 28 39 40
3 1 36 41
3 15 45 46
3 1 2 41
3 14 15 46
3 28 29 40
3 28 29 47
3 2 40 41
3 14 46 47
3 2 29 40
3 14 29 47
3 2 3 29
3 13 14 29
3 29 30 31
3 29 30 35
3 3 29 31
3 13 29 35
3 30 32 33
3 30 33 34
3 30 31 32
3 30 34 35
3 3 4 31
3 12 13 35
3 4 5 48
3 11 12 54
3 5 6 48
3 10 11 54
3 6 48 59
3 10 54 55
3 6 7 59
3 9 10 55
3 7 58 59
3 9 55 56
3 8 57 58
3 8 56 57
3 7 8 58
3 8 9 56
3 4 31 48
3 12 35 54
3 31 48 49
3 35 53 54
3 31 49 50
3 35 52 53
3 31 32 50
3 34 35 52
3 32 33 50
3 33 34 52
3 33 50 51
3 33 51 52
3 48 49 60
3 49 60 50
3 50 60 61
3 50 51 61
3 51 52 61
3 61 62 52
3 52 53 62
3 53 54 62
3 54 55 63
3 55 56 63
3 56 63 64
3 56 57 64
3 64 65 57
3 57 58 65
3 58 59 65
3 48 59 65
