ply
format ascii 1.0
element vertex 66
property float x
property float y
property float z
property float u
property float v
element face 91
property list uchar int vertex_indices
end_header
-18.5734 -5.82848 20.7071 454.885 554.29
-18.2214 -0.743546 20.3286 460.643 579.144
-17.5514 4.30756 19.9895 467.945 603.562
-16.5011 9.24766 18.0835 476.822 627.908
-14.8125 14.0369 13.6461 488.385 652.257
-12.0837 18.423 7.97321 504.582 674.42
-8.33171 22.0807 3.15348 525.349 691.788
-3.74039 24.7112 -0.83138 549.539 703.047
1.54276 25.3201 -4.58938 575.547 703.735
6.76583 24.3396 -0.855146 600.986 692.991
11.1279 21.4747 3.23443 620.722 673.504
14.583 17.6014 8.09771 635.286 649.402
16.7649 12.9195 13.8847 643.054 621.878
17.5614 7.59931 18.5844 643.342 592.845
17.8025 1.95359 20.5629 640.269 563.989
17.7961 -3.79824 21.1152 635.703 535.508
17.5374 -9.54402 21.4663 629.871 507.353
-14.5549 -15.2153 0.152721 464.409 515.195
-12.9809 -16.6556 -1.57114 470.777 507.742
-10.9909 -17.4282 -3.00118 479.768 503.094
-8.87071 -17.746 -4.36237 489.775 500.54
-6.77167 -17.6202 -5.62537 500.046 500.131
3.34513 -18.5058 -5.45533 549.189 487.764
5.83752 -19.229 -4.20863 561.052 481.647
8.4262 -19.3729 -2.84528 573.869 478.24
10.9502 -18.7516 -1.4283 586.988 478.61
13.0329 -17.2295 0.262191 598.692 483.611
-1.34183 -12.3904 -5.03624 531.06 521.234
-1.04848 -9.65018 -7.61933 534.355 535.716
-0.745376 -6.93364 -10.3467 537.661 550.144
-0.43248 -4.235 -13.0735 541 564.477
-3.17188 0.191315 -6.04116 531.994 584.883
-1.70114 0.303426 -7.00771 539.199 584.754
-0.202469 0.255286 -7.94683 546.417 583.803
1.40446 0.00363465 -7.02878 554.252 580.856
2.95798 -0.403711 -6.17019 561.692 577.217
-11.0408 -10.1809 -1.12783 485.581 537.763
-9.69975 -11.449 -1.19316 491.161 530.522
-7.83507 -11.6445 -1.1819 500.19 528.094
-6.24406 -10.8942 -0.928919 508.662 530.402
-7.70608 -9.93823 -1.11657 502.202 536.331
-9.43551 -9.65759 -1.08162 493.913 539.047
4.59479 -11.9266 -0.721804 561.248 516.73
6.09618 -13.0558 -1.12037 567.685 510.208
8.02861 -13.1137 -1.07656 577.163 508.386
9.65311 -12.1762 -0.945749 585.933 511.646
8.10589 -11.371 -0.892861 578.965 516.784
6.29062 -11.2953 -0.912025 570.082 518.589
-5.53054 9.82777 -2.69838 528.546 632.361
-3.87001 7.95839 -4.83909 534.94 622.94
-1.85136 6.44497 -6.56748 543.439 614.782
0.576866 6.40986 -8.13645 555.162 613.475
3.03136 6.01682 -6.60343 567.141 608.867
5.34202 7.16379 -4.83391 579.678 611.81
7.43514 8.58823 -2.57946 591.43 616.047
5.7335 10.3995 -4.09422 584.298 627.012
3.53227 11.6151 -5.37813 574.258 635.333
0.951677 12.1175 -6.67579 561.777 640.461
-1.56707 12.0907 -5.35771 549.526 641.658
-3.81158 11.3263 -4.04007 538.034 639.022
-1.76422 8.68223 -4.79785 545.898 624.818
0.683105 8.29696 -7.08362 557.338 622.131
3.17441 8.20506 -5.01827 569.811 618.71
3.20556 9.05287 -4.5699 570.704 622.624
0.704931 9.49985 -6.24438 558.522 627.602
-1.78708 9.51977 -4.38044 546.512 628.739
3 20 21 23
3 21 22 23
3 0 1 36
3 15 16 45
3 0 17 36
3 16 26 45
3 17 18 37
3 25 26 44
3 17 36 37
3 26 44 45
3 18 19 38
3 24 25 43
3 18 37 38
3 25 43 44
3 19 20 38
3 23 24 43
3 20 21 39
3 22 23 42
3 20 38 39
3 23 42 43
3 21 22 27
3 21 27 39
3 22 27 42
3 27 28 42
3 27 28 39
3 28 42 47
3 28 39 40
3 1 36 41
3 15 45 46
3 1 2 41
3 14 15 46
3 28 29 40
3 28 29 47
3 2 40 41
3 14 46 47
3 2 29 40
3 14 29 47
3 2 3 29
3 13 14 29
3 29 30 31
3 29 30 35
3 3 29 31
3 13 29 35
3 30 32 33
3 30 33 34
3 30 31 32
3 30 34 35
3 3 4 31
3 12 13 35
3 4 5 48
3 11 12 54
3 5 6 48
3 10 11 54
3 6 48 59
3 10 54 55
3 6 7 59
3 9 10 55
3 7 58 59
3 9 55 56
3 8 57 58
3 8 56 57
3 7 8 58
3 8 9 56
3 4 31 48
3 12 35 54
3 31 48 49
3 35 53 54
3 31 49 50
3 35 52 53
3 31 32 50
3 34 35 52
3 32 33 50
3 33 34 52
3 33 50 51
3 33 51 52
3 48 49 60
3 49 60 50
3 50 60 61
3 50 51 61
3 51 52 61
3 61 62 52
3 52 53 62
3 53 54 62
3 54 55 63
3 55 56 63
3 56 63 64
3 56 57 64
3 64 65 57
3 57 58 65
3 58 59 65
3 48 59 65
