ply
format ascii 1.0
element vertex 66
property float x
property float y
property float z
property float u
property float v
element face 91
property list uchar int vertex_indices
end_header
-20.2782 -6.24093 21.0509 488.038 421.034
-19.5587 -0.871979 20.6562 489.571 441.732
-18.5432 4.43167 20.0785 492.352 462.05
-17.1047 9.73369 18.2204 497.029 481
-14.9901 14.8535 13.3129 504.92 495.897
-11.8892 19.3653 7.731 517.08 507.932
-8.01176 23.1553 3.1428 532.461 518.537
-3.42979 25.895 -1.08872 550.944 525.668
1.78238 26.7634 -4.83362 572.43 526.254
6.94768 25.1836 -0.904274 593.344 526.192
11.1565 21.7255 3.29466 610.836 518.833
14.4116 17.2479 7.88295 624.668 507.667
16.7686 12.2018 13.4537 634.865 495.157
18.1209 6.83152 18.2663 641.164 480.203
18.7715 1.48318 20.0963 645.005 461.661
18.9436 -3.77841 20.6034 647.056 441.778
18.7485 -9.05659 20.9865 647.634 421.576
-15.5881 -15.5272 0.0855305 512.475 361.844
-13.3477 -17.0052 -1.57873 522.217 354.811
-10.6382 -17.5181 -2.92582 533.565 352.051
-7.86297 -17.3082 -4.29052 544.988 352.109
-5.17621 -16.4819 -5.47215 555.86 354.757
2.94594 -16.9224 -5.4579 589.032 355.47
5.27454 -18.0383 -4.21751 598.641 353.25
7.78191 -18.6092 -2.82223 608.81 353.39
10.3468 -18.6129 -1.42611 619.06 355.76
12.6764 -17.6883 0.254383 628.063 362.012
-0.472562 -11.2072 -4.80159 573.489 377.509
-0.225621 -8.25725 -7.66923 574.088 385.758
0.0120145 -5.30495 -10.4914 574.641 394.065
0.235103 -2.37058 -13.1167 575.114 402.527
-2.86507 0.238575 -6.09231 560.841 419.945
-1.26132 0.758256 -7.01474 567.352 421.377
0.45637 0.959543 -7.90664 574.41 421.636
2.03989 0.557566 -6.87932 580.823 421.733
3.44995 -0.150004 -5.91486 586.622 420.512
-11.6888 -10.4992 -1.16271 527.157 381.166
-10.2827 -11.3875 -1.2044 533.125 378.07
-8.54931 -11.7077 -1.08443 540.249 377.476
-6.94269 -11.2886 -0.845896 546.642 379.865
-8.42461 -10.5487 -0.962609 540.428 382.175
-10.0844 -10.3352 -0.964304 533.616 382.512
5.19092 -12.0127 -0.696284 596.198 380.821
6.70001 -12.6101 -0.941527 602.534 378.654
8.43784 -12.5668 -1.10566 609.617 379.149
9.91438 -11.8587 -1.10374 615.435 382.352
8.3704 -11.4723 -0.87143 609.016 383.671
6.72566 -11.4782 -0.843523 602.32 383.191
-5.09887 8.61895 -2.68881 549.028 455.925
-3.68767 6.92365 -4.87787 555.525 447.188
-1.75708 5.74484 -6.4861 563.918 441.295
0.520049 5.93601 -8.01518 573.341 440.941
2.709 5.49888 -6.35633 582.143 441.814
4.67992 6.46222 -4.72967 589.683 448.047
6.14669 8.04683 -2.53676 594.928 457.212
4.8126 9.66156 -3.88456 589.246 461.548
2.95499 10.6612 -5.08636 581.579 463.499
0.78331 11.1172 -6.63158 572.828 462.837
-1.45555 10.8663 -5.21825 563.592 462.835
-3.4614 10.0531 -4.01601 555.485 460.463
-1.01548 7.77821 -4.99354 566.185 451.181
0.6268 7.82005 -7.02294 573.133 449.474
2.17789 7.65768 -4.75908 579.182 451.932
2.18981 7.98442 -4.34797 579.087 453.688
0.658332 8.38717 -6.24325 573.003 452.602
-0.971857 8.11144 -4.53131 566.21 453.031
3 20 21 23
3 21 22 23
3 0 1 36
3 15 16 45
3 0 17 36
3 16 26 45
3 17 18 37
3 25 26 44
3 17 36 37
3 26 44 45
3 18 19 38
3 24 25 43
3 18 37 38
3 25 43 44
3 19 20 38
3 23 24 43
3 20 21 39
3 22 23 42
3 20 38 39
3 23 42 43
3 21 22 27
3 21 27 39
3 22 27 42
3 27 28 42
3 27 28 39
3 28 42 47
3 28 39 40
3 1 36 41
3 15 45 46
3 1 2 41
3 14 15 46
3 28 29 40
3 28 29 47
3 2 40 41
3 14 46 47
3 2 29 40
3 14 29 47
3 2 3 29
3 13 14 29
3 29 30 31
3 29 30 35
3 3 29 31
3 13 29 35
3 30 32 33
3 30 33 34
3 30 31 32
3 30 34 35
3 3 4 31
3 12 13 35
3 4 5 48
3 11 12 54
3 5 6 48
3 10 11 54
3 6 48 59
3 10 54 55
3 6 7 59
3 9 10 55
3 7 58 59
3 9 55 56
3 8 57 58
3 8 56 57
3 7 8 58
3 8 9 56
3 4 31 48
3 12 35 54
3 31 48 49
3 35 53 54
3 31 49 50
3 35 52 53
3 31 32 50
3 34 35 52
3 32 33 50
3 33 34 52
3 33 50 51
3 33 51 52
3 48 49 60
3 49 60 50
3 50 60 61
3 50 51 61
3 51 52 61
3 61 62 52
3 52 53 62
3 53 54 62
3 54 55 63
3 55 56 63
3 56 63 64
3 56 57 64
3 64 65 57
3 57 58 65
3 58 59 65
3 48 59 65
