ply
format ascii 1.0
element vertex 66
property float x
property float y
property float z
property float u
property float v
element face 91
property list uchar int vertex_indices
end_header
-19.3118 -6.43571 21.0032 488.73 418.666
-18.6576 -1.15105 20.6173 490.261 440.193
-17.7649 4.07293 20.0281 492.87 461.346
-16.4984 9.34906 18.084 497.425 481.494
-14.5951 14.5609 13.521 505.418 498.996
-11.6823 19.1572 7.83967 518.141 513.181
-7.92706 22.9487 3.04554 534.371 525.2
-3.52198 25.8049 -1.08686 553.393 534.232
1.52157 26.789 -4.80235 575.464 536.185
6.53733 25.1887 -0.960001 595.945 534.966
10.5487 21.6049 3.21411 612.598 525.614
13.7306 17.1649 7.96117 625.807 513.051
16.0932 12.1705 13.5807 635.456 498.815
17.5048 6.85028 18.084 641.489 481.845
18.1511 1.64611 20.0974 644.965 462.658
18.3042 -3.44344 20.6286 646.75 442.326
18.1338 -8.56311 20.8742 647.257 421.489
-15.0718 -15.8234 0.0365749 514.891 360.767
-12.9519 -17.1213 -1.51655 524.598 354.568
-10.4149 -17.5941 -2.92905 535.817 352.025
-7.80951 -17.4652 -4.33371 547.169 351.983
-5.2618 -16.7776 -5.5496 558.084 354.404
2.48767 -17.0591 -5.57239 590.851 355.644
4.79673 -18.0662 -4.28479 600.483 353.498
7.26306 -18.5544 -2.85428 610.608 353.673
9.76914 -18.5409 -1.39459 620.765 355.949
12.03 -17.6799 0.207164 629.633 361.77
-0.60796 -11.5258 -4.93169 576.212 378.035
-0.403826 -8.84638 -7.58098 577.141 386.491
-0.209452 -6.17622 -10.3368 578.061 394.802
-0.0194938 -3.5401 -13.0874 578.969 402.977
-2.93635 -0.580909 -5.82378 563.872 421.379
-1.32372 -0.217289 -6.90665 570.887 422.309
0.359167 -0.0900414 -7.99283 578.26 422.286
1.91637 -0.438179 -6.82531 584.588 422.493
3.3541 -1.02693 -5.83763 590.523 421.497
-11.3352 -10.6861 -1.16767 529.691 381.845
-10.0968 -11.5743 -1.11432 535.125 378.637
-8.49535 -11.8865 -1.00923 541.929 377.958
-7.01773 -11.5164 -0.819249 548.015 380.126
-8.34575 -10.7569 -0.941307 542.255 382.711
-9.86456 -10.5315 -0.962042 535.797 383.142
5.03673 -12.2269 -0.705816 599.011 381.083
6.40449 -12.7479 -0.969976 604.986 379.109
7.99368 -12.7071 -1.04264 611.7 379.701
9.31916 -12.0102 -1.02421 617.11 382.995
7.92341 -11.6322 -0.829157 611.072 384.304
6.41701 -11.6733 -0.782986 604.715 383.711
-5.85839 9.23279 -2.75201 548.199 463.8
-4.1409 7.48006 -4.82806 556.471 455.091
-1.9211 6.10278 -6.44961 566.64 448.529
0.743341 6.19267 -7.98702 578.289 448.214
3.33058 5.74924 -6.25157 588.826 448.911
5.65057 6.78639 -4.63061 597.894 455.493
7.47581 8.31848 -2.56489 604.624 464.391
5.98285 10.3438 -4.07741 598.239 470.752
3.80861 11.701 -5.15638 589.028 474.584
1.16908 12.3331 -6.61818 578.146 474.915
-1.54662 12.0372 -5.30889 566.397 474.143
-3.94532 11.0065 -4.17928 556.221 470.275
-1.57309 8.11689 -4.96518 567.18 458.373
0.889136 7.9871 -7.1223 578.206 456.482
3.28916 7.80679 -4.78825 587.719 458.791
3.4203 9.04037 -4.40561 587.852 464.276
1.03227 9.75726 -6.225 578.11 464.681
-1.47251 9.36625 -4.53663 567.168 463.958
3 20 21 23
3 21 22 23
3 0 1 36
3 15 16 45
3 0 17 36
3 16 26 45
3 17 18 37
3 25 26 44
3 17 36 37
3 26 44 45
3 18 19 38
3 24 25 43
3 18 37 38
3 25 43 44
3 19 20 38
3 23 24 43
3 20 21 39
3 22 23 42
3 20 38 39
3 23 42 43
3 21 22 27
3 21 27 39
3 22 27 42
3 27 28 42
3 27 28 39
3 28 42 47
3 28 39 40
3 1 36 41
3 15 45 46
3 1 2 41
3 14 15 46
3 28 29 40
3 28 29 47
3 2 40 41
3 14 46 47
3 2 29 40
3 14 29 47
3 2 3 29
3 13 14 29
3 29 30 31
3 29 30 35
3 3 29 31
3 13 29 35
3 30 32 33
3 30 33 34
3 30 31 32
3 30 34 35
3 3 4 31
3 12 13 35
3 4 5 48
3 11 12 54
3 5 6 48
3 10 11 54
3 6 48 59
3 10 54 55
3 6 7 59
3 9 10 55
3 7 58 59
3 9 55 56
3 8 57 58
3 8 56 57
3 7 8 58
3 8 9 56
3 4 31 48
3 12 35 54
3 31 48 49
3 35 53 54
3 31 49 50
3 35 52 53
3 31 32 50
3 34 35 52
3 32 33 50
3 33 34 52
3 33 50 51
3 33 51 52
3 48 49 60
3 49 60 50
3 50 60 61
3 50 51 61
3 51 52 61
3 61 62 52
3 52 53 62
3 53 54 62
3 54 55 63
3 55 56 63
3 56 63 64
3 56 57 64
3 64 65 57
3 57 58 65
3 58 59 65
3 48 59 65
