ply
format ascii 1.0
element vertex 66
property float x
property float y
property float z
property float u
property float v
element face 91
property list uchar int vertex_indices
end_header
-20.0596 -6.38111 21.1086 487.988 423.743
-19.4628 -1.02629 20.7443 489.412 444.691
-18.5643 4.27015 20.1992 492.116 465.31
-17.2108 9.50582 18.1021 497.045 484.312
-15.128 14.4964 13.3844 505.602 500.01
-11.9409 18.7491 7.85932 518.984 512.297
-7.91459 22.1271 3.10267 535.769 522.081
-3.31788 24.5905 -1.05273 554.914 528.975
1.84154 25.2743 -4.70749 576.587 529.465
6.84304 23.8491 -0.916031 596.292 528.748
10.9602 20.6569 3.27078 612.671 521.209
14.3015 16.6253 8.0203 625.936 510.701
16.7504 11.954 13.5117 635.534 498.154
18.147 6.87166 18.1464 641.143 482.894
18.7637 1.76172 20.2531 644.186 464.896
18.8776 -3.32532 20.7035 645.573 445.268
18.6521 -8.41905 21.0218 645.615 425.401
-15.6227 -15.6015 0.0596559 512.832 368.207
-13.2691 -16.9945 -1.50543 523.04 361.796
-10.53 -17.482 -2.90691 534.592 359.215
-7.74542 -17.3069 -4.28467 546.188 359.286
-5.05038 -16.544 -5.52674 557.27 361.785
2.56042 -16.8136 -5.51257 588.225 362.659
5.01698 -17.8374 -4.22085 598.104 360.48
7.64081 -18.3282 -2.83088 608.53 360.541
10.3063 -18.2374 -1.41018 619 362.941
12.7251 -17.231 0.230972 628.232 369.106
-0.631381 -11.2633 -4.9445 574.006 384.317
-0.429218 -8.47976 -7.6265 574.895 392.782
-0.234816 -5.71083 -10.4312 575.784 401.068
-0.0410893 -2.96853 -13.1968 576.666 409.287
-3.15519 -0.103792 -6.12223 561.774 426.617
-1.47589 0.275754 -7.01262 568.726 427.685
0.271193 0.388575 -7.90817 576.008 427.711
1.92067 0.0525868 -6.91866 582.541 427.753
3.44841 -0.548017 -6.03235 588.657 426.62
-11.7855 -10.3748 -1.07328 527.621 388.729
-10.2416 -11.2492 -1.10869 534.076 385.632
-8.4022 -11.4737 -1.06551 541.58 385.252
-6.74738 -10.9489 -0.83049 548.138 387.969
-8.37308 -10.3582 -0.963522 541.449 389.763
-10.1157 -10.1664 -0.999666 534.342 390.045
4.89148 -11.5783 -0.786163 595.516 388.47
6.44195 -12.246 -1.00552 601.999 386.014
8.25789 -12.2799 -1.02236 609.384 386.323
9.859 -11.5993 -0.932488 615.726 389.502
8.25144 -11.1907 -0.892914 609.107 390.747
6.53043 -11.1901 -0.872332 602.113 390.334
-6.26069 9.15088 -2.75451 546.495 465.62
-4.72093 6.85433 -4.86722 553.71 454.908
-2.38317 5.15761 -6.44112 563.918 447.284
0.53278 5.08762 -8.0288 576.146 446.218
3.40017 4.77661 -6.25853 587.436 447.418
5.903 6.1284 -4.68735 596.955 454.9
7.66645 8.23786 -2.62464 603.202 465.661
6.16464 10.4242 -3.97248 596.978 472.619
3.92439 11.9459 -5.1166 587.842 476.962
1.11195 12.5789 -6.58189 576.639 477.341
-1.81445 12.3138 -5.26745 564.5 476.818
-4.31372 11.0957 -4.14108 554.333 472.459
-2.19925 7.43679 -5.00849 563.865 457.71
0.698996 7.06552 -7.2392 576.234 454.831
3.58692 7.06364 -4.82548 587.393 457.875
3.76428 9.12768 -4.39433 587.593 466.486
0.936283 9.86396 -6.34049 576.419 466.807
-2.00263 9.49974 -4.54868 564.137 466.349
3 20 21 23
3 21 22 23
3 0 1 36
3 15 16 45
3 0 17 36
3 16 26 45
3 17 18 37
3 25 26 44
3 17 36 37
3 26 44 45
3 18 19 38
3 24 25 43
3 18 37 38
3 25 43 44
3 19 20 38
3 23 24 43
3 20 21 39
3 22 23 42
3 20 38 39
3 23 42 43
3 21 22 27
3 21 27 39
3 22 27 42
3 27 28 42
3 27 28 39
3 28 42 47
3 28 39 40
3 1 36 41
3 15 45 46
3 1 2 41
3 14 15 46
3 28 29 40
3 28 29 47
3 2 40 41
3 14 46 47
3 2 29 40
3 14 29 47
3 2 3 29
3 13 14 29
3 29 30 31
3 29 30 35
3 3 29 31
3 13 29 35
3 30 32 33
3 30 33 34
3 30 31 32
3 30 34 35
3 3 4 31
3 12 13 35
3 4 5 48
3 11 12 54
3 5 6 48
3 10 11 54
3 6 48 59
3 10 54 55
3 6 7 59
3 9 10 55
3 7 58 59
3 9 55 56
3 8 57 58
3 8 56 57
3 7 8 58
3 8 9 56
3 4 31 48
3 12 35 54
3 31 48 49
3 35 53 54
3 31 49 50
3 35 52 53
3 31 32 50
3 34 35 52
3 32 33 50
3 33 34 52
3 33 50 51
3 33 51 52
3 48 49 60
3 49 60 50
3 50 60 61
3 50 51 61
3 51 52 61
3 61 62 52
3 52 53 62
3 53 54 62
3 54 55 63
3 55 56 63
3 56 63 64
3 56 57 64
3 64 65 57
3 57 58 65
3 58 59 65
3 48 59 65
