ply
format ascii 1.0
element vertex 66
property float x
property float y
property float z
property float u
property float v
element face 91
property list uchar int vertex_indices
end_header
-20.2298 -6.009 21.3123 488.141 419.537
-19.5536 -0.741432 20.8579 489.513 440.068
-18.6703 4.48303 20.2537 491.772 460.335
-17.3936 9.67038 18.0574 495.937 478.884
-15.306 14.6045 13.4579 503.923 494.13
-12.0596 18.7221 7.86508 517.055 505.461
-8.04315 21.9806 2.97938 533.449 514.398
-3.52765 24.4313 -1.17569 551.977 521.082
1.5284 25.1789 -4.78801 573.094 521.79
6.57185 23.7546 -1.01414 593.431 521.788
10.7684 20.5359 3.16122 610.736 514.859
14.2546 16.5245 8.04239 625.231 505.327
16.8926 11.8525 13.6137 636.317 493.652
18.3742 6.69907 18.1263 643.002 478.58
18.9595 1.52649 20.3451 646.442 460.705
19.0537 -3.60533 20.8601 648.171 441.019
18.8557 -8.74799 21.2375 648.733 421.051
-15.7528 -15.1519 0.127441 512.837 362.283
-13.3205 -16.4703 -1.43211 523.433 356.187
-10.5538 -16.9241 -2.88102 535.135 353.73
-7.75498 -16.7627 -4.24774 546.78 353.8
-5.04274 -16.0172 -5.43173 557.876 356.343
2.73217 -16.3576 -5.53516 589.779 357.358
5.14502 -17.3986 -4.26947 599.707 355.361
7.73503 -17.9153 -2.85388 610.186 355.652
10.3925 -17.945 -1.33671 620.785 357.994
12.9043 -17.1397 0.260751 630.541 363.674
-0.460574 -10.8077 -4.92717 575.061 378.907
-0.227971 -7.86644 -7.67864 575.686 387.663
-0.00906773 -4.94373 -10.5875 576.289 396.175
0.197709 -2.04581 -13.4382 576.839 404.646
-3.4194 0.0292905 -6.29414 560.177 419.304
-1.52995 0.566318 -7.14714 567.906 421.116
0.450531 0.760214 -7.96239 576.097 421.641
2.26953 0.325505 -7.09467 583.499 421.427
3.95478 -0.446582 -6.24321 590.452 419.82
-11.9027 -10.1267 -0.861688 527.351 382.295
-10.282 -10.9053 -1.04793 534.23 379.537
-8.45414 -11.109 -1.22339 541.792 379.125
-6.76944 -10.6193 -0.984958 548.5 381.848
-8.46127 -10.2371 -0.925088 541.465 382.884
-10.1937 -10.0837 -0.967872 534.346 382.894
5.0735 -11.2976 -0.92711 597.102 382.991
6.6435 -11.9542 -1.17817 603.751 380.63
8.44267 -12.034 -1.00711 611.099 381.068
10.1071 -11.467 -0.809867 617.71 384.046
8.45423 -11.1926 -0.910374 610.893 384.497
6.75112 -11.1444 -0.851603 603.905 384.209
-8.647 7.59767 -2.62574 536.02 451.439
-6.12557 5.80142 -4.66687 547.202 442.971
-2.93706 4.75996 -6.30311 560.826 438.128
0.517549 4.71087 -7.98816 575.269 437.236
3.88162 4.33456 -6.17359 588.802 438.751
7.08623 4.95853 -4.50025 601.427 444.015
9.67212 6.46844 -2.44869 611.206 452.985
7.74632 9.59563 -3.97097 602.732 463.1
4.76645 11.831 -5.05012 590.118 469.831
1.00904 12.6907 -6.48746 574.774 470.501
-2.87876 12.2841 -5.17374 558.754 469.061
-6.18325 10.4367 -4.09555 545.565 461.866
-3.7612 6.46898 -5.16719 556.772 445.825
0.613543 6.23457 -7.62606 575.17 443.669
4.89418 5.94121 -4.97257 592.275 446.697
5.36539 9.32286 -4.35127 593.142 460.862
0.916462 10.4905 -6.41062 574.997 461.866
-3.72499 9.89454 -4.51223 555.843 460.061
3 20 21 23
3 21 22 23
3 0 1 36
3 15 16 45
3 0 17 36
3 16 26 45
3 17 18 37
3 25 26 44
3 17 36 37
3 26 44 45
3 18 19 38
3 24 25 43
3 18 37 38
3 25 43 44
3 19 20 38
3 23 24 43
3 20 21 39
3 22 23 42
3 20 38 39
3 23 42 43
3 21 22 27
3 21 27 39
3 22 27 42
3 27 28 42
3 27 28 39
3 28 42 47
3 28 39 40
3 1 36 41
3 15 45 46
3 1 2 41
3 14 15 46
3 28 29 40
3 28 29 47
3 2 40 41
3 14 46 47
3 2 29 40
3 14 29 47
3 2 3 29
3 13 14 29
3 29 30 31
3 29 30 35
3 3 29 31
3 13 29 35
3 30 32 33
3 30 33 34
3 30 31 32
3 30 34 35
3 3 4 31
3 12 13 35
3 4 5 48
3 11 12 54
3 5 6 48
3 10 11 54
3 6 48 59
3 10 54 55
3 6 7 59
3 9 10 55
3 7 58 59
3 9 55 56
3 8 57 58
3 8 56 57
3 7 8 58
3 8 9 56
3 4 31 48
3 12 35 54
3 31 48 49
3 35 53 54
3 31 49 50
3 35 52 53
3 31 32 50
3 34 35 52
3 32 33 50
3 33 34 52
3 33 50 51
3 33 51 52
3 48 49 60
3 49 60 50
3 50 60 61
3 50 51 61
3 51 52 61
3 61 62 52
3 52 53 62
3 53 54 62
3 54 55 63
3 55 56 63
3 56 63 64
3 56 57 64
3 64 65 57
3 57 58 65
3 58 59 65
3 48 59 65
