ply
format ascii 1.0
element vertex 66
property float x
property float y
property float z
property float u
property float v
element face 91
property list uchar int vertex_indices
end_header
-20.244 -6.24706 21.3445 488.076 419.03
-19.6009 -0.894229 20.9165 489.783 440.023
-18.7291 4.40992 20.305 492.475 460.677
-17.4516 9.67839 18.0707 497.14 479.525
-15.3471 14.687 13.4572 505.695 494.953
-12.0332 18.8381 7.85397 519.579 506.175
-7.93386 22.0971 2.97493 536.741 514.813
-3.33029 24.499 -1.17184 556.015 520.949
1.78692 25.1815 -4.78489 577.639 520.938
6.75926 23.6851 -1.01181 597.747 520.222
10.8776 20.4315 3.18331 614.594 512.77
14.2867 16.4079 8.06781 628.538 502.836
16.8695 11.7557 13.6389 639.072 490.951
18.3327 6.65026 18.1227 645.271 475.824
18.9106 1.55545 20.3807 648.22 458.124
19.0025 -3.49569 20.8606 649.477 438.558
18.8028 -8.55538 21.2202 649.555 418.76
-15.7476 -15.3254 0.105098 512.188 360.923
-13.2982 -16.5631 -1.42827 522.802 354.903
-10.5503 -16.9533 -2.89205 534.472 352.401
-7.78848 -16.7646 -4.27073 546.073 352.299
-5.11346 -16.0099 -5.47409 557.177 354.62
2.80755 -16.2647 -5.562 589.906 355.347
5.20757 -17.2689 -4.28323 599.763 353.292
7.77495 -17.7708 -2.86002 610.189 353.431
10.4071 -17.8021 -1.34572 620.776 355.557
12.887 -17.0023 0.243829 630.562 361.038
-0.5304 -10.8293 -4.92578 574.988 376.899
-0.342693 -7.94407 -7.65796 575.704 385.468
-0.166287 -5.07862 -10.5618 576.408 393.77
0.00692508 -2.24169 -13.438 577.1 401.987
-3.58893 -0.0321564 -6.28171 560.558 417.701
-1.68174 0.490885 -7.14249 568.478 419.293
0.309613 0.677601 -7.98222 576.805 419.588
2.16375 0.247415 -7.08896 584.372 419.274
3.88778 -0.512908 -6.20981 591.468 417.599
-12.0335 -10.1238 -0.869623 526.686 381.435
-10.3774 -10.8867 -1.04991 533.693 378.587
-8.52254 -11.0839 -1.21308 541.409 378.055
-6.81065 -10.6046 -0.973332 548.333 380.619
-8.53732 -10.2265 -0.920116 541.131 381.782
-10.3012 -10.0736 -0.967002 533.837 381.931
5.16235 -11.253 -1.01513 597.837 380.769
6.77089 -11.8556 -1.18173 604.616 378.563
8.58549 -11.9096 -0.980426 612.072 378.987
10.2581 -11.3353 -0.75352 618.819 381.907
8.57408 -11.0913 -0.90268 611.855 382.326
6.84892 -11.0672 -0.892845 604.735 382.032
-8.63481 7.67061 -2.62804 537.619 451.152
-6.17087 5.77649 -4.68214 548.512 441.958
-2.99326 4.6627 -6.32005 562.124 436.487
0.47863 4.60844 -7.97461 576.75 435.283
3.87361 4.21696 -6.1454 590.494 436.494
7.10624 4.8862 -4.48716 603.397 441.704
9.69447 6.4875 -2.48383 613.402 450.849
7.80618 9.65615 -3.95955 605.277 461.426
4.83389 11.9079 -5.05843 592.789 468.51
1.09264 12.7801 -6.50956 577.456 469.542
-2.81261 12.4007 -5.20883 561.19 468.535
-6.15453 10.5549 -4.13762 547.568 461.573
-3.73494 6.54222 -5.15355 558.496 445.061
0.622143 6.31092 -7.59594 576.948 442.504
4.91775 5.98226 -4.96105 594.249 445.046
5.38763 9.19498 -4.35927 595.464 458.596
0.945446 10.344 -6.44789 577.304 459.877
-3.67257 9.7915 -4.54011 558.021 458.674
3 20 21 23
3 21 22 23
3 0 1 36
3 15 16 45
3 0 17 36
3 16 26 45
3 17 18 37
3 25 26 44
3 17 36 37
3 26 44 45
3 18 19 38
3 24 25 43
3 18 37 38
3 25 43 44
3 19 20 38
3 23 24 43
3 20 21 39
3 22 23 42
3 20 38 39
3 23 42 43
3 21 22 27
3 21 27 39
3 22 27 42
3 27 28 42
3 27 28 39
3 28 42 47
3 28 39 40
3 1 36 41
3 15 45 46
3 1 2 41
3 14 15 46
3 28 29 40
3 28 29 47
3 2 40 41
3 14 46 47
3 2 29 40
3 14 29 47
3 2 3 29
3 13 14 29
3 29 30 31
3 29 30 35
3 3 29 31
3 13 29 35
3 30 32 33
3 30 33 34
3 30 31 32
3 30 34 35
3 3 4 31
3 12 13 35
3 4 5 48
3 11 12 54
3 5 6 48
3 10 11 54
3 6 48 59
3 10 54 55
3 6 7 59
3 9 10 55
3 7 58 59
3 9 55 56
3 8 57 58
3 8 56 57
3 7 8 58
3 8 9 56
3 4 31 48
3 12 35 54
3 31 48 49
3 35 53 54
3 31 49 50
3 35 52 53
3 31 32 50
3 34 35 52
3 32 33 50
3 33 34 52
3 33 50 51
3 33 51 52
3 48 49 60
3 49 60 50
3 50 60 61
3 50 51 61
3 51 52 61
3 61 62 52
3 52 53 62
3 53 54 62
3 54 55 63
3 55 56 63
3 56 63 64
3 56 57 64
3 64 65 57
3 57 58 65
3 58 59 65
3 48 59 65
