ply
format ascii 1.0
element vertex 66
property float x
property float y
property float z
property float u
property float v
element face 91
property list uchar int vertex_indices
end_header
-20.0622 -6.08522 20.9567 488.311 419.862
-19.3519 -0.788613 20.5456 489.548 440.501
-18.357 4.44824 19.9891 491.986 460.838
-16.925 9.6832 18.1945 496.36 479.928
-14.8522 14.7636 13.3281 503.769 495.177
-11.8887 19.3146 7.73958 515.081 507.838
-8.14768 23.1792 3.12534 529.686 519.158
-3.67611 26.0222 -1.08028 547.567 527.166
1.47121 26.9969 -4.84587 568.769 528.545
6.71566 25.4472 -0.888736 590.283 528.697
10.9681 21.9468 3.27019 608.345 521.054
14.2486 17.4067 7.8623 622.713 509.468
16.6275 12.2906 13.4335 633.462 496.404
18.0301 6.85245 18.2592 640.406 480.897
18.7202 1.41657 20.0387 644.788 461.731
18.885 -3.93522 20.5711 647.139 441.313
18.6682 -9.30686 20.9322 647.953 420.492
-15.4037 -15.4239 0.0832829 512.869 361.235
-13.2479 -16.9516 -1.57759 522.388 354.096
-10.5792 -17.5019 -2.90464 533.65 351.357
-7.82931 -17.3039 -4.28127 545.007 351.537
-5.16802 -16.4856 -5.47443 555.779 354.335
2.86498 -17.0082 -5.47645 588.842 355.042
5.1785 -18.1652 -4.22243 598.544 352.693
7.68175 -18.7593 -2.81245 608.822 352.801
10.2435 -18.7533 -1.41848 619.147 355.273
12.5472 -17.798 0.247603 628.074 361.701
-0.447961 -11.2996 -4.82478 573.346 377.111
-0.172839 -8.3843 -7.67246 573.86 385.485
0.0910207 -5.46355 -10.4544 574.318 393.95
0.333855 -2.5599 -13.0369 574.673 402.565
-2.71368 0.00895743 -6.00509 560.534 419.533
-1.14349 0.511215 -6.96346 566.913 420.974
0.542422 0.704769 -7.87275 573.86 421.295
2.07801 0.310286 -6.83399 580.155 421.439
3.44045 -0.382725 -5.88505 585.847 420.246
-11.6271 -10.4934 -1.23942 526.887 380.464
-10.2399 -11.3993 -1.20339 532.858 377.415
-8.50422 -11.7555 -1.0301 540.06 376.806
-6.88854 -11.3886 -0.818342 546.532 379.045
-8.35166 -10.5885 -0.980742 540.3 381.509
-10.0155 -10.3474 -0.981195 533.409 381.885
5.05846 -12.1493 -0.57845 595.671 380.435
6.56978 -12.7427 -0.89246 602.09 378.266
8.32307 -12.7011 -1.13319 609.284 378.764
9.81152 -12.0075 -1.2226 615.164 381.907
8.26915 -11.5944 -0.882324 608.674 383.385
6.6076 -11.599 -0.806508 601.863 382.879
-4.47371 8.8253 -2.71376 550.078 457.341
-3.27782 7.10573 -4.86182 555.785 448.568
-1.54346 5.85419 -6.46902 563.482 442.431
0.588742 6.03819 -8.04143 572.338 442.123
2.62917 5.63121 -6.36835 580.629 443.104
4.39847 6.70133 -4.73147 587.334 449.767
5.62511 8.33482 -2.51867 591.567 459.108
4.43087 9.80969 -3.92877 586.363 462.919
2.77868 10.7626 -5.13416 579.429 464.748
0.765591 11.2176 -6.69175 571.221 464.095
-1.27592 10.9225 -5.24908 562.788 463.851
-3.03709 10.1335 -4.00492 555.687 461.536
-0.768517 7.77227 -4.93233 565.852 451.978
0.659615 7.75807 -6.97095 571.944 450.122
1.98169 7.6969 -4.70722 577.112 452.881
1.96952 8.23629 -4.32566 576.842 455.43
0.685297 8.6967 -6.1427 571.647 454.758
-0.713567 8.32341 -4.48455 565.845 454.67
3 20 21 23
3 21 22 23
3 0 1 36
3 15 16 45
3 0 17 36
3 16 26 45
3 17 18 37
3 25 26 44
3 17 36 37
3 26 44 45
3 18 19 38
3 24 25 43
3 18 37 38
3 25 43 44
3 19 20 38
3 23 24 43
3 20 21 39
3 22 23 42
3 20 38 39
3 23 42 43
3 21 22 27
3 21 27 39
3 22 27 42
3 27 28 42
3 27 28 39
3 28 42 47
3 28 39 40
3 1 36 41
3 15 45 46
3 1 2 41
3 14 15 46
3 28 29 40
3 28 29 47
3 2 40 41
3 14 46 47
3 2 29 40
3 14 29 47
3 2 3 29
3 13 14 29
3 29 30 31
3 29 30 35
3 3 29 31
3 13 29 35
3 30 32 33
3 30 33 34
3 30 31 32
3 30 34 35
3 3 4 31
3 12 13 35
3 4 5 48
3 11 12 54
3 5 6 48
3 10 11 54
3 6 48 59
3 10 54 55
3 6 7 59
3 9 10 55
3 7 58 59
3 9 55 56
3 8 57 58
3 8 56 57
3 7 8 58
3 8 9 56
3 4 31 48
3 12 35 54
3 31 48 49
3 35 53 54
3 31 49 50
3 35 52 53
3 31 32 50
3 34 35 52
3 32 33 50
3 33 34 52
3 33 50 51
3 33 51 52
3 48 49 60
3 49 60 50
3 50 60 61
3 50 51 61
3 51 52 61
3 61 62 52
3 52 53 62
3 53 54 62
3 54 55 63
3 55 56 63
3 56 63 64
3 56 57 64
3 64 65 57
3 57 58 65
3 58 59 65
3 48 59 65
