ply
format ascii 1.0
element vertex 66
property float x
property float y
property float z
property float u
property float v
element face 91
property list uchar int vertex_indices
end_header
-19.608 -6.25487 20.9221 488.277 418.998
-18.9102 -0.940395 20.5537 489.802 440.551
-17.9393 4.30802 19.9806 492.523 461.706
-16.5096 9.57538 18.1449 497.346 481.779
-14.4321 14.7214 13.3764 505.333 498.534
-11.4813 19.3272 7.75541 517.266 512.467
-7.77231 23.2412 3.06758 532.458 524.761
-3.37019 26.1931 -1.08267 550.763 533.883
1.72823 27.1911 -4.85184 572.489 535.621
6.80336 25.5089 -0.882269 593.799 534.355
10.8258 21.8343 3.23886 611.201 524.784
13.9062 17.2197 7.91246 624.817 511.656
16.1383 12.0876 13.5012 634.875 497.099
17.5091 6.70684 18.1814 641.497 480.331
18.1875 1.41593 19.9877 645.569 460.767
18.3323 -3.76094 20.4723 647.541 440.149
18.1201 -8.95798 20.8055 648.036 419.185
-15.212 -15.7665 0.0930843 512.276 360.023
-13.1354 -17.2561 -1.53482 521.661 352.885
-10.53 -17.7944 -2.89937 532.976 350.066
-7.83885 -17.5909 -4.30336 544.453 350.264
-5.22953 -16.7695 -5.5102 555.388 353.166
2.94536 -17.1849 -5.53646 589.958 353.901
5.20895 -18.2619 -4.26957 599.621 351.483
7.64312 -18.7893 -2.83709 609.829 351.534
10.1086 -18.7157 -1.41907 620.005 354.035
12.2567 -17.7123 0.252679 628.552 360.502
-0.468521 -11.404 -4.85765 573.882 377.201
-0.238106 -8.65159 -7.62397 574.472 385.675
-0.018658 -5.89453 -10.3517 575.009 394.205
0.185928 -3.1628 -12.9587 575.474 402.752
-2.75561 -0.570386 -5.85177 561.391 419.771
-1.21069 -0.143103 -6.88297 567.924 420.922
0.428421 0.0215513 -7.90471 574.926 421.038
1.9213 -0.331476 -6.76774 581.16 421.213
3.2667 -0.938163 -5.71824 586.853 420.218
-11.3568 -10.7206 -1.28521 527.319 380.39
-10.0901 -11.5588 -1.1583 532.871 377.476
-8.48309 -11.9179 -0.950024 539.714 376.706
-6.98351 -11.6349 -0.730652 545.926 378.54
-8.31683 -10.8065 -0.922578 540.105 381.327
-9.8638 -10.5716 -0.956313 533.525 381.787
5.09915 -12.3216 -0.596996 597.017 379.508
6.51646 -12.7557 -0.845322 603.143 377.904
8.12832 -12.6591 -1.09572 609.944 378.527
9.45517 -11.9788 -1.25272 615.369 381.546
8.02356 -11.6262 -0.88522 609.189 382.934
6.49217 -11.6807 -0.814807 602.74 382.323
-4.54775 9.15509 -2.73583 550.728 462.188
-3.34899 7.4235 -4.86267 556.549 453.284
-1.61614 6.0569 -6.45747 564.447 446.579
0.582431 6.23317 -8.01237 573.876 446.363
2.6918 5.82002 -6.32625 582.649 447.043
4.48889 6.98863 -4.71494 589.679 454.017
5.73845 8.63997 -2.57807 594.198 463.341
4.65074 10.3371 -4.01022 589.341 468.477
3.00411 11.4846 -5.21049 582.249 471.438
0.897908 12.0464 -6.75899 573.43 471.508
-1.29126 11.6813 -5.3427 564.111 470.813
-3.11874 10.6987 -4.14105 556.517 467.482
-0.809425 8.05102 -4.90719 567.084 456.567
0.685349 7.98811 -7.00407 573.688 454.604
2.10077 7.95174 -4.6744 579.344 457.277
2.14697 8.8224 -4.32071 579.25 461.213
0.783814 9.42377 -6.14558 573.589 461.384
-0.71008 8.92933 -4.50482 567.205 460.601
3 20 21 23
3 21 22 23
3 0 1 36
3 15 16 45
3 0 17 36
3 16 26 45
3 17 18 37
3 25 26 44
3 17 36 37
3 26 44 45
3 18 19 38
3 24 25 43
3 18 37 38
3 25 43 44
3 19 20 38
3 23 24 43
3 20 21 39
3 22 23 42
3 20 38 39
3 23 42 43
3 21 22 27
3 21 27 39
3 22 27 42
3 27 28 42
3 27 28 39
3 28 42 47
3 28 39 40
3 1 36 41
3 15 45 46
3 1 2 41
3 14 15 46
3 28 29 40
3 28 29 47
3 2 40 41
3 14 46 47
3 2 29 40
3 14 29 47
3 2 3 29
3 13 14 29
3 29 30 31
3 29 30 35
3 3 29 31
3 13 29 35
3 30 32 33
3 30 33 34
3 30 31 32
3 30 34 35
3 3 4 31
3 12 13 35
3 4 5 48
3 11 12 54
3 5 6 48
3 10 11 54
3 6 48 59
3 10 54 55
3 6 7 59
3 9 10 55
3 7 58 59
3 9 55 56
3 8 57 58
3 8 56 57
3 7 8 58
3 8 9 56
3 4 31 48
3 12 35 54
3 31 48 49
3 35 53 54
3 31 49 50
3 35 52 53
3 31 32 50
3 34 35 52
3 32 33 50
3 33 34 52
3 33 50 51
3 33 51 52
3 48 49 60
3 49 60 50
3 50 60 61
3 50 51 61
3 51 52 61
3 61 62 52
3 52 53 62
3 53 54 62
3 54 55 63
3 55 56 63
3 56 63 64
3 56 57 64
3 64 65 57
3 57 58 65
3 58 59 65
3 48 59 65
