ply
format ascii 1.0
element vertex 66
property float x
property float y
property float z
property float u
property float v
element face 91
property list uchar int vertex_indices
end_header
-19.5621 -6.20664 20.969 488.123 419.135
-18.9518 -0.943489 20.6109 489.506 440.415
-18.0965 4.26344 20.0833 491.971 461.363
-16.8285 9.46838 18.095 496.517 480.935
-14.9014 14.5398 13.4813 504.486 497.478
-11.9366 18.9507 7.83795 517.217 510.58
-8.08872 22.4862 3.11111 533.651 521.302
-3.64191 25.1278 -1.05019 552.682 529.13
1.39174 26.0014 -4.77292 574.499 530.363
6.49212 24.5759 -0.870845 595.341 530.011
10.6636 21.2379 3.30151 612.677 521.864
14.0243 17.0119 7.97883 626.702 510.373
16.4537 12.1241 13.5682 636.757 496.842
17.8539 6.85617 18.1165 642.827 480.399
18.4818 1.63714 20.1422 646.24 461.36
18.5838 -3.51095 20.6067 647.796 440.865
18.3484 -8.67949 20.8364 647.996 419.95
-15.2744 -15.8017 0.0210581 513.41 359.897
-13.1057 -17.1635 -1.51083 523.211 353.413
-10.4982 -17.6319 -2.90467 534.607 350.841
-7.83447 -17.4659 -4.31992 546.092 350.851
-5.2401 -16.75 -5.56222 557.112 353.26
2.45439 -16.9968 -5.60918 589.504 354.445
4.82659 -18.0358 -4.29547 599.407 352.237
7.36269 -18.5596 -2.85747 609.845 352.305
9.95124 -18.5424 -1.41514 620.373 354.598
12.2785 -17.6126 0.158157 629.552 360.672
-0.578809 -11.6479 -4.96094 575.323 376.039
-0.360318 -8.99692 -7.55776 576.218 384.269
-0.153262 -6.35805 -10.2919 577.102 392.305
0.0466637 -3.75148 -13.0366 577.966 400.197
-2.74697 -0.657016 -5.74162 563.756 419.441
-1.20358 -0.354816 -6.86788 570.434 419.975
0.403086 -0.264036 -7.99001 577.427 419.669
1.88748 -0.558603 -6.75992 583.442 420.153
3.25939 -1.07025 -5.71826 589.08 419.527
-11.4052 -10.7363 -1.234 528.742 380.405
-10.1586 -11.6342 -1.09704 534.162 377.245
-8.54468 -11.9445 -0.896569 540.969 376.653
-7.06992 -11.557 -0.733627 547.032 378.829
-8.39785 -10.7575 -0.947713 541.312 381.485
-9.93437 -10.5266 -0.981217 534.81 381.946
5.09862 -12.2417 -0.600774 598.28 379.714
6.46675 -12.7773 -0.854341 604.216 377.67
8.07127 -12.7281 -1.04699 610.99 378.141
9.40226 -12.0186 -1.1376 616.431 381.33
8.00956 -11.5978 -0.871326 610.417 382.912
6.48567 -11.647 -0.795753 604.01 382.345
-5.09205 9.86231 -2.89358 550.7 464.566
-3.62485 8.01626 -4.90968 557.785 455.408
-1.6933 6.44078 -6.49761 566.654 447.926
0.754853 6.53693 -8.03011 577.278 447.469
3.13553 6.1446 -6.2951 586.961 448.33
5.18875 7.45015 -4.70552 594.895 455.873
6.76465 9.1273 -2.68861 600.633 465.228
5.31019 10.6198 -4.10083 594.499 469.453
3.3567 11.5401 -5.18945 586.33 471.528
1.08178 11.9955 -6.63843 577.008 471.246
-1.23443 11.7883 -5.36364 567.027 471.027
-3.32728 11.1282 -4.21533 558.122 468.895
-1.04141 8.53684 -4.99868 568.533 458.193
0.881074 8.34959 -7.04853 577.14 455.9
2.75703 8.33604 -4.79309 584.488 458.689
2.73842 8.97045 -4.43728 584.173 461.634
0.963786 9.43074 -6.23109 577.033 461.167
-0.898226 9.17164 -4.59076 568.885 461.24
3 20 21 23
3 21 22 23
3 0 1 36
3 15 16 45
3 0 17 36
3 16 26 45
3 17 18 37
3 25 26 44
3 17 36 37
3 26 44 45
3 18 19 38
3 24 25 43
3 18 37 38
3 25 43 44
3 19 20 38
3 23 24 43
3 20 21 39
3 22 23 42
3 20 38 39
3 23 42 43
3 21 22 27
3 21 27 39
3 22 27 42
3 27 28 42
3 27 28 39
3 28 42 47
3 28 39 40
3 1 36 41
3 15 45 46
3 1 2 41
3 14 15 46
3 28 29 40
3 28 29 47
3 2 40 41
3 14 46 47
3 2 29 40
3 14 29 47
3 2 3 29
3 13 14 29
3 29 30 31
3 29 30 35
3 3 29 31
3 13 29 35
3 30 32 33
3 30 33 34
3 30 31 32
3 30 34 35
3 3 4 31
3 12 13 35
3 4 5 48
3 11 12 54
3 5 6 48
3 10 11 54
3 6 48 59
3 10 54 55
3 6 7 59
3 9 10 55
3 7 58 59
3 9 55 56
3 8 57 58
3 8 56 57
3 7 8 58
3 8 9 56
3 4 31 48
3 12 35 54
3 31 48 49
3 35 53 54
3 31 49 50
3 35 52 53
3 31 32 50
3 34 35 52
3 32 33 50
3 33 34 52
3 33 50 51
3 33 51 52
3 48 49 60
3 49 60 50
3 50 60 61
3 50 51 61
3 51 52 61
3 61 62 52
3 52 53 62
3 53 54 62
3 54 55 63
3 55 56 63
3 56 63 64
3 56 57 64
3 64 65 57
3 57 58 65
3 58 59 65
3 48 59 65
