ply
format ascii 1.0
element vertex 66
property float x
property float y
property float z
property float u
property float v
element face 91
property list uchar int vertex_indices
end_header
-19.9671 -5.83335 21.2944 488.474 420.109
-19.2893 -0.56554 20.8035 490.066 441.056
-18.4048 4.66061 20.2053 492.543 461.793
-17.1784 9.78834 18.0262 496.772 480.729
-15.1512 14.576 13.49 504.865 496.284
-11.975 18.5754 7.91997 518.111 508.013
-8.02897 21.783 2.92247 534.624 517.317
-3.55206 24.2033 -1.25333 553.367 524.384
1.50466 24.8838 -4.6735 574.791 525.328
6.5648 23.5634 -1.04828 595.333 524.911
10.7281 20.404 3.16856 612.506 517.39
14.1469 16.4606 8.14053 626.644 507.215
16.7314 11.924 13.6683 637.369 494.939
18.1682 6.91162 18.1508 643.671 479.423
18.7152 1.77151 20.3475 646.777 460.964
18.8349 -3.40164 20.8558 648.458 440.645
18.6796 -8.58028 21.2416 649.027 420.107
-15.4784 -15.5773 0.10763 513.655 362.013
-12.9868 -16.5308 -1.33919 524.484 357.513
-10.3598 -16.7096 -2.81062 535.686 356.15
-7.79775 -16.5062 -4.24231 546.517 356.345
-5.3333 -15.8343 -5.49359 556.791 358.57
2.83599 -16.1504 -5.60071 590.683 359.545
5.15478 -17.0798 -4.29189 600.246 357.712
7.63468 -17.5701 -2.83368 610.338 357.836
10.2166 -17.7113 -1.31694 620.753 359.451
12.7476 -17.078 0.20575 630.763 364.177
-0.605066 -10.9683 -4.90287 575.023 380.092
-0.359197 -7.83898 -7.67073 575.809 390.136
-0.12952 -4.73798 -10.6415 576.576 399.869
0.0935588 -1.6573 -13.524 577.303 409.603
-3.58559 0.358841 -6.35535 560.165 423.48
-1.6486 0.939505 -7.23046 568.206 425.544
0.391284 1.14474 -7.98065 576.742 426.244
2.29082 0.676445 -7.177 584.556 425.668
4.03412 -0.164041 -6.34787 591.812 423.572
-12.5515 -10.7111 -0.723807 524.717 381.665
-10.7807 -11.7972 -0.912186 532.349 377.621
-8.66881 -11.9357 -1.17555 541.171 377.42
-6.89064 -10.968 -0.998259 548.25 381.997
-8.77189 -10.535 -0.931324 540.348 383.264
-10.7162 -10.4135 -0.935916 532.276 383.19
5.02033 -11.6223 -0.979555 597.678 382.804
6.62359 -12.7531 -1.18917 604.633 378.511
8.69022 -12.9111 -0.896255 613.162 378.748
10.5456 -12.0669 -0.646664 620.577 382.919
8.79791 -11.5445 -0.87228 613.263 384.306
6.88924 -11.4461 -0.864223 605.342 384.161
-8.40003 7.70083 -2.63751 537.69 455.203
-5.86203 6.01098 -4.65622 549.008 447.207
-2.7207 5.09894 -6.35743 562.565 442.82
0.589365 5.05079 -8.16079 576.625 441.863
3.82892 4.67401 -6.18889 589.729 443.151
7.00947 5.14189 -4.4597 602.427 447.594
9.6581 6.49922 -2.43281 612.644 455.75
7.78885 9.64381 -3.99507 604.44 466.394
4.84014 11.8953 -5.02251 591.886 473.638
1.11883 12.7381 -6.4101 576.558 474.644
-2.72558 12.3769 -5.19122 560.505 473.242
-5.99896 10.5462 -4.16629 547.217 465.901
-3.62886 6.68287 -5.1673 558.179 450.07
0.69467 6.44976 -7.71565 576.625 447.952
4.95407 6.12703 -4.99454 593.786 450.463
5.43323 9.40147 -4.34197 594.825 464.41
0.996271 10.5394 -6.28931 576.574 465.867
-3.60068 9.99726 -4.50133 557.34 464.061
3 20 21 23
3 21 22 23
3 0 1 36
3 15 16 45
3 0 17 36
3 16 26 45
3 17 18 37
3 25 26 44
3 17 36 37
3 26 44 45
3 18 19 38
3 24 25 43
3 18 37 38
3 25 43 44
3 19 20 38
3 23 24 43
3 20 21 39
3 22 23 42
3 20 38 39
3 23 42 43
3 21 22 27
3 21 27 39
3 22 27 42
3 27 28 42
3 27 28 39
3 28 42 47
3 28 39 40
3 1 36 41
3 15 45 46
3 1 2 41
3 14 15 46
3 28 29 40
3 28 29 47
3 2 40 41
3 14 46 47
3 2 29 40
3 14 29 47
3 2 3 29
3 13 14 29
3 29 30 31
3 29 30 35
3 3 29 31
3 13 29 35
3 30 32 33
3 30 33 34
3 30 31 32
3 30 34 35
3 3 4 31
3 12 13 35
3 4 5 48
3 11 12 54
3 5 6 48
3 10 11 54
3 6 48 59
3 10 54 55
3 6 7 59
3 9 10 55
3 7 58 59
3 9 55 56
3 8 57 58
3 8 56 57
3 7 8 58
3 8 9 56
3 4 31 48
3 12 35 54
3 31 48 49
3 35 53 54
3 31 49 50
3 35 52 53
3 31 32 50
3 34 35 52
3 32 33 50
3 33 34 52
3 33 50 51
3 33 51 52
3 48 49 60
3 49 60 50
3 50 60 61
3 50 51 61
3 51 52 61
3 61 62 52
3 52 53 62
3 53 54 62
3 54 55 63
3 55 56 63
3 56 63 64
3 56 57 64
3 64 65 57
3 57 58 65
3 58 59 65
3 48 59 65
