ply
format ascii 1.0
element vertex 66
property float x
property float y
property float z
property float u
property float v
element face 91
property list uchar int vertex_indices
end_header
-20.0687 -6.12018 21.3621 486.836 419.485
-19.3571 -0.698622 20.8645 488.767 440.934
-18.452 4.68511 20.214 491.538 462.126
-17.222 9.97013 18.0825 495.996 481.505
-15.2194 14.855 13.4599 504.273 496.954
-12.0125 18.8561 7.90173 517.918 508.213
-8.02283 22.0254 2.93233 534.848 516.926
-3.52351 24.3948 -1.25152 553.882 523.351
1.54588 25.0133 -4.69205 575.477 523.641
6.60425 23.5963 -1.02688 595.909 522.941
10.7014 20.2841 3.17487 612.64 514.93
14.0573 16.2418 8.11104 626.295 504.542
16.6496 11.6837 13.5918 636.78 492.44
18.1796 6.73872 18.0195 643.176 477.449
18.7848 1.72306 20.1803 646.251 459.646
18.8887 -3.30983 20.6593 647.619 439.946
18.683 -8.34923 21.0348 647.729 420.037
-15.5576 -15.5977 0.0989475 512.069 361.062
-13.0452 -16.5789 -1.3742 522.987 356.269
-10.3927 -16.7937 -2.82909 534.323 354.608
-7.79376 -16.5788 -4.23373 545.337 354.709
-5.278 -15.8902 -5.44493 555.868 356.888
3.0396 -16.1017 -5.58487 590.361 358.008
5.1634 -16.9773 -4.27705 599.048 356.353
7.44786 -17.4748 -2.82177 608.29 356.408
9.85947 -17.7568 -1.29422 617.997 357.432
12.3263 -17.3632 0.227771 627.794 361.178
-0.354591 -10.9517 -4.90594 575.103 378.514
-0.154952 -7.87253 -7.695 575.895 388.109
0.025972 -4.81781 -10.6517 576.652 397.431
0.196375 -1.78148 -13.4972 577.344 406.79
-3.48629 0.306369 -6.38922 560.134 421.429
-1.52463 0.887354 -7.21598 568.311 423.424
0.543046 1.10172 -7.94432 576.98 424.073
2.41141 0.660179 -7.11967 584.625 423.608
4.12366 -0.14777 -6.29605 591.699 421.631
-12.1398 -10.8938 -0.782946 525.429 379.927
-10.4318 -11.7891 -0.943855 532.717 376.602
-8.47837 -11.9353 -1.14803 540.875 376.304
-6.79289 -11.1052 -0.919559 547.629 380.297
-8.58381 -10.7593 -0.880456 540.138 381.271
-10.4075 -10.6715 -0.929606 532.583 381.111
5.0254 -11.6724 -0.937804 596.656 380.999
6.53224 -12.5915 -1.12183 603.122 377.505
8.41628 -12.7391 -0.896355 610.9 377.618
10.1374 -12.0306 -0.696144 617.832 381.103
8.50229 -11.6051 -0.872856 611.016 382.218
6.7457 -11.5268 -0.835897 603.723 382.124
-8.50004 7.67911 -2.61559 537.044 453.581
-5.94137 5.98291 -4.68975 548.432 445.321
-2.77442 5.03483 -6.38184 562.1 440.606
0.581525 4.99553 -8.1452 576.377 439.516
3.83675 4.64316 -6.14645 589.488 440.949
6.98296 5.17553 -4.43662 602.027 445.615
9.54332 6.62438 -2.41327 611.885 454.129
7.75287 9.78912 -3.95132 604.153 464.828
4.84217 12.0551 -4.96052 591.858 472.168
1.11848 12.8838 -6.38995 576.586 473.105
-2.76931 12.4855 -5.16877 560.316 471.755
-6.06407 10.5849 -4.15267 546.855 464.314
-3.6256 6.67754 -5.21341 557.984 448.169
0.699899 6.44186 -7.68213 576.467 445.823
4.9335 6.18112 -4.90723 593.44 448.657
5.43 9.51727 -4.27641 594.667 462.818
1.03147 10.6435 -6.33026 576.677 464.147
-3.56411 10.0634 -4.54318 557.393 462.459
3 20 21 23
3 21 22 23
3 0 1 36
3 15 16 45
3 0 17 36
3 16 26 45
3 17 18 37
3 25 26 44
3 17 36 37
3 26 44 45
3 18 19 38
3 24 25 43
3 18 37 38
3 25 43 44
3 19 20 38
3 23 24 43
3 20 21 39
3 22 23 42
3 20 38 39
3 23 42 43
3 21 22 27
3 21 27 39
3 22 27 42
3 27 28 42
3 27 28 39
3 28 42 47
3 28 39 40
3 1 36 41
3 15 45 46
3 1 2 41
3 14 15 46
3 28 29 40
3 28 29 47
3 2 40 41
3 14 46 47
3 2 29 40
3 14 29 47
3 2 3 29
3 13 14 29
3 29 30 31
3 29 30 35
3 3 29 31
3 13 29 35
3 30 32 33
3 30 33 34
3 30 31 32
3 30 34 35
3 3 4 31
3 12 13 35
3 4 5 48
3 11 12 54
3 5 6 48
3 10 11 54
3 6 48 59
3 10 54 55
3 6 7 59
3 9 10 55
3 7 58 59
3 9 55 56
3 8 57 58
3 8 56 57
3 7 8 58
3 8 9 56
3 4 31 48
3 12 35 54
3 31 48 49
3 35 53 54
3 31 49 50
3 35 52 53
3 31 32 50
3 34 35 52
3 32 33 50
3 33 34 52
3 33 50 51
3 33 51 52
3 48 49 60
3 49 60 50
3 50 60 61
3 50 51 61
3 51 52 61
3 61 62 52
3 52 53 62
3 53 54 62
3 54 55 63
3 55 56 63
3 56 63 64
3 56 57 64
3 64 65 57
3 57 58 65
3 58 59 65
3 48 59 65
