ply
format ascii 1.0
element vertex 66
property float x
property float y
property float z
property float u
property float v
element face 91
property list uchar int vertex_indices
end_header
-20.5264 -5.97263 21.2288 486.12 424.463
-19.8481 -0.661952 20.7616 487.622 444.736
-18.9074 4.60314 20.2644 490.178 464.884
-17.5686 9.78158 18.2348 494.702 483.479
-15.5 14.6227 13.403 502.872 498.546
-12.2918 18.6644 7.80892 515.924 510.197
-8.23129 21.8149 3.16002 532.329 519.483
-3.62132 24.055 -1.07124 551.023 525.781
1.48025 24.6421 -4.70323 571.915 526.367
6.60715 23.3818 -0.866864 591.537 526.34
10.9037 20.3606 3.3717 608.208 519.63
14.43 16.4598 7.98331 621.961 509.627
17.0572 11.9059 13.5156 632.097 497.645
18.5752 6.90206 18.2524 638.155 482.913
19.2488 1.79106 20.2936 641.561 465.174
19.414 -3.32736 20.6971 643.36 445.832
19.2346 -8.45057 21.0669 643.807 426.342
-16.2142 -15.5949 0.121073 510.636 370.226
-13.8031 -17.0425 -1.45245 520.894 363.975
-10.9789 -17.504 -2.85441 532.503 361.796
-8.1283 -17.2779 -4.24196 544.045 362.29
-5.37509 -16.4702 -5.45264 555.018 365.153
2.91064 -16.7877 -5.48134 587.829 366.316
5.38107 -17.8714 -4.20985 597.54 363.963
8.03424 -18.433 -2.80083 607.812 363.796
10.7613 -18.4189 -1.35343 618.227 365.905
13.2529 -17.4244 0.282365 627.428 371.89
-0.523456 -11.2554 -4.89654 572.777 387.163
-0.29528 -8.20886 -7.67717 573.615 396.558
-0.0790848 -5.17685 -10.5567 574.434 405.808
0.129999 -2.16293 -13.3052 575.196 415.1
-3.09965 0.438507 -6.13128 560.059 430.44
-1.37323 0.927784 -7.12089 567 431.968
0.455006 1.08135 -8.03967 574.408 432.292
2.14734 0.707645 -6.99715 580.929 432.251
3.67222 -0.000304036 -6.04827 586.893 430.791
-12.1056 -10.4909 -1.06261 525.911 390.077
-10.5741 -11.4375 -1.06961 532.192 386.866
-8.71765 -11.6849 -0.992555 539.566 386.52
-7.04911 -11.0595 -0.815228 545.961 389.572
-8.66788 -10.4245 -0.968475 539.45 391.416
-10.4222 -10.2507 -1.00205 532.487 391.547
5.17677 -11.7184 -0.721861 594.387 390.672
6.70867 -12.4914 -0.935197 600.677 387.951
8.53806 -12.5275 -1.00364 607.928 388.284
10.1349 -11.7803 -0.956291 614.042 391.673
8.53473 -11.3211 -0.895727 607.595 393.03
6.81128 -11.3019 -0.84577 600.771 392.646
-5.92702 8.92227 -2.83141 546.025 465.211
-4.04493 7.37823 -4.9148 554.342 457.989
-1.81601 6.24458 -6.54048 563.817 452.85
0.675297 6.38227 -8.16472 574.019 452.693
3.08806 5.95028 -6.33435 583.208 453.323
5.36909 6.78096 -4.70518 591.619 458.609
7.30397 8.12144 -2.63162 598.43 466.149
5.65858 9.76308 -3.95267 591.854 470.851
3.45573 10.7447 -5.07311 583.187 473.02
0.979466 11.1516 -6.52516 573.662 472.604
-1.55646 11.0186 -5.26316 563.37 472.451
-3.92677 10.3168 -4.12158 553.901 470.048
-1.42202 8.13997 -5.20916 564.588 461.435
0.80217 8.07997 -7.27474 573.891 460.052
2.96282 7.9071 -4.96778 581.905 462.024
3.01259 8.29527 -4.44204 581.879 463.993
0.858334 8.65416 -6.32327 573.741 463.112
-1.36631 8.5389 -4.64001 564.572 463.485
3 20 21 23
3 21 22 23
3 0 1 36
3 15 16 45
3 0 17 36
3 16 26 45
3 17 18 37
3 25 26 44
3 17 36 37
3 26 44 45
3 18 19 38
3 24 25 43
3 18 37 38
3 25 43 44
3 19 20 38
3 23 24 43
3 20 21 39
3 22 23 42
3 20 38 39
3 23 42 43
3 21 22 27
3 21 27 39
3 22 27 42
3 27 28 42
3 27 28 39
3 28 42 47
3 28 39 40
3 1 36 41
3 15 45 46
3 1 2 41
3 14 15 46
3 28 29 40
3 28 29 47
3 2 40 41
3 14 46 47
3 2 29 40
3 14 29 47
3 2 3 29
3 13 14 29
3 29 30 31
3 29 30 35
3 3 29 31
3 13 29 35
3 30 32 33
3 30 33 34
3 30 31 32
3 30 34 35
3 3 4 31
3 12 13 35
3 4 5 48
3 11 12 54
3 5 6 48
3 10 11 54
3 6 48 59
3 10 54 55
3 6 7 59
3 9 10 55
3 7 58 59
3 9 55 56
3 8 57 58
3 8 56 57
3 7 8 58
3 8 9 56
3 4 31 48
3 12 35 54
3 31 48 49
3 35 53 54
3 31 49 50
3 35 52 53
3 31 32 50
3 34 35 52
3 32 33 50
3 33 34 52
3 33 50 51
3 33 51 52
3 48 49 60
3 49 60 50
3 50 60 61
3 50 51 61
3 51 52 61
3 61 62 52
3 52 53 62
3 53 54 62
3 54 55 63
3 55 56 63
3 56 63 64
3 56 57 64
3 64 65 57
3 57 58 65
3 58 59 65
3 48 59 65
