ply
format ascii 1.0
element vertex 66
property float x
property float y
property float z
property float u
property float v
element face 91
property list uchar int vertex_indices
end_header
-20.0684 -5.96729 21.3423 489.535 418.258
-19.3553 -0.661433 20.8441 490.998 439.504
-18.4315 4.60346 20.2467 493.363 460.57
-17.1742 9.76479 18.0621 497.45 479.96
-15.1255 14.5617 13.5058 505.38 496.097
-11.9229 18.5432 7.947 518.516 508.459
-7.96107 21.7329 2.94488 534.913 518.354
-3.47864 24.1336 -1.2299 553.531 525.946
1.58157 24.7829 -4.63141 574.904 527.321
6.58887 23.4309 -1.05565 595.278 526.604
10.6896 20.2485 3.16196 612.327 518.743
14.0669 16.3245 8.13816 626.46 508.298
16.6726 11.8521 13.6417 637.466 495.836
18.1734 6.92548 18.1218 644.246 480.289
18.7606 1.8769 20.3311 647.738 461.989
18.9067 -3.20591 20.8246 649.757 441.925
18.7719 -8.29564 21.2226 650.637 421.658
-15.6517 -15.3709 0.0883288 514.763 363.416
-13.1629 -16.3328 -1.35394 525.611 359.114
-10.5374 -16.5377 -2.83788 536.806 357.88
-7.96887 -16.3534 -4.27755 547.642 358.238
-5.48543 -15.7153 -5.51971 557.952 360.571
3.13081 -16.08 -5.59573 593.655 361.896
5.37693 -16.9425 -4.29141 602.929 360.282
7.77076 -17.4068 -2.82567 612.664 360.465
10.2678 -17.5787 -1.29575 622.724 361.919
12.7472 -17.0246 0.234124 632.496 366.3
-0.553894 -11.0383 -4.8993 576.801 381.643
-0.316595 -7.874 -7.69997 577.392 392.094
-0.0950467 -4.73664 -10.6819 577.961 402.275
0.119341 -1.61766 -13.5523 578.483 412.475
-3.61459 0.37345 -6.39494 561.061 425.446
-1.64731 0.975008 -7.26202 569.176 427.784
0.426227 1.19447 -7.99746 577.818 428.726
2.33875 0.715031 -7.20426 585.702 428.108
4.09133 -0.143836 -6.37306 593.031 425.937
-12.6537 -10.7007 -0.718144 525.912 382.588
-10.8818 -11.7451 -0.902299 533.576 378.798
-8.79238 -11.9051 -1.17986 542.306 378.607
-7.01552 -10.9887 -1.02806 549.341 383.031
-8.89278 -10.5741 -0.939734 541.448 384.158
-10.8239 -10.4492 -0.947178 533.438 384.015
5.09291 -11.6467 -0.999172 599.531 384.422
6.69207 -12.7185 -1.17111 606.487 380.475
8.73322 -12.8728 -0.864775 614.902 380.794
10.5786 -12.0619 -0.616018 622.231 384.899
8.83809 -11.5743 -0.865463 614.948 386.075
6.94686 -11.4839 -0.85785 607.11 385.818
-8.60537 7.56303 -2.61491 537.566 456.095
-6.00856 5.87553 -4.63466 549.19 448.399
-2.79021 4.98157 -6.34694 563.084 444.381
0.587307 4.92751 -8.17665 577.407 443.709
3.87848 4.54443 -6.17289 590.717 444.982
7.11766 4.97668 -4.43916 603.622 449.299
9.7989 6.3434 -2.42553 613.89 457.448
7.94675 9.60999 -3.98142 605.576 468.69
4.96035 11.9634 -5.01668 592.748 476.314
1.1545 12.8415 -6.39914 577.043 477.406
-2.79757 12.4561 -5.17682 560.597 475.588
-6.14941 10.5257 -4.15313 547.129 467.556
-3.70294 6.54518 -5.20067 558.623 451.383
0.704318 6.32049 -7.75455 577.393 449.74
5.03394 5.97926 -5.00135 594.83 452.173
5.55446 9.43424 -4.3253 595.818 466.888
1.03439 10.6335 -6.26872 577.179 468.557
-3.66366 10.0443 -4.49924 557.605 466.139
3 20 21 23
3 21 22 23
3 0 1 36
3 15 16 45
3 0 17 36
3 16 26 45
3 17 18 37
3 25 26 44
3 17 36 37
3 26 44 45
3 18 19 38
3 24 25 43
3 18 37 38
3 25 43 44
3 19 20 38
3 23 24 43
3 20 21 39
3 22 23 42
3 20 38 39
3 23 42 43
3 21 22 27
3 21 27 39
3 22 27 42
3 27 28 42
3 27 28 39
3 28 42 47
3 28 39 40
3 1 36 41
3 15 45 46
3 1 2 41
3 14 15 46
3 28 29 40
3 28 29 47
3 2 40 41
3 14 46 47
3 2 29 40
3 14 29 47
3 2 3 29
3 13 14 29
3 29 30 31
3 29 30 35
3 3 29 31
3 13 29 35
3 30 32 33
3 30 33 34
3 30 31 32
3 30 34 35
3 3 4 31
3 12 13 35
3 4 5 48
3 11 12 54
3 5 6 48
3 10 11 54
3 6 48 59
3 10 54 55
3 6 7 59
3 9 10 55
3 7 58 59
3 9 55 56
3 8 57 58
3 8 56 57
3 7 8 58
3 8 9 56
3 4 31 48
3 12 35 54
3 31 48 49
3 35 53 54
3 31 49 50
3 35 52 53
3 31 32 50
3 34 35 52
3 32 33 50
3 33 34 52
3 33 50 51
3 33 51 52
3 48 49 60
3 49 60 50
3 50 60 61
3 50 51 61
3 51 52 61
3 61 62 52
3 52 53 62
3 53 54 62
3 54 55 63
3 55 56 63
3 56 63 64
3 56 57 64
3 64 65 57
3 57 58 65
3 58 59 65
3 48 59 65
