ply
format ascii 1.0
element vertex 66
property float x
property float y
property float z
property float u
property float v
element face 91
property list uchar int vertex_indices
end_header
-20.2047 -6.04344 21.327 489.581 420.412
-19.5163 -0.694728 20.8402 491.142 441.666
-18.6062 4.60862 20.2234 493.648 462.687
-17.3284 9.81332 18.0048 497.98 482.02
-15.2193 14.6593 13.4713 506.239 498.129
-11.9109 18.6476 7.88405 519.833 510.217
-7.83182 21.7946 2.91405 536.695 519.685
-3.25509 24.1436 -1.22795 555.654 526.815
1.8716 24.7236 -4.64608 577.188 527.629
6.82693 23.3162 -1.03356 597.247 526.549
10.9016 20.1451 3.15441 614.03 518.637
14.2686 16.2509 8.126 627.947 508.301
16.8122 11.7664 13.672 638.527 495.861
18.2313 6.81788 18.1021 644.807 480.26
18.7712 1.77528 20.3129 647.902 462.093
18.8885 -3.28914 20.7927 649.581 442.205
18.7432 -8.35545 21.2312 650.189 422.199
-15.5326 -15.5991 0.0992997 515.051 364.841
-13.0152 -16.5414 -1.33878 525.893 360.522
-10.382 -16.738 -2.82819 537.031 359.187
-7.80902 -16.5319 -4.24901 547.807 359.511
-5.32997 -15.849 -5.48791 558.043 361.882
3.13079 -16.192 -5.55375 592.9 362.871
5.39336 -17.056 -4.2672 602.18 361.172
7.80089 -17.5016 -2.8233 611.922 361.333
10.2957 -17.6095 -1.30363 621.922 362.94
12.7518 -16.9983 0.231074 631.579 367.438
-0.59429 -10.8696 -4.92246 576.133 383.731
-0.387167 -7.81243 -7.67993 576.709 393.661
-0.192889 -4.78187 -10.6349 577.275 403.308
-0.00122195 -1.77248 -13.5232 577.824 412.928
-3.66667 0.328188 -6.40434 560.941 426.53
-1.74001 0.919108 -7.23096 568.856 428.733
0.288522 1.13752 -7.96517 577.267 429.551
2.18183 0.668056 -7.172 585.02 428.9
3.92164 -0.16543 -6.32247 592.225 426.792
-12.3275 -10.6254 -0.759092 527.113 384.985
-10.6404 -11.4805 -0.935328 534.293 381.88
-8.72581 -11.6241 -1.18172 542.239 381.637
-7.06158 -10.8929 -0.987191 548.856 385.22
-8.82244 -10.548 -0.910382 541.52 386.168
-10.6163 -10.443 -0.949729 534.131 386.041
5.25799 -11.5492 -1.03634 599.642 386.07
6.79284 -12.3926 -1.16637 606.184 383.009
8.66031 -12.4982 -0.883934 613.832 383.366
10.3747 -11.8313 -0.653336 620.664 386.737
8.72412 -11.4716 -0.891988 613.835 387.501
6.9744 -11.4009 -0.892282 606.629 387.283
-8.80317 7.57795 -2.60625 537.311 457.491
-6.18518 5.8861 -4.64445 548.866 449.667
-2.94623 4.95886 -6.34033 562.715 445.39
0.479833 4.88297 -8.11739 577.131 444.515
3.83467 4.51164 -6.16768 590.654 445.687
7.11987 4.97512 -4.45135 603.721 449.988
9.85878 6.34185 -2.45252 614.263 458.006
7.95435 9.59833 -3.93907 605.884 469.242
4.93936 11.9484 -4.98935 593.092 476.9
1.10728 12.843 -6.36694 577.373 478.192
-2.89939 12.4669 -5.15582 560.788 476.591
-6.29626 10.5352 -4.16352 547.143 468.726
-3.84121 6.52817 -5.19617 558.432 452.435
0.607017 6.27067 -7.76737 577.238 450.43
5.00669 5.94336 -5.00319 594.894 452.789
5.54843 9.51314 -4.3146 596.09 467.883
0.964416 10.7265 -6.34045 577.318 469.674
-3.79053 10.1356 -4.50731 557.601 467.539
3 20 21 23
3 21 22 23
3 0 1 36
3 15 16 45
3 0 17 36
3 16 26 45
3 17 18 37
3 25 26 44
3 17 36 37
3 26 44 45
3 18 19 38
3 24 25 43
3 18 37 38
3 25 43 44
3 19 20 38
3 23 24 43
3 20 21 39
3 22 23 42
3 20 38 39
3 23 42 43
3 21 22 27
3 21 27 39
3 22 27 42
3 27 28 42
3 27 28 39
3 28 42 47
3 28 39 40
3 1 36 41
3 15 45 46
3 1 2 41
3 14 15 46
3 28 29 40
3 28 29 47
3 2 40 41
3 14 46 47
3 2 29 40
3 14 29 47
3 2 3 29
3 13 14 29
3 29 30 31
3 29 30 35
3 3 29 31
3 13 29 35
3 30 32 33
3 30 33 34
3 30 31 32
3 30 34 35
3 3 4 31
3 12 13 35
3 4 5 48
3 11 12 54
3 5 6 48
3 10 11 54
3 6 48 59
3 10 54 55
3 6 7 59
3 9 10 55
3 7 58 59
3 9 55 56
3 8 57 58
3 8 56 57
3 7 8 58
3 8 9 56
3 4 31 48
3 12 35 54
3 31 48 49
3 35 53 54
3 31 49 50
3 35 52 53
3 31 32 50
3 34 35 52
3 32 33 50
3 33 34 52
3 33 50 51
3 33 51 52
3 48 49 60
3 49 60 50
3 50 60 61
3 50 51 61
3 51 52 61
3 61 62 52
3 52 53 62
3 53 54 62
3 54 55 63
3 55 56 63
3 56 63 64
3 56 57 64
3 64 65 57
3 57 58 65
3 58 59 65
3 48 59 65
