ply
format ascii 1.0
element vertex 66
property float x
property float y
property float z
property float u
property float v
element face 91
property list uchar int vertex_indices
end_header
-20.1075 -6.2804 21.2598 489.781 421.183
-19.4637 -0.931148 20.8499 491.078 442.221
-18.5974 4.37089 20.2167 493.342 462.919
-17.3096 9.61793 18.029 497.652 481.992
-15.2404 14.5982 13.4881 505.696 497.922
-12.0195 18.7455 7.8824 518.883 509.844
-7.96716 21.9586 2.97296 535.58 518.996
-3.42517 24.3693 -1.12611 554.333 525.91
1.66417 25.0706 -4.74291 575.682 526.678
6.69125 23.6474 -0.956691 595.873 526.296
10.8538 20.4481 3.15501 612.934 518.917
14.2918 16.4687 8.05859 627.081 509.001
16.8238 11.7968 13.6319 637.573 496.719
18.2591 6.68297 18.0474 643.925 481.204
18.8336 1.57343 20.2389 647.195 463.249
18.8912 -3.50153 20.7429 648.676 443.607
18.6484 -8.58376 21.0936 648.96 423.694
-15.5803 -15.2822 0.0876529 514.877 365.911
-13.1579 -16.6726 -1.4257 525.455 359.634
-10.3694 -17.1911 -2.86134 537.283 357.008
-7.52999 -17.0417 -4.23143 549.13 357.116
-4.78137 -16.2825 -5.44886 560.413 359.768
2.46248 -16.4982 -5.54947 590.122 361.022
4.87696 -17.4986 -4.25021 600.007 359.067
7.46855 -17.9673 -2.84176 610.453 359.387
10.1082 -17.9206 -1.35153 620.944 361.848
12.5681 -17.0429 0.222398 630.462 367.639
-0.453461 -11.1177 -4.99754 576.659 382.047
-0.242702 -8.3083 -7.65117 577.302 390.65
-0.0462962 -5.51841 -10.4965 577.93 398.983
0.140878 -2.75723 -13.3699 578.533 407.17
-3.27145 -0.271812 -6.26237 562.508 423.017
-1.45717 0.186209 -7.0778 569.97 424.585
0.43248 0.343922 -7.88724 577.818 424.988
2.16293 -0.0345654 -7.00738 584.823 424.882
3.77483 -0.70989 -6.17399 591.431 423.514
-11.7519 -10.1791 -0.959752 529.393 386.314
-10.1236 -10.9674 -1.07683 536.286 383.564
-8.26992 -11.16 -1.18963 543.942 383.253
-6.58384 -10.6537 -0.888117 550.645 386.076
-8.2865 -10.2253 -0.92742 543.575 387.22
-10.0435 -10.0613 -0.994264 536.357 387.269
4.82688 -11.2245 -0.863803 597.469 387.314
6.40001 -11.8608 -1.1492 604.129 384.985
8.21385 -11.9407 -1.03869 611.548 385.33
9.86633 -11.3424 -0.902376 618.122 388.345
8.22172 -11.0183 -0.947033 611.318 389.087
6.50234 -11.0016 -0.876227 604.266 388.698
-8.09975 8.2316 -2.64365 539.788 458.89
-5.88264 6.19533 -4.68434 549.801 449.464
-2.9061 4.81906 -6.32208 562.666 443.289
0.515619 4.67989 -8.00474 577.033 442.119
3.8621 4.40697 -6.15932 590.429 443.878
6.90312 5.39566 -4.50005 602.278 450.371
9.21802 7.20712 -2.48954 610.869 460.256
7.39926 10.0347 -3.97652 602.975 469.464
4.63897 12.1114 -5.07365 591.35 475.787
1.06821 12.9388 -6.5003 576.807 476.576
-2.65143 12.5312 -5.21793 561.445 475.088
-5.73769 10.7909 -4.13546 549.067 468.303
-3.66405 6.50774 -5.10447 558.877 450.967
0.61552 6.07439 -7.58184 576.988 448.106
4.84211 5.99912 -4.87188 593.761 451.772
5.30702 9.83625 -4.30628 594.534 467.712
0.991218 11.0333 -6.38161 576.973 469.101
-3.51859 10.3757 -4.50026 558.327 466.971
3 20 21 23
3 21 22 23
3 0 1 36
3 15 16 45
3 0 17 36
3 16 26 45
3 17 18 37
3 25 26 44
3 17 36 37
3 26 44 45
3 18 19 38
3 24 25 43
3 18 37 38
3 25 43 44
3 19 20 38
3 23 24 43
3 20 21 39
3 22 23 42
3 20 38 39
3 23 42 43
3 21 22 27
3 21 27 39
3 22 27 42
3 27 28 42
3 27 28 39
3 28 42 47
3 28 39 40
3 1 36 41
3 15 45 46
3 1 2 41
3 14 15 46
3 28 29 40
3 28 29 47
3 2 40 41
3 14 46 47
3 2 29 40
3 14 29 47
3 2 3 29
3 13 14 29
3 29 30 31
3 29 30 35
3 3 29 31
3 13 29 35
3 30 32 33
3 30 33 34
3 30 31 32
3 30 34 35
3 3 4 31
3 12 13 35
3 4 5 48
3 11 12 54
3 5 6 48
3 10 11 54
3 6 48 59
3 10 54 55
3 6 7 59
3 9 10 55
3 7 58 59
3 9 55 56
3 8 57 58
3 8 56 57
3 7 8 58
3 8 9 56
3 4 31 48
3 12 35 54
3 31 48 49
3 35 53 54
3 31 49 50
3 35 52 53
3 31 32 50
3 34 35 52
3 32 33 50
3 33 34 52
3 33 50 51
3 33 51 52
3 48 49 60
3 49 60 50
3 50 60 61
3 50 51 61
3 51 52 61
3 61 62 52
3 52 53 62
3 53 54 62
3 54 55 63
3 55 56 63
3 56 63 64
3 56 57 64
3 64 65 57
3 57 58 65
3 58 59 65
3 48 59 65
