ply
format ascii 1.0
element vertex 66
property float x
property float y
property float z
property float u
property float v
element face 91
property list uchar int vertex_indices
end_header
-20.5683 -5.94793 21.2024 486.426 424.624
-19.9142 -0.653157 20.7318 487.911 444.816
-18.9814 4.59534 20.2512 490.509 464.895
-17.6377 9.74717 18.2361 495.077 483.398
-15.5516 14.5528 13.4178 503.249 498.365
-12.3316 18.5751 7.82634 516.238 509.951
-8.26056 21.7216 3.17403 532.585 519.191
-3.62899 23.9542 -1.05082 551.26 525.421
1.49847 24.5273 -4.67043 572.139 525.902
6.63051 23.2992 -0.863578 591.866 525.794
10.94 20.3294 3.3815 608.646 519.124
14.487 16.4825 7.99905 622.536 509.186
17.1305 11.9772 13.5371 632.812 497.256
18.6458 6.99074 18.2922 638.91 482.499
19.3166 1.85649 20.3269 642.286 464.619
19.4894 -3.30075 20.7393 644.046 445.128
19.3195 -8.46162 21.1138 644.463 425.5
-16.1523 -15.5313 0.102703 510.506 370.784
-13.7557 -16.9618 -1.46209 520.622 364.568
-10.9624 -17.4297 -2.86697 532.052 362.306
-8.14224 -17.2376 -4.25597 543.436 362.611
-5.4158 -16.477 -5.47645 554.285 365.227
2.85419 -16.8179 -5.47283 587.006 366.123
5.37002 -17.8808 -4.2032 596.907 363.782
8.0619 -18.4162 -2.79983 607.356 363.637
10.8186 -18.356 -1.36113 617.918 365.836
13.3263 -17.3128 0.265256 627.235 371.921
-0.624867 -11.4257 -4.89215 571.931 386.488
-0.393596 -8.3604 -7.66322 572.74 395.999
-0.171831 -5.31175 -10.548 573.539 405.347
0.0465158 -2.28092 -13.3152 574.303 414.726
-3.15799 0.542476 -6.15423 559.495 430.888
-1.43851 1.03357 -7.13374 566.379 432.403
0.383979 1.18092 -8.03641 573.732 432.685
2.09745 0.801112 -7.01345 580.364 432.553
3.6392 0.0795554 -6.08889 586.416 430.973
-12.1314 -10.4435 -1.04593 525.472 390.497
-10.5938 -11.4337 -1.07138 531.77 387.066
-8.70845 -11.6741 -1.0129 539.254 386.692
-7.0241 -11.0162 -0.846539 545.719 389.822
-8.65641 -10.356 -0.993919 539.158 391.806
-10.432 -10.1726 -1.01647 532.112 392.02
5.15112 -11.705 -0.747318 593.913 390.499
6.70047 -12.5286 -0.957165 600.26 387.557
8.56452 -12.5686 -0.993493 607.634 387.869
10.1869 -11.7918 -0.912315 613.845 391.367
8.56883 -11.2975 -0.890837 607.342 392.86
6.8148 -11.2737 -0.857865 600.406 392.512
-5.96416 8.92122 -2.82073 545.816 465.306
-4.05545 7.39025 -4.89779 554.138 458.134
-1.81483 6.27129 -6.54092 563.584 453.01
0.67443 6.39812 -8.16864 573.727 452.77
3.09963 5.95864 -6.33775 583.01 453.29
5.41509 6.75525 -4.6931 591.621 458.388
7.4171 8.04766 -2.62224 598.791 465.679
5.74014 9.71198 -3.95452 592.079 470.509
3.50514 10.7134 -5.08844 583.271 472.805
0.998436 11.125 -6.52077 573.588 472.497
-1.55667 11.0175 -5.27487 563.261 472.467
-3.95339 10.324 -4.11935 553.712 470.142
-1.40502 8.18295 -5.19457 564.484 461.644
0.808588 8.12323 -7.26832 573.676 460.23
2.97397 7.92303 -4.98918 581.784 461.986
3.02429 8.23306 -4.4626 581.801 463.646
0.855938 8.57996 -6.33583 573.561 462.802
-1.365 8.50147 -4.63312 564.45 463.364
3 20 21 23
3 21 22 23
3 0 1 36
3 15 16 45
3 0 17 36
3 16 26 45
3 17 18 37
3 25 26 44
3 17 36 37
3 26 44 45
3 18 19 38
3 24 25 43
3 18 37 38
3 25 43 44
3 19 20 38
3 23 24 43
3 20 21 39
3 22 23 42
3 20 38 39
3 23 42 43
3 21 22 27
3 21 27 39
3 22 27 42
3 27 28 42
3 27 28 39
3 28 42 47
3 28 39 40
3 1 36 41
3 15 45 46
3 1 2 41
3 14 15 46
3 28 29 40
3 28 29 47
3 2 40 41
3 14 46 47
3 2 29 40
3 14 29 47
3 2 3 29
3 13 14 29
3 29 30 31
3 29 30 35
3 3 29 31
3 13 29 35
3 30 32 33
3 30 33 34
3 30 31 32
3 30 34 35
3 3 4 31
3 12 13 35
3 4 5 48
3 11 12 54
3 5 6 48
3 10 11 54
3 6 48 59
3 10 54 55
3 6 7 59
3 9 10 55
3 7 58 59
3 9 55 56
3 8 57 58
3 8 56 57
3 7 8 58
3 8 9 56
3 4 31 48
3 12 35 54
3 31 48 49
3 35 53 54
3 31 49 50
3 35 52 53
3 31 32 50
3 34 35 52
3 32 33 50
3 33 34 52
3 33 50 51
3 33 51 52
3 48 49 60
3 49 60 50
3 50 60 61
3 50 51 61
3 51 52 61
3 61 62 52
3 52 53 62
3 53 54 62
3 54 55 63
3 55 56 63
3 56 63 64
3 56 57 64
3 64 65 57
3 57 58 65
3 58 59 65
3 48 59 65
