ply
format ascii 1.0
element vertex 66
property float x
property float y
property float z
property float u
property float v
element face 91
property list uchar int vertex_indices
end_header
-19.9166 -5.97364 20.9903 487.38 423.65
-19.2813 -0.72081 20.5991 488.448 444.426
-18.3552 4.47562 20.094 490.733 464.979
-16.9593 9.59544 18.1477 495.195 484.203
-14.8582 14.4454 13.4515 503.072 500.336
-11.8051 18.6521 7.86315 515.159 513.493
-7.96906 22.1101 3.12792 530.501 524.629
-3.53262 24.7173 -1.04146 548.438 533.043
1.53752 25.4965 -4.71534 569.411 534.802
6.64079 24.1166 -0.849343 589.871 534.156
10.7895 20.8509 3.30186 606.974 525.932
14.1095 16.7179 8.01259 620.879 514.444
16.5451 11.9907 13.5682 631.228 500.995
17.9926 6.87388 18.2153 637.84 484.928
18.6631 1.67478 20.1452 641.791 466.055
18.7921 -3.51109 20.5868 643.795 445.838
18.5583 -8.70595 20.9243 644.348 425.381
-15.4717 -15.695 0.0665863 511.929 369.336
-13.2445 -17.1285 -1.47659 521.663 363.105
-10.5757 -17.6357 -2.8715 532.885 360.824
-7.85533 -17.4738 -4.28303 544.118 361.207
-5.22009 -16.7416 -5.53329 554.807 363.962
2.75983 -17.1267 -5.54482 587.309 365.045
5.14619 -18.1415 -4.24372 597.074 362.859
7.69764 -18.6322 -2.81696 607.331 362.914
10.295 -18.5439 -1.38085 617.598 365.295
12.6215 -17.5304 0.219092 626.46 371.398
-0.568552 -11.7646 -4.89124 572.08 385.806
-0.326307 -8.96964 -7.57728 572.685 394.802
-0.0942359 -6.1874 -10.3646 573.27 403.66
0.127078 -3.42972 -13.1163 573.813 412.446
-2.912 -0.207794 -5.98644 559.288 430.093
-1.28738 0.171138 -6.9756 565.937 431.324
0.418911 0.276497 -7.92938 572.994 431.523
2.0016 -0.0383648 -6.85927 579.328 431.667
3.44673 -0.623689 -5.89049 585.201 430.608
-11.6551 -10.6051 -1.13389 526.096 389.846
-10.2237 -11.5161 -1.06784 532.167 386.749
-8.45025 -11.8036 -0.952206 539.43 386.284
-6.84037 -11.3476 -0.805021 545.801 388.746
-8.34994 -10.602 -0.980143 539.481 391.072
-10.0396 -10.3748 -0.993846 532.558 391.408
4.91371 -12.0084 -0.654589 593.673 390.106
6.41929 -12.6414 -0.871058 600.01 387.907
8.18867 -12.6328 -1.01503 607.213 388.405
9.7013 -11.9201 -1.08156 613.149 391.682
8.15852 -11.4672 -0.904598 606.722 393.12
6.48011 -11.4879 -0.847516 599.907 392.533
-5.31765 9.40398 -2.80725 546.095 470.122
-3.79044 7.63798 -4.85088 553.173 461.93
-1.79625 6.21876 -6.47137 561.97 455.616
0.630037 6.30657 -8.09192 572.068 455.437
2.98712 5.93845 -6.32556 581.441 456.193
5.07249 7.10548 -4.69098 589.273 462.857
6.68861 8.71448 -2.62436 594.993 471.477
5.33695 10.5139 -4.06055 589.214 477.013
3.37706 11.7124 -5.22192 581.101 480.183
0.964496 12.2283 -6.65602 571.401 480.268
-1.5051 11.9652 -5.36909 561.237 479.463
-3.63387 10.9971 -4.19568 552.688 475.874
-1.34199 8.28566 -5.0187 562.944 465.173
0.740151 8.09727 -7.17646 571.821 463.342
2.76461 8.08281 -4.80594 579.633 465.89
2.82453 9.02501 -4.41554 579.527 469.976
0.839432 9.55761 -6.29641 571.634 469.902
-1.24771 9.23351 -4.58012 562.967 469.331
3 20 21 23
3 21 22 23
3 0 1 36
3 15 16 45
3 0 17 36
3 16 26 45
3 17 18 37
3 25 26 44
3 17 36 37
3 26 44 45
3 18 19 38
3 24 25 43
3 18 37 38
3 25 43 44
3 19 20 38
3 23 24 43
3 20 21 39
3 22 23 42
3 20 38 39
3 23 42 43
3 21 22 27
3 21 27 39
3 22 27 42
3 27 28 42
3 27 28 39
3 28 42 47
3 28 39 40
3 1 36 41
3 15 45 46
3 1 2 41
3 14 15 46
3 28 29 40
3 28 29 47
3 2 40 41
3 14 46 47
3 2 29 40
3 14 29 47
3 2 3 29
3 13 14 29
3 29 30 31
3 29 30 35
3 3 29 31
3 13 29 35
3 30 32 33
3 30 33 34
3 30 31 32
3 30 34 35
3 3 4 31
3 12 13 35
3 4 5 48
3 11 12 54
3 5 6 48
3 10 11 54
3 6 48 59
3 10 54 55
3 6 7 59
3 9 10 55
3 7 58 59
3 9 55 56
3 8 57 58
3 8 56 57
3 7 8 58
3 8 9 56
3 4 31 48
3 12 35 54
3 31 48 49
3 35 53 54
3 31 49 50
3 35 52 53
3 31 32 50
3 34 35 52
3 32 33 50
3 33 34 52
3 33 50 51
3 33 51 52
3 48 49 60
3 49 60 50
3 50 60 61
3 50 51 61
3 51 52 61
3 61 62 52
3 52 53 62
3 53 54 62
3 54 55 63
3 55 56 63
3 56 63 64
3 56 57 64
3 64 65 57
3 57 58 65
3 58 59 65
3 48 59 65
