ply
format ascii 1.0
element vertex 66
property float x
property float y
property float z
property float u
property float v
element face 91
property list uchar int vertex_indices
end_header
-20.6598 -5.92213 21.2642 486.065 425.818
-19.9882 -0.620052 20.7862 487.678 445.953
-19.0498 4.63568 20.2883 490.354 465.963
-17.703 9.8069 18.2361 495.002 484.414
-15.611 14.6384 13.4115 503.273 499.363
-12.3689 18.6435 7.79882 516.422 510.754
-8.27695 21.737 3.15584 532.893 519.697
-3.64898 23.9195 -1.0601 551.573 525.646
1.44263 24.4902 -4.71163 572.298 526.007
6.57006 23.2256 -0.842145 591.88 525.806
10.882 20.2239 3.38742 608.546 519.029
14.4433 16.353 7.9924 622.361 509.041
17.1163 11.8209 13.5384 632.613 497.094
18.6832 6.82518 18.2579 638.797 482.369
19.3879 1.72642 20.3267 642.201 464.74
19.5653 -3.37781 20.7246 643.904 445.515
19.3887 -8.48762 21.0926 644.223 426.15
-16.2388 -15.4862 0.116951 510.223 371.985
-13.8575 -16.9799 -1.45644 520.263 365.504
-11.0395 -17.4951 -2.85583 531.773 363.046
-8.17668 -17.3051 -4.23273 543.303 363.329
-5.40383 -16.5241 -5.43779 554.314 366.008
2.93303 -16.8281 -5.48087 587.19 366.955
5.43807 -17.8922 -4.21269 596.991 364.605
8.12181 -18.4208 -2.80833 607.35 364.477
10.8627 -18.3444 -1.35868 617.795 366.727
13.3367 -17.2854 0.270296 626.938 372.839
-0.5257 -11.2313 -4.88927 572.25 388.078
-0.314539 -8.24564 -7.66577 573.06 397.214
-0.114957 -5.27479 -10.5515 573.851 406.195
0.078961 -2.32323 -13.3229 574.599 415.199
-3.1078 0.461085 -6.14577 559.864 431.26
-1.38619 0.934631 -7.12798 566.755 432.677
0.431257 1.0828 -8.049 574.08 432.922
2.11722 0.717183 -7.00571 580.559 432.852
3.64358 0.0267592 -6.06825 586.503 431.4
-12.1759 -10.3446 -1.05179 525.367 391.785
-10.6186 -11.2999 -1.07706 531.705 388.494
-8.73193 -11.5539 -1.01338 539.168 388.06
-7.02599 -10.9434 -0.829057 545.708 391.005
-8.67349 -10.2923 -0.979305 539.12 392.952
-10.4597 -10.1085 -1.00914 532.059 393.172
5.22489 -11.6066 -0.759813 594.035 391.679
6.79565 -12.3614 -0.963628 600.423 389.008
8.65278 -12.3882 -1.00736 607.745 389.347
10.2709 -11.6318 -0.936455 613.933 392.733
8.63825 -11.1792 -0.903704 607.405 394.078
6.88452 -11.1713 -0.867654 600.496 393.687
-6.02214 8.88338 -2.83076 545.854 465.728
-4.0934 7.36614 -4.91212 554.232 458.602
-1.83814 6.24623 -6.54581 563.709 453.473
0.670356 6.38638 -8.15851 573.908 453.27
3.10493 5.94786 -6.32822 583.173 453.791
5.4129 6.75833 -4.69018 591.715 458.912
7.3933 8.06259 -2.62315 598.766 466.216
5.70396 9.68615 -3.94314 592.066 470.882
3.47001 10.6544 -5.07931 583.322 473.047
0.974968 11.0595 -6.54209 573.745 472.699
-1.578 10.9363 -5.28011 563.445 472.654
-3.98246 10.2585 -4.11937 553.871 470.429
-1.51484 8.11782 -5.22166 564.285 461.89
0.79966 8.07096 -7.28344 573.861 460.531
3.05443 7.86901 -4.97733 582.261 462.324
3.1099 8.24121 -4.43791 582.279 464.233
0.854989 8.60802 -6.34683 573.754 463.416
-1.46768 8.50365 -4.64639 564.259 463.88
3 20 21 23
3 21 22 23
3 0 1 36
3 15 16 45
3 0 17 36
3 16 26 45
3 17 18 37
3 25 26 44
3 17 36 37
3 26 44 45
3 18 19 38
3 24 25 43
3 18 37 38
3 25 43 44
3 19 20 38
3 23 24 43
3 20 21 39
3 22 23 42
3 20 38 39
3 23 42 43
3 21 22 27
3 21 27 39
3 22 27 42
3 27 28 42
3 27 28 39
3 28 42 47
3 28 39 40
3 1 36 41
3 15 45 46
3 1 2 41
3 14 15 46
3 28 29 40
3 28 29 47
3 2 40 41
3 14 46 47
3 2 29 40
3 14 29 47
3 2 3 29
3 13 14 29
3 29 30 31
3 29 30 35
3 3 29 31
3 13 29 35
3 30 32 33
3 30 33 34
3 30 31 32
3 30 34 35
3 3 4 31
3 12 13 35
3 4 5 48
3 11 12 54
3 5 6 48
3 10 11 54
3 6 48 59
3 10 54 55
3 6 7 59
3 9 10 55
3 7 58 59
3 9 55 56
3 8 57 58
3 8 56 57
3 7 8 58
3 8 9 56
3 4 31 48
3 12 35 54
3 31 48 49
3 35 53 54
3 31 49 50
3 35 52 53
3 31 32 50
3 34 35 52
3 32 33 50
3 33 34 52
3 33 50 51
3 33 51 52
3 48 49 60
3 49 60 50
3 50 60 61
3 50 51 61
3 51 52 61
3 61 62 52
3 52 53 62
3 53 54 62
3 54 55 63
3 55 56 63
3 56 63 64
3 56 57 64
3 64 65 57
3 57 58 65
3 58 59 65
3 48 59 65
