ply
format ascii 1.0
element vertex 66
property float x
property float y
property float z
property float u
property float v
element face 91
property list uchar int vertex_indices
end_header
-19.9011 -6.22011 20.8789 488.695 420.298
-19.262 -0.915475 20.5094 490.044 441.274
-18.3103 4.32281 19.9773 492.724 461.902
-16.8735 9.53644 18.1436 497.597 481.204
-14.7508 14.5764 13.3876 505.76 496.942
-11.7152 19.0729 7.78672 517.949 509.881
-7.89563 22.8681 3.13674 533.416 521.236
-3.37776 25.686 -1.04246 551.946 529.377
1.81681 26.5676 -4.75714 573.693 530.462
6.92604 25.0413 -0.883381 594.621 529.86
11.0507 21.6196 3.28789 611.921 521.724
14.2604 17.2436 7.93185 625.619 510.016
16.5625 12.2901 13.5225 635.581 496.739
17.8937 6.98286 18.2658 641.746 480.889
18.5297 1.64502 20.075 645.464 461.647
18.6724 -3.63249 20.5732 647.317 441.133
18.4689 -8.92385 20.9306 647.764 420.32
-15.191 -15.8131 0.0515262 513.516 361.484
-13.0247 -17.1955 -1.53671 523.033 354.907
-10.4214 -17.6641 -2.91026 534.093 352.326
-7.7662 -17.479 -4.31601 545.206 352.337
-5.20048 -16.7106 -5.55049 555.779 354.832
2.74736 -17.1749 -5.48616 588.696 355.275
5.11514 -18.2402 -4.22439 598.561 353.007
7.64747 -18.7554 -2.81607 608.945 353.136
10.2167 -18.6588 -1.42436 619.329 355.701
12.4903 -17.6244 0.221157 628.22 362.194
-0.684448 -11.6563 -4.87041 573.047 376.996
-0.435423 -8.82189 -7.60057 573.745 385.524
-0.19204 -5.99131 -10.3553 574.425 394.009
0.0440929 -3.18505 -13.0214 575.068 402.488
-2.87937 -0.160361 -5.93467 561.231 421.173
-1.34173 0.253646 -6.92921 567.615 422.216
0.289902 0.389688 -7.89883 574.453 422.201
1.8352 0.0378411 -6.81303 580.767 422.367
3.22591 -0.58231 -5.82114 586.524 421.32
-11.4673 -10.6626 -1.25392 527.771 381.729
-10.1304 -11.5459 -1.16331 533.5 378.671
-8.44727 -11.8687 -0.965611 540.502 378.062
-6.89138 -11.5156 -0.770362 546.807 380.113
-8.30229 -10.7232 -0.964374 540.81 382.678
-9.91531 -10.4813 -0.988869 534.094 383.166
4.95277 -12.2442 -0.60969 595.862 380.695
6.43404 -12.793 -0.857149 602.151 378.659
8.13456 -12.7276 -1.07752 609.185 379.167
9.56741 -12.0381 -1.16822 614.938 382.227
8.06474 -11.6409 -0.876041 608.594 383.698
6.44711 -11.6682 -0.823461 601.915 383.19
-4.58506 9.31795 -2.75049 551.342 461.883
-3.32092 7.61538 -4.86355 557.291 453.224
-1.58388 6.27084 -6.48391 565.031 446.644
0.582559 6.42479 -8.03571 574.155 446.24
2.68834 6.00039 -6.36399 582.718 446.888
4.54123 7.11002 -4.73484 589.855 453.546
5.94671 8.65802 -2.60382 594.964 462.356
4.70389 10.1717 -3.996 589.648 466.593
2.9802 11.1421 -5.19491 582.457 468.728
0.906517 11.6203 -6.66058 573.984 468.52
-1.21883 11.3865 -5.31748 565.079 468.398
-3.07731 10.6326 -4.12743 557.429 466.113
-0.804132 8.30985 -4.92233 567.513 456.642
0.699191 8.22185 -7.00426 574.036 454.53
2.1578 8.14934 -4.76375 579.758 456.998
2.14835 8.5174 -4.40059 579.574 458.846
0.748671 8.95912 -6.22133 573.943 458.309
-0.72539 8.67242 -4.52401 567.69 458.529
3 20 21 23
3 21 22 23
3 0 1 36
3 15 16 45
3 0 17 36
3 16 26 45
3 17 18 37
3 25 26 44
3 17 36 37
3 26 44 45
3 18 19 38
3 24 25 43
3 18 37 38
3 25 43 44
3 19 20 38
3 23 24 43
3 20 21 39
3 22 23 42
3 20 38 39
3 23 42 43
3 21 22 27
3 21 27 39
3 22 27 42
3 27 28 42
3 27 28 39
3 28 42 47
3 28 39 40
3 1 36 41
3 15 45 46
3 1 2 41
3 14 15 46
3 28 29 40
3 28 29 47
3 2 40 41
3 14 46 47
3 2 29 40
3 14 29 47
3 2 3 29
3 13 14 29
3 29 30 31
3 29 30 35
3 3 29 31
3 13 29 35
3 30 32 33
3 30 33 34
3 30 31 32
3 30 34 35
3 3 4 31
3 12 13 35
3 4 5 48
3 11 12 54
3 5 6 48
3 10 11 54
3 6 48 59
3 10 54 55
3 6 7 59
3 9 10 55
3 7 58 59
3 9 55 56
3 8 57 58
3 8 56 57
3 7 8 58
3 8 9 56
3 4 31 48
3 12 35 54
3 31 48 49
3 35 53 54
3 31 49 50
3 35 52 53
3 31 32 50
3 34 35 52
3 32 33 50
3 33 34 52
3 33 50 51
3 33 51 52
3 48 49 60
3 49 60 50
3 50 60 61
3 50 51 61
3 51 52 61
3 61 62 52
3 52 53 62
3 53 54 62
3 54 55 63
3 55 56 63
3 56 63 64
3 56 57 64
3 64 65 57
3 57 58 65
3 58 59 65
3 48 59 65
