ply
format ascii 1.0
element vertex 66
property float x
property float y
property float z
property float u
property float v
element face 91
property list uchar int vertex_indices
end_header
-20.5789 -5.89523 21.2278 486.249 424.783
-19.906 -0.599823 20.752 487.791 445.001
-18.9634 4.64763 20.2547 490.414 465.089
-17.6235 9.81937 18.2216 494.962 483.677
-15.5489 14.668 13.3899 503.102 498.819
-12.3247 18.7066 7.78611 516.14 510.486
-8.25055 21.8459 3.15003 532.531 519.743
-3.63023 24.0673 -1.06583 551.199 525.966
1.46349 24.6532 -4.69925 571.987 526.504
6.59129 23.3728 -0.833621 591.694 526.274
10.8913 20.3374 3.39332 608.455 519.354
14.4289 16.424 7.99024 622.325 509.153
17.0716 11.8553 13.526 632.604 496.983
18.6032 6.83254 18.257 638.775 482.066
19.2927 1.71637 20.2985 642.23 464.254
19.4742 -3.39832 20.6977 644.039 444.901
19.3017 -8.51896 21.0656 644.458 425.402
-16.1274 -15.5334 0.109219 510.698 370.688
-13.7757 -16.9784 -1.47111 520.67 364.397
-11.0097 -17.4711 -2.86395 532.017 362.056
-8.20227 -17.2871 -4.23968 543.369 362.354
-5.47806 -16.5363 -5.44429 554.224 364.963
3.01131 -16.8628 -5.48167 587.849 365.988
5.48744 -17.8905 -4.21981 597.592 363.778
8.13023 -18.4019 -2.8197 607.844 363.726
10.8258 -18.3233 -1.3799 618.16 365.999
13.2629 -17.2863 0.257529 627.19 372.071
-0.544642 -11.2467 -4.87905 572.372 387.214
-0.334107 -8.27845 -7.65928 573.13 396.347
-0.134755 -5.3237 -10.5382 573.868 405.34
0.0591952 -2.38708 -13.2879 574.561 414.372
-3.10544 0.489772 -6.13585 559.824 430.745
-1.39497 0.982038 -7.11768 566.684 432.271
0.416942 1.14304 -8.0388 574.008 432.597
2.10152 0.763873 -6.9893 580.521 432.493
3.6186 0.0553566 -6.05199 586.472 430.975
-12.0355 -10.4776 -1.04716 525.953 390.331
-10.5736 -11.4356 -1.07519 531.956 387.008
-8.76908 -11.6839 -1.00803 539.128 386.6
-7.15388 -11.0581 -0.826091 545.325 389.612
-8.70362 -10.3697 -0.973951 539.076 391.72
-10.4088 -10.1978 -0.99875 532.305 391.897
5.33637 -11.7435 -0.755731 594.817 390.436
6.8173 -12.5022 -0.958508 600.888 387.738
8.5936 -12.5195 -1.00655 607.92 388.115
10.1183 -11.7473 -0.934562 613.75 391.574
8.57833 -11.2665 -0.893806 607.546 393.044
6.90576 -11.2577 -0.862962 600.929 392.648
-5.94055 8.9497 -2.8313 545.945 465.462
-4.05781 7.39396 -4.92698 554.203 458.174
-1.83394 6.23763 -6.55529 563.614 452.921
0.661249 6.37844 -8.15042 573.79 452.779
3.08784 5.93865 -6.33441 583.08 453.3
5.37526 6.78785 -4.701 591.563 458.603
7.32357 8.13205 -2.61649 598.493 466.111
5.64829 9.74 -3.92195 591.79 470.742
3.43451 10.6889 -5.05971 583.075 472.825
0.971694 11.0873 -6.53095 573.575 472.43
-1.54561 10.9696 -5.268 563.379 472.371
-3.92483 10.3108 -4.10817 553.876 470.172
-1.32491 8.1679 -5.20605 564.884 461.668
0.796115 8.13629 -7.24123 573.718 460.381
2.86218 7.94336 -4.96075 581.425 462.155
2.89699 8.22304 -4.43116 581.382 463.698
0.842853 8.55425 -6.33109 573.607 462.787
-1.27221 8.4586 -4.64416 564.901 463.287
3 20 21 23
3 21 22 23
3 0 1 36
3 15 16 45
3 0 17 36
3 16 26 45
3 17 18 37
3 25 26 44
3 17 36 37
3 26 44 45
3 18 19 38
3 24 25 43
3 18 37 38
3 25 43 44
3 19 20 38
3 23 24 43
3 20 21 39
3 22 23 42
3 20 38 39
3 23 42 43
3 21 22 27
3 21 27 39
3 22 27 42
3 27 28 42
3 27 28 39
3 28 42 47
3 28 39 40
3 1 36 41
3 15 45 46
3 1 2 41
3 14 15 46
3 28 29 40
3 28 29 47
3 2 40 41
3 14 46 47
3 2 29 40
3 14 29 47
3 2 3 29
3 13 14 29
3 29 30 31
3 29 30 35
3 3 29 31
3 13 29 35
3 30 32 33
3 30 33 34
3 30 31 32
3 30 34 35
3 3 4 31
3 12 13 35
3 4 5 48
3 11 12 54
3 5 6 48
3 10 11 54
3 6 48 59
3 10 54 55
3 6 7 59
3 9 10 55
3 7 58 59
3 9 55 56
3 8 57 58
3 8 56 57
3 7 8 58
3 8 9 56
3 4 31 48
3 12 35 54
3 31 48 49
3 35 53 54
3 31 49 50
3 35 52 53
3 31 32 50
3 34 35 52
3 32 33 50
3 33 34 52
3 33 50 51
3 33 51 52
3 48 49 60
3 49 60 50
3 50 60 61
3 50 51 61
3 51 52 61
3 61 62 52
3 52 53 62
3 53 54 62
3 54 55 63
3 55 56 63
3 56 63 64
3 56 57 64
3 64 65 57
3 57 58 65
3 58 59 65
3 48 59 65
