ply
format ascii 1.0
element vertex 66
property float x
property float y
property float z
property float u
property float v
element face 91
property list uchar int vertex_indices
end_header
-20.1208 -6.1443 21.3514 489.52 420.349
-19.452 -0.768905 20.8432 491.06 441.624
-18.5718 4.56721 20.2331 493.498 462.71
-17.3268 9.80125 18.0135 497.801 482.053
-15.2537 14.669 13.5138 506.075 498.128
-11.9708 18.668 7.88923 519.762 510.062
-7.8996 21.8168 2.88772 536.758 519.37
-3.32339 24.1646 -1.2315 555.834 526.4
1.80271 24.7524 -4.6538 577.447 527.158
6.77515 23.3497 -1.0409 597.419 526.179
10.8607 20.1654 3.13096 614.069 518.309
14.2363 16.2635 8.11864 627.808 508.091
16.8084 11.7882 13.6818 638.268 495.86
18.2581 6.84929 18.0917 644.482 480.423
18.793 1.81119 20.3131 647.433 462.372
18.8852 -3.25287 20.7872 648.946 442.531
18.718 -8.317 21.2229 649.403 422.582
-15.479 -15.6643 0.10199 515.403 364.546
-12.9899 -16.5467 -1.31444 526.13 360.454
-10.412 -16.7162 -2.81686 537.066 359.166
-7.90215 -16.5152 -4.2478 547.617 359.408
-5.48417 -15.8488 -5.48916 557.638 361.657
3.26578 -16.2204 -5.55195 593.636 362.603
5.46264 -17.0489 -4.26537 602.577 361.057
7.80157 -17.4721 -2.8171 611.967 361.321
10.229 -17.5922 -1.28381 621.628 362.9
12.6349 -17.0274 0.250088 631.033 367.218
-0.58948 -10.9025 -4.92433 576.39 383.373
-0.378508 -7.8053 -7.68932 577.088 393.374
-0.181788 -4.73464 -10.6502 577.775 403.089
0.0118505 -1.68551 -13.5479 578.442 412.773
-3.73631 0.302895 -6.3969 561.06 426.06
-1.75946 0.899562 -7.24456 569.204 428.257
0.319729 1.11913 -7.98149 577.837 429.07
2.24848 0.640585 -7.19011 585.698 428.408
4.02235 -0.209423 -6.34897 593.003 426.258
-12.4222 -10.5756 -0.764851 526.885 385.031
-10.7054 -11.4137 -0.924391 534.166 382.019
-8.77314 -11.5682 -1.17733 542.184 381.724
-7.07793 -10.8639 -1.0028 548.929 385.184
-8.86632 -10.5316 -0.92281 541.495 386.078
-10.6819 -10.4251 -0.961512 534.029 385.954
5.18044 -11.5077 -1.03645 599.38 386.063
6.7412 -12.3302 -1.17686 606.014 383.086
8.62324 -12.4432 -0.883201 613.699 383.432
10.3677 -11.8039 -0.652653 620.651 386.696
8.69155 -11.4596 -0.893675 613.742 387.383
6.92144 -11.3871 -0.884071 606.461 387.178
-8.89131 7.42219 -2.59377 537.368 456.516
-6.18389 5.8285 -4.61365 549.292 449.096
-2.89437 4.99954 -6.33363 563.355 445.175
0.530974 4.93643 -8.14301 577.806 444.281
3.87486 4.5448 -6.15337 591.196 445.44
7.19246 4.88848 -4.41612 604.353 449.313
9.99679 6.14119 -2.42449 615.128 456.91
8.10649 9.50273 -3.95157 606.878 468.477
5.05949 11.9388 -5.00065 594.007 476.433
1.1629 12.8607 -6.37847 578.09 477.788
-2.91127 12.471 -5.17054 561.215 476.145
-6.36014 10.4725 -4.17382 547.343 468.047
-3.90721 6.49935 -5.1981 558.592 451.91
0.661535 6.26535 -7.79657 577.944 449.952
5.16828 5.89202 -4.9997 595.928 452.237
5.74965 9.52298 -4.30632 597.28 467.57
1.02587 10.7919 -6.30956 578.018 469.521
-3.87726 10.1753 -4.49984 557.67 467.271
3 20 21 23
3 21 22 23
3 0 1 36
3 15 16 45
3 0 17 36
3 16 26 45
3 17 18 37
3 25 26 44
3 17 36 37
3 26 44 45
3 18 19 38
3 24 25 43
3 18 37 38
3 25 43 44
3 19 20 38
3 23 24 43
3 20 21 39
3 22 23 42
3 20 38 39
3 23 42 43
3 21 22 27
3 21 27 39
3 22 27 42
3 27 28 42
3 27 28 39
3 28 42 47
3 28 39 40
3 1 36 41
3 15 45 46
3 1 2 41
3 14 15 46
3 28 29 40
3 28 29 47
3 2 40 41
3 14 46 47
3 2 29 40
3 14 29 47
3 2 3 29
3 13 14 29
3 29 30 31
3 29 30 35
3 3 29 31
3 13 29 35
3 30 32 33
3 30 33 34
3 30 31 32
3 30 34 35
3 3 4 31
3 12 13 35
3 4 5 48
3 11 12 54
3 5 6 48
3 10 11 54
3 6 48 59
3 10 54 55
3 6 7 59
3 9 10 55
3 7 58 59
3 9 55 56
3 8 57 58
3 8 56 57
3 7 8 58
3 8 9 56
3 4 31 48
3 12 35 54
3 31 48 49
3 35 53 54
3 31 49 50
3 35 52 53
3 31 32 50
3 34 35 52
3 32 33 50
3 33 34 52
3 33 50 51
3 33 51 52
3 48 49 60
3 49 60 50
3 50 60 61
3 50 51 61
3 51 52 61
3 61 62 52
3 52 53 62
3 53 54 62
3 54 55 63
3 55 56 63
3 56 63 64
3 56 57 64
3 64 65 57
3 57 58 65
3 58 59 65
3 48 59 65
