ply
format ascii 1.0
element vertex 66
property float x
property float y
property float z
property float u
property float v
element face 91
property list uchar int vertex_indices
end_header
-20.6479 -5.88052 21.2305 486.321 425.558
-19.9796 -0.63486 20.7721 487.821 445.546
-19.0427 4.56301 20.2873 490.396 465.401
-17.6934 9.68301 18.2084 494.939 483.712
-15.5855 14.497 13.4359 503.091 498.76
-12.3348 18.5141 7.82741 516.102 510.339
-8.23679 21.624 3.17985 532.469 519.474
-3.60651 23.8349 -1.04059 551.055 525.657
1.49354 24.422 -4.68367 571.754 526.207
6.59816 23.1989 -0.866657 591.376 526.136
10.929 20.2765 3.3724 608.26 519.671
14.525 16.475 7.99507 622.376 509.947
17.1959 11.9637 13.564 632.82 498.044
18.7041 6.94055 18.2881 638.975 483.135
19.3649 1.80176 20.3807 642.353 465.311
19.5391 -3.34115 20.8054 644.156 445.919
19.3833 -8.49045 21.1824 644.669 426.372
-16.2215 -15.3755 0.10905 510.281 372.238
-13.8354 -16.8655 -1.46264 520.351 365.814
-11.0177 -17.3923 -2.87645 531.865 363.351
-8.15163 -17.2316 -4.2559 543.401 363.577
-5.37468 -16.4816 -5.46282 554.412 366.194
2.85267 -16.8558 -5.46913 586.918 366.988
5.41661 -17.9196 -4.21112 597.013 364.661
8.15378 -18.434 -2.81411 607.633 364.615
10.939 -18.3235 -1.36276 618.286 367.034
13.4456 -17.2283 0.27117 627.574 373.323
-0.609102 -11.3125 -4.90728 571.868 387.865
-0.37098 -8.29059 -7.66183 572.661 397.221
-0.142305 -5.28605 -10.5525 573.448 406.392
0.0809813 -2.3023 -13.3501 574.2 415.56
-3.12793 0.460647 -6.15079 559.445 431.448
-1.41559 0.920558 -7.13371 566.284 432.849
0.387918 1.06017 -8.05797 573.546 433.091
2.07936 0.689801 -7.03132 580.088 433
3.61859 0.00138673 -6.09281 586.123 431.567
-12.1685 -10.2576 -1.03665 525.288 392.072
-10.6143 -11.2288 -1.08271 531.648 388.716
-8.72539 -11.4808 -1.04251 539.141 388.295
-7.01252 -10.8835 -0.86268 545.714 391.214
-8.66156 -10.2467 -0.98824 539.093 393.11
-10.4452 -10.0475 -1.01582 532.024 393.367
5.15848 -11.5852 -0.754404 593.811 391.92
6.74684 -12.3643 -0.985147 600.299 389.157
8.62087 -12.3978 -1.01472 607.696 389.513
10.2625 -11.6451 -0.925969 613.971 392.933
8.61076 -11.2019 -0.902733 607.354 394.209
6.84277 -11.1856 -0.857166 600.375 393.829
-6.28707 8.88252 -2.82247 544.351 465.844
-4.276 7.36277 -4.88186 553.05 458.789
-1.93506 6.24997 -6.517 562.866 453.751
0.659223 6.37183 -8.13354 573.389 453.551
3.18281 5.92494 -6.34612 583.073 454.039
5.5925 6.70907 -4.70178 592.049 459.113
7.68927 7.9786 -2.63411 599.593 466.331
5.88457 9.62383 -3.96131 592.368 471.044
3.54379 10.6016 -5.09059 583.146 473.21
0.957075 11.0182 -6.5024 573.144 472.909
-1.6772 10.9118 -5.25111 562.535 472.846
-4.16587 10.2494 -4.1077 552.651 470.591
-1.72526 8.07671 -5.22046 563.002 461.944
0.77768 8.00627 -7.32437 573.309 460.564
3.2231 7.7807 -5.03254 582.53 462.312
3.28721 8.26569 -4.47614 582.556 464.67
0.831771 8.65965 -6.36486 573.174 463.911
-1.68573 8.57069 -4.62841 562.922 464.36
3 20 21 23
3 21 22 23
3 0 1 36
3 15 16 45
3 0 17 36
3 16 26 45
3 17 18 37
3 25 26 44
3 17 36 37
3 26 44 45
3 18 19 38
3 24 25 43
3 18 37 38
3 25 43 44
3 19 20 38
3 23 24 43
3 20 21 39
3 22 23 42
3 20 38 39
3 23 42 43
3 21 22 27
3 21 27 39
3 22 27 42
3 27 28 42
3 27 28 39
3 28 42 47
3 28 39 40
3 1 36 41
3 15 45 46
3 1 2 41
3 14 15 46
3 28 29 40
3 28 29 47
3 2 40 41
3 14 46 47
3 2 29 40
3 14 29 47
3 2 3 29
3 13 14 29
3 29 30 31
3 29 30 35
3 3 29 31
3 13 29 35
3 30 32 33
3 30 33 34
3 30 31 32
3 30 34 35
3 3 4 31
3 12 13 35
3 4 5 48
3 11 12 54
3 5 6 48
3 10 11 54
3 6 48 59
3 10 54 55
3 6 7 59
3 9 10 55
3 7 58 59
3 9 55 56
3 8 57 58
3 8 56 57
3 7 8 58
3 8 9 56
3 4 31 48
3 12 35 54
3 31 48 49
3 35 53 54
3 31 49 50
3 35 52 53
3 31 32 50
3 34 35 52
3 32 33 50
3 33 34 52
3 33 50 51
3 33 51 52
3 48 49 60
3 49 60 50
3 50 60 61
3 50 51 61
3 51 52 61
3 61 62 52
3 52 53 62
3 53 54 62
3 54 55 63
3 55 56 63
3 56 63 64
3 56 57 64
3 64 65 57
3 57 58 65
3 58 59 65
3 48 59 65
