ply
format ascii 1.0
element vertex 66
property float x
property float y
property float z
property float u
property float v
element face 91
property list uchar int vertex_indices
end_header
-19.9951 -6.01235 21.106 486.941 423.046
-19.3056 -0.672942 20.6884 488.233 444.194
-18.3589 4.6171 20.1631 490.6 465.146
-16.9873 9.81398 18.234 494.974 484.795
-14.934 14.6744 13.4854 502.724 501.174
-11.8848 18.8235 7.86341 514.877 514.379
-8.02237 22.1889 3.13202 530.392 525.41
-3.56563 24.6911 -1.05336 548.467 533.617
1.50238 25.3839 -4.75095 569.462 535.197
6.63051 23.9872 -0.828375 589.919 534.3
10.7817 20.6794 3.32011 606.944 525.655
14.0925 16.5235 8.02385 620.714 513.787
16.5271 11.8079 13.5905 630.943 500.066
18.0056 6.75201 18.2073 637.575 483.956
18.6894 1.61948 20.1147 641.51 465.215
18.8135 -3.50953 20.5238 643.451 445.162
18.5715 -8.64738 20.8789 643.924 424.913
-15.7311 -15.5313 0.0726078 510.877 370.502
-13.4681 -17.1308 -1.48494 520.799 363.684
-10.6923 -17.7362 -2.87099 532.472 361.118
-7.84483 -17.5848 -4.27292 544.214 361.575
-5.08263 -16.8137 -5.49943 555.396 364.603
2.86816 -17.1566 -5.55642 587.702 365.778
5.22281 -18.1739 -4.25456 597.298 363.489
7.75604 -18.6597 -2.81579 607.435 363.477
10.3422 -18.583 -1.36108 617.617 365.733
12.661 -17.563 0.238872 626.412 371.765
-0.394376 -11.7955 -4.87877 572.784 386.565
-0.171718 -8.93401 -7.5993 573.34 395.945
0.0376815 -6.08551 -10.4075 573.862 405.201
0.231239 -3.25832 -13.1589 574.316 414.412
-2.75842 -0.192754 -5.98412 559.988 431.115
-1.15752 0.186687 -6.99293 566.544 432.374
0.529184 0.295011 -7.96176 573.519 432.613
2.04703 0.00911222 -6.85974 579.548 432.81
3.42867 -0.545334 -5.83936 585.119 431.832
-11.7048 -10.6657 -1.13021 525.965 390.249
-10.2417 -11.5835 -1.06525 532.148 387.122
-8.44153 -11.8871 -0.955902 539.507 386.582
-6.80264 -11.3939 -0.788764 545.967 389.204
-8.34466 -10.661 -0.967909 539.539 391.482
-10.0616 -10.4447 -0.986838 532.527 391.771
4.97121 -12.0112 -0.664975 593.801 390.666
6.48485 -12.6482 -0.853863 600.153 388.479
8.26644 -12.641 -1.00398 607.392 388.972
9.78107 -11.8953 -1.09602 613.322 392.36
8.22427 -11.4535 -0.916323 606.854 393.75
6.53885 -11.4832 -0.860358 600.028 393.127
-5.39911 9.24505 -2.81795 545.928 470.223
-3.69811 7.73805 -4.86573 553.636 463.216
-1.69434 6.49861 -6.5005 562.416 457.688
0.635879 6.64217 -8.12056 572.106 457.779
2.86746 6.26311 -6.33333 580.926 458.36
4.88857 7.27935 -4.68266 588.507 464.319
6.55785 8.66821 -2.62889 594.479 471.955
5.21856 10.4083 -4.06538 588.806 477.346
3.27068 11.5359 -5.22649 580.799 480.313
0.901979 12.0073 -6.67023 571.333 480.317
-1.54339 11.7416 -5.3915 561.275 479.443
-3.68027 10.8051 -4.21773 552.684 475.919
-1.28931 8.43012 -5.0967 563.228 466.575
0.734953 8.32099 -7.2167 571.846 465.18
2.6673 8.28447 -4.8015 579.238 467.506
2.73622 8.93568 -4.37785 579.247 470.443
0.81129 9.39777 -6.29405 571.668 470.193
-1.23463 9.09998 -4.61364 563.163 469.627
3 20 21 23
3 21 22 23
3 0 1 36
3 15 16 45
3 0 17 36
3 16 26 45
3 17 18 37
3 25 26 44
3 17 36 37
3 26 44 45
3 18 19 38
3 24 25 43
3 18 37 38
3 25 43 44
3 19 20 38
3 23 24 43
3 20 21 39
3 22 23 42
3 20 38 39
3 23 42 43
3 21 22 27
3 21 27 39
3 22 27 42
3 27 28 42
3 27 28 39
3 28 42 47
3 28 39 40
3 1 36 41
3 15 45 46
3 1 2 41
3 14 15 46
3 28 29 40
3 28 29 47
3 2 40 41
3 14 46 47
3 2 29 40
3 14 29 47
3 2 3 29
3 13 14 29
3 29 30 31
3 29 30 35
3 3 29 31
3 13 29 35
3 30 32 33
3 30 33 34
3 30 31 32
3 30 34 35
3 3 4 31
3 12 13 35
3 4 5 48
3 11 12 54
3 5 6 48
3 10 11 54
3 6 48 59
3 10 54 55
3 6 7 59
3 9 10 55
3 7 58 59
3 9 55 56
3 8 57 58
3 8 56 57
3 7 8 58
3 8 9 56
3 4 31 48
3 12 35 54
3 31 48 49
3 35 53 54
3 31 49 50
3 35 52 53
3 31 32 50
3 34 35 52
3 32 33 50
3 33 34 52
3 33 50 51
3 33 51 52
3 48 49 60
3 49 60 50
3 50 60 61
3 50 51 61
3 51 52 61
3 61 62 52
3 52 53 62
3 53 54 62
3 54 55 63
3 55 56 63
3 56 63 64
3 56 57 64
3 64 65 57
3 57 58 65
3 58 59 65
3 48 59 65
