ply
format ascii 1.0
element vertex 66
property float x
property float y
property float z
property float u
property float v
element face 91
property list uchar int vertex_indices
end_header
-20.0258 -5.84894 21.3277 489.201 418.937
-19.3209 -0.542771 20.8507 490.74 440.119
-18.4142 4.7214 20.2342 493.15 461.069
-17.1815 9.87239 18.0256 497.228 480.229
-15.1571 14.6492 13.5024 505.105 496.04
-11.9686 18.5995 7.9336 518.207 507.935
-8.01705 21.7578 2.92476 534.577 517.377
-3.55151 24.1476 -1.26611 553.13 524.616
1.49536 24.8044 -4.67929 574.418 525.747
6.56547 23.4741 -1.04608 595.055 525.221
10.7293 20.2966 3.16086 612.353 517.484
14.1455 16.3478 8.14509 626.632 507.107
16.7351 11.8224 13.6671 637.558 494.633
18.1841 6.84002 18.091 644.101 478.976
18.7348 1.73765 20.3046 647.373 460.568
18.8453 -3.4041 20.8046 649.152 440.32
18.6651 -8.55242 21.1878 649.754 419.852
-15.4798 -15.6318 0.0825701 514.566 361.757
-12.9325 -16.5134 -1.32858 525.587 357.718
-10.2975 -16.6399 -2.80719 536.775 356.689
-7.74853 -16.4118 -4.24694 547.503 357.099
-5.29605 -15.7359 -5.50325 557.675 359.449
2.98253 -16.0523 -5.62775 591.974 360.616
5.17887 -16.949 -4.29982 601.047 358.875
7.53484 -17.4557 -2.82499 610.645 358.887
10.0213 -17.7236 -1.28749 620.705 359.96
12.5549 -17.2909 0.189359 630.778 363.817
-0.480382 -11.0294 -4.88226 576.154 380.471
-0.236091 -7.91392 -7.65163 576.814 390.614
-0.0101571 -4.82862 -10.6364 577.446 400.435
0.203963 -1.76344 -13.5476 578.021 410.238
-3.46118 0.327491 -6.36343 560.991 424.009
-1.53466 0.887564 -7.23103 568.953 426.08
0.49103 1.09072 -7.9707 577.398 426.858
2.34348 0.645494 -7.16044 585.022 426.364
4.05049 -0.154459 -6.30857 592.135 424.433
-12.6017 -10.7459 -0.684586 525.248 381.655
-10.8165 -11.7528 -0.884682 532.934 377.966
-8.73619 -11.9006 -1.17075 541.618 377.754
-6.96908 -10.9998 -1.03849 548.644 382.051
-8.84822 -10.606 -0.941001 540.757 383.146
-10.7787 -10.4891 -0.927227 532.75 383.034
5.12802 -11.6371 -1.00705 598.771 383.243
6.72084 -12.6865 -1.1564 605.665 379.369
8.75094 -12.8447 -0.865918 614.039 379.619
10.5947 -12.0645 -0.6352 621.396 383.542
8.86187 -11.5821 -0.877387 614.152 384.734
6.97673 -11.4899 -0.879379 606.342 384.522
-8.58637 7.66699 -2.65118 537.125 455.364
-5.98598 5.97005 -4.64534 548.697 447.528
-2.78899 5.04963 -6.34373 562.465 443.274
0.568782 4.99685 -8.15979 576.679 442.461
3.83744 4.64508 -6.17322 589.91 443.841
7.03764 5.14308 -4.44323 602.671 448.395
9.68951 6.54544 -2.44502 612.87 456.668
7.82868 9.75835 -4.01085 604.589 467.638
4.84787 12.0536 -5.01035 591.831 475.072
1.07383 12.893 -6.38248 576.266 476.056
-2.8373 12.5038 -5.18267 560.001 474.36
-6.15651 10.5967 -4.18748 546.636 466.543
-3.74761 6.67574 -5.19104 557.847 450.573
0.667608 6.44824 -7.74979 576.613 448.713
4.99258 6.14878 -4.95999 594.044 451.354
5.48016 9.47289 -4.32313 595.026 465.481
0.972051 10.6068 -6.31032 576.462 466.872
-3.71933 10.0446 -4.52461 556.915 464.765
3 20 21 23
3 21 22 23
3 0 1 36
3 15 16 45
3 0 17 36
3 16 26 45
3 17 18 37
3 25 26 44
3 17 36 37
3 26 44 45
3 18 19 38
3 24 25 43
3 18 37 38
3 25 43 44
3 19 20 38
3 23 24 43
3 20 21 39
3 22 23 42
3 20 38 39
3 23 42 43
3 21 22 27
3 21 27 39
3 22 27 42
3 27 28 42
3 27 28 39
3 28 42 47
3 28 39 40
3 1 36 41
3 15 45 46
3 1 2 41
3 14 15 46
3 28 29 40
3 28 29 47
3 2 40 41
3 14 46 47
3 2 29 40
3 14 29 47
3 2 3 29
3 13 14 29
3 29 30 31
3 29 30 35
3 3 29 31
3 13 29 35
3 30 32 33
3 30 33 34
3 30 31 32
3 30 34 35
3 3 4 31
3 12 13 35
3 4 5 48
3 11 12 54
3 5 6 48
3 10 11 54
3 6 48 59
3 10 54 55
3 6 7 59
3 9 10 55
3 7 58 59
3 9 55 56
3 8 57 58
3 8 56 57
3 7 8 58
3 8 9 56
3 4 31 48
3 12 35 54
3 31 48 49
3 35 53 54
3 31 49 50
3 35 52 53
3 31 32 50
3 34 35 52
3 32 33 50
3 33 34 52
3 33 50 51
3 33 51 52
3 48 49 60
3 49 60 50
3 50 60 61
3 50 51 61
3 51 52 61
3 61 62 52
3 52 53 62
3 53 54 62
3 54 55 63
3 55 56 63
3 56 63 64
3 56 57 64
3 64 65 57
3 57 58 65
3 58 59 65
3 48 59 65
