ply
format ascii 1.0
element vertex 66
property float x
property float y
property float z
property float u
property float v
element face 91
property list uchar int vertex_indices
end_header
-20.1506 -6.30996 21.1421 489.995 421.832
-19.4449 -0.927088 20.6933 491.48 442.567
-18.4827 4.40135 20.0864 494.059 462.999
-17.0874 9.72522 18.1822 498.721 482.108
-15.032 14.8512 13.3311 506.85 497.373
-11.9964 19.3099 7.73669 519.324 509.532
-8.15408 22.9574 3.03125 535.072 519.79
-3.66551 25.6318 -1.11026 553.569 527.099
1.43145 26.5455 -4.87331 574.924 528.166
6.61235 24.9517 -0.875886 595.374 528.151
10.8009 21.4293 3.24782 612.301 520.421
14.0919 16.9647 7.90761 625.716 509.314
16.5507 11.9377 13.4295 635.696 496.697
18.0961 6.62224 18.1463 642.253 481.75
18.8494 1.36475 20.0579 646.284 463.628
19.0099 -3.80454 20.5511 648.242 444.066
18.7874 -8.99054 20.8841 648.69 424.131
-15.6799 -15.3155 0.109674 515.872 364.691
-13.4508 -16.9335 -1.53331 525.769 357.289
-10.6791 -17.5467 -2.86993 537.512 354.332
-7.80718 -17.3315 -4.23147 549.438 354.611
-5.02731 -16.4486 -5.4149 560.762 357.665
2.68527 -16.7237 -5.50829 592.135 359.071
5.06517 -17.8796 -4.23976 601.788 356.777
7.64639 -18.4499 -2.83328 612.061 356.988
10.2688 -18.3731 -1.41921 622.32 359.747
12.5917 -17.3242 0.257523 631.03 366.491
-0.354492 -10.9987 -4.87978 578.069 381.09
-0.139767 -8.15095 -7.71178 578.86 389.107
0.058821 -5.29756 -10.4928 579.571 397.197
0.242173 -2.4632 -13.1007 580.183 405.401
-2.86034 -0.191164 -6.0744 565.217 421.078
-1.2055 0.331853 -6.9887 572.011 422.651
0.557352 0.538569 -7.8733 579.323 423.06
2.13953 0.138307 -6.86386 585.597 423.156
3.5532 -0.574492 -5.97983 591.306 421.837
-11.7662 -10.3184 -1.20931 530.69 384.023
-10.2792 -11.1661 -1.18269 536.947 381.244
-8.48752 -11.4866 -1.06212 544.271 380.728
-6.82563 -11.0908 -0.78707 550.831 383.137
-8.38892 -10.3934 -0.954288 544.341 385.147
-10.1027 -10.1886 -0.99369 537.345 385.328
5.02859 -11.7158 -0.682442 599.046 384.787
6.57038 -12.253 -0.995732 605.524 382.857
8.33736 -12.2304 -1.13287 612.717 383.384
9.86389 -11.5684 -1.15631 618.73 386.452
8.28157 -11.209 -0.915825 612.154 387.593
6.60482 -11.2309 -0.840295 605.342 387.03
-5.31034 8.51079 -2.68743 552.029 457.992
-3.97163 6.56361 -4.84236 558.535 448.435
-1.92065 5.18266 -6.44122 567.633 441.948
0.60515 5.24719 -8.05324 578.26 441.244
3.04706 4.91049 -6.24121 587.802 442.774
5.14187 6.04541 -4.62807 595.579 449.706
6.51764 7.90939 -2.47582 600.104 459.845
5.28597 9.85186 -3.88994 594.926 465.43
3.42331 11.2465 -5.08706 587.286 468.908
0.970386 11.864 -6.72315 577.578 468.667
-1.57202 11.4741 -5.27117 567.014 467.917
-3.66564 10.2833 -4.03202 558.544 463.955
-1.50406 7.02057 -4.97859 568.448 450.892
0.706809 6.85085 -7.11454 577.994 448.584
2.84034 6.83675 -4.68494 586.042 451.959
3.02167 8.79584 -4.23954 586.124 460.16
0.903253 9.58696 -6.1397 577.79 460.413
-1.37135 9.00437 -4.47709 568.312 459.237
3 20 21 23
3 21 22 23
3 0 1 36
3 15 16 45
3 0 17 36
3 16 26 45
3 17 18 37
3 25 26 44
3 17 36 37
3 26 44 45
3 18 19 38
3 24 25 43
3 18 37 38
3 25 43 44
3 19 20 38
3 23 24 43
3 20 21 39
3 22 23 42
3 20 38 39
3 23 42 43
3 21 22 27
3 21 27 39
3 22 27 42
3 27 28 42
3 27 28 39
3 28 42 47
3 28 39 40
3 1 36 41
3 15 45 46
3 1 2 41
3 14 15 46
3 28 29 40
3 28 29 47
3 2 40 41
3 14 46 47
3 2 29 40
3 14 29 47
3 2 3 29
3 13 14 29
3 29 30 31
3 29 30 35
3 3 29 31
3 13 29 35
3 30 32 33
3 30 33 34
3 30 31 32
3 30 34 35
3 3 4 31
3 12 13 35
3 4 5 48
3 11 12 54
3 5 6 48
3 10 11 54
3 6 48 59
3 10 54 55
3 6 7 59
3 9 10 55
3 7 58 59
3 9 55 56
3 8 57 58
3 8 56 57
3 7 8 58
3 8 9 56
3 4 31 48
3 12 35 54
3 31 48 49
3 35 53 54
3 31 49 50
3 35 52 53
3 31 32 50
3 34 35 52
3 32 33 50
3 33 34 52
3 33 50 51
3 33 51 52
3 48 49 60
3 49 60 50
3 50 60 61
3 50 51 61
3 51 52 61
3 61 62 52
3 52 53 62
3 53 54 62
3 54 55 63
3 55 56 63
3 56 63 64
3 56 57 64
3 64 65 57
3 57 58 65
3 58 59 65
3 48 59 65
