ply
format ascii 1.0
element vertex 66
property float x
property float y
property float z
property float u
property float v
element face 91
property list uchar int vertex_indices
end_header
-20.0213 -6.2252 21.382 486.477 418.709
-19.3191 -0.787179 20.861 488.42 440.155
-18.4295 4.61831 20.2327 491.174 461.408
-17.2272 9.93229 18.0947 495.626 480.795
-15.2777 14.8683 13.4883 503.877 496.277
-12.1135 18.9233 7.90709 517.584 507.522
-8.12362 22.1096 2.9341 534.729 516.134
-3.60432 24.4578 -1.24197 554.031 522.356
1.47094 25.0778 -4.70947 575.803 522.533
6.53224 23.6451 -1.03847 596.11 521.943
10.6364 20.3208 3.17353 612.697 514.084
14.0104 16.2721 8.09904 626.225 503.877
16.6362 11.7088 13.58 636.618 491.992
18.2063 6.75947 18.0175 642.984 477.194
18.8312 1.74592 20.2088 646.023 459.542
18.9402 -3.28473 20.6825 647.368 439.891
18.7408 -8.32425 21.0493 647.464 420.012
-15.5814 -15.4471 0.0591502 512.158 360.567
-13.0525 -16.5088 -1.40211 523.214 355.437
-10.3485 -16.7834 -2.84632 534.833 353.527
-7.6812 -16.5887 -4.2493 546.195 353.533
-5.09699 -15.8841 -5.46668 557.062 355.756
2.88138 -16.1321 -5.58494 590.174 356.71
5.06167 -17.0423 -4.27597 599.05 354.996
7.41253 -17.5383 -2.82342 608.512 355.138
9.88199 -17.7739 -1.30213 618.396 356.426
12.3729 -17.2989 0.223705 628.223 360.574
-0.372659 -10.9305 -4.91996 575.483 377.422
-0.180231 -7.8518 -7.69727 576.368 386.913
-0.00592446 -4.79778 -10.6445 577.226 396.123
0.158093 -1.76303 -13.4872 578.018 405.362
-3.47381 0.212418 -6.32588 560.756 419.834
-1.52762 0.781607 -7.19153 568.92 421.717
0.522702 0.988408 -7.95963 577.563 422.275
2.36822 0.551528 -7.10695 585.074 421.894
4.06066 -0.249852 -6.28343 592.033 419.982
-12.2467 -10.7567 -0.818744 525.242 379.326
-10.5208 -11.6103 -0.953846 532.594 376.209
-8.5715 -11.792 -1.13607 540.747 375.796
-6.84789 -11.0696 -0.948209 547.69 379.338
-8.65523 -10.7524 -0.907367 540.133 380.183
-10.4853 -10.6421 -0.949363 532.544 380.106
5.02224 -11.6775 -0.94316 596.955 379.989
6.57061 -12.51 -1.11518 603.577 376.872
8.4548 -12.6465 -0.897904 611.35 377.041
10.2 -11.9957 -0.702032 618.394 380.31
8.52969 -11.6483 -0.863706 611.45 381.1
6.76092 -11.5812 -0.828278 604.105 380.947
-8.35704 7.72458 -2.64524 538.086 452.544
-5.85158 5.98341 -4.6931 549.332 444.069
-2.72068 4.99704 -6.36861 562.921 439.174
0.616543 4.94364 -8.12848 577.197 437.985
3.84782 4.58443 -6.13343 590.138 439.471
6.96622 5.13041 -4.44338 602.508 444.239
9.48082 6.61359 -2.43 612.106 452.948
7.72298 9.7558 -3.96473 604.586 463.487
4.8547 12.0134 -4.97141 592.513 470.743
1.17124 12.8475 -6.41035 577.462 471.626
-2.67252 12.4607 -5.17104 561.31 470.372
-5.93732 10.5953 -4.14918 547.909 463.112
-3.56822 6.67295 -5.19581 558.775 446.902
0.74914 6.42184 -7.65219 577.327 444.446
4.9694 6.15412 -4.90271 594.151 447.346
5.45625 9.43734 -4.2806 595.346 461.29
1.07783 10.5744 -6.29818 577.505 462.602
-3.49931 10.0102 -4.53407 558.219 460.996
3 20 21 23
3 21 22 23
3 0 1 36
3 15 16 45
3 0 17 36
3 16 26 45
3 17 18 37
3 25 26 44
3 17 36 37
3 26 44 45
3 18 19 38
3 24 25 43
3 18 37 38
3 25 43 44
3 19 20 38
3 23 24 43
3 20 21 39
3 22 23 42
3 20 38 39
3 23 42 43
3 21 22 27
3 21 27 39
3 22 27 42
3 27 28 42
3 27 28 39
3 28 42 47
3 28 39 40
3 1 36 41
3 15 45 46
3 1 2 41
3 14 15 46
3 28 29 40
3 28 29 47
3 2 40 41
3 14 46 47
3 2 29 40
3 14 29 47
3 2 3 29
3 13 14 29
3 29 30 31
3 29 30 35
3 3 29 31
3 13 29 35
3 30 32 33
3 30 33 34
3 30 31 32
3 30 34 35
3 3 4 31
3 12 13 35
3 4 5 48
3 11 12 54
3 5 6 48
3 10 11 54
3 6 48 59
3 10 54 55
3 6 7 59
3 9 10 55
3 7 58 59
3 9 55 56
3 8 57 58
3 8 56 57
3 7 8 58
3 8 9 56
3 4 31 48
3 12 35 54
3 31 48 49
3 35 53 54
3 31 49 50
3 35 52 53
3 31 32 50
3 34 35 52
3 32 33 50
3 33 34 52
3 33 50 51
3 33 51 52
3 48 49 60
3 49 60 50
3 50 60 61
3 50 51 61
3 51 52 61
3 61 62 52
3 52 53 62
3 53 54 62
3 54 55 63
3 55 56 63
3 56 63 64
3 56 57 64
3 64 65 57
3 57 58 65
3 58 59 65
3 48 59 65
