ply
format ascii 1.0
element vertex 66
property float x
property float y
property float z
property float u
property float v
element face 91
property list uchar int vertex_indices
end_header
-20.2723 -6.30034 21.4037 488.251 418.54
-19.6078 -0.903959 20.9608 489.779 439.628
-18.7371 4.44703 20.3177 492.2 460.379
-17.5128 9.77799 18.0974 496.374 479.463
-15.507 14.8624 13.4645 504.264 495.211
-12.2416 19.0557 7.82651 517.72 506.704
-8.12836 22.2919 2.97585 534.732 515.485
-3.49571 24.6229 -1.17537 553.957 521.571
1.61928 25.2888 -4.82211 575.461 521.734
6.66791 23.8048 -0.990255 595.797 521.355
10.8673 20.5409 3.20302 613.005 514.075
14.3355 16.4682 8.04379 627.285 504.08
16.9425 11.7421 13.6303 638.048 492.054
18.4083 6.57864 18.0982 644.444 476.783
18.9905 1.45881 20.3571 647.622 459.079
19.0842 -3.60664 20.8563 649.115 439.573
18.8746 -8.68518 21.1912 649.398 419.756
-15.808 -15.2109 0.102695 512.677 361.725
-13.371 -16.5225 -1.45283 523.274 355.545
-10.6016 -16.9689 -2.89371 535.009 353.008
-7.79983 -16.7964 -4.25023 546.713 353.021
-5.07853 -16.0431 -5.43336 557.916 355.498
2.78058 -16.2628 -5.56186 590.222 356.676
5.16265 -17.2777 -4.28426 599.992 354.684
7.71991 -17.7878 -2.86768 610.334 354.888
10.3458 -17.8367 -1.35396 620.83 357.043
12.8299 -17.0549 0.236291 630.533 362.53
-0.430076 -10.7261 -4.94358 575.626 378.375
-0.25523 -7.88667 -7.68093 576.183 386.746
-0.0941227 -5.06538 -10.5825 576.72 394.866
0.0606276 -2.27129 -13.4456 577.23 402.917
-3.43709 0.0230124 -6.28046 560.994 418.689
-1.56012 0.528232 -7.1395 568.733 420.294
0.39874 0.715764 -7.98599 576.881 420.677
2.19589 0.300891 -7.07571 584.179 420.507
3.86959 -0.428934 -6.21474 591.054 419.001
-11.9957 -10.0906 -0.893769 527.283 382.003
-10.3456 -10.8733 -1.08982 534.273 379.152
-8.48626 -11.0776 -1.23667 541.974 378.703
-6.76794 -10.5705 -0.95479 548.848 381.491
-8.49292 -10.1763 -0.919797 541.673 382.61
-10.2617 -10.0273 -0.967095 534.393 382.658
5.18053 -11.2103 -0.992951 598.007 382.24
6.77634 -11.8321 -1.20742 604.739 379.991
8.58687 -11.8958 -1.02351 612.145 380.439
10.248 -11.2996 -0.785556 618.771 383.517
8.57782 -11.0321 -0.904445 611.88 383.985
6.85686 -11.0089 -0.885957 604.814 383.618
-8.52352 7.71568 -2.63609 537.625 451.64
-6.05666 5.84767 -4.71731 548.576 442.703
-2.91571 4.72942 -6.36012 562.031 437.391
0.518697 4.68432 -7.98058 576.43 436.436
3.86689 4.30353 -6.16053 589.91 437.804
7.03715 4.99439 -4.49545 602.434 443.202
9.57653 6.5936 -2.4629 612.086 452.415
7.6262 9.51062 -3.91884 603.669 461.871
4.68757 11.5534 -5.00889 591.338 467.981
1.06009 12.3475 -6.48812 576.552 468.536
-2.71762 12.0048 -5.17858 560.895 467.528
-6.00237 10.3531 -4.08798 547.611 461.236
-3.67402 6.52454 -5.17908 558.273 445.553
0.650867 6.30297 -7.55092 576.508 443.344
4.89953 5.99413 -4.94243 593.514 446.09
5.33393 9.04008 -4.32888 594.458 458.932
0.952552 10.1101 -6.42829 576.63 459.708
-3.60689 9.61275 -4.54392 557.696 458.483
3 20 21 23
3 21 22 23
3 0 1 36
3 15 16 45
3 0 17 36
3 16 26 45
3 17 18 37
3 25 26 44
3 17 36 37
3 26 44 45
3 18 19 38
3 24 25 43
3 18 37 38
3 25 43 44
3 19 20 38
3 23 24 43
3 20 21 39
3 22 23 42
3 20 38 39
3 23 42 43
3 21 22 27
3 21 27 39
3 22 27 42
3 27 28 42
3 27 28 39
3 28 42 47
3 28 39 40
3 1 36 41
3 15 45 46
3 1 2 41
3 14 15 46
3 28 29 40
3 28 29 47
3 2 40 41
3 14 46 47
3 2 29 40
3 14 29 47
3 2 3 29
3 13 14 29
3 29 30 31
3 29 30 35
3 3 29 31
3 13 29 35
3 30 32 33
3 30 33 34
3 30 31 32
3 30 34 35
3 3 4 31
3 12 13 35
3 4 5 48
3 11 12 54
3 5 6 48
3 10 11 54
3 6 48 59
3 10 54 55
3 6 7 59
3 9 10 55
3 7 58 59
3 9 55 56
3 8 57 58
3 8 56 57
3 7 8 58
3 8 9 56
3 4 31 48
3 12 35 54
3 31 48 49
3 35 53 54
3 31 49 50
3 35 52 53
3 31 32 50
3 34 35 52
3 32 33 50
3 33 34 52
3 33 50 51
3 33 51 52
3 48 49 60
3 49 60 50
3 50 60 61
3 50 51 61
3 51 52 61
3 61 62 52
3 52 53 62
3 53 54 62
3 54 55 63
3 55 56 63
3 56 63 64
3 56 57 64
3 64 65 57
3 57 58 65
3 58 59 65
3 48 59 65
