ply
format ascii 1.0
element vertex 66
property float x
property float y
property float z
property float u
property float v
element face 91
property list uchar int vertex_indices
end_header
-20.5938 -5.98624 21.2572 485.948 424.342
-19.9226 -0.680366 20.7919 487.54 444.594
-18.9927 4.57981 20.2885 490.171 464.706
-17.6717 9.75439 18.2259 494.728 483.28
-15.6177 14.5976 13.4249 502.889 498.466
-12.3932 18.6208 7.82076 516.033 510.124
-8.29454 21.7178 3.16642 532.605 519.239
-3.65792 23.9055 -1.06113 551.399 525.347
1.44843 24.4719 -4.69958 572.263 525.821
6.5793 23.2449 -0.864317 591.87 525.67
10.9076 20.2829 3.38331 608.597 518.961
14.4888 16.4467 7.99692 622.483 508.991
17.1568 11.9278 13.5365 632.701 496.925
18.6794 6.92756 18.2605 638.698 482.013
19.3476 1.81273 20.3431 641.968 464.212
19.5163 -3.31369 20.7623 643.659 444.836
19.3492 -8.44657 21.1186 644.043 425.292
-16.2538 -15.497 0.111464 510.091 371.019
-13.8311 -16.9493 -1.45483 520.33 364.741
-11.0014 -17.4264 -2.86509 531.924 362.462
-8.14181 -17.2245 -4.2485 543.48 362.833
-5.37682 -16.4397 -5.45568 554.494 365.576
2.85072 -16.7559 -5.48142 587.017 366.509
5.37104 -17.8293 -4.2172 596.896 364.098
8.07148 -18.3699 -2.81522 607.336 363.906
10.8372 -18.3169 -1.36293 617.893 366.063
13.3541 -17.2785 0.273584 627.208 372.11
-0.566463 -11.2692 -4.91653 572.205 387.245
-0.34067 -8.23571 -7.67764 573.076 396.683
-0.126319 -5.21904 -10.5624 573.934 405.949
0.0830332 -2.22153 -13.3386 574.751 415.232
-3.06358 0.450577 -6.1319 560.071 430.768
-1.36594 0.901711 -7.12742 566.9 432.12
0.422749 1.03882 -8.0583 574.142 432.339
2.08504 0.680418 -7.01375 580.532 432.274
3.59401 0.00689346 -6.07792 586.412 430.862
-12.1634 -10.3833 -1.05198 525.373 390.847
-10.6056 -11.3453 -1.07651 531.733 387.527
-8.71973 -11.5903 -1.0164 539.21 387.131
-7.02168 -10.9573 -0.832153 545.725 390.176
-8.6713 -10.3332 -0.977933 539.116 392.025
-10.4514 -10.1528 -1.01164 532.065 392.222
5.13433 -11.6208 -0.742837 593.789 390.906
6.69497 -12.4099 -0.974101 600.171 388.08
8.55363 -12.4516 -1.01379 607.519 388.377
10.184 -11.7 -0.932448 613.765 391.775
8.55387 -11.2441 -0.897984 607.228 393.132
6.80135 -11.2249 -0.84947 600.301 392.783
-6.15347 8.9092 -2.83585 545.261 465.351
-4.18037 7.366 -4.90954 553.865 458.176
-1.8745 6.22773 -6.54227 563.59 453.021
0.691669 6.34395 -8.15989 574.063 452.787
3.18506 5.91108 -6.33379 583.564 453.313
5.55498 6.7209 -4.69856 592.35 458.438
7.59828 8.03034 -2.63058 599.638 465.768
5.85343 9.67017 -3.95145 592.706 470.521
3.56164 10.649 -5.06668 583.714 472.753
1.00785 11.0584 -6.50218 573.888 472.45
-1.60094 10.949 -5.25649 563.333 472.386
-4.05845 10.2798 -4.11791 553.522 470.113
-1.61467 8.07609 -5.22696 563.902 461.326
0.820905 7.99135 -7.30024 574.01 459.899
3.20036 7.7965 -5.00359 582.9 461.708
3.26687 8.28489 -4.4506 582.926 464.074
0.885925 8.66401 -6.33216 573.893 463.325
-1.55963 8.57598 -4.63547 563.871 463.766
3 20 21 23
3 21 22 23
3 0 1 36
3 15 16 45
3 0 17 36
3 16 26 45
3 17 18 37
3 25 26 44
3 17 36 37
3 26 44 45
3 18 19 38
3 24 25 43
3 18 37 38
3 25 43 44
3 19 20 38
3 23 24 43
3 20 21 39
3 22 23 42
3 20 38 39
3 23 42 43
3 21 22 27
3 21 27 39
3 22 27 42
3 27 28 42
3 27 28 39
3 28 42 47
3 28 39 40
3 1 36 41
3 15 45 46
3 1 2 41
3 14 15 46
3 28 29 40
3 28 29 47
3 2 40 41
3 14 46 47
3 2 29 40
3 14 29 47
3 2 3 29
3 13 14 29
3 29 30 31
3 29 30 35
3 3 29 31
3 13 29 35
3 30 32 33
3 30 33 34
3 30 31 32
3 30 34 35
3 3 4 31
3 12 13 35
3 4 5 48
3 11 12 54
3 5 6 48
3 10 11 54
3 6 48 59
3 10 54 55
3 6 7 59
3 9 10 55
3 7 58 59
3 9 55 56
3 8 57 58
3 8 56 57
3 7 8 58
3 8 9 56
3 4 31 48
3 12 35 54
3 31 48 49
3 35 53 54
3 31 49 50
3 35 52 53
3 31 32 50
3 34 35 52
3 32 33 50
3 33 34 52
3 33 50 51
3 33 51 52
3 48 49 60
3 49 60 50
3 50 60 61
3 50 51 61
3 51 52 61
3 61 62 52
3 52 53 62
3 53 54 62
3 54 55 63
3 55 56 63
3 56 63 64
3 56 57 64
3 64 65 57
3 57 58 65
3 58 59 65
3 48 59 65
