ply
format ascii 1.0
element vertex 66
property float x
property float y
property float z
property float u
property float v
element face 91
property list uchar int vertex_indices
end_header
-20.3761 -6.08952 21.2831 486.088 424.943
-19.6658 -0.718603 20.8047 487.813 445.64
-18.6998 4.60438 20.263 490.584 466.167
-17.3805 9.86165 18.2363 495.147 485.243
-15.3732 14.7971 13.4381 503.215 500.843
-12.209 18.9024 7.80682 516.291 512.806
-8.17383 22.0937 3.12743 532.81 522.279
-3.57241 24.335 -1.07515 551.685 528.623
1.51461 24.9035 -4.71087 572.736 529.082
6.60018 23.5344 -0.849079 592.36 528.521
10.7958 20.3559 3.37208 608.76 520.98
14.2104 16.3308 8.01099 622.136 510.29
16.7769 11.7164 13.5535 632.042 497.855
18.3212 6.72431 18.1849 638.186 482.874
19.0351 1.69379 20.2374 641.669 465.267
19.2354 -3.32518 20.6374 643.512 446.124
19.0738 -8.35456 20.9907 643.928 426.799
-16.0785 -15.5363 0.0925154 510.638 370.892
-13.7234 -16.9951 -1.47279 520.748 364.501
-10.9472 -17.5184 -2.86838 532.28 362.017
-8.11995 -17.3538 -4.24381 543.854 362.244
-5.36814 -16.6097 -5.44733 554.952 364.857
3.01603 -16.8704 -5.51535 588.448 366.105
5.41206 -17.858 -4.23339 597.906 364.04
7.97618 -18.3471 -2.81708 607.886 364.078
10.5975 -18.3114 -1.35845 617.965 366.214
12.9952 -17.3674 0.258138 626.905 371.962
-0.451821 -11.322 -4.89288 573.205 387.295
-0.274286 -8.38176 -7.6645 573.931 396.382
-0.109328 -5.45603 -10.541 574.636 405.318
0.0499208 -2.55057 -13.3097 575.296 414.267
-3.10696 0.345264 -6.14966 560.273 430.904
-1.37764 0.814297 -7.11471 567.299 432.37
0.446225 0.969995 -8.03327 574.761 432.682
2.11608 0.610608 -6.99032 581.24 432.653
3.63181 -0.0622987 -6.05492 587.203 431.267
-12.0625 -10.53 -1.05248 525.789 390.506
-10.5309 -11.4467 -1.07675 532.109 387.339
-8.68604 -11.7072 -1.01648 539.507 386.888
-7.01162 -11.1248 -0.82009 546 389.791
-8.63184 -10.4999 -0.958078 539.434 391.656
-10.3837 -10.3205 -0.989768 532.418 391.842
5.25109 -11.7633 -0.798979 595.021 390.721
6.78394 -12.4519 -0.964825 601.329 388.32
8.58606 -12.471 -0.9933 608.524 388.72
10.1505 -11.7271 -0.920714 614.572 392.114
8.56049 -11.3141 -0.889175 608.132 393.309
6.85519 -11.3266 -0.871196 601.333 392.804
-6.09207 8.96114 -2.79921 545.576 466.549
-4.19317 7.35895 -4.91124 554.035 458.997
-1.91409 6.16449 -6.54932 563.799 453.55
0.6593 6.28155 -8.1499 574.428 453.326
3.14937 5.86205 -6.30282 583.991 453.99
5.47226 6.74268 -4.66447 592.642 459.49
7.39994 8.16335 -2.59817 599.488 467.356
5.75912 9.85546 -3.92559 592.892 472.336
3.54227 10.895 -5.04247 584.096 474.798
1.01544 11.3317 -6.52322 574.292 474.509
-1.59875 11.1777 -5.25698 563.592 474.287
-4.03301 10.4206 -4.11842 553.779 471.655
-1.6244 8.07445 -5.20187 564.184 462.242
0.804623 7.99358 -7.27899 574.401 460.792
3.17037 7.81927 -4.91394 583.283 462.828
3.25288 8.4371 -4.39009 583.341 465.713
0.900099 8.86772 -6.334 574.347 465.046
-1.5425 8.71086 -4.64174 564.226 465.231
3 20 21 23
3 21 22 23
3 0 1 36
3 15 16 45
3 0 17 36
3 16 26 45
3 17 18 37
3 25 26 44
3 17 36 37
3 26 44 45
3 18 19 38
3 24 25 43
3 18 37 38
3 25 43 44
3 19 20 38
3 23 24 43
3 20 21 39
3 22 23 42
3 20 38 39
3 23 42 43
3 21 22 27
3 21 27 39
3 22 27 42
3 27 28 42
3 27 28 39
3 28 42 47
3 28 39 40
3 1 36 41
3 15 45 46
3 1 2 41
3 14 15 46
3 28 29 40
3 28 29 47
3 2 40 41
3 14 46 47
3 2 29 40
3 14 29 47
3 2 3 29
3 13 14 29
3 29 30 31
3 29 30 35
3 3 29 31
3 13 29 35
3 30 32 33
3 30 33 34
3 30 31 32
3 30 34 35
3 3 4 31
3 12 13 35
3 4 5 48
3 11 12 54
3 5 6 48
3 10 11 54
3 6 48 59
3 10 54 55
3 6 7 59
3 9 10 55
3 7 58 59
3 9 55 56
3 8 57 58
3 8 56 57
3 7 8 58
3 8 9 56
3 4 31 48
3 12 35 54
3 31 48 49
3 35 53 54
3 31 49 50
3 35 52 53
3 31 32 50
3 34 35 52
3 32 33 50
3 33 34 52
3 33 50 51
3 33 51 52
3 48 49 60
3 49 60 50
3 50 60 61
3 50 51 61
3 51 52 61
3 61 62 52
3 52 53 62
3 53 54 62
3 54 55 63
3 55 56 63
3 56 63 64
3 56 57 64
3 64 65 57
3 57 58 65
3 58 59 65
3 48 59 65
