ply
format ascii 1.0
element vertex 66
property float x
property float y
property float z
property float u
property float v
element face 91
property list uchar int vertex_indices
end_header
-20.745 -6.11484 21.4177 486.867 424.518
-20.0569 -0.682899 20.9161 488.423 445.115
-19.1341 4.71306 20.404 490.909 465.63
-17.8426 10.0168 18.3078 495.236 484.584
-15.832 14.9307 13.4084 503.137 499.922
-12.5786 18.9003 7.76403 516.302 511.369
-8.41153 21.8544 3.13071 533.042 520.013
-3.73245 23.8654 -1.06822 551.902 525.544
1.34791 24.3539 -4.77541 572.57 525.756
6.51747 23.0551 -0.806793 592.178 525.494
10.8781 20.0179 3.37768 608.969 518.522
14.478 16.114 7.96116 622.886 508.348
17.1825 11.5531 13.5026 633.221 496.2
18.8021 6.59058 18.1662 639.607 481.485
19.5175 1.58573 20.2818 643.067 464.249
19.646 -3.41881 20.6161 644.651 445.379
19.3923 -8.42616 20.9798 644.731 426.415
-16.4785 -15.3042 0.115835 510.773 372.85
-14.1193 -16.9878 -1.48167 520.784 365.729
-11.2324 -17.6326 -2.84925 532.567 362.925
-8.26343 -17.452 -4.19994 544.476 363.322
-5.37591 -16.6353 -5.38201 555.878 366.275
3.14939 -16.8444 -5.49256 589.348 367.744
5.53678 -17.8892 -4.2057 598.636 365.465
8.11467 -18.4138 -2.79801 608.521 365.333
10.7577 -18.3786 -1.34213 618.52 367.405
13.1579 -17.377 0.282776 627.304 373.254
-0.232736 -10.9159 -4.88073 574.58 390.037
-0.0609451 -8.0296 -7.69512 575.252 398.82
0.0937847 -5.15382 -10.5821 575.878 407.497
0.23546 -2.29431 -13.3204 576.421 416.232
-2.96729 0.386332 -6.14317 561.548 431.558
-1.22144 0.863678 -7.12178 568.509 433.062
0.621341 1.02669 -8.05091 575.91 433.429
2.26281 0.684417 -6.96509 582.161 433.47
3.74985 0.0251553 -5.99661 587.909 432.156
-12.245 -10.3014 -1.05718 526.475 392.229
-10.6864 -11.2311 -1.0883 532.803 389.071
-8.8119 -11.4994 -1.02372 540.192 388.616
-7.11555 -10.8676 -0.807815 546.64 391.686
-8.75638 -10.2002 -0.978048 540.098 393.649
-10.5408 -10.0418 -1.00525 533.078 393.739
5.44945 -11.4704 -0.768673 595.989 392.889
6.98201 -12.1865 -0.946502 602.201 390.421
8.80174 -12.2183 -1.00669 609.35 390.754
10.3726 -11.4468 -0.959519 615.314 394.185
8.77949 -10.9791 -0.920101 608.955 395.569
7.05984 -10.9824 -0.89116 602.213 395.104
-5.96075 8.81965 -2.86106 547.087 465.771
-4.03907 7.28865 -4.96625 555.47 458.693
-1.80956 6.14094 -6.58282 564.854 453.573
0.671985 6.30084 -8.17382 574.915 453.557
3.04465 5.89562 -6.31241 583.861 454.202
5.25894 6.78074 -4.69444 591.945 459.547
7.1104 8.19201 -2.64073 598.382 467.168
5.50386 9.74064 -3.91628 592.033 471.604
3.34253 10.6302 -5.06463 583.634 473.465
0.933908 10.9792 -6.60141 574.483 472.864
-1.56143 10.8335 -5.30304 564.434 472.688
-3.92534 10.1667 -4.11282 555.046 470.462
-1.41307 8.0462 -5.27155 565.653 462.071
0.801117 8.03373 -7.26048 574.802 460.991
2.91728 7.88638 -4.89543 582.564 462.97
2.96843 8.20455 -4.3659 582.565 464.642
0.862194 8.5099 -6.31805 574.707 463.613
-1.34697 8.38965 -4.6809 565.692 463.895
3 20 21 23
3 21 22 23
3 0 1 36
3 15 16 45
3 0 17 36
3 16 26 45
3 17 18 37
3 25 26 44
3 17 36 37
3 26 44 45
3 18 19 38
3 24 25 43
3 18 37 38
3 25 43 44
3 19 20 38
3 23 24 43
3 20 21 39
3 22 23 42
3 20 38 39
3 23 42 43
3 21 22 27
3 21 27 39
3 22 27 42
3 27 28 42
3 27 28 39
3 28 42 47
3 28 39 40
3 1 36 41
3 15 45 46
3 1 2 41
3 14 15 46
3 28 29 40
3 28 29 47
3 2 40 41
3 14 46 47
3 2 29 40
3 14 29 47
3 2 3 29
3 13 14 29
3 29 30 31
3 29 30 35
3 3 29 31
3 13 29 35
3 30 32 33
3 30 33 34
3 30 31 32
3 30 34 35
3 3 4 31
3 12 13 35
3 4 5 48
3 11 12 54
3 5 6 48
3 10 11 54
3 6 48 59
3 10 54 55
3 6 7 59
3 9 10 55
3 7 58 59
3 9 55 56
3 8 57 58
3 8 56 57
3 7 8 58
3 8 9 56
3 4 31 48
3 12 35 54
3 31 48 49
3 35 53 54
3 31 49 50
3 35 52 53
3 31 32 50
3 34 35 52
3 32 33 50
3 33 34 52
3 33 50 51
3 33 51 52
3 48 49 60
3 49 60 50
3 50 60 61
3 50 51 61
3 51 52 61
3 61 62 52
3 52 53 62
3 53 54 62
3 54 55 63
3 55 56 63
3 56 63 64
3 56 57 64
3 64 65 57
3 57 58 65
3 58 59 65
3 48 59 65
