ply
format ascii 1.0
element vertex 66
property float x
property float y
property float z
property float u
property float v
element face 91
property list uchar int vertex_indices
end_header
-20.0069 -6.12507 21.2683 487.201 419.097
-19.3498 -0.742931 20.7687 488.854 440.356
-18.4812 4.60274 20.161 491.409 461.416
-17.2592 9.83986 18.0525 495.743 480.647
-15.2616 14.6957 13.4697 503.853 496.101
-12.0819 18.7268 7.91916 517.212 507.594
-8.10529 21.9501 2.95356 533.919 516.631
-3.59595 24.3766 -1.23425 552.843 523.378
1.50968 25.0219 -4.65879 574.46 523.89
6.60306 23.6811 -1.03023 595.055 523.409
10.7506 20.4468 3.19198 612.036 515.68
14.1607 16.4626 8.1096 625.996 505.441
16.7861 11.9374 13.5789 636.724 493.377
18.2874 6.9661 18.0868 643.099 478.285
18.8598 1.85921 20.2186 646.139 460.059
18.9473 -3.28317 20.7175 647.509 439.952
18.7417 -8.42944 21.0918 647.694 419.631
-15.3957 -15.6521 0.0685886 512.495 361.105
-12.8814 -16.5252 -1.37899 523.35 356.817
-10.2879 -16.6684 -2.84227 534.377 355.462
-7.77164 -16.454 -4.26345 545.001 355.562
-5.34298 -15.7963 -5.49527 555.129 357.605
2.96469 -16.1307 -5.56469 589.511 358.328
5.15274 -16.9947 -4.27691 598.474 356.699
7.49033 -17.4711 -2.83904 607.942 356.811
9.94381 -17.6875 -1.33173 617.818 358.064
12.4247 -17.2102 0.217561 627.649 362.148
-0.542096 -11.0941 -4.92624 573.823 378.258
-0.310349 -7.99491 -7.68536 574.659 388.018
-0.0947875 -4.92167 -10.6231 575.47 397.492
0.113453 -1.86653 -13.4605 576.234 406.992
-3.54091 0.325616 -6.33909 559.263 421.889
-1.59495 0.886914 -7.19671 567.346 423.791
0.454932 1.08003 -7.94167 575.914 424.355
2.3371 0.632345 -7.11487 583.617 423.861
4.05902 -0.18471 -6.32183 590.744 421.811
-12.0883 -10.8884 -0.820966 525.299 380.179
-10.4213 -11.7448 -0.94231 532.389 377.052
-8.52642 -11.8999 -1.10903 540.278 376.752
-6.86982 -11.158 -0.937033 546.923 380.323
-8.61253 -10.824 -0.903941 539.65 381.248
-10.3878 -10.7217 -0.951749 532.309 381.155
4.8559 -11.7723 -0.885737 595.451 380.921
6.35403 -12.6513 -1.10892 601.869 377.56
8.19842 -12.7927 -0.916204 609.475 377.657
9.91276 -12.1562 -0.723601 616.377 380.84
8.29364 -11.765 -0.863694 609.637 381.855
6.56246 -11.6778 -0.801338 602.459 381.822
-8.28646 7.80704 -2.63745 537.327 454.335
-5.79313 6.0726 -4.67907 548.398 446
-2.68422 5.08899 -6.37237 561.78 441.179
0.629456 5.03097 -8.1404 575.823 440.048
3.85937 4.6595 -6.16614 588.845 441.341
6.99707 5.18791 -4.45741 601.345 445.956
9.56947 6.6155 -2.41413 611.252 454.362
7.77942 9.7633 -3.95442 603.49 465.003
4.8863 12.0177 -4.97676 591.263 472.29
1.18867 12.846 -6.37431 576.098 473.28
-2.64271 12.4915 -5.16769 560.118 472.068
-5.89365 10.6537 -4.14525 546.891 464.874
-3.46768 6.7908 -5.1744 557.942 448.987
0.759078 6.52173 -7.63359 575.936 446.561
4.91067 6.25272 -4.94162 592.599 449.211
5.38104 9.43637 -4.31987 593.732 462.715
1.06966 10.5397 -6.30806 576.09 464.066
-3.41098 10.0172 -4.52162 557.351 462.587
3 20 21 23
3 21 22 23
3 0 1 36
3 15 16 45
3 0 17 36
3 16 26 45
3 17 18 37
3 25 26 44
3 17 36 37
3 26 44 45
3 18 19 38
3 24 25 43
3 18 37 38
3 25 43 44
3 19 20 38
3 23 24 43
3 20 21 39
3 22 23 42
3 20 38 39
3 23 42 43
3 21 22 27
3 21 27 39
3 22 27 42
3 27 28 42
3 27 28 39
3 28 42 47
3 28 39 40
3 1 36 41
3 15 45 46
3 1 2 41
3 14 15 46
3 28 29 40
3 28 29 47
3 2 40 41
3 14 46 47
3 2 29 40
3 14 29 47
3 2 3 29
3 13 14 29
3 29 30 31
3 29 30 35
3 3 29 31
3 13 29 35
3 30 32 33
3 30 33 34
3 30 31 32
3 30 34 35
3 3 4 31
3 12 13 35
3 4 5 48
3 11 12 54
3 5 6 48
3 10 11 54
3 6 48 59
3 10 54 55
3 6 7 59
3 9 10 55
3 7 58 59
3 9 55 56
3 8 57 58
3 8 56 57
3 7 8 58
3 8 9 56
3 4 31 48
3 12 35 54
3 31 48 49
3 35 53 54
3 31 49 50
3 35 52 53
3 31 32 50
3 34 35 52
3 32 33 50
3 33 34 52
3 33 50 51
3 33 51 52
3 48 49 60
3 49 60 50
3 50 60 61
3 50 51 61
3 51 52 61
3 61 62 52
3 52 53 62
3 53 54 62
3 54 55 63
3 55 56 63
3 56 63 64
3 56 57 64
3 64 65 57
3 57 58 65
3 58 59 65
3 48 59 65
