ply
format ascii 1.0
element vertex 66
property float x
property float y
property float z
property float u
property float v
element face 91
property list uchar int vertex_indices
end_header
-19.8927 -6.70338 21.2016 487.665 417.855
-19.3153 -1.29598 20.7474 489.446 439.28
-18.4693 4.06007 20.1503 492.394 460.401
-17.2182 9.42637 18.0763 497.455 480.071
-15.2995 14.6387 13.412 506.069 496.493
-12.2354 19.0818 7.81331 519.829 509.058
-8.26467 22.5568 2.9954 537.269 518.745
-3.69196 25.0437 -1.09631 557.141 525.354
1.40102 25.8557 -4.76714 579.289 525.772
6.43119 24.3004 -0.951782 599.329 524.635
10.5043 20.8761 3.25567 615.533 516.185
13.8466 16.6627 7.98993 628.652 504.966
16.4641 11.8904 13.454 638.621 492.122
18.1362 6.75432 18.0262 644.965 476.661
18.9189 1.68684 20.2352 648.286 458.766
19.1042 -3.31421 20.7355 649.609 439.188
18.9269 -8.33815 20.9372 649.513 419.123
-15.5084 -15.5311 0.0328403 513.296 360.591
-13.2088 -16.7548 -1.49646 523.481 354.508
-10.5771 -17.1501 -2.89843 534.895 351.969
-7.90635 -16.9452 -4.28552 546.384 351.873
-5.30727 -16.194 -5.52002 557.454 354.126
2.43263 -16.3344 -5.56542 589.695 355.134
4.84634 -17.3884 -4.26048 599.507 352.787
7.4351 -17.9315 -2.84617 609.945 352.652
10.0769 -17.9253 -1.39971 620.517 354.777
12.4896 -17.0286 0.21506 629.962 360.62
-0.669598 -10.9593 -5.01135 575.875 376.734
-0.538694 -8.28366 -7.68437 576.825 384.688
-0.418028 -5.61679 -10.4581 577.762 392.496
-0.288355 -2.98079 -13.1893 578.728 400.227
-3.38186 -0.333275 -6.04684 563.409 417.876
-1.60593 0.094737 -7.0034 571.017 418.951
0.240792 0.243626 -7.9517 578.957 418.925
1.97292 -0.155682 -6.93329 585.925 418.767
3.57199 -0.846434 -6.15837 592.45 417.147
-11.9686 -10.2048 -1.16466 527.632 381.515
-10.4022 -10.9984 -1.12976 534.251 378.683
-8.57288 -11.2646 -1.03827 541.874 378.092
-6.87016 -10.8857 -0.818068 548.843 380.211
-8.5214 -10.3379 -0.965627 541.938 381.914
-10.2669 -10.1377 -1.03051 534.665 382.286
4.94334 -11.5433 -0.834065 598.1 380.02
6.51982 -12.0444 -1.08719 604.804 378.061
8.29865 -12.063 -1.04455 612.196 378.405
9.9097 -11.4959 -0.893172 618.777 381.189
8.2856 -11.1957 -0.853119 611.965 382.101
6.57485 -11.2182 -0.820528 604.84 381.687
-6.34293 8.8545 -2.72595 548.84 457.824
-4.83664 6.41169 -4.83557 556.062 446.043
-2.3685 4.67111 -6.4345 567.041 437.839
0.730356 4.54515 -8.04457 580.422 436.261
3.79391 4.20681 -6.11727 592.657 437.599
6.45354 5.48719 -4.5424 603.089 444.998
8.21833 7.68662 -2.50185 609.533 456.41
6.72821 10.0823 -3.92214 603.411 464.234
4.44353 11.8503 -5.02398 593.977 469.702
1.44697 12.6195 -6.60926 581.861 470.48
-1.6609 12.3115 -5.25422 568.577 470.035
-4.29555 10.9736 -4.08316 557.459 465.342
-2.37665 6.8018 -4.97713 566.286 447.98
0.945656 6.38403 -7.18815 580.813 444.631
4.27736 6.29793 -4.78975 593.992 447.544
4.56273 9.15785 -4.32364 594.645 459.626
1.28142 10.2023 -6.20564 581.392 461.136
-2.12831 9.68413 -4.495 566.778 460.161
3 20 21 23
3 21 22 23
3 0 1 36
3 15 16 45
3 0 17 36
3 16 26 45
3 17 18 37
3 25 26 44
3 17 36 37
3 26 44 45
3 18 19 38
3 24 25 43
3 18 37 38
3 25 43 44
3 19 20 38
3 23 24 43
3 20 21 39
3 22 23 42
3 20 38 39
3 23 42 43
3 21 22 27
3 21 27 39
3 22 27 42
3 27 28 42
3 27 28 39
3 28 42 47
3 28 39 40
3 1 36 41
3 15 45 46
3 1 2 41
3 14 15 46
3 28 29 40
3 28 29 47
3 2 40 41
3 14 46 47
3 2 29 40
3 14 29 47
3 2 3 29
3 13 14 29
3 29 30 31
3 29 30 35
3 3 29 31
3 13 29 35
3 30 32 33
3 30 33 34
3 30 31 32
3 30 34 35
3 3 4 31
3 12 13 35
3 4 5 48
3 11 12 54
3 5 6 48
3 10 11 54
3 6 48 59
3 10 54 55
3 6 7 59
3 9 10 55
3 7 58 59
3 9 55 56
3 8 57 58
3 8 56 57
3 7 8 58
3 8 9 56
3 4 31 48
3 12 35 54
3 31 48 49
3 35 53 54
3 31 49 50
3 35 52 53
3 31 32 50
3 34 35 52
3 32 33 50
3 33 34 52
3 33 50 51
3 33 51 52
3 48 49 60
3 49 60 50
3 50 60 61
3 50 51 61
3 51 52 61
3 61 62 52
3 52 53 62
3 53 54 62
3 54 55 63
3 55 56 63
3 56 63 64
3 56 57 64
3 64 65 57
3 57 58 65
3 58 59 65
3 48 59 65
