ply
format ascii 1.0
element vertex 66
property float x
property float y
property float z
property float u
property float v
element face 91
property list uchar int vertex_indices
end_header
-19.735 -6.15805 20.9404 490.341 420.23
-19.0725 -0.880454 20.5253 491.337 441.046
-18.135 4.34202 19.9845 493.505 461.614
-16.7525 9.54694 18.1767 497.738 480.947
-14.7421 14.5806 13.3824 505.15 496.694
-11.8492 19.0822 7.80537 516.517 509.831
-8.16771 22.8942 3.10485 531.207 521.444
-3.79084 25.7753 -1.06934 548.983 530.168
1.2894 26.7848 -4.8456 570.223 532.127
6.53026 25.2982 -0.883465 591.589 532.353
10.7472 21.796 3.25252 609.4 524.355
14.0321 17.3147 7.90321 623.617 512.651
16.4409 12.2706 13.4412 634.262 499.311
17.8881 6.89913 18.2103 641.2 483.496
18.5848 1.50907 20.0254 645.586 464.217
18.7179 -3.81393 20.5449 647.861 443.63
18.466 -9.15499 20.8631 648.595 422.614
-15.333 -15.4517 0.0716065 515.384 362.95
-13.1959 -17.0328 -1.57002 525.014 355.736
-10.5257 -17.636 -2.9034 536.449 352.939
-7.76069 -17.4698 -4.28202 548.019 353.191
-5.08003 -16.6759 -5.48874 558.996 356.091
2.50594 -17.0806 -5.51089 590.358 357.316
4.88028 -18.2235 -4.23717 600.292 355.002
7.44573 -18.7854 -2.83373 610.791 355.209
10.0583 -18.7111 -1.4359 621.266 357.959
12.3784 -17.6668 0.229374 630.158 364.741
-0.465373 -11.461 -4.86234 576.091 379.243
-0.192548 -8.67842 -7.64123 576.76 387.496
0.0669609 -5.89359 -10.3857 577.368 395.789
0.307427 -3.12759 -12.9848 577.878 404.154
-2.66681 -0.270013 -5.93567 563.394 421.821
-1.0929 0.166593 -6.91486 569.898 423.121
0.580843 0.314908 -7.86071 576.905 423.347
2.09959 -0.0383887 -6.78715 583.084 423.642
3.45986 -0.678109 -5.87429 588.737 422.569
-11.3809 -10.5507 -1.22681 530.204 382.577
-10.0483 -11.4264 -1.16233 535.976 379.662
-8.37386 -11.7635 -0.998247 542.954 379.124
-6.81707 -11.4163 -0.81826 549.209 381.282
-8.22389 -10.6277 -0.990186 543.181 383.709
-9.82676 -10.3939 -0.988836 536.504 384.037
4.84294 -12.1134 -0.562966 597.388 383.169
6.29015 -12.6728 -0.900983 603.596 381.132
7.97214 -12.6473 -1.12068 610.549 381.637
9.40549 -11.99 -1.20377 616.238 384.705
7.92976 -11.5682 -0.882331 609.963 386.166
6.33176 -11.5792 -0.788889 603.373 385.618
-4.70183 9.06248 -2.74567 551.254 461.55
-3.46602 7.1739 -4.8625 557.366 452.273
-1.63538 5.73497 -6.45342 565.677 445.562
0.67708 5.83925 -8.03452 575.442 445.185
2.90749 5.48284 -6.31691 584.435 446.414
4.80147 6.70942 -4.70474 591.521 453.705
6.09179 8.49314 -2.52161 595.829 463.586
4.93822 10.2889 -3.9963 590.732 468.747
3.19145 11.5246 -5.18345 583.333 471.758
0.936338 12.0648 -6.74501 574.148 471.415
-1.34725 11.7186 -5.32003 564.612 470.676
-3.24057 10.6789 -4.06711 556.951 467.143
-0.949568 7.81984 -4.90882 567.509 455.743
0.765224 7.67609 -6.98332 574.988 453.634
2.38705 7.69784 -4.67866 581.241 456.756
2.43514 8.79303 -4.33818 581.004 461.491
0.850978 9.37424 -6.15762 574.612 461.293
-0.860367 8.9295 -4.49189 567.422 460.631
3 20 21 23
3 21 22 23
3 0 1 36
3 15 16 45
3 0 17 36
3 16 26 45
3 17 18 37
3 25 26 44
3 17 36 37
3 26 44 45
3 18 19 38
3 24 25 43
3 18 37 38
3 25 43 44
3 19 20 38
3 23 24 43
3 20 21 39
3 22 23 42
3 20 38 39
3 23 42 43
3 21 22 27
3 21 27 39
3 22 27 42
3 27 28 42
3 27 28 39
3 28 42 47
3 28 39 40
3 1 36 41
3 15 45 46
3 1 2 41
3 14 15 46
3 28 29 40
3 28 29 47
3 2 40 41
3 14 46 47
3 2 29 40
3 14 29 47
3 2 3 29
3 13 14 29
3 29 30 31
3 29 30 35
3 3 29 31
3 13 29 35
3 30 32 33
3 30 33 34
3 30 31 32
3 30 34 35
3 3 4 31
3 12 13 35
3 4 5 48
3 11 12 54
3 5 6 48
3 10 11 54
3 6 48 59
3 10 54 55
3 6 7 59
3 9 10 55
3 7 58 59
3 9 55 56
3 8 57 58
3 8 56 57
3 7 8 58
3 8 9 56
3 4 31 48
3 12 35 54
3 31 48 49
3 35 53 54
3 31 49 50
3 35 52 53
3 31 32 50
3 34 35 52
3 32 33 50
3 33 34 52
3 33 50 51
3 33 51 52
3 48 49 60
3 49 60 50
3 50 60 61
3 50 51 61
3 51 52 61
3 61 62 52
3 52 53 62
3 53 54 62
3 54 55 63
3 55 56 63
3 56 63 64
3 56 57 64
3 64 65 57
3 57 58 65
3 58 59 65
3 48 59 65
