ply
format ascii 1.0
element vertex 66
property float x
property float y
property float z
property float u
property float v
element face 91
property list uchar int vertex_indices
end_header
-20.1655 -6.07011 21.362 487.662 419.356
-19.4721 -0.722444 20.8891 489.169 440.296
-18.5781 4.58544 20.2677 491.537 460.979
-17.3406 9.82978 18.0854 495.617 479.834
-15.3209 14.7594 13.4931 503.432 495.085
-12.1036 18.834 7.89013 516.584 506.217
-8.09602 22.0589 2.97401 533.09 514.957
-3.5701 24.4559 -1.20168 551.817 521.364
1.50302 25.1285 -4.75823 573.144 521.756
6.57584 23.7128 -1.01576 593.715 521.712
10.7566 20.4531 3.17639 611.029 514.557
14.2047 16.4157 8.07541 625.41 504.851
16.8358 11.7833 13.6297 636.471 493.237
18.3282 6.70379 18.0938 643.165 478.326
18.9099 1.58174 20.3008 646.532 460.539
19.0047 -3.52687 20.8039 648.198 440.822
18.7941 -8.64628 21.1793 648.634 420.831
-15.6519 -15.2347 0.0909295 512.51 361.444
-13.2037 -16.4045 -1.42532 523.167 355.914
-10.5102 -16.7721 -2.87887 534.606 353.713
-7.81776 -16.6202 -4.25936 545.888 353.652
-5.20102 -15.9433 -5.45315 556.685 355.855
3.00458 -16.2907 -5.56626 590.55 356.86
5.25872 -17.2177 -4.28406 599.839 355.248
7.67446 -17.6985 -2.85047 609.646 355.62
10.1822 -17.8404 -1.31959 619.723 357.47
12.6485 -17.2455 0.237634 629.428 362.262
-0.391845 -10.9079 -4.9053 575.02 377.91
-0.175986 -7.95554 -7.67435 575.617 386.72
0.0243126 -5.02563 -10.6141 576.186 395.252
0.211118 -2.11786 -13.4836 576.693 403.768
-3.42448 0.178884 -6.33557 559.837 419.472
-1.50342 0.707651 -7.18271 567.75 421.247
0.508998 0.899069 -7.96976 576.118 421.775
2.33474 0.475878 -7.11354 583.586 421.574
4.02886 -0.282098 -6.26881 590.605 419.991
-12.0595 -10.3773 -0.804973 526.148 380.867
-10.3898 -11.1817 -1.00643 533.268 377.965
-8.51314 -11.3791 -1.21152 541.076 377.534
-6.80562 -10.8011 -1.00725 547.908 380.571
-8.54717 -10.4425 -0.924912 540.634 381.552
-10.3256 -10.3043 -0.950884 533.287 381.529
5.09037 -11.4584 -0.962655 597.007 381.643
6.65819 -12.1836 -1.16234 603.686 379.027
8.49257 -12.2882 -0.957791 611.222 379.392
10.1934 -11.689 -0.742898 618.019 382.523
8.53132 -11.3814 -0.889159 611.127 383.079
6.79594 -11.3255 -0.852702 603.967 382.81
-8.71685 7.58727 -2.62311 535.417 451.272
-6.09661 5.8752 -4.66925 547.021 443.071
-2.87722 4.91231 -6.33898 560.822 438.433
0.542864 4.88211 -8.0403 575.204 437.527
3.85791 4.49929 -6.17754 588.606 439.025
7.0614 5.04106 -4.47444 601.331 443.988
9.69608 6.47712 -2.42885 611.416 452.698
7.78326 9.6207 -3.96123 602.982 462.948
4.78352 11.8405 -5.01781 590.24 469.709
1.0257 12.6644 -6.43994 574.819 470.302
-2.87223 12.2826 -5.16735 558.659 468.965
-6.21881 10.4483 -4.10852 545.194 461.798
-3.79236 6.63705 -5.2005 556.391 446.229
0.649765 6.43734 -7.64635 575.156 444.16
4.98007 6.1147 -4.95248 592.569 447.101
5.4473 9.25679 -4.32791 593.538 460.394
0.937477 10.3641 -6.40394 575.065 461.179
-3.76957 9.82976 -4.5368 555.511 459.629
3 20 21 23
3 21 22 23
3 0 1 36
3 15 16 45
3 0 17 36
3 16 26 45
3 17 18 37
3 25 26 44
3 17 36 37
3 26 44 45
3 18 19 38
3 24 25 43
3 18 37 38
3 25 43 44
3 19 20 38
3 23 24 43
3 20 21 39
3 22 23 42
3 20 38 39
3 23 42 43
3 21 22 27
3 21 27 39
3 22 27 42
3 27 28 42
3 27 28 39
3 28 42 47
3 28 39 40
3 1 36 41
3 15 45 46
3 1 2 41
3 14 15 46
3 28 29 40
3 28 29 47
3 2 40 41
3 14 46 47
3 2 29 40
3 14 29 47
3 2 3 29
3 13 14 29
3 29 30 31
3 29 30 35
3 3 29 31
3 13 29 35
3 30 32 33
3 30 33 34
3 30 31 32
3 30 34 35
3 3 4 31
3 12 13 35
3 4 5 48
3 11 12 54
3 5 6 48
3 10 11 54
3 6 48 59
3 10 54 55
3 6 7 59
3 9 10 55
3 7 58 59
3 9 55 56
3 8 57 58
3 8 56 57
3 7 8 58
3 8 9 56
3 4 31 48
3 12 35 54
3 31 48 49
3 35 53 54
3 31 49 50
3 35 52 53
3 31 32 50
3 34 35 52
3 32 33 50
3 33 34 52
3 33 50 51
3 33 51 52
3 48 49 60
3 49 60 50
3 50 60 61
3 50 51 61
3 51 52 61
3 61 62 52
3 52 53 62
3 53 54 62
3 54 55 63
3 55 56 63
3 56 63 64
3 56 57 64
3 64 65 57
3 57 58 65
3 58 59 65
3 48 59 65
