ply
format ascii 1.0
element vertex 66
property float x
property float y
property float z
property float u
property float v
element face 91
property list uchar int vertex_indices
end_header
-20.1026 -5.89182 21.3797 489.63 418.87
-19.3605 -0.56303 20.8961 491.17 440.137
-18.4262 4.72515 20.2683 493.545 461.177
-17.1767 9.91784 18.055 497.586 480.526
-15.146 14.7418 13.4855 505.459 496.554
-11.9387 18.7036 7.91657 518.653 508.624
-7.96909 21.8439 2.92537 535.115 518.166
-3.50385 24.2035 -1.27221 553.686 525.445
1.51868 24.8458 -4.67279 574.906 526.716
6.54568 23.4471 -1.03572 595.266 526.06
10.6619 20.206 3.17184 612.312 518.187
14.0489 16.2204 8.12967 626.421 507.737
16.6647 11.688 13.6195 637.406 495.298
18.1816 6.73631 18.0672 644.213 479.864
18.7718 1.71111 20.2742 647.702 461.815
18.898 -3.32895 20.7556 649.651 442.006
18.7283 -8.3782 21.1399 650.405 421.972
-15.6395 -15.5401 0.0886479 515.482 362.563
-13.0801 -16.4908 -1.34059 526.619 358.339
-10.3887 -16.6613 -2.81215 538.072 357.262
-7.76555 -16.426 -4.24396 549.112 357.83
-5.23368 -15.7218 -5.48102 559.591 360.428
3.19319 -16.0967 -5.60716 594.448 361.697
5.36215 -16.9677 -4.29888 603.369 360.105
7.68516 -17.457 -2.83072 612.775 360.243
10.1258 -17.7081 -1.29032 622.578 361.446
12.5917 -17.2616 0.23555 632.276 365.451
-0.38426 -10.9221 -4.87734 577.982 381.945
-0.153108 -7.77649 -7.67271 578.573 392.187
0.0585977 -4.65842 -10.6686 579.135 402.132
0.255094 -1.56054 -13.5669 579.621 412.077
-3.49958 0.330031 -6.37652 562.047 424.818
-1.52937 0.928972 -7.24498 570.166 427.129
0.547361 1.15648 -7.99085 578.811 428.09
2.41371 0.694735 -7.17118 586.466 427.605
4.1254 -0.13523 -6.31203 593.587 425.619
-12.6018 -10.7738 -0.691646 526.714 382.088
-10.8493 -11.7981 -0.891564 534.288 378.389
-8.7877 -11.9593 -1.17131 542.889 378.198
-7.04096 -11.0249 -1.00711 549.766 382.704
-8.89263 -10.6106 -0.916865 541.993 383.816
-10.7998 -10.5044 -0.919823 534.104 383.587
5.13574 -11.6459 -0.975846 600.111 384.41
6.69129 -12.7095 -1.15266 606.88 380.506
8.69463 -12.8758 -0.876619 615.125 380.77
10.4948 -12.0573 -0.65269 622.245 384.882
8.79645 -11.558 -0.873925 615.144 386.111
6.94564 -11.4701 -0.855961 607.488 385.845
-8.65433 7.61178 -2.6463 537.804 455.684
-6.03062 5.94414 -4.65793 549.548 448.076
-2.81133 5.044 -6.34775 563.443 444.049
0.566939 5.01197 -8.15709 577.756 443.464
3.83488 4.63788 -6.17481 590.91 444.85
7.02907 5.10819 -4.45387 603.559 449.375
9.65309 6.50718 -2.43249 613.514 457.71
7.80387 9.69875 -3.98129 605.255 468.536
4.83013 11.9682 -4.99205 592.53 475.746
1.0727 12.8072 -6.37454 577.09 476.598
-2.84054 12.4075 -5.16674 560.833 474.726
-6.18051 10.5183 -4.17763 547.438 466.861
-3.68616 6.62297 -5.23362 559.122 451.098
0.673392 6.43102 -7.761 577.678 449.565
4.92075 6.11763 -4.95644 594.674 452.265
5.41419 9.43383 -4.29982 595.559 466.366
0.985599 10.5729 -6.30125 577.395 467.643
-3.64286 9.98978 -4.54151 558.13 465.28
3 20 21 23
3 21 22 23
3 0 1 36
3 15 16 45
3 0 17 36
3 16 26 45
3 17 18 37
3 25 26 44
3 17 36 37
3 26 44 45
3 18 19 38
3 24 25 43
3 18 37 38
3 25 43 44
3 19 20 38
3 23 24 43
3 20 21 39
3 22 23 42
3 20 38 39
3 23 42 43
3 21 22 27
3 21 27 39
3 22 27 42
3 27 28 42
3 27 28 39
3 28 42 47
3 28 39 40
3 1 36 41
3 15 45 46
3 1 2 41
3 14 15 46
3 28 29 40
3 28 29 47
3 2 40 41
3 14 46 47
3 2 29 40
3 14 29 47
3 2 3 29
3 13 14 29
3 29 30 31
3 29 30 35
3 3 29 31
3 13 29 35
3 30 32 33
3 30 33 34
3 30 31 32
3 30 34 35
3 3 4 31
3 12 13 35
3 4 5 48
3 11 12 54
3 5 6 48
3 10 11 54
3 6 48 59
3 10 54 55
3 6 7 59
3 9 10 55
3 7 58 59
3 9 55 56
3 8 57 58
3 8 56 57
3 7 8 58
3 8 9 56
3 4 31 48
3 12 35 54
3 31 48 49
3 35 53 54
3 31 49 50
3 35 52 53
3 31 32 50
3 34 35 52
3 32 33 50
3 33 34 52
3 33 50 51
3 33 51 52
3 48 49 60
3 49 60 50
3 50 60 61
3 50 51 61
3 51 52 61
3 61 62 52
3 52 53 62
3 53 54 62
3 54 55 63
3 55 56 63
3 56 63 64
3 56 57 64
3 64 65 57
3 57 58 65
3 58 59 65
3 48 59 65
