ply
format ascii 1.0
element vertex 66
property float x
property float y
property float z
property float u
property float v
element face 91
property list uchar int vertex_indices
end_header
-19.9095 -5.8799 20.9336 488.396 423.148
-19.299 -0.702166 20.5082 489.334 443.617
-18.4024 4.42122 20.0251 491.46 463.916
-17.0214 9.4754 18.1196 495.777 482.927
-14.917 14.2819 13.4819 503.494 498.941
-11.8908 18.4849 7.8609 515.284 512.047
-8.09318 21.9679 3.11559 530.31 523.263
-3.69096 24.6345 -1.03328 547.964 531.921
1.35797 25.4926 -4.71863 568.741 533.975
6.49774 24.1658 -0.875435 589.509 533.566
10.6952 20.9431 3.27191 606.99 525.546
14.0906 16.8587 7.98214 621.398 514.293
16.6027 12.1568 13.5856 632.281 501.024
18.0936 7.00529 18.2254 639.287 484.832
18.7812 1.73197 20.1584 643.444 465.657
18.9209 -3.53354 20.6368 645.576 445.132
18.7072 -8.81135 20.9725 646.295 424.323
-15.3515 -15.7387 0.0719711 512.909 368.208
-13.1761 -17.1168 -1.45784 522.394 362.181
-10.579 -17.5959 -2.86444 533.299 359.976
-7.9358 -17.4428 -4.28472 544.196 360.292
-5.37741 -16.7377 -5.53536 554.555 362.917
2.57397 -17.1186 -5.52567 586.998 364.047
4.98949 -18.1907 -4.22446 596.967 361.652
7.57865 -18.7221 -2.79145 607.457 361.577
10.2254 -18.6575 -1.34835 617.995 363.902
12.6084 -17.6556 0.206744 627.154 369.964
-0.671567 -11.792 -4.89794 572.065 384.697
-0.412298 -9.00902 -7.56908 572.632 393.662
-0.161514 -6.23885 -10.3452 573.183 402.486
0.081498 -3.49329 -13.0965 573.706 411.231
-2.87739 -0.179756 -5.92758 559.644 429.353
-1.28682 0.206367 -6.96584 566.137 430.562
0.389427 0.310958 -7.94918 573.057 430.724
1.97179 -0.02045 -6.8545 579.44 430.832
3.40957 -0.633058 -5.89245 585.34 429.663
-11.5671 -10.541 -1.14734 526.855 389.154
-10.2135 -11.4426 -1.05971 532.625 386.086
-8.50828 -11.7368 -0.942959 539.633 385.576
-6.95224 -11.3352 -0.8394 545.82 387.777
-8.38084 -10.5506 -1.01048 539.793 390.286
-10.0063 -10.3162 -1.01353 533.112 390.677
5.0233 -12.0716 -0.641425 594.707 388.982
6.48315 -12.6827 -0.869467 600.863 386.845
8.19693 -12.6602 -0.999064 607.841 387.397
9.66267 -11.9847 -1.06253 613.6 390.521
8.17127 -11.5222 -0.888997 607.369 392.01
6.54082 -11.5314 -0.828199 600.735 391.482
-5.29419 9.30625 -2.81365 546.444 468.888
-3.64719 7.75129 -4.82335 553.903 461.587
-1.64734 6.48378 -6.46755 562.657 455.848
0.711115 6.59792 -8.10381 572.44 455.736
3.0136 6.19607 -6.31742 581.674 456.373
5.10815 7.19614 -4.66019 589.647 462.416
6.85719 8.5333 -2.60985 596.056 470.011
5.45258 10.3565 -4.10786 589.991 475.57
3.44786 11.5777 -5.24346 581.622 478.831
1.00004 12.1118 -6.65952 571.703 478.978
-1.46871 11.8539 -5.38866 561.568 478.179
-3.6113 10.9036 -4.19907 552.985 474.665
-1.1841 8.42182 -5.00692 563.735 464.923
0.807713 8.29166 -7.16811 572.176 463.284
2.747 8.2039 -4.85004 579.762 465.489
2.81362 8.98301 -4.45323 579.736 468.94
0.874823 9.52918 -6.262 571.939 468.98
-1.14737 9.20974 -4.56052 563.578 468.44
3 20 21 23
3 21 22 23
3 0 1 36
3 15 16 45
3 0 17 36
3 16 26 45
3 17 18 37
3 25 26 44
3 17 36 37
3 26 44 45
3 18 19 38
3 24 25 43
3 18 37 38
3 25 43 44
3 19 20 38
3 23 24 43
3 20 21 39
3 22 23 42
3 20 38 39
3 23 42 43
3 21 22 27
3 21 27 39
3 22 27 42
3 27 28 42
3 27 28 39
3 28 42 47
3 28 39 40
3 1 36 41
3 15 45 46
3 1 2 41
3 14 15 46
3 28 29 40
3 28 29 47
3 2 40 41
3 14 46 47
3 2 29 40
3 14 29 47
3 2 3 29
3 13 14 29
3 29 30 31
3 29 30 35
3 3 29 31
3 13 29 35
3 30 32 33
3 30 33 34
3 30 31 32
3 30 34 35
3 3 4 31
3 12 13 35
3 4 5 48
3 11 12 54
3 5 6 48
3 10 11 54
3 6 48 59
3 10 54 55
3 6 7 59
3 9 10 55
3 7 58 59
3 9 55 56
3 8 57 58
3 8 56 57
3 7 8 58
3 8 9 56
3 4 31 48
3 12 35 54
3 31 48 49
3 35 53 54
3 31 49 50
3 35 52 53
3 31 32 50
3 34 35 52
3 32 33 50
3 33 34 52
3 33 50 51
3 33 51 52
3 48 49 60
3 49 60 50
3 50 60 61
3 50 51 61
3 51 52 61
3 61 62 52
3 52 53 62
3 53 54 62
3 54 55 63
3 55 56 63
3 56 63 64
3 56 57 64
3 64 65 57
3 57 58 65
3 58 59 65
3 48 59 65
