ply
format ascii 1.0
element vertex 66
property float x
property float y
property float z
property float u
property float v
element face 91
property list uchar int vertex_indices
end_header
-20.5434 -6.04743 21.2977 486.238 424.426
-19.8445 -0.681898 20.815 487.885 444.978
-18.8961 4.63916 20.2918 490.542 465.391
-17.5803 9.88646 18.2435 495.029 484.296
-15.5595 14.7928 13.3973 503.046 499.647
-12.3509 18.8385 7.78677 516.149 511.329
-8.26833 21.9473 3.13792 532.708 520.46
-3.65004 24.1295 -1.0821 551.503 526.523
1.42725 24.693 -4.7267 572.357 526.944
6.54421 23.3699 -0.839129 592.037 526.61
10.8104 20.2641 3.38999 608.675 519.434
14.3196 16.3082 7.98481 622.422 509.074
16.9755 11.7357 13.4944 632.714 496.885
18.558 6.75427 18.1887 639.036 482.108
19.2732 1.715 20.2556 642.548 464.586
19.4526 -3.31692 20.6411 644.329 445.485
19.2709 -8.35719 20.989 644.688 426.219
-16.2157 -15.6079 0.109989 510.564 370.205
-13.8251 -17.048 -1.46621 520.743 363.921
-11.0283 -17.5338 -2.86135 532.27 361.601
-8.19378 -17.3307 -4.23409 543.782 361.979
-5.44158 -16.5468 -5.42433 554.792 364.743
3.09509 -16.8316 -5.48711 588.716 365.945
5.48672 -17.8478 -4.22412 598.136 363.767
8.05099 -18.3647 -2.81912 608.092 363.694
10.6817 -18.3548 -1.36258 618.178 365.724
13.1 -17.4219 0.280827 627.166 371.432
-0.42564 -11.1758 -4.88151 573.313 387.399
-0.232342 -8.17471 -7.67646 574.042 396.647
-0.053044 -5.18676 -10.5622 574.741 405.762
0.1185 -2.21702 -13.3089 575.38 414.925
-3.00056 0.421417 -6.11427 560.721 430.526
-1.29843 0.884675 -7.11445 567.596 431.922
0.498223 1.04056 -8.05616 574.904 432.205
2.1298 0.686247 -6.9789 581.202 432.219
3.60598 0.0218311 -6.0269 586.984 430.881
-12.0666 -10.5266 -1.0558 526.115 390.017
-10.5766 -11.436 -1.06836 532.235 386.896
-8.77487 -11.6954 -0.992633 539.42 386.455
-7.1479 -11.0933 -0.80778 545.688 389.397
-8.71974 -10.4527 -0.959274 539.344 391.312
-10.429 -10.2928 -0.992924 532.539 391.429
5.30367 -11.7301 -0.753764 595.187 390.42
6.78299 -12.4369 -0.945706 601.26 387.925
8.54171 -12.4611 -1.0002 608.251 388.27
10.067 -11.724 -0.939035 614.114 391.599
8.52516 -11.2848 -0.889916 607.888 392.916
6.86471 -11.2826 -0.851412 601.296 392.499
-6.01785 8.91246 -2.84202 546.035 465.414
-4.09202 7.36604 -4.9466 554.52 458.131
-1.8328 6.21131 -6.56542 564.122 452.878
0.692632 6.35404 -8.16378 574.476 452.741
3.12869 5.91936 -6.31302 583.8 453.338
5.42041 6.76353 -4.6949 592.312 458.645
7.35454 8.12787 -2.61819 599.179 466.266
5.71496 9.78107 -3.9268 592.604 471.079
3.50161 10.7664 -5.03326 583.862 473.322
1.01585 11.1735 -6.52078 574.261 472.92
-1.54719 11.0326 -5.25954 563.837 472.761
-3.96389 10.3269 -4.12638 554.153 470.344
-1.39268 8.13764 -5.23462 565.111 461.615
0.837577 8.10435 -7.25862 574.435 460.345
2.99309 7.9194 -4.9309 582.478 462.245
3.05061 8.28171 -4.39892 582.498 464.126
0.904389 8.63623 -6.30837 574.354 463.248
-1.32471 8.51892 -4.65875 565.158 463.61
3 20 21 23
3 21 22 23
3 0 1 36
3 15 16 45
3 0 17 36
3 16 26 45
3 17 18 37
3 25 26 44
3 17 36 37
3 26 44 45
3 18 19 38
3 24 25 43
3 18 37 38
3 25 43 44
3 19 20 38
3 23 24 43
3 20 21 39
3 22 23 42
3 20 38 39
3 23 42 43
3 21 22 27
3 21 27 39
3 22 27 42
3 27 28 42
3 27 28 39
3 28 42 47
3 28 39 40
3 1 36 41
3 15 45 46
3 1 2 41
3 14 15 46
3 28 29 40
3 28 29 47
3 2 40 41
3 14 46 47
3 2 29 40
3 14 29 47
3 2 3 29
3 13 14 29
3 29 30 31
3 29 30 35
3 3 29 31
3 13 29 35
3 30 32 33
3 30 33 34
3 30 31 32
3 30 34 35
3 3 4 31
3 12 13 35
3 4 5 48
3 11 12 54
3 5 6 48
3 10 11 54
3 6 48 59
3 10 54 55
3 6 7 59
3 9 10 55
3 7 58 59
3 9 55 56
3 8 57 58
3 8 56 57
3 7 8 58
3 8 9 56
3 4 31 48
3 12 35 54
3 31 48 49
3 35 53 54
3 31 49 50
3 35 52 53
3 31 32 50
3 34 35 52
3 32 33 50
3 33 34 52
3 33 50 51
3 33 51 52
3 48 49 60
3 49 60 50
3 50 60 61
3 50 51 61
3 51 52 61
3 61 62 52
3 52 53 62
3 53 54 62
3 54 55 63
3 55 56 63
3 56 63 64
3 56 57 64
3 64 65 57
3 57 58 65
3 58 59 65
3 48 59 65
