ply
format ascii 1.0
element vertex 66
property float x
property float y
property float z
property float u
property float v
element face 91
property list uchar int vertex_indices
end_header
-20.1781 -6.32625 21.2855 489.915 420.303
-19.5498 -0.976096 20.8678 491.193 441.168
-18.6987 4.32754 20.2455 493.439 461.707
-17.4392 9.61718 18.074 497.714 480.729
-15.4225 14.6995 13.4474 505.702 496.65
-12.2328 18.9571 7.84585 518.906 508.68
-8.19691 22.2682 2.9998 535.622 518.014
-3.64114 24.7075 -1.13717 554.514 524.797
1.43262 25.5008 -4.81682 575.83 525.718
6.53359 24.0435 -0.94951 596.067 525.51
10.7779 20.7816 3.20925 613.212 518.22
14.2786 16.677 8.01628 627.394 508.042
16.9138 11.8926 13.5519 638.056 495.664
18.4334 6.67108 18.0763 644.526 480.18
19.057 1.49579 20.2776 647.882 462.221
19.1308 -3.61164 20.7893 649.377 442.627
18.8779 -8.73251 21.0812 649.598 422.653
-15.6238 -15.2158 0.068765 515.724 364.897
-13.2298 -16.6089 -1.48449 526.194 358.549
-10.4531 -17.1279 -2.89258 537.964 355.915
-7.61418 -16.9798 -4.2457 549.802 355.988
-4.85589 -16.217 -5.43935 561.115 358.623
2.40729 -16.4345 -5.54937 590.769 359.893
4.85125 -17.47 -4.27206 600.687 357.873
7.47365 -17.9567 -2.88063 611.162 358.189
10.1387 -17.9138 -1.40695 621.657 360.692
12.6035 -17.0181 0.212255 631.081 366.645
-0.444699 -10.9936 -4.94962 577.616 381.084
-0.231944 -8.15876 -7.65261 578.386 389.558
-0.0350081 -5.33868 -10.5102 579.132 397.81
0.151808 -2.54775 -13.3469 579.839 405.965
-3.22471 -0.190518 -6.19209 563.806 421.556
-1.40591 0.268723 -7.06204 571.297 423.036
0.488355 0.433534 -7.92477 579.17 423.385
2.2106 0.0425151 -6.98569 586.062 423.338
3.81062 -0.645115 -6.16752 592.562 421.958
-11.857 -10.0711 -0.982556 529.983 385.269
-10.2397 -10.9054 -1.11523 536.813 382.342
-8.36722 -11.1345 -1.19139 544.514 381.938
-6.64104 -10.6422 -0.907006 551.348 384.704
-8.34423 -10.1629 -0.943199 544.299 386.032
-10.1178 -9.98424 -0.98951 537.043 386.141
4.81132 -11.2329 -0.846196 598.114 385.97
6.40925 -11.8728 -1.17479 604.862 383.602
8.24158 -11.9429 -1.08717 612.32 383.981
9.90006 -11.3196 -0.90922 618.87 387.133
8.23465 -10.997 -0.91635 612.008 387.884
6.49752 -10.9853 -0.845474 604.916 387.467
-7.73654 8.1766 -2.6733 542.456 456.768
-5.62765 6.08605 -4.73448 552.065 447.061
-2.73541 4.70836 -6.3472 564.574 440.867
0.599299 4.62658 -7.9722 578.553 439.907
3.85312 4.29652 -6.15418 591.459 441.473
6.80756 5.27652 -4.52319 602.853 447.921
9.01103 7.13979 -2.46678 610.862 458.058
7.21523 9.82207 -3.94637 603.207 466.564
4.51637 11.737 -5.04642 591.984 472.156
1.11169 12.5022 -6.54334 578.276 472.588
-2.41121 12.1379 -5.21448 563.715 471.427
-5.41331 10.5811 -4.09121 551.629 465.513
-3.25934 6.57457 -5.08885 561.665 449.355
0.721523 6.25603 -7.42883 578.504 446.927
4.62952 6.10045 -4.84689 593.849 450.167
5.00443 9.24714 -4.32011 594.442 463.232
1.02623 10.3066 -6.35883 578.45 464.092
-3.12847 9.75502 -4.51773 561.244 462.523
3 20 21 23
3 21 22 23
3 0 1 36
3 15 16 45
3 0 17 36
3 16 26 45
3 17 18 37
3 25 26 44
3 17 36 37
3 26 44 45
3 18 19 38
3 24 25 43
3 18 37 38
3 25 43 44
3 19 20 38
3 23 24 43
3 20 21 39
3 22 23 42
3 20 38 39
3 23 42 43
3 21 22 27
3 21 27 39
3 22 27 42
3 27 28 42
3 27 28 39
3 28 42 47
3 28 39 40
3 1 36 41
3 15 45 46
3 1 2 41
3 14 15 46
3 28 29 40
3 28 29 47
3 2 40 41
3 14 46 47
3 2 29 40
3 14 29 47
3 2 3 29
3 13 14 29
3 29 30 31
3 29 30 35
3 3 29 31
3 13 29 35
3 30 32 33
3 30 33 34
3 30 31 32
3 30 34 35
3 3 4 31
3 12 13 35
3 4 5 48
3 11 12 54
3 5 6 48
3 10 11 54
3 6 48 59
3 10 54 55
3 6 7 59
3 9 10 55
3 7 58 59
3 9 55 56
3 8 57 58
3 8 56 57
3 7 8 58
3 8 9 56
3 4 31 48
3 12 35 54
3 31 48 49
3 35 53 54
3 31 49 50
3 35 52 53
3 31 32 50
3 34 35 52
3 32 33 50
3 33 34 52
3 33 50 51
3 33 51 52
3 48 49 60
3 49 60 50
3 50 60 61
3 50 51 61
3 51 52 61
3 61 62 52
3 52 53 62
3 53 54 62
3 54 55 63
3 55 56 63
3 56 63 64
3 56 57 64
3 64 65 57
3 57 58 65
3 58 59 65
3 48 59 65
