ply
format ascii 1.0
element vertex 66
property float x
property float y
property float z
property float u
property float v
element face 91
property list uchar int vertex_indices
end_header
-20.2735 -6.44799 21.4679 487.866 418.51
-19.587 -0.967341 21.0117 489.74 439.962
-18.7089 4.47286 20.3532 492.453 461.082
-17.4899 9.88309 18.1366 496.901 480.492
-15.4977 15.0014 13.4853 505.098 496.315
-12.2164 19.1674 7.81864 518.992 507.572
-8.06513 22.3339 2.94994 536.487 515.922
-3.41023 24.5902 -1.17319 556.07 521.576
1.70877 25.1866 -4.80374 577.775 521.275
6.72156 23.6513 -0.971617 597.878 520.486
10.8653 20.3387 3.18358 614.678 512.774
14.2802 16.2582 8.04086 628.479 502.589
16.8602 11.5599 13.6302 638.811 490.535
18.3576 6.47758 18.045 645.009 475.437
18.9496 1.46615 20.2915 647.927 458.077
19.0254 -3.49001 20.7505 649.087 438.894
18.7953 -8.45635 21.1023 649.015 419.483
-15.9041 -15.2175 0.111068 512.006 361.792
-13.4792 -16.5824 -1.43625 522.566 355.288
-10.6931 -17.0705 -2.87858 534.422 352.467
-7.86347 -16.897 -4.23709 546.313 352.376
-5.11072 -16.1296 -5.4149 557.736 354.82
3.05123 -16.3342 -5.55577 591.375 355.808
5.32761 -17.291 -4.27169 600.649 353.928
7.77629 -17.7716 -2.84569 610.512 354.135
10.2925 -17.8355 -1.32069 620.552 356.119
12.6811 -17.1037 0.271726 629.902 361.308
-0.306135 -10.751 -4.94877 576.373 377.841
-0.155909 -7.88013 -7.70114 577.023 386.33
-0.0212668 -5.02595 -10.6062 577.644 394.586
0.104987 -2.19798 -13.4669 578.226 402.783
-3.46533 -0.0175188 -6.30651 561.618 418.277
-1.54812 0.523019 -7.15705 569.579 419.971
0.459663 0.731737 -7.98984 577.973 420.387
2.2688 0.311881 -7.0775 585.302 420.13
3.94474 -0.436061 -6.1925 592.151 418.509
-12.0069 -10.1746 -0.905521 527.287 381.671
-10.3694 -10.9658 -1.0824 534.21 378.729
-8.51441 -11.1707 -1.23268 541.911 378.197
-6.81853 -10.6061 -0.915703 548.711 381.187
-8.53077 -10.1868 -0.906259 541.587 382.453
-10.2929 -10.0576 -0.970325 534.328 382.476
5.24446 -11.1972 -0.988702 598.454 381.645
6.79978 -11.8313 -1.18832 605.014 379.283
8.58983 -11.9024 -1.00471 612.351 379.626
10.21 -11.2632 -0.795387 618.849 382.778
8.57731 -10.9565 -0.917595 612.101 383.475
6.88259 -10.9409 -0.896583 605.123 383.154
-8.56786 7.65361 -2.62102 538.392 451.492
-6.04338 5.89638 -4.71221 549.551 442.87
-2.89781 4.83989 -6.3748 563.04 437.64
0.510095 4.81013 -8.01949 577.408 436.572
3.81133 4.43453 -6.1492 590.664 437.877
6.94602 5.07418 -4.47047 603.082 442.97
9.47177 6.6041 -2.45796 612.754 451.812
7.5819 9.53007 -3.9098 604.729 461.429
4.68119 11.5898 -5.01162 592.637 467.736
1.06286 12.3894 -6.49635 577.915 468.455
-2.74036 12.0196 -5.1981 562.07 467.469
-6.03062 10.3193 -4.11149 548.633 461.092
-3.61462 6.51801 -5.21589 559.528 445.38
0.645392 6.3166 -7.59551 577.588 443.046
4.81506 6.02412 -4.90928 594.228 445.763
5.29101 9.18102 -4.28089 595.451 459.095
0.975888 10.2778 -6.39833 577.94 460.149
-3.53883 9.72412 -4.55774 559.089 458.844
3 20 21 23
3 21 22 23
3 0 1 36
3 15 16 45
3 0 17 36
3 16 26 45
3 17 18 37
3 25 26 44
3 17 36 37
3 26 44 45
3 18 19 38
3 24 25 43
3 18 37 38
3 25 43 44
3 19 20 38
3 23 24 43
3 20 21 39
3 22 23 42
3 20 38 39
3 23 42 43
3 21 22 27
3 21 27 39
3 22 27 42
3 27 28 42
3 27 28 39
3 28 42 47
3 28 39 40
3 1 36 41
3 15 45 46
3 1 2 41
3 14 15 46
3 28 29 40
3 28 29 47
3 2 40 41
3 14 46 47
3 2 29 40
3 14 29 47
3 2 3 29
3 13 14 29
3 29 30 31
3 29 30 35
3 3 29 31
3 13 29 35
3 30 32 33
3 30 33 34
3 30 31 32
3 30 34 35
3 3 4 31
3 12 13 35
3 4 5 48
3 11 12 54
3 5 6 48
3 10 11 54
3 6 48 59
3 10 54 55
3 6 7 59
3 9 10 55
3 7 58 59
3 9 55 56
3 8 57 58
3 8 56 57
3 7 8 58
3 8 9 56
3 4 31 48
3 12 35 54
3 31 48 49
3 35 53 54
3 31 49 50
3 35 52 53
3 31 32 50
3 34 35 52
3 32 33 50
3 33 34 52
3 33 50 51
3 33 51 52
3 48 49 60
3 49 60 50
3 50 60 61
3 50 51 61
3 51 52 61
3 61 62 52
3 52 53 62
3 53 54 62
3 54 55 63
3 55 56 63
3 56 63 64
3 56 57 64
3 64 65 57
3 57 58 65
3 58 59 65
3 48 59 65
