ply
format ascii 1.0
element vertex 66
property float x
property float y
property float z
property float u
property float v
element face 91
property list uchar int vertex_indices
end_header
-20.1413 -5.91067 21.3182 489.392 420.78
-19.4484 -0.624435 20.8278 490.883 441.766
-18.5365 4.6197 20.2302 493.305 462.557
-17.2618 9.75468 18.0067 497.577 481.581
-15.157 14.5295 13.5031 505.82 497.398
-11.8925 18.4838 7.92608 519.268 509.335
-7.87722 21.6388 2.9261 535.901 518.812
-3.35883 24.0203 -1.24134 554.644 526.082
1.73256 24.6352 -4.62153 576.065 527.142
6.71707 23.2955 -1.06159 596.177 526.484
10.8323 20.1796 3.14148 613.077 518.999
14.2339 16.3192 8.1332 627.092 509.004
16.8198 11.8659 13.6703 637.81 496.86
18.2525 6.92136 18.1347 644.146 481.433
18.7824 1.84456 20.3444 647.27 463.194
18.8955 -3.26646 20.8421 649.04 443.169
18.7473 -8.37939 21.2834 649.748 423.005
-15.5347 -15.5682 0.101832 515.271 364.665
-12.9905 -16.4748 -1.31765 526.255 360.565
-10.3463 -16.6367 -2.81261 537.46 359.417
-7.77606 -16.4292 -4.24738 548.247 359.78
-5.3047 -15.7571 -5.49985 558.463 362.138
3.11559 -16.1988 -5.55416 593.168 362.951
5.38362 -17.0639 -4.26327 602.456 361.334
7.79798 -17.515 -2.81607 612.199 361.563
10.307 -17.6491 -1.28979 622.228 363.163
12.7903 -17.0649 0.24873 631.951 367.648
-0.596257 -10.9205 -4.91153 576.345 383.533
-0.347389 -7.77653 -7.67955 577.064 393.767
-0.112906 -4.6624 -10.6664 577.776 403.683
0.113695 -1.56923 -13.582 578.448 413.576
-3.74374 0.431427 -6.44489 560.61 426.725
-1.73972 1.04147 -7.2688 568.838 429.068
0.369941 1.25874 -7.97232 577.583 429.975
2.32817 0.772378 -7.2225 585.604 429.301
4.12774 -0.0987998 -6.4028 593.066 427.096
-12.5651 -10.6189 -0.701482 526.265 384.734
-10.7823 -11.5811 -0.904611 533.891 381.252
-8.7318 -11.7208 -1.19431 542.408 381.075
-6.96829 -10.8739 -1.02817 549.381 385.172
-8.8428 -10.5315 -0.92561 541.57 386.05
-10.7481 -10.4148 -0.945067 533.719 385.905
5.01514 -11.5319 -0.998205 598.758 386.305
6.62635 -12.5446 -1.18235 605.69 382.583
8.63682 -12.7039 -0.882124 613.927 382.839
10.4855 -11.9698 -0.633589 621.265 386.582
8.73857 -11.5403 -0.884428 614.025 387.537
6.86699 -11.4414 -0.863854 606.309 387.366
-8.90069 7.52248 -2.6003 536.705 456.966
-6.22166 5.86121 -4.6096 548.57 449.358
-2.92547 5.00031 -6.31903 562.687 445.419
0.520984 4.93048 -8.14568 577.228 444.597
3.88299 4.54725 -6.19133 590.74 445.844
7.20682 4.9364 -4.45271 603.927 449.986
9.98867 6.25672 -2.42891 614.575 457.947
8.05113 9.55972 -3.96778 606.023 469.225
4.98012 11.9346 -5.00756 592.972 476.87
1.09379 12.8241 -6.34439 577.042 478.037
-2.9462 12.4494 -5.14334 560.314 476.336
-6.3764 10.5039 -4.15749 546.565 468.334
-4.01257 6.52 -5.20566 557.58 452.163
0.629307 6.26386 -7.82465 577.241 450.264
5.19638 5.91315 -5.03268 595.522 452.761
5.73845 9.50959 -4.34372 596.618 467.968
0.967543 10.7369 -6.34055 577.097 469.628
-3.98069 10.157 -4.50288 556.567 467.385
3 20 21 23
3 21 22 23
3 0 1 36
3 15 16 45
3 0 17 36
3 16 26 45
3 17 18 37
3 25 26 44
3 17 36 37
3 26 44 45
3 18 19 38
3 24 25 43
3 18 37 38
3 25 43 44
3 19 20 38
3 23 24 43
3 20 21 39
3 22 23 42
3 20 38 39
3 23 42 43
3 21 22 27
3 21 27 39
3 22 27 42
3 27 28 42
3 27 28 39
3 28 42 47
3 28 39 40
3 1 36 41
3 15 45 46
3 1 2 41
3 14 15 46
3 28 29 40
3 28 29 47
3 2 40 41
3 14 46 47
3 2 29 40
3 14 29 47
3 2 3 29
3 13 14 29
3 29 30 31
3 29 30 35
3 3 29 31
3 13 29 35
3 30 32 33
3 30 33 34
3 30 31 32
3 30 34 35
3 3 4 31
3 12 13 35
3 4 5 48
3 11 12 54
3 5 6 48
3 10 11 54
3 6 48 59
3 10 54 55
3 6 7 59
3 9 10 55
3 7 58 59
3 9 55 56
3 8 57 58
3 8 56 57
3 7 8 58
3 8 9 56
3 4 31 48
3 12 35 54
3 31 48 49
3 35 53 54
3 31 49 50
3 35 52 53
3 31 32 50
3 34 35 52
3 32 33 50
3 33 34 52
3 33 50 51
3 33 51 52
3 48 49 60
3 49 60 50
3 50 60 61
3 50 51 61
3 51 52 61
3 61 62 52
3 52 53 62
3 53 54 62
3 54 55 63
3 55 56 63
3 56 63 64
3 56 57 64
3 64 65 57
3 57 58 65
3 58 59 65
3 48 59 65
