ply
format ascii 1.0
element vertex 66
property float x
property float y
property float z
property float u
property float v
element face 91
property list uchar int vertex_indices
end_header
-19.9604 -6.07839 21.3318 487.894 418.567
-19.2816 -0.70216 20.8393 489.537 439.901
-18.4145 4.63757 20.2117 491.997 461.013
-17.2293 9.88388 18.0624 496.152 480.393
-15.272 14.7613 13.4703 504.16 496.186
-12.0964 18.7806 7.89927 517.63 507.947
-8.10848 21.9524 2.9227 534.512 517.099
-3.60336 24.3272 -1.25058 553.528 523.96
1.46675 24.9699 -4.70764 575.116 524.702
6.54682 23.6032 -1.04379 595.536 524.146
10.6972 20.3566 3.16176 612.437 516.284
14.1174 16.3651 8.10272 626.327 505.919
16.7237 11.8068 13.6079 636.86 493.58
18.2028 6.81606 18.0533 643.094 478.174
18.7669 1.73484 20.2486 646.107 460.001
18.8572 -3.36974 20.7453 647.574 439.983
18.6552 -8.48201 21.1022 647.868 419.718
-15.5537 -15.606 0.103533 513.365 361.336
-13.0435 -16.5927 -1.36932 524.306 356.686
-10.3882 -16.7858 -2.8297 535.655 355.278
-7.79419 -16.5499 -4.24179 546.638 355.624
-5.29192 -15.8432 -5.46739 557.086 358.013
2.87796 -16.0714 -5.5921 590.883 359.311
5.07608 -17.0185 -4.27818 599.868 357.382
7.44546 -17.5633 -2.81987 609.429 357.256
9.94825 -17.8344 -1.29314 619.46 358.334
12.4781 -17.3657 0.221116 629.429 362.381
-0.447299 -10.8933 -4.92787 575.776 379.805
-0.237141 -7.84963 -7.6874 576.575 389.472
-0.0441728 -4.83136 -10.6267 577.351 398.862
0.140563 -1.83179 -13.4712 578.076 408.264
-3.4531 0.256604 -6.31875 561.057 422.437
-1.53776 0.828012 -7.19316 569.032 424.448
0.482576 1.03462 -7.96548 577.503 425.121
2.32984 0.590205 -7.10942 585.029 424.677
4.02169 -0.219232 -6.27026 592.004 422.705
-12.118 -10.8095 -0.776682 526.614 380.758
-10.4793 -11.7418 -0.940456 533.635 377.323
-8.5649 -11.8799 -1.15568 541.619 377.11
-6.93532 -11.0248 -0.953033 548.093 381.205
-8.65837 -10.6221 -0.910794 540.877 382.372
-10.4364 -10.5354 -0.939611 533.526 382.184
5.16351 -11.6582 -0.948218 598.168 382.119
6.61619 -12.6224 -1.14126 604.437 378.475
8.4702 -12.7693 -0.894222 612.064 378.649
10.1496 -12.0389 -0.675447 618.77 382.273
8.56712 -11.5585 -0.865936 612.17 383.57
6.84445 -11.4669 -0.84269 605.035 383.469
-8.49443 7.71622 -2.64933 537.616 454.47
-5.92317 5.99933 -4.69718 549.118 446.355
-2.75778 5.02499 -6.37969 562.81 441.742
0.602346 4.9684 -8.13554 577.105 440.804
3.87676 4.61461 -6.1553 590.232 442.201
7.0504 5.15736 -4.45305 602.796 446.909
9.66859 6.58645 -2.43745 612.784 455.318
7.84326 9.78441 -3.98402 604.859 466.179
4.89632 12.0707 -4.98923 592.394 473.57
1.14258 12.9106 -6.40864 577.041 474.523
-2.75377 12.5273 -5.18879 560.765 473.03
-6.06415 10.6391 -4.16226 547.309 465.472
-3.4926 6.70865 -5.19293 559.097 449.429
0.721848 6.47061 -7.65457 577.128 447.333
4.85732 6.2009 -4.93912 593.614 450.014
5.34386 9.48888 -4.311 594.693 463.966
1.03854 10.5984 -6.30579 577.136 465.298
-3.44727 10.0444 -4.532 558.336 463.477
3 20 21 23
3 21 22 23
3 0 1 36
3 15 16 45
3 0 17 36
3 16 26 45
3 17 18 37
3 25 26 44
3 17 36 37
3 26 44 45
3 18 19 38
3 24 25 43
3 18 37 38
3 25 43 44
3 19 20 38
3 23 24 43
3 20 21 39
3 22 23 42
3 20 38 39
3 23 42 43
3 21 22 27
3 21 27 39
3 22 27 42
3 27 28 42
3 27 28 39
3 28 42 47
3 28 39 40
3 1 36 41
3 15 45 46
3 1 2 41
3 14 15 46
3 28 29 40
3 28 29 47
3 2 40 41
3 14 46 47
3 2 29 40
3 14 29 47
3 2 3 29
3 13 14 29
3 29 30 31
3 29 30 35
3 3 29 31
3 13 29 35
3 30 32 33
3 30 33 34
3 30 31 32
3 30 34 35
3 3 4 31
3 12 13 35
3 4 5 48
3 11 12 54
3 5 6 48
3 10 11 54
3 6 48 59
3 10 54 55
3 6 7 59
3 9 10 55
3 7 58 59
3 9 55 56
3 8 57 58
3 8 56 57
3 7 8 58
3 8 9 56
3 4 31 48
3 12 35 54
3 31 48 49
3 35 53 54
3 31 49 50
3 35 52 53
3 31 32 50
3 34 35 52
3 32 33 50
3 33 34 52
3 33 50 51
3 33 51 52
3 48 49 60
3 49 60 50
3 50 60 61
3 50 51 61
3 51 52 61
3 61 62 52
3 52 53 62
3 53 54 62
3 54 55 63
3 55 56 63
3 56 63 64
3 56 57 64
3 64 65 57
3 57 58 65
3 58 59 65
3 48 59 65
