ply
format ascii 1.0
element vertex 66
property float x
property float y
property float z
property float u
property float v
element face 91
property list uchar int vertex_indices
end_header
-20.0528 -5.95637 21.3064 489.73 419.463
-19.3545 -0.64718 20.8108 491.092 440.557
-18.4408 4.61891 20.1908 493.38 461.433
-17.1871 9.79633 18.0139 497.403 480.583
-15.1401 14.6321 13.4776 505.265 496.379
-11.9296 18.6444 7.89699 518.385 508.267
-7.95475 21.8509 2.91212 534.788 517.749
-3.45317 24.2465 -1.24498 553.451 524.942
1.61426 24.8869 -4.62453 574.832 526.021
6.60736 23.4859 -1.05754 595.17 525.504
10.6865 20.2592 3.14822 612.168 517.95
14.0504 16.3025 8.10746 626.288 507.939
16.6548 11.8026 13.6229 637.331 496.016
18.1622 6.8526 18.0792 644.189 480.899
18.7556 1.80532 20.2835 647.745 462.93
18.899 -3.26203 20.7956 649.781 443.111
18.7574 -8.33961 21.1857 650.667 423.036
-15.4291 -15.6721 0.109873 515.917 361.778
-12.9787 -16.4976 -1.32649 526.563 357.928
-10.4441 -16.6133 -2.81181 537.351 356.911
-7.98719 -16.3981 -4.24831 547.706 357.244
-5.61469 -15.7625 -5.49005 557.548 359.423
3.36704 -16.198 -5.55748 594.765 360.678
5.49778 -17.0362 -4.26155 603.562 359.276
7.76988 -17.5108 -2.79799 612.799 359.543
10.154 -17.7452 -1.26567 622.411 360.879
12.5572 -17.3046 0.259868 631.898 364.927
-0.548804 -10.8063 -4.91246 576.834 381.616
-0.332218 -7.73293 -7.69463 577.336 391.381
-0.129901 -4.68583 -10.6677 577.823 400.853
0.065796 -1.65946 -13.5397 578.271 410.336
-3.65236 0.431454 -6.39577 560.891 424.285
-1.68624 1.01708 -7.25411 568.995 426.49
0.382425 1.23784 -7.98937 577.61 427.382
2.29312 0.759081 -7.19685 585.487 426.868
4.05068 -0.0814727 -6.37328 592.836 424.878
-12.535 -10.7704 -0.740485 526.536 381.647
-10.8058 -11.8182 -0.914426 534.026 377.862
-8.7482 -11.9658 -1.16698 542.613 377.731
-7.02047 -11.011 -0.972751 549.415 382.343
-8.85065 -10.5605 -0.914944 541.713 383.582
-10.7512 -10.4534 -0.937627 533.84 383.342
5.1363 -11.6968 -0.959289 599.798 383.755
6.68104 -12.799 -1.1574 606.548 379.666
8.68907 -12.9625 -0.868764 614.83 379.971
10.4911 -12.1377 -0.630295 621.969 384.128
8.80561 -11.5919 -0.853033 614.89 385.532
6.94765 -11.4889 -0.840727 607.188 385.322
-8.4317 7.69067 -2.60901 538.213 455.429
-5.88065 6.04807 -4.65887 549.643 447.745
-2.73576 5.1568 -6.37881 563.231 443.598
0.574277 5.12135 -8.18657 577.257 442.861
3.79796 4.71949 -6.20383 590.298 444.241
6.9668 5.14955 -4.4616 602.905 448.714
9.59937 6.47299 -2.41629 612.968 456.883
7.74831 9.58793 -3.96503 604.682 467.286
4.82382 11.8216 -4.99123 592.131 474.28
1.12996 12.6754 -6.35871 576.892 475.142
-2.70915 12.3118 -5.15548 560.922 473.519
-5.99417 10.5031 -4.14858 547.717 466.091
-3.63238 6.66711 -5.19283 558.838 450.491
0.693007 6.45331 -7.73142 577.252 448.687
4.9425 6.10281 -4.99336 594.364 451.345
5.43731 9.42406 -4.31798 595.262 465.501
1.01245 10.5972 -6.26302 577.021 466.845
-3.58611 10.0329 -4.50125 557.869 464.688
3 20 21 23
3 21 22 23
3 0 1 36
3 15 16 45
3 0 17 36
3 16 26 45
3 17 18 37
3 25 26 44
3 17 36 37
3 26 44 45
3 18 19 38
3 24 25 43
3 18 37 38
3 25 43 44
3 19 20 38
3 23 24 43
3 20 21 39
3 22 23 42
3 20 38 39
3 23 42 43
3 21 22 27
3 21 27 39
3 22 27 42
3 27 28 42
3 27 28 39
3 28 42 47
3 28 39 40
3 1 36 41
3 15 45 46
3 1 2 41
3 14 15 46
3 28 29 40
3 28 29 47
3 2 40 41
3 14 46 47
3 2 29 40
3 14 29 47
3 2 3 29
3 13 14 29
3 29 30 31
3 29 30 35
3 3 29 31
3 13 29 35
3 30 32 33
3 30 33 34
3 30 31 32
3 30 34 35
3 3 4 31
3 12 13 35
3 4 5 48
3 11 12 54
3 5 6 48
3 10 11 54
3 6 48 59
3 10 54 55
3 6 7 59
3 9 10 55
3 7 58 59
3 9 55 56
3 8 57 58
3 8 56 57
3 7 8 58
3 8 9 56
3 4 31 48
3 12 35 54
3 31 48 49
3 35 53 54
3 31 49 50
3 35 52 53
3 31 32 50
3 34 35 52
3 32 33 50
3 33 34 52
3 33 50 51
3 33 51 52
3 48 49 60
3 49 60 50
3 50 60 61
3 50 51 61
3 51 52 61
3 61 62 52
3 52 53 62
3 53 54 62
3 54 55 63
3 55 56 63
3 56 63 64
3 56 57 64
3 64 65 57
3 57 58 65
3 58 59 65
3 48 59 65
