ply
format ascii 1.0
element vertex 66
property float x
property float y
property float z
property float u
property float v
element face 91
property list uchar int vertex_indices
end_header
-20.0552 -6.20736 21.3469 486.977 418.946
-19.3595 -0.791779 20.8671 488.727 440.346
-18.4539 4.58056 20.2163 491.388 461.45
-17.2248 9.85409 18.0632 495.707 480.675
-15.209 14.7496 13.495 503.84 496.074
-11.9772 18.7928 7.91586 517.4 507.325
-7.95942 22.0282 2.94633 534.279 516.185
-3.40344 24.4351 -1.25086 553.423 522.675
1.73765 25.0304 -4.6788 575.25 522.861
6.76455 23.6323 -1.07969 595.679 522.364
10.8542 20.3753 3.15676 612.524 514.828
14.198 16.3765 8.11254 626.307 504.868
16.7494 11.8467 13.6398 636.816 493.164
18.1807 6.8848 18.0778 642.998 478.289
18.7197 1.82193 20.2563 645.95 460.409
18.8248 -3.26751 20.7739 647.435 440.572
18.6492 -8.36473 21.1717 647.784 420.502
-15.4964 -15.669 0.0901099 512.156 360.031
-12.9546 -16.5674 -1.36402 523.17 355.592
-10.3183 -16.7133 -2.8451 534.41 354.168
-7.76151 -16.487 -4.26149 545.224 354.282
-5.29671 -15.8043 -5.48836 555.517 356.4
3.03266 -16.1059 -5.5603 590.093 357.351
5.19605 -16.9906 -4.26302 598.999 355.739
7.5161 -17.4934 -2.8135 608.437 355.86
9.96604 -17.7682 -1.28571 618.346 357.012
12.466 -17.3483 0.238746 628.305 360.959
-0.496134 -10.8553 -4.92027 574.166 378.125
-0.288244 -7.83158 -7.68916 574.885 387.412
-0.0947061 -4.83615 -10.6519 575.588 396.38
0.0927894 -1.86076 -13.5316 576.255 405.352
-3.5875 0.414848 -6.40912 559.105 420.928
-1.63638 0.965687 -7.23301 567.222 422.8
0.411536 1.15893 -7.96549 575.802 423.359
2.29925 0.719425 -7.16064 583.562 422.944
4.04229 -0.0750888 -6.33466 590.798 421.089
-12.2405 -10.8113 -0.748268 524.704 379.506
-10.4979 -11.708 -0.94857 532.163 376.17
-8.51892 -11.8442 -1.187 540.435 375.905
-6.80236 -11.026 -0.978063 547.318 379.865
-8.62713 -10.7132 -0.894338 539.674 380.717
-10.4775 -10.6166 -0.927906 531.996 380.573
4.98454 -11.6461 -0.985535 596.272 380.535
6.53995 -12.5888 -1.15463 602.96 376.996
8.46416 -12.7415 -0.886325 610.911 377.181
10.243 -12.0517 -0.633606 618.072 380.688
8.55839 -11.6452 -0.851703 611.046 381.638
6.75788 -11.5508 -0.839998 603.566 381.545
-8.76235 7.59395 -2.59164 535.304 452.311
-6.08554 5.9555 -4.66814 547.166 444.291
-2.84105 5.0834 -6.3779 561.134 439.88
0.549044 5.04176 -8.12291 575.524 438.8
3.84688 4.65392 -6.18623 588.89 440.153
7.098 5.07166 -4.45955 601.921 444.504
9.83691 6.39955 -2.42402 612.565 452.69
7.94677 9.63568 -3.95735 604.305 463.556
4.92138 11.9245 -4.97641 591.458 470.857
1.12005 12.7657 -6.34616 575.793 471.778
-2.84446 12.4128 -5.14531 559.22 470.554
-6.2468 10.5354 -4.14871 545.36 463.154
-3.88631 6.74523 -5.20931 556.201 447.483
0.677439 6.51714 -7.71408 575.642 445.177
5.16026 6.16657 -4.98129 593.751 447.829
5.66595 9.3566 -4.33009 594.996 461.436
0.993502 10.4756 -6.37369 575.793 462.534
-3.85644 9.97914 -4.53281 555.46 461.164
3 20 21 23
3 21 22 23
3 0 1 36
3 15 16 45
3 0 17 36
3 16 26 45
3 17 18 37
3 25 26 44
3 17 36 37
3 26 44 45
3 18 19 38
3 24 25 43
3 18 37 38
3 25 43 44
3 19 20 38
3 23 24 43
3 20 21 39
3 22 23 42
3 20 38 39
3 23 42 43
3 21 22 27
3 21 27 39
3 22 27 42
3 27 28 42
3 27 28 39
3 28 42 47
3 28 39 40
3 1 36 41
3 15 45 46
3 1 2 41
3 14 15 46
3 28 29 40
3 28 29 47
3 2 40 41
3 14 46 47
3 2 29 40
3 14 29 47
3 2 3 29
3 13 14 29
3 29 30 31
3 29 30 35
3 3 29 31
3 13 29 35
3 30 32 33
3 30 33 34
3 30 31 32
3 30 34 35
3 3 4 31
3 12 13 35
3 4 5 48
3 11 12 54
3 5 6 48
3 10 11 54
3 6 48 59
3 10 54 55
3 6 7 59
3 9 10 55
3 7 58 59
3 9 55 56
3 8 57 58
3 8 56 57
3 7 8 58
3 8 9 56
3 4 31 48
3 12 35 54
3 31 48 49
3 35 53 54
3 31 49 50
3 35 52 53
3 31 32 50
3 34 35 52
3 32 33 50
3 33 34 52
3 33 50 51
3 33 51 52
3 48 49 60
3 49 60 50
3 50 60 61
3 50 51 61
3 51 52 61
3 61 62 52
3 52 53 62
3 53 54 62
3 54 55 63
3 55 56 63
3 56 63 64
3 56 57 64
3 64 65 57
3 57 58 65
3 58 59 65
3 48 59 65
