ply
format ascii 1.0
element vertex 66
property float x
property float y
property float z
property float u
property float v
element face 91
property list uchar int vertex_indices
end_header
-20.1037 -6.17268 21.037 486.072 424.213
-19.4595 -0.819192 20.5992 487.486 445.199
-18.5058 4.47879 20.0862 490.177 465.99
-17.0757 9.66758 18.1883 495.116 485.348
-14.9532 14.5126 13.4129 503.551 501.182
-11.864 18.6875 7.83584 516.22 513.978
-7.97194 22.1003 3.11089 532.126 524.683
-3.45834 24.6199 -1.03458 550.628 532.505
1.68189 25.3007 -4.6889 571.992 533.633
6.76117 23.8962 -0.847179 591.989 532.64
10.8517 20.626 3.30741 608.377 524.252
14.1138 16.5284 8.00381 621.503 512.806
16.5395 11.897 13.5237 631.204 499.692
18.0487 6.90834 18.2151 637.472 484.232
18.7795 1.79106 20.1149 641.234 465.76
18.9512 -3.34613 20.5376 643.063 445.843
18.754 -8.48887 20.9077 643.418 425.759
-15.66 -15.7747 0.0859186 510.82 370.324
-13.3874 -17.2263 -1.45773 520.669 363.953
-10.6839 -17.7193 -2.85014 531.994 361.615
-7.94148 -17.5127 -4.26516 543.314 362.036
-5.29874 -16.7173 -5.51958 554.057 364.888
2.85581 -17.0563 -5.49741 587.031 365.834
5.2416 -18.1038 -4.19955 596.626 363.42
7.80667 -18.6193 -2.77344 606.789 363.264
10.4261 -18.5203 -1.35268 617.027 365.548
12.7663 -17.4539 0.26023 625.864 371.736
-0.611814 -11.6376 -4.90348 571.617 386.78
-0.404837 -8.77336 -7.63731 572.358 395.922
-0.206351 -5.91877 -10.4192 573.077 404.984
-0.011039 -3.08331 -13.1147 573.769 414.041
-2.93266 -0.0113346 -6.04577 559.721 431.164
-1.34871 0.395851 -7.00948 566.222 432.425
0.325444 0.512287 -7.92052 573.145 432.605
1.89343 0.191183 -6.88217 579.323 432.622
3.30716 -0.418024 -5.94261 584.969 431.376
-11.8385 -10.6159 -1.17825 525.277 390.748
-10.3399 -11.5047 -1.07448 531.513 387.735
-8.51858 -11.7848 -0.934159 538.897 387.25
-6.87807 -11.298 -0.774782 545.365 389.761
-8.44925 -10.5755 -0.992551 538.9 392.002
-10.1871 -10.3677 -1.02193 531.846 392.316
4.98019 -11.9462 -0.690109 593.341 390.566
6.51283 -12.579 -0.859758 599.712 388.352
8.31761 -12.567 -0.985726 607.018 388.798
9.87639 -11.8679 -1.04851 613.152 391.944
8.2992 -11.4138 -0.904053 606.65 393.419
6.58373 -11.4295 -0.873915 599.726 392.905
-4.9615 9.28194 -2.78525 548.61 470.012
-3.55965 7.53006 -4.88015 555.137 461.76
-1.68191 6.13056 -6.51477 563.4 455.41
0.618498 6.19739 -8.17114 573.022 454.958
2.86447 5.84751 -6.31559 581.766 455.719
4.85409 6.97869 -4.68564 589.17 462.08
6.37577 8.57827 -2.61767 594.48 470.522
5.17235 10.3733 -4.00975 589.496 476.143
3.36701 11.6238 -5.19375 582.17 479.615
1.04914 12.1667 -6.66885 573.007 479.908
-1.3518 11.9011 -5.37347 563.105 479.251
-3.37603 10.8863 -4.18724 554.925 475.648
-1.1302 8.12711 -5.01771 564.825 464.684
0.756799 7.90856 -7.1714 572.955 462.58
2.6203 7.91806 -4.79568 579.957 465.082
2.7222 8.99284 -4.36713 580.019 469.711
0.898356 9.55986 -6.216 572.925 469.931
-1.01648 9.20791 -4.5556 564.925 469.367
3 20 21 23
3 21 22 23
3 0 1 36
3 15 16 45
3 0 17 36
3 16 26 45
3 17 18 37
3 25 26 44
3 17 36 37
3 26 44 45
3 18 19 38
3 24 25 43
3 18 37 38
3 25 43 44
3 19 20 38
3 23 24 43
3 20 21 39
3 22 23 42
3 20 38 39
3 23 42 43
3 21 22 27
3 21 27 39
3 22 27 42
3 27 28 42
3 27 28 39
3 28 42 47
3 28 39 40
3 1 36 41
3 15 45 46
3 1 2 41
3 14 15 46
3 28 29 40
3 28 29 47
3 2 40 41
3 14 46 47
3 2 29 40
3 14 29 47
3 2 3 29
3 13 14 29
3 29 30 31
3 29 30 35
3 3 29 31
3 13 29 35
3 30 32 33
3 30 33 34
3 30 31 32
3 30 34 35
3 3 4 31
3 12 13 35
3 4 5 48
3 11 12 54
3 5 6 48
3 10 11 54
3 6 48 59
3 10 54 55
3 6 7 59
3 9 10 55
3 7 58 59
3 9 55 56
3 8 57 58
3 8 56 57
3 7 8 58
3 8 9 56
3 4 31 48
3 12 35 54
3 31 48 49
3 35 53 54
3 31 49 50
3 35 52 53
3 31 32 50
3 34 35 52
3 32 33 50
3 33 34 52
3 33 50 51
3 33 51 52
3 48 49 60
3 49 60 50
3 50 60 61
3 50 51 61
3 51 52 61
3 61 62 52
3 52 53 62
3 53 54 62
3 54 55 63
3 55 56 63
3 56 63 64
3 56 57 64
3 64 65 57
3 57 58 65
3 58 59 65
3 48 59 65
