ply
format ascii 1.0
element vertex 66
property float x
property float y
property float z
property float u
property float v
element face 91
property list uchar int vertex_indices
end_header
-20.6068 -6.02755 21.3048 486.332 424.4
-19.9084 -0.705027 20.8184 487.97 444.708
-18.9588 4.57227 20.3011 490.618 464.884
-17.6236 9.76409 18.2486 495.174 483.511
-15.557 14.6028 13.4391 503.358 498.597
-12.3332 18.601 7.82651 516.498 510.068
-8.2592 21.6869 3.14883 532.986 519.065
-3.66135 23.8854 -1.07727 551.64 525.175
1.4109 24.4669 -4.7055 572.402 525.696
6.52043 23.2043 -0.877965 591.963 525.56
10.799 20.1805 3.36377 608.553 518.756
14.3395 16.3158 7.99195 622.331 508.836
17.028 11.8172 13.5243 632.676 497.014
18.6292 6.86901 18.2179 639.031 482.43
19.3449 1.8218 20.3016 642.534 464.96
19.5308 -3.23237 20.711 644.344 445.867
19.369 -8.295 21.0713 644.795 426.603
-16.334 -15.5015 0.116958 510.453 370.723
-13.9062 -16.9838 -1.44025 520.756 364.335
-11.0492 -17.4748 -2.85117 532.49 362.018
-8.15757 -17.2601 -4.2383 544.191 362.454
-5.35949 -16.4536 -5.44138 555.341 365.305
2.85983 -16.7162 -5.48489 587.873 366.548
5.34132 -17.7931 -4.21017 597.62 364.188
8.00829 -18.3473 -2.79778 607.946 364.015
10.749 -18.3356 -1.33518 618.419 366.089
13.2535 -17.3442 0.288043 627.694 372.016
-0.479978 -11.1855 -4.90201 573.26 387.457
-0.266336 -8.18008 -7.68333 574.068 396.706
-0.0659843 -5.1905 -10.5772 574.854 405.793
0.127931 -2.21979 -13.353 575.591 414.908
-3.0804 0.442928 -6.148 560.586 430.515
-1.34079 0.92199 -7.14201 567.582 431.989
0.494927 1.07199 -8.06654 575.018 432.28
2.17995 0.705509 -7.01832 581.508 432.243
3.70414 0.00731295 -6.08401 587.467 430.782
-12.2406 -10.434 -1.02692 525.715 390.425
-10.6684 -11.4109 -1.0535 532.158 387.072
-8.75988 -11.6584 -1.01465 539.743 386.684
-7.04997 -10.9893 -0.836932 546.299 389.896
-8.7175 -10.3598 -0.973026 539.599 391.741
-10.5156 -10.1882 -1.00306 532.465 391.876
5.15963 -11.6215 -0.7541 594.647 390.934
6.71657 -12.428 -0.968904 601.034 388.072
8.58728 -12.4792 -0.987068 608.439 388.38
10.2208 -11.705 -0.902101 614.69 391.896
8.58936 -11.232 -0.888618 608.134 393.278
6.82977 -11.2137 -0.843942 601.169 392.896
-6.24337 8.79365 -2.82329 545.363 464.723
-4.20338 7.3272 -4.90133 554.256 457.838
-1.85646 6.25595 -6.54349 564.164 452.94
0.719342 6.38896 -8.17963 574.696 452.757
3.20955 5.95081 -6.31022 584.187 453.378
5.58944 6.69605 -4.67 593.023 458.335
7.6516 7.94583 -2.6135 600.387 465.51
5.94969 9.69502 -3.9635 593.581 470.616
3.64418 10.7611 -5.07087 584.492 473.128
1.03803 11.1978 -6.52038 574.443 472.832
-1.63718 11.0509 -5.27504 563.615 472.596
-4.13701 10.2842 -4.13481 553.648 469.927
-1.65082 8.06175 -5.25124 564.249 461.081
0.850041 8.00821 -7.33412 574.635 459.772
3.27983 7.79226 -4.98788 583.723 461.645
3.38016 8.36839 -4.43412 583.853 464.374
0.929633 8.79417 -6.32552 574.526 463.698
-1.60202 8.65613 -4.64796 564.16 463.91
3 20 21 23
3 21 22 23
3 0 1 36
3 15 16 45
3 0 17 36
3 16 26 45
3 17 18 37
3 25 26 44
3 17 36 37
3 26 44 45
3 18 19 38
3 24 25 43
3 18 37 38
3 25 43 44
3 19 20 38
3 23 24 43
3 20 21 39
3 22 23 42
3 20 38 39
3 23 42 43
3 21 22 27
3 21 27 39
3 22 27 42
3 27 28 42
3 27 28 39
3 28 42 47
3 28 39 40
3 1 36 41
3 15 45 46
3 1 2 41
3 14 15 46
3 28 29 40
3 28 29 47
3 2 40 41
3 14 46 47
3 2 29 40
3 14 29 47
3 2 3 29
3 13 14 29
3 29 30 31
3 29 30 35
3 3 29 31
3 13 29 35
3 30 32 33
3 30 33 34
3 30 31 32
3 30 34 35
3 3 4 31
3 12 13 35
3 4 5 48
3 11 12 54
3 5 6 48
3 10 11 54
3 6 48 59
3 10 54 55
3 6 7 59
3 9 10 55
3 7 58 59
3 9 55 56
3 8 57 58
3 8 56 57
3 7 8 58
3 8 9 56
3 4 31 48
3 12 35 54
3 31 48 49
3 35 53 54
3 31 49 50
3 35 52 53
3 31 32 50
3 34 35 52
3 32 33 50
3 33 34 52
3 33 50 51
3 33 51 52
3 48 49 60
3 49 60 50
3 50 60 61
3 50 51 61
3 51 52 61
3 61 62 52
3 52 53 62
3 53 54 62
3 54 55 63
3 55 56 63
3 56 63 64
3 56 57 64
3 64 65 57
3 57 58 65
3 58 59 65
3 48 59 65
