ply
format ascii 1.0
element vertex 66
property float x
property float y
property float z
property float u
property float v
element face 91
property list uchar int vertex_indices
end_header
-20.0823 -6.21542 21.1965 489.39 422.317
-19.4943 -0.876513 20.7929 490.617 443.158
-18.66 4.41392 20.1958 492.893 463.687
-17.3988 9.63449 18.044 497.225 482.552
-15.3626 14.5892 13.4741 505.242 498.238
-12.174 18.7636 7.87688 518.324 510.164
-8.13196 22.0372 3.00917 534.937 519.473
-3.5442 24.4583 -1.11822 553.82 526.284
1.60274 25.1541 -4.76286 575.279 526.905
6.71719 23.8037 -0.944148 595.614 526.669
10.9694 20.6653 3.21194 612.796 519.466
14.457 16.6824 8.07095 626.93 509.403
16.9861 11.9908 13.6486 637.195 496.977
18.3563 6.81806 18.1519 643.077 481.295
18.8991 1.58307 20.3149 646.073 462.877
18.9533 -3.64497 20.8286 647.407 442.755
18.7023 -8.87815 21.1605 647.539 422.354
-15.4749 -15.3625 0.0678442 514.388 367.017
-13.0583 -16.6786 -1.44818 524.807 361.014
-10.3205 -17.1265 -2.87584 536.311 358.611
-7.55781 -16.9689 -4.25269 547.766 358.654
-4.8919 -16.2312 -5.49075 558.666 361.094
2.34094 -16.4651 -5.56693 588.111 362.07
4.82865 -17.5033 -4.26561 598.2 359.911
7.49549 -17.9957 -2.85955 608.869 360.057
10.218 -17.9322 -1.39063 619.623 362.472
12.7455 -16.9864 0.177231 629.36 368.413
-0.614812 -11.2467 -4.98175 574.778 382.426
-0.394124 -8.43925 -7.62926 575.543 391.003
-0.185124 -5.65285 -10.466 576.302 399.31
0.0195666 -2.89367 -13.326 577.055 407.487
-3.26056 -0.146915 -6.21252 561.694 424.32
-1.50378 0.271984 -7.06042 568.899 425.631
0.324383 0.400201 -7.8922 576.458 425.831
2.04123 0.0370692 -6.99249 583.338 425.737
3.64088 -0.614225 -6.16337 589.823 424.406
-11.8104 -10.1562 -0.979198 528.266 387.55
-10.1595 -10.9612 -1.0907 535.18 384.716
-8.27827 -11.1569 -1.16559 542.881 384.384
-6.55684 -10.6755 -0.914758 549.712 386.997
-8.2812 -10.2289 -0.961532 542.614 388.244
-10.0704 -10.0462 -1.00273 535.313 388.437
4.81323 -11.2992 -0.880239 596.029 387.671
6.43598 -11.9445 -1.14165 602.821 385.313
8.29045 -12.0067 -1.04913 610.349 385.663
9.99048 -11.421 -0.897394 617.088 388.585
8.30204 -11.1 -0.934864 610.163 389.356
6.53456 -11.0794 -0.892 602.971 388.996
-7.61313 8.38173 -2.68105 541.339 460.212
-5.53701 6.30312 -4.7185 550.655 450.602
-2.72217 4.89915 -6.35458 562.736 444.244
0.530216 4.77878 -8.00364 576.298 443.06
3.73392 4.48691 -6.19261 589.021 444.536
6.65972 5.50351 -4.53518 600.341 450.951
8.90993 7.31966 -2.51008 608.66 460.693
7.12231 9.98652 -3.97522 601.068 469.312
4.45732 11.9092 -5.0914 590.017 475.093
1.06845 12.6662 -6.52787 576.36 475.765
-2.42961 12.3377 -5.24222 561.976 474.759
-5.37189 10.7758 -4.12563 550.169 468.873
-3.31282 6.78399 -5.05697 559.643 452.779
0.644639 6.37878 -7.46031 576.284 449.932
4.57291 6.2822 -4.88531 591.754 453.116
4.94253 9.42913 -4.35397 592.419 466.151
0.947473 10.4561 -6.39319 576.356 467.14
-3.19617 9.95318 -4.50481 559.272 465.853
3 20 21 23
3 21 22 23
3 0 1 36
3 15 16 45
3 0 17 36
3 16 26 45
3 17 18 37
3 25 26 44
3 17 36 37
3 26 44 45
3 18 19 38
3 24 25 43
3 18 37 38
3 25 43 44
3 19 20 38
3 23 24 43
3 20 21 39
3 22 23 42
3 20 38 39
3 23 42 43
3 21 22 27
3 21 27 39
3 22 27 42
3 27 28 42
3 27 28 39
3 28 42 47
3 28 39 40
3 1 36 41
3 15 45 46
3 1 2 41
3 14 15 46
3 28 29 40
3 28 29 47
3 2 40 41
3 14 46 47
3 2 29 40
3 14 29 47
3 2 3 29
3 13 14 29
3 29 30 31
3 29 30 35
3 3 29 31
3 13 29 35
3 30 32 33
3 30 33 34
3 30 31 32
3 30 34 35
3 3 4 31
3 12 13 35
3 4 5 48
3 11 12 54
3 5 6 48
3 10 11 54
3 6 48 59
3 10 54 55
3 6 7 59
3 9 10 55
3 7 58 59
3 9 55 56
3 8 57 58
3 8 56 57
3 7 8 58
3 8 9 56
3 4 31 48
3 12 35 54
3 31 48 49
3 35 53 54
3 31 49 50
3 35 52 53
3 31 32 50
3 34 35 52
3 32 33 50
3 33 34 52
3 33 50 51
3 33 51 52
3 48 49 60
3 49 60 50
3 50 60 61
3 50 51 61
3 51 52 61
3 61 62 52
3 52 53 62
3 53 54 62
3 54 55 63
3 55 56 63
3 56 63 64
3 56 57 64
3 64 65 57
3 57 58 65
3 58 59 65
3 48 59 65
