ply
format ascii 1.0
element vertex 66
property float x
property float y
property float z
property float u
property float v
element face 91
property list uchar int vertex_indices
end_header
-20.0289 -5.84302 20.6946 481.963 450.054
-19.7467 -0.799102 20.2098 480.472 470.072
-18.9994 4.21387 20.0851 480.883 490.178
-17.6633 8.9847 18.1661 483.443 509.743
-15.444 13.3786 13.5522 489.231 528.44
-12.1707 17.3044 8.05378 499.256 545.883
-7.95321 20.4708 3.35983 513.501 560.762
-2.95094 22.5361 -0.646592 531.494 571.659
2.60968 22.5897 -4.1644 552.766 574.891
7.35983 21.6757 -1.03701 572.403 573.485
11.413 19.388 3.25975 590.173 566.249
14.8977 16.4323 8.12458 606.134 556.063
17.3091 12.6882 13.8397 618.405 542.181
18.4258 8.09693 18.749 625.88 524.366
18.8853 2.86497 20.9129 630.651 503.875
19.0833 -2.63049 21.358 634.249 482.326
19.0833 -8.1071 21.926 637.079 460.743
-15.5731 -14.4064 0.0924564 500.459 419.919
-13.6838 -16.1338 -1.60028 508.48 414.181
-11.2916 -17.0237 -3.06639 518.095 411.977
-8.76954 -17.3336 -4.45222 527.944 412.114
-6.30775 -17.1303 -5.78925 537.308 414.238
2.92527 -18.1428 -5.22402 574.208 414.863
5.92826 -19.1465 -3.95823 586.721 412.344
9.07653 -19.4767 -2.57307 599.487 412.54
12.1882 -18.7828 -1.21134 611.594 416.749
14.7358 -16.8794 0.374802 620.914 425.417
-1.9723 -12.1062 -5.16416 551.942 436.145
-1.78967 -9.09787 -7.71268 550.747 448.236
-1.56333 -6.13006 -10.4929 549.706 460.203
-1.28535 -3.17758 -13.2482 548.88 472.135
-4.35625 1.05846 -6.33639 535.797 486.815
-2.76136 1.37785 -7.20196 541.769 488.929
-1.09184 1.34612 -8.01514 548.219 489.696
0.924832 0.978635 -7.28157 556.45 489.218
2.81112 0.28723 -6.44241 564.347 487.393
-11.9185 -9.76379 -1.19578 512.3 440.105
-10.1968 -11.0941 -1.1856 519.736 435.736
-7.9787 -11.2395 -1.12423 528.54 436.276
-6.0738 -10.3945 -0.887141 535.646 440.544
-7.94514 -9.66928 -1.14915 527.883 442.472
-9.98895 -9.34495 -1.23168 519.671 442.726
4.99042 -11.7841 -0.852841 579.85 440.64
6.84589 -13.1002 -0.926403 587.792 436.4
9.16804 -13.1844 -0.742047 596.994 437.225
11.2371 -12.2493 -0.550578 604.693 441.933
9.29068 -11.5158 -0.814865 596.63 443.857
7.10753 -11.3802 -0.942982 587.958 443.3
-5.5085 9.96848 -2.70432 527.393 521.059
-3.93085 8.1812 -4.8324 534.148 514.956
-1.97914 6.79004 -6.56676 542.24 510.575
0.3125 6.68855 -8.23233 551.034 511.435
2.70937 6.19643 -6.62663 560.962 510.602
5.13424 7.05805 -4.90449 570.342 515.102
7.48837 8.21353 -2.84731 579.35 520.701
5.72887 9.9107 -4.13913 571.376 526.575
3.55686 11.0891 -5.47486 562.032 530.204
1.05023 11.6375 -6.55951 551.728 531.17
-1.444 11.8487 -5.33926 542.011 530.668
-3.75054 11.3015 -4.05545 533.421 527.273
-1.89715 8.92786 -4.90474 541.76 518.921
0.520873 8.41513 -7.29014 551.141 518.273
3.15094 8.16301 -5.44106 561.905 518.486
3.17828 8.61457 -4.81629 561.887 520.236
0.582184 9.05423 -6.40398 551.204 520.761
-1.88966 9.33656 -4.39832 541.666 520.501
3 20 21 23
3 21 22 23
3 0 1 36
3 15 16 45
3 0 17 36
3 16 26 45
3 17 18 37
3 25 26 44
3 17 36 37
3 26 44 45
3 18 19 38
3 24 25 43
3 18 37 38
3 25 43 44
3 19 20 38
3 23 24 43
3 20 21 39
3 22 23 42
3 20 38 39
3 23 42 43
3 21 22 27
3 21 27 39
3 22 27 42
3 27 28 42
3 27 28 39
3 28 42 47
3 28 39 40
3 1 36 41
3 15 45 46
3 1 2 41
3 14 15 46
3 28 29 40
3 28 29 47
3 2 40 41
3 14 46 47
3 2 29 40
3 14 29 47
3 2 3 29
3 13 14 29
3 29 30 31
3 29 30 35
3 3 29 31
3 13 29 35
3 30 32 33
3 30 33 34
3 30 31 32
3 30 34 35
3 3 4 31
3 12 13 35
3 4 5 48
3 11 12 54
3 5 6 48
3 10 11 54
3 6 48 59
3 10 54 55
3 6 7 59
3 9 10 55
3 7 58 59
3 9 55 56
3 8 57 58
3 8 56 57
3 7 8 58
3 8 9 56
3 4 31 48
3 12 35 54
3 31 48 49
3 35 53 54
3 31 49 50
3 35 52 53
3 31 32 50
3 34 35 52
3 32 33 50
3 33 34 52
3 33 50 51
3 33 51 52
3 48 49 60
3 49 60 50
3 50 60 61
3 50 51 61
3 51 52 61
3 61 62 52
3 52 53 62
3 53 54 62
3 54 55 63
3 55 56 63
3 56 63 64
3 56 57 64
3 64 65 57
3 57 58 65
3 58 59 65
3 48 59 65
