ply
format ascii 1.0
element vertex 66
property float x
property float y
property float z
property float u
property float v
element face 91
property list uchar int vertex_indices
end_header
-19.5667 -6.19134 20.6864 482.414 450.749
-19.3449 -0.966666 20.2482 481.331 471.687
-18.6809 4.23028 20.0964 482.048 492.646
-17.4794 9.14132 18.1867 484.847 512.87
-15.5195 13.6102 13.555 490.579 531.933
-12.4167 17.5426 8.07773 500.982 549.383
-8.20285 20.5745 3.33969 516.21 563.573
-3.20024 22.5013 -0.641715 535.058 573.566
2.34495 22.4783 -4.21202 556.822 575.949
7.19308 21.6133 -0.937774 576.753 573.921
11.2618 19.2726 3.34144 594.216 565.611
14.7397 16.2925 8.186 609.614 554.469
17.0939 12.5406 13.7921 620.891 539.748
18.2128 8.03537 18.624 627.454 521.659
18.6898 2.89428 20.8052 631.45 501.11
18.8377 -2.55484 21.2012 634.083 479.42
18.7552 -7.98692 21.607 635.793 457.711
-15.4648 -14.7901 0.0241397 500.01 420.442
-13.5442 -16.5367 -1.61502 508.151 414.391
-11.131 -17.3895 -3.0481 517.945 412.058
-8.61039 -17.6416 -4.45422 527.947 412.153
-6.15848 -17.3787 -5.83379 537.488 414.271
2.52113 -18.0839 -5.34551 572.363 414.626
5.47859 -19.0949 -4.01569 584.638 411.543
8.60177 -19.4464 -2.60861 597.337 411.138
11.7137 -18.7919 -1.26859 609.614 414.742
14.2736 -16.8754 0.279608 619.247 423.143
-1.9002 -12.4265 -5.23358 552.68 435.501
-1.77758 -9.57773 -7.67096 551.893 447.175
-1.61739 -6.77189 -10.3568 551.249 458.72
-1.40051 -3.98119 -13.0709 550.834 470.23
-3.65248 0.521857 -6.02836 540.856 486.504
-2.36846 0.599522 -7.03483 545.849 487.407
-1.0521 0.468544 -8.00618 551.05 487.488
0.594484 0.268555 -7.06767 557.769 487.193
2.16104 -0.132744 -6.16702 564.24 486.071
-11.8162 -10.1814 -1.31914 512.72 440.305
-10.1667 -11.6088 -1.15746 519.83 435.214
-7.94277 -11.7492 -0.96909 528.757 435.458
-6.12526 -10.7301 -0.742313 535.642 440.164
-7.92867 -9.85063 -1.17047 528.095 443.047
-9.96223 -9.54875 -1.24174 519.878 443.503
4.94102 -11.983 -0.780093 580.176 439.285
6.66098 -13.3749 -0.838683 587.534 434.388
8.949 -13.4544 -0.733661 596.686 434.908
10.9161 -12.3904 -0.630359 604.138 439.863
9.09739 -11.4853 -0.817282 596.543 442.814
6.95869 -11.3851 -0.969205 587.974 442.437
-4.1209 11.0945 -2.89777 535.385 528.066
-3.05189 8.93249 -5.01179 540.244 520.1
-1.57814 6.98869 -6.69415 546.674 513.103
0.465866 6.79736 -8.31691 554.736 513.289
2.63823 6.44313 -6.59622 563.678 512.483
4.6541 7.90082 -4.95733 571.321 518.845
6.51554 9.52206 -2.97246 578.321 525.76
5.09113 10.8018 -4.2184 572.061 530.473
3.35922 11.7146 -5.50738 564.708 533.615
1.28485 12.1611 -6.66204 556.174 534.758
-0.777692 12.398 -5.49461 547.98 534.8
-2.65915 12.0655 -4.20205 540.729 532.627
-0.930802 9.43977 -4.83171 548.522 522.886
0.72321 8.73061 -7.05106 555.166 520.935
2.64005 8.79749 -5.25366 562.942 521.702
2.55835 9.04697 -4.74059 562.572 522.606
0.814368 9.30149 -6.22476 555.395 523.145
-0.787591 9.63911 -4.43088 549.056 523.686
3 20 21 23
3 21 22 23
3 0 1 36
3 15 16 45
3 0 17 36
3 16 26 45
3 17 18 37
3 25 26 44
3 17 36 37
3 26 44 45
3 18 19 38
3 24 25 43
3 18 37 38
3 25 43 44
3 19 20 38
3 23 24 43
3 20 21 39
3 22 23 42
3 20 38 39
3 23 42 43
3 21 22 27
3 21 27 39
3 22 27 42
3 27 28 42
3 27 28 39
3 28 42 47
3 28 39 40
3 1 36 41
3 15 45 46
3 1 2 41
3 14 15 46
3 28 29 40
3 28 29 47
3 2 40 41
3 14 46 47
3 2 29 40
3 14 29 47
3 2 3 29
3 13 14 29
3 29 30 31
3 29 30 35
3 3 29 31
3 13 29 35
3 30 32 33
3 30 33 34
3 30 31 32
3 30 34 35
3 3 4 31
3 12 13 35
3 4 5 48
3 11 12 54
3 5 6 48
3 10 11 54
3 6 48 59
3 10 54 55
3 6 7 59
3 9 10 55
3 7 58 59
3 9 55 56
3 8 57 58
3 8 56 57
3 7 8 58
3 8 9 56
3 4 31 48
3 12 35 54
3 31 48 49
3 35 53 54
3 31 49 50
3 35 52 53
3 31 32 50
3 34 35 52
3 32 33 50
3 33 34 52
3 33 50 51
3 33 51 52
3 48 49 60
3 49 60 50
3 50 60 61
3 50 51 61
3 51 52 61
3 61 62 52
3 52 53 62
3 53 54 62
3 54 55 63
3 55 56 63
3 56 63 64
3 56 57 64
3 64 65 57
3 57 58 65
3 58 59 65
3 48 59 65
