ply
format ascii 1.0
element vertex 66
property float x
property float y
property float z
property float u
property float v
element face 91
property list uchar int vertex_indices
end_header
-19.9192 -5.89369 20.6944 482.475 446.793
-19.6716 -0.830031 20.1965 480.989 466.966
-18.9586 4.20689 20.093 481.406 487.194
-17.6639 8.98036 18.161 483.997 506.955
-15.5013 13.3526 13.5614 489.845 525.979
-12.2596 17.2397 8.06048 500.06 543.75
-8.03105 20.332 3.34836 514.652 558.732
-3.02022 22.3272 -0.640918 532.947 569.643
2.53707 22.3366 -4.15068 554.403 572.905
7.30367 21.4788 -1.02733 574.039 571.299
11.376 19.2457 3.26033 591.743 563.747
14.8886 16.3562 8.12984 607.626 553.244
17.3091 12.6684 13.8323 619.689 538.936
18.4273 8.12887 18.7231 626.907 520.775
18.8792 2.92513 20.9146 631.447 500.11
19.0581 -2.56646 21.3361 634.808 478.465
19.0338 -8.03631 21.8906 637.375 456.786
-15.5423 -14.5042 0.082438 501.055 418.243
-13.6647 -16.2364 -1.5908 509.06 412.578
-11.2876 -17.1247 -3.04907 518.666 410.446
-8.78532 -17.4335 -4.43885 528.5 410.649
-6.34533 -17.2358 -5.79575 537.854 412.815
2.8502 -18.2019 -5.2303 574.677 413.313
5.84908 -19.2014 -3.94417 587.157 410.598
8.99742 -19.5306 -2.55832 599.924 410.582
12.114 -18.8296 -1.20675 612.073 414.621
14.6627 -16.9029 0.362803 621.43 423.188
-1.97919 -12.0326 -5.18766 552.704 435.332
-1.80885 -9.1074 -7.70795 551.654 447.359
-1.59545 -6.2243 -10.4706 550.761 459.28
-1.32847 -3.35573 -13.2162 550.088 471.166
-4.31955 1.02988 -6.29805 537.138 485.92
-2.7423 1.31366 -7.18266 543.109 487.937
-1.09688 1.26049 -8.01263 549.516 488.648
0.899685 0.915987 -7.25532 557.66 488.122
2.7715 0.257638 -6.42284 565.471 486.287
-11.9645 -9.83443 -1.20415 512.792 438.583
-10.2475 -11.1943 -1.16441 520.217 434.034
-8.01627 -11.3265 -1.08713 529.096 434.568
-6.12691 -10.4204 -0.867651 536.153 439.011
-7.99468 -9.67057 -1.16388 528.387 441.123
-10.0462 -9.35604 -1.23929 520.132 441.394
5.01129 -11.8017 -0.838086 580.766 438.887
6.8388 -13.1685 -0.903337 588.616 434.38
9.16721 -13.2665 -0.720332 597.876 435.078
11.2347 -12.3046 -0.536986 605.605 439.832
9.31116 -11.5145 -0.809664 597.603 442.072
7.12401 -11.3731 -0.94686 588.887 441.606
-5.20627 10.2545 -2.75226 529.749 521.313
-3.73397 8.37785 -4.87651 536.162 514.957
-1.88166 6.86832 -6.6019 543.955 510.167
0.354225 6.74075 -8.27003 552.615 511.002
2.70285 6.27771 -6.63245 562.323 510.036
5.05131 7.2589 -4.92741 571.356 514.755
7.31952 8.50992 -2.88341 579.989 520.446
5.62165 10.1204 -4.15684 572.356 526.192
3.53093 11.2374 -5.48524 563.398 529.812
1.11309 11.7547 -6.57732 553.465 530.872
-1.28652 11.9905 -5.36994 544.045 530.459
-3.50986 11.5054 -4.07897 535.674 527.273
-1.72471 9.0908 -4.89209 543.752 518.733
0.574827 8.52203 -7.25686 552.779 517.971
3.10118 8.33442 -5.42193 563.084 518.144
3.10049 8.72613 -4.81907 562.977 519.592
0.638955 9.11675 -6.36973 552.87 520.205
-1.68823 9.43655 -4.40653 543.798 520.037
3 20 21 23
3 21 22 23
3 0 1 36
3 15 16 45
3 0 17 36
3 16 26 45
3 17 18 37
3 25 26 44
3 17 36 37
3 26 44 45
3 18 19 38
3 24 25 43
3 18 37 38
3 25 43 44
3 19 20 38
3 23 24 43
3 20 21 39
3 22 23 42
3 20 38 39
3 23 42 43
3 21 22 27
3 21 27 39
3 22 27 42
3 27 28 42
3 27 28 39
3 28 42 47
3 28 39 40
3 1 36 41
3 15 45 46
3 1 2 41
3 14 15 46
3 28 29 40
3 28 29 47
3 2 40 41
3 14 46 47
3 2 29 40
3 14 29 47
3 2 3 29
3 13 14 29
3 29 30 31
3 29 30 35
3 3 29 31
3 13 29 35
3 30 32 33
3 30 33 34
3 30 31 32
3 30 34 35
3 3 4 31
3 12 13 35
3 4 5 48
3 11 12 54
3 5 6 48
3 10 11 54
3 6 48 59
3 10 54 55
3 6 7 59
3 9 10 55
3 7 58 59
3 9 55 56
3 8 57 58
3 8 56 57
3 7 8 58
3 8 9 56
3 4 31 48
3 12 35 54
3 31 48 49
3 35 53 54
3 31 49 50
3 35 52 53
3 31 32 50
3 34 35 52
3 32 33 50
3 33 34 52
3 33 50 51
3 33 51 52
3 48 49 60
3 49 60 50
3 50 60 61
3 50 51 61
3 51 52 61
3 61 62 52
3 52 53 62
3 53 54 62
3 54 55 63
3 55 56 63
3 56 63 64
3 56 57 64
3 64 65 57
3 57 58 65
3 58 59 65
3 48 59 65
