ply
format ascii 1.0
element vertex 66
property float x
property float y
property float z
property float u
property float v
element face 91
property list uchar int vertex_indices
end_header
-19.9815 -5.84371 20.7353 482.441 447.657
-19.7054 -0.742228 20.2401 481.135 467.946
-18.9719 4.33151 20.1209 481.698 488.286
-17.6657 9.1318 18.1617 484.381 508.055
-15.4994 13.502 13.5379 490.272 526.877
-12.2309 17.3447 8.04172 500.622 544.243
-7.96637 20.3618 3.33461 515.383 558.712
-2.93638 22.279 -0.658446 533.762 569.105
2.61705 22.2164 -4.16482 555.172 571.876
7.34868 21.309 -0.995226 574.674 570.06
11.3703 19.0354 3.29592 592.159 562.388
14.8442 16.1411 8.16269 607.849 551.942
17.2399 12.4699 13.838 619.761 537.833
18.3703 7.98199 18.7144 626.946 520.031
18.8438 2.84269 20.91 631.462 499.714
19.0387 -2.58894 21.3019 634.759 478.355
19.0317 -7.99899 21.8578 637.273 456.967
-15.6339 -14.5596 0.0848465 500.619 418.048
-13.6961 -16.3186 -1.58101 508.819 412.23
-11.2557 -17.2054 -3.03942 518.63 410.052
-8.69607 -17.4888 -4.4297 528.647 410.297
-6.20519 -17.2418 -5.78445 538.155 412.594
2.96328 -18.206 -5.24775 574.789 412.943
5.96858 -19.2012 -3.96751 587.263 410.236
9.12555 -19.5188 -2.57477 600.041 410.254
12.2456 -18.7899 -1.21583 612.193 414.381
14.7815 -16.8192 0.366131 621.509 423.102
-1.93743 -12.0056 -5.18621 552.669 435.105
-1.79446 -9.05292 -7.7042 551.532 447.135
-1.60904 -6.14329 -10.4693 550.546 459.047
-1.3699 -3.24821 -13.2204 549.782 470.925
-4.2109 0.954367 -6.26469 537.659 485.255
-2.70537 1.20468 -7.16934 543.348 487.053
-1.13853 1.14404 -8.02772 549.427 487.648
0.768777 0.832615 -7.24203 557.193 487.195
2.56378 0.234079 -6.36426 564.661 485.547
-12.0078 -9.89016 -1.21363 512.594 438.282
-10.2768 -11.2136 -1.14997 520.025 433.857
-8.05341 -11.3533 -1.05606 528.861 434.317
-6.16921 -10.4653 -0.830986 535.911 438.652
-8.04325 -9.73774 -1.14251 528.153 440.697
-10.0928 -9.43153 -1.23024 519.927 440.972
5.10774 -11.8275 -0.865131 580.952 438.478
6.93325 -13.1402 -0.88185 588.739 434.149
9.24479 -13.2182 -0.709045 597.906 434.883
11.2948 -12.264 -0.556184 605.569 439.564
9.37277 -11.5186 -0.824113 597.62 441.652
7.20076 -11.3948 -0.972206 588.986 441.16
-5.15065 10.3201 -2.7861 530.183 521.258
-3.70052 8.45179 -4.90767 536.447 514.845
-1.89199 6.91446 -6.61387 544.031 509.846
0.308075 6.78513 -8.27605 552.522 510.568
2.61864 6.33228 -6.63203 562.063 509.63
4.92054 7.34672 -4.94467 570.908 514.463
7.14815 8.61125 -2.9158 579.394 520.201
5.49588 10.186 -4.15157 571.993 525.808
3.46278 11.2871 -5.47715 563.295 529.385
1.09543 11.8066 -6.57725 553.577 530.487
-1.27774 12.0358 -5.38148 544.293 530.14
-3.4716 11.5525 -4.12043 536.048 527.061
-1.68712 9.12639 -4.91819 544.07 518.43
0.538373 8.54648 -7.27728 552.768 517.481
2.9959 8.38787 -5.41397 562.785 517.741
2.99674 8.7811 -4.7858 562.698 519.207
0.616693 9.16347 -6.36219 552.925 519.827
-1.63539 9.47634 -4.42327 544.185 519.767
3 20 21 23
3 21 22 23
3 0 1 36
3 15 16 45
3 0 17 36
3 16 26 45
3 17 18 37
3 25 26 44
3 17 36 37
3 26 44 45
3 18 19 38
3 24 25 43
3 18 37 38
3 25 43 44
3 19 20 38
3 23 24 43
3 20 21 39
3 22 23 42
3 20 38 39
3 23 42 43
3 21 22 27
3 21 27 39
3 22 27 42
3 27 28 42
3 27 28 39
3 28 42 47
3 28 39 40
3 1 36 41
3 15 45 46
3 1 2 41
3 14 15 46
3 28 29 40
3 28 29 47
3 2 40 41
3 14 46 47
3 2 29 40
3 14 29 47
3 2 3 29
3 13 14 29
3 29 30 31
3 29 30 35
3 3 29 31
3 13 29 35
3 30 32 33
3 30 33 34
3 30 31 32
3 30 34 35
3 3 4 31
3 12 13 35
3 4 5 48
3 11 12 54
3 5 6 48
3 10 11 54
3 6 48 59
3 10 54 55
3 6 7 59
3 9 10 55
3 7 58 59
3 9 55 56
3 8 57 58
3 8 56 57
3 7 8 58
3 8 9 56
3 4 31 48
3 12 35 54
3 31 48 49
3 35 53 54
3 31 49 50
3 35 52 53
3 31 32 50
3 34 35 52
3 32 33 50
3 33 34 52
3 33 50 51
3 33 51 52
3 48 49 60
3 49 60 50
3 50 60 61
3 50 51 61
3 51 52 61
3 61 62 52
3 52 53 62
3 53 54 62
3 54 55 63
3 55 56 63
3 56 63 64
3 56 57 64
3 64 65 57
3 57 58 65
3 58 59 65
3 48 59 65
