ply
format ascii 1.0
element vertex 66
property float x
property float y
property float z
property float u
property float v
element face 91
property list uchar int vertex_indices
end_header
-19.9865 -6.04398 20.9863 482.651 450.716
-19.543 -0.792512 20.4744 482.41 471.361
-18.7213 4.43093 20.2048 483.639 492.02
-17.4989 9.36037 18.3147 486.621 511.816
-15.5963 13.7773 13.6052 492.586 530.101
-12.5733 17.6259 8.08201 503.168 546.662
-8.51747 20.6958 3.34357 518.026 560.522
-3.68836 22.7541 -0.737668 536.244 570.685
1.75264 22.9149 -4.41382 557.544 573.664
6.93243 22.2096 -0.909342 577.794 572.6
11.3244 19.8463 3.31869 595.571 564.728
14.9503 16.635 8.12086 610.66 553.22
17.3944 12.6602 13.7732 621.396 538.226
18.4977 7.9627 18.6309 627.228 519.976
18.9554 2.63682 20.6917 630.927 499.259
19.1182 -2.98019 21.167 633.669 477.425
18.9984 -8.58222 21.6594 635.304 455.54
-16.0543 -14.3156 0.0889962 502.146 421.684
-14.0651 -16.2409 -1.60895 510.704 415.08
-11.5405 -17.2163 -3.02081 520.971 412.353
-8.88272 -17.4812 -4.38155 531.484 412.437
-6.29066 -17.1867 -5.66294 541.524 414.666
2.73338 -17.8113 -5.34943 576.866 415.626
5.57318 -18.7957 -4.0566 588.226 412.767
8.58838 -19.1326 -2.68371 600.02 412.487
11.6161 -18.5746 -1.3067 611.522 415.695
14.2201 -16.8467 0.286074 620.92 423.277
-1.34638 -12.1198 -5.07261 558.814 436.208
-1.10474 -9.23861 -7.76158 558.796 447.726
-0.846503 -6.38899 -10.5529 558.86 459.136
-0.56374 -3.53658 -13.2227 559.012 470.556
-2.99803 1.07113 -6.30081 547.441 487.013
-1.65804 1.2212 -7.17526 552.643 488.174
-0.273463 1.14593 -7.9755 558.1 488.469
1.2731 0.939619 -7.14064 564.156 488.184
2.73301 0.508324 -6.34269 569.961 486.995
-12.0839 -9.97917 -1.07347 516.011 440.155
-10.3441 -11.2567 -1.14319 523.271 435.847
-8.14882 -11.4273 -1.16597 531.88 436.016
-6.27327 -10.5309 -1.01991 538.832 440.203
-8.13681 -9.78842 -1.22336 531.308 442.403
-10.1811 -9.51624 -1.18062 523.246 442.685
4.87242 -11.5811 -0.854843 582.599 440.321
6.63169 -12.8574 -1.00861 589.938 436.033
8.87734 -12.9692 -0.861452 598.713 436.436
10.8852 -12.062 -0.66248 606.173 440.71
9.03312 -11.2845 -0.8691 598.68 443.051
6.913 -11.165 -0.979296 590.389 442.722
-5.30972 9.67154 -2.76844 535.002 519.324
-3.62555 7.87986 -4.93562 542.346 513.162
-1.6884 6.43529 -6.66661 550.52 508.412
0.561847 6.32194 -8.33671 559.405 508.956
2.86033 6.01951 -6.5973 568.377 508.51
5.10191 7.08702 -4.87366 576.609 513.375
7.25131 8.43537 -2.73755 584.355 519.265
5.62025 10.1037 -4.068 577.441 525.246
3.52089 11.2401 -5.35615 568.904 528.977
1.03836 11.6491 -6.63054 559.152 529.73
-1.40866 11.7373 -5.36367 549.531 529.046
-3.5986 11.0465 -4.01653 541.202 525.422
-1.69116 8.60086 -4.99789 549.603 516.705
0.704438 8.10768 -7.21425 559.226 515.869
3.20423 8.08906 -5.19608 568.86 516.582
3.25218 8.70298 -4.60763 568.784 518.942
0.751002 8.98209 -6.2407 559.026 519.212
-1.69645 9.19652 -4.42177 549.328 518.975
3 20 21 23
3 21 22 23
3 0 1 36
3 15 16 45
3 0 17 36
3 16 26 45
3 17 18 37
3 25 26 44
3 17 36 37
3 26 44 45
3 18 19 38
3 24 25 43
3 18 37 38
3 25 43 44
3 19 20 38
3 23 24 43
3 20 21 39
3 22 23 42
3 20 38 39
3 23 42 43
3 21 22 27
3 21 27 39
3 22 27 42
3 27 28 42
3 27 28 39
3 28 42 47
3 28 39 40
3 1 36 41
3 15 45 46
3 1 2 41
3 14 15 46
3 28 29 40
3 28 29 47
3 2 40 41
3 14 46 47
3 2 29 40
3 14 29 47
3 2 3 29
3 13 14 29
3 29 30 31
3 29 30 35
3 3 29 31
3 13 29 35
3 30 32 33
3 30 33 34
3 30 31 32
3 30 34 35
3 3 4 31
3 12 13 35
3 4 5 48
3 11 12 54
3 5 6 48
3 10 11 54
3 6 48 59
3 10 54 55
3 6 7 59
3 9 10 55
3 7 58 59
3 9 55 56
3 8 57 58
3 8 56 57
3 7 8 58
3 8 9 56
3 4 31 48
3 12 35 54
3 31 48 49
3 35 53 54
3 31 49 50
3 35 52 53
3 31 32 50
3 34 35 52
3 32 33 50
3 33 34 52
3 33 50 51
3 33 51 52
3 48 49 60
3 49 60 50
3 50 60 61
3 50 51 61
3 51 52 61
3 61 62 52
3 52 53 62
3 53 54 62
3 54 55 63
3 55 56 63
3 56 63 64
3 56 57 64
3 64 65 57
3 57 58 65
3 58 59 65
3 48 59 65
