ply
format ascii 1.0
element vertex 66
property float x
property float y
property float z
property float u
property float v
element face 91
property list uchar int vertex_indices
end_header
-20.0309 -5.80129 20.6787 482.726 447.887
-19.7746 -0.747125 20.1802 481.242 467.988
-19.0412 4.27774 20.0673 481.707 488.14
-17.7111 9.03941 18.1656 484.381 507.843
-15.5012 13.3911 13.5436 490.313 526.811
-12.239 17.2677 8.05157 500.485 544.564
-8.02304 20.3844 3.35906 514.896 559.655
-3.01768 22.4007 -0.641906 533.045 570.684
2.54534 22.4134 -4.1484 554.422 574.014
7.32628 21.5322 -1.01524 574.134 572.343
11.3933 19.2643 3.27708 591.871 564.675
14.8927 16.3369 8.13494 607.773 554.042
17.3188 12.63 13.8365 619.947 539.68
18.462 8.07576 18.7416 627.358 521.494
18.9416 2.84992 20.8962 632.068 500.799
19.137 -2.6609 21.3267 635.54 479.132
19.1147 -8.15066 21.8913 638.165 457.42
-15.5068 -14.4436 0.0813952 501.618 419.489
-13.629 -16.1627 -1.59962 509.585 413.913
-11.2567 -17.0459 -3.05242 519.133 411.828
-8.75955 -17.3563 -4.43683 528.908 412.047
-6.32175 -17.1704 -5.7894 538.217 414.186
2.90538 -18.1598 -5.23106 575.105 414.673
5.89681 -19.1544 -3.94787 587.55 411.995
9.03421 -19.4884 -2.56032 600.269 411.971
12.1415 -18.8011 -1.20822 612.376 415.958
14.6917 -16.9018 0.353606 621.74 424.411
-1.97095 -12.0945 -5.17234 553.009 436.172
-1.80489 -9.18374 -7.70089 551.894 448.129
-1.5948 -6.31459 -10.468 550.936 459.984
-1.33193 -3.45974 -13.2175 550.196 471.805
-4.38658 1.0944 -6.34805 537.008 487.107
-2.7814 1.40327 -7.19444 543.055 489.242
-1.10182 1.35926 -7.98964 549.571 490.015
0.930916 1.0039 -7.2636 557.853 489.481
2.83173 0.321735 -6.45222 565.784 487.583
-11.8926 -9.81522 -1.20426 513.441 439.672
-10.1589 -11.1365 -1.17775 520.904 435.308
-7.93409 -11.2721 -1.09449 529.742 435.839
-6.02846 -10.4191 -0.867731 536.87 440.083
-7.90809 -9.69112 -1.15492 529.078 442.085
-9.96313 -9.37008 -1.23663 520.821 442.365
4.99487 -11.8093 -0.844026 580.943 439.952
6.84812 -13.1278 -0.899078 588.863 435.67
9.17325 -13.2178 -0.727795 598.087 436.415
11.2499 -12.2924 -0.548148 605.847 441.035
9.30846 -11.5366 -0.81483 597.801 443.112
7.11682 -11.3999 -0.949697 589.086 442.61
-5.25426 10.1689 -2.72443 529.785 521.801
-3.78419 8.30421 -4.85695 536.15 515.529
-1.92182 6.82382 -6.59137 543.934 510.893
0.31554 6.70593 -8.25252 552.553 511.79
2.66766 6.23838 -6.6308 562.279 510.821
5.01775 7.20027 -4.91031 571.327 515.461
7.27703 8.44529 -2.85455 579.933 521.115
5.57333 10.0621 -4.13258 572.26 526.865
3.48196 11.1869 -5.47727 563.287 530.502
1.05705 11.7042 -6.57291 553.329 531.544
-1.34627 11.9355 -5.36017 543.935 531.087
-3.56746 11.4352 -4.05558 535.623 527.824
-1.80021 9.04384 -4.8928 543.602 519.408
0.529586 8.48839 -7.25354 552.691 518.744
3.08335 8.29099 -5.41817 563.113 518.9
3.07937 8.66701 -4.81464 563.007 520.278
0.586406 9.06242 -6.41874 552.764 520.892
-1.77497 9.37566 -4.41068 543.614 520.646
3 20 21 23
3 21 22 23
3 0 1 36
3 15 16 45
3 0 17 36
3 16 26 45
3 17 18 37
3 25 26 44
3 17 36 37
3 26 44 45
3 18 19 38
3 24 25 43
3 18 37 38
3 25 43 44
3 19 20 38
3 23 24 43
3 20 21 39
3 22 23 42
3 20 38 39
3 23 42 43
3 21 22 27
3 21 27 39
3 22 27 42
3 27 28 42
3 27 28 39
3 28 42 47
3 28 39 40
3 1 36 41
3 15 45 46
3 1 2 41
3 14 15 46
3 28 29 40
3 28 29 47
3 2 40 41
3 14 46 47
3 2 29 40
3 14 29 47
3 2 3 29
3 13 14 29
3 29 30 31
3 29 30 35
3 3 29 31
3 13 29 35
3 30 32 33
3 30 33 34
3 30 31 32
3 30 34 35
3 3 4 31
3 12 13 35
3 4 5 48
3 11 12 54
3 5 6 48
3 10 11 54
3 6 48 59
3 10 54 55
3 6 7 59
3 9 10 55
3 7 58 59
3 9 55 56
3 8 57 58
3 8 56 57
3 7 8 58
3 8 9 56
3 4 31 48
3 12 35 54
3 31 48 49
3 35 53 54
3 31 49 50
3 35 52 53
3 31 32 50
3 34 35 52
3 32 33 50
3 33 34 52
3 33 50 51
3 33 51 52
3 48 49 60
3 49 60 50
3 50 60 61
3 50 51 61
3 51 52 61
3 61 62 52
3 52 53 62
3 53 54 62
3 54 55 63
3 55 56 63
3 56 63 64
3 56 57 64
3 64 65 57
3 57 58 65
3 58 59 65
3 48 59 65
