ply
format ascii 1.0
element vertex 66
property float x
property float y
property float z
property float u
property float v
element face 91
property list uchar int vertex_indices
end_header
-19.9854 -6.08084 20.7056 481.82 451.267
-19.6984 -0.982001 20.1876 480.82 471.351
-18.9366 4.0816 20.0392 481.721 491.48
-17.6168 8.93303 18.1965 484.758 511.058
-15.4785 13.4522 13.492 490.908 529.757
-12.2897 17.5452 8.00256 501.28 547.24
-8.12119 20.8736 3.34233 515.862 562.109
-3.11038 23.0227 -0.678611 534.271 572.688
2.46857 23.1779 -4.20913 555.756 575.683
7.29571 22.2386 -1.0329 575.275 573.887
11.3829 19.8585 3.30199 592.578 566.116
14.8355 16.7322 8.08548 607.739 555.152
17.2455 12.8588 13.7427 619.194 540.813
18.4011 8.18812 18.7635 626.018 522.859
18.914 2.90683 20.8721 630.347 502.341
19.1659 -2.61868 21.339 633.626 480.81
19.2004 -8.12845 21.862 636.052 459.249
-15.6311 -14.5821 0.0890986 500.705 420.401
-13.7162 -16.2448 -1.61508 508.741 414.73
-11.3247 -17.0504 -3.05333 518.313 412.599
-8.82081 -17.2847 -4.44293 528.095 412.748
-6.3871 -17.0095 -5.78254 537.399 414.86
2.65542 -17.8832 -5.22903 573.176 415.123
5.72653 -18.9573 -3.96885 585.728 412.139
8.9533 -19.3393 -2.59924 598.616 411.923
12.1449 -18.6408 -1.27891 610.921 415.923
14.7373 -16.6683 0.357096 620.386 424.652
-2.04682 -11.9688 -5.15304 552.37 436.34
-1.8669 -8.91591 -7.76031 551.622 448.437
-1.64655 -5.89531 -10.5225 551.033 460.429
-1.3685 -2.88663 -13.1863 550.683 472.395
-4.35065 1.1856 -6.31299 537.894 486.904
-2.75783 1.56711 -7.1971 543.9 489.074
-1.07632 1.56728 -8.00945 550.414 489.787
0.957099 1.15281 -7.26084 558.598 488.975
2.82633 0.378177 -6.49538 566.287 486.685
-12.089 -9.84658 -1.25357 512.523 440.42
-10.3762 -11.211 -1.21586 519.784 435.78
-8.14163 -11.3629 -1.09875 528.597 436.096
-6.23151 -10.4835 -0.872086 535.729 440.312
-8.10415 -9.72611 -1.16391 528.07 442.518
-10.1564 -9.41102 -1.23462 519.907 442.914
4.93937 -11.8244 -0.848662 579.981 439.634
6.78704 -13.1544 -0.970191 587.743 435.189
9.11187 -13.2267 -0.800009 596.882 435.852
11.1742 -12.2723 -0.563612 604.579 440.423
9.23425 -11.5282 -0.790721 596.668 442.548
7.04995 -11.3979 -0.9253 588.058 442.168
-4.80444 9.94592 -2.70004 532.825 520.888
-3.53623 7.96123 -4.88719 538.425 513.706
-1.75879 6.46378 -6.61146 545.855 508.625
0.426589 6.35094 -8.26621 554.32 509.127
2.74062 5.8643 -6.58696 563.704 508.119
5.0367 6.81181 -4.89581 572.433 512.715
7.14719 8.16849 -2.79058 580.301 518.824
5.51862 9.7218 -4.04418 573.197 524.273
3.53206 10.8111 -5.38641 564.875 527.763
1.22537 11.3391 -6.58938 555.54 528.922
-1.05235 11.5676 -5.31678 546.636 528.846
-3.17138 11.1291 -3.9904 538.629 526.224
-1.34715 8.69161 -4.84875 546.694 517.458
0.670576 8.18445 -7.13155 554.615 516.367
2.93075 7.95154 -5.37579 563.691 516.328
2.92291 8.26834 -4.77607 563.578 517.546
0.738504 8.67091 -6.28492 554.749 518.273
-1.29276 8.95976 -4.37027 546.835 518.515
3 20 21 23
3 21 22 23
3 0 1 36
3 15 16 45
3 0 17 36
3 16 26 45
3 17 18 37
3 25 26 44
3 17 36 37
3 26 44 45
3 18 19 38
3 24 25 43
3 18 37 38
3 25 43 44
3 19 20 38
3 23 24 43
3 20 21 39
3 22 23 42
3 20 38 39
3 23 42 43
3 21 22 27
3 21 27 39
3 22 27 42
3 27 28 42
3 27 28 39
3 28 42 47
3 28 39 40
3 1 36 41
3 15 45 46
3 1 2 41
3 14 15 46
3 28 29 40
3 28 29 47
3 2 40 41
3 14 46 47
3 2 29 40
3 14 29 47
3 2 3 29
3 13 14 29
3 29 30 31
3 29 30 35
3 3 29 31
3 13 29 35
3 30 32 33
3 30 33 34
3 30 31 32
3 30 34 35
3 3 4 31
3 12 13 35
3 4 5 48
3 11 12 54
3 5 6 48
3 10 11 54
3 6 48 59
3 10 54 55
3 6 7 59
3 9 10 55
3 7 58 59
3 9 55 56
3 8 57 58
3 8 56 57
3 7 8 58
3 8 9 56
3 4 31 48
3 12 35 54
3 31 48 49
3 35 53 54
3 31 49 50
3 35 52 53
3 31 32 50
3 34 35 52
3 32 33 50
3 33 34 52
3 33 50 51
3 33 51 52
3 48 49 60
3 49 60 50
3 50 60 61
3 50 51 61
3 51 52 61
3 61 62 52
3 52 53 62
3 53 54 62
3 54 55 63
3 55 56 63
3 56 63 64
3 56 57 64
3 64 65 57
3 57 58 65
3 58 59 65
3 48 59 65
