ply
format ascii 1.0
element vertex 66
property float x
property float y
property float z
property float u
property float v
element face 91
property list uchar int vertex_indices
end_header
-19.9191 -5.90305 20.7031 482.736 446.716
-19.6552 -0.797617 20.2201 481.393 467.096
-18.9276 4.27803 20.0862 481.943 487.514
-17.6179 9.10154 18.1773 484.675 507.502
-15.4504 13.523 13.5519 490.626 526.754
-12.2087 17.4441 8.04312 500.935 544.671
-7.98275 20.5622 3.33924 515.607 559.733
-2.96802 22.5606 -0.649152 534.002 570.612
2.59001 22.5584 -4.16997 555.517 573.755
7.34315 21.6088 -0.993409 575.162 571.655
11.3573 19.2586 3.29259 592.669 563.493
14.8004 16.2683 8.15541 608.284 552.44
17.1807 12.5181 13.8478 620.153 537.755
18.325 7.96923 18.7184 627.388 519.484
18.8126 2.79447 20.8757 631.955 498.893
19.0052 -2.6518 21.288 635.249 477.387
18.983 -8.07887 21.822 637.701 455.838
-15.5144 -14.4896 0.0721833 501.344 418.284
-13.628 -16.2462 -1.60221 509.382 412.492
-11.2222 -17.1459 -3.05332 519.113 410.288
-8.6851 -17.4445 -4.44189 529.099 410.51
-6.20786 -17.2258 -5.79605 538.617 412.743
2.89215 -18.1624 -5.26498 575.096 413.141
5.88301 -19.1506 -3.97657 587.542 410.396
9.02142 -19.4715 -2.5799 600.282 410.337
12.1207 -18.7586 -1.22363 612.391 414.353
14.6346 -16.8183 0.347853 621.656 422.914
-1.94191 -12.1864 -5.18348 553.273 434.521
-1.80183 -9.26641 -7.69215 552.168 446.548
-1.61876 -6.38775 -10.4452 551.219 458.473
-1.38162 -3.5257 -13.2009 550.492 470.358
-4.31976 0.897502 -6.27935 537.773 485.321
-2.75706 1.18356 -7.16238 543.705 487.319
-1.12464 1.13627 -8.00513 550.071 488.026
0.848985 0.800807 -7.23123 558.13 487.479
2.69735 0.157044 -6.38015 565.843 485.642
-11.8787 -9.87252 -1.23756 513.447 438.426
-10.1625 -11.2154 -1.18158 520.852 433.899
-7.93558 -11.3607 -1.07587 529.737 434.332
-6.03854 -10.4857 -0.824473 536.874 438.622
-7.90573 -9.72396 -1.14029 529.102 440.826
-9.95811 -9.40386 -1.23247 520.829 441.162
5.01223 -11.8408 -0.853342 581.184 438.359
6.84957 -13.1455 -0.897435 589.037 434.055
9.16537 -13.2203 -0.734059 598.25 434.799
11.2061 -12.2501 -0.573862 605.899 439.546
9.28148 -11.4893 -0.821389 597.91 441.708
7.10443 -11.3751 -0.963551 589.23 441.181
-5.1321 10.2849 -2.74485 530.754 521.452
-3.71189 8.40012 -4.87348 536.948 515.016
-1.89996 6.8621 -6.60033 544.585 510.062
0.316752 6.74158 -8.24812 553.188 510.884
2.6462 6.27966 -6.61134 562.825 509.855
4.9488 7.29809 -4.90333 571.691 514.652
7.14654 8.58353 -2.87188 580.064 520.402
5.49776 10.1595 -4.14253 572.66 526.086
3.46913 11.2654 -5.48772 563.958 529.749
1.0963 11.7912 -6.60039 554.19 530.922
-1.27524 12.011 -5.39312 544.871 530.496
-3.46172 11.5224 -4.09732 536.618 527.34
-1.67477 9.08009 -4.888 544.691 518.643
0.545524 8.51545 -7.23264 553.419 517.829
2.99641 8.34431 -5.38259 563.432 517.969
2.99678 8.74516 -4.78526 563.33 519.453
0.622773 9.15051 -6.39108 553.547 520.233
-1.62533 9.43867 -4.4199 544.785 520.004
3 20 21 23
3 21 22 23
3 0 1 36
3 15 16 45
3 0 17 36
3 16 26 45
3 17 18 37
3 25 26 44
3 17 36 37
3 26 44 45
3 18 19 38
3 24 25 43
3 18 37 38
3 25 43 44
3 19 20 38
3 23 24 43
3 20 21 39
3 22 23 42
3 20 38 39
3 23 42 43
3 21 22 27
3 21 27 39
3 22 27 42
3 27 28 42
3 27 28 39
3 28 42 47
3 28 39 40
3 1 36 41
3 15 45 46
3 1 2 41
3 14 15 46
3 28 29 40
3 28 29 47
3 2 40 41
3 14 46 47
3 2 29 40
3 14 29 47
3 2 3 29
3 13 14 29
3 29 30 31
3 29 30 35
3 3 29 31
3 13 29 35
3 30 32 33
3 30 33 34
3 30 31 32
3 30 34 35
3 3 4 31
3 12 13 35
3 4 5 48
3 11 12 54
3 5 6 48
3 10 11 54
3 6 48 59
3 10 54 55
3 6 7 59
3 9 10 55
3 7 58 59
3 9 55 56
3 8 57 58
3 8 56 57
3 7 8 58
3 8 9 56
3 4 31 48
3 12 35 54
3 31 48 49
3 35 53 54
3 31 49 50
3 35 52 53
3 31 32 50
3 34 35 52
3 32 33 50
3 33 34 52
3 33 50 51
3 33 51 52
3 48 49 60
3 49 60 50
3 50 60 61
3 50 51 61
3 51 52 61
3 61 62 52
3 52 53 62
3 53 54 62
3 54 55 63
3 55 56 63
3 56 63 64
3 56 57 64
3 64 65 57
3 57 58 65
3 58 59 65
3 48 59 65
