ply
format ascii 1.0
element vertex 66
property float x
property float y
property float z
property float u
property float v
element face 91
property list uchar int vertex_indices
end_header
-19.6299 -6.03835 20.9601 482.679 453.848
-19.22 -0.822181 20.3613 482.632 474.861
-18.4428 4.37706 20.1315 484.026 495.91
-17.2891 9.26733 18.2993 487.168 515.931
-15.4671 13.6188 13.6817 493.406 534.163
-12.5459 17.4251 8.11316 504.301 550.631
-8.5845 20.4925 3.27804 519.534 564.453
-3.84387 22.5997 -0.776261 538.132 574.657
1.54139 22.7987 -4.35508 559.899 577.424
6.72469 22.1575 -0.951342 580.524 576.408
11.0794 19.7887 3.27016 598.341 568.17
14.6886 16.6194 8.12229 613.391 556.454
17.1867 12.7511 13.7735 624.163 541.534
18.3634 8.15169 18.5994 629.971 523.296
18.8267 2.86752 20.6358 633.403 502.227
18.9864 -2.73437 21.098 635.867 479.868
18.8699 -8.3175 21.607 637.216 457.491
-15.7983 -14.7431 0.0835639 502.729 421.404
-13.804 -16.5133 -1.54291 511.431 415.075
-11.3567 -17.3972 -2.96514 521.63 412.428
-8.80729 -17.662 -4.34719 532.027 412.287
-6.32608 -17.3986 -5.66093 541.969 414.231
2.5113 -18.0114 -5.32035 577.455 414.699
5.31842 -18.9577 -4.01244 588.871 411.782
8.29995 -19.2685 -2.64329 600.768 411.46
11.3005 -18.7238 -1.26882 612.454 414.562
13.9028 -17.0445 0.299128 622.155 422.057
-1.42888 -12.233 -5.05712 559.763 436.471
-1.17148 -9.26996 -7.73502 560.04 448.535
-0.899518 -6.34348 -10.5496 560.4 460.465
-0.600745 -3.41354 -13.2504 560.856 472.413
-3.25342 1.2745 -6.30567 548.083 489.911
-1.77525 1.51553 -7.21026 553.989 491.412
-0.23021 1.4584 -7.98947 560.25 491.736
1.46765 1.19635 -7.17189 567.049 491.211
3.03844 0.631774 -6.44181 573.45 489.439
-12.099 -10.2514 -0.99437 516.109 440.638
-10.4257 -11.6028 -1.0553 523.251 435.796
-8.25036 -11.7392 -1.13089 531.995 435.977
-6.44301 -10.6987 -1.06292 538.864 440.733
-8.25381 -9.93905 -1.25123 531.392 443.177
-10.2541 -9.69931 -1.18123 523.314 443.467
4.757 -11.7448 -0.846769 583.946 440.26
6.41483 -13.1691 -1.02072 591.06 435.127
8.63044 -13.3352 -0.797939 599.949 435.187
10.6016 -12.3757 -0.548443 607.484 439.664
8.83167 -11.4925 -0.828216 600.142 442.62
6.75602 -11.3398 -0.938747 591.807 442.547
-5.42425 9.65613 -2.77029 536.305 522.506
-3.54399 8.06549 -4.90794 544.536 516.883
-1.51897 6.7936 -6.67462 553.207 512.563
0.718847 6.68778 -8.41441 562.338 512.972
3.00499 6.34964 -6.56488 571.422 512.285
5.32713 7.18394 -4.81812 580.269 516.301
7.66452 8.26363 -2.68341 589.06 521.282
6.05543 10.1889 -4.1156 582.116 528.516
3.8584 11.5186 -5.34998 573.003 533.164
1.22418 11.9764 -6.59481 562.435 534.182
-1.35944 12.0647 -5.38859 551.975 533.616
-3.67528 11.249 -4.06901 542.877 529.519
-1.51056 8.92938 -4.99583 552.381 521.015
0.882656 8.47992 -7.26905 562.294 520.13
3.37419 8.3832 -5.20365 572.1 520.465
3.4669 8.88455 -4.64044 572.253 522.471
0.920915 9.19224 -6.20301 562.116 522.935
-1.55775 9.42142 -4.43845 551.98 522.937
3 20 21 23
3 21 22 23
3 0 1 36
3 15 16 45
3 0 17 36
3 16 26 45
3 17 18 37
3 25 26 44
3 17 36 37
3 26 44 45
3 18 19 38
3 24 25 43
3 18 37 38
3 25 43 44
3 19 20 38
3 23 24 43
3 20 21 39
3 22 23 42
3 20 38 39
3 23 42 43
3 21 22 27
3 21 27 39
3 22 27 42
3 27 28 42
3 27 28 39
3 28 42 47
3 28 39 40
3 1 36 41
3 15 45 46
3 1 2 41
3 14 15 46
3 28 29 40
3 28 29 47
3 2 40 41
3 14 46 47
3 2 29 40
3 14 29 47
3 2 3 29
3 13 14 29
3 29 30 31
3 29 30 35
3 3 29 31
3 13 29 35
3 30 32 33
3 30 33 34
3 30 31 32
3 30 34 35
3 3 4 31
3 12 13 35
3 4 5 48
3 11 12 54
3 5 6 48
3 10 11 54
3 6 48 59
3 10 54 55
3 6 7 59
3 9 10 55
3 7 58 59
3 9 55 56
3 8 57 58
3 8 56 57
3 7 8 58
3 8 9 56
3 4 31 48
3 12 35 54
3 31 48 49
3 35 53 54
3 31 49 50
3 35 52 53
3 31 32 50
3 34 35 52
3 32 33 50
3 33 34 52
3 33 50 51
3 33 51 52
3 48 49 60
3 49 60 50
3 50 60 61
3 50 51 61
3 51 52 61
3 61 62 52
3 52 53 62
3 53 54 62
3 54 55 63
3 55 56 63
3 56 63 64
3 56 57 64
3 64 65 57
3 57 58 65
3 58 59 65
3 48 59 65
