ply
format ascii 1.0
element vertex 66
property float x
property float y
property float z
property float u
property float v
element face 91
property list uchar int vertex_indices
end_header
-19.8427 -5.7012 20.5484 482.661 451.571
-19.5898 -0.702356 20.1551 480.73 471.452
-18.8746 4.26108 20.0342 480.701 491.453
-17.5368 8.96944 18.1091 482.876 510.83
-15.2984 13.3295 13.5302 488.218 529.388
-12.0496 17.3016 8.05856 497.567 547.005
-7.86444 20.5617 3.37496 511.184 562.334
-2.87883 22.7533 -0.647725 528.707 573.891
2.72103 22.8679 -4.19557 549.936 577.592
7.5405 22.0186 -1.0297 570.106 576.938
11.6995 19.8057 3.22901 588.688 570.507
15.2167 16.8263 8.11656 605.312 560.675
17.4908 12.9555 13.872 617.734 546.602
18.361 8.2029 18.8003 624.944 528.262
18.661 2.78963 20.8964 629.662 507.033
18.757 -2.88839 21.3708 633.372 484.669
18.6847 -8.54194 21.9491 636.427 462.304
-15.2696 -14.5731 0.106329 501.256 419.486
-13.4174 -16.278 -1.60071 509.152 413.84
-11.0689 -17.131 -3.06248 518.573 411.835
-8.60548 -17.428 -4.45694 528.146 412.09
-6.21826 -17.2106 -5.80507 537.136 414.331
2.8895 -18.3132 -5.23136 573.784 415.162
5.85984 -19.3347 -3.9691 586.347 412.804
8.9761 -19.6682 -2.58844 599.121 413.243
12.059 -18.9762 -1.24394 611.172 417.711
14.5842 -17.0725 0.347745 620.39 426.639
-1.97818 -12.2109 -5.15875 551.146 436.472
-1.72617 -9.18289 -7.67715 549.867 448.607
-1.43126 -6.19579 -10.4325 548.728 460.609
-1.09312 -3.22422 -13.1793 547.771 472.574
-4.04196 0.876439 -6.25399 535.333 486.968
-2.57992 1.11068 -7.13236 540.77 488.74
-1.05643 1.04779 -7.96286 546.628 489.374
0.826826 0.728597 -7.21016 554.397 489.176
2.60493 0.144692 -6.2904 561.938 487.871
-11.7159 -9.88903 -1.21667 512.31 440.021
-10.0396 -11.2978 -1.20064 519.721 435.417
-7.82045 -11.431 -1.12529 528.559 436.155
-5.9615 -10.5047 -0.852752 535.419 440.866
-7.78558 -9.69943 -1.13828 527.71 443.009
-9.81916 -9.36993 -1.20851 519.492 443.152
4.84505 -11.8868 -0.741764 578.82 441.571
6.6683 -13.3229 -0.889019 586.79 436.945
9.01695 -13.4095 -0.793363 596.117 437.941
11.0723 -12.3988 -0.686968 603.666 443.1
9.15158 -11.5711 -0.843756 595.591 445.275
6.96095 -11.4161 -0.943568 586.847 444.639
-5.07897 10.2202 -2.72989 526.705 523.201
-3.65204 8.43664 -4.8368 532.882 517.008
-1.88988 6.9955 -6.55375 540.271 512.352
0.239612 6.91669 -8.20238 548.348 513.281
2.47194 6.45915 -6.71137 557.732 512.725
4.70813 7.45737 -4.98677 566.355 517.912
6.91119 8.64664 -2.90358 574.818 523.829
5.19513 10.1142 -4.19481 566.938 528.664
3.15595 11.0976 -5.54284 558.047 531.404
0.852485 11.5737 -6.57341 548.472 531.986
-1.41494 11.7808 -5.35317 539.685 531.491
-3.49363 11.346 -4.08455 532.017 528.57
-1.71693 9.12858 -4.83665 540.115 520.843
0.392507 8.60064 -7.24319 548.203 520
2.70309 8.45076 -5.40428 557.797 520.697
2.65823 8.70364 -4.82776 557.602 521.66
0.403165 9.02802 -6.37605 548.192 521.679
-1.72388 9.32319 -4.36834 540.08 521.599
3 20 21 23
3 21 22 23
3 0 1 36
3 15 16 45
3 0 17 36
3 16 26 45
3 17 18 37
3 25 26 44
3 17 36 37
3 26 44 45
3 18 19 38
3 24 25 43
3 18 37 38
3 25 43 44
3 19 20 38
3 23 24 43
3 20 21 39
3 22 23 42
3 20 38 39
3 23 42 43
3 21 22 27
3 21 27 39
3 22 27 42
3 27 28 42
3 27 28 39
3 28 42 47
3 28 39 40
3 1 36 41
3 15 45 46
3 1 2 41
3 14 15 46
3 28 29 40
3 28 29 47
3 2 40 41
3 14 46 47
3 2 29 40
3 14 29 47
3 2 3 29
3 13 14 29
3 29 30 31
3 29 30 35
3 3 29 31
3 13 29 35
3 30 32 33
3 30 33 34
3 30 31 32
3 30 34 35
3 3 4 31
3 12 13 35
3 4 5 48
3 11 12 54
3 5 6 48
3 10 11 54
3 6 48 59
3 10 54 55
3 6 7 59
3 9 10 55
3 7 58 59
3 9 55 56
3 8 57 58
3 8 56 57
3 7 8 58
3 8 9 56
3 4 31 48
3 12 35 54
3 31 48 49
3 35 53 54
3 31 49 50
3 35 52 53
3 31 32 50
3 34 35 52
3 32 33 50
3 33 34 52
3 33 50 51
3 33 51 52
3 48 49 60
3 49 60 50
3 50 60 61
3 50 51 61
3 51 52 61
3 61 62 52
3 52 53 62
3 53 54 62
3 54 55 63
3 55 56 63
3 56 63 64
3 56 57 64
3 64 65 57
3 57 58 65
3 58 59 65
3 48 59 65
