ply
format ascii 1.0
element vertex 66
property float x
property float y
property float z
property float u
property float v
element face 91
property list uchar int vertex_indices
end_header
-19.9456 -5.92239 20.6454 482.699 448.068
-19.7066 -0.855054 20.1682 481.181 468.266
-18.992 4.18193 20.0678 481.612 488.525
-17.6825 8.94183 18.1413 484.256 508.191
-15.4994 13.2972 13.5648 490.152 526.991
-12.2461 17.1963 8.07069 500.358 544.606
-8.00344 20.3197 3.36608 514.955 559.534
-2.96615 22.3499 -0.634377 533.313 570.435
2.6417 22.3515 -4.13964 554.956 573.532
7.42028 21.5262 -1.03519 574.687 572.177
11.5123 19.3392 3.26254 592.524 564.971
15.0322 16.4806 8.13515 608.502 554.77
17.4157 12.7999 13.8504 620.501 540.677
18.4591 8.24079 18.7575 627.5 522.571
18.8675 2.98142 20.9255 631.916 501.721
19.0359 -2.5803 21.366 635.272 479.768
19.0179 -8.11908 21.9338 637.9 457.801
-15.4867 -14.5208 0.0610833 501.343 418.667
-13.5744 -16.1977 -1.59101 509.448 413.148
-11.1998 -17.0307 -3.06013 519.008 411.162
-8.72272 -17.3166 -4.46527 528.725 411.381
-6.317 -17.1108 -5.83657 537.932 413.504
2.80791 -18.1179 -5.23389 574.556 413.8
5.83041 -19.1301 -3.9506 587.167 411.088
9.00065 -19.4734 -2.56329 600.062 411.076
12.1461 -18.7765 -1.21848 612.361 415.169
14.7312 -16.8399 0.342112 621.893 423.868
-2.06202 -12.1087 -5.20317 552.479 435.225
-1.87602 -9.1991 -7.70244 551.472 447.111
-1.6451 -6.33289 -10.4487 550.627 458.877
-1.35905 -3.48043 -13.1921 550.006 470.614
-4.24977 0.994828 -6.27084 537.49 486.097
-2.73668 1.25088 -7.16402 543.217 487.937
-1.15943 1.18299 -8.00162 549.359 488.52
0.792423 0.851466 -7.23965 557.341 488.049
2.62443 0.220718 -6.3893 565.003 486.328
-11.9324 -9.85706 -1.2238 512.998 438.945
-10.2346 -11.1616 -1.16538 520.331 434.592
-8.05205 -11.2974 -1.07262 529.034 435.084
-6.19132 -10.4681 -0.882746 536.024 439.226
-8.02712 -9.74062 -1.1724 528.383 441.261
-10.0434 -9.41913 -1.24539 520.253 441.579
5.01965 -11.8733 -0.833537 580.997 439.009
6.84186 -13.1791 -0.88122 588.807 434.722
9.13406 -13.258 -0.721265 597.927 435.484
11.1879 -12.3566 -0.559996 605.641 440.006
9.2762 -11.6118 -0.812815 597.698 442.069
7.1131 -11.4705 -0.94944 589.063 441.613
-5.13248 10.2969 -2.76075 530.129 522.021
-3.68636 8.42014 -4.86554 536.419 515.544
-1.87241 6.89798 -6.59295 544.051 510.599
0.330202 6.75711 -8.25811 552.576 511.29
2.65559 6.30214 -6.64902 562.217 510.409
4.98828 7.29637 -4.94155 571.218 515.246
7.2679 8.53009 -2.90709 579.944 520.965
5.56711 10.1166 -4.16171 572.289 526.575
3.49273 11.2161 -5.49794 563.376 530.091
1.09586 11.7302 -6.55987 553.505 531.107
-1.27756 11.9806 -5.36611 544.183 530.823
-3.46607 11.515 -4.08387 535.944 527.787
-1.70206 9.12144 -4.87587 543.928 519.263
0.546988 8.52745 -7.24704 552.746 518.27
3.03597 8.35533 -5.44051 562.93 518.56
3.02823 8.71552 -4.83344 562.818 519.908
0.606043 9.09058 -6.36483 552.844 520.418
-1.67021 9.42868 -4.39115 543.98 520.434
3 20 21 23
3 21 22 23
3 0 1 36
3 15 16 45
3 0 17 36
3 16 26 45
3 17 18 37
3 25 26 44
3 17 36 37
3 26 44 45
3 18 19 38
3 24 25 43
3 18 37 38
3 25 43 44
3 19 20 38
3 23 24 43
3 20 21 39
3 22 23 42
3 20 38 39
3 23 42 43
3 21 22 27
3 21 27 39
3 22 27 42
3 27 28 42
3 27 28 39
3 28 42 47
3 28 39 40
3 1 36 41
3 15 45 46
3 1 2 41
3 14 15 46
3 28 29 40
3 28 29 47
3 2 40 41
3 14 46 47
3 2 29 40
3 14 29 47
3 2 3 29
3 13 14 29
3 29 30 31
3 29 30 35
3 3 29 31
3 13 29 35
3 30 32 33
3 30 33 34
3 30 31 32
3 30 34 35
3 3 4 31
3 12 13 35
3 4 5 48
3 11 12 54
3 5 6 48
3 10 11 54
3 6 48 59
3 10 54 55
3 6 7 59
3 9 10 55
3 7 58 59
3 9 55 56
3 8 57 58
3 8 56 57
3 7 8 58
3 8 9 56
3 4 31 48
3 12 35 54
3 31 48 49
3 35 53 54
3 31 49 50
3 35 52 53
3 31 32 50
3 34 35 52
3 32 33 50
3 33 34 52
3 33 50 51
3 33 51 52
3 48 49 60
3 49 60 50
3 50 60 61
3 50 51 61
3 51 52 61
3 61 62 52
3 52 53 62
3 53 54 62
3 54 55 63
3 55 56 63
3 56 63 64
3 56 57 64
3 64 65 57
3 57 58 65
3 58 59 65
3 48 59 65
