ply
format ascii 1.0
element vertex 66
property float x
property float y
property float z
property float u
property float v
element face 91
property list uchar int vertex_indices
end_header
-19.9229 -5.81739 20.6464 482.976 448.049
-19.659 -0.788143 20.1811 481.595 468.135
-18.9203 4.20603 20.0637 482.158 488.264
-17.5846 8.94958 18.1304 484.947 507.909
-15.3753 13.3235 13.5404 490.993 526.836
-12.1227 17.2468 8.05576 501.253 544.585
-7.91177 20.4022 3.35233 515.776 559.653
-2.91428 22.4629 -0.64338 534.025 570.672
2.64422 22.505 -4.15101 555.51 573.908
7.36918 21.5958 -1.02915 575.074 572.159
11.3923 19.3227 3.26775 592.666 564.535
14.8562 16.3977 8.142 608.431 553.994
17.2311 12.6755 13.8421 620.377 539.679
18.3222 8.10548 18.7407 627.527 521.501
18.781 2.88563 20.9192 632.098 500.79
18.9863 -2.60921 21.3615 635.551 479.086
18.9964 -8.08676 21.9088 638.238 457.346
-15.4708 -14.5316 0.0785496 501.795 418.231
-13.5904 -16.2464 -1.59443 509.806 412.543
-11.2099 -17.1127 -3.05763 519.428 410.425
-8.70813 -17.409 -4.45558 529.271 410.611
-6.27209 -17.1966 -5.81614 538.621 412.775
2.83398 -18.1978 -5.2394 575.208 413.054
5.86607 -19.214 -3.96079 587.864 410.31
9.04479 -19.5488 -2.56935 600.796 410.317
12.1846 -18.8272 -1.22009 613.073 414.492
14.7315 -16.8613 0.353195 622.45 423.283
-2.03569 -12.0629 -5.18276 553.066 435.019
-1.8657 -9.14788 -7.68996 552.019 446.947
-1.65063 -6.27497 -10.4441 551.135 458.761
-1.38059 -3.41868 -13.1946 550.477 470.535
-4.23257 0.94047 -6.25613 538.119 485.572
-2.73578 1.19348 -7.15733 543.798 487.394
-1.1778 1.13404 -8.01486 549.871 488.004
0.750964 0.802574 -7.24002 557.768 487.509
2.56574 0.184151 -6.37374 565.362 485.814
-11.9626 -9.85598 -1.21252 513.303 438.557
-10.2634 -11.2518 -1.16755 520.689 433.832
-8.02408 -11.3917 -1.08517 529.628 434.329
-6.14172 -10.4741 -0.857297 536.679 438.824
-7.99575 -9.68246 -1.15481 528.928 441.115
-10.049 -9.35616 -1.22885 520.639 441.443
5.04922 -11.8814 -0.841582 581.629 438.553
6.87859 -13.2652 -0.898754 589.51 433.95
9.22316 -13.3443 -0.720674 598.85 434.725
11.2815 -12.3425 -0.549656 606.55 439.644
9.3563 -11.5403 -0.80619 598.519 441.939
7.16092 -11.4066 -0.954386 589.747 441.446
-5.0765 10.3424 -2.75609 530.859 521.944
-3.67718 8.45001 -4.87771 536.987 515.382
-1.88848 6.90383 -6.59374 544.55 510.324
0.31137 6.77836 -8.24807 553.083 511.075
2.63278 6.31003 -6.64688 562.714 510.122
4.93893 7.33361 -4.94768 571.599 515.054
7.16422 8.59679 -2.90323 580.1 520.853
5.48391 10.1577 -4.17219 572.539 526.392
3.4422 11.2479 -5.50455 563.761 529.905
1.08231 11.7802 -6.57984 554.021 531.027
-1.26112 12.008 -5.37571 544.809 530.669
-3.42691 11.5469 -4.09928 536.634 527.66
-1.66582 9.11417 -4.86823 544.637 518.962
0.530061 8.54446 -7.24268 553.261 518.043
2.96499 8.35922 -5.42672 563.239 518.237
2.95065 8.74398 -4.82171 563.086 519.678
0.593789 9.14506 -6.35829 553.355 520.34
-1.62336 9.44806 -4.39319 544.715 520.244
3 20 21 23
3 21 22 23
3 0 1 36
3 15 16 45
3 0 17 36
3 16 26 45
3 17 18 37
3 25 26 44
3 17 36 37
3 26 44 45
3 18 19 38
3 24 25 43
3 18 37 38
3 25 43 44
3 19 20 38
3 23 24 43
3 20 21 39
3 22 23 42
3 20 38 39
3 23 42 43
3 21 22 27
3 21 27 39
3 22 27 42
3 27 28 42
3 27 28 39
3 28 42 47
3 28 39 40
3 1 36 41
3 15 45 46
3 1 2 41
3 14 15 46
3 28 29 40
3 28 29 47
3 2 40 41
3 14 46 47
3 2 29 40
3 14 29 47
3 2 3 29
3 13 14 29
3 29 30 31
3 29 30 35
3 3 29 31
3 13 29 35
3 30 32 33
3 30 33 34
3 30 31 32
3 30 34 35
3 3 4 31
3 12 13 35
3 4 5 48
3 11 12 54
3 5 6 48
3 10 11 54
3 6 48 59
3 10 54 55
3 6 7 59
3 9 10 55
3 7 58 59
3 9 55 56
3 8 57 58
3 8 56 57
3 7 8 58
3 8 9 56
3 4 31 48
3 12 35 54
3 31 48 49
3 35 53 54
3 31 49 50
3 35 52 53
3 31 32 50
3 34 35 52
3 32 33 50
3 33 34 52
3 33 50 51
3 33 51 52
3 48 49 60
3 49 60 50
3 50 60 61
3 50 51 61
3 51 52 61
3 61 62 52
3 52 53 62
3 53 54 62
3 54 55 63
3 55 56 63
3 56 63 64
3 56 57 64
3 64 65 57
3 57 58 65
3 58 59 65
3 48 59 65
