ply
format ascii 1.0
element vertex 66
property float x
property float y
property float z
property float u
property float v
element face 91
property list uchar int vertex_indices
end_header
-19.9561 -6.02784 20.7926 481.669 452.481
-19.6478 -0.89338 20.2369 480.605 472.659
-18.8997 4.21682 20.0758 481.3 492.938
-17.6444 9.10451 18.2173 483.939 512.544
-15.5915 13.6175 13.5184 489.636 530.993
-12.4291 17.6348 8.00788 499.816 547.975
-8.24973 20.8382 3.3208 514.384 562.231
-3.24586 22.8677 -0.698658 532.732 572.268
2.29579 22.9499 -4.22265 554.061 574.941
7.15178 22.0254 -1.0283 573.669 573.478
11.2569 19.63 3.30102 591.071 565.961
14.7512 16.5257 8.09977 606.431 555.417
17.2186 12.6879 13.7523 618.165 541.576
18.4279 8.06796 18.7118 625.273 524.126
18.954 2.83942 20.8572 629.759 503.965
19.1954 -2.64567 21.3092 633.113 482.654
19.2126 -8.11574 21.8279 635.591 461.307
-15.7126 -14.4994 0.0983472 500.308 420.949
-13.7658 -16.1943 -1.60876 508.511 415.15
-11.3436 -17.0347 -3.04367 518.222 412.897
-8.80458 -17.2892 -4.41709 528.14 412.984
-6.32897 -17.0265 -5.73891 537.59 415.064
2.74809 -17.8898 -5.23867 573.445 415.631
5.75011 -18.9447 -3.97192 585.721 412.829
8.91549 -19.3251 -2.59408 598.352 412.733
12.0621 -18.6885 -1.24488 610.467 416.601
14.6673 -16.8195 0.371179 619.954 425.051
-1.90813 -11.926 -5.16506 552.686 436.906
-1.7476 -8.83515 -7.77509 551.771 449.01
-1.54927 -5.77952 -10.5598 551.006 460.991
-1.29771 -2.73422 -13.2435 550.461 472.955
-4.32823 1.22617 -6.34256 537.446 487.205
-2.69971 1.60925 -7.22128 543.571 489.394
-0.981104 1.61111 -8.02308 550.218 490.134
1.04966 1.21004 -7.28268 558.379 489.458
2.92245 0.446257 -6.52614 566.081 487.297
-12.0273 -9.86875 -1.22293 512.589 440.612
-10.2914 -11.1866 -1.20088 519.939 436.217
-8.06983 -11.3327 -1.10645 528.684 436.61
-6.15983 -10.4513 -0.870492 535.778 440.883
-8.04972 -9.76453 -1.1513 528.08 442.742
-10.0945 -9.46881 -1.23214 519.961 443.01
4.97524 -11.7857 -0.862389 579.834 440.494
6.80274 -13.0996 -0.975543 587.53 436.153
9.10029 -13.1978 -0.78315 596.559 436.767
11.1629 -12.2809 -0.542469 604.234 441.245
9.2359 -11.5619 -0.796142 596.378 443.215
7.07456 -11.4243 -0.920083 587.87 442.814
-5.22185 9.82103 -2.7073 530.514 520.433
-3.75184 7.92417 -4.88826 536.907 513.632
-1.83113 6.50385 -6.61661 544.888 508.893
0.444025 6.38647 -8.2839 553.693 509.397
2.82723 5.90855 -6.57184 563.338 508.587
5.21529 6.77308 -4.86976 572.42 513.021
7.4446 8.05192 -2.77027 580.733 519.01
5.74748 9.69627 -4.0468 573.295 524.679
3.65065 10.8512 -5.35083 564.506 528.263
1.20772 11.3801 -6.55315 554.646 529.254
-1.21437 11.6002 -5.29623 545.19 529.082
-3.47249 11.1008 -3.98927 536.691 526.171
-1.61146 8.65579 -4.91057 544.945 517.416
0.680291 8.14649 -7.20185 553.937 516.388
3.18617 7.90863 -5.38124 563.965 516.57
3.21386 8.3782 -4.74972 563.919 518.424
0.756739 8.80413 -6.30724 554.02 519.002
-1.57285 9.09282 -4.39264 544.947 519.147
3 20 21 23
3 21 22 23
3 0 1 36
3 15 16 45
3 0 17 36
3 16 26 45
3 17 18 37
3 25 26 44
3 17 36 37
3 26 44 45
3 18 19 38
3 24 25 43
3 18 37 38
3 25 43 44
3 19 20 38
3 23 24 43
3 20 21 39
3 22 23 42
3 20 38 39
3 23 42 43
3 21 22 27
3 21 27 39
3 22 27 42
3 27 28 42
3 27 28 39
3 28 42 47
3 28 39 40
3 1 36 41
3 15 45 46
3 1 2 41
3 14 15 46
3 28 29 40
3 28 29 47
3 2 40 41
3 14 46 47
3 2 29 40
3 14 29 47
3 2 3 29
3 13 14 29
3 29 30 31
3 29 30 35
3 3 29 31
3 13 29 35
3 30 32 33
3 30 33 34
3 30 31 32
3 30 34 35
3 3 4 31
3 12 13 35
3 4 5 48
3 11 12 54
3 5 6 48
3 10 11 54
3 6 48 59
3 10 54 55
3 6 7 59
3 9 10 55
3 7 58 59
3 9 55 56
3 8 57 58
3 8 56 57
3 7 8 58
3 8 9 56
3 4 31 48
3 12 35 54
3 31 48 49
3 35 53 54
3 31 49 50
3 35 52 53
3 31 32 50
3 34 35 52
3 32 33 50
3 33 34 52
3 33 50 51
3 33 51 52
3 48 49 60
3 49 60 50
3 50 60 61
3 50 51 61
3 51 52 61
3 61 62 52
3 52 53 62
3 53 54 62
3 54 55 63
3 55 56 63
3 56 63 64
3 56 57 64
3 64 65 57
3 57 58 65
3 58 59 65
3 48 59 65
