ply
format ascii 1.0
element vertex 66
property float x
property float y
property float z
property float u
property float v
element face 91
property list uchar int vertex_indices
end_header
-19.9617 -5.93034 20.7274 482.75 446.177
-19.7074 -0.784133 20.2628 481.453 466.713
-18.9885 4.3321 20.1197 482.052 487.27
-17.6844 9.18391 18.1898 484.829 507.411
-15.5195 13.6077 13.5461 490.814 526.807
-12.2499 17.4971 8.04408 501.279 544.759
-7.97842 20.5542 3.34225 516.179 559.699
-2.92558 22.4832 -0.637961 534.76 570.378
2.65247 22.4203 -4.17382 556.346 573.328
7.40092 21.4627 -0.965672 575.986 570.975
11.4118 19.1221 3.31201 593.461 562.611
14.8553 16.1548 8.17986 609.048 551.398
17.2214 12.4237 13.8627 620.822 536.523
18.3526 7.90235 18.7206 627.941 518.152
18.833 2.75369 20.8898 632.382 497.576
19.0109 -2.67492 21.2875 635.501 476.129
18.9719 -8.08289 21.8112 637.771 454.641
-15.5443 -14.4352 0.0714389 501.014 418.831
-13.6659 -16.2353 -1.61221 508.987 412.9
-11.2534 -17.1701 -3.06134 518.728 410.575
-8.70155 -17.4867 -4.443 528.761 410.738
-6.20718 -17.2774 -5.79371 538.343 412.948
2.98507 -18.1992 -5.27426 575.16 413.258
5.97075 -19.1579 -3.98682 587.562 410.522
9.10098 -19.4495 -2.591 600.261 410.462
12.1841 -18.7018 -1.23377 612.316 414.494
14.6693 -16.7253 0.344075 621.504 423.07
-1.92304 -12.2295 -5.18899 553.172 434.653
-1.8015 -9.32763 -7.68839 552.041 446.689
-1.63662 -6.46802 -10.4388 551.064 458.629
-1.4167 -3.62511 -13.2029 550.311 470.531
-4.24411 0.855871 -6.27686 538.156 485.541
-2.72975 1.0949 -7.15452 543.916 487.337
-1.156 1.02993 -8.00449 550.047 487.952
0.760686 0.727971 -7.22073 557.867 487.442
2.56801 0.146672 -6.35268 565.387 485.764
-11.8768 -9.85407 -1.24262 513.339 438.819
-10.1349 -11.226 -1.19129 520.83 434.159
-7.86971 -11.3659 -1.08532 529.861 434.584
-5.95358 -10.4419 -0.800019 537.075 439.021
-7.84888 -9.65963 -1.13573 529.195 441.344
-9.93485 -9.34174 -1.2342 520.795 441.699
5.00578 -11.776 -0.868722 580.976 438.605
6.85741 -13.1114 -0.904371 588.872 434.155
9.20554 -13.186 -0.735886 598.212 434.863
11.2611 -12.1733 -0.576423 605.922 439.737
9.32024 -11.3823 -0.833943 597.868 442.058
7.11638 -11.2745 -0.987853 589.086 441.542
-5.12304 10.3535 -2.75316 531.047 521.935
-3.71897 8.43785 -4.89193 537.131 515.434
-1.92992 6.84829 -6.61786 544.653 510.304
0.281098 6.71769 -8.25044 553.223 511.104
2.607 6.27149 -6.61976 562.842 510.029
4.89114 7.349 -4.91311 571.643 514.939
7.0711 8.67925 -2.88885 579.968 520.735
5.43644 10.2216 -4.1413 572.659 526.366
3.4309 11.3065 -5.5032 564.067 530.049
1.07985 11.8224 -6.61802 554.391 531.281
-1.28208 12.0488 -5.41749 545.123 530.882
-3.45736 11.5698 -4.11641 536.913 527.759
-1.70451 9.09018 -4.89305 544.812 518.9
0.515292 8.5025 -7.22771 553.517 518.045
2.97343 8.35944 -5.37055 563.558 518.179
2.97444 8.78194 -4.76678 563.463 519.722
0.60268 9.16986 -6.39746 553.688 520.547
-1.64421 9.47032 -4.42583 544.951 520.331
3 20 21 23
3 21 22 23
3 0 1 36
3 15 16 45
3 0 17 36
3 16 26 45
3 17 18 37
3 25 26 44
3 17 36 37
3 26 44 45
3 18 19 38
3 24 25 43
3 18 37 38
3 25 43 44
3 19 20 38
3 23 24 43
3 20 21 39
3 22 23 42
3 20 38 39
3 23 42 43
3 21 22 27
3 21 27 39
3 22 27 42
3 27 28 42
3 27 28 39
3 28 42 47
3 28 39 40
3 1 36 41
3 15 45 46
3 1 2 41
3 14 15 46
3 28 29 40
3 28 29 47
3 2 40 41
3 14 46 47
3 2 29 40
3 14 29 47
3 2 3 29
3 13 14 29
3 29 30 31
3 29 30 35
3 3 29 31
3 13 29 35
3 30 32 33
3 30 33 34
3 30 31 32
3 30 34 35
3 3 4 31
3 12 13 35
3 4 5 48
3 11 12 54
3 5 6 48
3 10 11 54
3 6 48 59
3 10 54 55
3 6 7 59
3 9 10 55
3 7 58 59
3 9 55 56
3 8 57 58
3 8 56 57
3 7 8 58
3 8 9 56
3 4 31 48
3 12 35 54
3 31 48 49
3 35 53 54
3 31 49 50
3 35 52 53
3 31 32 50
3 34 35 52
3 32 33 50
3 33 34 52
3 33 50 51
3 33 51 52
3 48 49 60
3 49 60 50
3 50 60 61
3 50 51 61
3 51 52 61
3 61 62 52
3 52 53 62
3 53 54 62
3 54 55 63
3 55 56 63
3 56 63 64
3 56 57 64
3 64 65 57
3 57 58 65
3 58 59 65
3 48 59 65
