ply
format ascii 1.0
element vertex 66
property float x
property float y
property float z
property float u
property float v
element face 91
property list uchar int vertex_indices
end_header
-20.2675 -5.81207 20.6718 485.876 452.268
-19.9205 -0.698484 20.1848 484.849 472.272
-19.0753 4.37034 20.0217 485.831 492.313
-17.6175 9.2117 18.2039 488.988 511.816
-15.3316 13.6771 13.3612 494.973 530.358
-12.0765 17.7099 7.92189 504.799 547.683
-7.91764 21.0224 3.34241 518.603 562.584
-2.93433 23.1636 -0.694334 536.221 573.292
2.62072 23.2996 -4.24672 557.037 576.46
7.43668 22.2328 -0.939539 576.768 574.348
11.4721 19.7352 3.34568 594.291 566.296
14.8274 16.4786 8.07272 609.598 554.978
17.1505 12.5129 13.6825 621.382 540.41
18.3335 7.8409 18.7446 628.966 522.615
18.9213 2.59881 20.7449 633.945 502.469
19.1915 -2.87072 21.1501 637.507 481.365
19.1962 -8.32202 21.7124 640.061 460.206
-15.6686 -14.6946 0.110654 503.94 420.744
-13.7549 -16.4907 -1.62296 511.842 414.711
-11.2844 -17.3484 -3.01537 521.543 412.552
-8.68445 -17.5254 -4.39407 531.445 413.09
-6.16481 -17.1455 -5.72839 540.794 415.75
2.98816 -18.0488 -5.22888 576.745 416.335
5.98086 -19.1387 -3.96787 589.053 413.399
9.13373 -19.5342 -2.59024 601.693 413.224
12.2445 -18.8243 -1.29317 613.661 417.319
14.7294 -16.826 0.356118 622.693 426.114
-1.82784 -11.8216 -5.07662 555.336 438.313
-1.66723 -8.82652 -7.7341 554.14 450.109
-1.46845 -5.8563 -10.4837 553.087 461.83
-1.22152 -2.89571 -13.0906 552.25 473.529
-4.08386 1.10996 -6.30119 540.601 487.494
-2.5896 1.49502 -7.14953 546.064 489.693
-1.00034 1.51623 -7.94426 552.068 490.522
0.904438 1.1359 -7.17195 559.756 489.87
2.64327 0.421594 -6.32731 566.964 487.846
-12.0633 -9.97662 -1.2981 515.545 440.715
-10.3708 -11.3174 -1.21929 522.714 436.273
-8.15521 -11.4979 -1.0359 531.411 436.56
-6.27599 -10.6375 -0.77887 538.353 440.729
-8.11232 -9.79242 -1.12947 530.798 443.196
-10.1597 -9.48204 -1.20266 522.716 443.484
5.18134 -11.9376 -0.797248 583.314 440.831
7.00716 -13.1989 -0.854446 590.94 436.763
9.31072 -13.2238 -0.80634 599.883 437.698
11.3029 -12.2293 -0.705374 607.175 442.444
9.3966 -11.4713 -0.83042 599.429 444.533
7.23776 -11.3716 -0.973223 590.996 443.957
-3.84975 10.2032 -2.74021 538.092 522.711
-2.9898 8.16584 -4.96005 541.931 515.289
-1.59769 6.5475 -6.63454 547.744 509.708
0.274513 6.49442 -8.26657 554.725 510.411
2.26173 6.05275 -6.62751 562.917 509.522
4.13807 7.25019 -4.97178 569.95 514.939
5.76093 8.80819 -2.84361 575.926 521.62
4.42227 10.006 -4.01172 569.994 525.712
2.84453 10.842 -5.40623 563.257 528.303
0.990221 11.2881 -6.67009 555.646 529.253
-0.856478 11.4629 -5.35409 548.652 529.048
-2.5464 11.128 -4.01732 542.497 526.935
-0.747734 8.84364 -4.83022 550.338 518.918
0.494275 8.38185 -7.04624 554.954 517.777
1.96329 8.3008 -5.25016 561.006 518.048
1.85366 8.25202 -4.69603 560.703 517.786
0.53085 8.51562 -6.27028 555.177 518.28
-0.658272 8.74088 -4.39844 550.808 518.542
3 20 21 23
3 21 22 23
3 0 1 36
3 15 16 45
3 0 17 36
3 16 26 45
3 17 18 37
3 25 26 44
3 17 36 37
3 26 44 45
3 18 19 38
3 24 25 43
3 18 37 38
3 25 43 44
3 19 20 38
3 23 24 43
3 20 21 39
3 22 23 42
3 20 38 39
3 23 42 43
3 21 22 27
3 21 27 39
3 22 27 42
3 27 28 42
3 27 28 39
3 28 42 47
3 28 39 40
3 1 36 41
3 15 45 46
3 1 2 41
3 14 15 46
3 28 29 40
3 28 29 47
3 2 40 41
3 14 46 47
3 2 29 40
3 14 29 47
3 2 3 29
3 13 14 29
3 29 30 31
3 29 30 35
3 3 29 31
3 13 29 35
3 30 32 33
3 30 33 34
3 30 31 32
3 30 34 35
3 3 4 31
3 12 13 35
3 4 5 48
3 11 12 54
3 5 6 48
3 10 11 54
3 6 48 59
3 10 54 55
3 6 7 59
3 9 10 55
3 7 58 59
3 9 55 56
3 8 57 58
3 8 56 57
3 7 8 58
3 8 9 56
3 4 31 48
3 12 35 54
3 31 48 49
3 35 53 54
3 31 49 50
3 35 52 53
3 31 32 50
3 34 35 52
3 32 33 50
3 33 34 52
3 33 50 51
3 33 51 52
3 48 49 60
3 49 60 50
3 50 60 61
3 50 51 61
3 51 52 61
3 61 62 52
3 52 53 62
3 53 54 62
3 54 55 63
3 55 56 63
3 56 63 64
3 56 57 64
3 64 65 57
3 57 58 65
3 58 59 65
3 48 59 65
