ply
format ascii 1.0
element vertex 66
property float x
property float y
property float z
property float u
property float v
element face 91
property list uchar int vertex_indices
end_header
-19.948 -5.85437 20.7045 483.494 447.533
-19.6993 -0.77038 20.2108 482.016 467.745
-18.9788 4.28556 20.0892 482.46 488.021
-17.6692 9.07602 18.1703 485.11 507.771
-15.4916 13.4414 13.5513 491.019 526.618
-12.2362 17.2931 8.05473 501.299 544.071
-8.00253 20.3424 3.33821 515.915 558.723
-2.99449 22.2912 -0.644651 534.198 569.309
2.54755 22.2601 -4.13813 555.582 572.284
7.28322 21.342 -1.00516 575.091 570.499
11.289 19.0421 3.28324 592.529 562.769
14.7571 16.135 8.155 608.211 552.314
17.1886 12.4744 13.8312 620.272 538.291
18.3814 7.99397 18.7017 627.73 520.557
18.8907 2.85853 20.887 632.444 500.277
19.0902 -2.56405 21.2978 635.836 478.955
19.0678 -7.96748 21.83 638.361 457.586
-15.5211 -14.5755 0.0837007 502.284 418.028
-13.6267 -16.3069 -1.58376 510.34 412.329
-11.2293 -17.1906 -3.03862 520.007 410.18
-8.70761 -17.489 -4.42544 529.897 410.387
-6.24672 -17.2798 -5.78594 539.313 412.562
2.90214 -18.234 -5.23778 575.882 413.074
5.87873 -19.2227 -3.94431 588.247 410.42
9.00552 -19.5526 -2.55019 600.908 410.42
12.1014 -18.8648 -1.19116 612.964 414.418
14.6301 -16.9564 0.369854 622.238 422.929
-1.95283 -12.1271 -5.18511 553.887 434.819
-1.8168 -9.21318 -7.68719 552.718 446.697
-1.63678 -6.34304 -10.4529 551.708 458.458
-1.40167 -3.48961 -13.2266 550.921 470.181
-4.36359 1.02132 -6.3111 538.053 485.623
-2.78168 1.30045 -7.183 544.038 487.59
-1.13197 1.24436 -8.00909 550.454 488.262
0.86378 0.912418 -7.25213 558.574 487.801
2.73576 0.268641 -6.42618 566.363 486.044
-11.9294 -9.86718 -1.20149 514.049 438.453
-10.1899 -11.2682 -1.16228 521.567 433.755
-7.91197 -11.3926 -1.08115 530.611 434.336
-6.00146 -10.4168 -0.829663 537.713 439.054
-7.89957 -9.63674 -1.15143 529.824 441.268
-9.98792 -9.32674 -1.23733 521.439 441.509
4.98174 -11.7848 -0.849502 581.628 438.883
6.81524 -13.1983 -0.900489 589.51 434.192
9.17919 -13.3074 -0.704025 598.901 434.859
11.2571 -12.2893 -0.516467 606.635 439.831
9.32448 -11.4458 -0.809234 598.584 442.276
7.11111 -11.311 -0.959172 589.78 441.775
-5.19285 10.3477 -2.75116 530.874 521.495
-3.73778 8.46263 -4.88449 537.209 515.044
-1.90319 6.91698 -6.61423 544.933 510.057
0.33115 6.78508 -8.27718 553.576 510.82
2.67999 6.32366 -6.62037 563.269 509.897
5.00984 7.33632 -4.91198 572.201 514.765
7.24821 8.60822 -2.87557 580.693 520.567
5.58929 10.2216 -4.16287 573.226 526.307
3.53098 11.3578 -5.49354 564.404 529.983
1.12189 11.8877 -6.58313 554.518 531.072
-1.28185 12.1175 -5.39845 545.097 530.677
-3.50452 11.6154 -4.11048 536.748 527.472
-1.71347 9.15735 -4.89859 544.856 518.744
0.565813 8.57815 -7.25755 553.793 517.86
3.07737 8.40269 -5.40088 564.02 518.114
3.08044 8.80993 -4.80485 563.92 519.64
0.643001 9.211 -6.40201 553.914 520.275
-1.66455 9.52368 -4.43043 544.939 520.148
3 20 21 23
3 21 22 23
3 0 1 36
3 15 16 45
3 0 17 36
3 16 26 45
3 17 18 37
3 25 26 44
3 17 36 37
3 26 44 45
3 18 19 38
3 24 25 43
3 18 37 38
3 25 43 44
3 19 20 38
3 23 24 43
3 20 21 39
3 22 23 42
3 20 38 39
3 23 42 43
3 21 22 27
3 21 27 39
3 22 27 42
3 27 28 42
3 27 28 39
3 28 42 47
3 28 39 40
3 1 36 41
3 15 45 46
3 1 2 41
3 14 15 46
3 28 29 40
3 28 29 47
3 2 40 41
3 14 46 47
3 2 29 40
3 14 29 47
3 2 3 29
3 13 14 29
3 29 30 31
3 29 30 35
3 3 29 31
3 13 29 35
3 30 32 33
3 30 33 34
3 30 31 32
3 30 34 35
3 3 4 31
3 12 13 35
3 4 5 48
3 11 12 54
3 5 6 48
3 10 11 54
3 6 48 59
3 10 54 55
3 6 7 59
3 9 10 55
3 7 58 59
3 9 55 56
3 8 57 58
3 8 56 57
3 7 8 58
3 8 9 56
3 4 31 48
3 12 35 54
3 31 48 49
3 35 53 54
3 31 49 50
3 35 52 53
3 31 32 50
3 34 35 52
3 32 33 50
3 33 34 52
3 33 50 51
3 33 51 52
3 48 49 60
3 49 60 50
3 50 60 61
3 50 51 61
3 51 52 61
3 61 62 52
3 52 53 62
3 53 54 62
3 54 55 63
3 55 56 63
3 56 63 64
3 56 57 64
3 64 65 57
3 57 58 65
3 58 59 65
3 48 59 65
