ply
format ascii 1.0
element vertex 66
property float x
property float y
property float z
property float u
property float v
element face 91
property list uchar int vertex_indices
end_header
-20.0238 -5.79536 20.7104 482.796 448.62
-19.7652 -0.726049 20.221 481.379 468.762
-19.0432 4.31591 20.1084 481.854 488.962
-17.7387 9.08379 18.161 484.485 508.612
-15.5568 13.4261 13.5527 490.384 527.368
-12.2817 17.2588 8.05988 500.697 544.756
-8.02032 20.2836 3.35487 515.383 559.321
-2.99123 22.2181 -0.647882 533.7 569.858
2.57047 22.177 -4.1516 555.106 572.802
7.3355 21.3179 -1.0071 574.716 571.232
11.4106 19.1023 3.28886 592.409 563.838
14.9368 16.2435 8.15846 608.324 553.575
17.3604 12.5787 13.8518 620.393 539.506
18.4757 8.06001 18.7378 627.594 521.571
18.9287 2.86629 20.9276 632.115 501.04
19.1106 -2.62288 21.3424 635.45 479.464
19.0905 -8.08975 21.9007 638.001 457.861
-15.5876 -14.4858 0.0785627 501.337 419.359
-13.6475 -16.24 -1.58924 509.551 413.6
-11.2104 -17.1324 -3.04691 519.351 411.438
-8.6524 -17.435 -4.43178 529.361 411.644
-6.16194 -17.2156 -5.78821 538.866 413.869
2.81586 -18.1857 -5.23917 574.737 414.206
5.85169 -19.1932 -3.95602 587.341 411.494
9.04006 -19.5197 -2.56994 600.244 411.52
12.1955 -18.8032 -1.21407 612.525 415.64
14.78 -16.8495 0.352272 622.013 424.331
-1.96916 -12.117 -5.18513 553.08 435.829
-1.80573 -9.15032 -7.69248 551.978 447.929
-1.59901 -6.2286 -10.4666 551.03 459.91
-1.33929 -3.32186 -13.2421 550.297 471.856
-4.2783 1.04575 -6.3088 537.69 486.703
-2.73235 1.31577 -7.18439 543.524 488.615
-1.12043 1.25573 -8.01107 549.777 489.253
0.841852 0.929496 -7.25753 557.762 488.79
2.68505 0.298168 -6.41255 565.434 487.057
-11.9512 -9.82465 -1.19033 513.294 439.594
-10.2061 -11.173 -1.16236 520.797 435.106
-7.95934 -11.3001 -1.0903 529.71 435.655
-6.05352 -10.3922 -0.859555 536.822 440.094
-7.94783 -9.66977 -1.15492 528.986 442.086
-10.0152 -9.3564 -1.23626 520.69 442.356
5.00449 -11.7658 -0.85664 580.99 439.899
6.85164 -13.1264 -0.905179 588.888 435.422
9.19365 -13.2235 -0.720367 598.179 436.118
11.2772 -12.2631 -0.539484 605.958 440.855
9.33248 -11.4928 -0.823839 597.903 443.009
7.1332 -11.3563 -0.964798 589.162 442.53
-5.34386 10.2605 -2.76454 529.71 521.978
-3.82183 8.4042 -4.87757 536.262 515.682
-1.9426 6.90041 -6.59706 544.113 510.887
0.311756 6.76666 -8.25899 552.809 511.653
2.68004 6.31189 -6.63384 562.578 510.754
5.05083 7.29089 -4.92896 571.699 515.489
7.35876 8.52376 -2.89483 580.502 521.148
5.62381 10.1188 -4.15606 572.747 526.783
3.50602 11.2231 -5.48123 563.705 530.314
1.06627 11.7327 -6.55697 553.709 531.319
-1.36114 11.9768 -5.36971 544.211 530.971
-3.61501 11.5001 -4.09776 535.745 527.857
-1.82171 9.10685 -4.91487 543.802 519.395
0.529544 8.52822 -7.28612 552.985 518.554
3.10906 8.35052 -5.43328 563.489 518.814
3.10833 8.73307 -4.81476 563.397 520.234
0.592556 9.10579 -6.41023 553.09 520.736
-1.78962 9.44496 -4.42301 543.842 520.673
3 20 21 23
3 21 22 23
3 0 1 36
3 15 16 45
3 0 17 36
3 16 26 45
3 17 18 37
3 25 26 44
3 17 36 37
3 26 44 45
3 18 19 38
3 24 25 43
3 18 37 38
3 25 43 44
3 19 20 38
3 23 24 43
3 20 21 39
3 22 23 42
3 20 38 39
3 23 42 43
3 21 22 27
3 21 27 39
3 22 27 42
3 27 28 42
3 27 28 39
3 28 42 47
3 28 39 40
3 1 36 41
3 15 45 46
3 1 2 41
3 14 15 46
3 28 29 40
3 28 29 47
3 2 40 41
3 14 46 47
3 2 29 40
3 14 29 47
3 2 3 29
3 13 14 29
3 29 30 31
3 29 30 35
3 3 29 31
3 13 29 35
3 30 32 33
3 30 33 34
3 30 31 32
3 30 34 35
3 3 4 31
3 12 13 35
3 4 5 48
3 11 12 54
3 5 6 48
3 10 11 54
3 6 48 59
3 10 54 55
3 6 7 59
3 9 10 55
3 7 58 59
3 9 55 56
3 8 57 58
3 8 56 57
3 7 8 58
3 8 9 56
3 4 31 48
3 12 35 54
3 31 48 49
3 35 53 54
3 31 49 50
3 35 52 53
3 31 32 50
3 34 35 52
3 32 33 50
3 33 34 52
3 33 50 51
3 33 51 52
3 48 49 60
3 49 60 50
3 50 60 61
3 50 51 61
3 51 52 61
3 61 62 52
3 52 53 62
3 53 54 62
3 54 55 63
3 55 56 63
3 56 63 64
3 56 57 64
3 64 65 57
3 57 58 65
3 58 59 65
3 48 59 65
