ply
format ascii 1.0
element vertex 66
property float x
property float y
property float z
property float u
property float v
element face 91
property list uchar int vertex_indices
end_header
-20.0418 -5.93648 20.7581 484.212 447.034
-19.7926 -0.792392 20.2941 482.772 467.433
-19.0639 4.3166 20.1146 483.277 487.865
-17.7247 9.17432 18.2028 486.027 507.908
-15.5105 13.5957 13.5236 491.986 527.143
-12.2114 17.4569 8.01055 502.334 544.832
-7.95111 20.4995 3.30908 516.957 559.605
-2.94128 22.449 -0.670497 535.135 570.302
2.5907 22.4356 -4.1794 556.333 573.446
7.34953 21.4517 -0.938873 575.979 571.199
11.3572 19.0701 3.3135 593.468 562.932
14.7907 16.0558 8.15496 609.081 551.808
17.203 12.3112 13.8106 621.141 537.196
18.4177 7.80173 18.697 628.726 519.165
18.9384 2.69591 20.8144 633.428 498.972
19.1111 -2.66218 21.213 636.612 477.94
19.0356 -7.99896 21.726 638.829 456.855
-15.539 -14.7895 0.115324 502.75 418.095
-13.6456 -16.5787 -1.56708 510.745 412.251
-11.2046 -17.4836 -3.00411 520.526 410.089
-8.62633 -17.7468 -4.37178 530.564 410.497
-6.11325 -17.4744 -5.7212 540.105 412.975
2.96411 -18.3559 -5.22376 576.247 413.627
5.93246 -19.3004 -3.94574 588.537 411.061
9.04298 -19.5824 -2.58077 601.097 411.146
12.0924 -18.8116 -1.23881 612.934 415.342
14.5104 -16.808 0.389382 621.771 424.035
-1.83638 -12.0911 -5.14907 554.54 435.991
-1.71437 -9.26232 -7.66304 553.341 447.611
-1.55274 -6.4737 -10.4336 552.275 459.139
-1.33911 -3.7041 -13.2308 551.419 470.62
-4.37292 1.06456 -6.37373 538.384 486.699
-2.73513 1.36464 -7.18752 544.556 488.783
-1.02823 1.32079 -7.98043 551.16 489.545
0.98552 0.991576 -7.22798 559.338 489.048
2.86586 0.342441 -6.43753 567.143 487.227
-11.8441 -9.89209 -1.17275 514.834 439.271
-10.1139 -11.4058 -1.18771 522.319 434.131
-7.7762 -11.5021 -1.12592 531.557 434.824
-5.8634 -10.3404 -0.773298 538.597 440.208
-7.76938 -9.45262 -1.12496 530.649 442.875
-9.8955 -9.1711 -1.21142 522.154 443.012
4.75195 -11.5592 -0.829081 580.849 440.348
6.56105 -13.1029 -0.971117 588.639 435.149
8.96168 -13.2375 -0.776648 598.162 435.697
11.0063 -12.0678 -0.551055 605.696 441.196
9.09719 -11.0793 -0.832758 597.702 444.245
6.87069 -10.9531 -0.975673 588.874 443.735
-5.18937 10.3148 -2.71489 531.522 521.982
-3.74981 8.42072 -4.90377 537.704 515.607
-1.92647 6.84813 -6.64505 545.316 510.592
0.320069 6.73696 -8.26774 553.942 511.49
2.67435 6.28319 -6.61865 563.653 510.499
4.96969 7.34537 -4.90098 572.452 515.422
7.14145 8.67656 -2.81347 580.7 521.277
5.51936 10.2538 -4.10155 573.408 526.952
3.48673 11.3464 -5.48874 564.71 530.553
1.11236 11.8542 -6.62229 554.974 531.653
-1.27637 12.0635 -5.44118 545.677 531.155
-3.48941 11.561 -4.12424 537.415 527.918
-1.64406 9.1163 -4.91284 545.658 519.315
0.56193 8.57238 -7.22782 554.215 518.621
2.99061 8.41699 -5.32385 564.122 518.79
3.00334 8.79443 -4.75643 564.088 520.175
0.650775 9.15981 -6.45509 554.416 520.828
-1.57944 9.45379 -4.47037 545.826 520.591
3 20 21 23
3 21 22 23
3 0 1 36
3 15 16 45
3 0 17 36
3 16 26 45
3 17 18 37
3 25 26 44
3 17 36 37
3 26 44 45
3 18 19 38
3 24 25 43
3 18 37 38
3 25 43 44
3 19 20 38
3 23 24 43
3 20 21 39
3 22 23 42
3 20 38 39
3 23 42 43
3 21 22 27
3 21 27 39
3 22 27 42
3 27 28 42
3 27 28 39
3 28 42 47
3 28 39 40
3 1 36 41
3 15 45 46
3 1 2 41
3 14 15 46
3 28 29 40
3 28 29 47
3 2 40 41
3 14 46 47
3 2 29 40
3 14 29 47
3 2 3 29
3 13 14 29
3 29 30 31
3 29 30 35
3 3 29 31
3 13 29 35
3 30 32 33
3 30 33 34
3 30 31 32
3 30 34 35
3 3 4 31
3 12 13 35
3 4 5 48
3 11 12 54
3 5 6 48
3 10 11 54
3 6 48 59
3 10 54 55
3 6 7 59
3 9 10 55
3 7 58 59
3 9 55 56
3 8 57 58
3 8 56 57
3 7 8 58
3 8 9 56
3 4 31 48
3 12 35 54
3 31 48 49
3 35 53 54
3 31 49 50
3 35 52 53
3 31 32 50
3 34 35 52
3 32 33 50
3 33 34 52
3 33 50 51
3 33 51 52
3 48 49 60
3 49 60 50
3 50 60 61
3 50 51 61
3 51 52 61
3 61 62 52
3 52 53 62
3 53 54 62
3 54 55 63
3 55 56 63
3 56 63 64
3 56 57 64
3 64 65 57
3 57 58 65
3 58 59 65
3 48 59 65
