ply
format ascii 1.0
element vertex 66
property float x
property float y
property float z
property float u
property float v
element face 91
property list uchar int vertex_indices
end_header
-20.2128 -6.05525 20.8191 485.498 445.998
-19.8539 -0.761843 20.3152 484.732 466.714
-19.0248 4.49443 20.0883 485.84 487.394
-17.627 9.53928 18.286 488.993 507.958
-15.4628 14.1571 13.374 494.806 528.11
-12.231 18.1778 7.8849 504.896 546.562
-8.01719 21.335 3.30392 519.259 561.808
-3.0233 23.2967 -0.692113 537.198 572.582
2.47223 23.3282 -4.27309 557.897 575.988
7.30668 22.1352 -0.797593 577.589 572.298
11.2765 19.4251 3.42868 594.646 562.184
14.5745 16.0218 8.10982 609.446 548.988
16.9236 11.9924 13.6564 620.953 532.737
18.2674 7.39761 18.6175 628.705 514.073
18.9501 2.3528 20.5877 633.625 494.299
19.1976 -2.88404 20.9096 636.687 474.1
19.1209 -8.10231 21.4018 638.513 453.791
-15.7477 -14.6294 0.0873796 502.995 420.904
-13.8758 -16.5696 -1.65709 510.732 414.694
-11.3713 -17.5745 -3.01233 520.607 412.232
-8.68402 -17.7961 -4.35174 530.885 412.86
-6.04485 -17.4393 -5.65538 540.754 415.69
3.26505 -18.1838 -5.27913 577.109 416.46
6.13488 -19.1013 -4.01424 588.76 413.701
9.14215 -19.3742 -2.64992 600.705 413.454
12.0697 -18.5881 -1.34454 611.916 417.278
14.3477 -16.5914 0.349912 620.199 425.395
-1.53481 -12.0646 -5.09063 556.172 438.075
-1.46728 -9.21539 -7.71892 554.917 449.878
-1.36839 -6.38771 -10.4452 553.776 461.64
-1.22467 -3.57187 -13.0665 552.83 473.343
-4.095 0.881701 -6.31253 541.003 487.352
-2.50959 1.2732 -7.12288 546.858 489.743
-0.828125 1.30589 -7.92451 553.227 490.787
1.0734 0.957358 -7.10013 560.842 489.963
2.80499 0.273861 -6.29595 567.93 487.785
-11.6543 -10.1132 -1.35477 516.834 440.408
-10.0593 -11.3758 -1.25083 523.515 436.149
-7.96166 -11.5631 -1.00873 531.737 436.2
-6.16826 -10.7252 -0.651621 538.398 440.05
-7.90338 -9.84786 -1.07766 531.279 442.862
-9.85259 -9.57108 -1.19795 523.613 443.179
5.10463 -11.8493 -0.783723 582.418 440.299
6.8107 -12.9554 -0.86628 589.438 436.744
8.94418 -12.9728 -0.861657 597.696 437.536
10.746 -11.9698 -0.780087 604.284 442.108
8.98511 -11.2132 -0.866524 597.163 444.343
6.97933 -11.1763 -0.982788 589.374 443.711
-3.95377 10.4438 -2.74734 538.334 523.235
-3.10066 8.28249 -5.01068 542.14 515.916
-1.68143 6.46549 -6.68676 548.088 509.978
0.312322 6.39083 -8.25676 555.591 510.963
2.39725 5.99135 -6.55145 564.069 509.754
4.25288 7.39189 -4.90451 570.945 515.414
5.74077 9.17474 -2.78049 576.321 522.259
4.46622 10.3047 -3.92179 570.776 526.444
2.93532 11.1004 -5.34939 564.326 529.322
1.08021 11.5173 -6.71032 556.782 530.588
-0.814885 11.6707 -5.40628 549.59 530.027
-2.55123 11.337 -4.03202 543.214 527.63
-0.646399 8.84853 -4.89298 551.427 519.054
0.571649 8.3466 -6.987 556.018 518.234
1.99942 8.37677 -5.10591 561.813 518.365
1.91016 8.51406 -4.57904 561.493 518.701
0.669803 8.77209 -6.32912 556.33 519.719
-0.476314 8.94987 -4.48127 552.107 519.391
3 20 21 23
3 21 22 23
3 0 1 36
3 15 16 45
3 0 17 36
3 16 26 45
3 17 18 37
3 25 26 44
3 17 36 37
3 26 44 45
3 18 19 38
3 24 25 43
3 18 37 38
3 25 43 44
3 19 20 38
3 23 24 43
3 20 21 39
3 22 23 42
3 20 38 39
3 23 42 43
3 21 22 27
3 21 27 39
3 22 27 42
3 27 28 42
3 27 28 39
3 28 42 47
3 28 39 40
3 1 36 41
3 15 45 46
3 1 2 41
3 14 15 46
3 28 29 40
3 28 29 47
3 2 40 41
3 14 46 47
3 2 29 40
3 14 29 47
3 2 3 29
3 13 14 29
3 29 30 31
3 29 30 35
3 3 29 31
3 13 29 35
3 30 32 33
3 30 33 34
3 30 31 32
3 30 34 35
3 3 4 31
3 12 13 35
3 4 5 48
3 11 12 54
3 5 6 48
3 10 11 54
3 6 48 59
3 10 54 55
3 6 7 59
3 9 10 55
3 7 58 59
3 9 55 56
3 8 57 58
3 8 56 57
3 7 8 58
3 8 9 56
3 4 31 48
3 12 35 54
3 31 48 49
3 35 53 54
3 31 49 50
3 35 52 53
3 31 32 50
3 34 35 52
3 32 33 50
3 33 34 52
3 33 50 51
3 33 51 52
3 48 49 60
3 49 60 50
3 50 60 61
3 50 51 61
3 51 52 61
3 61 62 52
3 52 53 62
3 53 54 62
3 54 55 63
3 55 56 63
3 56 63 64
3 56 57 64
3 64 65 57
3 57 58 65
3 58 59 65
3 48 59 65
