ply
format ascii 1.0
element vertex 66
property float x
property float y
property float z
property float u
property float v
element face 91
property list uchar int vertex_indices
end_header
-20.2465 -6.04959 21.178 482.933 449.594
-19.6916 -0.711573 20.6225 483.478 470.502
-18.7686 4.59343 20.2906 485.442 491.353
-17.5043 9.66414 18.3985 488.906 511.692
-15.5995 14.2454 13.5257 495.205 530.889
-12.5369 18.168 7.99135 506.232 548.014
-8.45824 21.2542 3.31788 521.388 562.054
-3.61548 23.2326 -0.795267 539.802 571.939
1.76242 23.3944 -4.47717 560.817 574.884
6.905 22.4777 -0.824814 580.745 572.222
11.2103 19.8721 3.42906 597.912 562.665
14.7063 16.3901 8.13988 612.184 549.389
17.1411 12.2482 13.7217 622.494 533.077
18.3901 7.53527 18.6049 628.438 514.328
18.9856 2.35584 20.6354 632.194 494.108
19.2522 -3.04311 21.0395 634.857 473.242
19.188 -8.42983 21.5214 636.232 452.308
-16.3838 -14.2715 0.096316 501.863 422.908
-14.3258 -16.2906 -1.63888 510.567 416.051
-11.6783 -17.3414 -3.01013 521.229 413.048
-8.85966 -17.5979 -4.33488 532.306 413.159
-6.09161 -17.2383 -5.57301 542.991 415.621
2.86986 -17.6889 -5.3902 577.793 416.568
5.74555 -18.6168 -4.11845 589.118 413.617
8.78548 -18.8864 -2.75872 600.87 413.245
11.7949 -18.2445 -1.3903 612.223 416.386
14.3238 -16.4538 0.277517 621.343 423.766
-1.15266 -12.0905 -4.97737 560.479 436.911
-0.969751 -9.02915 -7.78089 560.439 449.324
-0.777205 -5.99169 -10.6339 560.448 461.656
-0.561229 -2.95214 -13.2937 560.533 473.967
-3.1938 1.2424 -6.40808 548.581 488.101
-1.71677 1.54426 -7.23603 554.261 489.871
-0.168746 1.55765 -7.99914 560.299 490.535
1.47182 1.2823 -7.1775 566.676 489.816
2.9855 0.721371 -6.40828 572.652 487.964
-12.3424 -9.99139 -1.0525 516.265 440.896
-10.5352 -11.2492 -1.17044 523.652 436.605
-8.28872 -11.448 -1.18609 532.407 436.521
-6.32879 -10.5685 -0.985661 539.707 440.479
-8.27526 -9.87321 -1.17136 531.974 442.611
-10.3714 -9.60999 -1.14273 523.78 442.986
4.99953 -11.4834 -0.972721 583.822 440.382
6.82706 -12.6395 -1.08265 591.256 436.488
9.08265 -12.7117 -0.91761 599.995 436.863
11.0749 -11.7628 -0.660484 607.394 441.089
9.16354 -11.1143 -0.886051 599.815 443.057
7.0371 -11.0585 -1.02131 591.579 442.652
-5.37355 9.36195 -2.73047 537.397 518.143
-3.76363 7.47461 -4.97133 544.361 511.753
-1.77387 6.0497 -6.67912 552.617 507.167
0.538581 5.98534 -8.31615 561.697 507.926
2.88374 5.65519 -6.51035 570.749 507.026
5.13386 6.70337 -4.8149 579.016 511.446
7.13712 8.22712 -2.65489 586.15 517.543
5.51979 9.7981 -3.90346 579.495 523.357
3.45756 10.8437 -5.20523 571.284 527.015
1.05889 11.2274 -6.63429 561.983 528.036
-1.35124 11.3011 -5.30672 552.543 527.341
-3.56952 10.6705 -3.96209 544.06 523.979
-1.56002 8.25169 -5.05926 552.655 515.443
0.719892 7.88045 -7.18985 561.739 515.097
3.09099 7.80359 -5.11307 570.794 515.134
3.13031 8.24363 -4.50568 570.769 516.734
0.785789 8.49842 -6.27734 561.741 517.337
-1.52051 8.68304 -4.47961 552.636 517.015
3 20 21 23
3 21 22 23
3 0 1 36
3 15 16 45
3 0 17 36
3 16 26 45
3 17 18 37
3 25 26 44
3 17 36 37
3 26 44 45
3 18 19 38
3 24 25 43
3 18 37 38
3 25 43 44
3 19 20 38
3 23 24 43
3 20 21 39
3 22 23 42
3 20 38 39
3 23 42 43
3 21 22 27
3 21 27 39
3 22 27 42
3 27 28 42
3 27 28 39
3 28 42 47
3 28 39 40
3 1 36 41
3 15 45 46
3 1 2 41
3 14 15 46
3 28 29 40
3 28 29 47
3 2 40 41
3 14 46 47
3 2 29 40
3 14 29 47
3 2 3 29
3 13 14 29
3 29 30 31
3 29 30 35
3 3 29 31
3 13 29 35
3 30 32 33
3 30 33 34
3 30 31 32
3 30 34 35
3 3 4 31
3 12 13 35
3 4 5 48
3 11 12 54
3 5 6 48
3 10 11 54
3 6 48 59
3 10 54 55
3 6 7 59
3 9 10 55
3 7 58 59
3 9 55 56
3 8 57 58
3 8 56 57
3 7 8 58
3 8 9 56
3 4 31 48
3 12 35 54
3 31 48 49
3 35 53 54
3 31 49 50
3 35 52 53
3 31 32 50
3 34 35 52
3 32 33 50
3 33 34 52
3 33 50 51
3 33 51 52
3 48 49 60
3 49 60 50
3 50 60 61
3 50 51 61
3 51 52 61
3 61 62 52
3 52 53 62
3 53 54 62
3 54 55 63
3 55 56 63
3 56 63 64
3 56 57 64
3 64 65 57
3 57 58 65
3 58 59 65
3 48 59 65
