ply
format ascii 1.0
element vertex 66
property float x
property float y
property float z
property float u
property float v
element face 91
property list uchar int vertex_indices
end_header
-19.8411 -6.0967 20.5828 482.119 451.138
-19.6122 -0.925576 20.1266 480.791 471.711
-18.906 4.21514 20.0065 481.405 492.345
-17.5826 9.08553 18.1701 484.356 512.272
-15.4321 13.5446 13.4631 490.386 531.093
-12.2351 17.5508 8.02562 500.65 548.609
-8.02015 20.7486 3.35703 515.376 563.313
-2.98672 22.8046 -0.636675 533.903 573.808
2.6231 22.8416 -4.17124 555.616 576.535
7.42912 21.9015 -0.979319 575.414 574.66
11.4714 19.5444 3.30187 592.926 566.793
14.895 16.5035 8.1178 608.349 555.929
17.2096 12.6912 13.7383 619.813 541.499
18.3134 8.11452 18.6837 626.727 523.574
18.7957 2.89718 20.7682 631.092 503.023
18.9552 -2.60386 21.1679 634.088 481.313
18.8926 -8.08138 21.6745 636.208 459.596
-15.381 -14.7022 0.0465393 500.771 420.212
-13.4841 -16.444 -1.63355 508.789 414.226
-11.079 -17.2959 -3.04897 518.476 411.957
-8.55803 -17.5344 -4.44858 528.364 412.163
-6.11291 -17.245 -5.819 537.735 414.422
2.61342 -18.0802 -5.26208 572.652 414.775
5.5835 -19.1393 -3.95985 585.003 411.764
8.71838 -19.5197 -2.56612 597.732 411.503
11.8334 -18.8566 -1.2618 609.932 415.364
14.3782 -16.9309 0.31276 619.381 423.961
-1.96411 -12.2372 -5.20012 552.107 435.942
-1.8087 -9.24965 -7.7092 551.147 447.97
-1.6114 -6.298 -10.4054 550.344 459.885
-1.3585 -3.35952 -13.0541 549.773 471.769
-4.03666 0.738505 -6.15687 538.335 486.434
-2.61315 0.988993 -7.07474 543.741 488.08
-1.11866 0.931476 -7.94155 549.563 488.536
0.730971 0.622057 -7.11229 557.11 488.045
2.44814 0.0265435 -6.23805 564.259 486.364
-11.7766 -10.1459 -1.37823 512.922 439.837
-10.1041 -11.5013 -1.20497 520.126 435.174
-7.9009 -11.6532 -0.973987 528.928 435.491
-6.05869 -10.7506 -0.712133 535.864 439.823
-7.87783 -9.93853 -1.13545 528.278 442.291
-9.90306 -9.624 -1.24559 520.126 442.685
4.93064 -12.0661 -0.719706 579.857 439.267
6.71245 -13.3854 -0.790897 587.447 434.807
9.0059 -13.4426 -0.753025 596.542 435.548
11.0066 -12.4587 -0.698382 604.044 440.281
9.13214 -11.6566 -0.819761 596.281 442.668
6.98239 -11.5428 -0.938289 587.72 442.216
-3.86556 10.7718 -2.80775 535.216 525.983
-2.97124 8.65726 -4.95507 539.368 518.126
-1.58029 6.86501 -6.63787 545.408 511.727
0.351757 6.7268 -8.28307 552.895 512.095
2.41233 6.32864 -6.61267 561.419 511.292
4.34221 7.66046 -4.96554 568.697 517.276
6.06468 9.24613 -2.93961 575.095 524.155
4.70239 10.4548 -4.14859 569.049 528.43
3.08426 11.3245 -5.4858 562.117 531.265
1.14092 11.7784 -6.6485 554.097 532.307
-0.790381 12.0019 -5.41645 546.524 532.301
-2.52955 11.683 -4.11048 539.949 530.228
-0.861324 9.19696 -4.78833 547.503 521.142
0.585224 8.55061 -7.04768 553.207 519.332
2.29506 8.57145 -5.26913 560.183 520.032
2.19905 8.78051 -4.74938 559.781 520.787
0.66016 9.07081 -6.24093 553.387 521.373
-0.732677 9.34612 -4.38643 548 521.763
3 20 21 23
3 21 22 23
3 0 1 36
3 15 16 45
3 0 17 36
3 16 26 45
3 17 18 37
3 25 26 44
3 17 36 37
3 26 44 45
3 18 19 38
3 24 25 43
3 18 37 38
3 25 43 44
3 19 20 38
3 23 24 43
3 20 21 39
3 22 23 42
3 20 38 39
3 23 42 43
3 21 22 27
3 21 27 39
3 22 27 42
3 27 28 42
3 27 28 39
3 28 42 47
3 28 39 40
3 1 36 41
3 15 45 46
3 1 2 41
3 14 15 46
3 28 29 40
3 28 29 47
3 2 40 41
3 14 46 47
3 2 29 40
3 14 29 47
3 2 3 29
3 13 14 29
3 29 30 31
3 29 30 35
3 3 29 31
3 13 29 35
3 30 32 33
3 30 33 34
3 30 31 32
3 30 34 35
3 3 4 31
3 12 13 35
3 4 5 48
3 11 12 54
3 5 6 48
3 10 11 54
3 6 48 59
3 10 54 55
3 6 7 59
3 9 10 55
3 7 58 59
3 9 55 56
3 8 57 58
3 8 56 57
3 7 8 58
3 8 9 56
3 4 31 48
3 12 35 54
3 31 48 49
3 35 53 54
3 31 49 50
3 35 52 53
3 31 32 50
3 34 35 52
3 32 33 50
3 33 34 52
3 33 50 51
3 33 51 52
3 48 49 60
3 49 60 50
3 50 60 61
3 50 51 61
3 51 52 61
3 61 62 52
3 52 53 62
3 53 54 62
3 54 55 63
3 55 56 63
3 56 63 64
3 56 57 64
3 64 65 57
3 57 58 65
3 58 59 65
3 48 59 65
