ply
format ascii 1.0
element vertex 66
property float x
property float y
property float z
property float u
property float v
element face 91
property list uchar int vertex_indices
end_header
-19.5204 -6.0701 21.0784 480.91 451.616
-19.0732 -0.781275 20.5242 481.497 472.955
-18.2956 4.48911 20.2349 483.39 494.23
-17.165 9.48462 18.3005 486.87 514.897
-15.4032 13.9678 13.68 493.176 534.328
-12.4903 17.7894 8.07297 504.305 551.627
-8.48944 20.725 3.22968 519.936 565.453
-3.76806 22.6882 -0.784323 538.618 575.36
1.51493 22.8421 -4.42953 559.942 578.087
6.63218 22.0487 -0.840955 580.333 575.21
10.8958 19.5167 3.33041 597.679 565.057
14.4242 16.2215 8.18046 612.22 551.523
16.8609 12.2334 13.8112 622.507 534.782
18.104 7.63661 18.4893 628.232 515.573
18.6351 2.52238 20.6012 631.408 494.771
18.7922 -2.85774 20.9873 633.269 473.248
18.6485 -8.22225 21.4121 633.921 451.709
-15.9379 -14.7737 0.0977048 498.696 422.898
-13.9569 -16.6821 -1.52728 507.17 416.141
-11.4287 -17.6693 -2.93987 517.601 413.132
-8.75622 -17.9317 -4.31059 528.436 413.037
-6.14119 -17.6105 -5.61147 538.899 415.24
2.65979 -18.0428 -5.43099 574.159 415.49
5.43549 -18.9347 -4.09916 585.369 412.241
8.38318 -19.1859 -2.70631 597.112 411.571
11.3165 -18.5705 -1.29965 608.594 414.352
13.7877 -16.8333 0.281385 617.955 421.459
-1.20102 -12.3298 -5.08391 557.369 437.31
-1.01594 -9.42936 -7.71022 557.609 449.572
-0.822722 -6.56367 -10.5015 557.9 461.738
-0.605278 -3.70316 -13.2448 558.286 473.878
-3.1122 0.705979 -6.20387 546.755 489.153
-1.66361 0.866417 -7.1476 552.571 490.359
-0.1722 0.798338 -8.01464 558.606 490.644
1.40992 0.601014 -7.10859 564.913 489.996
2.90223 0.167336 -6.29939 570.923 488.408
-12.1309 -10.1851 -1.07193 512.915 442.367
-10.4016 -11.5053 -1.06838 520.134 437.496
-8.17874 -11.6722 -1.07939 529.057 437.343
-6.30792 -10.6867 -0.925837 536.292 441.666
-8.17794 -9.91243 -1.18981 528.656 444.391
-10.2328 -9.66088 -1.1645 520.384 444.916
4.78598 -11.5839 -0.870566 580.832 440.619
6.49911 -12.8508 -1.01723 587.985 435.995
8.72572 -12.9738 -0.845782 596.9 435.973
10.6704 -11.9799 -0.672778 604.427 440.342
8.8614 -11.1741 -0.889728 597.023 443.194
6.77189 -11.1018 -0.992972 588.663 443.029
-5.30218 10.033 -2.82927 535.59 525.026
-3.58775 8.23566 -4.95322 543.007 518.774
-1.62788 6.69491 -6.68091 551.317 513.504
0.689822 6.5669 -8.39305 560.726 513.948
3.04096 6.28253 -6.50312 570.059 512.886
5.28322 7.42134 -4.79462 578.637 517.522
7.38304 8.81445 -2.72706 586.561 523.051
5.83106 10.5268 -4.11227 580.052 529.869
3.76036 11.7337 -5.34307 571.579 534.512
1.2361 12.182 -6.66383 561.477 536.047
-1.28947 12.2205 -5.44381 551.292 535.32
-3.53215 11.4643 -4.14189 542.418 531.467
-1.61619 8.81454 -5.02114 550.755 521.553
0.864181 8.28065 -7.2779 560.946 520.549
3.44545 8.31803 -5.10151 571.104 520.754
3.53941 9.23699 -4.54712 571.226 524.304
0.977543 9.61761 -6.20971 561.013 525.645
-1.5586 9.73032 -4.48446 550.734 525.087
3 20 21 23
3 21 22 23
3 0 1 36
3 15 16 45
3 0 17 36
3 16 26 45
3 17 18 37
3 25 26 44
3 17 36 37
3 26 44 45
3 18 19 38
3 24 25 43
3 18 37 38
3 25 43 44
3 19 20 38
3 23 24 43
3 20 21 39
3 22 23 42
3 20 38 39
3 23 42 43
3 21 22 27
3 21 27 39
3 22 27 42
3 27 28 42
3 27 28 39
3 28 42 47
3 28 39 40
3 1 36 41
3 15 45 46
3 1 2 41
3 14 15 46
3 28 29 40
3 28 29 47
3 2 40 41
3 14 46 47
3 2 29 40
3 14 29 47
3 2 3 29
3 13 14 29
3 29 30 31
3 29 30 35
3 3 29 31
3 13 29 35
3 30 32 33
3 30 33 34
3 30 31 32
3 30 34 35
3 3 4 31
3 12 13 35
3 4 5 48
3 11 12 54
3 5 6 48
3 10 11 54
3 6 48 59
3 10 54 55
3 6 7 59
3 9 10 55
3 7 58 59
3 9 55 56
3 8 57 58
3 8 56 57
3 7 8 58
3 8 9 56
3 4 31 48
3 12 35 54
3 31 48 49
3 35 53 54
3 31 49 50
3 35 52 53
3 31 32 50
3 34 35 52
3 32 33 50
3 33 34 52
3 33 50 51
3 33 51 52
3 48 49 60
3 49 60 50
3 50 60 61
3 50 51 61
3 51 52 61
3 61 62 52
3 52 53 62
3 53 54 62
3 54 55 63
3 55 56 63
3 56 63 64
3 56 57 64
3 64 65 57
3 57 58 65
3 58 59 65
3 48 59 65
