ply
format ascii 1.0
element vertex 66
property float x
property float y
property float z
property float u
property float v
element face 91
property list uchar int vertex_indices
end_header
-19.5413 -6.00854 21.0925 481.971 450.858
-19.0446 -0.725446 20.4702 482.48 472.247
-18.1758 4.53262 20.1531 484.465 493.572
-16.9996 9.50494 18.3607 487.862 514.18
-15.2499 13.9161 13.7283 493.911 533.358
-12.4279 17.7057 8.09281 504.498 550.586
-8.56082 20.7192 3.23644 519.435 564.832
-3.91945 22.7456 -0.798399 537.697 575.166
1.34146 22.9026 -4.35407 558.944 578.098
6.50457 22.1082 -0.839306 579.587 575.584
10.704 19.4691 3.35101 596.859 565.272
14.1375 16.0863 8.18458 611.237 551.625
16.6025 12.1488 13.8057 621.845 535.308
17.9799 7.64592 18.4965 628.329 516.636
18.6327 2.57224 20.4895 632.264 496.096
18.9032 -2.78688 20.9168 634.859 474.665
18.8075 -8.13869 21.3607 635.986 453.156
-15.8821 -14.7849 0.0603288 500.579 421.644
-13.8895 -16.6575 -1.52435 509.199 415.09
-11.3681 -17.6199 -2.91549 519.658 412.278
-8.71198 -17.8797 -4.2885 530.454 412.307
-6.10323 -17.6113 -5.61948 540.905 414.423
2.63734 -18.0741 -5.41379 575.992 415.005
5.37861 -18.9206 -4.05375 587.109 412.088
8.28323 -19.1857 -2.65941 598.71 411.534
11.1892 -18.6271 -1.26508 610.08 414.27
13.6671 -16.9645 0.273554 619.408 421.263
-1.18074 -12.4765 -5.03937 559.081 436.199
-1.02288 -9.78458 -7.68492 559.119 447.603
-0.855869 -7.12878 -10.4963 559.216 458.904
-0.664541 -4.47424 -13.2653 559.408 470.196
-3.34425 1.19431 -6.38924 546.584 490.51
-1.75358 1.47003 -7.2254 552.926 492.254
-0.0911152 1.43105 -7.97121 559.639 492.74
1.6477 1.18257 -7.15632 566.611 492.053
3.24865 0.612105 -6.50011 573.135 490.078
-12.172 -10.3285 -0.953324 514.21 440.731
-10.4605 -11.7284 -1.0401 521.466 435.643
-8.20719 -11.8749 -1.12426 530.528 435.716
-6.33912 -10.7676 -1.02995 537.677 440.647
-8.20629 -9.9235 -1.24285 529.978 443.539
-10.2828 -9.67999 -1.15609 521.595 443.903
4.77166 -11.6883 -0.930138 582.385 440.095
6.44605 -13.0833 -1.05354 589.494 435.025
8.6927 -13.2581 -0.800333 598.515 434.905
10.6354 -12.1941 -0.521693 605.961 439.643
8.86876 -11.2419 -0.840987 598.642 443.02
6.76278 -11.1534 -0.993783 590.202 442.811
-5.31731 10.0167 -2.75638 535.902 524.366
-3.55133 8.25942 -4.9317 543.622 518.343
-1.56806 6.76315 -6.72342 552.11 513.338
0.739453 6.62664 -8.44265 561.499 513.839
3.08574 6.34219 -6.50693 570.835 512.925
5.33407 7.41714 -4.7381 579.399 517.452
7.45774 8.76123 -2.60302 587.362 522.936
5.92849 10.5505 -4.04495 580.828 529.98
3.84096 11.8096 -5.30481 572.201 534.707
1.27949 12.2445 -6.6248 561.919 536.02
-1.2612 12.3023 -5.43729 551.656 535.259
-3.53898 11.5181 -4.07922 542.676 531.17
-1.52381 8.96771 -5.03728 551.537 521.772
0.933122 8.47073 -7.25486 561.662 520.99
3.4796 8.47138 -5.07505 571.7 521.216
3.56772 9.15546 -4.55162 571.819 523.854
1.02194 9.48837 -6.29253 561.658 524.86
-1.49027 9.6586 -4.52125 551.437 524.423
3 20 21 23
3 21 22 23
3 0 1 36
3 15 16 45
3 0 17 36
3 16 26 45
3 17 18 37
3 25 26 44
3 17 36 37
3 26 44 45
3 18 19 38
3 24 25 43
3 18 37 38
3 25 43 44
3 19 20 38
3 23 24 43
3 20 21 39
3 22 23 42
3 20 38 39
3 23 42 43
3 21 22 27
3 21 27 39
3 22 27 42
3 27 28 42
3 27 28 39
3 28 42 47
3 28 39 40
3 1 36 41
3 15 45 46
3 1 2 41
3 14 15 46
3 28 29 40
3 28 29 47
3 2 40 41
3 14 46 47
3 2 29 40
3 14 29 47
3 2 3 29
3 13 14 29
3 29 30 31
3 29 30 35
3 3 29 31
3 13 29 35
3 30 32 33
3 30 33 34
3 30 31 32
3 30 34 35
3 3 4 31
3 12 13 35
3 4 5 48
3 11 12 54
3 5 6 48
3 10 11 54
3 6 48 59
3 10 54 55
3 6 7 59
3 9 10 55
3 7 58 59
3 9 55 56
3 8 57 58
3 8 56 57
3 7 8 58
3 8 9 56
3 4 31 48
3 12 35 54
3 31 48 49
3 35 53 54
3 31 49 50
3 35 52 53
3 31 32 50
3 34 35 52
3 32 33 50
3 33 34 52
3 33 50 51
3 33 51 52
3 48 49 60
3 49 60 50
3 50 60 61
3 50 51 61
3 51 52 61
3 61 62 52
3 52 53 62
3 53 54 62
3 54 55 63
3 55 56 63
3 56 63 64
3 56 57 64
3 64 65 57
3 57 58 65
3 58 59 65
3 48 59 65
