ply
format ascii 1.0
element vertex 66
property float x
property float y
property float z
property float u
property float v
element face 91
property list uchar int vertex_indices
end_header
-20.0573 -5.91375 20.6952 481.973 452.143
-19.7801 -0.817549 20.2011 480.358 472.193
-19.0484 4.24907 20.0377 480.594 492.366
-17.7118 9.07234 18.1694 482.996 511.86
-15.482 13.4865 13.5177 488.572 530.152
-12.1857 17.405 8.00823 498.405 547.032
-7.95661 20.5749 3.31978 512.416 561.481
-2.96902 22.6904 -0.699352 530.052 572.211
2.59835 22.7689 -4.19136 551.092 575.286
7.40885 21.8524 -1.0118 570.937 574.229
11.4997 19.5144 3.25725 588.903 567.272
14.9976 16.4946 8.08957 605.009 557.359
17.4255 12.704 13.7759 617.491 543.906
18.5369 8.08517 18.7367 625.121 526.527
18.9584 2.82752 20.7857 629.838 506.237
19.0948 -2.67698 21.2345 633.269 484.802
19.034 -8.15718 21.8247 635.943 463.364
-15.4848 -14.7885 0.130251 500.504 419.351
-13.5438 -16.4646 -1.56724 508.62 413.755
-11.1284 -17.2877 -3.02325 518.198 411.74
-8.60483 -17.5265 -4.39492 527.914 412.066
-6.15614 -17.241 -5.71296 537.081 414.405
2.97543 -18.2767 -5.15574 573.364 415.032
5.92035 -19.2552 -3.9307 585.591 412.738
9.00645 -19.5669 -2.58752 598.05 413.125
12.0486 -18.8561 -1.24475 609.815 417.486
14.5224 -16.9477 0.421504 618.81 426.244
-1.87617 -11.9459 -5.14539 551.19 437.299
-1.67262 -8.94812 -7.71144 549.971 449.064
-1.42999 -5.98781 -10.4923 548.883 460.699
-1.14184 -3.04076 -13.2333 547.988 472.306
-4.34339 1.20158 -6.37709 534.606 487.399
-2.68927 1.57236 -7.20299 540.719 489.675
-0.947285 1.55977 -7.9773 547.381 490.499
1.09548 1.17775 -7.2513 555.688 490.065
2.98323 0.440014 -6.45534 563.584 488.162
-11.5412 -10.0003 -1.18084 513.207 440.051
-9.94515 -11.3084 -1.18747 520.105 435.754
-7.85339 -11.4168 -1.12381 528.338 436.4
-6.09118 -10.4832 -0.826013 534.797 440.955
-7.8278 -9.74028 -1.10508 527.585 442.966
-9.74489 -9.47778 -1.20544 519.948 443.011
4.73749 -11.761 -0.749596 577.739 441.493
6.43611 -13.128 -0.946019 585.032 437.014
8.61952 -13.2453 -0.806216 593.642 437.673
10.5452 -12.2987 -0.616533 600.712 442.361
8.75204 -11.4871 -0.823029 593.258 444.612
6.71235 -11.3277 -0.893294 585.2 444.192
-5.63545 9.8034 -2.67668 525.859 520.438
-3.92938 8.17932 -4.8457 532.943 514.915
-1.93619 6.91043 -6.58796 541.046 510.937
0.345265 6.84236 -8.23104 549.68 511.8
2.71526 6.33817 -6.63974 559.488 511.074
5.13795 7.08387 -4.9095 568.889 515.263
7.54622 8.09259 -2.77456 578.176 520.482
5.80699 9.86924 -4.08333 570.232 526.509
3.59965 11.0799 -5.4368 560.742 530.085
1.0481 11.6192 -6.52877 550.301 530.866
-1.49836 11.8098 -5.33467 540.486 530.336
-3.84797 11.2064 -4.06132 531.86 526.805
-1.76342 8.99562 -4.94024 540.964 519.21
0.548778 8.53593 -7.28691 549.785 518.544
3.04562 8.28396 -5.40038 560.016 518.875
3.10133 8.6584 -4.78257 560.157 520.38
0.603233 9.05635 -6.42812 549.893 520.624
-1.77841 9.33185 -4.4274 540.829 520.527
3 20 21 23
3 21 22 23
3 0 1 36
3 15 16 45
3 0 17 36
3 16 26 45
3 17 18 37
3 25 26 44
3 17 36 37
3 26 44 45
3 18 19 38
3 24 25 43
3 18 37 38
3 25 43 44
3 19 20 38
3 23 24 43
3 20 21 39
3 22 23 42
3 20 38 39
3 23 42 43
3 21 22 27
3 21 27 39
3 22 27 42
3 27 28 42
3 27 28 39
3 28 42 47
3 28 39 40
3 1 36 41
3 15 45 46
3 1 2 41
3 14 15 46
3 28 29 40
3 28 29 47
3 2 40 41
3 14 46 47
3 2 29 40
3 14 29 47
3 2 3 29
3 13 14 29
3 29 30 31
3 29 30 35
3 3 29 31
3 13 29 35
3 30 32 33
3 30 33 34
3 30 31 32
3 30 34 35
3 3 4 31
3 12 13 35
3 4 5 48
3 11 12 54
3 5 6 48
3 10 11 54
3 6 48 59
3 10 54 55
3 6 7 59
3 9 10 55
3 7 58 59
3 9 55 56
3 8 57 58
3 8 56 57
3 7 8 58
3 8 9 56
3 4 31 48
3 12 35 54
3 31 48 49
3 35 53 54
3 31 49 50
3 35 52 53
3 31 32 50
3 34 35 52
3 32 33 50
3 33 34 52
3 33 50 51
3 33 51 52
3 48 49 60
3 49 60 50
3 50 60 61
3 50 51 61
3 51 52 61
3 61 62 52
3 52 53 62
3 53 54 62
3 54 55 63
3 55 56 63
3 56 63 64
3 56 57 64
3 64 65 57
3 57 58 65
3 58 59 65
3 48 59 65
