ply
format ascii 1.0
element vertex 66
property float x
property float y
property float z
property float u
property float v
element face 91
property list uchar int vertex_indices
end_header
-19.9584 -5.94243 20.7467 482.595 445.716
-19.6839 -0.799719 20.2628 481.36 466.204
-18.9587 4.31467 20.1169 481.96 486.711
-17.6662 9.17505 18.1787 484.673 506.836
-15.5289 13.6208 13.5436 490.547 526.254
-12.278 17.5222 8.0373 500.938 544.199
-8.01632 20.5734 3.33187 515.794 559.08
-2.98222 22.5012 -0.656193 534.284 569.731
2.56752 22.4607 -4.1882 555.73 572.76
7.3089 21.4875 -0.980141 575.281 570.378
11.3101 19.1195 3.31205 592.666 561.949
14.7634 16.1416 8.1674 608.231 550.757
17.1697 12.4104 13.8332 620.102 535.965
18.3507 7.89515 18.6862 627.377 517.705
18.8602 2.76893 20.878 631.922 497.282
19.0579 -2.63029 21.2779 635.121 476.011
19.0409 -8.01263 21.7907 637.48 454.687
-15.5835 -14.4813 0.0622351 500.88 418.236
-13.6626 -16.256 -1.60756 509.016 412.437
-11.2226 -17.1639 -3.05786 518.849 410.241
-8.65119 -17.457 -4.44309 528.938 410.512
-6.1396 -17.2167 -5.78906 538.564 412.851
2.91485 -18.1313 -5.27524 574.749 413.168
5.90002 -19.1187 -3.99129 587.126 410.342
9.03632 -19.4349 -2.59248 599.82 410.205
12.1342 -18.7228 -1.2291 611.907 414.111
14.6506 -16.7819 0.346517 621.19 422.557
-1.90233 -12.1334 -5.19194 553.129 434.646
-1.78286 -9.20448 -7.69482 551.988 446.753
-1.62125 -6.31757 -10.4473 550.999 458.764
-1.40522 -3.44751 -13.204 550.231 470.734
-4.17418 0.817483 -6.22729 538.355 484.885
-2.682 1.05524 -7.14362 544.016 486.673
-1.13073 0.994671 -8.02643 550.046 487.305
0.750162 0.692355 -7.21141 557.705 486.783
2.5225 0.113383 -6.33395 565.066 485.11
-11.9113 -9.88236 -1.25057 513.177 438.261
-10.1939 -11.2071 -1.17618 520.542 433.789
-7.97565 -11.3622 -1.05806 529.376 434.14
-6.08527 -10.4953 -0.804798 536.486 438.346
-7.95012 -9.74372 -1.13372 528.758 440.545
-9.99627 -9.42947 -1.23264 520.535 440.894
5.07324 -11.8412 -0.863286 581.086 438.015
6.89783 -13.1157 -0.889787 588.838 433.81
9.19655 -13.1827 -0.726811 597.957 434.535
11.2222 -12.2184 -0.575619 605.545 439.205
9.30791 -11.4791 -0.821998 597.637 441.317
7.14642 -11.3742 -0.967941 589.045 440.799
-5.12062 10.3417 -2.78063 530.899 521.294
-3.6949 8.44646 -4.90419 537.075 514.893
-1.89338 6.87008 -6.61434 544.648 509.831
0.324715 6.74099 -8.25183 553.239 510.643
2.65144 6.28607 -6.60113 562.834 509.548
4.94144 7.33582 -4.91294 571.629 514.359
7.12811 8.64079 -2.89673 579.947 520.062
5.49351 10.1938 -4.1499 572.654 525.711
3.48264 11.2885 -5.47682 564.067 529.402
1.12516 11.8151 -6.5987 554.39 530.658
-1.24317 12.0347 -5.4009 545.108 530.226
-3.43363 11.5604 -4.12424 536.843 527.122
-1.64687 9.08712 -4.90765 544.873 518.329
0.564473 8.5102 -7.23069 553.544 517.514
3.00658 8.35393 -5.37517 563.489 517.605
3.00967 8.77223 -4.7626 563.398 519.13
0.65329 9.17498 -6.36304 553.717 519.996
-1.58261 9.4671 -4.42819 545.023 519.758
3 20 21 23
3 21 22 23
3 0 1 36
3 15 16 45
3 0 17 36
3 16 26 45
3 17 18 37
3 25 26 44
3 17 36 37
3 26 44 45
3 18 19 38
3 24 25 43
3 18 37 38
3 25 43 44
3 19 20 38
3 23 24 43
3 20 21 39
3 22 23 42
3 20 38 39
3 23 42 43
3 21 22 27
3 21 27 39
3 22 27 42
3 27 28 42
3 27 28 39
3 28 42 47
3 28 39 40
3 1 36 41
3 15 45 46
3 1 2 41
3 14 15 46
3 28 29 40
3 28 29 47
3 2 40 41
3 14 46 47
3 2 29 40
3 14 29 47
3 2 3 29
3 13 14 29
3 29 30 31
3 29 30 35
3 3 29 31
3 13 29 35
3 30 32 33
3 30 33 34
3 30 31 32
3 30 34 35
3 3 4 31
3 12 13 35
3 4 5 48
3 11 12 54
3 5 6 48
3 10 11 54
3 6 48 59
3 10 54 55
3 6 7 59
3 9 10 55
3 7 58 59
3 9 55 56
3 8 57 58
3 8 56 57
3 7 8 58
3 8 9 56
3 4 31 48
3 12 35 54
3 31 48 49
3 35 53 54
3 31 49 50
3 35 52 53
3 31 32 50
3 34 35 52
3 32 33 50
3 33 34 52
3 33 50 51
3 33 51 52
3 48 49 60
3 49 60 50
3 50 60 61
3 50 51 61
3 51 52 61
3 61 62 52
3 52 53 62
3 53 54 62
3 54 55 63
3 55 56 63
3 56 63 64
3 56 57 64
3 64 65 57
3 57 58 65
3 58 59 65
3 48 59 65
