ply
format ascii 1.0
element vertex 66
property float x
property float y
property float z
property float u
property float v
element face 91
property list uchar int vertex_indices
end_header
-19.8629 -5.88772 20.7004 484.109 446.192
-19.5934 -0.804308 20.2261 482.694 466.465
-18.8731 4.24849 20.0841 483.12 486.773
-17.5819 9.06553 18.1408 485.654 506.759
-15.4488 13.5191 13.5406 491.303 526.207
-12.2301 17.4725 8.03524 501.346 544.37
-8.01215 20.5976 3.32668 515.841 559.599
-3.01234 22.6062 -0.652273 534.056 570.664
2.51853 22.6393 -4.20263 555.367 574.11
7.26143 21.6696 -1.00003 575.011 571.972
11.2783 19.3018 3.28311 592.607 563.769
14.744 16.3027 8.14435 608.409 552.703
17.1457 12.5247 13.8277 620.497 537.901
18.2963 7.94049 18.6849 627.911 519.469
18.7911 2.75675 20.8887 632.639 498.847
18.9902 -2.68665 21.3196 636.069 477.386
18.9808 -8.11662 21.8267 638.68 455.864
-15.4596 -14.4906 0.0718429 502.616 418.183
-13.5961 -16.2567 -1.61357 510.569 412.423
-11.2078 -17.1752 -3.06351 520.226 410.215
-8.67919 -17.4898 -4.44472 530.16 410.445
-6.20719 -17.2717 -5.78543 539.623 412.742
2.86993 -18.2304 -5.25951 575.99 413.226
5.85881 -19.2325 -3.98366 588.448 410.473
8.99814 -19.5483 -2.59138 601.191 410.479
12.0932 -18.8225 -1.23084 613.261 414.579
14.5982 -16.8728 0.349531 622.452 423.183
-1.93382 -12.0315 -5.18985 554.094 435.361
-1.79541 -9.14088 -7.69116 552.911 447.295
-1.61425 -6.29097 -10.4355 551.881 459.134
-1.37984 -3.45884 -13.1812 551.069 470.929
-4.09076 0.784183 -6.19582 539.355 485.074
-2.63815 0.992905 -7.12444 544.858 486.767
-1.13393 0.925273 -8.02454 550.7 487.39
0.711062 0.626178 -7.20343 558.243 486.945
2.45939 0.0716042 -6.32597 565.534 485.435
-11.8683 -9.82804 -1.24812 514.393 438.549
-10.1848 -11.1823 -1.18417 521.691 434.004
-7.97786 -11.3423 -1.07613 530.496 434.413
-6.10491 -10.4753 -0.823948 537.515 438.688
-7.93893 -9.68738 -1.14281 529.855 440.974
-9.96934 -9.36412 -1.22857 521.673 441.289
5.07595 -11.8605 -0.842748 582.31 438.602
6.8858 -13.1633 -0.904296 590.065 434.343
9.1844 -13.2304 -0.739823 599.195 435.153
11.2008 -12.2527 -0.582986 606.714 439.951
9.30099 -11.4884 -0.81216 598.819 442.096
7.14352 -11.3743 -0.954971 590.226 441.535
-5.05495 10.3729 -2.77787 531.49 521.809
-3.66188 8.45606 -4.90471 537.594 515.31
-1.88041 6.86014 -6.6061 545.141 510.185
0.335019 6.73106 -8.23575 553.715 511.042
2.66129 6.27189 -6.62106 563.348 510.05
4.94113 7.34522 -4.93671 572.081 515.069
7.11288 8.65946 -2.89564 580.324 520.921
5.46288 10.1989 -4.16929 572.897 526.437
3.45366 11.2865 -5.48734 564.26 530.006
1.1089 11.8223 -6.60315 554.589 531.199
-1.23017 12.0323 -5.38777 545.429 530.678
-3.39279 11.5705 -4.10986 537.293 527.58
-1.65125 9.07298 -4.87418 545.244 518.705
0.562333 8.49676 -7.21179 553.921 517.928
3.00331 8.33331 -5.37852 563.898 518.118
2.99559 8.79414 -4.77547 563.736 519.821
0.64053 9.21444 -6.3341 554.015 520.635
-1.59301 9.49338 -4.40076 545.342 520.304
3 20 21 23
3 21 22 23
3 0 1 36
3 15 16 45
3 0 17 36
3 16 26 45
3 17 18 37
3 25 26 44
3 17 36 37
3 26 44 45
3 18 19 38
3 24 25 43
3 18 37 38
3 25 43 44
3 19 20 38
3 23 24 43
3 20 21 39
3 22 23 42
3 20 38 39
3 23 42 43
3 21 22 27
3 21 27 39
3 22 27 42
3 27 28 42
3 27 28 39
3 28 42 47
3 28 39 40
3 1 36 41
3 15 45 46
3 1 2 41
3 14 15 46
3 28 29 40
3 28 29 47
3 2 40 41
3 14 46 47
3 2 29 40
3 14 29 47
3 2 3 29
3 13 14 29
3 29 30 31
3 29 30 35
3 3 29 31
3 13 29 35
3 30 32 33
3 30 33 34
3 30 31 32
3 30 34 35
3 3 4 31
3 12 13 35
3 4 5 48
3 11 12 54
3 5 6 48
3 10 11 54
3 6 48 59
3 10 54 55
3 6 7 59
3 9 10 55
3 7 58 59
3 9 55 56
3 8 57 58
3 8 56 57
3 7 8 58
3 8 9 56
3 4 31 48
3 12 35 54
3 31 48 49
3 35 53 54
3 31 49 50
3 35 52 53
3 31 32 50
3 34 35 52
3 32 33 50
3 33 34 52
3 33 50 51
3 33 51 52
3 48 49 60
3 49 60 50
3 50 60 61
3 50 51 61
3 51 52 61
3 61 62 52
3 52 53 62
3 53 54 62
3 54 55 63
3 55 56 63
3 56 63 64
3 56 57 64
3 64 65 57
3 57 58 65
3 58 59 65
3 48 59 65
