ply
format ascii 1.0
element vertex 66
property float x
property float y
property float z
property float u
property float v
element face 91
property list uchar int vertex_indices
end_header
-20.0861 -6.02829 20.8498 481.582 450.307
-19.7335 -0.875188 20.2915 480.764 470.527
-18.938 4.24872 20.0973 481.708 490.791
-17.659 9.18203 18.2671 484.482 510.638
-15.6017 13.7636 13.4889 490.195 529.659
-12.4345 17.8379 7.97714 500.376 547.225
-8.26421 21.0969 3.33391 514.865 561.978
-3.25626 23.1321 -0.711264 533.166 572.279
2.27137 23.2403 -4.25094 554.329 575.27
7.13433 22.2379 -1.00933 573.907 573.166
11.2255 19.7464 3.34188 591.191 564.869
14.6811 16.5186 8.09134 606.342 553.416
17.1526 12.5934 13.7281 618.029 538.775
18.4148 7.93391 18.7222 625.269 520.821
18.9989 2.72295 20.8397 629.875 500.653
19.2901 -2.71166 21.2962 633.306 479.615
19.3321 -8.13649 21.7988 635.767 458.508
-15.8564 -14.3906 0.101874 499.868 421.094
-13.8993 -16.1568 -1.63962 508.073 415.174
-11.4203 -17.0403 -3.05368 517.966 412.88
-8.80372 -17.2908 -4.40889 528.135 413.099
-6.24393 -17.0056 -5.71054 537.864 415.372
2.74239 -17.8184 -5.24577 573.172 415.932
5.77297 -18.8871 -3.98605 585.497 412.951
8.96746 -19.2767 -2.61329 598.186 412.67
12.1348 -18.636 -1.26993 610.338 416.385
14.738 -16.7472 0.371382 619.801 424.694
-1.83908 -11.9126 -5.12918 552.914 436.968
-1.69746 -8.80402 -7.7825 551.961 449.306
-1.51919 -5.72714 -10.5867 551.152 461.548
-1.28851 -2.6608 -13.2642 550.561 473.761
-4.37863 1.34769 -6.39549 537.422 487.547
-2.70703 1.788 -7.24559 543.67 490.019
-0.934144 1.82135 -8.02898 550.486 490.947
1.13264 1.39322 -7.29643 558.756 490.092
3.02509 0.578182 -6.56264 566.51 487.66
-12.0774 -9.83132 -1.20988 512.557 440.493
-10.3261 -11.2005 -1.23494 519.933 435.904
-8.06062 -11.3548 -1.14549 528.81 436.244
-6.11024 -10.4268 -0.870288 536.028 440.645
-8.03028 -9.70924 -1.14103 528.244 442.653
-10.1103 -9.41091 -1.21735 520.028 442.949
5.00095 -11.7363 -0.893658 579.764 440.198
6.8543 -13.0768 -1.01729 587.517 435.771
9.18533 -13.1724 -0.814268 596.634 436.358
11.2516 -12.1915 -0.529893 604.28 441.013
9.30091 -11.4564 -0.79002 596.371 443.075
7.11551 -11.3327 -0.928169 587.813 442.653
-5.21738 9.69493 -2.67658 530.981 519.371
-3.77449 7.77645 -4.9014 537.213 512.679
-1.84721 6.3733 -6.62989 545.152 508.157
0.434665 6.28487 -8.26314 553.931 508.887
2.81993 5.7882 -6.5583 563.544 507.827
5.19558 6.64304 -4.85579 572.558 512.017
7.37035 7.96974 -2.7262 580.628 517.926
5.65488 9.52798 -3.98647 573.211 523.36
3.56899 10.5977 -5.30747 564.553 526.744
1.18344 11.0983 -6.55956 554.972 527.786
-1.18471 11.3254 -5.27545 545.773 527.584
-3.4373 10.8994 -3.94497 537.299 524.89
-1.52476 8.54964 -4.92905 545.634 516.627
0.679238 8.1073 -7.15794 554.21 515.992
3.08792 7.8325 -5.35821 563.83 515.797
3.09162 8.09526 -4.72895 563.784 516.774
0.740717 8.47505 -6.34063 554.36 517.387
-1.48347 8.78315 -4.41357 545.738 517.514
3 20 21 23
3 21 22 23
3 0 1 36
3 15 16 45
3 0 17 36
3 16 26 45
3 17 18 37
3 25 26 44
3 17 36 37
3 26 44 45
3 18 19 38
3 24 25 43
3 18 37 38
3 25 43 44
3 19 20 38
3 23 24 43
3 20 21 39
3 22 23 42
3 20 38 39
3 23 42 43
3 21 22 27
3 21 27 39
3 22 27 42
3 27 28 42
3 27 28 39
3 28 42 47
3 28 39 40
3 1 36 41
3 15 45 46
3 1 2 41
3 14 15 46
3 28 29 40
3 28 29 47
3 2 40 41
3 14 46 47
3 2 29 40
3 14 29 47
3 2 3 29
3 13 14 29
3 29 30 31
3 29 30 35
3 3 29 31
3 13 29 35
3 30 32 33
3 30 33 34
3 30 31 32
3 30 34 35
3 3 4 31
3 12 13 35
3 4 5 48
3 11 12 54
3 5 6 48
3 10 11 54
3 6 48 59
3 10 54 55
3 6 7 59
3 9 10 55
3 7 58 59
3 9 55 56
3 8 57 58
3 8 56 57
3 7 8 58
3 8 9 56
3 4 31 48
3 12 35 54
3 31 48 49
3 35 53 54
3 31 49 50
3 35 52 53
3 31 32 50
3 34 35 52
3 32 33 50
3 33 34 52
3 33 50 51
3 33 51 52
3 48 49 60
3 49 60 50
3 50 60 61
3 50 51 61
3 51 52 61
3 61 62 52
3 52 53 62
3 53 54 62
3 54 55 63
3 55 56 63
3 56 63 64
3 56 57 64
3 64 65 57
3 57 58 65
3 58 59 65
3 48 59 65
