ply
format ascii 1.0
element vertex 66
property float x
property float y
property float z
property float u
property float v
element face 91
property list uchar int vertex_indices
end_header
-20.1518 -5.73258 20.6999 486.109 448.75
-19.7921 -0.606154 20.1852 485.165 468.896
-18.9424 4.48175 20.0271 486.2 489.035
-17.4937 9.34417 18.2437 489.376 508.917
-15.263 13.7974 13.3708 495.23 528.225
-12.0741 17.7594 7.93654 504.919 546.179
-7.97254 20.9606 3.34222 518.63 561.412
-3.08192 23.0216 -0.664124 536.004 572.453
2.35529 23.1362 -4.23122 556.43 576.098
7.15801 22.0177 -0.846342 576.142 573.19
11.1076 19.3916 3.40525 593.357 563.868
14.4178 16.0869 8.1131 608.468 551.532
16.7982 12.1481 13.6569 620.396 536.141
18.1737 7.58306 18.6534 628.604 517.989
18.9022 2.49272 20.649 634.012 498.154
19.2092 -2.8174 20.9895 637.593 477.633
19.1941 -8.11163 21.4938 639.947 456.994
-15.7139 -14.6072 0.0931462 503.645 420.751
-13.8531 -16.5187 -1.64647 511.401 414.548
-11.3739 -17.5064 -3.01422 521.216 412.123
-8.7187 -17.746 -4.3745 531.387 412.676
-6.11629 -17.4183 -5.69814 541.11 415.396
3.00707 -18.2059 -5.28045 576.925 416.343
5.95961 -19.2187 -3.99643 589.048 413.465
9.0642 -19.5562 -2.60956 601.483 413.251
12.1087 -18.8097 -1.29861 613.195 417.229
14.5189 -16.8221 0.338888 621.958 425.663
-1.68141 -12.2371 -5.0724 556.151 437.336
-1.57204 -9.26938 -7.70204 554.816 449.454
-1.42758 -6.32591 -10.4338 553.609 461.515
-1.23642 -3.39371 -13.0488 552.61 473.529
-4.04738 0.907 -6.26654 540.993 487.488
-2.52069 1.28467 -7.11967 546.603 489.819
-0.898009 1.30154 -7.93465 552.75 490.787
0.99414 0.948994 -7.11926 560.387 490.093
2.71805 0.259582 -6.30006 567.521 488.018
-11.7966 -10.0527 -1.33911 516.595 440.47
-10.1652 -11.3357 -1.20557 523.511 436.199
-8.0223 -11.5373 -0.969514 531.954 436.328
-6.18391 -10.7549 -0.715603 538.788 440.13
-7.95866 -9.8846 -1.12184 531.449 442.796
-9.9462 -9.5693 -1.21444 523.583 443.147
5.17669 -11.9925 -0.782442 583.397 440.439
6.94364 -13.1168 -0.808801 590.741 436.878
9.14901 -13.1268 -0.793745 599.304 437.825
11.037 -12.1567 -0.736943 606.214 442.42
9.20846 -11.4208 -0.847299 598.777 444.477
7.13405 -11.3695 -0.977934 590.683 443.774
-3.68582 10.574 -2.7811 538.758 524.379
-2.92673 8.39823 -4.99201 542.274 516.759
-1.58497 6.57475 -6.64838 547.993 510.646
0.332359 6.49438 -8.27932 555.184 511.543
2.35897 6.09338 -6.55888 563.521 510.528
4.17078 7.5066 -4.92581 570.214 516.469
5.63001 9.26375 -2.83106 575.468 523.486
4.39381 10.4396 -4.02141 569.949 527.746
2.90727 11.3028 -5.40073 563.563 530.722
1.0727 11.7531 -6.72115 556.018 531.928
-0.762803 11.8908 -5.41053 549.064 531.358
-2.41093 11.5105 -4.05057 543.072 528.854
-0.520851 8.99897 -4.84341 551.371 520.134
0.573694 8.48229 -7.00211 555.469 519.084
1.89104 8.51276 -5.15985 560.887 519.398
1.7675 8.59271 -4.65294 560.46 519.544
0.641274 8.87236 -6.29765 555.682 520.476
-0.374227 9.03665 -4.45078 551.991 520.262
3 20 21 23
3 21 22 23
3 0 1 36
3 15 16 45
3 0 17 36
3 16 26 45
3 17 18 37
3 25 26 44
3 17 36 37
3 26 44 45
3 18 19 38
3 24 25 43
3 18 37 38
3 25 43 44
3 19 20 38
3 23 24 43
3 20 21 39
3 22 23 42
3 20 38 39
3 23 42 43
3 21 22 27
3 21 27 39
3 22 27 42
3 27 28 42
3 27 28 39
3 28 42 47
3 28 39 40
3 1 36 41
3 15 45 46
3 1 2 41
3 14 15 46
3 28 29 40
3 28 29 47
3 2 40 41
3 14 46 47
3 2 29 40
3 14 29 47
3 2 3 29
3 13 14 29
3 29 30 31
3 29 30 35
3 3 29 31
3 13 29 35
3 30 32 33
3 30 33 34
3 30 31 32
3 30 34 35
3 3 4 31
3 12 13 35
3 4 5 48
3 11 12 54
3 5 6 48
3 10 11 54
3 6 48 59
3 10 54 55
3 6 7 59
3 9 10 55
3 7 58 59
3 9 55 56
3 8 57 58
3 8 56 57
3 7 8 58
3 8 9 56
3 4 31 48
3 12 35 54
3 31 48 49
3 35 53 54
3 31 49 50
3 35 52 53
3 31 32 50
3 34 35 52
3 32 33 50
3 33 34 52
3 33 50 51
3 33 51 52
3 48 49 60
3 49 60 50
3 50 60 61
3 50 51 61
3 51 52 61
3 61 62 52
3 52 53 62
3 53 54 62
3 54 55 63
3 55 56 63
3 56 63 64
3 56 57 64
3 64 65 57
3 57 58 65
3 58 59 65
3 48 59 65
