ply
format ascii 1.0
element vertex 66
property float x
property float y
property float z
property float u
property float v
element face 91
property list uchar int vertex_indices
end_header
-19.9861 -6.23507 21.0303 483.384 454.868
-19.5347 -1.01591 20.4834 483.343 475.489
-18.6964 4.17073 20.1808 484.826 496.148
-17.4647 9.12324 18.2774 488.006 515.831
-15.53 13.6575 13.5867 494.215 533.779
-12.4905 17.6703 8.04843 504.991 549.964
-8.46643 20.9494 3.26157 519.868 563.703
-3.65025 23.1945 -0.807707 538.196 573.741
1.80327 23.5224 -4.42945 559.69 576.52
6.95451 22.7275 -1.01003 580.098 575.631
11.3278 20.2766 3.22531 597.994 568.053
14.9209 16.9405 8.06124 613.107 556.79
17.3998 12.8632 13.7175 624.064 542.317
18.5159 8.04989 18.6399 629.948 524.379
18.9566 2.66258 20.7144 633.495 503.598
19.1433 -2.96321 21.2562 636.19 481.603
19.0631 -8.57689 21.7768 637.832 459.559
-16.0273 -14.3138 0.104389 502.68 421.951
-13.9823 -16.1138 -1.58866 511.432 415.389
-11.4511 -16.9848 -3.01018 521.758 412.686
-8.80529 -17.1791 -4.37172 532.294 412.692
-6.23548 -16.826 -5.65614 542.334 414.834
2.60064 -17.5038 -5.3016 577.328 415.336
5.49135 -18.5359 -4.0312 589.013 412.453
8.55514 -18.9155 -2.68507 601.147 412.207
11.6243 -18.3673 -1.32115 612.973 415.615
14.2568 -16.6415 0.326651 622.655 423.534
-1.42814 -11.6636 -5.04507 559.405 436.912
-1.16006 -8.77172 -7.80101 559.555 448.046
-0.876011 -5.90552 -10.6242 559.78 459.077
-0.566035 -3.03683 -13.2878 560.099 470.145
-3.49616 1.31848 -6.46402 546.75 487.068
-1.91911 1.68865 -7.25436 552.858 488.986
-0.26063 1.71136 -7.95296 559.405 489.577
1.55283 1.34713 -7.23932 566.639 488.872
3.22018 0.641387 -6.57235 573.421 486.767
-12.2429 -9.77989 -0.95335 516.016 440.993
-10.5385 -11.0665 -1.14959 523.185 436.512
-8.37287 -11.2076 -1.30236 531.762 436.704
-6.5323 -10.273 -1.16107 538.669 441.048
-8.36946 -9.55894 -1.24345 531.192 443.197
-10.3698 -9.31563 -1.16939 523.232 443.455
4.89397 -11.3498 -0.951977 584.001 440.879
6.61485 -12.6849 -1.17876 591.253 436.209
8.83112 -12.8353 -0.895523 600.015 436.436
10.8262 -11.9395 -0.532055 607.534 440.71
9.00351 -11.1467 -0.836922 600.095 443.146
6.9209 -10.9901 -0.956802 591.85 443.011
-6.26875 8.80319 -2.62922 533.042 515.992
-4.404 6.866 -4.82894 541.154 508.765
-2.06861 5.54162 -6.57601 550.883 504.169
0.56086 5.37421 -8.27834 561.359 504.234
3.24269 5.03858 -6.52212 571.957 504.076
5.89074 5.88978 -4.78351 582.005 508.572
8.28407 7.31431 -2.58329 590.828 515.288
6.54888 9.62353 -3.96743 583.244 523.589
4.12722 11.2656 -5.27869 573.191 529.031
1.1602 11.8629 -6.59795 561.36 530.171
-1.78651 11.8671 -5.27258 549.709 529.306
-4.3599 10.7586 -3.91636 539.917 524.201
-2.21048 7.69126 -4.96813 549.5 512.769
0.72397 7.23755 -7.28871 561.303 511.741
3.75466 7.06242 -5.21182 573.204 512.376
3.96468 8.60025 -4.59601 573.463 518.574
0.850005 9.1679 -6.24164 561.075 519.505
-2.2293 9.21799 -4.36507 548.863 518.841
3 20 21 23
3 21 22 23
3 0 1 36
3 15 16 45
3 0 17 36
3 16 26 45
3 17 18 37
3 25 26 44
3 17 36 37
3 26 44 45
3 18 19 38
3 24 25 43
3 18 37 38
3 25 43 44
3 19 20 38
3 23 24 43
3 20 21 39
3 22 23 42
3 20 38 39
3 23 42 43
3 21 22 27
3 21 27 39
3 22 27 42
3 27 28 42
3 27 28 39
3 28 42 47
3 28 39 40
3 1 36 41
3 15 45 46
3 1 2 41
3 14 15 46
3 28 29 40
3 28 29 47
3 2 40 41
3 14 46 47
3 2 29 40
3 14 29 47
3 2 3 29
3 13 14 29
3 29 30 31
3 29 30 35
3 3 29 31
3 13 29 35
3 30 32 33
3 30 33 34
3 30 31 32
3 30 34 35
3 3 4 31
3 12 13 35
3 4 5 48
3 11 12 54
3 5 6 48
3 10 11 54
3 6 48 59
3 10 54 55
3 6 7 59
3 9 10 55
3 7 58 59
3 9 55 56
3 8 57 58
3 8 56 57
3 7 8 58
3 8 9 56
3 4 31 48
3 12 35 54
3 31 48 49
3 35 53 54
3 31 49 50
3 35 52 53
3 31 32 50
3 34 35 52
3 32 33 50
3 33 34 52
3 33 50 51
3 33 51 52
3 48 49 60
3 49 60 50
3 50 60 61
3 50 51 61
3 51 52 61
3 61 62 52
3 52 53 62
3 53 54 62
3 54 55 63
3 55 56 63
3 56 63 64
3 56 57 64
3 64 65 57
3 57 58 65
3 58 59 65
3 48 59 65
