ply
format ascii 1.0
element vertex 66
property float x
property float y
property float z
property float u
property float v
element face 91
property list uchar int vertex_indices
end_header
-20.1187 -5.98853 20.6286 485.544 454.167
-19.846 -0.918283 20.1563 484.23 474.078
-19.0931 4.1137 20.0181 484.864 494.087
-17.74 8.92783 18.1676 487.667 513.359
-15.522 13.4274 13.453 493.532 531.53
-12.2765 17.5486 7.97861 503.462 548.615
-8.08098 20.9497 3.36243 517.571 563.39
-3.03317 23.1787 -0.679759 535.637 574.017
2.61083 23.375 -4.23873 557.034 577.006
7.49728 22.4742 -1.04421 577.058 575.977
11.6991 20.1777 3.27021 595.221 569.281
15.2169 17.0484 8.0453 611.164 559.062
17.5745 13.0867 13.7514 623.099 545.149
18.571 8.27614 18.8254 629.998 527.244
18.9718 2.83321 20.886 634.371 506.322
19.1535 -2.84922 21.3774 637.742 484.223
19.1406 -8.51032 21.9487 640.356 462.126
-15.5225 -14.5302 0.100444 504.079 420.962
-13.6286 -16.1788 -1.62695 511.952 415.21
-11.2625 -16.9568 -3.06273 521.323 413.104
-8.79405 -17.1723 -4.45295 530.845 413.247
-6.40699 -16.8814 -5.78737 539.828 415.34
2.77171 -17.8692 -5.20501 576.248 415.669
5.8179 -18.9726 -3.96245 588.856 412.839
9.01889 -19.3785 -2.60088 601.772 412.819
12.1913 -18.6999 -1.29469 614.075 417.023
14.7797 -16.7471 0.347574 623.569 425.978
-2.04502 -11.8354 -5.13483 554.69 437.103
-1.81103 -8.78029 -7.76149 553.793 448.92
-1.53589 -5.75467 -10.5178 553.049 460.627
-1.2096 -2.73888 -13.1545 552.529 472.331
-4.24836 1.19138 -6.31484 539.969 486.955
-2.69648 1.57596 -7.17948 545.72 489.081
-1.05288 1.5836 -7.9708 552.013 489.78
0.954487 1.16291 -7.23964 560.169 489.106
2.79983 0.394102 -6.42639 567.862 487.005
-11.9939 -9.80005 -1.2663 515.502 440.93
-10.3145 -11.1326 -1.24524 522.675 436.477
-8.13151 -11.2878 -1.12454 531.298 436.866
-6.25893 -10.4625 -0.884975 538.281 440.96
-8.08229 -9.69584 -1.15873 530.761 443.111
-10.0955 -9.37728 -1.22476 522.737 443.444
4.98833 -11.8392 -0.793045 582.884 440.655
6.8279 -13.1544 -0.945757 590.647 436.326
9.1276 -13.2096 -0.840057 599.678 437.157
11.1722 -12.2901 -0.655358 607.282 441.693
9.24534 -11.56 -0.812265 599.393 443.665
7.0828 -11.4115 -0.924152 590.855 443.261
-4.70677 9.78298 -2.68575 534.858 520.684
-3.4698 7.87307 -4.86354 540.21 513.573
-1.75314 6.46482 -6.58298 547.282 508.683
0.336675 6.39312 -8.22226 555.219 509.195
2.54915 5.90351 -6.64526 564.344 508.421
4.76778 6.82009 -4.94169 572.874 513.162
6.84158 8.11861 -2.81044 580.734 519.37
5.19703 9.5711 -4.03851 573.447 524.198
3.24297 10.5513 -5.41482 565.142 527.026
1.02968 11.0342 -6.59197 556.082 527.809
-1.13867 11.2613 -5.29273 547.713 527.838
-3.1551 10.8765 -3.95861 540.221 525.545
-1.31835 8.64131 -4.82416 548.276 517.552
0.534918 8.18492 -7.11354 555.358 516.394
2.61306 7.95513 -5.38298 563.865 516.59
2.57016 8.08832 -4.78709 563.733 517.146
0.55566 8.42159 -6.28838 555.465 517.404
-1.30449 8.71626 -4.34146 548.374 517.895
3 20 21 23
3 21 22 23
3 0 1 36
3 15 16 45
3 0 17 36
3 16 26 45
3 17 18 37
3 25 26 44
3 17 36 37
3 26 44 45
3 18 19 38
3 24 25 43
3 18 37 38
3 25 43 44
3 19 20 38
3 23 24 43
3 20 21 39
3 22 23 42
3 20 38 39
3 23 42 43
3 21 22 27
3 21 27 39
3 22 27 42
3 27 28 42
3 27 28 39
3 28 42 47
3 28 39 40
3 1 36 41
3 15 45 46
3 1 2 41
3 14 15 46
3 28 29 40
3 28 29 47
3 2 40 41
3 14 46 47
3 2 29 40
3 14 29 47
3 2 3 29
3 13 14 29
3 29 30 31
3 29 30 35
3 3 29 31
3 13 29 35
3 30 32 33
3 30 33 34
3 30 31 32
3 30 34 35
3 3 4 31
3 12 13 35
3 4 5 48
3 11 12 54
3 5 6 48
3 10 11 54
3 6 48 59
3 10 54 55
3 6 7 59
3 9 10 55
3 7 58 59
3 9 55 56
3 8 57 58
3 8 56 57
3 7 8 58
3 8 9 56
3 4 31 48
3 12 35 54
3 31 48 49
3 35 53 54
3 31 49 50
3 35 52 53
3 31 32 50
3 34 35 52
3 32 33 50
3 33 34 52
3 33 50 51
3 33 51 52
3 48 49 60
3 49 60 50
3 50 60 61
3 50 51 61
3 51 52 61
3 61 62 52
3 52 53 62
3 53 54 62
3 54 55 63
3 55 56 63
3 56 63 64
3 56 57 64
3 64 65 57
3 57 58 65
3 58 59 65
3 48 59 65
