ply
format ascii 1.0
element vertex 66
property float x
property float y
property float z
property float u
property float v
element face 91
property list uchar int vertex_indices
end_header
-20.0749 -5.88297 20.7451 482.32 448.922
-19.7964 -0.769451 20.2477 481.029 469.218
-19.0522 4.31561 20.1164 481.635 489.567
-17.7334 9.13215 18.1824 484.359 509.364
-15.5343 13.5144 13.5535 490.348 528.215
-12.2335 17.3726 8.05264 500.778 545.627
-7.9564 20.4297 3.35022 515.525 560.229
-2.90133 22.3688 -0.65711 533.937 570.699
2.68703 22.3047 -4.14444 555.428 573.468
7.42593 21.3899 -1.01669 574.929 571.621
11.4543 19.1146 3.28703 592.423 563.944
14.9224 16.2042 8.16109 608.084 553.438
17.3187 12.525 13.8577 620 539.309
18.4405 8.02098 18.7355 627.159 521.464
18.9012 2.86061 20.908 631.621 501.098
19.0953 -2.58721 21.3186 634.908 479.715
19.0867 -8.01262 21.8953 637.413 458.305
-15.613 -14.4422 0.0744842 500.721 420.072
-13.664 -16.1841 -1.59468 508.928 414.338
-11.223 -17.0731 -3.05412 518.714 412.155
-8.66129 -17.3754 -4.43775 528.72 412.322
-6.16348 -17.159 -5.78834 538.246 414.495
2.93343 -18.1267 -5.23694 574.528 414.778
5.93586 -19.1038 -3.95749 586.96 412.139
9.08488 -19.4171 -2.56905 599.685 412.162
12.1999 -18.7148 -1.21094 611.811 416.166
14.7555 -16.798 0.360335 621.221 424.66
-1.94592 -12.0953 -5.17609 552.625 436.25
-1.7979 -9.11494 -7.70613 551.49 448.372
-1.60618 -6.17865 -10.4923 550.51 460.375
-1.36059 -3.25703 -13.2678 549.749 472.343
-4.41141 1.1078 -6.36676 536.786 487.187
-2.80856 1.42254 -7.21146 542.822 489.27
-1.13131 1.38347 -8.0085 549.318 489.99
0.889249 1.03351 -7.2828 557.525 489.441
2.77961 0.357371 -6.44611 565.385 487.536
-11.9809 -9.85544 -1.18273 512.742 439.933
-10.2112 -11.1808 -1.17085 520.301 435.53
-7.95765 -11.3086 -1.10857 529.227 436.05
-6.03338 -10.4129 -0.86042 536.424 440.418
-7.95185 -9.72515 -1.13842 528.53 442.282
-10.03 -9.41591 -1.22966 520.206 442.559
5.01646 -11.7734 -0.889322 580.477 440.127
6.88348 -13.1063 -0.915728 588.416 435.744
9.22712 -13.1999 -0.715357 597.701 436.421
11.319 -12.2501 -0.519138 605.525 441.086
9.35573 -11.5162 -0.819718 597.43 443.113
7.15207 -11.3849 -0.968137 588.686 442.642
-5.52025 10.0848 -2.72284 528.897 521.485
-3.94625 8.26519 -4.85758 535.597 515.336
-2.00593 6.83017 -6.59264 543.621 510.813
0.281062 6.70813 -8.25287 552.426 511.601
2.67598 6.23717 -6.62198 562.292 510.627
5.09354 7.13803 -4.90384 571.64 515.045
7.44115 8.33906 -2.86771 580.623 520.568
5.69995 10.0017 -4.1209 572.842 526.476
3.54804 11.1526 -5.45962 563.666 530.195
1.06197 11.6789 -6.54347 553.497 531.271
-1.43166 11.9174 -5.3507 543.759 530.91
-3.74691 11.3948 -4.08023 535.078 527.627
-1.94804 9.006 -4.92996 543.107 519.172
0.507015 8.45382 -7.30947 552.662 518.441
3.18701 8.23508 -5.43235 563.571 518.556
3.21384 8.66273 -4.7978 563.575 520.165
0.583804 9.06685 -6.43264 552.814 520.769
-1.91968 9.39172 -4.42574 543.118 520.634
3 20 21 23
3 21 22 23
3 0 1 36
3 15 16 45
3 0 17 36
3 16 26 45
3 17 18 37
3 25 26 44
3 17 36 37
3 26 44 45
3 18 19 38
3 24 25 43
3 18 37 38
3 25 43 44
3 19 20 38
3 23 24 43
3 20 21 39
3 22 23 42
3 20 38 39
3 23 42 43
3 21 22 27
3 21 27 39
3 22 27 42
3 27 28 42
3 27 28 39
3 28 42 47
3 28 39 40
3 1 36 41
3 15 45 46
3 1 2 41
3 14 15 46
3 28 29 40
3 28 29 47
3 2 40 41
3 14 46 47
3 2 29 40
3 14 29 47
3 2 3 29
3 13 14 29
3 29 30 31
3 29 30 35
3 3 29 31
3 13 29 35
3 30 32 33
3 30 33 34
3 30 31 32
3 30 34 35
3 3 4 31
3 12 13 35
3 4 5 48
3 11 12 54
3 5 6 48
3 10 11 54
3 6 48 59
3 10 54 55
3 6 7 59
3 9 10 55
3 7 58 59
3 9 55 56
3 8 57 58
3 8 56 57
3 7 8 58
3 8 9 56
3 4 31 48
3 12 35 54
3 31 48 49
3 35 53 54
3 31 49 50
3 35 52 53
3 31 32 50
3 34 35 52
3 32 33 50
3 33 34 52
3 33 50 51
3 33 51 52
3 48 49 60
3 49 60 50
3 50 60 61
3 50 51 61
3 51 52 61
3 61 62 52
3 52 53 62
3 53 54 62
3 54 55 63
3 55 56 63
3 56 63 64
3 56 57 64
3 64 65 57
3 57 58 65
3 58 59 65
3 48 59 65
