ply
format ascii 1.0
element vertex 66
property float x
property float y
property float z
property float u
property float v
element face 91
property list uchar int vertex_indices
end_header
-19.5874 -6.26676 20.6675 482.375 452.15
-19.3033 -1.04094 20.1571 481.672 472.977
-18.577 4.15509 19.9788 482.727 493.824
-17.3147 9.02348 18.1825 486.044 513.645
-15.3535 13.3962 13.5652 492.347 531.894
-12.3688 17.3208 8.08373 502.876 548.771
-8.31199 20.4656 3.30648 517.915 562.9
-3.42898 22.5763 -0.650334 536.577 573.179
2.10422 22.6783 -4.2477 558.516 575.712
7.0766 21.9126 -0.952208 578.433 574.255
11.2016 19.5563 3.27429 595.538 566.151
14.6672 16.5237 8.12363 610.26 555.105
17.0261 12.771 13.7314 620.838 540.778
18.188 8.26978 18.6062 626.948 523.103
18.7214 3.0384 20.6707 630.868 502.461
18.9129 -2.54056 21.1346 633.58 480.405
18.8612 -8.10414 21.595 635.322 458.324
-15.4875 -14.8639 0.0661666 501.95 420.598
-13.6266 -16.5982 -1.56508 509.956 414.466
-11.2945 -17.4329 -3.00015 519.51 412.052
-8.86857 -17.6563 -4.42611 529.221 412.093
-6.52706 -17.3628 -5.79406 538.414 414.148
2.58103 -18.074 -5.289 574.739 414.503
5.45879 -19.1232 -3.97349 586.488 411.289
8.51909 -19.5008 -2.57057 598.723 410.796
11.5879 -18.8616 -1.23858 610.635 414.336
14.1346 -16.9565 0.314017 620.031 422.697
-1.85622 -12.191 -5.22237 555.092 436.246
-1.67927 -9.39847 -7.75587 554.851 447.5
-1.47013 -6.6395 -10.411 554.75 458.64
-1.20918 -3.8836 -13.0008 554.855 469.782
-3.14803 0.642948 -6.03734 545.478 486.673
-2.02079 0.668482 -7.0402 549.95 487.221
-0.867955 0.522885 -7.96286 554.582 487.097
0.598864 0.353804 -7.05069 560.439 486.895
1.99107 0.0115587 -6.20979 566.061 485.985
-11.9719 -10.2318 -1.35078 514.272 440.255
-10.3051 -11.5753 -1.12939 521.344 435.507
-8.10945 -11.746 -0.941818 530.099 435.591
-6.30454 -10.8252 -0.79869 536.923 439.866
-8.09863 -9.94908 -1.22336 529.515 442.728
-10.1258 -9.65217 -1.25911 521.38 443.194
4.84632 -12.0427 -0.714485 581.524 438.954
6.55877 -13.3679 -0.8184 588.776 434.311
8.8267 -13.4389 -0.747532 597.784 434.822
10.822 -12.496 -0.700009 605.356 439.256
9.01136 -11.6135 -0.821051 597.875 442.122
6.87303 -11.4909 -0.943787 589.363 441.863
-3.48741 10.7974 -2.85869 540.518 526.614
-2.51485 8.82269 -5.00464 545.097 519.244
-1.22 7.01347 -6.72403 550.888 512.62
0.591027 6.81976 -8.44056 558.157 512.578
2.52805 6.52101 -6.62327 565.908 511.98
4.33437 7.88666 -4.95297 572.559 517.938
6.05035 9.33886 -2.89757 578.815 524.187
4.8424 10.6773 -4.2041 573.579 529.132
3.32174 11.7239 -5.49729 567.207 532.811
1.33602 12.2145 -6.7043 559.186 534.12
-0.613057 12.3519 -5.49119 551.398 533.917
-2.25755 11.8406 -4.15366 545.043 531.245
-0.737311 9.18273 -4.7994 552.009 521.283
0.803777 8.44904 -7.05747 558.406 519.035
2.59359 8.58473 -5.20596 565.421 520.105
2.58794 9.29393 -4.6584 565.141 522.884
0.918904 9.67182 -6.00784 558.417 523.865
-0.625028 9.84728 -4.32908 552.213 523.931
3 20 21 23
3 21 22 23
3 0 1 36
3 15 16 45
3 0 17 36
3 16 26 45
3 17 18 37
3 25 26 44
3 17 36 37
3 26 44 45
3 18 19 38
3 24 25 43
3 18 37 38
3 25 43 44
3 19 20 38
3 23 24 43
3 20 21 39
3 22 23 42
3 20 38 39
3 23 42 43
3 21 22 27
3 21 27 39
3 22 27 42
3 27 28 42
3 27 28 39
3 28 42 47
3 28 39 40
3 1 36 41
3 15 45 46
3 1 2 41
3 14 15 46
3 28 29 40
3 28 29 47
3 2 40 41
3 14 46 47
3 2 29 40
3 14 29 47
3 2 3 29
3 13 14 29
3 29 30 31
3 29 30 35
3 3 29 31
3 13 29 35
3 30 32 33
3 30 33 34
3 30 31 32
3 30 34 35
3 3 4 31
3 12 13 35
3 4 5 48
3 11 12 54
3 5 6 48
3 10 11 54
3 6 48 59
3 10 54 55
3 6 7 59
3 9 10 55
3 7 58 59
3 9 55 56
3 8 57 58
3 8 56 57
3 7 8 58
3 8 9 56
3 4 31 48
3 12 35 54
3 31 48 49
3 35 53 54
3 31 49 50
3 35 52 53
3 31 32 50
3 34 35 52
3 32 33 50
3 33 34 52
3 33 50 51
3 33 51 52
3 48 49 60
3 49 60 50
3 50 60 61
3 50 51 61
3 51 52 61
3 61 62 52
3 52 53 62
3 53 54 62
3 54 55 63
3 55 56 63
3 56 63 64
3 56 57 64
3 64 65 57
3 57 58 65
3 58 59 65
3 48 59 65
