ply
format ascii 1.0
element vertex 66
property float x
property float y
property float z
property float u
property float v
element face 91
property list uchar int vertex_indices
end_header
-19.7626 -5.97633 21.1596 480.417 450.647
-19.2964 -0.675217 20.6802 480.942 471.705
-18.5043 4.60159 20.358 482.749 492.702
-17.3412 9.64014 18.3756 486.147 513.337
-15.5309 14.1859 13.6338 492.334 532.996
-12.542 17.9997 8.04098 503.379 550.319
-8.48643 20.8776 3.26184 518.82 563.998
-3.7468 22.7563 -0.779534 537.172 573.711
1.48539 22.9107 -4.49305 557.88 576.684
6.57926 21.9887 -0.779486 577.994 573.249
10.8368 19.3671 3.39743 595.223 562.804
14.3805 15.9896 8.18591 609.807 549.039
16.8837 11.9286 13.7775 620.434 532.103
18.233 7.30247 18.5037 626.7 512.913
18.8334 2.25075 20.6425 630.237 492.618
18.9905 -3.01489 21.0077 632.16 471.886
18.8131 -8.27358 21.3542 632.766 451.104
-16.1986 -14.5725 0.118217 497.504 423.879
-14.2455 -16.6627 -1.56963 505.785 416.647
-11.6175 -17.7483 -2.96389 516.458 413.439
-8.80368 -18.0044 -4.31285 527.652 413.52
-6.03744 -17.6344 -5.58029 538.498 416.021
2.95071 -18.0985 -5.45375 573.974 416.384
5.7219 -18.9974 -4.13757 585.047 413.16
8.66409 -19.251 -2.74125 596.626 412.488
11.573 -18.617 -1.31976 607.852 415.283
13.9543 -16.8176 0.316708 616.699 422.459
-1.02614 -12.3245 -5.03508 556.86 437.94
-0.87356 -9.43748 -7.6791 556.85 450.073
-0.713729 -6.58265 -10.4941 556.885 462.13
-0.535512 -3.73841 -13.2732 556.992 474.141
-2.96837 0.589618 -6.15622 546.027 488.466
-1.55278 0.708263 -7.13309 551.609 489.564
-0.105535 0.639032 -8.0674 557.361 489.92
1.39102 0.479275 -7.08438 563.247 489.378
2.8182 0.124461 -6.20296 568.914 488.083
-12.2236 -10.016 -1.05758 512.052 443.083
-10.4749 -11.5692 -1.1115 519.324 437.435
-8.09794 -11.7551 -1.13115 528.724 437.299
-6.14791 -10.5317 -0.869847 536.078 442.506
-8.07266 -9.55521 -1.16949 528.273 445.949
-10.242 -9.29525 -1.14173 519.671 446.426
4.78957 -11.3937 -0.850723 579.329 441.819
6.53457 -12.8736 -1.05071 586.575 436.5
8.90206 -13.0128 -0.885537 595.918 436.491
10.8671 -11.7558 -0.695371 603.326 441.854
9.01687 -10.7513 -0.897555 595.803 445.398
6.83124 -10.6947 -1.01218 587.194 445.113
-5.23536 10.0677 -2.85544 534.587 524.148
-3.53518 8.29669 -4.99924 541.814 518.238
-1.63111 6.73018 -6.70859 549.772 513.055
0.640121 6.67825 -8.35049 558.793 513.887
2.91974 6.3507 -6.52801 567.766 512.637
5.06247 7.5512 -4.82862 575.822 517.386
7.06136 8.97962 -2.74206 583.239 522.882
5.52252 10.5099 -4.12854 576.86 528.909
3.50277 11.5284 -5.40656 568.713 532.777
1.12653 11.919 -6.74835 559.323 534.111
-1.26229 11.9578 -5.51831 549.861 533.317
-3.45946 11.3469 -4.1806 541.311 529.99
-1.38412 8.92121 -5.067 550.124 521.239
0.818644 8.51176 -7.20974 558.986 520.797
3.08653 8.51215 -5.07028 567.817 520.739
3.11511 8.91966 -4.53474 567.804 522.191
0.885882 9.17733 -6.25989 559.043 523.15
-1.33153 9.33302 -4.54739 550.205 522.718
3 20 21 23
3 21 22 23
3 0 1 36
3 15 16 45
3 0 17 36
3 16 26 45
3 17 18 37
3 25 26 44
3 17 36 37
3 26 44 45
3 18 19 38
3 24 25 43
3 18 37 38
3 25 43 44
3 19 20 38
3 23 24 43
3 20 21 39
3 22 23 42
3 20 38 39
3 23 42 43
3 21 22 27
3 21 27 39
3 22 27 42
3 27 28 42
3 27 28 39
3 28 42 47
3 28 39 40
3 1 36 41
3 15 45 46
3 1 2 41
3 14 15 46
3 28 29 40
3 28 29 47
3 2 40 41
3 14 46 47
3 2 29 40
3 14 29 47
3 2 3 29
3 13 14 29
3 29 30 31
3 29 30 35
3 3 29 31
3 13 29 35
3 30 32 33
3 30 33 34
3 30 31 32
3 30 34 35
3 3 4 31
3 12 13 35
3 4 5 48
3 11 12 54
3 5 6 48
3 10 11 54
3 6 48 59
3 10 54 55
3 6 7 59
3 9 10 55
3 7 58 59
3 9 55 56
3 8 57 58
3 8 56 57
3 7 8 58
3 8 9 56
3 4 31 48
3 12 35 54
3 31 48 49
3 35 53 54
3 31 49 50
3 35 52 53
3 31 32 50
3 34 35 52
3 32 33 50
3 33 34 52
3 33 50 51
3 33 51 52
3 48 49 60
3 49 60 50
3 50 60 61
3 50 51 61
3 51 52 61
3 61 62 52
3 52 53 62
3 53 54 62
3 54 55 63
3 55 56 63
3 56 63 64
3 56 57 64
3 64 65 57
3 57 58 65
3 58 59 65
3 48 59 65
