ply
format ascii 1.0
element vertex 66
property float x
property float y
property float z
property float u
property float v
element face 91
property list uchar int vertex_indices
end_header
-19.6574 -6.07473 21.1081 480.486 451.605
-19.2145 -0.782174 20.6102 481.051 472.756
-18.4381 4.48608 20.299 482.93 493.84
-17.2757 9.51183 18.3514 486.502 514.46
-15.4637 14.0533 13.6487 492.94 533.999
-12.5024 17.9047 8.04976 504.148 551.293
-8.47989 20.8516 3.2509 519.717 565.052
-3.75976 22.8182 -0.772174 538.223 574.899
1.49027 23.0217 -4.47847 559.216 577.816
6.60084 22.1417 -0.798838 579.42 574.576
10.8641 19.5358 3.36629 596.635 564.199
14.3974 16.1591 8.17016 611.095 550.451
16.8756 12.0948 13.7809 621.481 533.543
18.1939 7.44957 18.5013 627.465 514.298
18.7727 2.35575 20.614 630.795 493.761
18.9197 -2.95947 20.9923 632.58 472.684
18.7412 -8.26427 21.3572 633.074 451.578
-16.0778 -14.6428 0.1155 498.023 423.769
-14.1605 -16.6722 -1.55778 506.196 416.595
-11.5979 -17.7271 -2.95831 516.682 413.353
-8.85756 -17.9836 -4.31759 527.685 413.298
-6.16613 -17.6355 -5.59538 538.35 415.602
2.81547 -18.0551 -5.44645 574.014 415.939
5.5931 -18.9523 -4.1255 585.136 412.691
8.53892 -19.2055 -2.73358 596.772 412.01
11.4523 -18.5627 -1.32406 608.071 414.86
13.8402 -16.7611 0.301737 617.007 422.119
-1.10439 -12.33 -5.05532 557.139 437.591
-0.935482 -9.49194 -7.69172 557.326 449.508
-0.759207 -6.68437 -10.4808 557.559 461.344
-0.561416 -3.88606 -13.2299 557.877 473.139
-3.04459 0.56239 -6.16043 546.549 488.404
-1.59971 0.702134 -7.12577 552.304 489.524
-0.118659 0.634995 -8.0406 558.246 489.822
1.43106 0.453133 -7.07624 564.363 489.213
2.89932 0.0561949 -6.22937 570.215 487.765
-12.1254 -10.0669 -1.08809 512.701 443.056
-10.4113 -11.5418 -1.10843 519.833 437.618
-8.10638 -11.7228 -1.10877 529.004 437.424
-6.19844 -10.5966 -0.875647 536.286 442.25
-8.07712 -9.66001 -1.17452 528.648 445.603
-10.1896 -9.40003 -1.15243 520.219 446.147
4.7361 -11.4508 -0.833892 579.793 441.338
6.45964 -12.8412 -1.04091 586.955 436.282
8.7607 -12.9662 -0.88983 596.088 436.271
10.6947 -11.8001 -0.711747 603.468 441.275
8.87549 -10.8541 -0.895316 596.056 444.65
6.73819 -10.7965 -0.99492 587.583 444.418
-5.15419 10.0554 -2.83305 535.783 524.633
-3.49594 8.25728 -4.97611 542.907 518.432
-1.59884 6.68212 -6.69803 550.898 513.063
0.680297 6.60904 -8.35808 560.052 513.703
2.9811 6.29373 -6.51055 569.117 512.517
5.14025 7.49393 -4.806 577.28 517.327
7.14026 8.92888 -2.72398 584.734 522.934
5.62496 10.5312 -4.12015 578.454 529.275
3.61031 11.6259 -5.40034 570.305 533.466
1.19376 12.0451 -6.75187 560.725 534.913
-1.2271 12.072 -5.51228 551.048 534.163
-3.41135 11.3962 -4.16061 542.464 530.66
-1.39222 8.8595 -5.03177 551.105 521.304
0.857462 8.40886 -7.20088 560.262 520.572
3.19021 8.42544 -5.06697 569.358 520.633
3.2445 9.04628 -4.54102 569.395 522.969
0.946189 9.36558 -6.23505 560.329 524.134
-1.33292 9.47897 -4.51782 551.163 523.638
3 20 21 23
3 21 22 23
3 0 1 36
3 15 16 45
3 0 17 36
3 16 26 45
3 17 18 37
3 25 26 44
3 17 36 37
3 26 44 45
3 18 19 38
3 24 25 43
3 18 37 38
3 25 43 44
3 19 20 38
3 23 24 43
3 20 21 39
3 22 23 42
3 20 38 39
3 23 42 43
3 21 22 27
3 21 27 39
3 22 27 42
3 27 28 42
3 27 28 39
3 28 42 47
3 28 39 40
3 1 36 41
3 15 45 46
3 1 2 41
3 14 15 46
3 28 29 40
3 28 29 47
3 2 40 41
3 14 46 47
3 2 29 40
3 14 29 47
3 2 3 29
3 13 14 29
3 29 30 31
3 29 30 35
3 3 29 31
3 13 29 35
3 30 32 33
3 30 33 34
3 30 31 32
3 30 34 35
3 3 4 31
3 12 13 35
3 4 5 48
3 11 12 54
3 5 6 48
3 10 11 54
3 6 48 59
3 10 54 55
3 6 7 59
3 9 10 55
3 7 58 59
3 9 55 56
3 8 57 58
3 8 56 57
3 7 8 58
3 8 9 56
3 4 31 48
3 12 35 54
3 31 48 49
3 35 53 54
3 31 49 50
3 35 52 53
3 31 32 50
3 34 35 52
3 32 33 50
3 33 34 52
3 33 50 51
3 33 51 52
3 48 49 60
3 49 60 50
3 50 60 61
3 50 51 61
3 51 52 61
3 61 62 52
3 52 53 62
3 53 54 62
3 54 55 63
3 55 56 63
3 56 63 64
3 56 57 64
3 64 65 57
3 57 58 65
3 58 59 65
3 48 59 65
