ply
format ascii 1.0
element vertex 66
property float x
property float y
property float z
property float u
property float v
element face 91
property list uchar int vertex_indices
end_header
-19.8312 -5.74577 20.7543 483.343 448.325
-19.5088 -0.643713 20.2609 482.724 468.529
-18.7472 4.42441 20.083 483.909 488.665
-17.4188 9.29423 18.14 486.972 508.762
-15.2595 13.8236 13.5329 492.786 528.628
-12.0551 17.8126 7.97045 502.656 547.049
-7.88614 20.956 3.26114 516.792 562.261
-2.95426 22.9718 -0.714865 534.476 573.122
2.48553 23.0312 -4.25182 554.926 576.392
7.1853 21.8675 -0.928223 574.496 572.556
11.0773 19.2421 3.33755 591.63 562.432
14.4035 16.0143 8.18295 606.891 549.574
16.763 12.093 13.8601 618.803 533.406
18.0376 7.48735 18.6371 626.495 514.438
18.6397 2.40327 20.8004 631.114 494.14
18.8817 -2.88777 21.1676 633.979 473.44
18.878 -8.16799 21.6597 635.906 452.656
-15.4291 -14.6315 0.0524235 498.844 421.404
-13.5052 -16.397 -1.58156 506.606 415.693
-11.0253 -17.2887 -3.01555 516.289 413.54
-8.40333 -17.5323 -4.40739 526.313 413.958
-5.83796 -17.2244 -5.76503 535.933 416.5
2.93228 -18.111 -5.35711 570.663 416.101
5.90927 -19.0995 -4.05518 582.959 412.93
9.03257 -19.4143 -2.63163 595.624 412.408
12.0956 -18.6771 -1.25348 607.678 415.989
14.5237 -16.7199 0.311162 616.868 424.052
-1.78253 -12.1219 -5.15901 550.18 437.734
-1.70139 -9.30492 -7.63736 548.947 449.515
-1.582 -6.52635 -10.3768 547.817 461.238
-1.41291 -3.77224 -13.1657 546.878 472.898
-4.36342 0.476801 -6.17214 535.481 486.335
-2.76413 0.797968 -7.10124 541.414 488.45
-1.09129 0.784799 -8.01647 547.754 489.281
0.863713 0.442201 -7.17254 555.721 488.4
2.69155 -0.208012 -6.27326 563.309 486.253
-11.875 -9.88543 -1.27552 510.804 441.642
-10.2 -11.0875 -1.16074 517.803 437.518
-8.06955 -11.2878 -1.00043 526.249 437.462
-6.19339 -10.632 -0.770303 533.419 440.638
-8.00514 -9.89194 -1.09067 525.996 442.967
-9.99252 -9.55923 -1.19888 518.077 443.578
5.23013 -11.9473 -0.897548 578.558 439.688
7.06058 -12.9647 -0.869582 586.081 436.368
9.26073 -12.9711 -0.754149 594.722 437.108
11.1903 -12.0874 -0.66471 601.99 441.237
9.30102 -11.5032 -0.844247 594.351 442.887
7.21577 -11.4612 -0.985144 586.142 442.335
-5.02066 10.3951 -2.78972 530.26 523.843
-3.72183 8.42843 -4.87646 535.54 517.255
-1.95342 6.78993 -6.56279 542.638 512
0.293221 6.68497 -8.1869 551.091 512.893
2.63856 6.21985 -6.53411 560.816 511.433
4.87359 7.34911 -4.85651 569.563 516.155
6.88357 8.7804 -2.86323 577.397 521.882
5.32636 10.3271 -4.12397 570.474 527.738
3.40028 11.4376 -5.45786 562.241 531.778
1.09432 12.003 -6.64543 552.743 533.505
-1.24095 12.1544 -5.41698 543.835 532.88
-3.3778 11.6376 -4.14789 535.945 529.704
-1.62532 9.01543 -4.89216 543.539 520.316
0.535721 8.47156 -7.22407 551.645 519.675
2.91183 8.32528 -5.29246 561.445 519.388
2.90752 8.88369 -4.71473 561.369 521.395
0.644922 9.38228 -6.41432 551.945 523.031
-1.52871 9.54454 -4.46368 543.834 522.29
3 20 21 23
3 21 22 23
3 0 1 36
3 15 16 45
3 0 17 36
3 16 26 45
3 17 18 37
3 25 26 44
3 17 36 37
3 26 44 45
3 18 19 38
3 24 25 43
3 18 37 38
3 25 43 44
3 19 20 38
3 23 24 43
3 20 21 39
3 22 23 42
3 20 38 39
3 23 42 43
3 21 22 27
3 21 27 39
3 22 27 42
3 27 28 42
3 27 28 39
3 28 42 47
3 28 39 40
3 1 36 41
3 15 45 46
3 1 2 41
3 14 15 46
3 28 29 40
3 28 29 47
3 2 40 41
3 14 46 47
3 2 29 40
3 14 29 47
3 2 3 29
3 13 14 29
3 29 30 31
3 29 30 35
3 3 29 31
3 13 29 35
3 30 32 33
3 30 33 34
3 30 31 32
3 30 34 35
3 3 4 31
3 12 13 35
3 4 5 48
3 11 12 54
3 5 6 48
3 10 11 54
3 6 48 59
3 10 54 55
3 6 7 59
3 9 10 55
3 7 58 59
3 9 55 56
3 8 57 58
3 8 56 57
3 7 8 58
3 8 9 56
3 4 31 48
3 12 35 54
3 31 48 49
3 35 53 54
3 31 49 50
3 35 52 53
3 31 32 50
3 34 35 52
3 32 33 50
3 33 34 52
3 33 50 51
3 33 51 52
3 48 49 60
3 49 60 50
3 50 60 61
3 50 51 61
3 51 52 61
3 61 62 52
3 52 53 62
3 53 54 62
3 54 55 63
3 55 56 63
3 56 63 64
3 56 57 64
3 64 65 57
3 57 58 65
3 58 59 65
3 48 59 65
