ply
format ascii 1.0
element vertex 66
property float x
property float y
property float z
property float u
property float v
element face 91
property list uchar int vertex_indices
end_header
-20.0014 -6.0964 21.1602 487.653 451.132
-19.284 -0.768455 20.6548 489.643 471.336
-18.2826 4.50707 20.1171 492.737 491.379
-16.9196 9.6783 18.1925 497.548 510.465
-14.9146 14.4962 13.458 505.515 527.051
-11.8918 18.6072 7.88142 517.689 540.756
-8.05559 21.9544 3.10408 532.922 552.069
-3.61079 24.4242 -1.07667 550.495 560.425
1.45005 25.0872 -4.63655 570.583 562.297
6.54288 23.7733 -0.877536 589.454 559.964
10.638 20.5271 3.32097 604.72 550.28
13.9112 16.4549 8.03882 616.854 537.529
16.3937 11.8868 13.5293 625.865 523.089
17.9384 6.9671 18.1642 631.536 506.743
18.6844 1.92371 20.1187 634.777 488.559
18.9266 -3.15029 20.5563 636.436 469.474
18.7936 -8.23397 20.9303 636.675 450.252
-15.7674 -15.6808 0.0798856 510.235 405.861
-13.4739 -17.0218 -1.44821 519.588 400.494
-10.8257 -17.488 -2.846 530.128 398.587
-8.1473 -17.3424 -4.25237 540.684 399.012
-5.54403 -16.6695 -5.49135 550.828 401.508
2.897 -16.9321 -5.51892 583.214 402.098
5.24398 -17.8567 -4.21712 592.061 399.612
7.74798 -18.3105 -2.79642 601.405 399.004
10.3126 -18.2659 -1.35888 610.895 400.313
12.6787 -17.3507 0.242805 619.446 404.975
-0.547988 -11.499 -4.89246 568.984 422.426
-0.33937 -8.62847 -7.6727 569.944 432.139
-0.144135 -5.77173 -10.5189 570.871 441.768
0.0469317 -2.9297 -13.23 571.753 451.401
-3.04769 0.360817 -6.19066 557.759 466.542
-1.33586 0.81492 -7.11092 564.451 468.18
0.469985 0.952627 -7.95656 571.539 468.664
2.13779 0.595109 -6.98259 577.765 468.06
3.64389 -0.0833035 -6.13879 583.454 466.145
-12.0548 -10.853 -1.02648 523.918 424.455
-10.5173 -11.8009 -1.01265 529.96 421.143
-8.64951 -12.0445 -0.975404 537.147 420.586
-6.99708 -11.4052 -0.851413 543.344 423.392
-8.62411 -10.7736 -0.983531 537.038 425.429
-10.3888 -10.5945 -0.987582 530.249 425.774
4.98613 -12.0177 -0.763674 589.331 423.374
6.49093 -12.7885 -0.941637 595.262 420.643
8.32072 -12.8345 -0.951154 602.282 420.811
9.92032 -12.0918 -0.891272 608.274 423.971
8.34754 -11.6149 -0.865059 602.165 425.501
6.61849 -11.6073 -0.844068 595.535 425.211
-5.68453 9.1404 -2.75505 545.437 501.046
-3.99946 7.36789 -4.88573 552.667 493.647
-1.82417 6.03267 -6.54571 561.597 488.221
0.722925 6.0726 -8.22835 571.73 488.093
3.20643 5.72219 -6.29916 580.863 488.105
5.46741 6.74111 -4.64695 588.982 493.165
7.24229 8.32887 -2.54365 595.043 500.505
5.81787 10.267 -3.94493 589.587 506.982
3.72972 11.5864 -5.05929 581.625 511.107
1.14877 12.1167 -6.54123 571.988 511.964
-1.50868 11.8842 -5.27123 561.557 511.15
-3.82713 10.8485 -4.11879 552.583 507.287
-1.60624 7.99152 -5.10824 561.784 496.376
0.866395 7.76864 -7.28031 571.786 495.011
3.29892 7.71123 -4.85104 580.562 496.357
3.43884 9.01019 -4.36212 580.774 501.554
1.02472 9.60107 -6.22879 571.854 502.499
-1.48562 9.30404 -4.57113 561.909 501.643
3 20 21 23
3 21 22 23
3 0 1 36
3 15 16 45
3 0 17 36
3 16 26 45
3 17 18 37
3 25 26 44
3 17 36 37
3 26 44 45
3 18 19 38
3 24 25 43
3 18 37 38
3 25 43 44
3 19 20 38
3 23 24 43
3 20 21 39
3 22 23 42
3 20 38 39
3 23 42 43
3 21 22 27
3 21 27 39
3 22 27 42
3 27 28 42
3 27 28 39
3 28 42 47
3 28 39 40
3 1 36 41
3 15 45 46
3 1 2 41
3 14 15 46
3 28 29 40
3 28 29 47
3 2 40 41
3 14 46 47
3 2 29 40
3 14 29 47
3 2 3 29
3 13 14 29
3 29 30 31
3 29 30 35
3 3 29 31
3 13 29 35
3 30 32 33
3 30 33 34
3 30 31 32
3 30 34 35
3 3 4 31
3 12 13 35
3 4 5 48
3 11 12 54
3 5 6 48
3 10 11 54
3 6 48 59
3 10 54 55
3 6 7 59
3 9 10 55
3 7 58 59
3 9 55 56
3 8 57 58
3 8 56 57
3 7 8 58
3 8 9 56
3 4 31 48
3 12 35 54
3 31 48 49
3 35 53 54
3 31 49 50
3 35 52 53
3 31 32 50
3 34 35 52
3 32 33 50
3 33 34 52
3 33 50 51
3 33 51 52
3 48 49 60
3 49 60 50
3 50 60 61
3 50 51 61
3 51 52 61
3 61 62 52
3 52 53 62
3 53 54 62
3 54 55 63
3 55 56 63
3 56 63 64
3 56 57 64
3 64 65 57
3 57 58 65
3 58 59 65
3 48 59 65
