ply
format ascii 1.0
element vertex 66
property float x
property float y
property float z
property float u
property float v
element face 91
property list uchar int vertex_indices
end_header
-20.3626 -5.56643 21.3515 490.68 452.754
-19.5298 -0.261018 20.8762 492.392 473.103
-18.4565 4.99931 20.3415 495.04 493.341
-17.1144 10.0888 18.2649 498.948 512.753
-15.1089 14.6927 13.5147 505.849 530.072
-11.9724 18.4502 7.92262 517.399 544.362
-8.01263 21.3971 3.18467 532.21 555.948
-3.53226 23.5308 -1.09594 549.18 564.667
1.49251 23.9275 -4.6112 568.624 567.061
6.6344 22.8188 -0.814124 588.047 564.962
10.9031 19.8714 3.38556 604.623 555.68
14.3384 16.0503 8.10903 618.213 542.918
16.8147 11.6251 13.6546 628.223 527.714
18.1736 6.80109 18.2349 634.213 510.508
18.7661 1.80296 20.2202 637.654 491.991
18.9558 -3.27068 20.593 639.78 472.805
18.7864 -8.34315 21.0627 640.528 453.535
-16.3234 -15.5042 0.126758 511.499 412.637
-13.8551 -16.9796 -1.40505 521.504 407.491
-11.0183 -17.5164 -2.82186 532.629 406.041
-8.15968 -17.4017 -4.20678 543.647 407.082
-5.38072 -16.7417 -5.42161 554.185 410.202
3.46403 -17.1513 -5.53166 587.983 411.2
5.75589 -17.9694 -4.23608 596.782 408.967
8.19465 -18.3606 -2.81502 606.002 408.422
10.7095 -18.3616 -1.32263 615.392 409.395
13.1149 -17.553 0.275255 624.121 413.433
-0.231212 -11.6359 -4.83504 572.255 431.222
0.0285267 -8.56562 -7.65364 572.712 442.516
0.268764 -5.52171 -10.6254 573.121 453.678
0.484279 -2.48733 -13.4705 573.423 464.818
-2.85615 0.808407 -6.37886 558.896 477.549
-1.10052 1.24587 -7.23954 565.559 479.583
0.746549 1.37401 -8.01439 572.648 480.481
2.3753 1.07301 -7.09466 578.821 479.961
3.86617 0.467201 -6.15167 584.554 478.244
-12.2791 -10.8777 -0.800261 525.684 431.264
-10.6287 -11.8749 -0.948345 532.27 427.926
-8.66968 -12.078 -1.05803 539.798 427.705
-6.9608 -11.2566 -0.933 546.053 431.348
-8.69768 -10.716 -0.969114 539.291 432.893
-10.5449 -10.5665 -0.937543 532.213 432.929
5.10417 -11.8065 -0.813963 592.12 432.786
6.64413 -12.7535 -0.949045 598.269 429.609
8.56146 -12.8662 -0.932106 605.597 429.741
10.244 -12.0353 -0.861896 611.755 433.403
8.6129 -11.5116 -0.929511 605.405 434.91
6.81981 -11.4779 -0.907964 598.568 434.519
-6.82125 8.97914 -2.80076 541.029 508.068
-4.53361 7.58514 -4.89209 550.391 503.087
-2.05401 6.54785 -6.56195 560.331 499.588
0.585597 6.66455 -8.25772 570.553 500.522
3.1004 6.32014 -6.42313 579.999 500.244
5.52245 7.12498 -4.71968 588.78 504.291
7.68728 8.3873 -2.60615 596.4 510.07
5.88328 10.1443 -3.94008 589.194 516.011
3.45526 11.1698 -5.0274 579.793 519.027
0.750016 11.5059 -6.37914 569.565 519.297
-2.04021 11.3547 -5.19454 558.842 518.104
-4.62794 10.512 -4.13363 549.103 514.319
-2.20495 8.36387 -5.34745 559.089 506.653
0.654616 8.25955 -7.54607 570.273 506.727
3.38311 8.17188 -4.97793 580.369 507.609
3.47224 8.79801 -4.39682 580.458 510.112
0.706985 9.0882 -6.43438 570.099 510.077
-2.17895 9.01022 -4.69272 558.923 509.227
3 20 21 23
3 21 22 23
3 0 1 36
3 15 16 45
3 0 17 36
3 16 26 45
3 17 18 37
3 25 26 44
3 17 36 37
3 26 44 45
3 18 19 38
3 24 25 43
3 18 37 38
3 25 43 44
3 19 20 38
3 23 24 43
3 20 21 39
3 22 23 42
3 20 38 39
3 23 42 43
3 21 22 27
3 21 27 39
3 22 27 42
3 27 28 42
3 27 28 39
3 28 42 47
3 28 39 40
3 1 36 41
3 15 45 46
3 1 2 41
3 14 15 46
3 28 29 40
3 28 29 47
3 2 40 41
3 14 46 47
3 2 29 40
3 14 29 47
3 2 3 29
3 13 14 29
3 29 30 31
3 29 30 35
3 3 29 31
3 13 29 35
3 30 32 33
3 30 33 34
3 30 31 32
3 30 34 35
3 3 4 31
3 12 13 35
3 4 5 48
3 11 12 54
3 5 6 48
3 10 11 54
3 6 48 59
3 10 54 55
3 6 7 59
3 9 10 55
3 7 58 59
3 9 55 56
3 8 57 58
3 8 56 57
3 7 8 58
3 8 9 56
3 4 31 48
3 12 35 54
3 31 48 49
3 35 53 54
3 31 49 50
3 35 52 53
3 31 32 50
3 34 35 52
3 32 33 50
3 33 34 52
3 33 50 51
3 33 51 52
3 48 49 60
3 49 60 50
3 50 60 61
3 50 51 61
3 51 52 61
3 61 62 52
3 52 53 62
3 53 54 62
3 54 55 63
3 55 56 63
3 56 63 64
3 56 57 64
3 64 65 57
3 57 58 65
3 58 59 65
3 48 59 65
