ply
format ascii 1.0
element vertex 66
property float x
property float y
property float z
property float u
property float v
element face 91
property list uchar int vertex_indices
end_header
-20.4185 -5.56274 21.2911 490.135 453.632
-19.5858 -0.291473 20.8095 491.935 473.784
-18.4956 4.93304 20.2976 494.731 493.826
-17.1157 9.9988 18.2632 498.879 513.057
-15.0682 14.5998 13.4792 506.067 530.192
-11.9198 18.3902 7.91994 517.765 544.408
-7.97534 21.4032 3.21432 532.58 556.056
-3.5038 23.5984 -1.07905 549.563 564.823
1.5232 24.0408 -4.58001 569.022 567.239
6.63561 22.9179 -0.825032 588.233 565.104
10.8762 19.9654 3.39805 604.564 555.87
14.2969 16.1428 8.08402 617.952 543.191
16.8002 11.7349 13.5965 627.9 528.191
18.198 6.91828 18.2478 633.878 511.171
18.8239 1.91888 20.2029 637.343 492.733
19.0448 -3.14706 20.5798 639.504 473.633
18.9067 -8.21263 21.0532 640.288 454.452
-16.3016 -15.6017 0.125556 511.408 412.673
-13.8301 -17.0183 -1.42037 521.394 407.69
-11.0194 -17.5278 -2.83776 532.405 406.27
-8.19015 -17.415 -4.22171 543.314 407.223
-5.43793 -16.7628 -5.42716 553.759 410.236
3.42735 -17.2083 -5.48871 587.568 410.996
5.73529 -18.0329 -4.2158 596.385 408.747
8.18501 -18.4247 -2.80923 605.605 408.205
10.7064 -18.4249 -1.33117 614.981 409.184
13.1238 -17.6301 0.293063 623.726 413.179
-0.316568 -11.7633 -4.81246 571.775 430.756
-0.0400406 -8.5523 -7.65672 572.346 442.487
0.219049 -5.36602 -10.6354 572.875 454.094
0.456031 -2.18888 -13.4571 573.302 465.689
-2.88867 0.93129 -6.37061 558.775 477.942
-1.13908 1.39813 -7.24361 565.415 480.036
0.710248 1.53843 -8.01954 572.509 480.936
2.35757 1.21226 -7.09757 578.729 480.329
3.85149 0.564132 -6.16664 584.453 478.459
-12.1971 -10.9227 -0.826081 525.863 431.397
-10.5981 -11.9072 -0.956262 532.223 428.08
-8.68927 -12.1184 -1.03724 539.543 427.793
-7.0166 -11.3325 -0.92896 545.67 431.262
-8.70345 -10.7889 -0.972088 539.12 432.849
-10.5003 -10.6359 -0.946786 532.249 432.935
5.06563 -11.909 -0.780428 591.708 432.458
6.57646 -12.8352 -0.927216 597.719 429.334
8.45158 -12.9383 -0.930226 604.871 429.463
10.0979 -12.1291 -0.858154 610.897 433.006
8.49753 -11.6221 -0.910794 604.686 434.476
6.74549 -11.5856 -0.878769 598.016 434.134
-6.63622 8.99891 -2.79745 541.858 508.202
-4.40808 7.61728 -4.89976 550.987 503.18
-1.97712 6.59946 -6.55864 560.726 499.678
0.611992 6.73453 -8.25656 570.759 500.59
3.08201 6.35811 -6.4194 579.993 500.194
5.47347 7.12703 -4.73374 588.638 504.095
7.61142 8.35732 -2.6038 596.134 509.762
5.82892 10.0819 -3.93561 589.077 515.563
3.43725 11.0819 -5.00708 579.867 518.493
0.791283 11.4199 -6.35468 569.908 518.787
-1.9298 11.2824 -5.1691 559.445 517.732
-4.47416 10.4844 -4.12198 549.851 514.193
-1.91752 8.45824 -5.32962 560.28 506.983
0.694473 8.39288 -7.50236 570.519 507.051
3.18206 8.27308 -4.98979 579.657 507.761
3.24283 8.64285 -4.4228 579.71 509.289
0.725408 8.89572 -6.41583 570.351 509.174
-1.89451 8.84337 -4.68878 560.175 508.573
3 20 21 23
3 21 22 23
3 0 1 36
3 15 16 45
3 0 17 36
3 16 26 45
3 17 18 37
3 25 26 44
3 17 36 37
3 26 44 45
3 18 19 38
3 24 25 43
3 18 37 38
3 25 43 44
3 19 20 38
3 23 24 43
3 20 21 39
3 22 23 42
3 20 38 39
3 23 42 43
3 21 22 27
3 21 27 39
3 22 27 42
3 27 28 42
3 27 28 39
3 28 42 47
3 28 39 40
3 1 36 41
3 15 45 46
3 1 2 41
3 14 15 46
3 28 29 40
3 28 29 47
3 2 40 41
3 14 46 47
3 2 29 40
3 14 29 47
3 2 3 29
3 13 14 29
3 29 30 31
3 29 30 35
3 3 29 31
3 13 29 35
3 30 32 33
3 30 33 34
3 30 31 32
3 30 34 35
3 3 4 31
3 12 13 35
3 4 5 48
3 11 12 54
3 5 6 48
3 10 11 54
3 6 48 59
3 10 54 55
3 6 7 59
3 9 10 55
3 7 58 59
3 9 55 56
3 8 57 58
3 8 56 57
3 7 8 58
3 8 9 56
3 4 31 48
3 12 35 54
3 31 48 49
3 35 53 54
3 31 49 50
3 35 52 53
3 31 32 50
3 34 35 52
3 32 33 50
3 33 34 52
3 33 50 51
3 33 51 52
3 48 49 60
3 49 60 50
3 50 60 61
3 50 51 61
3 51 52 61
3 61 62 52
3 52 53 62
3 53 54 62
3 54 55 63
3 55 56 63
3 56 63 64
3 56 57 64
3 64 65 57
3 57 58 65
3 58 59 65
3 48 59 65
