ply
format ascii 1.0
element vertex 66
property float x
property float y
property float z
property float u
property float v
element face 91
property list uchar int vertex_indices
end_header
-20.1344 -6.07329 21.183 489.016 450.858
-19.4035 -0.701595 20.6805 490.828 471.103
-18.3937 4.62521 20.1793 493.707 491.241
-17.0345 9.81367 18.274 498.239 510.351
-15.0246 14.5851 13.4886 505.939 526.834
-11.9615 18.6278 7.90541 517.951 540.467
-8.06055 21.9031 3.17546 533.115 551.741
-3.53941 24.2732 -1.03747 550.702 559.947
1.58864 24.8095 -4.60745 570.82 561.627
6.70538 23.5644 -0.859724 589.689 559.613
10.8578 20.4251 3.34804 605.176 550.42
14.1664 16.436 8.04608 617.526 538.033
16.615 11.9262 13.5711 626.538 523.832
18.069 7.04851 18.2416 632.031 507.667
18.7439 1.99399 20.1505 635.192 489.515
18.9481 -3.11985 20.5513 636.9 470.409
18.7925 -8.23532 20.9831 637.235 451.23
-15.9662 -15.447 0.0752952 511.207 407.613
-13.6601 -16.9068 -1.48006 520.582 401.964
-10.9613 -17.4617 -2.87837 531.234 399.885
-8.21807 -17.3671 -4.27718 541.926 400.27
-5.54681 -16.7268 -5.5023 552.198 402.772
3.12746 -17.0816 -5.49822 585.191 403.354
5.46325 -17.9681 -4.20882 593.958 401.058
7.9524 -18.3864 -2.79044 603.186 400.618
10.5022 -18.3215 -1.3499 612.544 402.025
12.8648 -17.3894 0.262997 620.981 406.739
-0.507472 -11.7685 -4.88078 570.205 422.876
-0.278967 -8.73998 -7.68802 571.069 433.202
-0.0623 -5.72779 -10.5599 571.904 443.437
0.146071 -2.72608 -13.2751 572.677 453.695
-3.04058 0.521751 -6.23398 558.433 468.18
-1.32326 0.986764 -7.1463 565.053 469.938
0.496848 1.11991 -7.97329 572.111 470.501
2.17276 0.774706 -7.01028 578.335 469.968
3.68194 0.0988417 -6.1113 584.006 468.122
-12.0118 -10.8652 -1.03534 525.54 425.336
-10.4532 -11.7894 -1.0306 531.639 422.191
-8.59145 -12.0434 -0.984413 538.746 421.664
-6.91709 -11.4326 -0.85752 544.952 424.394
-8.55976 -10.8415 -0.985481 538.627 426.211
-10.3286 -10.6547 -0.998115 531.879 426.519
4.97988 -12.06 -0.745229 590.208 424.706
6.51521 -12.818 -0.89395 596.218 422.121
8.34964 -12.8608 -0.944878 603.2 422.344
9.96775 -12.1335 -0.922698 609.192 425.46
8.36633 -11.6963 -0.883793 603.018 426.772
6.62891 -11.6863 -0.854024 596.416 426.438
-5.74878 9.07829 -2.75721 545.708 501.345
-3.91787 7.53937 -4.88061 553.417 495.056
-1.75481 6.38202 -6.55783 562.215 490.467
0.66906 6.48306 -8.23629 571.753 490.69
3.00837 6.10514 -6.35747 580.306 490.56
5.21186 6.97845 -4.68076 588.138 495.042
7.073 8.34382 -2.58087 594.482 501.484
5.58968 10.1202 -3.94453 588.789 507.299
3.49098 11.2573 -5.08354 580.84 510.658
1.00261 11.6925 -6.51592 571.615 511.156
-1.56272 11.5205 -5.25977 561.644 510.46
-3.86218 10.6311 -4.10741 552.848 507.069
-1.51837 8.292 -5.16782 562.436 498.312
0.793916 8.14585 -7.30753 571.698 497.384
3.04072 8.05867 -4.90109 579.729 498.551
3.13445 8.73478 -4.38992 579.841 501.338
0.885143 9.15312 -6.2824 571.625 501.634
-1.45329 8.98067 -4.6001 562.424 501.163
3 20 21 23
3 21 22 23
3 0 1 36
3 15 16 45
3 0 17 36
3 16 26 45
3 17 18 37
3 25 26 44
3 17 36 37
3 26 44 45
3 18 19 38
3 24 25 43
3 18 37 38
3 25 43 44
3 19 20 38
3 23 24 43
3 20 21 39
3 22 23 42
3 20 38 39
3 23 42 43
3 21 22 27
3 21 27 39
3 22 27 42
3 27 28 42
3 27 28 39
3 28 42 47
3 28 39 40
3 1 36 41
3 15 45 46
3 1 2 41
3 14 15 46
3 28 29 40
3 28 29 47
3 2 40 41
3 14 46 47
3 2 29 40
3 14 29 47
3 2 3 29
3 13 14 29
3 29 30 31
3 29 30 35
3 3 29 31
3 13 29 35
3 30 32 33
3 30 33 34
3 30 31 32
3 30 34 35
3 3 4 31
3 12 13 35
3 4 5 48
3 11 12 54
3 5 6 48
3 10 11 54
3 6 48 59
3 10 54 55
3 6 7 59
3 9 10 55
3 7 58 59
3 9 55 56
3 8 57 58
3 8 56 57
3 7 8 58
3 8 9 56
3 4 31 48
3 12 35 54
3 31 48 49
3 35 53 54
3 31 49 50
3 35 52 53
3 31 32 50
3 34 35 52
3 32 33 50
3 33 34 52
3 33 50 51
3 33 51 52
3 48 49 60
3 49 60 50
3 50 60 61
3 50 51 61
3 51 52 61
3 61 62 52
3 52 53 62
3 53 54 62
3 54 55 63
3 55 56 63
3 56 63 64
3 56 57 64
3 64 65 57
3 57 58 65
3 58 59 65
3 48 59 65
