ply
format ascii 1.0
element vertex 66
property float x
property float y
property float z
property float u
property float v
element face 91
property list uchar int vertex_indices
end_header
-20.0444 -5.98287 21.317 491.167 450.864
-19.2607 -0.589103 20.8539 492.97 471.558
-18.25 4.75982 20.2529 495.68 492.077
-16.9492 9.98068 18.1936 499.763 511.55
-15.0051 14.7924 13.5062 506.828 528.481
-11.9347 18.7822 7.92222 518.573 542.159
-8.01705 21.9337 3.10092 533.672 553.167
-3.54777 24.2429 -1.10742 551.008 561.35
1.50556 24.77 -4.67291 570.926 563.122
6.64115 23.5125 -0.842634 590.459 561.264
10.8265 20.3361 3.32229 606.734 551.946
14.1637 16.3043 8.11468 619.846 539.401
16.5881 11.7019 13.6321 629.461 524.747
17.9693 6.75604 18.1379 635.287 508.071
18.5768 1.72039 20.1453 638.531 489.774
18.7329 -3.3514 20.5701 640.284 470.54
18.5378 -8.4256 20.9749 640.685 451.197
-15.9235 -15.3972 0.100088 512.567 406.63
-13.5278 -16.7966 -1.43951 522.383 401.207
-10.7941 -17.3378 -2.85314 533.277 399.218
-8.02215 -17.2532 -4.22957 544.163 399.656
-5.31897 -16.6166 -5.43113 554.625 402.269
3.19057 -16.8969 -5.57285 587.551 403.306
5.44878 -17.6946 -4.28 596.258 401.381
7.85201 -18.0499 -2.8635 605.401 401.244
10.3124 -18.0204 -1.3751 614.66 402.628
12.6633 -17.2385 0.236341 623.298 406.925
-0.281791 -11.626 -4.9005 572.786 422.932
-0.0500076 -8.61897 -7.68496 573.385 433.324
0.16135 -5.63268 -10.5923 573.929 443.579
0.354117 -2.66016 -13.3939 574.389 453.822
-2.91147 0.315891 -6.33659 559.996 467.455
-1.15856 0.720463 -7.16618 566.79 469.097
0.672142 0.848552 -7.93904 573.942 469.722
2.29001 0.541274 -7.04466 580.122 469.342
3.7873 -0.0434873 -6.17609 585.907 467.857
-11.9991 -10.7925 -0.918596 526.763 424.858
-10.3186 -11.6385 -1.0108 533.464 422.001
-8.40666 -11.8569 -1.07435 540.904 421.624
-6.67964 -11.2409 -0.876808 547.391 424.514
-8.4353 -10.8103 -0.931343 540.521 425.694
-10.2567 -10.6484 -0.95458 533.457 425.84
4.8015 -11.7318 -0.819444 591.803 425.588
6.38277 -12.4541 -1.01661 598.108 423.135
8.24353 -12.5368 -1.00107 605.306 423.299
9.92799 -11.8637 -0.93446 611.634 426.341
8.26955 -11.5115 -0.938941 605.151 427.267
6.5056 -11.5067 -0.881786 598.334 426.859
-7.02592 8.76417 -2.71345 541.541 500.382
-4.91378 7.0067 -4.82547 550.435 493.267
-2.31759 5.74955 -6.48947 561.009 488.387
0.596745 5.74787 -8.18616 572.514 488.392
3.40416 5.46115 -6.30465 583.129 488.822
5.99181 6.43278 -4.61731 592.623 493.94
8.0594 8.05586 -2.51732 599.892 501.602
6.35575 10.1991 -3.90932 593.017 508.788
3.9147 11.6483 -4.99742 583.417 513.255
0.938969 12.177 -6.43376 572.027 513.902
-2.15489 11.9059 -5.18205 559.962 512.613
-4.84047 10.6829 -4.10233 549.727 507.702
-2.76585 7.54091 -5.22107 558.656 495.694
0.685665 7.24672 -7.51235 572.395 494.456
4.04051 7.23041 -4.86725 584.941 496.393
4.28359 9.31159 -4.29802 585.293 504.686
0.895161 9.99577 -6.35338 572.368 505.557
-2.65442 9.64841 -4.58881 558.484 504.081
3 20 21 23
3 21 22 23
3 0 1 36
3 15 16 45
3 0 17 36
3 16 26 45
3 17 18 37
3 25 26 44
3 17 36 37
3 26 44 45
3 18 19 38
3 24 25 43
3 18 37 38
3 25 43 44
3 19 20 38
3 23 24 43
3 20 21 39
3 22 23 42
3 20 38 39
3 23 42 43
3 21 22 27
3 21 27 39
3 22 27 42
3 27 28 42
3 27 28 39
3 28 42 47
3 28 39 40
3 1 36 41
3 15 45 46
3 1 2 41
3 14 15 46
3 28 29 40
3 28 29 47
3 2 40 41
3 14 46 47
3 2 29 40
3 14 29 47
3 2 3 29
3 13 14 29
3 29 30 31
3 29 30 35
3 3 29 31
3 13 29 35
3 30 32 33
3 30 33 34
3 30 31 32
3 30 34 35
3 3 4 31
3 12 13 35
3 4 5 48
3 11 12 54
3 5 6 48
3 10 11 54
3 6 48 59
3 10 54 55
3 6 7 59
3 9 10 55
3 7 58 59
3 9 55 56
3 8 57 58
3 8 56 57
3 7 8 58
3 8 9 56
3 4 31 48
3 12 35 54
3 31 48 49
3 35 53 54
3 31 49 50
3 35 52 53
3 31 32 50
3 34 35 52
3 32 33 50
3 33 34 52
3 33 50 51
3 33 51 52
3 48 49 60
3 49 60 50
3 50 60 61
3 50 51 61
3 51 52 61
3 61 62 52
3 52 53 62
3 53 54 62
3 54 55 63
3 55 56 63
3 56 63 64
3 56 57 64
3 64 65 57
3 57 58 65
3 58 59 65
3 48 59 65
