ply
format ascii 1.0
element vertex 66
property float x
property float y
property float z
property float u
property float v
element face 91
property list uchar int vertex_indices
end_header
-19.8116 -5.81282 21.0125 489.255 452.706
-19.0721 -0.528194 20.517 490.835 473.019
-18.0483 4.70532 20.0151 493.524 493.212
-16.637 9.78889 18.214 497.972 512.472
-14.5853 14.4576 13.5105 505.502 529.28
-11.6312 18.5057 7.91693 516.823 543.633
-7.90486 21.9067 3.14276 531.143 556.004
-3.5373 24.4823 -1.0449 548.042 565.589
1.53129 25.1228 -4.60358 568.029 568.159
6.64774 23.8498 -0.840698 587.41 566.003
10.7068 20.5855 3.32346 603.158 556.056
13.8943 16.4973 8.06842 615.658 542.916
16.2353 11.9365 13.6224 624.876 528.02
17.6774 7.03964 18.235 630.882 511.254
18.3855 1.93499 20.0252 634.607 492.485
18.6072 -3.23713 20.4461 636.715 472.838
18.4642 -8.4138 20.8832 637.416 453.08
-15.5564 -15.7726 0.0833755 511.867 408.173
-13.3263 -17.1831 -1.43605 521.087 402.823
-10.7059 -17.6997 -2.83664 531.561 401.053
-8.05185 -17.5936 -4.26535 542.009 401.674
-5.47735 -16.9513 -5.51774 551.982 404.394
2.97969 -17.3126 -5.52872 584.661 405.302
5.28161 -18.2204 -4.21777 593.533 402.909
7.7414 -18.6493 -2.76995 602.867 402.447
10.2654 -18.5808 -1.3267 612.322 403.91
12.5868 -17.6417 0.231463 620.752 408.701
-0.553145 -12.0899 -4.8716 569.594 424.627
-0.31119 -9.1301 -7.6276 570.249 435.075
-0.0806956 -6.18703 -10.4519 570.876 445.432
0.139955 -3.25612 -13.1629 571.448 455.779
-2.83301 0.24954 -6.11467 557.861 470.939
-1.23155 0.665348 -7.0698 564.091 472.631
0.469903 0.773675 -7.93246 570.77 473.202
2.04472 0.466041 -6.93099 576.741 472.806
3.45798 -0.146491 -5.98568 582.178 471.175
-11.7454 -11.1356 -1.08528 525.565 426.596
-10.2717 -12.0621 -0.988274 531.464 423.474
-8.4686 -12.3308 -0.894714 538.463 422.966
-6.86468 -11.7641 -0.805924 544.482 425.609
-8.41594 -11.0884 -0.977509 538.362 427.721
-10.1302 -10.8844 -0.985316 531.706 428.035
4.93313 -12.4035 -0.67315 590.078 426.409
6.41335 -13.1261 -0.802369 595.989 423.992
8.2021 -13.1346 -0.918613 602.903 424.404
9.74631 -12.4014 -1.01358 608.681 427.605
8.20977 -11.937 -0.88951 602.62 429.014
6.51741 -11.9424 -0.850598 596.094 428.547
-5.06446 9.4397 -2.77769 546.321 506.804
-3.38938 8.06723 -4.86306 553.492 501.248
-1.48716 6.91973 -6.55287 561.411 496.758
0.683005 7.0493 -8.26173 570.038 497.237
2.78065 6.68909 -6.37504 577.882 497.096
4.72816 7.6091 -4.67758 584.853 501.762
6.42096 8.82427 -2.59356 590.698 507.63
5.12787 10.5136 -4.04003 585.536 513.249
3.26233 11.6406 -5.16702 578.256 516.667
0.958537 12.0975 -6.56921 569.508 517.296
-1.40262 11.865 -5.33967 560.256 516.199
-3.43724 10.9426 -4.19211 552.453 512.513
-1.13784 8.73061 -5.09296 562.037 504.325
0.776697 8.57174 -7.28031 569.837 503.457
2.63529 8.56506 -4.84491 576.573 504.804
2.70436 9.16897 -4.38447 576.604 507.305
0.850423 9.61029 -6.23406 569.671 507.837
-1.0926 9.34522 -4.5806 561.964 506.879
3 20 21 23
3 21 22 23
3 0 1 36
3 15 16 45
3 0 17 36
3 16 26 45
3 17 18 37
3 25 26 44
3 17 36 37
3 26 44 45
3 18 19 38
3 24 25 43
3 18 37 38
3 25 43 44
3 19 20 38
3 23 24 43
3 20 21 39
3 22 23 42
3 20 38 39
3 23 42 43
3 21 22 27
3 21 27 39
3 22 27 42
3 27 28 42
3 27 28 39
3 28 42 47
3 28 39 40
3 1 36 41
3 15 45 46
3 1 2 41
3 14 15 46
3 28 29 40
3 28 29 47
3 2 40 41
3 14 46 47
3 2 29 40
3 14 29 47
3 2 3 29
3 13 14 29
3 29 30 31
3 29 30 35
3 3 29 31
3 13 29 35
3 30 32 33
3 30 33 34
3 30 31 32
3 30 34 35
3 3 4 31
3 12 13 35
3 4 5 48
3 11 12 54
3 5 6 48
3 10 11 54
3 6 48 59
3 10 54 55
3 6 7 59
3 9 10 55
3 7 58 59
3 9 55 56
3 8 57 58
3 8 56 57
3 7 8 58
3 8 9 56
3 4 31 48
3 12 35 54
3 31 48 49
3 35 53 54
3 31 49 50
3 35 52 53
3 31 32 50
3 34 35 52
3 32 33 50
3 33 34 52
3 33 50 51
3 33 51 52
3 48 49 60
3 49 60 50
3 50 60 61
3 50 51 61
3 51 52 61
3 61 62 52
3 52 53 62
3 53 54 62
3 54 55 63
3 55 56 63
3 56 63 64
3 56 57 64
3 64 65 57
3 57 58 65
3 58 59 65
3 48 59 65
