ply
format ascii 1.0
element vertex 66
property float x
property float y
property float z
property float u
property float v
element face 91
property list uchar int vertex_indices
end_header
-20.1208 -5.70445 21.2944 490.188 452.981
-19.2792 -0.379758 20.8247 491.896 473.486
-18.1941 4.89721 20.2871 494.559 493.87
-16.8528 10.0393 18.2774 498.473 513.541
-14.9025 14.7661 13.5118 505.273 531.296
-11.8673 18.7137 7.91351 516.582 546.251
-7.98738 21.861 3.18673 531.219 558.569
-3.52453 24.1246 -1.07398 548.273 567.777
1.51156 24.5995 -4.64326 567.939 570.458
6.63964 23.3786 -0.808331 587.291 568.076
10.8352 20.2628 3.39022 603.586 558.241
14.1571 16.2549 8.10095 616.726 544.828
16.5389 11.6806 13.6473 626.311 529.121
17.8849 6.77055 18.2379 632.188 511.638
18.5124 1.74278 20.1813 635.773 492.991
18.7363 -3.33244 20.5645 638.077 473.747
18.5947 -8.4125 21.0055 638.976 454.385
-16.1972 -15.3316 0.0912396 511.392 413.441
-13.805 -16.9072 -1.46904 521.247 407.861
-10.9784 -17.5335 -2.86247 532.454 406.07
-8.09332 -17.4564 -4.24474 543.674 406.985
-5.27767 -16.8043 -5.45813 554.431 410.107
3.2984 -17.1912 -5.56497 587.333 411.223
5.63252 -18.0368 -4.26557 596.298 408.948
8.1164 -18.4207 -2.83726 605.678 408.506
10.6564 -18.3556 -1.36229 615.131 409.805
13.0294 -17.4498 0.247288 623.675 414.289
-0.275994 -11.8152 -4.84161 571.963 430.801
-0.0350907 -8.75888 -7.65677 572.419 442.02
0.188062 -5.72373 -10.5828 572.832 453.133
0.389221 -2.69925 -13.3731 573.143 464.223
-2.79112 0.547145 -6.28115 558.905 476.979
-1.10464 0.979341 -7.17442 565.362 478.977
0.675184 1.1127 -7.99833 572.253 479.875
2.24916 0.810451 -7.03849 578.206 479.38
3.6836 0.214416 -6.07881 583.713 477.72
-12.1515 -10.8627 -0.901053 525.679 431.557
-10.5556 -11.8234 -0.995687 532.078 428.356
-8.65203 -12.0748 -1.03865 539.433 427.968
-6.95335 -11.3972 -0.915911 545.703 431.097
-8.63699 -10.8246 -0.975546 539.109 432.759
-10.4419 -10.6395 -0.947368 532.153 432.921
5.1474 -11.9867 -0.814931 592.101 432.552
6.693 -12.7913 -0.930546 598.264 429.929
8.56135 -12.8499 -0.95747 605.425 430.27
10.1888 -12.0534 -0.9252 611.402 433.814
8.57116 -11.6144 -0.920779 605.09 434.998
6.81445 -11.6183 -0.910154 598.376 434.45
-6.28282 9.13834 -2.79559 542.459 509.379
-4.26879 7.59438 -4.89953 550.946 503.702
-1.96668 6.41627 -6.54969 560.353 499.596
0.584433 6.52121 -8.2158 570.333 500.462
3.01995 6.18416 -6.39984 579.453 500.257
5.29602 7.13588 -4.71997 587.602 504.9
7.22586 8.56946 -2.6067 594.216 511.359
5.56404 10.2312 -3.93539 587.582 516.951
3.32863 11.227 -5.04186 578.919 519.865
0.789146 11.5853 -6.44903 569.331 520.196
-1.83552 11.4115 -5.20594 559.158 518.965
-4.2401 10.5956 -4.11194 550.039 515.321
-1.88394 8.31036 -5.25997 559.903 507.096
0.668399 8.1819 -7.42244 570.035 506.979
3.10578 8.13941 -4.90941 578.965 508.03
3.16598 8.77987 -4.36869 578.919 510.596
0.731637 9.10262 -6.36774 569.837 510.712
-1.82389 8.96939 -4.65337 559.841 509.745
3 20 21 23
3 21 22 23
3 0 1 36
3 15 16 45
3 0 17 36
3 16 26 45
3 17 18 37
3 25 26 44
3 17 36 37
3 26 44 45
3 18 19 38
3 24 25 43
3 18 37 38
3 25 43 44
3 19 20 38
3 23 24 43
3 20 21 39
3 22 23 42
3 20 38 39
3 23 42 43
3 21 22 27
3 21 27 39
3 22 27 42
3 27 28 42
3 27 28 39
3 28 42 47
3 28 39 40
3 1 36 41
3 15 45 46
3 1 2 41
3 14 15 46
3 28 29 40
3 28 29 47
3 2 40 41
3 14 46 47
3 2 29 40
3 14 29 47
3 2 3 29
3 13 14 29
3 29 30 31
3 29 30 35
3 3 29 31
3 13 29 35
3 30 32 33
3 30 33 34
3 30 31 32
3 30 34 35
3 3 4 31
3 12 13 35
3 4 5 48
3 11 12 54
3 5 6 48
3 10 11 54
3 6 48 59
3 10 54 55
3 6 7 59
3 9 10 55
3 7 58 59
3 9 55 56
3 8 57 58
3 8 56 57
3 7 8 58
3 8 9 56
3 4 31 48
3 12 35 54
3 31 48 49
3 35 53 54
3 31 49 50
3 35 52 53
3 31 32 50
3 34 35 52
3 32 33 50
3 33 34 52
3 33 50 51
3 33 51 52
3 48 49 60
3 49 60 50
3 50 60 61
3 50 51 61
3 51 52 61
3 61 62 52
3 52 53 62
3 53 54 62
3 54 55 63
3 55 56 63
3 56 63 64
3 56 57 64
3 64 65 57
3 57 58 65
3 58 59 65
3 48 59 65
