ply
format ascii 1.0
element vertex 66
property float x
property float y
property float z
property float u
property float v
element face 91
property list uchar int vertex_indices
end_header
-20.4696 -5.71296 21.2604 491.275 451.779
-19.7382 -0.516317 20.8416 492.761 471.208
-18.735 4.62493 20.3372 495.291 490.467
-17.3692 9.67792 18.2293 499.4 508.838
-15.2403 14.4177 13.4719 506.772 525.16
-11.997 18.4203 7.87765 518.617 538.682
-7.97686 21.6463 3.19544 533.466 549.882
-3.3956 23.9909 -1.07491 550.594 558.106
1.72468 24.5787 -4.69858 570.113 560.175
6.80466 23.3845 -0.922055 589.036 558.598
11.1056 20.4638 3.33531 605.412 550.563
14.5975 16.6083 8.0404 618.932 539.006
17.1071 12.0601 13.662 628.826 524.977
18.3907 6.99754 18.3932 634.354 508.34
18.9226 1.79226 20.4548 637.417 489.883
19.1002 -3.42646 20.9101 639.346 470.626
18.9734 -8.64864 21.3544 640.135 451.272
-16.3205 -15.3831 0.165661 511.845 408.157
-13.8912 -16.8532 -1.43972 521.533 402.654
-11.0548 -17.3496 -2.88716 532.485 400.959
-8.19008 -17.1917 -4.26946 543.371 401.741
-5.42284 -16.4562 -5.47347 553.723 404.728
3.05224 -16.921 -5.48184 585.669 405.227
5.61285 -17.9615 -4.23083 595.398 402.528
8.33882 -18.4638 -2.83099 605.593 401.943
11.1208 -18.3741 -1.35267 615.84 403.616
13.6559 -17.3126 0.306979 624.892 408.927
-0.603529 -11.3731 -4.84323 570.462 425.24
-0.316161 -8.26012 -7.65963 571.096 435.793
-0.0381518 -5.16828 -10.6099 571.715 446.209
0.228851 -2.09416 -13.4508 572.285 456.601
-3.22072 0.71675 -6.30979 557.758 469.1
-1.44733 1.20739 -7.21766 564.404 471.031
0.42032 1.3533 -8.06331 571.483 471.724
2.17908 0.968862 -7.13574 578.074 471.131
3.78916 0.251512 -6.17996 584.186 469.267
-12.2495 -10.2612 -0.848868 525.963 427.946
-10.6251 -11.2752 -1.05099 532.344 424.506
-8.67036 -11.4872 -1.16734 539.752 424.183
-6.9181 -10.7974 -1.00706 546.14 427.287
-8.64034 -10.2208 -0.993666 539.524 428.991
-10.4774 -10.0307 -0.966145 532.574 429.227
5.12613 -11.4962 -0.882964 591.534 427.91
6.7635 -12.3948 -1.07297 597.932 424.909
8.71513 -12.4602 -0.999103 605.269 425.21
10.4364 -11.6666 -0.820786 611.512 428.702
8.72085 -11.2092 -0.904931 604.964 429.922
6.89169 -11.1632 -0.904898 598.083 429.611
-7.24278 8.36989 -2.72918 540.289 498.079
-4.90378 6.92896 -4.81754 549.689 492.464
-2.25748 6.01146 -6.47171 560.059 489.061
0.529936 6.14415 -8.10433 570.691 489.627
3.23409 5.68676 -6.39851 580.756 489.329
5.91098 6.28477 -4.71197 590.454 492.957
8.32119 7.45151 -2.59354 598.956 498.815
6.37904 9.54843 -3.96102 591.298 505.575
3.73714 10.8189 -5.10357 581.193 509.156
0.804394 11.2974 -6.46314 570.222 509.614
-2.19271 11.1485 -5.19882 558.852 508.782
-4.98139 10.1822 -4.0904 548.489 504.889
-2.37807 7.92691 -5.2478 558.975 496.682
0.623583 7.91835 -7.47331 570.518 496.535
3.53678 7.59354 -5.09587 581.254 497.061
3.66935 8.22927 -4.51205 581.521 499.709
0.664216 8.65587 -6.48413 570.365 499.704
-2.41973 8.57174 -4.62775 558.581 499.332
3 20 21 23
3 21 22 23
3 0 1 36
3 15 16 45
3 0 17 36
3 16 26 45
3 17 18 37
3 25 26 44
3 17 36 37
3 26 44 45
3 18 19 38
3 24 25 43
3 18 37 38
3 25 43 44
3 19 20 38
3 23 24 43
3 20 21 39
3 22 23 42
3 20 38 39
3 23 42 43
3 21 22 27
3 21 27 39
3 22 27 42
3 27 28 42
3 27 28 39
3 28 42 47
3 28 39 40
3 1 36 41
3 15 45 46
3 1 2 41
3 14 15 46
3 28 29 40
3 28 29 47
3 2 40 41
3 14 46 47
3 2 29 40
3 14 29 47
3 2 3 29
3 13 14 29
3 29 30 31
3 29 30 35
3 3 29 31
3 13 29 35
3 30 32 33
3 30 33 34
3 30 31 32
3 30 34 35
3 3 4 31
3 12 13 35
3 4 5 48
3 11 12 54
3 5 6 48
3 10 11 54
3 6 48 59
3 10 54 55
3 6 7 59
3 9 10 55
3 7 58 59
3 9 55 56
3 8 57 58
3 8 56 57
3 7 8 58
3 8 9 56
3 4 31 48
3 12 35 54
3 31 48 49
3 35 53 54
3 31 49 50
3 35 52 53
3 31 32 50
3 34 35 52
3 32 33 50
3 33 34 52
3 33 50 51
3 33 51 52
3 48 49 60
3 49 60 50
3 50 60 61
3 50 51 61
3 51 52 61
3 61 62 52
3 52 53 62
3 53 54 62
3 54 55 63
3 55 56 63
3 56 63 64
3 56 57 64
3 64 65 57
3 57 58 65
3 58 59 65
3 48 59 65
