ply
format ascii 1.0
element vertex 66
property float x
property float y
property float z
property float u
property float v
element face 91
property list uchar int vertex_indices
end_header
-19.7408 -5.80807 20.9802 488.742 453.587
-18.9433 -0.509932 20.5065 490.452 474.033
-17.8431 4.72874 19.9837 493.357 494.318
-16.3675 9.81561 18.2455 497.95 513.644
-14.3113 14.4871 13.4803 505.383 530.333
-11.4338 18.5957 7.91797 516.275 544.774
-7.80646 22.1137 3.16471 530.102 557.48
-3.49559 24.775 -1.04801 546.722 567.298
1.55961 25.4541 -4.60868 566.663 569.957
6.67257 24.121 -0.825814 586.213 567.806
10.6643 20.7494 3.34611 601.922 557.634
13.7227 16.5247 8.06739 614.164 544.126
15.965 11.8917 13.5819 623.236 529.125
17.4117 7.00159 18.2349 629.435 512.562
18.1804 1.91914 19.9463 633.53 493.891
18.4617 -3.22742 20.3716 635.961 474.321
18.3492 -8.38312 20.7966 636.87 454.601
-15.6039 -15.9113 0.083525 510.833 407.556
-13.3401 -17.3614 -1.43877 520.231 402.019
-10.6598 -17.869 -2.82058 530.961 400.289
-7.94924 -17.7165 -4.26147 541.637 401.086
-5.32935 -17.0055 -5.52799 551.781 404.077
2.93963 -17.3534 -5.54566 583.877 405.12
5.22345 -18.3058 -4.21769 592.765 402.64
7.67758 -18.7741 -2.75613 602.158 402.127
10.2062 -18.7432 -1.32639 611.707 403.546
12.5309 -17.8135 0.238272 620.2 408.421
-0.500253 -12.2519 -4.8371 569.056 424.055
-0.254396 -9.22296 -7.6273 569.621 434.681
-0.021388 -6.2078 -10.4469 570.144 445.238
0.198992 -3.20359 -13.1269 570.599 455.806
-2.64158 0.247829 -6.10226 557.547 471.073
-1.11237 0.651313 -7.05489 563.505 472.689
0.518648 0.759363 -7.90857 569.922 473.237
2.00956 0.472293 -6.90306 575.611 472.962
3.33588 -0.107051 -5.9445 580.75 471.496
-11.928 -11.2466 -1.10832 523.968 426.109
-10.3877 -12.2493 -0.989011 530.185 422.74
-8.47665 -12.5389 -0.866614 537.639 422.225
-6.79969 -11.9084 -0.789755 543.944 425.169
-8.42905 -11.176 -0.989858 537.47 427.439
-10.238 -10.9539 -0.974421 530.406 427.778
4.84724 -12.5127 -0.651274 589.156 426.261
6.38675 -13.2985 -0.761605 595.346 423.636
8.28129 -13.3072 -0.920231 602.705 424.086
9.89225 -12.497 -1.05364 608.738 427.619
8.29094 -11.9831 -0.886658 602.375 429.202
6.50856 -12.0006 -0.86702 595.479 428.628
-4.31077 9.68482 -2.78518 547.977 508.255
-2.95019 8.20501 -4.89844 553.982 502.108
-1.30556 6.93785 -6.57322 560.959 497.036
0.672444 7.07507 -8.29906 568.85 497.45
2.57473 6.7484 -6.39453 575.998 497.499
4.26648 7.8382 -4.71402 581.979 502.854
5.63253 9.22949 -2.60603 586.55 509.445
4.53805 10.6983 -4.04145 582.14 514.215
2.94728 11.6876 -5.17101 575.893 517.116
0.930158 12.1066 -6.59879 568.199 517.579
-1.14655 11.8504 -5.34656 560.034 516.49
-2.8954 11.0048 -4.19925 553.317 513.185
-0.738904 8.81067 -5.04725 562.397 505.02
0.765138 8.63793 -7.21068 568.608 503.929
2.21182 8.72559 -4.76698 573.794 505.657
2.22053 9.1434 -4.35442 573.648 507.432
0.827765 9.52133 -6.17603 568.444 507.761
-0.656609 9.23415 -4.57525 562.524 506.863
3 20 21 23
3 21 22 23
3 0 1 36
3 15 16 45
3 0 17 36
3 16 26 45
3 17 18 37
3 25 26 44
3 17 36 37
3 26 44 45
3 18 19 38
3 24 25 43
3 18 37 38
3 25 43 44
3 19 20 38
3 23 24 43
3 20 21 39
3 22 23 42
3 20 38 39
3 23 42 43
3 21 22 27
3 21 27 39
3 22 27 42
3 27 28 42
3 27 28 39
3 28 42 47
3 28 39 40
3 1 36 41
3 15 45 46
3 1 2 41
3 14 15 46
3 28 29 40
3 28 29 47
3 2 40 41
3 14 46 47
3 2 29 40
3 14 29 47
3 2 3 29
3 13 14 29
3 29 30 31
3 29 30 35
3 3 29 31
3 13 29 35
3 30 32 33
3 30 33 34
3 30 31 32
3 30 34 35
3 3 4 31
3 12 13 35
3 4 5 48
3 11 12 54
3 5 6 48
3 10 11 54
3 6 48 59
3 10 54 55
3 6 7 59
3 9 10 55
3 7 58 59
3 9 55 56
3 8 57 58
3 8 56 57
3 7 8 58
3 8 9 56
3 4 31 48
3 12 35 54
3 31 48 49
3 35 53 54
3 31 49 50
3 35 52 53
3 31 32 50
3 34 35 52
3 32 33 50
3 33 34 52
3 33 50 51
3 33 51 52
3 48 49 60
3 49 60 50
3 50 60 61
3 50 51 61
3 51 52 61
3 61 62 52
3 52 53 62
3 53 54 62
3 54 55 63
3 55 56 63
3 56 63 64
3 56 57 64
3 64 65 57
3 57 58 65
3 58 59 65
3 48 59 65
