ply
format ascii 1.0
element vertex 66
property float x
property float y
property float z
property float u
property float v
element face 91
property list uchar int vertex_indices
end_header
-20.0344 -6.0287 21.2411 487.477 451.436
-19.266 -0.668193 20.7531 489.579 471.884
-18.2457 4.64347 20.1821 492.677 492.157
-16.8952 9.85507 18.2077 497.346 511.448
-14.9057 14.6876 13.4517 505.101 528.097
-11.8523 18.7357 7.88815 517.258 541.575
-7.98878 21.9781 3.10147 532.526 552.5
-3.57157 24.3795 -1.10886 549.963 560.59
1.43635 25.0052 -4.65955 569.861 562.314
6.51719 23.6578 -0.84999 588.922 559.987
10.6013 20.3665 3.34126 604.413 550.198
13.8727 16.2673 8.06746 616.809 537.405
16.3577 11.6747 13.5248 626.115 522.91
17.909 6.77332 18.1087 632.053 506.63
18.6436 1.80409 20.0739 635.379 488.684
18.8609 -3.17639 20.4784 637.025 469.85
18.6994 -8.16496 20.848 637.219 450.893
-15.9108 -15.6803 0.0873958 509.32 405.283
-13.513 -17.0628 -1.4457 519.114 399.747
-10.7552 -17.5552 -2.84176 530.11 397.757
-7.96256 -17.3992 -4.23061 541.123 398.259
-5.24333 -16.6866 -5.44531 551.718 400.961
2.93681 -16.9045 -5.54679 583.304 401.731
5.2399 -17.7935 -4.24929 592.08 399.407
7.69894 -18.2264 -2.83162 601.351 398.919
10.2206 -18.2244 -1.37055 610.777 400.128
12.5899 -17.4053 0.248678 619.439 404.511
-0.35099 -11.6157 -4.87347 569.554 421.636
-0.141499 -8.62437 -7.65909 570.384 431.811
0.0495938 -5.64911 -10.5389 571.165 441.875
0.228104 -2.68972 -13.2946 571.875 451.936
-2.99769 0.295426 -6.2274 557.497 466.065
-1.23465 0.770654 -7.12265 564.386 467.816
0.625678 0.92409 -7.95449 571.695 468.385
2.28562 0.576835 -6.98195 577.96 467.852
3.78596 -0.0953486 -6.11512 583.689 465.992
-11.9012 -10.9393 -0.977165 524.139 423.741
-10.3657 -11.8199 -0.997992 530.219 420.669
-8.54389 -12.0541 -0.987738 537.28 420.146
-6.91825 -11.4274 -0.832161 543.402 422.947
-8.53719 -10.8799 -0.939345 537.086 424.665
-10.261 -10.7241 -0.960684 530.419 424.904
4.92779 -11.9486 -0.766928 589.137 423.375
6.39715 -12.6622 -0.947969 594.964 420.854
8.1638 -12.7226 -0.967266 601.787 420.97
9.71572 -12.0081 -0.918057 607.631 424.042
8.17515 -11.5912 -0.892699 601.614 425.339
6.5097 -11.5961 -0.843935 595.187 425.007
-6.29231 9.02772 -2.75989 542.548 500.478
-4.42033 7.25035 -4.87808 550.503 493.047
-2.04895 5.92575 -6.51377 560.206 487.678
0.686037 5.96183 -8.19315 571.076 487.573
3.32768 5.6323 -6.26508 580.93 487.759
5.72487 6.65648 -4.62663 589.659 492.941
7.58862 8.2988 -2.53591 596.131 500.597
6.07968 10.3631 -3.93499 590.226 507.533
3.84174 11.758 -5.01314 581.568 511.911
1.0838 12.2936 -6.49147 571.138 512.703
-1.78086 12.0215 -5.23873 559.896 511.677
-4.27918 10.873 -4.14191 550.253 507.295
-1.91775 7.88387 -5.1795 560.095 495.835
0.818685 7.66329 -7.36751 571.118 494.505
3.4776 7.63455 -4.82681 580.863 496.137
3.65132 9.16818 -4.32964 581.16 502.28
0.999145 9.77665 -6.30749 571.224 503.136
-1.78663 9.43999 -4.62045 560.211 502.085
3 20 21 23
3 21 22 23
3 0 1 36
3 15 16 45
3 0 17 36
3 16 26 45
3 17 18 37
3 25 26 44
3 17 36 37
3 26 44 45
3 18 19 38
3 24 25 43
3 18 37 38
3 25 43 44
3 19 20 38
3 23 24 43
3 20 21 39
3 22 23 42
3 20 38 39
3 23 42 43
3 21 22 27
3 21 27 39
3 22 27 42
3 27 28 42
3 27 28 39
3 28 42 47
3 28 39 40
3 1 36 41
3 15 45 46
3 1 2 41
3 14 15 46
3 28 29 40
3 28 29 47
3 2 40 41
3 14 46 47
3 2 29 40
3 14 29 47
3 2 3 29
3 13 14 29
3 29 30 31
3 29 30 35
3 3 29 31
3 13 29 35
3 30 32 33
3 30 33 34
3 30 31 32
3 30 34 35
3 3 4 31
3 12 13 35
3 4 5 48
3 11 12 54
3 5 6 48
3 10 11 54
3 6 48 59
3 10 54 55
3 6 7 59
3 9 10 55
3 7 58 59
3 9 55 56
3 8 57 58
3 8 56 57
3 7 8 58
3 8 9 56
3 4 31 48
3 12 35 54
3 31 48 49
3 35 53 54
3 31 49 50
3 35 52 53
3 31 32 50
3 34 35 52
3 32 33 50
3 33 34 52
3 33 50 51
3 33 51 52
3 48 49 60
3 49 60 50
3 50 60 61
3 50 51 61
3 51 52 61
3 61 62 52
3 52 53 62
3 53 54 62
3 54 55 63
3 55 56 63
3 56 63 64
3 56 57 64
3 64 65 57
3 57 58 65
3 58 59 65
3 48 59 65
