ply
format ascii 1.0
element vertex 66
property float x
property float y
property float z
property float u
property float v
element face 91
property list uchar int vertex_indices
end_header
-20.3419 -5.46017 21.304 490.345 454.2
-19.5179 -0.189413 20.8261 492.037 474.291
-18.4423 5.03458 20.3038 494.702 494.268
-17.0854 10.0835 18.2587 498.675 513.323
-15.0548 14.6439 13.4937 505.68 530.116
-11.9196 18.3932 7.91878 517.205 543.977
-7.98707 21.3796 3.19324 531.863 555.369
-3.5229 23.5619 -1.10855 548.711 563.966
1.50852 23.9689 -4.60879 568.112 566.185
6.65455 22.8735 -0.823349 587.46 564.375
10.9134 19.9233 3.4011 603.914 555.384
14.335 16.0966 8.11528 617.38 542.939
16.803 11.6788 13.6522 627.295 528.164
18.1451 6.84906 18.2807 633.171 511.299
18.7337 1.8125 20.2287 636.584 492.833
18.9339 -3.3068 20.6084 638.745 473.591
18.7782 -8.42387 21.0887 639.543 454.277
-16.2896 -15.638 0.140121 511.242 412.106
-13.7847 -17.0661 -1.39627 521.337 407.081
-10.9369 -17.5461 -2.81595 532.448 405.772
-8.08723 -17.3984 -4.20452 543.386 406.848
-5.32665 -16.7136 -5.42595 553.812 409.969
3.37739 -17.1491 -5.52218 586.951 410.823
5.7156 -18.0081 -4.23342 595.898 408.536
8.20435 -18.4304 -2.81542 605.277 407.976
10.7756 -18.4353 -1.32834 614.841 409.035
13.2296 -17.5992 0.279761 623.708 413.273
-0.304675 -11.6652 -4.82582 571.35 430.676
-0.0355083 -8.56788 -7.64235 571.847 441.853
0.215785 -5.4979 -10.614 572.303 452.887
0.443923 -2.437 -13.456 572.657 463.908
-2.93669 0.890855 -6.38303 558.011 477.11
-1.16979 1.34902 -7.24131 564.689 479.166
0.695065 1.47596 -8.00977 571.82 480.016
2.36083 1.16407 -7.10087 578.11 479.521
3.8776 0.527918 -6.16621 583.924 477.761
-12.1724 -10.9373 -0.7936 525.64 430.891
-10.5421 -11.9051 -0.941036 532.114 427.667
-8.61916 -12.0968 -1.0397 539.472 427.476
-6.93596 -11.301 -0.933463 545.615 431.002
-8.64773 -10.7856 -0.962186 538.982 432.45
-10.4627 -10.641 -0.931493 532.056 432.478
5.06578 -11.8713 -0.809007 591.268 432.351
6.59204 -12.8043 -0.936918 597.336 429.232
8.48002 -12.9141 -0.929252 604.524 429.366
10.1486 -12.118 -0.857793 610.617 432.88
8.53223 -11.6143 -0.922329 604.353 434.304
6.76449 -11.5721 -0.899317 597.636 433.956
-6.80105 8.97051 -2.80089 540.623 507.385
-4.5132 7.59556 -4.89374 549.949 502.374
-2.04201 6.58907 -6.55739 559.812 498.908
0.572935 6.71418 -8.24719 569.904 499.762
3.07344 6.35373 -6.43234 579.26 499.528
5.50137 7.12069 -4.73198 588.036 503.517
7.69557 8.33974 -2.60272 595.744 509.245
5.89795 10.1531 -3.94166 588.582 515.291
3.45966 11.2129 -5.02883 579.173 518.354
0.743128 11.5565 -6.37043 568.943 518.567
-2.04787 11.4156 -5.1918 558.253 517.488
-4.63764 10.5542 -4.13739 548.545 513.711
-2.1383 8.47519 -5.3397 558.761 506.294
0.646198 8.38359 -7.53428 569.62 506.264
3.30764 8.27721 -5.00151 579.424 507.2
3.3807 8.73307 -4.42736 579.5 509.075
0.677729 8.9928 -6.47379 569.434 508.818
-2.13207 8.94881 -4.70195 558.571 508.232
3 20 21 23
3 21 22 23
3 0 1 36
3 15 16 45
3 0 17 36
3 16 26 45
3 17 18 37
3 25 26 44
3 17 36 37
3 26 44 45
3 18 19 38
3 24 25 43
3 18 37 38
3 25 43 44
3 19 20 38
3 23 24 43
3 20 21 39
3 22 23 42
3 20 38 39
3 23 42 43
3 21 22 27
3 21 27 39
3 22 27 42
3 27 28 42
3 27 28 39
3 28 42 47
3 28 39 40
3 1 36 41
3 15 45 46
3 1 2 41
3 14 15 46
3 28 29 40
3 28 29 47
3 2 40 41
3 14 46 47
3 2 29 40
3 14 29 47
3 2 3 29
3 13 14 29
3 29 30 31
3 29 30 35
3 3 29 31
3 13 29 35
3 30 32 33
3 30 33 34
3 30 31 32
3 30 34 35
3 3 4 31
3 12 13 35
3 4 5 48
3 11 12 54
3 5 6 48
3 10 11 54
3 6 48 59
3 10 54 55
3 6 7 59
3 9 10 55
3 7 58 59
3 9 55 56
3 8 57 58
3 8 56 57
3 7 8 58
3 8 9 56
3 4 31 48
3 12 35 54
3 31 48 49
3 35 53 54
3 31 49 50
3 35 52 53
3 31 32 50
3 34 35 52
3 32 33 50
3 33 34 52
3 33 50 51
3 33 51 52
3 48 49 60
3 49 60 50
3 50 60 61
3 50 51 61
3 51 52 61
3 61 62 52
3 52 53 62
3 53 54 62
3 54 55 63
3 55 56 63
3 56 63 64
3 56 57 64
3 64 65 57
3 57 58 65
3 58 59 65
3 48 59 65
