ply
format ascii 1.0
element vertex 66
property float x
property float y
property float z
property float u
property float v
element face 91
property list uchar int vertex_indices
end_header
-20.4186 -5.62866 21.2546 491.343 450.736
-19.6982 -0.439543 20.8459 492.688 470.192
-18.7066 4.69734 20.3637 495.075 489.504
-17.3585 9.73555 18.2238 499.034 507.944
-15.2493 14.4564 13.456 506.266 524.458
-12.0154 18.4348 7.88376 518.023 538.221
-7.99121 21.621 3.2039 532.852 549.57
-3.40754 23.9195 -1.06675 549.973 557.908
1.70535 24.4791 -4.69956 569.474 560.125
6.803 23.3094 -0.906371 588.461 558.573
11.1392 20.4258 3.33524 605 550.56
14.6543 16.5852 8.05022 618.655 538.909
17.1384 12.0196 13.6667 628.525 524.584
18.3736 6.94091 18.383 633.956 507.659
18.8756 1.72439 20.4688 636.999 489.056
19.0268 -3.51324 20.8969 638.938 469.672
18.8641 -8.7506 21.3466 639.695 450.208
-16.2911 -15.2435 0.151001 512.091 408.283
-13.8841 -16.7848 -1.4678 521.75 402.612
-11.0409 -17.3445 -2.8944 532.757 400.805
-8.15157 -17.2226 -4.26482 543.745 401.58
-5.35376 -16.5164 -5.47488 554.211 404.572
3.03864 -16.9734 -5.50567 585.854 405.226
5.59325 -17.9996 -4.23627 595.568 402.573
8.31287 -18.4876 -2.835 605.738 402.027
11.0865 -18.389 -1.36552 615.944 403.714
13.6205 -17.3286 0.276933 624.966 408.993
-0.542006 -11.3471 -4.8378 570.794 425.491
-0.253518 -8.27257 -7.64832 571.392 436.046
0.0249058 -5.2198 -10.5966 571.975 446.467
0.288794 -2.18383 -13.4297 572.494 456.863
-3.20257 0.669265 -6.31725 557.72 469.128
-1.4211 1.15352 -7.20309 564.389 471.121
0.453899 1.29734 -8.03454 571.494 471.886
2.21369 0.922309 -7.11656 578.09 471.316
3.83055 0.220547 -6.15183 584.232 469.5
-12.2448 -10.2577 -0.836414 526.052 427.709
-10.6079 -11.2724 -1.05018 532.502 424.301
-8.64443 -11.4819 -1.16921 539.947 424.029
-6.88727 -10.7909 -1.01128 546.338 427.167
-8.6204 -10.2215 -0.997627 539.673 428.811
-10.4679 -10.0268 -0.960967 532.678 429.03
5.20814 -11.5 -0.886597 591.936 427.983
6.85071 -12.4012 -1.05316 598.37 425.017
8.8128 -12.469 -0.993295 605.749 425.34
10.5424 -11.6701 -0.833452 612.007 428.874
8.82171 -11.2134 -0.91616 605.431 430.065
6.98291 -11.1692 -0.924264 598.515 429.707
-7.14363 8.53351 -2.75384 540.337 498.712
-4.92215 6.92483 -4.83742 549.377 492.568
-2.31916 5.87515 -6.46511 559.64 488.788
0.482587 5.98612 -8.08841 570.334 489.405
3.19879 5.56819 -6.40647 580.437 489.223
5.83423 6.33205 -4.7386 589.918 493.43
8.12648 7.70497 -2.62668 597.889 499.98
6.20885 9.73733 -3.96191 590.302 506.55
3.61145 10.9541 -5.10824 580.36 509.948
0.733481 11.3973 -6.48168 569.604 510.292
-2.20612 11.2506 -5.19435 558.444 509.38
-4.93337 10.3044 -4.07831 548.321 505.477
-2.39371 7.91423 -5.22882 558.652 496.84
0.56666 7.86291 -7.45233 570.06 496.677
3.43477 7.61316 -5.06277 580.6 497.424
3.52865 8.28628 -4.50624 580.7 500.169
0.602653 8.6694 -6.49912 569.857 500.05
-2.40975 8.59312 -4.6314 558.332 499.591
3 20 21 23
3 21 22 23
3 0 1 36
3 15 16 45
3 0 17 36
3 16 26 45
3 17 18 37
3 25 26 44
3 17 36 37
3 26 44 45
3 18 19 38
3 24 25 43
3 18 37 38
3 25 43 44
3 19 20 38
3 23 24 43
3 20 21 39
3 22 23 42
3 20 38 39
3 23 42 43
3 21 22 27
3 21 27 39
3 22 27 42
3 27 28 42
3 27 28 39
3 28 42 47
3 28 39 40
3 1 36 41
3 15 45 46
3 1 2 41
3 14 15 46
3 28 29 40
3 28 29 47
3 2 40 41
3 14 46 47
3 2 29 40
3 14 29 47
3 2 3 29
3 13 14 29
3 29 30 31
3 29 30 35
3 3 29 31
3 13 29 35
3 30 32 33
3 30 33 34
3 30 31 32
3 30 34 35
3 3 4 31
3 12 13 35
3 4 5 48
3 11 12 54
3 5 6 48
3 10 11 54
3 6 48 59
3 10 54 55
3 6 7 59
3 9 10 55
3 7 58 59
3 9 55 56
3 8 57 58
3 8 56 57
3 7 8 58
3 8 9 56
3 4 31 48
3 12 35 54
3 31 48 49
3 35 53 54
3 31 49 50
3 35 52 53
3 31 32 50
3 34 35 52
3 32 33 50
3 33 34 52
3 33 50 51
3 33 51 52
3 48 49 60
3 49 60 50
3 50 60 61
3 50 51 61
3 51 52 61
3 61 62 52
3 52 53 62
3 53 54 62
3 54 55 63
3 55 56 63
3 56 63 64
3 56 57 64
3 64 65 57
3 57 58 65
3 58 59 65
3 48 59 65
