ply
format ascii 1.0
element vertex 66
property float x
property float y
property float z
property float u
property float v
element face 91
property list uchar int vertex_indices
end_header
-20.1839 -5.51331 21.1442 489.201 452.738
-19.426 -0.38623 20.7003 490.819 472.07
-18.3968 4.68719 20.2076 493.488 491.251
-17.0243 9.6547 18.1536 497.668 509.416
-14.9042 14.2917 13.4945 505.072 525.354
-11.7285 18.2357 7.93506 516.766 538.554
-7.81146 21.4729 3.19551 531.36 549.659
-3.33888 23.8941 -1.07874 548.217 558.047
1.73173 24.4654 -4.57787 567.728 559.971
6.74701 23.2958 -0.950533 586.646 558.548
10.9245 20.3377 3.31019 602.768 550.444
14.3255 16.5206 8.07701 616.102 539.123
16.7884 12.0609 13.6727 625.943 525.504
18.0688 7.09409 18.3196 631.534 509.226
18.6093 1.94711 20.3395 634.667 490.881
18.8181 -3.23649 20.8032 636.73 471.603
18.7287 -8.42503 21.2794 637.661 452.233
-15.9493 -15.5198 0.134308 510.27 406.62
-13.5392 -16.8302 -1.42961 519.937 401.615
-10.8115 -17.274 -2.88342 530.574 400.013
-8.07356 -17.1732 -4.27707 541.105 400.494
-5.4158 -16.5595 -5.4954 551.179 402.966
3.06849 -17.092 -5.47813 583.524 403.237
5.521 -18.0183 -4.21576 592.925 400.973
8.11572 -18.4692 -2.80509 602.728 400.606
10.7773 -18.4486 -1.32175 612.655 402.069
13.2842 -17.5784 0.2845 621.764 406.748
-0.629511 -11.5783 -4.86474 568.005 423.314
-0.337344 -8.47699 -7.63366 568.643 433.83
-0.0526706 -5.40324 -10.5828 569.281 444.158
0.220001 -2.34651 -13.4344 569.866 454.463
-3.294 0.749935 -6.33888 554.911 468.414
-1.492 1.24255 -7.21716 561.728 470.355
0.40856 1.38249 -8.02431 569.001 471.025
2.20451 0.996071 -7.13826 575.816 470.451
3.84957 0.26964 -6.20935 582.139 468.573
-11.9308 -10.7264 -0.823129 524.413 425.334
-10.3907 -11.6924 -0.987105 530.526 422.03
-8.54356 -11.8822 -1.10008 537.6 421.757
-6.90409 -11.1957 -0.974051 543.634 424.841
-8.53566 -10.6911 -0.953512 537.309 426.316
-10.2683 -10.5129 -0.946023 530.685 426.528
5.06961 -11.9348 -0.822139 589.264 425.327
6.5941 -12.8375 -0.988029 595.302 422.256
8.44381 -12.9235 -0.924177 602.339 422.456
10.0896 -12.1757 -0.792235 608.38 425.775
8.47998 -11.7326 -0.874162 602.166 426.978
6.74864 -11.6727 -0.8485 595.575 426.753
-7.32685 8.75141 -2.7269 537.137 499.14
-4.95406 7.32459 -4.80401 546.75 493.454
-2.28822 6.3661 -6.46528 557.309 489.8
0.538552 6.46926 -8.13039 568.208 490.191
3.28121 6.02828 -6.41084 578.533 490.041
5.98306 6.66139 -4.71364 588.432 493.921
8.42795 7.80341 -2.59681 597.177 499.84
6.4675 9.92481 -3.99561 589.354 506.68
3.80068 11.2332 -5.06992 579.02 510.412
0.81009 11.724 -6.34879 567.689 510.883
-2.24041 11.5761 -5.14652 556.006 510.054
-5.05375 10.5814 -4.10623 545.459 506.023
-2.51151 8.24148 -5.24623 555.841 497.364
0.621641 8.14865 -7.53934 568.025 496.813
3.66894 7.88177 -5.10921 579.381 497.723
3.79707 8.72021 -4.52818 579.586 501.182
0.676613 9.18468 -6.49754 567.849 501.206
-2.52906 9.08747 -4.62542 555.486 500.83
3 20 21 23
3 21 22 23
3 0 1 36
3 15 16 45
3 0 17 36
3 16 26 45
3 17 18 37
3 25 26 44
3 17 36 37
3 26 44 45
3 18 19 38
3 24 25 43
3 18 37 38
3 25 43 44
3 19 20 38
3 23 24 43
3 20 21 39
3 22 23 42
3 20 38 39
3 23 42 43
3 21 22 27
3 21 27 39
3 22 27 42
3 27 28 42
3 27 28 39
3 28 42 47
3 28 39 40
3 1 36 41
3 15 45 46
3 1 2 41
3 14 15 46
3 28 29 40
3 28 29 47
3 2 40 41
3 14 46 47
3 2 29 40
3 14 29 47
3 2 3 29
3 13 14 29
3 29 30 31
3 29 30 35
3 3 29 31
3 13 29 35
3 30 32 33
3 30 33 34
3 30 31 32
3 30 34 35
3 3 4 31
3 12 13 35
3 4 5 48
3 11 12 54
3 5 6 48
3 10 11 54
3 6 48 59
3 10 54 55
3 6 7 59
3 9 10 55
3 7 58 59
3 9 55 56
3 8 57 58
3 8 56 57
3 7 8 58
3 8 9 56
3 4 31 48
3 12 35 54
3 31 48 49
3 35 53 54
3 31 49 50
3 35 52 53
3 31 32 50
3 34 35 52
3 32 33 50
3 33 34 52
3 33 50 51
3 33 51 52
3 48 49 60
3 49 60 50
3 50 60 61
3 50 51 61
3 51 52 61
3 61 62 52
3 52 53 62
3 53 54 62
3 54 55 63
3 55 56 63
3 56 63 64
3 56 57 64
3 64 65 57
3 57 58 65
3 58 59 65
3 48 59 65
