ply
format ascii 1.0
element vertex 66
property float x
property float y
property float z
property float u
property float v
element face 91
property list uchar int vertex_indices
end_header
-20.4226 -5.49997 21.1787 489.47 451.925
-19.6545 -0.334333 20.7485 491.107 471.374
-18.6035 4.77377 20.251 493.835 490.653
-17.1945 9.75467 18.1826 498.081 508.913
-15.0417 14.3762 13.478 505.454 524.954
-11.8348 18.2951 7.92342 517.061 538.284
-7.87351 21.4898 3.22025 531.631 549.431
-3.34872 23.8442 -1.0676 548.509 557.732
1.76056 24.3753 -4.60838 567.993 559.63
6.82946 23.2268 -0.898077 587.134 558.123
11.0751 20.3197 3.36258 603.56 550.012
14.5107 16.5095 8.09605 617.11 538.486
16.9632 12.0323 13.686 627.039 524.541
18.2274 7.05008 18.3752 632.679 508.026
18.7761 1.86754 20.3736 635.891 489.488
18.9895 -3.36574 20.8261 637.98 470.049
18.8945 -8.60162 21.3085 638.9 450.532
-16.0949 -15.3408 0.112685 510.099 407.562
-13.6505 -16.7543 -1.44744 519.83 402.254
-10.85 -17.2478 -2.88589 530.664 400.546
-8.03073 -17.1441 -4.27944 541.416 401.107
-5.3004 -16.4941 -5.50326 551.679 403.768
3.05019 -17.0142 -5.50087 583.384 403.983
5.58462 -17.9578 -4.24025 593.098 401.602
8.26609 -18.3931 -2.83257 603.228 401.229
11 -18.2855 -1.36594 613.413 402.934
13.5253 -17.2707 0.250491 622.569 408.058
-0.621718 -11.6228 -4.85281 568.086 423.561
-0.329581 -8.53357 -7.63579 568.647 434.131
-0.0460609 -5.47059 -10.5813 569.196 444.535
0.224699 -2.42273 -13.4253 569.691 454.919
-3.10917 0.731696 -6.32955 555.69 468.772
-1.39866 1.17876 -7.20551 562.119 470.545
0.401414 1.30203 -8.01415 568.962 471.15
2.0987 0.951722 -7.11849 575.392 470.635
3.65669 0.290577 -6.17325 581.37 468.935
-12.1803 -10.5877 -0.851731 523.783 426.062
-10.5447 -11.5578 -1.00709 530.225 422.777
-8.61018 -11.7726 -1.09781 537.601 422.435
-6.87412 -11.1232 -0.978316 543.991 425.376
-8.5993 -10.6115 -0.974068 537.339 426.853
-10.4256 -10.4098 -0.955893 530.381 427.145
5.05403 -11.8312 -0.841854 589.259 425.869
6.68586 -12.6983 -0.988846 595.66 422.973
8.62469 -12.7583 -0.957216 603.003 423.264
10.3544 -12.007 -0.84784 609.345 426.582
8.64394 -11.6039 -0.904795 602.781 427.63
6.82022 -11.5654 -0.891608 595.874 427.307
-6.94461 8.7934 -2.75268 538.851 499.528
-4.72322 7.3176 -4.82298 547.798 493.722
-2.20256 6.30145 -6.47889 557.725 489.89
0.502979 6.40364 -8.13593 568.07 490.309
3.13068 5.99147 -6.42789 577.964 490.13
5.69559 6.71451 -4.73396 587.337 494.198
7.99363 7.93631 -2.62009 595.538 500.241
6.08953 9.84722 -3.96461 587.971 506.389
3.56349 11.0035 -5.08394 578.223 509.629
0.752158 11.4391 -6.39194 567.594 510.01
-2.11656 11.3103 -5.17091 556.676 509.272
-4.7661 10.4308 -4.10033 546.79 505.708
-2.39912 8.16856 -5.2424 556.406 497.357
0.579387 8.05993 -7.50151 567.887 496.812
3.48077 7.84425 -5.08754 578.707 497.728
3.57382 8.54062 -4.49763 578.833 500.608
0.622956 8.94022 -6.47791 567.743 500.546
-2.40562 8.86787 -4.6193 556.153 500.236
3 20 21 23
3 21 22 23
3 0 1 36
3 15 16 45
3 0 17 36
3 16 26 45
3 17 18 37
3 25 26 44
3 17 36 37
3 26 44 45
3 18 19 38
3 24 25 43
3 18 37 38
3 25 43 44
3 19 20 38
3 23 24 43
3 20 21 39
3 22 23 42
3 20 38 39
3 23 42 43
3 21 22 27
3 21 27 39
3 22 27 42
3 27 28 42
3 27 28 39
3 28 42 47
3 28 39 40
3 1 36 41
3 15 45 46
3 1 2 41
3 14 15 46
3 28 29 40
3 28 29 47
3 2 40 41
3 14 46 47
3 2 29 40
3 14 29 47
3 2 3 29
3 13 14 29
3 29 30 31
3 29 30 35
3 3 29 31
3 13 29 35
3 30 32 33
3 30 33 34
3 30 31 32
3 30 34 35
3 3 4 31
3 12 13 35
3 4 5 48
3 11 12 54
3 5 6 48
3 10 11 54
3 6 48 59
3 10 54 55
3 6 7 59
3 9 10 55
3 7 58 59
3 9 55 56
3 8 57 58
3 8 56 57
3 7 8 58
3 8 9 56
3 4 31 48
3 12 35 54
3 31 48 49
3 35 53 54
3 31 49 50
3 35 52 53
3 31 32 50
3 34 35 52
3 32 33 50
3 33 34 52
3 33 50 51
3 33 51 52
3 48 49 60
3 49 60 50
3 50 60 61
3 50 51 61
3 51 52 61
3 61 62 52
3 52 53 62
3 53 54 62
3 54 55 63
3 55 56 63
3 56 63 64
3 56 57 64
3 64 65 57
3 57 58 65
3 58 59 65
3 48 59 65
