ply
format ascii 1.0
element vertex 66
property float x
property float y
property float z
property float u
property float v
element face 91
property list uchar int vertex_indices
end_header
-19.9093 -5.94107 21.1491 490.165 452.796
-19.1661 -0.649276 20.6746 491.968 472.923
-18.1423 4.59085 20.1552 494.867 492.901
-16.7814 9.71281 18.1707 499.404 511.884
-14.7942 14.4795 13.4421 507.022 528.49
-11.7768 18.5391 7.90448 518.915 542.305
-7.93556 21.8214 3.13048 533.96 553.685
-3.50555 24.2449 -1.0673 551.316 562.182
1.53805 24.8441 -4.6051 571.27 564.162
6.59902 23.5798 -0.854956 590.083 562.167
10.6925 20.4074 3.34013 605.509 552.863
13.9615 16.3979 8.07341 617.841 540.404
16.3745 11.8496 13.5419 626.852 526.002
17.8045 6.94612 18.1806 632.361 509.657
18.4875 1.91723 20.1507 635.629 491.513
18.7202 -3.15218 20.5622 637.526 472.441
18.5911 -8.22668 20.9561 638.043 453.255
-15.8708 -15.639 0.0908956 512.373 407.829
-13.526 -17.0072 -1.45025 521.983 402.523
-10.8325 -17.4936 -2.85264 532.707 400.718
-8.10905 -17.3592 -4.25483 543.41 401.284
-5.46199 -16.6946 -5.4971 553.671 403.919
3.02996 -17.0338 -5.5345 586.251 404.651
5.39565 -17.9202 -4.23658 595.21 402.398
7.90862 -18.3416 -2.82159 604.606 402.002
10.4734 -18.2608 -1.37918 614.085 403.543
12.8441 -17.3232 0.252598 622.594 408.38
-0.524025 -11.6093 -4.90221 571.336 424.724
-0.294181 -8.65856 -7.67208 572.189 434.831
-0.0782812 -5.72436 -10.5266 573.011 444.836
0.129039 -2.80367 -13.2463 573.773 454.844
-3.00872 0.336119 -6.21771 559.532 469.053
-1.30817 0.77205 -7.11621 566.144 470.737
0.482106 0.902116 -7.94793 573.151 471.307
2.12532 0.56108 -6.99874 579.304 470.809
3.61779 -0.0861998 -6.13073 584.964 469.074
-11.9798 -10.8951 -0.996175 526.477 426.364
-10.4552 -11.7891 -0.995392 532.505 423.326
-8.63719 -12.0209 -0.96991 539.507 422.891
-7.0244 -11.4177 -0.857115 545.524 425.623
-8.62864 -10.8479 -0.972035 539.287 427.358
-10.3505 -10.6723 -0.97754 532.66 427.611
5.0027 -12.0276 -0.764225 591.663 426.228
6.48167 -12.7625 -0.925235 597.518 423.716
8.26702 -12.8125 -0.95526 604.368 423.941
9.84344 -12.1096 -0.920066 610.241 427.012
8.2959 -11.6787 -0.891011 604.219 428.294
6.60805 -11.673 -0.859598 597.751 427.923
-5.90053 9.32277 -2.78165 545.76 504.05
-4.24387 7.3678 -4.90099 552.992 496.097
-2.01779 5.88266 -6.52317 562.191 490.282
0.646071 5.87477 -8.21348 572.761 490.169
3.24203 5.5683 -6.32712 582.345 490.432
5.56421 6.7509 -4.69982 590.616 496.189
7.3213 8.54368 -2.58795 596.486 504.341
5.84262 10.4844 -3.93547 590.704 510.8
3.70681 11.8025 -5.03941 582.489 514.834
1.07268 12.321 -6.49257 572.617 515.554
-1.64683 12.09 -5.22204 561.979 514.565
-4.00247 11.0327 -4.1142 552.948 510.447
-1.78223 7.94108 -5.12551 562.338 498.775
0.779688 7.63472 -7.33405 572.697 497.279
3.29894 7.66871 -4.86859 581.786 499.068
3.42386 9.197 -4.36892 581.822 505.131
0.952514 9.76972 -6.26497 572.66 505.908
-1.6252 9.47662 -4.57884 562.486 504.894
3 20 21 23
3 21 22 23
3 0 1 36
3 15 16 45
3 0 17 36
3 16 26 45
3 17 18 37
3 25 26 44
3 17 36 37
3 26 44 45
3 18 19 38
3 24 25 43
3 18 37 38
3 25 43 44
3 19 20 38
3 23 24 43
3 20 21 39
3 22 23 42
3 20 38 39
3 23 42 43
3 21 22 27
3 21 27 39
3 22 27 42
3 27 28 42
3 27 28 39
3 28 42 47
3 28 39 40
3 1 36 41
3 15 45 46
3 1 2 41
3 14 15 46
3 28 29 40
3 28 29 47
3 2 40 41
3 14 46 47
3 2 29 40
3 14 29 47
3 2 3 29
3 13 14 29
3 29 30 31
3 29 30 35
3 3 29 31
3 13 29 35
3 30 32 33
3 30 33 34
3 30 31 32
3 30 34 35
3 3 4 31
3 12 13 35
3 4 5 48
3 11 12 54
3 5 6 48
3 10 11 54
3 6 48 59
3 10 54 55
3 6 7 59
3 9 10 55
3 7 58 59
3 9 55 56
3 8 57 58
3 8 56 57
3 7 8 58
3 8 9 56
3 4 31 48
3 12 35 54
3 31 48 49
3 35 53 54
3 31 49 50
3 35 52 53
3 31 32 50
3 34 35 52
3 32 33 50
3 33 34 52
3 33 50 51
3 33 51 52
3 48 49 60
3 49 60 50
3 50 60 61
3 50 51 61
3 51 52 61
3 61 62 52
3 52 53 62
3 53 54 62
3 54 55 63
3 55 56 63
3 56 63 64
3 56 57 64
3 64 65 57
3 57 58 65
3 58 59 65
3 48 59 65
