ply
format ascii 1.0
element vertex 66
property float x
property float y
property float z
property float u
property float v
element face 91
property list uchar int vertex_indices
end_header
-20.3063 -5.66535 21.3163 489.799 452.903
-19.4935 -0.387681 20.8497 491.423 473.075
-18.4266 4.84082 20.3322 494.032 493.126
-17.0749 9.92209 18.2605 497.993 512.434
-15.0577 14.5749 13.5084 504.996 529.849
-11.9282 18.4302 7.91674 516.573 544.424
-7.97689 21.4872 3.19783 531.37 556.366
-3.47799 23.6962 -1.0802 548.425 565.332
1.57208 24.1404 -4.62577 567.974 567.897
6.67113 22.999 -0.853661 587.093 565.733
10.9053 20.0356 3.37403 603.392 556.484
14.3135 16.1941 8.08579 616.742 543.745
16.7741 11.7451 13.6452 626.547 528.568
18.1191 6.88161 18.2717 632.378 511.328
18.7153 1.85457 20.2791 635.8 492.791
18.9267 -3.23446 20.6716 638.018 473.625
18.7923 -8.32621 21.1319 638.914 454.358
-16.3475 -15.4503 0.125884 510.761 413.295
-13.9074 -16.9634 -1.4262 520.683 408.011
-11.0633 -17.5109 -2.84696 531.839 406.531
-8.18914 -17.3867 -4.23651 542.91 407.611
-5.39841 -16.7039 -5.45544 553.478 410.815
3.32207 -17.1316 -5.51862 586.692 411.765
5.70405 -18.0221 -4.22991 595.796 409.317
8.23986 -18.4501 -2.81081 605.331 408.691
10.8448 -18.4105 -1.32956 614.984 409.87
13.2791 -17.4888 0.28848 623.714 414.366
-0.351757 -11.4855 -4.85296 571.023 432.201
-0.0964286 -8.47831 -7.66342 571.534 443.192
0.143315 -5.49543 -10.6105 572.012 454.062
0.363928 -2.52397 -13.4284 572.403 464.905
-2.92302 0.729083 -6.32002 557.948 477.501
-1.19296 1.15587 -7.21514 564.519 479.476
0.624501 1.27622 -8.03757 571.499 480.328
2.26086 0.96573 -7.0913 577.658 479.799
3.76143 0.353795 -6.13573 583.387 478.089
-12.3076 -10.7596 -0.84138 524.87 432.11
-10.675 -11.761 -0.973177 531.372 428.773
-8.72431 -11.9793 -1.05739 538.848 428.509
-7.00673 -11.2144 -0.942379 545.125 431.938
-8.72921 -10.6552 -0.978277 538.434 433.541
-10.5692 -10.4866 -0.946131 531.401 433.642
5.14039 -11.8249 -0.821356 591.363 433.24
6.70412 -12.7405 -0.952031 597.579 430.209
8.62541 -12.8312 -0.934759 604.891 430.437
10.3125 -12.0141 -0.851253 611.043 434.049
8.66325 -11.5194 -0.906189 604.651 435.427
6.86222 -11.4878 -0.897604 597.809 435.015
-6.63589 9.01148 -2.80215 540.949 508.417
-4.44665 7.55458 -4.9022 549.984 503.177
-2.02417 6.47639 -6.55735 559.729 499.518
0.588733 6.59308 -8.22602 569.852 500.445
3.09034 6.2192 -6.43092 579.187 500.079
5.49779 7.03962 -4.74851 587.834 504.195
7.63641 8.33018 -2.63093 595.263 510.089
5.85678 10.0918 -3.95392 588.196 516.013
3.46256 11.1208 -5.05815 578.978 519.014
0.802962 11.4825 -6.41699 568.984 519.362
-1.9353 11.3455 -5.2019 558.458 518.242
-4.48661 10.5346 -4.1228 548.856 514.6
-2.10815 8.36999 -5.30767 558.679 506.89
0.675608 8.26693 -7.4899 569.589 506.945
3.34856 8.13903 -5.00982 579.402 507.682
3.42075 8.66067 -4.43596 579.44 509.781
0.722736 8.96499 -6.41831 569.408 509.792
-2.07887 8.90559 -4.67112 558.541 509.04
3 20 21 23
3 21 22 23
3 0 1 36
3 15 16 45
3 0 17 36
3 16 26 45
3 17 18 37
3 25 26 44
3 17 36 37
3 26 44 45
3 18 19 38
3 24 25 43
3 18 37 38
3 25 43 44
3 19 20 38
3 23 24 43
3 20 21 39
3 22 23 42
3 20 38 39
3 23 42 43
3 21 22 27
3 21 27 39
3 22 27 42
3 27 28 42
3 27 28 39
3 28 42 47
3 28 39 40
3 1 36 41
3 15 45 46
3 1 2 41
3 14 15 46
3 28 29 40
3 28 29 47
3 2 40 41
3 14 46 47
3 2 29 40
3 14 29 47
3 2 3 29
3 13 14 29
3 29 30 31
3 29 30 35
3 3 29 31
3 13 29 35
3 30 32 33
3 30 33 34
3 30 31 32
3 30 34 35
3 3 4 31
3 12 13 35
3 4 5 48
3 11 12 54
3 5 6 48
3 10 11 54
3 6 48 59
3 10 54 55
3 6 7 59
3 9 10 55
3 7 58 59
3 9 55 56
3 8 57 58
3 8 56 57
3 7 8 58
3 8 9 56
3 4 31 48
3 12 35 54
3 31 48 49
3 35 53 54
3 31 49 50
3 35 52 53
3 31 32 50
3 34 35 52
3 32 33 50
3 33 34 52
3 33 50 51
3 33 51 52
3 48 49 60
3 49 60 50
3 50 60 61
3 50 51 61
3 51 52 61
3 61 62 52
3 52 53 62
3 53 54 62
3 54 55 63
3 55 56 63
3 56 63 64
3 56 57 64
3 64 65 57
3 57 58 65
3 58 59 65
3 48 59 65
