ply
format ascii 1.0
element vertex 66
property float x
property float y
property float z
property float u
property float v
element face 91
property list uchar int vertex_indices
end_header
-20.173 -5.94741 21.154 488.956 451.995
-19.431 -0.61375 20.6447 490.836 472.093
-18.4067 4.67092 20.1328 493.799 492.066
-17.0121 9.82152 18.2352 498.467 510.999
-14.9518 14.5611 13.4598 506.308 527.249
-11.8758 18.5844 7.87698 518.308 540.653
-7.99615 21.861 3.14669 533.343 551.786
-3.50947 24.2584 -1.06098 550.756 559.959
1.5884 24.8249 -4.60734 570.721 561.636
6.684 23.5523 -0.855763 589.613 559.59
10.8034 20.3846 3.34661 605.074 550.37
14.0875 16.3809 8.04304 617.426 538.026
16.536 11.8674 13.5643 626.539 523.938
18.0251 6.99231 18.2275 632.242 507.897
18.7352 1.94662 20.1202 635.558 489.814
18.963 -3.1515 20.5245 637.34 470.77
18.8293 -8.25258 20.9612 637.742 451.651
-15.8953 -15.669 0.0987376 511.229 406.85
-13.578 -17.0622 -1.43989 520.612 401.404
-10.8899 -17.5531 -2.84145 531.203 399.511
-8.17386 -17.4142 -4.24943 541.777 400.001
-5.53888 -16.7341 -5.48066 551.904 402.598
3.12084 -17.0774 -5.49227 584.9 403.173
5.45369 -17.9908 -4.20307 593.697 400.796
7.94346 -18.4329 -2.77807 602.972 400.296
10.4969 -18.3817 -1.33688 612.389 401.681
12.8562 -17.4561 0.266663 620.867 406.402
-0.522573 -11.662 -4.87456 569.869 423.128
-0.297293 -8.63995 -7.67896 570.683 433.36
-0.0842353 -5.63346 -10.5491 571.467 443.501
0.121348 -2.63879 -13.2646 572.194 453.664
-3.04291 0.516478 -6.22162 558.172 468.024
-1.338 0.992571 -7.14147 564.741 469.786
0.471601 1.13425 -7.97053 571.756 470.347
2.14244 0.781562 -7.00562 577.989 469.803
3.64225 0.0965356 -6.10073 583.649 467.939
-12.0431 -10.9334 -1.0422 525.174 425.082
-10.4873 -11.8669 -1.0118 531.266 421.903
-8.61842 -12.1158 -0.951757 538.409 421.395
-6.95414 -11.4831 -0.821177 544.588 424.205
-8.59351 -10.8749 -0.967386 538.265 426.084
-10.3653 -10.6948 -0.988126 531.497 426.371
5.0154 -12.1044 -0.72963 590.203 424.492
6.54263 -12.875 -0.877411 596.19 421.844
8.38271 -12.911 -0.93847 603.205 422.08
9.99445 -12.1692 -0.939726 609.189 425.233
8.39855 -11.7181 -0.885633 603.022 426.616
6.66041 -11.7082 -0.852287 596.405 426.292
-5.56029 9.12342 -2.76399 546.245 501.546
-3.78314 7.63847 -4.88564 553.706 495.378
-1.68706 6.50592 -6.56185 562.224 490.809
0.668946 6.62178 -8.2555 571.491 491.008
2.94734 6.23895 -6.35619 579.858 490.896
5.08889 7.0963 -4.67972 587.506 495.343
6.90025 8.4098 -2.58066 593.727 501.631
5.45351 10.1286 -3.94919 588.158 507.209
3.42026 11.2396 -5.0765 580.43 510.468
0.998297 11.6838 -6.51116 571.414 510.987
-1.49983 11.4969 -5.26567 561.709 510.291
-3.72844 10.6264 -4.12988 553.183 507.02
-1.42598 8.33133 -5.16353 562.588 498.385
0.787844 8.19372 -7.32129 571.454 497.39
2.94572 8.11022 -4.89943 579.202 498.614
3.03701 8.80657 -4.38193 579.312 501.495
0.882644 9.24754 -6.26342 571.402 501.862
-1.3573 9.03896 -4.59879 562.601 501.325
3 20 21 23
3 21 22 23
3 0 1 36
3 15 16 45
3 0 17 36
3 16 26 45
3 17 18 37
3 25 26 44
3 17 36 37
3 26 44 45
3 18 19 38
3 24 25 43
3 18 37 38
3 25 43 44
3 19 20 38
3 23 24 43
3 20 21 39
3 22 23 42
3 20 38 39
3 23 42 43
3 21 22 27
3 21 27 39
3 22 27 42
3 27 28 42
3 27 28 39
3 28 42 47
3 28 39 40
3 1 36 41
3 15 45 46
3 1 2 41
3 14 15 46
3 28 29 40
3 28 29 47
3 2 40 41
3 14 46 47
3 2 29 40
3 14 29 47
3 2 3 29
3 13 14 29
3 29 30 31
3 29 30 35
3 3 29 31
3 13 29 35
3 30 32 33
3 30 33 34
3 30 31 32
3 30 34 35
3 3 4 31
3 12 13 35
3 4 5 48
3 11 12 54
3 5 6 48
3 10 11 54
3 6 48 59
3 10 54 55
3 6 7 59
3 9 10 55
3 7 58 59
3 9 55 56
3 8 57 58
3 8 56 57
3 7 8 58
3 8 9 56
3 4 31 48
3 12 35 54
3 31 48 49
3 35 53 54
3 31 49 50
3 35 52 53
3 31 32 50
3 34 35 52
3 32 33 50
3 33 34 52
3 33 50 51
3 33 51 52
3 48 49 60
3 49 60 50
3 50 60 61
3 50 51 61
3 51 52 61
3 61 62 52
3 52 53 62
3 53 54 62
3 54 55 63
3 55 56 63
3 56 63 64
3 56 57 64
3 64 65 57
3 57 58 65
3 58 59 65
3 48 59 65
