ply
format ascii 1.0
element vertex 66
property float x
property float y
property float z
property float u
property float v
element face 91
property list uchar int vertex_indices
end_header
-20.2811 -5.47686 21.2282 489.473 451.084
-19.496 -0.33188 20.8036 491.156 470.611
-18.4473 4.75785 20.2949 493.863 489.969
-17.0826 9.72684 18.166 497.963 508.345
-14.982 14.3555 13.5409 505.195 524.694
-11.8051 18.2684 7.95763 516.801 538.263
-7.86298 21.4451 3.20386 531.429 549.564
-3.36244 23.7892 -1.07156 548.352 558.044
1.71734 24.3224 -4.60581 567.878 560.104
6.7763 23.196 -0.92127 587.052 558.592
11.0326 20.3103 3.32387 603.577 550.414
14.4768 16.5147 8.11525 617.199 538.779
16.9141 12.0315 13.7473 627.089 524.584
18.1305 7.03337 18.35 632.571 507.725
18.635 1.85727 20.4145 635.641 489.045
18.8375 -3.36726 20.8804 637.731 469.498
18.7418 -8.59592 21.3609 638.688 449.862
-16.0615 -15.237 0.114392 510.143 407.339
-13.6479 -16.6204 -1.43284 519.836 402.172
-10.8947 -17.13 -2.88961 530.583 400.439
-8.11718 -17.0765 -4.28451 541.269 400.866
-5.41704 -16.4947 -5.50718 551.506 403.338
3.16403 -17.0318 -5.52983 584.284 403.613
5.64041 -17.914 -4.25603 593.808 401.421
8.25503 -18.3113 -2.83701 603.717 401.156
10.9234 -18.2332 -1.34127 613.698 402.735
13.4262 -17.3134 0.247016 622.82 407.489
-0.574707 -11.6512 -4.85509 568.592 423.224
-0.272638 -8.55617 -7.63471 569.204 433.975
0.0192345 -5.49076 -10.6069 569.804 444.54
0.295183 -2.44193 -13.4991 570.339 455.067
-3.13693 0.711996 -6.37257 555.763 468.759
-1.38114 1.14475 -7.23769 562.412 470.546
0.456414 1.2671 -8.03211 569.447 471.206
2.17573 0.916051 -7.16655 575.993 470.667
3.77265 0.266665 -6.22106 582.143 468.995
-12.3213 -10.5061 -0.778212 523.218 425.921
-10.6307 -11.5112 -0.988144 529.931 422.494
-8.63439 -11.7205 -1.15542 537.595 422.177
-6.84799 -11.0336 -1.0426 544.198 425.302
-8.63539 -10.5454 -0.985384 537.267 426.689
-10.5155 -10.3363 -0.947291 530.058 426.987
5.06558 -11.7449 -0.898544 589.68 425.879
6.73806 -12.6624 -1.04174 596.294 422.804
8.73742 -12.7459 -0.944653 603.91 423.064
10.5282 -11.9704 -0.7941 610.503 426.54
8.77004 -11.5591 -0.908087 603.721 427.579
6.89202 -11.515 -0.906666 596.567 427.24
-7.49777 8.64791 -2.72631 536.746 498.992
-5.0834 7.18384 -4.77825 546.512 493.33
-2.36826 6.21527 -6.45348 557.256 489.767
0.501422 6.30022 -8.13614 568.312 490.231
3.27998 5.89371 -6.42498 578.818 490.085
6.01489 6.55817 -4.70355 588.877 493.986
8.47871 7.75661 -2.60187 597.728 499.978
6.446 9.81362 -3.98477 589.595 506.695
3.74139 11.073 -5.07969 579.087 510.321
0.731516 11.5364 -6.35947 567.644 510.781
-2.3412 11.3902 -5.14396 555.877 509.855
-5.17422 10.4183 -4.09317 545.254 505.807
-2.87182 8.01326 -5.26171 554.753 496.885
0.561895 7.89527 -7.59906 568.072 496.486
3.89829 7.6415 -5.10907 580.584 497.363
4.04149 8.66994 -4.49796 580.799 501.524
0.624376 9.15222 -6.49255 567.873 501.677
-2.89132 9.05046 -4.60916 554.344 501.051
3 20 21 23
3 21 22 23
3 0 1 36
3 15 16 45
3 0 17 36
3 16 26 45
3 17 18 37
3 25 26 44
3 17 36 37
3 26 44 45
3 18 19 38
3 24 25 43
3 18 37 38
3 25 43 44
3 19 20 38
3 23 24 43
3 20 21 39
3 22 23 42
3 20 38 39
3 23 42 43
3 21 22 27
3 21 27 39
3 22 27 42
3 27 28 42
3 27 28 39
3 28 42 47
3 28 39 40
3 1 36 41
3 15 45 46
3 1 2 41
3 14 15 46
3 28 29 40
3 28 29 47
3 2 40 41
3 14 46 47
3 2 29 40
3 14 29 47
3 2 3 29
3 13 14 29
3 29 30 31
3 29 30 35
3 3 29 31
3 13 29 35
3 30 32 33
3 30 33 34
3 30 31 32
3 30 34 35
3 3 4 31
3 12 13 35
3 4 5 48
3 11 12 54
3 5 6 48
3 10 11 54
3 6 48 59
3 10 54 55
3 6 7 59
3 9 10 55
3 7 58 59
3 9 55 56
3 8 57 58
3 8 56 57
3 7 8 58
3 8 9 56
3 4 31 48
3 12 35 54
3 31 48 49
3 35 53 54
3 31 49 50
3 35 52 53
3 31 32 50
3 34 35 52
3 32 33 50
3 33 34 52
3 33 50 51
3 33 51 52
3 48 49 60
3 49 60 50
3 50 60 61
3 50 51 61
3 51 52 61
3 61 62 52
3 52 53 62
3 53 54 62
3 54 55 63
3 55 56 63
3 56 63 64
3 56 57 64
3 64 65 57
3 57 58 65
3 58 59 65
3 48 59 65
