ply
format ascii 1.0
element vertex 66
property float x
property float y
property float z
property float u
property float v
element face 91
property list uchar int vertex_indices
end_header
-20.0023 -6.23436 21.0379 489.898 455.259
-19.2824 -0.834838 20.4176 492.202 475.676
-18.2202 4.51259 19.966 495.759 496.008
-16.7488 9.68932 18.2764 501.305 515.302
-14.7374 14.4043 13.3478 510.037 531.741
-11.8396 18.4941 7.8082 522.421 545.712
-8.1058 21.8772 3.12844 537.786 557.436
-3.69002 24.3365 -1.02364 555.683 565.941
1.38267 24.949 -4.58023 576.103 567.739
6.48174 23.6601 -0.784498 594.41 564.988
10.452 20.3562 3.4227 608.522 554.555
13.5588 16.2596 7.98143 619.326 541.105
15.997 11.8293 13.3515 627.354 526.58
17.7417 7.15629 18.1814 632.95 510.832
18.7126 2.24693 19.9383 636.648 492.947
19.0872 -2.7613 20.2744 638.559 474.08
19.0322 -7.77262 20.6721 638.814 455.158
-15.9676 -16.3738 0.115807 513.409 409.681
-13.7248 -17.7468 -1.40587 522.616 404.243
-11.1075 -18.1663 -2.76359 533.081 402.548
-8.48086 -17.9112 -4.20842 543.53 403.387
-5.95639 -17.1048 -5.4819 553.468 406.37
2.94603 -17.2559 -5.44163 587.365 407.152
5.31175 -18.2765 -4.13523 596.06 404.103
7.86115 -18.7869 -2.71027 605.354 403.065
10.4755 -18.6531 -1.34593 614.839 404.465
12.7875 -17.5025 0.302131 622.957 409.79
-0.694957 -11.5589 -4.88408 572.64 428.472
-0.524026 -8.58856 -7.74243 573.886 438.753
-0.365882 -5.61965 -10.5042 575.051 449.061
-0.198232 -2.65401 -12.9912 576.161 459.459
-2.75407 0.518459 -6.01288 563.737 473.682
-1.25153 0.946164 -7.05267 569.752 475.156
0.357197 1.05979 -7.96109 576.165 475.5
1.86768 0.741566 -6.8739 581.592 474.913
3.17565 0.0948006 -6.01859 586.365 472.962
-12.2637 -11.2859 -1.29689 527.373 429.074
-10.7715 -12.1803 -0.981161 533.056 426.013
-8.94699 -12.4791 -0.671699 539.935 425.264
-7.33987 -11.9218 -0.66064 545.984 427.63
-8.90419 -11.1814 -1.01825 540.058 430.08
-10.6456 -11.0032 -1.04321 533.416 430.486
5.06382 -12.5003 -0.607953 593.258 427.318
6.52743 -13.1396 -0.692204 598.934 425.077
8.30339 -13.1058 -0.897992 605.76 425.398
9.84105 -12.4123 -1.03278 611.576 428.218
8.32231 -11.9384 -0.845397 605.676 429.86
6.62627 -11.9633 -0.831201 599.217 429.514
-2.74602 10.0637 -2.89149 561.596 511.122
-1.94932 8.33607 -5.09441 565.566 503.869
-0.748454 6.82172 -6.72688 570.86 497.696
0.907333 6.92843 -8.46881 577.729 497.716
2.53949 6.5944 -6.34084 583.276 497.467
3.91221 7.84924 -4.76636 587.831 503.02
4.8689 9.4619 -2.64292 590.576 510.071
4.11079 10.6171 -3.92409 587.978 513.884
2.95848 11.4341 -5.06242 583.871 516.402
1.39239 11.8219 -6.67669 578.398 517.053
-0.227411 11.6492 -5.37874 571.821 516.625
-1.59433 11.0559 -4.16801 566.286 514.604
0.480739 8.875 -5.02401 574.73 506.31
1.11111 8.64206 -6.98996 577.81 504.803
1.78087 8.7897 -4.74658 579.598 506.283
1.72701 8.82136 -4.32275 579.248 506.55
1.21281 9.11879 -5.93019 577.789 507.018
0.679747 8.90086 -4.56534 575.332 506.606
3 20 21 23
3 21 22 23
3 0 1 36
3 15 16 45
3 0 17 36
3 16 26 45
3 17 18 37
3 25 26 44
3 17 36 37
3 26 44 45
3 18 19 38
3 24 25 43
3 18 37 38
3 25 43 44
3 19 20 38
3 23 24 43
3 20 21 39
3 22 23 42
3 20 38 39
3 23 42 43
3 21 22 27
3 21 27 39
3 22 27 42
3 27 28 42
3 27 28 39
3 28 42 47
3 28 39 40
3 1 36 41
3 15 45 46
3 1 2 41
3 14 15 46
3 28 29 40
3 28 29 47
3 2 40 41
3 14 46 47
3 2 29 40
3 14 29 47
3 2 3 29
3 13 14 29
3 29 30 31
3 29 30 35
3 3 29 31
3 13 29 35
3 30 32 33
3 30 33 34
3 30 31 32
3 30 34 35
3 3 4 31
3 12 13 35
3 4 5 48
3 11 12 54
3 5 6 48
3 10 11 54
3 6 48 59
3 10 54 55
3 6 7 59
3 9 10 55
3 7 58 59
3 9 55 56
3 8 57 58
3 8 56 57
3 7 8 58
3 8 9 56
3 4 31 48
3 12 35 54
3 31 48 49
3 35 53 54
3 31 49 50
3 35 52 53
3 31 32 50
3 34 35 52
3 32 33 50
3 33 34 52
3 33 50 51
3 33 51 52
3 48 49 60
3 49 60 50
3 50 60 61
3 50 51 61
3 51 52 61
3 61 62 52
3 52 53 62
3 53 54 62
3 54 55 63
3 55 56 63
3 56 63 64
3 56 57 64
3 64 65 57
3 57 58 65
3 58 59 65
3 48 59 65
