ply
format ascii 1.0
element vertex 66
property float x
property float y
property float z
property float u
property float v
element face 91
property list uchar int vertex_indices
end_header
-20.2985 -5.54482 21.2941 490.502 453.944
-19.4758 -0.271596 20.7887 492.253 474.07
-18.4078 4.95996 20.2805 494.947 494.107
-17.0658 10.0207 18.2672 498.959 513.253
-15.0703 14.6004 13.5123 506.002 530.175
-11.971 18.3757 7.93539 517.583 544.183
-8.05361 21.3739 3.2015 532.354 555.655
-3.5958 23.5609 -1.07091 549.33 564.301
1.42861 23.9837 -4.57982 568.825 566.58
6.57309 22.9023 -0.818617 588.078 564.737
10.8262 19.9537 3.39378 604.391 555.655
14.2577 16.1443 8.1034 617.746 543.183
16.7596 11.7521 13.6329 627.607 528.411
18.1505 6.94431 18.2613 633.501 511.556
18.7691 1.92372 20.2121 636.931 493.104
18.9845 -3.1822 20.5958 639.094 473.881
18.8465 -8.28681 21.0698 639.9 454.582
-16.2715 -15.492 0.134579 511.757 412.845
-13.8482 -16.9284 -1.41728 521.589 407.752
-11.0809 -17.4695 -2.8388 532.461 406.181
-8.28829 -17.3926 -4.22282 543.253 406.968
-5.5674 -16.7851 -5.4257 553.6 409.786
3.45521 -17.2282 -5.50243 587.987 410.644
5.76597 -18.0338 -4.2273 596.786 408.515
8.21801 -18.4047 -2.8147 605.981 408.104
10.739 -18.3723 -1.32674 615.316 409.258
13.1473 -17.5426 0.290379 623.983 413.431
-0.340493 -11.8247 -4.84057 571.99 430.205
-0.0683329 -8.63756 -7.67486 572.581 441.767
0.186352 -5.47571 -10.6405 573.132 453.199
0.420127 -2.32107 -13.4502 573.582 464.632
-2.88383 0.890023 -6.36889 559.074 477.385
-1.14232 1.33649 -7.24603 565.697 479.385
0.695622 1.46335 -8.02086 572.758 480.221
2.33799 1.14805 -7.10901 578.94 479.685
3.83291 0.515732 -6.19399 584.649 477.905
-12.1259 -10.923 -0.84361 526.389 431.14
-10.5204 -11.8826 -0.955036 532.765 427.932
-8.62185 -12.0936 -1.03195 540.043 427.652
-6.94697 -11.3388 -0.924704 546.178 431.012
-8.63642 -10.8183 -0.973957 539.628 432.498
-10.4289 -10.6629 -0.957744 532.778 432.583
5.02745 -11.9254 -0.78248 591.777 432.209
6.54231 -12.826 -0.935638 597.799 429.189
8.40703 -12.9274 -0.931312 604.905 429.333
10.0613 -12.1527 -0.867563 610.963 432.754
8.45882 -11.6679 -0.917987 604.754 434.128
6.70921 -11.6307 -0.877391 598.095 433.783
-6.70495 8.96345 -2.78789 541.801 507.688
-4.41877 7.62794 -4.88642 551.168 502.823
-1.96067 6.63945 -6.56472 561.028 499.412
0.636589 6.75937 -8.27781 571.117 500.237
3.12015 6.39212 -6.42027 580.363 499.943
5.53928 7.12228 -4.71313 589.085 503.762
7.73543 8.28645 -2.58303 596.777 509.253
5.94139 10.0701 -3.93982 589.684 515.221
3.52663 11.1374 -5.01591 580.387 518.356
0.815151 11.4951 -6.36756 570.202 518.657
-1.96418 11.3535 -5.18017 559.508 517.586
-4.53617 10.5057 -4.11267 549.813 513.869
-2.04076 8.42492 -5.33031 560.045 506.424
0.712203 8.32367 -7.52236 570.859 506.352
3.34662 8.21206 -5.00421 580.506 507.212
3.43893 8.7804 -4.41202 580.61 509.52
0.757386 9.08618 -6.39747 570.649 509.497
-2.02953 9.01375 -4.66834 559.824 508.802
3 20 21 23
3 21 22 23
3 0 1 36
3 15 16 45
3 0 17 36
3 16 26 45
3 17 18 37
3 25 26 44
3 17 36 37
3 26 44 45
3 18 19 38
3 24 25 43
3 18 37 38
3 25 43 44
3 19 20 38
3 23 24 43
3 20 21 39
3 22 23 42
3 20 38 39
3 23 42 43
3 21 22 27
3 21 27 39
3 22 27 42
3 27 28 42
3 27 28 39
3 28 42 47
3 28 39 40
3 1 36 41
3 15 45 46
3 1 2 41
3 14 15 46
3 28 29 40
3 28 29 47
3 2 40 41
3 14 46 47
3 2 29 40
3 14 29 47
3 2 3 29
3 13 14 29
3 29 30 31
3 29 30 35
3 3 29 31
3 13 29 35
3 30 32 33
3 30 33 34
3 30 31 32
3 30 34 35
3 3 4 31
3 12 13 35
3 4 5 48
3 11 12 54
3 5 6 48
3 10 11 54
3 6 48 59
3 10 54 55
3 6 7 59
3 9 10 55
3 7 58 59
3 9 55 56
3 8 57 58
3 8 56 57
3 7 8 58
3 8 9 56
3 4 31 48
3 12 35 54
3 31 48 49
3 35 53 54
3 31 49 50
3 35 52 53
3 31 32 50
3 34 35 52
3 32 33 50
3 33 34 52
3 33 50 51
3 33 51 52
3 48 49 60
3 49 60 50
3 50 60 61
3 50 51 61
3 51 52 61
3 61 62 52
3 52 53 62
3 53 54 62
3 54 55 63
3 55 56 63
3 56 63 64
3 56 57 64
3 64 65 57
3 57 58 65
3 58 59 65
3 48 59 65
