ply
format ascii 1.0
element vertex 66
property float x
property float y
property float z
property float u
property float v
element face 91
property list uchar int vertex_indices
end_header
-20.3346 -5.50426 21.2536 490.409 452.117
-19.5605 -0.3588 20.832 491.885 471.507
-18.5298 4.73265 20.3229 494.355 490.733
-17.1641 9.72107 18.1787 498.29 508.983
-15.0331 14.3756 13.4915 505.477 525.135
-11.8033 18.2818 7.92165 517.125 538.433
-7.82978 21.4395 3.18593 531.717 549.493
-3.33127 23.7861 -1.08976 548.481 557.857
1.72786 24.3423 -4.65313 567.812 559.962
6.76098 23.1629 -0.942545 586.802 558.606
11.0036 20.2368 3.29159 603.256 550.669
14.4639 16.4264 8.07021 616.953 539.405
16.9399 11.9266 13.6913 627.043 525.61
18.1924 6.91771 18.3143 632.758 509.115
18.7026 1.76908 20.4008 635.967 490.801
18.8773 -3.40302 20.851 638.083 471.609
18.7476 -8.57969 21.3324 639.047 452.321
-16.1833 -15.2517 0.148639 511.101 407.835
-13.767 -16.7519 -1.44552 520.835 402.25
-10.9387 -17.3082 -2.88815 531.838 400.4
-8.06805 -17.2127 -4.26092 542.804 401.041
-5.28009 -16.5529 -5.46416 553.276 403.849
3.10231 -17.051 -5.49571 585.114 404.48
5.58274 -18.0149 -4.22672 594.641 402.137
8.21726 -18.4766 -2.81812 604.59 401.787
10.9135 -18.4302 -1.32565 614.616 403.4
13.4253 -17.4923 0.286056 623.675 408.357
-0.468828 -11.2657 -4.84451 569.866 425.422
-0.181527 -8.2823 -7.63478 570.373 435.542
0.09559 -5.32488 -10.5967 570.866 445.488
0.354343 -2.38436 -13.4621 571.284 455.407
-3.17121 0.6778 -6.35984 556.337 468.851
-1.3778 1.15274 -7.21828 563.068 470.811
0.505622 1.29412 -8.02968 570.23 471.566
2.25511 0.929084 -7.13444 576.858 471.096
3.87207 0.244664 -6.17188 583.071 469.416
-12.0811 -10.4784 -0.759744 525.317 426.619
-10.4979 -11.4742 -0.998665 531.616 423.251
-8.59844 -11.6657 -1.17676 538.871 423.026
-6.9173 -10.9419 -1.02501 545.001 426.315
-8.5926 -10.4127 -0.965818 538.508 427.825
-10.375 -10.2376 -0.931824 531.715 427.963
5.23046 -11.6594 -0.882003 591.12 427.324
6.78934 -12.5877 -1.03874 597.299 424.237
8.68646 -12.6791 -0.940721 604.488 424.504
10.3596 -11.886 -0.780208 610.566 428.054
8.71404 -11.4198 -0.89682 604.222 429.263
6.94323 -11.3613 -0.893901 597.51 428.953
-7.68751 8.51997 -2.73068 536.613 498.494
-5.22738 7.04313 -4.81003 546.556 492.806
-2.45736 6.07454 -6.45084 557.478 489.305
0.472153 6.17684 -8.08935 568.692 489.878
3.30013 5.76113 -6.41495 579.332 489.87
6.06793 6.43777 -4.72702 589.426 493.955
8.54527 7.67075 -2.6124 598.217 500.224
6.5436 9.89202 -3.99317 590.146 507.387
3.7896 11.252 -5.09699 579.453 511.206
0.706016 11.7433 -6.40623 567.787 511.574
-2.45292 11.5591 -5.16417 555.771 510.458
-5.35654 10.4718 -4.10058 545 505.95
-2.79774 7.99307 -5.27748 555.514 496.907
0.537802 7.92435 -7.57381 568.38 496.681
3.76006 7.659 -5.09512 580.385 497.696
3.91154 8.67769 -4.50565 580.601 501.818
0.598765 9.15201 -6.5341 568.147 501.751
-2.82635 9.02431 -4.6372 555.041 501.044
3 20 21 23
3 21 22 23
3 0 1 36
3 15 16 45
3 0 17 36
3 16 26 45
3 17 18 37
3 25 26 44
3 17 36 37
3 26 44 45
3 18 19 38
3 24 25 43
3 18 37 38
3 25 43 44
3 19 20 38
3 23 24 43
3 20 21 39
3 22 23 42
3 20 38 39
3 23 42 43
3 21 22 27
3 21 27 39
3 22 27 42
3 27 28 42
3 27 28 39
3 28 42 47
3 28 39 40
3 1 36 41
3 15 45 46
3 1 2 41
3 14 15 46
3 28 29 40
3 28 29 47
3 2 40 41
3 14 46 47
3 2 29 40
3 14 29 47
3 2 3 29
3 13 14 29
3 29 30 31
3 29 30 35
3 3 29 31
3 13 29 35
3 30 32 33
3 30 33 34
3 30 31 32
3 30 34 35
3 3 4 31
3 12 13 35
3 4 5 48
3 11 12 54
3 5 6 48
3 10 11 54
3 6 48 59
3 10 54 55
3 6 7 59
3 9 10 55
3 7 58 59
3 9 55 56
3 8 57 58
3 8 56 57
3 7 8 58
3 8 9 56
3 4 31 48
3 12 35 54
3 31 48 49
3 35 53 54
3 31 49 50
3 35 52 53
3 31 32 50
3 34 35 52
3 32 33 50
3 33 34 52
3 33 50 51
3 33 51 52
3 48 49 60
3 49 60 50
3 50 60 61
3 50 51 61
3 51 52 61
3 61 62 52
3 52 53 62
3 53 54 62
3 54 55 63
3 55 56 63
3 56 63 64
3 56 57 64
3 64 65 57
3 57 58 65
3 58 59 65
3 48 59 65
