ply
format ascii 1.0
element vertex 66
property float x
property float y
property float z
property float u
property float v
element face 91
property list uchar int vertex_indices
end_header
-20.0879 -5.90594 21.07 490.287 453.938
-19.3648 -0.556986 20.5473 492.142 474.29
-18.3406 4.74105 20.0579 495.15 494.522
-16.9133 9.87075 18.2272 500.012 513.732
-14.8394 14.5544 13.4399 508.049 530.352
-11.8169 18.5766 7.84946 520.005 544.371
-7.98834 21.8958 3.12762 534.993 556.181
-3.52268 24.3464 -1.06661 552.471 564.997
1.59836 24.92 -4.61258 572.675 567.022
6.75196 23.6805 -0.799275 591.807 564.698
10.8866 20.5064 3.37357 607.337 554.913
14.1268 16.4604 8.04755 619.51 541.793
16.4952 11.921 13.5619 628.27 526.902
17.9411 7.04457 18.2739 633.736 510.256
18.6475 1.9452 20.0529 637.034 491.59
18.865 -3.23326 20.4301 638.771 472.033
18.714 -8.40727 20.8925 639.082 452.446
-15.7543 -15.9674 0.096494 513.157 409.229
-13.444 -17.3378 -1.40794 522.562 403.968
-10.7761 -17.7783 -2.79538 533.132 402.366
-8.10204 -17.5891 -4.22697 543.615 403.148
-5.52833 -16.8539 -5.49189 553.575 406.048
3.09261 -17.2012 -5.49822 586.588 406.523
5.44711 -18.1257 -4.20357 595.49 403.94
7.96141 -18.558 -2.77911 604.882 403.312
10.5298 -18.4227 -1.37018 614.376 404.853
12.8479 -17.3602 0.244089 622.695 409.945
-0.585478 -11.7766 -4.86413 571.366 426.645
-0.347362 -8.77929 -7.66456 572.293 437.145
-0.123075 -5.79463 -10.495 573.175 447.584
0.0942875 -2.8186 -13.1622 573.998 458.044
-2.917 0.453611 -6.1508 560.398 472.316
-1.28928 0.916658 -7.09586 566.729 474.092
0.447008 1.04605 -7.93163 573.514 474.658
2.05492 0.712049 -6.94245 579.515 474.064
3.47912 0.047167 -6.02425 584.892 472.147
-12.0602 -11.0961 -1.11356 526.601 428.143
-10.5335 -11.9906 -0.991115 532.58 425.096
-8.70357 -12.253 -0.856797 539.594 424.525
-7.07492 -11.6794 -0.776557 545.692 427.078
-8.67036 -11.0281 -0.981787 539.514 429.156
-10.4177 -10.846 -0.994654 532.805 429.481
4.97682 -12.2647 -0.676886 591.839 427.399
6.48766 -12.9667 -0.807735 597.773 424.994
8.29321 -12.9662 -0.953664 604.704 425.322
9.868 -12.2562 -1.04531 610.606 428.325
8.30019 -11.8177 -0.908546 604.502 429.716
6.58546 -11.8231 -0.870319 597.942 429.35
-4.61342 9.41279 -2.80799 551.51 507.26
-3.13566 7.93873 -4.91848 557.88 501.22
-1.37016 6.74311 -6.59236 565.205 496.452
0.686372 6.87087 -8.30765 573.399 496.773
2.68216 6.51847 -6.3807 580.69 496.516
4.52162 7.48089 -4.71036 587.186 501.146
6.05764 8.81224 -2.60253 592.361 507.271
4.83947 10.3116 -3.94121 587.701 512.266
3.11516 11.2877 -5.10669 581.17 515.221
1.00573 11.6877 -6.5721 573.339 515.797
-1.16731 11.5018 -5.3234 564.809 515.068
-3.05837 10.722 -4.16501 557.488 512.103
-0.826756 8.58904 -5.10579 566.619 504.115
0.803861 8.42872 -7.23737 573.328 503.105
2.40168 8.44927 -4.83515 578.926 504.35
2.43854 8.85425 -4.35454 578.889 506.068
0.878749 9.21103 -6.1839 573.244 506.467
-0.745516 8.99618 -4.58743 566.743 505.863
3 20 21 23
3 21 22 23
3 0 1 36
3 15 16 45
3 0 17 36
3 16 26 45
3 17 18 37
3 25 26 44
3 17 36 37
3 26 44 45
3 18 19 38
3 24 25 43
3 18 37 38
3 25 43 44
3 19 20 38
3 23 24 43
3 20 21 39
3 22 23 42
3 20 38 39
3 23 42 43
3 21 22 27
3 21 27 39
3 22 27 42
3 27 28 42
3 27 28 39
3 28 42 47
3 28 39 40
3 1 36 41
3 15 45 46
3 1 2 41
3 14 15 46
3 28 29 40
3 28 29 47
3 2 40 41
3 14 46 47
3 2 29 40
3 14 29 47
3 2 3 29
3 13 14 29
3 29 30 31
3 29 30 35
3 3 29 31
3 13 29 35
3 30 32 33
3 30 33 34
3 30 31 32
3 30 34 35
3 3 4 31
3 12 13 35
3 4 5 48
3 11 12 54
3 5 6 48
3 10 11 54
3 6 48 59
3 10 54 55
3 6 7 59
3 9 10 55
3 7 58 59
3 9 55 56
3 8 57 58
3 8 56 57
3 7 8 58
3 8 9 56
3 4 31 48
3 12 35 54
3 31 48 49
3 35 53 54
3 31 49 50
3 35 52 53
3 31 32 50
3 34 35 52
3 32 33 50
3 33 34 52
3 33 50 51
3 33 51 52
3 48 49 60
3 49 60 50
3 50 60 61
3 50 51 61
3 51 52 61
3 61 62 52
3 52 53 62
3 53 54 62
3 54 55 63
3 55 56 63
3 56 63 64
3 56 57 64
3 64 65 57
3 57 58 65
3 58 59 65
3 48 59 65
