ply
format ascii 1.0
element vertex 66
property float x
property float y
property float z
property float u
property float v
element face 91
property list uchar int vertex_indices
end_header
-19.5857 -5.90591 21.2898 488.309 450.326
-18.7371 -0.589251 20.8381 490.242 471.084
-17.6765 4.67719 20.232 493.045 491.647
-16.4321 9.87162 18.2259 496.839 511.432
-14.6163 14.7458 13.5986 503.426 529.106
-11.6934 18.8726 7.98082 514.725 543.806
-7.93127 22.237 3.14418 529.372 556.092
-3.56323 24.7257 -1.12224 546.526 565.373
1.42961 25.3536 -4.68102 566.507 567.875
6.51236 24.0402 -0.905601 586.051 565.738
10.5958 20.7154 3.33494 602.16 555.666
13.8107 16.53 8.13711 615.011 542.212
16.1608 11.8443 13.6917 624.485 526.855
17.4812 6.84676 18.16 630.216 509.556
18.0777 1.80718 20.1575 633.576 490.908
18.3154 -3.23745 20.6257 635.81 471.533
18.2105 -8.29936 20.9893 636.729 451.95
-15.8071 -15.5643 0.066852 509.564 405.491
-13.3851 -16.9049 -1.4746 519.676 400.376
-10.6504 -17.4294 -2.90547 530.766 398.571
-7.8787 -17.3931 -4.28432 541.836 398.98
-5.159 -16.8153 -5.4806 552.521 401.553
2.87228 -17.0952 -5.60877 584.007 402.762
5.15872 -17.8999 -4.31154 592.931 400.811
7.58643 -18.2614 -2.88367 602.26 400.677
10.0823 -18.308 -1.36916 611.754 401.822
12.5145 -17.6367 0.2198 620.787 405.771
-0.349789 -12.1429 -4.83595 569.912 421.394
-0.104303 -8.9829 -7.61444 570.502 432.667
0.122769 -5.85041 -10.5652 571.058 443.759
0.33169 -2.73607 -13.443 571.535 454.805
-2.87113 0.426512 -6.26168 556.852 469.002
-1.13993 0.833814 -7.1688 563.669 470.736
0.672868 0.958553 -8.01946 570.873 471.417
2.27858 0.646249 -7.0632 577.061 471.048
3.76226 0.0493298 -6.15197 582.86 469.518
-11.8445 -10.9626 -0.806203 523.939 424.211
-10.2827 -11.8943 -0.985046 530.331 420.972
-8.42942 -12.1237 -1.1217 537.662 420.568
-6.75807 -11.4738 -1.00431 543.993 423.632
-8.41977 -11.005 -0.959856 537.362 424.987
-10.165 -10.8236 -0.917181 530.484 425.2
4.87189 -12.0413 -0.911582 589.582 424.862
6.383 -12.8192 -1.05565 595.728 422.221
8.19174 -12.9036 -0.955026 602.802 422.461
9.7924 -12.1546 -0.789392 608.821 425.909
8.20239 -11.786 -0.869695 602.52 426.846
6.50364 -11.7878 -0.8708 595.882 426.342
-7.46622 8.81532 -2.71526 535.944 501.696
-5.05859 7.24128 -4.81648 546.166 495.448
-2.30627 6.13405 -6.48114 557.527 491.289
0.666062 6.18942 -8.1312 569.425 491.724
3.52071 5.81946 -6.30448 580.354 491.839
6.2455 6.60338 -4.6138 590.481 496.352
8.58843 7.97989 -2.50994 598.879 503.222
6.72602 10.2507 -3.99026 591.242 510.93
4.06776 11.712 -4.98827 580.631 515.445
0.972383 12.2373 -6.36194 568.637 516.043
-2.22182 12.0032 -5.15216 556 514.675
-5.11718 10.8276 -4.13683 544.826 509.653
-2.61547 8.11162 -5.22633 555.548 499.388
0.776992 7.97614 -7.49219 569.251 498.96
4.04298 7.78969 -4.90952 581.6 500.208
4.2307 9.01845 -4.39203 581.902 505.247
0.894987 9.56477 -6.43259 569.083 505.594
-2.583 9.37219 -4.64074 555.221 504.533
3 20 21 23
3 21 22 23
3 0 1 36
3 15 16 45
3 0 17 36
3 16 26 45
3 17 18 37
3 25 26 44
3 17 36 37
3 26 44 45
3 18 19 38
3 24 25 43
3 18 37 38
3 25 43 44
3 19 20 38
3 23 24 43
3 20 21 39
3 22 23 42
3 20 38 39
3 23 42 43
3 21 22 27
3 21 27 39
3 22 27 42
3 27 28 42
3 27 28 39
3 28 42 47
3 28 39 40
3 1 36 41
3 15 45 46
3 1 2 41
3 14 15 46
3 28 29 40
3 28 29 47
3 2 40 41
3 14 46 47
3 2 29 40
3 14 29 47
3 2 3 29
3 13 14 29
3 29 30 31
3 29 30 35
3 3 29 31
3 13 29 35
3 30 32 33
3 30 33 34
3 30 31 32
3 30 34 35
3 3 4 31
3 12 13 35
3 4 5 48
3 11 12 54
3 5 6 48
3 10 11 54
3 6 48 59
3 10 54 55
3 6 7 59
3 9 10 55
3 7 58 59
3 9 55 56
3 8 57 58
3 8 56 57
3 7 8 58
3 8 9 56
3 4 31 48
3 12 35 54
3 31 48 49
3 35 53 54
3 31 49 50
3 35 52 53
3 31 32 50
3 34 35 52
3 32 33 50
3 33 34 52
3 33 50 51
3 33 51 52
3 48 49 60
3 49 60 50
3 50 60 61
3 50 51 61
3 51 52 61
3 61 62 52
3 52 53 62
3 53 54 62
3 54 55 63
3 55 56 63
3 56 63 64
3 56 57 64
3 64 65 57
3 57 58 65
3 58 59 65
3 48 59 65
