ply
format ascii 1.0
element vertex 66
property float x
property float y
property float z
property float u
property float v
element face 91
property list uchar int vertex_indices
end_header
-20.0601 -6.0523 21.1692 487.747 451.695
-19.3232 -0.718419 20.6588 489.82 471.885
-18.303 4.56301 20.132 492.988 491.921
-16.9231 9.71509 18.245 497.866 510.937
-14.8963 14.4664 13.5053 505.94 527.299
-11.8665 18.518 7.90183 518.158 540.809
-8.02722 21.8342 3.13842 533.393 552.044
-3.56748 24.2745 -1.06594 551.011 560.31
1.51734 24.8792 -4.61694 571.163 562.002
6.60806 23.6107 -0.881064 589.954 559.771
10.6996 20.4182 3.33925 605.126 550.251
13.9589 16.4037 8.0517 617.138 537.667
16.4188 11.9089 13.5788 625.984 523.464
17.9458 7.0551 18.2261 631.526 507.337
18.6827 2.02496 20.1363 634.711 489.191
18.9347 -3.06091 20.568 636.395 470.094
18.8246 -8.15537 20.9696 636.703 450.884
-15.8932 -15.7468 0.0930914 510.104 406.377
-13.5803 -17.1284 -1.42323 519.514 400.893
-10.8926 -17.5961 -2.83568 530.185 398.998
-8.1841 -17.4453 -4.25828 540.839 399.454
-5.56024 -16.7549 -5.50226 551.04 402.023
2.93701 -17.0418 -5.50567 583.553 402.52
5.30636 -17.9831 -4.20461 592.457 399.955
7.83988 -18.4428 -2.7721 601.88 399.31
10.4412 -18.3934 -1.32661 611.477 400.618
12.8257 -17.4311 0.26629 620.064 405.421
-0.576479 -11.6624 -4.88473 569.118 422.584
-0.358871 -8.71023 -7.67151 570.117 432.625
-0.15345 -5.77523 -10.5359 571.091 442.564
0.0484273 -2.85397 -13.2699 572.024 452.508
-2.99689 0.479076 -6.18063 558.212 467.718
-1.31972 0.912055 -7.13627 564.771 469.258
0.451144 1.03006 -8.00009 571.718 469.659
2.09379 0.695764 -7.00711 577.818 469.131
3.57497 0.0429597 -6.11352 583.376 467.319
-12.2066 -10.9257 -1.02561 523.671 424.903
-10.6108 -11.9603 -0.997883 529.928 421.281
-8.64725 -12.2072 -0.957857 537.461 420.727
-6.92666 -11.4755 -0.840803 543.89 423.881
-8.62352 -10.8146 -0.987713 537.334 426.012
-10.4698 -10.6264 -0.988433 530.25 426.382
4.90454 -12.0824 -0.747357 589.171 423.828
6.4689 -12.9597 -0.909716 595.327 420.714
8.39852 -13.0128 -0.925915 602.712 420.866
10.0713 -12.1911 -0.885377 608.962 424.32
8.42934 -11.6656 -0.861735 602.598 426.021
6.61511 -11.6518 -0.847955 595.661 425.74
-5.48545 9.17861 -2.76698 546.511 501.82
-3.68136 7.72976 -4.88793 554.128 495.72
-1.59451 6.60476 -6.58293 562.675 491.09
0.74403 6.71765 -8.28004 571.984 491.212
3.01159 6.32315 -6.35148 580.266 490.982
5.15873 7.14744 -4.66649 587.947 495.256
7.01515 8.39522 -2.57333 594.355 501.265
5.5822 10.1536 -3.98722 588.923 507.061
3.54146 11.299 -5.10664 581.2 510.542
1.10344 11.763 -6.53493 572.14 511.224
-1.40465 11.5797 -5.30686 562.303 510.597
-3.64975 10.7063 -4.1604 553.601 507.36
-1.42234 8.42421 -5.15337 562.709 498.666
0.876818 8.28432 -7.31294 572.015 497.617
3.12893 8.16565 -4.90839 580.083 498.641
3.23417 8.82847 -4.39868 580.261 501.404
0.975797 9.29354 -6.23656 571.982 501.944
-1.35901 9.09958 -4.596 562.713 501.489
3 20 21 23
3 21 22 23
3 0 1 36
3 15 16 45
3 0 17 36
3 16 26 45
3 17 18 37
3 25 26 44
3 17 36 37
3 26 44 45
3 18 19 38
3 24 25 43
3 18 37 38
3 25 43 44
3 19 20 38
3 23 24 43
3 20 21 39
3 22 23 42
3 20 38 39
3 23 42 43
3 21 22 27
3 21 27 39
3 22 27 42
3 27 28 42
3 27 28 39
3 28 42 47
3 28 39 40
3 1 36 41
3 15 45 46
3 1 2 41
3 14 15 46
3 28 29 40
3 28 29 47
3 2 40 41
3 14 46 47
3 2 29 40
3 14 29 47
3 2 3 29
3 13 14 29
3 29 30 31
3 29 30 35
3 3 29 31
3 13 29 35
3 30 32 33
3 30 33 34
3 30 31 32
3 30 34 35
3 3 4 31
3 12 13 35
3 4 5 48
3 11 12 54
3 5 6 48
3 10 11 54
3 6 48 59
3 10 54 55
3 6 7 59
3 9 10 55
3 7 58 59
3 9 55 56
3 8 57 58
3 8 56 57
3 7 8 58
3 8 9 56
3 4 31 48
3 12 35 54
3 31 48 49
3 35 53 54
3 31 49 50
3 35 52 53
3 31 32 50
3 34 35 52
3 32 33 50
3 33 34 52
3 33 50 51
3 33 51 52
3 48 49 60
3 49 60 50
3 50 60 61
3 50 51 61
3 51 52 61
3 61 62 52
3 52 53 62
3 53 54 62
3 54 55 63
3 55 56 63
3 56 63 64
3 56 57 64
3 64 65 57
3 57 58 65
3 58 59 65
3 48 59 65
