ply
format ascii 1.0
element vertex 66
property float x
property float y
property float z
property float u
property float v
element face 91
property list uchar int vertex_indices
end_header
-19.5464 -5.77052 21.1939 488.637 451.376
-18.7027 -0.52978 20.73 490.433 471.901
-17.6308 4.65658 20.1381 493.158 492.236
-16.3389 9.75898 18.1586 496.967 511.78
-14.452 14.5514 13.6291 503.562 529.322
-11.5396 18.6647 7.98756 514.536 544.109
-7.83719 22.0955 3.12998 528.699 556.782
-3.51985 24.6999 -1.11477 545.432 566.66
1.47543 25.3766 -4.64439 565.299 569.507
6.5553 24.1 -0.917006 585.053 567.551
10.6312 20.8043 3.29176 601.412 557.591
13.8312 16.6457 8.12615 614.511 544.23
16.1509 11.9783 13.7343 624.204 528.908
17.4302 6.95857 18.1765 630.093 511.437
18.0055 1.85144 20.1244 633.604 492.448
18.2439 -3.27175 20.6228 636.006 472.733
18.1514 -8.41124 21.0404 637.129 452.82
-15.518 -15.6578 0.0636164 510.39 405.958
-13.1739 -16.9046 -1.44224 520.161 401.25
-10.5563 -17.3947 -2.88768 530.767 399.603
-7.91154 -17.3861 -4.28347 541.324 399.928
-5.3174 -16.8693 -5.49498 551.503 402.291
2.98659 -17.2695 -5.57909 584.165 403.297
5.2353 -18.0231 -4.28972 593.017 401.558
7.60956 -18.3429 -2.86295 602.212 401.602
10.0421 -18.3504 -1.35206 611.529 402.915
12.4094 -17.6809 0.211742 620.379 406.868
-0.430422 -12.113 -4.83583 569.124 422.624
-0.157228 -9.0718 -7.59606 569.673 433.51
0.0993845 -6.0585 -10.5317 570.189 444.215
0.336753 -3.0631 -13.4124 570.628 454.865
-2.86953 0.437291 -6.269 556.002 470.257
-1.15491 0.826163 -7.16251 562.729 471.967
0.63757 0.940142 -7.99231 569.834 472.654
2.24468 0.626222 -7.06503 576.093 472.289
3.73471 0.0377476 -6.16218 581.978 470.808
-11.7916 -11.0056 -0.804968 523.713 424.935
-10.2678 -11.8884 -0.960887 529.969 421.909
-8.47281 -12.126 -1.10297 537.093 421.489
-6.83874 -11.5692 -1.02937 543.316 424.201
-8.44859 -11.0969 -0.967379 536.859 425.563
-10.1517 -10.902 -0.916238 530.122 425.81
4.85807 -12.1826 -0.878614 589.3 425.529
6.35878 -12.9059 -1.02471 595.417 423.121
8.13035 -12.974 -0.942829 602.366 423.442
9.71321 -12.2887 -0.817076 608.343 426.658
8.14495 -11.949 -0.86927 602.105 427.472
6.4692 -11.9442 -0.856958 595.537 426.971
-7.3505 8.85557 -2.69329 535.411 503.06
-4.92322 7.42924 -4.77404 545.644 497.458
-2.22457 6.41076 -6.46739 556.762 493.68
0.660051 6.48085 -8.1424 568.279 494.213
3.43208 6.10077 -6.34558 578.997 494.289
6.1087 6.80664 -4.61905 589.025 498.543
8.48547 8.00838 -2.49846 597.673 504.789
6.62472 10.263 -4.00823 589.921 512.419
3.9928 11.7248 -5.01966 579.315 516.908
0.921971 12.262 -6.34395 567.312 517.533
-2.22992 12.0192 -5.14911 554.868 516.058
-5.06302 10.8405 -4.13508 543.98 510.964
-2.69056 8.25418 -5.19936 554.202 501.211
0.743632 8.11679 -7.53087 568.028 500.855
4.0517 7.91495 -4.93341 580.679 502.101
4.2473 9.18276 -4.40757 580.989 507.309
0.848617 9.77225 -6.41821 567.784 507.771
-2.68808 9.54953 -4.60657 553.739 506.491
3 20 21 23
3 21 22 23
3 0 1 36
3 15 16 45
3 0 17 36
3 16 26 45
3 17 18 37
3 25 26 44
3 17 36 37
3 26 44 45
3 18 19 38
3 24 25 43
3 18 37 38
3 25 43 44
3 19 20 38
3 23 24 43
3 20 21 39
3 22 23 42
3 20 38 39
3 23 42 43
3 21 22 27
3 21 27 39
3 22 27 42
3 27 28 42
3 27 28 39
3 28 42 47
3 28 39 40
3 1 36 41
3 15 45 46
3 1 2 41
3 14 15 46
3 28 29 40
3 28 29 47
3 2 40 41
3 14 46 47
3 2 29 40
3 14 29 47
3 2 3 29
3 13 14 29
3 29 30 31
3 29 30 35
3 3 29 31
3 13 29 35
3 30 32 33
3 30 33 34
3 30 31 32
3 30 34 35
3 3 4 31
3 12 13 35
3 4 5 48
3 11 12 54
3 5 6 48
3 10 11 54
3 6 48 59
3 10 54 55
3 6 7 59
3 9 10 55
3 7 58 59
3 9 55 56
3 8 57 58
3 8 56 57
3 7 8 58
3 8 9 56
3 4 31 48
3 12 35 54
3 31 48 49
3 35 53 54
3 31 49 50
3 35 52 53
3 31 32 50
3 34 35 52
3 32 33 50
3 33 34 52
3 33 50 51
3 33 51 52
3 48 49 60
3 49 60 50
3 50 60 61
3 50 51 61
3 51 52 61
3 61 62 52
3 52 53 62
3 53 54 62
3 54 55 63
3 55 56 63
3 56 63 64
3 56 57 64
3 64 65 57
3 57 58 65
3 58 59 65
3 48 59 65
