ply
format ascii 1.0
element vertex 66
property float x
property float y
property float z
property float u
property float v
element face 91
property list uchar int vertex_indices
end_header
-20.2686 -5.51656 21.2542 489.364 452.453
-19.4944 -0.334756 20.8232 491.079 471.993
-18.4629 4.79554 20.3312 493.789 491.379
-17.1116 9.80425 18.1944 497.921 509.707
-15.0236 14.4531 13.5144 505.211 525.813
-11.8284 18.3455 7.93689 516.979 538.979
-7.8577 21.4746 3.19942 531.78 549.816
-3.34872 23.7732 -1.08647 548.774 557.848
1.71687 24.2766 -4.63074 568.234 559.566
6.75909 23.1131 -0.904148 587.215 558.011
10.9896 20.1837 3.34619 603.493 549.814
14.425 16.3727 8.10948 616.919 538.306
16.8842 11.9 13.705 626.715 524.401
18.1431 6.94139 18.3318 632.189 507.959
18.6616 1.82419 20.3962 635.176 489.668
18.8437 -3.33551 20.8123 637.08 470.449
18.7194 -8.49718 21.2857 637.817 451.168
-16.145 -15.3353 0.111085 509.704 407.753
-13.7011 -16.7784 -1.44439 519.487 402.294
-10.8861 -17.3046 -2.88787 530.44 400.43
-8.04293 -17.2216 -4.27601 541.345 400.892
-5.27998 -16.5852 -5.49491 551.792 403.488
3.17286 -17.1007 -5.52678 583.95 403.686
5.64861 -17.9969 -4.25691 593.411 401.467
8.26684 -18.4014 -2.84406 603.275 401.195
10.9366 -18.3129 -1.35541 613.206 402.825
13.4177 -17.3529 0.261062 622.196 407.744
-0.505636 -11.5407 -4.83963 568.579 423.98
-0.223424 -8.47147 -7.61994 569.204 434.462
0.047541 -5.43092 -10.5864 569.814 444.756
0.301414 -2.40707 -13.4631 570.353 455.021
-3.13885 0.648521 -6.31164 555.788 468.619
-1.37119 1.09074 -7.21012 562.476 470.363
0.482004 1.21463 -8.04734 569.559 470.955
2.19493 0.872563 -7.12468 576.032 470.485
3.77874 0.223702 -6.1455 582.084 468.85
-12.2115 -10.6017 -0.788196 523.551 426.214
-10.593 -11.5752 -0.975277 529.942 422.882
-8.67558 -11.788 -1.1126 537.274 422.511
-6.95934 -11.1093 -1.00795 543.6 425.549
-8.66819 -10.6079 -0.969371 536.998 427.018
-10.4757 -10.4196 -0.936795 530.1 427.281
5.14737 -11.8 -0.880211 589.628 426.083
6.74376 -12.6744 -1.00126 595.904 423.146
8.65487 -12.7495 -0.933382 603.156 423.378
10.3525 -11.9773 -0.805323 609.386 426.772
8.67299 -11.5705 -0.901335 602.933 427.837
6.88034 -11.5339 -0.898245 596.132 427.52
-7.36248 8.75063 -2.77499 537.418 499.532
-4.9776 7.28078 -4.82831 547.039 493.751
-2.31503 6.28038 -6.4705 557.552 489.98
0.507908 6.38985 -8.12118 568.402 490.427
3.22931 5.96941 -6.41616 578.63 490.243
5.90115 6.66941 -4.73224 588.398 494.258
8.30618 7.89766 -2.6356 596.981 500.367
6.35836 9.97156 -3.99233 589.243 507.122
3.70294 11.2157 -5.09019 578.998 510.677
0.755609 11.6628 -6.39524 567.864 511.07
-2.2677 11.5184 -5.17898 556.311 510.26
-5.07631 10.551 -4.13303 545.79 506.334
-2.58046 8.23395 -5.28044 555.938 497.765
0.591244 8.15626 -7.55206 568.224 497.339
3.65578 7.9106 -5.08243 579.625 498.217
3.7664 8.61034 -4.49923 579.81 501.123
0.635918 9.01048 -6.50835 568.071 501.001
-2.59441 8.94466 -4.65497 555.643 500.698
3 20 21 23
3 21 22 23
3 0 1 36
3 15 16 45
3 0 17 36
3 16 26 45
3 17 18 37
3 25 26 44
3 17 36 37
3 26 44 45
3 18 19 38
3 24 25 43
3 18 37 38
3 25 43 44
3 19 20 38
3 23 24 43
3 20 21 39
3 22 23 42
3 20 38 39
3 23 42 43
3 21 22 27
3 21 27 39
3 22 27 42
3 27 28 42
3 27 28 39
3 28 42 47
3 28 39 40
3 1 36 41
3 15 45 46
3 1 2 41
3 14 15 46
3 28 29 40
3 28 29 47
3 2 40 41
3 14 46 47
3 2 29 40
3 14 29 47
3 2 3 29
3 13 14 29
3 29 30 31
3 29 30 35
3 3 29 31
3 13 29 35
3 30 32 33
3 30 33 34
3 30 31 32
3 30 34 35
3 3 4 31
3 12 13 35
3 4 5 48
3 11 12 54
3 5 6 48
3 10 11 54
3 6 48 59
3 10 54 55
3 6 7 59
3 9 10 55
3 7 58 59
3 9 55 56
3 8 57 58
3 8 56 57
3 7 8 58
3 8 9 56
3 4 31 48
3 12 35 54
3 31 48 49
3 35 53 54
3 31 49 50
3 35 52 53
3 31 32 50
3 34 35 52
3 32 33 50
3 33 34 52
3 33 50 51
3 33 51 52
3 48 49 60
3 49 60 50
3 50 60 61
3 50 51 61
3 51 52 61
3 61 62 52
3 52 53 62
3 53 54 62
3 54 55 63
3 55 56 63
3 56 63 64
3 56 57 64
3 64 65 57
3 57 58 65
3 58 59 65
3 48 59 65
