ply
format ascii 1.0
element vertex 66
property float x
property float y
property float z
property float u
property float v
element face 91
property list uchar int vertex_indices
end_header
-20.3581 -5.50555 21.3011 490.491 455.43
-19.521 -0.250298 20.8074 492.41 475.43
-18.4242 4.95676 20.2935 495.33 495.309
-17.0512 9.99824 18.2627 499.541 514.256
-15.017 14.5699 13.5061 506.745 530.917
-11.8942 18.3477 7.92997 518.388 544.652
-7.97021 21.3583 3.20175 533.15 555.9
-3.50427 23.5462 -1.0896 550.117 564.281
1.52454 23.9671 -4.57676 569.556 566.316
6.62997 22.8552 -0.835239 588.704 564.362
10.8492 19.9074 3.40094 604.886 555.347
14.2467 16.0982 8.1128 618.104 542.974
16.7234 11.7114 13.6445 627.864 528.378
18.1067 6.91375 18.2806 633.699 511.719
18.7355 1.9115 20.2394 637.081 493.423
18.9821 -3.17146 20.6255 639.244 474.332
18.8747 -8.2552 21.1045 640.052 455.168
-16.3278 -15.582 0.124131 511.151 413.051
-13.8217 -17.0303 -1.40421 521.228 407.837
-10.9638 -17.5395 -2.82498 532.389 406.298
-8.09257 -17.4148 -4.21698 543.436 407.171
-5.30735 -16.7415 -5.44249 553.998 410.141
3.25722 -17.1675 -5.50977 586.606 410.738
5.64872 -18.0353 -4.22127 595.725 408.393
8.19173 -18.4481 -2.80419 605.287 407.843
10.8073 -18.417 -1.32396 615.004 409.009
13.2833 -17.5333 0.281221 623.961 413.398
-0.377086 -11.7746 -4.82637 571.37 430.388
-0.11154 -8.60385 -7.64882 571.957 441.765
0.137751 -5.46057 -10.6262 572.51 452.995
0.367906 -2.3269 -13.4708 572.975 464.216
-2.96297 0.942884 -6.38238 558.567 477.496
-1.21129 1.41845 -7.25248 565.209 479.537
0.641756 1.55351 -8.02494 572.309 480.338
2.31075 1.22501 -7.11918 578.602 479.753
3.82301 0.562078 -6.19862 584.383 477.864
-12.3038 -10.889 -0.800778 525.36 431.642
-10.6607 -11.9028 -0.94302 531.868 428.194
-8.69752 -12.1048 -1.04655 539.381 427.914
-6.98352 -11.2908 -0.953329 545.666 431.465
-8.72093 -10.7558 -0.984151 538.944 433.032
-10.5649 -10.5961 -0.947432 531.903 433.167
5.07997 -11.8863 -0.831297 591.566 432.377
6.63262 -12.847 -0.950678 597.715 429.112
8.56191 -12.9543 -0.914119 605.056 429.217
10.2584 -12.1247 -0.817417 611.271 432.824
8.61273 -11.6131 -0.909201 604.911 434.311
6.81067 -11.5763 -0.901913 598.064 433.983
-6.7055 9.00218 -2.79552 541.86 507.939
-4.45317 7.62005 -4.88771 551.033 502.77
-2.00219 6.60641 -6.55601 560.81 499.154
0.601148 6.71976 -8.26316 570.887 499.835
3.09808 6.35049 -6.41809 580.206 499.545
5.52651 7.09999 -4.72153 589.003 503.436
7.7173 8.30585 -2.60271 596.727 509.1
5.91768 10.0826 -3.94428 589.632 515.028
3.50077 11.1347 -5.02135 580.342 518.117
0.807285 11.4938 -6.36008 570.213 518.444
-1.9595 11.363 -5.18322 559.591 517.521
-4.53567 10.5355 -4.13244 549.885 513.979
-2.03844 8.45016 -5.32683 560.044 506.433
0.68732 8.35599 -7.53239 570.704 506.237
3.30447 8.22884 -5.01495 580.328 507.061
3.38203 8.69474 -4.43448 580.427 508.99
0.727916 8.97878 -6.43573 570.554 508.879
-2.02195 8.93229 -4.68657 559.9 508.422
3 20 21 23
3 21 22 23
3 0 1 36
3 15 16 45
3 0 17 36
3 16 26 45
3 17 18 37
3 25 26 44
3 17 36 37
3 26 44 45
3 18 19 38
3 24 25 43
3 18 37 38
3 25 43 44
3 19 20 38
3 23 24 43
3 20 21 39
3 22 23 42
3 20 38 39
3 23 42 43
3 21 22 27
3 21 27 39
3 22 27 42
3 27 28 42
3 27 28 39
3 28 42 47
3 28 39 40
3 1 36 41
3 15 45 46
3 1 2 41
3 14 15 46
3 28 29 40
3 28 29 47
3 2 40 41
3 14 46 47
3 2 29 40
3 14 29 47
3 2 3 29
3 13 14 29
3 29 30 31
3 29 30 35
3 3 29 31
3 13 29 35
3 30 32 33
3 30 33 34
3 30 31 32
3 30 34 35
3 3 4 31
3 12 13 35
3 4 5 48
3 11 12 54
3 5 6 48
3 10 11 54
3 6 48 59
3 10 54 55
3 6 7 59
3 9 10 55
3 7 58 59
3 9 55 56
3 8 57 58
3 8 56 57
3 7 8 58
3 8 9 56
3 4 31 48
3 12 35 54
3 31 48 49
3 35 53 54
3 31 49 50
3 35 52 53
3 31 32 50
3 34 35 52
3 32 33 50
3 33 34 52
3 33 50 51
3 33 51 52
3 48 49 60
3 49 60 50
3 50 60 61
3 50 51 61
3 51 52 61
3 61 62 52
3 52 53 62
3 53 54 62
3 54 55 63
3 55 56 63
3 56 63 64
3 56 57 64
3 64 65 57
3 57 58 65
3 58 59 65
3 48 59 65
