ply
format ascii 1.0
element vertex 66
property float x
property float y
property float z
property float u
property float v
element face 91
property list uchar int vertex_indices
end_header
-20.552 -5.65004 21.3446 491.544 452.795
-19.7558 -0.420767 20.9179 493.188 472.338
-18.7024 4.75451 20.3881 495.823 491.705
-17.3199 9.84026 18.2508 499.881 510.117
-15.2027 14.5912 13.4644 507.059 526.309
-11.9611 18.5498 7.87748 518.753 539.502
-7.9423 21.7001 3.20408 533.488 550.297
-3.38516 23.9643 -1.07857 550.442 558.107
1.68757 24.5016 -4.70482 569.726 559.907
6.76223 23.2694 -0.882642 588.73 558.403
11.0456 20.2967 3.35352 605.181 550.37
14.5101 16.3933 8.0519 618.757 538.843
17.0081 11.8161 13.6498 628.789 524.932
18.3309 6.7833 18.3274 634.622 508.59
18.9015 1.66182 20.3947 637.917 490.553
19.0933 -3.46175 20.8184 639.957 471.676
18.9534 -8.59004 21.2779 640.749 452.705
-16.4218 -15.1487 0.152711 511.744 409.109
-14.0037 -16.7627 -1.47023 521.423 403.036
-11.1123 -17.3925 -2.8891 532.597 400.856
-8.15187 -17.2938 -4.24519 543.831 401.442
-5.27247 -16.5847 -5.42634 554.58 404.36
3.22295 -17.0367 -5.49563 586.623 404.989
5.71994 -18.0004 -4.24134 596.133 402.638
8.37505 -18.4387 -2.84487 606.082 402.354
11.0714 -18.3285 -1.3637 616.032 404.166
13.5325 -17.3011 0.301002 624.835 409.416
-0.376454 -11.2632 -4.82549 571.497 425.834
-0.107882 -8.21064 -7.66727 571.983 436.04
0.147343 -5.17838 -10.6361 572.438 446.11
0.382958 -2.16264 -13.475 572.81 456.171
-3.09838 0.70054 -6.36792 558.246 469.04
-1.30793 1.17285 -7.22628 564.934 470.917
0.57106 1.32271 -8.04277 572.036 471.633
2.28459 0.966779 -7.12937 578.476 471.183
3.86481 0.300024 -6.17338 584.492 469.555
-12.3057 -10.31 -0.8297 526.02 427.866
-10.6224 -11.3112 -1.0524 532.633 424.496
-8.62661 -11.5402 -1.1754 540.205 424.138
-6.8242 -10.8498 -0.982308 546.773 427.298
-8.60631 -10.3126 -0.965208 539.933 428.818
-10.4895 -10.1202 -0.943437 532.805 429.025
5.1221 -11.4908 -0.873971 591.813 428.253
6.79389 -12.3635 -1.05581 598.344 425.378
8.77376 -12.4368 -1.00703 605.797 425.673
10.5198 -11.63 -0.855789 612.126 429.232
8.76991 -11.2105 -0.920395 605.447 430.286
6.91362 -11.1827 -0.910032 598.465 429.881
-7.25166 8.48589 -2.7328 540.202 498.552
-4.95517 6.97474 -4.84669 549.447 492.612
-2.32093 5.97996 -6.48333 559.774 488.903
0.492299 6.11489 -8.10316 570.472 489.466
3.19322 5.69411 -6.40902 580.558 489.392
5.80793 6.41576 -4.73167 590.019 493.549
8.0829 7.736 -2.59497 597.997 500.05
6.14855 9.67608 -3.92343 590.349 506.167
3.55929 10.8211 -5.06481 580.433 509.219
0.707427 11.2429 -6.45015 569.748 509.392
-2.22801 11.0796 -5.16525 558.633 508.54
-4.96992 10.1737 -4.06399 548.461 504.891
-2.57296 7.87362 -5.29151 558.202 496.427
0.568663 7.8398 -7.50349 570.239 496.189
3.58899 7.58768 -5.04546 581.403 497.171
3.70074 8.33281 -4.45488 581.564 500.243
0.619381 8.73675 -6.50424 570.089 499.992
-2.57534 8.63336 -4.64818 557.926 499.546
3 20 21 23
3 21 22 23
3 0 1 36
3 15 16 45
3 0 17 36
3 16 26 45
3 17 18 37
3 25 26 44
3 17 36 37
3 26 44 45
3 18 19 38
3 24 25 43
3 18 37 38
3 25 43 44
3 19 20 38
3 23 24 43
3 20 21 39
3 22 23 42
3 20 38 39
3 23 42 43
3 21 22 27
3 21 27 39
3 22 27 42
3 27 28 42
3 27 28 39
3 28 42 47
3 28 39 40
3 1 36 41
3 15 45 46
3 1 2 41
3 14 15 46
3 28 29 40
3 28 29 47
3 2 40 41
3 14 46 47
3 2 29 40
3 14 29 47
3 2 3 29
3 13 14 29
3 29 30 31
3 29 30 35
3 3 29 31
3 13 29 35
3 30 32 33
3 30 33 34
3 30 31 32
3 30 34 35
3 3 4 31
3 12 13 35
3 4 5 48
3 11 12 54
3 5 6 48
3 10 11 54
3 6 48 59
3 10 54 55
3 6 7 59
3 9 10 55
3 7 58 59
3 9 55 56
3 8 57 58
3 8 56 57
3 7 8 58
3 8 9 56
3 4 31 48
3 12 35 54
3 31 48 49
3 35 53 54
3 31 49 50
3 35 52 53
3 31 32 50
3 34 35 52
3 32 33 50
3 33 34 52
3 33 50 51
3 33 51 52
3 48 49 60
3 49 60 50
3 50 60 61
3 50 51 61
3 51 52 61
3 61 62 52
3 52 53 62
3 53 54 62
3 54 55 63
3 55 56 63
3 56 63 64
3 56 57 64
3 64 65 57
3 57 58 65
3 58 59 65
3 48 59 65
