ply
format ascii 1.0
element vertex 66
property float x
property float y
property float z
property float u
property float v
element face 91
property list uchar int vertex_indices
end_header
-20.3673 -5.54618 21.3031 491.132 451.752
-19.5864 -0.336876 20.889 492.678 471.409
-18.5496 4.82058 20.3611 495.218 490.898
-17.1862 9.85787 18.209 499.193 509.378
-15.0755 14.5224 13.4907 506.362 525.64
-11.8505 18.4073 7.92666 518.05 538.95
-7.86553 21.5263 3.18615 532.741 549.928
-3.35042 23.8132 -1.09966 549.623 558.111
1.7192 24.321 -4.66578 569.025 560.048
6.78628 23.136 -0.906923 588.138 558.558
11.0433 20.1894 3.32509 604.628 550.396
14.4872 16.3418 8.10036 618.239 538.829
16.9494 11.8272 13.691 628.237 524.797
18.2109 6.83994 18.3191 633.924 508.255
18.7272 1.71334 20.3875 637.093 489.947
18.8887 -3.44561 20.8179 639.097 470.758
18.7305 -8.60537 21.2893 639.887 451.49
-16.2385 -15.2927 0.148459 511.631 407.779
-13.7644 -16.7819 -1.43628 521.567 402.252
-10.8983 -17.3255 -2.87439 532.708 400.455
-7.99865 -17.218 -4.24498 543.787 401.144
-5.18633 -16.5353 -5.4506 554.359 404.037
3.18865 -17.0205 -5.5177 586.182 404.595
5.63983 -17.9495 -4.24551 595.583 402.316
8.24527 -18.3839 -2.83823 605.416 401.997
10.911 -18.3356 -1.34192 615.333 403.547
13.408 -17.418 0.287756 624.357 408.372
-0.403834 -11.4346 -4.833 570.967 424.852
-0.118884 -8.3474 -7.63857 571.472 435.422
0.152899 -5.28716 -10.619 571.954 445.816
0.403711 -2.24354 -13.5051 572.35 456.181
-3.1762 0.699571 -6.41132 557.262 469.071
-1.35121 1.16625 -7.23825 564.121 471.02
0.561796 1.3029 -8.01231 571.398 471.774
2.31285 0.953455 -7.14914 578.031 471.309
3.93431 0.287392 -6.20794 584.254 469.648
-12.2182 -10.4517 -0.758513 525.584 426.785
-10.5102 -11.436 -1.00319 532.344 423.475
-8.51064 -11.6287 -1.17823 539.98 423.255
-6.72595 -10.8967 -1.01091 546.51 426.59
-8.5271 -10.4233 -0.961253 539.56 427.873
-10.4097 -10.2451 -0.932895 532.386 428.012
5.01124 -11.5338 -0.8929 591.075 427.619
6.66621 -12.4574 -1.05473 597.61 424.555
8.65151 -12.5647 -0.967924 605.141 424.757
10.4252 -11.78 -0.809974 611.616 428.284
8.68028 -11.345 -0.92325 604.905 429.372
6.82159 -11.2964 -0.913547 597.86 429.024
-7.6922 8.4777 -2.72061 537.635 498.515
-5.27373 6.92366 -4.80374 547.43 492.529
-2.49521 5.91827 -6.44803 558.389 488.886
0.456441 6.00478 -8.10701 569.7 489.395
3.29807 5.61504 -6.40209 580.384 489.431
6.05923 6.33486 -4.70893 590.455 493.613
8.46766 7.67844 -2.58878 598.974 500.212
6.50341 9.89519 -3.96382 591.068 507.435
3.78072 11.2665 -5.07666 580.5 511.363
0.700232 11.7473 -6.404 568.849 511.753
-2.47032 11.5549 -5.16071 556.782 510.616
-5.36292 10.4356 -4.10253 546.043 505.997
-2.94549 7.854 -5.28463 556.027 496.506
0.525452 7.74787 -7.59457 569.424 496.178
3.87482 7.52413 -5.05368 581.896 497.32
4.03965 8.67706 -4.46791 582.138 501.94
0.605725 9.16209 -6.55215 569.227 501.94
-2.95406 9.02314 -4.64806 555.604 501.157
3 20 21 23
3 21 22 23
3 0 1 36
3 15 16 45
3 0 17 36
3 16 26 45
3 17 18 37
3 25 26 44
3 17 36 37
3 26 44 45
3 18 19 38
3 24 25 43
3 18 37 38
3 25 43 44
3 19 20 38
3 23 24 43
3 20 21 39
3 22 23 42
3 20 38 39
3 23 42 43
3 21 22 27
3 21 27 39
3 22 27 42
3 27 28 42
3 27 28 39
3 28 42 47
3 28 39 40
3 1 36 41
3 15 45 46
3 1 2 41
3 14 15 46
3 28 29 40
3 28 29 47
3 2 40 41
3 14 46 47
3 2 29 40
3 14 29 47
3 2 3 29
3 13 14 29
3 29 30 31
3 29 30 35
3 3 29 31
3 13 29 35
3 30 32 33
3 30 33 34
3 30 31 32
3 30 34 35
3 3 4 31
3 12 13 35
3 4 5 48
3 11 12 54
3 5 6 48
3 10 11 54
3 6 48 59
3 10 54 55
3 6 7 59
3 9 10 55
3 7 58 59
3 9 55 56
3 8 57 58
3 8 56 57
3 7 8 58
3 8 9 56
3 4 31 48
3 12 35 54
3 31 48 49
3 35 53 54
3 31 49 50
3 35 52 53
3 31 32 50
3 34 35 52
3 32 33 50
3 33 34 52
3 33 50 51
3 33 51 52
3 48 49 60
3 49 60 50
3 50 60 61
3 50 51 61
3 51 52 61
3 61 62 52
3 52 53 62
3 53 54 62
3 54 55 63
3 55 56 63
3 56 63 64
3 56 57 64
3 64 65 57
3 57 58 65
3 58 59 65
3 48 59 65
