ply
format ascii 1.0
element vertex 66
property float x
property float y
property float z
property float u
property float v
element face 91
property list uchar int vertex_indices
end_header
-19.3934 -6.11855 20.9846 488.678 449.66
-18.6322 -0.80808 20.5652 490.244 470.643
-17.6044 4.43945 19.9834 492.912 491.391
-16.2304 9.64255 18.1861 497.168 511.562
-14.2739 14.6045 13.5344 504.283 529.77
-11.4279 18.992 7.89771 515.251 545.572
-7.79983 22.7198 3.1168 529.361 559.369
-3.48901 25.5524 -1.07175 546.331 570.09
1.5479 26.4052 -4.69521 566.647 573.465
6.6371 24.9232 -0.86988 586.58 570.758
10.6183 21.3634 3.29149 602.662 559.667
13.6653 16.9194 8.03421 615.199 545.052
15.8877 12.0263 13.6186 624.458 528.768
17.2701 6.88943 18.1501 630.636 510.831
17.9611 1.74163 19.9429 634.543 491.5
18.1786 -3.36959 20.422 636.785 471.624
18.0248 -8.50057 20.7631 637.587 451.499
-15.2233 -15.8342 0.0399863 511.512 403.908
-13.0727 -17.1961 -1.49212 520.678 398.553
-10.5051 -17.7055 -2.88237 531.228 396.743
-7.87975 -17.6013 -4.30601 541.836 397.355
-5.31388 -16.963 -5.54479 552.024 400.13
2.79256 -17.2475 -5.59727 584.219 401.439
5.01739 -18.1364 -4.27953 593.062 399.158
7.38783 -18.563 -2.8279 602.326 398.799
9.81017 -18.5555 -1.38146 611.673 400.164
12.0354 -17.7394 0.189873 619.987 404.708
-0.472598 -12.1401 -4.86361 569.702 420.885
-0.242567 -9.32271 -7.58684 570.267 430.922
-0.0262905 -6.51677 -10.3776 570.793 440.882
0.177259 -3.73294 -13.1022 571.263 450.779
-2.79572 -0.183905 -6.00335 557.274 466.824
-1.17444 0.219722 -6.98638 563.745 468.495
0.538616 0.346916 -7.92565 570.652 469.123
2.09356 0.0255977 -6.85383 576.721 468.774
3.49967 -0.571184 -5.88686 582.297 467.25
-11.5068 -11.1585 -1.12107 525.09 422.974
-10.1411 -12.1023 -1.05025 530.756 419.698
-8.40802 -12.4063 -0.942194 537.689 419.069
-6.84522 -11.9099 -0.802742 543.712 421.556
-8.30226 -11.1618 -0.946833 537.752 424.003
-9.94837 -10.9338 -0.944698 531.167 424.405
4.86307 -12.5132 -0.671668 590.232 422.775
6.29999 -13.146 -0.858972 596.135 420.637
8.01447 -13.1257 -0.994968 602.943 421.179
9.44495 -12.3569 -1.06621 608.4 424.612
7.97161 -11.9197 -0.861948 602.405 425.974
6.35197 -11.9659 -0.821977 595.997 425.319
-5.11664 9.52111 -2.73607 544.753 505.728
-3.55227 7.93943 -4.84235 551.757 499.091
-1.61309 6.63425 -6.51439 560.093 493.838
0.707721 6.76962 -8.13559 569.519 494.398
2.94037 6.39183 -6.32534 578.164 494.338
4.92271 7.4696 -4.64651 585.422 499.885
6.49403 8.9321 -2.55001 590.873 506.997
5.18848 10.6191 -4.03623 585.471 512.631
3.30527 11.7256 -5.14807 577.884 515.958
0.999649 12.2131 -6.59315 568.857 516.58
-1.37596 11.9326 -5.31847 559.314 515.287
-3.4382 11.0218 -4.17345 551.214 511.551
-1.18685 8.57269 -5.01253 560.972 502.231
0.813362 8.44185 -7.16227 569.295 501.425
2.7362 8.4133 -4.73619 576.508 502.905
2.7908 9.13884 -4.36086 576.453 505.937
0.904929 9.64942 -6.23874 569.156 506.596
-1.09579 9.30883 -4.57188 561.048 505.343
3 20 21 23
3 21 22 23
3 0 1 36
3 15 16 45
3 0 17 36
3 16 26 45
3 17 18 37
3 25 26 44
3 17 36 37
3 26 44 45
3 18 19 38
3 24 25 43
3 18 37 38
3 25 43 44
3 19 20 38
3 23 24 43
3 20 21 39
3 22 23 42
3 20 38 39
3 23 42 43
3 21 22 27
3 21 27 39
3 22 27 42
3 27 28 42
3 27 28 39
3 28 42 47
3 28 39 40
3 1 36 41
3 15 45 46
3 1 2 41
3 14 15 46
3 28 29 40
3 28 29 47
3 2 40 41
3 14 46 47
3 2 29 40
3 14 29 47
3 2 3 29
3 13 14 29
3 29 30 31
3 29 30 35
3 3 29 31
3 13 29 35
3 30 32 33
3 30 33 34
3 30 31 32
3 30 34 35
3 3 4 31
3 12 13 35
3 4 5 48
3 11 12 54
3 5 6 48
3 10 11 54
3 6 48 59
3 10 54 55
3 6 7 59
3 9 10 55
3 7 58 59
3 9 55 56
3 8 57 58
3 8 56 57
3 7 8 58
3 8 9 56
3 4 31 48
3 12 35 54
3 31 48 49
3 35 53 54
3 31 49 50
3 35 52 53
3 31 32 50
3 34 35 52
3 32 33 50
3 33 34 52
3 33 50 51
3 33 51 52
3 48 49 60
3 49 60 50
3 50 60 61
3 50 51 61
3 51 52 61
3 61 62 52
3 52 53 62
3 53 54 62
3 54 55 63
3 55 56 63
3 56 63 64
3 56 57 64
3 64 65 57
3 57 58 65
3 58 59 65
3 48 59 65
