ply
format ascii 1.0
element vertex 66
property float x
property float y
property float z
property float u
property float v
element face 91
property list uchar int vertex_indices
end_header
-20.3068 -5.48643 21.2896 490.071 454.547
-19.472 -0.258584 20.8076 491.916 474.492
-18.3784 4.92054 20.3093 494.758 494.32
-17.0109 9.93516 18.2512 498.911 513.25
-14.9822 14.4955 13.4897 506.088 530.034
-11.8591 18.2737 7.9261 517.745 543.974
-7.9408 21.2956 3.21469 532.498 555.455
-3.4865 23.507 -1.08257 549.443 564.103
1.53273 23.9462 -4.58883 568.89 566.364
6.63806 22.8786 -0.838362 588.01 564.56
10.8847 19.9784 3.39678 604.29 555.679
14.2994 16.188 8.0956 617.581 543.297
16.7618 11.7953 13.6306 627.297 528.557
18.0878 6.97442 18.2895 632.939 511.685
18.6787 1.95007 20.2651 636.236 493.238
18.9121 -3.15351 20.6455 638.428 474.035
18.8002 -8.25553 21.1296 639.294 454.767
-16.3687 -15.6975 0.158946 510.816 412.18
-13.9037 -17.0997 -1.39363 520.774 407.194
-11.1067 -17.5836 -2.82601 531.729 405.807
-8.30235 -17.4595 -4.21771 542.544 406.738
-5.58233 -16.8029 -5.43094 552.872 409.704
3.42948 -17.2474 -5.49543 587.211 410.482
5.7859 -18.0966 -4.22081 596.198 408.196
8.28668 -18.4996 -2.81151 605.594 407.671
10.86 -18.4737 -1.32761 615.141 408.809
13.3052 -17.6146 0.305155 623.957 413.105
-0.381691 -11.6618 -4.81895 571.154 430.765
-0.0937049 -8.47267 -7.66565 571.81 442.3
0.177171 -5.30919 -10.6443 572.428 453.703
0.427941 -2.15406 -13.4609 572.948 465.105
-2.88934 0.966732 -6.36599 558.491 477.615
-1.15728 1.40579 -7.25487 565.078 479.557
0.666554 1.52908 -8.04445 572.084 480.35
2.31005 1.21231 -7.12466 578.274 479.806
3.80973 0.584138 -6.18156 583.997 478.048
-12.294 -10.8996 -0.801178 525.144 431.279
-10.6717 -11.8879 -0.937757 531.587 427.947
-8.74396 -12.0882 -1.03378 538.972 427.696
-7.05754 -11.2997 -0.953011 545.152 431.168
-8.7661 -10.773 -0.979154 538.53 432.689
-10.5809 -10.6187 -0.939777 531.593 432.784
5.09785 -11.8882 -0.811268 591.434 432.311
6.63221 -12.8286 -0.939962 597.528 429.139
8.53125 -12.9289 -0.923701 604.762 429.284
10.2098 -12.1281 -0.837978 610.908 432.802
8.5834 -11.6323 -0.910387 604.612 434.218
6.80658 -11.5891 -0.893167 597.853 433.897
-6.64854 9.0271 -2.80822 541.552 507.942
-4.40603 7.63751 -4.91453 550.742 502.818
-1.97087 6.62138 -6.56928 560.498 499.264
0.613696 6.75278 -8.27348 570.523 500.091
3.08912 6.37533 -6.44683 579.755 499.75
5.50479 7.13885 -4.7633 588.477 503.686
7.69325 8.35197 -2.62449 596.151 509.367
5.88077 10.1005 -3.94622 588.996 515.203
3.45905 11.1089 -5.01424 579.689 518.122
0.797872 11.4471 -6.35726 569.691 518.371
-1.93052 11.323 -5.16476 559.193 517.417
-4.4875 10.5285 -4.1236 549.547 513.935
-1.99099 8.51672 -5.33057 559.736 506.723
0.69432 8.43845 -7.52651 570.271 506.673
3.26705 8.30759 -5.03378 579.71 507.442
3.32173 8.63893 -4.45177 579.745 508.844
0.717036 8.8795 -6.41716 570.078 508.6
-1.97803 8.85849 -4.68292 559.6 508.167
3 20 21 23
3 21 22 23
3 0 1 36
3 15 16 45
3 0 17 36
3 16 26 45
3 17 18 37
3 25 26 44
3 17 36 37
3 26 44 45
3 18 19 38
3 24 25 43
3 18 37 38
3 25 43 44
3 19 20 38
3 23 24 43
3 20 21 39
3 22 23 42
3 20 38 39
3 23 42 43
3 21 22 27
3 21 27 39
3 22 27 42
3 27 28 42
3 27 28 39
3 28 42 47
3 28 39 40
3 1 36 41
3 15 45 46
3 1 2 41
3 14 15 46
3 28 29 40
3 28 29 47
3 2 40 41
3 14 46 47
3 2 29 40
3 14 29 47
3 2 3 29
3 13 14 29
3 29 30 31
3 29 30 35
3 3 29 31
3 13 29 35
3 30 32 33
3 30 33 34
3 30 31 32
3 30 34 35
3 3 4 31
3 12 13 35
3 4 5 48
3 11 12 54
3 5 6 48
3 10 11 54
3 6 48 59
3 10 54 55
3 6 7 59
3 9 10 55
3 7 58 59
3 9 55 56
3 8 57 58
3 8 56 57
3 7 8 58
3 8 9 56
3 4 31 48
3 12 35 54
3 31 48 49
3 35 53 54
3 31 49 50
3 35 52 53
3 31 32 50
3 34 35 52
3 32 33 50
3 33 34 52
3 33 50 51
3 33 51 52
3 48 49 60
3 49 60 50
3 50 60 61
3 50 51 61
3 51 52 61
3 61 62 52
3 52 53 62
3 53 54 62
3 54 55 63
3 55 56 63
3 56 63 64
3 56 57 64
3 64 65 57
3 57 58 65
3 58 59 65
3 48 59 65
