ply
format ascii 1.0
element vertex 66
property float x
property float y
property float z
property float u
property float v
element face 91
property list uchar int vertex_indices
end_header
-20.2258 -5.49973 21.2373 489.008 452.454
-19.4096 -0.315365 20.8057 490.763 472.052
-18.3371 4.81384 20.2694 493.519 491.466
-16.9717 9.82881 18.1978 497.611 509.83
-14.9059 14.4775 13.5351 504.788 525.825
-11.768 18.3824 7.94919 516.355 538.894
-7.87295 21.5618 3.20217 530.891 549.824
-3.43066 23.9261 -1.10507 547.672 558.034
1.60185 24.4748 -4.61796 567.087 559.924
6.67315 23.2928 -0.908228 586.215 558.598
10.8795 20.2801 3.34721 602.482 550.369
14.2735 16.3901 8.10354 615.837 538.828
16.7346 11.8871 13.6912 625.709 525.09
18.0423 6.93131 18.2828 631.444 508.86
18.6067 1.82505 20.2886 634.718 490.669
18.8236 -3.31592 20.7436 636.875 471.538
18.711 -8.46558 21.1959 637.783 452.28
-16.0462 -15.5397 0.10263 510.247 406.08
-13.5485 -16.8873 -1.42537 520.294 401.004
-10.7287 -17.3425 -2.86913 531.313 399.425
-7.90195 -17.2266 -4.26146 542.198 400.026
-5.15599 -16.5796 -5.48221 552.611 402.688
3.07366 -17.0705 -5.52906 584.024 403.147
5.46893 -17.9666 -4.24675 593.208 401.031
8.01024 -18.4072 -2.82663 602.807 400.738
10.6299 -18.4437 -1.32623 612.585 402.03
13.142 -17.6654 0.256792 621.723 406.403
-0.438299 -11.7765 -4.82435 569.158 422.451
-0.150676 -8.67587 -7.59873 569.76 432.964
0.12386 -5.60544 -10.5766 570.346 443.266
0.377907 -2.55249 -13.4863 570.849 453.527
-3.06292 0.74669 -6.34744 555.99 468.268
-1.28258 1.20592 -7.22104 562.74 470.106
0.590321 1.33703 -8.02553 569.923 470.764
2.29738 0.994355 -7.11804 576.389 470.37
3.86587 0.333178 -6.17757 582.411 468.75
-12.0951 -10.7409 -0.760791 524.072 424.914
-10.4904 -11.719 -0.967116 530.461 421.584
-8.58007 -11.9254 -1.11701 537.795 421.278
-6.87852 -11.2161 -1.01876 544.057 424.482
-8.57666 -10.7106 -0.971302 537.461 425.93
-10.3743 -10.5283 -0.926386 530.575 426.129
5.02459 -11.8754 -0.858465 589.45 425.441
6.58918 -12.7767 -0.999542 595.657 422.419
8.48618 -12.8773 -0.932437 602.884 422.608
10.1676 -12.1001 -0.793575 609.047 426.081
8.51893 -11.6513 -0.889156 602.672 427.264
6.74242 -11.611 -0.879072 595.909 426.916
-7.41917 8.78101 -2.75092 536.814 498.998
-4.97125 7.38278 -4.80949 546.752 493.474
-2.28173 6.41951 -6.47354 557.441 489.839
0.552373 6.53273 -8.13567 568.388 490.31
3.27587 6.1213 -6.40206 578.632 490.322
5.94372 6.79292 -4.69573 588.376 494.394
8.35757 7.96509 -2.58526 596.968 500.467
6.39161 10.0167 -3.99604 589.119 507.006
3.7214 11.2476 -5.05239 578.771 510.411
0.7553 11.6846 -6.33413 567.541 510.633
-2.27918 11.5255 -5.15578 555.906 509.711
-5.10063 10.5596 -4.13256 545.317 505.735
-2.56793 8.3192 -5.29082 555.692 497.468
0.627028 8.25439 -7.5589 568.134 497.092
3.69554 8.01803 -5.04837 579.545 498.218
3.80693 8.68315 -4.49092 579.719 501.015
0.663577 9.07388 -6.53459 567.924 500.663
-2.58882 9.00124 -4.6742 555.351 500.318
3 20 21 23
3 21 22 23
3 0 1 36
3 15 16 45
3 0 17 36
3 16 26 45
3 17 18 37
3 25 26 44
3 17 36 37
3 26 44 45
3 18 19 38
3 24 25 43
3 18 37 38
3 25 43 44
3 19 20 38
3 23 24 43
3 20 21 39
3 22 23 42
3 20 38 39
3 23 42 43
3 21 22 27
3 21 27 39
3 22 27 42
3 27 28 42
3 27 28 39
3 28 42 47
3 28 39 40
3 1 36 41
3 15 45 46
3 1 2 41
3 14 15 46
3 28 29 40
3 28 29 47
3 2 40 41
3 14 46 47
3 2 29 40
3 14 29 47
3 2 3 29
3 13 14 29
3 29 30 31
3 29 30 35
3 3 29 31
3 13 29 35
3 30 32 33
3 30 33 34
3 30 31 32
3 30 34 35
3 3 4 31
3 12 13 35
3 4 5 48
3 11 12 54
3 5 6 48
3 10 11 54
3 6 48 59
3 10 54 55
3 6 7 59
3 9 10 55
3 7 58 59
3 9 55 56
3 8 57 58
3 8 56 57
3 7 8 58
3 8 9 56
3 4 31 48
3 12 35 54
3 31 48 49
3 35 53 54
3 31 49 50
3 35 52 53
3 31 32 50
3 34 35 52
3 32 33 50
3 33 34 52
3 33 50 51
3 33 51 52
3 48 49 60
3 49 60 50
3 50 60 61
3 50 51 61
3 51 52 61
3 61 62 52
3 52 53 62
3 53 54 62
3 54 55 63
3 55 56 63
3 56 63 64
3 56 57 64
3 64 65 57
3 57 58 65
3 58 59 65
3 48 59 65
