ply
format ascii 1.0
element vertex 66
property float x
property float y
property float z
property float u
property float v
element face 91
property list uchar int vertex_indices
end_header
-20.2495 -5.50433 21.2903 490.62 454.109
-19.4239 -0.255161 20.81 492.324 474.171
-18.3471 4.94791 20.3017 494.999 494.127
-16.9967 9.97344 18.2473 498.992 513.16
-14.9835 14.5221 13.5027 506.034 530.007
-11.8715 18.2831 7.93693 517.596 544.013
-7.95604 21.2893 3.19468 532.306 555.566
-3.50217 23.4964 -1.09338 549.223 564.342
1.52944 23.9136 -4.59142 568.732 566.662
6.64532 22.8437 -0.851664 587.924 564.902
10.8858 19.9284 3.37231 604.247 555.984
14.299 16.1455 8.10503 617.602 543.637
16.7564 11.7664 13.6425 627.379 528.918
18.0751 6.95915 18.2801 633.084 512.047
18.6506 1.92918 20.2538 636.421 493.547
18.8608 -3.19234 20.6447 638.628 474.255
18.7302 -8.31242 21.1297 639.527 454.888
-16.321 -15.6507 0.156513 511.551 412.266
-13.8426 -17.0664 -1.38846 521.598 407.294
-11.0296 -17.5461 -2.82191 532.632 405.997
-8.21548 -17.4104 -4.217 543.489 407.043
-5.49074 -16.7409 -5.43723 553.827 410.126
3.42885 -17.2114 -5.50087 587.856 410.952
5.76145 -18.0738 -4.21799 596.776 408.638
8.24521 -18.4949 -2.80043 606.124 408.072
10.8125 -18.4955 -1.30965 615.658 409.142
13.2648 -17.6541 0.309367 624.495 413.401
-0.357919 -11.62 -4.83796 571.772 431.199
-0.0757945 -8.47708 -7.6665 572.359 442.609
0.189561 -5.36124 -10.6363 572.911 453.881
0.433493 -2.25317 -13.4582 573.362 465.148
-2.87787 0.905523 -6.3676 558.837 477.669
-1.15217 1.3374 -7.24749 565.398 479.628
0.665115 1.45501 -8.02866 572.383 480.443
2.29728 1.14804 -7.11957 578.538 479.952
3.78925 0.531861 -6.17776 584.244 478.253
-12.239 -10.9185 -0.791711 525.843 431.225
-10.6129 -11.9132 -0.931777 532.325 427.899
-8.68005 -12.1042 -1.04475 539.739 427.719
-7.0036 -11.281 -0.952989 545.858 431.356
-8.71347 -10.7543 -0.978233 539.216 432.846
-10.5307 -10.6089 -0.940483 532.265 432.871
5.07998 -11.8807 -0.807542 591.913 432.666
6.59735 -12.8582 -0.94101 597.977 429.375
8.50089 -12.9753 -0.912161 605.237 429.496
10.1846 -12.1673 -0.83253 611.391 433.075
8.56915 -11.6382 -0.911554 605.114 434.591
6.79121 -11.5828 -0.892907 598.341 434.282
-6.7849 8.96661 -2.79997 541.163 507.87
-4.49616 7.58781 -4.89799 550.56 502.865
-2.02329 6.57903 -6.56015 560.487 499.411
0.593129 6.69004 -8.27345 570.647 500.238
3.09739 6.32913 -6.44758 579.995 499.993
5.54198 7.08342 -4.75266 588.817 503.936
7.76325 8.28545 -2.61696 596.598 509.605
5.97356 10.1542 -3.96455 589.462 515.884
3.52915 11.2715 -5.03815 580.014 519.177
0.785699 11.6436 -6.3657 569.68 519.5
-2.03123 11.495 -5.18128 558.847 518.359
-4.62856 10.5934 -4.13742 549.085 514.395
-2.13441 8.44255 -5.32777 559.351 506.713
0.667905 8.33227 -7.55231 570.355 506.646
3.3531 8.22068 -5.02711 580.217 507.549
3.44493 8.80562 -4.43832 580.312 509.921
0.710696 9.10288 -6.41534 570.13 509.825
-2.12754 9.04327 -4.6731 559.109 509.134
3 20 21 23
3 21 22 23
3 0 1 36
3 15 16 45
3 0 17 36
3 16 26 45
3 17 18 37
3 25 26 44
3 17 36 37
3 26 44 45
3 18 19 38
3 24 25 43
3 18 37 38
3 25 43 44
3 19 20 38
3 23 24 43
3 20 21 39
3 22 23 42
3 20 38 39
3 23 42 43
3 21 22 27
3 21 27 39
3 22 27 42
3 27 28 42
3 27 28 39
3 28 42 47
3 28 39 40
3 1 36 41
3 15 45 46
3 1 2 41
3 14 15 46
3 28 29 40
3 28 29 47
3 2 40 41
3 14 46 47
3 2 29 40
3 14 29 47
3 2 3 29
3 13 14 29
3 29 30 31
3 29 30 35
3 3 29 31
3 13 29 35
3 30 32 33
3 30 33 34
3 30 31 32
3 30 34 35
3 3 4 31
3 12 13 35
3 4 5 48
3 11 12 54
3 5 6 48
3 10 11 54
3 6 48 59
3 10 54 55
3 6 7 59
3 9 10 55
3 7 58 59
3 9 55 56
3 8 57 58
3 8 56 57
3 7 8 58
3 8 9 56
3 4 31 48
3 12 35 54
3 31 48 49
3 35 53 54
3 31 49 50
3 35 52 53
3 31 32 50
3 34 35 52
3 32 33 50
3 33 34 52
3 33 50 51
3 33 51 52
3 48 49 60
3 49 60 50
3 50 60 61
3 50 51 61
3 51 52 61
3 61 62 52
3 52 53 62
3 53 54 62
3 54 55 63
3 55 56 63
3 56 63 64
3 56 57 64
3 64 65 57
3 57 58 65
3 58 59 65
3 48 59 65
