ply
format ascii 1.0
element vertex 66
property float x
property float y
property float z
property float u
property float v
element face 91
property list uchar int vertex_indices
end_header
-19.9362 -6.04821 21.2562 487.596 450.888
-19.1718 -0.692233 20.798 489.524 471.46
-18.1527 4.61213 20.2009 492.475 491.823
-16.8112 9.81518 18.1771 496.945 511.173
-14.8278 14.656 13.4826 504.445 527.97
-11.7842 18.7282 7.93525 516.365 541.634
-7.93879 22.0099 3.09886 531.436 552.785
-3.52397 24.4393 -1.10779 548.783 561.093
1.49935 25.0639 -4.65999 568.753 562.911
6.56437 23.7124 -0.882145 588.019 560.713
10.6302 20.4181 3.31517 603.743 551.012
13.8716 16.3083 8.11196 616.335 538.275
16.3115 11.6972 13.5812 625.806 523.753
17.8066 6.76947 18.1091 631.843 507.336
18.5098 1.77774 20.1291 635.259 489.266
18.7225 -3.2304 20.569 637.051 470.249
18.5631 -8.24823 20.9288 637.417 451.069
-15.7941 -15.4943 0.0768943 509.316 405.12
-13.4059 -16.8552 -1.45476 519.128 399.678
-10.676 -17.3656 -2.86146 530.066 397.651
-7.90668 -17.2633 -4.24669 541.026 398.002
-5.20469 -16.611 -5.46606 551.58 400.536
2.8803 -16.8305 -5.5803 583.001 401.485
5.18848 -17.6833 -4.27112 591.902 399.37
7.6479 -18.0805 -2.84782 601.275 399.099
10.1656 -18.0728 -1.3738 610.781 400.425
12.5506 -17.285 0.226382 619.587 404.786
-0.375206 -11.6409 -4.89036 569.174 421.057
-0.164171 -8.67792 -7.65904 569.856 431.16
0.0292897 -5.73493 -10.5517 570.497 441.121
0.210616 -2.81025 -13.3496 571.078 451.055
-3.05686 0.228587 -6.29964 556.545 465.452
-1.27599 0.647986 -7.13966 563.51 467.064
0.583856 0.777256 -7.93097 570.834 467.6
2.25563 0.449421 -7.02663 577.228 467.163
3.79773 -0.171727 -6.19326 583.193 465.531
-12.0565 -10.8057 -0.932719 523.009 423.533
-10.3543 -11.7169 -1.00767 529.813 420.378
-8.37606 -11.9409 -1.05354 537.54 419.946
-6.60264 -11.294 -0.870444 544.251 422.932
-8.3986 -10.8257 -0.936176 537.2 424.291
-10.269 -10.645 -0.954743 529.912 424.55
4.70697 -11.8042 -0.826771 588.209 423.577
6.32615 -12.5676 -1.01214 594.68 420.918
8.25193 -12.6531 -0.97286 602.16 421.048
9.9781 -11.9345 -0.876504 608.687 424.258
8.27835 -11.552 -0.897915 602.02 425.33
6.45956 -11.5531 -0.862161 594.96 424.928
-6.73391 8.92907 -2.70688 539.846 499.863
-4.82767 6.9771 -4.82878 548.015 491.747
-2.30164 5.57735 -6.47467 558.39 486.132
0.629605 5.55282 -8.16673 570.057 485.881
3.47085 5.25465 -6.25898 580.806 486.316
6.03704 6.33751 -4.60263 590.244 491.882
7.97273 8.14223 -2.51303 597.01 500.294
6.38756 10.3844 -3.94229 590.644 507.865
4.02494 11.9436 -5.01888 581.344 512.801
1.06952 12.537 -6.4767 570.013 513.697
-2.00324 12.2416 -5.21056 557.938 512.475
-4.64057 10.9456 -4.12235 547.79 507.414
-2.63398 7.53949 -5.14967 556.461 494.257
0.753388 7.21506 -7.44192 570.064 492.664
4.06847 7.19184 -4.83374 582.471 494.607
4.30197 9.35992 -4.32251 582.836 503.258
0.986051 10.1182 -6.34729 570.171 504.429
-2.48299 9.73051 -4.58244 556.491 503.005
3 20 21 23
3 21 22 23
3 0 1 36
3 15 16 45
3 0 17 36
3 16 26 45
3 17 18 37
3 25 26 44
3 17 36 37
3 26 44 45
3 18 19 38
3 24 25 43
3 18 37 38
3 25 43 44
3 19 20 38
3 23 24 43
3 20 21 39
3 22 23 42
3 20 38 39
3 23 42 43
3 21 22 27
3 21 27 39
3 22 27 42
3 27 28 42
3 27 28 39
3 28 42 47
3 28 39 40
3 1 36 41
3 15 45 46
3 1 2 41
3 14 15 46
3 28 29 40
3 28 29 47
3 2 40 41
3 14 46 47
3 2 29 40
3 14 29 47
3 2 3 29
3 13 14 29
3 29 30 31
3 29 30 35
3 3 29 31
3 13 29 35
3 30 32 33
3 30 33 34
3 30 31 32
3 30 34 35
3 3 4 31
3 12 13 35
3 4 5 48
3 11 12 54
3 5 6 48
3 10 11 54
3 6 48 59
3 10 54 55
3 6 7 59
3 9 10 55
3 7 58 59
3 9 55 56
3 8 57 58
3 8 56 57
3 7 8 58
3 8 9 56
3 4 31 48
3 12 35 54
3 31 48 49
3 35 53 54
3 31 49 50
3 35 52 53
3 31 32 50
3 34 35 52
3 32 33 50
3 33 34 52
3 33 50 51
3 33 51 52
3 48 49 60
3 49 60 50
3 50 60 61
3 50 51 61
3 51 52 61
3 61 62 52
3 52 53 62
3 53 54 62
3 54 55 63
3 55 56 63
3 56 63 64
3 56 57 64
3 64 65 57
3 57 58 65
3 58 59 65
3 48 59 65
