ply
format ascii 1.0
element vertex 66
property float x
property float y
property float z
property float u
property float v
element face 91
property list uchar int vertex_indices
end_header
-20.3863 -5.45584 21.2472 490.641 452.398
-19.597 -0.297889 20.8258 492.227 471.824
-18.5439 4.80525 20.3133 494.833 491.082
-17.1437 9.79267 18.2007 498.939 509.335
-14.9893 14.4265 13.4847 506.246 525.389
-11.7775 18.3345 7.92713 517.833 538.669
-7.8327 21.5168 3.19889 532.312 549.78
-3.34302 23.872 -1.08883 549.037 558.126
1.72225 24.4297 -4.65649 568.369 560.187
6.78303 23.2462 -0.912621 587.46 558.763
11.0296 20.3016 3.32729 603.917 550.698
14.4576 16.4449 8.09489 617.484 539.192
16.9066 11.9197 13.6963 627.457 525.242
18.174 6.9116 18.354 633.191 508.743
18.7128 1.74773 20.3889 636.469 490.352
18.9039 -3.44765 20.8318 638.596 471.077
18.7813 -8.64512 21.316 639.535 451.721
-16.2062 -15.2575 0.148005 511.217 407.959
-13.756 -16.7709 -1.43991 521.052 402.315
-10.8934 -17.3302 -2.87548 532.164 400.438
-7.99035 -17.232 -4.25407 543.241 401.066
-5.17741 -16.5482 -5.46244 553.798 403.939
3.05035 -17.0368 -5.51267 585.031 404.451
5.56799 -18.0056 -4.24403 594.692 402.067
8.24407 -18.4502 -2.83278 604.792 401.757
10.9733 -18.3624 -1.34709 614.936 403.494
13.4965 -17.3697 0.276668 624.037 408.629
-0.482211 -11.5136 -4.82723 570.075 424.468
-0.18307 -8.38091 -7.63874 570.605 435.145
0.104374 -5.27396 -10.6115 571.114 445.655
0.372724 -2.18343 -13.4789 571.544 456.142
-3.14977 0.689117 -6.38031 556.744 468.887
-1.3643 1.16516 -7.22799 563.44 470.834
0.513178 1.30462 -8.01361 570.572 471.57
2.25243 0.94509 -7.14491 577.161 471.084
3.85497 0.263779 -6.19241 583.314 469.384
-12.256 -10.4594 -0.792271 524.898 426.726
-10.5487 -11.4698 -1.0064 531.652 423.332
-8.53158 -11.6779 -1.15713 539.347 423.069
-6.72778 -10.9673 -1.00313 545.95 426.321
-8.53392 -10.4711 -0.965657 538.983 427.681
-10.43 -10.273 -0.938901 531.76 427.89
5.0069 -11.6339 -0.871539 590.468 427.25
6.69104 -12.5587 -1.03407 597.106 424.193
8.70504 -12.6454 -0.967279 604.734 424.475
10.4968 -11.8494 -0.834469 611.27 428.036
8.72398 -11.4289 -0.919842 604.462 429.07
6.84007 -11.3849 -0.907174 597.329 428.698
-7.37303 8.52535 -2.72226 538.245 498.636
-5.03721 7.04023 -4.79607 547.687 492.863
-2.36577 6.07643 -6.44335 558.211 489.323
0.468829 6.18472 -8.11413 569.054 489.846
3.20381 5.78048 -6.41053 579.337 489.828
5.8724 6.46861 -4.71456 589.065 493.89
8.22394 7.73046 -2.59753 597.394 500.192
6.29313 9.8368 -3.97982 589.645 506.97
3.65906 11.1381 -5.09554 579.436 510.633
0.690275 11.6124 -6.42037 568.214 511.006
-2.35272 11.4241 -5.16857 556.645 509.947
-5.12905 10.374 -4.10126 546.343 505.649
-2.75003 7.93524 -5.25952 556.125 496.689
0.527728 7.84834 -7.5729 568.76 496.339
3.69606 7.61568 -5.06887 580.555 497.424
3.83726 8.62227 -4.48196 580.751 501.491
0.589373 9.09864 -6.51754 568.543 501.494
-2.76988 8.9533 -4.62669 555.705 500.772
3 20 21 23
3 21 22 23
3 0 1 36
3 15 16 45
3 0 17 36
3 16 26 45
3 17 18 37
3 25 26 44
3 17 36 37
3 26 44 45
3 18 19 38
3 24 25 43
3 18 37 38
3 25 43 44
3 19 20 38
3 23 24 43
3 20 21 39
3 22 23 42
3 20 38 39
3 23 42 43
3 21 22 27
3 21 27 39
3 22 27 42
3 27 28 42
3 27 28 39
3 28 42 47
3 28 39 40
3 1 36 41
3 15 45 46
3 1 2 41
3 14 15 46
3 28 29 40
3 28 29 47
3 2 40 41
3 14 46 47
3 2 29 40
3 14 29 47
3 2 3 29
3 13 14 29
3 29 30 31
3 29 30 35
3 3 29 31
3 13 29 35
3 30 32 33
3 30 33 34
3 30 31 32
3 30 34 35
3 3 4 31
3 12 13 35
3 4 5 48
3 11 12 54
3 5 6 48
3 10 11 54
3 6 48 59
3 10 54 55
3 6 7 59
3 9 10 55
3 7 58 59
3 9 55 56
3 8 57 58
3 8 56 57
3 7 8 58
3 8 9 56
3 4 31 48
3 12 35 54
3 31 48 49
3 35 53 54
3 31 49 50
3 35 52 53
3 31 32 50
3 34 35 52
3 32 33 50
3 33 34 52
3 33 50 51
3 33 51 52
3 48 49 60
3 49 60 50
3 50 60 61
3 50 51 61
3 51 52 61
3 61 62 52
3 52 53 62
3 53 54 62
3 54 55 63
3 55 56 63
3 56 63 64
3 56 57 64
3 64 65 57
3 57 58 65
3 58 59 65
3 48 59 65
