ply
format ascii 1.0
element vertex 66
property float x
property float y
property float z
property float u
property float v
element face 91
property list uchar int vertex_indices
end_header
-19.7812 -5.96992 20.9822 488.957 452.925
-19.0456 -0.636148 20.4831 490.627 473.381
-18.0094 4.64355 19.9764 493.468 493.703
-16.5685 9.76802 18.2351 498.13 513.084
-14.5246 14.4694 13.4891 505.767 529.904
-11.6162 18.5717 7.89327 517.028 544.336
-7.92126 22.0302 3.13868 531.312 556.803
-3.56046 24.6416 -1.03495 548.25 566.399
1.51977 25.3021 -4.60362 568.303 568.915
6.65375 24.0011 -0.809751 587.666 566.593
10.6857 20.675 3.34046 603.197 556.357
13.8164 16.5175 8.04342 615.353 542.908
16.1306 11.9295 13.5667 624.317 527.9
17.6197 7.05222 18.2228 630.334 511.261
18.3803 1.96917 19.9485 634.136 492.587
18.6175 -3.1818 20.3605 636.183 473.045
18.4694 -8.3379 20.7802 636.747 453.389
-15.5536 -15.9366 0.0801376 511.423 408.192
-13.3494 -17.3513 -1.42901 520.516 402.774
-10.7393 -17.8449 -2.81583 530.932 401.035
-8.10019 -17.6911 -4.25887 541.318 401.765
-5.54787 -16.9993 -5.52517 551.211 404.6
3.03524 -17.3458 -5.52034 584.321 405.431
5.30736 -18.2638 -4.2054 593.037 402.959
7.74045 -18.7067 -2.7573 602.237 402.397
10.2359 -18.623 -1.33595 611.559 403.861
12.4956 -17.6353 0.245393 619.731 408.79
-0.551878 -12.0861 -4.87954 569.163 424.93
-0.321289 -9.18617 -7.6423 569.879 435.106
-0.103137 -6.29786 -10.4289 570.554 445.225
0.106692 -3.42042 -13.0847 571.176 455.348
-2.73231 0.178261 -6.06106 558.11 470.981
-1.17599 0.579135 -7.03731 564.185 472.555
0.480487 0.682414 -7.91662 570.697 473.049
2.00419 0.387318 -6.88116 576.439 472.676
3.35862 -0.205905 -5.94325 581.618 471.082
-11.7974 -11.2223 -1.16869 525 426.76
-10.3416 -12.1635 -0.99783 530.792 423.579
-8.53483 -12.4517 -0.832186 537.782 422.988
-6.93828 -11.8811 -0.748202 543.777 425.608
-8.47057 -11.131 -0.986257 537.748 428.013
-10.1911 -10.925 -0.997111 531.081 428.366
4.86651 -12.4824 -0.609541 589.32 426.321
6.33284 -13.1929 -0.75568 595.156 423.912
8.11995 -13.1883 -0.935888 602.066 424.313
9.64239 -12.4352 -1.08227 607.774 427.531
8.12618 -11.9279 -0.888279 601.785 429.165
6.43311 -11.9458 -0.841852 595.265 428.688
-4.25355 9.69613 -2.79812 549.418 508.277
-2.86811 8.26331 -4.90591 555.475 502.367
-1.2336 7.00315 -6.59562 562.373 497.333
0.73274 7.1377 -8.30906 570.224 497.722
2.63152 6.79445 -6.38343 577.257 497.582
4.33174 7.84588 -4.69947 583.242 502.652
5.74331 9.16025 -2.59828 587.978 508.808
4.6515 10.6328 -4.02169 583.693 513.664
3.05755 11.6263 -5.17873 577.539 516.653
1.02865 12.0519 -6.6223 569.898 517.252
-1.05656 11.817 -5.37923 561.699 516.278
-2.82026 10.9998 -4.19868 554.886 513.129
-0.624978 8.83478 -5.05395 564 505.069
0.841308 8.65251 -7.17907 570.078 503.968
2.26554 8.72614 -4.77869 575.099 505.479
2.29461 9.17097 -4.3518 575.027 507.347
0.9186 9.57017 -6.14547 569.969 507.881
-0.537909 9.28565 -4.57163 564.141 506.995
3 20 21 23
3 21 22 23
3 0 1 36
3 15 16 45
3 0 17 36
3 16 26 45
3 17 18 37
3 25 26 44
3 17 36 37
3 26 44 45
3 18 19 38
3 24 25 43
3 18 37 38
3 25 43 44
3 19 20 38
3 23 24 43
3 20 21 39
3 22 23 42
3 20 38 39
3 23 42 43
3 21 22 27
3 21 27 39
3 22 27 42
3 27 28 42
3 27 28 39
3 28 42 47
3 28 39 40
3 1 36 41
3 15 45 46
3 1 2 41
3 14 15 46
3 28 29 40
3 28 29 47
3 2 40 41
3 14 46 47
3 2 29 40
3 14 29 47
3 2 3 29
3 13 14 29
3 29 30 31
3 29 30 35
3 3 29 31
3 13 29 35
3 30 32 33
3 30 33 34
3 30 31 32
3 30 34 35
3 3 4 31
3 12 13 35
3 4 5 48
3 11 12 54
3 5 6 48
3 10 11 54
3 6 48 59
3 10 54 55
3 6 7 59
3 9 10 55
3 7 58 59
3 9 55 56
3 8 57 58
3 8 56 57
3 7 8 58
3 8 9 56
3 4 31 48
3 12 35 54
3 31 48 49
3 35 53 54
3 31 49 50
3 35 52 53
3 31 32 50
3 34 35 52
3 32 33 50
3 33 34 52
3 33 50 51
3 33 51 52
3 48 49 60
3 49 60 50
3 50 60 61
3 50 51 61
3 51 52 61
3 61 62 52
3 52 53 62
3 53 54 62
3 54 55 63
3 55 56 63
3 56 63 64
3 56 57 64
3 64 65 57
3 57 58 65
3 58 59 65
3 48 59 65
