ply
format ascii 1.0
element vertex 66
property float x
property float y
property float z
property float u
property float v
element face 91
property list uchar int vertex_indices
end_header
-20.0102 -5.98835 21.2358 490.85 452.32
-19.2625 -0.64188 20.7601 492.431 472.781
-18.2517 4.6553 20.2041 495.052 493.092
-16.9321 9.82803 18.1896 499.146 512.377
-14.9766 14.6222 13.4813 506.251 529.217
-11.9403 18.6697 7.91706 517.856 543.125
-8.07672 21.9452 3.13066 532.71 554.646
-3.61565 24.3466 -1.10327 549.994 563.226
1.45528 24.9421 -4.66626 569.975 565.355
6.60605 23.7083 -0.877204 589.465 563.702
10.8011 20.5458 3.33443 605.7 554.587
14.1345 16.4965 8.07888 618.754 542.072
16.5871 11.9033 13.5795 628.429 527.562
17.9913 6.93997 18.178 634.319 510.953
18.6269 1.8475 20.1698 637.734 492.505
18.8186 -3.2895 20.6084 639.721 473.088
18.6448 -8.43141 21.0045 640.309 453.534
-15.797 -15.6124 0.0767661 513.205 407.449
-13.4186 -16.9095 -1.45325 522.959 402.476
-10.7446 -17.3655 -2.85855 533.612 400.858
-8.05549 -17.2566 -4.24722 544.174 401.412
-5.43922 -16.6241 -5.47127 554.293 404.022
3.02955 -16.9367 -5.54512 586.984 405.13
5.32104 -17.7855 -4.25013 595.8 403.077
7.76019 -18.1851 -2.84066 605.048 402.833
10.2683 -18.184 -1.38171 614.449 404.164
12.6649 -17.399 0.224245 623.195 408.528
-0.424511 -11.5347 -4.86553 572.179 425.147
-0.179608 -8.57094 -7.66467 572.841 435.34
0.0479078 -5.62708 -10.567 573.459 445.408
0.261523 -2.6966 -13.3372 574.005 455.478
-2.94986 0.489337 -6.28451 559.603 469.851
-1.21331 0.888598 -7.15168 566.335 471.481
0.602158 1.00462 -7.94852 573.43 472.08
2.24338 0.685045 -7.02841 579.671 471.71
3.75426 0.0785817 -6.17995 585.497 470.174
-12.1382 -10.8232 -0.921342 526.226 426.354
-10.4732 -11.7063 -1.00112 532.876 423.399
-8.55017 -11.9355 -1.03623 540.344 423.037
-6.81535 -11.3259 -0.920353 546.844 425.899
-8.55964 -10.8505 -0.971392 540.016 427.215
-10.3902 -10.6737 -0.956756 532.922 427.393
4.82602 -11.8857 -0.809698 591.779 427.016
6.41883 -12.6426 -0.983351 598.135 424.483
8.30463 -12.7196 -0.975546 605.412 424.712
10.0124 -12.0447 -0.884009 611.795 427.806
8.34364 -11.6651 -0.88984 605.275 428.796
6.55253 -11.6466 -0.861581 598.371 428.385
-6.39773 8.96167 -2.74648 543.536 502.864
-4.48516 7.14792 -4.86882 551.732 495.527
-2.07805 5.85401 -6.51842 561.616 490.522
0.656889 5.88195 -8.19578 572.426 490.654
3.30172 5.5567 -6.32895 582.368 490.95
5.74593 6.55382 -4.66637 591.232 496.164
7.68917 8.20072 -2.54064 597.919 503.927
6.08231 10.2289 -3.92586 591.451 510.644
3.77253 11.5612 -5.00886 582.404 514.634
1.00633 12.047 -6.45317 571.881 515.103
-1.84274 11.8294 -5.19098 560.752 514.033
-4.36194 10.7527 -4.09447 551.143 509.694
-2.2803 7.87209 -5.16187 560.083 498.779
0.771985 7.63149 -7.38692 572.278 497.733
3.74156 7.5692 -4.87051 583.29 499.408
3.88772 8.94898 -4.36139 583.409 504.95
0.91357 9.49579 -6.32846 572.16 505.367
-2.18106 9.26818 -4.59191 560.007 504.398
3 20 21 23
3 21 22 23
3 0 1 36
3 15 16 45
3 0 17 36
3 16 26 45
3 17 18 37
3 25 26 44
3 17 36 37
3 26 44 45
3 18 19 38
3 24 25 43
3 18 37 38
3 25 43 44
3 19 20 38
3 23 24 43
3 20 21 39
3 22 23 42
3 20 38 39
3 23 42 43
3 21 22 27
3 21 27 39
3 22 27 42
3 27 28 42
3 27 28 39
3 28 42 47
3 28 39 40
3 1 36 41
3 15 45 46
3 1 2 41
3 14 15 46
3 28 29 40
3 28 29 47
3 2 40 41
3 14 46 47
3 2 29 40
3 14 29 47
3 2 3 29
3 13 14 29
3 29 30 31
3 29 30 35
3 3 29 31
3 13 29 35
3 30 32 33
3 30 33 34
3 30 31 32
3 30 34 35
3 3 4 31
3 12 13 35
3 4 5 48
3 11 12 54
3 5 6 48
3 10 11 54
3 6 48 59
3 10 54 55
3 6 7 59
3 9 10 55
3 7 58 59
3 9 55 56
3 8 57 58
3 8 56 57
3 7 8 58
3 8 9 56
3 4 31 48
3 12 35 54
3 31 48 49
3 35 53 54
3 31 49 50
3 35 52 53
3 31 32 50
3 34 35 52
3 32 33 50
3 33 34 52
3 33 50 51
3 33 51 52
3 48 49 60
3 49 60 50
3 50 60 61
3 50 51 61
3 51 52 61
3 61 62 52
3 52 53 62
3 53 54 62
3 54 55 63
3 55 56 63
3 56 63 64
3 56 57 64
3 64 65 57
3 57 58 65
3 58 59 65
3 48 59 65
