ply
format ascii 1.0
element vertex 66
property float x
property float y
property float z
property float u
property float v
element face 91
property list uchar int vertex_indices
end_header
-19.8445 -5.97571 21.0067 490.686 453.562
-19.0638 -0.627902 20.455 492.506 474.265
-17.9729 4.66761 19.9694 495.524 494.865
-16.4911 9.79965 18.2756 500.338 514.612
-14.4401 14.4813 13.4479 508.096 531.932
-11.5545 18.567 7.87482 519.377 546.967
-7.89207 22.0239 3.15122 533.643 560.002
-3.55458 24.6145 -1.02718 550.622 570.012
1.50285 25.256 -4.58813 570.736 572.847
6.61468 23.936 -0.799047 590.056 570.082
10.5947 20.5724 3.35337 605.428 559.231
13.6641 16.3873 8.01632 617.378 545.109
15.9706 11.8271 13.499 626.304 529.56
17.5336 7.0283 18.1965 632.573 512.688
18.3723 2.02536 19.8873 636.699 494.039
18.6679 -3.05178 20.2586 639.01 474.61
18.5527 -8.1328 20.7143 639.718 455.083
-15.7394 -15.9272 0.0891137 513.22 410.619
-13.5338 -17.4518 -1.44381 522.43 404.894
-10.8734 -18.0205 -2.80401 533.129 403.023
-8.16188 -17.8695 -4.23583 543.864 403.925
-5.53597 -17.148 -5.49413 554.093 407.054
3.03861 -17.4488 -5.4887 587.315 408.112
5.31535 -18.3884 -4.17148 596.081 405.424
7.76184 -18.8387 -2.72891 605.358 404.703
10.2688 -18.7372 -1.32765 614.742 406.117
12.5256 -17.7118 0.269471 622.894 411.085
-0.481776 -11.9599 -4.85401 572.233 428.564
-0.264099 -9.02434 -7.6766 572.926 439.203
-0.0599266 -6.09581 -10.4648 573.561 449.819
0.135477 -3.17335 -13.0522 574.123 460.464
-2.71505 0.325585 -6.09195 560.84 475.094
-1.1477 0.776463 -7.05213 566.983 476.984
0.533366 0.901443 -7.90682 573.624 477.673
2.06687 0.591398 -6.87748 579.42 477.147
3.4101 -0.0453092 -5.95567 584.583 475.282
-11.8723 -11.3108 -1.19287 527.298 429.102
-10.4183 -12.2088 -0.989857 533.099 426.065
-8.63507 -12.5125 -0.789198 540.026 425.407
-7.04638 -11.9826 -0.732931 546.027 427.879
-8.5724 -11.2559 -0.990107 540.001 430.221
-10.2777 -11.0552 -0.999752 533.361 430.553
4.98271 -12.5759 -0.600992 592.65 428.733
6.43755 -13.2256 -0.70155 598.454 426.574
8.19426 -13.2088 -0.911105 605.284 427.037
9.69671 -12.4882 -1.08429 610.951 430.162
8.19383 -12.0243 -0.878805 604.986 431.619
6.52514 -12.0502 -0.840109 598.533 431.098
-3.76169 9.79739 -2.81089 553.811 512.271
-2.56395 8.31792 -4.96031 559.238 506.294
-1.08499 7.01378 -6.62588 565.611 501.197
0.749289 7.16025 -8.35307 573.016 501.776
2.51126 6.83158 -6.38169 579.51 501.489
4.04916 7.9511 -4.73067 584.848 506.649
5.25476 9.3588 -2.61071 588.735 512.962
4.30346 10.7044 -3.98506 585.006 517.545
2.88801 11.616 -5.13948 579.543 520.391
1.04758 12.0092 -6.63937 572.635 521.033
-0.855335 11.7693 -5.35863 565.078 519.956
-2.44993 11.001 -4.16934 558.862 516.895
-0.263409 8.90249 -5.05789 568.008 509.12
0.868715 8.72843 -7.13954 572.848 508.186
1.95903 8.85293 -4.74461 576.549 509.587
1.94966 9.11197 -4.32841 576.365 510.696
0.940538 9.45329 -6.0993 572.738 511.281
-0.148436 9.16636 -4.5777 568.291 510.297
3 20 21 23
3 21 22 23
3 0 1 36
3 15 16 45
3 0 17 36
3 16 26 45
3 17 18 37
3 25 26 44
3 17 36 37
3 26 44 45
3 18 19 38
3 24 25 43
3 18 37 38
3 25 43 44
3 19 20 38
3 23 24 43
3 20 21 39
3 22 23 42
3 20 38 39
3 23 42 43
3 21 22 27
3 21 27 39
3 22 27 42
3 27 28 42
3 27 28 39
3 28 42 47
3 28 39 40
3 1 36 41
3 15 45 46
3 1 2 41
3 14 15 46
3 28 29 40
3 28 29 47
3 2 40 41
3 14 46 47
3 2 29 40
3 14 29 47
3 2 3 29
3 13 14 29
3 29 30 31
3 29 30 35
3 3 29 31
3 13 29 35
3 30 32 33
3 30 33 34
3 30 31 32
3 30 34 35
3 3 4 31
3 12 13 35
3 4 5 48
3 11 12 54
3 5 6 48
3 10 11 54
3 6 48 59
3 10 54 55
3 6 7 59
3 9 10 55
3 7 58 59
3 9 55 56
3 8 57 58
3 8 56 57
3 7 8 58
3 8 9 56
3 4 31 48
3 12 35 54
3 31 48 49
3 35 53 54
3 31 49 50
3 35 52 53
3 31 32 50
3 34 35 52
3 32 33 50
3 33 34 52
3 33 50 51
3 33 51 52
3 48 49 60
3 49 60 50
3 50 60 61
3 50 51 61
3 51 52 61
3 61 62 52
3 52 53 62
3 53 54 62
3 54 55 63
3 55 56 63
3 56 63 64
3 56 57 64
3 64 65 57
3 57 58 65
3 58 59 65
3 48 59 65
