ply
format ascii 1.0
element vertex 66
property float x
property float y
property float z
property float u
property float v
element face 91
property list uchar int vertex_indices
end_header
-19.8053 -5.85098 21.0626 490.841 452.882
-19.0319 -0.513125 20.5672 492.442 473.732
-17.9734 4.77222 20.0493 495.168 494.457
-16.5384 9.89578 18.2306 499.627 514.447
-14.501 14.5754 13.4799 507.061 532.407
-11.5663 18.6015 7.89123 518.305 547.951
-7.85349 21.9631 3.12349 532.608 561.273
-3.50892 24.4952 -1.061 549.492 571.652
1.52766 25.1081 -4.62347 569.487 574.886
6.63964 23.797 -0.792708 589.016 571.888
10.6664 20.4731 3.34435 604.841 560.821
13.7927 16.322 8.06662 617.3 546.383
16.098 11.7403 13.5759 626.556 530.169
17.5726 6.89201 18.1891 632.82 512.536
18.3191 1.86944 19.9596 636.805 493.553
18.5492 -3.21828 20.3377 639.048 473.941
18.3882 -8.30897 20.7721 639.765 454.214
-15.6476 -15.9744 0.100346 513.46 411.356
-13.4082 -17.4065 -1.41282 522.812 406.191
-10.7664 -17.9229 -2.80017 533.449 404.715
-8.09185 -17.7814 -4.22998 544.037 405.794
-5.50126 -17.0862 -5.48381 554.114 409.026
3.23728 -17.4363 -5.53237 588.125 410.158
5.4542 -18.3022 -4.21868 596.738 407.647
7.82728 -18.7039 -2.77231 605.804 407.004
10.2587 -18.626 -1.33336 614.964 408.237
12.4834 -17.6937 0.257713 623.058 412.751
-0.411615 -11.9662 -4.84566 572.324 430.451
-0.182662 -9.02291 -7.6359 572.881 441.478
0.0302742 -6.09303 -10.4615 573.386 452.444
0.228774 -3.17388 -13.1466 573.814 463.386
-2.67564 0.221275 -6.10858 560.367 476.883
-1.09863 0.60669 -7.06342 566.546 478.672
0.571374 0.71226 -7.92605 573.147 479.418
2.07056 0.436117 -6.90534 578.862 478.942
3.41668 -0.119887 -5.9452 584.072 477.327
-11.9234 -11.2225 -1.09167 526.795 430.662
-10.4105 -12.157 -0.967853 532.903 427.489
-8.56457 -12.4373 -0.854251 540.124 426.947
-6.93868 -11.8289 -0.766991 546.247 429.787
-8.52571 -11.1256 -0.970982 539.93 432.028
-10.2835 -10.9336 -0.970666 533.056 432.271
4.92161 -12.3849 -0.654638 592.4 431.038
6.40799 -13.1093 -0.772516 598.389 428.633
8.22346 -13.1199 -0.925995 605.463 429.085
9.77561 -12.3527 -1.0612 611.295 432.484
8.23087 -11.8633 -0.904873 605.138 433.966
6.5158 -11.8827 -0.868109 598.483 433.407
-4.60286 9.61936 -2.80825 549.696 513.337
-3.11905 8.15934 -4.9201 556.229 507.75
-1.37646 6.90186 -6.58928 563.632 503.095
0.685084 7.03767 -8.31044 571.894 503.929
2.65839 6.71084 -6.38766 579.305 503.54
4.42906 7.77768 -4.71425 585.586 508.46
5.8801 9.15597 -2.60813 590.463 514.568
4.74696 10.706 -4.01451 585.881 520.027
3.07105 11.7398 -5.15058 579.29 523.373
0.959867 12.1608 -6.59861 571.235 524.166
-1.22989 11.9027 -5.35347 562.592 522.743
-3.09171 11.0144 -4.21373 555.416 518.951
-0.905705 8.7665 -5.09875 564.679 510.709
0.785622 8.59273 -7.25981 571.668 510.164
2.4084 8.67335 -4.76816 577.505 511.349
2.45151 9.23826 -4.32662 577.438 513.625
0.870959 9.6373 -6.17891 571.519 514.418
-0.814695 9.34246 -4.59763 564.784 513.052
3 20 21 23
3 21 22 23
3 0 1 36
3 15 16 45
3 0 17 36
3 16 26 45
3 17 18 37
3 25 26 44
3 17 36 37
3 26 44 45
3 18 19 38
3 24 25 43
3 18 37 38
3 25 43 44
3 19 20 38
3 23 24 43
3 20 21 39
3 22 23 42
3 20 38 39
3 23 42 43
3 21 22 27
3 21 27 39
3 22 27 42
3 27 28 42
3 27 28 39
3 28 42 47
3 28 39 40
3 1 36 41
3 15 45 46
3 1 2 41
3 14 15 46
3 28 29 40
3 28 29 47
3 2 40 41
3 14 46 47
3 2 29 40
3 14 29 47
3 2 3 29
3 13 14 29
3 29 30 31
3 29 30 35
3 3 29 31
3 13 29 35
3 30 32 33
3 30 33 34
3 30 31 32
3 30 34 35
3 3 4 31
3 12 13 35
3 4 5 48
3 11 12 54
3 5 6 48
3 10 11 54
3 6 48 59
3 10 54 55
3 6 7 59
3 9 10 55
3 7 58 59
3 9 55 56
3 8 57 58
3 8 56 57
3 7 8 58
3 8 9 56
3 4 31 48
3 12 35 54
3 31 48 49
3 35 53 54
3 31 49 50
3 35 52 53
3 31 32 50
3 34 35 52
3 32 33 50
3 33 34 52
3 33 50 51
3 33 51 52
3 48 49 60
3 49 60 50
3 50 60 61
3 50 51 61
3 51 52 61
3 61 62 52
3 52 53 62
3 53 54 62
3 54 55 63
3 55 56 63
3 56 63 64
3 56 57 64
3 64 65 57
3 57 58 65
3 58 59 65
3 48 59 65
