ply
format ascii 1.0
element vertex 66
property float x
property float y
property float z
property float u
property float v
element face 91
property list uchar int vertex_indices
end_header
-20.3023 -5.48897 21.1274 489.073 452.377
-19.5587 -0.363192 20.7017 490.71 471.708
-18.5238 4.7055 20.2293 493.47 490.877
-17.1235 9.64538 18.1628 497.816 508.983
-14.9741 14.2411 13.4867 505.361 524.886
-11.783 18.1698 7.94885 517.108 538.174
-7.84381 21.3996 3.22938 531.772 549.357
-3.33447 23.8026 -1.04988 548.749 557.749
1.7774 24.3588 -4.58077 568.375 559.644
6.82967 23.2496 -0.911168 587.411 558.261
11.068 20.3836 3.35529 603.719 550.303
14.5022 16.6127 8.10636 617.143 538.935
16.9448 12.1656 13.6936 626.88 525.121
18.1728 7.18511 18.4002 632.232 508.624
18.6959 1.97842 20.406 635.25 489.967
18.9083 -3.28734 20.8644 637.268 470.361
18.8258 -8.55334 21.345 638.166 450.689
-16.0189 -15.4123 0.118756 509.915 407.237
-13.5956 -16.7505 -1.44243 519.591 402.144
-10.8588 -17.2139 -2.89685 530.234 400.471
-8.11127 -17.1328 -4.29689 540.782 400.877
-5.45 -16.5269 -5.5256 550.859 403.311
3.01104 -17.0626 -5.4949 583.07 403.417
5.56722 -17.9863 -4.24039 592.852 401.099
8.26232 -18.4001 -2.83834 603.023 400.8
11.0043 -18.2694 -1.37213 613.235 402.591
13.5415 -17.249 0.252509 622.44 407.753
-0.737575 -11.8066 -4.85416 567.528 422.564
-0.424667 -8.62519 -7.63298 568.246 433.471
-0.118851 -5.47142 -10.5797 568.963 444.202
0.177685 -2.33289 -13.4262 569.637 454.916
-3.16982 0.757471 -6.3267 555.451 468.704
-1.45695 1.20014 -7.2118 561.934 470.43
0.344094 1.31615 -8.01915 568.822 470.979
2.0682 0.955688 -7.13722 575.353 470.42
3.65198 0.280883 -6.20438 581.422 468.662
-12.1296 -10.5858 -0.845904 523.61 426
-10.5108 -11.5517 -0.998365 529.997 422.699
-8.59493 -11.7573 -1.09713 537.322 422.361
-6.87508 -11.1253 -1.00101 543.682 425.213
-8.58437 -10.6264 -0.987289 537.079 426.673
-10.3895 -10.4195 -0.966328 530.182 427.011
4.9866 -11.8504 -0.849768 588.822 425.506
6.61258 -12.7184 -1.00108 595.212 422.576
8.54029 -12.778 -0.951081 602.531 422.854
10.2708 -12.0476 -0.823905 608.905 426.093
8.56557 -11.6533 -0.900741 602.352 427.121
6.75144 -11.6092 -0.887332 595.461 426.84
-7.04353 8.79803 -2.74445 538.456 499.548
-4.80406 7.28101 -4.80583 547.53 493.525
-2.23673 6.25128 -6.46299 557.688 489.59
0.520603 6.33352 -8.13894 568.302 489.887
3.21295 5.9156 -6.42182 578.43 489.703
5.85425 6.62676 -4.72929 588.097 493.753
8.22436 7.851 -2.61839 596.569 499.845
6.29369 9.87598 -3.98216 588.907 506.425
3.70768 11.1292 -5.08875 578.917 510.04
0.807381 11.6 -6.37965 567.942 510.549
-2.14203 11.4732 -5.16352 556.659 509.844
-4.84874 10.5291 -4.1036 546.509 506.053
-2.41821 8.16996 -5.21564 556.408 497.301
0.604479 8.04079 -7.50919 568.145 496.608
3.56535 7.80955 -5.11163 579.175 497.48
3.67244 8.59101 -4.52696 579.332 500.698
0.654221 9.02199 -6.47136 567.988 500.754
-2.42901 8.94979 -4.6024 556.116 500.495
3 20 21 23
3 21 22 23
3 0 1 36
3 15 16 45
3 0 17 36
3 16 26 45
3 17 18 37
3 25 26 44
3 17 36 37
3 26 44 45
3 18 19 38
3 24 25 43
3 18 37 38
3 25 43 44
3 19 20 38
3 23 24 43
3 20 21 39
3 22 23 42
3 20 38 39
3 23 42 43
3 21 22 27
3 21 27 39
3 22 27 42
3 27 28 42
3 27 28 39
3 28 42 47
3 28 39 40
3 1 36 41
3 15 45 46
3 1 2 41
3 14 15 46
3 28 29 40
3 28 29 47
3 2 40 41
3 14 46 47
3 2 29 40
3 14 29 47
3 2 3 29
3 13 14 29
3 29 30 31
3 29 30 35
3 3 29 31
3 13 29 35
3 30 32 33
3 30 33 34
3 30 31 32
3 30 34 35
3 3 4 31
3 12 13 35
3 4 5 48
3 11 12 54
3 5 6 48
3 10 11 54
3 6 48 59
3 10 54 55
3 6 7 59
3 9 10 55
3 7 58 59
3 9 55 56
3 8 57 58
3 8 56 57
3 7 8 58
3 8 9 56
3 4 31 48
3 12 35 54
3 31 48 49
3 35 53 54
3 31 49 50
3 35 52 53
3 31 32 50
3 34 35 52
3 32 33 50
3 33 34 52
3 33 50 51
3 33 51 52
3 48 49 60
3 49 60 50
3 50 60 61
3 50 51 61
3 51 52 61
3 61 62 52
3 52 53 62
3 53 54 62
3 54 55 63
3 55 56 63
3 56 63 64
3 56 57 64
3 64 65 57
3 57 58 65
3 58 59 65
3 48 59 65
