ply
format ascii 1.0
element vertex 66
property float x
property float y
property float z
property float u
property float v
element face 91
property list uchar int vertex_indices
end_header
-20.2943 -5.63906 21.3221 490.011 453.323
-19.4894 -0.355151 20.8041 491.675 473.478
-18.4345 4.88558 20.3043 494.295 493.545
-17.1058 9.96341 18.2481 498.25 512.802
-15.1048 14.5708 13.4779 505.323 529.995
-11.9626 18.3508 7.8967 517.083 544.239
-8.00836 21.3476 3.16957 531.998 555.897
-3.52649 23.53 -1.10274 549.066 564.699
1.50317 23.9576 -4.60192 568.572 567.146
6.61095 22.859 -0.857997 587.626 565.095
10.8495 19.9158 3.36102 603.822 555.891
14.2774 16.1168 8.06193 617.106 543.298
16.7905 11.7414 13.5913 626.95 528.405
18.1723 6.94519 18.2254 632.769 511.439
18.77 1.9574 20.2242 636.098 493.063
18.974 -3.10776 20.59 638.221 473.998
18.8281 -8.17046 21.0774 638.997 454.863
-16.2755 -15.7722 0.156122 511.487 412.397
-13.8558 -17.1379 -1.39518 521.287 407.644
-11.1181 -17.6071 -2.81962 532.022 406.4
-8.37485 -17.4785 -4.20313 542.605 407.43
-5.7093 -16.8318 -5.40839 552.721 410.431
3.53238 -17.2458 -5.46749 587.864 411.491
5.79483 -18.071 -4.19368 596.46 409.233
8.20033 -18.4749 -2.7894 605.46 408.635
10.6871 -18.4935 -1.30977 614.649 409.533
13.0758 -17.7108 0.314998 623.219 413.463
-0.325849 -11.3193 -4.82141 571.491 432.952
-0.065791 -8.25345 -7.678 572.087 444.142
0.176702 -5.21107 -10.6477 572.64 455.219
0.400256 -2.1757 -13.4326 573.094 466.296
-2.95536 0.993415 -6.357 558.351 478.576
-1.18261 1.45559 -7.24865 565.084 480.677
0.686286 1.59242 -8.04206 572.256 481.591
2.36289 1.2612 -7.10369 578.549 480.979
3.88882 0.606197 -6.17461 584.363 479.095
-12.197 -10.9871 -0.799403 525.765 431.522
-10.65 -11.9478 -0.929972 531.915 428.301
-8.80281 -12.1376 -1.02744 538.983 428.093
-7.20237 -11.3261 -0.938176 544.807 431.639
-8.82725 -10.7857 -0.969595 538.505 433.217
-10.5672 -10.6649 -0.935976 531.873 433.183
5.24991 -11.9237 -0.808155 592.137 432.954
6.68572 -12.8576 -0.932799 597.857 429.805
8.49341 -12.9638 -0.898341 604.731 429.925
10.085 -12.175 -0.800099 610.527 433.384
8.55561 -11.6482 -0.886873 604.599 434.928
6.8648 -11.5914 -0.873176 598.174 434.663
-6.69146 8.92156 -2.80602 541.413 508.16
-4.39945 7.57706 -4.93621 550.817 503.35
-1.93933 6.60588 -6.59399 560.678 500.085
0.644706 6.74936 -8.28132 570.703 501.073
3.11339 6.35722 -6.4288 579.866 500.615
5.54038 7.06156 -4.75135 588.595 504.268
7.75698 8.22922 -2.60966 596.322 509.698
5.99277 10.0927 -3.93414 589.333 516.022
3.5569 11.1788 -5.00004 579.974 519.255
0.85804 11.5361 -6.37339 569.87 519.598
-1.91914 11.4023 -5.1776 559.19 518.507
-4.52385 10.5428 -4.12426 549.389 514.691
-1.91244 8.52907 -5.33638 560.041 507.597
0.742277 8.48611 -7.50182 570.463 507.815
3.27883 8.32184 -5.00924 579.716 508.352
3.35736 8.648 -4.43054 579.829 509.71
0.774231 8.90275 -6.38759 570.288 509.597
-1.90502 8.87197 -4.6878 559.869 509.011
3 20 21 23
3 21 22 23
3 0 1 36
3 15 16 45
3 0 17 36
3 16 26 45
3 17 18 37
3 25 26 44
3 17 36 37
3 26 44 45
3 18 19 38
3 24 25 43
3 18 37 38
3 25 43 44
3 19 20 38
3 23 24 43
3 20 21 39
3 22 23 42
3 20 38 39
3 23 42 43
3 21 22 27
3 21 27 39
3 22 27 42
3 27 28 42
3 27 28 39
3 28 42 47
3 28 39 40
3 1 36 41
3 15 45 46
3 1 2 41
3 14 15 46
3 28 29 40
3 28 29 47
3 2 40 41
3 14 46 47
3 2 29 40
3 14 29 47
3 2 3 29
3 13 14 29
3 29 30 31
3 29 30 35
3 3 29 31
3 13 29 35
3 30 32 33
3 30 33 34
3 30 31 32
3 30 34 35
3 3 4 31
3 12 13 35
3 4 5 48
3 11 12 54
3 5 6 48
3 10 11 54
3 6 48 59
3 10 54 55
3 6 7 59
3 9 10 55
3 7 58 59
3 9 55 56
3 8 57 58
3 8 56 57
3 7 8 58
3 8 9 56
3 4 31 48
3 12 35 54
3 31 48 49
3 35 53 54
3 31 49 50
3 35 52 53
3 31 32 50
3 34 35 52
3 32 33 50
3 33 34 52
3 33 50 51
3 33 51 52
3 48 49 60
3 49 60 50
3 50 60 61
3 50 51 61
3 51 52 61
3 61 62 52
3 52 53 62
3 53 54 62
3 54 55 63
3 55 56 63
3 56 63 64
3 56 57 64
3 64 65 57
3 57 58 65
3 58 59 65
3 48 59 65
