ply
format ascii 1.0
element vertex 66
property float x
property float y
property float z
property float u
property float v
element face 91
property list uchar int vertex_indices
end_header
-20.4808 -5.62441 21.2329 492.103 452.102
-19.7621 -0.42393 20.8301 493.6 471.575
-18.7606 4.72056 20.3295 496.186 490.874
-17.3874 9.77772 18.1944 500.421 509.319
-15.2715 14.5339 13.418 507.893 525.824
-12.0383 18.5265 7.84934 519.859 539.459
-7.99562 21.6728 3.19413 534.942 550.484
-3.40164 23.907 -1.052 552.258 558.395
1.68975 24.4432 -4.67181 571.764 560.324
6.75885 23.2164 -0.85735 590.561 558.484
11.0502 20.2896 3.37198 606.789 550.247
14.5418 16.4323 8.05104 620.175 538.498
17.0361 11.8581 13.6327 629.861 524.158
18.3535 6.80414 18.3292 635.368 507.386
18.9341 1.65266 20.4174 638.501 489.07
19.1193 -3.5066 20.8369 640.387 469.988
18.9683 -8.66977 21.2497 641.013 450.804
-16.2087 -15.3193 0.140208 513.489 408.926
-13.8335 -16.8478 -1.46732 523.009 403.207
-11.0137 -17.4102 -2.87703 533.936 401.289
-8.13876 -17.2845 -4.24465 544.898 401.973
-5.34914 -16.58 -5.46075 555.378 404.857
3.11449 -17.0225 -5.5076 587.282 405.348
5.64692 -18.02 -4.23364 596.855 402.75
8.33815 -18.4908 -2.83079 606.878 402.211
11.0699 -18.3657 -1.37286 616.902 403.932
13.5372 -17.29 0.268227 625.676 409.208
-0.533114 -11.3172 -4.86781 572.108 425.989
-0.283858 -8.32616 -7.64381 572.713 436.179
-0.0441842 -5.35525 -10.5663 573.308 446.235
0.18368 -2.40413 -13.3912 573.849 456.252
-3.16204 0.570306 -6.28721 559.554 469.219
-1.42257 1.01849 -7.17265 566.105 471.003
0.402192 1.15645 -8.02 573.045 471.662
2.11186 0.800149 -7.08199 579.42 471.124
3.68738 0.145131 -6.1315 585.362 469.439
-12.2564 -10.2961 -0.913373 527.266 428.315
-10.6139 -11.3452 -1.0695 533.712 424.753
-8.6159 -11.5641 -1.11906 541.277 424.426
-6.84436 -10.8429 -0.913282 547.727 427.653
-8.59 -10.2174 -0.977117 541.028 429.522
-10.4676 -10.0155 -0.968805 533.925 429.8
5.19624 -11.5379 -0.83745 593.11 428.161
6.84332 -12.445 -1.02286 599.542 425.12
8.83046 -12.5046 -1.00794 607.019 425.411
10.5553 -11.6584 -0.887031 613.275 429.061
8.83459 -11.1617 -0.921401 606.697 430.465
6.97411 -11.1381 -0.921539 599.703 430.078
-6.58489 8.95217 -2.78287 544.17 501.014
-4.62838 7.20396 -4.88408 552.24 494.179
-2.22476 5.95869 -6.50243 561.8 489.522
0.487938 6.04894 -8.11159 572.195 489.94
3.12559 5.65448 -6.40736 581.956 489.788
5.59395 6.62254 -4.75548 590.759 494.666
7.64092 8.17102 -2.64323 597.773 501.782
5.79514 9.86907 -3.93513 590.612 507.167
3.40149 10.8697 -5.08591 581.542 509.859
0.764188 11.2704 -6.47997 571.736 510.152
-1.93668 11.1469 -5.20121 561.44 509.487
-4.4607 10.4034 -4.07989 551.981 506.489
-2.16568 7.95674 -5.20955 561.354 497.499
0.583592 7.83301 -7.3906 572.02 496.909
3.26564 7.67429 -5.01948 581.796 497.903
3.31069 8.38965 -4.4705 581.714 500.797
0.642096 8.76106 -6.45749 571.882 500.748
-2.10738 8.67403 -4.63144 561.317 500.415
3 20 21 23
3 21 22 23
3 0 1 36
3 15 16 45
3 0 17 36
3 16 26 45
3 17 18 37
3 25 26 44
3 17 36 37
3 26 44 45
3 18 19 38
3 24 25 43
3 18 37 38
3 25 43 44
3 19 20 38
3 23 24 43
3 20 21 39
3 22 23 42
3 20 38 39
3 23 42 43
3 21 22 27
3 21 27 39
3 22 27 42
3 27 28 42
3 27 28 39
3 28 42 47
3 28 39 40
3 1 36 41
3 15 45 46
3 1 2 41
3 14 15 46
3 28 29 40
3 28 29 47
3 2 40 41
3 14 46 47
3 2 29 40
3 14 29 47
3 2 3 29
3 13 14 29
3 29 30 31
3 29 30 35
3 3 29 31
3 13 29 35
3 30 32 33
3 30 33 34
3 30 31 32
3 30 34 35
3 3 4 31
3 12 13 35
3 4 5 48
3 11 12 54
3 5 6 48
3 10 11 54
3 6 48 59
3 10 54 55
3 6 7 59
3 9 10 55
3 7 58 59
3 9 55 56
3 8 57 58
3 8 56 57
3 7 8 58
3 8 9 56
3 4 31 48
3 12 35 54
3 31 48 49
3 35 53 54
3 31 49 50
3 35 52 53
3 31 32 50
3 34 35 52
3 32 33 50
3 33 34 52
3 33 50 51
3 33 51 52
3 48 49 60
3 49 60 50
3 50 60 61
3 50 51 61
3 51 52 61
3 61 62 52
3 52 53 62
3 53 54 62
3 54 55 63
3 55 56 63
3 56 63 64
3 56 57 64
3 64 65 57
3 57 58 65
3 58 59 65
3 48 59 65
