ply
format ascii 1.0
element vertex 66
property float x
property float y
property float z
property float u
property float v
element face 91
property list uchar int vertex_indices
end_header
-19.8758 -6.0527 21.263 488.188 449.656
-19.1293 -0.698996 20.8267 489.958 470.319
-18.1417 4.60442 20.2182 492.706 490.767
-16.847 9.80341 18.1424 496.919 510.198
-14.896 14.6518 13.5314 504.188 527.247
-11.8441 18.7235 7.9523 516.076 541.11
-7.96131 21.9802 3.08105 531.261 552.358
-3.51415 24.3972 -1.11342 548.717 560.817
1.54104 25.0056 -4.66728 568.839 562.735
6.63132 23.7017 -0.892771 588.3 560.708
10.7618 20.4812 3.28698 604.391 551.231
14.0635 16.4244 8.1311 617.336 538.632
16.4806 11.8013 13.6532 626.854 523.946
17.8594 6.81522 18.1302 632.591 507.115
18.4637 1.75367 20.1807 635.738 488.667
18.6272 -3.33006 20.6478 637.441 469.283
18.4479 -8.42133 21.0158 637.829 449.74
-15.6967 -15.4392 0.0665618 510.11 404.475
-13.2835 -16.7569 -1.44258 520.046 399.266
-10.5657 -17.2473 -2.86873 530.967 397.366
-7.81963 -17.1601 -4.25585 541.861 397.723
-5.14407 -16.5323 -5.48267 552.332 400.226
2.84968 -16.7974 -5.59448 583.504 401.1
5.1706 -17.6277 -4.28667 592.499 399.071
7.63777 -18.0022 -2.86679 601.942 398.892
10.1613 -17.9791 -1.3793 611.503 400.294
12.5692 -17.1969 0.205886 620.427 404.646
-0.414893 -11.7236 -4.91149 569.548 420.228
-0.184447 -8.76547 -7.64337 570.235 430.434
0.0285639 -5.83138 -10.5413 570.888 440.465
0.22818 -2.91681 -13.3929 571.486 450.439
-3.0535 0.188413 -6.31536 556.836 464.952
-1.28132 0.59144 -7.14365 563.777 466.554
0.564389 0.713415 -7.92643 571.06 467.109
2.22848 0.388978 -7.04476 577.458 466.674
3.77457 -0.217594 -6.20806 583.468 465.1
-11.9974 -10.6952 -0.885364 523.589 423.262
-10.3087 -11.5799 -1.00871 530.378 420.198
-8.36306 -11.7876 -1.11293 538.01 419.821
-6.61422 -11.164 -0.929991 544.641 422.743
-8.39014 -10.7249 -0.951123 537.638 423.996
-10.2323 -10.5462 -0.957375 530.433 424.234
4.71136 -11.6906 -0.871454 588.803 423.5
6.31885 -12.4455 -1.07081 595.259 420.882
8.21924 -12.5384 -0.989397 602.658 421.024
9.93743 -11.8496 -0.860145 609.164 424.166
8.25107 -11.4814 -0.916323 602.531 425.15
6.45303 -11.4743 -0.88337 595.531 424.755
-7.33172 8.74921 -2.68868 537.658 498.685
-5.21355 6.82565 -4.7758 546.68 490.792
-2.49759 5.47396 -6.43792 557.827 485.453
0.59409 5.41376 -8.13197 570.151 485.181
3.59739 5.12832 -6.26041 581.583 485.688
6.35182 6.14391 -4.57772 591.786 491.073
8.50792 7.88294 -2.50083 599.433 499.291
6.77049 10.2891 -3.94996 592.375 507.485
4.2107 11.9655 -5.02458 582.221 512.835
1.03068 12.5924 -6.4365 569.947 513.819
-2.26718 12.2953 -5.19312 556.978 512.449
-5.0962 10.9046 -4.12383 546.108 506.887
-3.04041 7.37035 -5.1557 555.074 493.249
0.702621 7.01998 -7.51538 570.107 491.703
4.36966 6.97147 -4.86617 583.938 493.651
4.65972 9.45945 -4.32987 584.416 503.587
0.951371 10.2799 -6.3827 570.151 504.89
-2.91622 9.88305 -4.56716 554.892 503.264
3 20 21 23
3 21 22 23
3 0 1 36
3 15 16 45
3 0 17 36
3 16 26 45
3 17 18 37
3 25 26 44
3 17 36 37
3 26 44 45
3 18 19 38
3 24 25 43
3 18 37 38
3 25 43 44
3 19 20 38
3 23 24 43
3 20 21 39
3 22 23 42
3 20 38 39
3 23 42 43
3 21 22 27
3 21 27 39
3 22 27 42
3 27 28 42
3 27 28 39
3 28 42 47
3 28 39 40
3 1 36 41
3 15 45 46
3 1 2 41
3 14 15 46
3 28 29 40
3 28 29 47
3 2 40 41
3 14 46 47
3 2 29 40
3 14 29 47
3 2 3 29
3 13 14 29
3 29 30 31
3 29 30 35
3 3 29 31
3 13 29 35
3 30 32 33
3 30 33 34
3 30 31 32
3 30 34 35
3 3 4 31
3 12 13 35
3 4 5 48
3 11 12 54
3 5 6 48
3 10 11 54
3 6 48 59
3 10 54 55
3 6 7 59
3 9 10 55
3 7 58 59
3 9 55 56
3 8 57 58
3 8 56 57
3 7 8 58
3 8 9 56
3 4 31 48
3 12 35 54
3 31 48 49
3 35 53 54
3 31 49 50
3 35 52 53
3 31 32 50
3 34 35 52
3 32 33 50
3 33 34 52
3 33 50 51
3 33 51 52
3 48 49 60
3 49 60 50
3 50 60 61
3 50 51 61
3 51 52 61
3 61 62 52
3 52 53 62
3 53 54 62
3 54 55 63
3 55 56 63
3 56 63 64
3 56 57 64
3 64 65 57
3 57 58 65
3 58 59 65
3 48 59 65
