ply
format ascii 1.0
element vertex 66
property float x
property float y
property float z
property float u
property float v
element face 91
property list uchar int vertex_indices
end_header
-20.3224 -5.38012 21.2176 489.745 452.717
-19.5166 -0.266948 20.7918 491.446 472.026
-18.4489 4.79206 20.3014 494.16 491.178
-17.0585 9.7247 18.186 498.273 509.264
-14.929 14.306 13.5196 505.506 525.165
-11.7518 18.1876 7.96771 516.976 538.354
-7.83666 21.3628 3.22908 531.365 549.428
-3.37554 23.7338 -1.07643 548.003 557.807
1.67897 24.2904 -4.6103 567.316 559.84
6.74672 23.1849 -0.925848 586.501 558.635
11.0171 20.3146 3.32635 603.095 550.796
14.4729 16.5249 8.10347 616.805 539.486
16.9222 12.0459 13.7122 626.816 525.645
18.1462 7.05252 18.3618 632.406 509.122
18.6549 1.87008 20.3984 635.565 490.594
18.8563 -3.36061 20.8522 637.71 471.135
18.7549 -8.59408 21.3516 638.705 451.6
-16.1747 -15.1738 0.11772 509.968 408.154
-13.7228 -16.6508 -1.44803 519.798 402.621
-10.8877 -17.204 -2.89062 530.819 400.727
-8.01807 -17.1409 -4.27964 541.799 401.186
-5.23156 -16.52 -5.49654 552.297 403.796
3.03599 -17.0656 -5.518 583.78 404.045
5.55477 -17.9932 -4.2471 593.467 401.787
8.22103 -18.415 -2.83479 603.564 401.536
10.9436 -18.3362 -1.34889 613.731 403.216
13.4892 -17.3816 0.255654 622.979 408.196
-0.516855 -11.6345 -4.83182 568.779 423.798
-0.191332 -8.4949 -7.63226 569.404 434.545
0.122799 -5.38417 -10.6123 570.009 445.104
0.416129 -2.28811 -13.487 570.53 455.647
-3.08309 0.746348 -6.37249 555.822 469.076
-1.31748 1.20712 -7.2346 562.464 470.945
0.538438 1.33694 -8.02283 569.531 471.623
2.26013 0.98133 -7.15391 576.077 471.129
3.84832 0.308602 -6.19868 582.196 469.439
-12.2741 -10.5587 -0.761726 523.573 426.263
-10.6049 -11.5695 -0.978106 530.193 422.832
-8.62711 -11.781 -1.14633 537.76 422.518
-6.85908 -11.0836 -1.04852 544.263 425.682
-8.6257 -10.5994 -0.982983 537.43 427.039
-10.4843 -10.3935 -0.937849 530.326 427.313
5.0387 -11.7877 -0.858709 589.529 426.438
6.68942 -12.7259 -1.01267 596.054 423.301
8.67474 -12.8179 -0.943791 603.597 423.539
10.4495 -12.0363 -0.813199 610.099 427.034
8.70856 -11.6208 -0.906994 603.396 428.074
6.85067 -11.5691 -0.889869 596.339 427.755
-7.42702 8.6598 -2.7435 536.892 499.19
-5.03257 7.20024 -4.79088 546.542 493.505
-2.34221 6.23863 -6.44198 557.143 489.944
0.498843 6.34011 -8.12539 568.03 490.417
3.23794 5.93771 -6.4347 578.373 490.375
5.9281 6.62078 -4.73245 588.234 494.413
8.34233 7.83791 -2.61712 596.868 500.559
6.34266 9.89347 -3.99742 588.851 507.166
3.6601 11.1355 -5.08899 578.442 510.637
0.682173 11.5789 -6.3687 567.147 510.939
-2.35184 11.42 -5.14091 555.585 510.005
-5.1457 10.4373 -4.09279 545.172 505.959
-2.74557 8.09002 -5.27339 555.009 497.295
0.547086 7.99424 -7.59321 567.717 496.885
3.7237 7.76471 -5.10498 579.601 497.95
3.83973 8.64874 -4.51177 579.749 501.561
0.585546 9.07766 -6.50742 567.473 501.431
-2.77243 8.98177 -4.62412 554.609 500.918
3 20 21 23
3 21 22 23
3 0 1 36
3 15 16 45
3 0 17 36
3 16 26 45
3 17 18 37
3 25 26 44
3 17 36 37
3 26 44 45
3 18 19 38
3 24 25 43
3 18 37 38
3 25 43 44
3 19 20 38
3 23 24 43
3 20 21 39
3 22 23 42
3 20 38 39
3 23 42 43
3 21 22 27
3 21 27 39
3 22 27 42
3 27 28 42
3 27 28 39
3 28 42 47
3 28 39 40
3 1 36 41
3 15 45 46
3 1 2 41
3 14 15 46
3 28 29 40
3 28 29 47
3 2 40 41
3 14 46 47
3 2 29 40
3 14 29 47
3 2 3 29
3 13 14 29
3 29 30 31
3 29 30 35
3 3 29 31
3 13 29 35
3 30 32 33
3 30 33 34
3 30 31 32
3 30 34 35
3 3 4 31
3 12 13 35
3 4 5 48
3 11 12 54
3 5 6 48
3 10 11 54
3 6 48 59
3 10 54 55
3 6 7 59
3 9 10 55
3 7 58 59
3 9 55 56
3 8 57 58
3 8 56 57
3 7 8 58
3 8 9 56
3 4 31 48
3 12 35 54
3 31 48 49
3 35 53 54
3 31 49 50
3 35 52 53
3 31 32 50
3 34 35 52
3 32 33 50
3 33 34 52
3 33 50 51
3 33 51 52
3 48 49 60
3 49 60 50
3 50 60 61
3 50 51 61
3 51 52 61
3 61 62 52
3 52 53 62
3 53 54 62
3 54 55 63
3 55 56 63
3 56 63 64
3 56 57 64
3 64 65 57
3 57 58 65
3 58 59 65
3 48 59 65
