ply
format ascii 1.0
element vertex 66
property float x
property float y
property float z
property float u
property float v
element face 91
property list uchar int vertex_indices
end_header
-20.0095 -6.03876 21.2812 490.813 450.701
-19.2656 -0.676814 20.8169 492.48 471.305
-18.2784 4.63765 20.2361 495.118 491.737
-16.9804 9.84027 18.1646 499.21 511.159
-15.0286 14.6801 13.511 506.307 528.211
-11.9648 18.7286 7.91136 518.037 542.084
-8.05413 21.9429 3.09007 533.126 553.308
-3.58208 24.306 -1.11189 550.497 561.676
1.4759 24.8944 -4.6732 570.463 563.652
6.61412 23.6381 -0.859599 590.069 561.814
10.8176 20.4737 3.31364 606.46 552.561
14.1775 16.4363 8.09382 619.704 540.003
16.6321 11.8146 13.6201 629.473 525.298
18.0248 6.82246 18.1506 635.371 508.458
18.6303 1.74615 20.1767 638.621 489.986
18.7841 -3.35526 20.6118 640.369 470.599
18.5861 -8.46014 21.0033 640.763 451.09
-15.8122 -15.4629 0.0729426 512.495 406.149
-13.4278 -16.7933 -1.43717 522.266 400.971
-10.725 -17.2774 -2.8513 533.052 399.173
-7.99561 -17.1673 -4.24062 543.795 399.676
-5.33747 -16.5266 -5.46605 554.111 402.275
3.07197 -16.8318 -5.57486 586.737 403.193
5.37322 -17.6483 -4.27693 595.64 401.213
7.81517 -18.02 -2.86539 604.965 401.03
10.3093 -17.9732 -1.39225 614.382 402.496
12.6645 -17.1494 0.216959 623.055 406.975
-0.375111 -11.5068 -4.90449 572.028 423.091
-0.139227 -8.6155 -7.66453 572.665 433.049
0.0774013 -5.74416 -10.5555 573.253 442.868
0.278299 -2.88913 -13.3603 573.771 452.659
-3.05489 0.277209 -6.30041 559.056 467.109
-1.25559 0.705337 -7.14849 566.043 468.838
0.624147 0.838594 -7.94015 573.403 469.479
2.3074 0.501391 -7.03322 579.86 469.012
3.8594 -0.132246 -6.18907 585.889 467.343
-12.0761 -10.7175 -0.920782 525.967 424.909
-10.4338 -11.5584 -1.00686 532.535 422.056
-8.55248 -11.7832 -1.06359 539.876 421.645
-6.84357 -11.2145 -0.91062 546.329 424.335
-8.56073 -10.7543 -0.953733 539.582 425.648
-10.356 -10.583 -0.959861 532.596 425.847
4.83594 -11.7398 -0.82358 591.631 425.326
6.40844 -12.434 -1.02659 597.911 422.966
8.24574 -12.5086 -1.00632 605.035 423.156
9.91068 -11.857 -0.917335 611.308 426.125
8.26996 -11.5068 -0.921655 604.877 427.053
6.52142 -11.5023 -0.870701 598.103 426.647
-6.90613 8.8224 -2.72602 541.576 500.571
-4.87526 6.96463 -4.81776 550.192 493.019
-2.30008 5.64369 -6.47705 560.721 487.861
0.630667 5.63056 -8.16191 572.317 487.811
3.46635 5.32711 -6.29265 583.08 488.193
6.06913 6.33446 -4.61492 592.657 493.471
8.1136 8.02787 -2.51593 599.847 501.432
6.41789 10.1959 -3.90598 592.978 508.723
3.97659 11.6548 -5.00903 583.35 513.224
1.00867 12.1959 -6.45217 571.955 513.912
-2.06243 11.9408 -5.19335 559.944 512.705
-4.74011 10.7426 -4.09504 549.704 507.902
-2.66658 7.53713 -5.18441 558.657 495.621
0.736659 7.24315 -7.4625 572.237 494.349
4.05455 7.19904 -4.86929 584.695 496.171
4.27976 9.21106 -4.329 585.004 504.204
0.940321 9.90317 -6.35137 572.223 505.122
-2.54529 9.57051 -4.58538 558.55 503.736
3 20 21 23
3 21 22 23
3 0 1 36
3 15 16 45
3 0 17 36
3 16 26 45
3 17 18 37
3 25 26 44
3 17 36 37
3 26 44 45
3 18 19 38
3 24 25 43
3 18 37 38
3 25 43 44
3 19 20 38
3 23 24 43
3 20 21 39
3 22 23 42
3 20 38 39
3 23 42 43
3 21 22 27
3 21 27 39
3 22 27 42
3 27 28 42
3 27 28 39
3 28 42 47
3 28 39 40
3 1 36 41
3 15 45 46
3 1 2 41
3 14 15 46
3 28 29 40
3 28 29 47
3 2 40 41
3 14 46 47
3 2 29 40
3 14 29 47
3 2 3 29
3 13 14 29
3 29 30 31
3 29 30 35
3 3 29 31
3 13 29 35
3 30 32 33
3 30 33 34
3 30 31 32
3 30 34 35
3 3 4 31
3 12 13 35
3 4 5 48
3 11 12 54
3 5 6 48
3 10 11 54
3 6 48 59
3 10 54 55
3 6 7 59
3 9 10 55
3 7 58 59
3 9 55 56
3 8 57 58
3 8 56 57
3 7 8 58
3 8 9 56
3 4 31 48
3 12 35 54
3 31 48 49
3 35 53 54
3 31 49 50
3 35 52 53
3 31 32 50
3 34 35 52
3 32 33 50
3 33 34 52
3 33 50 51
3 33 51 52
3 48 49 60
3 49 60 50
3 50 60 61
3 50 51 61
3 51 52 61
3 61 62 52
3 52 53 62
3 53 54 62
3 54 55 63
3 55 56 63
3 56 63 64
3 56 57 64
3 64 65 57
3 57 58 65
3 58 59 65
3 48 59 65
