ply
format ascii 1.0
element vertex 66
property float x
property float y
property float z
property float u
property float v
element face 91
property list uchar int vertex_indices
end_header
-19.7453 -5.98144 21.0284 488.203 453.076
-18.9457 -0.617785 20.4626 490.188 473.77
-17.8498 4.69329 19.94 493.325 494.353
-16.3776 9.85148 18.2656 498.193 513.989
-14.3649 14.5625 13.4799 505.899 530.817
-11.5393 18.6701 7.87747 517.063 545.199
-7.9446 22.16 3.11121 531.181 557.713
-3.67071 24.7959 -1.05241 548.004 567.334
1.33403 25.4965 -4.61673 567.983 569.896
6.46475 24.1204 -0.781682 587.407 567.359
10.4091 20.6334 3.35856 602.653 556.492
13.4375 16.3463 8.03341 614.421 542.515
15.7753 11.7455 13.5021 623.42 527.464
17.4359 6.94656 18.1489 630.007 511.158
18.3392 1.96863 19.8285 634.308 492.813
18.6571 -3.07256 20.2161 636.619 473.573
18.5479 -8.1235 20.6313 637.271 454.199
-15.5761 -16.1052 0.0839487 510.997 406.834
-13.3864 -17.5245 -1.41565 520.122 401.312
-10.7892 -18.0455 -2.78372 530.594 399.414
-8.15113 -17.9003 -4.22406 541.087 400.07
-5.59216 -17.1945 -5.47667 551.106 402.945
3.10094 -17.4764 -5.51262 584.888 404.011
5.29345 -18.3645 -4.19719 593.324 401.641
7.65111 -18.7781 -2.74497 602.263 401.199
10.0676 -18.7019 -1.32285 611.325 402.652
12.2656 -17.7677 0.26347 619.307 407.428
-0.439534 -12.1275 -4.83061 569.79 424.053
-0.230077 -9.1387 -7.65935 570.497 434.545
-0.0375238 -6.1573 -10.4599 571.134 445.014
0.144913 -3.18426 -13.0767 571.696 455.52
-2.5885 0.249663 -6.054 558.865 470.844
-1.0492 0.659382 -7.0463 564.944 472.423
0.594106 0.776102 -7.92051 571.469 472.943
2.06137 0.487708 -6.87071 577.01 472.605
3.35176 -0.101055 -5.96155 581.962 471.008
-11.9657 -11.3473 -1.18884 524.167 425.614
-10.4679 -12.2659 -0.969738 530.141 422.525
-8.62877 -12.5905 -0.776659 537.307 421.806
-6.98793 -12.0536 -0.73263 543.538 424.306
-8.56348 -11.3109 -0.992069 537.311 426.68
-10.3204 -11.1031 -0.994447 530.451 427.043
4.83929 -12.5994 -0.608067 589.502 425.197
6.32889 -13.2454 -0.724888 595.45 423.027
8.12947 -13.231 -0.917267 602.469 423.457
9.66727 -12.4942 -1.08792 608.298 426.62
8.12785 -12.0297 -0.87681 602.178 428.112
6.41762 -12.0697 -0.834435 595.547 427.548
-3.73624 9.73009 -2.80325 551.57 508.444
-2.48191 8.35343 -4.93999 557.189 502.606
-0.991332 7.11597 -6.628 563.6 497.539
0.823545 7.27731 -8.38247 570.961 497.929
2.55703 6.93737 -6.34949 577.344 497.843
4.08168 7.97719 -4.67772 582.674 502.892
5.2947 9.28298 -2.55816 586.642 509.066
4.38472 10.6861 -4.00551 583.089 513.693
2.98507 11.6709 -5.12968 577.666 516.708
1.11751 12.1001 -6.6426 570.636 517.31
-0.815259 11.821 -5.38073 562.946 516.242
-2.42097 10.9905 -4.20564 556.669 513.093
-0.294003 8.89987 -5.05197 565.57 505.218
0.945743 8.75111 -7.15528 570.844 504.131
2.12817 8.84403 -4.69875 574.904 505.745
2.15527 9.204 -4.28577 574.841 507.303
1.03045 9.62128 -6.05102 570.746 507.945
-0.189462 9.27668 -4.5733 565.791 506.887
3 20 21 23
3 21 22 23
3 0 1 36
3 15 16 45
3 0 17 36
3 16 26 45
3 17 18 37
3 25 26 44
3 17 36 37
3 26 44 45
3 18 19 38
3 24 25 43
3 18 37 38
3 25 43 44
3 19 20 38
3 23 24 43
3 20 21 39
3 22 23 42
3 20 38 39
3 23 42 43
3 21 22 27
3 21 27 39
3 22 27 42
3 27 28 42
3 27 28 39
3 28 42 47
3 28 39 40
3 1 36 41
3 15 45 46
3 1 2 41
3 14 15 46
3 28 29 40
3 28 29 47
3 2 40 41
3 14 46 47
3 2 29 40
3 14 29 47
3 2 3 29
3 13 14 29
3 29 30 31
3 29 30 35
3 3 29 31
3 13 29 35
3 30 32 33
3 30 33 34
3 30 31 32
3 30 34 35
3 3 4 31
3 12 13 35
3 4 5 48
3 11 12 54
3 5 6 48
3 10 11 54
3 6 48 59
3 10 54 55
3 6 7 59
3 9 10 55
3 7 58 59
3 9 55 56
3 8 57 58
3 8 56 57
3 7 8 58
3 8 9 56
3 4 31 48
3 12 35 54
3 31 48 49
3 35 53 54
3 31 49 50
3 35 52 53
3 31 32 50
3 34 35 52
3 32 33 50
3 33 34 52
3 33 50 51
3 33 51 52
3 48 49 60
3 49 60 50
3 50 60 61
3 50 51 61
3 51 52 61
3 61 62 52
3 52 53 62
3 53 54 62
3 54 55 63
3 55 56 63
3 56 63 64
3 56 57 64
3 64 65 57
3 57 58 65
3 58 59 65
3 48 59 65
