ply
format ascii 1.0
element vertex 66
property float x
property float y
property float z
property float u
property float v
element face 91
property list uchar int vertex_indices
end_header
-20.0115 -5.91402 21.2416 490.781 453.648
-19.2333 -0.570109 20.7581 492.749 473.799
-18.1995 4.72502 20.2007 495.716 493.79
-16.8632 9.89056 18.2169 500.174 512.679
-14.8947 14.6533 13.4918 507.722 528.877
-11.8588 18.6618 7.91332 519.674 542.063
-7.99259 21.8874 3.12738 534.774 552.862
-3.5375 24.2466 -1.10351 552.172 560.787
1.52188 24.7858 -4.63155 572.09 562.309
6.62514 23.5267 -0.863793 590.946 560.538
10.7521 20.3439 3.34999 606.385 551.481
14.0368 16.3194 8.09898 618.674 539.303
16.4589 11.7712 13.6031 627.622 525.307
17.8836 6.8778 18.2003 633.043 509.341
18.5445 1.84921 20.1563 636.164 491.42
18.7635 -3.22829 20.5775 637.95 472.477
18.6265 -8.3115 20.9858 638.385 453.424
-15.9652 -15.5845 0.0932811 512.805 407.895
-13.5459 -16.9645 -1.4314 522.631 402.509
-10.7818 -17.4374 -2.84163 533.557 400.686
-8.00131 -17.2908 -4.24361 544.417 401.214
-5.30303 -16.6035 -5.47711 554.816 403.847
3.06302 -16.9323 -5.55343 586.741 404.508
5.40337 -17.8181 -4.25233 595.545 402.326
7.89917 -18.2485 -2.82453 604.82 401.961
10.4641 -18.2274 -1.35695 614.256 403.339
12.8711 -17.3564 0.252287 622.885 407.961
-0.427858 -11.645 -4.89124 572.222 424.004
-0.201534 -8.64079 -7.67192 573.074 434.082
0.00872334 -5.65734 -10.5671 573.895 444.023
0.206334 -2.68719 -13.3427 574.644 453.968
-3.02555 0.447534 -6.27648 560.151 468.455
-1.28232 0.897385 -7.1609 566.886 470.136
0.554231 1.03014 -7.96986 574.026 470.676
2.21558 0.696433 -7.04053 580.214 470.245
3.72697 0.0465499 -6.15932 585.907 468.561
-12.102 -10.9158 -0.941394 526.775 425.946
-10.4759 -11.8416 -0.989491 533.165 422.8
-8.56129 -12.0663 -1.00965 540.502 422.385
-6.85974 -11.3901 -0.873019 546.809 425.401
-8.57187 -10.8722 -0.954877 540.204 426.923
-10.3831 -10.7031 -0.960352 533.277 427.139
4.90949 -11.9611 -0.797424 591.703 426.009
6.4607 -12.7645 -0.956186 597.807 423.255
8.33392 -12.8403 -0.954997 604.952 423.404
9.99861 -12.1024 -0.896261 611.123 426.608
8.36735 -11.6744 -0.897817 604.827 427.847
6.60082 -11.661 -0.86735 598.094 427.502
-6.35303 9.02656 -2.7552 544.949 501.803
-4.40751 7.33882 -4.86526 553.164 494.863
-2.03749 6.09736 -6.52652 562.803 489.923
0.637215 6.13656 -8.22129 573.347 489.88
3.22258 5.80278 -6.33554 582.842 490.121
5.62371 6.74654 -4.66095 591.419 495.048
7.58151 8.26852 -2.55551 598.096 502.265
5.99175 10.2393 -3.93531 591.942 508.686
3.72317 11.5397 -5.03189 583.281 512.551
0.993751 12.0298 -6.45374 573.104 513.089
-1.82987 11.8137 -5.21764 562.131 512.209
-4.32365 10.7665 -4.12493 552.615 508.196
-2.11366 7.9846 -5.19979 561.834 497.676
0.752156 7.75152 -7.42404 573.277 496.394
3.54372 7.70216 -4.90149 583.359 498.063
3.69891 9.05398 -4.36103 583.553 503.469
0.900968 9.60023 -6.32911 573.223 503.942
-2.01604 9.35518 -4.60927 561.795 503.163
3 20 21 23
3 21 22 23
3 0 1 36
3 15 16 45
3 0 17 36
3 16 26 45
3 17 18 37
3 25 26 44
3 17 36 37
3 26 44 45
3 18 19 38
3 24 25 43
3 18 37 38
3 25 43 44
3 19 20 38
3 23 24 43
3 20 21 39
3 22 23 42
3 20 38 39
3 23 42 43
3 21 22 27
3 21 27 39
3 22 27 42
3 27 28 42
3 27 28 39
3 28 42 47
3 28 39 40
3 1 36 41
3 15 45 46
3 1 2 41
3 14 15 46
3 28 29 40
3 28 29 47
3 2 40 41
3 14 46 47
3 2 29 40
3 14 29 47
3 2 3 29
3 13 14 29
3 29 30 31
3 29 30 35
3 3 29 31
3 13 29 35
3 30 32 33
3 30 33 34
3 30 31 32
3 30 34 35
3 3 4 31
3 12 13 35
3 4 5 48
3 11 12 54
3 5 6 48
3 10 11 54
3 6 48 59
3 10 54 55
3 6 7 59
3 9 10 55
3 7 58 59
3 9 55 56
3 8 57 58
3 8 56 57
3 7 8 58
3 8 9 56
3 4 31 48
3 12 35 54
3 31 48 49
3 35 53 54
3 31 49 50
3 35 52 53
3 31 32 50
3 34 35 52
3 32 33 50
3 33 34 52
3 33 50 51
3 33 51 52
3 48 49 60
3 49 60 50
3 50 60 61
3 50 51 61
3 51 52 61
3 61 62 52
3 52 53 62
3 53 54 62
3 54 55 63
3 55 56 63
3 56 63 64
3 56 57 64
3 64 65 57
3 57 58 65
3 58 59 65
3 48 59 65
