ply
format ascii 1.0
element vertex 66
property float x
property float y
property float z
property float u
property float v
element face 91
property list uchar int vertex_indices
end_header
-20.5201 -5.61013 21.2899 491.975 452.082
-19.7646 -0.382973 20.8608 493.457 471.633
-18.7434 4.7888 20.3306 495.962 491.009
-17.3706 9.8485 18.216 499.969 509.424
-15.2408 14.5513 13.4734 507.169 525.653
-11.9986 18.4902 7.85624 518.834 538.984
-7.9771 21.6502 3.16265 533.543 549.995
-3.39693 23.939 -1.09154 550.54 558.084
1.72448 24.4677 -4.71109 569.979 560.008
6.8414 23.2734 -0.887408 589.141 558.507
11.1595 20.3385 3.32681 605.731 550.444
14.6432 16.4667 8.05352 619.388 538.86
17.1107 11.9021 13.7008 629.326 524.781
18.3667 6.84562 18.3684 634.941 508.135
18.8916 1.63991 20.4064 638.106 489.668
19.0581 -3.59438 20.8542 640.085 470.352
18.9072 -8.83036 21.3296 640.871 450.954
-16.2589 -15.3529 0.170958 512.617 408.347
-13.8486 -16.8531 -1.4209 522.222 402.768
-11.0228 -17.3721 -2.85749 533.109 401.03
-8.16746 -17.2174 -4.23578 543.922 401.838
-5.41036 -16.4869 -5.44428 554.196 404.838
3.26406 -16.9667 -5.49676 586.9 405.419
5.74599 -17.969 -4.23188 596.364 402.872
8.3925 -18.4533 -2.82106 606.294 402.364
11.0992 -18.3703 -1.33628 616.292 404.021
13.58 -17.3426 0.290619 625.175 409.2
-0.484824 -11.2337 -4.84301 571.229 426.053
-0.214014 -8.25453 -7.65848 571.723 436.112
0.0454834 -5.29634 -10.6034 572.192 446.038
0.289104 -2.35346 -13.4443 572.595 455.945
-3.11247 0.709144 -6.35295 558.32 469.307
-1.36612 1.18108 -7.21812 564.835 471.201
0.471512 1.3256 -8.02657 571.774 471.921
2.17981 0.966931 -7.12372 578.197 471.418
3.75024 0.294929 -6.16248 584.18 469.731
-12.2651 -10.2972 -0.832615 526.36 427.919
-10.6162 -11.2747 -1.04034 532.832 424.641
-8.66108 -11.4846 -1.17047 540.242 424.344
-6.91231 -10.8027 -0.998923 546.609 427.442
-8.64531 -10.2304 -0.987073 539.948 429.105
-10.4956 -10.0495 -0.954518 532.949 429.283
5.25181 -11.4886 -0.898888 592.456 428.278
6.88693 -12.3591 -1.05777 598.843 425.415
8.83426 -12.4207 -0.993947 606.165 425.748
10.5533 -11.6416 -0.853221 612.398 429.188
8.84421 -11.1835 -0.930148 605.866 430.395
7.01292 -11.1412 -0.938978 598.98 430.044
-7.18678 8.37646 -2.72464 540.624 498.275
-4.86234 6.9735 -4.81977 549.929 492.832
-2.26472 6.05774 -6.48668 560.088 489.456
0.469049 6.18619 -8.12576 570.477 490.027
3.11272 5.77173 -6.4216 580.349 489.898
5.71131 6.41371 -4.71127 589.769 493.703
8.05274 7.5885 -2.58681 598.042 499.594
6.1469 9.61235 -3.93755 590.476 506.078
3.57257 10.8428 -5.09965 580.594 509.492
0.694367 11.2972 -6.46764 569.798 509.842
-2.25721 11.1272 -5.20294 558.638 508.904
-4.97471 10.1498 -4.08584 548.588 504.956
-2.51187 7.87906 -5.26185 558.555 496.682
0.537437 7.84477 -7.5092 570.231 496.488
3.48834 7.5832 -5.05943 581.144 497.315
3.63094 8.39566 -4.45749 581.404 500.631
0.588315 8.82941 -6.4839 570.06 500.592
-2.55293 8.70524 -4.6243 558.119 500.013
3 20 21 23
3 21 22 23
3 0 1 36
3 15 16 45
3 0 17 36
3 16 26 45
3 17 18 37
3 25 26 44
3 17 36 37
3 26 44 45
3 18 19 38
3 24 25 43
3 18 37 38
3 25 43 44
3 19 20 38
3 23 24 43
3 20 21 39
3 22 23 42
3 20 38 39
3 23 42 43
3 21 22 27
3 21 27 39
3 22 27 42
3 27 28 42
3 27 28 39
3 28 42 47
3 28 39 40
3 1 36 41
3 15 45 46
3 1 2 41
3 14 15 46
3 28 29 40
3 28 29 47
3 2 40 41
3 14 46 47
3 2 29 40
3 14 29 47
3 2 3 29
3 13 14 29
3 29 30 31
3 29 30 35
3 3 29 31
3 13 29 35
3 30 32 33
3 30 33 34
3 30 31 32
3 30 34 35
3 3 4 31
3 12 13 35
3 4 5 48
3 11 12 54
3 5 6 48
3 10 11 54
3 6 48 59
3 10 54 55
3 6 7 59
3 9 10 55
3 7 58 59
3 9 55 56
3 8 57 58
3 8 56 57
3 7 8 58
3 8 9 56
3 4 31 48
3 12 35 54
3 31 48 49
3 35 53 54
3 31 49 50
3 35 52 53
3 31 32 50
3 34 35 52
3 32 33 50
3 33 34 52
3 33 50 51
3 33 51 52
3 48 49 60
3 49 60 50
3 50 60 61
3 50 51 61
3 51 52 61
3 61 62 52
3 52 53 62
3 53 54 62
3 54 55 63
3 55 56 63
3 56 63 64
3 56 57 64
3 64 65 57
3 57 58 65
3 58 59 65
3 48 59 65
