ply
format ascii 1.0
element vertex 66
property float x
property float y
property float z
property float u
property float v
element face 91
property list uchar int vertex_indices
end_header
-19.7704 -5.86246 21.1731 490.51 453.992
-18.9618 -0.478822 20.666 492.457 475.043
-17.888 4.8534 20.1125 495.457 495.953
-16.5001 10.0253 18.2453 499.975 516.085
-14.5419 14.7335 13.4976 507.386 534.049
-11.6191 18.7171 7.89844 518.889 549.285
-7.88112 21.974 3.10529 533.579 562.04
-3.53743 24.4012 -1.0918 550.709 571.826
1.46492 24.9481 -4.6327 570.724 574.578
6.57996 23.6401 -0.762585 590.174 571.45
10.5973 20.2937 3.38596 605.79 560.17
13.7173 16.1331 8.11846 618 545.602
16.0189 11.5527 13.6022 626.98 529.329
17.4975 6.74288 18.1563 632.997 511.794
18.247 1.79564 19.9638 636.75 493.059
18.4943 -3.21548 20.3204 638.848 473.693
18.3425 -8.22976 20.7355 639.385 454.227
-15.8044 -15.9264 0.0886608 512.485 412.124
-13.4758 -17.3834 -1.40873 522.185 406.775
-10.7521 -17.9135 -2.79271 533.176 405.149
-7.99587 -17.7682 -4.2113 544.138 406.152
-5.31999 -17.0642 -5.46413 554.62 409.338
3.15244 -17.303 -5.58513 587.65 410.504
5.40625 -18.1296 -4.25938 596.354 408.085
7.81253 -18.5043 -2.81461 605.519 407.484
10.2722 -18.4105 -1.36394 614.778 408.719
12.5301 -17.47 0.230808 623.02 413.222
-0.327375 -11.9949 -4.85583 572.696 430.408
-0.126628 -9.07868 -7.6322 573.317 441.311
0.0542725 -6.17894 -10.4755 573.879 452.133
0.220405 -3.29006 -13.1989 574.363 462.93
-2.71965 0.22912 -6.16104 560.703 477.123
-1.09177 0.630292 -7.08669 567.119 478.927
0.628741 0.742576 -7.93342 573.948 479.644
2.14733 0.470154 -6.92379 579.722 479.142
3.51247 -0.093094 -5.99417 584.985 477.456
-11.9409 -11.2741 -1.0298 526.609 430.985
-10.4086 -12.1704 -0.948677 532.768 427.897
-8.57329 -12.4296 -0.872515 539.953 427.36
-6.9526 -11.8064 -0.780216 546.087 430.205
-8.55919 -11.1757 -0.955292 539.722 432.226
-10.3084 -11.0037 -0.953679 532.877 432.458
4.94651 -12.2905 -0.732739 592.469 431.302
6.41692 -12.9785 -0.826907 598.372 428.977
8.19797 -13.0005 -0.932723 605.324 429.318
9.73013 -12.2463 -1.01628 611.117 432.619
8.20064 -11.8007 -0.917424 605.043 433.988
6.51587 -11.8368 -0.892758 598.495 433.431
-5.11903 9.60581 -2.81497 548.459 513.583
-3.51492 8.00952 -4.93143 555.496 507.402
-1.5908 6.66157 -6.59187 563.629 502.347
0.685821 6.74446 -8.30118 572.797 502.937
2.87276 6.45503 -6.34436 580.988 502.702
4.8176 7.58994 -4.67968 587.953 507.896
6.36788 9.1161 -2.58642 593.204 514.587
5.13187 10.7806 -3.96551 588.266 520.509
3.30462 11.8948 -5.08248 581.111 524.189
1.00886 12.3248 -6.55738 572.368 525.029
-1.38663 12.0679 -5.32836 562.873 523.648
-3.43876 11.1103 -4.21066 554.904 519.608
-1.23402 8.5868 -5.15398 564.271 510.178
0.802624 8.35636 -7.3158 572.67 509.409
2.77201 8.4669 -4.76002 579.802 510.781
2.85281 9.36223 -4.2954 579.809 514.366
0.932017 9.7936 -6.23913 572.616 515.221
-1.10772 9.49901 -4.63408 564.441 513.849
3 20 21 23
3 21 22 23
3 0 1 36
3 15 16 45
3 0 17 36
3 16 26 45
3 17 18 37
3 25 26 44
3 17 36 37
3 26 44 45
3 18 19 38
3 24 25 43
3 18 37 38
3 25 43 44
3 19 20 38
3 23 24 43
3 20 21 39
3 22 23 42
3 20 38 39
3 23 42 43
3 21 22 27
3 21 27 39
3 22 27 42
3 27 28 42
3 27 28 39
3 28 42 47
3 28 39 40
3 1 36 41
3 15 45 46
3 1 2 41
3 14 15 46
3 28 29 40
3 28 29 47
3 2 40 41
3 14 46 47
3 2 29 40
3 14 29 47
3 2 3 29
3 13 14 29
3 29 30 31
3 29 30 35
3 3 29 31
3 13 29 35
3 30 32 33
3 30 33 34
3 30 31 32
3 30 34 35
3 3 4 31
3 12 13 35
3 4 5 48
3 11 12 54
3 5 6 48
3 10 11 54
3 6 48 59
3 10 54 55
3 6 7 59
3 9 10 55
3 7 58 59
3 9 55 56
3 8 57 58
3 8 56 57
3 7 8 58
3 8 9 56
3 4 31 48
3 12 35 54
3 31 48 49
3 35 53 54
3 31 49 50
3 35 52 53
3 31 32 50
3 34 35 52
3 32 33 50
3 33 34 52
3 33 50 51
3 33 51 52
3 48 49 60
3 49 60 50
3 50 60 61
3 50 51 61
3 51 52 61
3 61 62 52
3 52 53 62
3 53 54 62
3 54 55 63
3 55 56 63
3 56 63 64
3 56 57 64
3 64 65 57
3 57 58 65
3 58 59 65
3 48 59 65
