ply
format ascii 1.0
element vertex 66
property float x
property float y
property float z
property float u
property float v
element face 91
property list uchar int vertex_indices
end_header
-19.8636 -5.88594 21.0909 489.666 452.805
-19.0984 -0.535575 20.5856 491.446 473.287
-18.0607 4.76591 20.0659 494.288 493.645
-16.6678 9.91419 18.2603 498.779 513.024
-14.669 14.6173 13.515 506.268 529.751
-11.7254 18.6418 7.90871 517.712 543.798
-7.97242 21.9654 3.14178 532.268 555.681
-3.58869 24.4465 -1.04741 549.334 564.715
1.46496 25.0348 -4.61957 569.3 566.905
6.5946 23.7408 -0.796999 588.575 564.681
10.6484 20.4394 3.36704 604.122 554.63
13.8313 16.3298 8.0855 616.406 541.474
16.1904 11.774 13.6108 625.475 526.703
17.6873 6.92544 18.2134 631.477 510.249
18.4356 1.89127 20.0062 635.189 491.843
18.6736 -3.21067 20.3987 637.226 472.523
18.5306 -8.31805 20.8107 637.796 453.094
-15.7453 -15.7485 0.0756795 511.852 408.227
-13.4675 -17.2096 -1.43901 521.238 402.643
-10.7843 -17.7503 -2.83381 531.942 400.729
-8.06282 -17.6292 -4.25884 542.643 401.346
-5.41954 -16.9558 -5.50515 552.881 404.124
3.04261 -17.2578 -5.55452 585.471 405.089
5.3375 -18.1515 -4.23971 594.245 402.74
7.79279 -18.5731 -2.78823 603.497 402.291
10.3117 -18.5018 -1.3367 612.878 403.744
12.6275 -17.5547 0.23255 621.25 408.542
-0.472326 -12.2123 -4.86907 570.651 423.768
-0.255665 -9.21008 -7.63411 571.311 434.277
-0.0530786 -6.22405 -10.4629 571.933 444.697
0.139252 -3.24931 -13.1782 572.497 455.113
-2.7442 0.227931 -6.10229 559.239 470.344
-1.1613 0.6414 -7.07298 565.41 471.962
0.522156 0.752928 -7.95154 572.021 472.486
2.04954 0.461797 -6.92019 577.759 472.144
3.41393 -0.131642 -5.96893 582.957 470.574
-11.7923 -11.1352 -1.0935 526.181 426.444
-10.318 -12.0402 -0.987418 532.037 423.392
-8.52405 -12.3194 -0.882507 538.974 422.816
-6.9213 -11.7604 -0.795707 544.984 425.393
-8.47159 -11.0817 -0.982678 538.904 427.529
-10.1815 -10.8853 -0.990782 532.291 427.846
4.98757 -12.3528 -0.700834 590.857 426.171
6.45432 -13.0272 -0.807218 596.671 423.921
8.21656 -13.0288 -0.924498 603.464 424.316
9.73148 -12.2949 -1.01852 609.13 427.472
8.21219 -11.8434 -0.902279 603.165 428.86
6.54232 -11.8697 -0.87104 596.75 428.349
-5.05505 9.45623 -2.80153 547.558 506.315
-3.37234 8.06628 -4.888 554.752 500.639
-1.47184 6.87992 -6.57373 562.656 495.948
0.705579 7.00219 -8.28014 571.322 496.326
2.80401 6.6574 -6.3485 579.092 496.261
4.73459 7.6139 -4.66028 585.96 501.042
6.39476 8.87372 -2.59076 591.643 507.058
5.12503 10.5278 -4.01653 586.651 512.534
3.28449 11.6323 -5.14136 579.538 515.875
0.999151 12.0748 -6.57658 570.93 516.453
-1.35817 11.8417 -5.35385 561.693 515.423
-3.39795 10.9334 -4.20498 553.848 511.862
-1.00958 8.70816 -5.12864 563.725 503.603
0.815697 8.5522 -7.26965 571.186 502.665
2.58086 8.57281 -4.81539 577.49 504.11
2.65358 9.13963 -4.34838 577.546 506.472
0.901409 9.55381 -6.22467 571.079 506.912
-0.946787 9.29203 -4.60856 563.729 506.048
3 20 21 23
3 21 22 23
3 0 1 36
3 15 16 45
3 0 17 36
3 16 26 45
3 17 18 37
3 25 26 44
3 17 36 37
3 26 44 45
3 18 19 38
3 24 25 43
3 18 37 38
3 25 43 44
3 19 20 38
3 23 24 43
3 20 21 39
3 22 23 42
3 20 38 39
3 23 42 43
3 21 22 27
3 21 27 39
3 22 27 42
3 27 28 42
3 27 28 39
3 28 42 47
3 28 39 40
3 1 36 41
3 15 45 46
3 1 2 41
3 14 15 46
3 28 29 40
3 28 29 47
3 2 40 41
3 14 46 47
3 2 29 40
3 14 29 47
3 2 3 29
3 13 14 29
3 29 30 31
3 29 30 35
3 3 29 31
3 13 29 35
3 30 32 33
3 30 33 34
3 30 31 32
3 30 34 35
3 3 4 31
3 12 13 35
3 4 5 48
3 11 12 54
3 5 6 48
3 10 11 54
3 6 48 59
3 10 54 55
3 6 7 59
3 9 10 55
3 7 58 59
3 9 55 56
3 8 57 58
3 8 56 57
3 7 8 58
3 8 9 56
3 4 31 48
3 12 35 54
3 31 48 49
3 35 53 54
3 31 49 50
3 35 52 53
3 31 32 50
3 34 35 52
3 32 33 50
3 33 34 52
3 33 50 51
3 33 51 52
3 48 49 60
3 49 60 50
3 50 60 61
3 50 51 61
3 51 52 61
3 61 62 52
3 52 53 62
3 53 54 62
3 54 55 63
3 55 56 63
3 56 63 64
3 56 57 64
3 64 65 57
3 57 58 65
3 58 59 65
3 48 59 65
