ply
format ascii 1.0
element vertex 66
property float x
property float y
property float z
property float u
property float v
element face 91
property list uchar int vertex_indices
end_header
-19.9004 -5.83578 21.1098 489.974 453.759
-19.1565 -0.518299 20.5894 491.745 473.974
-18.127 4.74909 20.0771 494.618 494.071
-16.7313 9.86798 18.2096 499.218 513.139
-14.7016 14.5551 13.4582 506.967 529.539
-11.7101 18.5519 7.8894 518.725 543.212
-7.93483 21.849 3.1068 533.466 554.736
-3.55037 24.3136 -1.08604 550.595 563.481
1.48776 24.9051 -4.61439 570.497 565.527
6.57787 23.602 -0.83086 589.432 563.363
10.6119 20.3192 3.35054 604.684 553.565
13.8054 16.2438 8.08269 616.779 540.769
16.209 11.7243 13.5642 625.789 526.394
17.7318 6.89269 18.1919 631.685 510.265
18.4849 1.88163 20.0475 635.281 492.131
18.7304 -3.19424 20.434 637.269 473.024
18.5922 -8.27401 20.8551 637.783 453.822
-15.7205 -15.8587 0.0882819 512.766 408.027
-13.3996 -17.2422 -1.42433 522.28 402.711
-10.7147 -17.718 -2.81535 532.956 400.99
-8.00912 -17.5627 -4.23223 543.577 401.666
-5.38715 -16.8682 -5.48729 553.722 404.44
3.00303 -17.1739 -5.53367 585.887 405.318
5.32482 -18.0808 -4.2216 594.684 402.971
7.80549 -18.518 -2.78517 603.956 402.504
10.3499 -18.4512 -1.34548 613.359 403.971
12.6916 -17.5039 0.241304 621.758 408.802
-0.498931 -11.7652 -4.862 571.141 425.325
-0.291162 -8.8462 -7.63644 571.886 435.354
-0.0972071 -5.94372 -10.4806 572.598 445.289
0.0884651 -3.05294 -13.1918 573.252 455.232
-2.96383 0.354355 -6.16743 559.292 470.328
-1.29262 0.808223 -7.09563 565.783 472.087
0.481204 0.935168 -7.9376 572.722 472.661
2.10603 0.609437 -6.95218 578.794 472.223
3.56133 -0.0428652 -6.05488 584.31 470.464
-11.8957 -11.1211 -1.02364 526.577 426.549
-10.3977 -12.0205 -0.961661 532.494 423.518
-8.59175 -12.266 -0.897708 539.441 423.053
-6.99749 -11.6548 -0.816808 545.384 425.804
-8.5707 -11.0275 -0.970272 539.261 427.743
-10.2855 -10.8566 -0.973035 532.665 427.972
5.03895 -12.2587 -0.741136 591.534 426.491
6.4944 -12.9817 -0.843936 597.284 424.054
8.26374 -13.0101 -0.90682 604.071 424.354
9.80198 -12.2861 -0.938836 609.799 427.475
8.28229 -11.8272 -0.883333 603.872 428.872
6.60956 -11.83 -0.865002 597.472 428.458
-5.33554 9.36933 -2.79576 547.476 505.447
-3.68563 7.75555 -4.90519 554.604 498.845
-1.66989 6.47116 -6.55968 562.96 493.773
0.675121 6.54749 -8.26307 572.281 493.943
2.95081 6.21042 -6.33128 580.639 494.009
5.02691 7.22962 -4.67465 587.992 499.076
6.71258 8.69545 -2.58077 593.656 505.927
5.4272 10.573 -3.98202 588.625 512.187
3.4875 11.8485 -5.09978 581.165 516.11
1.0509 12.3454 -6.55766 572.053 516.807
-1.46647 12.1012 -5.31764 562.211 515.766
-3.6327 11.0565 -4.18627 553.914 511.72
-1.28359 8.45673 -5.12131 563.681 502.016
0.806303 8.25442 -7.29686 572.192 500.869
2.84791 8.26337 -4.82736 579.461 502.415
2.94661 9.18461 -4.3565 579.53 506.139
0.927621 9.67295 -6.25442 572.112 506.726
-1.18914 9.393 -4.60841 563.722 505.814
3 20 21 23
3 21 22 23
3 0 1 36
3 15 16 45
3 0 17 36
3 16 26 45
3 17 18 37
3 25 26 44
3 17 36 37
3 26 44 45
3 18 19 38
3 24 25 43
3 18 37 38
3 25 43 44
3 19 20 38
3 23 24 43
3 20 21 39
3 22 23 42
3 20 38 39
3 23 42 43
3 21 22 27
3 21 27 39
3 22 27 42
3 27 28 42
3 27 28 39
3 28 42 47
3 28 39 40
3 1 36 41
3 15 45 46
3 1 2 41
3 14 15 46
3 28 29 40
3 28 29 47
3 2 40 41
3 14 46 47
3 2 29 40
3 14 29 47
3 2 3 29
3 13 14 29
3 29 30 31
3 29 30 35
3 3 29 31
3 13 29 35
3 30 32 33
3 30 33 34
3 30 31 32
3 30 34 35
3 3 4 31
3 12 13 35
3 4 5 48
3 11 12 54
3 5 6 48
3 10 11 54
3 6 48 59
3 10 54 55
3 6 7 59
3 9 10 55
3 7 58 59
3 9 55 56
3 8 57 58
3 8 56 57
3 7 8 58
3 8 9 56
3 4 31 48
3 12 35 54
3 31 48 49
3 35 53 54
3 31 49 50
3 35 52 53
3 31 32 50
3 34 35 52
3 32 33 50
3 33 34 52
3 33 50 51
3 33 51 52
3 48 49 60
3 49 60 50
3 50 60 61
3 50 51 61
3 51 52 61
3 61 62 52
3 52 53 62
3 53 54 62
3 54 55 63
3 55 56 63
3 56 63 64
3 56 57 64
3 64 65 57
3 57 58 65
3 58 59 65
3 48 59 65
