ply
format ascii 1.0
element vertex 66
property float x
property float y
property float z
property float u
property float v
element face 91
property list uchar int vertex_indices
end_header
-20.1036 -5.87746 21.1253 488.397 452.856
-19.3654 -0.584863 20.617 490.425 472.801
-18.341 4.65726 20.109 493.552 492.61
-16.946 9.77065 18.2325 498.4 511.381
-14.8953 14.4888 13.4691 506.421 527.47
-11.8565 18.5222 7.88795 518.491 540.785
-8.02417 21.8357 3.15525 533.526 551.914
-3.57758 24.2841 -1.05834 550.935 560.122
1.49778 24.8918 -4.61107 570.908 561.784
6.61245 23.642 -0.849744 589.799 559.746
10.7404 20.4694 3.36054 605.162 550.444
14.0297 16.4512 8.05015 617.373 537.998
16.4893 11.9264 13.5676 626.334 523.851
17.9851 7.02969 18.2547 631.864 507.734
18.7055 1.94975 20.1279 635.066 489.495
18.947 -3.18138 20.5493 636.759 470.31
18.8235 -8.31728 20.9715 637.063 451.038
-15.8666 -15.6977 0.10373 510.618 406.946
-13.5547 -17.0849 -1.43878 519.98 401.439
-10.8727 -17.5713 -2.84182 530.57 399.476
-8.16282 -17.4365 -4.25039 541.163 399.868
-5.53418 -16.7634 -5.48306 551.319 402.361
3.01858 -17.1185 -5.4953 583.948 402.656
5.39782 -18.0441 -4.21105 592.892 400.194
7.93341 -18.4856 -2.79142 602.322 399.655
10.5268 -18.4049 -1.35096 611.879 401.114
12.9046 -17.4317 0.265236 620.428 405.989
-0.56946 -11.7782 -4.8716 569.256 422.463
-0.331972 -8.75446 -7.667 570.242 432.684
-0.106664 -5.74673 -10.5333 571.2 442.81
0.11142 -2.75134 -13.2556 572.101 452.953
-3.02853 0.523879 -6.20923 558.107 467.949
-1.32951 0.989626 -7.13657 564.694 469.617
0.472411 1.12122 -7.9729 571.709 470.082
2.1421 0.771444 -7.00614 577.922 469.518
3.64053 0.0882855 -6.12176 583.556 467.622
-11.979 -10.9168 -1.03712 524.858 425.272
-10.4385 -11.863 -1.01119 530.878 421.999
-8.57484 -12.112 -0.950957 538.003 421.442
-6.91184 -11.4869 -0.834037 544.205 424.181
-8.53956 -10.8645 -0.976338 537.933 426.159
-10.3039 -10.6769 -0.98889 531.186 426.525
4.91284 -12.1101 -0.718794 589.311 424.149
6.4398 -12.8888 -0.893001 595.293 421.416
8.27851 -12.9274 -0.954462 602.313 421.595
9.88852 -12.1859 -0.943338 608.317 424.717
8.29558 -11.7253 -0.883184 602.161 426.181
6.55862 -11.7152 -0.843279 595.537 425.903
-5.54994 9.165 -2.76472 546.326 501.738
-3.76726 7.67174 -4.88165 553.812 495.466
-1.66757 6.52574 -6.55873 562.354 490.77
0.698906 6.63712 -8.24996 571.703 490.878
2.9944 6.24983 -6.35896 580.11 490.713
5.15014 7.1117 -4.67932 587.819 495.154
6.98142 8.41424 -2.56288 594.126 501.398
5.51925 10.1565 -3.9575 588.56 507.078
3.46725 11.2878 -5.0842 580.794 510.453
1.02086 11.7389 -6.51545 571.705 511.04
-1.48527 11.5538 -5.27244 561.931 510.422
-3.7207 10.6797 -4.12825 553.325 507.204
-1.40024 8.38316 -5.15276 562.763 498.491
0.81756 8.24047 -7.30604 571.686 497.399
2.98108 8.15281 -4.90738 579.433 498.574
3.06515 8.81351 -4.39992 579.534 501.321
0.901961 9.25266 -6.277 571.62 501.715
-1.34005 9.05521 -4.59881 562.762 501.299
3 20 21 23
3 21 22 23
3 0 1 36
3 15 16 45
3 0 17 36
3 16 26 45
3 17 18 37
3 25 26 44
3 17 36 37
3 26 44 45
3 18 19 38
3 24 25 43
3 18 37 38
3 25 43 44
3 19 20 38
3 23 24 43
3 20 21 39
3 22 23 42
3 20 38 39
3 23 42 43
3 21 22 27
3 21 27 39
3 22 27 42
3 27 28 42
3 27 28 39
3 28 42 47
3 28 39 40
3 1 36 41
3 15 45 46
3 1 2 41
3 14 15 46
3 28 29 40
3 28 29 47
3 2 40 41
3 14 46 47
3 2 29 40
3 14 29 47
3 2 3 29
3 13 14 29
3 29 30 31
3 29 30 35
3 3 29 31
3 13 29 35
3 30 32 33
3 30 33 34
3 30 31 32
3 30 34 35
3 3 4 31
3 12 13 35
3 4 5 48
3 11 12 54
3 5 6 48
3 10 11 54
3 6 48 59
3 10 54 55
3 6 7 59
3 9 10 55
3 7 58 59
3 9 55 56
3 8 57 58
3 8 56 57
3 7 8 58
3 8 9 56
3 4 31 48
3 12 35 54
3 31 48 49
3 35 53 54
3 31 49 50
3 35 52 53
3 31 32 50
3 34 35 52
3 32 33 50
3 33 34 52
3 33 50 51
3 33 51 52
3 48 49 60
3 49 60 50
3 50 60 61
3 50 51 61
3 51 52 61
3 61 62 52
3 52 53 62
3 53 54 62
3 54 55 63
3 55 56 63
3 56 63 64
3 56 57 64
3 64 65 57
3 57 58 65
3 58 59 65
3 48 59 65
