ply
format ascii 1.0
element vertex 66
property float x
property float y
property float z
property float u
property float v
element face 91
property list uchar int vertex_indices
end_header
-20.2136 -5.7525 21.2802 489.063 451.179
-19.4106 -0.460559 20.821 490.934 471.201
-18.3688 4.78118 20.266 493.74 491.054
-17.0417 9.90143 18.2461 497.887 509.932
-15.0417 14.6248 13.5438 505.107 526.404
-11.9337 18.5697 7.92716 516.863 539.845
-8.0074 21.7318 3.18125 531.777 550.883
-3.51602 24.0446 -1.09005 548.963 559.044
1.55131 24.5621 -4.64681 568.65 560.85
6.66765 23.3669 -0.881035 587.777 559.132
10.8877 20.3095 3.35158 603.867 550.335
14.2799 16.3824 8.08822 616.938 538.245
16.7389 11.86 13.6781 626.47 524.012
18.087 6.92271 18.2571 632.04 507.525
18.676 1.84009 20.2381 635.168 489.256
18.8759 -3.28479 20.6822 637.07 470.113
18.7443 -8.41795 21.116 637.715 450.851
-16.0942 -15.4339 0.102606 510.329 407.129
-13.6781 -16.8889 -1.44352 520.094 401.618
-10.8814 -17.4221 -2.87062 531.069 399.734
-8.0537 -17.3258 -4.25875 542.006 400.254
-5.30233 -16.6758 -5.4643 552.494 402.92
3.09178 -17.0574 -5.52861 584.482 403.566
5.46283 -17.9494 -4.24656 593.499 401.306
7.98785 -18.3736 -2.824 602.968 400.909
10.5844 -18.3648 -1.33501 612.596 402.194
13.0347 -17.5079 0.255802 621.452 406.688
-0.398409 -11.6935 -4.86029 569.85 423.23
-0.143871 -8.65607 -7.64454 570.536 433.659
0.096095 -5.6441 -10.585 571.198 443.925
0.319106 -2.64657 -13.4292 571.783 454.171
-2.89657 0.627704 -6.28215 557.67 468.604
-1.19379 1.04881 -7.19118 564.182 470.26
0.596433 1.1698 -8.03171 571.086 470.831
2.21633 0.85551 -7.07168 577.163 470.436
3.70225 0.244853 -6.12017 582.803 468.884
-12.0767 -10.8091 -0.861808 524.648 425.235
-10.4834 -11.8222 -0.999359 530.962 421.752
-8.55828 -12.0431 -1.08761 538.342 421.367
-6.85783 -11.288 -0.93589 544.599 424.71
-8.54809 -10.7235 -0.96349 538.049 426.407
-10.3583 -10.5487 -0.944861 531.128 426.619
5.02248 -11.9043 -0.816656 589.858 425.42
6.56924 -12.8155 -0.985783 595.976 422.298
8.46684 -12.8993 -0.950833 603.199 422.473
10.1243 -12.0764 -0.849687 609.285 426.042
8.49339 -11.5907 -0.892487 602.981 427.45
6.71772 -11.562 -0.87385 596.226 427.119
-6.89317 8.84146 -2.75889 539.991 500.057
-4.54719 7.54244 -4.85002 549.539 494.9
-2.03275 6.5946 -6.53588 559.58 491.274
0.620025 6.72688 -8.18684 569.886 491.78
3.16419 6.32403 -6.39823 579.365 491.616
5.65233 6.99437 -4.68602 588.39 495.463
7.93887 8.0908 -2.58282 596.486 501.027
6.0923 9.94898 -3.98033 589.251 507.025
3.60443 11.0587 -5.06293 579.708 510.159
0.827976 11.4633 -6.40183 569.275 510.452
-2.02299 11.3114 -5.20874 558.293 509.638
-4.67437 10.4492 -4.13362 548.256 506.142
-2.23573 8.35527 -5.28589 558.196 498.379
0.700796 8.28854 -7.48449 569.713 497.985
3.52554 8.08937 -5.00509 580.101 498.938
3.64083 8.68503 -4.43174 580.308 501.449
0.751217 9.0591 -6.4227 569.555 501.336
-2.24338 8.97105 -4.65149 557.922 500.96
3 20 21 23
3 21 22 23
3 0 1 36
3 15 16 45
3 0 17 36
3 16 26 45
3 17 18 37
3 25 26 44
3 17 36 37
3 26 44 45
3 18 19 38
3 24 25 43
3 18 37 38
3 25 43 44
3 19 20 38
3 23 24 43
3 20 21 39
3 22 23 42
3 20 38 39
3 23 42 43
3 21 22 27
3 21 27 39
3 22 27 42
3 27 28 42
3 27 28 39
3 28 42 47
3 28 39 40
3 1 36 41
3 15 45 46
3 1 2 41
3 14 15 46
3 28 29 40
3 28 29 47
3 2 40 41
3 14 46 47
3 2 29 40
3 14 29 47
3 2 3 29
3 13 14 29
3 29 30 31
3 29 30 35
3 3 29 31
3 13 29 35
3 30 32 33
3 30 33 34
3 30 31 32
3 30 34 35
3 3 4 31
3 12 13 35
3 4 5 48
3 11 12 54
3 5 6 48
3 10 11 54
3 6 48 59
3 10 54 55
3 6 7 59
3 9 10 55
3 7 58 59
3 9 55 56
3 8 57 58
3 8 56 57
3 7 8 58
3 8 9 56
3 4 31 48
3 12 35 54
3 31 48 49
3 35 53 54
3 31 49 50
3 35 52 53
3 31 32 50
3 34 35 52
3 32 33 50
3 33 34 52
3 33 50 51
3 33 51 52
3 48 49 60
3 49 60 50
3 50 60 61
3 50 51 61
3 51 52 61
3 61 62 52
3 52 53 62
3 53 54 62
3 54 55 63
3 55 56 63
3 56 63 64
3 56 57 64
3 64 65 57
3 57 58 65
3 58 59 65
3 48 59 65
