ply
format ascii 1.0
element vertex 66
property float x
property float y
property float z
property float u
property float v
element face 91
property list uchar int vertex_indices
end_header
-19.6972 -6.09362 21.1972 488.872 450.016
-18.949 -0.744554 20.7552 490.653 470.81
-17.9634 4.55274 20.1664 493.399 491.396
-16.6666 9.75834 18.1694 497.611 511.09
-14.7365 14.6388 13.5607 504.797 528.537
-11.7552 18.7959 7.93296 516.423 542.986
-7.94027 22.174 3.08902 531.36 554.949
-3.52802 24.7011 -1.11392 548.723 564.027
1.52208 25.3708 -4.68099 568.9 566.313
6.62632 24.0476 -0.883094 588.548 564.065
10.7359 20.7531 3.30062 604.692 554.074
13.9796 16.5987 8.10183 617.544 540.797
16.3454 11.9092 13.658 626.962 525.552
17.7122 6.88606 18.1614 632.72 508.308
18.3171 1.79623 20.1249 635.925 489.514
18.4802 -3.30314 20.5813 637.648 469.921
18.3059 -8.41181 20.9472 638.069 450.169
-15.6016 -15.6553 0.0596366 510.489 404.639
-13.2572 -16.9612 -1.43421 520.197 399.483
-10.5816 -17.4192 -2.85926 530.997 397.736
-7.88343 -17.3033 -4.27299 541.752 398.23
-5.2581 -16.6541 -5.50963 552.073 400.858
2.89573 -16.9454 -5.59996 584.043 401.677
5.19373 -17.7838 -4.29484 593.01 399.544
7.63528 -18.1661 -2.86339 602.413 399.276
10.1301 -18.1304 -1.38584 611.923 400.666
12.4627 -17.2982 0.209359 620.598 405.166
-0.444721 -11.8092 -4.90192 569.698 421.14
-0.205986 -8.89216 -7.62826 570.41 431.358
0.0150292 -5.99609 -10.4961 571.081 441.428
0.222492 -3.12018 -13.3116 571.694 451.439
-2.9859 0.0634677 -6.1754 557.266 466.14
-1.24647 0.464147 -7.098 564.127 467.722
0.571947 0.582587 -7.9632 571.352 468.25
2.2078 0.260216 -6.98941 577.666 467.819
3.71328 -0.346256 -6.08492 583.545 466.221
-11.9436 -10.9101 -0.963832 523.883 423.542
-10.3649 -11.8235 -1.00049 530.271 420.359
-8.49037 -12.0669 -1.02596 537.661 419.859
-6.80398 -11.4696 -0.880617 544.098 422.657
-8.47081 -10.9292 -0.944655 537.466 424.324
-10.2472 -10.7399 -0.948815 530.476 424.624
4.73607 -12.0023 -0.787083 589.337 423.443
6.28351 -12.7306 -0.990963 595.587 420.899
8.12025 -12.7862 -0.993112 602.784 421.131
9.74201 -12.063 -0.942076 608.954 424.361
8.12714 -11.676 -0.897804 602.543 425.491
6.39028 -11.6849 -0.849984 595.744 425.054
-6.56178 9.0067 -2.73158 540.689 501.546
-4.54358 7.33397 -4.80434 549.298 494.632
-2.09313 6.09371 -6.48053 559.436 489.678
0.678572 6.13215 -8.15625 570.539 489.775
3.35493 5.78661 -6.29867 580.783 489.892
5.8349 6.7173 -4.60904 589.997 494.852
7.86251 8.21017 -2.53014 597.251 502.057
6.24678 10.3224 -3.98481 590.687 509.244
3.89826 11.735 -5.0738 581.357 513.691
1.04528 12.2842 -6.48351 570.303 514.518
-1.90649 12.0222 -5.25011 558.618 513.315
-4.48538 10.8737 -4.16269 548.617 508.691
-2.33814 7.94656 -5.14339 557.84 497.405
0.78748 7.71058 -7.4161 570.486 496.262
3.82933 7.62894 -4.85554 581.986 497.801
4.03007 9.25234 -4.35485 582.321 504.381
0.960406 9.91691 -6.3212 570.483 505.361
-2.24493 9.59009 -4.58626 557.74 504.062
3 20 21 23
3 21 22 23
3 0 1 36
3 15 16 45
3 0 17 36
3 16 26 45
3 17 18 37
3 25 26 44
3 17 36 37
3 26 44 45
3 18 19 38
3 24 25 43
3 18 37 38
3 25 43 44
3 19 20 38
3 23 24 43
3 20 21 39
3 22 23 42
3 20 38 39
3 23 42 43
3 21 22 27
3 21 27 39
3 22 27 42
3 27 28 42
3 27 28 39
3 28 42 47
3 28 39 40
3 1 36 41
3 15 45 46
3 1 2 41
3 14 15 46
3 28 29 40
3 28 29 47
3 2 40 41
3 14 46 47
3 2 29 40
3 14 29 47
3 2 3 29
3 13 14 29
3 29 30 31
3 29 30 35
3 3 29 31
3 13 29 35
3 30 32 33
3 30 33 34
3 30 31 32
3 30 34 35
3 3 4 31
3 12 13 35
3 4 5 48
3 11 12 54
3 5 6 48
3 10 11 54
3 6 48 59
3 10 54 55
3 6 7 59
3 9 10 55
3 7 58 59
3 9 55 56
3 8 57 58
3 8 56 57
3 7 8 58
3 8 9 56
3 4 31 48
3 12 35 54
3 31 48 49
3 35 53 54
3 31 49 50
3 35 52 53
3 31 32 50
3 34 35 52
3 32 33 50
3 33 34 52
3 33 50 51
3 33 51 52
3 48 49 60
3 49 60 50
3 50 60 61
3 50 51 61
3 51 52 61
3 61 62 52
3 52 53 62
3 53 54 62
3 54 55 63
3 55 56 63
3 56 63 64
3 56 57 64
3 64 65 57
3 57 58 65
3 58 59 65
3 48 59 65
