ply
format ascii 1.0
element vertex 66
property float x
property float y
property float z
property float u
property float v
element face 91
property list uchar int vertex_indices
end_header
-20.2843 -5.61408 21.3636 490.238 453.262
-19.4357 -0.31857 20.8634 491.915 473.446
-18.3555 4.93523 20.3562 494.483 493.543
-17.026 10.0276 18.2765 498.285 512.778
-15.0456 14.654 13.5235 505.104 529.892
-11.9307 18.4454 7.92889 516.601 544.027
-7.98324 21.4215 3.19116 531.365 555.519
-3.50906 23.5723 -1.08764 548.303 564.152
1.50655 23.9825 -4.61504 567.704 566.53
6.61385 22.8677 -0.836217 586.79 564.704
10.8546 19.9137 3.37497 603.091 555.745
14.2676 16.0903 8.09866 616.444 543.346
16.7296 11.6677 13.6499 626.253 528.559
18.0823 6.85281 18.2332 632.132 511.738
18.6754 1.8769 20.2421 635.581 493.53
18.8839 -3.17123 20.5947 637.852 474.581
18.7455 -8.21756 21.0806 638.789 455.558
-16.4271 -15.4285 0.122776 511.094 412.894
-13.9593 -16.9531 -1.41992 521.135 407.576
-11.1024 -17.5333 -2.83891 532.343 405.977
-8.20999 -17.4373 -4.22405 543.474 406.954
-5.39429 -16.7758 -5.43263 554.115 410.081
3.37682 -17.1562 -5.53342 587.442 411.363
5.70886 -17.9985 -4.23868 596.325 409.179
8.19221 -18.392 -2.81544 605.625 408.767
10.7481 -18.3736 -1.32256 615.062 409.949
13.1825 -17.5314 0.279565 623.773 414.231
-0.254088 -11.635 -4.83263 571.913 431.253
0.00900565 -8.48683 -7.672 572.388 442.643
0.252868 -5.36378 -10.6439 572.818 453.904
0.473651 -2.24913 -13.4623 573.14 465.158
-2.88589 0.77276 -6.34488 558.409 477.03
-1.12596 1.23814 -7.2384 565.066 479.152
0.731472 1.37851 -8.03963 572.176 480.095
2.37483 1.05894 -7.10105 578.349 479.598
3.87224 0.418824 -6.13473 584.062 477.848
-12.2999 -10.8632 -0.815818 525.47 431.25
-10.6802 -11.7903 -0.941373 531.901 428.224
-8.7872 -12.0122 -1.04077 539.148 427.956
-7.10294 -11.3014 -0.958731 545.294 431.187
-8.80269 -10.8108 -0.976376 538.714 432.507
-10.5961 -10.6544 -0.944189 531.874 432.545
5.23745 -11.8793 -0.841645 592.156 432.884
6.76685 -12.7152 -0.931557 598.212 430.183
8.62135 -12.8009 -0.912985 605.254 430.442
10.2683 -12.0413 -0.850078 611.247 433.842
8.65307 -11.6186 -0.921372 605.016 434.921
6.91054 -11.5959 -0.905574 598.412 434.465
-6.83974 8.92331 -2.8128 540.421 507.356
-4.5442 7.52866 -4.89509 549.854 502.362
-2.04429 6.51309 -6.54651 559.878 498.957
0.605281 6.633 -8.25095 570.132 499.88
3.12836 6.27619 -6.40206 579.505 499.708
5.57462 7.0466 -4.72178 588.27 503.739
7.75967 8.29902 -2.62938 595.836 509.597
5.96168 10.1178 -3.94831 588.681 515.636
3.51902 11.1892 -5.01589 579.275 518.699
0.792144 11.5454 -6.3857 569.057 518.906
-2.02445 11.3886 -5.17638 558.259 517.687
-4.63678 10.5135 -4.12711 548.477 513.781
-2.12341 8.36045 -5.34657 558.832 506.169
0.683533 8.27433 -7.5489 569.821 506.259
3.36118 8.16293 -4.9952 579.595 507.211
3.45395 8.75078 -4.4094 579.677 509.586
0.736737 9.05376 -6.40712 569.609 509.462
-2.09956 8.96793 -4.68582 558.636 508.613
3 20 21 23
3 21 22 23
3 0 1 36
3 15 16 45
3 0 17 36
3 16 26 45
3 17 18 37
3 25 26 44
3 17 36 37
3 26 44 45
3 18 19 38
3 24 25 43
3 18 37 38
3 25 43 44
3 19 20 38
3 23 24 43
3 20 21 39
3 22 23 42
3 20 38 39
3 23 42 43
3 21 22 27
3 21 27 39
3 22 27 42
3 27 28 42
3 27 28 39
3 28 42 47
3 28 39 40
3 1 36 41
3 15 45 46
3 1 2 41
3 14 15 46
3 28 29 40
3 28 29 47
3 2 40 41
3 14 46 47
3 2 29 40
3 14 29 47
3 2 3 29
3 13 14 29
3 29 30 31
3 29 30 35
3 3 29 31
3 13 29 35
3 30 32 33
3 30 33 34
3 30 31 32
3 30 34 35
3 3 4 31
3 12 13 35
3 4 5 48
3 11 12 54
3 5 6 48
3 10 11 54
3 6 48 59
3 10 54 55
3 6 7 59
3 9 10 55
3 7 58 59
3 9 55 56
3 8 57 58
3 8 56 57
3 7 8 58
3 8 9 56
3 4 31 48
3 12 35 54
3 31 48 49
3 35 53 54
3 31 49 50
3 35 52 53
3 31 32 50
3 34 35 52
3 32 33 50
3 33 34 52
3 33 50 51
3 33 51 52
3 48 49 60
3 49 60 50
3 50 60 61
3 50 51 61
3 51 52 61
3 61 62 52
3 52 53 62
3 53 54 62
3 54 55 63
3 55 56 63
3 56 63 64
3 56 57 64
3 64 65 57
3 57 58 65
3 58 59 65
3 48 59 65
