ply
format ascii 1.0
element vertex 66
property float x
property float y
property float z
property float u
property float v
element face 91
property list uchar int vertex_indices
end_header
-19.867 -6.04731 21.2059 487.544 449.809
-19.1463 -0.703638 20.7774 489.344 470.445
-18.1711 4.59005 20.1959 492.173 490.876
-16.8589 9.77659 18.1154 496.621 510.3
-14.8914 14.6231 13.4682 504.181 527.411
-11.8363 18.707 7.92688 516.298 541.418
-7.95139 21.9719 3.08346 531.674 552.754
-3.50495 24.3948 -1.10761 549.28 561.252
1.54702 25.0157 -4.66483 569.486 563.198
6.62942 23.7054 -0.88154 588.793 560.957
10.7586 20.4909 3.29273 604.704 551.313
14.0645 16.4365 8.10425 617.461 538.521
16.4882 11.8092 13.5823 626.776 523.612
17.8788 6.82111 18.1103 632.329 506.653
18.4957 1.75969 20.1602 635.363 488.132
18.6483 -3.32278 20.6053 636.904 468.709
18.4494 -8.4106 20.9664 637.095 449.149
-15.6397 -15.5888 0.0710836 509.984 404.431
-13.2416 -16.8705 -1.44762 519.863 399.334
-10.5517 -17.3268 -2.86126 530.689 397.542
-7.84073 -17.2101 -4.24897 541.476 397.981
-5.20408 -16.5576 -5.48089 551.835 400.546
2.92596 -16.8592 -5.57417 583.534 401.16
5.21706 -17.7026 -4.27133 592.366 398.993
7.65424 -18.0927 -2.85902 601.653 398.661
10.1488 -18.0763 -1.39022 611.07 399.938
12.5266 -17.2989 0.217191 619.851 404.195
-0.422109 -11.5708 -4.91191 569.31 421.157
-0.188953 -8.62764 -7.64675 570.144 431.372
0.027066 -5.70548 -10.5227 570.943 441.438
0.229444 -2.80235 -13.3252 571.678 451.461
-3.00649 0.132826 -6.26244 557.14 465.237
-1.26427 0.5171 -7.10786 564 466.736
0.548755 0.634483 -7.90897 571.181 467.239
2.18349 0.317034 -7.00374 577.43 466.781
3.70203 -0.269171 -6.15761 583.293 465.232
-11.9514 -10.7475 -0.93817 523.539 423.529
-10.3021 -11.5947 -1.00881 530.139 420.591
-8.40725 -11.8097 -1.05388 537.561 420.164
-6.70457 -11.2271 -0.883064 544.032 422.875
-8.43083 -10.7742 -0.944984 537.238 424.212
-10.2303 -10.6004 -0.960423 530.207 424.474
4.74563 -11.7661 -0.809621 588.661 423.39
6.31391 -12.4794 -1.01195 594.944 420.892
8.16746 -12.5614 -0.992134 602.166 420.999
9.84593 -11.9073 -0.913417 608.546 423.94
8.2017 -11.5437 -0.913859 602.078 424.978
6.44441 -11.535 -0.866607 595.232 424.638
-6.81543 8.99575 -2.73132 539.846 500.233
-4.94932 6.91371 -4.82653 547.93 491.665
-2.40678 5.41067 -6.44961 558.435 485.698
0.5908 5.34379 -8.13726 570.432 485.359
3.50396 5.07253 -6.27271 581.459 485.794
6.11277 6.2556 -4.63223 591.05 491.686
8.04787 8.1808 -2.54118 597.783 500.497
6.43745 10.4638 -3.94756 591.326 508.338
4.04521 12.0587 -5.02271 581.904 513.491
1.04294 12.6645 -6.45825 570.38 514.52
-2.07272 12.3684 -5.19315 558.079 513.241
-4.7239 11.0407 -4.12606 547.833 507.988
-2.71338 7.43618 -5.11737 556.576 494.057
0.708633 7.05223 -7.43961 570.409 492.303
4.06369 7.0768 -4.83065 582.952 494.314
4.29928 9.46688 -4.32763 583.286 503.834
0.952514 10.2418 -6.33521 570.497 505.186
-2.54765 9.84371 -4.56214 556.624 503.652
3 20 21 23
3 21 22 23
3 0 1 36
3 15 16 45
3 0 17 36
3 16 26 45
3 17 18 37
3 25 26 44
3 17 36 37
3 26 44 45
3 18 19 38
3 24 25 43
3 18 37 38
3 25 43 44
3 19 20 38
3 23 24 43
3 20 21 39
3 22 23 42
3 20 38 39
3 23 42 43
3 21 22 27
3 21 27 39
3 22 27 42
3 27 28 42
3 27 28 39
3 28 42 47
3 28 39 40
3 1 36 41
3 15 45 46
3 1 2 41
3 14 15 46
3 28 29 40
3 28 29 47
3 2 40 41
3 14 46 47
3 2 29 40
3 14 29 47
3 2 3 29
3 13 14 29
3 29 30 31
3 29 30 35
3 3 29 31
3 13 29 35
3 30 32 33
3 30 33 34
3 30 31 32
3 30 34 35
3 3 4 31
3 12 13 35
3 4 5 48
3 11 12 54
3 5 6 48
3 10 11 54
3 6 48 59
3 10 54 55
3 6 7 59
3 9 10 55
3 7 58 59
3 9 55 56
3 8 57 58
3 8 56 57
3 7 8 58
3 8 9 56
3 4 31 48
3 12 35 54
3 31 48 49
3 35 53 54
3 31 49 50
3 35 52 53
3 31 32 50
3 34 35 52
3 32 33 50
3 33 34 52
3 33 50 51
3 33 51 52
3 48 49 60
3 49 60 50
3 50 60 61
3 50 51 61
3 51 52 61
3 61 62 52
3 52 53 62
3 53 54 62
3 54 55 63
3 55 56 63
3 56 63 64
3 56 57 64
3 64 65 57
3 57 58 65
3 58 59 65
3 48 59 65
