ply
format ascii 1.0
element vertex 66
property float x
property float y
property float z
property float u
property float v
element face 91
property list uchar int vertex_indices
end_header
-20.3846 -5.65192 21.3725 489.685 453.298
-19.5612 -0.322139 20.8492 491.629 473.677
-18.4993 4.96598 20.3278 494.49 493.956
-17.1665 10.0922 18.2736 498.673 513.449
-15.1747 14.731 13.4927 505.928 530.831
-12.0302 18.4979 7.88997 517.909 545.053
-8.04986 21.4286 3.16369 533.12 556.439
-3.55849 23.5396 -1.09682 550.393 564.906
1.45496 23.9348 -4.60277 569.934 567.096
6.58251 22.807 -0.789736 589.061 564.657
10.8257 19.8255 3.4082 605.204 555.014
14.2549 15.9943 8.09331 618.376 542.018
16.7792 11.5923 13.608 628.107 526.758
18.2165 6.80706 18.2193 633.948 509.636
18.8516 1.86008 20.1918 637.216 491.294
19.0568 -3.15481 20.5335 639.136 472.336
18.9008 -8.1665 21.0074 639.66 453.323
-16.3369 -15.5838 0.132349 510.957 413.26
-13.9187 -17.0381 -1.40751 520.75 408.088
-11.139 -17.5853 -2.81829 531.679 406.472
-8.32827 -17.4871 -4.19664 542.567 407.322
-5.58703 -16.8483 -5.39523 553.032 410.237
3.58394 -17.231 -5.50098 587.997 411.016
5.87204 -17.9941 -4.23137 596.666 408.873
8.29358 -18.3305 -2.82893 605.717 408.406
10.7672 -18.253 -1.35094 614.856 409.535
13.093 -17.3767 0.29141 623.214 413.69
-0.258843 -11.5173 -4.83108 571.917 431.894
-0.0180496 -8.44397 -7.6767 572.57 443.194
0.202345 -5.39317 -10.6423 573.171 454.385
0.402154 -2.35014 -13.4409 573.668 465.568
-2.92364 0.868815 -6.35666 559.086 478.081
-1.14538 1.33408 -7.24239 565.881 480.149
0.729493 1.47714 -8.03648 573.104 481.03
2.38215 1.15502 -7.08908 579.305 480.358
3.88242 0.511517 -6.16678 585.008 478.422
-12.2178 -10.9779 -0.839736 525.674 431.626
-10.6486 -11.9387 -0.944366 531.885 428.344
-8.77858 -12.1486 -1.01437 539.054 427.994
-7.14217 -11.356 -0.890309 545.064 431.427
-8.79401 -10.8062 -0.953868 538.665 433.101
-10.5596 -10.6756 -0.94273 531.922 433.166
5.1566 -11.8864 -0.795755 591.92 432.443
6.62254 -12.7714 -0.943404 597.727 429.416
8.44066 -12.8631 -0.937377 604.658 429.514
10.0289 -12.0545 -0.866742 610.49 432.988
8.4777 -11.5574 -0.918378 604.485 434.489
6.77493 -11.5334 -0.883291 598.001 434.168
-6.62971 8.97999 -2.81 542.478 508.549
-4.36377 7.63766 -4.92783 551.761 503.676
-1.92929 6.63002 -6.59714 561.531 500.185
0.653616 6.76812 -8.2846 571.594 501.083
3.11593 6.39235 -6.40547 580.732 500.549
5.50309 7.13909 -4.71624 589.347 504.234
7.65339 8.33599 -2.58677 596.881 509.64
5.89378 10.0674 -3.89559 589.997 515.587
3.51127 11.0728 -4.98964 580.883 518.655
0.862328 11.4094 -6.38939 570.966 519.068
-1.87588 11.2739 -5.19849 560.394 518.065
-4.44143 10.4763 -4.12605 550.656 514.57
-1.90902 8.43767 -5.3612 560.972 507.252
0.74969 8.37107 -7.50528 571.448 507.32
3.2889 8.25073 -4.97441 580.709 507.876
3.37802 8.71562 -4.3769 580.837 509.758
0.806061 8.99228 -6.38078 571.328 509.868
-1.87335 8.92402 -4.69691 560.881 509.212
3 20 21 23
3 21 22 23
3 0 1 36
3 15 16 45
3 0 17 36
3 16 26 45
3 17 18 37
3 25 26 44
3 17 36 37
3 26 44 45
3 18 19 38
3 24 25 43
3 18 37 38
3 25 43 44
3 19 20 38
3 23 24 43
3 20 21 39
3 22 23 42
3 20 38 39
3 23 42 43
3 21 22 27
3 21 27 39
3 22 27 42
3 27 28 42
3 27 28 39
3 28 42 47
3 28 39 40
3 1 36 41
3 15 45 46
3 1 2 41
3 14 15 46
3 28 29 40
3 28 29 47
3 2 40 41
3 14 46 47
3 2 29 40
3 14 29 47
3 2 3 29
3 13 14 29
3 29 30 31
3 29 30 35
3 3 29 31
3 13 29 35
3 30 32 33
3 30 33 34
3 30 31 32
3 30 34 35
3 3 4 31
3 12 13 35
3 4 5 48
3 11 12 54
3 5 6 48
3 10 11 54
3 6 48 59
3 10 54 55
3 6 7 59
3 9 10 55
3 7 58 59
3 9 55 56
3 8 57 58
3 8 56 57
3 7 8 58
3 8 9 56
3 4 31 48
3 12 35 54
3 31 48 49
3 35 53 54
3 31 49 50
3 35 52 53
3 31 32 50
3 34 35 52
3 32 33 50
3 33 34 52
3 33 50 51
3 33 51 52
3 48 49 60
3 49 60 50
3 50 60 61
3 50 51 61
3 51 52 61
3 61 62 52
3 52 53 62
3 53 54 62
3 54 55 63
3 55 56 63
3 56 63 64
3 56 57 64
3 64 65 57
3 57 58 65
3 58 59 65
3 48 59 65
