ply
format ascii 1.0
element vertex 66
property float x
property float y
property float z
property float u
property float v
element face 91
property list uchar int vertex_indices
end_header
-19.9338 -6.08652 21.2989 488.251 449.089
-19.1806 -0.730056 20.8545 489.98 469.744
-18.2091 4.58155 20.2549 492.595 490.209
-16.9292 9.79116 18.1567 496.682 509.653
-14.9709 14.6489 13.5428 503.911 526.727
-11.8892 18.7086 7.95952 515.857 540.553
-7.96752 21.9221 3.07963 531.149 551.659
-3.50723 24.3155 -1.11978 548.615 560.059
1.54624 24.927 -4.67019 568.699 562.04
6.63715 23.6455 -0.908248 588.153 560.171
10.806 20.4748 3.26653 604.404 550.969
14.1587 16.4631 8.1201 617.57 538.633
16.602 11.8473 13.6502 627.232 524.051
17.9708 6.85258 18.1334 632.985 507.239
18.539 1.79058 20.1968 636.048 488.822
18.6679 -3.2868 20.6523 637.678 469.475
18.4764 -8.36849 21.0411 638.075 449.998
-15.827 -15.2504 0.0658382 509.941 404.77
-13.392 -16.6626 -1.45019 519.991 399.23
-10.6061 -17.2104 -2.87413 531.184 397.158
-7.77595 -17.1312 -4.25874 542.393 397.536
-5.01913 -16.48 -5.4741 553.154 400.183
2.75615 -16.735 -5.58777 583.443 401.136
5.12386 -17.5833 -4.28834 592.627 399.081
7.64273 -17.9537 -2.87411 602.264 398.963
10.2102 -17.8994 -1.38896 611.979 400.53
12.6358 -17.0585 0.213344 620.935 405.151
-0.372671 -11.6399 -4.92293 569.966 420.311
-0.123485 -8.61764 -7.66437 570.676 430.746
0.106553 -5.61888 -10.5714 571.345 441.008
0.320262 -2.6388 -13.4171 571.945 451.223
-3.08636 0.141609 -6.31356 556.858 464.428
-1.27282 0.59011 -7.15206 563.939 466.228
0.623362 0.731853 -7.93811 571.404 466.89
2.32049 0.383663 -7.05364 577.933 466.398
3.88787 -0.270897 -6.19876 584.035 464.676
-12.0162 -10.6938 -0.884478 523.824 422.883
-10.3405 -11.6001 -1.00876 530.571 419.756
-8.39974 -11.8074 -1.12595 538.181 419.398
-6.65957 -11.1496 -0.922009 544.752 422.478
-8.42785 -10.7256 -0.93677 537.783 423.655
-10.2567 -10.5545 -0.957663 530.64 423.837
4.6914 -11.6581 -0.84056 588.962 423.461
6.28426 -12.4486 -1.07899 595.379 420.706
8.18003 -12.5506 -1.00136 602.756 420.835
9.88939 -11.8388 -0.880637 609.208 424.076
8.20897 -11.475 -0.924507 602.6 425.029
6.42501 -11.4605 -0.862588 595.655 424.657
-7.56318 8.58382 -2.68815 536.853 497.57
-5.33063 6.74764 -4.75531 546.309 490.081
-2.52988 5.48814 -6.41619 557.769 485.155
0.607162 5.44098 -8.12199 570.254 484.973
3.64237 5.14545 -6.25194 581.804 485.491
6.45605 6.06769 -4.56932 592.236 490.563
8.69497 7.71841 -2.50508 600.197 498.48
6.90302 10.1629 -3.95272 592.897 506.772
4.26841 11.8533 -5.02923 582.439 512.114
1.0166 12.4826 -6.435 569.891 513.047
-2.35839 12.1774 -5.18689 556.641 511.594
-5.25909 10.7673 -4.12056 545.527 505.911
-3.12287 7.26255 -5.18977 554.838 492.429
0.700804 6.93462 -7.56219 570.17 491.025
4.43376 6.86661 -4.89148 584.243 492.977
4.75221 9.46758 -4.32832 584.768 503.361
0.955827 10.3126 -6.36808 570.159 504.689
-3.00923 9.88983 -4.56355 554.551 502.892
3 20 21 23
3 21 22 23
3 0 1 36
3 15 16 45
3 0 17 36
3 16 26 45
3 17 18 37
3 25 26 44
3 17 36 37
3 26 44 45
3 18 19 38
3 24 25 43
3 18 37 38
3 25 43 44
3 19 20 38
3 23 24 43
3 20 21 39
3 22 23 42
3 20 38 39
3 23 42 43
3 21 22 27
3 21 27 39
3 22 27 42
3 27 28 42
3 27 28 39
3 28 42 47
3 28 39 40
3 1 36 41
3 15 45 46
3 1 2 41
3 14 15 46
3 28 29 40
3 28 29 47
3 2 40 41
3 14 46 47
3 2 29 40
3 14 29 47
3 2 3 29
3 13 14 29
3 29 30 31
3 29 30 35
3 3 29 31
3 13 29 35
3 30 32 33
3 30 33 34
3 30 31 32
3 30 34 35
3 3 4 31
3 12 13 35
3 4 5 48
3 11 12 54
3 5 6 48
3 10 11 54
3 6 48 59
3 10 54 55
3 6 7 59
3 9 10 55
3 7 58 59
3 9 55 56
3 8 57 58
3 8 56 57
3 7 8 58
3 8 9 56
3 4 31 48
3 12 35 54
3 31 48 49
3 35 53 54
3 31 49 50
3 35 52 53
3 31 32 50
3 34 35 52
3 32 33 50
3 33 34 52
3 33 50 51
3 33 51 52
3 48 49 60
3 49 60 50
3 50 60 61
3 50 51 61
3 51 52 61
3 61 62 52
3 52 53 62
3 53 54 62
3 54 55 63
3 55 56 63
3 56 63 64
3 56 57 64
3 64 65 57
3 57 58 65
3 58 59 65
3 48 59 65
