ply
format ascii 1.0
element vertex 66
property float x
property float y
property float z
property float u
property float v
element face 91
property list uchar int vertex_indices
end_header
-20.0833 -5.97209 21.2781 490.868 451.614
-19.3234 -0.621464 20.8058 492.708 471.948
-18.3158 4.68005 20.2368 495.524 492.11
-17.0039 9.86027 18.186 499.798 511.232
-15.0338 14.6541 13.4851 507.154 527.874
-11.9414 18.6567 7.90307 519.137 541.381
-8.01048 21.841 3.11635 534.361 552.322
-3.51932 24.173 -1.11245 551.813 560.396
1.55189 24.7141 -4.65929 571.749 562.09
6.66198 23.4802 -0.8716 590.89 560.26
10.844 20.3554 3.33662 606.812 551.201
14.1957 16.3728 8.09004 619.641 538.921
16.646 11.8166 13.607 629.006 524.582
18.0257 6.87998 18.1833 634.525 508.13
18.6337 1.82782 20.1941 637.579 489.93
18.8157 -3.26294 20.6221 639.297 470.787
18.6555 -8.35729 21.0322 639.709 451.543
-15.9504 -15.5967 0.100281 512.592 406.657
-13.5301 -16.9407 -1.43132 522.424 401.439
-10.791 -17.4065 -2.84968 533.265 399.688
-8.03613 -17.2729 -4.23687 544.032 400.235
-5.36064 -16.6008 -5.45446 554.348 402.887
3.06474 -16.9027 -5.53961 586.678 403.683
5.40471 -17.7626 -4.25474 595.589 401.526
7.89287 -18.1656 -2.84709 604.945 401.196
10.4426 -18.1284 -1.37805 614.431 402.583
12.8459 -17.2708 0.245683 623.152 407.125
-0.417902 -11.4344 -4.89467 572.051 423.957
-0.184665 -8.48393 -7.67314 572.81 434.02
0.0314195 -5.55453 -10.576 573.529 443.944
0.234729 -2.63933 -13.3655 574.183 453.861
-3.00747 0.459683 -6.29309 559.826 467.998
-1.26017 0.881259 -7.16299 566.58 469.631
0.568935 1.00719 -7.97311 573.701 470.185
2.22254 0.680246 -7.04485 579.933 469.737
3.742 0.056934 -6.17058 585.725 468.107
-12.0505 -10.8305 -0.910685 526.675 425.269
-10.4366 -11.7087 -0.997852 533.058 422.268
-8.56408 -11.9178 -1.04664 540.279 421.891
-6.88909 -11.2715 -0.891481 546.523 424.813
-8.58091 -10.7984 -0.944582 539.954 426.192
-10.3577 -10.6434 -0.952118 533.121 426.361
4.91749 -11.8192 -0.819655 591.82 425.538
6.45224 -12.585 -1.00161 597.893 422.905
8.28191 -12.6614 -0.978434 604.909 423.055
9.92527 -11.967 -0.882099 611.032 426.126
8.31248 -11.5767 -0.903414 604.778 427.223
6.58173 -11.5578 -0.866888 598.143 426.904
-6.7759 8.88501 -2.74839 542.942 500.731
-4.70305 7.16263 -4.86603 551.631 493.734
-2.18826 5.92532 -6.51826 561.823 488.892
0.628422 5.95089 -8.18659 572.9 488.919
3.35484 5.61751 -6.32985 583.073 489.107
5.90089 6.54366 -4.66351 592.317 493.962
7.99401 8.08402 -2.55249 599.615 501.244
6.28891 10.1559 -3.91558 592.888 508.129
3.86862 11.5092 -5.00426 583.528 512.231
0.994922 12.0097 -6.42836 572.678 512.834
-1.97855 11.7974 -5.19019 561.118 511.871
-4.62241 10.709 -4.11192 551.038 507.58
-2.41872 7.83517 -5.21722 560.293 496.677
0.74214 7.59722 -7.45349 572.848 495.533
3.82632 7.51656 -4.92045 584.213 497.064
4.00959 9.03611 -4.36332 584.486 503.135
0.903874 9.6067 -6.35935 572.835 503.699
-2.3237 9.37194 -4.60861 560.215 502.815
3 20 21 23
3 21 22 23
3 0 1 36
3 15 16 45
3 0 17 36
3 16 26 45
3 17 18 37
3 25 26 44
3 17 36 37
3 26 44 45
3 18 19 38
3 24 25 43
3 18 37 38
3 25 43 44
3 19 20 38
3 23 24 43
3 20 21 39
3 22 23 42
3 20 38 39
3 23 42 43
3 21 22 27
3 21 27 39
3 22 27 42
3 27 28 42
3 27 28 39
3 28 42 47
3 28 39 40
3 1 36 41
3 15 45 46
3 1 2 41
3 14 15 46
3 28 29 40
3 28 29 47
3 2 40 41
3 14 46 47
3 2 29 40
3 14 29 47
3 2 3 29
3 13 14 29
3 29 30 31
3 29 30 35
3 3 29 31
3 13 29 35
3 30 32 33
3 30 33 34
3 30 31 32
3 30 34 35
3 3 4 31
3 12 13 35
3 4 5 48
3 11 12 54
3 5 6 48
3 10 11 54
3 6 48 59
3 10 54 55
3 6 7 59
3 9 10 55
3 7 58 59
3 9 55 56
3 8 57 58
3 8 56 57
3 7 8 58
3 8 9 56
3 4 31 48
3 12 35 54
3 31 48 49
3 35 53 54
3 31 49 50
3 35 52 53
3 31 32 50
3 34 35 52
3 32 33 50
3 33 34 52
3 33 50 51
3 33 51 52
3 48 49 60
3 49 60 50
3 50 60 61
3 50 51 61
3 51 52 61
3 61 62 52
3 52 53 62
3 53 54 62
3 54 55 63
3 55 56 63
3 56 63 64
3 56 57 64
3 64 65 57
3 57 58 65
3 58 59 65
3 48 59 65
