ply
format ascii 1.0
element vertex 66
property float x
property float y
property float z
property float u
property float v
element face 91
property list uchar int vertex_indices
end_header
-19.8524 -5.87265 21.1783 490.296 452.903
-19.0551 -0.525225 20.6944 492.031 473.757
-17.9842 4.7698 20.163 494.849 494.476
-16.6008 9.90715 18.2293 499.172 514.451
-14.6243 14.6063 13.4874 506.415 532.455
-11.6484 18.5847 7.91226 517.872 547.813
-7.85601 21.8291 3.13671 532.544 560.679
-3.46523 24.2365 -1.06985 549.656 570.558
1.56929 24.7702 -4.6236 569.648 573.462
6.65929 23.513 -0.802559 589.007 570.597
10.7249 20.2898 3.35805 604.867 559.888
13.9096 16.2294 8.09726 617.437 545.785
16.2222 11.6861 13.5982 626.623 529.689
17.6155 6.85196 18.1801 632.494 512.069
18.2987 1.86936 20.0565 636.142 493.255
18.5312 -3.17931 20.4284 638.334 473.826
18.3841 -8.23006 20.8634 639.045 454.293
-15.897 -15.7909 0.0962936 512.08 412.291
-13.5687 -17.2617 -1.42987 521.766 407
-10.8493 -17.8132 -2.82467 532.696 405.398
-8.09217 -17.6945 -4.23137 543.594 406.4
-5.41367 -17.0185 -5.4755 554.007 409.564
3.19513 -17.3241 -5.54969 587.438 410.748
5.47656 -18.1613 -4.23691 596.26 408.342
7.90762 -18.5396 -2.80804 605.518 407.772
10.3928 -18.4463 -1.35867 614.855 409.047
12.691 -17.5095 0.248939 623.212 413.561
-0.372225 -11.8193 -4.85512 572.018 431.189
-0.14817 -8.89643 -7.64516 572.602 442.134
0.0586724 -5.99102 -10.5049 573.136 452.996
0.250773 -3.09572 -13.2316 573.592 463.836
-2.72142 0.354084 -6.19963 559.888 477.473
-1.10569 0.737568 -7.10773 566.205 479.263
0.595308 0.843848 -7.94558 572.914 480.014
2.11636 0.568114 -6.95854 578.7 479.521
3.49721 0.0150988 -6.02322 584.027 477.907
-11.9873 -11.1025 -0.978874 526.151 431.36
-10.4569 -12.0039 -0.961375 532.317 428.295
-8.62816 -12.2501 -0.935923 539.459 427.851
-7.01525 -11.6221 -0.848773 545.52 430.743
-8.61843 -11.0104 -0.977041 539.171 432.649
-10.359 -10.8376 -0.956841 532.381 432.84
5.04405 -12.1648 -0.766191 592.347 431.987
6.5166 -12.8901 -0.86008 598.261 429.571
8.30501 -12.9244 -0.92665 605.207 429.922
9.85735 -12.18 -0.958511 611.023 433.229
8.32105 -11.728 -0.90883 604.944 434.562
6.63075 -11.7414 -0.899853 598.401 434.045
-5.49165 9.48832 -2.80688 546.092 512.612
-3.8049 7.81084 -4.93234 553.457 506.249
-1.76043 6.44742 -6.57509 562.037 501.278
0.63727 6.5105 -8.26895 571.609 501.92
2.94574 6.21727 -6.37404 580.286 501.719
5.02516 7.35524 -4.72303 587.734 506.958
6.69846 8.93538 -2.61555 593.408 513.87
5.34433 10.6892 -3.96678 587.936 520.076
3.37469 11.8411 -5.08061 580.2 523.819
0.964058 12.2757 -6.52561 571.009 524.609
-1.5426 12.039 -5.28108 561.142 523.194
-3.71842 11.0606 -4.17606 552.781 518.977
-1.46871 8.46038 -5.15837 562.369 509.375
0.750769 8.22853 -7.34189 571.419 508.75
2.90061 8.30187 -4.81698 579.269 510.023
2.9822 9.23865 -4.33812 579.247 513.748
0.870932 9.6553 -6.26564 571.307 514.476
-1.3537 9.40773 -4.62015 562.463 513.16
3 20 21 23
3 21 22 23
3 0 1 36
3 15 16 45
3 0 17 36
3 16 26 45
3 17 18 37
3 25 26 44
3 17 36 37
3 26 44 45
3 18 19 38
3 24 25 43
3 18 37 38
3 25 43 44
3 19 20 38
3 23 24 43
3 20 21 39
3 22 23 42
3 20 38 39
3 23 42 43
3 21 22 27
3 21 27 39
3 22 27 42
3 27 28 42
3 27 28 39
3 28 42 47
3 28 39 40
3 1 36 41
3 15 45 46
3 1 2 41
3 14 15 46
3 28 29 40
3 28 29 47
3 2 40 41
3 14 46 47
3 2 29 40
3 14 29 47
3 2 3 29
3 13 14 29
3 29 30 31
3 29 30 35
3 3 29 31
3 13 29 35
3 30 32 33
3 30 33 34
3 30 31 32
3 30 34 35
3 3 4 31
3 12 13 35
3 4 5 48
3 11 12 54
3 5 6 48
3 10 11 54
3 6 48 59
3 10 54 55
3 6 7 59
3 9 10 55
3 7 58 59
3 9 55 56
3 8 57 58
3 8 56 57
3 7 8 58
3 8 9 56
3 4 31 48
3 12 35 54
3 31 48 49
3 35 53 54
3 31 49 50
3 35 52 53
3 31 32 50
3 34 35 52
3 32 33 50
3 33 34 52
3 33 50 51
3 33 51 52
3 48 49 60
3 49 60 50
3 50 60 61
3 50 51 61
3 51 52 61
3 61 62 52
3 52 53 62
3 53 54 62
3 54 55 63
3 55 56 63
3 56 63 64
3 56 57 64
3 64 65 57
3 57 58 65
3 58 59 65
3 48 59 65
