ply
format ascii 1.0
element vertex 66
property float x
property float y
property float z
property float u
property float v
element face 91
property list uchar int vertex_indices
end_header
-20.6125 -5.66585 21.3798 492.31 451.452
-19.8145 -0.416738 20.9665 493.823 471.137
-18.7765 4.77879 20.4181 496.265 490.639
-17.4234 9.90553 18.2634 500.074 509.329
-15.3182 14.706 13.4852 507.066 525.965
-12.0364 18.662 7.85033 518.811 539.452
-7.96065 21.7627 3.18711 533.691 550.375
-3.37142 23.9779 -1.1 550.72 558.295
1.69763 24.5017 -4.72058 569.978 560.309
6.76436 23.2268 -0.882113 589.003 558.619
11.0586 20.2343 3.35281 605.586 550.441
14.5572 16.3292 8.03942 619.399 538.796
17.0858 11.7347 13.672 629.673 524.667
18.4165 6.68311 18.3105 635.678 508.068
18.9684 1.58149 20.3921 639.029 490.014
19.139 -3.49958 20.813 641.106 471.251
18.9845 -8.58832 21.2543 641.963 452.37
-16.4656 -15.2452 0.147522 512.809 408.316
-13.9965 -16.8318 -1.45425 522.71 402.481
-11.0572 -17.4117 -2.8834 534.066 400.619
-8.06245 -17.2601 -4.24389 545.412 401.534
-5.15232 -16.5045 -5.42591 556.245 404.753
3.2556 -16.9535 -5.50642 587.978 405.567
5.72307 -17.9411 -4.24697 597.411 403.127
8.35164 -18.4253 -2.83968 607.288 402.676
11.0369 -18.3912 -1.33943 617.217 404.217
13.5094 -17.438 0.303566 626.066 409.185
-0.326156 -11.2915 -4.82322 572.802 425.923
-0.0731931 -8.25329 -7.63628 573.151 436.213
0.166441 -5.23691 -10.6137 573.472 446.351
0.385315 -2.24034 -13.5041 573.712 456.444
-3.15781 0.674112 -6.33533 558.831 469.169
-1.33455 1.19757 -7.22482 565.619 471.313
0.589366 1.37269 -8.07598 572.882 472.2
2.33075 0.9953 -7.11793 579.44 471.701
3.92421 0.283891 -6.11957 585.534 469.925
-12.1827 -10.3105 -0.800927 527.561 427.656
-10.61 -11.3234 -1.05063 533.791 424.243
-8.70161 -11.5441 -1.19554 541.041 423.932
-6.99372 -10.816 -0.991037 547.226 427.248
-8.66494 -10.2165 -0.961947 540.769 428.998
-10.4595 -10.0451 -0.936021 533.973 429.11
5.33719 -11.4745 -0.89531 593.742 428.528
6.90534 -12.3565 -1.06735 599.909 425.634
8.79137 -12.4292 -0.999145 607.01 425.956
10.4173 -11.5817 -0.830351 612.856 429.68
8.77507 -11.1044 -0.917638 606.555 430.935
7.01644 -11.0782 -0.916832 599.939 430.505
-7.62706 8.3658 -2.74556 539.439 498.019
-5.11449 7.02724 -4.83098 549.479 492.928
-2.37003 6.15227 -6.47923 560.211 489.816
0.48842 6.3232 -8.07181 571.062 490.669
3.22415 5.86583 -6.392 581.306 490.461
5.9174 6.45808 -4.70109 591.085 494.166
8.35808 7.59525 -2.59605 599.714 499.999
6.32457 9.56964 -3.93746 591.632 506.223
3.61132 10.6945 -5.06908 581.223 509.154
0.679554 11.109 -6.42723 570.222 509.273
-2.34316 10.9568 -5.18417 558.784 508.299
-5.21988 10.0803 -4.09843 548.12 504.6
-2.47468 8.00179 -5.34136 559.165 497.155
0.568965 8.06648 -7.51767 570.802 497.431
3.47427 7.74181 -5.06259 581.567 498.083
3.59069 8.20863 -4.47099 581.809 500.101
0.595341 8.56106 -6.55681 570.66 499.675
-2.514 8.48982 -4.69683 558.811 499.228
3 20 21 23
3 21 22 23
3 0 1 36
3 15 16 45
3 0 17 36
3 16 26 45
3 17 18 37
3 25 26 44
3 17 36 37
3 26 44 45
3 18 19 38
3 24 25 43
3 18 37 38
3 25 43 44
3 19 20 38
3 23 24 43
3 20 21 39
3 22 23 42
3 20 38 39
3 23 42 43
3 21 22 27
3 21 27 39
3 22 27 42
3 27 28 42
3 27 28 39
3 28 42 47
3 28 39 40
3 1 36 41
3 15 45 46
3 1 2 41
3 14 15 46
3 28 29 40
3 28 29 47
3 2 40 41
3 14 46 47
3 2 29 40
3 14 29 47
3 2 3 29
3 13 14 29
3 29 30 31
3 29 30 35
3 3 29 31
3 13 29 35
3 30 32 33
3 30 33 34
3 30 31 32
3 30 34 35
3 3 4 31
3 12 13 35
3 4 5 48
3 11 12 54
3 5 6 48
3 10 11 54
3 6 48 59
3 10 54 55
3 6 7 59
3 9 10 55
3 7 58 59
3 9 55 56
3 8 57 58
3 8 56 57
3 7 8 58
3 8 9 56
3 4 31 48
3 12 35 54
3 31 48 49
3 35 53 54
3 31 49 50
3 35 52 53
3 31 32 50
3 34 35 52
3 32 33 50
3 33 34 52
3 33 50 51
3 33 51 52
3 48 49 60
3 49 60 50
3 50 60 61
3 50 51 61
3 51 52 61
3 61 62 52
3 52 53 62
3 53 54 62
3 54 55 63
3 55 56 63
3 56 63 64
3 56 57 64
3 64 65 57
3 57 58 65
3 58 59 65
3 48 59 65
