ply
format ascii 1.0
element vertex 66
property float x
property float y
property float z
property float u
property float v
element face 91
property list uchar int vertex_indices
end_header
-19.9144 -6.05991 21.305 488.471 449.425
-19.1578 -0.700641 20.8667 490.188 470.095
-18.1809 4.61254 20.2646 492.797 490.568
-16.9048 9.82979 18.1734 496.829 510.049
-14.9454 14.6982 13.5362 504.004 527.168
-11.8578 18.7765 7.95549 515.903 541.087
-7.95114 22.0445 3.09021 531.065 552.426
-3.48975 24.477 -1.12776 548.481 560.989
1.57521 25.0972 -4.70093 568.577 563.017
6.67534 23.7959 -0.919214 588.104 561.088
10.841 20.5826 3.27123 604.396 551.731
14.1702 16.5117 8.12202 617.541 539.159
16.592 11.8559 13.666 627.192 524.419
17.9292 6.8267 18.1563 632.886 507.464
18.4821 1.73478 20.2141 635.935 488.924
18.611 -3.36785 20.672 637.594 469.482
18.4156 -8.47499 21.0652 638.003 449.909
-15.8184 -15.2561 0.0771916 509.974 405.045
-13.3973 -16.6398 -1.463 519.958 399.61
-10.6389 -17.1716 -2.89105 531.03 397.602
-7.84054 -17.0967 -4.26918 542.102 397.969
-5.11111 -16.4624 -5.47292 552.744 400.558
2.84289 -16.715 -5.59726 583.726 401.583
5.18116 -17.5619 -4.30125 592.809 399.527
7.66825 -17.9418 -2.88365 602.338 399.369
10.2129 -17.9276 -1.38879 611.983 400.783
12.6431 -17.1455 0.211834 620.981 405.18
-0.361359 -11.6378 -4.89496 569.942 420.675
-0.113168 -8.61412 -7.65992 570.616 431.11
0.116525 -5.6136 -10.5777 571.249 441.379
0.329553 -2.63128 -13.4211 571.809 451.609
-3.12576 0.194625 -6.33208 556.577 464.944
-1.29401 0.646659 -7.1617 563.716 466.773
0.620941 0.789455 -7.94385 571.246 467.452
2.34115 0.439491 -7.06395 577.874 466.96
3.93392 -0.217745 -6.19743 584.082 465.242
-11.9426 -10.6807 -0.861094 524.077 423.263
-10.2666 -11.5365 -1.01585 530.819 420.322
-8.35628 -11.7451 -1.14452 538.312 419.951
-6.61809 -11.1491 -0.951139 544.89 422.791
-8.37874 -10.7593 -0.931159 537.953 423.849
-10.1895 -10.5879 -0.944309 530.879 424.036
4.75092 -11.6715 -0.881977 589.174 423.748
6.35345 -12.4004 -1.08442 595.607 421.256
8.22144 -12.4888 -0.997925 602.872 421.438
9.92179 -11.8238 -0.860904 609.296 424.508
8.2381 -11.5123 -0.918401 602.689 425.248
6.47188 -11.4994 -0.871669 595.817 424.863
-7.75206 8.41767 -2.6676 536.039 497.196
-5.44659 6.61181 -4.75016 545.762 489.847
-2.58387 5.41955 -6.41066 557.435 485.209
0.57573 5.39895 -8.09387 569.983 485.157
3.63077 5.08192 -6.25353 581.635 485.587
6.49276 5.94257 -4.56625 592.279 490.44
8.79732 7.55842 -2.49355 600.513 498.243
6.98376 10.1123 -3.94799 593.083 506.946
4.28425 11.859 -5.02579 582.345 512.483
0.974225 12.4936 -6.4421 569.557 513.411
-2.46008 12.1853 -5.17759 556.089 511.926
-5.42752 10.7187 -4.10811 544.744 506.001
-3.20988 7.29075 -5.19188 554.358 492.839
0.670964 7.01684 -7.55306 569.877 491.678
4.45135 6.89516 -4.89758 584.171 493.432
4.76468 9.31102 -4.34169 584.717 503.096
0.902729 10.1294 -6.41972 569.846 504.281
-3.12898 9.73472 -4.57511 553.985 502.579
3 20 21 23
3 21 22 23
3 0 1 36
3 15 16 45
3 0 17 36
3 16 26 45
3 17 18 37
3 25 26 44
3 17 36 37
3 26 44 45
3 18 19 38
3 24 25 43
3 18 37 38
3 25 43 44
3 19 20 38
3 23 24 43
3 20 21 39
3 22 23 42
3 20 38 39
3 23 42 43
3 21 22 27
3 21 27 39
3 22 27 42
3 27 28 42
3 27 28 39
3 28 42 47
3 28 39 40
3 1 36 41
3 15 45 46
3 1 2 41
3 14 15 46
3 28 29 40
3 28 29 47
3 2 40 41
3 14 46 47
3 2 29 40
3 14 29 47
3 2 3 29
3 13 14 29
3 29 30 31
3 29 30 35
3 3 29 31
3 13 29 35
3 30 32 33
3 30 33 34
3 30 31 32
3 30 34 35
3 3 4 31
3 12 13 35
3 4 5 48
3 11 12 54
3 5 6 48
3 10 11 54
3 6 48 59
3 10 54 55
3 6 7 59
3 9 10 55
3 7 58 59
3 9 55 56
3 8 57 58
3 8 56 57
3 7 8 58
3 8 9 56
3 4 31 48
3 12 35 54
3 31 48 49
3 35 53 54
3 31 49 50
3 35 52 53
3 31 32 50
3 34 35 52
3 32 33 50
3 33 34 52
3 33 50 51
3 33 51 52
3 48 49 60
3 49 60 50
3 50 60 61
3 50 51 61
3 51 52 61
3 61 62 52
3 52 53 62
3 53 54 62
3 54 55 63
3 55 56 63
3 56 63 64
3 56 57 64
3 64 65 57
3 57 58 65
3 58 59 65
3 48 59 65
