ply
format ascii 1.0
element vertex 66
property float x
property float y
property float z
property float u
property float v
element face 91
property list uchar int vertex_indices
end_header
-19.9863 -5.95089 20.9871 490.6 454.562
-19.2209 -0.595577 20.4168 492.478 475.034
-18.1257 4.70783 19.9506 495.607 495.422
-16.5936 9.82024 18.2703 500.727 514.785
-14.4797 14.4439 13.3954 508.906 531.368
-11.5674 18.4845 7.85112 520.425 545.694
-7.90378 21.9277 3.1418 534.767 558.19
-3.56662 24.5202 -1.03529 551.757 567.771
1.50348 25.1637 -4.58716 571.847 570.281
6.64352 23.8682 -0.773947 590.969 567.815
10.6486 20.5355 3.36616 606.119 557.395
13.7284 16.3671 8.00117 617.797 543.72
16.0643 11.8413 13.4372 626.521 528.764
17.669 7.07413 18.2211 632.645 512.494
18.5328 2.05777 19.8648 636.693 494.062
18.8212 -3.05019 20.2157 638.849 474.716
18.6883 -8.15559 20.6991 639.36 455.322
-15.7432 -16.0975 0.108821 513.821 409.92
-13.5271 -17.5777 -1.41815 522.985 404.29
-10.8844 -18.0998 -2.77123 533.534 402.484
-8.20768 -17.9123 -4.20912 544.075 403.371
-5.62949 -17.1493 -5.47241 554.071 406.491
3.19068 -17.5089 -5.44774 587.945 407.242
5.45551 -18.4408 -4.15027 596.538 404.649
7.88905 -18.8737 -2.72447 605.637 404.047
10.3742 -18.7224 -1.3451 614.816 405.676
12.587 -17.6361 0.296043 622.684 410.9
-0.49785 -11.8213 -4.8295 572.413 428.307
-0.261785 -8.8369 -7.69537 573.305 438.832
-0.0408391 -5.85615 -10.4849 574.122 449.365
0.170244 -2.87812 -13.0287 574.847 459.966
-2.68391 0.433095 -6.10971 561.614 474.216
-1.12385 0.883318 -7.05938 567.707 476
0.550467 1.00662 -7.88351 574.282 476.603
2.07218 0.697552 -6.87544 579.954 476.117
3.39715 0.059846 -5.97849 584.97 474.292
-12.0304 -11.3229 -1.2176 527.292 428.631
-10.5226 -12.2026 -0.976301 533.21 425.709
-8.70199 -12.5118 -0.745372 540.203 425.04
-7.07998 -11.9871 -0.708179 546.295 427.448
-8.65132 -11.2681 -0.994166 540.179 429.725
-10.3977 -11.0743 -1.00661 533.446 430.043
4.8474 -12.5418 -0.551787 592.09 428.242
6.33959 -13.1932 -0.675148 597.98 426.069
8.13515 -13.1779 -0.927144 604.914 426.475
9.68937 -12.4833 -1.13458 610.763 429.436
8.14575 -12.0239 -0.891517 604.691 430.902
6.43643 -12.041 -0.832928 598.132 430.445
-3.29628 9.77635 -2.81973 556.458 510.875
-2.26964 8.27565 -4.98158 561.212 504.673
-0.936739 6.96544 -6.63923 566.984 499.438
0.758496 7.12085 -8.39995 573.844 499.861
2.38343 6.79925 -6.39934 579.69 499.679
3.78376 7.93611 -4.75924 584.434 504.901
4.82888 9.38193 -2.60267 587.633 511.389
4.02461 10.6843 -3.9558 584.568 515.731
2.76722 11.5874 -5.13843 579.817 518.493
1.06353 11.9746 -6.66737 573.548 519.062
-0.700471 11.7222 -5.36883 566.55 518.1
-2.13362 10.9428 -4.16909 560.96 515.171
-0.0469738 8.85952 -5.03908 569.613 507.42
0.879746 8.67717 -7.11885 573.675 506.262
1.76764 8.83778 -4.71749 576.499 507.878
1.74972 9.06722 -4.30294 576.286 508.888
0.951404 9.39994 -6.04008 573.546 509.397
0.0781376 9.09045 -4.56189 569.934 508.49
3 20 21 23
3 21 22 23
3 0 1 36
3 15 16 45
3 0 17 36
3 16 26 45
3 17 18 37
3 25 26 44
3 17 36 37
3 26 44 45
3 18 19 38
3 24 25 43
3 18 37 38
3 25 43 44
3 19 20 38
3 23 24 43
3 20 21 39
3 22 23 42
3 20 38 39
3 23 42 43
3 21 22 27
3 21 27 39
3 22 27 42
3 27 28 42
3 27 28 39
3 28 42 47
3 28 39 40
3 1 36 41
3 15 45 46
3 1 2 41
3 14 15 46
3 28 29 40
3 28 29 47
3 2 40 41
3 14 46 47
3 2 29 40
3 14 29 47
3 2 3 29
3 13 14 29
3 29 30 31
3 29 30 35
3 3 29 31
3 13 29 35
3 30 32 33
3 30 33 34
3 30 31 32
3 30 34 35
3 3 4 31
3 12 13 35
3 4 5 48
3 11 12 54
3 5 6 48
3 10 11 54
3 6 48 59
3 10 54 55
3 6 7 59
3 9 10 55
3 7 58 59
3 9 55 56
3 8 57 58
3 8 56 57
3 7 8 58
3 8 9 56
3 4 31 48
3 12 35 54
3 31 48 49
3 35 53 54
3 31 49 50
3 35 52 53
3 31 32 50
3 34 35 52
3 32 33 50
3 33 34 52
3 33 50 51
3 33 51 52
3 48 49 60
3 49 60 50
3 50 60 61
3 50 51 61
3 51 52 61
3 61 62 52
3 52 53 62
3 53 54 62
3 54 55 63
3 55 56 63
3 56 63 64
3 56 57 64
3 64 65 57
3 57 58 65
3 58 59 65
3 48 59 65
