ply
format ascii 1.0
element vertex 66
property float x
property float y
property float z
property float u
property float v
element face 91
property list uchar int vertex_indices
end_header
-19.7461 -5.86532 20.9866 490.879 453.507
-18.9647 -0.534009 20.46 492.554 474.225
-17.8756 4.74499 19.9749 495.426 494.836
-16.4061 9.8403 18.2545 500.058 514.579
-14.3609 14.473 13.4709 507.634 532.036
-11.481 18.5328 7.90218 518.746 547.345
-7.8269 21.9954 3.15607 532.855 560.74
-3.48724 24.6052 -1.03457 549.741 571.153
1.5996 25.2114 -4.58494 569.938 574.168
6.72762 23.9422 -0.801976 589.386 571.524
10.7359 20.6313 3.3467 604.988 560.75
13.8047 16.4713 8.05413 617.079 546.548
16.0387 11.9061 13.5622 625.896 530.716
17.4638 7.07779 18.2517 631.814 513.463
18.21 2.00846 19.927 635.755 494.437
18.4722 -3.15409 20.3105 638.098 474.635
18.3464 -8.31598 20.7966 638.92 454.749
-15.6531 -15.9241 0.0960901 513.48 411.276
-13.4213 -17.4146 -1.43368 522.813 405.814
-10.7706 -17.9648 -2.8082 533.481 404.14
-8.08339 -17.8331 -4.24228 544.116 405.098
-5.48729 -17.1375 -5.50714 554.213 408.248
3.11635 -17.5268 -5.4988 587.595 409.175
5.39821 -18.4297 -4.18902 596.414 406.61
7.84241 -18.8422 -2.74993 605.701 406.016
10.343 -18.7097 -1.34061 615.065 407.538
12.6057 -17.6721 0.264459 623.225 412.534
-0.514859 -12.0874 -4.85119 571.947 429.317
-0.268325 -9.09807 -7.66479 572.632 440.337
-0.0350099 -6.11999 -10.4678 573.266 451.313
0.186469 -3.14705 -13.0874 573.821 462.304
-2.69832 0.356623 -6.1328 560.367 476.533
-1.14619 0.777242 -7.06557 566.437 478.396
0.513133 0.884583 -7.89195 572.985 479.102
2.03198 0.592671 -6.90621 578.749 478.615
3.37487 -0.00920382 -5.97284 583.926 476.868
-11.8405 -11.3125 -1.14299 527.213 429.914
-10.3462 -12.191 -0.979481 533.2 426.974
-8.54872 -12.4796 -0.822381 540.201 426.4
-6.94288 -11.9581 -0.772048 546.26 428.881
-8.50281 -11.2884 -0.989066 540.087 430.982
-10.2251 -11.0855 -0.988517 533.37 431.281
4.87729 -12.554 -0.625924 592.113 429.946
6.36452 -13.2184 -0.724893 598.066 427.776
8.14631 -13.2116 -0.920451 604.993 428.264
9.69357 -12.5152 -1.08901 610.821 431.356
8.15469 -12.0808 -0.898038 604.714 432.642
6.46048 -12.096 -0.859602 598.158 432.114
-4.11249 9.70813 -2.79247 551.711 513.006
-2.80015 8.24268 -4.92774 557.597 507.251
-1.22297 6.97823 -6.59922 564.364 502.448
0.680431 7.10727 -8.33646 572.027 503.11
2.51011 6.79232 -6.41643 578.819 502.823
4.1425 7.87673 -4.74463 584.515 507.836
5.46902 9.25415 -2.60947 588.859 513.996
4.44411 10.7159 -3.9915 584.765 519.06
2.92315 11.707 -5.15166 578.836 522.212
0.959525 12.1118 -6.60491 571.412 522.909
-1.06786 11.8709 -5.33551 563.391 521.679
-2.75392 11.0195 -4.17276 556.876 518.162
-0.608974 8.86543 -5.05766 565.929 510.249
0.7806 8.66157 -7.20953 571.774 509.39
2.12147 8.78798 -4.77229 576.456 510.782
2.13516 9.19679 -4.33797 576.313 512.46
0.85019 9.55169 -6.1443 571.596 513.08
-0.51993 9.27756 -4.5659 566.066 511.974
3 20 21 23
3 21 22 23
3 0 1 36
3 15 16 45
3 0 17 36
3 16 26 45
3 17 18 37
3 25 26 44
3 17 36 37
3 26 44 45
3 18 19 38
3 24 25 43
3 18 37 38
3 25 43 44
3 19 20 38
3 23 24 43
3 20 21 39
3 22 23 42
3 20 38 39
3 23 42 43
3 21 22 27
3 21 27 39
3 22 27 42
3 27 28 42
3 27 28 39
3 28 42 47
3 28 39 40
3 1 36 41
3 15 45 46
3 1 2 41
3 14 15 46
3 28 29 40
3 28 29 47
3 2 40 41
3 14 46 47
3 2 29 40
3 14 29 47
3 2 3 29
3 13 14 29
3 29 30 31
3 29 30 35
3 3 29 31
3 13 29 35
3 30 32 33
3 30 33 34
3 30 31 32
3 30 34 35
3 3 4 31
3 12 13 35
3 4 5 48
3 11 12 54
3 5 6 48
3 10 11 54
3 6 48 59
3 10 54 55
3 6 7 59
3 9 10 55
3 7 58 59
3 9 55 56
3 8 57 58
3 8 56 57
3 7 8 58
3 8 9 56
3 4 31 48
3 12 35 54
3 31 48 49
3 35 53 54
3 31 49 50
3 35 52 53
3 31 32 50
3 34 35 52
3 32 33 50
3 33 34 52
3 33 50 51
3 33 51 52
3 48 49 60
3 49 60 50
3 50 60 61
3 50 51 61
3 51 52 61
3 61 62 52
3 52 53 62
3 53 54 62
3 54 55 63
3 55 56 63
3 56 63 64
3 56 57 64
3 64 65 57
3 57 58 65
3 58 59 65
3 48 59 65
