ply
format ascii 1.0
element vertex 66
property float x
property float y
property float z
property float u
property float v
element face 91
property list uchar int vertex_indices
end_header
-19.4514 -6.02314 21.0418 488 448.894
-18.6371 -0.724646 20.6172 489.712 469.855
-17.5734 4.51157 20.0212 492.454 490.583
-16.2064 9.69883 18.2028 496.59 510.756
-14.2451 14.6339 13.5792 503.56 529.069
-11.3731 18.9973 7.93057 514.452 545.029
-7.73868 22.7445 3.13886 528.416 559.118
-3.41339 25.5976 -1.09681 545.295 570.107
1.65537 26.4167 -4.70475 565.625 573.55
6.74513 24.9603 -0.916128 585.629 570.804
10.7499 21.4335 3.27553 601.897 559.719
13.8043 17.0035 8.05333 614.589 545.002
16.0015 12.117 13.6793 623.902 528.539
17.2812 6.95733 18.2105 629.827 510.308
17.8914 1.76063 19.9937 633.519 490.696
18.1056 -3.40605 20.5034 635.823 470.604
17.9799 -8.5928 20.9076 636.803 450.288
-15.2807 -15.6402 0.03766 510.419 404.449
-13.0669 -17.0404 -1.50809 519.815 399.04
-10.4434 -17.59 -2.91175 530.558 397.161
-7.76074 -17.5359 -4.32159 541.357 397.676
-5.13722 -16.9252 -5.53704 551.729 400.437
2.8262 -17.3207 -5.57197 583.342 401.326
5.07953 -18.1831 -4.28436 592.32 399.108
7.47411 -18.567 -2.84642 601.693 398.874
9.91634 -18.539 -1.38553 611.128 400.285
12.1834 -17.7243 0.203053 619.619 404.788
-0.449597 -12.1125 -4.83007 568.736 421.105
-0.187894 -9.19911 -7.58995 569.312 431.628
0.0604853 -6.30196 -10.4372 569.853 442.05
0.290632 -3.42462 -13.2067 570.316 452.417
-2.78114 0.0496957 -6.09069 556.097 467.814
-1.15099 0.459557 -7.04105 562.561 469.576
0.571069 0.587121 -7.94664 569.466 470.272
2.12548 0.266209 -6.92405 575.558 469.871
3.53989 -0.331276 -5.944 581.185 468.321
-11.5377 -11.1431 -1.01055 524.042 422.925
-10.1276 -12.0828 -1.04295 529.901 419.648
-8.37657 -12.3805 -1.03174 536.912 419.021
-6.77982 -11.8733 -0.898186 543.057 421.562
-8.28218 -11.2209 -0.940924 536.929 423.651
-9.94453 -10.995 -0.918045 530.285 424.035
4.80467 -12.5027 -0.730197 589.029 422.725
6.28035 -13.1796 -0.915239 595.093 420.446
8.02429 -13.1802 -0.990924 602 420.954
9.50875 -12.4224 -1.00195 607.648 424.393
7.98522 -12.044 -0.853558 601.489 425.468
6.34154 -12.0679 -0.820384 594.991 424.878
-5.92264 9.09574 -2.68732 540.495 503.744
-3.97545 7.7542 -4.79601 548.901 498.273
-1.78101 6.71765 -6.48527 558.134 494.237
0.64939 6.88607 -8.0976 567.931 495.048
2.96882 6.46746 -6.36763 576.974 494.763
5.15298 7.2639 -4.65502 585.124 499.216
7.05486 8.44691 -2.52275 591.983 505.26
5.55643 10.3323 -4.03152 585.719 511.659
3.41096 11.531 -5.13234 577.041 515.305
0.876751 12.025 -6.51336 567.075 515.951
-1.73316 11.7573 -5.25288 556.649 514.562
-4.05074 10.7684 -4.151 547.616 510.363
-1.71531 8.55982 -5.07571 557.641 502.04
0.731541 8.51004 -7.28458 567.656 501.774
3.06159 8.35304 -4.81738 576.555 502.798
3.15814 8.9628 -4.38423 576.693 505.392
0.788216 9.46027 -6.31731 567.457 505.896
-1.70727 9.18713 -4.57411 557.414 504.701
3 20 21 23
3 21 22 23
3 0 1 36
3 15 16 45
3 0 17 36
3 16 26 45
3 17 18 37
3 25 26 44
3 17 36 37
3 26 44 45
3 18 19 38
3 24 25 43
3 18 37 38
3 25 43 44
3 19 20 38
3 23 24 43
3 20 21 39
3 22 23 42
3 20 38 39
3 23 42 43
3 21 22 27
3 21 27 39
3 22 27 42
3 27 28 42
3 27 28 39
3 28 42 47
3 28 39 40
3 1 36 41
3 15 45 46
3 1 2 41
3 14 15 46
3 28 29 40
3 28 29 47
3 2 40 41
3 14 46 47
3 2 29 40
3 14 29 47
3 2 3 29
3 13 14 29
3 29 30 31
3 29 30 35
3 3 29 31
3 13 29 35
3 30 32 33
3 30 33 34
3 30 31 32
3 30 34 35
3 3 4 31
3 12 13 35
3 4 5 48
3 11 12 54
3 5 6 48
3 10 11 54
3 6 48 59
3 10 54 55
3 6 7 59
3 9 10 55
3 7 58 59
3 9 55 56
3 8 57 58
3 8 56 57
3 7 8 58
3 8 9 56
3 4 31 48
3 12 35 54
3 31 48 49
3 35 53 54
3 31 49 50
3 35 52 53
3 31 32 50
3 34 35 52
3 32 33 50
3 33 34 52
3 33 50 51
3 33 51 52
3 48 49 60
3 49 60 50
3 50 60 61
3 50 51 61
3 51 52 61
3 61 62 52
3 52 53 62
3 53 54 62
3 54 55 63
3 55 56 63
3 56 63 64
3 56 57 64
3 64 65 57
3 57 58 65
3 58 59 65
3 48 59 65
