ply
format ascii 1.0
element vertex 66
property float x
property float y
property float z
property float u
property float v
element face 91
property list uchar int vertex_indices
end_header
-20.2753 -6.05881 21.6216 478.583 301.258
-19.7844 -0.555979 21.1793 477.738 323.51
-19.0886 4.94163 20.8707 477.713 345.913
-18.0893 10.1338 18.4366 479.297 366.253
-16.3403 14.7001 13.7218 484.483 383.402
-13.1184 18.2171 8.01511 496.301 396.639
-8.7341 20.5571 3.17443 513.367 406.151
-3.83524 21.9783 -0.970089 532.934 412.556
1.3836 21.9379 -4.68234 554.523 413.437
6.62997 21.1594 -0.756914 575.837 414.922
11.2348 18.801 3.43001 595.347 409.814
15.1162 15.6064 8.25866 612.294 401.248
17.7776 11.5637 13.9031 624.648 388.993
19.0291 6.91985 18.5029 631.697 373.074
19.3888 1.90821 20.9282 635.539 354.181
19.3051 -3.34109 21.1109 637.931 333.047
18.9389 -8.56287 21.4619 639.144 311.952
-17.1369 -14.2069 0.0399138 497.781 259.983
-14.8095 -16.126 -1.43553 508.386 252.791
-11.8987 -16.8638 -2.89749 520.741 250.681
-8.94046 -16.8051 -4.36024 532.87 251.809
-6.07623 -16.1883 -5.69089 544.312 255.2
3.80746 -16.6056 -5.76467 584.672 258.743
6.4321 -17.4914 -4.36961 595.653 257.218
9.22945 -17.8773 -2.8638 607.061 257.853
12.0813 -17.5496 -1.33934 618.315 261.405
14.525 -16.0108 0.210776 627.275 269.636
-0.548044 -11.4433 -5.03337 564.207 277.59
-0.376359 -8.70971 -7.69193 563.741 287.467
-0.21759 -6.01356 -10.5792 563.265 297.079
-0.0623971 -3.32656 -13.4516 562.778 306.66
-3.08113 -0.0789933 -6.00175 548.064 321.632
-1.41419 0.135348 -7.17529 554.839 322.836
0.291075 0.127902 -8.23911 561.875 323.217
1.8741 -0.0609645 -7.10284 568.287 323.828
3.38902 -0.477837 -5.94023 574.54 323.495
-13.6009 -9.87317 -0.88601 509.962 278.914
-11.6882 -11.1519 -0.915973 518.402 274.76
-9.34547 -11.3912 -1.03203 528.052 274.987
-7.34086 -10.3914 -1.02305 535.667 280.091
-9.35963 -9.62328 -1.15436 527.08 282.054
-11.5616 -9.40978 -1.08363 518.02 281.776
5.70107 -11.1088 -1.03737 589.002 284.131
7.51724 -12.2679 -0.997046 596.98 280.441
9.81811 -12.3561 -0.838877 606.354 281.384
11.8189 -11.3087 -0.756877 613.921 286.712
9.89746 -10.6081 -0.995645 605.776 288.404
7.73339 -10.5872 -1.09748 596.988 287.289
-6.65448 9.08621 -3.06688 528.454 358.072
-4.37016 7.44455 -4.92081 538.778 351.8
-1.95807 6.16728 -6.60939 549.413 347.143
0.611501 6.18705 -8.33212 560.011 347.785
3.10201 5.85431 -6.43109 570.106 348.656
5.59294 6.79122 -4.72913 579.557 354.556
7.95166 8.16828 -2.8902 588.227 362.225
6.24387 10.1465 -4.12854 580.381 368.718
3.79207 11.3169 -5.43309 569.944 371.525
1.00709 11.6623 -6.81543 558.594 370.791
-1.86231 11.6593 -5.60466 546.822 369.817
-4.53327 10.8174 -4.31133 536.287 365.603
-2.10306 8.30232 -5.35452 547.578 356.264
0.761469 8.07115 -7.49125 559.547 355.858
3.58091 7.96503 -5.1387 570.813 358.029
3.70152 8.49562 -4.48064 570.959 360.541
0.83905 8.75414 -6.27778 559.382 359.221
-2.0937 8.85474 -4.68561 547.259 358.81
3 20 21 23
3 21 22 23
3 0 1 36
3 15 16 45
3 0 17 36
3 16 26 45
3 17 18 37
3 25 26 44
3 17 36 37
3 26 44 45
3 18 19 38
3 24 25 43
3 18 37 38
3 25 43 44
3 19 20 38
3 23 24 43
3 20 21 39
3 22 23 42
3 20 38 39
3 23 42 43
3 21 22 27
3 21 27 39
3 22 27 42
3 27 28 42
3 27 28 39
3 28 42 47
3 28 39 40
3 1 36 41
3 15 45 46
3 1 2 41
3 14 15 46
3 28 29 40
3 28 29 47
3 2 40 41
3 14 46 47
3 2 29 40
3 14 29 47
3 2 3 29
3 13 14 29
3 29 30 31
3 29 30 35
3 3 29 31
3 13 29 35
3 30 32 33
3 30 33 34
3 30 31 32
3 30 34 35
3 3 4 31
3 12 13 35
3 4 5 48
3 11 12 54
3 5 6 48
3 10 11 54
3 6 48 59
3 10 54 55
3 6 7 59
3 9 10 55
3 7 58 59
3 9 55 56
3 8 57 58
3 8 56 57
3 7 8 58
3 8 9 56
3 4 31 48
3 12 35 54
3 31 48 49
3 35 53 54
3 31 49 50
3 35 52 53
3 31 32 50
3 34 35 52
3 32 33 50
3 33 34 52
3 33 50 51
3 33 51 52
3 48 49 60
3 49 60 50
3 50 60 61
3 50 51 61
3 51 52 61
3 61 62 52
3 52 53 62
3 53 54 62
3 54 55 63
3 55 56 63
3 56 63 64
3 56 57 64
3 64 65 57
3 57 58 65
3 58 59 65
3 48 59 65
