ply
format ascii 1.0
element vertex 66
property float x
property float y
property float z
property float u
property float v
element face 91
property list uchar int vertex_indices
end_header
-20.0995 -6.31759 21.758 480.167 297.902
-19.6243 -0.70865 21.3208 478.905 320.932
-19.0078 4.90735 20.9562 478.213 344.104
-18.1682 10.2324 18.4797 478.799 365.314
-16.5694 14.9191 13.8306 483.073 383.431
-13.3338 18.4521 8.08702 494.845 397.323
-8.8426 20.6896 3.18177 512.455 407.011
-3.86053 21.99 -0.987302 532.562 413.469
1.40004 21.844 -4.68379 554.61 414.378
6.66592 21.12 -0.797895 576.33 416.168
11.3111 18.7961 3.43774 596.395 411.199
15.2529 15.6497 8.33639 613.985 402.739
17.9126 11.6076 14.0189 626.753 390.197
19.0704 6.95219 18.4883 633.812 373.749
19.3067 1.96407 20.9888 637.452 354.558
19.1454 -3.25803 21.188 639.802 333.193
18.7516 -8.44961 21.5069 641.167 311.867
-17.2057 -13.8551 0.0159038 498.404 259.483
-14.7974 -15.8253 -1.47076 509.584 252.204
-11.8076 -16.6365 -2.94945 522.481 250.009
-8.75471 -16.6641 -4.38376 535.179 251.074
-5.77991 -16.1232 -5.68263 547.214 254.476
3.37486 -16.3333 -5.82441 584.989 258.926
6.0796 -17.1602 -4.42615 596.463 257.729
8.9544 -17.4883 -2.92827 608.338 258.714
11.8811 -17.1636 -1.37439 620.043 262.423
14.4309 -15.6611 0.16759 629.515 270.722
-0.522599 -11.6994 -5.12 566.211 275.891
-0.368846 -8.87107 -7.7111 565.436 286.44
-0.229855 -6.09033 -10.6286 564.657 296.646
-0.0910109 -3.32236 -13.5938 563.89 306.78
-3.36672 -0.149534 -6.091 547.902 321.04
-1.54552 0.0805029 -7.21983 555.359 322.566
0.311945 0.0645685 -8.26392 563.099 323.145
2.03433 -0.131396 -7.16732 570.196 323.822
3.69452 -0.581778 -6.0439 577.182 323.435
-13.3063 -9.95997 -0.849381 512.254 277.33
-11.3083 -11.2345 -0.954023 521.218 273.245
-8.91735 -11.4171 -1.12031 531.17 273.83
-6.8479 -10.3378 -0.985238 539.04 279.516
-8.9723 -9.77088 -1.07829 529.985 280.548
-11.2071 -9.57664 -1.07265 520.683 280.034
5.30031 -10.9469 -1.08235 589.351 284.11
7.16463 -12.1547 -1.11579 597.72 280.25
9.48977 -12.2935 -0.878828 607.34 281.148
11.5534 -11.2483 -0.698045 615.201 286.71
9.56704 -10.6355 -1.00223 606.706 287.92
7.38414 -10.6117 -1.0645 597.723 286.71
-8.11299 8.7994 -3.00095 522.914 356.172
-5.28746 7.23089 -4.85275 535.609 350.624
-2.36397 6.08878 -6.58265 548.449 346.929
0.64221 6.06453 -8.26599 560.975 347.874
3.55964 5.7216 -6.36677 572.998 348.995
6.53008 6.45222 -4.626 584.63 354.469
9.40221 7.69455 -2.83649 595.556 361.999
7.30425 9.92455 -4.10985 585.751 369.344
4.36322 11.2353 -5.36815 573.012 372.441
1.0755 11.5993 -6.70582 559.404 371.429
-2.32197 11.6492 -5.55026 545.301 370.134
-5.52296 10.7349 -4.29233 532.557 365.055
-3.16001 8.0753 -5.4515 543.921 355.069
0.793464 7.77514 -7.63618 560.547 355.227
4.70031 7.58523 -5.222 576.503 357.774
4.93308 8.63256 -4.49551 576.786 362.504
0.928653 8.99136 -6.43504 560.289 360.794
-3.16057 9.15413 -4.71438 543.226 359.796
3 20 21 23
3 21 22 23
3 0 1 36
3 15 16 45
3 0 17 36
3 16 26 45
3 17 18 37
3 25 26 44
3 17 36 37
3 26 44 45
3 18 19 38
3 24 25 43
3 18 37 38
3 25 43 44
3 19 20 38
3 23 24 43
3 20 21 39
3 22 23 42
3 20 38 39
3 23 42 43
3 21 22 27
3 21 27 39
3 22 27 42
3 27 28 42
3 27 28 39
3 28 42 47
3 28 39 40
3 1 36 41
3 15 45 46
3 1 2 41
3 14 15 46
3 28 29 40
3 28 29 47
3 2 40 41
3 14 46 47
3 2 29 40
3 14 29 47
3 2 3 29
3 13 14 29
3 29 30 31
3 29 30 35
3 3 29 31
3 13 29 35
3 30 32 33
3 30 33 34
3 30 31 32
3 30 34 35
3 3 4 31
3 12 13 35
3 4 5 48
3 11 12 54
3 5 6 48
3 10 11 54
3 6 48 59
3 10 54 55
3 6 7 59
3 9 10 55
3 7 58 59
3 9 55 56
3 8 57 58
3 8 56 57
3 7 8 58
3 8 9 56
3 4 31 48
3 12 35 54
3 31 48 49
3 35 53 54
3 31 49 50
3 35 52 53
3 31 32 50
3 34 35 52
3 32 33 50
3 33 34 52
3 33 50 51
3 33 51 52
3 48 49 60
3 49 60 50
3 50 60 61
3 50 51 61
3 51 52 61
3 61 62 52
3 52 53 62
3 53 54 62
3 54 55 63
3 55 56 63
3 56 63 64
3 56 57 64
3 64 65 57
3 57 58 65
3 58 59 65
3 48 59 65
