ply
format ascii 1.0
element vertex 66
property float x
property float y
property float z
property float u
property float v
element face 91
property list uchar int vertex_indices
end_header
-20.1654 -6.28162 21.6849 480.03 298.165
-19.7103 -0.690279 21.2463 478.809 321.087
-19.1 4.9072 20.8895 478.213 344.157
-18.2203 10.215 18.4637 479.104 365.342
-16.5532 14.8823 13.7781 483.825 383.424
-13.279 18.4202 8.07594 495.885 397.386
-8.78676 20.6996 3.2004 513.566 407.24
-3.81052 22.0626 -0.980759 533.676 413.912
1.46643 21.9363 -4.66921 555.804 414.873
6.72453 21.2028 -0.793715 577.399 416.467
11.3481 18.86 3.45263 597.252 411.278
15.2798 15.7057 8.32607 614.653 402.639
17.9496 11.6651 13.9755 627.288 389.982
19.1232 7.00149 18.5038 634.246 373.465
19.3706 1.98731 20.9442 637.818 354.127
19.202 -3.25514 21.1462 640.044 332.695
18.8028 -8.46412 21.4831 641.291 311.324
-17.1048 -13.9099 0.0264955 499.156 259.792
-14.7025 -15.8686 -1.49033 510.279 252.529
-11.7251 -16.6816 -2.96001 523.116 250.294
-8.68124 -16.7147 -4.37992 535.783 251.303
-5.71524 -16.175 -5.6621 547.794 254.665
3.2919 -16.3995 -5.7806 584.919 258.821
6.02882 -17.2284 -4.41107 596.478 257.557
8.93064 -17.5439 -2.93691 608.416 258.526
11.8724 -17.1774 -1.40367 620.129 262.33
14.4179 -15.6325 0.176649 629.549 270.743
-0.573355 -11.701 -5.1227 566.342 276.092
-0.411975 -8.85637 -7.71267 565.682 286.736
-0.263504 -6.05768 -10.6153 565.028 297.057
-0.113726 -3.2713 -13.5484 564.388 307.315
-3.43667 -0.115767 -6.10546 548.19 321.392
-1.60243 0.126544 -7.20385 555.702 322.972
0.272319 0.109037 -8.22927 563.518 323.543
2.0275 -0.0943331 -7.14836 570.725 324.156
3.71127 -0.564011 -6.05208 577.788 323.648
-12.9738 -10.0655 -0.900386 514.061 277.466
-11.0262 -11.2643 -0.977116 522.738 273.644
-8.72257 -11.4385 -1.08933 532.307 274.196
-6.70778 -10.4326 -0.919482 539.999 279.522
-8.77253 -9.91576 -1.03724 531.243 280.411
-10.9316 -9.72977 -1.07108 522.276 279.929
5.12293 -11.0292 -1.00931 588.923 283.775
6.95162 -12.166 -1.08401 597.078 280.139
9.196 -12.2941 -0.903973 606.347 280.966
11.206 -11.3204 -0.752265 614.039 286.15
9.2618 -10.7655 -1.00065 605.77 287.21
7.14913 -10.7388 -1.02248 597.082 286.108
-8.02017 8.84399 -2.98328 524.015 356.683
-5.25181 7.26778 -4.86112 536.464 351.042
-2.36369 6.11777 -6.57753 549.149 347.276
0.62638 6.10081 -8.23624 561.612 348.222
3.53559 5.74544 -6.37012 573.561 349.195
6.48554 6.4834 -4.64356 585.079 354.601
9.32614 7.72666 -2.82366 595.854 362.048
7.25166 9.95385 -4.08763 586.219 369.446
4.33913 11.2678 -5.35548 573.656 372.635
1.07077 11.6369 -6.69424 560.169 371.731
-2.30308 11.6903 -5.53416 546.163 370.51
-5.46966 10.7745 -4.27668 533.541 365.487
-3.10973 8.13768 -5.43734 544.833 355.576
0.779053 7.82062 -7.60186 561.207 355.598
4.63207 7.6447 -5.2256 576.878 358.052
4.85243 8.65909 -4.50625 577.138 362.619
0.912092 9.01287 -6.47261 560.966 361.011
-3.10476 9.17865 -4.71219 544.193 360.131
3 20 21 23
3 21 22 23
3 0 1 36
3 15 16 45
3 0 17 36
3 16 26 45
3 17 18 37
3 25 26 44
3 17 36 37
3 26 44 45
3 18 19 38
3 24 25 43
3 18 37 38
3 25 43 44
3 19 20 38
3 23 24 43
3 20 21 39
3 22 23 42
3 20 38 39
3 23 42 43
3 21 22 27
3 21 27 39
3 22 27 42
3 27 28 42
3 27 28 39
3 28 42 47
3 28 39 40
3 1 36 41
3 15 45 46
3 1 2 41
3 14 15 46
3 28 29 40
3 28 29 47
3 2 40 41
3 14 46 47
3 2 29 40
3 14 29 47
3 2 3 29
3 13 14 29
3 29 30 31
3 29 30 35
3 3 29 31
3 13 29 35
3 30 32 33
3 30 33 34
3 30 31 32
3 30 34 35
3 3 4 31
3 12 13 35
3 4 5 48
3 11 12 54
3 5 6 48
3 10 11 54
3 6 48 59
3 10 54 55
3 6 7 59
3 9 10 55
3 7 58 59
3 9 55 56
3 8 57 58
3 8 56 57
3 7 8 58
3 8 9 56
3 4 31 48
3 12 35 54
3 31 48 49
3 35 53 54
3 31 49 50
3 35 52 53
3 31 32 50
3 34 35 52
3 32 33 50
3 33 34 52
3 33 50 51
3 33 51 52
3 48 49 60
3 49 60 50
3 50 60 61
3 50 51 61
3 51 52 61
3 61 62 52
3 52 53 62
3 53 54 62
3 54 55 63
3 55 56 63
3 56 63 64
3 56 57 64
3 64 65 57
3 57 58 65
3 58 59 65
3 48 59 65
