ply
format ascii 1.0
element vertex 66
property float x
property float y
property float z
property float u
property float v
element face 91
property list uchar int vertex_indices
end_header
-20.411 -5.92307 21.6697 477.349 300.685
-19.8981 -0.48338 21.2015 476.32 322.491
-19.1959 4.95754 20.8809 476.049 344.474
-18.2026 10.1131 18.4656 477.126 364.573
-16.4145 14.6431 13.7258 481.768 381.617
-13.1284 18.121 8.05423 493.031 394.904
-8.74278 20.4878 3.20458 509.334 404.734
-3.85159 21.9606 -0.953512 528.17 411.58
1.37409 21.9172 -4.68821 549.208 412.745
6.59065 21.1278 -0.827112 570.576 414.219
11.1734 18.7471 3.39073 590.301 409.136
15.1001 15.592 8.25977 607.826 400.872
17.8688 11.6083 13.9131 621.166 388.984
19.1542 6.95558 18.5631 628.937 373.151
19.5095 1.89671 21.0127 633.221 354.215
19.4428 -3.39216 21.2636 635.957 333.169
19.1158 -8.65853 21.6545 637.635 312.127
-17.2947 -13.6393 0.0995997 494.412 262.29
-15.0043 -15.6621 -1.49576 504.772 254.818
-12.0992 -16.5354 -2.98008 516.946 252.332
-9.10488 -16.5906 -4.38885 529.013 253.195
-6.18125 -16.0754 -5.63935 540.47 256.365
3.98594 -16.6503 -5.68309 581.626 259.805
6.64748 -17.5297 -4.35512 592.804 258.376
9.47574 -17.8919 -2.8778 604.357 259.171
12.3499 -17.5412 -1.31337 615.687 262.875
14.8396 -16.0139 0.296827 624.805 271.081
-0.563857 -11.3716 -5.02915 560.35 278.589
-0.381578 -8.53675 -7.74476 559.491 288.834
-0.206599 -5.74025 -10.6776 558.627 298.827
-0.0365136 -2.9494 -13.5563 557.745 308.818
-3.26062 0.208136 -6.17224 542.947 322.802
-1.5213 0.460347 -7.25933 549.797 324.322
0.260871 0.463251 -8.25634 556.959 324.91
1.93291 0.244757 -7.2239 563.79 325.431
3.54326 -0.224998 -6.12882 570.516 324.942
-13.1141 -9.61121 -0.794528 508.918 280.351
-11.2342 -10.8018 -0.965186 517.145 276.587
-8.98835 -11.0195 -1.18981 526.29 276.892
-7.01885 -10.096 -1.11172 533.673 281.728
-8.99879 -9.45712 -1.13071 525.359 283.15
-11.1119 -9.25735 -1.08642 516.759 282.77
5.60696 -10.9176 -1.09437 584.843 285.6
7.39722 -12.0499 -1.11031 592.676 282.086
9.61617 -12.1696 -0.846432 601.652 282.978
11.6018 -11.2283 -0.647986 609.09 287.946
9.70206 -10.6026 -0.977999 601.108 289.226
7.6116 -10.5397 -1.05614 592.678 288.26
-8.26069 8.2095 -2.92907 518.295 353.325
-5.38889 6.76058 -4.8338 530.666 348.339
-2.43486 5.78569 -6.5436 543.096 345.377
0.531361 5.79857 -8.24342 555.013 346.371
3.40563 5.40125 -6.43294 566.767 347.196
6.38785 5.96412 -4.68805 578.41 351.887
9.30622 7.05222 -2.77408 589.497 358.713
7.31282 9.70414 -4.10914 579.994 367.595
4.35623 11.3785 -5.41705 567.18 372.039
0.932375 11.8803 -6.75797 553.155 371.524
-2.57985 11.8279 -5.51929 539.071 369.864
-5.80654 10.5723 -4.21864 526.817 363.589
-3.06858 7.84241 -5.42604 539.373 353.715
0.666384 7.66649 -7.63501 554.489 354.169
4.32024 7.36603 -5.27452 569.315 356.06
4.59357 8.48895 -4.51381 569.768 361.028
0.763901 8.94801 -6.42121 554.143 359.867
-3.16717 9.00941 -4.65604 538.308 358.652
3 20 21 23
3 21 22 23
3 0 1 36
3 15 16 45
3 0 17 36
3 16 26 45
3 17 18 37
3 25 26 44
3 17 36 37
3 26 44 45
3 18 19 38
3 24 25 43
3 18 37 38
3 25 43 44
3 19 20 38
3 23 24 43
3 20 21 39
3 22 23 42
3 20 38 39
3 23 42 43
3 21 22 27
3 21 27 39
3 22 27 42
3 27 28 42
3 27 28 39
3 28 42 47
3 28 39 40
3 1 36 41
3 15 45 46
3 1 2 41
3 14 15 46
3 28 29 40
3 28 29 47
3 2 40 41
3 14 46 47
3 2 29 40
3 14 29 47
3 2 3 29
3 13 14 29
3 29 30 31
3 29 30 35
3 3 29 31
3 13 29 35
3 30 32 33
3 30 33 34
3 30 31 32
3 30 34 35
3 3 4 31
3 12 13 35
3 4 5 48
3 11 12 54
3 5 6 48
3 10 11 54
3 6 48 59
3 10 54 55
3 6 7 59
3 9 10 55
3 7 58 59
3 9 55 56
3 8 57 58
3 8 56 57
3 7 8 58
3 8 9 56
3 4 31 48
3 12 35 54
3 31 48 49
3 35 53 54
3 31 49 50
3 35 52 53
3 31 32 50
3 34 35 52
3 32 33 50
3 33 34 52
3 33 50 51
3 33 51 52
3 48 49 60
3 49 60 50
3 50 60 61
3 50 51 61
3 51 52 61
3 61 62 52
3 52 53 62
3 53 54 62
3 54 55 63
3 55 56 63
3 56 63 64
3 56 57 64
3 64 65 57
3 57 58 65
3 58 59 65
3 48 59 65
