ply
format ascii 1.0
element vertex 66
property float x
property float y
property float z
property float u
property float v
element face 91
property list uchar int vertex_indices
end_header
-19.4384 -6.06801 21.4491 479.537 298.982
-18.9262 -0.598411 21.0268 478.083 322.16
-18.2496 4.87066 20.6667 477.319 345.466
-17.307 10.0989 18.356 477.929 367.275
-15.6921 14.8118 13.7397 481.824 386.582
-12.6943 18.5762 8.07246 492.229 402.467
-8.53906 21.2081 3.13312 508.23 414.612
-3.82236 22.9298 -0.946997 527.162 423.599
1.31494 23.0327 -4.67898 548.926 426.183
6.48878 22.0597 -0.775249 571.196 426.868
10.8589 19.3132 3.36346 591.245 419.646
14.5009 15.8074 8.30679 608.692 409.023
16.9779 11.5271 13.9308 621.709 394.602
18.195 6.76072 18.3695 629.796 376.896
18.5823 1.74096 20.7354 634.65 356.868
18.5074 -3.46331 20.9711 637.78 335.032
18.1542 -8.65106 21.2629 639.724 313.1
-16.5141 -13.8614 0.0172858 498.057 260.897
-14.3675 -15.864 -1.535 508.509 253.384
-11.5789 -16.7867 -2.97302 520.945 250.875
-8.66672 -16.8898 -4.4022 533.357 251.895
-5.8039 -16.4253 -5.69504 545.177 255.314
3.49369 -16.7827 -5.83892 584.613 259.955
6.03897 -17.5988 -4.43409 595.817 258.698
8.7454 -17.9138 -2.91068 607.362 259.695
11.4821 -17.5696 -1.3672 618.597 263.489
13.8379 -16.1356 0.166724 627.501 271.604
-0.504068 -11.9843 -5.11264 564.539 277.7
-0.363118 -9.26503 -7.68647 563.449 288.343
-0.233054 -6.58105 -10.4892 562.347 298.754
-0.108006 -3.91075 -13.3125 561.235 309.096
-3.07338 -0.75851 -5.92995 546.291 322.876
-1.42777 -0.570509 -7.05943 553.156 324.378
0.254052 -0.578418 -8.13377 560.302 325.099
1.80827 -0.756457 -7.02077 566.919 325.765
3.31309 -1.13513 -5.88934 573.46 325.56
-12.5309 -10.1658 -1.02136 512.441 278.723
-10.7851 -11.2695 -0.976498 520.531 275.263
-8.67696 -11.5276 -1.0181 529.591 275.569
-6.81968 -10.782 -0.904168 536.919 279.977
-8.66315 -10.1187 -1.06143 528.716 281.482
-10.6554 -9.88088 -1.07327 520.16 281.151
5.45279 -11.5289 -0.962601 589.15 284.992
7.14378 -12.4203 -0.96937 596.87 282.37
9.21319 -12.4717 -0.870425 605.623 283.566
11.0256 -11.578 -0.883083 612.669 288.523
9.25125 -11.057 -0.995119 604.849 289.492
7.29357 -11.0784 -1.03195 596.613 288.086
-6.95442 9.35607 -2.97779 523.073 363.792
-4.81535 7.38781 -4.85408 533.486 356.309
-2.30364 5.8154 -6.51432 545.196 350.81
0.564022 5.72213 -8.21299 557.427 351.75
3.35579 5.46405 -6.3443 569.278 353.161
5.96254 6.69541 -4.65556 579.368 360.645
8.18604 8.43426 -2.8179 587.498 370.056
6.54541 10.7231 -4.16814 579.126 378.121
4.08811 12.269 -5.41903 567.8 382.554
1.03558 12.793 -6.8248 554.652 382.245
-2.12118 12.6446 -5.55772 541.384 379.95
-4.8606 11.4334 -4.27901 530.58 373.472
-2.60826 7.94376 -5.22306 542.437 359.989
0.69667 7.48552 -7.46367 556.779 359.502
3.96716 7.55136 -5.01976 570.405 362.788
4.18366 9.50959 -4.40437 569.988 371.369
0.903413 10.1262 -6.27404 555.84 371.14
-2.51317 9.93572 -4.59836 541.485 368.634
3 20 21 23
3 21 22 23
3 0 1 36
3 15 16 45
3 0 17 36
3 16 26 45
3 17 18 37
3 25 26 44
3 17 36 37
3 26 44 45
3 18 19 38
3 24 25 43
3 18 37 38
3 25 43 44
3 19 20 38
3 23 24 43
3 20 21 39
3 22 23 42
3 20 38 39
3 23 42 43
3 21 22 27
3 21 27 39
3 22 27 42
3 27 28 42
3 27 28 39
3 28 42 47
3 28 39 40
3 1 36 41
3 15 45 46
3 1 2 41
3 14 15 46
3 28 29 40
3 28 29 47
3 2 40 41
3 14 46 47
3 2 29 40
3 14 29 47
3 2 3 29
3 13 14 29
3 29 30 31
3 29 30 35
3 3 29 31
3 13 29 35
3 30 32 33
3 30 33 34
3 30 31 32
3 30 34 35
3 3 4 31
3 12 13 35
3 4 5 48
3 11 12 54
3 5 6 48
3 10 11 54
3 6 48 59
3 10 54 55
3 6 7 59
3 9 10 55
3 7 58 59
3 9 55 56
3 8 57 58
3 8 56 57
3 7 8 58
3 8 9 56
3 4 31 48
3 12 35 54
3 31 48 49
3 35 53 54
3 31 49 50
3 35 52 53
3 31 32 50
3 34 35 52
3 32 33 50
3 33 34 52
3 33 50 51
3 33 51 52
3 48 49 60
3 49 60 50
3 50 60 61
3 50 51 61
3 51 52 61
3 61 62 52
3 52 53 62
3 53 54 62
3 54 55 63
3 55 56 63
3 56 63 64
3 56 57 64
3 64 65 57
3 57 58 65
3 58 59 65
3 48 59 65
