ply
format ascii 1.0
element vertex 66
property float x
property float y
property float z
property float u
property float v
element face 91
property list uchar int vertex_indices
end_header
-20.5746 -5.91103 21.6336 478.072 303.296
-20.0711 -0.385483 21.1588 477.284 325.211
-19.3467 5.13859 20.8627 477.365 347.333
-18.3065 10.3277 18.4712 479.055 367.16
-16.5234 14.829 13.6325 484.274 383.328
-13.2777 18.2694 7.97453 495.959 395.609
-8.87596 20.5418 3.18907 512.799 404.331
-3.94549 21.8634 -0.973893 532.192 409.895
1.28986 21.7658 -4.6805 553.498 410.236
6.60541 21.0032 -0.719707 574.835 412.117
11.2727 18.6735 3.47055 594.364 407.57
15.2011 15.4873 8.23855 611.33 399.554
17.924 11.4706 13.8215 623.832 388.056
19.2524 6.86238 18.5244 631.13 373.012
19.6773 1.83724 20.9013 635.219 354.59
19.6175 -3.45017 21.0661 637.687 333.682
19.2405 -8.70704 21.4393 638.852 312.843
-17.2665 -14.1492 0.0559863 497.328 260.717
-14.9005 -16.1114 -1.45006 507.93 253.357
-11.9479 -16.8576 -2.87687 520.247 251.166
-8.95076 -16.7738 -4.32267 532.316 252.28
-6.05559 -16.1174 -5.6452 543.673 255.677
3.96196 -16.588 -5.72576 584.008 258.986
6.56571 -17.5123 -4.33836 594.789 257.425
9.35538 -17.9332 -2.83986 606.045 258.018
12.2124 -17.6306 -1.3358 617.198 261.517
14.6824 -16.1007 0.227964 626.166 269.713
-0.480052 -11.3196 -4.99966 563.463 277.954
-0.310514 -8.48252 -7.72537 562.907 287.822
-0.154546 -5.67943 -10.6312 562.328 297.45
-0.00555287 -2.87913 -13.4482 561.716 307.112
-3.00833 0.205455 -6.07455 547.505 321.756
-1.36188 0.455754 -7.20401 554.058 322.997
0.336118 0.466457 -8.20197 560.93 323.385
1.90013 0.272305 -7.11067 567.198 324.019
3.38038 -0.166142 -5.9858 573.254 323.658
-13.7357 -9.85024 -0.902529 509.325 279.085
-11.7493 -11.1398 -0.930847 517.939 274.991
-9.3388 -11.3826 -1.01863 527.717 275.237
-7.28292 -10.3356 -1.00059 535.404 280.469
-9.37198 -9.56896 -1.16618 526.664 282.331
-11.6402 -9.36453 -1.09516 517.476 281.998
5.74059 -11.0689 -1.00704 587.897 284.341
7.59431 -12.2814 -0.965824 595.935 280.521
9.96078 -12.3846 -0.844099 605.448 281.41
12.0298 -11.33 -0.783762 613.18 286.702
10.0618 -10.5949 -1.00643 604.945 288.472
7.83792 -10.5572 -1.10786 596.035 287.408
-6.14556 9.03856 -3.07656 530.16 356.763
-4.06641 7.34643 -4.96578 539.506 350.117
-1.82601 6.05295 -6.63973 549.275 345.253
0.575374 6.08287 -8.38132 559.013 345.683
2.89743 5.77443 -6.45446 568.304 346.709
5.20308 6.76505 -4.76199 576.881 352.75
7.33385 8.23962 -2.87707 584.494 360.724
5.75072 10.031 -4.07132 577.336 366.358
3.49479 11.0804 -5.39456 567.878 368.63
0.924017 11.3674 -6.82337 557.56 367.659
-1.7194 11.3748 -5.58283 546.876 366.98
-4.1812 10.6157 -4.2634 537.307 363.399
-1.79376 8.19809 -5.35575 548.194 354.468
0.718238 7.9763 -7.43863 558.532 353.774
3.17966 7.93136 -5.1023 568.212 356.137
3.25044 8.2697 -4.43882 568.267 357.874
0.769953 8.43826 -6.23955 558.403 356.279
-1.77825 8.56103 -4.68135 548.014 356.279
3 20 21 23
3 21 22 23
3 0 1 36
3 15 16 45
3 0 17 36
3 16 26 45
3 17 18 37
3 25 26 44
3 17 36 37
3 26 44 45
3 18 19 38
3 24 25 43
3 18 37 38
3 25 43 44
3 19 20 38
3 23 24 43
3 20 21 39
3 22 23 42
3 20 38 39
3 23 42 43
3 21 22 27
3 21 27 39
3 22 27 42
3 27 28 42
3 27 28 39
3 28 42 47
3 28 39 40
3 1 36 41
3 15 45 46
3 1 2 41
3 14 15 46
3 28 29 40
3 28 29 47
3 2 40 41
3 14 46 47
3 2 29 40
3 14 29 47
3 2 3 29
3 13 14 29
3 29 30 31
3 29 30 35
3 3 29 31
3 13 29 35
3 30 32 33
3 30 33 34
3 30 31 32
3 30 34 35
3 3 4 31
3 12 13 35
3 4 5 48
3 11 12 54
3 5 6 48
3 10 11 54
3 6 48 59
3 10 54 55
3 6 7 59
3 9 10 55
3 7 58 59
3 9 55 56
3 8 57 58
3 8 56 57
3 7 8 58
3 8 9 56
3 4 31 48
3 12 35 54
3 31 48 49
3 35 53 54
3 31 49 50
3 35 52 53
3 31 32 50
3 34 35 52
3 32 33 50
3 33 34 52
3 33 50 51
3 33 51 52
3 48 49 60
3 49 60 50
3 50 60 61
3 50 51 61
3 51 52 61
3 61 62 52
3 52 53 62
3 53 54 62
3 54 55 63
3 55 56 63
3 56 63 64
3 56 57 64
3 64 65 57
3 57 58 65
3 58 59 65
3 48 59 65
