ply
format ascii 1.0
element vertex 66
property float x
property float y
property float z
property float u
property float v
element face 91
property list uchar int vertex_indices
end_header
-20.6737 -6.03041 21.6093 476.909 302.674
-20.1963 -0.509938 21.0974 475.759 324.382
-19.5033 5.01548 20.7918 475.448 346.341
-18.4812 10.2152 18.4525 476.759 366.113
-16.7127 14.7441 13.6123 481.569 382.324
-13.4572 18.2168 7.93877 492.926 394.767
-9.01085 20.4868 3.17876 509.622 403.639
-4.02898 21.7992 -0.912803 528.934 409.403
1.25381 21.6876 -4.64724 550.211 409.926
6.6038 20.9882 -0.718711 571.584 412.286
11.3361 18.7352 3.4194 591.357 408.3
15.3574 15.6296 8.16728 608.743 400.888
18.1361 11.6354 13.7861 621.635 389.751
19.4553 6.98815 18.5294 629.155 374.756
19.8635 1.89419 20.8879 633.462 356.213
19.7875 -3.46168 21.1113 636.133 335.224
19.415 -8.78639 21.5142 637.597 314.286
-17.2992 -13.8536 0.13197 496.067 262.276
-15.1133 -15.8616 -1.46228 505.968 254.75
-12.3133 -16.6989 -2.8961 517.644 252.259
-9.43246 -16.6826 -4.31064 529.164 253.181
-6.63684 -16.1181 -5.58146 540.03 256.289
4.37249 -16.7094 -5.61538 584.067 260.125
6.92348 -17.5929 -4.28166 594.6 258.798
9.64805 -17.9813 -2.81583 605.537 259.585
12.4211 -17.6034 -1.31181 616.237 263.435
14.7858 -16.0213 0.315717 624.636 271.859
-0.535981 -11.0184 -5.08913 561.373 280.038
-0.363328 -8.26933 -7.83716 560.705 289.474
-0.200801 -5.54611 -10.6986 560.018 298.742
-0.0423539 -2.81972 -13.418 559.304 308.096
-3.0265 0.337914 -6.16515 545.224 322.732
-1.39039 0.588421 -7.23428 551.649 324.062
0.296492 0.60658 -8.18046 558.397 324.573
1.87414 0.389675 -7.15484 564.714 325.155
3.3704 -0.0652462 -6.11317 570.84 324.765
-13.3039 -9.67564 -1.00371 509.672 280.343
-11.4322 -10.8893 -1.01489 517.78 276.614
-9.16667 -11.1176 -1.06974 526.904 276.959
-7.22683 -10.1325 -0.941064 534.047 281.991
-9.18492 -9.35633 -1.15154 525.855 283.832
-11.3253 -9.17335 -1.13996 517.255 283.357
5.71337 -10.9283 -0.911718 585.86 286.141
7.46196 -12.1005 -1.0096 593.461 282.459
9.69438 -12.2089 -0.910691 602.378 283.339
11.6669 -11.2418 -0.85242 609.665 288.281
9.81463 -10.4801 -1.02051 601.898 290.147
7.70609 -10.4111 -1.05751 593.492 289.215
-6.34499 8.77489 -2.98646 527.138 355.76
-4.18554 7.16379 -4.95213 536.737 349.581
-1.8772 5.93174 -6.66737 546.699 345.11
0.588469 5.92994 -8.40921 556.602 345.553
2.98559 5.62318 -6.4992 566.165 346.717
5.36893 6.52691 -4.76535 575.009 352.539
7.60179 7.87868 -2.79641 582.991 360.166
5.91424 9.65923 -3.98695 575.377 365.584
3.60386 10.7533 -5.35764 565.684 367.855
0.929037 11.0784 -6.79801 554.978 366.86
-1.80298 11.0847 -5.51849 544.046 366.037
-4.30901 10.3146 -4.13353 534.436 362.344
-2.00068 7.7738 -5.36649 545.097 352.985
0.706584 7.48632 -7.44848 556.141 352.257
3.37857 7.4488 -5.16517 566.62 354.834
3.53086 8.43255 -4.40542 566.627 359.196
0.806483 8.74061 -6.16599 555.754 357.934
-1.98853 8.78594 -4.5936 544.531 357.387
3 20 21 23
3 21 22 23
3 0 1 36
3 15 16 45
3 0 17 36
3 16 26 45
3 17 18 37
3 25 26 44
3 17 36 37
3 26 44 45
3 18 19 38
3 24 25 43
3 18 37 38
3 25 43 44
3 19 20 38
3 23 24 43
3 20 21 39
3 22 23 42
3 20 38 39
3 23 42 43
3 21 22 27
3 21 27 39
3 22 27 42
3 27 28 42
3 27 28 39
3 28 42 47
3 28 39 40
3 1 36 41
3 15 45 46
3 1 2 41
3 14 15 46
3 28 29 40
3 28 29 47
3 2 40 41
3 14 46 47
3 2 29 40
3 14 29 47
3 2 3 29
3 13 14 29
3 29 30 31
3 29 30 35
3 3 29 31
3 13 29 35
3 30 32 33
3 30 33 34
3 30 31 32
3 30 34 35
3 3 4 31
3 12 13 35
3 4 5 48
3 11 12 54
3 5 6 48
3 10 11 54
3 6 48 59
3 10 54 55
3 6 7 59
3 9 10 55
3 7 58 59
3 9 55 56
3 8 57 58
3 8 56 57
3 7 8 58
3 8 9 56
3 4 31 48
3 12 35 54
3 31 48 49
3 35 53 54
3 31 49 50
3 35 52 53
3 31 32 50
3 34 35 52
3 32 33 50
3 33 34 52
3 33 50 51
3 33 51 52
3 48 49 60
3 49 60 50
3 50 60 61
3 50 51 61
3 51 52 61
3 61 62 52
3 52 53 62
3 53 54 62
3 54 55 63
3 55 56 63
3 56 63 64
3 56 57 64
3 64 65 57
3 57 58 65
3 58 59 65
3 48 59 65
