ply
format ascii 1.0
element vertex 66
property float x
property float y
property float z
property float u
property float v
element face 91
property list uchar int vertex_indices
end_header
-20.6973 -6.09479 21.6497 476.712 301.605
-20.2033 -0.536039 21.1423 475.517 323.495
-19.5035 5.03047 20.8287 475.123 345.637
-18.4922 10.2616 18.509 476.272 365.581
-16.7356 14.7937 13.6495 480.924 381.864
-13.4781 18.2641 7.98037 492.19 394.406
-9.02106 20.5368 3.21233 508.854 403.402
-4.01024 21.8279 -0.90407 528.242 409.196
1.30842 21.6708 -4.64974 549.66 409.665
6.65768 20.9697 -0.750446 571.077 412.04
11.3788 18.714 3.41842 590.876 408.079
15.3845 15.6154 8.19063 608.284 400.707
18.147 11.6423 13.8226 621.208 389.631
19.4537 7.02176 18.5593 628.774 374.698
19.8515 1.93451 20.9185 633.135 356.152
19.7757 -3.42767 21.1523 635.894 335.132
19.4123 -8.75984 21.5609 637.483 314.156
-17.4341 -13.5864 0.117284 495.184 262.653
-15.2018 -15.7083 -1.49275 505.354 254.74
-12.3103 -16.615 -2.92685 517.435 252.08
-9.32472 -16.6251 -4.33687 529.374 253.016
-6.42587 -16.0554 -5.60085 540.628 256.26
4.20182 -16.6185 -5.62983 583.145 260.145
6.80215 -17.5429 -4.28732 593.922 258.712
9.59055 -17.9527 -2.81038 605.143 259.483
12.4385 -17.5966 -1.29681 616.16 263.321
14.8834 -16.0028 0.314196 624.862 271.849
-0.520167 -11.173 -5.09793 561.248 279.136
-0.351037 -8.34294 -7.84887 560.454 288.92
-0.190516 -5.54197 -10.7263 559.649 298.517
-0.0339912 -2.7373 -13.4664 558.819 308.199
-3.04718 0.351382 -6.19581 544.673 322.451
-1.40625 0.603057 -7.2533 551.104 323.829
0.287604 0.613248 -8.18936 557.876 324.35
1.8748 0.40623 -7.1812 564.239 324.981
3.38253 -0.046298 -6.12715 570.424 324.623
-13.3513 -9.63534 -0.994186 509.192 279.965
-11.3847 -10.885 -1.03284 517.718 276.159
-9.02292 -11.1149 -1.10863 527.231 276.574
-6.98703 -10.0957 -0.957296 534.721 281.836
-9.05166 -9.37036 -1.1499 526.119 283.4
-11.2783 -9.17292 -1.14427 517.166 282.898
5.59647 -10.8947 -0.938181 585.135 285.944
7.43335 -12.1172 -1.02086 593.133 282.148
9.76279 -12.2415 -0.897222 602.446 283.064
11.835 -11.2498 -0.820749 610.1 288.199
9.88424 -10.5084 -1.01617 601.941 289.891
7.6877 -10.4355 -1.0614 593.182 288.89
-6.60933 8.62201 -2.96067 525.608 354.651
-4.32418 7.09437 -4.92386 535.667 348.92
-1.93181 5.95762 -6.65383 545.915 344.912
0.564132 5.96184 -8.39567 555.92 345.447
2.98307 5.6473 -6.49721 565.596 346.603
5.42767 6.45273 -4.74709 574.74 352.101
7.7645 7.71366 -2.79806 583.184 359.435
6.0318 9.55979 -4.01163 575.316 365.063
3.64941 10.6951 -5.38155 565.285 367.437
0.89473 11.0238 -6.79635 554.241 366.399
-1.9251 11.0373 -5.52015 542.966 365.502
-4.5149 10.2303 -4.13301 533.068 361.567
-2.24486 7.75353 -5.38798 543.571 352.466
0.67668 7.47196 -7.4869 555.45 351.933
3.55415 7.39996 -5.19434 566.785 354.515
3.72839 8.36851 -4.41848 566.878 358.835
0.77303 8.68322 -6.2091 555.066 357.429
-2.25979 8.75512 -4.59587 542.892 356.816
3 20 21 23
3 21 22 23
3 0 1 36
3 15 16 45
3 0 17 36
3 16 26 45
3 17 18 37
3 25 26 44
3 17 36 37
3 26 44 45
3 18 19 38
3 24 25 43
3 18 37 38
3 25 43 44
3 19 20 38
3 23 24 43
3 20 21 39
3 22 23 42
3 20 38 39
3 23 42 43
3 21 22 27
3 21 27 39
3 22 27 42
3 27 28 42
3 27 28 39
3 28 42 47
3 28 39 40
3 1 36 41
3 15 45 46
3 1 2 41
3 14 15 46
3 28 29 40
3 28 29 47
3 2 40 41
3 14 46 47
3 2 29 40
3 14 29 47
3 2 3 29
3 13 14 29
3 29 30 31
3 29 30 35
3 3 29 31
3 13 29 35
3 30 32 33
3 30 33 34
3 30 31 32
3 30 34 35
3 3 4 31
3 12 13 35
3 4 5 48
3 11 12 54
3 5 6 48
3 10 11 54
3 6 48 59
3 10 54 55
3 6 7 59
3 9 10 55
3 7 58 59
3 9 55 56
3 8 57 58
3 8 56 57
3 7 8 58
3 8 9 56
3 4 31 48
3 12 35 54
3 31 48 49
3 35 53 54
3 31 49 50
3 35 52 53
3 31 32 50
3 34 35 52
3 32 33 50
3 33 34 52
3 33 50 51
3 33 51 52
3 48 49 60
3 49 60 50
3 50 60 61
3 50 51 61
3 51 52 61
3 61 62 52
3 52 53 62
3 53 54 62
3 54 55 63
3 55 56 63
3 56 63 64
3 56 57 64
3 64 65 57
3 57 58 65
3 58 59 65
3 48 59 65
