ply
format ascii 1.0
element vertex 66
property float x
property float y
property float z
property float u
property float v
element face 91
property list uchar int vertex_indices
end_header
-20.4514 -5.88713 21.6309 477.516 299.575
-19.9561 -0.483062 21.1662 476.248 321.189
-19.2683 4.92658 20.8897 475.745 343.015
-18.2717 10.0486 18.4894 476.663 363.029
-16.4805 14.5536 13.7127 481.146 380.11
-13.2057 18.0256 8.06226 492.189 393.619
-8.82673 20.3863 3.25222 508.31 403.705
-3.93957 21.8504 -0.908074 526.999 410.789
1.27634 21.8208 -4.67485 547.899 412.285
6.51705 21.081 -0.822296 569.277 414.03
11.1537 18.7645 3.39093 589.185 409.284
15.1452 15.6576 8.22239 606.985 401.255
17.963 11.6913 13.8718 620.603 389.431
19.2711 7.02874 18.5741 628.61 373.551
19.6357 1.94337 21.0294 633.112 354.521
19.5551 -3.37515 21.2719 635.989 333.408
19.2062 -8.67115 21.6577 637.778 312.281
-17.3701 -13.4187 0.100912 494.51 262.807
-15.1704 -15.5275 -1.53372 504.586 255.078
-12.3004 -16.4751 -3.00561 516.642 252.437
-9.31482 -16.5703 -4.40904 528.648 253.284
-6.38863 -16.0997 -5.64726 540.074 256.413
4.11495 -16.7397 -5.66314 582.462 260.156
6.75619 -17.6248 -4.33888 593.548 258.75
9.56302 -17.9957 -2.86233 604.986 259.549
12.4166 -17.6491 -1.30457 616.178 263.265
14.8789 -16.1174 0.313443 625.093 271.485
-0.541368 -11.3418 -5.03673 560.589 279.095
-0.342947 -8.52629 -7.76499 559.706 289.321
-0.15061 -5.74625 -10.6824 558.821 299.327
0.0341176 -2.96985 -13.5118 557.907 309.349
-3.17958 0.18376 -6.13015 543.111 322.935
-1.45845 0.414196 -7.24401 549.862 324.436
0.303895 0.407867 -8.26486 556.92 325.058
1.95766 0.19747 -7.20494 563.653 325.637
3.55402 -0.253051 -6.09104 570.3 325.249
-13.07 -9.56321 -0.847953 509.391 280.345
-11.227 -10.7813 -0.985298 517.495 276.547
-8.99658 -11.0216 -1.1657 526.56 276.856
-7.03671 -10.1118 -1.09185 533.85 281.68
-8.98092 -9.41656 -1.1427 525.657 283.261
-11.0803 -9.20088 -1.10281 517.132 282.877
5.64072 -10.9833 -1.01092 585.069 285.845
7.41717 -12.1341 -1.05493 592.866 282.313
9.63328 -12.2517 -0.849044 601.797 283.256
11.6077 -11.2993 -0.6968 609.119 288.29
9.72477 -10.6366 -0.972278 601.192 289.688
7.63704 -10.5666 -1.0265 592.802 288.693
-7.86231 8.37999 -2.95886 519.432 354.015
-5.10759 6.92756 -4.86211 531.334 349.122
-2.2885 5.9146 -6.56094 543.228 346.099
0.55893 5.95704 -8.25307 554.6 347.296
3.3067 5.54985 -6.47095 565.822 348.038
6.15029 6.1793 -4.73573 576.803 352.944
8.94101 7.28849 -2.80913 587.283 359.804
6.98846 9.74003 -4.13051 578.008 367.858
4.14126 11.2466 -5.4523 565.724 371.615
0.88994 11.6867 -6.79389 552.466 370.879
-2.42432 11.6584 -5.52899 539.222 369.287
-5.4998 10.5497 -4.18963 527.582 363.57
-2.77138 7.99971 -5.42041 540.035 354.565
0.680123 7.84244 -7.56648 553.946 355.146
4.0384 7.57006 -5.28297 567.524 356.992
4.24334 8.37576 -4.5387 567.854 360.62
0.735034 8.74491 -6.3839 553.615 359.245
-2.8695 8.84603 -4.64969 539.128 358.183
3 20 21 23
3 21 22 23
3 0 1 36
3 15 16 45
3 0 17 36
3 16 26 45
3 17 18 37
3 25 26 44
3 17 36 37
3 26 44 45
3 18 19 38
3 24 25 43
3 18 37 38
3 25 43 44
3 19 20 38
3 23 24 43
3 20 21 39
3 22 23 42
3 20 38 39
3 23 42 43
3 21 22 27
3 21 27 39
3 22 27 42
3 27 28 42
3 27 28 39
3 28 42 47
3 28 39 40
3 1 36 41
3 15 45 46
3 1 2 41
3 14 15 46
3 28 29 40
3 28 29 47
3 2 40 41
3 14 46 47
3 2 29 40
3 14 29 47
3 2 3 29
3 13 14 29
3 29 30 31
3 29 30 35
3 3 29 31
3 13 29 35
3 30 32 33
3 30 33 34
3 30 31 32
3 30 34 35
3 3 4 31
3 12 13 35
3 4 5 48
3 11 12 54
3 5 6 48
3 10 11 54
3 6 48 59
3 10 54 55
3 6 7 59
3 9 10 55
3 7 58 59
3 9 55 56
3 8 57 58
3 8 56 57
3 7 8 58
3 8 9 56
3 4 31 48
3 12 35 54
3 31 48 49
3 35 53 54
3 31 49 50
3 35 52 53
3 31 32 50
3 34 35 52
3 32 33 50
3 33 34 52
3 33 50 51
3 33 51 52
3 48 49 60
3 49 60 50
3 50 60 61
3 50 51 61
3 51 52 61
3 61 62 52
3 52 53 62
3 53 54 62
3 54 55 63
3 55 56 63
3 56 63 64
3 56 57 64
3 64 65 57
3 57 58 65
3 58 59 65
3 48 59 65
