ply
format ascii 1.0
element vertex 66
property float x
property float y
property float z
property float u
property float v
element face 91
property list uchar int vertex_indices
end_header
-20.5259 -5.99539 21.5868 477.68 303.485
-20.0337 -0.456516 21.0664 476.861 325.452
-19.3275 5.08756 20.7587 476.866 347.668
-18.2769 10.2799 18.4693 478.714 367.595
-16.486 14.7466 13.6133 484.267 383.64
-13.2779 18.1804 7.98563 496.142 395.918
-8.92022 20.4686 3.16042 513.1 404.697
-4.02457 21.8415 -0.937523 532.584 410.523
1.21934 21.7591 -4.65691 554.161 410.963
6.54612 21.0042 -0.733888 575.335 412.932
11.1679 18.6331 3.41146 594.489 408.229
15.0746 15.4655 8.22186 611.095 400.347
17.8073 11.4917 13.791 623.308 389.052
19.2076 6.93058 18.4877 630.61 374.242
19.6904 1.90396 20.8207 634.814 355.813
19.6392 -3.40635 21.0178 637.327 334.813
19.2726 -8.68538 21.4056 638.534 313.872
-17.2609 -13.8861 0.102207 497.889 262.222
-14.9923 -15.9626 -1.45908 508.273 254.337
-12.084 -16.814 -2.87903 520.566 251.732
-9.09815 -16.7694 -4.31143 532.708 252.718
-6.2107 -16.1368 -5.6095 544.132 256.06
3.86867 -16.5392 -5.68683 584.73 259.78
6.47032 -17.5106 -4.30186 595.459 258.06
9.27462 -17.9576 -2.80013 606.711 258.593
12.1505 -17.635 -1.29684 617.852 262.22
14.6296 -16.0628 0.262251 626.749 270.627
-0.50215 -11.3041 -5.06902 564.425 278.573
-0.345458 -8.47319 -7.80373 563.976 288.408
-0.200398 -5.67073 -10.6573 563.513 298.06
-0.0580162 -2.86548 -13.382 563.019 307.791
-2.97561 0.116087 -6.1175 548.758 322.023
-1.36521 0.382234 -7.19788 555.225 323.349
0.303848 0.397459 -8.14312 562.037 323.783
1.86126 0.19616 -7.10707 568.234 324.375
3.32638 -0.262409 -6.0474 574.19 323.91
-13.3793 -9.85217 -1.00319 511.51 279.699
-11.4173 -11.0823 -0.967438 520.001 275.878
-9.05774 -11.3127 -1.01661 529.58 276.192
-7.04698 -10.3046 -0.925743 537.101 281.312
-9.10318 -9.564 -1.15097 528.512 283.037
-11.325 -9.37068 -1.13527 519.509 282.631
5.64572 -11.0506 -0.944555 588.338 285.091
7.45663 -12.2238 -0.956591 596.201 281.39
9.77131 -12.3282 -0.846804 605.512 282.266
11.8164 -11.3432 -0.830535 613.193 287.272
9.88965 -10.6094 -1.01914 605.122 289.058
7.70996 -10.5575 -1.08046 596.371 288.072
-6.083 8.86776 -3.00572 531.341 356.803
-4.06757 7.16916 -4.93607 540.568 350.083
-1.83687 5.86237 -6.63339 550.421 345.159
0.588965 5.83067 -8.4234 560.409 345.35
2.95353 5.57603 -6.42211 569.73 346.685
5.26026 6.57854 -4.71194 578.21 352.82
7.34578 8.05632 -2.81937 585.531 360.824
5.86704 10.0288 -4.06589 578.764 367.191
3.67973 11.3347 -5.40334 569.516 370.485
0.986328 11.7312 -6.86967 558.729 369.829
-1.78242 11.656 -5.59149 547.494 368.753
-4.2093 10.6469 -4.21802 538.099 364.203
-1.92397 7.78258 -5.31727 548.892 353.451
0.713175 7.43557 -7.45475 559.939 352.314
3.32931 7.48318 -5.08662 570.059 355.181
3.5129 8.77874 -4.38 570.024 360.806
0.855512 9.17998 -6.14983 559.422 360.023
-1.88937 9.10984 -4.59678 548.242 359.129
3 20 21 23
3 21 22 23
3 0 1 36
3 15 16 45
3 0 17 36
3 16 26 45
3 17 18 37
3 25 26 44
3 17 36 37
3 26 44 45
3 18 19 38
3 24 25 43
3 18 37 38
3 25 43 44
3 19 20 38
3 23 24 43
3 20 21 39
3 22 23 42
3 20 38 39
3 23 42 43
3 21 22 27
3 21 27 39
3 22 27 42
3 27 28 42
3 27 28 39
3 28 42 47
3 28 39 40
3 1 36 41
3 15 45 46
3 1 2 41
3 14 15 46
3 28 29 40
3 28 29 47
3 2 40 41
3 14 46 47
3 2 29 40
3 14 29 47
3 2 3 29
3 13 14 29
3 29 30 31
3 29 30 35
3 3 29 31
3 13 29 35
3 30 32 33
3 30 33 34
3 30 31 32
3 30 34 35
3 3 4 31
3 12 13 35
3 4 5 48
3 11 12 54
3 5 6 48
3 10 11 54
3 6 48 59
3 10 54 55
3 6 7 59
3 9 10 55
3 7 58 59
3 9 55 56
3 8 57 58
3 8 56 57
3 7 8 58
3 8 9 56
3 4 31 48
3 12 35 54
3 31 48 49
3 35 53 54
3 31 49 50
3 35 52 53
3 31 32 50
3 34 35 52
3 32 33 50
3 33 34 52
3 33 50 51
3 33 51 52
3 48 49 60
3 49 60 50
3 50 60 61
3 50 51 61
3 51 52 61
3 61 62 52
3 52 53 62
3 53 54 62
3 54 55 63
3 55 56 63
3 56 63 64
3 56 57 64
3 64 65 57
3 57 58 65
3 58 59 65
3 48 59 65
