ply
format ascii 1.0
element vertex 66
property float x
property float y
property float z
property float u
property float v
element face 91
property list uchar int vertex_indices
end_header
-19.9604 -6.14997 21.6032 479.295 299.986
-19.4717 -0.612552 21.1653 478.143 322.914
-18.8198 4.92749 20.8188 477.656 345.988
-17.892 10.199 18.4428 478.668 367.248
-16.2139 14.8713 13.7452 483.364 385.483
-13.022 18.4747 8.05513 495.054 399.777
-8.65549 20.8781 3.18489 512.23 410.168
-3.78289 22.3674 -0.962733 531.964 417.398
1.42597 22.3216 -4.67634 553.943 418.683
6.63416 21.4777 -0.770082 575.637 419.945
11.1403 18.963 3.43746 595.364 414.035
14.9442 15.6628 8.31015 612.573 404.758
17.5468 11.5376 13.949 625.207 391.702
18.7684 6.85424 18.4613 632.553 375.048
19.0978 1.8666 20.8643 636.585 355.711
18.9816 -3.32678 21.0545 639.105 334.314
18.6077 -8.49269 21.3811 640.528 312.938
-16.9838 -13.9269 0.0414724 498.265 260.433
-14.7008 -15.9048 -1.50146 509.028 252.962
-11.8052 -16.7545 -2.96203 521.667 250.538
-8.82024 -16.7995 -4.3881 534.203 251.498
-5.89957 -16.2812 -5.66737 546.132 254.806
3.55646 -16.5592 -5.80264 585.498 259.168
6.19703 -17.3796 -4.42321 596.785 257.932
8.99736 -17.7037 -2.92362 608.433 258.887
11.8349 -17.3563 -1.38048 619.84 262.651
14.2764 -15.8621 0.189611 628.936 270.922
-0.523725 -11.7825 -5.1015 565.741 276.759
-0.378561 -8.98542 -7.70721 564.97 287.258
-0.245384 -6.22799 -10.573 564.199 297.475
-0.113135 -3.48289 -13.4467 563.431 307.638
-3.32996 -0.344833 -6.03053 547.548 321.86
-1.55252 -0.105506 -7.156 554.886 323.411
0.267992 -0.109962 -8.21356 562.537 324.011
1.96292 -0.310711 -7.10098 569.57 324.658
3.58856 -0.760013 -5.96516 576.457 324.25
-12.8076 -10.1128 -0.960986 513.453 278.186
-10.9641 -11.2425 -0.972288 521.752 274.609
-8.77403 -11.4601 -1.03443 530.961 274.975
-6.84059 -10.6 -0.899272 538.461 279.716
-8.78726 -10.0133 -1.03892 530.065 280.929
-10.8539 -9.80853 -1.06925 521.384 280.544
5.37515 -11.2581 -0.993256 589.482 284.154
7.1367 -12.2406 -1.00832 597.356 281.135
9.27442 -12.3172 -0.88127 606.248 282.132
11.1693 -11.3937 -0.81565 613.558 287.082
9.3127 -10.8754 -1.00031 605.58 288.047
7.29183 -10.8777 -1.03035 597.208 286.835
-7.48818 9.03214 -2.99133 524.562 359.372
-4.9763 7.36568 -4.87415 536.127 353.174
-2.27869 6.09288 -6.56625 548.213 348.789
0.597414 6.08458 -8.23572 560.301 349.732
3.39149 5.74388 -6.36467 571.897 350.775
6.15431 6.64408 -4.65623 582.657 356.845
8.72754 8.02906 -2.83363 592.338 364.85
6.84981 10.2322 -4.11148 583.399 372.279
4.15371 11.5831 -5.38296 571.563 375.716
1.03986 11.9938 -6.76409 558.554 374.984
-2.18156 11.9728 -5.55447 545.096 373.52
-5.14228 10.9827 -4.28047 533.277 368.242
-2.73173 8.17848 -5.37576 545.006 357.631
0.746533 7.86215 -7.53389 559.817 357.449
4.18639 7.75759 -5.15428 573.901 360.063
4.38061 8.86879 -4.47324 573.993 365.05
0.88744 9.27606 -6.40517 559.468 363.845
-2.70161 9.31859 -4.68917 544.4 362.643
3 20 21 23
3 21 22 23
3 0 1 36
3 15 16 45
3 0 17 36
3 16 26 45
3 17 18 37
3 25 26 44
3 17 36 37
3 26 44 45
3 18 19 38
3 24 25 43
3 18 37 38
3 25 43 44
3 19 20 38
3 23 24 43
3 20 21 39
3 22 23 42
3 20 38 39
3 23 42 43
3 21 22 27
3 21 27 39
3 22 27 42
3 27 28 42
3 27 28 39
3 28 42 47
3 28 39 40
3 1 36 41
3 15 45 46
3 1 2 41
3 14 15 46
3 28 29 40
3 28 29 47
3 2 40 41
3 14 46 47
3 2 29 40
3 14 29 47
3 2 3 29
3 13 14 29
3 29 30 31
3 29 30 35
3 3 29 31
3 13 29 35
3 30 32 33
3 30 33 34
3 30 31 32
3 30 34 35
3 3 4 31
3 12 13 35
3 4 5 48
3 11 12 54
3 5 6 48
3 10 11 54
3 6 48 59
3 10 54 55
3 6 7 59
3 9 10 55
3 7 58 59
3 9 55 56
3 8 57 58
3 8 56 57
3 7 8 58
3 8 9 56
3 4 31 48
3 12 35 54
3 31 48 49
3 35 53 54
3 31 49 50
3 35 52 53
3 31 32 50
3 34 35 52
3 32 33 50
3 33 34 52
3 33 50 51
3 33 51 52
3 48 49 60
3 49 60 50
3 50 60 61
3 50 51 61
3 51 52 61
3 61 62 52
3 52 53 62
3 53 54 62
3 54 55 63
3 55 56 63
3 56 63 64
3 56 57 64
3 64 65 57
3 57 58 65
3 58 59 65
3 48 59 65
