ply
format ascii 1.0
element vertex 66
property float x
property float y
property float z
property float u
property float v
element face 91
property list uchar int vertex_indices
end_header
-20.3612 -5.79048 21.5299 478.375 300.065
-19.9006 -0.42774 21.1022 476.949 321.56
-19.2255 4.92954 20.7757 476.387 343.206
-18.2021 10.0167 18.339 477.365 363.095
-16.3356 14.5355 13.6795 482.047 380.29
-13.0071 18.0505 8.03094 493.195 393.948
-8.62189 20.4893 3.17244 509.246 404.284
-3.73752 22.0598 -0.962638 527.837 411.764
1.5041 22.0779 -4.65931 548.813 413.45
6.68901 21.2607 -0.843899 570.151 414.936
11.2624 18.8926 3.34945 589.986 410.023
15.1932 15.7442 8.24785 607.726 401.905
17.9359 11.7214 13.9111 621.242 389.901
19.1495 6.98135 18.5432 629.05 373.676
19.4563 1.84002 20.9908 633.442 354.38
19.3588 -3.51436 21.2832 636.318 333.081
19.0129 -8.84542 21.6798 638.184 311.769
-16.8151 -13.9642 0.103944 497.351 260.567
-14.5467 -15.7741 -1.47276 507.536 254.054
-11.7644 -16.531 -2.96543 519.143 252.089
-8.92012 -16.5795 -4.37094 530.566 253.024
-6.14906 -16.0977 -5.6356 541.375 256.091
3.9726 -16.7766 -5.64333 582.391 259.504
6.58594 -17.6264 -4.32848 593.406 258.249
9.35082 -17.9721 -2.86899 604.724 259.159
12.1558 -17.6353 -1.31635 615.787 262.855
14.6131 -16.1991 0.282534 624.786 270.746
-0.679778 -11.3239 -5.03063 560.411 278.703
-0.478178 -8.52752 -7.6964 559.486 288.858
-0.280549 -5.77142 -10.6202 558.567 298.742
-0.086884 -3.02595 -13.5355 557.638 308.584
-3.36534 0.211022 -6.1965 542.593 322.609
-1.62526 0.45122 -7.23351 549.416 324.183
0.152427 0.453081 -8.19423 556.535 324.861
1.85445 0.219775 -7.21241 563.516 325.374
3.50291 -0.249103 -6.14964 570.426 324.949
-12.8613 -9.61153 -0.782747 510.548 279.953
-11.0323 -10.7763 -0.973872 518.593 276.332
-8.84246 -10.9635 -1.20777 527.489 276.811
-6.93842 -10.0573 -1.09868 534.575 281.626
-8.86015 -9.41954 -1.11372 526.477 283.001
-10.9181 -9.22494 -1.07789 518.104 282.547
5.52609 -10.9218 -1.06485 585.103 285.734
7.27439 -12.0628 -1.12401 592.811 282.215
9.45342 -12.1901 -0.862821 601.632 283.136
11.406 -11.2792 -0.65942 608.912 288.038
9.5514 -10.6312 -0.978827 601.074 289.366
7.49982 -10.5503 -1.04609 592.794 288.419
-8.38921 8.30929 -2.89971 517.539 353.269
-5.58493 6.73322 -4.80254 529.729 347.876
-2.60331 5.66931 -6.50231 542.319 344.719
0.455404 5.64431 -8.19203 554.586 345.758
3.44047 5.25562 -6.44358 566.816 346.751
6.493 5.89878 -4.69879 578.688 351.9
9.41776 7.08787 -2.76084 589.716 359.231
7.37469 9.79573 -4.11242 579.855 368.229
4.3742 11.5352 -5.40664 566.745 372.808
0.881826 12.0816 -6.69833 552.388 372.33
-2.69103 12.0178 -5.47889 538.108 370.427
-5.94124 10.7132 -4.2191 525.879 363.786
-3.2867 7.75638 -5.3538 538.318 353.117
0.581195 7.52134 -7.64171 553.952 353.555
4.38596 7.2365 -5.26466 569.414 355.724
4.66526 8.68054 -4.53134 569.662 361.963
0.695671 9.21329 -6.46032 553.393 360.873
-3.36999 9.23588 -4.62686 537.09 359.276
3 20 21 23
3 21 22 23
3 0 1 36
3 15 16 45
3 0 17 36
3 16 26 45
3 17 18 37
3 25 26 44
3 17 36 37
3 26 44 45
3 18 19 38
3 24 25 43
3 18 37 38
3 25 43 44
3 19 20 38
3 23 24 43
3 20 21 39
3 22 23 42
3 20 38 39
3 23 42 43
3 21 22 27
3 21 27 39
3 22 27 42
3 27 28 42
3 27 28 39
3 28 42 47
3 28 39 40
3 1 36 41
3 15 45 46
3 1 2 41
3 14 15 46
3 28 29 40
3 28 29 47
3 2 40 41
3 14 46 47
3 2 29 40
3 14 29 47
3 2 3 29
3 13 14 29
3 29 30 31
3 29 30 35
3 3 29 31
3 13 29 35
3 30 32 33
3 30 33 34
3 30 31 32
3 30 34 35
3 3 4 31
3 12 13 35
3 4 5 48
3 11 12 54
3 5 6 48
3 10 11 54
3 6 48 59
3 10 54 55
3 6 7 59
3 9 10 55
3 7 58 59
3 9 55 56
3 8 57 58
3 8 56 57
3 7 8 58
3 8 9 56
3 4 31 48
3 12 35 54
3 31 48 49
3 35 53 54
3 31 49 50
3 35 52 53
3 31 32 50
3 34 35 52
3 32 33 50
3 33 34 52
3 33 50 51
3 33 51 52
3 48 49 60
3 49 60 50
3 50 60 61
3 50 51 61
3 51 52 61
3 61 62 52
3 52 53 62
3 53 54 62
3 54 55 63
3 55 56 63
3 56 63 64
3 56 57 64
3 64 65 57
3 57 58 65
3 58 59 65
3 48 59 65
