ply
format ascii 1.0
element vertex 66
property float x
property float y
property float z
property float u
property float v
element face 91
property list uchar int vertex_indices
end_header
-20.0844 -6.2966 21.7371 479.867 298.833
-19.6102 -0.71436 21.2974 478.72 321.672
-18.9938 4.87332 20.937 478.144 344.648
-18.1489 10.1785 18.4479 478.853 365.674
-16.5385 14.8673 13.828 483.235 383.691
-13.2993 18.4101 8.06758 495.039 397.461
-8.80797 20.6536 3.16101 512.632 407.016
-3.8332 21.9705 -0.993147 532.661 413.395
1.4162 21.8492 -4.6804 554.581 414.269
6.66126 21.1167 -0.805822 576.158 415.948
11.3008 18.803 3.41558 596.109 410.986
15.2462 15.6694 8.31492 613.613 402.584
17.904 11.6253 14.0155 626.277 390.089
19.0541 6.95771 18.4708 633.218 373.652
19.2851 1.96889 20.9813 636.742 354.536
19.1262 -3.24594 21.1837 638.998 333.27
18.7415 -8.43116 21.5096 640.3 312.051
-17.1466 -14.0014 0.0231063 498.155 259.609
-14.7471 -15.9278 -1.44776 509.205 252.473
-11.7803 -16.7043 -2.93237 521.938 250.342
-8.75835 -16.7104 -4.37355 534.461 251.402
-5.81842 -16.1531 -5.67949 546.32 254.773
3.39872 -16.3857 -5.80879 584.259 258.996
6.08692 -17.2241 -4.41066 595.629 257.711
8.94526 -17.5645 -2.91213 607.409 258.599
11.8567 -17.2491 -1.35851 619.034 262.214
14.3914 -15.7598 0.175231 628.457 270.393
-0.541131 -11.5966 -5.11902 565.355 276.59
-0.383689 -8.79283 -7.70297 564.656 286.984
-0.240748 -6.03589 -10.6158 563.953 297.036
-0.0977222 -3.29279 -13.5832 563.263 307.008
-3.35466 -0.157306 -6.06386 547.484 321.226
-1.54762 0.0814295 -7.21138 554.861 322.724
0.29707 0.073845 -8.27079 562.524 323.277
2.01095 -0.132504 -7.15968 569.57 323.893
3.66011 -0.593024 -6.02163 576.49 323.447
-13.3175 -9.9588 -0.846065 511.666 277.885
-11.3733 -11.2344 -0.94217 520.363 273.745
-9.02487 -11.4166 -1.11257 530.11 274.26
-7.00576 -10.3379 -0.991922 537.774 279.856
-9.07331 -9.73503 -1.08567 528.966 281.101
-11.2658 -9.54661 -1.07178 519.868 280.631
5.42317 -10.9713 -1.07911 589.105 284.285
7.24043 -12.1776 -1.10911 597.237 280.384
9.52625 -12.31 -0.869482 606.664 281.245
11.5415 -11.2598 -0.694811 614.323 286.746
9.60384 -10.624 -0.998187 606.047 288.107
7.46071 -10.5971 -1.0656 597.25 286.972
-8.04289 8.83247 -3.01277 522.946 356.555
-5.22332 7.30325 -4.85546 535.529 351.115
-2.32717 6.17514 -6.58256 548.191 347.404
0.648847 6.15772 -8.27129 560.554 348.284
3.5378 5.80756 -6.37183 572.429 349.323
6.48619 6.52366 -4.63466 583.965 354.674
9.35833 7.71991 -2.84877 594.914 361.96
7.26126 9.92183 -4.12049 585.191 369.194
4.33554 11.2109 -5.36887 572.581 372.246
1.07835 11.5797 -6.69727 559.134 371.323
-2.28658 11.626 -5.54887 545.208 370.104
-5.46463 10.7352 -4.30459 532.566 365.212
-3.04278 8.12564 -5.44455 544.062 355.448
0.798461 7.84521 -7.63951 560.165 355.525
4.59503 7.64501 -5.22601 575.633 357.915
4.82423 8.65366 -4.50166 575.943 362.474
0.929269 9.01276 -6.40837 559.938 360.897
-3.0462 9.16397 -4.71071 543.4 360
3 20 21 23
3 21 22 23
3 0 1 36
3 15 16 45
3 0 17 36
3 16 26 45
3 17 18 37
3 25 26 44
3 17 36 37
3 26 44 45
3 18 19 38
3 24 25 43
3 18 37 38
3 25 43 44
3 19 20 38
3 23 24 43
3 20 21 39
3 22 23 42
3 20 38 39
3 23 42 43
3 21 22 27
3 21 27 39
3 22 27 42
3 27 28 42
3 27 28 39
3 28 42 47
3 28 39 40
3 1 36 41
3 15 45 46
3 1 2 41
3 14 15 46
3 28 29 40
3 28 29 47
3 2 40 41
3 14 46 47
3 2 29 40
3 14 29 47
3 2 3 29
3 13 14 29
3 29 30 31
3 29 30 35
3 3 29 31
3 13 29 35
3 30 32 33
3 30 33 34
3 30 31 32
3 30 34 35
3 3 4 31
3 12 13 35
3 4 5 48
3 11 12 54
3 5 6 48
3 10 11 54
3 6 48 59
3 10 54 55
3 6 7 59
3 9 10 55
3 7 58 59
3 9 55 56
3 8 57 58
3 8 56 57
3 7 8 58
3 8 9 56
3 4 31 48
3 12 35 54
3 31 48 49
3 35 53 54
3 31 49 50
3 35 52 53
3 31 32 50
3 34 35 52
3 32 33 50
3 33 34 52
3 33 50 51
3 33 51 52
3 48 49 60
3 49 60 50
3 50 60 61
3 50 51 61
3 51 52 61
3 61 62 52
3 52 53 62
3 53 54 62
3 54 55 63
3 55 56 63
3 56 63 64
3 56 57 64
3 64 65 57
3 57 58 65
3 58 59 65
3 48 59 65
