ply
format ascii 1.0
element vertex 66
property float x
property float y
property float z
property float u
property float v
element face 91
property list uchar int vertex_indices
end_header
-19.5435 -6.19449 21.4144 478.38 299.531
-19.0645 -0.716281 20.9272 477.001 322.41
-18.3793 4.76047 20.6105 476.47 345.475
-17.3671 9.96598 18.3979 477.628 366.919
-15.7006 14.6196 13.74 482.059 385.577
-12.7618 18.3931 8.04104 492.431 400.995
-8.69153 21.1119 3.11518 508.116 413.027
-4.00508 22.9067 -0.919825 526.873 421.937
1.14283 23.0831 -4.69379 548.543 424.51
6.38136 22.13 -0.766129 570.663 425.294
10.7663 19.3653 3.34029 590.337 418.081
14.3903 15.8291 8.23616 607.254 407.477
16.9301 11.5939 13.8659 620.025 393.559
18.309 6.88033 18.3946 628.343 376.517
18.8207 1.83869 20.6957 633.432 356.745
18.7873 -3.41804 20.9274 636.551 334.971
18.4317 -8.65821 21.2341 638.311 313.092
-16.535 -13.9852 0.0281377 497.542 261.154
-14.5118 -15.9986 -1.49877 507.361 253.497
-11.8142 -16.8998 -2.92572 519.29 250.921
-8.99776 -16.9558 -4.38728 531.192 251.918
-6.24203 -16.4526 -5.71001 542.48 255.251
3.66101 -16.8435 -5.79689 584.032 259.818
6.16294 -17.7201 -4.37594 594.897 258.273
8.84127 -18.0853 -2.83944 606.168 259.007
11.5588 -17.7245 -1.32003 617.152 262.775
13.843 -16.2021 0.200464 625.605 271.097
-0.557735 -11.7522 -5.08862 563.205 278.58
-0.419612 -9.19445 -7.72039 562.402 288.32
-0.29213 -6.6629 -10.4817 561.582 297.896
-0.16633 -4.14015 -13.21 560.758 307.447
-2.99996 -0.691709 -5.87846 546.187 322.702
-1.38852 -0.508845 -7.05078 552.89 324.041
0.262077 -0.525417 -8.12913 559.873 324.611
1.79918 -0.705867 -6.99348 566.303 325.246
3.2712 -1.09684 -5.89647 572.596 324.953
-12.9609 -10.0175 -1.10602 510.067 279.464
-11.1563 -11.1481 -0.963656 518.286 275.954
-8.96234 -11.4574 -0.943252 527.628 276.055
-7.02097 -10.7635 -0.925615 535.291 280.164
-8.91718 -9.97213 -1.14096 526.906 282.18
-11.0059 -9.70797 -1.11525 518.029 281.975
5.50171 -11.5404 -0.921199 588.002 284.807
7.27345 -12.4133 -0.904077 595.934 282.3
9.43569 -12.4418 -0.846995 604.965 283.562
11.3317 -11.5607 -0.912208 612.329 288.389
9.48821 -10.9803 -0.979664 604.284 289.617
7.42547 -11.0006 -1.03605 595.698 288.216
-5.67462 9.388 -2.99119 528.51 363.962
-3.88756 7.51563 -4.87796 537.286 356.609
-1.77535 5.98085 -6.57072 547.191 350.935
0.677288 5.93553 -8.32753 557.593 351.639
3.06478 5.66646 -6.36579 567.556 352.746
5.28844 6.88349 -4.66288 575.932 359.829
7.1761 8.53999 -2.80385 582.619 368.583
5.87976 10.6675 -4.17892 575.999 376.099
3.81824 12.1441 -5.49704 566.588 380.451
1.13906 12.656 -6.97505 555.217 380.347
-1.61536 12.4864 -5.65722 543.727 378.399
-3.94654 11.3282 -4.27262 534.613 372.634
-1.87372 8.08647 -5.15222 545.351 360.145
0.819701 7.67743 -7.34013 557.019 359.329
3.4888 7.75224 -4.9632 567.909 362.196
3.67018 9.32822 -4.3869 567.635 369.07
0.996712 9.92612 -6.11086 556.254 369.237
-1.7942 9.696 -4.55721 544.63 367.101
3 20 21 23
3 21 22 23
3 0 1 36
3 15 16 45
3 0 17 36
3 16 26 45
3 17 18 37
3 25 26 44
3 17 36 37
3 26 44 45
3 18 19 38
3 24 25 43
3 18 37 38
3 25 43 44
3 19 20 38
3 23 24 43
3 20 21 39
3 22 23 42
3 20 38 39
3 23 42 43
3 21 22 27
3 21 27 39
3 22 27 42
3 27 28 42
3 27 28 39
3 28 42 47
3 28 39 40
3 1 36 41
3 15 45 46
3 1 2 41
3 14 15 46
3 28 29 40
3 28 29 47
3 2 40 41
3 14 46 47
3 2 29 40
3 14 29 47
3 2 3 29
3 13 14 29
3 29 30 31
3 29 30 35
3 3 29 31
3 13 29 35
3 30 32 33
3 30 33 34
3 30 31 32
3 30 34 35
3 3 4 31
3 12 13 35
3 4 5 48
3 11 12 54
3 5 6 48
3 10 11 54
3 6 48 59
3 10 54 55
3 6 7 59
3 9 10 55
3 7 58 59
3 9 55 56
3 8 57 58
3 8 56 57
3 7 8 58
3 8 9 56
3 4 31 48
3 12 35 54
3 31 48 49
3 35 53 54
3 31 49 50
3 35 52 53
3 31 32 50
3 34 35 52
3 32 33 50
3 33 34 52
3 33 50 51
3 33 51 52
3 48 49 60
3 49 60 50
3 50 60 61
3 50 51 61
3 51 52 61
3 61 62 52
3 52 53 62
3 53 54 62
3 54 55 63
3 55 56 63
3 56 63 64
3 56 57 64
3 64 65 57
3 57 58 65
3 58 59 65
3 48 59 65
