ply
format ascii 1.0
element vertex 66
property float x
property float y
property float z
property float u
property float v
element face 91
property list uchar int vertex_indices
end_header
-19.6887 -6.12742 21.5213 479.45 298.844
-19.2102 -0.61216 21.0707 477.966 321.975
-18.5721 4.90641 20.7082 477.141 345.254
-17.6527 10.1703 18.3624 477.824 366.921
-16.008 14.8751 13.7675 482.091 385.894
-12.9113 18.5549 8.04843 493.185 401.114
-8.64277 21.0547 3.11615 509.868 412.461
-3.84711 22.6534 -0.976511 529.262 420.701
1.32339 22.6929 -4.6781 551.188 422.828
6.53246 21.7752 -0.773141 573.239 423.8
10.9832 19.1306 3.3795 593.2 417.177
14.7243 15.723 8.30363 610.613 407.201
17.29 11.5155 13.9596 623.556 393.405
18.5393 6.78047 18.3766 631.434 376.104
18.8981 1.77088 20.7631 635.934 356.335
18.7813 -3.43234 20.9786 638.751 334.651
18.3951 -8.61232 21.2915 640.418 312.927
-16.5424 -14.0751 0.0125849 499.523 259.798
-14.3157 -15.96 -1.48473 510.172 252.821
-11.5138 -16.7845 -2.9377 522.547 250.653
-8.62337 -16.8446 -4.37179 534.802 251.734
-5.792 -16.3541 -5.67219 546.447 255.121
3.47119 -16.6609 -5.82135 585.418 259.753
6.0159 -17.4578 -4.41945 596.456 258.588
8.71966 -17.7688 -2.90584 607.84 259.592
11.4616 -17.4511 -1.35895 618.979 263.253
13.8448 -16.0596 0.156533 627.934 271.148
-0.51251 -11.8717 -5.11128 565.628 277.412
-0.374896 -9.15235 -7.67277 564.684 287.89
-0.24986 -6.47212 -10.5074 563.735 298.095
-0.127855 -3.80735 -13.3923 562.789 308.215
-3.29586 -0.572153 -5.98372 546.835 322.397
-1.53436 -0.337757 -7.10438 554.151 324.094
0.270478 -0.336181 -8.15625 561.792 324.875
1.94037 -0.540047 -7.0542 568.816 325.507
3.54464 -0.982153 -5.94414 575.718 325.108
-12.6662 -10.145 -0.989117 513.316 278.305
-10.8674 -11.2105 -0.960333 521.522 275.033
-8.73969 -11.4457 -1.01389 530.58 275.403
-6.84892 -10.6925 -0.902941 538.002 279.801
-8.74096 -10.0967 -1.04991 529.716 281.012
-10.7587 -9.87996 -1.0739 521.136 280.607
5.39066 -11.3826 -0.981407 589.666 284.778
7.1166 -12.2644 -0.991615 597.452 282.21
9.19492 -12.3297 -0.873741 606.18 283.32
11.0427 -11.4717 -0.851004 613.362 288.094
9.23303 -10.9836 -1.00184 605.491 288.908
7.25838 -10.9978 -1.0285 597.239 287.567
-7.31318 9.15462 -2.97902 523.554 361.463
-4.92736 7.40269 -4.83227 534.814 355.013
-2.28376 6.03407 -6.52668 546.895 350.384
0.604745 5.98104 -8.22603 559.16 351.396
3.41366 5.67907 -6.3273 570.946 352.647
6.12904 6.67868 -4.61125 581.524 359.197
8.57484 8.16444 -2.80064 590.655 367.633
6.79705 10.4417 -4.14094 581.874 375.486
4.19094 11.9222 -5.38725 570.129 379.518
1.06165 12.4033 -6.77149 556.845 378.997
-2.17403 12.3135 -5.55842 543.26 376.987
-5.06193 11.1924 -4.29554 531.784 370.921
-2.77891 8.06168 -5.29364 543.423 358.973
0.744174 7.6735 -7.52755 558.603 358.798
4.22846 7.63508 -5.06897 572.998 361.79
4.45945 9.26994 -4.42819 572.866 368.99
0.928324 9.82979 -6.34925 557.896 368.34
-2.72297 9.73208 -4.64747 542.535 366.21
3 20 21 23
3 21 22 23
3 0 1 36
3 15 16 45
3 0 17 36
3 16 26 45
3 17 18 37
3 25 26 44
3 17 36 37
3 26 44 45
3 18 19 38
3 24 25 43
3 18 37 38
3 25 43 44
3 19 20 38
3 23 24 43
3 20 21 39
3 22 23 42
3 20 38 39
3 23 42 43
3 21 22 27
3 21 27 39
3 22 27 42
3 27 28 42
3 27 28 39
3 28 42 47
3 28 39 40
3 1 36 41
3 15 45 46
3 1 2 41
3 14 15 46
3 28 29 40
3 28 29 47
3 2 40 41
3 14 46 47
3 2 29 40
3 14 29 47
3 2 3 29
3 13 14 29
3 29 30 31
3 29 30 35
3 3 29 31
3 13 29 35
3 30 32 33
3 30 33 34
3 30 31 32
3 30 34 35
3 3 4 31
3 12 13 35
3 4 5 48
3 11 12 54
3 5 6 48
3 10 11 54
3 6 48 59
3 10 54 55
3 6 7 59
3 9 10 55
3 7 58 59
3 9 55 56
3 8 57 58
3 8 56 57
3 7 8 58
3 8 9 56
3 4 31 48
3 12 35 54
3 31 48 49
3 35 53 54
3 31 49 50
3 35 52 53
3 31 32 50
3 34 35 52
3 32 33 50
3 33 34 52
3 33 50 51
3 33 51 52
3 48 49 60
3 49 60 50
3 50 60 61
3 50 51 61
3 51 52 61
3 61 62 52
3 52 53 62
3 53 54 62
3 54 55 63
3 55 56 63
3 56 63 64
3 56 57 64
3 64 65 57
3 57 58 65
3 58 59 65
3 48 59 65
