ply
format ascii 1.0
element vertex 66
property float x
property float y
property float z
property float u
property float v
element face 91
property list uchar int vertex_indices
end_header
-20.074 -5.80312 21.5979 478.161 298.013
-19.5086 -0.460996 21.1566 477.167 320.083
-18.7745 4.87589 20.8132 476.874 342.263
-17.7538 9.9547 18.3763 477.803 362.925
-15.9477 14.4866 13.824 482.176 381.185
-12.7457 18.0371 8.09323 492.816 395.922
-8.48309 20.5187 3.1614 508.507 407.176
-3.72579 22.1773 -0.954302 526.778 415.612
1.42306 22.2567 -4.66955 547.649 417.948
6.57339 21.4224 -0.834211 569.495 418.844
11.0734 18.9646 3.31712 589.69 412.796
14.8991 15.7338 8.28286 607.639 403.422
17.5374 11.6518 14.0226 621.283 390.076
18.7365 6.92024 18.5178 629.357 372.815
19.0537 1.84561 20.9512 633.913 352.985
18.9898 -3.42647 21.232 636.912 331.46
18.6929 -8.68046 21.6437 638.951 309.906
-16.9907 -13.6211 0.0801633 494.462 261.357
-14.7768 -15.6329 -1.45631 504.698 254.008
-11.9282 -16.5456 -2.96484 516.863 251.552
-8.97061 -16.6533 -4.40189 528.984 252.479
-6.07545 -16.1893 -5.67088 540.506 255.758
3.94127 -16.8123 -5.73756 581.973 259.299
6.57517 -17.6207 -4.39264 593.347 258.008
9.35863 -17.9102 -2.8918 605.023 258.978
12.1605 -17.4997 -1.30368 616.349 262.851
14.5551 -15.9753 0.263211 625.317 271.026
-0.549142 -11.6383 -5.04495 560.406 277.941
-0.335072 -8.86633 -7.70161 559.434 288.605
-0.130333 -6.13416 -10.6147 558.435 299.023
0.0636243 -3.4135 -13.5503 557.398 309.38
-3.1868 -0.196057 -6.11736 542.484 322.824
-1.45972 0.0408667 -7.22156 549.363 324.511
0.303539 0.0482965 -8.24159 556.536 325.307
1.94069 -0.171646 -7.20922 563.443 325.72
3.53064 -0.6195 -6.06647 570.302 325.205
-13.0762 -9.65354 -0.786848 508.029 279.715
-11.2459 -10.8291 -0.929957 516.253 275.978
-9.04283 -11.076 -1.19009 525.427 276.233
-7.09693 -10.2579 -1.13865 532.908 280.783
-9.02768 -9.59767 -1.1229 524.583 282.312
-11.1035 -9.36146 -1.07001 515.926 282.028
5.58133 -11.0721 -1.08525 585.417 285.203
7.36999 -12.1159 -1.10749 593.395 282.017
9.56011 -12.2068 -0.850716 602.448 283.059
11.5026 -11.2761 -0.718116 609.85 288.093
9.61808 -10.7105 -1.00222 601.757 289.171
7.55358 -10.6792 -1.0592 593.266 288.022
-8.47302 8.31932 -2.90354 515.732 355.42
-5.5296 6.95824 -4.73716 528.545 351.088
-2.51977 5.998 -6.46901 541.388 348.468
0.523697 5.99664 -8.21679 553.779 349.788
3.46347 5.61988 -6.42457 566.166 350.585
6.48522 6.1888 -4.64358 578.306 355.299
9.44431 7.19735 -2.76835 589.924 361.802
7.40021 9.89181 -4.17254 579.805 371.152
4.402 11.64 -5.46308 566.361 376.083
0.879985 12.2075 -6.74448 551.496 375.866
-2.73756 12.0755 -5.51962 536.805 373.492
-5.988 10.7186 -4.25766 524.375 366.341
-3.40835 7.79346 -5.39382 536.696 355.6
0.612775 7.57232 -7.75081 553.199 356.431
4.53815 7.30241 -5.25937 569.601 358.48
4.87227 9.03727 -4.49724 569.945 366.014
0.753695 9.68381 -6.39073 552.551 365.571
-3.49951 9.57187 -4.61406 535.269 363.059
3 20 21 23
3 21 22 23
3 0 1 36
3 15 16 45
3 0 17 36
3 16 26 45
3 17 18 37
3 25 26 44
3 17 36 37
3 26 44 45
3 18 19 38
3 24 25 43
3 18 37 38
3 25 43 44
3 19 20 38
3 23 24 43
3 20 21 39
3 22 23 42
3 20 38 39
3 23 42 43
3 21 22 27
3 21 27 39
3 22 27 42
3 27 28 42
3 27 28 39
3 28 42 47
3 28 39 40
3 1 36 41
3 15 45 46
3 1 2 41
3 14 15 46
3 28 29 40
3 28 29 47
3 2 40 41
3 14 46 47
3 2 29 40
3 14 29 47
3 2 3 29
3 13 14 29
3 29 30 31
3 29 30 35
3 3 29 31
3 13 29 35
3 30 32 33
3 30 33 34
3 30 31 32
3 30 34 35
3 3 4 31
3 12 13 35
3 4 5 48
3 11 12 54
3 5 6 48
3 10 11 54
3 6 48 59
3 10 54 55
3 6 7 59
3 9 10 55
3 7 58 59
3 9 55 56
3 8 57 58
3 8 56 57
3 7 8 58
3 8 9 56
3 4 31 48
3 12 35 54
3 31 48 49
3 35 53 54
3 31 49 50
3 35 52 53
3 31 32 50
3 34 35 52
3 32 33 50
3 33 34 52
3 33 50 51
3 33 51 52
3 48 49 60
3 49 60 50
3 50 60 61
3 50 51 61
3 51 52 61
3 61 62 52
3 52 53 62
3 53 54 62
3 54 55 63
3 55 56 63
3 56 63 64
3 56 57 64
3 64 65 57
3 57 58 65
3 58 59 65
3 48 59 65
