ply
format ascii 1.0
element vertex 66
property float x
property float y
property float z
property float u
property float v
element face 91
property list uchar int vertex_indices
end_header
-20.2602 -5.91583 21.68 477.596 299.103
-19.7329 -0.52029 21.2422 476.593 321.055
-19.0275 4.87256 20.9163 476.317 343.139
-18.0541 10.0063 18.4064 477.227 363.545
-16.2881 14.5855 13.784 481.626 381.405
-13.0176 18.1168 8.05538 492.71 395.498
-8.63715 20.5096 3.1736 508.977 405.935
-3.76194 22.0128 -0.957147 527.786 413.331
1.43484 22.0151 -4.69738 548.78 414.988
6.60697 21.2074 -0.838311 570.322 416.093
11.1925 18.8458 3.34362 590.393 410.697
15.1135 15.6826 8.25605 608.251 401.94
17.8236 11.6372 13.9819 621.727 389.213
19.0138 6.9114 18.5322 629.405 372.438
19.304 1.84408 21.0533 633.583 353.034
19.2225 -3.42703 21.3109 636.318 331.776
18.9002 -8.67791 21.7021 638.067 310.51
-17.1762 -13.7104 0.0883519 494.125 261.603
-14.9228 -15.6632 -1.46455 504.364 254.451
-12.0757 -16.5139 -2.97307 516.373 252.109
-9.14021 -16.5847 -4.39758 528.29 253.002
-6.27003 -16.1003 -5.6637 539.623 256.157
4.12854 -16.727 -5.71545 582.171 259.597
6.73793 -17.5526 -4.37484 593.267 258.246
9.49975 -17.877 -2.88585 604.694 259.062
12.2971 -17.5258 -1.30004 615.876 262.664
14.7222 -16.056 0.281918 624.898 270.572
-0.552471 -11.3529 -5.02532 560.077 278.868
-0.355096 -8.56995 -7.71456 559.2 289.261
-0.166278 -5.82683 -10.655 558.305 299.397
0.0146142 -3.09425 -13.5908 557.384 309.488
-3.24144 0.0434623 -6.13715 542.528 322.977
-1.49986 0.275821 -7.25224 549.432 324.518
0.274295 0.284444 -8.28183 556.601 325.204
1.9289 0.0609681 -7.23395 563.467 325.631
3.54017 -0.38676 -6.08998 570.291 325.162
-13.2955 -9.47935 -0.745637 507.393 280.639
-11.4386 -10.6718 -0.943581 515.614 276.818
-9.20762 -10.9042 -1.22413 524.793 277.063
-7.24751 -10.0284 -1.18322 532.238 281.747
-9.20298 -9.35835 -1.15313 523.917 283.339
-11.3053 -9.14152 -1.07581 515.264 283.032
5.79239 -10.8723 -1.1529 585.629 285.86
7.58508 -11.9642 -1.14277 593.536 282.484
9.79604 -12.0689 -0.843653 602.573 283.442
11.762 -11.1216 -0.635819 610.004 288.478
9.8683 -10.5131 -0.988392 601.96 289.719
7.78332 -10.4647 -1.08794 593.471 288.678
-8.55861 8.2119 -2.93496 516.291 354.079
-5.60018 6.75461 -4.7945 529.095 349.224
-2.55286 5.77168 -6.50703 541.988 346.391
0.513249 5.77794 -8.21879 554.383 347.566
3.47745 5.37971 -6.43542 566.681 348.307
6.54879 5.94952 -4.68035 578.852 353.011
9.54908 7.04182 -2.79618 590.433 359.833
7.45337 9.71407 -4.13649 580.349 368.943
4.39676 11.3887 -5.42779 566.947 373.485
0.898402 11.9072 -6.73602 552.423 373.094
-2.6959 11.8384 -5.502 537.91 371.189
-6.00964 10.5795 -4.2364 525.227 364.648
-3.29568 7.77545 -5.4181 537.837 354.453
0.635006 7.61335 -7.70033 553.824 355.241
4.47097 7.28165 -5.28071 569.635 356.982
4.76181 8.57477 -4.52109 570.082 362.649
0.740979 9.08847 -6.4096 553.428 361.729
-3.39381 9.11055 -4.64653 536.682 360.07
3 20 21 23
3 21 22 23
3 0 1 36
3 15 16 45
3 0 17 36
3 16 26 45
3 17 18 37
3 25 26 44
3 17 36 37
3 26 44 45
3 18 19 38
3 24 25 43
3 18 37 38
3 25 43 44
3 19 20 38
3 23 24 43
3 20 21 39
3 22 23 42
3 20 38 39
3 23 42 43
3 21 22 27
3 21 27 39
3 22 27 42
3 27 28 42
3 27 28 39
3 28 42 47
3 28 39 40
3 1 36 41
3 15 45 46
3 1 2 41
3 14 15 46
3 28 29 40
3 28 29 47
3 2 40 41
3 14 46 47
3 2 29 40
3 14 29 47
3 2 3 29
3 13 14 29
3 29 30 31
3 29 30 35
3 3 29 31
3 13 29 35
3 30 32 33
3 30 33 34
3 30 31 32
3 30 34 35
3 3 4 31
3 12 13 35
3 4 5 48
3 11 12 54
3 5 6 48
3 10 11 54
3 6 48 59
3 10 54 55
3 6 7 59
3 9 10 55
3 7 58 59
3 9 55 56
3 8 57 58
3 8 56 57
3 7 8 58
3 8 9 56
3 4 31 48
3 12 35 54
3 31 48 49
3 35 53 54
3 31 49 50
3 35 52 53
3 31 32 50
3 34 35 52
3 32 33 50
3 33 34 52
3 33 50 51
3 33 51 52
3 48 49 60
3 49 60 50
3 50 60 61
3 50 51 61
3 51 52 61
3 61 62 52
3 52 53 62
3 53 54 62
3 54 55 63
3 55 56 63
3 56 63 64
3 56 57 64
3 64 65 57
3 57 58 65
3 58 59 65
3 48 59 65
