ply
format ascii 1.0
element vertex 66
property float x
property float y
property float z
property float u
property float v
element face 91
property list uchar int vertex_indices
end_header
-20.0242 -6.28024 21.6782 480.109 298.55
-19.5486 -0.697769 21.2688 478.956 321.6
-18.9139 4.88593 20.9054 478.455 344.765
-18.0236 10.1901 18.4691 479.371 366.089
-16.3707 14.8823 13.7881 484.003 384.427
-13.1444 18.4755 8.07985 495.854 398.734
-8.69986 20.8172 3.19136 513.363 408.926
-3.74754 22.2145 -0.978624 533.433 415.818
1.51334 22.115 -4.67765 555.577 416.926
6.7387 21.3288 -0.797069 577.219 418.255
11.3129 18.9328 3.43983 597.047 412.739
15.1661 15.7101 8.33693 614.3 403.68
17.7509 11.6114 14.0026 626.736 390.604
18.8924 6.92982 18.5015 633.656 373.836
19.1498 1.93395 20.9563 637.303 354.443
19.0059 -3.28121 21.1557 639.639 333.008
18.625 -8.46636 21.4704 640.967 311.607
-17.1322 -13.9157 0.0270466 498.495 260.072
-14.744 -15.9073 -1.48128 509.632 252.645
-11.7465 -16.7207 -2.95137 522.614 250.423
-8.6798 -16.7302 -4.38956 535.425 251.558
-5.69549 -16.1609 -5.69469 547.555 255.079
3.28712 -16.3569 -5.83079 584.772 259.36
6.02009 -17.2229 -4.42821 596.41 257.933
8.92648 -17.575 -2.92455 608.464 258.758
11.8799 -17.2379 -1.38442 620.318 262.456
14.4242 -15.6937 0.168006 629.799 270.887
-0.563565 -11.7918 -5.11691 566.219 276.207
-0.410204 -8.94149 -7.70376 565.495 286.963
-0.269729 -6.13622 -10.5991 564.772 297.402
-0.127764 -3.34533 -13.5377 564.069 307.766
-3.40975 -0.262421 -6.07303 548.039 321.575
-1.60017 -0.0180344 -7.19174 555.484 323.163
0.250276 -0.0281506 -8.23507 563.233 323.759
1.98436 -0.232363 -7.1427 570.402 324.354
3.64872 -0.695482 -6.00604 577.426 323.863
-13.2038 -10.0213 -0.899242 512.606 277.952
-11.2103 -11.3121 -0.971686 521.576 273.759
-8.8075 -11.4979 -1.09486 531.615 274.321
-6.73309 -10.4258 -0.933381 539.559 279.98
-8.85766 -9.83358 -1.05782 530.463 281.148
-11.0996 -9.62679 -1.06809 521.089 280.71
5.24029 -11.0341 -1.0504 589.358 284.287
7.1201 -12.2357 -1.08233 597.804 280.412
9.4628 -12.3575 -0.886838 607.528 281.332
11.5245 -11.2914 -0.746128 615.425 286.95
9.52548 -10.6781 -1.00425 606.848 288.222
7.33074 -10.6648 -1.06358 597.783 286.996
-7.73492 8.96051 -2.98988 524.66 358.25
-5.12977 7.28032 -4.85722 536.552 352.081
-2.34203 6.03771 -6.56983 548.934 347.878
0.597114 6.01216 -8.24832 561.251 348.777
3.45837 5.67868 -6.36623 573.07 349.805
6.31971 6.53255 -4.64255 584.234 355.649
9.01087 7.91086 -2.85061 594.392 363.579
7.02154 10.0745 -4.11719 585.077 370.821
4.22131 11.3634 -5.39065 572.91 374
1.05476 11.7409 -6.74125 559.753 373.193
-2.22475 11.7679 -5.56171 546.079 371.903
-5.27953 10.8518 -4.29776 533.858 366.9
-2.98183 8.08261 -5.3974 545.021 356.39
0.74885 7.75317 -7.58603 560.828 356.287
4.45132 7.61735 -5.18987 575.959 358.817
4.65735 8.70755 -4.49641 576.125 363.696
0.893191 9.08148 -6.43228 560.559 362.295
-2.9527 9.19638 -4.70104 544.443 361.266
3 20 21 23
3 21 22 23
3 0 1 36
3 15 16 45
3 0 17 36
3 16 26 45
3 17 18 37
3 25 26 44
3 17 36 37
3 26 44 45
3 18 19 38
3 24 25 43
3 18 37 38
3 25 43 44
3 19 20 38
3 23 24 43
3 20 21 39
3 22 23 42
3 20 38 39
3 23 42 43
3 21 22 27
3 21 27 39
3 22 27 42
3 27 28 42
3 27 28 39
3 28 42 47
3 28 39 40
3 1 36 41
3 15 45 46
3 1 2 41
3 14 15 46
3 28 29 40
3 28 29 47
3 2 40 41
3 14 46 47
3 2 29 40
3 14 29 47
3 2 3 29
3 13 14 29
3 29 30 31
3 29 30 35
3 3 29 31
3 13 29 35
3 30 32 33
3 30 33 34
3 30 31 32
3 30 34 35
3 3 4 31
3 12 13 35
3 4 5 48
3 11 12 54
3 5 6 48
3 10 11 54
3 6 48 59
3 10 54 55
3 6 7 59
3 9 10 55
3 7 58 59
3 9 55 56
3 8 57 58
3 8 56 57
3 7 8 58
3 8 9 56
3 4 31 48
3 12 35 54
3 31 48 49
3 35 53 54
3 31 49 50
3 35 52 53
3 31 32 50
3 34 35 52
3 32 33 50
3 33 34 52
3 33 50 51
3 33 51 52
3 48 49 60
3 49 60 50
3 50 60 61
3 50 51 61
3 51 52 61
3 61 62 52
3 52 53 62
3 53 54 62
3 54 55 63
3 55 56 63
3 56 63 64
3 56 57 64
3 64 65 57
3 57 58 65
3 58 59 65
3 48 59 65
