ply
format ascii 1.0
element vertex 66
property float x
property float y
property float z
property float u
property float v
element face 91
property list uchar int vertex_indices
end_header
-20.1371 -6.24533 21.7446 480.057 299.558
-19.6642 -0.657287 21.3224 478.88 322.453
-19.0413 4.93419 20.9562 478.311 345.473
-18.179 10.2383 18.4631 479.101 366.455
-16.5377 14.9114 13.8005 483.667 384.284
-13.2684 18.4354 8.06787 495.683 397.85
-8.76811 20.6779 3.17474 513.402 407.284
-3.78439 21.9876 -0.999244 533.564 413.525
1.47475 21.8464 -4.68895 555.632 414.226
6.71819 21.1032 -0.797778 577.221 416.034
11.3503 18.7803 3.43902 597.157 411.203
15.2774 15.6291 8.33533 614.598 402.895
17.9196 11.5778 14.0161 627.188 390.544
19.0581 6.91151 18.5001 634.064 374.253
19.2872 1.92061 21.0004 637.582 355.181
19.1265 -3.29719 21.1953 639.856 333.87
18.7342 -8.48348 21.5204 641.147 312.618
-17.1933 -13.9919 0.037893 498.706 259.378
-14.7748 -15.9288 -1.45408 509.893 252.152
-11.785 -16.702 -2.93575 522.77 250.011
-8.74206 -16.7015 -4.37052 535.422 251.083
-5.78347 -16.1341 -5.67187 547.393 254.484
3.42761 -16.355 -5.81634 585.399 258.799
6.13437 -17.1954 -4.42188 596.864 257.578
9.01087 -17.5356 -2.92556 608.733 258.545
11.9388 -17.2139 -1.37344 620.433 262.27
14.4824 -15.7067 0.177968 629.882 270.617
-0.534418 -11.6081 -5.10475 566.353 276.248
-0.379388 -8.77553 -7.70145 565.646 286.681
-0.238661 -5.99025 -10.6257 564.938 296.759
-0.0978301 -3.21884 -13.5966 564.244 306.757
-3.41078 -0.11408 -6.10371 548.121 321.069
-1.58231 0.124387 -7.22401 555.614 322.564
0.282827 0.113633 -8.26282 563.391 323.1
2.02023 -0.0884911 -7.17328 570.54 323.785
3.69446 -0.545698 -6.03831 577.568 323.414
-13.3279 -9.96076 -0.832591 512.401 277.649
-11.3247 -11.2565 -0.950256 521.382 273.451
-8.917 -11.4274 -1.12315 531.394 274.053
-6.84847 -10.3094 -0.974876 539.25 279.876
-8.9793 -9.72757 -1.06741 530.17 280.986
-11.2251 -9.53997 -1.06106 520.83 280.466
5.32895 -10.9157 -1.08945 589.666 284.333
7.19539 -12.1576 -1.11888 598.045 280.318
9.53809 -12.2969 -0.87916 607.731 281.207
11.6058 -11.2238 -0.694554 615.605 286.863
9.6144 -10.5868 -1.00472 607.089 288.176
7.42091 -10.5587 -1.07473 598.062 286.999
-8.09965 8.79212 -2.99925 523.494 356.215
-5.30159 7.21031 -4.86049 536.077 350.483
-2.39112 6.06824 -6.58182 548.86 346.677
0.605181 6.05489 -8.25988 561.353 347.551
3.51628 5.70494 -6.37718 573.331 348.68
6.47992 6.44301 -4.6422 584.924 354.213
9.33783 7.70167 -2.84478 595.781 361.84
7.24582 9.93214 -4.10686 586.044 369.154
4.31143 11.2357 -5.37006 573.369 372.199
1.04368 11.6011 -6.70663 559.861 371.186
-2.33784 11.6484 -5.54979 545.818 369.984
-5.5279 10.7333 -4.30251 533.097 365.004
-3.14784 8.08664 -5.44748 544.494 355.021
0.75667 7.80311 -7.64086 560.924 355.07
4.6188 7.60441 -5.22588 576.674 357.613
4.84163 8.59448 -4.50303 576.957 362.125
0.886482 8.9394 -6.45454 560.697 360.344
-3.14937 9.10472 -4.72169 543.839 359.52
3 20 21 23
3 21 22 23
3 0 1 36
3 15 16 45
3 0 17 36
3 16 26 45
3 17 18 37
3 25 26 44
3 17 36 37
3 26 44 45
3 18 19 38
3 24 25 43
3 18 37 38
3 25 43 44
3 19 20 38
3 23 24 43
3 20 21 39
3 22 23 42
3 20 38 39
3 23 42 43
3 21 22 27
3 21 27 39
3 22 27 42
3 27 28 42
3 27 28 39
3 28 42 47
3 28 39 40
3 1 36 41
3 15 45 46
3 1 2 41
3 14 15 46
3 28 29 40
3 28 29 47
3 2 40 41
3 14 46 47
3 2 29 40
3 14 29 47
3 2 3 29
3 13 14 29
3 29 30 31
3 29 30 35
3 3 29 31
3 13 29 35
3 30 32 33
3 30 33 34
3 30 31 32
3 30 34 35
3 3 4 31
3 12 13 35
3 4 5 48
3 11 12 54
3 5 6 48
3 10 11 54
3 6 48 59
3 10 54 55
3 6 7 59
3 9 10 55
3 7 58 59
3 9 55 56
3 8 57 58
3 8 56 57
3 7 8 58
3 8 9 56
3 4 31 48
3 12 35 54
3 31 48 49
3 35 53 54
3 31 49 50
3 35 52 53
3 31 32 50
3 34 35 52
3 32 33 50
3 33 34 52
3 33 50 51
3 33 51 52
3 48 49 60
3 49 60 50
3 50 60 61
3 50 51 61
3 51 52 61
3 61 62 52
3 52 53 62
3 53 54 62
3 54 55 63
3 55 56 63
3 56 63 64
3 56 57 64
3 64 65 57
3 57 58 65
3 58 59 65
3 48 59 65
