ply
format ascii 1.0
element vertex 66
property float x
property float y
property float z
property float u
property float v
element face 91
property list uchar int vertex_indices
end_header
-20.5852 -5.83438 21.6153 477.453 300.251
-20.0894 -0.370134 21.1151 475.988 321.883
-19.4111 5.10725 20.8178 475.237 343.775
-18.4119 10.2501 18.4984 476.003 363.62
-16.6331 14.6886 13.6783 480.348 380.03
-13.3834 18.0756 8.02771 491.209 392.835
-8.98366 20.3103 3.21817 507.347 402.202
-4.07062 21.6546 -0.91134 526.072 408.691
1.17322 21.5404 -4.65018 547.024 409.816
6.51242 20.8632 -0.775152 568.584 412.273
11.2231 18.6041 3.38787 588.641 408.229
15.2663 15.5505 8.21163 606.538 400.936
18.0793 11.6122 13.8506 620.094 389.756
19.4099 6.99428 18.5553 628.208 374.536
19.7966 1.89165 20.9228 632.918 355.741
19.694 -3.48375 21.1653 635.892 334.588
19.3122 -8.83064 21.5746 637.736 313.449
-17.4022 -13.4365 0.130076 495.225 262.41
-15.1623 -15.6335 -1.49771 505.528 254.403
-12.2239 -16.5977 -2.93864 517.824 251.783
-9.17571 -16.6397 -4.34041 529.975 252.887
-6.20974 -16.089 -5.59139 541.424 256.346
4.0258 -16.6833 -5.64119 582.435 260.401
6.6531 -17.6402 -4.29595 593.446 258.893
9.47526 -18.0705 -2.81113 604.897 259.648
12.3651 -17.7448 -1.27093 616.14 263.452
14.8669 -16.1816 0.319006 625.062 271.917
-0.46523 -11.3312 -5.09234 561.226 278.943
-0.273158 -8.47329 -7.81163 560.233 289.088
-0.0894496 -5.64885 -10.7004 559.23 299.017
0.0841881 -2.8223 -13.4838 558.185 308.996
-3.0623 0.244369 -6.18259 543.643 322.466
-1.38142 0.512694 -7.24503 550.165 324.092
0.357856 0.520033 -8.19012 557.081 324.779
1.977 0.313556 -7.18119 563.623 325.443
3.51665 -0.155554 -6.10859 570.013 325.051
-13.018 -9.66845 -0.93345 510.276 279.533
-11.124 -10.9226 -1.00473 518.586 275.742
-8.82793 -11.1383 -1.12857 527.839 276.276
-6.85592 -10.1057 -0.978203 535.016 281.654
-8.8499 -9.38952 -1.13401 526.651 283.156
-11.0039 -9.19746 -1.13117 517.978 282.564
5.55082 -10.9361 -0.909311 584.793 286.195
7.31833 -12.1938 -1.01398 592.604 282.296
9.5899 -12.3419 -0.872807 601.713 283.202
11.6052 -11.348 -0.804011 609.088 288.418
9.71769 -10.5828 -1.01547 601.115 290.154
7.58739 -10.4939 -1.03305 592.602 289.161
-7.24842 8.50541 -2.96 521.77 353.899
-4.69114 7.1024 -4.87605 532.837 349.091
-2.09407 6.06553 -6.59848 543.829 345.841
0.553774 6.07706 -8.34658 554.362 346.746
3.1105 5.75157 -6.48518 564.687 347.92
5.71854 6.46022 -4.72483 574.566 353.159
8.27218 7.57668 -2.79129 583.97 360.052
6.44549 9.7183 -4.09541 575.39 366.754
3.85476 11.0665 -5.43455 564.278 369.831
0.825304 11.4534 -6.79458 552.029 368.832
-2.2592 11.417 -5.54094 539.786 367.328
-5.05759 10.4058 -4.17083 529.291 362.213
-2.53067 7.85103 -5.41793 540.952 353.151
0.638157 7.59084 -7.56722 553.731 353.127
3.73093 7.49177 -5.23073 566.034 355.748
3.94401 8.64712 -4.45992 566.14 360.792
0.724277 9.0217 -6.2967 553.151 359.407
-2.59683 9.04964 -4.61798 539.921 358.203
3 20 21 23
3 21 22 23
3 0 1 36
3 15 16 45
3 0 17 36
3 16 26 45
3 17 18 37
3 25 26 44
3 17 36 37
3 26 44 45
3 18 19 38
3 24 25 43
3 18 37 38
3 25 43 44
3 19 20 38
3 23 24 43
3 20 21 39
3 22 23 42
3 20 38 39
3 23 42 43
3 21 22 27
3 21 27 39
3 22 27 42
3 27 28 42
3 27 28 39
3 28 42 47
3 28 39 40
3 1 36 41
3 15 45 46
3 1 2 41
3 14 15 46
3 28 29 40
3 28 29 47
3 2 40 41
3 14 46 47
3 2 29 40
3 14 29 47
3 2 3 29
3 13 14 29
3 29 30 31
3 29 30 35
3 3 29 31
3 13 29 35
3 30 32 33
3 30 33 34
3 30 31 32
3 30 34 35
3 3 4 31
3 12 13 35
3 4 5 48
3 11 12 54
3 5 6 48
3 10 11 54
3 6 48 59
3 10 54 55
3 6 7 59
3 9 10 55
3 7 58 59
3 9 55 56
3 8 57 58
3 8 56 57
3 7 8 58
3 8 9 56
3 4 31 48
3 12 35 54
3 31 48 49
3 35 53 54
3 31 49 50
3 35 52 53
3 31 32 50
3 34 35 52
3 32 33 50
3 33 34 52
3 33 50 51
3 33 51 52
3 48 49 60
3 49 60 50
3 50 60 61
3 50 51 61
3 51 52 61
3 61 62 52
3 52 53 62
3 53 54 62
3 54 55 63
3 55 56 63
3 56 63 64
3 56 57 64
3 64 65 57
3 57 58 65
3 58 59 65
3 48 59 65
