ply
format ascii 1.0
element vertex 66
property float x
property float y
property float z
property float u
property float v
element face 91
property list uchar int vertex_indices
end_header
-20.1085 -6.23995 21.6916 480.112 299.103
-19.6444 -0.667367 21.2511 479.006 322.001
-19.0301 4.90996 20.8865 478.508 345.034
-18.1524 10.2042 18.4478 479.472 366.177
-16.4966 14.8716 13.7858 484.223 384.244
-13.2473 18.4116 8.06407 496.268 398.134
-8.78169 20.6886 3.1699 513.928 407.88
-3.83726 22.0615 -0.99002 533.977 414.501
1.40488 21.966 -4.67723 556.01 415.473
6.6609 21.2207 -0.780368 577.644 417.004
11.2777 18.8574 3.4439 597.5 411.689
15.1993 15.6818 8.32706 614.871 402.937
17.8648 11.6213 13.9855 627.472 390.189
19.0534 6.94869 18.4891 634.453 373.62
19.3161 1.94369 20.939 638.024 354.304
19.1586 -3.28274 21.141 640.228 332.894
18.7671 -8.47724 21.4649 641.437 311.536
-17.0924 -13.9994 0.040904 499.117 259.836
-14.713 -15.9249 -1.46032 510.133 252.641
-11.7647 -16.7114 -2.93656 522.864 250.44
-8.75452 -16.7267 -4.3675 535.42 251.451
-5.82327 -16.1787 -5.65709 547.326 254.785
3.37696 -16.3953 -5.7987 585.343 258.971
6.08997 -17.2184 -4.42122 596.819 257.697
8.96668 -17.5354 -2.93638 608.679 258.633
11.8819 -17.1702 -1.39363 620.316 262.409
14.3947 -15.6311 0.178992 629.648 270.781
-0.563622 -11.6965 -5.11893 566.461 276.307
-0.403541 -8.86071 -7.71007 565.838 286.914
-0.257992 -6.06964 -10.6104 565.214 297.2
-0.111483 -3.29164 -13.5479 564.604 307.416
-3.40308 -0.175253 -6.08529 548.538 321.504
-1.57702 0.0709152 -7.20351 556.041 323.058
0.289145 0.0618768 -8.24 563.841 323.623
2.02855 -0.146979 -7.14909 571.001 324.2
3.6964 -0.618606 -6.04552 578.01 323.667
-13.0764 -10.0443 -0.891658 513.578 277.882
-11.1404 -11.2765 -0.960092 522.234 273.886
-8.82327 -11.454 -1.08519 531.886 274.399
-6.81531 -10.417 -0.926152 539.567 279.835
-8.87124 -9.8475 -1.0483 530.801 280.968
-11.0381 -9.66221 -1.07037 521.78 280.509
5.20666 -11.0076 -1.02397 589.403 284.082
7.02206 -12.166 -1.09798 597.523 280.319
9.27579 -12.2906 -0.903058 606.85 281.149
11.2739 -11.2806 -0.754357 614.506 286.464
9.34283 -10.6848 -1.00827 606.254 287.719
7.22613 -10.6634 -1.038 597.53 286.613
-7.9551 8.83697 -2.98866 524.508 357.189
-5.20549 7.2676 -4.85489 536.892 351.505
-2.33385 6.11115 -6.57815 549.537 347.641
0.645999 6.09214 -8.26002 561.997 348.514
3.54687 5.7436 -6.36078 573.93 349.509
6.48001 6.49031 -4.62676 585.41 354.939
9.29534 7.73136 -2.81424 596.126 362.36
7.24363 9.96564 -4.09396 586.587 369.825
4.35537 11.3035 -5.35976 574.094 373.157
1.09132 11.6916 -6.71176 560.586 372.353
-2.27834 11.7203 -5.55119 546.571 371.082
-5.42368 10.7778 -4.29114 534.003 366
-3.04089 8.07376 -5.43141 545.424 355.771
0.795476 7.76259 -7.61406 561.625 355.713
4.59728 7.59337 -5.21054 577.114 358.159
4.8336 8.74231 -4.48791 577.378 363.303
0.941597 9.13766 -6.42999 561.343 361.928
-3.03132 9.25135 -4.70449 544.738 360.908
3 20 21 23
3 21 22 23
3 0 1 36
3 15 16 45
3 0 17 36
3 16 26 45
3 17 18 37
3 25 26 44
3 17 36 37
3 26 44 45
3 18 19 38
3 24 25 43
3 18 37 38
3 25 43 44
3 19 20 38
3 23 24 43
3 20 21 39
3 22 23 42
3 20 38 39
3 23 42 43
3 21 22 27
3 21 27 39
3 22 27 42
3 27 28 42
3 27 28 39
3 28 42 47
3 28 39 40
3 1 36 41
3 15 45 46
3 1 2 41
3 14 15 46
3 28 29 40
3 28 29 47
3 2 40 41
3 14 46 47
3 2 29 40
3 14 29 47
3 2 3 29
3 13 14 29
3 29 30 31
3 29 30 35
3 3 29 31
3 13 29 35
3 30 32 33
3 30 33 34
3 30 31 32
3 30 34 35
3 3 4 31
3 12 13 35
3 4 5 48
3 11 12 54
3 5 6 48
3 10 11 54
3 6 48 59
3 10 54 55
3 6 7 59
3 9 10 55
3 7 58 59
3 9 55 56
3 8 57 58
3 8 56 57
3 7 8 58
3 8 9 56
3 4 31 48
3 12 35 54
3 31 48 49
3 35 53 54
3 31 49 50
3 35 52 53
3 31 32 50
3 34 35 52
3 32 33 50
3 33 34 52
3 33 50 51
3 33 51 52
3 48 49 60
3 49 60 50
3 50 60 61
3 50 51 61
3 51 52 61
3 61 62 52
3 52 53 62
3 53 54 62
3 54 55 63
3 55 56 63
3 56 63 64
3 56 57 64
3 64 65 57
3 57 58 65
3 58 59 65
3 48 59 65
