ply
format ascii 1.0
element vertex 66
property float x
property float y
property float z
property float u
property float v
element face 91
property list uchar int vertex_indices
end_header
-20.647 -6.02644 21.5794 477.232 301.627
-20.1807 -0.511528 21.077 475.889 323.353
-19.4948 5.00992 20.7816 475.402 345.341
-18.4738 10.2056 18.4691 476.558 365.2
-16.7018 14.7351 13.6108 481.241 381.563
-13.4534 18.2359 7.9592 492.435 394.333
-9.01768 20.5548 3.2089 508.98 403.614
-4.02254 21.8929 -0.893817 528.28 409.697
1.28798 21.7763 -4.64316 549.662 410.421
6.64076 21.0761 -0.740012 571.088 412.827
11.3707 18.8203 3.41626 590.935 408.874
15.3847 15.7061 8.17147 608.405 401.43
18.1465 11.701 13.7945 621.372 390.191
19.4418 7.03437 18.5588 628.954 375.043
19.8395 1.90503 20.9098 633.39 356.298
19.7593 -3.49087 21.1464 636.212 335.13
19.3858 -8.8559 21.5514 637.842 313.999
-17.2814 -13.6642 0.12611 496.363 262.45
-15.1116 -15.7314 -1.4993 506.286 254.747
-12.2999 -16.6185 -2.9263 518.056 252.169
-9.39321 -16.6363 -4.33174 529.693 253.081
-6.56809 -16.0962 -5.59642 540.671 256.214
4.27152 -16.7031 -5.61422 584.067 260.185
6.85413 -17.614 -4.27955 594.773 258.807
9.61585 -18.0153 -2.81204 605.884 259.608
12.429 -17.6406 -1.31115 616.744 263.512
14.833 -16.0467 0.312277 625.258 272.038
-0.566295 -11.1037 -5.09866 561.552 279.652
-0.390697 -8.32189 -7.84441 560.79 289.288
-0.222584 -5.56666 -10.7026 560.02 298.757
-0.0579113 -2.80803 -13.4131 559.225 308.313
-3.07835 0.3341 -6.18084 544.956 322.646
-1.4377 0.582379 -7.23206 551.389 324.044
0.255035 0.593404 -8.16676 558.16 324.599
1.85602 0.377049 -7.16254 564.583 325.207
3.37737 -0.0800159 -6.1248 570.828 324.838
-13.2141 -9.63748 -1.02489 510.228 280.098
-11.3047 -10.8553 -1.04349 518.523 276.415
-9.00695 -11.0857 -1.08721 527.784 276.836
-7.02303 -10.1191 -0.936611 535.087 281.885
-9.02323 -9.37439 -1.14622 526.722 283.533
-11.1945 -9.17547 -1.14609 517.985 283.041
5.6225 -10.9483 -0.901864 585.78 286.07
7.42016 -12.1285 -1.00322 593.614 282.428
9.69373 -12.2403 -0.912528 602.701 283.37
11.7168 -11.2837 -0.855805 610.171 288.354
9.81387 -10.546 -1.01519 602.194 290.058
7.66496 -10.4719 -1.04893 593.62 289.07
-6.36516 8.76002 -2.96575 526.783 355.547
-4.22797 7.11746 -4.93961 536.35 349.317
-1.91635 5.88284 -6.65335 546.354 344.929
0.556165 5.87839 -8.38348 556.279 345.47
2.96227 5.56825 -6.50778 565.9 346.633
5.3538 6.47769 -4.77154 574.759 352.516
7.5826 7.85463 -2.79893 582.683 360.266
5.88643 9.64207 -3.99831 574.976 365.686
3.57209 10.7435 -5.37574 565.227 367.95
0.889876 11.0689 -6.80546 554.473 366.916
-1.8434 11.0841 -5.50901 543.533 366.04
-4.34571 10.3111 -4.11063 533.964 362.249
-2.10722 7.7563 -5.34649 544.421 352.868
0.668848 7.45124 -7.43234 555.749 352.22
3.41161 7.4122 -5.17827 566.525 354.843
3.55384 8.38937 -4.4242 566.473 359.163
0.760648 8.69826 -6.19596 555.309 357.822
-2.1025 8.76098 -4.58045 543.806 357.222
3 20 21 23
3 21 22 23
3 0 1 36
3 15 16 45
3 0 17 36
3 16 26 45
3 17 18 37
3 25 26 44
3 17 36 37
3 26 44 45
3 18 19 38
3 24 25 43
3 18 37 38
3 25 43 44
3 19 20 38
3 23 24 43
3 20 21 39
3 22 23 42
3 20 38 39
3 23 42 43
3 21 22 27
3 21 27 39
3 22 27 42
3 27 28 42
3 27 28 39
3 28 42 47
3 28 39 40
3 1 36 41
3 15 45 46
3 1 2 41
3 14 15 46
3 28 29 40
3 28 29 47
3 2 40 41
3 14 46 47
3 2 29 40
3 14 29 47
3 2 3 29
3 13 14 29
3 29 30 31
3 29 30 35
3 3 29 31
3 13 29 35
3 30 32 33
3 30 33 34
3 30 31 32
3 30 34 35
3 3 4 31
3 12 13 35
3 4 5 48
3 11 12 54
3 5 6 48
3 10 11 54
3 6 48 59
3 10 54 55
3 6 7 59
3 9 10 55
3 7 58 59
3 9 55 56
3 8 57 58
3 8 56 57
3 7 8 58
3 8 9 56
3 4 31 48
3 12 35 54
3 31 48 49
3 35 53 54
3 31 49 50
3 35 52 53
3 31 32 50
3 34 35 52
3 32 33 50
3 33 34 52
3 33 50 51
3 33 51 52
3 48 49 60
3 49 60 50
3 50 60 61
3 50 51 61
3 51 52 61
3 61 62 52
3 52 53 62
3 53 54 62
3 54 55 63
3 55 56 63
3 56 63 64
3 56 57 64
3 64 65 57
3 57 58 65
3 58 59 65
3 48 59 65
