ply
format ascii 1.0
element vertex 66
property float x
property float y
property float z
property float u
property float v
element face 91
property list uchar int vertex_indices
end_header
-20.676 -6.02933 21.6372 476.733 302.482
-20.1825 -0.492204 21.1417 475.563 324.306
-19.4846 5.05132 20.8267 475.192 346.371
-18.474 10.271 18.488 476.364 366.234
-16.7137 14.81 13.6291 481.046 382.468
-13.4462 18.2805 7.97018 492.377 394.918
-8.98587 20.5442 3.20869 509.091 403.789
-3.98851 21.8373 -0.91273 528.458 409.494
1.30672 21.6922 -4.65024 549.809 409.913
6.64045 20.9766 -0.736945 571.21 412.289
11.3529 18.7093 3.43349 591.011 408.337
15.3599 15.6008 8.19689 608.454 400.991
18.1249 11.6097 13.8126 621.413 389.923
19.428 6.97315 18.55 628.976 374.994
19.8233 1.89307 20.9159 633.314 356.501
19.7465 -3.44867 21.142 636.045 335.539
19.382 -8.76055 21.539 637.605 314.622
-17.397 -13.673 0.120797 495.34 262.491
-15.1545 -15.7599 -1.49131 505.54 254.674
-12.2676 -16.6457 -2.9251 517.607 252.055
-9.28963 -16.6495 -4.33112 529.531 252.978
-6.39618 -16.0791 -5.59199 540.783 256.194
4.21207 -16.6438 -5.63487 583.296 260.024
6.81559 -17.5524 -4.29926 594.094 258.667
9.6004 -17.9505 -2.82828 605.313 259.498
12.4379 -17.5856 -1.3149 616.305 263.389
14.8701 -15.9976 0.310182 624.98 271.926
-0.518495 -11.1846 -5.09161 561.337 279.116
-0.349199 -8.34306 -7.83283 560.542 288.908
-0.189024 -5.53085 -10.7128 559.736 298.504
-0.0333355 -2.71653 -13.4625 558.903 308.177
-3.06152 0.324783 -6.18297 544.716 322.401
-1.41347 0.578568 -7.24425 551.185 323.765
0.286814 0.592614 -8.19112 557.992 324.277
1.87641 0.382772 -7.17258 564.377 324.918
3.38697 -0.0703878 -6.11406 570.583 324.577
-13.2606 -9.67729 -0.986417 509.572 279.996
-11.3359 -10.917 -1.02826 517.937 276.193
-9.01594 -11.141 -1.09952 527.295 276.601
-7.02093 -10.1241 -0.941679 534.639 281.836
-9.04284 -9.3962 -1.13458 526.194 283.439
-11.2278 -9.20572 -1.13394 517.396 282.938
5.60989 -10.914 -0.931844 585.322 285.967
7.40806 -12.1224 -1.02294 593.167 282.187
9.69372 -12.2432 -0.906641 602.32 283.085
11.7184 -11.2505 -0.829618 609.801 288.197
9.8082 -10.512 -1.01837 601.793 289.908
7.65586 -10.4438 -1.05696 593.197 288.923
-6.68006 8.69492 -2.97376 525.369 355.054
-4.40061 7.11372 -4.93494 535.447 349.059
-1.9868 5.92883 -6.6486 545.818 344.838
0.556456 5.92972 -8.37647 556.029 345.354
3.02394 5.61323 -6.49116 565.917 346.552
5.49657 6.46376 -4.75495 575.168 352.268
7.83321 7.78037 -2.80225 583.6 359.861
6.07451 9.62612 -4.00565 575.62 365.466
3.66552 10.7528 -5.3651 565.472 367.781
0.894375 11.0812 -6.781 554.344 366.713
-1.94306 11.0958 -5.5108 542.98 365.839
-4.55896 10.2994 -4.14125 532.954 361.951
-2.22605 7.77648 -5.39092 543.742 352.667
0.673383 7.49395 -7.48158 555.551 352.072
3.52966 7.42923 -5.19062 566.819 354.706
3.69142 8.39032 -4.42191 566.871 359.005
0.769938 8.69366 -6.22921 555.18 357.538
-2.22824 8.76904 -4.60988 543.123 357.002
3 20 21 23
3 21 22 23
3 0 1 36
3 15 16 45
3 0 17 36
3 16 26 45
3 17 18 37
3 25 26 44
3 17 36 37
3 26 44 45
3 18 19 38
3 24 25 43
3 18 37 38
3 25 43 44
3 19 20 38
3 23 24 43
3 20 21 39
3 22 23 42
3 20 38 39
3 23 42 43
3 21 22 27
3 21 27 39
3 22 27 42
3 27 28 42
3 27 28 39
3 28 42 47
3 28 39 40
3 1 36 41
3 15 45 46
3 1 2 41
3 14 15 46
3 28 29 40
3 28 29 47
3 2 40 41
3 14 46 47
3 2 29 40
3 14 29 47
3 2 3 29
3 13 14 29
3 29 30 31
3 29 30 35
3 3 29 31
3 13 29 35
3 30 32 33
3 30 33 34
3 30 31 32
3 30 34 35
3 3 4 31
3 12 13 35
3 4 5 48
3 11 12 54
3 5 6 48
3 10 11 54
3 6 48 59
3 10 54 55
3 6 7 59
3 9 10 55
3 7 58 59
3 9 55 56
3 8 57 58
3 8 56 57
3 7 8 58
3 8 9 56
3 4 31 48
3 12 35 54
3 31 48 49
3 35 53 54
3 31 49 50
3 35 52 53
3 31 32 50
3 34 35 52
3 32 33 50
3 33 34 52
3 33 50 51
3 33 51 52
3 48 49 60
3 49 60 50
3 50 60 61
3 50 51 61
3 51 52 61
3 61 62 52
3 52 53 62
3 53 54 62
3 54 55 63
3 55 56 63
3 56 63 64
3 56 57 64
3 64 65 57
3 57 58 65
3 58 59 65
3 48 59 65
