ply
format ascii 1.0
element vertex 66
property float x
property float y
property float z
property float u
property float v
element face 91
property list uchar int vertex_indices
end_header
-20.0001 -5.50944 21.3884 481.442 296.536
-19.453 -0.194441 21.042 479.254 318.395
-18.7135 5.11482 20.7296 477.857 340.397
-17.6235 10.1554 18.4007 477.718 360.918
-15.7492 14.6565 13.7312 480.757 379.101
-12.6059 18.2877 8.07573 489.468 394.447
-8.45718 20.9665 3.23157 503.191 407.008
-3.74147 22.7787 -0.924519 520.055 416.74
1.44129 22.9192 -4.71496 540.249 420.194
6.69355 21.9994 -0.80806 563.059 421.971
11.2504 19.4189 3.29833 584.441 416.529
15.0373 15.9799 8.23105 603.557 407.268
17.5563 11.6779 13.9726 618.388 393.764
18.6529 6.76944 18.5467 627.72 376.276
18.9388 1.51452 20.8327 633.609 355.973
18.7934 -3.92746 21.118 637.52 333.9
18.3661 -9.35221 21.5346 640.298 311.715
-16.6179 -13.3661 0.0523344 497.521 260.299
-14.5266 -15.5557 -1.56513 507.488 252.562
-11.6824 -16.5735 -3.00234 519.588 250.235
-8.6946 -16.6994 -4.42206 531.545 251.642
-5.76597 -16.2345 -5.69391 542.807 255.446
4.14375 -17.0815 -5.74953 583.701 259.926
6.60429 -17.9563 -4.37804 594.662 258.806
9.22944 -18.3266 -2.85257 605.908 259.915
11.9043 -18.0532 -1.29126 616.836 263.683
14.227 -16.6781 0.23591 625.429 271.623
-0.332441 -11.7931 -4.98404 561.362 278.027
-0.0874863 -9.09942 -7.64614 559.648 288.252
0.151115 -6.44037 -10.5177 557.897 298.261
0.360335 -3.79125 -13.3843 556.035 308.208
-2.89565 -0.416718 -6.04522 541.464 321.721
-1.26031 -0.210282 -7.11346 547.727 323.51
0.421105 -0.209117 -8.1171 554.358 324.526
1.95544 -0.383707 -7.07205 560.926 325.395
3.45145 -0.749166 -5.83559 567.531 325.523
-12.6783 -9.74251 -0.874731 510.371 277.826
-10.8933 -10.9775 -0.999067 518.599 274.209
-8.68811 -11.2709 -1.17223 527.755 274.727
-6.74983 -10.4642 -1.07819 534.979 279.578
-8.62868 -9.65447 -1.11801 526.686 281.342
-10.7145 -9.37867 -1.04931 518.009 280.814
5.61182 -11.3874 -0.908632 585.928 285.786
7.39367 -12.4862 -0.936715 594.052 282.75
9.62275 -12.5698 -0.870182 603.178 284.217
11.5475 -11.5712 -0.917792 610.163 289.788
9.67925 -10.8945 -1.01373 602.011 291.003
7.58816 -10.8537 -1.05329 593.485 289.482
-7.27361 8.73417 -2.9275 516.815 356.336
-4.84088 7.26214 -4.76397 527.54 351.706
-2.30955 6.1478 -6.44907 538.401 348.655
0.337519 6.2267 -8.13821 548.757 350.531
2.85022 5.88788 -6.5304 559.536 351.704
5.34091 6.78834 -4.75844 569.245 357.936
7.70005 8.0632 -2.83148 578.144 365.632
5.97407 10.3244 -4.23953 569.024 372.944
3.43864 11.7283 -5.59166 557.331 376.154
0.463007 12.1576 -6.86159 544.663 375.089
-2.57359 11.9917 -5.56275 532.724 372.419
-5.26372 10.8105 -4.23715 523.025 365.922
-2.75277 8.17131 -5.27122 535.174 356.893
0.359459 7.99833 -7.53624 547.513 357.928
3.31722 7.90805 -5.10336 560.053 360.739
3.45454 8.9021 -4.48746 559.915 365.082
0.379813 9.30697 -6.4126 546.74 363.621
-2.85763 9.20426 -4.60895 534.031 361.215
3 20 21 23
3 21 22 23
3 0 1 36
3 15 16 45
3 0 17 36
3 16 26 45
3 17 18 37
3 25 26 44
3 17 36 37
3 26 44 45
3 18 19 38
3 24 25 43
3 18 37 38
3 25 43 44
3 19 20 38
3 23 24 43
3 20 21 39
3 22 23 42
3 20 38 39
3 23 42 43
3 21 22 27
3 21 27 39
3 22 27 42
3 27 28 42
3 27 28 39
3 28 42 47
3 28 39 40
3 1 36 41
3 15 45 46
3 1 2 41
3 14 15 46
3 28 29 40
3 28 29 47
3 2 40 41
3 14 46 47
3 2 29 40
3 14 29 47
3 2 3 29
3 13 14 29
3 29 30 31
3 29 30 35
3 3 29 31
3 13 29 35
3 30 32 33
3 30 33 34
3 30 31 32
3 30 34 35
3 3 4 31
3 12 13 35
3 4 5 48
3 11 12 54
3 5 6 48
3 10 11 54
3 6 48 59
3 10 54 55
3 6 7 59
3 9 10 55
3 7 58 59
3 9 55 56
3 8 57 58
3 8 56 57
3 7 8 58
3 8 9 56
3 4 31 48
3 12 35 54
3 31 48 49
3 35 53 54
3 31 49 50
3 35 52 53
3 31 32 50
3 34 35 52
3 32 33 50
3 33 34 52
3 33 50 51
3 33 51 52
3 48 49 60
3 49 60 50
3 50 60 61
3 50 51 61
3 51 52 61
3 61 62 52
3 52 53 62
3 53 54 62
3 54 55 63
3 55 56 63
3 56 63 64
3 56 57 64
3 64 65 57
3 57 58 65
3 58 59 65
3 48 59 65
