ply
format ascii 1.0
element vertex 66
property float x
property float y
property float z
property float u
property float v
element face 91
property list uchar int vertex_indices
end_header
-20.5163 -5.91898 21.5686 477.56 304.199
-20.0192 -0.407824 21.0563 476.858 326.098
-19.3058 5.10492 20.7441 476.998 348.224
-18.2421 10.2764 18.4394 478.966 368.085
-16.4305 14.7456 13.612 484.606 384.157
-13.2163 18.1915 7.96595 496.493 396.432
-8.86668 20.5005 3.14201 513.405 405.217
-3.9843 21.9022 -0.957126 532.82 411.062
1.24662 21.8436 -4.65941 554.317 411.494
6.56045 21.0648 -0.726825 575.549 413.274
11.1742 18.6762 3.41326 594.75 408.404
15.0702 15.4845 8.2206 611.389 400.335
17.7915 11.4824 13.8014 623.62 388.861
19.1769 6.89162 18.4946 630.894 373.873
19.6505 1.85167 20.8165 635.03 355.336
19.6011 -3.4589 21.0167 637.469 334.294
19.2405 -8.73928 21.4088 638.619 313.317
-17.1673 -14.0337 0.100831 497.771 261.911
-14.8904 -16.0473 -1.4374 508.115 254.231
-11.9958 -16.8465 -2.86243 520.316 251.76
-9.03699 -16.7769 -4.30366 532.342 252.77
-6.18038 -16.1288 -5.61121 543.651 256.101
3.94271 -16.5881 -5.68717 584.535 259.433
6.53665 -17.545 -4.30853 595.257 257.712
9.32578 -17.9826 -2.80764 606.486 258.224
12.1793 -17.6463 -1.30437 617.585 261.849
14.6231 -16.0667 0.260646 626.409 270.243
-0.516755 -11.2561 -5.05573 563.878 278.698
-0.35548 -8.45664 -7.77964 563.465 288.43
-0.206114 -5.68587 -10.6365 563.034 297.968
-0.0606993 -2.91435 -13.3821 562.574 307.569
-2.99665 0.103319 -6.09824 548.358 322.044
-1.38238 0.377614 -7.19137 554.84 323.367
0.291219 0.399838 -8.14951 561.668 323.792
1.84958 0.190123 -7.1035 567.899 324.329
3.31394 -0.276098 -6.02977 573.877 323.814
-13.4072 -9.87726 -0.985273 510.92 279.784
-11.4814 -11.1167 -0.95291 519.27 275.861
-9.14603 -11.3496 -1.00949 528.77 276.103
-7.16428 -10.3385 -0.931601 536.21 281.186
-9.18327 -9.56658 -1.14714 527.744 283.102
-11.381 -9.37517 -1.12225 518.821 282.748
5.69203 -11.0923 -0.944182 588.208 284.786
7.4779 -12.2681 -0.959151 595.97 281.017
9.77146 -12.3661 -0.852185 605.214 281.864
11.7825 -11.3643 -0.839568 612.785 286.89
9.88375 -10.6174 -1.01908 604.81 288.787
7.72689 -10.5682 -1.08189 596.133 287.84
-6.06848 8.89536 -3.0147 531.23 357.125
-4.04276 7.23936 -4.93112 540.435 350.531
-1.8252 5.95608 -6.62825 550.195 345.639
0.579371 5.94075 -8.41346 560.081 345.838
2.92146 5.66891 -6.43371 569.372 347.041
5.21559 6.64635 -4.71934 577.878 353.044
7.30964 8.07589 -2.8186 585.33 360.845
5.81889 10.0194 -4.06415 578.527 367.131
3.63166 11.2901 -5.40497 569.277 370.33
0.965567 11.6835 -6.857 558.557 369.732
-1.77466 11.6108 -5.5922 547.433 368.726
-4.19337 10.638 -4.23466 538.039 364.355
-1.86894 7.85859 -5.31749 548.901 353.901
0.702358 7.54293 -7.46142 559.652 352.795
3.24816 7.56731 -5.08907 569.563 355.495
3.42004 8.74875 -4.38432 569.573 360.669
0.831618 9.1364 -6.15492 559.208 359.914
-1.84147 9.07073 -4.60539 548.314 359.126
3 20 21 23
3 21 22 23
3 0 1 36
3 15 16 45
3 0 17 36
3 16 26 45
3 17 18 37
3 25 26 44
3 17 36 37
3 26 44 45
3 18 19 38
3 24 25 43
3 18 37 38
3 25 43 44
3 19 20 38
3 23 24 43
3 20 21 39
3 22 23 42
3 20 38 39
3 23 42 43
3 21 22 27
3 21 27 39
3 22 27 42
3 27 28 42
3 27 28 39
3 28 42 47
3 28 39 40
3 1 36 41
3 15 45 46
3 1 2 41
3 14 15 46
3 28 29 40
3 28 29 47
3 2 40 41
3 14 46 47
3 2 29 40
3 14 29 47
3 2 3 29
3 13 14 29
3 29 30 31
3 29 30 35
3 3 29 31
3 13 29 35
3 30 32 33
3 30 33 34
3 30 31 32
3 30 34 35
3 3 4 31
3 12 13 35
3 4 5 48
3 11 12 54
3 5 6 48
3 10 11 54
3 6 48 59
3 10 54 55
3 6 7 59
3 9 10 55
3 7 58 59
3 9 55 56
3 8 57 58
3 8 56 57
3 7 8 58
3 8 9 56
3 4 31 48
3 12 35 54
3 31 48 49
3 35 53 54
3 31 49 50
3 35 52 53
3 31 32 50
3 34 35 52
3 32 33 50
3 33 34 52
3 33 50 51
3 33 51 52
3 48 49 60
3 49 60 50
3 50 60 61
3 50 51 61
3 51 52 61
3 61 62 52
3 52 53 62
3 53 54 62
3 54 55 63
3 55 56 63
3 56 63 64
3 56 57 64
3 64 65 57
3 57 58 65
3 58 59 65
3 48 59 65
