ply
format ascii 1.0
element vertex 66
property float x
property float y
property float z
property float u
property float v
element face 91
property list uchar int vertex_indices
end_header
-20.6139 -6.1883 21.6203 477.237 300.876
-20.1381 -0.626732 21.1284 475.994 322.841
-19.4462 4.93954 20.8184 475.598 345.04
-18.4411 10.1857 18.4894 476.747 365.146
-16.7064 14.7751 13.6465 481.32 381.821
-13.4715 18.3246 7.96769 492.498 394.834
-9.01932 20.6666 3.20958 509.15 404.24
-3.9952 21.9988 -0.89591 528.611 410.315
1.33819 21.8753 -4.65613 550.11 410.998
6.68479 21.1566 -0.744523 571.548 413.174
11.4084 18.8855 3.42119 591.377 408.998
15.4003 15.7457 8.17754 608.756 401.271
18.1365 11.722 13.8125 621.592 389.779
19.4098 7.05275 18.562 629.032 374.462
19.7931 1.9399 20.9255 633.325 355.693
19.7154 -3.43518 21.1651 636.059 334.565
19.3508 -8.78115 21.5562 637.627 313.463
-17.3362 -13.6754 0.103224 495.796 262.461
-15.1328 -15.7407 -1.49905 505.827 254.773
-12.2909 -16.6164 -2.93421 517.709 252.226
-9.35937 -16.6221 -4.34969 529.453 253.171
-6.51246 -16.0615 -5.6226 540.529 256.374
4.23892 -16.6514 -5.63233 583.616 260.189
6.83229 -17.5565 -4.29389 594.364 258.77
9.60497 -17.9502 -2.82363 605.526 259.537
12.4271 -17.5687 -1.32015 616.442 263.406
14.8322 -15.9585 0.306865 624.994 271.946
-0.575814 -11.1772 -5.1004 561.326 279.297
-0.404769 -8.38379 -7.84198 560.579 289.044
-0.241856 -5.61779 -10.703 559.822 298.618
-0.0811601 -2.84967 -13.4341 559.047 308.264
-3.04122 0.288308 -6.15552 545.063 322.589
-1.41945 0.520746 -7.23049 551.443 323.896
0.249829 0.526888 -8.1895 558.134 324.395
1.82127 0.318769 -7.16284 564.44 324.985
3.31755 -0.120705 -6.10981 570.578 324.633
-13.369 -9.59467 -1.02032 509.316 280.265
-11.4347 -10.8283 -1.04534 517.71 276.492
-9.105 -11.0705 -1.10069 527.115 276.841
-7.08776 -10.104 -0.965761 534.578 281.874
-9.11722 -9.35242 -1.16317 526.093 283.58
-11.3189 -9.14543 -1.14845 517.22 283.145
5.60793 -10.913 -0.938682 585.519 285.954
7.43617 -12.0867 -1.02669 593.461 282.325
9.73768 -12.1942 -0.91739 602.667 283.272
11.7824 -11.2211 -0.838902 610.24 288.318
9.85001 -10.4941 -1.01234 602.153 289.995
7.67337 -10.4313 -1.06325 593.465 288.973
-6.39957 8.73618 -2.96928 526.717 355.586
-4.23393 7.0999 -4.93416 536.374 349.388
-1.90647 5.86945 -6.65558 546.43 345.004
0.575142 5.86193 -8.38226 556.404 345.53
2.98661 5.54625 -6.49939 566.061 346.604
5.39572 6.43533 -4.76185 575.033 352.357
7.65321 7.80094 -2.80393 583.117 360.013
5.94766 9.58628 -3.9985 575.39 365.484
3.619 10.6767 -5.3779 565.592 367.765
0.934992 11.0019 -6.80493 554.818 366.8
-1.81054 11.0267 -5.51621 543.811 365.973
-4.3406 10.2741 -4.1248 534.097 362.253
-2.10847 7.74604 -5.34961 544.483 352.944
0.701376 7.45157 -7.43141 555.946 352.348
3.47714 7.38871 -5.17399 566.886 354.815
3.62867 8.30122 -4.42059 566.925 358.878
0.797698 8.60525 -6.18111 555.599 357.579
-2.10156 8.68618 -4.58407 543.93 357.039
3 20 21 23
3 21 22 23
3 0 1 36
3 15 16 45
3 0 17 36
3 16 26 45
3 17 18 37
3 25 26 44
3 17 36 37
3 26 44 45
3 18 19 38
3 24 25 43
3 18 37 38
3 25 43 44
3 19 20 38
3 23 24 43
3 20 21 39
3 22 23 42
3 20 38 39
3 23 42 43
3 21 22 27
3 21 27 39
3 22 27 42
3 27 28 42
3 27 28 39
3 28 42 47
3 28 39 40
3 1 36 41
3 15 45 46
3 1 2 41
3 14 15 46
3 28 29 40
3 28 29 47
3 2 40 41
3 14 46 47
3 2 29 40
3 14 29 47
3 2 3 29
3 13 14 29
3 29 30 31
3 29 30 35
3 3 29 31
3 13 29 35
3 30 32 33
3 30 33 34
3 30 31 32
3 30 34 35
3 3 4 31
3 12 13 35
3 4 5 48
3 11 12 54
3 5 6 48
3 10 11 54
3 6 48 59
3 10 54 55
3 6 7 59
3 9 10 55
3 7 58 59
3 9 55 56
3 8 57 58
3 8 56 57
3 7 8 58
3 8 9 56
3 4 31 48
3 12 35 54
3 31 48 49
3 35 53 54
3 31 49 50
3 35 52 53
3 31 32 50
3 34 35 52
3 32 33 50
3 33 34 52
3 33 50 51
3 33 51 52
3 48 49 60
3 49 60 50
3 50 60 61
3 50 51 61
3 51 52 61
3 61 62 52
3 52 53 62
3 53 54 62
3 54 55 63
3 55 56 63
3 56 63 64
3 56 57 64
3 64 65 57
3 57 58 65
3 58 59 65
3 48 59 65
