ply
format ascii 1.0
element vertex 66
property float x
property float y
property float z
property float u
property float v
element face 91
property list uchar int vertex_indices
end_header
-19.5873 -5.89494 20.688 486.179 432.398
-19.0729 -0.74341 20.2782 486.921 455.745
-18.1482 4.34204 19.9172 489.557 478.934
-16.6607 9.34367 18.0835 494.636 501.264
-14.4289 14.1118 13.3198 502.885 521.474
-11.2392 18.3419 7.82239 515.589 539.204
-7.21158 21.7852 3.19332 532.436 553.986
-2.50318 24.2061 -0.792633 552.759 564.609
2.77962 24.5353 -4.39033 576.373 566.078
7.31226 23.0046 -0.813595 597.847 562.017
10.8745 19.8274 3.39139 615.461 550.476
13.8097 16.0785 8.12295 630.444 536.386
15.917 11.7911 13.6587 641.897 519.962
17.193 7.07479 18.4466 649.619 501.022
17.9075 2.15961 20.3742 654.556 479.769
18.2403 -2.80481 20.7385 657.614 457.499
18.3173 -7.77148 21.1768 659.514 435.176
-15.3955 -15.7952 0.207117 506.238 379.77
-13.5024 -17.4859 -1.54556 515.202 371.888
-11.0443 -18.3106 -2.97828 526.51 368.239
-8.43111 -18.4104 -4.33793 538.312 367.957
-5.87551 -17.8914 -5.57554 549.676 370.52
3.23219 -18.5225 -5.2979 591.395 370.439
6.03119 -19.4482 -4.11087 604.548 367.574
8.95049 -19.698 -2.74192 618.063 367.891
11.7565 -18.905 -1.37333 630.745 372.906
13.8799 -16.9797 0.418306 640.016 383.045
-1.5106 -12.048 -5.06988 567.845 398.531
-1.4436 -9.1191 -7.64638 567.005 410.717
-1.34939 -6.20687 -10.3251 566.285 422.79
-1.21021 -3.32111 -12.9626 565.781 434.775
-3.5276 0.0713717 -5.97543 554.89 452.538
-2.23558 0.310837 -6.96348 560.606 453.571
-0.888949 0.328301 -8.01207 566.633 453.587
0.656668 0.0567621 -6.97294 573.861 453.26
2.09192 -0.415174 -5.94997 580.646 451.984
-10.7551 -10.6771 -1.40998 525.67 403.645
-9.55754 -11.7174 -1.1874 531.465 399.372
-7.90861 -11.9245 -0.885159 539.071 399.045
-6.50366 -11.3357 -0.484873 545.334 402.303
-7.80921 -10.4604 -0.90466 539.078 405.709
-9.33573 -10.2264 -1.08848 532.033 406.245
5.20557 -12.3392 -0.730745 598.969 401.064
6.58071 -13.0719 -0.82042 605.448 398.103
8.25742 -12.9615 -0.891028 613.047 399.063
9.58801 -12.0711 -0.937268 618.836 403.472
8.18075 -11.527 -0.860837 612.266 405.563
6.61729 -11.5634 -0.921671 605.147 404.914
-4.35369 10.6508 -2.77605 548.238 501.696
-3.29913 8.76719 -5.04466 553.388 492.468
-1.79626 6.99813 -6.6362 560.614 484.186
0.321374 6.98736 -8.14724 570.116 484.097
2.51865 6.52552 -6.50227 580.432 483.361
4.45226 7.87542 -4.93778 588.989 490.734
6.09332 9.38126 -2.82553 596.221 498.967
4.81829 10.801 -4.03884 589.86 504.508
3.19806 11.8529 -5.31253 582.031 508.252
1.16821 12.4781 -6.64573 572.46 509.914
-0.972881 12.4412 -5.3891 562.84 509.669
-2.85785 11.8342 -4.23898 554.55 506.865
-0.593939 9.20117 -4.8951 565.598 495.293
0.580965 8.76796 -7.08274 570.865 492.717
1.96729 8.75706 -5.08931 577.384 493.942
1.96882 9.35172 -4.54643 577.265 496.877
0.753304 9.84934 -6.27897 571.403 498.025
-0.405231 9.7578 -4.49112 566.33 498.05
3 20 21 23
3 21 22 23
3 0 1 36
3 15 16 45
3 0 17 36
3 16 26 45
3 17 18 37
3 25 26 44
3 17 36 37
3 26 44 45
3 18 19 38
3 24 25 43
3 18 37 38
3 25 43 44
3 19 20 38
3 23 24 43
3 20 21 39
3 22 23 42
3 20 38 39
3 23 42 43
3 21 22 27
3 21 27 39
3 22 27 42
3 27 28 42
3 27 28 39
3 28 42 47
3 28 39 40
3 1 36 41
3 15 45 46
3 1 2 41
3 14 15 46
3 28 29 40
3 28 29 47
3 2 40 41
3 14 46 47
3 2 29 40
3 14 29 47
3 2 3 29
3 13 14 29
3 29 30 31
3 29 30 35
3 3 29 31
3 13 29 35
3 30 32 33
3 30 33 34
3 30 31 32
3 30 34 35
3 3 4 31
3 12 13 35
3 4 5 48
3 11 12 54
3 5 6 48
3 10 11 54
3 6 48 59
3 10 54 55
3 6 7 59
3 9 10 55
3 7 58 59
3 9 55 56
3 8 57 58
3 8 56 57
3 7 8 58
3 8 9 56
3 4 31 48
3 12 35 54
3 31 48 49
3 35 53 54
3 31 49 50
3 35 52 53
3 31 32 50
3 34 35 52
3 32 33 50
3 33 34 52
3 33 50 51
3 33 51 52
3 48 49 60
3 49 60 50
3 50 60 61
3 50 51 61
3 51 52 61
3 61 62 52
3 52 53 62
3 53 54 62
3 54 55 63
3 55 56 63
3 56 63 64
3 56 57 64
3 64 65 57
3 57 58 65
3 58 59 65
3 48 59 65
