ply
format ascii 1.0
element vertex 66
property float x
property float y
property float z
property float u
property float v
element face 91
property list uchar int vertex_indices
end_header
-19.6432 -5.93525 20.7019 486.92 432.06
-19.1401 -0.773663 20.2895 487.575 455.447
-18.2266 4.32425 19.9439 490.127 478.697
-16.7501 9.30652 18.0677 495.111 500.925
-14.5016 14.02 13.3651 503.382 520.937
-11.2665 18.1866 7.85955 516.227 538.412
-7.17966 21.5631 3.20367 533.29 552.924
-2.41867 23.9328 -0.793388 553.806 563.353
2.9209 24.1894 -4.35874 577.657 564.555
7.44107 22.738 -0.855484 599.082 560.829
11.0335 19.6944 3.36365 616.851 549.915
14.0103 16.0845 8.13976 632.051 536.49
16.106 11.8976 13.7091 643.503 520.531
17.2988 7.22836 18.4722 650.901 501.766
17.9355 2.30113 20.4302 655.537 480.449
18.2384 -2.70896 20.7992 658.501 457.969
18.3176 -7.71596 21.2852 660.459 435.487
-15.4065 -15.7895 0.187322 506.993 379.715
-13.43 -17.4527 -1.52564 516.32 372.013
-10.9297 -18.2512 -2.97859 527.796 368.502
-8.29616 -18.3546 -4.34788 539.673 368.22
-5.73277 -17.8335 -5.60334 551.051 370.799
3.10639 -18.5 -5.2801 591.558 370.536
5.94645 -19.4299 -4.08995 604.914 367.676
8.9109 -19.6732 -2.72477 618.643 368.042
11.7709 -18.8795 -1.35469 631.578 373.085
13.9708 -16.9495 0.412046 641.2 383.259
-1.5762 -12.0359 -5.08784 568.256 398.558
-1.48881 -9.07019 -7.643 567.458 410.931
-1.37262 -6.12745 -10.3411 566.782 423.146
-1.2105 -3.21058 -13.0235 566.326 435.265
-3.57941 0.169726 -6.0157 555.266 452.937
-2.28369 0.396152 -6.98898 560.992 453.926
-0.936983 0.396476 -8.01431 567.013 453.882
0.626221 0.132147 -7.0097 574.326 453.582
2.08519 -0.334681 -5.98066 581.23 452.343
-10.8872 -10.6457 -1.36223 525.824 403.72
-9.61982 -11.6554 -1.16412 531.93 399.601
-7.93753 -11.8447 -0.906774 539.68 399.352
-6.4941 -11.2659 -0.537808 546.118 402.566
-7.86378 -10.4843 -0.918435 539.596 405.541
-9.42551 -10.2507 -1.09488 532.39 406.061
5.14736 -12.2826 -0.765001 599.437 401.306
6.57429 -13.0306 -0.826665 606.161 398.309
8.29317 -12.9382 -0.861104 613.959 399.222
9.70198 -12.0939 -0.886225 620.114 403.46
8.23406 -11.5974 -0.861994 613.277 405.288
6.62529 -11.6149 -0.930561 605.946 404.701
-4.73846 10.5535 -2.77424 547.144 501.108
-3.50777 8.75331 -5.01186 553.058 492.335
-1.88471 7.07734 -6.61549 560.791 484.518
0.294 7.04606 -8.14908 570.556 484.357
2.55165 6.58623 -6.51894 581.162 483.646
4.60757 7.82217 -4.94203 590.321 490.547
6.44436 9.2044 -2.85531 598.492 498.267
5.06843 10.7249 -4.06205 591.623 504.234
3.31311 11.8353 -5.32192 583.145 508.205
1.1506 12.4665 -6.58709 572.96 509.879
-1.12916 12.4576 -5.36671 562.712 509.692
-3.14519 11.812 -4.25593 553.85 506.647
-0.947679 9.22622 -4.91875 564.584 495.28
0.547113 8.76442 -7.17978 571.287 492.648
2.25554 8.71972 -5.15322 579.307 493.83
2.29111 9.38242 -4.58154 579.327 497.095
0.721783 9.88983 -6.31524 571.831 498.18
-0.784722 9.8475 -4.48757 565.183 498.334
3 20 21 23
3 21 22 23
3 0 1 36
3 15 16 45
3 0 17 36
3 16 26 45
3 17 18 37
3 25 26 44
3 17 36 37
3 26 44 45
3 18 19 38
3 24 25 43
3 18 37 38
3 25 43 44
3 19 20 38
3 23 24 43
3 20 21 39
3 22 23 42
3 20 38 39
3 23 42 43
3 21 22 27
3 21 27 39
3 22 27 42
3 27 28 42
3 27 28 39
3 28 42 47
3 28 39 40
3 1 36 41
3 15 45 46
3 1 2 41
3 14 15 46
3 28 29 40
3 28 29 47
3 2 40 41
3 14 46 47
3 2 29 40
3 14 29 47
3 2 3 29
3 13 14 29
3 29 30 31
3 29 30 35
3 3 29 31
3 13 29 35
3 30 32 33
3 30 33 34
3 30 31 32
3 30 34 35
3 3 4 31
3 12 13 35
3 4 5 48
3 11 12 54
3 5 6 48
3 10 11 54
3 6 48 59
3 10 54 55
3 6 7 59
3 9 10 55
3 7 58 59
3 9 55 56
3 8 57 58
3 8 56 57
3 7 8 58
3 8 9 56
3 4 31 48
3 12 35 54
3 31 48 49
3 35 53 54
3 31 49 50
3 35 52 53
3 31 32 50
3 34 35 52
3 32 33 50
3 33 34 52
3 33 50 51
3 33 51 52
3 48 49 60
3 49 60 50
3 50 60 61
3 50 51 61
3 51 52 61
3 61 62 52
3 52 53 62
3 53 54 62
3 54 55 63
3 55 56 63
3 56 63 64
3 56 57 64
3 64 65 57
3 57 58 65
3 58 59 65
3 48 59 65
