ply
format ascii 1.0
element vertex 66
property float x
property float y
property float z
property float u
property float v
element face 91
property list uchar int vertex_indices
end_header
-19.7881 -5.91818 20.9692 488.131 430.884
-19.1732 -0.661017 20.487 489.016 453.57
-18.2137 4.54088 20.0703 491.433 476.16
-16.8336 9.6943 18.1861 495.507 497.838
-14.7843 14.6261 13.3398 502.184 517.082
-11.6621 18.9224 7.75217 513.655 533.486
-7.62112 22.3369 3.14641 529.557 546.912
-2.85137 24.5905 -0.863008 549.102 555.876
2.4055 24.897 -4.54919 571.458 556.742
7.07264 23.2851 -0.82262 592.852 553.324
10.7703 19.9821 3.40312 610.64 542.566
13.7873 16.0364 8.08852 625.729 529.073
15.9905 11.575 13.669 637.555 513.603
17.3547 6.74684 18.4243 645.731 495.815
18.1236 1.80786 20.4482 650.984 475.812
18.5012 -3.15758 20.8221 654.32 454.636
18.5934 -8.13739 21.2343 656.42 433.331
-15.8053 -15.2703 0.20712 505.857 379.826
-13.8945 -17.0863 -1.57995 514.56 371.54
-11.3584 -17.9764 -2.98557 525.737 367.673
-8.64749 -18.0684 -4.32374 537.423 367.356
-5.9837 -17.5113 -5.51777 548.708 369.917
3.58812 -18.1246 -5.36851 590.707 370.316
6.28702 -19.1134 -4.16759 602.972 367.552
9.13374 -19.4379 -2.7592 615.69 367.83
11.9038 -18.793 -1.34257 627.755 372.287
14.0599 -17.0169 0.413509 636.811 381.645
-1.20869 -11.5253 -5.02491 567.639 397.604
-1.18343 -8.57003 -7.72613 566.417 408.878
-1.13781 -5.62575 -10.4654 565.282 420.088
-1.05697 -2.70258 -13.074 564.326 431.292
-3.36839 0.204685 -5.9985 554.213 447.184
-2.05985 0.498244 -7.0269 559.692 448.278
-0.687054 0.571979 -8.09149 565.518 448.419
0.805013 0.278125 -7.0347 572.267 448.209
2.19204 -0.217759 -5.98514 578.624 447.087
-11.3716 -10.3455 -1.35288 523.377 401.646
-10.0309 -11.3815 -1.21441 529.589 397.653
-8.26579 -11.6531 -0.978257 537.414 397.159
-6.70793 -11.1008 -0.60293 544.081 400.248
-8.15629 -10.2597 -0.939177 537.437 403.25
-9.81066 -10.0189 -1.07528 530.119 403.702
5.72145 -12.1667 -0.885731 598.645 399.327
7.21125 -12.8509 -0.907454 605.37 396.813
8.98389 -12.7318 -0.904286 613.068 397.881
10.4233 -11.8485 -0.887907 619.062 402.162
8.89588 -11.3875 -0.857336 612.247 403.702
7.23183 -11.4315 -0.96982 604.984 402.932
-4.67513 9.87955 -2.76874 545.744 490.515
-3.41823 8.15382 -5.04915 551.498 482.136
-1.77136 6.64724 -6.65441 558.971 475.21
0.342085 6.70405 -8.16163 567.977 475.256
2.49148 6.21212 -6.47774 577.744 474.749
4.45447 7.31464 -4.88327 586.158 481.038
6.13844 8.70615 -2.75845 593.33 488.794
4.78698 10.1031 -3.96335 586.811 493.74
3.09927 11.0978 -5.22388 578.95 496.809
1.06398 11.6808 -6.67586 569.682 497.878
-1.08576 11.6311 -5.33281 560.493 497.758
-3.06088 11.0705 -4.13865 552.216 495.396
-0.790033 8.67016 -4.98298 562.807 485.225
0.584497 8.41573 -7.09609 568.612 483.35
2.09883 8.2644 -5.07336 575.538 484.313
2.11929 8.68583 -4.44987 575.571 486.498
0.719295 9.17289 -6.20119 569.068 487.179
-0.666524 9.08619 -4.48732 563.275 487.347
3 20 21 23
3 21 22 23
3 0 1 36
3 15 16 45
3 0 17 36
3 16 26 45
3 17 18 37
3 25 26 44
3 17 36 37
3 26 44 45
3 18 19 38
3 24 25 43
3 18 37 38
3 25 43 44
3 19 20 38
3 23 24 43
3 20 21 39
3 22 23 42
3 20 38 39
3 23 42 43
3 21 22 27
3 21 27 39
3 22 27 42
3 27 28 42
3 27 28 39
3 28 42 47
3 28 39 40
3 1 36 41
3 15 45 46
3 1 2 41
3 14 15 46
3 28 29 40
3 28 29 47
3 2 40 41
3 14 46 47
3 2 29 40
3 14 29 47
3 2 3 29
3 13 14 29
3 29 30 31
3 29 30 35
3 3 29 31
3 13 29 35
3 30 32 33
3 30 33 34
3 30 31 32
3 30 34 35
3 3 4 31
3 12 13 35
3 4 5 48
3 11 12 54
3 5 6 48
3 10 11 54
3 6 48 59
3 10 54 55
3 6 7 59
3 9 10 55
3 7 58 59
3 9 55 56
3 8 57 58
3 8 56 57
3 7 8 58
3 8 9 56
3 4 31 48
3 12 35 54
3 31 48 49
3 35 53 54
3 31 49 50
3 35 52 53
3 31 32 50
3 34 35 52
3 32 33 50
3 33 34 52
3 33 50 51
3 33 51 52
3 48 49 60
3 49 60 50
3 50 60 61
3 50 51 61
3 51 52 61
3 61 62 52
3 52 53 62
3 53 54 62
3 54 55 63
3 55 56 63
3 56 63 64
3 56 57 64
3 64 65 57
3 57 58 65
3 58 59 65
3 48 59 65
