ply
format ascii 1.0
element vertex 66
property float x
property float y
property float z
property float u
property float v
element face 91
property list uchar int vertex_indices
end_header
-20.171 -5.58849 20.8616 484.824 430.322
-19.7093 -0.515722 20.4235 484.761 452.605
-18.839 4.50252 20.1466 486.539 474.887
-17.433 9.34785 18.1242 490.613 495.794
-15.1581 13.8376 13.394 498.453 514.199
-11.7633 17.6996 7.89696 511.437 529.926
-7.48712 20.7107 3.25408 528.735 542.665
-2.56502 22.6962 -0.7792 549.357 551.439
2.81758 22.7452 -4.30666 572.846 552.12
7.37067 21.5498 -0.935482 593.739 550.267
11.1767 18.9639 3.36632 611.973 542.444
14.4547 15.8057 8.16978 628.146 532.133
16.7569 11.9362 13.8055 640.363 518.7
17.942 7.39655 18.6108 647.847 501.484
18.5214 2.44574 20.7943 652.607 480.977
18.8349 -2.67316 21.1703 656.112 458.77
18.9533 -7.78573 21.6769 658.761 436.574
-15.9975 -15.3606 0.240998 505.575 379.237
-13.9471 -17.0615 -1.48362 515.193 371.754
-11.3779 -17.8277 -2.97057 526.742 368.7
-8.70514 -17.9336 -4.34592 538.49 368.644
-6.11695 -17.4511 -5.6182 549.632 371.19
3.16153 -18.1309 -5.27186 590.959 372.047
6.14992 -19.1948 -4.04633 604.705 369.136
9.29387 -19.5675 -2.64633 618.872 369.408
12.39 -18.8901 -1.23879 632.399 374.282
14.8638 -16.9586 0.429976 642.685 384.548
-1.70981 -11.641 -5.10057 566.789 398.734
-1.61718 -8.55681 -7.68801 565.729 411.108
-1.49002 -5.50749 -10.4901 564.818 423.24
-1.30963 -2.47993 -13.2545 564.155 435.316
-3.81968 0.80301 -6.16959 552.298 452.113
-2.47254 1.05397 -7.15306 558.071 453.285
-1.07341 1.0474 -8.13648 564.179 453.346
0.615831 0.756325 -7.20495 571.843 453.177
2.20611 0.232845 -6.16263 579.172 452
-11.7769 -10.2165 -1.16839 522.022 402.866
-10.2324 -11.5698 -1.12612 529.405 397.548
-8.14389 -11.6871 -1.03759 538.694 397.903
-6.45109 -10.6534 -0.673922 545.786 403.293
-8.14318 -9.82691 -0.995436 537.942 406.103
-10.0374 -9.59672 -1.12203 529.463 406.304
5.52636 -11.8323 -0.927329 599.201 402.742
7.15128 -13.1111 -0.929847 606.906 397.762
9.28259 -13.1171 -0.749348 616.346 398.667
11.047 -12.0052 -0.599899 623.706 404.328
9.32054 -11.24 -0.842322 615.741 406.893
7.36165 -11.1691 -1.00374 607.038 406.351
-5.52028 10.1014 -2.80143 541.263 493.923
-3.85581 8.53898 -5.00613 549.078 486.668
-1.96689 7.17508 -6.65924 557.851 480.637
0.262649 7.17052 -8.24643 567.58 480.75
2.59069 6.65848 -6.58738 578.217 480.208
4.91099 7.54532 -4.9531 588.247 485.803
7.23169 8.57182 -2.92141 598.255 492.201
5.50119 10.0974 -4.11727 589.884 497.656
3.40204 11.1239 -5.36136 580.083 500.747
1.04931 11.6801 -6.54153 569.358 501.7
-1.37988 11.8116 -5.36925 558.661 501.87
-3.68363 11.3309 -4.23511 548.764 499.379
-1.41325 9.18084 -5.0477 559.612 490.44
0.49658 8.8196 -7.34533 568.015 488.522
2.63418 8.57061 -5.40257 577.726 489.195
2.66149 8.76719 -4.70616 577.824 490.401
0.594152 9.13801 -6.37584 568.396 490.42
-1.36136 9.33745 -4.50955 559.822 491.405
3 20 21 23
3 21 22 23
3 0 1 36
3 15 16 45
3 0 17 36
3 16 26 45
3 17 18 37
3 25 26 44
3 17 36 37
3 26 44 45
3 18 19 38
3 24 25 43
3 18 37 38
3 25 43 44
3 19 20 38
3 23 24 43
3 20 21 39
3 22 23 42
3 20 38 39
3 23 42 43
3 21 22 27
3 21 27 39
3 22 27 42
3 27 28 42
3 27 28 39
3 28 42 47
3 28 39 40
3 1 36 41
3 15 45 46
3 1 2 41
3 14 15 46
3 28 29 40
3 28 29 47
3 2 40 41
3 14 46 47
3 2 29 40
3 14 29 47
3 2 3 29
3 13 14 29
3 29 30 31
3 29 30 35
3 3 29 31
3 13 29 35
3 30 32 33
3 30 33 34
3 30 31 32
3 30 34 35
3 3 4 31
3 12 13 35
3 4 5 48
3 11 12 54
3 5 6 48
3 10 11 54
3 6 48 59
3 10 54 55
3 6 7 59
3 9 10 55
3 7 58 59
3 9 55 56
3 8 57 58
3 8 56 57
3 7 8 58
3 8 9 56
3 4 31 48
3 12 35 54
3 31 48 49
3 35 53 54
3 31 49 50
3 35 52 53
3 31 32 50
3 34 35 52
3 32 33 50
3 33 34 52
3 33 50 51
3 33 51 52
3 48 49 60
3 49 60 50
3 50 60 61
3 50 51 61
3 51 52 61
3 61 62 52
3 52 53 62
3 53 54 62
3 54 55 63
3 55 56 63
3 56 63 64
3 56 57 64
3 64 65 57
3 57 58 65
3 58 59 65
3 48 59 65
