ply
format ascii 1.0
element vertex 66
property float x
property float y
property float z
property float u
property float v
element face 91
property list uchar int vertex_indices
end_header
-19.7746 -5.80109 20.8558 490.507 425.311
-19.2516 -0.61805 20.4318 490.971 447.272
-18.3326 4.50324 20.0748 493.159 469.137
-16.8749 9.49672 18.1382 497.567 489.718
-14.6586 14.1895 13.4044 505.089 507.648
-11.459 18.2924 7.84125 516.957 522.907
-7.41414 21.6063 3.17232 532.791 535.6
-2.67674 23.8864 -0.80274 552.003 544.522
2.60713 24.1473 -4.47648 574.264 545.208
7.23445 22.6784 -0.814674 594.918 542.568
10.9176 19.578 3.36408 612.115 532.987
13.9448 15.876 8.15177 626.754 520.989
16.1029 11.6188 13.7773 637.923 506.834
17.3949 6.90805 18.4835 645.452 489.941
18.1044 1.95678 20.5219 650.334 470.296
18.4157 -3.08652 20.8748 653.396 449.156
18.4492 -8.13214 21.3249 655.275 427.974
-15.6486 -15.3285 0.202088 509.641 374.189
-13.8027 -17.122 -1.52004 518.013 366.162
-11.3396 -17.9952 -2.96554 528.747 362.406
-8.71927 -18.1088 -4.34505 539.907 361.969
-6.15701 -17.6119 -5.60151 550.622 364.18
3.6032 -18.2587 -5.39063 592.719 364.694
6.33742 -19.2004 -4.15047 604.869 362.287
9.20737 -19.4859 -2.72542 617.397 362.82
11.9949 -18.7628 -1.30712 629.231 367.612
14.1288 -16.882 0.386679 637.896 377.275
-1.35601 -11.756 -5.04724 569.291 390.945
-1.30492 -9.03727 -7.65844 568.373 401.012
-1.22929 -6.33676 -10.3633 567.557 410.955
-1.11481 -3.65996 -13.0365 566.919 420.828
-3.42528 -0.000604183 -6.00442 556.381 439.708
-2.13293 0.178382 -7.00633 561.778 440.306
-0.803287 0.173547 -8.05172 567.393 440.109
0.703724 -0.056174 -7.02268 574.022 440.212
2.13656 -0.449891 -5.94987 580.392 439.62
-11.486 -10.2493 -1.31974 525.656 396.246
-10.0443 -11.3127 -1.15237 532.211 392.285
-8.17113 -11.5583 -0.945831 540.345 391.963
-6.53703 -11.002 -0.630058 547.194 395.037
-8.07897 -10.1259 -0.976336 540.256 398.065
-9.84202 -9.8546 -1.09461 532.593 398.583
5.52511 -12.0479 -0.885813 599.259 394.324
7.12358 -12.778 -0.8507 606.364 391.755
9.025 -12.6637 -0.842063 614.481 392.858
10.5905 -11.7772 -0.875844 620.895 397.111
8.96044 -11.2555 -0.88839 613.727 398.798
7.16424 -11.2952 -1.01653 606.025 397.977
-4.60844 10.2051 -2.78482 548.149 484.583
-3.39586 8.43433 -4.99575 553.757 476.165
-1.81169 6.81736 -6.62874 560.955 468.856
0.277583 6.83133 -8.18522 569.778 468.688
2.42721 6.38696 -6.51742 579.29 468.455
4.37974 7.62505 -4.8941 587.387 475.286
6.1007 9.03891 -2.83705 594.469 483.041
4.82798 10.6034 -4.07945 588.378 488.565
3.1518 11.7531 -5.4019 580.689 492.149
1.03919 12.376 -6.75943 571.302 493.333
-1.18367 12.3059 -5.46286 561.903 493.069
-3.12335 11.5699 -4.24037 553.935 490.022
-1.0991 8.94976 -4.93651 563.439 479.131
0.503158 8.56998 -7.17502 570.247 476.737
2.279 8.49711 -5.10559 578.066 478.195
2.32356 9.19261 -4.52123 578.073 481.505
0.659973 9.74149 -6.27761 570.603 482.288
-0.979655 9.62299 -4.48403 563.764 482.293
3 20 21 23
3 21 22 23
3 0 1 36
3 15 16 45
3 0 17 36
3 16 26 45
3 17 18 37
3 25 26 44
3 17 36 37
3 26 44 45
3 18 19 38
3 24 25 43
3 18 37 38
3 25 43 44
3 19 20 38
3 23 24 43
3 20 21 39
3 22 23 42
3 20 38 39
3 23 42 43
3 21 22 27
3 21 27 39
3 22 27 42
3 27 28 42
3 27 28 39
3 28 42 47
3 28 39 40
3 1 36 41
3 15 45 46
3 1 2 41
3 14 15 46
3 28 29 40
3 28 29 47
3 2 40 41
3 14 46 47
3 2 29 40
3 14 29 47
3 2 3 29
3 13 14 29
3 29 30 31
3 29 30 35
3 3 29 31
3 13 29 35
3 30 32 33
3 30 33 34
3 30 31 32
3 30 34 35
3 3 4 31
3 12 13 35
3 4 5 48
3 11 12 54
3 5 6 48
3 10 11 54
3 6 48 59
3 10 54 55
3 6 7 59
3 9 10 55
3 7 58 59
3 9 55 56
3 8 57 58
3 8 56 57
3 7 8 58
3 8 9 56
3 4 31 48
3 12 35 54
3 31 48 49
3 35 53 54
3 31 49 50
3 35 52 53
3 31 32 50
3 34 35 52
3 32 33 50
3 33 34 52
3 33 50 51
3 33 51 52
3 48 49 60
3 49 60 50
3 50 60 61
3 50 51 61
3 51 52 61
3 61 62 52
3 52 53 62
3 53 54 62
3 54 55 63
3 55 56 63
3 56 63 64
3 56 57 64
3 64 65 57
3 57 58 65
3 58 59 65
3 48 59 65
