ply
format ascii 1.0
element vertex 66
property float x
property float y
property float z
property float u
property float v
element face 91
property list uchar int vertex_indices
end_header
-20.0455 -6.1062 20.6637 483.842 431.792
-19.5577 -0.877005 20.2809 484.685 455.027
-18.6011 4.27305 19.8732 487.635 478.013
-16.9406 9.32004 18.1383 493.594 500.26
-14.468 14.0596 13.2031 502.881 520.255
-11.1058 18.2594 7.76887 516.209 537.893
-7.00943 21.7549 3.20961 533.082 552.868
-2.26036 24.2694 -0.781293 553.17 563.828
3.10238 24.6213 -4.40256 576.568 565.443
7.62185 23.0298 -0.757748 597.519 560.665
11.143 19.8187 3.41855 614.48 548.628
14.0107 16.0332 8.07616 628.726 534.046
16.1271 11.7771 13.5284 639.83 517.461
17.4799 7.11594 18.5118 647.577 498.736
18.245 2.22072 20.2501 652.391 477.74
18.5513 -2.70657 20.6174 655.01 456.03
18.5815 -7.62643 21.1058 656.411 434.328
-15.4699 -16.1893 0.29713 504.379 381.191
-13.5826 -17.9876 -1.53075 513.022 373.027
-11.0719 -18.8624 -2.94581 524.264 369.256
-8.38831 -18.9196 -4.26863 536.087 369.192
-5.785 -18.2784 -5.46267 547.394 372.257
3.31734 -18.9144 -5.1206 588.155 371.7
6.16907 -19.8233 -4.02242 601.213 368.704
9.13593 -19.9923 -2.7411 614.624 369.086
11.932 -18.9833 -1.43628 626.986 374.674
13.9087 -16.7795 0.536116 635.479 385.603
-1.51554 -11.8795 -5.00842 564.899 401.869
-1.43149 -8.92222 -7.66649 564.241 414.142
-1.32051 -5.97268 -10.346 563.703 426.379
-1.16318 -3.04749 -12.9351 563.387 438.549
-3.47465 0.411745 -6.11534 553.017 455.677
-2.19539 0.638716 -6.98485 558.562 456.697
-0.865794 0.641994 -7.94253 564.377 456.704
0.66095 0.3931 -6.95636 571.356 456.291
2.06435 -0.0564679 -6.01655 577.828 454.941
-10.5229 -10.7008 -1.4484 524.875 406.175
-9.28175 -11.8634 -1.25522 530.714 401.365
-7.52286 -12.0281 -0.925443 538.631 401.161
-6.07743 -11.2095 -0.350952 544.938 405.336
-7.44273 -10.239 -0.85592 538.556 409.157
-9.04923 -10.0462 -1.08147 531.323 409.558
4.49037 -12.003 -0.591748 592.201 404.229
5.89341 -12.9364 -0.869551 598.652 400.318
7.66985 -12.8643 -0.99774 606.536 401.016
9.03856 -11.8269 -1.01966 612.378 405.945
7.59307 -11.111 -0.880642 605.776 408.832
5.96198 -11.1248 -0.89094 598.509 408.381
-3.9122 10.4643 -2.67666 548.988 501.424
-2.97656 8.72403 -5.08786 553.309 493.096
-1.64315 7.04835 -6.69518 559.48 485.421
0.290092 7.09577 -8.16844 567.915 485.594
2.3051 6.60881 -6.55686 577.199 484.448
4.06586 7.88746 -4.99364 584.911 491.076
5.57928 9.28322 -2.74227 591.571 498.398
4.49719 10.6801 -3.95236 586.266 503.945
3.05203 11.7278 -5.34073 579.408 507.793
1.17823 12.3546 -6.70719 570.747 509.676
-0.833588 12.2891 -5.4416 561.942 509.335
-2.56126 11.6323 -4.24729 554.541 506.408
-0.33726 9.22913 -4.88579 564.971 496.035
0.563383 8.84231 -7.02661 568.834 493.808
1.6843 8.83232 -5.03364 574.06 494.7
1.71554 9.24544 -4.50629 574.159 496.721
0.744221 9.69975 -6.31161 569.511 497.903
-0.155003 9.59461 -4.4957 565.738 497.834
3 20 21 23
3 21 22 23
3 0 1 36
3 15 16 45
3 0 17 36
3 16 26 45
3 17 18 37
3 25 26 44
3 17 36 37
3 26 44 45
3 18 19 38
3 24 25 43
3 18 37 38
3 25 43 44
3 19 20 38
3 23 24 43
3 20 21 39
3 22 23 42
3 20 38 39
3 23 42 43
3 21 22 27
3 21 27 39
3 22 27 42
3 27 28 42
3 27 28 39
3 28 42 47
3 28 39 40
3 1 36 41
3 15 45 46
3 1 2 41
3 14 15 46
3 28 29 40
3 28 29 47
3 2 40 41
3 14 46 47
3 2 29 40
3 14 29 47
3 2 3 29
3 13 14 29
3 29 30 31
3 29 30 35
3 3 29 31
3 13 29 35
3 30 32 33
3 30 33 34
3 30 31 32
3 30 34 35
3 3 4 31
3 12 13 35
3 4 5 48
3 11 12 54
3 5 6 48
3 10 11 54
3 6 48 59
3 10 54 55
3 6 7 59
3 9 10 55
3 7 58 59
3 9 55 56
3 8 57 58
3 8 56 57
3 7 8 58
3 8 9 56
3 4 31 48
3 12 35 54
3 31 48 49
3 35 53 54
3 31 49 50
3 35 52 53
3 31 32 50
3 34 35 52
3 32 33 50
3 33 34 52
3 33 50 51
3 33 51 52
3 48 49 60
3 49 60 50
3 50 60 61
3 50 51 61
3 51 52 61
3 61 62 52
3 52 53 62
3 53 54 62
3 54 55 63
3 55 56 63
3 56 63 64
3 56 57 64
3 64 65 57
3 57 58 65
3 58 59 65
3 48 59 65
