ply
format ascii 1.0
element vertex 66
property float x
property float y
property float z
property float u
property float v
element face 91
property list uchar int vertex_indices
end_header
-19.9182 -5.76142 20.9276 486.016 433.496
-19.4284 -0.70811 20.4454 486.443 455.726
-18.5645 4.29204 20.1331 488.568 477.919
-17.21 9.19128 18.0701 492.675 499.017
-15.0509 13.8539 13.4518 500.098 518.153
-11.781 17.8857 7.8569 512.53 534.41
-7.61424 21.0362 3.16915 529.348 547.481
-2.8136 23.1809 -0.832799 549.399 556.631
2.44976 23.4424 -4.41831 572.182 557.81
7.04449 22.1636 -0.932952 593.426 555.231
10.8695 19.3895 3.32623 611.855 546.165
14.1557 16.0164 8.10542 628.162 534.524
16.542 11.9595 13.7571 640.82 519.981
17.8338 7.27116 18.5012 648.72 501.887
18.4595 2.30002 20.7191 653.434 481.172
18.7784 -2.76704 21.1217 656.587 459.102
18.8848 -7.83749 21.5841 658.806 436.977
-15.8303 -15.5676 0.220591 504.731 382.013
-13.8069 -17.1735 -1.4598 514.019 374.799
-11.2916 -17.9109 -2.94966 525.223 371.66
-8.66425 -18.0002 -4.32122 536.723 371.472
-6.10994 -17.4912 -5.57631 547.715 373.953
3.13934 -18.1939 -5.28189 588.989 373.929
6.05479 -19.2168 -4.07795 602.409 370.896
9.11497 -19.5454 -2.70105 616.262 371.052
12.1035 -18.8454 -1.27526 629.461 375.746
14.468 -16.9689 0.436631 639.539 385.564
-1.58175 -11.3906 -5.07726 565.822 402.538
-1.47566 -8.45822 -7.67113 564.981 414.318
-1.34338 -5.55432 -10.4602 564.241 425.89
-1.16607 -2.6769 -13.2339 563.711 437.367
-3.73099 0.549999 -6.07078 552.191 454.082
-2.31403 0.806945 -7.10999 558.252 455.188
-0.852031 0.820726 -8.15823 564.594 455.232
0.819022 0.50733 -7.16522 572.234 454.837
2.3962 -0.0342717 -6.17368 579.534 453.405
-11.7201 -10.0362 -1.15857 520.933 407.092
-10.3075 -11.177 -1.11089 527.581 402.529
-8.43865 -11.3554 -1.03345 535.935 402.372
-6.84135 -10.6419 -0.766221 542.813 406.15
-8.37521 -9.85902 -1.01706 535.72 409.002
-10.0973 -9.6257 -1.10921 527.996 409.441
5.51705 -11.7756 -0.933686 597.953 405.001
7.05892 -12.7244 -0.993744 605.097 401.278
8.96253 -12.6983 -0.823036 613.549 402.077
10.568 -11.7974 -0.652227 620.388 406.64
8.95961 -11.2165 -0.835635 613.041 408.608
7.18135 -11.1805 -0.957587 605.13 408.145
-5.8623 9.85792 -2.80494 540.065 495.972
-4.08063 8.24669 -4.97586 548.22 488.432
-2.01405 6.87226 -6.60832 557.628 482.275
0.420368 6.85737 -8.18689 568.221 482.258
2.92312 6.32645 -6.51137 579.708 481.481
5.38338 7.17564 -4.89705 590.54 486.752
7.74886 8.24811 -2.82736 600.936 493.188
5.99091 10.0387 -4.08823 592.385 499.949
3.76134 11.2712 -5.29559 581.935 504.123
1.20426 11.9136 -6.54761 570.224 505.569
-1.42664 11.9599 -5.33328 558.702 505.495
-3.89611 11.3101 -4.21098 548.116 502.359
-1.57408 8.89782 -5.03851 559.106 492.073
0.665437 8.57535 -7.33784 568.845 490.306
3.07849 8.26505 -5.32806 579.904 490.628
3.17144 8.85251 -4.66193 580.207 493.555
0.792989 9.39092 -6.32853 569.269 494.409
-1.51556 9.46304 -4.50468 559.246 494.831
3 20 21 23
3 21 22 23
3 0 1 36
3 15 16 45
3 0 17 36
3 16 26 45
3 17 18 37
3 25 26 44
3 17 36 37
3 26 44 45
3 18 19 38
3 24 25 43
3 18 37 38
3 25 43 44
3 19 20 38
3 23 24 43
3 20 21 39
3 22 23 42
3 20 38 39
3 23 42 43
3 21 22 27
3 21 27 39
3 22 27 42
3 27 28 42
3 27 28 39
3 28 42 47
3 28 39 40
3 1 36 41
3 15 45 46
3 1 2 41
3 14 15 46
3 28 29 40
3 28 29 47
3 2 40 41
3 14 46 47
3 2 29 40
3 14 29 47
3 2 3 29
3 13 14 29
3 29 30 31
3 29 30 35
3 3 29 31
3 13 29 35
3 30 32 33
3 30 33 34
3 30 31 32
3 30 34 35
3 3 4 31
3 12 13 35
3 4 5 48
3 11 12 54
3 5 6 48
3 10 11 54
3 6 48 59
3 10 54 55
3 6 7 59
3 9 10 55
3 7 58 59
3 9 55 56
3 8 57 58
3 8 56 57
3 7 8 58
3 8 9 56
3 4 31 48
3 12 35 54
3 31 48 49
3 35 53 54
3 31 49 50
3 35 52 53
3 31 32 50
3 34 35 52
3 32 33 50
3 33 34 52
3 33 50 51
3 33 51 52
3 48 49 60
3 49 60 50
3 50 60 61
3 50 51 61
3 51 52 61
3 61 62 52
3 52 53 62
3 53 54 62
3 54 55 63
3 55 56 63
3 56 63 64
3 56 57 64
3 64 65 57
3 57 58 65
3 58 59 65
3 48 59 65
