ply
format ascii 1.0
element vertex 66
property float x
property float y
property float z
property float u
property float v
element face 91
property list uchar int vertex_indices
end_header
-20.0041 -5.63982 20.859 484.129 433.336
-19.4393 -0.550727 20.3738 485.073 455.83
-18.4521 4.47091 20.0497 487.933 478.208
-16.9314 9.36255 18.0883 492.994 499.526
-14.6182 13.9581 13.3696 501.313 518.685
-11.3297 17.9819 7.81536 514.027 535.265
-7.23475 21.2405 3.1659 530.661 549.039
-2.46781 23.4716 -0.840854 550.664 558.705
2.82166 23.6904 -4.37883 573.639 559.796
7.32536 22.2626 -0.879492 594.5 556.113
10.9493 19.3134 3.36186 611.996 545.736
13.9656 15.7849 8.13122 627.033 532.828
16.1512 11.7016 13.7442 638.651 517.558
17.4467 7.11065 18.5221 646.361 499.464
18.1646 2.23359 20.5743 651.247 478.88
18.5697 -2.74824 20.9231 654.56 457.082
18.7309 -7.73018 21.4626 656.815 435.289
-15.7734 -15.8067 0.227858 503.313 381.516
-13.758 -17.4642 -1.44633 512.54 374.1
-11.2146 -18.2097 -2.91061 523.869 370.951
-8.5593 -18.2585 -4.29968 535.498 370.947
-5.98886 -17.6838 -5.57795 546.581 373.722
3.39392 -18.3912 -5.27803 588.489 373.364
6.27067 -19.388 -4.06592 601.71 370.239
9.28743 -19.6903 -2.67109 615.37 370.298
12.2163 -18.9245 -1.27995 628.325 375.057
14.4671 -16.9588 0.438434 637.955 385.062
-1.55304 -11.4582 -5.01145 564.511 402.751
-1.47961 -8.52889 -7.66117 563.638 414.706
-1.37853 -5.62282 -10.4366 562.879 426.517
-1.23133 -2.73984 -13.1471 562.339 438.264
-3.69615 0.595187 -6.11033 551.298 455.062
-2.34783 0.888508 -7.0999 557.073 456.358
-0.940826 0.923269 -8.09805 563.185 456.522
0.683548 0.616866 -7.1299 570.61 456.002
2.19358 0.0768114 -6.09176 577.605 454.443
-11.8633 -10.3559 -1.20676 518.885 406.189
-10.4049 -11.5037 -1.08908 525.715 401.568
-8.4812 -11.7029 -0.949268 534.332 401.286
-6.85581 -10.9804 -0.683199 541.37 405.047
-8.43123 -10.1506 -0.986212 534.091 408.155
-10.2122 -9.90984 -1.08318 526.1 408.679
5.62991 -12.0736 -0.939997 597.1 403.645
7.21646 -12.9844 -0.879351 604.421 400.087
9.17264 -12.9052 -0.779218 613.096 401.03
10.7848 -11.9485 -0.71549 619.98 405.746
9.1377 -11.3837 -0.846609 612.484 407.728
7.31357 -11.3825 -1.01022 604.363 407.153
-4.74627 10.1472 -2.79048 544.234 498.331
-3.40746 8.54113 -5.01942 550.372 490.735
-1.7659 7.10952 -6.64533 557.878 484.232
0.288053 7.1412 -8.24318 566.787 484.333
2.4185 6.63486 -6.54767 576.61 483.354
4.46425 7.62358 -4.94336 585.605 488.933
6.38812 8.7889 -2.85953 594.066 495.446
4.98479 10.3067 -4.04771 587.237 501.304
3.20735 11.3822 -5.31492 578.867 505.067
1.10135 11.9938 -6.60783 569.172 506.675
-1.115 12.0033 -5.36954 559.485 506.571
-3.14651 11.4066 -4.24725 550.782 503.791
-0.982121 9.15358 -4.98758 560.964 494.145
0.538923 8.84507 -7.28545 567.519 492.317
2.2599 8.64099 -5.23331 575.48 492.699
2.29053 8.90873 -4.59472 575.617 494.141
0.665736 9.37772 -6.28284 568.052 495.1
-0.884586 9.38736 -4.50362 561.389 495.396
3 20 21 23
3 21 22 23
3 0 1 36
3 15 16 45
3 0 17 36
3 16 26 45
3 17 18 37
3 25 26 44
3 17 36 37
3 26 44 45
3 18 19 38
3 24 25 43
3 18 37 38
3 25 43 44
3 19 20 38
3 23 24 43
3 20 21 39
3 22 23 42
3 20 38 39
3 23 42 43
3 21 22 27
3 21 27 39
3 22 27 42
3 27 28 42
3 27 28 39
3 28 42 47
3 28 39 40
3 1 36 41
3 15 45 46
3 1 2 41
3 14 15 46
3 28 29 40
3 28 29 47
3 2 40 41
3 14 46 47
3 2 29 40
3 14 29 47
3 2 3 29
3 13 14 29
3 29 30 31
3 29 30 35
3 3 29 31
3 13 29 35
3 30 32 33
3 30 33 34
3 30 31 32
3 30 34 35
3 3 4 31
3 12 13 35
3 4 5 48
3 11 12 54
3 5 6 48
3 10 11 54
3 6 48 59
3 10 54 55
3 6 7 59
3 9 10 55
3 7 58 59
3 9 55 56
3 8 57 58
3 8 56 57
3 7 8 58
3 8 9 56
3 4 31 48
3 12 35 54
3 31 48 49
3 35 53 54
3 31 49 50
3 35 52 53
3 31 32 50
3 34 35 52
3 32 33 50
3 33 34 52
3 33 50 51
3 33 51 52
3 48 49 60
3 49 60 50
3 50 60 61
3 50 51 61
3 51 52 61
3 61 62 52
3 52 53 62
3 53 54 62
3 54 55 63
3 55 56 63
3 56 63 64
3 56 57 64
3 64 65 57
3 57 58 65
3 58 59 65
3 48 59 65
