ply
format ascii 1.0
element vertex 66
property float x
property float y
property float z
property float u
property float v
element face 91
property list uchar int vertex_indices
end_header
-20.001 -5.58906 20.8291 484.677 430.509
-19.5119 -0.502842 20.351 484.787 453.214
-18.6108 4.53157 20.087 486.782 475.939
-17.1805 9.38195 18.139 491.084 497.353
-14.9138 13.8545 13.4004 499.056 516.254
-11.595 17.7428 7.91244 511.917 532.649
-7.42295 20.8499 3.24491 528.984 546.229
-2.57135 22.9316 -0.781579 549.563 555.764
2.79383 23.0038 -4.29727 573.294 556.738
7.33696 21.7586 -0.938445 594.439 554.35
11.0491 19.0385 3.35589 612.528 545.437
14.2083 15.7729 8.17869 628.401 534.09
16.4586 11.8851 13.7948 640.517 519.936
17.691 7.38622 18.5908 648.246 502.315
18.3257 2.4641 20.7114 653.244 481.463
18.6724 -2.63676 21.0686 656.877 458.97
18.807 -7.731 21.6011 659.571 436.495
-15.9061 -15.3208 0.224285 505.235 380.138
-13.889 -17.026 -1.49504 514.82 372.604
-11.3516 -17.8136 -2.97302 526.389 369.472
-8.70523 -17.9381 -4.35776 538.187 369.382
-6.13647 -17.4783 -5.6347 549.412 371.915
3.22049 -18.1641 -5.29131 591.662 372.668
6.15031 -19.2031 -4.05425 605.315 369.69
9.23418 -19.5636 -2.63747 619.402 369.876
12.2741 -18.9002 -1.22956 632.88 374.614
14.7108 -17.0116 0.424049 643.181 384.688
-1.67944 -11.7672 -5.0845 567.144 399.394
-1.59526 -8.67357 -7.69814 566.062 412.16
-1.47688 -5.61244 -10.4848 565.132 424.722
-1.30633 -2.56998 -13.2011 564.449 437.251
-3.85598 0.725235 -6.16517 552.279 453.875
-2.4857 1.00756 -7.14297 558.227 455.269
-1.05273 1.01129 -8.10815 564.569 455.449
0.658382 0.710731 -7.19067 572.437 455.158
2.25741 0.15723 -6.15658 579.913 453.742
-11.7094 -10.3658 -1.20325 521.94 403.32
-10.1704 -11.5997 -1.1039 529.343 398.456
-8.14935 -11.7475 -0.980824 538.472 398.64
-6.46957 -10.8753 -0.676558 545.677 403.32
-8.13991 -10.1136 -0.99195 537.857 405.935
-9.99229 -9.87226 -1.12236 529.446 406.232
5.5465 -12.064 -0.928509 600 402.624
7.17272 -13.1774 -0.864077 607.743 398.317
9.23767 -13.154 -0.716327 617.002 399.293
10.9771 -12.1575 -0.625716 624.407 404.463
9.26103 -11.5136 -0.835554 616.438 406.578
7.34572 -11.4608 -0.994156 607.818 405.996
-5.24863 10.098 -2.78556 542.551 496.578
-3.69927 8.52025 -4.99075 549.947 489.229
-1.88972 7.15309 -6.64309 558.471 483.151
0.267546 7.14884 -8.26256 568.01 483.309
2.51809 6.64819 -6.56253 578.44 482.66
4.74848 7.5495 -4.92982 588.212 488.235
6.9372 8.61726 -2.90211 597.763 494.701
5.37328 10.2573 -4.11874 589.992 500.907
3.39572 11.4125 -5.36292 580.56 504.775
1.0748 12.0122 -6.57544 569.815 506.04
-1.33127 12.0921 -5.37332 559.096 505.95
-3.54392 11.4677 -4.23055 549.523 502.766
-1.30743 9.19805 -5.01502 560.395 493.184
0.505479 8.82058 -7.33185 568.482 491.252
2.5409 8.60706 -5.35292 577.856 491.916
2.58301 8.93121 -4.67564 577.971 493.66
0.619617 9.36897 -6.34215 568.855 494.155
-1.24928 9.48732 -4.49274 560.583 494.715
3 20 21 23
3 21 22 23
3 0 1 36
3 15 16 45
3 0 17 36
3 16 26 45
3 17 18 37
3 25 26 44
3 17 36 37
3 26 44 45
3 18 19 38
3 24 25 43
3 18 37 38
3 25 43 44
3 19 20 38
3 23 24 43
3 20 21 39
3 22 23 42
3 20 38 39
3 23 42 43
3 21 22 27
3 21 27 39
3 22 27 42
3 27 28 42
3 27 28 39
3 28 42 47
3 28 39 40
3 1 36 41
3 15 45 46
3 1 2 41
3 14 15 46
3 28 29 40
3 28 29 47
3 2 40 41
3 14 46 47
3 2 29 40
3 14 29 47
3 2 3 29
3 13 14 29
3 29 30 31
3 29 30 35
3 3 29 31
3 13 29 35
3 30 32 33
3 30 33 34
3 30 31 32
3 30 34 35
3 3 4 31
3 12 13 35
3 4 5 48
3 11 12 54
3 5 6 48
3 10 11 54
3 6 48 59
3 10 54 55
3 6 7 59
3 9 10 55
3 7 58 59
3 9 55 56
3 8 57 58
3 8 56 57
3 7 8 58
3 8 9 56
3 4 31 48
3 12 35 54
3 31 48 49
3 35 53 54
3 31 49 50
3 35 52 53
3 31 32 50
3 34 35 52
3 32 33 50
3 33 34 52
3 33 50 51
3 33 51 52
3 48 49 60
3 49 60 50
3 50 60 61
3 50 51 61
3 51 52 61
3 61 62 52
3 52 53 62
3 53 54 62
3 54 55 63
3 55 56 63
3 56 63 64
3 56 57 64
3 64 65 57
3 57 58 65
3 58 59 65
3 48 59 65
