ply
format ascii 1.0
element vertex 66
property float x
property float y
property float z
property float u
property float v
element face 91
property list uchar int vertex_indices
end_header
-20.0497 -5.66968 20.8519 484.417 432.569
-19.5608 -0.495972 20.3988 484.694 455.556
-18.6691 4.62539 20.0816 486.805 478.515
-17.235 9.56783 18.1413 491.247 500.104
-14.9706 14.1085 13.3499 499.27 518.858
-11.6223 17.9994 7.87031 512.307 534.774
-7.41093 21.0638 3.21884 529.586 547.701
-2.5508 23.1114 -0.810216 550.195 556.619
2.80793 23.1641 -4.33539 573.803 557.068
7.37785 21.8436 -0.878689 595.065 554.404
11.0854 19.0206 3.38329 613.089 545.129
14.2261 15.6582 8.17522 628.824 533.505
16.4694 11.693 13.7407 640.837 519.246
17.7304 7.17777 18.5246 648.578 501.831
18.3743 2.29596 20.5898 653.422 481.294
18.6731 -2.73894 20.9273 656.608 459.145
18.7377 -7.76555 21.4363 658.76 437.031
-15.8069 -15.5282 0.230236 504.926 380.492
-13.7601 -17.2546 -1.50088 514.536 372.709
-11.1832 -18.0518 -2.95266 526.209 369.377
-8.49172 -18.1478 -4.31206 538.152 369.251
-5.87905 -17.6322 -5.56904 549.531 371.866
3.28517 -18.275 -5.27719 590.791 372.336
6.13334 -19.2662 -4.05674 604.011 369.489
9.13157 -19.5897 -2.66422 617.678 369.747
12.0738 -18.9169 -1.2689 630.736 374.422
14.417 -17.0572 0.430799 640.715 384.314
-1.5091 -11.7132 -5.07458 566.995 399.969
-1.44571 -8.66933 -7.67828 565.925 412.319
-1.35229 -5.65575 -10.4557 564.983 424.463
-1.21233 -2.66234 -13.174 564.262 436.561
-3.73093 0.645556 -6.16798 552.49 453.693
-2.36562 0.905721 -7.10656 558.413 454.887
-0.941654 0.90864 -8.06102 564.688 454.949
0.709782 0.641005 -7.12417 572.265 454.772
2.25457 0.140854 -6.10052 579.457 453.565
-11.4119 -10.5214 -1.22958 522.64 403.626
-9.91624 -11.7411 -1.12869 529.781 398.765
-7.93831 -11.8745 -0.970523 538.694 398.935
-6.31506 -10.9424 -0.573683 545.659 403.836
-7.93834 -10.1619 -0.939189 538.079 406.573
-9.74857 -9.95464 -1.09892 529.89 406.79
5.35163 -12.0116 -0.854567 598.212 403.011
6.90448 -13.1264 -0.860356 605.561 398.587
8.90581 -13.1171 -0.773292 614.519 399.366
10.5607 -12.0879 -0.713261 621.558 404.553
8.91953 -11.4003 -0.856742 613.953 406.974
7.07247 -11.3573 -0.980072 605.662 406.464
-5.14847 10.2282 -2.78842 543.025 497.439
-3.66741 8.59816 -5.03267 550.018 489.647
-1.91163 7.13875 -6.66659 558.239 482.997
0.245566 7.13851 -8.23953 567.735 483.01
2.47963 6.66604 -6.55583 578.066 482.475
4.62584 7.6919 -4.9408 587.457 488.547
6.67397 8.88349 -2.8777 596.393 495.532
5.18001 10.4272 -4.07643 589.035 501.321
3.28353 11.5075 -5.33177 580.037 504.88
1.04164 12.0744 -6.5749 569.681 506.039
-1.30893 12.132 -5.38407 559.261 506.035
-3.46207 11.5279 -4.25205 549.957 503.126
-1.23362 9.21749 -5.02652 560.684 493.255
0.485894 8.82222 -7.2895 568.297 491.034
2.41091 8.69289 -5.25674 577.156 492.082
2.44423 9.05909 -4.60999 577.236 494.027
0.616904 9.45745 -6.37178 568.744 494.337
-1.13706 9.55258 -4.52791 561.044 495.014
3 20 21 23
3 21 22 23
3 0 1 36
3 15 16 45
3 0 17 36
3 16 26 45
3 17 18 37
3 25 26 44
3 17 36 37
3 26 44 45
3 18 19 38
3 24 25 43
3 18 37 38
3 25 43 44
3 19 20 38
3 23 24 43
3 20 21 39
3 22 23 42
3 20 38 39
3 23 42 43
3 21 22 27
3 21 27 39
3 22 27 42
3 27 28 42
3 27 28 39
3 28 42 47
3 28 39 40
3 1 36 41
3 15 45 46
3 1 2 41
3 14 15 46
3 28 29 40
3 28 29 47
3 2 40 41
3 14 46 47
3 2 29 40
3 14 29 47
3 2 3 29
3 13 14 29
3 29 30 31
3 29 30 35
3 3 29 31
3 13 29 35
3 30 32 33
3 30 33 34
3 30 31 32
3 30 34 35
3 3 4 31
3 12 13 35
3 4 5 48
3 11 12 54
3 5 6 48
3 10 11 54
3 6 48 59
3 10 54 55
3 6 7 59
3 9 10 55
3 7 58 59
3 9 55 56
3 8 57 58
3 8 56 57
3 7 8 58
3 8 9 56
3 4 31 48
3 12 35 54
3 31 48 49
3 35 53 54
3 31 49 50
3 35 52 53
3 31 32 50
3 34 35 52
3 32 33 50
3 33 34 52
3 33 50 51
3 33 51 52
3 48 49 60
3 49 60 50
3 50 60 61
3 50 51 61
3 51 52 61
3 61 62 52
3 52 53 62
3 53 54 62
3 54 55 63
3 55 56 63
3 56 63 64
3 56 57 64
3 64 65 57
3 57 58 65
3 58 59 65
3 48 59 65
