ply
format ascii 1.0
element vertex 66
property float x
property float y
property float z
property float u
property float v
element face 91
property list uchar int vertex_indices
end_header
-19.9228 -5.65653 20.8728 487.85 433.285
-19.4018 -0.519701 20.4402 488.383 455.66
-18.5065 4.56152 20.0901 490.59 477.953
-17.0761 9.52235 18.1252 494.996 499.058
-14.8383 14.1706 13.3804 502.724 517.619
-11.5543 18.1722 7.85377 515.17 533.285
-7.42602 21.3327 3.18696 531.709 545.986
-2.67141 23.5035 -0.831729 551.405 554.898
2.58007 23.7283 -4.42472 573.981 555.687
7.17009 22.3093 -0.846638 595.05 552.783
10.8801 19.3256 3.38042 612.847 543.102
14.0099 15.7773 8.16003 628.348 531.057
16.2774 11.628 13.7422 640.354 516.529
17.6106 6.97543 18.4664 648.319 499.065
18.3014 2.07539 20.5425 653.228 478.954
18.5994 -2.91125 20.8888 656.234 457.449
18.6458 -7.89811 21.3378 658.146 435.916
-15.7382 -15.4785 0.213099 507.041 381.068
-13.7372 -17.2402 -1.50661 516.214 373.12
-11.1544 -18.0775 -2.95361 527.671 369.534
-8.42834 -18.1746 -4.31458 539.521 369.269
-5.7691 -17.638 -5.55593 550.882 371.813
3.20645 -18.2322 -5.34361 590.549 372.162
6.03684 -19.2186 -4.12105 603.461 369.378
9.01288 -19.5269 -2.71987 616.808 369.693
11.9136 -18.8417 -1.30426 629.497 374.331
14.1874 -16.9964 0.400582 639.081 383.987
-1.3757 -11.8156 -5.0485 568.318 398.889
-1.30498 -8.83378 -7.64067 567.331 410.598
-1.21002 -5.87758 -10.404 566.438 422.115
-1.07594 -2.94765 -13.1452 565.729 433.54
-3.58701 0.25132 -6.05388 554.476 450.372
-2.2115 0.506812 -7.04957 560.318 451.409
-0.78226 0.525515 -8.07668 566.47 451.413
0.819603 0.256738 -7.0653 573.719 451.266
2.32275 -0.227823 -6.01215 580.611 450.167
-11.3553 -10.4023 -1.25064 524.443 403.867
-9.93112 -11.5746 -1.13404 531.105 399.257
-8.02709 -11.7617 -0.965407 539.555 399.128
-6.42232 -10.9817 -0.58861 546.393 403.235
-7.97273 -10.1514 -0.935009 539.263 406.193
-9.72449 -9.9186 -1.08294 531.47 406.58
5.35868 -12.0005 -0.841545 598.475 402.376
6.89642 -12.9489 -0.882485 605.543 398.699
8.81919 -12.9001 -0.831744 613.983 399.545
10.3847 -11.9058 -0.802877 620.536 404.397
8.7817 -11.2948 -0.87331 613.28 406.523
7.00089 -11.2979 -0.96887 605.444 405.898
-5.22421 10.1703 -2.80206 544.376 494.848
-3.7322 8.52358 -4.99863 551.218 486.996
-1.93063 7.03233 -6.61709 559.438 480.218
0.310329 7.05514 -8.17482 569.093 480.223
2.60708 6.57509 -6.49636 579.546 479.717
4.76146 7.6481 -4.88898 588.849 485.911
6.74753 8.8934 -2.84292 597.407 493.031
5.25468 10.4778 -4.09736 590.171 498.833
3.34 11.5938 -5.34193 581.239 502.461
1.05547 12.1943 -6.63333 570.846 503.696
-1.33575 12.1763 -5.41126 560.489 503.492
-3.50871 11.515 -4.26884 551.295 500.507
-1.22557 9.08002 -5.0144 562.048 490.209
0.537056 8.73523 -7.2631 569.641 488.102
2.46815 8.59769 -5.18451 578.42 489.182
2.51391 9.13781 -4.57596 578.514 491.869
0.676552 9.62438 -6.35751 570.066 492.495
-1.12135 9.59839 -4.53612 562.39 492.753
3 20 21 23
3 21 22 23
3 0 1 36
3 15 16 45
3 0 17 36
3 16 26 45
3 17 18 37
3 25 26 44
3 17 36 37
3 26 44 45
3 18 19 38
3 24 25 43
3 18 37 38
3 25 43 44
3 19 20 38
3 23 24 43
3 20 21 39
3 22 23 42
3 20 38 39
3 23 42 43
3 21 22 27
3 21 27 39
3 22 27 42
3 27 28 42
3 27 28 39
3 28 42 47
3 28 39 40
3 1 36 41
3 15 45 46
3 1 2 41
3 14 15 46
3 28 29 40
3 28 29 47
3 2 40 41
3 14 46 47
3 2 29 40
3 14 29 47
3 2 3 29
3 13 14 29
3 29 30 31
3 29 30 35
3 3 29 31
3 13 29 35
3 30 32 33
3 30 33 34
3 30 31 32
3 30 34 35
3 3 4 31
3 12 13 35
3 4 5 48
3 11 12 54
3 5 6 48
3 10 11 54
3 6 48 59
3 10 54 55
3 6 7 59
3 9 10 55
3 7 58 59
3 9 55 56
3 8 57 58
3 8 56 57
3 7 8 58
3 8 9 56
3 4 31 48
3 12 35 54
3 31 48 49
3 35 53 54
3 31 49 50
3 35 52 53
3 31 32 50
3 34 35 52
3 32 33 50
3 33 34 52
3 33 50 51
3 33 51 52
3 48 49 60
3 49 60 50
3 50 60 61
3 50 51 61
3 51 52 61
3 61 62 52
3 52 53 62
3 53 54 62
3 54 55 63
3 55 56 63
3 56 63 64
3 56 57 64
3 64 65 57
3 57 58 65
3 58 59 65
3 48 59 65
