ply
format ascii 1.0
element vertex 66
property float x
property float y
property float z
property float u
property float v
element face 91
property list uchar int vertex_indices
end_header
-20.1243 -5.66988 20.8908 484.907 429.637
-19.6576 -0.562904 20.4279 484.967 452.122
-18.7907 4.49324 20.1476 486.832 474.617
-17.4002 9.38119 18.1362 490.967 495.783
-15.1487 13.9061 13.3947 498.875 514.432
-11.7573 17.7792 7.89291 512.037 530.293
-7.47456 20.7845 3.24284 529.541 543.053
-2.54555 22.7511 -0.773144 550.355 551.765
2.83546 22.7721 -4.30708 573.956 552.288
7.35925 21.5374 -0.937608 594.706 550.087
11.1117 18.8917 3.3611 612.647 541.794
14.351 15.7096 8.17145 628.555 531.175
16.651 11.8487 13.8011 640.619 517.58
17.8722 7.34356 18.579 648.094 500.348
18.4763 2.44552 20.7745 652.815 479.977
18.7986 -2.61786 21.1347 656.228 457.936
18.9245 -7.67508 21.6458 658.778 435.917
-16.019 -15.2759 0.245852 505.441 379.453
-14.006 -17.0109 -1.49834 514.917 371.772
-11.4576 -17.826 -2.98362 526.426 368.467
-8.78883 -17.9631 -4.34823 538.215 368.252
-6.19376 -17.5072 -5.60421 549.454 370.674
3.24497 -18.1538 -5.26846 591.555 371.548
6.20347 -19.1898 -4.04711 605.148 368.654
9.31458 -19.54 -2.64608 619.164 368.924
12.3726 -18.8517 -1.23214 632.544 373.759
14.8101 -16.93 0.442212 642.713 383.916
-1.68107 -11.5799 -5.11483 567.19 398.74
-1.61522 -8.51602 -7.71066 566.122 411.095
-1.51437 -5.48563 -10.5048 565.209 423.226
-1.35826 -2.4762 -13.2449 564.552 435.309
-3.87853 0.759884 -6.17671 552.602 451.837
-2.51137 1.01591 -7.15443 558.496 453.039
-1.09188 1.01336 -8.14079 564.722 453.117
0.613511 0.720852 -7.20838 572.455 452.896
2.22101 0.193872 -6.17086 579.852 451.652
-11.6619 -10.2461 -1.19617 522.705 402.625
-10.1337 -11.5307 -1.1342 529.979 397.567
-8.09751 -11.6535 -1.02759 539.057 397.844
-6.42696 -10.6881 -0.647795 546.111 402.906
-8.0956 -9.9083 -0.975038 538.393 405.564
-9.95003 -9.68419 -1.12511 530.078 405.783
5.57437 -11.867 -0.940477 599.732 402.117
7.18069 -13.0552 -0.920683 607.312 397.495
9.25263 -13.0475 -0.738208 616.503 398.396
10.9803 -11.9915 -0.595848 623.76 403.77
9.27782 -11.2921 -0.838089 615.928 406.1
7.36591 -11.2311 -0.996251 607.421 405.574
-5.6252 10.0499 -2.78594 541.491 493.68
-3.93325 8.48827 -5.01209 549.445 486.423
-2.00565 7.12937 -6.66471 558.403 480.409
0.262914 7.12023 -8.24501 568.354 480.51
2.62715 6.60415 -6.56737 579.143 479.891
4.98099 7.47296 -4.93813 589.346 485.353
7.32038 8.50123 -2.91188 599.451 491.693
5.60511 10.1039 -4.10256 591.149 497.57
3.49203 11.2028 -5.34421 581.277 501.052
1.08752 11.7876 -6.54882 570.314 502.173
-1.40954 11.9064 -5.36198 559.282 502.291
-3.76152 11.3635 -4.22416 549.145 499.524
-1.50004 9.12881 -5.05736 559.977 490.147
0.508334 8.75514 -7.35223 568.868 488.217
2.74772 8.4995 -5.39922 579.021 488.825
2.80367 8.84935 -4.6862 579.181 490.713
0.631439 9.27315 -6.37284 569.279 490.993
-1.43874 9.44354 -4.50592 560.163 491.809
3 20 21 23
3 21 22 23
3 0 1 36
3 15 16 45
3 0 17 36
3 16 26 45
3 17 18 37
3 25 26 44
3 17 36 37
3 26 44 45
3 18 19 38
3 24 25 43
3 18 37 38
3 25 43 44
3 19 20 38
3 23 24 43
3 20 21 39
3 22 23 42
3 20 38 39
3 23 42 43
3 21 22 27
3 21 27 39
3 22 27 42
3 27 28 42
3 27 28 39
3 28 42 47
3 28 39 40
3 1 36 41
3 15 45 46
3 1 2 41
3 14 15 46
3 28 29 40
3 28 29 47
3 2 40 41
3 14 46 47
3 2 29 40
3 14 29 47
3 2 3 29
3 13 14 29
3 29 30 31
3 29 30 35
3 3 29 31
3 13 29 35
3 30 32 33
3 30 33 34
3 30 31 32
3 30 34 35
3 3 4 31
3 12 13 35
3 4 5 48
3 11 12 54
3 5 6 48
3 10 11 54
3 6 48 59
3 10 54 55
3 6 7 59
3 9 10 55
3 7 58 59
3 9 55 56
3 8 57 58
3 8 56 57
3 7 8 58
3 8 9 56
3 4 31 48
3 12 35 54
3 31 48 49
3 35 53 54
3 31 49 50
3 35 52 53
3 31 32 50
3 34 35 52
3 32 33 50
3 33 34 52
3 33 50 51
3 33 51 52
3 48 49 60
3 49 60 50
3 50 60 61
3 50 51 61
3 51 52 61
3 61 62 52
3 52 53 62
3 53 54 62
3 54 55 63
3 55 56 63
3 56 63 64
3 56 57 64
3 64 65 57
3 57 58 65
3 58 59 65
3 48 59 65
