ply
format ascii 1.0
element vertex 66
property float x
property float y
property float z
property float u
property float v
element face 91
property list uchar int vertex_indices
end_header
-19.9922 -6.12539 20.8209 487.325 433.42
-19.5172 -0.860559 20.483 488.308 455.616
-18.6317 4.33433 20.0441 491.044 477.521
-17.0904 9.45018 18.1704 496.365 498.339
-14.7648 14.2949 13.2989 504.601 516.338
-11.4634 18.5015 7.77395 517.024 531.4
-7.3497 21.8774 3.18648 533.233 543.636
-2.61611 24.2727 -0.790032 552.378 552.183
2.66456 24.6524 -4.54088 574.28 552.409
7.32443 23.0782 -0.700699 595.139 548.803
11.0277 19.8493 3.42492 612.264 538.196
14.0698 15.9971 8.08735 626.767 525.16
16.2952 11.592 13.6008 638.02 510.156
17.6831 6.78151 18.4687 645.662 492.909
18.4214 1.82876 20.3405 650.061 473.155
18.6357 -3.1252 20.7064 651.972 452.408
18.5481 -8.07808 21.0917 652.595 431.627
-15.6447 -15.6844 0.271019 504.361 381.285
-13.8084 -17.5934 -1.54239 512.279 372.405
-11.2689 -18.5381 -2.96008 523.088 367.967
-8.53041 -18.6013 -4.28362 534.597 367.354
-5.85589 -17.9734 -5.46984 545.724 369.744
3.60564 -18.6226 -5.26264 586.353 368.668
6.36537 -19.5112 -4.12731 598.511 366.034
9.24212 -19.6976 -2.80861 611.068 366.507
11.9598 -18.7613 -1.43905 622.74 371.744
13.879 -16.6486 0.496135 630.868 382.175
-1.23113 -11.8265 -5.04304 564.417 396.818
-1.15843 -9.11946 -7.65004 563.79 406.743
-1.06648 -6.41959 -10.3138 563.238 416.607
-0.942011 -3.74912 -12.966 562.832 426.358
-3.29485 -0.12345 -6.01488 553.222 445.511
-1.96955 0.0204374 -6.94397 558.712 445.782
-0.617671 0.0029053 -7.98406 564.327 445.305
0.844232 -0.195792 -6.92147 570.792 445.34
2.22812 -0.539772 -5.93522 576.938 444.7
-10.6786 -10.251 -1.44337 524.297 404.106
-9.38737 -11.3478 -1.27381 530.055 399.77
-7.61492 -11.5695 -0.966706 537.729 399.305
-6.08755 -10.9121 -0.412183 544.229 402.675
-7.48981 -9.91542 -0.882822 537.966 406.388
-9.1399 -9.68965 -1.08506 530.832 406.953
4.59569 -11.6788 -0.618306 590.038 401.053
6.06891 -12.4533 -0.920003 596.436 397.831
7.84933 -12.374 -1.06813 604.013 398.37
9.24043 -11.4028 -1.11588 609.772 402.687
7.74953 -10.7428 -0.933167 603.3 405.35
6.08907 -10.793 -0.917946 596.21 404.874
-4.48139 10.287 -2.72602 546.721 491.424
-3.37059 8.44599 -5.04128 551.441 482.413
-1.8364 6.68592 -6.6512 558.072 474.237
0.324939 6.72097 -8.10244 567.073 473.87
2.52776 6.26549 -6.52122 576.84 473.249
4.41454 7.65286 -4.93092 584.909 480.394
5.97042 9.20184 -2.72695 591.633 488.537
4.76657 10.6717 -3.9814 586.001 493.819
3.15967 11.7483 -5.39526 578.693 497.272
1.10019 12.3624 -6.80083 569.537 498.694
-1.08878 12.2494 -5.49967 560.408 498.637
-2.97657 11.5377 -4.23973 552.674 496.065
-0.861052 8.85896 -4.93859 562.114 484.637
0.564491 8.46462 -7.04507 567.941 481.936
2.14205 8.47735 -4.98962 575.024 483.481
2.20089 9.29006 -4.46519 575.208 487.251
0.754869 9.82471 -6.35146 568.613 488.149
-0.6819 9.64632 -4.52324 562.8 488.253
3 20 21 23
3 21 22 23
3 0 1 36
3 15 16 45
3 0 17 36
3 16 26 45
3 17 18 37
3 25 26 44
3 17 36 37
3 26 44 45
3 18 19 38
3 24 25 43
3 18 37 38
3 25 43 44
3 19 20 38
3 23 24 43
3 20 21 39
3 22 23 42
3 20 38 39
3 23 42 43
3 21 22 27
3 21 27 39
3 22 27 42
3 27 28 42
3 27 28 39
3 28 42 47
3 28 39 40
3 1 36 41
3 15 45 46
3 1 2 41
3 14 15 46
3 28 29 40
3 28 29 47
3 2 40 41
3 14 46 47
3 2 29 40
3 14 29 47
3 2 3 29
3 13 14 29
3 29 30 31
3 29 30 35
3 3 29 31
3 13 29 35
3 30 32 33
3 30 33 34
3 30 31 32
3 30 34 35
3 3 4 31
3 12 13 35
3 4 5 48
3 11 12 54
3 5 6 48
3 10 11 54
3 6 48 59
3 10 54 55
3 6 7 59
3 9 10 55
3 7 58 59
3 9 55 56
3 8 57 58
3 8 56 57
3 7 8 58
3 8 9 56
3 4 31 48
3 12 35 54
3 31 48 49
3 35 53 54
3 31 49 50
3 35 52 53
3 31 32 50
3 34 35 52
3 32 33 50
3 33 34 52
3 33 50 51
3 33 51 52
3 48 49 60
3 49 60 50
3 50 60 61
3 50 51 61
3 51 52 61
3 61 62 52
3 52 53 62
3 53 54 62
3 54 55 63
3 55 56 63
3 56 63 64
3 56 57 64
3 64 65 57
3 57 58 65
3 58 59 65
3 48 59 65
