ply
format ascii 1.0
element vertex 66
property float x
property float y
property float z
property float u
property float v
element face 91
property list uchar int vertex_indices
end_header
-20.0827 -6.11646 20.6458 483.966 433.114
-19.6873 -0.916429 20.2953 484.487 456.038
-18.8137 4.20841 19.9158 487.141 478.722
-17.1916 9.20736 18.1325 492.96 500.49
-14.701 13.8884 13.2186 502.299 519.875
-11.2864 18.0342 7.78869 515.788 536.904
-7.11915 21.4632 3.22017 532.884 551.25
-2.30512 23.927 -0.757262 553.142 561.694
3.11293 24.2499 -4.40753 576.605 562.933
7.67828 22.7817 -0.785838 597.629 558.786
11.3249 19.766 3.38111 615.005 547.807
14.333 16.1456 8.06514 629.755 534.212
16.4995 11.9614 13.5544 641.009 518.243
17.7673 7.27111 18.5859 648.339 499.675
18.4316 2.27646 20.3731 652.648 478.423
18.6504 -2.77555 20.7668 654.82 456.302
18.6161 -7.81368 21.2562 655.879 434.223
-15.4641 -16.1359 0.335094 504.115 382.291
-13.6123 -17.9811 -1.52031 512.502 373.85
-11.1156 -18.8745 -2.94556 523.585 369.914
-8.44584 -18.9463 -4.25853 535.261 369.686
-5.8683 -18.3134 -5.45888 546.383 372.592
3.2429 -19.0157 -5.072 586.958 371.607
6.16293 -19.9685 -3.98158 600.251 368.437
9.20725 -20.1484 -2.72233 613.941 368.77
12.0783 -19.0869 -1.42463 626.584 374.564
14.0897 -16.7684 0.569034 635.222 385.983
-1.609 -11.7044 -5.03913 563.8 402.863
-1.49484 -8.80462 -7.66888 563.309 414.717
-1.35106 -5.91582 -10.349 562.945 426.509
-1.15992 -3.052 -12.9654 562.804 438.226
-3.54459 0.509876 -6.15285 552.298 455.98
-2.2494 0.68645 -6.99937 557.888 456.725
-0.917129 0.651981 -7.93934 563.678 456.511
0.647298 0.41997 -6.98824 570.783 456.18
2.10527 0.000191469 -6.07269 577.455 454.982
-10.5466 -10.4584 -1.41362 524.383 407.782
-9.23559 -11.7615 -1.28062 530.505 402.36
-7.34532 -11.8812 -0.99959 538.943 402.345
-5.83185 -10.8788 -0.3669 545.501 407.336
-7.28269 -9.85672 -0.879865 538.774 411.345
-8.99108 -9.66842 -1.09837 531.135 411.726
4.2524 -11.6897 -0.560168 590.337 405.865
5.71186 -12.8606 -0.934757 597.022 400.87
7.63211 -12.8477 -1.02393 605.515 401.31
9.12085 -11.7082 -0.989644 611.855 406.678
7.60046 -10.8332 -0.887836 604.933 410.251
5.84975 -10.7979 -0.891816 597.168 410.027
-4.16123 10.3778 -2.66275 547.763 500.734
-3.11897 8.64684 -5.07634 552.467 492.415
-1.70971 7.00186 -6.69875 558.878 484.85
0.272999 7.03427 -8.16398 567.467 484.876
2.34687 6.54327 -6.61262 576.965 483.734
4.20296 7.77898 -5.02919 585.109 490.184
5.86932 9.11489 -2.75003 592.479 497.295
4.69306 10.5907 -3.989 586.773 503.098
3.12654 11.6758 -5.41597 579.403 507.02
1.14394 12.2978 -6.7335 570.309 508.847
-0.954738 12.267 -5.47448 561.179 508.726
-2.76941 11.5992 -4.24519 553.449 505.841
-0.624415 9.20033 -4.87376 563.418 495.475
0.531895 8.7833 -7.04904 568.358 493.073
1.9138 8.74577 -5.09523 574.739 493.935
1.95984 9.2102 -4.56365 574.905 496.194
0.69718 9.65055 -6.35388 568.981 497.199
-0.478162 9.6126 -4.47966 564.023 497.475
3 20 21 23
3 21 22 23
3 0 1 36
3 15 16 45
3 0 17 36
3 16 26 45
3 17 18 37
3 25 26 44
3 17 36 37
3 26 44 45
3 18 19 38
3 24 25 43
3 18 37 38
3 25 43 44
3 19 20 38
3 23 24 43
3 20 21 39
3 22 23 42
3 20 38 39
3 23 42 43
3 21 22 27
3 21 27 39
3 22 27 42
3 27 28 42
3 27 28 39
3 28 42 47
3 28 39 40
3 1 36 41
3 15 45 46
3 1 2 41
3 14 15 46
3 28 29 40
3 28 29 47
3 2 40 41
3 14 46 47
3 2 29 40
3 14 29 47
3 2 3 29
3 13 14 29
3 29 30 31
3 29 30 35
3 3 29 31
3 13 29 35
3 30 32 33
3 30 33 34
3 30 31 32
3 30 34 35
3 3 4 31
3 12 13 35
3 4 5 48
3 11 12 54
3 5 6 48
3 10 11 54
3 6 48 59
3 10 54 55
3 6 7 59
3 9 10 55
3 7 58 59
3 9 55 56
3 8 57 58
3 8 56 57
3 7 8 58
3 8 9 56
3 4 31 48
3 12 35 54
3 31 48 49
3 35 53 54
3 31 49 50
3 35 52 53
3 31 32 50
3 34 35 52
3 32 33 50
3 33 34 52
3 33 50 51
3 33 51 52
3 48 49 60
3 49 60 50
3 50 60 61
3 50 51 61
3 51 52 61
3 61 62 52
3 52 53 62
3 53 54 62
3 54 55 63
3 55 56 63
3 56 63 64
3 56 57 64
3 64 65 57
3 57 58 65
3 58 59 65
3 48 59 65
