ply
format ascii 1.0
element vertex 66
property float x
property float y
property float z
property float u
property float v
element face 91
property list uchar int vertex_indices
end_header
-20.1577 -5.56263 20.9052 484.429 430.765
-19.6875 -0.452888 20.4613 484.326 453.196
-18.8161 4.60628 20.1795 486.029 475.649
-17.4278 9.47684 18.161 489.972 496.638
-15.1829 13.952 13.3983 497.671 514.902
-11.8043 17.773 7.915 510.604 530.406
-7.53338 20.7323 3.26274 527.903 542.894
-2.61043 22.6484 -0.784291 548.567 551.36
2.7633 22.6449 -4.31207 572.067 551.829
7.33313 21.4493 -0.926164 593.011 550.102
11.1313 18.8425 3.38978 611.204 542.309
14.3917 15.6704 8.20353 627.294 532.055
16.6894 11.8135 13.8195 639.475 518.787
17.9052 7.31813 18.6015 647.082 501.863
18.5095 2.40716 20.7962 651.976 481.6
18.8272 -2.68719 21.1499 655.548 459.516
18.9343 -7.77403 21.6425 658.196 437.446
-16.0726 -15.2855 0.237936 505.093 379.634
-13.992 -17.0269 -1.49009 514.898 371.993
-11.3808 -17.8174 -2.96739 526.666 368.869
-8.66342 -17.9331 -4.33872 538.627 368.807
-6.02925 -17.4513 -5.61234 549.977 371.384
3.10764 -18.0546 -5.31027 590.636 372.629
6.08604 -19.1237 -4.0618 604.34 369.762
9.22958 -19.5063 -2.6456 618.497 370.061
12.3382 -18.8708 -1.22891 632.071 374.82
14.8501 -16.9837 0.414385 642.497 384.945
-1.6442 -11.7583 -5.09771 567 398.452
-1.56853 -8.60949 -7.69122 565.825 411.056
-1.45965 -5.49785 -10.5087 564.795 423.401
-1.29815 -2.40752 -13.2846 564.01 435.694
-3.84671 0.803017 -6.19901 551.903 452.212
-2.47126 1.05109 -7.16798 557.809 453.394
-1.04329 1.0391 -8.13234 564.056 453.457
0.662625 0.762131 -7.21643 571.778 453.387
2.27191 0.249299 -6.17661 579.182 452.301
-11.8875 -10.247 -1.16442 521.372 402.809
-10.2281 -11.6223 -1.12223 529.288 397.467
-8.03017 -11.7367 -1.02958 539.057 397.911
-6.2377 -10.6609 -0.653388 546.554 403.558
-8.05244 -9.88271 -0.986006 538.182 406.071
-10.0489 -9.64654 -1.12004 529.249 406.224
5.44687 -11.8044 -0.949217 598.659 403.183
7.15732 -13.1145 -0.920506 606.772 398.141
9.38665 -13.1351 -0.734479 616.648 399.056
11.2506 -12.003 -0.589436 624.421 404.866
9.42975 -11.2522 -0.849554 616.038 407.292
7.37897 -11.187 -1.01955 606.934 406.654
-5.49598 10.1337 -2.80553 540.932 494.195
-3.85894 8.526 -5.01174 548.686 486.725
-1.97301 7.14075 -6.66538 557.485 480.605
0.254457 7.13217 -8.26579 567.22 480.701
2.57602 6.63961 -6.57009 577.81 480.316
4.87807 7.56204 -4.93452 587.714 486.112
7.14699 8.66119 -2.92504 597.424 492.853
5.44428 10.1624 -4.12394 589.181 498.166
3.37289 11.1772 -5.35556 579.51 501.176
1.03715 11.714 -6.55178 568.875 501.993
-1.38222 11.8472 -5.378 558.209 502.158
-3.6718 11.362 -4.24264 548.375 499.64
-1.52238 9.17324 -5.05886 558.737 490.505
0.488805 8.78671 -7.35887 567.625 488.51
2.72541 8.56789 -5.38219 577.744 489.43
2.74612 8.78007 -4.69138 577.796 490.708
0.591993 9.14047 -6.39998 568.001 490.575
-1.45911 9.34954 -4.52615 558.981 491.566
3 20 21 23
3 21 22 23
3 0 1 36
3 15 16 45
3 0 17 36
3 16 26 45
3 17 18 37
3 25 26 44
3 17 36 37
3 26 44 45
3 18 19 38
3 24 25 43
3 18 37 38
3 25 43 44
3 19 20 38
3 23 24 43
3 20 21 39
3 22 23 42
3 20 38 39
3 23 42 43
3 21 22 27
3 21 27 39
3 22 27 42
3 27 28 42
3 27 28 39
3 28 42 47
3 28 39 40
3 1 36 41
3 15 45 46
3 1 2 41
3 14 15 46
3 28 29 40
3 28 29 47
3 2 40 41
3 14 46 47
3 2 29 40
3 14 29 47
3 2 3 29
3 13 14 29
3 29 30 31
3 29 30 35
3 3 29 31
3 13 29 35
3 30 32 33
3 30 33 34
3 30 31 32
3 30 34 35
3 3 4 31
3 12 13 35
3 4 5 48
3 11 12 54
3 5 6 48
3 10 11 54
3 6 48 59
3 10 54 55
3 6 7 59
3 9 10 55
3 7 58 59
3 9 55 56
3 8 57 58
3 8 56 57
3 7 8 58
3 8 9 56
3 4 31 48
3 12 35 54
3 31 48 49
3 35 53 54
3 31 49 50
3 35 52 53
3 31 32 50
3 34 35 52
3 32 33 50
3 33 34 52
3 33 50 51
3 33 51 52
3 48 49 60
3 49 60 50
3 50 60 61
3 50 51 61
3 51 52 61
3 61 62 52
3 52 53 62
3 53 54 62
3 54 55 63
3 55 56 63
3 56 63 64
3 56 57 64
3 64 65 57
3 57 58 65
3 58 59 65
3 48 59 65
