ply
format ascii 1.0
element vertex 66
property float x
property float y
property float z
property float u
property float v
element face 91
property list uchar int vertex_indices
end_header
-19.9638 -5.71514 20.8344 487.521 434.26
-19.4336 -0.580795 20.3987 488.223 456.539
-18.5264 4.49486 20.0334 490.606 478.71
-17.056 9.46593 18.0881 495.295 499.73
-14.7803 14.146 13.3453 503.259 518.197
-11.4814 18.1828 7.81905 515.811 533.731
-7.36552 21.3954 3.1751 532.307 546.39
-2.64949 23.662 -0.840643 551.803 555.442
2.58449 23.9514 -4.4362 574.227 556.26
7.17443 22.5024 -0.821688 595.251 553.232
10.8724 19.4572 3.37899 612.923 543.313
13.9952 15.8531 8.11541 628.309 531.085
16.2878 11.6618 13.6691 640.334 516.504
17.6495 6.97448 18.4303 648.329 499.064
18.3509 2.06564 20.4434 653.156 478.978
18.6357 -2.90165 20.7974 655.967 457.616
18.6667 -7.86944 21.2615 657.679 436.239
-15.6297 -15.6699 0.222103 507.019 380.964
-13.6531 -17.3679 -1.50223 515.995 373.202
-11.12 -18.1763 -2.94901 527.174 369.626
-8.44575 -18.2537 -4.3022 538.76 369.326
-5.83506 -17.7032 -5.51985 549.892 371.815
3.41096 -18.3867 -5.28596 590.686 371.629
6.17617 -19.3118 -4.11041 603.243 369.034
9.06736 -19.5721 -2.74381 616.174 369.475
11.8619 -18.84 -1.3405 628.382 374.23
14.0195 -16.9951 0.435147 637.502 383.851
-1.33203 -11.645 -5.0422 567.851 399.759
-1.24574 -8.75602 -7.64374 567.025 410.955
-1.13715 -5.88742 -10.383 566.285 421.994
-0.993548 -3.04451 -13.0844 565.711 432.952
-3.4761 0.2091 -6.02507 554.702 450.239
-2.11585 0.449417 -7.01761 560.472 451.139
-0.706014 0.469528 -8.05694 566.521 451.069
0.848078 0.205937 -7.02 573.547 450.931
2.30468 -0.25873 -5.98463 580.207 449.889
-11.0219 -10.506 -1.29107 525.465 403.963
-9.75145 -11.5362 -1.13942 531.371 399.924
-8.05682 -11.7381 -0.926798 538.893 399.648
-6.60406 -11.1086 -0.552051 545.119 403.012
-7.97461 -10.2874 -0.904963 538.813 406.003
-9.54818 -10.0765 -1.07205 531.825 406.377
5.27309 -12.0888 -0.748323 597.491 402.059
6.67816 -12.8712 -0.85525 603.88 398.998
8.39476 -12.7997 -0.880536 611.385 399.79
9.78898 -11.9239 -0.894884 617.231 403.999
8.33841 -11.3791 -0.874766 610.704 405.965
6.73802 -11.3884 -0.913974 603.683 405.441
-5.16103 10.1849 -2.79906 544.663 494.955
-3.67855 8.57128 -5.01645 551.384 487.15
-1.90051 7.0681 -6.6192 559.443 480.246
0.340631 7.10489 -8.14957 569.073 480.221
2.62543 6.61215 -6.50807 579.449 479.624
4.74607 7.69543 -4.91737 588.617 485.817
6.69292 8.92028 -2.81241 597.043 492.855
5.23697 10.5201 -4.05448 590.014 498.729
3.34773 11.6446 -5.31051 581.228 502.402
1.07717 12.257 -6.61259 570.92 503.708
-1.30316 12.2115 -5.38657 560.644 503.489
-3.45306 11.5299 -4.25552 551.563 500.515
-1.0945 9.11178 -5.02208 562.552 490.246
0.567902 8.77881 -7.2325 569.672 488.075
2.38113 8.65654 -5.15785 577.92 489.191
2.43291 9.23062 -4.55225 578.047 492.035
0.712237 9.73097 -6.3409 570.125 492.748
-0.979154 9.66387 -4.53556 562.95 492.948
3 20 21 23
3 21 22 23
3 0 1 36
3 15 16 45
3 0 17 36
3 16 26 45
3 17 18 37
3 25 26 44
3 17 36 37
3 26 44 45
3 18 19 38
3 24 25 43
3 18 37 38
3 25 43 44
3 19 20 38
3 23 24 43
3 20 21 39
3 22 23 42
3 20 38 39
3 23 42 43
3 21 22 27
3 21 27 39
3 22 27 42
3 27 28 42
3 27 28 39
3 28 42 47
3 28 39 40
3 1 36 41
3 15 45 46
3 1 2 41
3 14 15 46
3 28 29 40
3 28 29 47
3 2 40 41
3 14 46 47
3 2 29 40
3 14 29 47
3 2 3 29
3 13 14 29
3 29 30 31
3 29 30 35
3 3 29 31
3 13 29 35
3 30 32 33
3 30 33 34
3 30 31 32
3 30 34 35
3 3 4 31
3 12 13 35
3 4 5 48
3 11 12 54
3 5 6 48
3 10 11 54
3 6 48 59
3 10 54 55
3 6 7 59
3 9 10 55
3 7 58 59
3 9 55 56
3 8 57 58
3 8 56 57
3 7 8 58
3 8 9 56
3 4 31 48
3 12 35 54
3 31 48 49
3 35 53 54
3 31 49 50
3 35 52 53
3 31 32 50
3 34 35 52
3 32 33 50
3 33 34 52
3 33 50 51
3 33 51 52
3 48 49 60
3 49 60 50
3 50 60 61
3 50 51 61
3 51 52 61
3 61 62 52
3 52 53 62
3 53 54 62
3 54 55 63
3 55 56 63
3 56 63 64
3 56 57 64
3 64 65 57
3 57 58 65
3 58 59 65
3 48 59 65
