ply
format ascii 1.0
element vertex 66
property float x
property float y
property float z
property float u
property float v
element face 91
property list uchar int vertex_indices
end_header
-19.7714 -5.84533 20.6967 487.169 432.946
-19.2988 -0.718882 20.3055 487.605 455.98
-18.4119 4.34439 19.9626 489.94 478.879
-16.9257 9.28892 18.0677 494.809 500.745
-14.6378 13.9612 13.3448 503.004 520.391
-11.3602 18.0767 7.84712 515.743 537.494
-7.24626 21.4032 3.21368 532.63 551.684
-2.48341 23.7567 -0.77914 552.847 561.978
2.84844 24.0274 -4.38613 576.355 563.245
7.41172 22.6241 -0.833655 597.899 559.891
11.0889 19.6551 3.35955 616.029 549.504
14.1623 16.1009 8.11526 631.696 536.546
16.3231 11.9222 13.6883 643.552 520.858
17.5155 7.21465 18.5012 651.101 502.16
18.1309 2.23056 20.4562 655.745 480.786
18.3901 -2.83197 20.8402 658.593 458.26
18.4209 -7.88968 21.3246 660.421 435.73
-15.4368 -15.7706 0.229913 507.161 380.636
-13.5034 -17.5037 -1.52557 516.213 372.661
-11.0077 -18.3528 -2.97464 527.562 368.97
-8.36217 -18.4705 -4.32113 539.367 368.66
-5.7883 -17.9458 -5.55521 550.657 371.267
3.20437 -18.6854 -5.22831 591.558 370.839
6.05538 -19.6223 -4.06535 604.894 368.009
9.03099 -19.8514 -2.728 618.589 368.478
11.8885 -19.0019 -1.36056 631.409 373.776
14.0535 -16.9992 0.452144 640.79 384.245
-1.54083 -11.9058 -5.07932 567.968 399.949
-1.43176 -8.99175 -7.63927 567.179 411.967
-1.29417 -6.09935 -10.3396 566.506 423.834
-1.11499 -3.23274 -13.0275 566.032 435.604
-3.48007 0.244051 -6.03861 555.18 453.59
-2.2006 0.427967 -6.9892 560.771 454.392
-0.880444 0.408517 -8.00593 566.603 454.262
0.650349 0.168612 -7.00757 573.729 454.091
2.09163 -0.251576 -5.99535 580.511 453.087
-10.7461 -10.4811 -1.34484 526.438 405.177
-9.49431 -11.546 -1.19012 532.455 400.838
-7.79622 -11.7203 -0.952414 540.213 400.678
-6.35843 -11.0666 -0.531145 546.554 404.245
-7.71547 -10.2228 -0.922495 540.101 407.453
-9.28408 -9.99828 -1.09656 532.92 407.906
4.99776 -12.0701 -0.708625 598.147 403.133
6.41089 -12.9141 -0.862261 604.78 399.702
8.15128 -12.8493 -0.907589 612.615 400.507
9.56236 -11.956 -0.917038 618.7 404.954
8.10595 -11.3607 -0.877518 611.936 407.203
6.48607 -11.3564 -0.921431 604.612 406.706
-4.85682 10.4836 -2.76717 546.118 500.667
-3.555 8.73199 -5.02268 552.255 492.196
-1.90698 7.08051 -6.62411 560.012 484.569
0.283308 7.06401 -8.13437 569.706 484.502
2.54674 6.59959 -6.56216 580.291 483.797
4.61192 7.82673 -4.97796 589.44 490.646
6.49459 9.15918 -2.83835 597.806 498.157
5.07376 10.6815 -4.0653 590.734 504.031
3.27117 11.7763 -5.35544 582.066 507.837
1.0801 12.3907 -6.60954 571.802 509.379
-1.21233 12.3799 -5.38344 561.616 509.166
-3.24856 11.7384 -4.24579 552.779 506.156
-1.01899 9.23032 -4.93076 563.562 495.256
0.517342 8.7871 -7.17548 570.34 492.747
2.24917 8.73852 -5.16482 578.45 493.942
2.28094 9.35461 -4.59375 578.473 496.974
0.668551 9.82775 -6.35061 570.8 497.837
-0.883502 9.80657 -4.49149 564.049 498.082
3 20 21 23
3 21 22 23
3 0 1 36
3 15 16 45
3 0 17 36
3 16 26 45
3 17 18 37
3 25 26 44
3 17 36 37
3 26 44 45
3 18 19 38
3 24 25 43
3 18 37 38
3 25 43 44
3 19 20 38
3 23 24 43
3 20 21 39
3 22 23 42
3 20 38 39
3 23 42 43
3 21 22 27
3 21 27 39
3 22 27 42
3 27 28 42
3 27 28 39
3 28 42 47
3 28 39 40
3 1 36 41
3 15 45 46
3 1 2 41
3 14 15 46
3 28 29 40
3 28 29 47
3 2 40 41
3 14 46 47
3 2 29 40
3 14 29 47
3 2 3 29
3 13 14 29
3 29 30 31
3 29 30 35
3 3 29 31
3 13 29 35
3 30 32 33
3 30 33 34
3 30 31 32
3 30 34 35
3 3 4 31
3 12 13 35
3 4 5 48
3 11 12 54
3 5 6 48
3 10 11 54
3 6 48 59
3 10 54 55
3 6 7 59
3 9 10 55
3 7 58 59
3 9 55 56
3 8 57 58
3 8 56 57
3 7 8 58
3 8 9 56
3 4 31 48
3 12 35 54
3 31 48 49
3 35 53 54
3 31 49 50
3 35 52 53
3 31 32 50
3 34 35 52
3 32 33 50
3 33 34 52
3 33 50 51
3 33 51 52
3 48 49 60
3 49 60 50
3 50 60 61
3 50 51 61
3 51 52 61
3 61 62 52
3 52 53 62
3 53 54 62
3 54 55 63
3 55 56 63
3 56 63 64
3 56 57 64
3 64 65 57
3 57 58 65
3 58 59 65
3 48 59 65
