ply
format ascii 1.0
element vertex 66
property float x
property float y
property float z
property float u
property float v
element face 91
property list uchar int vertex_indices
end_header
-19.8103 -6.09801 20.8593 489.839 429.103
-19.3575 -0.774324 20.4915 490.385 451.54
-18.5146 4.48964 20.0643 492.609 473.776
-17.0736 9.64515 18.1603 497.216 494.754
-14.8666 14.481 13.3382 504.777 512.703
-11.6038 18.6243 7.7777 516.932 527.491
-7.45612 21.8808 3.14322 533.229 539.309
-2.66954 24.1195 -0.803141 552.614 547.395
2.63366 24.3516 -4.50514 574.75 547.248
7.30167 22.7965 -0.702617 595.662 544.133
10.9936 19.5748 3.41633 612.857 533.93
14.0402 15.7773 8.13183 627.516 521.517
16.2462 11.4371 13.6704 638.828 507.132
17.6019 6.6981 18.4339 646.49 490.372
18.3056 1.78965 20.3699 651.01 470.952
18.5004 -3.16172 20.7069 653.139 450.222
18.3981 -8.11075 21.0884 654.001 429.462
-15.5239 -15.6006 0.243778 507.722 376.747
-13.7235 -17.409 -1.531 515.641 368.369
-11.2799 -18.2971 -2.9557 526.131 364.262
-8.66242 -18.3776 -4.29528 537.174 363.671
-6.09705 -17.8351 -5.50779 547.855 365.79
3.95567 -18.517 -5.32362 591.102 365.317
6.57941 -19.3298 -4.14834 602.706 363.217
9.31226 -19.5146 -2.78682 614.645 363.921
11.9156 -18.6771 -1.3898 625.777 368.952
13.8003 -16.7191 0.463554 633.612 378.857
-1.21207 -11.7532 -5.08642 567.3 392.955
-1.19036 -9.14909 -7.65629 566.379 402.371
-1.14785 -6.55718 -10.3155 565.538 411.684
-1.0704 -3.99255 -12.9753 564.853 420.888
-3.41079 -0.162845 -6.00638 554.835 441
-2.06872 -0.0250276 -6.95489 560.416 441.29
-0.698896 -0.0435349 -7.99988 566.141 440.864
0.785354 -0.23646 -6.93854 572.693 441.058
2.1993 -0.569401 -5.92544 578.973 440.612
-10.7539 -10.3926 -1.42465 526.604 398.858
-9.46826 -11.4696 -1.23434 532.408 394.708
-7.71777 -11.6794 -0.939634 539.998 394.406
-6.2305 -10.9912 -0.41454 546.267 397.996
-7.61625 -10.0102 -0.885275 540.02 401.539
-9.25241 -9.80073 -1.08778 532.932 401.924
4.96085 -11.8433 -0.688681 594.369 396.772
6.38257 -12.6252 -0.886625 600.627 393.658
8.13222 -12.5492 -0.98882 608.086 394.316
9.50323 -11.5847 -1.05014 613.706 398.679
8.0588 -10.9055 -0.924817 607.367 401.306
6.4214 -10.9491 -0.948893 600.362 400.732
-4.60569 10.3759 -2.75575 547.514 487.458
-3.43172 8.53708 -5.0465 552.686 478.481
-1.86992 6.76787 -6.67974 559.593 470.305
0.293765 6.77835 -8.14721 568.652 469.915
2.50153 6.33836 -6.52411 578.443 469.583
4.41584 7.72191 -4.90725 586.517 476.91
6.0304 9.25996 -2.75356 593.344 485.163
4.81849 10.7586 -3.99038 587.604 490.455
3.19122 11.8586 -5.39045 580.163 493.859
1.09563 12.4662 -6.78177 570.843 495.074
-1.139 12.3841 -5.51043 561.471 495.019
-3.07761 11.6712 -4.25376 553.523 492.349
-0.960084 8.93012 -4.95875 563.184 480.768
0.542742 8.5017 -7.07741 569.433 477.954
2.20698 8.52566 -5.00203 576.843 479.751
2.27481 9.41516 -4.44385 576.987 483.891
0.745527 9.95278 -6.32705 570.04 484.627
-0.779517 9.80279 -4.52737 563.797 484.782
3 20 21 23
3 21 22 23
3 0 1 36
3 15 16 45
3 0 17 36
3 16 26 45
3 17 18 37
3 25 26 44
3 17 36 37
3 26 44 45
3 18 19 38
3 24 25 43
3 18 37 38
3 25 43 44
3 19 20 38
3 23 24 43
3 20 21 39
3 22 23 42
3 20 38 39
3 23 42 43
3 21 22 27
3 21 27 39
3 22 27 42
3 27 28 42
3 27 28 39
3 28 42 47
3 28 39 40
3 1 36 41
3 15 45 46
3 1 2 41
3 14 15 46
3 28 29 40
3 28 29 47
3 2 40 41
3 14 46 47
3 2 29 40
3 14 29 47
3 2 3 29
3 13 14 29
3 29 30 31
3 29 30 35
3 3 29 31
3 13 29 35
3 30 32 33
3 30 33 34
3 30 31 32
3 30 34 35
3 3 4 31
3 12 13 35
3 4 5 48
3 11 12 54
3 5 6 48
3 10 11 54
3 6 48 59
3 10 54 55
3 6 7 59
3 9 10 55
3 7 58 59
3 9 55 56
3 8 57 58
3 8 56 57
3 7 8 58
3 8 9 56
3 4 31 48
3 12 35 54
3 31 48 49
3 35 53 54
3 31 49 50
3 35 52 53
3 31 32 50
3 34 35 52
3 32 33 50
3 33 34 52
3 33 50 51
3 33 51 52
3 48 49 60
3 49 60 50
3 50 60 61
3 50 51 61
3 51 52 61
3 61 62 52
3 52 53 62
3 53 54 62
3 54 55 63
3 55 56 63
3 56 63 64
3 56 57 64
3 64 65 57
3 57 58 65
3 58 59 65
3 48 59 65
