ply
format ascii 1.0
element vertex 66
property float x
property float y
property float z
property float u
property float v
element face 91
property list uchar int vertex_indices
end_header
-20.1284 -5.68723 20.8996 484.939 429.434
-19.6662 -0.576989 20.4431 484.964 451.928
-18.7989 4.47993 20.1566 486.816 474.417
-17.4083 9.3682 18.1276 490.919 495.588
-15.1528 13.8958 13.4091 498.788 514.305
-11.7527 17.7689 7.88512 511.919 530.214
-7.4579 20.7704 3.22763 529.417 543.005
-2.51609 22.7291 -0.788629 550.233 551.731
2.87329 22.7468 -4.30389 573.824 552.294
7.39215 21.5137 -0.939674 594.568 550.067
11.1476 18.8849 3.36212 612.545 541.815
14.3828 15.7107 8.17583 628.47 531.189
16.6737 11.8556 13.8191 640.54 517.572
17.8788 7.35229 18.5917 647.989 500.299
18.4688 2.45547 20.7907 652.672 479.917
18.791 -2.60695 21.1529 656.095 457.889
18.9213 -7.66263 21.6618 658.677 435.883
-16.0081 -15.4608 0.247642 505.419 378.761
-13.9533 -17.1159 -1.46296 515.032 371.488
-11.4009 -17.8538 -2.96111 526.508 368.539
-8.7529 -17.9475 -4.34057 538.165 368.519
-6.18846 -17.4605 -5.61492 549.234 371.073
3.26148 -18.1168 -5.27366 591.36 371.918
6.21991 -19.1564 -4.04672 604.957 369.003
9.33059 -19.5181 -2.642 618.978 369.213
12.3926 -18.8448 -1.22468 632.382 373.97
14.8358 -16.933 0.44479 642.584 384.064
-1.71759 -11.5966 -5.10989 566.789 398.837
-1.64904 -8.51806 -7.6969 565.7 411.283
-1.54585 -5.47454 -10.5008 564.761 423.492
-1.38618 -2.45369 -13.2731 564.083 435.636
-3.94637 0.801943 -6.18352 552.018 452.158
-2.55647 1.07255 -7.16832 557.992 453.441
-1.11238 1.07449 -8.15278 564.311 453.56
0.61953 0.770755 -7.2244 572.169 453.291
2.24786 0.223134 -6.1864 579.67 451.956
-11.807 -10.2254 -1.17066 521.879 402.799
-10.2566 -11.5359 -1.1191 529.257 397.635
-8.18542 -11.6506 -1.03098 538.48 397.954
-6.49635 -10.6475 -0.667346 545.596 403.178
-8.19014 -9.85257 -0.986438 537.763 405.897
-10.0738 -9.63135 -1.12339 529.326 406.096
5.5721 -11.8142 -0.96681 599.466 402.482
7.19548 -13.0381 -0.940111 607.133 397.716
9.30018 -13.0374 -0.736312 616.468 398.608
11.0517 -11.9566 -0.573571 623.815 404.108
9.32997 -11.2301 -0.839754 615.889 406.538
7.38954 -11.1672 -1.01127 607.259 406.003
-5.67034 10.0203 -2.7871 541.056 493.638
-3.94658 8.48681 -4.99958 549.118 486.551
-2.0009 7.15885 -6.66402 558.124 480.699
0.267959 7.15157 -8.25733 568.052 480.821
2.63554 6.62619 -6.56603 578.868 480.154
5.01362 7.45053 -4.9269 589.202 485.417
7.39615 8.43629 -2.90853 599.522 491.56
5.66194 10.0495 -4.10173 591.125 497.483
3.52486 11.1482 -5.34367 581.141 500.963
1.10838 11.7354 -6.53375 570.122 502.106
-1.40332 11.8641 -5.36789 559.038 502.237
-3.78162 11.3326 -4.24371 548.799 499.491
-1.50006 9.1448 -5.06107 559.691 490.352
0.520327 8.78711 -7.37384 568.601 488.517
2.77554 8.50386 -5.40805 578.846 488.996
2.83815 8.79219 -4.69554 579.065 490.607
0.641911 9.21172 -6.37968 569.049 490.875
-1.44478 9.3967 -4.51619 559.879 491.725
3 20 21 23
3 21 22 23
3 0 1 36
3 15 16 45
3 0 17 36
3 16 26 45
3 17 18 37
3 25 26 44
3 17 36 37
3 26 44 45
3 18 19 38
3 24 25 43
3 18 37 38
3 25 43 44
3 19 20 38
3 23 24 43
3 20 21 39
3 22 23 42
3 20 38 39
3 23 42 43
3 21 22 27
3 21 27 39
3 22 27 42
3 27 28 42
3 27 28 39
3 28 42 47
3 28 39 40
3 1 36 41
3 15 45 46
3 1 2 41
3 14 15 46
3 28 29 40
3 28 29 47
3 2 40 41
3 14 46 47
3 2 29 40
3 14 29 47
3 2 3 29
3 13 14 29
3 29 30 31
3 29 30 35
3 3 29 31
3 13 29 35
3 30 32 33
3 30 33 34
3 30 31 32
3 30 34 35
3 3 4 31
3 12 13 35
3 4 5 48
3 11 12 54
3 5 6 48
3 10 11 54
3 6 48 59
3 10 54 55
3 6 7 59
3 9 10 55
3 7 58 59
3 9 55 56
3 8 57 58
3 8 56 57
3 7 8 58
3 8 9 56
3 4 31 48
3 12 35 54
3 31 48 49
3 35 53 54
3 31 49 50
3 35 52 53
3 31 32 50
3 34 35 52
3 32 33 50
3 33 34 52
3 33 50 51
3 33 51 52
3 48 49 60
3 49 60 50
3 50 60 61
3 50 51 61
3 51 52 61
3 61 62 52
3 52 53 62
3 53 54 62
3 54 55 63
3 55 56 63
3 56 63 64
3 56 57 64
3 64 65 57
3 57 58 65
3 58 59 65
3 48 59 65
