ply
format ascii 1.0
element vertex 66
property float x
property float y
property float z
property float u
property float v
element face 91
property list uchar int vertex_indices
end_header
-19.9298 -5.90133 20.7175 484.292 431.109
-19.3572 -0.668879 20.3104 485.279 454.482
-18.3546 4.49034 19.8927 488.209 477.644
-16.7579 9.54334 18.1294 493.644 500.001
-14.42 14.2928 13.2399 502.052 520.057
-11.1659 18.4917 7.7849 514.642 537.701
-7.12298 21.9525 3.20644 531.102 552.593
-2.4004 24.3921 -0.816521 550.978 563.319
2.92589 24.6961 -4.4127 574.237 564.835
7.50276 23.1129 -0.756707 595.697 560.387
11.0673 19.869 3.43159 613.182 548.438
13.9446 16.0214 8.11167 627.833 533.784
16.0146 11.6877 13.5843 639.122 517.027
17.3078 6.98445 18.4705 646.958 498.187
18.0567 2.07056 20.2413 651.986 477.107
18.3967 -2.88837 20.6072 655 455.195
18.4546 -7.84559 21.1017 656.77 433.259
-15.4694 -15.8665 0.227223 504.312 380.307
-13.5026 -17.6842 -1.56157 513.398 372.08
-10.9287 -18.5772 -2.95614 524.988 368.295
-8.1856 -18.6581 -4.28399 537.108 368.209
-5.51456 -18.0492 -5.49178 548.723 371.226
3.29136 -18.7084 -5.22002 588.379 370.835
6.0944 -19.6131 -4.07914 601.35 367.997
9.01952 -19.8081 -2.75631 614.688 368.428
11.805 -18.9155 -1.42835 627.084 373.678
13.8679 -16.8784 0.452186 635.99 384.041
-1.36837 -11.9729 -5.00759 565.587 399.691
-1.28959 -8.98487 -7.66073 564.703 412.077
-1.18704 -6.00876 -10.3609 563.921 424.399
-1.047 -3.05404 -12.9663 563.327 436.671
-3.31069 0.344944 -6.09831 553.158 453.748
-2.06789 0.591149 -6.98178 558.529 454.867
-0.76609 0.616138 -7.93796 564.217 454.989
0.693722 0.370828 -6.95424 570.961 454.663
2.03509 -0.0705086 -5.97614 577.231 453.426
-10.6966 -10.7915 -1.40397 523.979 403.695
-9.4343 -11.8646 -1.22265 529.968 399.322
-7.71478 -12.0641 -0.917752 537.767 399.023
-6.26589 -11.3702 -0.429575 544.121 402.704
-7.63864 -10.4952 -0.872486 537.658 406.066
-9.22783 -10.2843 -1.06496 530.455 406.494
4.8642 -12.2426 -0.665629 594.174 401.821
6.27127 -13.0558 -0.833978 600.687 398.52
8.00957 -12.9665 -0.959671 608.426 399.357
9.37793 -12.0133 -1.01708 614.268 403.973
7.93088 -11.4276 -0.885582 607.637 406.234
6.32238 -11.4587 -0.921191 600.439 405.633
-4.0347 10.5215 -2.72467 547.427 500.228
-3.08678 8.70804 -5.07804 551.872 491.528
-1.71866 6.99006 -6.66732 558.276 483.652
0.252559 7.0099 -8.15849 566.888 483.74
2.28704 6.57387 -6.54562 576.348 482.954
4.04139 7.92915 -4.97971 584.027 490.071
5.49964 9.44249 -2.76763 590.423 498.049
4.35118 10.7142 -3.94613 584.748 502.973
2.89968 11.6611 -5.27478 577.789 506.308
1.04962 12.2354 -6.63939 569.149 507.854
-0.931858 12.1745 -5.36878 560.472 507.498
-2.64759 11.5878 -4.21349 553.121 504.827
-0.486023 9.12518 -4.91185 563.418 494.176
0.496857 8.71449 -7.06506 567.639 491.822
1.66936 8.76597 -5.01231 573.159 493.135
1.66506 9.25442 -4.46619 573.073 495.516
0.662839 9.67696 -6.29176 568.209 496.451
-0.294656 9.57558 -4.49588 564.201 496.393
3 20 21 23
3 21 22 23
3 0 1 36
3 15 16 45
3 0 17 36
3 16 26 45
3 17 18 37
3 25 26 44
3 17 36 37
3 26 44 45
3 18 19 38
3 24 25 43
3 18 37 38
3 25 43 44
3 19 20 38
3 23 24 43
3 20 21 39
3 22 23 42
3 20 38 39
3 23 42 43
3 21 22 27
3 21 27 39
3 22 27 42
3 27 28 42
3 27 28 39
3 28 42 47
3 28 39 40
3 1 36 41
3 15 45 46
3 1 2 41
3 14 15 46
3 28 29 40
3 28 29 47
3 2 40 41
3 14 46 47
3 2 29 40
3 14 29 47
3 2 3 29
3 13 14 29
3 29 30 31
3 29 30 35
3 3 29 31
3 13 29 35
3 30 32 33
3 30 33 34
3 30 31 32
3 30 34 35
3 3 4 31
3 12 13 35
3 4 5 48
3 11 12 54
3 5 6 48
3 10 11 54
3 6 48 59
3 10 54 55
3 6 7 59
3 9 10 55
3 7 58 59
3 9 55 56
3 8 57 58
3 8 56 57
3 7 8 58
3 8 9 56
3 4 31 48
3 12 35 54
3 31 48 49
3 35 53 54
3 31 49 50
3 35 52 53
3 31 32 50
3 34 35 52
3 32 33 50
3 33 34 52
3 33 50 51
3 33 51 52
3 48 49 60
3 49 60 50
3 50 60 61
3 50 51 61
3 51 52 61
3 61 62 52
3 52 53 62
3 53 54 62
3 54 55 63
3 55 56 63
3 56 63 64
3 56 57 64
3 64 65 57
3 57 58 65
3 58 59 65
3 48 59 65
