ply
format ascii 1.0
element vertex 66
property float x
property float y
property float z
property float u
property float v
element face 91
property list uchar int vertex_indices
end_header
-19.313 -5.53212 20.6245 489.613 431.131
-18.7615 -0.548835 20.2211 489.497 453.133
-17.8541 4.37588 19.8523 490.994 475.061
-16.4204 9.25296 18.0434 494.529 496.268
-14.3315 14.005 13.3651 500.398 515.72
-11.4189 18.3346 7.85253 509.942 533.257
-7.68398 21.9477 3.19434 523.671 548.47
-3.24778 24.6183 -0.829977 541.111 560.192
1.83764 25.2833 -4.51987 562.495 563.556
6.66398 23.8731 -0.796355 585.386 561.556
10.5127 20.6337 3.3539 604.948 551.264
13.6567 16.6673 8.04567 621.867 537.726
15.9294 12.0941 13.5801 635.414 521.549
17.2859 7.06588 18.4017 644.972 502.566
18.0256 1.86938 20.2896 651.238 481.008
18.3084 -3.33727 20.7572 655.174 458.445
18.2847 -8.56109 21.1098 657.736 435.603
-15.1264 -15.3911 0.178295 508.558 378.889
-13.3704 -17.1246 -1.58106 516.809 371.145
-10.9907 -17.9967 -2.96681 527.476 367.685
-8.42825 -18.1329 -4.32732 538.594 367.566
-5.9066 -17.6686 -5.54441 549.265 370.149
3.19337 -18.5018 -5.36419 590.02 370.824
5.86574 -19.4501 -4.17111 602.588 368.522
8.66458 -19.7334 -2.79583 615.425 369.305
11.3669 -19.0463 -1.41098 627.357 374.323
13.4421 -17.2835 0.374221 636.065 383.999
-1.20423 -11.9183 -5.04273 567.351 397.946
-1.02353 -9.16521 -7.63842 566.217 408.795
-0.828298 -6.42193 -10.2989 565.138 419.574
-0.618048 -3.70324 -12.8891 564.153 430.288
-2.93164 -0.259454 -5.83477 553.747 448.093
-1.66448 -0.105575 -6.886 559.052 448.809
-0.357805 -0.106155 -7.97162 564.601 448.846
1.03214 -0.342517 -6.88885 571.112 449.024
2.34418 -0.724428 -5.91377 577.326 448.467
-10.8011 -10.5566 -1.41224 524.969 401.373
-9.62255 -11.654 -1.18335 530.783 397.209
-7.95473 -11.9492 -0.876713 538.383 396.849
-6.49806 -11.4441 -0.563683 544.652 399.92
-7.7858 -10.468 -0.949182 538.381 403.416
-9.33827 -10.1819 -1.06585 531.338 403.89
4.86581 -12.4617 -0.496013 595.501 400.78
6.2537 -13.2355 -0.811046 601.962 397.853
7.97457 -13.1687 -1.01609 609.505 398.844
9.35435 -12.302 -1.15702 615.156 403.233
7.93849 -11.7006 -0.867858 608.65 405.373
6.32943 -11.7172 -0.808632 601.545 404.58
-3.83513 10.7136 -2.8286 544.965 497.6
-2.92066 8.76555 -5.01305 549.502 488.295
-1.53116 6.92786 -6.58805 556.221 480.018
0.521806 6.94934 -8.1279 564.965 480.262
2.598 6.52875 -6.54708 574.715 480.21
4.31684 8.04107 -4.9568 581.927 488.513
5.64078 9.69064 -2.73403 587.46 497.569
4.40792 10.8891 -4.09348 581.108 501.559
2.90782 11.7711 -5.34051 573.753 504.088
1.02124 12.3129 -6.70808 564.829 504.874
-0.87211 12.1895 -5.37272 556.798 504.149
-2.50166 11.6767 -4.14636 550.104 501.773
-0.56301 9.00667 -4.85184 559.859 490.543
0.67398 8.58227 -6.98801 565.079 488.127
1.99978 8.68136 -4.97878 571.343 490.241
1.9192 9.4436 -4.50586 570.712 493.81
0.766707 9.9535 -6.14641 564.995 494.655
-0.393558 9.75005 -4.43618 560.332 494.117
3 20 21 23
3 21 22 23
3 0 1 36
3 15 16 45
3 0 17 36
3 16 26 45
3 17 18 37
3 25 26 44
3 17 36 37
3 26 44 45
3 18 19 38
3 24 25 43
3 18 37 38
3 25 43 44
3 19 20 38
3 23 24 43
3 20 21 39
3 22 23 42
3 20 38 39
3 23 42 43
3 21 22 27
3 21 27 39
3 22 27 42
3 27 28 42
3 27 28 39
3 28 42 47
3 28 39 40
3 1 36 41
3 15 45 46
3 1 2 41
3 14 15 46
3 28 29 40
3 28 29 47
3 2 40 41
3 14 46 47
3 2 29 40
3 14 29 47
3 2 3 29
3 13 14 29
3 29 30 31
3 29 30 35
3 3 29 31
3 13 29 35
3 30 32 33
3 30 33 34
3 30 31 32
3 30 34 35
3 3 4 31
3 12 13 35
3 4 5 48
3 11 12 54
3 5 6 48
3 10 11 54
3 6 48 59
3 10 54 55
3 6 7 59
3 9 10 55
3 7 58 59
3 9 55 56
3 8 57 58
3 8 56 57
3 7 8 58
3 8 9 56
3 4 31 48
3 12 35 54
3 31 48 49
3 35 53 54
3 31 49 50
3 35 52 53
3 31 32 50
3 34 35 52
3 32 33 50
3 33 34 52
3 33 50 51
3 33 51 52
3 48 49 60
3 49 60 50
3 50 60 61
3 50 51 61
3 51 52 61
3 61 62 52
3 52 53 62
3 53 54 62
3 54 55 63
3 55 56 63
3 56 63 64
3 56 57 64
3 64 65 57
3 57 58 65
3 58 59 65
3 48 59 65
