ply
format ascii 1.0
element vertex 66
property float x
property float y
property float z
property float u
property float v
element face 91
property list uchar int vertex_indices
end_header
-19.2888 -5.55259 20.5797 489.077 430.355
-18.7977 -0.56404 20.2079 488.431 452.969
-17.9347 4.36762 19.8216 489.496 475.515
-16.5119 9.26631 18.1217 492.714 497.62
-14.4028 14.051 13.3517 498.173 518.205
-11.4808 18.4818 7.85342 507.285 537.293
-7.7528 22.271 3.22386 520.659 554.29
-3.25321 25.0562 -0.813639 538.256 567.419
1.93915 25.7422 -4.56621 560.231 571.557
6.8318 24.3125 -0.819473 584.281 569.317
10.7342 21.0398 3.35 604.997 558.427
13.8854 16.9853 8.0387 622.904 543.846
16.1353 12.3257 13.595 637.33 526.448
17.3956 7.17448 18.5827 647.379 506.061
18.0585 1.79956 20.3535 653.879 482.925
18.289 -3.57605 20.8958 658.053 459.014
18.2293 -8.96657 21.2583 660.869 434.806
-15.0638 -15.2184 0.248374 507.389 379.887
-13.346 -17.122 -1.63912 515.64 371.35
-10.9236 -18.1098 -3.01151 526.728 367.544
-8.28392 -18.2996 -4.3211 538.378 367.481
-5.69341 -17.8257 -5.49757 549.479 370.45
3.03681 -18.7992 -5.26491 589.575 370.71
5.84837 -19.8183 -4.13429 603.196 368.077
8.79891 -20.0857 -2.81234 617.089 368.995
11.6216 -19.2498 -1.44806 629.806 374.847
13.7164 -17.244 0.457344 638.749 385.842
-1.33267 -12.1142 -5.02127 566.194 398.723
-1.12283 -9.19535 -7.65143 564.738 410.843
-0.892816 -6.28577 -10.3318 563.363 422.91
-0.647176 -3.40006 -12.9337 562.096 434.912
-3.1258 0.0667624 -5.96962 551.072 452.365
-1.81321 0.254194 -6.92656 556.617 453.471
-0.450661 0.246166 -7.93705 562.48 453.697
1.03101 -0.00876084 -6.95351 569.619 453.755
2.42181 -0.442133 -6.05883 576.419 452.921
-10.3787 -10.3058 -1.38884 525.374 403.784
-9.15352 -11.5826 -1.29922 531.648 398.698
-7.35598 -11.8323 -1.04878 539.992 398.619
-5.81452 -11.1131 -0.569261 546.712 402.883
-7.18231 -10.0815 -0.945458 539.842 406.661
-8.82343 -9.79873 -1.07292 532.224 407.025
4.2843 -12.1451 -0.468745 592.991 403.534
5.74091 -13.1967 -0.96267 600.011 399.326
7.60676 -13.1956 -1.11997 608.403 400.235
9.08837 -12.1793 -1.14256 614.537 405.586
7.58695 -11.4158 -0.868246 607.407 408.372
5.87053 -11.3817 -0.795872 599.646 407.663
-4.34211 10.1695 -2.68865 540.983 498.803
-3.21455 8.3755 -4.96208 546.388 490.281
-1.66857 6.76303 -6.57345 553.785 483.091
0.438255 6.81241 -8.05547 562.84 483.755
2.57521 6.33121 -6.60754 573.208 483.34
4.44071 7.58878 -4.96509 581.448 490.72
6.00013 9.01579 -2.61072 588.424 499.022
4.67849 10.4773 -4.06543 581.2 504.285
3.00899 11.5427 -5.3998 572.658 507.632
0.921999 12.1328 -6.74312 562.487 508.612
-1.15506 12.0208 -5.37683 553.566 507.63
-2.95198 11.3719 -4.08548 546.186 504.337
-0.848777 8.85779 -4.8131 556.867 493.759
0.584054 8.5015 -6.95774 562.898 491.945
2.09513 8.474 -5.01884 570.333 493.47
2.06334 9.11728 -4.54195 569.978 496.569
0.638009 9.62364 -6.27093 562.73 497.345
-0.78228 9.48988 -4.40887 556.941 496.827
3 20 21 23
3 21 22 23
3 0 1 36
3 15 16 45
3 0 17 36
3 16 26 45
3 17 18 37
3 25 26 44
3 17 36 37
3 26 44 45
3 18 19 38
3 24 25 43
3 18 37 38
3 25 43 44
3 19 20 38
3 23 24 43
3 20 21 39
3 22 23 42
3 20 38 39
3 23 42 43
3 21 22 27
3 21 27 39
3 22 27 42
3 27 28 42
3 27 28 39
3 28 42 47
3 28 39 40
3 1 36 41
3 15 45 46
3 1 2 41
3 14 15 46
3 28 29 40
3 28 29 47
3 2 40 41
3 14 46 47
3 2 29 40
3 14 29 47
3 2 3 29
3 13 14 29
3 29 30 31
3 29 30 35
3 3 29 31
3 13 29 35
3 30 32 33
3 30 33 34
3 30 31 32
3 30 34 35
3 3 4 31
3 12 13 35
3 4 5 48
3 11 12 54
3 5 6 48
3 10 11 54
3 6 48 59
3 10 54 55
3 6 7 59
3 9 10 55
3 7 58 59
3 9 55 56
3 8 57 58
3 8 56 57
3 7 8 58
3 8 9 56
3 4 31 48
3 12 35 54
3 31 48 49
3 35 53 54
3 31 49 50
3 35 52 53
3 31 32 50
3 34 35 52
3 32 33 50
3 33 34 52
3 33 50 51
3 33 51 52
3 48 49 60
3 49 60 50
3 50 60 61
3 50 51 61
3 51 52 61
3 61 62 52
3 52 53 62
3 53 54 62
3 54 55 63
3 55 56 63
3 56 63 64
3 56 57 64
3 64 65 57
3 57 58 65
3 58 59 65
3 48 59 65
