ply
format ascii 1.0
element vertex 66
property float x
property float y
property float z
property float u
property float v
element face 91
property list uchar int vertex_indices
end_header
-19.9593 -6.2236 20.8642 487.073 432.184
-19.4826 -0.895378 20.5204 488.029 454.622
-18.6164 4.36849 20.0692 490.648 476.789
-17.1343 9.53734 18.1864 495.721 497.781
-14.8962 14.4058 13.3342 503.674 515.806
-11.6282 18.6017 7.79827 516.069 530.741
-7.49177 21.9254 3.18997 532.474 542.701
-2.72806 24.2543 -0.805799 551.841 550.932
2.57472 24.5862 -4.5577 573.935 550.949
7.28554 23.0438 -0.713662 594.912 547.591
11.0363 19.8306 3.43006 612.15 537.174
14.1254 15.9989 8.1002 626.752 524.347
16.3765 11.6096 13.606 637.994 509.527
17.7564 6.81394 18.4433 645.497 492.426
18.4705 1.85743 20.3362 649.776 472.719
18.6616 -3.12032 20.7107 651.613 451.899
18.555 -8.09883 21.0783 652.175 431.021
-15.637 -15.62 0.226004 504.528 380.455
-13.7251 -17.536 -1.55973 512.829 371.573
-11.1308 -18.4751 -2.97138 523.911 367.176
-8.34953 -18.5387 -4.29479 535.634 366.574
-5.63556 -17.9007 -5.4853 546.952 369.013
3.44242 -18.5338 -5.28228 585.925 368.023
6.18828 -19.4333 -4.13628 598.002 365.392
9.06217 -19.6326 -2.81353 610.514 365.856
11.7967 -18.7518 -1.4396 622.227 370.903
13.7806 -16.7002 0.467755 630.577 381.106
-1.18135 -11.8639 -5.05801 564.886 395.613
-1.11238 -9.14665 -7.64444 564.295 405.544
-1.02558 -6.44082 -10.3143 563.771 415.38
-0.908455 -3.76335 -12.9871 563.382 425.098
-3.13219 -0.143362 -5.97447 554.139 444.354
-1.86134 -0.0449709 -6.92831 559.423 444.404
-0.57074 -0.0833188 -7.98942 564.802 443.813
0.811881 -0.246314 -6.90002 570.898 444.03
2.12986 -0.534027 -5.90571 576.728 443.65
-10.7197 -10.3049 -1.43036 524.294 402.798
-9.40174 -11.3938 -1.26573 530.165 398.514
-7.61625 -11.6195 -0.967863 537.886 398.049
-6.07462 -10.9497 -0.43475 544.422 401.48
-7.50181 -9.99458 -0.895519 538.07 404.996
-9.16585 -9.77274 -1.08635 530.884 405.531
4.56138 -11.7156 -0.622792 590.03 399.957
6.03474 -12.5045 -0.916706 596.444 396.689
7.8233 -12.443 -1.05673 604.061 397.172
9.23903 -11.4856 -1.09766 609.924 401.446
7.73972 -10.8374 -0.923773 603.41 404.04
6.06979 -10.881 -0.911694 596.279 403.574
-4.57035 10.3188 -2.7599 546.4 490.392
-3.376 8.50497 -5.05189 551.543 481.508
-1.81144 6.75264 -6.65997 558.352 473.368
0.35737 6.77252 -8.10361 567.423 472.94
2.55678 6.33264 -6.51718 577.134 472.431
4.45575 7.70561 -4.92964 585.208 479.549
6.06047 9.22723 -2.74223 592.078 487.614
4.83191 10.6838 -4.00295 586.366 492.797
3.19311 11.7362 -5.38459 578.962 496.123
1.11323 12.3236 -6.77058 569.761 497.4
-1.09495 12.232 -5.49671 560.512 497.414
-3.02029 11.551 -4.25714 552.582 494.959
-0.926577 8.92651 -4.95731 561.949 483.774
0.598331 8.51512 -7.0459 568.262 481.012
2.2607 8.53903 -4.98112 575.652 482.668
2.3168 9.27109 -4.4563 575.822 486.101
0.779346 9.76366 -6.33946 568.891 486.765
-0.754442 9.63943 -4.53286 562.606 487.084
3 20 21 23
3 21 22 23
3 0 1 36
3 15 16 45
3 0 17 36
3 16 26 45
3 17 18 37
3 25 26 44
3 17 36 37
3 26 44 45
3 18 19 38
3 24 25 43
3 18 37 38
3 25 43 44
3 19 20 38
3 23 24 43
3 20 21 39
3 22 23 42
3 20 38 39
3 23 42 43
3 21 22 27
3 21 27 39
3 22 27 42
3 27 28 42
3 27 28 39
3 28 42 47
3 28 39 40
3 1 36 41
3 15 45 46
3 1 2 41
3 14 15 46
3 28 29 40
3 28 29 47
3 2 40 41
3 14 46 47
3 2 29 40
3 14 29 47
3 2 3 29
3 13 14 29
3 29 30 31
3 29 30 35
3 3 29 31
3 13 29 35
3 30 32 33
3 30 33 34
3 30 31 32
3 30 34 35
3 3 4 31
3 12 13 35
3 4 5 48
3 11 12 54
3 5 6 48
3 10 11 54
3 6 48 59
3 10 54 55
3 6 7 59
3 9 10 55
3 7 58 59
3 9 55 56
3 8 57 58
3 8 56 57
3 7 8 58
3 8 9 56
3 4 31 48
3 12 35 54
3 31 48 49
3 35 53 54
3 31 49 50
3 35 52 53
3 31 32 50
3 34 35 52
3 32 33 50
3 33 34 52
3 33 50 51
3 33 51 52
3 48 49 60
3 49 60 50
3 50 60 61
3 50 51 61
3 51 52 61
3 61 62 52
3 52 53 62
3 53 54 62
3 54 55 63
3 55 56 63
3 56 63 64
3 56 57 64
3 64 65 57
3 57 58 65
3 58 59 65
3 48 59 65
