ply
format ascii 1.0
element vertex 66
property float x
property float y
property float z
property float u
property float v
element face 91
property list uchar int vertex_indices
end_header
-20.1745 -5.62804 20.9365 482.986 430.214
-19.7126 -0.50319 20.5093 482.951 452.742
-18.8551 4.57029 20.2092 484.694 475.263
-17.4759 9.47091 18.1676 488.744 496.376
-15.2349 13.9955 13.4134 496.648 514.847
-11.8417 17.8429 7.90763 509.895 530.424
-7.54869 20.8011 3.25611 527.519 542.862
-2.61325 22.7112 -0.773469 548.434 551.247
2.75666 22.7223 -4.34253 572.057 551.671
7.32994 21.5003 -0.908975 592.938 549.783
11.1421 18.8728 3.38664 611.051 541.83
14.4172 15.6738 8.20045 627.038 531.404
16.7232 11.7752 13.8366 639.049 517.918
17.9424 7.24097 18.5944 646.469 500.775
18.5421 2.32694 20.8085 651.193 480.47
18.8413 -2.75129 21.1674 654.576 458.414
18.9274 -7.8232 21.6417 657.017 436.359
-16.0822 -15.2016 0.245901 504.099 379.565
-14.0465 -16.9915 -1.49837 513.76 371.638
-11.4473 -17.8343 -2.97768 525.545 368.232
-8.72081 -17.9757 -4.33755 537.617 368.022
-6.07019 -17.5073 -5.59666 549.112 370.515
3.17025 -18.0964 -5.31405 590.272 371.714
6.14276 -19.1425 -4.0731 603.904 368.893
9.27572 -19.4954 -2.6635 617.976 369.269
12.3583 -18.8198 -1.23897 631.41 374.159
14.8208 -16.902 0.419758 641.61 384.385
-1.60763 -11.76 -5.10107 566.577 397.816
-1.53969 -8.66268 -7.68824 565.525 410.207
-1.4392 -5.60119 -10.5011 564.621 422.343
-1.28682 -2.56322 -13.293 563.958 434.406
-3.82254 0.711406 -6.19736 551.708 451.29
-2.44516 0.934449 -7.16091 557.676 452.345
-1.02372 0.916834 -8.13767 563.936 452.351
0.666431 0.65159 -7.2117 571.564 452.305
2.27242 0.168869 -6.17088 578.912 451.325
-11.8358 -10.1094 -1.17141 520.792 402.961
-10.1757 -11.4899 -1.14873 528.698 397.553
-7.97073 -11.6103 -1.06491 538.512 397.936
-6.16179 -10.5486 -0.650829 546.111 403.526
-7.97976 -9.7457 -0.983754 537.725 406.178
-9.98497 -9.50375 -1.12207 528.745 406.382
5.40167 -11.6665 -0.958607 597.744 403.028
7.12843 -12.9547 -0.959128 605.907 398.041
9.36144 -12.9705 -0.766784 615.808 398.948
11.2192 -11.8266 -0.607255 623.58 404.795
9.38947 -11.0729 -0.862681 615.165 407.264
7.3335 -11.019 -1.02871 606.034 406.607
-5.68242 10.0537 -2.7874 539.855 493.341
-3.9871 8.44874 -5.00004 547.915 485.864
-2.04247 7.06121 -6.66048 557.014 479.713
0.249694 7.05416 -8.24018 567.1 479.815
2.63126 6.55837 -6.56315 577.913 479.396
4.98218 7.48193 -4.9192 588.018 485.195
7.29201 8.58285 -2.90681 597.885 491.939
5.54707 10.1124 -4.11806 589.494 497.388
3.42403 11.1474 -5.36853 579.626 500.491
1.03064 11.696 -6.57649 568.759 501.367
-1.45265 11.8163 -5.39192 557.765 501.495
-3.80126 11.3093 -4.23835 547.619 498.9
-1.67312 9.07192 -5.06247 557.907 489.491
0.481936 8.69209 -7.36049 567.506 487.546
2.85566 8.45706 -5.37171 578.192 488.424
2.89898 8.78941 -4.6787 578.279 490.243
0.5969 9.18564 -6.41956 567.855 490.224
-1.61199 9.37153 -4.52591 558.079 491.097
3 20 21 23
3 21 22 23
3 0 1 36
3 15 16 45
3 0 17 36
3 16 26 45
3 17 18 37
3 25 26 44
3 17 36 37
3 26 44 45
3 18 19 38
3 24 25 43
3 18 37 38
3 25 43 44
3 19 20 38
3 23 24 43
3 20 21 39
3 22 23 42
3 20 38 39
3 23 42 43
3 21 22 27
3 21 27 39
3 22 27 42
3 27 28 42
3 27 28 39
3 28 42 47
3 28 39 40
3 1 36 41
3 15 45 46
3 1 2 41
3 14 15 46
3 28 29 40
3 28 29 47
3 2 40 41
3 14 46 47
3 2 29 40
3 14 29 47
3 2 3 29
3 13 14 29
3 29 30 31
3 29 30 35
3 3 29 31
3 13 29 35
3 30 32 33
3 30 33 34
3 30 31 32
3 30 34 35
3 3 4 31
3 12 13 35
3 4 5 48
3 11 12 54
3 5 6 48
3 10 11 54
3 6 48 59
3 10 54 55
3 6 7 59
3 9 10 55
3 7 58 59
3 9 55 56
3 8 57 58
3 8 56 57
3 7 8 58
3 8 9 56
3 4 31 48
3 12 35 54
3 31 48 49
3 35 53 54
3 31 49 50
3 35 52 53
3 31 32 50
3 34 35 52
3 32 33 50
3 33 34 52
3 33 50 51
3 33 51 52
3 48 49 60
3 49 60 50
3 50 60 61
3 50 51 61
3 51 52 61
3 61 62 52
3 52 53 62
3 53 54 62
3 54 55 63
3 55 56 63
3 56 63 64
3 56 57 64
3 64 65 57
3 57 58 65
3 58 59 65
3 48 59 65
