ply
format ascii 1.0
element vertex 66
property float x
property float y
property float z
property float u
property float v
element face 91
property list uchar int vertex_indices
end_header
-19.8544 -5.96062 20.8343 489.841 429.149
-19.394 -0.795165 20.4227 490.516 450.948
-18.5441 4.31143 20.0443 492.864 472.6
-17.0989 9.32146 18.142 497.578 493.347
-14.8779 14.0583 13.3624 505.297 511.922
-11.6417 18.1763 7.8194 517.385 527.79
-7.55038 21.4584 3.17832 533.419 540.686
-2.83366 23.7824 -0.808535 552.421 549.937
2.41703 24.131 -4.49186 574.201 551.072
7.08462 22.7134 -0.787669 594.839 547.655
10.8431 19.6542 3.39578 612.063 537.282
14.0093 16.009 8.09228 626.972 524.508
16.3561 11.7805 13.6234 638.642 509.424
17.759 7.04551 18.4989 646.338 491.713
18.4724 2.07018 20.4705 650.801 471.628
18.7198 -2.95615 20.8642 653.099 450.569
18.7006 -7.98466 21.2603 654.265 429.443
-15.71 -15.6687 0.264512 507.222 380.478
-13.8113 -17.4868 -1.51025 515.506 372.475
-11.2781 -18.3553 -2.95273 526.302 368.773
-8.58109 -18.4225 -4.29438 537.616 368.541
-5.95461 -17.8313 -5.50223 548.49 371.136
3.37818 -18.5589 -5.24388 588.368 370.265
6.22672 -19.5167 -4.10018 600.846 367.326
9.20692 -19.7615 -2.77122 613.737 367.51
12.0586 -18.8782 -1.38394 625.821 372.466
14.1456 -16.7754 0.505821 634.425 382.619
-1.39502 -11.6459 -5.0761 566.451 398.523
-1.302 -8.8759 -7.66553 565.865 409.199
-1.1871 -6.12144 -10.3606 565.363 419.77
-1.03535 -3.39341 -13.0353 565.026 430.246
-3.38669 0.135226 -5.98704 555.064 447.569
-2.05418 0.293734 -6.99058 560.566 448.125
-0.690914 0.266225 -8.06093 566.235 447.873
0.816298 0.0421021 -7.0001 572.827 447.702
2.23999 -0.356695 -6.0363 579.093 446.734
-10.9044 -10.2559 -1.35006 526.159 403.806
-9.63013 -11.4068 -1.20189 531.868 399.282
-7.85689 -11.6062 -0.964948 539.483 398.936
-6.35647 -10.8663 -0.521123 545.74 402.59
-7.74884 -9.91137 -0.934165 539.542 406.147
-9.38152 -9.69669 -1.0999 532.53 406.62
4.78011 -11.7804 -0.663646 593.279 401.17
6.20843 -12.6967 -0.942441 599.534 397.497
8.00057 -12.6623 -0.983728 607.139 398.03
9.43324 -11.6936 -0.953273 613.002 402.466
7.96106 -10.9904 -0.881506 606.585 405.141
6.29706 -10.9879 -0.888005 599.511 404.774
-4.89314 10.2041 -2.77737 546.659 491.18
-3.4966 8.51152 -5.03913 552.718 483.394
-1.79088 6.90666 -6.65731 560.151 476.315
0.433161 6.92109 -8.15606 569.415 476.258
2.70929 6.42573 -6.53742 579.409 475.343
4.78675 7.57848 -4.93948 588.163 481.352
6.6746 8.85828 -2.748 596.155 488.101
5.30142 10.5053 -4.04484 589.765 494.227
3.47099 11.6901 -5.38217 581.536 498.277
1.20691 12.3276 -6.71987 571.594 499.913
-1.14706 12.2772 -5.46644 561.755 499.688
-3.24564 11.5695 -4.24344 553.155 496.725
-0.96777 9.02707 -4.98209 563.352 486.17
0.679731 8.64719 -7.12913 570.179 484.045
2.48283 8.54575 -5.13266 578.116 484.847
2.55659 9.2215 -4.55133 578.34 487.965
0.836029 9.74924 -6.31286 570.682 489.083
-0.84772 9.68411 -4.51531 563.763 489.171
3 20 21 23
3 21 22 23
3 0 1 36
3 15 16 45
3 0 17 36
3 16 26 45
3 17 18 37
3 25 26 44
3 17 36 37
3 26 44 45
3 18 19 38
3 24 25 43
3 18 37 38
3 25 43 44
3 19 20 38
3 23 24 43
3 20 21 39
3 22 23 42
3 20 38 39
3 23 42 43
3 21 22 27
3 21 27 39
3 22 27 42
3 27 28 42
3 27 28 39
3 28 42 47
3 28 39 40
3 1 36 41
3 15 45 46
3 1 2 41
3 14 15 46
3 28 29 40
3 28 29 47
3 2 40 41
3 14 46 47
3 2 29 40
3 14 29 47
3 2 3 29
3 13 14 29
3 29 30 31
3 29 30 35
3 3 29 31
3 13 29 35
3 30 32 33
3 30 33 34
3 30 31 32
3 30 34 35
3 3 4 31
3 12 13 35
3 4 5 48
3 11 12 54
3 5 6 48
3 10 11 54
3 6 48 59
3 10 54 55
3 6 7 59
3 9 10 55
3 7 58 59
3 9 55 56
3 8 57 58
3 8 56 57
3 7 8 58
3 8 9 56
3 4 31 48
3 12 35 54
3 31 48 49
3 35 53 54
3 31 49 50
3 35 52 53
3 31 32 50
3 34 35 52
3 32 33 50
3 33 34 52
3 33 50 51
3 33 51 52
3 48 49 60
3 49 60 50
3 50 60 61
3 50 51 61
3 51 52 61
3 61 62 52
3 52 53 62
3 53 54 62
3 54 55 63
3 55 56 63
3 56 63 64
3 56 57 64
3 64 65 57
3 57 58 65
3 58 59 65
3 48 59 65
