ply
format ascii 1.0
element vertex 66
property float x
property float y
property float z
property float u
property float v
element face 91
property list uchar int vertex_indices
end_header
-19.8247 -5.83754 20.8391 488.002 432.564
-19.295 -0.67917 20.4268 488.614 455.023
-18.3883 4.41747 20.0522 490.906 477.347
-16.9313 9.41136 18.0952 495.461 498.557
-14.6928 14.1293 13.3848 503.211 517.351
-11.4408 18.2181 7.84089 515.518 533.27
-7.35431 21.4806 3.17295 531.863 546.301
-2.65038 23.7843 -0.843247 551.307 555.68
2.58583 24.097 -4.44376 573.782 556.752
7.17877 22.6366 -0.831889 594.862 553.691
10.8651 19.5613 3.36728 612.55 543.614
13.952 15.9135 8.12226 627.856 531.147
16.2023 11.6872 13.6876 639.769 516.327
17.5402 6.98646 18.4172 647.728 498.715
18.229 2.08251 20.4407 652.579 478.591
18.5061 -2.87793 20.8012 655.442 457.216
18.5265 -7.84183 21.24 657.188 435.79
-15.586 -15.6481 0.189333 507.339 380.159
-13.6234 -17.3505 -1.50444 516.31 372.437
-11.0895 -18.1475 -2.95159 527.527 368.973
-8.41775 -18.2142 -4.32431 539.124 368.777
-5.81007 -17.6613 -5.5646 550.254 371.336
3.37109 -18.3288 -5.32792 590.834 371.363
6.11605 -19.2458 -4.12805 603.332 368.836
8.98656 -19.5114 -2.74573 616.194 369.286
11.765 -18.8 -1.34316 628.337 373.982
13.9008 -16.9638 0.412343 637.336 383.577
-1.31384 -11.6567 -5.05035 568.129 399.193
-1.23057 -8.8741 -7.62973 567.289 410.002
-1.12595 -6.11243 -10.3545 566.532 420.651
-0.98705 -3.37815 -13.065 565.937 431.198
-3.41786 0.0522089 -5.97472 554.992 449.162
-2.07161 0.259475 -6.99366 560.719 449.942
-0.683577 0.266352 -8.06224 566.688 449.835
0.840875 0.0195178 -6.99526 573.592 449.788
2.27726 -0.410682 -5.93958 580.167 448.907
-11.2009 -10.5362 -1.28822 524.776 403.034
-9.90485 -11.6362 -1.12828 530.845 398.716
-8.14517 -11.8506 -0.921822 538.67 398.428
-6.65297 -11.1691 -0.568675 545.047 402.046
-8.05856 -10.2931 -0.921253 538.547 405.253
-9.68824 -10.0677 -1.06569 531.297 405.661
5.25306 -12.1355 -0.751832 597.645 401.383
6.68586 -12.9734 -0.850618 604.199 398.114
8.46615 -12.9065 -0.872862 611.996 398.94
9.89573 -11.9668 -0.891759 617.971 403.47
8.41542 -11.373 -0.864817 611.279 405.622
6.75902 -11.3895 -0.919661 604 405.013
-4.94549 10.3426 -2.81526 545.332 495.271
-3.54942 8.66451 -5.01652 551.746 487.215
-1.84109 7.08455 -6.62548 559.57 479.995
0.364858 7.11552 -8.15448 569.07 480
2.60997 6.63483 -6.51239 579.284 479.457
4.66666 7.80286 -4.91957 588.132 486.025
6.52744 9.10909 -2.83155 596.133 493.398
5.12899 10.6547 -4.08107 589.341 499.055
3.30416 11.7335 -5.34697 580.825 502.536
1.10629 12.3326 -6.64538 570.821 503.793
-1.20297 12.2852 -5.42059 560.837 503.524
-3.28596 11.6371 -4.27733 552.031 500.659
-1.04072 9.17006 -4.99925 562.606 490.2
0.595691 8.81962 -7.20458 569.646 488.009
2.38005 8.72172 -5.12722 577.764 489.224
2.41625 9.26914 -4.55018 577.815 491.929
0.742552 9.76322 -6.30909 570.093 492.645
-0.905705 9.69304 -4.53363 563.086 492.769
3 20 21 23
3 21 22 23
3 0 1 36
3 15 16 45
3 0 17 36
3 16 26 45
3 17 18 37
3 25 26 44
3 17 36 37
3 26 44 45
3 18 19 38
3 24 25 43
3 18 37 38
3 25 43 44
3 19 20 38
3 23 24 43
3 20 21 39
3 22 23 42
3 20 38 39
3 23 42 43
3 21 22 27
3 21 27 39
3 22 27 42
3 27 28 42
3 27 28 39
3 28 42 47
3 28 39 40
3 1 36 41
3 15 45 46
3 1 2 41
3 14 15 46
3 28 29 40
3 28 29 47
3 2 40 41
3 14 46 47
3 2 29 40
3 14 29 47
3 2 3 29
3 13 14 29
3 29 30 31
3 29 30 35
3 3 29 31
3 13 29 35
3 30 32 33
3 30 33 34
3 30 31 32
3 30 34 35
3 3 4 31
3 12 13 35
3 4 5 48
3 11 12 54
3 5 6 48
3 10 11 54
3 6 48 59
3 10 54 55
3 6 7 59
3 9 10 55
3 7 58 59
3 9 55 56
3 8 57 58
3 8 56 57
3 7 8 58
3 8 9 56
3 4 31 48
3 12 35 54
3 31 48 49
3 35 53 54
3 31 49 50
3 35 52 53
3 31 32 50
3 34 35 52
3 32 33 50
3 33 34 52
3 33 50 51
3 33 51 52
3 48 49 60
3 49 60 50
3 50 60 61
3 50 51 61
3 51 52 61
3 61 62 52
3 52 53 62
3 53 54 62
3 54 55 63
3 55 56 63
3 56 63 64
3 56 57 64
3 64 65 57
3 57 58 65
3 58 59 65
3 48 59 65
