ply
format ascii 1.0
element vertex 66
property float x
property float y
property float z
property float u
property float v
element face 91
property list uchar int vertex_indices
end_header
-20.0749 -6.23933 20.9199 489.985 428.806
-19.6671 -0.927012 20.5685 490.73 450.777
-18.8464 4.32382 20.1413 493.21 472.517
-17.3608 9.46765 18.2259 498.345 493.106
-15.0775 14.286 13.3602 506.578 510.855
-11.7476 18.4011 7.80514 519.253 525.47
-7.55312 21.6243 3.20058 535.807 537.032
-2.74807 23.8523 -0.767605 555.161 544.901
2.55866 24.1295 -4.5585 576.978 544.831
7.25787 22.6461 -0.684562 597.342 541.53
11.0324 19.5391 3.45999 614.14 531.475
14.1761 15.8241 8.12204 628.452 519.073
16.5069 11.5443 13.6367 639.541 504.657
17.9539 6.81425 18.5234 646.938 487.883
18.6904 1.88558 20.4566 651.086 468.556
18.8685 -3.07649 20.8109 652.737 448.137
18.7416 -8.03225 21.1697 653.109 427.698
-15.818 -15.6942 0.292083 507.374 378.883
-13.933 -17.6689 -1.52107 515.438 369.979
-11.334 -18.6613 -2.9518 526.364 365.485
-8.53155 -18.754 -4.25759 537.999 364.834
-5.80009 -18.1192 -5.44335 549.221 367.264
3.46863 -18.7423 -5.2372 588.221 366.268
6.32956 -19.6368 -4.10967 600.491 363.622
9.31882 -19.7842 -2.81558 613.186 364.195
12.1344 -18.7496 -1.43558 624.954 369.703
14.1014 -16.4904 0.534138 633.01 380.493
-1.2876 -11.9387 -5.06584 567.103 393.902
-1.22556 -9.17951 -7.64843 566.616 403.978
-1.14415 -6.43385 -10.3387 566.201 413.942
-1.02606 -3.72005 -13.0677 565.942 423.758
-3.42493 0.0191857 -6.07288 555.946 442.752
-2.04087 0.0957123 -6.98725 561.643 442.792
-0.648712 0.0249252 -8.01756 567.388 442.157
0.858082 -0.132777 -6.98145 573.841 442.309
2.30625 -0.428033 -6.05841 580.06 441.817
-10.8527 -9.9319 -1.41932 527.014 402.712
-9.36691 -11.0776 -1.29198 533.458 398.254
-7.40292 -11.2773 -1.01132 541.758 397.891
-5.68662 -10.5513 -0.425317 548.889 401.506
-7.29891 -9.61723 -0.908983 541.914 404.869
-9.12654 -9.38316 -1.11644 534.188 405.437
4.15271 -11.2491 -0.652052 590.25 400.054
5.79815 -12.1111 -1.00583 597.265 396.538
7.75815 -12.0844 -1.09777 605.471 396.913
9.34938 -11.0981 -1.0611 611.975 401.291
7.6772 -10.422 -0.949557 604.856 403.896
5.84124 -10.4616 -0.933982 597.165 403.446
-4.87683 10.1897 -2.72188 548.422 486.658
-3.56718 8.38491 -5.03626 553.993 478.095
-1.88472 6.67314 -6.66945 561.18 470.351
0.37682 6.68524 -8.12313 570.513 469.969
2.68255 6.21535 -6.52011 580.429 469.26
4.723 7.49733 -4.91296 588.927 475.798
6.48796 8.95576 -2.70359 596.3 483.354
5.1795 10.5363 -3.994 590.404 489.014
3.41789 11.6867 -5.42411 582.669 492.736
1.19435 12.3014 -6.812 573.094 494.179
-1.15645 12.2405 -5.53916 563.377 494.245
-3.22607 11.5158 -4.26077 554.955 491.597
-1.28834 8.88705 -4.97597 563.468 480.582
0.6399 8.45092 -7.10057 571.412 477.915
2.72378 8.40484 -5.04087 580.371 479.183
2.82221 9.18976 -4.50134 580.702 482.758
0.834264 9.72686 -6.44231 572.072 483.614
-1.13365 9.65427 -4.554 564.026 484.029
3 20 21 23
3 21 22 23
3 0 1 36
3 15 16 45
3 0 17 36
3 16 26 45
3 17 18 37
3 25 26 44
3 17 36 37
3 26 44 45
3 18 19 38
3 24 25 43
3 18 37 38
3 25 43 44
3 19 20 38
3 23 24 43
3 20 21 39
3 22 23 42
3 20 38 39
3 23 42 43
3 21 22 27
3 21 27 39
3 22 27 42
3 27 28 42
3 27 28 39
3 28 42 47
3 28 39 40
3 1 36 41
3 15 45 46
3 1 2 41
3 14 15 46
3 28 29 40
3 28 29 47
3 2 40 41
3 14 46 47
3 2 29 40
3 14 29 47
3 2 3 29
3 13 14 29
3 29 30 31
3 29 30 35
3 3 29 31
3 13 29 35
3 30 32 33
3 30 33 34
3 30 31 32
3 30 34 35
3 3 4 31
3 12 13 35
3 4 5 48
3 11 12 54
3 5 6 48
3 10 11 54
3 6 48 59
3 10 54 55
3 6 7 59
3 9 10 55
3 7 58 59
3 9 55 56
3 8 57 58
3 8 56 57
3 7 8 58
3 8 9 56
3 4 31 48
3 12 35 54
3 31 48 49
3 35 53 54
3 31 49 50
3 35 52 53
3 31 32 50
3 34 35 52
3 32 33 50
3 33 34 52
3 33 50 51
3 33 51 52
3 48 49 60
3 49 60 50
3 50 60 61
3 50 51 61
3 51 52 61
3 61 62 52
3 52 53 62
3 53 54 62
3 54 55 63
3 55 56 63
3 56 63 64
3 56 57 64
3 64 65 57
3 57 58 65
3 58 59 65
3 48 59 65
