ply
format ascii 1.0
element vertex 66
property float x
property float y
property float z
property float u
property float v
element face 91
property list uchar int vertex_indices
end_header
-20.1521 -5.47708 20.8942 483.836 430.944
-19.6608 -0.409404 20.4193 484 453.341
-18.7703 4.60864 20.157 485.979 475.771
-17.3604 9.44933 18.1358 490.192 496.77
-15.0849 13.9137 13.3949 498.175 515.125
-11.7003 17.7347 7.89482 511.284 530.689
-7.45311 20.7177 3.24442 528.633 543.279
-2.56503 22.6771 -0.792368 549.287 551.874
2.77824 22.7023 -4.30144 572.768 552.332
7.31263 21.4822 -0.926778 593.717 550.273
11.0757 18.8449 3.37509 611.864 542.091
14.3119 15.655 8.18604 627.925 531.507
16.6135 11.7944 13.815 640.156 517.99
17.847 7.29687 18.5923 647.81 500.839
18.4626 2.39915 20.7772 652.651 480.436
18.7974 -2.66904 21.1134 656.152 458.285
18.9263 -7.72868 21.6446 658.75 436.186
-16.0428 -15.3234 0.244861 504.241 378.997
-13.9912 -17.0206 -1.47593 513.894 371.436
-11.4242 -17.8009 -2.96069 525.502 368.244
-8.74961 -17.9222 -4.33599 537.34 368.063
-6.152 -17.4582 -5.6038 548.616 370.496
3.30298 -18.1293 -5.29508 590.996 371.266
6.24862 -19.1606 -4.06102 604.617 368.412
9.34636 -19.5166 -2.64627 618.667 368.692
12.3983 -18.8602 -1.22419 632.117 373.441
14.8522 -16.988 0.429007 642.448 383.456
-1.64033 -11.665 -5.08047 566.478 398.112
-1.55858 -8.51883 -7.69474 565.391 410.818
-1.44385 -5.40756 -10.5154 564.447 423.284
-1.27805 -2.31695 -13.2747 563.743 435.706
-3.94764 0.811198 -6.20109 551.231 451.938
-2.52242 1.1118 -7.17742 557.376 453.342
-1.03453 1.12652 -8.14166 563.912 453.509
0.721949 0.814362 -7.2293 571.931 453.233
2.3683 0.243073 -6.18109 579.572 451.832
-11.828 -10.2743 -1.16143 520.911 402.279
-10.2507 -11.5371 -1.09935 528.432 397.317
-8.18565 -11.6695 -1.00291 537.685 397.562
-6.47368 -10.7393 -0.673579 544.971 402.489
-8.18845 -9.99617 -0.977815 537.02 404.982
-10.0763 -9.76364 -1.11482 528.513 405.228
5.61919 -11.9149 -0.955552 599.242 401.745
7.27071 -13.0755 -0.894584 607.054 397.263
9.37317 -13.0653 -0.721802 616.424 398.19
11.1427 -12.0334 -0.602364 623.908 403.489
9.39489 -11.3801 -0.849063 615.851 405.599
7.45064 -11.3243 -1.00767 607.16 405.031
-5.60777 10.0189 -2.80037 540.524 493.708
-3.91541 8.48576 -4.99437 548.473 486.509
-1.98771 7.17716 -6.64354 557.428 480.656
0.251883 7.19016 -8.2579 567.257 480.79
2.57869 6.67141 -6.563 577.962 480.191
4.91051 7.50931 -4.92825 588.152 485.572
7.22164 8.52606 -2.91469 598.213 491.919
5.51325 10.1128 -4.10645 589.886 497.723
3.40976 11.1889 -5.33559 579.997 501.098
1.03033 11.7541 -6.53784 569.082 502.119
-1.43673 11.8663 -5.35176 558.155 502.248
-3.7657 11.3257 -4.23056 548.093 499.507
-1.49452 9.17555 -5.07284 558.974 490.446
0.48448 8.83443 -7.39108 567.722 488.575
2.67811 8.57483 -5.39823 577.758 489.216
2.71289 8.79547 -4.69122 577.886 490.545
0.585696 9.19387 -6.39459 568.116 490.683
-1.44511 9.36237 -4.52518 559.167 491.555
3 20 21 23
3 21 22 23
3 0 1 36
3 15 16 45
3 0 17 36
3 16 26 45
3 17 18 37
3 25 26 44
3 17 36 37
3 26 44 45
3 18 19 38
3 24 25 43
3 18 37 38
3 25 43 44
3 19 20 38
3 23 24 43
3 20 21 39
3 22 23 42
3 20 38 39
3 23 42 43
3 21 22 27
3 21 27 39
3 22 27 42
3 27 28 42
3 27 28 39
3 28 42 47
3 28 39 40
3 1 36 41
3 15 45 46
3 1 2 41
3 14 15 46
3 28 29 40
3 28 29 47
3 2 40 41
3 14 46 47
3 2 29 40
3 14 29 47
3 2 3 29
3 13 14 29
3 29 30 31
3 29 30 35
3 3 29 31
3 13 29 35
3 30 32 33
3 30 33 34
3 30 31 32
3 30 34 35
3 3 4 31
3 12 13 35
3 4 5 48
3 11 12 54
3 5 6 48
3 10 11 54
3 6 48 59
3 10 54 55
3 6 7 59
3 9 10 55
3 7 58 59
3 9 55 56
3 8 57 58
3 8 56 57
3 7 8 58
3 8 9 56
3 4 31 48
3 12 35 54
3 31 48 49
3 35 53 54
3 31 49 50
3 35 52 53
3 31 32 50
3 34 35 52
3 32 33 50
3 33 34 52
3 33 50 51
3 33 51 52
3 48 49 60
3 49 60 50
3 50 60 61
3 50 51 61
3 51 52 61
3 61 62 52
3 52 53 62
3 53 54 62
3 54 55 63
3 55 56 63
3 56 63 64
3 56 57 64
3 64 65 57
3 57 58 65
3 58 59 65
3 48 59 65
