ply
format ascii 1.0
element vertex 66
property float x
property float y
property float z
property float u
property float v
element face 91
property list uchar int vertex_indices
end_header
-19.2648 -5.9394 20.6844 484.139 429.916
-18.7315 -0.70999 20.2525 484.705 454.256
-17.8033 4.45975 19.8824 487.136 478.477
-16.3901 9.51753 18.0516 491.728 501.889
-14.3142 14.3122 13.3517 499.232 523.41
-11.2536 18.5565 7.84141 511.44 542.466
-7.27806 21.9802 3.16467 528.278 558.295
-2.58786 24.3533 -0.813937 548.884 569.715
2.69863 24.6055 -4.37508 573.065 571.626
7.2879 23.0926 -0.793925 595.297 567.339
10.8482 19.857 3.38471 613.415 554.878
13.7326 16.0416 8.15637 628.65 539.672
15.7336 11.703 13.6864 640.033 521.964
16.9241 6.99656 18.3515 647.695 501.991
17.6006 2.09726 20.2715 652.779 480.078
17.9172 -2.88179 20.6127 656.07 457.171
17.9593 -7.86137 21.0568 658.093 434.197
-15.1323 -15.7879 0.127709 504.991 379.162
-13.2042 -17.4379 -1.56682 514.398 371.644
-10.7631 -18.2581 -2.97054 525.922 368.251
-8.17894 -18.3805 -4.33254 537.865 368.163
-5.64448 -17.91 -5.60523 549.373 370.839
3.16425 -18.5039 -5.37165 590.601 371.252
5.84356 -19.3574 -4.13184 603.491 368.62
8.6406 -19.5853 -2.74297 616.719 368.982
11.3475 -18.8733 -1.3796 629.188 373.67
13.471 -17.1135 0.332192 638.598 383.129
-1.38527 -12.1349 -5.09602 567.17 399.32
-1.34154 -9.34267 -7.62586 566.137 411.509
-1.27375 -6.57062 -10.2784 565.211 423.573
-1.16615 -3.82204 -12.9086 564.482 435.55
-3.41519 -0.065985 -5.9648 553.314 454.388
-2.14045 0.152325 -6.92067 559.079 455.549
-0.810509 0.16275 -7.94022 565.169 455.745
0.685579 -0.0789498 -6.91253 572.314 455.472
2.07852 -0.507919 -5.90473 579.044 454.286
-10.6592 -10.9344 -1.40801 523.924 402.795
-9.48401 -11.8177 -1.15452 529.733 399.185
-7.94475 -12.031 -0.834671 537.003 398.836
-6.60768 -11.5852 -0.504936 543.096 401.481
-7.8638 -10.8151 -0.913599 536.936 404.487
-9.31579 -10.5858 -1.07822 530.081 404.99
5.37345 -12.5931 -0.759515 599.191 400.933
6.68754 -13.1549 -0.75486 605.508 398.787
8.24616 -13.0361 -0.856466 612.71 399.855
9.51435 -12.2814 -0.958422 618.331 403.774
8.17996 -11.8478 -0.865851 611.974 405.348
6.70346 -11.9023 -0.943866 605.115 404.551
-4.14379 11.043 -2.81919 546.231 506.717
-3.27122 8.89138 -5.06753 550.854 496.324
-1.8471 6.87279 -6.63746 558.06 486.955
0.29762 6.77936 -8.15209 567.934 486.799
2.51622 6.41948 -6.48382 578.542 486.433
4.37059 8.05227 -4.93591 586.731 495.155
5.8061 9.89275 -2.85006 592.945 504.864
4.61591 11.2291 -4.01835 586.818 510.285
3.10665 12.2436 -5.25354 579.316 514.078
1.1454 12.8288 -6.6021 569.853 515.682
-0.935063 12.7882 -5.34925 560.302 515.155
-2.71864 12.1763 -4.22634 552.326 512.04
-0.653557 9.21654 -4.86029 562.939 498.82
0.555289 8.64098 -7.05941 568.567 495.88
1.97205 8.80543 -4.98687 575.293 497.794
1.94513 9.69464 -4.48698 574.896 502.071
0.757349 10.1762 -6.25985 569.031 503.333
-0.397618 10.0696 -4.49059 563.858 502.988
3 20 21 23
3 21 22 23
3 0 1 36
3 15 16 45
3 0 17 36
3 16 26 45
3 17 18 37
3 25 26 44
3 17 36 37
3 26 44 45
3 18 19 38
3 24 25 43
3 18 37 38
3 25 43 44
3 19 20 38
3 23 24 43
3 20 21 39
3 22 23 42
3 20 38 39
3 23 42 43
3 21 22 27
3 21 27 39
3 22 27 42
3 27 28 42
3 27 28 39
3 28 42 47
3 28 39 40
3 1 36 41
3 15 45 46
3 1 2 41
3 14 15 46
3 28 29 40
3 28 29 47
3 2 40 41
3 14 46 47
3 2 29 40
3 14 29 47
3 2 3 29
3 13 14 29
3 29 30 31
3 29 30 35
3 3 29 31
3 13 29 35
3 30 32 33
3 30 33 34
3 30 31 32
3 30 34 35
3 3 4 31
3 12 13 35
3 4 5 48
3 11 12 54
3 5 6 48
3 10 11 54
3 6 48 59
3 10 54 55
3 6 7 59
3 9 10 55
3 7 58 59
3 9 55 56
3 8 57 58
3 8 56 57
3 7 8 58
3 8 9 56
3 4 31 48
3 12 35 54
3 31 48 49
3 35 53 54
3 31 49 50
3 35 52 53
3 31 32 50
3 34 35 52
3 32 33 50
3 33 34 52
3 33 50 51
3 33 51 52
3 48 49 60
3 49 60 50
3 50 60 61
3 50 51 61
3 51 52 61
3 61 62 52
3 52 53 62
3 53 54 62
3 54 55 63
3 55 56 63
3 56 63 64
3 56 57 64
3 64 65 57
3 57 58 65
3 58 59 65
3 48 59 65
