ply
format ascii 1.0
element vertex 66
property float x
property float y
property float z
property float u
property float v
element face 91
property list uchar int vertex_indices
end_header
-19.8661 -5.93203 20.8208 490.592 427.177
-19.4123 -0.776911 20.4089 491.094 448.905
-18.5676 4.32126 20.0261 493.268 470.501
-17.1212 9.32137 18.1599 497.821 491.346
-14.9163 14.0437 13.3546 505.273 510.242
-11.7147 18.16 7.84161 517.008 526.601
-7.66037 21.4528 3.20685 532.682 539.991
-2.97614 23.7954 -0.791192 551.353 549.743
2.2539 24.1757 -4.49772 572.889 551.451
6.9743 22.7902 -0.765893 593.702 548.035
10.7722 19.7284 3.42269 611.117 537.464
13.9741 16.0673 8.09608 626.232 524.373
16.3744 11.83 13.5862 638.216 508.918
17.8308 7.08274 18.5063 646.269 490.883
18.5784 2.07821 20.4495 651.006 470.601
18.8274 -2.97876 20.8623 653.45 449.466
18.7927 -8.03932 21.2326 654.69 428.231
-15.6818 -15.5631 0.264345 508.166 380.824
-13.8076 -17.435 -1.54182 516.353 372.807
-11.2796 -18.3692 -2.96738 527.106 369.037
-8.56614 -18.4883 -4.28856 538.441 368.786
-5.9148 -17.933 -5.47567 549.353 371.41
3.26104 -18.661 -5.22594 588.382 370.749
6.1358 -19.6017 -4.09962 600.935 367.881
9.14148 -19.8093 -2.79226 613.87 368.199
12.0049 -18.8779 -1.41494 625.912 373.31
14.092 -16.7368 0.507811 634.421 383.507
-1.37935 -11.7986 -5.06986 566.964 398.574
-1.27125 -8.97541 -7.66955 566.337 409.654
-1.14254 -6.16746 -10.3686 565.788 420.642
-0.979211 -3.38509 -13.035 565.397 431.542
-3.26461 0.18736 -6.0015 555.7 448.354
-1.95519 0.300119 -6.98648 561.08 448.837
-0.623746 0.249712 -8.042 566.587 448.614
0.841803 0.0524625 -6.99302 572.973 448.5
2.23455 -0.301355 -6.08046 579.075 447.661
-10.8096 -10.2334 -1.36709 527.15 404.007
-9.49021 -11.4305 -1.22723 533.064 399.337
-7.65367 -11.6333 -0.975969 540.917 399.031
-6.09444 -10.8542 -0.49974 547.367 402.87
-7.5437 -9.89959 -0.933796 540.929 406.386
-9.22934 -9.6742 -1.10628 533.719 406.853
4.45902 -11.7298 -0.603062 592.215 401.819
5.93092 -12.7069 -0.963087 598.652 397.952
7.78564 -12.6968 -1.02558 606.485 398.444
9.27832 -11.7034 -0.984564 612.54 403.027
7.75763 -10.9729 -0.882868 605.929 405.757
6.03843 -10.9655 -0.858849 598.659 405.36
-4.77763 10.275 -2.76885 547.053 491.594
-3.42312 8.53663 -5.05104 552.945 483.851
-1.74274 6.88527 -6.66713 560.278 476.777
0.480265 6.89209 -8.1587 569.484 476.878
2.75321 6.40692 -6.54447 579.434 475.94
4.80137 7.60936 -4.94725 587.985 482.06
6.63411 8.94087 -2.71269 595.674 488.879
5.26543 10.5262 -4.04017 589.294 494.783
3.46138 11.6771 -5.37597 581.187 498.739
1.22135 12.2942 -6.72399 571.376 500.33
-1.08955 12.2479 -5.4628 561.779 499.964
-3.1472 11.574 -4.22007 553.417 497.009
-0.990592 9.01924 -4.97089 563.115 486.531
0.720365 8.60766 -7.09272 570.184 484.528
2.57812 8.53741 -5.1112 578.316 485.357
2.63684 9.22798 -4.54342 578.456 488.473
0.868943 9.74237 -6.31262 570.614 489.61
-0.8638 9.69368 -4.50693 563.533 489.561
3 20 21 23
3 21 22 23
3 0 1 36
3 15 16 45
3 0 17 36
3 16 26 45
3 17 18 37
3 25 26 44
3 17 36 37
3 26 44 45
3 18 19 38
3 24 25 43
3 18 37 38
3 25 43 44
3 19 20 38
3 23 24 43
3 20 21 39
3 22 23 42
3 20 38 39
3 23 42 43
3 21 22 27
3 21 27 39
3 22 27 42
3 27 28 42
3 27 28 39
3 28 42 47
3 28 39 40
3 1 36 41
3 15 45 46
3 1 2 41
3 14 15 46
3 28 29 40
3 28 29 47
3 2 40 41
3 14 46 47
3 2 29 40
3 14 29 47
3 2 3 29
3 13 14 29
3 29 30 31
3 29 30 35
3 3 29 31
3 13 29 35
3 30 32 33
3 30 33 34
3 30 31 32
3 30 34 35
3 3 4 31
3 12 13 35
3 4 5 48
3 11 12 54
3 5 6 48
3 10 11 54
3 6 48 59
3 10 54 55
3 6 7 59
3 9 10 55
3 7 58 59
3 9 55 56
3 8 57 58
3 8 56 57
3 7 8 58
3 8 9 56
3 4 31 48
3 12 35 54
3 31 48 49
3 35 53 54
3 31 49 50
3 35 52 53
3 31 32 50
3 34 35 52
3 32 33 50
3 33 34 52
3 33 50 51
3 33 51 52
3 48 49 60
3 49 60 50
3 50 60 61
3 50 51 61
3 51 52 61
3 61 62 52
3 52 53 62
3 53 54 62
3 54 55 63
3 55 56 63
3 56 63 64
3 56 57 64
3 64 65 57
3 57 58 65
3 58 59 65
3 48 59 65
