ply
format ascii 1.0
element vertex 66
property float x
property float y
property float z
property float u
property float v
element face 91
property list uchar int vertex_indices
end_header
-20.1866 -5.68166 20.8874 484.861 429.012
-19.7245 -0.57549 20.4365 484.914 451.509
-18.8563 4.47659 20.1439 486.798 473.988
-17.4503 9.36795 18.133 491.001 495.221
-15.1765 13.9032 13.3852 498.986 514.031
-11.7655 17.7791 7.8803 512.207 530.035
-7.47065 20.7809 3.2423 529.741 542.889
-2.54066 22.751 -0.775572 550.53 551.698
2.83592 22.7856 -4.30928 574.076 552.348
7.36049 21.5377 -0.926251 594.842 549.999
11.1154 18.8847 3.37027 612.806 541.558
14.3625 15.6955 8.16403 628.761 530.776
16.6787 11.8248 13.7893 640.916 516.996
17.9216 7.3101 18.5741 648.503 499.613
18.5392 2.4155 20.7605 653.277 479.201
18.8613 -2.63341 21.1266 656.67 457.214
18.9804 -7.67752 21.6252 659.171 435.23
-16.0194 -15.3317 0.24652 505.528 379.138
-13.9993 -17.0592 -1.49302 515.013 371.529
-11.4391 -17.8572 -2.97673 526.552 368.333
-8.7609 -17.9711 -4.3412 538.36 368.249
-6.15842 -17.4948 -5.59885 549.614 370.785
3.23307 -18.1347 -5.26389 591.483 371.632
6.19791 -19.1761 -4.04461 605.105 368.677
9.3138 -19.5358 -2.64824 619.146 368.861
12.3744 -18.8469 -1.2382 632.54 373.655
14.8014 -16.9143 0.443519 642.671 383.812
-1.67389 -11.5494 -5.11642 567.229 398.894
-1.61269 -8.54452 -7.69963 566.159 411.057
-1.51661 -5.5725 -10.4873 565.24 422.999
-1.36518 -2.62295 -13.2366 564.579 434.88
-3.88633 0.749553 -6.17577 552.628 451.845
-2.51125 1.00796 -7.14772 558.549 453.082
-1.08411 1.00662 -8.1369 564.8 453.186
0.625937 0.7131 -7.19568 572.555 452.939
2.2356 0.183886 -6.16677 579.963 451.652
-11.6232 -10.2378 -1.19928 522.939 402.629
-10.1177 -11.5402 -1.14134 530.112 397.476
-8.08812 -11.6585 -1.02841 539.156 397.765
-6.43281 -10.6685 -0.632036 546.137 402.922
-8.08107 -9.85353 -0.970262 538.498 405.752
-9.92644 -9.63352 -1.12237 530.229 405.964
5.54838 -11.8301 -0.923879 599.632 402.172
7.13628 -13.0353 -0.926833 607.129 397.452
9.19914 -13.0304 -0.752927 616.277 398.322
10.9034 -11.9504 -0.605664 623.422 403.788
9.22226 -11.2147 -0.838713 615.676 406.301
7.32174 -11.1555 -0.991893 607.223 405.783
-5.59463 10.0978 -2.78673 541.717 493.887
-3.91976 8.52453 -5.01719 549.578 486.618
-2.00603 7.13843 -6.67106 558.467 480.512
0.266908 7.13166 -8.23595 568.424 480.662
2.63724 6.61348 -6.567 579.244 479.984
4.98047 7.51022 -4.93794 589.397 485.52
7.30206 8.55471 -2.90535 599.427 491.872
5.58182 10.1158 -4.0933 591.121 497.599
3.47606 11.1775 -5.34601 581.295 500.952
1.09211 11.7537 -6.55115 570.426 502.079
-1.38326 11.8761 -5.37284 559.5 502.197
-3.7252 11.3674 -4.2275 549.405 499.567
-1.45093 9.14534 -5.06139 560.272 490.263
0.515143 8.77549 -7.33432 568.958 488.392
2.71374 8.52424 -5.392 578.934 488.945
2.76154 8.83728 -4.68766 579.077 490.647
0.637769 9.24833 -6.39067 569.388 490.929
-1.38148 9.422 -4.51819 560.513 491.743
3 20 21 23
3 21 22 23
3 0 1 36
3 15 16 45
3 0 17 36
3 16 26 45
3 17 18 37
3 25 26 44
3 17 36 37
3 26 44 45
3 18 19 38
3 24 25 43
3 18 37 38
3 25 43 44
3 19 20 38
3 23 24 43
3 20 21 39
3 22 23 42
3 20 38 39
3 23 42 43
3 21 22 27
3 21 27 39
3 22 27 42
3 27 28 42
3 27 28 39
3 28 42 47
3 28 39 40
3 1 36 41
3 15 45 46
3 1 2 41
3 14 15 46
3 28 29 40
3 28 29 47
3 2 40 41
3 14 46 47
3 2 29 40
3 14 29 47
3 2 3 29
3 13 14 29
3 29 30 31
3 29 30 35
3 3 29 31
3 13 29 35
3 30 32 33
3 30 33 34
3 30 31 32
3 30 34 35
3 3 4 31
3 12 13 35
3 4 5 48
3 11 12 54
3 5 6 48
3 10 11 54
3 6 48 59
3 10 54 55
3 6 7 59
3 9 10 55
3 7 58 59
3 9 55 56
3 8 57 58
3 8 56 57
3 7 8 58
3 8 9 56
3 4 31 48
3 12 35 54
3 31 48 49
3 35 53 54
3 31 49 50
3 35 52 53
3 31 32 50
3 34 35 52
3 32 33 50
3 33 34 52
3 33 50 51
3 33 51 52
3 48 49 60
3 49 60 50
3 50 60 61
3 50 51 61
3 51 52 61
3 61 62 52
3 52 53 62
3 53 54 62
3 54 55 63
3 55 56 63
3 56 63 64
3 56 57 64
3 64 65 57
3 57 58 65
3 58 59 65
3 48 59 65
