ply
format ascii 1.0
element vertex 66
property float x
property float y
property float z
property float u
property float v
element face 91
property list uchar int vertex_indices
end_header
-19.9699 -5.71494 20.7994 484.841 430.756
-19.4917 -0.529775 20.358 484.876 453.931
-18.5967 4.60224 20.0444 486.816 477.086
-17.148 9.54702 18.1546 491.161 498.94
-14.8814 14.0849 13.3711 499.055 518.05
-11.5699 18.0144 7.89793 511.814 534.548
-7.39697 21.1514 3.23741 528.836 548.187
-2.53922 23.2507 -0.781731 549.409 557.728
2.85 23.3075 -4.30999 573.231 558.555
7.42415 21.975 -0.877028 594.633 555.847
11.1023 19.1204 3.38246 612.702 546.342
14.1935 15.7262 8.19089 628.405 534.434
16.3927 11.7529 13.7613 640.411 519.918
17.643 7.24033 18.5479 648.294 502.287
18.296 2.33692 20.5738 653.38 481.49
18.6017 -2.73063 20.9254 656.809 459.106
18.6689 -7.79029 21.4289 659.177 436.73
-15.6984 -15.4401 0.210253 505.866 380.09
-13.6857 -17.1636 -1.51831 515.418 372.422
-11.1443 -17.9761 -2.97062 527.007 369.152
-8.484 -18.1015 -4.33841 538.864 369.035
-5.89843 -17.6251 -5.60621 550.156 371.622
3.27473 -18.2943 -5.28965 591.632 372.323
6.11252 -19.269 -4.05999 604.88 369.595
9.09781 -19.5803 -2.65766 618.543 369.963
12.0265 -18.9023 -1.26478 631.557 374.728
14.3602 -17.0481 0.418956 641.459 384.645
-1.56867 -12.0163 -5.08121 567.407 398.6
-1.50412 -8.93154 -7.67462 566.211 411.301
-1.4073 -5.87758 -10.4392 565.155 423.803
-1.26206 -2.84383 -13.1574 564.33 436.253
-3.74595 0.598671 -6.1729 552.495 453.68
-2.39862 0.847296 -7.09986 558.352 454.916
-0.99205 0.840604 -8.03813 564.577 455.028
0.658802 0.57842 -7.12217 572.182 454.89
2.20284 0.0866802 -6.10887 579.409 453.725
-11.3907 -10.5112 -1.26502 523.092 403.16
-9.85678 -11.7452 -1.14569 530.482 398.289
-7.83406 -11.8904 -0.970997 539.637 398.5
-6.16217 -10.9818 -0.574753 546.818 403.38
-7.82798 -10.1908 -0.95429 538.988 406.107
-9.68262 -9.9591 -1.11583 530.554 406.354
5.23188 -12.0674 -0.850249 598.371 402.826
6.83816 -13.1792 -0.84809 606.025 398.48
8.8912 -13.1654 -0.770716 615.243 399.371
10.5958 -12.1353 -0.726767 622.489 404.656
8.90506 -11.4488 -0.858561 614.612 407.012
7.0051 -11.4128 -0.986696 606.056 406.382
-4.95908 10.2893 -2.76281 543.52 497.996
-3.56621 8.63259 -5.00314 550.213 490.167
-1.87633 7.14401 -6.65641 558.229 483.458
0.232564 7.13066 -8.245 567.545 483.533
2.42551 6.66753 -6.55587 577.74 483.039
4.52035 7.72459 -4.92233 586.883 489.278
6.50405 8.94159 -2.86648 595.505 496.371
5.06906 10.4702 -4.0906 588.333 502.122
3.24591 11.5704 -5.36264 579.585 505.787
1.04343 12.1508 -6.59269 569.346 506.999
-1.26416 12.2035 -5.39986 559.083 506.853
-3.34526 11.5802 -4.24876 550.104 503.754
-1.20302 9.21809 -4.9831 560.59 493.71
0.472726 8.78972 -7.26528 568.058 491.464
2.36417 8.68395 -5.23742 576.79 492.596
2.39945 9.11177 -4.60798 576.84 494.792
0.610199 9.53864 -6.36138 568.465 495.253
-1.10377 9.61361 -4.50446 560.925 495.722
3 20 21 23
3 21 22 23
3 0 1 36
3 15 16 45
3 0 17 36
3 16 26 45
3 17 18 37
3 25 26 44
3 17 36 37
3 26 44 45
3 18 19 38
3 24 25 43
3 18 37 38
3 25 43 44
3 19 20 38
3 23 24 43
3 20 21 39
3 22 23 42
3 20 38 39
3 23 42 43
3 21 22 27
3 21 27 39
3 22 27 42
3 27 28 42
3 27 28 39
3 28 42 47
3 28 39 40
3 1 36 41
3 15 45 46
3 1 2 41
3 14 15 46
3 28 29 40
3 28 29 47
3 2 40 41
3 14 46 47
3 2 29 40
3 14 29 47
3 2 3 29
3 13 14 29
3 29 30 31
3 29 30 35
3 3 29 31
3 13 29 35
3 30 32 33
3 30 33 34
3 30 31 32
3 30 34 35
3 3 4 31
3 12 13 35
3 4 5 48
3 11 12 54
3 5 6 48
3 10 11 54
3 6 48 59
3 10 54 55
3 6 7 59
3 9 10 55
3 7 58 59
3 9 55 56
3 8 57 58
3 8 56 57
3 7 8 58
3 8 9 56
3 4 31 48
3 12 35 54
3 31 48 49
3 35 53 54
3 31 49 50
3 35 52 53
3 31 32 50
3 34 35 52
3 32 33 50
3 33 34 52
3 33 50 51
3 33 51 52
3 48 49 60
3 49 60 50
3 50 60 61
3 50 51 61
3 51 52 61
3 61 62 52
3 52 53 62
3 53 54 62
3 54 55 63
3 55 56 63
3 56 63 64
3 56 57 64
3 64 65 57
3 57 58 65
3 58 59 65
3 48 59 65
