ply
format ascii 1.0
element vertex 66
property float x
property float y
property float z
property float u
property float v
element face 91
property list uchar int vertex_indices
end_header
-19.9448 -5.82761 20.8207 491.068 427.505
-19.4668 -0.703823 20.3819 491.571 449.006
-18.5942 4.3626 20.0172 493.762 470.399
-17.1265 9.32991 18.1478 498.277 491.007
-14.8905 14.0163 13.3441 505.696 509.608
-11.6665 18.0991 7.82325 517.348 525.689
-7.6062 21.3681 3.20001 532.879 538.892
-2.92164 23.6897 -0.79747 551.396 548.504
2.29965 24.0571 -4.48164 572.771 550.162
6.98722 22.6677 -0.775669 593.433 546.898
10.7638 19.6284 3.41682 610.792 536.627
13.9556 15.9998 8.08798 625.921 523.89
16.3491 11.7946 13.5969 637.968 508.81
17.8081 7.07402 18.5051 646.14 491.101
18.5705 2.09105 20.4573 651.036 471.06
18.855 -2.94849 20.8532 653.716 450.104
18.8589 -7.9906 21.258 655.216 429.064
-15.7506 -15.6425 0.270006 508.627 380.166
-13.8353 -17.4857 -1.52032 516.966 372.31
-11.2863 -18.3904 -2.95206 527.759 368.693
-8.56263 -18.4849 -4.27964 539.074 368.566
-5.90663 -17.9061 -5.47489 549.932 371.295
3.24375 -18.6209 -5.22183 588.719 370.855
6.13476 -19.5983 -4.08643 601.334 367.93
9.16249 -19.841 -2.76814 614.344 368.193
12.0592 -18.9425 -1.38616 626.487 373.238
14.199 -16.8318 0.504166 635.17 383.35
-1.40395 -11.7827 -5.05365 567.228 398.386
-1.2978 -8.89773 -7.66775 566.492 409.615
-1.17006 -6.02817 -10.379 565.837 420.75
-1.0061 -3.18328 -13.0477 565.348 431.807
-3.3411 0.284445 -6.01744 555.517 448.221
-2.01833 0.458688 -7.00629 560.902 448.962
-0.659339 0.435357 -8.05172 566.487 448.863
0.844985 0.205739 -7.01179 573.035 448.672
2.25799 -0.211169 -6.08198 579.237 447.63
-10.8686 -10.2238 -1.34868 527.434 403.682
-9.57918 -11.3487 -1.20445 533.205 399.355
-7.80783 -11.5534 -0.961117 540.759 399.059
-6.28943 -10.8576 -0.534275 547.019 402.544
-7.6974 -9.93756 -0.945779 540.769 405.883
-9.33071 -9.71524 -1.10952 533.803 406.318
4.72945 -11.7787 -0.656158 593.684 401.61
6.17785 -12.6652 -0.939484 599.996 398.178
7.97045 -12.6308 -0.987015 607.532 398.791
9.42173 -11.7011 -0.950967 613.388 403.101
7.9305 -11.0357 -0.883063 606.927 405.518
6.26249 -11.0334 -0.882012 599.899 405.077
-4.83175 10.1939 -2.77757 546.889 490.591
-3.44649 8.51177 -5.04366 552.882 483.1
-1.75025 6.92384 -6.65349 560.252 476.321
0.456527 6.93855 -8.16641 569.332 476.446
2.71894 6.44692 -6.52841 579.232 475.57
4.78314 7.58631 -4.937 587.83 481.475
6.65536 8.85274 -2.73132 595.668 488.079
5.26813 10.4585 -4.03694 589.187 493.99
3.44872 11.6247 -5.35103 581.007 497.935
1.20089 12.2507 -6.69851 571.171 499.482
-1.12036 12.2036 -5.43969 561.582 499.1
-3.19364 11.5172 -4.22035 553.213 496.085
-0.896211 9.03738 -4.98404 563.486 486.019
0.697284 8.66271 -7.12567 570.004 484.122
2.44458 8.5665 -5.13605 577.672 484.891
2.50225 9.16699 -4.55628 577.827 487.633
0.837884 9.67325 -6.31886 570.424 488.689
-0.784139 9.62067 -4.51491 563.859 488.665
3 20 21 23
3 21 22 23
3 0 1 36
3 15 16 45
3 0 17 36
3 16 26 45
3 17 18 37
3 25 26 44
3 17 36 37
3 26 44 45
3 18 19 38
3 24 25 43
3 18 37 38
3 25 43 44
3 19 20 38
3 23 24 43
3 20 21 39
3 22 23 42
3 20 38 39
3 23 42 43
3 21 22 27
3 21 27 39
3 22 27 42
3 27 28 42
3 27 28 39
3 28 42 47
3 28 39 40
3 1 36 41
3 15 45 46
3 1 2 41
3 14 15 46
3 28 29 40
3 28 29 47
3 2 40 41
3 14 46 47
3 2 29 40
3 14 29 47
3 2 3 29
3 13 14 29
3 29 30 31
3 29 30 35
3 3 29 31
3 13 29 35
3 30 32 33
3 30 33 34
3 30 31 32
3 30 34 35
3 3 4 31
3 12 13 35
3 4 5 48
3 11 12 54
3 5 6 48
3 10 11 54
3 6 48 59
3 10 54 55
3 6 7 59
3 9 10 55
3 7 58 59
3 9 55 56
3 8 57 58
3 8 56 57
3 7 8 58
3 8 9 56
3 4 31 48
3 12 35 54
3 31 48 49
3 35 53 54
3 31 49 50
3 35 52 53
3 31 32 50
3 34 35 52
3 32 33 50
3 33 34 52
3 33 50 51
3 33 51 52
3 48 49 60
3 49 60 50
3 50 60 61
3 50 51 61
3 51 52 61
3 61 62 52
3 52 53 62
3 53 54 62
3 54 55 63
3 55 56 63
3 56 63 64
3 56 57 64
3 64 65 57
3 57 58 65
3 58 59 65
3 48 59 65
