ply
format ascii 1.0
element vertex 66
property float x
property float y
property float z
property float u
property float v
element face 91
property list uchar int vertex_indices
end_header
-19.6047 -6.13824 20.6898 484.48 430.555
-19.0791 -0.812587 20.2197 485.002 454.74
-18.132 4.45319 19.8378 487.476 478.828
-16.6451 9.59058 18.1306 492.304 501.991
-14.4792 14.4143 13.3156 499.983 522.732
-11.368 18.7133 7.77393 512.067 541.117
-7.35788 22.2432 3.15671 528.617 556.668
-2.57617 24.6617 -0.807173 549.137 567.681
2.82997 24.9098 -4.40225 573.287 569.186
7.49358 23.3508 -0.779128 595.488 565.069
11.0994 20.0739 3.37496 613.514 553.006
13.9693 16.1758 8.08491 628.461 538.096
15.9781 11.802 13.6347 639.741 521.069
17.2058 7.07211 18.4445 647.498 501.875
17.9072 2.09329 20.2122 652.597 480.181
18.2144 -2.97116 20.5727 655.77 457.414
18.2385 -8.03154 21.0835 657.667 434.632
-15.2084 -15.7535 0.15902 505.482 380.258
-13.3184 -17.4841 -1.5701 514.492 372.341
-10.8711 -18.3277 -2.95672 525.779 368.773
-8.27593 -18.4094 -4.31363 537.482 368.728
-5.74752 -17.8622 -5.57046 548.678 371.557
3.4469 -18.58 -5.26806 590.867 371.458
6.10723 -19.4712 -4.07214 603.433 368.759
8.89442 -19.7078 -2.70781 616.373 369.142
11.58 -18.921 -1.37741 628.496 374.128
13.6193 -17.0228 0.402745 637.344 384.127
-1.4024 -11.9625 -5.06522 566.524 399.998
-1.35259 -9.13907 -7.6857 565.489 411.813
-1.27713 -6.32631 -10.3302 564.572 423.579
-1.16194 -3.53043 -12.8828 563.853 435.317
-3.44394 0.220556 -6.04335 552.943 454.291
-2.1707 0.514035 -6.95414 558.543 455.688
-0.820371 0.555203 -7.90775 564.576 455.947
0.697208 0.278599 -6.92561 571.699 455.579
2.07695 -0.224806 -5.95581 578.27 454.129
-10.7178 -10.8028 -1.47999 524.073 403.593
-9.5223 -11.6975 -1.21914 529.857 400.026
-7.95461 -11.9317 -0.868574 537.123 399.619
-6.58333 -11.4785 -0.491157 543.261 402.28
-7.85428 -10.6391 -0.933825 537.131 405.499
-9.34124 -10.4172 -1.10529 530.258 405.948
5.26511 -12.4851 -0.710894 597.587 401.541
6.61587 -13.0697 -0.766364 603.938 399.311
8.21048 -12.9429 -0.909907 611.147 400.358
9.50473 -12.1778 -1.02478 616.772 404.218
8.1394 -11.6978 -0.875253 610.401 406.005
6.62605 -11.7355 -0.942176 603.508 405.307
-3.62318 10.5599 -2.73703 548.966 502.507
-2.81535 8.69942 -5.04888 553.023 493.413
-1.57209 6.94803 -6.67032 559.105 485.23
0.276667 6.92976 -8.1923 567.366 485.161
2.19503 6.52506 -6.5289 576.437 484.611
3.838 7.90644 -4.93451 583.634 492.057
5.17692 9.46192 -2.76848 589.45 500.418
4.15633 10.719 -3.93573 584.236 505.333
2.849 11.6887 -5.27813 577.794 508.779
1.09181 12.2629 -6.66801 569.431 510.26
-0.785371 12.2161 -5.37341 561.037 509.935
-2.36955 11.6256 -4.16896 554.154 507.201
-0.251736 9.09426 -4.84587 564.596 496.135
0.529534 8.63788 -6.99449 568.07 493.476
1.50945 8.73387 -4.96389 572.734 495.034
1.50563 9.28109 -4.43741 572.589 497.726
0.700977 9.72998 -6.1929 568.569 498.809
-0.0608399 9.61006 -4.45128 565.335 498.697
3 20 21 23
3 21 22 23
3 0 1 36
3 15 16 45
3 0 17 36
3 16 26 45
3 17 18 37
3 25 26 44
3 17 36 37
3 26 44 45
3 18 19 38
3 24 25 43
3 18 37 38
3 25 43 44
3 19 20 38
3 23 24 43
3 20 21 39
3 22 23 42
3 20 38 39
3 23 42 43
3 21 22 27
3 21 27 39
3 22 27 42
3 27 28 42
3 27 28 39
3 28 42 47
3 28 39 40
3 1 36 41
3 15 45 46
3 1 2 41
3 14 15 46
3 28 29 40
3 28 29 47
3 2 40 41
3 14 46 47
3 2 29 40
3 14 29 47
3 2 3 29
3 13 14 29
3 29 30 31
3 29 30 35
3 3 29 31
3 13 29 35
3 30 32 33
3 30 33 34
3 30 31 32
3 30 34 35
3 3 4 31
3 12 13 35
3 4 5 48
3 11 12 54
3 5 6 48
3 10 11 54
3 6 48 59
3 10 54 55
3 6 7 59
3 9 10 55
3 7 58 59
3 9 55 56
3 8 57 58
3 8 56 57
3 7 8 58
3 8 9 56
3 4 31 48
3 12 35 54
3 31 48 49
3 35 53 54
3 31 49 50
3 35 52 53
3 31 32 50
3 34 35 52
3 32 33 50
3 33 34 52
3 33 50 51
3 33 51 52
3 48 49 60
3 49 60 50
3 50 60 61
3 50 51 61
3 51 52 61
3 61 62 52
3 52 53 62
3 53 54 62
3 54 55 63
3 55 56 63
3 56 63 64
3 56 57 64
3 64 65 57
3 57 58 65
3 58 59 65
3 48 59 65
