ply
format ascii 1.0
element vertex 66
property float x
property float y
property float z
property float u
property float v
element face 91
property list uchar int vertex_indices
end_header
-19.7988 -5.96002 20.6945 486.845 433.521
-19.3309 -0.795207 20.3322 487.3 456.719
-18.4516 4.30405 19.9567 489.631 479.736
-16.9565 9.30665 18.0877 494.536 501.803
-14.6486 14.0595 13.324 502.727 521.635
-11.3415 18.2581 7.82695 515.487 538.923
-7.20231 21.6669 3.21985 532.393 553.317
-2.40677 24.081 -0.783431 552.669 563.71
2.96577 24.3765 -4.42347 576.267 564.913
7.53683 22.9181 -0.828951 597.946 561.363
11.2175 19.8883 3.36498 616.185 550.765
14.2697 16.2468 8.10155 631.862 537.485
16.3967 11.9769 13.6759 643.687 521.498
17.5438 7.19273 18.5332 651.13 502.578
18.1244 2.16472 20.4343 655.616 481.019
18.3511 -2.91243 20.8384 658.278 458.437
18.3603 -7.98422 21.3222 659.97 435.854
-15.4196 -15.7547 0.250061 506.392 381.218
-13.4891 -17.549 -1.55115 515.381 372.873
-10.9599 -18.4372 -2.99355 526.852 368.944
-8.26505 -18.5561 -4.31948 538.852 368.579
-5.64428 -17.9983 -5.5262 550.326 371.291
3.17727 -18.7526 -5.19651 590.467 370.628
6.05675 -19.694 -4.06819 603.948 367.761
9.05928 -19.9006 -2.75715 617.787 368.319
11.923 -18.989 -1.40114 630.66 373.888
14.0498 -16.9058 0.478973 639.924 384.755
-1.52864 -11.9006 -5.07805 567.101 400.128
-1.41315 -8.95522 -7.64802 566.299 412.212
-1.26902 -6.02879 -10.344 565.611 424.16
-1.08453 -3.12941 -13.0251 565.117 436.005
-3.49331 0.229496 -6.05848 554.308 453.656
-2.20581 0.417464 -6.9801 559.919 454.448
-0.877445 0.401091 -7.99061 565.764 454.291
0.65532 0.160232 -6.9995 572.922 454.118
2.09777 -0.259163 -5.99349 579.73 453.121
-10.5073 -10.4597 -1.37507 526.683 405.712
-9.27336 -11.5344 -1.24607 532.612 401.299
-7.58706 -11.7026 -0.995045 540.323 401.151
-6.15332 -11.0304 -0.485346 546.673 404.831
-7.49749 -10.1858 -0.88611 540.275 408.051
-9.05069 -9.96857 -1.08661 533.158 408.481
4.75877 -11.9842 -0.6668 596.239 403.644
6.17068 -12.8413 -0.903391 602.846 400.091
7.89958 -12.7794 -0.976153 610.626 400.84
9.28878 -11.8639 -0.974528 616.618 405.365
7.83533 -11.2682 -0.886393 609.881 407.66
6.23262 -11.2636 -0.901417 602.637 407.206
-5.00361 10.3236 -2.71929 544.891 500.172
-3.65618 8.6173 -5.01502 551.14 491.821
-1.96855 7.01989 -6.61822 559.003 484.382
0.251059 7.02459 -8.08381 568.795 484.369
2.53737 6.53824 -6.57392 579.516 483.552
4.62991 7.71148 -4.98552 588.861 490.181
6.54489 9.00225 -2.80038 597.462 497.564
5.09628 10.5398 -4.03091 590.244 503.483
3.26009 11.6321 -5.35406 581.398 507.243
1.04407 12.2511 -6.61472 570.992 508.793
-1.28368 12.2355 -5.37307 560.68 508.621
-3.35688 11.5888 -4.22662 551.697 505.641
-1.11136 9.14067 -4.92824 562.489 494.959
0.482684 8.72247 -7.15308 569.464 492.507
2.26428 8.64736 -5.15544 577.856 493.62
2.31209 9.25734 -4.58178 577.975 496.645
0.634362 9.73291 -6.3899 569.958 497.451
-0.9871 9.71082 -4.4879 562.944 497.765
3 20 21 23
3 21 22 23
3 0 1 36
3 15 16 45
3 0 17 36
3 16 26 45
3 17 18 37
3 25 26 44
3 17 36 37
3 26 44 45
3 18 19 38
3 24 25 43
3 18 37 38
3 25 43 44
3 19 20 38
3 23 24 43
3 20 21 39
3 22 23 42
3 20 38 39
3 23 42 43
3 21 22 27
3 21 27 39
3 22 27 42
3 27 28 42
3 27 28 39
3 28 42 47
3 28 39 40
3 1 36 41
3 15 45 46
3 1 2 41
3 14 15 46
3 28 29 40
3 28 29 47
3 2 40 41
3 14 46 47
3 2 29 40
3 14 29 47
3 2 3 29
3 13 14 29
3 29 30 31
3 29 30 35
3 3 29 31
3 13 29 35
3 30 32 33
3 30 33 34
3 30 31 32
3 30 34 35
3 3 4 31
3 12 13 35
3 4 5 48
3 11 12 54
3 5 6 48
3 10 11 54
3 6 48 59
3 10 54 55
3 6 7 59
3 9 10 55
3 7 58 59
3 9 55 56
3 8 57 58
3 8 56 57
3 7 8 58
3 8 9 56
3 4 31 48
3 12 35 54
3 31 48 49
3 35 53 54
3 31 49 50
3 35 52 53
3 31 32 50
3 34 35 52
3 32 33 50
3 33 34 52
3 33 50 51
3 33 51 52
3 48 49 60
3 49 60 50
3 50 60 61
3 50 51 61
3 51 52 61
3 61 62 52
3 52 53 62
3 53 54 62
3 54 55 63
3 55 56 63
3 56 63 64
3 56 57 64
3 64 65 57
3 57 58 65
3 58 59 65
3 48 59 65
