ply
format ascii 1.0
element vertex 66
property float x
property float y
property float z
property float u
property float v
element face 91
property list uchar int vertex_indices
end_header
-19.6018 -5.90359 20.7476 486.192 431.972
-19.0911 -0.746157 20.3371 487.029 455.487
-18.1785 4.34715 19.9818 489.732 478.84
-16.7228 9.34814 18.0598 494.769 501.295
-14.5161 14.1129 13.3573 502.994 521.769
-11.3059 18.3002 7.82873 515.884 539.55
-7.234 21.6625 3.16991 533.052 554.146
-2.49854 24.0058 -0.808921 553.623 564.542
2.78234 24.2946 -4.39046 577.317 565.866
7.30502 22.7892 -0.824313 598.86 561.641
10.898 19.6772 3.37353 616.671 550.083
13.8795 15.9978 8.13264 631.905 535.992
16.0134 11.7542 13.69 643.508 519.415
17.2676 7.05644 18.4311 651.117 500.201
17.9432 2.16145 20.4338 655.821 478.839
18.2561 -2.79159 20.7882 658.691 456.458
18.3234 -7.7462 21.2325 660.447 434.039
-15.4009 -15.8158 0.188993 505.881 379.683
-13.48 -17.4401 -1.5185 514.942 372.11
-11.0346 -18.2215 -2.96794 526.195 368.63
-8.45167 -18.3177 -4.3391 537.895 368.345
-5.92719 -17.8108 -5.59224 549.17 370.845
3.40112 -18.5039 -5.31119 592.117 370.323
6.15926 -19.3855 -4.11712 605.133 367.522
9.03051 -19.6117 -2.74261 618.502 367.816
11.7911 -18.8334 -1.35842 631.083 372.668
13.8946 -16.9545 0.414514 640.388 382.52
-1.49085 -11.8972 -5.06766 567.878 399.248
-1.42326 -9.0127 -7.63435 567.081 411.41
-1.32955 -6.14828 -10.3352 566.395 423.434
-1.19272 -3.31149 -13.0178 565.915 435.351
-3.53701 0.0774013 -5.97441 555.027 452.987
-2.23084 0.294715 -6.9808 560.833 453.933
-0.878988 0.306951 -8.04092 566.899 453.933
0.658436 0.0418431 -6.99883 574.133 453.555
2.10019 -0.407909 -5.95803 580.981 452.307
-11.0259 -10.5848 -1.34443 524.266 404.135
-9.79276 -11.6285 -1.15139 530.23 399.782
-8.11464 -11.8371 -0.904607 538.002 399.384
-6.68771 -11.2364 -0.549647 544.408 402.653
-8.02519 -10.3726 -0.928146 537.996 406.083
-9.58188 -10.1408 -1.08482 530.784 406.656
5.33082 -12.2572 -0.787683 599.708 401.159
6.72423 -13.0063 -0.8445 606.294 398.095
8.42905 -12.9076 -0.866226 614.071 398.999
9.79491 -12.0166 -0.883979 620.073 403.429
8.36506 -11.4717 -0.861224 613.373 405.538
6.77264 -11.5024 -0.943109 606.08 404.933
-4.66859 10.5745 -2.79885 547.246 501.857
-3.48753 8.69981 -5.03208 552.929 492.731
-1.87858 6.95615 -6.62704 560.607 484.574
0.317013 6.93391 -8.15429 570.494 484.46
2.58206 6.46884 -6.50788 581.186 483.607
4.61313 7.77288 -4.93699 590.299 490.735
6.36981 9.25456 -2.84388 598.164 498.807
5.02552 10.7605 -4.05054 591.446 504.836
3.29839 11.8563 -5.3142 583.083 508.866
1.17058 12.4887 -6.62083 573.011 510.655
-1.07682 12.4601 -5.38352 562.869 510.408
-3.07898 11.8259 -4.2593 554.007 507.418
-0.827034 9.15492 -4.92217 564.997 495.573
0.579491 8.72924 -7.14975 571.304 493.125
2.18374 8.67822 -5.11303 578.898 494.138
2.20757 9.34047 -4.5503 578.884 497.391
0.755678 9.85614 -6.27531 571.893 498.664
-0.646819 9.78233 -4.49888 565.694 498.655
3 20 21 23
3 21 22 23
3 0 1 36
3 15 16 45
3 0 17 36
3 16 26 45
3 17 18 37
3 25 26 44
3 17 36 37
3 26 44 45
3 18 19 38
3 24 25 43
3 18 37 38
3 25 43 44
3 19 20 38
3 23 24 43
3 20 21 39
3 22 23 42
3 20 38 39
3 23 42 43
3 21 22 27
3 21 27 39
3 22 27 42
3 27 28 42
3 27 28 39
3 28 42 47
3 28 39 40
3 1 36 41
3 15 45 46
3 1 2 41
3 14 15 46
3 28 29 40
3 28 29 47
3 2 40 41
3 14 46 47
3 2 29 40
3 14 29 47
3 2 3 29
3 13 14 29
3 29 30 31
3 29 30 35
3 3 29 31
3 13 29 35
3 30 32 33
3 30 33 34
3 30 31 32
3 30 34 35
3 3 4 31
3 12 13 35
3 4 5 48
3 11 12 54
3 5 6 48
3 10 11 54
3 6 48 59
3 10 54 55
3 6 7 59
3 9 10 55
3 7 58 59
3 9 55 56
3 8 57 58
3 8 56 57
3 7 8 58
3 8 9 56
3 4 31 48
3 12 35 54
3 31 48 49
3 35 53 54
3 31 49 50
3 35 52 53
3 31 32 50
3 34 35 52
3 32 33 50
3 33 34 52
3 33 50 51
3 33 51 52
3 48 49 60
3 49 60 50
3 50 60 61
3 50 51 61
3 51 52 61
3 61 62 52
3 52 53 62
3 53 54 62
3 54 55 63
3 55 56 63
3 56 63 64
3 56 57 64
3 64 65 57
3 57 58 65
3 58 59 65
3 48 59 65
