ply
format ascii 1.0
element vertex 66
property float x
property float y
property float z
property float u
property float v
element face 91
property list uchar int vertex_indices
end_header
-20.1322 -6.10672 21.0797 487.059 432.304
-19.5445 -0.775001 20.6412 488.479 454.964
-18.5884 4.49401 20.2134 491.507 477.43
-17.1838 9.68956 18.1902 496.32 498.663
-15.0285 14.6187 13.3594 504.137 517.135
-11.7003 18.8235 7.75283 517.09 532.235
-7.4416 22.078 3.14403 534.365 544.063
-2.48817 24.1392 -0.86489 554.947 551.287
2.88376 24.2752 -4.51061 577.767 550.574
7.43232 22.6583 -0.854943 598.151 546.781
11.0991 19.5241 3.40301 615.091 536.707
14.1234 15.7788 8.13214 629.426 524.194
16.3 11.4772 13.752 640.301 509.702
17.5847 6.76132 18.4781 647.308 492.711
18.2797 1.9166 20.6138 651.516 473.436
18.6404 -2.97554 20.9625 654.099 452.777
18.7555 -7.87541 21.4055 655.631 432.099
-16.057 -15.3829 0.211099 504.344 380.26
-14.0143 -17.1202 -1.52214 513.346 372.112
-11.399 -17.9091 -2.9768 524.661 368.304
-8.65103 -17.9382 -4.33748 536.408 367.832
-5.97267 -17.3203 -5.56276 547.737 370.203
3.73112 -17.9147 -5.36167 589.845 369.572
6.49777 -18.9007 -4.15491 602.136 366.616
9.41004 -19.2276 -2.73984 614.947 366.641
12.2472 -18.5684 -1.31192 627.235 370.88
14.4516 -16.7362 0.43207 636.584 380.223
-1.34022 -11.3724 -5.03865 566.628 396.849
-1.34354 -8.38241 -7.72112 565.727 407.968
-1.32208 -5.41056 -10.5043 564.926 418.95
-1.25486 -2.46412 -13.2127 564.337 429.879
-3.64539 0.355522 -6.09053 554.183 445.975
-2.30374 0.648792 -7.09781 559.82 446.846
-0.907183 0.717669 -8.1463 565.735 446.741
0.653132 0.417396 -7.12459 572.652 446.384
2.117 -0.0837393 -6.02992 579.2 445.194
-11.9044 -10.1231 -1.26974 521.087 402.615
-10.3904 -11.2465 -1.20013 527.868 398.128
-8.43225 -11.4753 -1.04745 536.399 397.605
-6.74117 -10.7671 -0.643053 543.613 401.201
-8.37498 -9.953 -0.947803 536.351 404.195
-10.1987 -9.72081 -1.0818 528.402 404.769
5.8236 -11.8129 -1.04157 598.122 398.789
7.45341 -12.6314 -0.978737 605.342 395.624
9.41172 -12.5281 -0.856814 613.803 396.503
11.014 -11.5469 -0.745747 620.547 401.069
9.32912 -11.0456 -0.867789 613.146 402.828
7.49919 -11.0816 -1.0506 605.22 402.222
-5.31399 9.62772 -2.74937 545.452 487.459
-3.84708 7.94989 -5.01965 551.894 479.123
-2.01199 6.54012 -6.65277 559.942 472.401
0.226435 6.58113 -8.16935 569.454 472.038
2.515 6.06113 -6.48131 579.635 471.292
4.70046 7.01231 -4.87131 589.065 476.776
6.67129 8.30122 -2.81679 597.546 483.945
5.17169 9.83156 -3.95683 590.631 489.506
3.28548 10.893 -5.24808 582.123 492.893
1.08171 11.5057 -6.63519 572.322 494.241
-1.28675 11.5107 -5.34774 562.214 494.633
-3.50441 10.9242 -4.19739 552.863 492.435
-1.26564 8.52928 -5.03903 562.939 482.066
0.50218 8.285 -7.23364 570.402 479.97
2.44759 8.01651 -5.17649 579.087 480.469
2.53387 8.48143 -4.48826 579.439 482.907
0.672879 8.99287 -6.27961 571.098 483.63
-1.15114 8.97904 -4.51283 563.399 484.343
3 20 21 23
3 21 22 23
3 0 1 36
3 15 16 45
3 0 17 36
3 16 26 45
3 17 18 37
3 25 26 44
3 17 36 37
3 26 44 45
3 18 19 38
3 24 25 43
3 18 37 38
3 25 43 44
3 19 20 38
3 23 24 43
3 20 21 39
3 22 23 42
3 20 38 39
3 23 42 43
3 21 22 27
3 21 27 39
3 22 27 42
3 27 28 42
3 27 28 39
3 28 42 47
3 28 39 40
3 1 36 41
3 15 45 46
3 1 2 41
3 14 15 46
3 28 29 40
3 28 29 47
3 2 40 41
3 14 46 47
3 2 29 40
3 14 29 47
3 2 3 29
3 13 14 29
3 29 30 31
3 29 30 35
3 3 29 31
3 13 29 35
3 30 32 33
3 30 33 34
3 30 31 32
3 30 34 35
3 3 4 31
3 12 13 35
3 4 5 48
3 11 12 54
3 5 6 48
3 10 11 54
3 6 48 59
3 10 54 55
3 6 7 59
3 9 10 55
3 7 58 59
3 9 55 56
3 8 57 58
3 8 56 57
3 7 8 58
3 8 9 56
3 4 31 48
3 12 35 54
3 31 48 49
3 35 53 54
3 31 49 50
3 35 52 53
3 31 32 50
3 34 35 52
3 32 33 50
3 33 34 52
3 33 50 51
3 33 51 52
3 48 49 60
3 49 60 50
3 50 60 61
3 50 51 61
3 51 52 61
3 61 62 52
3 52 53 62
3 53 54 62
3 54 55 63
3 55 56 63
3 56 63 64
3 56 57 64
3 64 65 57
3 57 58 65
3 58 59 65
3 48 59 65
