ply
format ascii 1.0
element vertex 66
property float x
property float y
property float z
property float u
property float v
element face 91
property list uchar int vertex_indices
end_header
-19.8523 -6.07009 20.8114 489.227 429.922
-19.3996 -0.803772 20.4507 489.83 452.061
-18.5399 4.3981 20.0374 492.181 473.985
-17.0458 9.49571 18.148 497.074 494.687
-14.7818 14.2966 13.319 504.945 512.471
-11.5189 18.4539 7.78128 517.146 527.314
-7.41281 21.7757 3.16939 533.272 539.39
-2.67492 24.1186 -0.782454 552.419 547.88
2.61074 24.4338 -4.52375 574.427 548.051
7.2865 22.912 -0.694049 595.262 545.047
10.9979 19.7171 3.41746 612.423 534.932
14.0562 15.9197 8.10529 627.017 522.484
16.2747 11.5687 13.6326 638.269 508.034
17.6298 6.79535 18.4625 645.846 491.171
18.3436 1.8385 20.3635 650.348 471.561
18.5468 -3.15254 20.7156 652.477 450.726
18.4504 -8.14034 21.1103 653.332 429.865
-15.5445 -15.6724 0.266377 507.292 377.458
-13.7661 -17.517 -1.53387 515.101 368.931
-11.3267 -18.4397 -2.95958 525.557 364.682
-8.70026 -18.5312 -4.29034 536.622 364.048
-6.12932 -17.975 -5.48838 547.31 366.222
3.85665 -18.6823 -5.27869 590.152 365.582
6.54408 -19.514 -4.13258 601.979 363.378
9.33893 -19.6773 -2.80083 614.127 364.14
11.9833 -18.7533 -1.41917 625.373 369.496
13.8631 -16.6888 0.486538 633.145 379.831
-1.2545 -11.7617 -5.06478 566.668 393.837
-1.19572 -9.15196 -7.6554 565.947 403.265
-1.11658 -6.55128 -10.3045 565.307 412.623
-1.00377 -3.97727 -12.9402 564.819 421.885
-3.27742 -0.141076 -5.99396 555.078 441.934
-1.98039 -0.0409541 -6.93907 560.47 442.055
-0.664877 -0.0786362 -7.98871 565.96 441.533
0.772047 -0.255513 -6.92306 572.278 441.77
2.14603 -0.555804 -5.92942 578.347 441.426
-10.6512 -10.2962 -1.44043 526.656 400.208
-9.39146 -11.3215 -1.24552 532.31 396.274
-7.68901 -11.5435 -0.935969 539.674 395.908
-6.21471 -10.9556 -0.431165 545.892 399.036
-7.56692 -9.98074 -0.897194 539.82 402.565
-9.1664 -9.76006 -1.092 532.911 403.021
4.78363 -11.7821 -0.644443 593.031 397.852
6.21308 -12.4884 -0.889135 599.276 395.03
7.92672 -12.3981 -1.02882 606.553 395.706
9.28251 -11.4993 -1.09752 612.115 399.764
7.84132 -10.8676 -0.931128 605.828 402.218
6.2289 -10.9137 -0.930734 598.954 401.665
-4.45705 10.3881 -2.75221 547.898 488.208
-3.34044 8.52691 -5.05551 552.82 479.15
-1.82287 6.73027 -6.66979 559.528 470.884
0.320307 6.74385 -8.1312 568.487 470.505
2.5108 6.3036 -6.54052 578.154 470.123
4.3935 7.72206 -4.94276 586.056 477.536
5.96966 9.2765 -2.74706 592.693 485.828
4.78403 10.7919 -3.99112 587.1 491.194
3.18299 11.9111 -5.40171 579.807 494.69
1.10676 12.5284 -6.80156 570.609 495.964
-1.09352 12.4273 -5.50555 561.406 495.857
-2.98007 11.688 -4.24127 553.694 493.102
-0.888433 8.95135 -4.93514 563.203 481.564
0.562718 8.51881 -7.05122 569.23 478.737
2.17298 8.55413 -5.00208 576.364 480.523
2.23125 9.41426 -4.4628 576.473 484.509
0.754102 9.94983 -6.3258 569.793 485.282
-0.713005 9.78855 -4.513 563.803 485.406
3 20 21 23
3 21 22 23
3 0 1 36
3 15 16 45
3 0 17 36
3 16 26 45
3 17 18 37
3 25 26 44
3 17 36 37
3 26 44 45
3 18 19 38
3 24 25 43
3 18 37 38
3 25 43 44
3 19 20 38
3 23 24 43
3 20 21 39
3 22 23 42
3 20 38 39
3 23 42 43
3 21 22 27
3 21 27 39
3 22 27 42
3 27 28 42
3 27 28 39
3 28 42 47
3 28 39 40
3 1 36 41
3 15 45 46
3 1 2 41
3 14 15 46
3 28 29 40
3 28 29 47
3 2 40 41
3 14 46 47
3 2 29 40
3 14 29 47
3 2 3 29
3 13 14 29
3 29 30 31
3 29 30 35
3 3 29 31
3 13 29 35
3 30 32 33
3 30 33 34
3 30 31 32
3 30 34 35
3 3 4 31
3 12 13 35
3 4 5 48
3 11 12 54
3 5 6 48
3 10 11 54
3 6 48 59
3 10 54 55
3 6 7 59
3 9 10 55
3 7 58 59
3 9 55 56
3 8 57 58
3 8 56 57
3 7 8 58
3 8 9 56
3 4 31 48
3 12 35 54
3 31 48 49
3 35 53 54
3 31 49 50
3 35 52 53
3 31 32 50
3 34 35 52
3 32 33 50
3 33 34 52
3 33 50 51
3 33 51 52
3 48 49 60
3 49 60 50
3 50 60 61
3 50 51 61
3 51 52 61
3 61 62 52
3 52 53 62
3 53 54 62
3 54 55 63
3 55 56 63
3 56 63 64
3 56 57 64
3 64 65 57
3 57 58 65
3 58 59 65
3 48 59 65
