ply
format ascii 1.0
element vertex 66
property float x
property float y
property float z
property float u
property float v
element face 91
property list uchar int vertex_indices
end_header
-19.7033 -5.90658 20.8894 490.461 426.069
-19.2016 -0.687059 20.466 491.009 448.131
-18.3096 4.47321 20.0983 493.251 470.089
-16.8897 9.50386 18.146 497.703 490.696
-14.7151 14.2218 13.4153 505.321 508.524
-11.5138 18.3156 7.83935 517.481 523.491
-7.43787 21.5847 3.1508 533.695 535.744
-2.67369 23.8101 -0.806942 553.219 544.203
2.61776 24.0301 -4.47552 575.629 544.473
7.22685 22.5547 -0.824631 596.06 541.745
10.8918 19.4549 3.35114 612.964 532.158
13.9184 15.7813 8.15236 627.341 520.324
16.0882 11.5619 13.7737 638.257 506.415
17.3903 6.89278 18.4616 645.533 489.782
18.0912 1.98665 20.5317 650.146 470.392
18.3865 -3.01572 20.8826 652.947 449.441
18.4076 -8.02076 21.3134 654.577 428.447
-15.6561 -15.4525 0.22084 509.48 374.267
-13.8139 -17.2335 -1.50362 517.818 366.202
-11.3603 -18.0933 -2.95577 528.515 362.391
-8.75432 -18.1978 -4.33171 539.641 361.878
-6.20813 -17.6921 -5.58806 550.334 364.012
3.65793 -18.3258 -5.37343 592.852 364.324
6.3597 -19.2604 -4.13257 604.796 361.887
9.20038 -19.5457 -2.71047 617.15 362.359
11.9623 -18.8351 -1.28569 628.865 367.039
14.0739 -16.9656 0.418058 637.456 376.62
-1.35162 -11.6625 -5.06329 569.37 391.354
-1.31936 -8.95938 -7.66377 568.536 401.281
-1.26225 -6.27591 -10.3715 567.808 411.067
-1.16404 -3.61714 -13.0587 567.265 420.773
-3.45221 0.0320441 -6.00724 556.766 439.848
-2.15426 0.18997 -7.01466 562.225 440.291
-0.824792 0.174935 -8.06917 567.869 439.98
0.680757 -0.0430684 -7.03329 574.453 440.116
2.11915 -0.41668 -5.96638 580.799 439.59
-11.4922 -10.2549 -1.30325 525.676 396.641
-10.043 -11.3898 -1.15127 532.244 392.334
-8.1245 -11.6125 -0.964477 540.55 392.059
-6.48951 -10.927 -0.611874 547.376 395.659
-8.04878 -10.0155 -0.975159 540.391 398.858
-9.83952 -9.7635 -1.09559 532.627 399.334
5.48343 -11.9592 -0.892277 599.021 394.594
7.06027 -12.8035 -0.879144 606.04 391.475
8.99638 -12.7197 -0.832227 614.321 392.424
10.5729 -11.7581 -0.831033 620.792 396.968
8.95214 -11.1417 -0.878687 613.651 399.086
7.13569 -11.1664 -1.01775 605.86 398.367
-4.72138 10.2155 -2.78295 548.433 484.674
-3.4448 8.46266 -5.01383 554.306 476.258
-1.82307 6.84872 -6.65488 561.652 468.888
0.294005 6.85488 -8.20691 570.638 468.597
2.4703 6.40498 -6.52216 580.208 468.334
4.46214 7.61847 -4.89711 588.48 475.046
6.24519 9.00249 -2.83483 595.831 482.685
4.96601 10.6228 -4.09108 589.78 488.439
3.25218 11.8125 -5.40834 581.991 492.201
1.09239 12.4482 -6.758 572.456 493.46
-1.18839 12.386 -5.48015 562.769 493.3
-3.19164 11.63 -4.26314 554.478 490.237
-1.14138 8.9877 -4.94669 564.03 479.2
0.535056 8.60145 -7.18667 571.204 476.7
2.38846 8.51234 -5.10967 579.303 478.111
2.45525 9.24309 -4.52063 579.403 481.589
0.705029 9.79857 -6.27163 571.625 482.385
-1.02045 9.69967 -4.49271 564.36 482.532
3 20 21 23
3 21 22 23
3 0 1 36
3 15 16 45
3 0 17 36
3 16 26 45
3 17 18 37
3 25 26 44
3 17 36 37
3 26 44 45
3 18 19 38
3 24 25 43
3 18 37 38
3 25 43 44
3 19 20 38
3 23 24 43
3 20 21 39
3 22 23 42
3 20 38 39
3 23 42 43
3 21 22 27
3 21 27 39
3 22 27 42
3 27 28 42
3 27 28 39
3 28 42 47
3 28 39 40
3 1 36 41
3 15 45 46
3 1 2 41
3 14 15 46
3 28 29 40
3 28 29 47
3 2 40 41
3 14 46 47
3 2 29 40
3 14 29 47
3 2 3 29
3 13 14 29
3 29 30 31
3 29 30 35
3 3 29 31
3 13 29 35
3 30 32 33
3 30 33 34
3 30 31 32
3 30 34 35
3 3 4 31
3 12 13 35
3 4 5 48
3 11 12 54
3 5 6 48
3 10 11 54
3 6 48 59
3 10 54 55
3 6 7 59
3 9 10 55
3 7 58 59
3 9 55 56
3 8 57 58
3 8 56 57
3 7 8 58
3 8 9 56
3 4 31 48
3 12 35 54
3 31 48 49
3 35 53 54
3 31 49 50
3 35 52 53
3 31 32 50
3 34 35 52
3 32 33 50
3 33 34 52
3 33 50 51
3 33 51 52
3 48 49 60
3 49 60 50
3 50 60 61
3 50 51 61
3 51 52 61
3 61 62 52
3 52 53 62
3 53 54 62
3 54 55 63
3 55 56 63
3 56 63 64
3 56 57 64
3 64 65 57
3 57 58 65
3 58 59 65
3 48 59 65
