ply
format ascii 1.0
element vertex 66
property float x
property float y
property float z
property float u
property float v
element face 91
property list uchar int vertex_indices
end_header
-20.0719 -5.95955 20.6714 483.225 433.56
-19.5846 -0.762842 20.2922 484.159 456.5
-18.6354 4.3582 19.8833 487.155 479.195
-17.002 9.36133 18.1358 493.047 501.027
-14.5689 14.0478 13.1939 502.165 520.463
-11.2386 18.2099 7.78567 515.324 537.605
-7.16572 21.6838 3.2268 532.035 552.175
-2.4243 24.1756 -0.777875 552.001 562.752
2.93697 24.5253 -4.43071 575.244 564.121
7.53636 23.0142 -0.765249 596.429 559.776
11.1605 19.877 3.41397 613.721 548.22
14.1174 16.1262 8.07552 628.254 533.984
16.275 11.8672 13.5245 639.454 517.616
17.592 7.16115 18.5418 646.976 498.932
18.3312 2.17534 20.3001 651.601 477.693
18.6264 -2.86346 20.7065 654.103 455.63
18.642 -7.89615 21.1902 655.375 433.562
-15.4769 -16.0393 0.321863 503.395 382.548
-13.604 -17.8651 -1.54647 511.885 374.198
-11.1134 -18.7727 -2.95484 522.961 370.209
-8.44526 -18.8704 -4.25752 534.654 369.878
-5.85669 -18.265 -5.43291 545.849 372.684
3.35083 -18.9724 -5.10236 586.874 371.669
6.19635 -19.9001 -4.0155 599.834 368.581
9.16562 -20.0731 -2.74388 613.193 368.923
11.9738 -19.0796 -1.43175 625.579 374.403
13.9969 -16.901 0.54661 634.296 385.196
-1.48981 -11.8092 -5.00073 563.798 402.326
-1.37781 -8.80126 -7.68635 563.282 414.666
-1.23942 -5.80234 -10.3866 562.884 426.965
-1.05948 -2.82439 -12.9703 562.69 439.224
-3.27394 0.565644 -6.15577 552.936 456.225
-2.06078 0.725379 -7.00296 558.175 456.883
-0.81103 0.701833 -7.93279 563.607 456.71
0.636477 0.488659 -6.98415 570.19 456.427
1.98728 0.112689 -6.07144 576.376 455.391
-10.5706 -10.5635 -1.40827 523.693 407.184
-9.24519 -11.7766 -1.27091 529.862 402.158
-7.39415 -11.9338 -0.981667 538.14 401.969
-5.87649 -11.0514 -0.393506 544.74 406.413
-7.32984 -10.0977 -0.877808 538.021 410.138
-9.01827 -9.89952 -1.08325 530.465 410.574
4.37379 -11.8764 -0.584068 590.351 404.914
5.83661 -12.9204 -0.911242 597.034 400.495
7.7138 -12.8844 -1.01934 605.335 401.021
9.19235 -11.8299 -1.0112 611.652 406.005
7.67278 -11.0689 -0.88533 604.758 409.087
5.95093 -11.0519 -0.892317 597.119 408.787
-4.03541 10.3412 -2.66846 547.767 500.552
-3.05025 8.58193 -5.09502 552.237 492.1
-1.67449 6.92394 -6.69954 558.517 484.481
0.279849 6.9577 -8.17858 566.993 484.512
2.31215 6.49151 -6.60042 576.303 483.468
4.09993 7.7677 -5.02525 584.133 490.072
5.64791 9.17597 -2.72287 590.958 497.475
4.50658 10.581 -3.95924 585.427 502.987
3.01295 11.6373 -5.33551 578.397 506.831
1.09466 12.2462 -6.69283 569.587 508.611
-0.936147 12.1838 -5.40888 560.755 508.366
-2.67868 11.5166 -4.20601 553.327 505.479
-0.582988 9.09057 -4.88313 563.087 494.96
0.525146 8.68207 -7.0407 567.829 492.604
1.83493 8.68152 -5.05047 573.88 493.613
1.8627 9.18972 -4.50454 573.954 496.066
0.684082 9.63019 -6.30295 568.409 497.1
-0.429023 9.55608 -4.4666 563.715 497.203
3 20 21 23
3 21 22 23
3 0 1 36
3 15 16 45
3 0 17 36
3 16 26 45
3 17 18 37
3 25 26 44
3 17 36 37
3 26 44 45
3 18 19 38
3 24 25 43
3 18 37 38
3 25 43 44
3 19 20 38
3 23 24 43
3 20 21 39
3 22 23 42
3 20 38 39
3 23 42 43
3 21 22 27
3 21 27 39
3 22 27 42
3 27 28 42
3 27 28 39
3 28 42 47
3 28 39 40
3 1 36 41
3 15 45 46
3 1 2 41
3 14 15 46
3 28 29 40
3 28 29 47
3 2 40 41
3 14 46 47
3 2 29 40
3 14 29 47
3 2 3 29
3 13 14 29
3 29 30 31
3 29 30 35
3 3 29 31
3 13 29 35
3 30 32 33
3 30 33 34
3 30 31 32
3 30 34 35
3 3 4 31
3 12 13 35
3 4 5 48
3 11 12 54
3 5 6 48
3 10 11 54
3 6 48 59
3 10 54 55
3 6 7 59
3 9 10 55
3 7 58 59
3 9 55 56
3 8 57 58
3 8 56 57
3 7 8 58
3 8 9 56
3 4 31 48
3 12 35 54
3 31 48 49
3 35 53 54
3 31 49 50
3 35 52 53
3 31 32 50
3 34 35 52
3 32 33 50
3 33 34 52
3 33 50 51
3 33 51 52
3 48 49 60
3 49 60 50
3 50 60 61
3 50 51 61
3 51 52 61
3 61 62 52
3 52 53 62
3 53 54 62
3 54 55 63
3 55 56 63
3 56 63 64
3 56 57 64
3 64 65 57
3 57 58 65
3 58 59 65
3 48 59 65
