ply
format ascii 1.0
element vertex 66
property float x
property float y
property float z
property float u
property float v
element face 91
property list uchar int vertex_indices
end_header
-20.168 -5.59323 20.8775 484.323 431.047
-19.7065 -0.505706 20.4318 484.469 453.314
-18.8411 4.52729 20.1436 486.426 475.564
-17.4344 9.39979 18.1093 490.746 496.449
-15.1468 13.9241 13.3718 498.948 514.798
-11.7245 17.7944 7.87117 512.362 530.311
-7.42983 20.7985 3.23187 529.987 542.761
-2.50404 22.776 -0.792024 550.804 551.234
2.86784 22.8143 -4.31822 574.326 551.606
7.39003 21.5654 -0.923724 594.91 549.417
11.1521 18.9175 3.37285 612.697 541.26
14.3971 15.7183 8.17476 628.429 530.746
16.6914 11.8243 13.8038 640.261 517.247
17.8965 7.28303 18.5848 647.482 500.101
18.4889 2.36745 20.7752 652.01 479.823
18.8005 -2.70015 21.1323 655.264 457.878
18.916 -7.76058 21.6419 657.656 435.968
-15.9593 -15.3987 0.252113 505.489 379.429
-13.9303 -17.0837 -1.48259 514.978 371.916
-11.3829 -17.8521 -2.96818 526.43 368.732
-8.72648 -17.9603 -4.33464 538.128 368.543
-6.14829 -17.4826 -5.59506 549.269 370.948
3.26497 -18.1346 -5.27554 591.071 371.629
6.22968 -19.1664 -4.05832 604.594 368.766
9.3418 -19.5153 -2.66099 618.526 369.039
12.3955 -18.8191 -1.25038 631.818 373.883
14.8174 -16.8906 0.432124 641.881 384.04
-1.67993 -11.5095 -5.10528 566.821 399
-1.61078 -8.47905 -7.69067 565.887 411.052
-1.50741 -5.48205 -10.4865 565.105 422.867
-1.34975 -2.50806 -13.2419 564.574 434.62
-3.92011 0.734638 -6.17593 552.385 451.386
-2.53366 0.997513 -7.14737 558.36 452.562
-1.09536 1.00002 -8.13398 564.659 452.606
0.62696 0.701627 -7.2005 572.415 452.374
2.25061 0.16888 -6.15715 579.828 451.133
-11.6529 -10.2629 -1.18736 522.539 402.803
-10.1326 -11.5446 -1.13043 529.722 397.755
-8.10391 -11.6606 -1.01987 538.724 398.03
-6.44366 -10.692 -0.629945 545.715 403.067
-8.10278 -9.90656 -0.957032 538.088 405.756
-9.95034 -9.68703 -1.11056 529.845 405.98
5.56675 -11.8503 -0.933296 599.135 402.156
7.16924 -13.0339 -0.924233 606.642 397.544
9.23356 -13.0212 -0.756072 615.757 398.425
10.9469 -11.9589 -0.619529 622.936 403.768
9.25085 -11.2607 -0.846719 615.182 406.11
7.34752 -11.2032 -0.99844 606.753 405.603
-5.63211 10.0799 -2.79212 541.562 493.429
-3.96327 8.49313 -5.01337 549.402 485.979
-2.03953 7.11628 -6.65828 558.317 479.823
0.239942 7.11553 -8.22583 568.302 479.871
2.61727 6.59547 -6.56964 579.066 479.257
4.97138 7.48985 -4.94384 589.207 484.824
7.29319 8.54926 -2.91301 599.165 491.303
5.56124 10.1178 -4.08996 590.888 496.985
3.44425 11.1784 -5.33818 581.093 500.264
1.0578 11.7532 -6.5435 570.29 501.337
-1.42159 11.8737 -5.36147 559.361 501.553
-3.76666 11.3597 -4.233 549.255 499.008
-1.52004 9.13245 -5.05777 559.948 489.64
0.482323 8.76673 -7.35231 568.808 487.631
2.71688 8.5119 -5.39469 578.86 488.276
2.75874 8.828 -4.6877 578.963 490.025
0.601194 9.23917 -6.40141 569.205 490.213
-1.45238 9.4101 -4.51855 560.171 491.147
3 20 21 23
3 21 22 23
3 0 1 36
3 15 16 45
3 0 17 36
3 16 26 45
3 17 18 37
3 25 26 44
3 17 36 37
3 26 44 45
3 18 19 38
3 24 25 43
3 18 37 38
3 25 43 44
3 19 20 38
3 23 24 43
3 20 21 39
3 22 23 42
3 20 38 39
3 23 42 43
3 21 22 27
3 21 27 39
3 22 27 42
3 27 28 42
3 27 28 39
3 28 42 47
3 28 39 40
3 1 36 41
3 15 45 46
3 1 2 41
3 14 15 46
3 28 29 40
3 28 29 47
3 2 40 41
3 14 46 47
3 2 29 40
3 14 29 47
3 2 3 29
3 13 14 29
3 29 30 31
3 29 30 35
3 3 29 31
3 13 29 35
3 30 32 33
3 30 33 34
3 30 31 32
3 30 34 35
3 3 4 31
3 12 13 35
3 4 5 48
3 11 12 54
3 5 6 48
3 10 11 54
3 6 48 59
3 10 54 55
3 6 7 59
3 9 10 55
3 7 58 59
3 9 55 56
3 8 57 58
3 8 56 57
3 7 8 58
3 8 9 56
3 4 31 48
3 12 35 54
3 31 48 49
3 35 53 54
3 31 49 50
3 35 52 53
3 31 32 50
3 34 35 52
3 32 33 50
3 33 34 52
3 33 50 51
3 33 51 52
3 48 49 60
3 49 60 50
3 50 60 61
3 50 51 61
3 51 52 61
3 61 62 52
3 52 53 62
3 53 54 62
3 54 55 63
3 55 56 63
3 56 63 64
3 56 57 64
3 64 65 57
3 57 58 65
3 58 59 65
3 48 59 65
