ply
format ascii 1.0
element vertex 66
property float x
property float y
property float z
property float u
property float v
element face 91
property list uchar int vertex_indices
end_header
-19.8155 -5.83303 20.862 490.679 425.339
-19.2866 -0.649456 20.4376 491.274 447.314
-18.3651 4.47147 20.0802 493.578 469.178
-16.9109 9.47428 18.1243 498.049 489.823
-14.6955 14.1968 13.4008 505.604 507.989
-11.4824 18.3266 7.82631 517.539 523.466
-7.41761 21.6544 3.16677 533.466 536.289
-2.66089 23.9384 -0.809894 552.754 545.253
2.63353 24.2094 -4.48026 575.01 545.984
7.25754 22.7316 -0.826479 595.649 543.086
10.9559 19.6388 3.35413 612.88 533.329
14 15.9344 8.13341 627.556 521.102
16.1638 11.6584 13.7715 638.722 506.65
17.439 6.91888 18.4773 646.134 489.449
18.1325 1.95361 20.5315 650.868 469.661
18.4423 -3.09513 20.8901 653.819 448.474
18.4823 -8.14751 21.3464 655.624 427.245
-15.6494 -15.2973 0.190849 509.52 375.009
-13.8047 -17.058 -1.52261 517.816 367.134
-11.3552 -17.9045 -2.97119 528.443 363.475
-8.75454 -18.0045 -4.35607 539.489 363.071
-6.21135 -17.5061 -5.61282 550.113 365.265
3.68531 -18.1864 -5.38958 592.772 365.462
6.40121 -19.1255 -4.15353 604.829 362.959
9.24873 -19.4204 -2.72668 617.266 363.34
12.0169 -18.7172 -1.3085 629.048 367.938
14.1405 -16.8635 0.382497 637.731 377.386
-1.35638 -11.6137 -5.05049 569.124 392.094
-1.30371 -8.93515 -7.6656 568.255 402.071
-1.22633 -6.27366 -10.368 567.488 411.936
-1.11052 -3.63569 -13.0311 566.897 421.733
-3.42376 -0.0128559 -5.98678 556.521 440.308
-2.13507 0.178135 -7.00328 561.887 440.95
-0.80746 0.184935 -8.06224 567.474 440.797
0.696425 -0.0582192 -7.02059 574.098 440.784
2.12475 -0.465054 -5.93272 580.453 440.078
-11.5283 -10.24 -1.32056 525.448 396.929
-10.127 -11.2769 -1.15181 531.798 393.031
-8.30413 -11.5316 -0.946123 539.712 392.607
-6.70801 -11.0139 -0.647004 546.42 395.452
-8.20297 -10.1337 -0.978089 539.703 398.566
-9.92369 -9.86463 -1.09202 532.231 399.133
5.66638 -12.0897 -0.89129 599.78 394.453
7.23319 -12.7825 -0.846705 606.719 392.001
9.08837 -12.6557 -0.840516 614.632 393.1
10.6141 -11.7926 -0.876418 620.897 397.209
9.01946 -11.2913 -0.882 613.903 398.86
7.26337 -11.3306 -1.01142 606.375 398.096
-4.63724 10.1503 -2.79094 548.43 484.925
-3.41236 8.39068 -4.9947 554.021 476.601
-1.81803 6.79211 -6.62542 561.201 469.386
0.274753 6.81317 -8.17444 570.016 469.255
2.42505 6.35752 -6.52118 579.537 468.867
4.3872 7.57292 -4.89989 587.722 475.514
6.1226 8.97083 -2.84472 594.92 483.106
4.82571 10.5164 -4.06673 588.756 488.622
3.13478 11.6378 -5.38983 581.027 492.16
1.03094 12.2563 -6.74701 571.683 493.417
-1.1832 12.1926 -5.44555 562.337 493.195
-3.13204 11.4888 -4.2268 554.322 490.284
-1.07011 8.90227 -4.94301 563.906 479.508
0.499723 8.54616 -7.17018 570.532 477.244
2.23939 8.45044 -5.11723 578.218 478.483
2.28003 9.10816 -4.52093 578.243 481.62
0.651546 9.65307 -6.25684 570.923 482.498
-0.952482 9.53675 -4.47794 564.255 482.497
3 20 21 23
3 21 22 23
3 0 1 36
3 15 16 45
3 0 17 36
3 16 26 45
3 17 18 37
3 25 26 44
3 17 36 37
3 26 44 45
3 18 19 38
3 24 25 43
3 18 37 38
3 25 43 44
3 19 20 38
3 23 24 43
3 20 21 39
3 22 23 42
3 20 38 39
3 23 42 43
3 21 22 27
3 21 27 39
3 22 27 42
3 27 28 42
3 27 28 39
3 28 42 47
3 28 39 40
3 1 36 41
3 15 45 46
3 1 2 41
3 14 15 46
3 28 29 40
3 28 29 47
3 2 40 41
3 14 46 47
3 2 29 40
3 14 29 47
3 2 3 29
3 13 14 29
3 29 30 31
3 29 30 35
3 3 29 31
3 13 29 35
3 30 32 33
3 30 33 34
3 30 31 32
3 30 34 35
3 3 4 31
3 12 13 35
3 4 5 48
3 11 12 54
3 5 6 48
3 10 11 54
3 6 48 59
3 10 54 55
3 6 7 59
3 9 10 55
3 7 58 59
3 9 55 56
3 8 57 58
3 8 56 57
3 7 8 58
3 8 9 56
3 4 31 48
3 12 35 54
3 31 48 49
3 35 53 54
3 31 49 50
3 35 52 53
3 31 32 50
3 34 35 52
3 32 33 50
3 33 34 52
3 33 50 51
3 33 51 52
3 48 49 60
3 49 60 50
3 50 60 61
3 50 51 61
3 51 52 61
3 61 62 52
3 52 53 62
3 53 54 62
3 54 55 63
3 55 56 63
3 56 63 64
3 56 57 64
3 64 65 57
3 57 58 65
3 58 59 65
3 48 59 65
