ply
format ascii 1.0
element vertex 66
property float x
property float y
property float z
property float u
property float v
element face 91
property list uchar int vertex_indices
end_header
-19.3115 -5.43375 20.6533 489.322 431.57
-18.744 -0.458682 20.2017 489.279 453.557
-17.8357 4.4632 19.856 490.799 475.524
-16.4323 9.3352 18.0196 494.201 496.711
-14.3691 14.0817 13.3695 499.951 516.161
-11.4542 18.3938 7.82483 509.491 533.615
-7.70804 21.9858 3.16069 523.276 548.742
-3.25052 24.6176 -0.848132 540.84 560.308
1.83935 25.249 -4.53843 562.272 563.505
6.65695 23.8266 -0.815759 585.199 561.433
10.5064 20.5822 3.33028 604.828 551.092
13.6592 16.6223 8.03962 621.847 537.568
15.9297 12.0542 13.617 635.449 521.408
17.2626 7.02 18.3943 644.94 502.332
17.9872 1.8127 20.3258 651.167 480.703
18.2831 -3.41554 20.7749 655.165 457.998
18.2852 -8.66007 21.1706 657.855 435.056
-15.1019 -15.3376 0.175296 508.224 378.963
-13.3611 -17.021 -1.57439 516.381 371.413
-11.0326 -17.8757 -2.96821 526.818 367.983
-8.52948 -18.0252 -4.33104 537.687 367.764
-6.06254 -17.5888 -5.54552 548.141 370.193
3.38632 -18.4615 -5.37463 590.537 370.817
6.01056 -19.4072 -4.17827 602.921 368.494
8.76131 -19.698 -2.78454 615.588 369.225
11.4281 -19.048 -1.38132 627.42 374.076
13.5107 -17.3558 0.360118 636.222 383.435
-1.20441 -11.7229 -5.03011 566.917 398.616
-1.03699 -8.96694 -7.65084 565.701 409.473
-0.854099 -6.22059 -10.3212 564.547 420.268
-0.65577 -3.49616 -12.8943 563.495 431.026
-2.96947 -0.225443 -5.81897 553.226 448.136
-1.71259 -0.0406602 -6.897 558.466 448.964
-0.409195 -0.0197611 -7.99496 563.989 449.08
0.984798 -0.276691 -6.90904 570.549 449.168
2.29953 -0.686077 -5.89453 576.816 448.508
-10.8573 -10.5173 -1.39426 524.319 401.382
-9.7213 -11.4662 -1.15719 529.883 397.846
-8.17596 -11.7814 -0.865377 536.962 397.326
-6.78086 -11.4574 -0.624911 543.047 399.532
-7.99891 -10.5579 -0.960605 537.121 402.759
-9.46181 -10.2753 -1.06605 530.467 403.272
5.30189 -12.5722 -0.584201 597.22 400.241
6.65519 -13.1607 -0.787383 603.469 398.164
8.26 -13.0492 -0.966281 610.494 399.307
9.5768 -12.322 -1.12118 615.942 403.046
8.20682 -11.8638 -0.864508 609.695 404.569
6.68589 -11.886 -0.835408 602.964 403.78
-4.04198 10.4702 -2.84054 543.863 496.431
-3.01542 8.62749 -5.00203 548.835 487.629
-1.56003 6.91749 -6.57224 555.78 479.924
0.485794 6.95506 -8.12485 564.485 480.218
2.55328 6.51616 -6.53633 574.238 480.081
4.3233 7.89437 -4.94383 581.774 487.83
5.75128 9.41796 -2.74992 587.857 496.381
4.49006 10.7363 -4.08904 581.305 500.906
2.93206 11.7038 -5.31353 573.635 503.806
0.979528 12.2728 -6.69504 564.375 504.68
-0.984731 12.1421 -5.34158 556.032 503.907
-2.68433 11.5603 -4.13399 549.054 501.189
-0.61943 8.96267 -4.86631 559.332 490.293
0.63559 8.59546 -7.02917 564.589 488.109
1.97431 8.62882 -5.00966 570.973 489.947
1.91259 9.35013 -4.49821 570.46 493.374
0.717243 9.88433 -6.12396 564.521 494.316
-0.490248 9.6718 -4.42451 559.656 493.717
3 20 21 23
3 21 22 23
3 0 1 36
3 15 16 45
3 0 17 36
3 16 26 45
3 17 18 37
3 25 26 44
3 17 36 37
3 26 44 45
3 18 19 38
3 24 25 43
3 18 37 38
3 25 43 44
3 19 20 38
3 23 24 43
3 20 21 39
3 22 23 42
3 20 38 39
3 23 42 43
3 21 22 27
3 21 27 39
3 22 27 42
3 27 28 42
3 27 28 39
3 28 42 47
3 28 39 40
3 1 36 41
3 15 45 46
3 1 2 41
3 14 15 46
3 28 29 40
3 28 29 47
3 2 40 41
3 14 46 47
3 2 29 40
3 14 29 47
3 2 3 29
3 13 14 29
3 29 30 31
3 29 30 35
3 3 29 31
3 13 29 35
3 30 32 33
3 30 33 34
3 30 31 32
3 30 34 35
3 3 4 31
3 12 13 35
3 4 5 48
3 11 12 54
3 5 6 48
3 10 11 54
3 6 48 59
3 10 54 55
3 6 7 59
3 9 10 55
3 7 58 59
3 9 55 56
3 8 57 58
3 8 56 57
3 7 8 58
3 8 9 56
3 4 31 48
3 12 35 54
3 31 48 49
3 35 53 54
3 31 49 50
3 35 52 53
3 31 32 50
3 34 35 52
3 32 33 50
3 33 34 52
3 33 50 51
3 33 51 52
3 48 49 60
3 49 60 50
3 50 60 61
3 50 51 61
3 51 52 61
3 61 62 52
3 52 53 62
3 53 54 62
3 54 55 63
3 55 56 63
3 56 63 64
3 56 57 64
3 64 65 57
3 57 58 65
3 58 59 65
3 48 59 65
