ply
format ascii 1.0
element vertex 66
property float x
property float y
property float z
property float u
property float v
element face 91
property list uchar int vertex_indices
end_header
-19.5076 -5.67711 20.7487 488.549 432.315
-18.9554 -0.613608 20.2987 488.91 454.561
-18.0386 4.39261 19.9535 490.92 476.752
-16.6169 9.33147 18.0625 495.021 498.013
-14.4967 14.0863 13.3898 501.979 517.243
-11.4452 18.3148 7.8341 513.173 534.044
-7.54866 21.7624 3.17214 528.524 548.214
-2.97618 24.229 -0.838164 547.335 558.678
2.1727 24.7071 -4.47876 569.54 560.815
6.86204 23.2559 -0.82579 591.299 558.197
10.6023 20.0733 3.36004 609.61 547.883
13.698 16.2522 8.07898 625.383 534.796
15.96 11.8574 13.6497 637.788 519.321
17.3264 7.00633 18.3902 646.319 501.048
18.0647 1.98161 20.3857 651.83 480.298
18.3835 -3.07959 20.7772 655.32 458.366
18.4169 -8.15237 21.1841 657.551 436.282
-15.3673 -15.503 0.160348 508.533 379.651
-13.5129 -17.1689 -1.54417 517.225 372.124
-11.0896 -17.9813 -2.96442 528.125 368.723
-8.51175 -18.0865 -4.33935 539.43 368.518
-5.97866 -17.6037 -5.57878 550.316 370.954
3.32826 -18.3399 -5.37278 591.853 371.415
6.01977 -19.273 -4.15863 604.284 368.998
8.83581 -19.5643 -2.76143 617.029 369.551
11.5684 -18.9047 -1.35785 629.023 374.259
13.6959 -17.166 0.37005 637.939 383.654
-1.2852 -11.7527 -5.04288 568.812 398.79
-1.17352 -9.00411 -7.63632 567.912 409.534
-1.04296 -6.27061 -10.3272 567.091 420.167
-0.884806 -3.56242 -12.9656 566.409 430.728
-3.28322 -0.104557 -5.87973 555.189 448.812
-1.949 0.116823 -6.94394 560.89 449.73
-0.565231 0.139204 -8.03998 566.887 449.775
0.935778 -0.130421 -6.95099 573.765 449.751
2.34301 -0.585981 -5.92466 580.295 448.84
-11.077 -10.5201 -1.35335 525.363 402.414
-9.8806 -11.4855 -1.13399 531.074 398.746
-8.27384 -11.7646 -0.865609 538.332 398.282
-6.84215 -11.3583 -0.619443 544.537 400.753
-8.12922 -10.4926 -0.956471 538.451 403.884
-9.64349 -10.2283 -1.07375 531.626 404.4
5.39681 -12.4216 -0.700848 599.158 400.751
6.78609 -13.0324 -0.80056 605.545 398.546
8.4311 -12.9237 -0.899807 612.776 399.605
9.77722 -12.1507 -0.983688 618.418 403.48
8.36714 -11.6877 -0.853552 612.001 405.043
6.81023 -11.7235 -0.881656 605.117 404.27
-4.3979 10.5054 -2.84375 546.329 496.684
-3.24905 8.66308 -5.01459 551.914 487.859
-1.68401 6.95462 -6.59767 559.355 480.098
0.454396 6.97694 -8.13987 568.644 480.194
2.62874 6.51596 -6.49767 578.643 479.885
4.54235 7.83725 -4.91794 586.763 487.282
6.14744 9.32986 -2.79969 593.509 495.602
4.83036 10.7471 -4.07861 586.964 500.643
3.15742 11.7601 -5.31105 579.01 503.794
1.10415 12.3436 -6.66897 569.53 504.841
-1.00836 12.2669 -5.37387 560.35 504.384
-2.89029 11.6793 -4.19647 552.383 501.704
-0.716814 9.10677 -4.9245 562.961 490.835
0.663217 8.74125 -7.08937 568.978 488.599
2.16809 8.70877 -5.06384 575.882 490.122
2.1363 9.26172 -4.53682 575.578 492.825
0.778522 9.76872 -6.21743 569.173 493.631
-0.566121 9.64031 -4.48945 563.463 493.473
3 20 21 23
3 21 22 23
3 0 1 36
3 15 16 45
3 0 17 36
3 16 26 45
3 17 18 37
3 25 26 44
3 17 36 37
3 26 44 45
3 18 19 38
3 24 25 43
3 18 37 38
3 25 43 44
3 19 20 38
3 23 24 43
3 20 21 39
3 22 23 42
3 20 38 39
3 23 42 43
3 21 22 27
3 21 27 39
3 22 27 42
3 27 28 42
3 27 28 39
3 28 42 47
3 28 39 40
3 1 36 41
3 15 45 46
3 1 2 41
3 14 15 46
3 28 29 40
3 28 29 47
3 2 40 41
3 14 46 47
3 2 29 40
3 14 29 47
3 2 3 29
3 13 14 29
3 29 30 31
3 29 30 35
3 3 29 31
3 13 29 35
3 30 32 33
3 30 33 34
3 30 31 32
3 30 34 35
3 3 4 31
3 12 13 35
3 4 5 48
3 11 12 54
3 5 6 48
3 10 11 54
3 6 48 59
3 10 54 55
3 6 7 59
3 9 10 55
3 7 58 59
3 9 55 56
3 8 57 58
3 8 56 57
3 7 8 58
3 8 9 56
3 4 31 48
3 12 35 54
3 31 48 49
3 35 53 54
3 31 49 50
3 35 52 53
3 31 32 50
3 34 35 52
3 32 33 50
3 33 34 52
3 33 50 51
3 33 51 52
3 48 49 60
3 49 60 50
3 50 60 61
3 50 51 61
3 51 52 61
3 61 62 52
3 52 53 62
3 53 54 62
3 54 55 63
3 55 56 63
3 56 63 64
3 56 57 64
3 64 65 57
3 57 58 65
3 58 59 65
3 48 59 65
