ply
format ascii 1.0
element vertex 66
property float x
property float y
property float z
property float u
property float v
element face 91
property list uchar int vertex_indices
end_header
-19.3262 -6.07688 20.6385 484.291 430.863
-18.847 -0.816739 20.2532 484.583 455.145
-17.956 4.38199 19.8641 486.803 479.286
-16.5081 9.45673 18.0873 491.494 502.504
-14.3601 14.2307 13.3144 499.212 523.403
-11.2447 18.4584 7.86914 511.53 541.854
-7.24596 21.8947 3.18743 528.302 557.261
-2.54893 24.3159 -0.799378 548.743 568.501
2.76974 24.5853 -4.34907 572.88 570.201
7.35622 23.0726 -0.793901 595.031 566.213
10.8982 19.8398 3.39159 613.031 554.174
13.7825 16.0551 8.15893 628.248 539.588
15.8315 11.7739 13.6124 639.851 522.69
17.0775 7.11517 18.3849 647.8 503.505
17.7613 2.22331 20.2388 652.916 481.902
18.0301 -2.74886 20.6038 655.981 459.2
18.0259 -7.71936 21.013 657.786 436.428
-15.1094 -15.8768 0.163316 505.114 379.084
-13.1958 -17.5548 -1.57473 514.384 371.326
-10.7457 -18.3785 -2.97699 525.867 367.829
-8.14971 -18.4929 -4.3304 537.777 367.673
-5.61043 -17.9993 -5.58566 549.217 370.341
3.11957 -18.6133 -5.30461 589.87 370.656
5.81851 -19.4566 -4.10124 602.792 368.177
8.6334 -19.6602 -2.74524 616.038 368.749
11.3418 -18.8916 -1.40438 628.441 373.763
13.416 -17.0389 0.395813 637.571 383.739
-1.43078 -12.237 -5.10186 566.549 398.569
-1.37119 -9.36485 -7.63397 565.523 410.846
-1.28646 -6.51244 -10.2858 564.608 422.994
-1.1602 -3.68425 -12.9094 563.897 435.056
-3.40878 0.000531811 -5.99511 552.915 453.986
-2.13465 0.181606 -6.92305 558.647 454.901
-0.812618 0.165386 -7.92054 564.664 454.895
0.680691 -0.0545945 -6.9078 571.763 454.797
2.07206 -0.453951 -5.94383 578.449 453.817
-10.4914 -11.04 -1.42594 524.582 402.381
-9.27891 -12.1555 -1.18659 530.619 397.751
-7.58072 -12.3255 -0.863518 538.574 397.684
-6.19542 -11.5487 -0.401406 544.757 401.931
-7.52452 -10.6649 -0.881114 538.238 405.358
-9.08012 -10.4577 -1.08011 530.943 405.694
4.78478 -12.4598 -0.628407 595.875 401.459
6.10298 -13.3614 -0.79315 602.281 397.694
7.81405 -13.3157 -0.900555 610.172 398.458
9.15828 -12.3412 -0.972695 616.036 403.393
7.7885 -11.6615 -0.856807 609.466 406.098
6.20909 -11.6777 -0.889182 602.159 405.46
-4.04139 11.0583 -2.77589 546.373 506.043
-3.18209 8.94402 -5.07696 550.859 495.685
-1.79057 6.93388 -6.66612 557.848 486.272
0.32672 6.85069 -8.1723 567.515 486.034
2.51903 6.47192 -6.5118 577.975 485.701
4.34955 8.08161 -4.95479 586.038 494.375
5.78163 9.87527 -2.80938 592.254 503.99
4.66445 11.2706 -4.03694 586.452 509.557
3.18155 12.3407 -5.31371 579.068 513.477
1.20901 12.9459 -6.63476 569.58 515.064
-0.885513 12.8987 -5.40926 560.035 514.599
-2.65655 12.2378 -4.26058 552.199 511.384
-0.580534 9.26187 -4.84769 562.81 498.147
0.593375 8.67003 -7.02679 568.22 494.97
1.98051 8.8405 -4.97718 574.8 497.043
1.97904 9.7791 -4.49181 574.509 501.563
0.808823 10.2676 -6.25771 568.728 502.716
-0.321189 10.1619 -4.48661 563.727 502.531
3 20 21 23
3 21 22 23
3 0 1 36
3 15 16 45
3 0 17 36
3 16 26 45
3 17 18 37
3 25 26 44
3 17 36 37
3 26 44 45
3 18 19 38
3 24 25 43
3 18 37 38
3 25 43 44
3 19 20 38
3 23 24 43
3 20 21 39
3 22 23 42
3 20 38 39
3 23 42 43
3 21 22 27
3 21 27 39
3 22 27 42
3 27 28 42
3 27 28 39
3 28 42 47
3 28 39 40
3 1 36 41
3 15 45 46
3 1 2 41
3 14 15 46
3 28 29 40
3 28 29 47
3 2 40 41
3 14 46 47
3 2 29 40
3 14 29 47
3 2 3 29
3 13 14 29
3 29 30 31
3 29 30 35
3 3 29 31
3 13 29 35
3 30 32 33
3 30 33 34
3 30 31 32
3 30 34 35
3 3 4 31
3 12 13 35
3 4 5 48
3 11 12 54
3 5 6 48
3 10 11 54
3 6 48 59
3 10 54 55
3 6 7 59
3 9 10 55
3 7 58 59
3 9 55 56
3 8 57 58
3 8 56 57
3 7 8 58
3 8 9 56
3 4 31 48
3 12 35 54
3 31 48 49
3 35 53 54
3 31 49 50
3 35 52 53
3 31 32 50
3 34 35 52
3 32 33 50
3 33 34 52
3 33 50 51
3 33 51 52
3 48 49 60
3 49 60 50
3 50 60 61
3 50 51 61
3 51 52 61
3 61 62 52
3 52 53 62
3 53 54 62
3 54 55 63
3 55 56 63
3 56 63 64
3 56 57 64
3 64 65 57
3 57 58 65
3 58 59 65
3 48 59 65
