ply
format ascii 1.0
element vertex 66
property float x
property float y
property float z
property float u
property float v
element face 91
property list uchar int vertex_indices
end_header
-19.8959 -5.42727 20.8089 488.114 434.069
-19.3969 -0.387282 20.3253 488.326 455.936
-18.5146 4.60214 20.03 490.261 477.827
-17.1025 9.44451 18.0816 494.393 498.349
-14.8694 13.9666 13.3842 501.944 516.242
-11.6158 17.9078 7.86863 514.104 531.521
-7.5249 21.0641 3.1926 530.332 544.154
-2.7746 23.2343 -0.829503 549.903 553.097
2.49389 23.4387 -4.3835 572.551 553.926
7.10731 22.1391 -0.906113 593.682 551.887
10.8658 19.2892 3.35262 611.74 543.219
14.0625 15.8709 8.15355 627.61 532.173
16.3675 11.8241 13.7652 639.896 518.515
17.6657 7.18942 18.5246 647.893 501.454
18.3343 2.2019 20.6262 652.966 481.144
18.6595 -2.92018 21.0029 656.39 459.16
18.7524 -8.04122 21.4977 658.808 437.162
-15.656 -15.4706 0.228597 508.262 380.387
-13.6619 -17.1395 -1.48597 517.46 372.888
-11.1484 -17.9141 -2.94424 528.624 369.617
-8.51907 -18.0244 -4.31456 540.053 369.331
-5.9636 -17.5368 -5.57268 550.942 371.686
3.14492 -18.2332 -5.30994 591.213 372.121
6.01938 -19.279 -4.08381 604.364 369.297
9.04959 -19.6362 -2.67454 617.957 369.632
12.0289 -18.9866 -1.25775 630.942 374.339
14.4135 -17.1562 0.403076 640.894 384.109
-1.54038 -11.643 -5.06596 568.162 399.255
-1.44565 -8.63169 -7.66326 567.138 410.959
-1.32233 -5.64977 -10.4368 566.232 422.446
-1.15627 -2.69001 -13.1586 565.528 433.882
-3.68833 0.504868 -6.08385 553.984 450.821
-2.32151 0.767222 -7.08431 559.771 451.905
-0.897065 0.775692 -8.08434 565.908 451.903
0.754168 0.487007 -7.12649 573.372 451.782
2.30412 -0.033464 -6.10194 580.487 450.652
-11.4696 -10.3694 -1.22438 524.526 403.324
-10.0046 -11.5165 -1.1057 531.407 398.928
-8.08869 -11.6907 -0.953479 539.899 398.953
-6.46591 -10.9454 -0.648038 546.771 402.962
-8.04917 -10.1865 -0.964781 539.497 405.514
-9.81617 -9.9467 -1.09848 531.636 405.839
5.47207 -12.1015 -0.858132 599.582 402.163
7.04288 -13.0831 -0.863827 606.85 398.457
9.0001 -13.0461 -0.779064 615.435 399.379
10.6486 -12.1281 -0.736071 622.324 404.003
9.00242 -11.5474 -0.849328 614.865 405.869
7.17991 -11.51 -0.957908 606.84 405.306
-5.20202 10.1119 -2.80831 544.039 493.945
-3.66738 8.53815 -4.98944 551.131 486.433
-1.86315 7.15083 -6.6166 559.398 480.14
0.316999 7.1648 -8.21462 568.783 480.105
2.57284 6.66904 -6.53794 579.059 479.703
4.75866 7.61586 -4.91489 588.472 485.53
6.85542 8.71389 -2.85623 597.484 492.226
5.30386 10.3303 -4.12184 589.917 497.996
3.34859 11.4759 -5.33719 580.763 501.595
1.0368 12.08 -6.58736 570.247 502.686
-1.34327 12.105 -5.36785 559.928 502.607
-3.51765 11.4669 -4.23262 550.755 499.668
-1.32456 9.1524 -5.00076 561.178 489.957
0.529659 8.79183 -7.30196 569.197 487.779
2.5687 8.60612 -5.28069 578.442 488.841
2.60144 9.06196 -4.63463 578.484 491.199
0.635408 9.54467 -6.33749 569.481 491.635
-1.26571 9.58453 -4.49779 561.327 492.141
3 20 21 23
3 21 22 23
3 0 1 36
3 15 16 45
3 0 17 36
3 16 26 45
3 17 18 37
3 25 26 44
3 17 36 37
3 26 44 45
3 18 19 38
3 24 25 43
3 18 37 38
3 25 43 44
3 19 20 38
3 23 24 43
3 20 21 39
3 22 23 42
3 20 38 39
3 23 42 43
3 21 22 27
3 21 27 39
3 22 27 42
3 27 28 42
3 27 28 39
3 28 42 47
3 28 39 40
3 1 36 41
3 15 45 46
3 1 2 41
3 14 15 46
3 28 29 40
3 28 29 47
3 2 40 41
3 14 46 47
3 2 29 40
3 14 29 47
3 2 3 29
3 13 14 29
3 29 30 31
3 29 30 35
3 3 29 31
3 13 29 35
3 30 32 33
3 30 33 34
3 30 31 32
3 30 34 35
3 3 4 31
3 12 13 35
3 4 5 48
3 11 12 54
3 5 6 48
3 10 11 54
3 6 48 59
3 10 54 55
3 6 7 59
3 9 10 55
3 7 58 59
3 9 55 56
3 8 57 58
3 8 56 57
3 7 8 58
3 8 9 56
3 4 31 48
3 12 35 54
3 31 48 49
3 35 53 54
3 31 49 50
3 35 52 53
3 31 32 50
3 34 35 52
3 32 33 50
3 33 34 52
3 33 50 51
3 33 51 52
3 48 49 60
3 49 60 50
3 50 60 61
3 50 51 61
3 51 52 61
3 61 62 52
3 52 53 62
3 53 54 62
3 54 55 63
3 55 56 63
3 56 63 64
3 56 57 64
3 64 65 57
3 57 58 65
3 58 59 65
3 48 59 65
