ply
format ascii 1.0
element vertex 66
property float x
property float y
property float z
property float u
property float v
element face 91
property list uchar int vertex_indices
end_header
-20.0118 -6.05241 20.8432 490.154 429.582
-19.5906 -0.852428 20.4724 490.747 451.179
-18.7615 4.28625 20.075 493.061 472.591
-17.2714 9.32713 18.1792 497.991 493.032
-14.9841 14.0843 13.3471 505.978 511.085
-11.6976 18.2105 7.82788 518.21 526.39
-7.57302 21.4947 3.21629 534.247 538.776
-2.83236 23.8185 -0.769051 553.15 547.574
2.43944 24.1783 -4.54229 574.732 548.388
7.13648 22.7448 -0.733788 595.192 545.134
10.9248 19.6797 3.43846 612.238 535.061
14.1086 16.0072 8.10696 626.94 522.564
16.4783 11.745 13.6123 638.455 507.832
17.9228 6.98095 18.5392 646.131 490.55
18.6636 1.98295 20.4812 650.553 470.762
18.8769 -3.05316 20.8758 652.587 449.988
18.804 -8.08784 21.245 653.418 429.15
-15.7495 -15.5888 0.285275 507.662 381.115
-13.8668 -17.5575 -1.53999 515.768 372.438
-11.2778 -18.5531 -2.96937 526.671 368.146
-8.48384 -18.67 -4.27673 538.259 367.617
-5.76074 -18.0594 -5.45708 549.406 370.166
3.20511 -18.7363 -5.2172 587.18 369.273
6.14786 -19.6944 -4.10185 599.86 366.393
9.22586 -19.8737 -2.81086 612.96 366.869
12.135 -18.8393 -1.43804 625.098 372.411
14.1957 -16.5557 0.522691 633.476 383.264
-1.3843 -11.8688 -5.06842 566.46 397.049
-1.28712 -9.05873 -7.65406 565.951 407.584
-1.16867 -6.26299 -10.3437 565.523 418.015
-1.01357 -3.49727 -13.0431 565.253 428.324
-3.31922 0.0577089 -6.02162 555.644 445.948
-2.00277 0.130068 -6.97236 561.036 446.074
-0.6772 0.0571137 -8.02606 566.486 445.548
0.789924 -0.11151 -6.98344 572.799 445.628
2.19891 -0.416589 -6.06238 578.883 445.07
-10.7904 -9.98295 -1.40922 527.04 404.709
-9.36767 -11.1391 -1.27436 533.273 400.238
-7.4572 -11.3452 -1.00064 541.362 399.894
-5.79238 -10.6418 -0.46172 548.255 403.415
-7.34346 -9.71868 -0.919392 541.495 406.737
-9.11162 -9.47559 -1.11587 534.005 407.301
4.2125 -11.4337 -0.618745 590.364 402.068
5.81267 -12.3232 -0.99109 597.223 398.51
7.73889 -12.295 -1.07769 605.284 398.978
9.30911 -11.3315 -1.04125 611.664 403.331
7.67356 -10.6701 -0.920999 604.676 405.814
5.8753 -10.6882 -0.893076 597.142 405.386
-4.8408 10.2127 -2.74236 547.447 489.512
-3.5229 8.42812 -5.0366 553.09 481.27
-1.84026 6.74122 -6.64848 560.321 473.827
0.414104 6.74706 -8.11334 569.6 473.626
2.7216 6.26549 -6.53379 579.568 472.821
4.78091 7.51107 -4.9424 588.122 479.173
6.59193 8.90472 -2.7181 595.678 486.386
5.24195 10.5131 -4.03308 589.512 492.208
3.44894 11.6918 -5.41967 581.572 496.115
1.19804 12.3269 -6.78199 571.834 497.673
-1.14745 12.2663 -5.5028 562.163 497.54
-3.21139 11.5453 -4.24306 553.813 494.701
-1.22366 8.92062 -4.95575 562.634 483.827
0.661013 8.48279 -7.09757 570.379 481.387
2.70357 8.41823 -5.09256 579.196 482.465
2.78552 9.21336 -4.53996 579.433 486.054
0.833144 9.76526 -6.39314 570.906 487.098
-1.08806 9.6957 -4.51775 563.086 487.291
3 20 21 23
3 21 22 23
3 0 1 36
3 15 16 45
3 0 17 36
3 16 26 45
3 17 18 37
3 25 26 44
3 17 36 37
3 26 44 45
3 18 19 38
3 24 25 43
3 18 37 38
3 25 43 44
3 19 20 38
3 23 24 43
3 20 21 39
3 22 23 42
3 20 38 39
3 23 42 43
3 21 22 27
3 21 27 39
3 22 27 42
3 27 28 42
3 27 28 39
3 28 42 47
3 28 39 40
3 1 36 41
3 15 45 46
3 1 2 41
3 14 15 46
3 28 29 40
3 28 29 47
3 2 40 41
3 14 46 47
3 2 29 40
3 14 29 47
3 2 3 29
3 13 14 29
3 29 30 31
3 29 30 35
3 3 29 31
3 13 29 35
3 30 32 33
3 30 33 34
3 30 31 32
3 30 34 35
3 3 4 31
3 12 13 35
3 4 5 48
3 11 12 54
3 5 6 48
3 10 11 54
3 6 48 59
3 10 54 55
3 6 7 59
3 9 10 55
3 7 58 59
3 9 55 56
3 8 57 58
3 8 56 57
3 7 8 58
3 8 9 56
3 4 31 48
3 12 35 54
3 31 48 49
3 35 53 54
3 31 49 50
3 35 52 53
3 31 32 50
3 34 35 52
3 32 33 50
3 33 34 52
3 33 50 51
3 33 51 52
3 48 49 60
3 49 60 50
3 50 60 61
3 50 51 61
3 51 52 61
3 61 62 52
3 52 53 62
3 53 54 62
3 54 55 63
3 55 56 63
3 56 63 64
3 56 57 64
3 64 65 57
3 57 58 65
3 58 59 65
3 48 59 65
