ply
format ascii 1.0
element vertex 66
property float x
property float y
property float z
property float u
property float v
element face 91
property list uchar int vertex_indices
end_header
-19.8646 -5.23012 20.736 488.635 433.333
-19.3825 -0.361652 20.248 488.52 454.497
-18.5105 4.45469 19.9817 490.166 475.713
-17.0891 9.16387 18.062 494.049 495.855
-14.8504 13.6474 13.389 501.253 513.961
-11.6798 17.6509 7.89336 512.645 529.955
-7.71996 20.9364 3.22503 527.923 543.579
-3.08719 23.2683 -0.803344 546.657 553.662
2.09139 23.6844 -4.41113 568.69 555.847
6.77476 22.4546 -0.935859 590.214 554.257
10.6313 19.6411 3.33738 608.924 545.821
13.9398 16.2056 8.10756 625.574 534.695
16.3821 12.1033 13.7216 638.836 520.724
17.7727 7.34072 18.5645 647.682 503.037
18.5023 2.21448 20.6906 653.436 482.101
18.867 -3.0223 21.1416 657.42 459.675
18.983 -8.26752 21.5845 660.317 437.102
-15.6321 -15.2573 0.246796 508.946 381.034
-13.734 -16.9407 -1.5089 517.78 373.617
-11.2837 -17.7495 -2.96363 528.685 370.398
-8.69237 -17.9018 -4.32772 539.929 370.146
-6.1644 -17.4668 -5.56978 550.649 372.487
2.86777 -18.2078 -5.29798 590.591 373.25
5.8398 -19.3377 -4.08234 604.275 370.214
8.9745 -19.7405 -2.68255 618.374 370.509
12.0546 -19.0837 -1.26417 631.765 375.405
14.5123 -17.2155 0.405126 641.923 385.44
-1.62871 -11.684 -5.05093 568.022 399.874
-1.47882 -8.66088 -7.66586 566.992 411.776
-1.30019 -5.66379 -10.4387 566.079 423.496
-1.08081 -2.69014 -13.1444 565.363 435.165
-3.62839 0.531743 -6.05216 553.7 451.722
-2.25323 0.787755 -7.08212 559.477 452.9
-0.823837 0.791173 -8.09892 565.605 453.007
0.849305 0.476711 -7.14461 573.201 452.836
2.42253 -0.0741929 -6.18691 580.465 451.595
-11.499 -10.0831 -1.21915 524.564 404.588
-10.0376 -11.3177 -1.12802 531.529 399.88
-8.07052 -11.5156 -0.990946 540.254 399.927
-6.3891 -10.7888 -0.721874 547.334 403.947
-7.98798 -9.95781 -1.01378 539.92 406.736
-9.79108 -9.6765 -1.11628 531.881 407.14
5.30601 -12.0155 -0.804121 599.113 403.549
6.92799 -13.0682 -0.918649 606.673 399.597
8.95779 -13.0476 -0.824048 615.571 400.601
10.6726 -12.1146 -0.734754 622.682 405.441
8.97628 -11.4822 -0.828709 614.955 407.425
7.08832 -11.4269 -0.909026 606.648 406.82
-5.14834 10.0118 -2.79623 543.255 494.025
-3.63832 8.37994 -4.95816 550.313 486.461
-1.79981 6.98729 -6.58267 558.774 480.352
0.433105 7.00416 -8.19396 568.339 480.558
2.75093 6.48317 -6.53459 578.945 480.121
4.98507 7.42069 -4.90591 588.532 485.987
7.09133 8.52722 -2.801 597.545 492.776
5.46786 10.1831 -4.1604 589.517 498.604
3.45019 11.3709 -5.36071 579.991 502.307
1.07463 12.0002 -6.62481 569.136 503.392
-1.30249 12.0077 -5.35919 558.883 503.055
-3.47703 11.3725 -4.16837 549.793 499.967
-1.31055 8.99343 -4.95364 560.24 490.128
0.621667 8.65637 -7.2458 568.556 488.317
2.72461 8.41887 -5.31205 578.13 489.164
2.73646 8.93013 -4.69094 578.036 491.712
0.691765 9.46705 -6.30926 568.626 492.355
-1.28039 9.48297 -4.45574 560.22 492.527
3 20 21 23
3 21 22 23
3 0 1 36
3 15 16 45
3 0 17 36
3 16 26 45
3 17 18 37
3 25 26 44
3 17 36 37
3 26 44 45
3 18 19 38
3 24 25 43
3 18 37 38
3 25 43 44
3 19 20 38
3 23 24 43
3 20 21 39
3 22 23 42
3 20 38 39
3 23 42 43
3 21 22 27
3 21 27 39
3 22 27 42
3 27 28 42
3 27 28 39
3 28 42 47
3 28 39 40
3 1 36 41
3 15 45 46
3 1 2 41
3 14 15 46
3 28 29 40
3 28 29 47
3 2 40 41
3 14 46 47
3 2 29 40
3 14 29 47
3 2 3 29
3 13 14 29
3 29 30 31
3 29 30 35
3 3 29 31
3 13 29 35
3 30 32 33
3 30 33 34
3 30 31 32
3 30 34 35
3 3 4 31
3 12 13 35
3 4 5 48
3 11 12 54
3 5 6 48
3 10 11 54
3 6 48 59
3 10 54 55
3 6 7 59
3 9 10 55
3 7 58 59
3 9 55 56
3 8 57 58
3 8 56 57
3 7 8 58
3 8 9 56
3 4 31 48
3 12 35 54
3 31 48 49
3 35 53 54
3 31 49 50
3 35 52 53
3 31 32 50
3 34 35 52
3 32 33 50
3 33 34 52
3 33 50 51
3 33 51 52
3 48 49 60
3 49 60 50
3 50 60 61
3 50 51 61
3 51 52 61
3 61 62 52
3 52 53 62
3 53 54 62
3 54 55 63
3 55 56 63
3 56 63 64
3 56 57 64
3 64 65 57
3 57 58 65
3 58 59 65
3 48 59 65
