ply
format ascii 1.0
element vertex 66
property float x
property float y
property float z
property float u
property float v
element face 91
property list uchar int vertex_indices
end_header
-19.8144 -5.86596 20.814 490.177 427.909
-19.35 -0.745581 20.3913 490.631 449.597
-18.4983 4.31822 20.03 492.756 471.172
-17.0587 9.28537 18.1402 497.182 491.948
-14.8584 13.9924 13.3733 504.489 510.794
-11.67 18.1098 7.83563 516.052 527.131
-7.62572 21.4045 3.19439 531.621 540.534
-2.94867 23.7497 -0.800284 550.247 550.314
2.27283 24.1348 -4.48951 571.793 552.039
6.97961 22.7655 -0.784226 592.748 548.841
10.7844 19.738 3.39928 610.411 538.538
13.9883 16.0979 8.0877 625.769 525.655
16.3586 11.8568 13.6176 637.878 510.299
17.7688 7.09484 18.509 645.958 492.245
18.4888 2.07927 20.4734 650.74 471.877
18.7425 -2.99075 20.876 653.323 450.591
18.7229 -8.06346 21.271 654.743 429.216
-15.6933 -15.5723 0.255775 507.409 380.485
-13.807 -17.429 -1.52275 515.695 372.485
-11.2697 -18.337 -2.95381 526.53 368.809
-8.55633 -18.434 -4.29101 537.897 368.654
-5.91026 -17.8657 -5.49926 548.807 371.348
3.24667 -18.6091 -5.24636 587.994 370.773
6.12998 -19.5772 -4.09966 600.701 367.862
9.14759 -19.8167 -2.77537 613.798 368.141
12.033 -18.9136 -1.39389 626.016 373.25
14.1477 -16.7872 0.49247 634.683 383.519
-1.39137 -11.7201 -5.07212 566.336 398.789
-1.27624 -8.92719 -7.66337 565.645 409.734
-1.14032 -6.15001 -10.3612 565.031 420.579
-0.970498 -3.39846 -13.0322 564.573 431.334
-3.34094 0.158068 -5.98569 554.527 448.303
-2.00335 0.315634 -6.98892 560.021 448.974
-0.63396 0.284329 -8.0516 565.695 448.831
0.874109 0.0591381 -7.00023 572.328 448.663
2.29757 -0.344933 -6.05904 578.636 447.674
-10.9251 -10.2251 -1.34862 525.924 403.879
-9.63573 -11.3889 -1.20141 531.76 399.346
-7.84323 -11.5978 -0.962646 539.477 399.033
-6.3153 -10.875 -0.540853 545.831 402.664
-7.72712 -9.92637 -0.949666 539.497 406.157
-9.37752 -9.69662 -1.10434 532.39 406.627
4.69731 -11.7991 -0.635235 592.909 401.701
6.15045 -12.7265 -0.940946 599.307 398.053
7.96812 -12.7005 -0.997095 607.02 398.636
9.43255 -11.7399 -0.971664 612.978 403.116
7.93542 -11.0436 -0.882545 606.426 405.695
6.24619 -11.0384 -0.874817 599.243 405.261
-4.77807 10.2812 -2.78814 546.008 491.989
-3.42222 8.55567 -5.03672 551.931 484.232
-1.74312 6.92438 -6.64929 559.296 477.191
0.467318 6.93372 -8.15875 568.468 477.289
2.72812 6.44894 -6.54432 578.46 476.427
4.77635 7.63798 -4.94699 587.069 482.598
6.61835 8.9527 -2.74154 594.855 489.466
5.23219 10.5263 -4.05169 588.317 495.292
3.42091 11.6572 -5.37927 580.096 499.119
1.19243 12.2696 -6.7174 570.246 500.631
-1.1034 12.2257 -5.45318 560.684 500.275
-3.15336 11.5683 -4.22061 552.338 497.374
-0.945746 9.04401 -4.97149 562.332 486.999
0.699583 8.64851 -7.1176 569.122 484.997
2.49137 8.57122 -5.13012 577.059 485.87
2.53932 9.21806 -4.56138 577.163 488.83
0.838413 9.72628 -6.30468 569.527 489.897
-0.825347 9.67206 -4.50727 562.735 489.861
3 20 21 23
3 21 22 23
3 0 1 36
3 15 16 45
3 0 17 36
3 16 26 45
3 17 18 37
3 25 26 44
3 17 36 37
3 26 44 45
3 18 19 38
3 24 25 43
3 18 37 38
3 25 43 44
3 19 20 38
3 23 24 43
3 20 21 39
3 22 23 42
3 20 38 39
3 23 42 43
3 21 22 27
3 21 27 39
3 22 27 42
3 27 28 42
3 27 28 39
3 28 42 47
3 28 39 40
3 1 36 41
3 15 45 46
3 1 2 41
3 14 15 46
3 28 29 40
3 28 29 47
3 2 40 41
3 14 46 47
3 2 29 40
3 14 29 47
3 2 3 29
3 13 14 29
3 29 30 31
3 29 30 35
3 3 29 31
3 13 29 35
3 30 32 33
3 30 33 34
3 30 31 32
3 30 34 35
3 3 4 31
3 12 13 35
3 4 5 48
3 11 12 54
3 5 6 48
3 10 11 54
3 6 48 59
3 10 54 55
3 6 7 59
3 9 10 55
3 7 58 59
3 9 55 56
3 8 57 58
3 8 56 57
3 7 8 58
3 8 9 56
3 4 31 48
3 12 35 54
3 31 48 49
3 35 53 54
3 31 49 50
3 35 52 53
3 31 32 50
3 34 35 52
3 32 33 50
3 33 34 52
3 33 50 51
3 33 51 52
3 48 49 60
3 49 60 50
3 50 60 61
3 50 51 61
3 51 52 61
3 61 62 52
3 52 53 62
3 53 54 62
3 54 55 63
3 55 56 63
3 56 63 64
3 56 57 64
3 64 65 57
3 57 58 65
3 58 59 65
3 48 59 65
