ply
format ascii 1.0
element vertex 66
property float x
property float y
property float z
property float u
property float v
element face 91
property list uchar int vertex_indices
end_header
-20.1522 -5.48747 20.8162 483.749 431.598
-19.6705 -0.440395 20.3522 483.845 454.043
-18.7764 4.55374 20.0997 485.83 476.505
-17.3466 9.35935 18.0956 490.096 497.553
-15.0513 13.7967 13.3793 498.086 516.086
-11.6737 17.6378 7.89806 511.07 532.04
-7.43908 20.6745 3.25613 528.297 545.119
-2.55227 22.7054 -0.788135 548.903 554.238
2.82562 22.7608 -4.2835 572.55 554.997
7.38433 21.5881 -0.943426 593.759 553.022
11.1833 19.0043 3.35495 612.234 544.901
14.4415 15.843 8.16142 628.577 534.227
16.7208 11.9817 13.7922 640.91 520.427
17.8853 7.44982 18.6003 648.436 502.847
18.4593 2.48049 20.751 653.21 481.907
18.7811 -2.67073 21.1149 656.736 459.264
18.9078 -7.81257 21.6679 659.407 436.672
-15.9085 -15.3917 0.225829 504.444 379.967
-13.8497 -17.0267 -1.4802 514.116 372.721
-11.3146 -17.7563 -2.96434 525.581 369.788
-8.69061 -17.86 -4.34877 537.205 369.72
-6.15086 -17.3965 -5.62847 548.239 372.191
3.24531 -18.1326 -5.26892 590.581 372.693
6.18494 -19.1744 -4.04169 604.271 369.735
9.27416 -19.5452 -2.63704 618.382 369.901
12.3252 -18.9022 -1.23456 631.919 374.563
14.7976 -17.0462 0.414964 642.413 384.513
-1.69949 -11.6007 -5.08822 565.895 399.945
-1.58883 -8.51063 -7.69241 564.88 412.581
-1.444 -5.45485 -10.4921 564.011 424.99
-1.24896 -2.41753 -13.2236 563.382 437.367
-3.82395 0.834968 -6.17716 551.334 453.995
-2.46525 1.11365 -7.15146 557.193 455.324
-1.04599 1.11873 -8.11052 563.433 455.466
0.659084 0.813145 -7.19848 571.277 455.169
2.25574 0.261334 -6.15347 578.747 453.794
-11.7374 -10.3503 -1.17366 520.938 403.39
-10.2271 -11.5713 -1.09611 528.185 398.571
-8.24476 -11.7028 -0.986998 537.112 398.798
-6.60858 -10.8217 -0.69197 544.109 403.481
-8.24284 -10.0748 -0.991647 536.473 406.043
-10.0587 -9.84482 -1.11669 528.249 406.311
5.6382 -12.0324 -0.910872 599.324 402.711
7.23061 -13.1687 -0.862784 606.901 398.288
9.26591 -13.1519 -0.723805 616.009 399.209
10.986 -12.171 -0.628966 623.32 404.279
9.30104 -11.5198 -0.841082 615.505 406.435
7.41494 -11.4498 -0.989619 607.028 405.954
-5.37918 10.1274 -2.81184 541.047 496.259
-3.77608 8.55891 -5.00074 548.603 488.919
-1.93299 7.20308 -6.64173 557.206 482.862
0.247985 7.20033 -8.25312 566.785 482.971
2.52336 6.69938 -6.59286 577.337 482.358
4.79207 7.59624 -4.96573 587.299 487.949
7.04707 8.64189 -2.93297 597.184 494.379
5.36715 10.171 -4.10712 588.939 500.015
3.32102 11.205 -5.3362 579.247 503.281
1.00948 11.7559 -6.51364 568.566 504.318
-1.37396 11.8756 -5.3316 557.989 504.46
-3.61146 11.3681 -4.21742 548.307 501.836
-1.35653 9.22277 -5.04047 559.153 492.788
0.47007 8.85279 -7.35654 567.218 490.812
2.51717 8.63446 -5.39702 576.668 491.502
2.52851 8.82751 -4.70267 576.717 492.676
0.559048 9.19453 -6.35889 567.587 492.812
-1.30366 9.37344 -4.49921 559.388 493.72
3 20 21 23
3 21 22 23
3 0 1 36
3 15 16 45
3 0 17 36
3 16 26 45
3 17 18 37
3 25 26 44
3 17 36 37
3 26 44 45
3 18 19 38
3 24 25 43
3 18 37 38
3 25 43 44
3 19 20 38
3 23 24 43
3 20 21 39
3 22 23 42
3 20 38 39
3 23 42 43
3 21 22 27
3 21 27 39
3 22 27 42
3 27 28 42
3 27 28 39
3 28 42 47
3 28 39 40
3 1 36 41
3 15 45 46
3 1 2 41
3 14 15 46
3 28 29 40
3 28 29 47
3 2 40 41
3 14 46 47
3 2 29 40
3 14 29 47
3 2 3 29
3 13 14 29
3 29 30 31
3 29 30 35
3 3 29 31
3 13 29 35
3 30 32 33
3 30 33 34
3 30 31 32
3 30 34 35
3 3 4 31
3 12 13 35
3 4 5 48
3 11 12 54
3 5 6 48
3 10 11 54
3 6 48 59
3 10 54 55
3 6 7 59
3 9 10 55
3 7 58 59
3 9 55 56
3 8 57 58
3 8 56 57
3 7 8 58
3 8 9 56
3 4 31 48
3 12 35 54
3 31 48 49
3 35 53 54
3 31 49 50
3 35 52 53
3 31 32 50
3 34 35 52
3 32 33 50
3 33 34 52
3 33 50 51
3 33 51 52
3 48 49 60
3 49 60 50
3 50 60 61
3 50 51 61
3 51 52 61
3 61 62 52
3 52 53 62
3 53 54 62
3 54 55 63
3 55 56 63
3 56 63 64
3 56 57 64
3 64 65 57
3 57 58 65
3 58 59 65
3 48 59 65
