ply
format ascii 1.0
element vertex 66
property float x
property float y
property float z
property float u
property float v
element face 91
property list uchar int vertex_indices
end_header
-20.178 -5.68199 20.932 482.914 431.277
-19.7396 -0.582888 20.5127 482.832 453.658
-18.9044 4.46343 20.2301 484.536 476.03
-17.5343 9.34454 18.1297 488.563 496.933
-15.2795 13.8816 13.4098 496.482 515.296
-11.8508 17.741 7.88515 509.818 530.708
-7.51428 20.6894 3.23796 527.584 542.916
-2.5528 22.6014 -0.783524 548.562 551.129
2.82725 22.6306 -4.35273 572.16 551.454
7.37448 21.4341 -0.937537 592.975 549.707
11.2162 18.8844 3.35337 611.25 542.193
14.5358 15.7504 8.16463 627.473 532.18
16.8507 11.8677 13.8272 639.592 518.932
18.0181 7.30873 18.5947 646.839 501.805
18.5647 2.37758 20.8554 651.331 481.498
18.8372 -2.71045 21.2139 654.553 459.405
18.9191 -7.79046 21.7012 656.937 437.342
-16.0957 -15.3893 0.260792 503.538 379.367
-14.0494 -17.1283 -1.46743 513.176 371.598
-11.457 -17.9112 -2.96172 524.873 368.367
-8.75497 -18.0065 -4.33134 536.793 368.267
-6.14056 -17.4944 -5.60106 548.093 370.858
3.1891 -18.1222 -5.2845 589.677 371.826
6.17477 -19.2004 -4.05075 603.397 368.866
9.32238 -19.5774 -2.65038 617.57 369.139
12.4207 -18.899 -1.23018 631.112 374.048
14.8818 -16.9523 0.442358 641.351 384.423
-1.65409 -11.4499 -5.11013 565.624 399.419
-1.57148 -8.41891 -7.68725 564.644 411.442
-1.45591 -5.42324 -10.4945 563.811 423.203
-1.28759 -2.4525 -13.287 563.222 434.882
-3.84712 0.704684 -6.15684 551.084 451.507
-2.47005 0.924608 -7.1526 557.036 452.482
-1.05293 0.907103 -8.16238 563.257 452.421
0.643412 0.631182 -7.2106 570.936 452.351
2.25791 0.141272 -6.14391 578.343 451.368
-11.9165 -10.045 -1.15615 519.865 403.737
-10.3098 -11.419 -1.13455 527.521 398.318
-8.15463 -11.5311 -1.06307 537.113 398.685
-6.40167 -10.4695 -0.672372 544.484 404.229
-8.15963 -9.64448 -0.993523 536.356 407.019
-10.1164 -9.41538 -1.11935 527.593 407.214
5.52424 -11.6108 -0.955402 597.731 403.618
7.20418 -12.9057 -0.963465 605.677 398.559
9.3941 -12.92 -0.764238 615.394 399.436
11.21 -11.7843 -0.594769 623.001 405.215
9.42666 -11.0125 -0.855233 614.785 407.793
7.41252 -10.9447 -1.02428 605.828 407.234
-5.71688 10.0483 -2.81326 539.345 493.638
-3.99471 8.45621 -5.01376 547.462 486.146
-2.03898 7.08062 -6.66009 556.562 479.985
0.258578 7.07931 -8.23324 566.642 480.038
2.64646 6.56537 -6.58222 577.519 479.549
5.02477 7.46326 -4.95553 587.799 485.255
7.39029 8.5271 -2.94313 597.981 491.887
5.61267 10.0726 -4.13014 589.431 497.389
3.44898 11.0925 -5.37834 579.372 500.399
1.05101 11.6431 -6.56994 568.464 501.284
-1.43589 11.7764 -5.38805 557.47 501.536
-3.81175 11.2984 -4.25241 547.205 499.116
-1.62447 9.11309 -5.06418 557.699 489.916
0.495077 8.75486 -7.36995 567.085 487.949
2.83579 8.48594 -5.40613 577.677 488.683
2.87475 8.7285 -4.71088 577.797 490.127
0.601195 9.10771 -6.40093 567.476 490.046
-1.56849 9.31663 -4.52589 557.9 491.113
3 20 21 23
3 21 22 23
3 0 1 36
3 15 16 45
3 0 17 36
3 16 26 45
3 17 18 37
3 25 26 44
3 17 36 37
3 26 44 45
3 18 19 38
3 24 25 43
3 18 37 38
3 25 43 44
3 19 20 38
3 23 24 43
3 20 21 39
3 22 23 42
3 20 38 39
3 23 42 43
3 21 22 27
3 21 27 39
3 22 27 42
3 27 28 42
3 27 28 39
3 28 42 47
3 28 39 40
3 1 36 41
3 15 45 46
3 1 2 41
3 14 15 46
3 28 29 40
3 28 29 47
3 2 40 41
3 14 46 47
3 2 29 40
3 14 29 47
3 2 3 29
3 13 14 29
3 29 30 31
3 29 30 35
3 3 29 31
3 13 29 35
3 30 32 33
3 30 33 34
3 30 31 32
3 30 34 35
3 3 4 31
3 12 13 35
3 4 5 48
3 11 12 54
3 5 6 48
3 10 11 54
3 6 48 59
3 10 54 55
3 6 7 59
3 9 10 55
3 7 58 59
3 9 55 56
3 8 57 58
3 8 56 57
3 7 8 58
3 8 9 56
3 4 31 48
3 12 35 54
3 31 48 49
3 35 53 54
3 31 49 50
3 35 52 53
3 31 32 50
3 34 35 52
3 32 33 50
3 33 34 52
3 33 50 51
3 33 51 52
3 48 49 60
3 49 60 50
3 50 60 61
3 50 51 61
3 51 52 61
3 61 62 52
3 52 53 62
3 53 54 62
3 54 55 63
3 55 56 63
3 56 63 64
3 56 57 64
3 64 65 57
3 57 58 65
3 58 59 65
3 48 59 65
