ply
format ascii 1.0
element vertex 66
property float x
property float y
property float z
property float u
property float v
element face 91
property list uchar int vertex_indices
end_header
-20.0018 -5.99167 20.7037 483.772 433.531
-19.5106 -0.74487 20.3287 484.626 456.706
-18.5651 4.42651 19.8895 487.506 479.627
-16.9498 9.48943 18.1599 493.225 501.707
-14.5373 14.2231 13.2043 502.158 521.224
-11.2066 18.3973 7.76929 515.243 538.287
-7.12379 21.8612 3.20033 531.949 552.729
-2.36932 24.3179 -0.801074 551.954 563.098
2.99146 24.6227 -4.4295 575.223 564.237
7.56717 23.0345 -0.753422 596.387 559.742
11.1263 19.7971 3.42759 613.503 547.919
14.015 15.9746 8.10012 627.847 533.548
16.137 11.6867 13.5538 639 517.253
17.4762 7.00264 18.5267 646.713 498.832
18.2303 2.0756 20.267 651.482 477.906
18.5242 -2.89235 20.6584 654.048 456.153
18.5312 -7.85533 21.1242 655.348 434.385
-15.4563 -16.1193 0.32631 503.861 381.625
-13.5654 -17.9364 -1.53293 512.466 373.281
-11.0474 -18.8191 -2.93986 523.683 369.396
-8.35788 -18.8863 -4.24499 535.476 369.2
-5.74778 -18.257 -5.42742 546.761 372.116
3.42066 -18.9245 -5.13267 587.665 371.406
6.22788 -19.839 -4.03014 600.489 368.452
9.15887 -20.0237 -2.74186 613.708 368.83
11.934 -19.067 -1.4179 625.962 374.236
13.9239 -16.9247 0.550139 634.52 384.962
-1.43914 -11.8695 -5.00998 564.384 401.54
-1.36588 -8.88985 -7.67304 563.647 413.672
-1.26628 -5.92051 -10.3748 563.025 425.75
-1.12405 -2.97489 -12.9886 562.609 437.769
-3.45928 0.517237 -6.17961 552.246 455.401
-2.16856 0.723326 -7.01192 557.821 456.279
-0.830936 0.717535 -7.93479 563.645 456.194
0.690058 0.488531 -6.98984 570.572 455.911
2.10085 0.071092 -6.07292 577.053 454.759
-10.5051 -10.6647 -1.40639 524.294 406.21
-9.17477 -11.9163 -1.27398 530.522 401.035
-7.29615 -12.0584 -0.981876 538.934 400.959
-5.77372 -11.0938 -0.343542 545.537 405.834
-7.24096 -10.1203 -0.845586 538.723 409.6
-8.94778 -9.93547 -1.06997 531.072 409.932
4.37305 -11.8888 -0.603238 590.746 404.565
5.82455 -12.9769 -0.918574 597.415 399.961
7.71373 -12.9514 -1.01355 605.784 400.474
9.17622 -11.832 -1.00047 612.006 405.77
7.66575 -11.0259 -0.886389 605.118 409.032
5.94123 -11.0176 -0.902214 597.457 408.663
-4.16305 10.3437 -2.64906 547.168 500.122
-3.1324 8.62355 -5.08585 551.857 491.776
-1.72336 6.99113 -6.70893 558.307 484.231
0.253315 7.03711 -8.17533 566.887 484.306
2.30421 6.55922 -6.58184 576.309 483.305
4.11003 7.80467 -4.98846 584.222 489.871
5.67535 9.18814 -2.70104 591.121 497.27
4.53805 10.6079 -3.94714 585.569 502.788
3.0323 11.6699 -5.33444 578.451 506.582
1.09399 12.2836 -6.69473 569.525 508.304
-0.977515 12.2214 -5.4317 560.503 508.054
-2.76735 11.5476 -4.22841 552.872 505.14
-0.626054 9.136 -4.90334 562.882 494.697
0.510886 8.74294 -7.05289 567.755 492.361
1.85022 8.72956 -5.03229 573.958 493.421
1.89147 9.22823 -4.48787 574.088 495.855
0.683529 9.67825 -6.354 568.381 496.819
-0.466519 9.59786 -4.49952 563.528 496.939
3 20 21 23
3 21 22 23
3 0 1 36
3 15 16 45
3 0 17 36
3 16 26 45
3 17 18 37
3 25 26 44
3 17 36 37
3 26 44 45
3 18 19 38
3 24 25 43
3 18 37 38
3 25 43 44
3 19 20 38
3 23 24 43
3 20 21 39
3 22 23 42
3 20 38 39
3 23 42 43
3 21 22 27
3 21 27 39
3 22 27 42
3 27 28 42
3 27 28 39
3 28 42 47
3 28 39 40
3 1 36 41
3 15 45 46
3 1 2 41
3 14 15 46
3 28 29 40
3 28 29 47
3 2 40 41
3 14 46 47
3 2 29 40
3 14 29 47
3 2 3 29
3 13 14 29
3 29 30 31
3 29 30 35
3 3 29 31
3 13 29 35
3 30 32 33
3 30 33 34
3 30 31 32
3 30 34 35
3 3 4 31
3 12 13 35
3 4 5 48
3 11 12 54
3 5 6 48
3 10 11 54
3 6 48 59
3 10 54 55
3 6 7 59
3 9 10 55
3 7 58 59
3 9 55 56
3 8 57 58
3 8 56 57
3 7 8 58
3 8 9 56
3 4 31 48
3 12 35 54
3 31 48 49
3 35 53 54
3 31 49 50
3 35 52 53
3 31 32 50
3 34 35 52
3 32 33 50
3 33 34 52
3 33 50 51
3 33 51 52
3 48 49 60
3 49 60 50
3 50 60 61
3 50 51 61
3 51 52 61
3 61 62 52
3 52 53 62
3 53 54 62
3 54 55 63
3 55 56 63
3 56 63 64
3 56 57 64
3 64 65 57
3 57 58 65
3 58 59 65
3 48 59 65
