ply
format ascii 1.0
element vertex 66
property float x
property float y
property float z
property float u
property float v
element face 91
property list uchar int vertex_indices
end_header
-19.2637 -5.41846 20.6528 489.92 431.638
-18.7205 -0.437746 20.2096 489.695 453.581
-17.8241 4.49157 19.8761 491.082 475.527
-16.4347 9.34209 18.0427 494.384 496.557
-14.4083 14.0249 13.3857 500.012 515.636
-11.5315 18.2639 7.85562 509.45 532.702
-7.79738 21.7687 3.17908 523.232 547.409
-3.35455 24.325 -0.836528 540.769 558.639
1.71949 24.9059 -4.5071 562.178 561.665
6.56911 23.555 -0.793984 585.091 560.054
10.4417 20.3742 3.35651 604.702 550.155
13.6234 16.4875 8.06218 621.73 537.115
15.922 11.9963 13.6054 635.328 521.439
17.2894 7.03723 18.3954 644.889 502.85
18.0339 1.86279 20.3292 651.218 481.477
18.3262 -3.36154 20.7675 655.263 458.862
18.3017 -8.60109 21.1317 657.899 435.987
-15.1696 -15.4043 0.165989 508.928 378.64
-13.3825 -17.1118 -1.56021 517.354 371.057
-11.0022 -17.9536 -2.94617 528.033 367.754
-8.45836 -18.0772 -4.31613 539.074 367.698
-5.95853 -17.6218 -5.56014 549.651 370.237
3.27097 -18.4798 -5.38945 590.972 371
5.91785 -19.4416 -4.16486 603.428 368.701
8.6997 -19.7579 -2.76791 616.187 369.401
11.4098 -19.1253 -1.36981 628.146 374.243
13.5342 -17.4133 0.360047 637.031 383.732
-1.1954 -11.8583 -5.04882 567.9 398.172
-1.03213 -9.15055 -7.63254 566.713 408.777
-0.854011 -6.45612 -10.2975 565.582 419.287
-0.660779 -3.7837 -12.896 564.542 429.743
-2.96615 -0.189715 -5.83117 553.956 448.251
-1.69202 -0.0310783 -6.89852 559.296 448.989
-0.374712 -0.0365155 -7.9823 564.906 449.016
1.02706 -0.267684 -6.90201 571.45 449.255
2.34967 -0.654596 -5.92397 577.701 448.716
-10.9479 -10.5328 -1.3764 524.814 401.283
-9.75587 -11.5678 -1.13907 530.666 397.43
-8.11312 -11.8627 -0.846734 538.147 397.081
-6.66861 -11.4118 -0.617348 544.357 399.885
-7.95481 -10.4713 -0.986704 538.11 403.205
-9.49734 -10.1894 -1.07677 531.121 403.654
5.1374 -12.4964 -0.557848 597.174 400.831
6.51419 -13.2177 -0.777985 603.59 398.202
8.20865 -13.1515 -0.955897 611.019 399.214
9.59413 -12.3513 -1.10137 616.713 403.325
8.19107 -11.7764 -0.865947 610.259 405.305
6.59353 -11.7878 -0.841493 603.199 404.499
-3.81523 10.7874 -2.87751 545.21 497.741
-2.89375 8.80657 -5.02916 549.857 488.309
-1.51261 6.94068 -6.59824 556.599 479.919
0.51898 6.93814 -8.1645 565.27 480.044
2.57732 6.53974 -6.5472 574.915 480.152
4.2903 8.07638 -4.95925 582.039 488.595
5.62157 9.75246 -2.76587 587.526 497.793
4.40889 10.9891 -4.10978 581.254 501.927
2.91443 11.9016 -5.3381 573.922 504.563
1.0204 12.433 -6.70427 564.989 505.254
-0.873092 12.327 -5.37917 556.934 504.588
-2.50497 11.797 -4.15639 550.233 502.127
-0.526637 9.10363 -4.86516 560.216 490.845
0.678043 8.65824 -7.00818 565.335 488.313
1.97274 8.77868 -4.99092 571.417 490.552
1.87764 9.46635 -4.51511 570.744 493.788
0.759428 9.94192 -6.1455 565.218 494.465
-0.364827 9.77758 -4.45243 560.673 494.112
3 20 21 23
3 21 22 23
3 0 1 36
3 15 16 45
3 0 17 36
3 16 26 45
3 17 18 37
3 25 26 44
3 17 36 37
3 26 44 45
3 18 19 38
3 24 25 43
3 18 37 38
3 25 43 44
3 19 20 38
3 23 24 43
3 20 21 39
3 22 23 42
3 20 38 39
3 23 42 43
3 21 22 27
3 21 27 39
3 22 27 42
3 27 28 42
3 27 28 39
3 28 42 47
3 28 39 40
3 1 36 41
3 15 45 46
3 1 2 41
3 14 15 46
3 28 29 40
3 28 29 47
3 2 40 41
3 14 46 47
3 2 29 40
3 14 29 47
3 2 3 29
3 13 14 29
3 29 30 31
3 29 30 35
3 3 29 31
3 13 29 35
3 30 32 33
3 30 33 34
3 30 31 32
3 30 34 35
3 3 4 31
3 12 13 35
3 4 5 48
3 11 12 54
3 5 6 48
3 10 11 54
3 6 48 59
3 10 54 55
3 6 7 59
3 9 10 55
3 7 58 59
3 9 55 56
3 8 57 58
3 8 56 57
3 7 8 58
3 8 9 56
3 4 31 48
3 12 35 54
3 31 48 49
3 35 53 54
3 31 49 50
3 35 52 53
3 31 32 50
3 34 35 52
3 32 33 50
3 33 34 52
3 33 50 51
3 33 51 52
3 48 49 60
3 49 60 50
3 50 60 61
3 50 51 61
3 51 52 61
3 61 62 52
3 52 53 62
3 53 54 62
3 54 55 63
3 55 56 63
3 56 63 64
3 56 57 64
3 64 65 57
3 57 58 65
3 58 59 65
3 48 59 65
