ply
format ascii 1.0
element vertex 66
property float x
property float y
property float z
property float u
property float v
element face 91
property list uchar int vertex_indices
end_header
-19.8251 -5.95241 20.7664 487.074 433.61
-19.3227 -0.739598 20.4066 488.195 455.989
-18.4236 4.40643 20.0023 491.047 478.122
-16.9109 9.46248 18.0896 496.333 499.108
-14.6288 14.2583 13.32 504.539 517.469
-11.3733 18.4353 7.796 516.971 532.893
-7.28959 21.7794 3.16324 533.316 545.371
-2.58893 24.1615 -0.826833 552.637 554.169
2.66481 24.5181 -4.47371 574.811 554.514
7.27718 22.9586 -0.741779 595.797 550.695
10.9375 19.7549 3.40565 613.028 539.856
13.9664 15.9648 8.11315 627.719 526.699
16.1692 11.6139 13.6233 639.059 511.441
17.5193 6.84493 18.42 646.652 493.825
18.2319 1.91692 20.3356 651.021 473.77
18.4708 -3.03386 20.6878 653.073 452.643
18.4311 -7.98548 21.0937 653.921 431.496
-15.4546 -15.7889 0.199076 504.544 380.144
-13.5181 -17.5103 -1.51924 513.011 372.061
-10.9878 -18.3159 -2.94903 523.934 368.195
-8.30817 -18.3453 -4.31236 535.367 367.743
-5.69642 -17.7338 -5.54473 546.404 370.12
3.55345 -18.4643 -5.31511 586.816 368.664
6.26908 -19.3414 -4.14688 598.993 366.005
9.09726 -19.5606 -2.79155 611.563 366.312
11.7976 -18.7424 -1.41157 623.381 371.088
13.7896 -16.8004 0.435761 631.98 380.863
-1.28339 -11.8753 -5.05394 564.552 396.434
-1.20399 -9.11399 -7.6167 563.937 406.901
-1.10452 -6.3665 -10.2894 563.394 417.25
-0.973441 -3.64853 -12.9671 562.993 427.474
-3.32809 -0.200566 -5.93746 553.262 445.973
-2.01931 -0.016916 -6.92749 558.753 446.422
-0.671952 -0.013399 -7.99594 564.435 446.055
0.788361 -0.238986 -6.91513 571.011 445.945
2.16014 -0.625908 -5.87752 577.225 445.1
-10.8216 -10.5089 -1.40337 523.411 402.802
-9.60639 -11.5249 -1.18657 528.928 398.747
-7.94945 -11.7579 -0.889628 536.23 398.191
-6.52445 -11.1892 -0.466942 542.389 401.128
-7.83438 -10.256 -0.89459 536.44 404.69
-9.3819 -10.0311 -1.07562 529.636 405.295
4.97728 -12.0677 -0.652952 592.556 399.177
6.36064 -12.7628 -0.836833 598.676 396.305
8.03557 -12.6668 -0.973599 605.92 396.925
9.35468 -11.7756 -1.06703 611.471 400.942
7.94927 -11.1973 -0.909351 605.273 403.29
6.38322 -11.2463 -0.913362 598.47 402.811
-4.50115 10.5037 -2.80044 546.621 493.768
-3.39352 8.62886 -5.02567 551.428 484.592
-1.85302 6.83436 -6.61338 558.209 476.201
0.319592 6.83855 -8.11209 567.408 475.73
2.53399 6.39358 -6.50299 577.395 475.104
4.44295 7.79761 -4.92993 585.69 482.385
6.01831 9.36108 -2.79479 592.598 490.62
4.79816 10.843 -4.02716 586.799 496.106
3.17713 11.9292 -5.36312 579.316 499.756
1.10571 12.5534 -6.70848 569.961 501.331
-1.09271 12.4524 -5.4555 560.628 501.239
-2.99266 11.754 -4.28084 552.694 498.574
-0.765573 9.00254 -4.93794 562.802 486.7
0.560177 8.58274 -7.09916 568.288 483.878
2.04035 8.61466 -5.01446 575.068 485.457
2.0766 9.44475 -4.48431 575.155 489.349
0.747711 9.98366 -6.30045 568.967 490.413
-0.570801 9.80562 -4.52405 563.563 490.436
3 20 21 23
3 21 22 23
3 0 1 36
3 15 16 45
3 0 17 36
3 16 26 45
3 17 18 37
3 25 26 44
3 17 36 37
3 26 44 45
3 18 19 38
3 24 25 43
3 18 37 38
3 25 43 44
3 19 20 38
3 23 24 43
3 20 21 39
3 22 23 42
3 20 38 39
3 23 42 43
3 21 22 27
3 21 27 39
3 22 27 42
3 27 28 42
3 27 28 39
3 28 42 47
3 28 39 40
3 1 36 41
3 15 45 46
3 1 2 41
3 14 15 46
3 28 29 40
3 28 29 47
3 2 40 41
3 14 46 47
3 2 29 40
3 14 29 47
3 2 3 29
3 13 14 29
3 29 30 31
3 29 30 35
3 3 29 31
3 13 29 35
3 30 32 33
3 30 33 34
3 30 31 32
3 30 34 35
3 3 4 31
3 12 13 35
3 4 5 48
3 11 12 54
3 5 6 48
3 10 11 54
3 6 48 59
3 10 54 55
3 6 7 59
3 9 10 55
3 7 58 59
3 9 55 56
3 8 57 58
3 8 56 57
3 7 8 58
3 8 9 56
3 4 31 48
3 12 35 54
3 31 48 49
3 35 53 54
3 31 49 50
3 35 52 53
3 31 32 50
3 34 35 52
3 32 33 50
3 33 34 52
3 33 50 51
3 33 51 52
3 48 49 60
3 49 60 50
3 50 60 61
3 50 51 61
3 51 52 61
3 61 62 52
3 52 53 62
3 53 54 62
3 54 55 63
3 55 56 63
3 56 63 64
3 56 57 64
3 64 65 57
3 57 58 65
3 58 59 65
3 48 59 65
