ply
format ascii 1.0
element vertex 66
property float x
property float y
property float z
property float u
property float v
element face 91
property list uchar int vertex_indices
end_header
-19.5262 -6.11946 20.794 486.617 429.875
-18.9909 -0.852691 20.4286 487.016 453.695
-18.0893 4.3504 19.9522 489.078 477.309
-16.683 9.5298 18.1638 493.191 500.425
-14.5905 14.5374 13.3515 499.912 521.695
-11.4819 18.9845 7.78495 511.305 540.465
-7.48205 22.6156 3.17975 527.221 556.281
-2.75382 25.1468 -0.851609 546.955 567.633
2.56212 25.5754 -4.54578 570.198 569.843
7.28875 23.9619 -0.784239 592.925 565.853
11.0172 20.5913 3.40652 611.862 553.76
14.0108 16.5204 8.08029 627.819 538.455
16.1383 11.9082 13.6318 640.217 520.78
17.3522 6.91521 18.4934 648.486 500.763
17.9828 1.81763 20.3044 653.579 478.745
18.2196 -3.2566 20.7612 656.625 456.106
18.1889 -8.34095 21.1473 658.449 433.297
-15.2969 -15.5807 0.214771 505.452 379.705
-13.4063 -17.3979 -1.61362 514.354 371.371
-10.8787 -18.3089 -3.00968 525.888 367.542
-8.16304 -18.4256 -4.31473 537.995 367.407
-5.49932 -17.8663 -5.48781 549.641 370.364
3.35036 -18.6566 -5.26732 590.086 370.012
6.08815 -19.5366 -4.14865 603.031 367.487
8.94123 -19.7218 -2.83778 616.277 368.226
11.6502 -18.8712 -1.47096 628.494 373.616
13.6448 -16.9079 0.464645 637.167 384.027
-1.26156 -11.9687 -5.04022 566.738 398.693
-1.1634 -9.07991 -7.65605 565.619 410.641
-1.04527 -6.20286 -10.3576 564.579 422.507
-0.900006 -3.35343 -13.0217 563.679 434.274
-3.35782 0.128606 -6.03879 552.551 452.164
-2.00176 0.356502 -6.96276 558.44 453.271
-0.594491 0.380216 -7.9832 564.618 453.432
0.909091 0.123152 -6.96421 571.719 453.243
2.31366 -0.31766 -6.01597 578.427 452.158
-10.4229 -10.5215 -1.37848 525.363 403.586
-9.22991 -11.66 -1.30532 531.207 398.896
-7.53973 -11.8779 -1.05407 538.996 398.617
-6.08635 -11.1675 -0.495864 545.423 402.58
-7.40648 -10.2399 -0.873833 539.024 406.141
-8.96167 -10.0203 -1.04899 531.861 406.508
4.57296 -12.0556 -0.636679 594.039 402.268
5.95119 -12.9299 -0.995063 600.544 398.649
7.66105 -12.8882 -1.09424 608.26 399.398
8.9936 -11.8954 -1.05593 613.937 404.369
7.5817 -11.2527 -0.874245 607.333 406.853
6.0034 -11.2704 -0.862552 600.188 406.221
-4.9646 10.0958 -2.67213 542.192 498.079
-3.63006 8.34783 -5.00961 548.453 489.64
-1.91461 6.75647 -6.63178 556.516 482.354
0.341595 6.79869 -8.04064 566.463 482.729
2.62216 6.2973 -6.54881 577.265 481.916
4.65841 7.47402 -4.92834 586.36 488.652
6.41239 8.87669 -2.64302 594.216 496.598
4.99588 10.3412 -3.93771 587.008 502.152
3.19865 11.3561 -5.27885 578.234 505.52
1.0375 11.9389 -6.6382 567.968 506.801
-1.22664 11.8876 -5.34468 557.967 506.332
-3.28059 11.2977 -4.14356 549.102 503.464
-1.01242 8.86538 -4.92672 560.14 492.937
0.571329 8.53877 -7.02828 567.046 491.109
2.26865 8.44363 -5.01313 575.152 492.152
2.30229 8.97105 -4.47441 575.209 494.78
0.702578 9.4363 -6.35445 567.434 495.502
-0.886407 9.3788 -4.49665 560.601 495.487
3 20 21 23
3 21 22 23
3 0 1 36
3 15 16 45
3 0 17 36
3 16 26 45
3 17 18 37
3 25 26 44
3 17 36 37
3 26 44 45
3 18 19 38
3 24 25 43
3 18 37 38
3 25 43 44
3 19 20 38
3 23 24 43
3 20 21 39
3 22 23 42
3 20 38 39
3 23 42 43
3 21 22 27
3 21 27 39
3 22 27 42
3 27 28 42
3 27 28 39
3 28 42 47
3 28 39 40
3 1 36 41
3 15 45 46
3 1 2 41
3 14 15 46
3 28 29 40
3 28 29 47
3 2 40 41
3 14 46 47
3 2 29 40
3 14 29 47
3 2 3 29
3 13 14 29
3 29 30 31
3 29 30 35
3 3 29 31
3 13 29 35
3 30 32 33
3 30 33 34
3 30 31 32
3 30 34 35
3 3 4 31
3 12 13 35
3 4 5 48
3 11 12 54
3 5 6 48
3 10 11 54
3 6 48 59
3 10 54 55
3 6 7 59
3 9 10 55
3 7 58 59
3 9 55 56
3 8 57 58
3 8 56 57
3 7 8 58
3 8 9 56
3 4 31 48
3 12 35 54
3 31 48 49
3 35 53 54
3 31 49 50
3 35 52 53
3 31 32 50
3 34 35 52
3 32 33 50
3 33 34 52
3 33 50 51
3 33 51 52
3 48 49 60
3 49 60 50
3 50 60 61
3 50 51 61
3 51 52 61
3 61 62 52
3 52 53 62
3 53 54 62
3 54 55 63
3 55 56 63
3 56 63 64
3 56 57 64
3 64 65 57
3 57 58 65
3 58 59 65
3 48 59 65
