ply
format ascii 1.0
element vertex 66
property float x
property float y
property float z
property float u
property float v
element face 91
property list uchar int vertex_indices
end_header
-19.2741 -5.5838 20.9149 487.882 431.423
-18.7068 -0.622145 20.4288 488.617 453.335
-17.8143 4.28454 20.0656 490.83 475.174
-16.5218 9.17756 18.0809 494.682 496.294
-14.5658 13.9803 13.5335 501.288 515.984
-11.6403 18.2634 7.87445 512.291 533.16
-7.83704 21.7426 3.1084 527.564 547.513
-3.31993 24.1934 -0.878127 546.446 557.941
1.72449 24.7789 -4.55184 568.36 560.446
6.42079 23.3254 -0.916892 590.1 557.391
10.191 20.1191 3.32049 608.39 546.561
13.3541 16.2789 8.1112 624.251 532.989
15.7591 11.8803 13.7625 637.012 517.111
17.2405 6.97929 18.4282 645.75 498.212
18.0353 1.93418 20.6326 651.261 477.236
18.4427 -3.13553 21.1049 654.901 455.17
18.5727 -8.23684 21.4082 657.302 432.788
-15.5322 -15.2912 0.181706 506.081 379.574
-13.7145 -16.887 -1.49373 514.581 372.308
-11.3363 -17.6486 -2.96162 525.302 369.027
-8.81113 -17.7744 -4.3626 536.458 368.642
-6.32272 -17.3389 -5.61267 547.267 370.803
3.24052 -18.0664 -5.45865 590.099 370.909
6.0056 -19.083 -4.21124 602.876 367.961
8.9149 -19.4405 -2.76161 616.081 368.079
11.7614 -18.8549 -1.28146 628.677 372.363
13.9988 -17.1427 0.380385 638.182 381.515
-1.39188 -11.6625 -5.03061 567.268 397.884
-1.29479 -8.86053 -7.64012 566.479 409.038
-1.17916 -6.07957 -10.4006 565.766 420.031
-1.03043 -3.32983 -13.1484 565.213 430.904
-3.39407 -0.0432806 -5.84426 554.196 448.225
-2.0213 0.165827 -7.02634 560.125 449.037
-0.612451 0.189593 -8.20101 566.281 449.046
0.926484 -0.111357 -7.09705 573.336 448.778
2.39406 -0.594743 -6.08482 580.129 447.634
-11.9153 -10.0173 -1.18352 520.2 403.474
-10.5333 -11.2849 -1.0918 526.805 398.378
-8.59615 -11.5778 -1.00681 535.537 397.782
-6.92004 -10.9254 -0.829678 542.784 401.326
-8.44795 -9.94566 -1.0544 535.619 405.032
-10.2311 -9.64098 -1.08079 527.573 405.762
5.58468 -12.1118 -0.923967 598.846 400.28
7.1573 -13.0323 -1.01142 606.161 396.698
9.12507 -12.9774 -0.8513 614.914 397.688
10.7282 -11.9848 -0.724968 621.711 402.687
9.10195 -11.3614 -0.804257 614.247 404.855
7.26625 -11.3745 -0.927732 606.071 404.112
-5.28777 9.89242 -2.82164 542.544 493.032
-3.69585 8.22146 -4.93448 550.027 485.143
-1.75955 6.77414 -6.57792 559.006 478.59
0.597472 6.80273 -8.17922 569.341 478.733
2.99359 6.25759 -6.4538 580.353 477.981
5.26607 7.20759 -4.80902 590.281 483.764
7.32493 8.39409 -2.72384 599.215 490.736
5.76404 10.2157 -4.17079 591.496 497.558
3.71934 11.5291 -5.34807 581.828 502.098
1.26398 12.2338 -6.70156 570.53 503.719
-1.22153 12.1477 -5.40761 559.615 503.127
-3.50803 11.4104 -4.20857 549.806 499.675
-1.27209 8.76786 -4.9508 560.62 488.377
0.819632 8.52499 -7.20582 569.812 486.908
3.01816 8.20834 -5.17872 579.891 487.247
3.08983 8.9601 -4.58491 579.999 490.889
0.929837 9.65388 -6.16255 569.999 492.452
-1.21812 9.52698 -4.46318 560.637 491.993
3 20 21 23
3 21 22 23
3 0 1 36
3 15 16 45
3 0 17 36
3 16 26 45
3 17 18 37
3 25 26 44
3 17 36 37
3 26 44 45
3 18 19 38
3 24 25 43
3 18 37 38
3 25 43 44
3 19 20 38
3 23 24 43
3 20 21 39
3 22 23 42
3 20 38 39
3 23 42 43
3 21 22 27
3 21 27 39
3 22 27 42
3 27 28 42
3 27 28 39
3 28 42 47
3 28 39 40
3 1 36 41
3 15 45 46
3 1 2 41
3 14 15 46
3 28 29 40
3 28 29 47
3 2 40 41
3 14 46 47
3 2 29 40
3 14 29 47
3 2 3 29
3 13 14 29
3 29 30 31
3 29 30 35
3 3 29 31
3 13 29 35
3 30 32 33
3 30 33 34
3 30 31 32
3 30 34 35
3 3 4 31
3 12 13 35
3 4 5 48
3 11 12 54
3 5 6 48
3 10 11 54
3 6 48 59
3 10 54 55
3 6 7 59
3 9 10 55
3 7 58 59
3 9 55 56
3 8 57 58
3 8 56 57
3 7 8 58
3 8 9 56
3 4 31 48
3 12 35 54
3 31 48 49
3 35 53 54
3 31 49 50
3 35 52 53
3 31 32 50
3 34 35 52
3 32 33 50
3 33 34 52
3 33 50 51
3 33 51 52
3 48 49 60
3 49 60 50
3 50 60 61
3 50 51 61
3 51 52 61
3 61 62 52
3 52 53 62
3 53 54 62
3 54 55 63
3 55 56 63
3 56 63 64
3 56 57 64
3 64 65 57
3 57 58 65
3 58 59 65
3 48 59 65
