ply
format ascii 1.0
element vertex 66
property float x
property float y
property float z
property float u
property float v
element face 91
property list uchar int vertex_indices
end_header
-19.8756 -6.15774 20.8319 487.709 431.048
-19.4315 -0.850863 20.4853 488.462 453.399
-18.583 4.39205 20.0545 490.948 475.503
-17.1031 9.52926 18.1736 495.973 496.389
-14.8546 14.3586 13.3447 503.981 514.307
-11.593 18.5287 7.7967 516.367 529.182
-7.46705 21.8393 3.17583 532.747 541.147
-2.70204 24.1503 -0.790465 552.15 549.399
2.60478 24.4466 -4.52438 574.318 549.361
7.29746 22.9115 -0.706461 595.19 546.081
11.0183 19.7085 3.42163 612.29 535.743
14.0837 15.9048 8.1162 626.783 523.085
16.3105 11.5493 13.6458 637.909 508.445
17.6841 6.78077 18.4591 645.381 491.455
18.4004 1.83135 20.3616 649.712 471.79
18.5912 -3.15356 20.7237 651.61 450.932
18.4781 -8.13712 21.0949 652.209 430.028
-15.5577 -15.615 0.235885 505.555 379.167
-13.7142 -17.4937 -1.54078 513.607 370.465
-11.1923 -18.4114 -2.95945 524.406 366.181
-8.48844 -18.4782 -4.29499 535.818 365.587
-5.8476 -17.8835 -5.50882 546.838 367.858
3.62759 -18.5486 -5.3016 587.532 366.947
6.34452 -19.4235 -4.13368 599.482 364.468
9.18208 -19.6261 -2.7921 611.83 364.965
11.8827 -18.7466 -1.41164 623.373 370.044
13.8237 -16.6952 0.46678 631.485 380.251
-1.23474 -11.8595 -5.08006 565.371 394.505
-1.18628 -9.25616 -7.63929 564.715 403.973
-1.11736 -6.66486 -10.2909 564.138 413.336
-1.01479 -4.10261 -12.9654 563.708 422.569
-3.33245 -0.179976 -5.99779 553.855 443.023
-2.00579 -0.0661587 -6.93603 559.388 443.179
-0.656415 -0.104884 -7.98106 565.037 442.628
0.80772 -0.28183 -6.91671 571.47 442.806
2.20281 -0.596557 -5.93089 577.627 442.339
-10.7302 -10.282 -1.43801 524.885 401.638
-9.40683 -11.3754 -1.25655 530.796 397.366
-7.61071 -11.5915 -0.952141 538.561 396.974
-6.067 -10.922 -0.425042 545.092 400.424
-7.49726 -9.93866 -0.900279 538.71 404.029
-9.17517 -9.71141 -1.095 531.461 404.557
4.6628 -11.7298 -0.643319 591.128 398.883
6.14428 -12.5212 -0.899974 597.597 395.652
7.94603 -12.4562 -1.02959 605.274 396.185
9.37055 -11.4957 -1.0825 611.161 400.489
7.86926 -10.8168 -0.927363 604.618 403.179
6.18148 -10.8608 -0.931678 597.407 402.673
-4.48953 10.4225 -2.75158 547.11 489.709
-3.36295 8.55223 -5.03875 552.03 480.596
-1.83362 6.74723 -6.66438 558.743 472.24
0.324138 6.75256 -8.12077 567.788 471.775
2.52619 6.31804 -6.52535 577.498 471.326
4.41427 7.74121 -4.91842 585.481 478.695
5.98943 9.3104 -2.74611 592.165 486.97
4.79204 10.7855 -4.00667 586.578 492.22
3.18514 11.8686 -5.41802 579.302 495.641
1.11052 12.4704 -6.79988 570.129 496.953
-1.09018 12.384 -5.5252 560.894 496.956
-2.98863 11.6823 -4.25631 553.079 494.405
-0.957939 8.954 -4.93754 562.247 482.811
0.56923 8.50697 -7.0482 568.607 479.91
2.25324 8.54723 -4.99064 576.06 481.659
2.30941 9.38332 -4.46833 576.192 485.531
0.76208 9.90854 -6.35842 569.227 486.306
-0.776994 9.76923 -4.52941 562.903 486.549
3 20 21 23
3 21 22 23
3 0 1 36
3 15 16 45
3 0 17 36
3 16 26 45
3 17 18 37
3 25 26 44
3 17 36 37
3 26 44 45
3 18 19 38
3 24 25 43
3 18 37 38
3 25 43 44
3 19 20 38
3 23 24 43
3 20 21 39
3 22 23 42
3 20 38 39
3 23 42 43
3 21 22 27
3 21 27 39
3 22 27 42
3 27 28 42
3 27 28 39
3 28 42 47
3 28 39 40
3 1 36 41
3 15 45 46
3 1 2 41
3 14 15 46
3 28 29 40
3 28 29 47
3 2 40 41
3 14 46 47
3 2 29 40
3 14 29 47
3 2 3 29
3 13 14 29
3 29 30 31
3 29 30 35
3 3 29 31
3 13 29 35
3 30 32 33
3 30 33 34
3 30 31 32
3 30 34 35
3 3 4 31
3 12 13 35
3 4 5 48
3 11 12 54
3 5 6 48
3 10 11 54
3 6 48 59
3 10 54 55
3 6 7 59
3 9 10 55
3 7 58 59
3 9 55 56
3 8 57 58
3 8 56 57
3 7 8 58
3 8 9 56
3 4 31 48
3 12 35 54
3 31 48 49
3 35 53 54
3 31 49 50
3 35 52 53
3 31 32 50
3 34 35 52
3 32 33 50
3 33 34 52
3 33 50 51
3 33 51 52
3 48 49 60
3 49 60 50
3 50 60 61
3 50 51 61
3 51 52 61
3 61 62 52
3 52 53 62
3 53 54 62
3 54 55 63
3 55 56 63
3 56 63 64
3 56 57 64
3 64 65 57
3 57 58 65
3 58 59 65
3 48 59 65
