ply
format ascii 1.0
element vertex 66
property float x
property float y
property float z
property float u
property float v
element face 91
property list uchar int vertex_indices
end_header
-20.1371 -5.63898 20.9201 483.286 429.42
-19.6067 -0.543626 20.4691 483.677 452.109
-18.6864 4.49582 20.1696 485.844 474.753
-17.2849 9.35988 18.1159 490.063 496.093
-15.0643 13.8643 13.419 497.83 515.077
-11.7107 17.7213 7.91768 510.828 531.277
-7.46171 20.7164 3.25505 528.23 544.31
-2.57977 22.7064 -0.792248 548.899 553.351
2.76963 22.7617 -4.32474 572.438 554.161
7.31971 21.5736 -0.932807 593.526 551.918
11.113 18.9639 3.36759 611.859 543.432
14.369 15.7849 8.17709 628.057 532.419
16.6522 11.9093 13.7991 640.251 518.271
17.8269 7.39126 18.5528 647.657 500.506
18.4129 2.48435 20.7543 652.344 479.77
18.7576 -2.59185 21.1307 655.847 457.461
18.9078 -7.66524 21.645 658.493 435.148
-16.0807 -15.3524 0.214862 503.159 379.407
-13.9763 -17.0556 -1.48612 513.045 371.926
-11.3761 -17.8402 -2.97758 524.816 368.8
-8.67203 -17.961 -4.35327 536.81 368.712
-6.04865 -17.4788 -5.61436 548.224 371.323
3.14715 -18.1261 -5.28916 589.568 371.977
6.10389 -19.1522 -4.06705 603.276 368.996
9.21331 -19.4919 -2.669 617.422 369.195
12.2764 -18.8268 -1.251 630.981 373.856
14.7605 -16.956 0.413334 641.519 383.767
-1.61867 -11.6507 -5.08589 565.843 399.108
-1.51771 -8.54801 -7.69399 564.872 411.907
-1.38609 -5.48056 -10.5067 564.032 424.478
-1.20527 -2.43258 -13.2691 563.423 437.001
-3.52151 0.764316 -6.13957 552.53 453.225
-2.2648 0.961481 -7.14458 557.974 454.165
-0.968676 0.944123 -8.15002 563.675 454.164
0.584815 0.690537 -7.18864 570.799 453.996
2.05963 0.242561 -6.12677 577.654 452.974
-11.8557 -10.2835 -1.13664 519.975 402.984
-10.3276 -11.5366 -1.09455 527.279 397.991
-8.31165 -11.678 -1.02846 536.342 398.135
-6.65244 -10.7585 -0.729138 543.431 402.96
-8.31265 -10.0018 -1.00738 535.703 405.601
-10.1542 -9.77243 -1.11023 527.382 405.899
5.61808 -11.9059 -0.964145 598.643 402.302
7.21568 -13.0524 -0.923261 606.217 397.809
9.26921 -13.0395 -0.738127 615.401 398.7
10.9922 -12.0166 -0.594934 622.72 403.947
9.29784 -11.3606 -0.842088 614.881 406.14
7.39982 -11.3072 -1.00882 606.369 405.608
-5.65645 10.1055 -2.82796 539.756 495.326
-3.92697 8.5326 -5.02267 547.872 488.088
-1.98818 7.14215 -6.65685 556.906 481.964
0.295728 7.11695 -8.25352 566.967 482.058
2.66264 6.6356 -6.57424 577.877 481.465
5.01044 7.55412 -4.96028 588.163 487.068
7.35069 8.6133 -2.93508 598.401 493.458
5.60355 10.1737 -4.11476 589.896 499.282
3.47151 11.2291 -5.31168 579.862 502.71
1.07257 11.7886 -6.49829 568.825 503.836
-1.41537 11.8943 -5.3289 557.783 503.854
-3.7625 11.3675 -4.24107 547.603 501.077
-1.50521 9.13831 -5.0761 558.452 491.659
0.526748 8.76065 -7.38432 567.455 489.806
2.76782 8.53978 -5.3838 577.734 490.454
2.81344 8.87677 -4.67257 577.876 492.255
0.639716 9.26204 -6.33132 567.867 492.5
-1.44026 9.43848 -4.5074 558.682 493.246
3 20 21 23
3 21 22 23
3 0 1 36
3 15 16 45
3 0 17 36
3 16 26 45
3 17 18 37
3 25 26 44
3 17 36 37
3 26 44 45
3 18 19 38
3 24 25 43
3 18 37 38
3 25 43 44
3 19 20 38
3 23 24 43
3 20 21 39
3 22 23 42
3 20 38 39
3 23 42 43
3 21 22 27
3 21 27 39
3 22 27 42
3 27 28 42
3 27 28 39
3 28 42 47
3 28 39 40
3 1 36 41
3 15 45 46
3 1 2 41
3 14 15 46
3 28 29 40
3 28 29 47
3 2 40 41
3 14 46 47
3 2 29 40
3 14 29 47
3 2 3 29
3 13 14 29
3 29 30 31
3 29 30 35
3 3 29 31
3 13 29 35
3 30 32 33
3 30 33 34
3 30 31 32
3 30 34 35
3 3 4 31
3 12 13 35
3 4 5 48
3 11 12 54
3 5 6 48
3 10 11 54
3 6 48 59
3 10 54 55
3 6 7 59
3 9 10 55
3 7 58 59
3 9 55 56
3 8 57 58
3 8 56 57
3 7 8 58
3 8 9 56
3 4 31 48
3 12 35 54
3 31 48 49
3 35 53 54
3 31 49 50
3 35 52 53
3 31 32 50
3 34 35 52
3 32 33 50
3 33 34 52
3 33 50 51
3 33 51 52
3 48 49 60
3 49 60 50
3 50 60 61
3 50 51 61
3 51 52 61
3 61 62 52
3 52 53 62
3 53 54 62
3 54 55 63
3 55 56 63
3 56 63 64
3 56 57 64
3 64 65 57
3 57 58 65
3 58 59 65
3 48 59 65
