ply
format ascii 1.0
element vertex 66
property float x
property float y
property float z
property float u
property float v
element face 91
property list uchar int vertex_indices
end_header
-19.9089 -5.97419 20.7924 484.007 431.147
-19.3622 -0.732911 20.3057 484.769 454.385
-18.4059 4.44721 19.9053 487.387 477.503
-16.8972 9.53868 18.1747 492.288 499.869
-14.681 14.3421 13.2839 499.94 519.925
-11.5088 18.579 7.76475 511.925 537.498
-7.49292 22.0409 3.18072 528.047 552.241
-2.76584 24.4363 -0.820068 547.752 562.683
2.53443 24.7779 -4.4549 570.691 564.317
7.21213 23.2336 -0.761396 592.561 560.263
10.8722 19.9747 3.43719 610.499 548.499
13.8544 16.0977 8.07634 625.676 533.967
16.0765 11.7521 13.5666 637.741 517.466
17.501 7.01593 18.4819 646.285 498.774
18.3068 2.05761 20.2883 651.662 477.702
18.6629 -2.94719 20.6701 654.832 455.735
18.7203 -7.95429 21.1292 656.684 433.702
-15.5514 -15.7103 0.229872 503.211 381.147
-13.6417 -17.5084 -1.56543 511.987 373.017
-11.1302 -18.4046 -2.95642 523.23 369.223
-8.44349 -18.503 -4.27858 535.021 369.049
-5.81724 -17.9314 -5.47312 546.358 371.882
3.33684 -18.5984 -5.21887 587.365 371.677
6.13419 -19.5241 -4.08127 600.279 368.825
9.06059 -19.7411 -2.75697 613.581 369.229
11.8551 -18.8665 -1.41341 625.966 374.448
13.9313 -16.8402 0.465915 634.884 384.782
-1.38276 -11.8791 -5.01624 564.331 400.218
-1.31481 -8.89232 -7.70082 563.31 412.448
-1.22466 -5.91459 -10.4065 562.388 424.636
-1.09538 -2.95598 -12.9888 561.664 436.799
-3.42877 0.466673 -6.0881 551.293 454.015
-2.105 0.759771 -7.01418 556.956 455.339
-0.712042 0.801564 -7.9845 562.997 455.549
0.825274 0.516362 -6.99291 570.082 455.117
2.22754 -0.00266175 -6.08376 576.625 453.575
-10.808 -10.5743 -1.41961 522.515 404.681
-9.54854 -11.6118 -1.23663 528.468 400.512
-7.84955 -11.8375 -0.929032 536.15 400.124
-6.37436 -11.2258 -0.488096 542.601 403.44
-7.74315 -10.3548 -0.917137 536.174 406.742
-9.32396 -10.1388 -1.09657 529.041 407.172
4.92712 -12.1518 -0.690969 593.18 402.53
6.34497 -12.9038 -0.887855 599.692 399.526
8.05702 -12.8186 -0.977771 607.276 400.366
9.43528 -11.9365 -0.980943 613.145 404.681
7.98529 -11.3809 -0.868577 606.536 406.771
6.38451 -11.4062 -0.898742 599.41 406.182
-4.13824 10.193 -2.71769 545.688 498.308
-3.05636 8.48134 -5.06259 550.667 490.106
-1.59582 6.90184 -6.68218 557.403 482.885
0.390949 6.93774 -8.18805 566.007 483.032
2.4394 6.45757 -6.51011 575.534 482.151
4.26819 7.6207 -4.91807 583.569 488.468
5.83973 8.97946 -2.68808 590.496 495.829
4.64174 10.3452 -3.91793 584.556 501.063
3.11033 11.362 -5.24369 577.222 504.615
1.16987 11.9506 -6.66625 568.183 506.108
-0.870323 11.9082 -5.36857 559.31 505.835
-2.67919 11.3242 -4.15237 551.62 503.193
-0.423037 8.97943 -4.93004 562.262 493.134
0.64919 8.63622 -7.02916 566.818 491.101
1.89534 8.5813 -5.03398 572.691 491.999
1.91598 8.96415 -4.46444 572.754 493.927
0.7955 9.41918 -6.24528 567.352 494.926
-0.276297 9.34181 -4.48625 562.873 494.959
3 20 21 23
3 21 22 23
3 0 1 36
3 15 16 45
3 0 17 36
3 16 26 45
3 17 18 37
3 25 26 44
3 17 36 37
3 26 44 45
3 18 19 38
3 24 25 43
3 18 37 38
3 25 43 44
3 19 20 38
3 23 24 43
3 20 21 39
3 22 23 42
3 20 38 39
3 23 42 43
3 21 22 27
3 21 27 39
3 22 27 42
3 27 28 42
3 27 28 39
3 28 42 47
3 28 39 40
3 1 36 41
3 15 45 46
3 1 2 41
3 14 15 46
3 28 29 40
3 28 29 47
3 2 40 41
3 14 46 47
3 2 29 40
3 14 29 47
3 2 3 29
3 13 14 29
3 29 30 31
3 29 30 35
3 3 29 31
3 13 29 35
3 30 32 33
3 30 33 34
3 30 31 32
3 30 34 35
3 3 4 31
3 12 13 35
3 4 5 48
3 11 12 54
3 5 6 48
3 10 11 54
3 6 48 59
3 10 54 55
3 6 7 59
3 9 10 55
3 7 58 59
3 9 55 56
3 8 57 58
3 8 56 57
3 7 8 58
3 8 9 56
3 4 31 48
3 12 35 54
3 31 48 49
3 35 53 54
3 31 49 50
3 35 52 53
3 31 32 50
3 34 35 52
3 32 33 50
3 33 34 52
3 33 50 51
3 33 51 52
3 48 49 60
3 49 60 50
3 50 60 61
3 50 51 61
3 51 52 61
3 61 62 52
3 52 53 62
3 53 54 62
3 54 55 63
3 55 56 63
3 56 63 64
3 56 57 64
3 64 65 57
3 57 58 65
3 58 59 65
3 48 59 65
