ply
format ascii 1.0
element vertex 66
property float x
property float y
property float z
property float u
property float v
element face 91
property list uchar int vertex_indices
end_header
-19.9436 -5.98135 21.001 487.319 432.017
-19.3603 -0.717752 20.574 488.596 454.547
-18.4054 4.48223 20.1681 491.504 476.896
-16.9774 9.60588 18.1717 496.309 498.068
-14.8048 14.4755 13.3933 504.099 516.647
-11.5437 18.673 7.7914 516.681 532.072
-7.3867 21.9708 3.15065 533.469 544.387
-2.54211 24.1353 -0.852369 553.574 552.35
2.76466 24.3498 -4.49621 576.175 552.229
7.31633 22.7456 -0.838748 596.721 548.47
10.9555 19.5759 3.39468 613.727 538.121
13.9505 15.8046 8.14801 628.13 525.355
16.1124 11.488 13.7669 639.135 510.581
17.4249 6.76618 18.4655 646.441 493.332
18.144 1.91132 20.5665 650.913 473.836
18.5005 -2.98905 20.9098 653.626 453.019
18.5985 -7.898 21.3405 655.228 432.162
-15.9061 -15.3607 0.185854 504.712 380.085
-13.907 -17.1351 -1.52185 513.615 371.852
-11.3014 -17.9598 -2.97094 524.964 367.991
-8.54927 -18.0116 -4.34668 536.779 367.534
-5.86215 -17.4175 -5.59172 548.178 369.921
3.57064 -18.0165 -5.39965 589.314 369.462
6.3501 -18.9918 -4.17157 601.748 366.586
9.27171 -19.3041 -2.74474 614.669 366.713
12.11 -18.6188 -1.31807 626.999 371.117
14.2921 -16.7599 0.401467 636.242 380.61
-1.32653 -11.6298 -5.03479 566.612 396.135
-1.31108 -8.70965 -7.67633 565.716 407.135
-1.27199 -5.80847 -10.4352 564.914 417.989
-1.19097 -2.93491 -13.1557 564.305 428.756
-3.59611 0.121637 -6.02591 553.942 445.655
-2.24835 0.399962 -7.0535 559.62 446.527
-0.846652 0.455051 -8.12276 565.578 446.425
0.708596 0.16725 -7.07775 572.516 446.139
2.16734 -0.320918 -5.97504 579.087 445.005
-11.8055 -10.2008 -1.28318 521.177 402.296
-10.3302 -11.3316 -1.17136 527.858 397.807
-8.39394 -11.5791 -1.00024 536.345 397.256
-6.71691 -10.9189 -0.640015 543.518 400.669
-8.31394 -10.062 -0.955641 536.349 403.831
-10.1179 -9.80595 -1.07963 528.44 404.476
5.71442 -11.954 -0.986098 597.721 398.649
7.33334 -12.7422 -0.929383 604.941 395.634
9.27728 -12.6315 -0.849697 613.369 396.572
10.8535 -11.6503 -0.797044 619.997 401.162
9.18833 -11.1435 -0.872845 612.638 402.945
7.37087 -11.1953 -1.03503 604.737 402.239
-5.05603 9.90791 -2.77557 545.711 489.415
-3.68889 8.18952 -4.99807 551.799 480.983
-1.94089 6.68839 -6.62538 559.557 473.921
0.260961 6.72451 -8.16018 568.944 473.63
2.5105 6.22494 -6.47268 579.018 472.963
4.6098 7.293 -4.86355 588.07 478.967
6.46818 8.64283 -2.82876 596.058 486.387
5.05082 10.1644 -4.017 589.419 491.928
3.24339 11.2389 -5.3084 581.178 495.4
1.08198 11.8589 -6.68008 571.494 496.792
-1.22823 11.828 -5.39763 561.608 496.932
-3.34813 11.2052 -4.23489 552.67 494.493
-1.14413 8.72006 -5.00306 562.731 483.805
0.52152 8.44041 -7.21658 569.786 481.635
2.35643 8.23993 -5.13731 578.033 482.402
2.42045 8.76292 -4.50202 578.261 485.046
0.688381 9.29669 -6.28149 570.418 485.915
-1.01664 9.22637 -4.51679 563.222 486.302
3 20 21 23
3 21 22 23
3 0 1 36
3 15 16 45
3 0 17 36
3 16 26 45
3 17 18 37
3 25 26 44
3 17 36 37
3 26 44 45
3 18 19 38
3 24 25 43
3 18 37 38
3 25 43 44
3 19 20 38
3 23 24 43
3 20 21 39
3 22 23 42
3 20 38 39
3 23 42 43
3 21 22 27
3 21 27 39
3 22 27 42
3 27 28 42
3 27 28 39
3 28 42 47
3 28 39 40
3 1 36 41
3 15 45 46
3 1 2 41
3 14 15 46
3 28 29 40
3 28 29 47
3 2 40 41
3 14 46 47
3 2 29 40
3 14 29 47
3 2 3 29
3 13 14 29
3 29 30 31
3 29 30 35
3 3 29 31
3 13 29 35
3 30 32 33
3 30 33 34
3 30 31 32
3 30 34 35
3 3 4 31
3 12 13 35
3 4 5 48
3 11 12 54
3 5 6 48
3 10 11 54
3 6 48 59
3 10 54 55
3 6 7 59
3 9 10 55
3 7 58 59
3 9 55 56
3 8 57 58
3 8 56 57
3 7 8 58
3 8 9 56
3 4 31 48
3 12 35 54
3 31 48 49
3 35 53 54
3 31 49 50
3 35 52 53
3 31 32 50
3 34 35 52
3 32 33 50
3 33 34 52
3 33 50 51
3 33 51 52
3 48 49 60
3 49 60 50
3 50 60 61
3 50 51 61
3 51 52 61
3 61 62 52
3 52 53 62
3 53 54 62
3 54 55 63
3 55 56 63
3 56 63 64
3 56 57 64
3 64 65 57
3 57 58 65
3 58 59 65
3 48 59 65
