ply
format ascii 1.0
element vertex 66
property float x
property float y
property float z
property float u
property float v
element face 91
property list uchar int vertex_indices
end_header
-19.9713 -5.91626 20.8668 491.002 427.438
-19.4612 -0.751565 20.4681 491.802 449.016
-18.5713 4.34981 20.0485 494.209 470.414
-17.1107 9.35244 18.1767 498.872 491.022
-14.9177 14.0651 13.3396 506.349 509.542
-11.7169 18.1605 7.83967 518.134 525.488
-7.67384 21.4479 3.21726 533.752 538.569
-3.01287 23.8128 -0.800591 552.261 548.155
2.20185 24.2227 -4.55006 573.613 549.794
6.95334 22.8487 -0.754319 594.312 546.536
10.7804 19.7778 3.43453 611.604 536.1
13.9973 16.0943 8.09093 626.541 523.121
16.3991 11.8358 13.571 638.296 507.833
17.8372 7.07283 18.5008 646.074 490.008
18.5921 2.05369 20.4371 650.715 469.887
18.8703 -3.01693 20.8766 653.202 448.906
18.8621 -8.09657 21.2371 654.481 427.79
-15.8512 -15.5532 0.281282 508.399 380.833
-13.9539 -17.4652 -1.54849 516.632 372.645
-11.3977 -18.4132 -2.97859 527.432 368.789
-8.65554 -18.5206 -4.29298 538.814 368.533
-5.97803 -17.9378 -5.45297 549.77 371.203
3.28316 -18.6175 -5.22531 588.813 370.669
6.15477 -19.5814 -4.11564 601.224 367.722
9.16302 -19.8039 -2.81254 614.044 367.977
12.0374 -18.8917 -1.42602 626.027 372.974
14.1561 -16.7622 0.508405 634.597 383.074
-1.31354 -11.7602 -5.0361 567.833 398.306
-1.19464 -8.92838 -7.67928 567.327 409.239
-1.05753 -6.10954 -10.3862 566.893 420.1
-0.888257 -3.3125 -13.0324 566.606 430.9
-2.84135 0.239443 -5.96625 558.313 447.788
-1.69737 0.283647 -6.97833 562.987 447.889
-0.545316 0.218956 -8.06483 567.714 447.51
0.730663 0.0698414 -6.96877 573.226 447.582
1.95576 -0.185777 -6.02095 578.535 447.144
-10.8073 -10.237 -1.32475 528.044 403.708
-9.542 -11.4447 -1.22167 533.665 398.998
-7.74794 -11.6533 -1.00921 541.267 398.633
-6.24606 -10.8476 -0.547973 547.416 402.527
-7.63547 -9.84519 -0.953636 541.292 406.24
-9.27857 -9.63299 -1.09267 534.331 406.683
4.61583 -11.7063 -0.638542 593.183 401.516
6.02538 -12.6917 -0.989836 599.303 397.61
7.83452 -12.6671 -1.03025 606.881 398.133
9.26597 -11.6504 -0.967684 612.638 402.751
7.80546 -10.8886 -0.882348 606.33 405.616
6.13557 -10.8813 -0.880013 599.324 405.246
-4.85291 10.1262 -2.78218 547.752 489.776
-3.40288 8.4763 -5.08488 553.991 482.409
-1.7092 6.87092 -6.69216 561.318 475.534
0.492914 6.8905 -8.16676 570.385 475.623
2.74128 6.42031 -6.55689 580.114 474.768
4.77962 7.60107 -4.9674 588.546 480.759
6.66621 8.85617 -2.71487 596.396 487.259
5.286 10.4788 -4.04405 590.052 493.242
3.45591 11.6496 -5.36179 581.934 497.231
1.19575 12.2655 -6.72744 572.147 498.779
-1.13496 12.1907 -5.46406 562.53 498.353
-3.20956 11.4724 -4.22893 554.146 495.288
-0.873824 8.99071 -4.99853 564.48 485.199
0.722739 8.63293 -7.0836 571.033 483.348
2.45371 8.55693 -5.10484 578.534 484.148
2.52249 9.1645 -4.51667 578.736 486.914
0.857356 9.63633 -6.26691 571.438 487.866
-0.775962 9.58481 -4.50293 564.797 487.883
3 20 21 23
3 21 22 23
3 0 1 36
3 15 16 45
3 0 17 36
3 16 26 45
3 17 18 37
3 25 26 44
3 17 36 37
3 26 44 45
3 18 19 38
3 24 25 43
3 18 37 38
3 25 43 44
3 19 20 38
3 23 24 43
3 20 21 39
3 22 23 42
3 20 38 39
3 23 42 43
3 21 22 27
3 21 27 39
3 22 27 42
3 27 28 42
3 27 28 39
3 28 42 47
3 28 39 40
3 1 36 41
3 15 45 46
3 1 2 41
3 14 15 46
3 28 29 40
3 28 29 47
3 2 40 41
3 14 46 47
3 2 29 40
3 14 29 47
3 2 3 29
3 13 14 29
3 29 30 31
3 29 30 35
3 3 29 31
3 13 29 35
3 30 32 33
3 30 33 34
3 30 31 32
3 30 34 35
3 3 4 31
3 12 13 35
3 4 5 48
3 11 12 54
3 5 6 48
3 10 11 54
3 6 48 59
3 10 54 55
3 6 7 59
3 9 10 55
3 7 58 59
3 9 55 56
3 8 57 58
3 8 56 57
3 7 8 58
3 8 9 56
3 4 31 48
3 12 35 54
3 31 48 49
3 35 53 54
3 31 49 50
3 35 52 53
3 31 32 50
3 34 35 52
3 32 33 50
3 33 34 52
3 33 50 51
3 33 51 52
3 48 49 60
3 49 60 50
3 50 60 61
3 50 51 61
3 51 52 61
3 61 62 52
3 52 53 62
3 53 54 62
3 54 55 63
3 55 56 63
3 56 63 64
3 56 57 64
3 64 65 57
3 57 58 65
3 58 59 65
3 48 59 65
