ply
format ascii 1.0
element vertex 66
property float x
property float y
property float z
property float u
property float v
element face 91
property list uchar int vertex_indices
end_header
-19.9108 -6.55858 20.9808 485.612 430.211
-19.3836 -1.08043 20.5066 486.456 454.321
-18.4963 4.34448 20.011 488.914 478.273
-17.1317 9.74954 18.2655 493.347 501.603
-15.0904 14.9183 13.2841 500.453 522.366
-11.8922 19.396 7.69062 512.814 540.038
-7.71194 22.9183 3.13443 529.925 554.27
-2.78189 25.1986 -0.862807 550.77 563.486
2.63169 25.4749 -4.55823 574.333 564.116
7.3468 23.7595 -0.773636 596.24 559.673
11.0405 20.3239 3.45839 614.109 547.602
14.0275 16.2387 8.05338 629.049 532.674
16.2528 11.6902 13.5528 640.833 515.98
17.6549 6.82216 18.4702 648.965 497.366
18.4029 1.87035 20.3162 653.828 476.616
18.6957 -3.06518 20.7166 656.482 455.07
18.7108 -8.00754 21.1012 657.899 433.416
-15.7017 -15.4853 0.226419 504.124 380.934
-13.7553 -17.3303 -1.62725 513.044 372.287
-11.1745 -18.2407 -3.00597 524.599 368.179
-8.40496 -18.3077 -4.29342 536.783 367.895
-5.68927 -17.6739 -5.44031 548.56 370.771
3.45486 -18.266 -5.23236 589.439 370.522
6.21865 -19.1915 -4.12623 602.12 367.69
9.11584 -19.4147 -2.81716 615.236 368.103
11.8744 -18.5624 -1.46516 627.456 373.261
13.8979 -16.5432 0.497749 636.173 383.716
-1.29159 -11.6296 -5.06956 566.586 398.783
-1.29124 -8.59496 -7.77051 565.453 410.793
-1.27004 -5.56481 -10.4801 564.413 422.784
-1.20599 -2.55689 -13.0569 563.586 434.757
-3.67283 0.399414 -6.10891 552.689 450.85
-2.24399 0.759679 -7.02986 558.839 452.316
-0.736125 0.846879 -8.02568 565.404 452.554
0.877396 0.51829 -7.01606 572.797 452.027
2.34481 -0.0663257 -6.12408 579.592 450.271
-10.6868 -10.4407 -1.4841 524.903 403.59
-9.41944 -11.5003 -1.35861 530.838 399.283
-7.70694 -11.7202 -1.03619 538.558 398.902
-6.20579 -11.0282 -0.417258 545.133 402.657
-7.59793 -10.1837 -0.85838 538.66 405.818
-9.18408 -10.0009 -1.09438 531.523 406.111
4.84142 -11.896 -0.736355 594.489 401.385
6.25396 -12.6639 -1.03085 600.941 398.184
7.94758 -12.5929 -1.08427 608.454 398.889
9.29518 -11.6542 -0.988465 614.216 403.424
7.84632 -11.1082 -0.863871 607.639 405.545
6.27012 -11.1412 -0.883801 600.63 404.999
-4.80027 9.63903 -2.63987 545.667 493.246
-3.51746 7.9229 -5.0577 551.529 484.711
-1.81067 6.44591 -6.70053 559.311 477.743
0.385211 6.49105 -8.11236 568.897 477.748
2.6244 5.95468 -6.45623 579.209 476.794
4.66849 6.94348 -4.85121 588.245 482.511
6.40375 8.29805 -2.5955 595.891 490.109
5.06365 9.74113 -3.79507 589.397 495.533
3.35155 10.7769 -5.15806 581.336 498.978
1.25008 11.3822 -6.65679 571.637 500.353
-0.997552 11.3749 -5.32687 561.801 500.46
-3.07098 10.8268 -4.08276 552.872 498.173
-0.721768 8.43753 -4.97459 563.846 487.721
0.687028 8.15657 -6.97637 569.942 485.782
2.25923 7.97599 -5.01531 577.23 486.396
2.35541 8.50284 -4.39155 577.596 489.076
0.877606 9.01057 -6.26216 570.654 489.979
-0.567611 8.96081 -4.49202 564.454 490.326
3 20 21 23
3 21 22 23
3 0 1 36
3 15 16 45
3 0 17 36
3 16 26 45
3 17 18 37
3 25 26 44
3 17 36 37
3 26 44 45
3 18 19 38
3 24 25 43
3 18 37 38
3 25 43 44
3 19 20 38
3 23 24 43
3 20 21 39
3 22 23 42
3 20 38 39
3 23 42 43
3 21 22 27
3 21 27 39
3 22 27 42
3 27 28 42
3 27 28 39
3 28 42 47
3 28 39 40
3 1 36 41
3 15 45 46
3 1 2 41
3 14 15 46
3 28 29 40
3 28 29 47
3 2 40 41
3 14 46 47
3 2 29 40
3 14 29 47
3 2 3 29
3 13 14 29
3 29 30 31
3 29 30 35
3 3 29 31
3 13 29 35
3 30 32 33
3 30 33 34
3 30 31 32
3 30 34 35
3 3 4 31
3 12 13 35
3 4 5 48
3 11 12 54
3 5 6 48
3 10 11 54
3 6 48 59
3 10 54 55
3 6 7 59
3 9 10 55
3 7 58 59
3 9 55 56
3 8 57 58
3 8 56 57
3 7 8 58
3 8 9 56
3 4 31 48
3 12 35 54
3 31 48 49
3 35 53 54
3 31 49 50
3 35 52 53
3 31 32 50
3 34 35 52
3 32 33 50
3 33 34 52
3 33 50 51
3 33 51 52
3 48 49 60
3 49 60 50
3 50 60 61
3 50 51 61
3 51 52 61
3 61 62 52
3 52 53 62
3 53 54 62
3 54 55 63
3 55 56 63
3 56 63 64
3 56 57 64
3 64 65 57
3 57 58 65
3 58 59 65
3 48 59 65
