ply
format ascii 1.0
element vertex 66
property float x
property float y
property float z
property float u
property float v
element face 91
property list uchar int vertex_indices
end_header
-19.8698 -5.65622 20.8365 484.881 431.984
-19.3671 -0.470467 20.385 485.008 455.247
-18.4497 4.66093 20.0627 487.04 478.489
-16.999 9.60433 18.1721 491.416 500.372
-14.7402 14.1299 13.3865 499.356 519.356
-11.458 18.0482 7.90027 512.096 535.694
-7.33079 21.194 3.21164 529.03 549.267
-2.50408 23.2858 -0.805721 549.604 558.696
2.85507 23.3313 -4.31843 573.451 559.385
7.39193 21.9455 -0.895175 594.771 556.54
10.9957 19.018 3.37167 612.58 546.798
14.0015 15.5704 8.2144 627.954 534.753
16.1567 11.5948 13.7959 639.768 520.345
17.4376 7.12535 18.5345 647.766 502.985
18.1294 2.28244 20.58 653.025 482.47
18.4706 -2.72771 20.9163 656.622 460.274
18.5609 -7.73241 21.4152 659.1 438.08
-15.74 -15.5163 0.223649 505.712 379.809
-13.7147 -17.252 -1.49045 515.4 372.023
-11.1429 -18.0497 -2.94405 527.197 368.784
-8.45762 -18.1498 -4.32418 539.229 368.753
-5.85202 -17.643 -5.60974 550.663 371.459
3.25511 -18.2477 -5.32992 592.007 372.464
6.07647 -19.2586 -4.06539 605.251 369.625
9.05853 -19.61 -2.63119 618.967 369.888
12.0003 -18.9896 -1.22239 632.106 374.484
14.3538 -17.1732 0.419035 642.127 384.324
-1.52918 -11.9867 -5.0643 567.917 398.802
-1.48985 -8.89852 -7.66655 566.618 411.472
-1.41862 -5.84262 -10.4467 565.46 423.927
-1.29799 -2.80836 -13.1852 564.538 436.324
-3.84667 0.585076 -6.18879 552.275 453.791
-2.45875 0.861361 -7.11952 558.342 455.147
-1.00635 0.865401 -8.05305 564.81 455.305
0.687133 0.594569 -7.1465 572.636 455.176
2.26887 0.078683 -6.11407 580.069 453.963
-11.643 -10.5361 -1.22718 522.047 403.104
-10.0152 -11.8463 -1.11708 529.929 397.916
-7.86566 -11.9881 -0.970454 539.694 398.195
-6.10548 -10.9872 -0.58346 547.261 403.56
-7.87888 -10.1819 -0.955875 538.904 406.303
-9.84326 -9.94489 -1.10218 529.936 406.524
5.32422 -12.0715 -0.915313 599.221 403.044
7.00177 -13.2629 -0.847489 607.275 398.39
9.17163 -13.259 -0.724057 617.07 399.319
10.9635 -12.1514 -0.66958 624.708 405.022
9.19022 -11.4278 -0.850582 616.402 407.487
7.18949 -11.3954 -1.01999 607.35 406.765
-4.89605 10.2737 -2.75813 543.916 498.45
-3.52844 8.63034 -4.99831 550.555 490.576
-1.85687 7.17056 -6.65938 558.542 483.913
0.21554 7.16982 -8.27435 567.749 483.978
2.37039 6.70649 -6.5411 577.805 483.551
4.43577 7.74439 -4.89969 586.843 489.784
6.38045 8.96456 -2.87257 595.295 496.965
5.00772 10.5369 -4.11914 588.359 502.904
3.22431 11.6805 -5.38027 579.743 506.749
1.04167 12.2785 -6.62288 569.549 507.998
-1.25951 12.3095 -5.42652 559.261 507.784
-3.32415 11.6338 -4.27956 550.323 504.469
-1.24374 9.24666 -4.98058 560.612 494.25
0.46018 8.83647 -7.29892 568.262 492.007
2.38076 8.7152 -5.22402 577.153 493.181
2.423 9.1448 -4.60269 577.223 495.413
0.604418 9.59913 -6.36552 568.684 495.919
-1.14654 9.64816 -4.5172 560.928 496.305
3 20 21 23
3 21 22 23
3 0 1 36
3 15 16 45
3 0 17 36
3 16 26 45
3 17 18 37
3 25 26 44
3 17 36 37
3 26 44 45
3 18 19 38
3 24 25 43
3 18 37 38
3 25 43 44
3 19 20 38
3 23 24 43
3 20 21 39
3 22 23 42
3 20 38 39
3 23 42 43
3 21 22 27
3 21 27 39
3 22 27 42
3 27 28 42
3 27 28 39
3 28 42 47
3 28 39 40
3 1 36 41
3 15 45 46
3 1 2 41
3 14 15 46
3 28 29 40
3 28 29 47
3 2 40 41
3 14 46 47
3 2 29 40
3 14 29 47
3 2 3 29
3 13 14 29
3 29 30 31
3 29 30 35
3 3 29 31
3 13 29 35
3 30 32 33
3 30 33 34
3 30 31 32
3 30 34 35
3 3 4 31
3 12 13 35
3 4 5 48
3 11 12 54
3 5 6 48
3 10 11 54
3 6 48 59
3 10 54 55
3 6 7 59
3 9 10 55
3 7 58 59
3 9 55 56
3 8 57 58
3 8 56 57
3 7 8 58
3 8 9 56
3 4 31 48
3 12 35 54
3 31 48 49
3 35 53 54
3 31 49 50
3 35 52 53
3 31 32 50
3 34 35 52
3 32 33 50
3 33 34 52
3 33 50 51
3 33 51 52
3 48 49 60
3 49 60 50
3 50 60 61
3 50 51 61
3 51 52 61
3 61 62 52
3 52 53 62
3 53 54 62
3 54 55 63
3 55 56 63
3 56 63 64
3 56 57 64
3 64 65 57
3 57 58 65
3 58 59 65
3 48 59 65
