ply
format ascii 1.0
element vertex 66
property float x
property float y
property float z
property float u
property float v
element face 91
property list uchar int vertex_indices
end_header
-19.8192 -6.04013 20.79 488.408 430.705
-19.3754 -0.80818 20.4443 489.055 452.764
-18.5232 4.35889 20.0371 491.456 474.595
-17.0347 9.43 18.1583 496.41 495.247
-14.7658 14.2225 13.3318 504.381 513.068
-11.5097 18.3954 7.80274 516.629 528.037
-7.41394 21.7395 3.18859 532.782 540.231
-2.67756 24.0966 -0.773692 551.991 548.778
2.60915 24.4263 -4.50836 574.054 548.986
7.27195 22.9132 -0.727469 594.858 545.877
10.9817 19.7437 3.40505 612.011 535.762
14.0485 15.9706 8.10657 626.627 523.305
16.2681 11.6269 13.648 637.858 508.768
17.6157 6.84327 18.4831 645.366 491.749
18.3244 1.87099 20.3999 649.799 472
18.5327 -3.13382 20.7718 651.895 451.057
18.4475 -8.13802 21.1528 652.735 430.061
-15.5748 -15.5646 0.265739 506.079 378.589
-13.7878 -17.4597 -1.54468 513.927 369.816
-11.305 -18.4009 -2.96937 524.584 365.47
-8.62888 -18.4929 -4.302 535.886 364.821
-6.01118 -17.9306 -5.50786 546.802 367.012
3.63866 -18.6203 -5.28557 588.295 366.249
6.38738 -19.5152 -4.12394 600.42 363.746
9.25541 -19.7271 -2.78237 612.921 364.276
11.9829 -18.8323 -1.40031 624.571 369.491
13.9349 -16.7524 0.484378 632.693 379.877
-1.29546 -11.8181 -5.08021 565.632 394.175
-1.23273 -9.18958 -7.65046 564.956 403.748
-1.14741 -6.57223 -10.3021 564.369 413.229
-1.02698 -3.9834 -12.9563 563.938 422.595
-3.3696 -0.139516 -6.00054 553.937 442.679
-2.04614 -0.0172408 -6.94476 559.45 442.894
-0.698768 -0.0527533 -7.99409 565.088 442.38
0.788281 -0.244959 -6.93881 571.636 442.526
2.20562 -0.578574 -5.94572 577.91 442.021
-10.6746 -10.2599 -1.43104 525.606 401.059
-9.38543 -11.3877 -1.25721 531.407 396.655
-7.60138 -11.5969 -0.962078 539.13 396.324
-6.08125 -10.9053 -0.432577 545.547 399.901
-7.48249 -9.89859 -0.900731 539.255 403.586
-9.14019 -9.66717 -1.09491 532.081 404.1
4.73392 -11.7637 -0.638114 592.011 398.404
6.19642 -12.5982 -0.90152 598.429 395.011
7.99648 -12.5317 -1.01876 606.103 395.598
9.40966 -11.5489 -1.06454 611.919 400.033
7.92402 -10.8441 -0.918455 605.417 402.798
6.24484 -10.8768 -0.924455 598.236 402.304
-4.51559 10.4216 -2.74347 547.022 489.212
-3.38609 8.5552 -5.03997 551.986 480.123
-1.84752 6.76404 -6.65962 558.772 471.857
0.316653 6.77613 -8.11979 567.841 471.463
2.53304 6.32748 -6.544 577.638 470.996
4.44481 7.73677 -4.9397 585.707 478.358
6.05462 9.28002 -2.75633 592.528 486.581
4.82311 10.7761 -4.02383 586.745 491.885
3.18711 11.8742 -5.42961 579.304 495.331
1.09315 12.4887 -6.80281 570.019 496.652
-1.11405 12.4027 -5.51214 560.761 496.619
-3.02105 11.6976 -4.23958 552.928 494.013
-0.938484 8.97288 -4.9272 562.381 482.477
0.553454 8.53688 -7.05296 568.588 479.633
2.20972 8.5567 -5.03109 575.939 481.309
2.25704 9.38783 -4.50001 576.019 485.169
0.735492 9.91934 -6.35228 569.14 485.963
-0.769101 9.77914 -4.51262 562.974 486.185
3 20 21 23
3 21 22 23
3 0 1 36
3 15 16 45
3 0 17 36
3 16 26 45
3 17 18 37
3 25 26 44
3 17 36 37
3 26 44 45
3 18 19 38
3 24 25 43
3 18 37 38
3 25 43 44
3 19 20 38
3 23 24 43
3 20 21 39
3 22 23 42
3 20 38 39
3 23 42 43
3 21 22 27
3 21 27 39
3 22 27 42
3 27 28 42
3 27 28 39
3 28 42 47
3 28 39 40
3 1 36 41
3 15 45 46
3 1 2 41
3 14 15 46
3 28 29 40
3 28 29 47
3 2 40 41
3 14 46 47
3 2 29 40
3 14 29 47
3 2 3 29
3 13 14 29
3 29 30 31
3 29 30 35
3 3 29 31
3 13 29 35
3 30 32 33
3 30 33 34
3 30 31 32
3 30 34 35
3 3 4 31
3 12 13 35
3 4 5 48
3 11 12 54
3 5 6 48
3 10 11 54
3 6 48 59
3 10 54 55
3 6 7 59
3 9 10 55
3 7 58 59
3 9 55 56
3 8 57 58
3 8 56 57
3 7 8 58
3 8 9 56
3 4 31 48
3 12 35 54
3 31 48 49
3 35 53 54
3 31 49 50
3 35 52 53
3 31 32 50
3 34 35 52
3 32 33 50
3 33 34 52
3 33 50 51
3 33 51 52
3 48 49 60
3 49 60 50
3 50 60 61
3 50 51 61
3 51 52 61
3 61 62 52
3 52 53 62
3 53 54 62
3 54 55 63
3 55 56 63
3 56 63 64
3 56 57 64
3 64 65 57
3 57 58 65
3 58 59 65
3 48 59 65
