ply
format ascii 1.0
element vertex 66
property float x
property float y
property float z
property float u
property float v
element face 91
property list uchar int vertex_indices
end_header
-20.2908 -5.57169 20.893 483.763 430.163
-19.8034 -0.473578 20.4535 483.684 452.512
-18.9052 4.57009 20.1578 485.454 474.863
-17.4652 9.44971 18.1503 489.525 495.886
-15.1583 13.9599 13.3581 497.318 514.293
-11.7369 17.8086 7.89044 510.248 529.934
-7.45597 20.7966 3.27104 527.417 542.571
-2.54126 22.742 -0.778428 547.883 551.177
2.81625 22.7686 -4.309 571.172 551.805
7.3383 21.4943 -0.924118 591.98 549.747
11.084 18.8225 3.39045 610.049 541.691
14.3183 15.6112 8.17326 626.138 531.283
16.645 11.7339 13.7659 638.585 517.971
17.9319 7.23413 18.5644 646.639 501.109
18.5909 2.36181 20.7471 651.84 481.077
18.932 -2.66311 21.1056 655.533 459.355
19.0498 -7.68457 21.5998 658.254 437.621
-16.0704 -15.2756 0.239103 504.617 379.299
-13.9936 -17.0508 -1.51022 514.376 371.525
-11.3583 -17.8765 -2.9772 526.217 368.286
-8.59816 -17.9923 -4.33159 538.314 368.268
-5.91556 -17.4922 -5.58574 549.815 370.967
3.13497 -18.125 -5.27038 590.035 372.114
6.10382 -19.1968 -4.04159 603.704 369.248
9.23433 -19.578 -2.64048 617.805 369.562
12.3188 -18.9351 -1.23095 631.266 374.352
14.7959 -17.0559 0.438116 641.54 384.439
-1.59954 -11.6456 -5.0894 566.389 398.649
-1.53585 -8.53622 -7.68817 565.094 411.047
-1.43781 -5.46115 -10.5013 563.945 423.204
-1.28829 -2.40939 -13.2687 563.037 435.303
-3.86416 0.801189 -6.21205 550.956 451.749
-2.47691 1.06492 -7.15686 556.873 453.023
-1.03515 1.06581 -8.11887 563.142 453.159
0.674044 0.780166 -7.20085 570.889 453.065
2.28382 0.25733 -6.17341 578.309 451.943
-11.7231 -10.2222 -1.1883 521.49 402.577
-10.1131 -11.5574 -1.14709 529.168 397.411
-7.97549 -11.6821 -1.03166 538.661 397.811
-6.21975 -10.6599 -0.621733 546.004 403.225
-7.98232 -9.8793 -0.962487 537.863 405.748
-9.92599 -9.64476 -1.1156 529.176 405.893
5.43655 -11.8061 -0.913681 597.881 402.909
7.1143 -13.055 -0.907152 605.817 398.133
9.28386 -13.0679 -0.749002 615.407 399.057
11.0894 -11.9609 -0.611658 622.908 404.73
9.30953 -11.2336 -0.842101 614.724 407.067
7.31372 -11.1756 -0.994865 605.882 406.416
-5.49657 10.1558 -2.79049 540.061 493.765
-3.90243 8.5195 -5.02178 547.586 486.165
-2.02391 7.09934 -6.65744 556.328 479.922
0.231683 7.09914 -8.22882 566.131 480.094
2.57427 6.59325 -6.56473 576.835 479.662
4.86334 7.55096 -4.94765 586.671 485.603
7.076 8.69741 -2.9153 596.128 492.542
5.38113 10.1656 -4.10257 587.912 497.698
3.3305 11.1585 -5.33741 578.326 500.597
1.0205 11.7045 -6.53979 567.791 501.444
-1.38187 11.8235 -5.35513 557.255 501.543
-3.66223 11.353 -4.22583 547.504 499.08
-1.50288 9.14218 -5.06238 557.899 489.875
0.470866 8.76664 -7.33821 566.553 487.941
2.6626 8.54588 -5.36858 576.499 488.845
2.67567 8.77767 -4.68551 576.52 490.2
0.580199 9.15424 -6.42723 566.954 490.13
-1.42098 9.33862 -4.53428 558.225 491.028
3 20 21 23
3 21 22 23
3 0 1 36
3 15 16 45
3 0 17 36
3 16 26 45
3 17 18 37
3 25 26 44
3 17 36 37
3 26 44 45
3 18 19 38
3 24 25 43
3 18 37 38
3 25 43 44
3 19 20 38
3 23 24 43
3 20 21 39
3 22 23 42
3 20 38 39
3 23 42 43
3 21 22 27
3 21 27 39
3 22 27 42
3 27 28 42
3 27 28 39
3 28 42 47
3 28 39 40
3 1 36 41
3 15 45 46
3 1 2 41
3 14 15 46
3 28 29 40
3 28 29 47
3 2 40 41
3 14 46 47
3 2 29 40
3 14 29 47
3 2 3 29
3 13 14 29
3 29 30 31
3 29 30 35
3 3 29 31
3 13 29 35
3 30 32 33
3 30 33 34
3 30 31 32
3 30 34 35
3 3 4 31
3 12 13 35
3 4 5 48
3 11 12 54
3 5 6 48
3 10 11 54
3 6 48 59
3 10 54 55
3 6 7 59
3 9 10 55
3 7 58 59
3 9 55 56
3 8 57 58
3 8 56 57
3 7 8 58
3 8 9 56
3 4 31 48
3 12 35 54
3 31 48 49
3 35 53 54
3 31 49 50
3 35 52 53
3 31 32 50
3 34 35 52
3 32 33 50
3 33 34 52
3 33 50 51
3 33 51 52
3 48 49 60
3 49 60 50
3 50 60 61
3 50 51 61
3 51 52 61
3 61 62 52
3 52 53 62
3 53 54 62
3 54 55 63
3 55 56 63
3 56 63 64
3 56 57 64
3 64 65 57
3 57 58 65
3 58 59 65
3 48 59 65
