ply
format ascii 1.0
element vertex 66
property float x
property float y
property float z
property float u
property float v
element face 91
property list uchar int vertex_indices
end_header
-20.0262 -5.57462 20.8237 485.163 435.365
-19.5407 -0.533697 20.3554 485.619 457.464
-18.6378 4.44871 20.0819 487.96 479.529
-17.1713 9.27827 18.0873 492.661 500.275
-14.8574 13.7945 13.3785 500.925 518.611
-11.5279 17.7394 7.85919 513.78 534.365
-7.37376 20.9002 3.20309 530.629 547.34
-2.55773 23.0502 -0.799189 550.802 556.388
2.76003 23.234 -4.36843 573.88 557.153
7.28754 21.9314 -0.92818 594.688 554.483
11.0091 19.1747 3.33118 612.491 545.557
14.1698 15.8418 8.13238 628.059 534.181
16.4293 11.8665 13.7709 639.94 520.097
17.6882 7.28425 18.5575 647.504 502.625
18.3469 2.3432 20.7027 652.253 482.124
18.6939 -2.73747 21.0627 655.48 460.059
18.8203 -7.81385 21.5862 657.748 438.021
-15.8112 -15.6364 0.252291 504.907 382.597
-13.8246 -17.33 -1.4583 514.063 374.952
-11.3013 -18.1066 -2.93466 525.318 371.619
-8.66202 -18.1986 -4.31538 536.873 371.379
-6.10954 -17.6686 -5.58989 547.852 373.899
3.1593 -18.3385 -5.26572 589.091 374.005
6.09572 -19.4183 -4.03937 602.556 370.759
9.19239 -19.7769 -2.63783 616.514 370.82
12.2259 -19.0623 -1.23621 629.843 375.58
14.6086 -17.114 0.438114 639.921 385.694
-1.65251 -11.4956 -5.04901 565.608 402.701
-1.55827 -8.47113 -7.67086 564.763 414.779
-1.43242 -5.47493 -10.4517 564.05 426.668
-1.25653 -2.5021 -13.177 563.572 438.495
-3.73015 0.6187 -6.09953 552.364 454.83
-2.39883 0.864654 -7.10639 558.065 455.847
-1.01801 0.865376 -8.11365 564.064 455.8
0.63078 0.575787 -7.15541 571.55 455.5
2.18229 0.0643963 -6.10354 578.688 454.238
-11.8385 -10.1808 -1.21065 520.543 407.134
-10.3001 -11.4088 -1.10602 527.757 402.264
-8.26985 -11.5773 -0.978615 536.803 402.218
-6.57122 -10.7616 -0.682522 544.079 406.478
-8.23865 -9.94842 -1.00251 536.408 409.381
-10.1043 -9.69803 -1.1123 528.065 409.847
5.55717 -11.9178 -0.923218 598.061 405.069
7.2124 -12.9734 -0.883788 605.728 400.962
9.28798 -12.928 -0.753377 614.905 401.873
11.0227 -11.9362 -0.669953 622.261 406.817
9.28752 -11.3072 -0.844787 614.365 408.958
7.35953 -11.2688 -1.00645 605.81 408.447
-4.96091 10.1221 -2.80511 544.174 497.818
-3.51974 8.53729 -5.00917 550.831 490.245
-1.80358 7.146 -6.63577 558.701 483.885
0.289463 7.1677 -8.24467 567.779 483.865
2.47258 6.65784 -6.56019 577.776 483.11
4.61139 7.60093 -4.95328 587.096 488.695
6.68671 8.6939 -2.91006 596.133 495.127
5.17823 10.2589 -4.13241 588.824 500.954
3.28635 11.3619 -5.37319 579.968 504.621
1.0783 11.9687 -6.61963 569.875 506.004
-1.21356 12.0137 -5.38958 559.856 506.074
-3.32467 11.4207 -4.2557 550.834 503.348
-1.18934 9.19604 -4.97801 560.924 493.885
0.523648 8.85833 -7.30695 568.363 491.822
2.45144 8.63112 -5.31025 577.172 492.38
2.47829 8.88907 -4.6672 577.275 493.83
0.630107 9.3433 -6.3091 568.781 494.466
-1.12637 9.41655 -4.48834 561.182 495.109
3 20 21 23
3 21 22 23
3 0 1 36
3 15 16 45
3 0 17 36
3 16 26 45
3 17 18 37
3 25 26 44
3 17 36 37
3 26 44 45
3 18 19 38
3 24 25 43
3 18 37 38
3 25 43 44
3 19 20 38
3 23 24 43
3 20 21 39
3 22 23 42
3 20 38 39
3 23 42 43
3 21 22 27
3 21 27 39
3 22 27 42
3 27 28 42
3 27 28 39
3 28 42 47
3 28 39 40
3 1 36 41
3 15 45 46
3 1 2 41
3 14 15 46
3 28 29 40
3 28 29 47
3 2 40 41
3 14 46 47
3 2 29 40
3 14 29 47
3 2 3 29
3 13 14 29
3 29 30 31
3 29 30 35
3 3 29 31
3 13 29 35
3 30 32 33
3 30 33 34
3 30 31 32
3 30 34 35
3 3 4 31
3 12 13 35
3 4 5 48
3 11 12 54
3 5 6 48
3 10 11 54
3 6 48 59
3 10 54 55
3 6 7 59
3 9 10 55
3 7 58 59
3 9 55 56
3 8 57 58
3 8 56 57
3 7 8 58
3 8 9 56
3 4 31 48
3 12 35 54
3 31 48 49
3 35 53 54
3 31 49 50
3 35 52 53
3 31 32 50
3 34 35 52
3 32 33 50
3 33 34 52
3 33 50 51
3 33 51 52
3 48 49 60
3 49 60 50
3 50 60 61
3 50 51 61
3 51 52 61
3 61 62 52
3 52 53 62
3 53 54 62
3 54 55 63
3 55 56 63
3 56 63 64
3 56 57 64
3 64 65 57
3 57 58 65
3 58 59 65
3 48 59 65
