ply
format ascii 1.0
element vertex 66
property float x
property float y
property float z
property float u
property float v
element face 91
property list uchar int vertex_indices
end_header
-20.1785 -5.65463 20.868 484.554 430.376
-19.7363 -0.539298 20.4385 484.489 452.826
-18.8839 4.52233 20.1549 486.268 475.265
-17.484 9.40447 18.1263 490.431 496.289
-15.2048 13.9138 13.3806 498.462 514.707
-11.7837 17.7712 7.88832 511.75 530.336
-7.47298 20.7598 3.24786 529.361 542.893
-2.52251 22.7178 -0.779834 550.239 551.457
2.88172 22.7355 -4.31009 573.91 551.902
7.43965 21.5314 -0.917074 594.734 549.971
11.2458 18.938 3.37561 612.831 542.077
14.5158 15.7711 8.17963 628.813 531.702
16.7985 11.8924 13.8071 640.756 518.217
17.9667 7.35632 18.6024 647.979 501.018
18.5291 2.41653 20.7793 652.523 480.56
18.814 -2.69207 21.1368 655.795 458.382
18.902 -7.79022 21.6428 658.201 436.247
-15.9613 -15.3974 0.242014 505.745 379.273
-13.9175 -17.0855 -1.4854 515.333 371.803
-11.3631 -17.8476 -2.96919 526.833 368.716
-8.70637 -17.953 -4.33998 538.536 368.608
-6.13297 -17.4744 -5.61096 549.649 371.083
3.21684 -18.1167 -5.27855 591.253 371.981
6.1806 -19.1481 -4.05293 604.831 369.163
9.29452 -19.4989 -2.65727 618.819 369.476
12.356 -18.8103 -1.25454 632.17 374.341
14.7965 -16.8834 0.422291 642.309 384.545
-1.69089 -11.6397 -5.10761 567.043 398.666
-1.60906 -8.57792 -7.68849 566.055 410.92
-1.49327 -5.55062 -10.4832 565.218 422.933
-1.32348 -2.54528 -13.2434 564.63 434.887
-3.87093 0.76061 -6.18469 552.508 451.831
-2.5004 1.00788 -7.14747 558.412 452.979
-1.07936 0.999044 -8.11855 564.639 453.016
0.629005 0.713129 -7.19287 572.358 452.853
2.23933 0.196645 -6.15405 579.742 451.694
-11.702 -10.2582 -1.18837 522.485 402.802
-10.1463 -11.5798 -1.13574 529.88 397.61
-8.06622 -11.6878 -1.02781 539.125 397.98
-6.37583 -10.6651 -0.635463 546.223 403.308
-8.07416 -9.86269 -0.974815 538.382 406.025
-9.96586 -9.64093 -1.1199 529.923 406.21
5.46965 -11.8019 -0.921251 599.015 402.686
7.09686 -13.0479 -0.925 606.694 397.827
9.21344 -13.0498 -0.762302 616.062 398.703
10.9702 -11.9556 -0.625243 623.41 404.247
9.24471 -11.2108 -0.854542 615.478 406.754
7.29546 -11.1466 -1.00826 606.826 406.221
-5.5164 10.1294 -2.79528 541.787 494.013
-3.8877 8.51431 -5.012 549.483 486.471
-2.00412 7.1093 -6.66465 558.257 480.221
0.24146 7.09813 -8.24054 568.093 480.272
2.5871 6.59779 -6.57884 578.759 479.762
4.90558 7.53156 -4.94736 588.743 485.532
7.19366 8.62672 -2.92067 598.554 492.189
5.48358 10.1494 -4.09649 590.33 497.668
3.39967 11.1747 -5.35493 580.641 500.778
1.05132 11.7251 -6.55008 569.973 501.731
-1.38537 11.8577 -5.37642 559.22 501.948
-3.68466 11.3656 -4.23782 549.316 499.454
-1.46337 9.15009 -5.04512 559.951 490.174
0.480815 8.76386 -7.3364 568.557 488.119
2.66001 8.54219 -5.38022 578.396 488.912
2.69197 8.81 -4.68948 578.475 490.432
0.594325 9.18237 -6.39501 568.953 490.453
-1.39372 9.37597 -4.51627 560.202 491.447
3 20 21 23
3 21 22 23
3 0 1 36
3 15 16 45
3 0 17 36
3 16 26 45
3 17 18 37
3 25 26 44
3 17 36 37
3 26 44 45
3 18 19 38
3 24 25 43
3 18 37 38
3 25 43 44
3 19 20 38
3 23 24 43
3 20 21 39
3 22 23 42
3 20 38 39
3 23 42 43
3 21 22 27
3 21 27 39
3 22 27 42
3 27 28 42
3 27 28 39
3 28 42 47
3 28 39 40
3 1 36 41
3 15 45 46
3 1 2 41
3 14 15 46
3 28 29 40
3 28 29 47
3 2 40 41
3 14 46 47
3 2 29 40
3 14 29 47
3 2 3 29
3 13 14 29
3 29 30 31
3 29 30 35
3 3 29 31
3 13 29 35
3 30 32 33
3 30 33 34
3 30 31 32
3 30 34 35
3 3 4 31
3 12 13 35
3 4 5 48
3 11 12 54
3 5 6 48
3 10 11 54
3 6 48 59
3 10 54 55
3 6 7 59
3 9 10 55
3 7 58 59
3 9 55 56
3 8 57 58
3 8 56 57
3 7 8 58
3 8 9 56
3 4 31 48
3 12 35 54
3 31 48 49
3 35 53 54
3 31 49 50
3 35 52 53
3 31 32 50
3 34 35 52
3 32 33 50
3 33 34 52
3 33 50 51
3 33 51 52
3 48 49 60
3 49 60 50
3 50 60 61
3 50 51 61
3 51 52 61
3 61 62 52
3 52 53 62
3 53 54 62
3 54 55 63
3 55 56 63
3 56 63 64
3 56 57 64
3 64 65 57
3 57 58 65
3 58 59 65
3 48 59 65
