ply
format ascii 1.0
element vertex 66
property float x
property float y
property float z
property float u
property float v
element face 91
property list uchar int vertex_indices
end_header
-19.7998 -5.96846 20.7076 487.27 432.304
-19.3163 -0.780908 20.3041 487.773 455.692
-18.4216 4.34391 19.9442 490.167 478.937
-16.9281 9.34797 18.082 495.083 501.154
-14.639 14.0588 13.3152 503.254 521.002
-11.3489 18.1964 7.83053 516.033 538.244
-7.21925 21.5412 3.20573 532.997 552.535
-2.43773 23.9005 -0.79713 553.319 562.845
2.91855 24.1497 -4.38287 576.972 563.983
7.47308 22.7037 -0.839174 598.611 560.371
11.1094 19.6692 3.3649 616.687 549.605
14.1377 16.0686 8.10551 632.267 536.339
16.2876 11.8832 13.6453 644.17 520.524
17.5054 7.2037 18.4771 651.895 501.889
18.1363 2.25575 20.3958 656.599 480.582
18.3952 -2.76836 20.7715 659.405 458.141
18.4255 -7.78738 21.2638 661.191 435.707
-15.4477 -15.8014 0.224506 506.951 380.174
-13.4964 -17.5245 -1.53522 516.068 372.199
-10.9871 -18.3513 -2.97531 527.481 368.577
-8.33529 -18.4402 -4.32217 539.323 368.371
-5.75688 -17.8876 -5.5487 550.65 371.092
3.26819 -18.6109 -5.21552 591.836 370.658
6.07983 -19.5384 -4.06177 605.048 367.815
9.01521 -19.7739 -2.72697 618.631 368.213
11.8372 -18.9475 -1.37039 631.37 373.382
13.9735 -16.9675 0.462837 640.713 383.765
-1.50255 -11.7522 -5.08858 568.081 400.262
-1.41035 -8.86421 -7.66377 567.2 412.193
-1.29004 -5.99556 -10.3535 566.435 423.995
-1.12754 -3.15074 -12.9994 565.876 435.721
-3.4954 0.243697 -6.0379 555.142 453.411
-2.20818 0.446993 -6.98299 560.768 454.295
-0.874698 0.43818 -7.99609 566.661 454.205
0.657835 0.192815 -6.98984 573.838 453.997
2.09153 -0.241756 -5.9793 580.627 452.907
-10.6708 -10.6621 -1.37974 526.748 404.091
-9.44551 -11.6978 -1.19382 532.655 399.861
-7.78846 -11.8712 -0.920786 540.262 399.692
-6.39084 -11.2081 -0.47614 546.457 403.297
-7.71612 -10.3854 -0.888641 540.129 406.436
-9.24795 -10.1811 -1.08738 533.091 406.815
4.98231 -12.1856 -0.672395 598.285 402.18
6.35038 -13.0126 -0.831362 604.721 398.783
8.04209 -12.9453 -0.906229 612.357 399.558
9.41024 -12.0637 -0.939372 618.277 403.93
7.99588 -11.4825 -0.865722 611.695 406.166
6.42247 -11.4766 -0.893989 604.557 405.712
-4.69614 10.4809 -2.76138 546.99 500.719
-3.44912 8.74189 -5.04601 552.838 492.231
-1.85372 7.09724 -6.6452 560.341 484.575
0.286822 7.09159 -8.14341 569.817 484.526
2.49531 6.62229 -6.55927 580.217 483.762
4.50178 7.84249 -4.98468 589.169 490.562
6.31614 9.18142 -2.83238 597.302 498.096
4.96938 10.6801 -4.03382 590.544 503.932
3.23717 11.7578 -5.33101 582.157 507.711
1.1088 12.3681 -6.60533 572.123 509.272
-1.13651 12.3554 -5.37678 562.137 509.088
-3.12457 11.7209 -4.2408 553.498 506.133
-0.901839 9.23129 -4.94143 564.247 495.244
0.531819 8.78891 -7.14972 570.547 492.7
2.16245 8.75435 -5.14536 578.255 493.913
2.19668 9.35328 -4.56526 578.311 496.883
0.695824 9.82163 -6.32365 571.093 497.776
-0.748234 9.7908 -4.49282 564.836 498.014
3 20 21 23
3 21 22 23
3 0 1 36
3 15 16 45
3 0 17 36
3 16 26 45
3 17 18 37
3 25 26 44
3 17 36 37
3 26 44 45
3 18 19 38
3 24 25 43
3 18 37 38
3 25 43 44
3 19 20 38
3 23 24 43
3 20 21 39
3 22 23 42
3 20 38 39
3 23 42 43
3 21 22 27
3 21 27 39
3 22 27 42
3 27 28 42
3 27 28 39
3 28 42 47
3 28 39 40
3 1 36 41
3 15 45 46
3 1 2 41
3 14 15 46
3 28 29 40
3 28 29 47
3 2 40 41
3 14 46 47
3 2 29 40
3 14 29 47
3 2 3 29
3 13 14 29
3 29 30 31
3 29 30 35
3 3 29 31
3 13 29 35
3 30 32 33
3 30 33 34
3 30 31 32
3 30 34 35
3 3 4 31
3 12 13 35
3 4 5 48
3 11 12 54
3 5 6 48
3 10 11 54
3 6 48 59
3 10 54 55
3 6 7 59
3 9 10 55
3 7 58 59
3 9 55 56
3 8 57 58
3 8 56 57
3 7 8 58
3 8 9 56
3 4 31 48
3 12 35 54
3 31 48 49
3 35 53 54
3 31 49 50
3 35 52 53
3 31 32 50
3 34 35 52
3 32 33 50
3 33 34 52
3 33 50 51
3 33 51 52
3 48 49 60
3 49 60 50
3 50 60 61
3 50 51 61
3 51 52 61
3 61 62 52
3 52 53 62
3 53 54 62
3 54 55 63
3 55 56 63
3 56 63 64
3 56 57 64
3 64 65 57
3 57 58 65
3 58 59 65
3 48 59 65
