ply
format ascii 1.0
element vertex 66
property float x
property float y
property float z
property float u
property float v
element face 91
property list uchar int vertex_indices
end_header
-20.1359 -5.69367 20.9267 484.402 429.391
-19.6343 -0.587272 20.4566 484.617 451.993
-18.7403 4.46585 20.178 486.617 474.595
-17.3497 9.36327 18.0973 490.732 495.863
-15.1181 13.9297 13.4073 498.494 514.779
-11.7298 17.8205 7.85763 511.596 530.74
-7.43059 20.8015 3.21274 529.186 543.429
-2.5061 22.7463 -0.800974 550.016 552.052
2.84658 22.7807 -4.31632 573.538 552.6
7.35415 21.5332 -0.924598 594.391 550.332
11.1211 18.897 3.35415 612.561 542.04
14.3659 15.7024 8.14579 628.666 531.312
16.6504 11.8054 13.7981 640.841 517.508
17.8453 7.2774 18.5314 648.328 500.072
18.4312 2.40911 20.7576 653.017 479.745
18.7589 -2.60653 21.0921 656.449 457.794
18.8927 -7.61627 21.6191 659.032 435.886
-16.0491 -15.4697 0.220119 504.595 378.063
-13.9841 -17.1139 -1.46006 514.283 370.78
-11.4255 -17.8483 -2.9537 525.833 367.8
-8.76984 -17.9246 -4.33952 537.57 367.823
-6.19354 -17.4228 -5.6168 548.739 370.428
3.41131 -18.1073 -5.28923 591.811 371.163
6.31455 -19.1165 -4.05874 605.239 368.351
9.36141 -19.4685 -2.65131 619.068 368.587
12.3578 -18.8112 -1.23275 632.281 373.282
14.7544 -16.9523 0.428877 642.379 383.188
-1.61712 -11.3976 -5.10387 566.832 399.09
-1.54628 -8.40693 -7.69587 565.763 411.176
-1.44388 -5.44844 -10.4902 564.831 423.037
-1.29022 -2.51207 -13.2424 564.138 434.84
-3.84178 0.683898 -6.12868 552.153 451.321
-2.46064 0.967766 -7.14398 558.107 452.631
-1.0238 0.989872 -8.16111 564.409 452.801
0.666133 0.679005 -7.1898 572.14 452.508
2.25249 0.130901 -6.11431 579.511 451.172
-11.8576 -10.2506 -1.17639 521.119 402.127
-10.4067 -11.4231 -1.09341 528.043 397.515
-8.49541 -11.5715 -0.988602 536.622 397.626
-6.90798 -10.747 -0.696798 543.398 402.012
-8.47725 -9.97678 -0.992004 536.085 404.698
-10.2346 -9.75811 -1.11424 528.162 404.949
5.88337 -11.9278 -0.970341 600.801 401.469
7.42356 -12.9523 -0.892808 608.065 397.545
9.36941 -12.9118 -0.73086 616.729 398.532
10.9943 -11.9445 -0.616907 623.601 403.483
9.37463 -11.3296 -0.84538 616.13 405.493
7.56615 -11.2897 -1.01141 608.045 404.912
-5.57498 10.1185 -2.83633 541.064 493.996
-3.908 8.52693 -5.02033 548.916 486.564
-1.99557 7.12891 -6.65389 557.833 480.336
0.276581 7.12147 -8.24396 567.818 480.426
2.63141 6.61135 -6.55806 578.65 479.829
4.96162 7.52366 -4.94796 588.814 485.491
7.25186 8.60559 -2.94443 598.769 492.072
5.52855 10.1258 -4.07904 590.406 497.637
3.43272 11.1383 -5.30398 580.573 500.77
1.09021 11.6992 -6.51528 569.818 501.816
-1.35431 11.8161 -5.33329 558.988 501.958
-3.68417 11.3409 -4.23331 548.891 499.482
-1.35554 9.1348 -5.08002 560.043 490.192
0.525157 8.7884 -7.37008 568.355 488.309
2.6218 8.54236 -5.38291 577.961 488.924
2.65826 8.80967 -4.67334 578.081 490.45
0.645637 9.20692 -6.33826 568.819 490.685
-1.27182 9.36456 -4.52559 560.375 491.497
3 20 21 23
3 21 22 23
3 0 1 36
3 15 16 45
3 0 17 36
3 16 26 45
3 17 18 37
3 25 26 44
3 17 36 37
3 26 44 45
3 18 19 38
3 24 25 43
3 18 37 38
3 25 43 44
3 19 20 38
3 23 24 43
3 20 21 39
3 22 23 42
3 20 38 39
3 23 42 43
3 21 22 27
3 21 27 39
3 22 27 42
3 27 28 42
3 27 28 39
3 28 42 47
3 28 39 40
3 1 36 41
3 15 45 46
3 1 2 41
3 14 15 46
3 28 29 40
3 28 29 47
3 2 40 41
3 14 46 47
3 2 29 40
3 14 29 47
3 2 3 29
3 13 14 29
3 29 30 31
3 29 30 35
3 3 29 31
3 13 29 35
3 30 32 33
3 30 33 34
3 30 31 32
3 30 34 35
3 3 4 31
3 12 13 35
3 4 5 48
3 11 12 54
3 5 6 48
3 10 11 54
3 6 48 59
3 10 54 55
3 6 7 59
3 9 10 55
3 7 58 59
3 9 55 56
3 8 57 58
3 8 56 57
3 7 8 58
3 8 9 56
3 4 31 48
3 12 35 54
3 31 48 49
3 35 53 54
3 31 49 50
3 35 52 53
3 31 32 50
3 34 35 52
3 32 33 50
3 33 34 52
3 33 50 51
3 33 51 52
3 48 49 60
3 49 60 50
3 50 60 61
3 50 51 61
3 51 52 61
3 61 62 52
3 52 53 62
3 53 54 62
3 54 55 63
3 55 56 63
3 56 63 64
3 56 57 64
3 64 65 57
3 57 58 65
3 58 59 65
3 48 59 65
