ply
format ascii 1.0
element vertex 66
property float x
property float y
property float z
property float u
property float v
element face 91
property list uchar int vertex_indices
end_header
-20.2022 -5.76653 20.8493 484.619 431.046
-19.7467 -0.64137 20.3817 484.774 453.478
-18.8927 4.43268 20.093 486.724 475.912
-17.4788 9.3482 18.11 491.058 496.998
-15.1984 13.9095 13.3517 499.108 515.446
-11.7757 17.807 7.84587 512.376 530.998
-7.46203 20.8209 3.2346 529.971 543.419
-2.54158 22.8481 -0.781252 550.646 552.012
2.84249 22.9152 -4.32411 574.106 552.389
7.40381 21.6957 -0.887707 594.986 550.306
11.2025 19.0458 3.37744 613.075 542.091
14.4855 15.842 8.12286 629.122 531.505
16.8105 11.9337 13.7238 641.26 517.923
18.0209 7.37647 18.5644 648.639 500.731
18.597 2.44247 20.6668 653.113 480.305
18.8701 -2.63082 21.0198 656.148 458.293
18.9533 -7.69228 21.5545 658.356 436.358
-15.9651 -15.5064 0.256325 505.025 379.481
-13.9315 -17.2291 -1.49529 514.47 371.741
-11.3728 -18.0328 -2.97096 525.933 368.354
-8.69403 -18.1321 -4.31966 537.688 368.165
-6.09483 -17.6214 -5.55277 548.884 370.686
3.25621 -18.3076 -5.20111 590.472 371.052
6.22192 -19.308 -4.0327 604.03 368.256
9.32574 -19.6108 -2.68466 617.966 368.66
12.3467 -18.8217 -1.30026 631.152 373.849
14.7033 -16.8063 0.467988 641.001 384.388
-1.64865 -11.4786 -5.12256 566.387 399.401
-1.55652 -8.47781 -7.71177 565.509 411.324
-1.43258 -5.50499 -10.471 564.766 423.051
-1.25743 -2.55178 -13.1688 564.261 434.739
-3.79015 0.726166 -6.14762 552.512 451.759
-2.42138 0.997526 -7.11243 558.38 452.94
-0.995892 1.00181 -8.10387 564.592 452.954
0.685426 0.705585 -7.14204 572.207 452.708
2.25401 0.165768 -6.13388 579.415 451.376
-11.1626 -10.3681 -1.25953 524.291 402.939
-9.83734 -11.4742 -1.15432 530.548 398.588
-8.07526 -11.5964 -0.9809 538.391 398.741
-6.60896 -10.7988 -0.58453 544.621 402.944
-8.04389 -10.0438 -0.939067 537.983 405.592
-9.66033 -9.85581 -1.12152 530.759 405.773
5.41927 -11.897 -0.817254 598.132 402.127
6.84829 -12.8872 -0.898205 604.79 398.228
8.64678 -12.8545 -0.822656 612.731 399.025
10.1449 -11.9425 -0.731379 619.034 403.59
8.64437 -11.3226 -0.859094 612.174 405.735
6.97535 -11.2698 -0.939125 604.774 405.355
-5.56512 10.0977 -2.79544 541.635 493.976
-3.87808 8.56089 -5.03804 549.441 486.689
-1.97525 7.17205 -6.66733 558.201 480.432
0.302052 7.16672 -8.20661 568.132 480.423
2.6686 6.6525 -6.57047 578.91 479.79
4.99314 7.55287 -4.96755 588.999 485.338
7.30258 8.56988 -2.88301 599.02 491.632
5.59843 10.1388 -4.03547 590.836 497.366
3.50115 11.1993 -5.29996 581.086 500.676
1.11425 11.7697 -6.52364 570.233 501.754
-1.36478 11.8796 -5.34003 559.343 501.976
-3.69114 11.3564 -4.20834 549.347 499.444
-1.25965 9.17695 -5.07374 560.788 490.275
0.547643 8.79903 -7.30437 568.716 488.125
2.57633 8.59489 -5.36847 577.917 488.886
2.63166 8.932 -4.66498 578.102 490.736
0.67396 9.3223 -6.3805 569.168 490.926
-1.18193 9.47489 -4.51972 561.074 491.885
3 20 21 23
3 21 22 23
3 0 1 36
3 15 16 45
3 0 17 36
3 16 26 45
3 17 18 37
3 25 26 44
3 17 36 37
3 26 44 45
3 18 19 38
3 24 25 43
3 18 37 38
3 25 43 44
3 19 20 38
3 23 24 43
3 20 21 39
3 22 23 42
3 20 38 39
3 23 42 43
3 21 22 27
3 21 27 39
3 22 27 42
3 27 28 42
3 27 28 39
3 28 42 47
3 28 39 40
3 1 36 41
3 15 45 46
3 1 2 41
3 14 15 46
3 28 29 40
3 28 29 47
3 2 40 41
3 14 46 47
3 2 29 40
3 14 29 47
3 2 3 29
3 13 14 29
3 29 30 31
3 29 30 35
3 3 29 31
3 13 29 35
3 30 32 33
3 30 33 34
3 30 31 32
3 30 34 35
3 3 4 31
3 12 13 35
3 4 5 48
3 11 12 54
3 5 6 48
3 10 11 54
3 6 48 59
3 10 54 55
3 6 7 59
3 9 10 55
3 7 58 59
3 9 55 56
3 8 57 58
3 8 56 57
3 7 8 58
3 8 9 56
3 4 31 48
3 12 35 54
3 31 48 49
3 35 53 54
3 31 49 50
3 35 52 53
3 31 32 50
3 34 35 52
3 32 33 50
3 33 34 52
3 33 50 51
3 33 51 52
3 48 49 60
3 49 60 50
3 50 60 61
3 50 51 61
3 51 52 61
3 61 62 52
3 52 53 62
3 53 54 62
3 54 55 63
3 55 56 63
3 56 63 64
3 56 57 64
3 64 65 57
3 57 58 65
3 58 59 65
3 48 59 65
