ply
format ascii 1.0
element vertex 66
property float x
property float y
property float z
property float u
property float v
element face 91
property list uchar int vertex_indices
end_header
-19.8147 -5.8476 20.7126 485.166 432.138
-19.2695 -0.662473 20.2982 486.127 455.431
-18.2996 4.45189 19.9118 489.028 478.529
-16.7355 9.4745 18.0929 494.441 500.801
-14.4076 14.231 13.2642 502.967 520.88
-11.1526 18.4345 7.77725 515.741 538.456
-7.10481 21.878 3.17333 532.421 553.177
-2.38085 24.2929 -0.811107 552.522 563.699
2.91908 24.6019 -4.40749 575.859 565.061
7.43769 22.9922 -0.786771 597.179 560.466
10.9658 19.7529 3.39287 614.559 548.505
13.8449 15.9422 8.11131 629.244 534.016
15.9245 11.6289 13.6324 640.57 517.376
17.2306 6.92618 18.4467 648.42 498.498
17.982 2.03657 20.3167 653.422 477.459
18.3264 -2.89407 20.666 656.394 455.52
18.3976 -7.82487 21.1479 658.152 433.561
-15.419 -15.8395 0.229089 505.012 380.212
-13.5184 -17.5916 -1.53878 513.834 372.133
-11.021 -18.448 -2.95384 525.148 368.381
-8.35903 -18.5282 -4.30091 536.996 368.19
-5.76198 -17.9547 -5.52806 548.387 370.968
3.42166 -18.6154 -5.26116 590.034 370.541
6.18879 -19.5345 -4.08949 602.931 367.61
9.07759 -19.7664 -2.73035 616.21 367.876
11.8404 -18.9335 -1.37565 628.624 372.894
13.8962 -16.9659 0.441914 637.596 383.011
-1.41964 -11.8523 -5.02749 566.345 399.758
-1.36489 -8.93778 -7.65232 565.427 411.83
-1.28373 -6.03607 -10.343 564.623 423.825
-1.16088 -3.15916 -12.9626 564.023 435.748
-3.49908 0.178198 -6.04528 553.48 452.891
-2.21335 0.444691 -6.97735 559.08 454.059
-0.867409 0.482108 -7.9765 565.007 454.186
0.659992 0.209147 -6.97137 572.108 453.765
2.07099 -0.266449 -5.94937 578.744 452.408
-10.8282 -10.6717 -1.40321 524.063 404.014
-9.58558 -11.7219 -1.19809 529.988 399.704
-7.88955 -11.9314 -0.901874 537.737 399.33
-6.45322 -11.3043 -0.457653 544.102 402.708
-7.80158 -10.4112 -0.886646 537.713 406.195
-9.37443 -10.1876 -1.07435 530.531 406.708
5.21896 -12.2706 -0.733098 596.988 401.351
6.62451 -13.0202 -0.817224 603.525 398.32
8.34371 -12.9057 -0.902274 611.237 399.257
9.69617 -11.9797 -0.966102 617.072 403.754
8.25718 -11.4199 -0.876973 610.437 405.925
6.65904 -11.4586 -0.945113 603.229 405.3
-4.16259 10.5055 -2.74378 548.059 500.465
-3.19305 8.67258 -5.05376 552.631 491.56
-1.77726 6.9541 -6.64441 559.281 483.575
0.240259 6.97171 -8.1544 568.174 483.588
2.32909 6.51578 -6.5195 577.944 482.744
4.14945 7.8521 -4.95148 585.996 489.86
5.66569 9.35714 -2.80469 592.706 497.886
4.49537 10.7319 -3.99312 586.884 503.282
2.99418 11.764 -5.30769 579.648 507.001
1.07424 12.3862 -6.66989 570.63 508.745
-0.979077 12.3156 -5.39113 561.56 508.393
-2.75863 11.6767 -4.2337 553.866 505.509
-0.550788 9.09847 -4.89762 564.453 494.239
0.491763 8.70109 -7.0911 568.971 491.854
1.73669 8.70336 -5.04505 574.862 493.01
1.74625 9.30664 -4.49362 574.812 495.945
0.669293 9.80556 -6.27896 569.574 497.191
-0.363631 9.66535 -4.48974 565.195 497
3 20 21 23
3 21 22 23
3 0 1 36
3 15 16 45
3 0 17 36
3 16 26 45
3 17 18 37
3 25 26 44
3 17 36 37
3 26 44 45
3 18 19 38
3 24 25 43
3 18 37 38
3 25 43 44
3 19 20 38
3 23 24 43
3 20 21 39
3 22 23 42
3 20 38 39
3 23 42 43
3 21 22 27
3 21 27 39
3 22 27 42
3 27 28 42
3 27 28 39
3 28 42 47
3 28 39 40
3 1 36 41
3 15 45 46
3 1 2 41
3 14 15 46
3 28 29 40
3 28 29 47
3 2 40 41
3 14 46 47
3 2 29 40
3 14 29 47
3 2 3 29
3 13 14 29
3 29 30 31
3 29 30 35
3 3 29 31
3 13 29 35
3 30 32 33
3 30 33 34
3 30 31 32
3 30 34 35
3 3 4 31
3 12 13 35
3 4 5 48
3 11 12 54
3 5 6 48
3 10 11 54
3 6 48 59
3 10 54 55
3 6 7 59
3 9 10 55
3 7 58 59
3 9 55 56
3 8 57 58
3 8 56 57
3 7 8 58
3 8 9 56
3 4 31 48
3 12 35 54
3 31 48 49
3 35 53 54
3 31 49 50
3 35 52 53
3 31 32 50
3 34 35 52
3 32 33 50
3 33 34 52
3 33 50 51
3 33 51 52
3 48 49 60
3 49 60 50
3 50 60 61
3 50 51 61
3 51 52 61
3 61 62 52
3 52 53 62
3 53 54 62
3 54 55 63
3 55 56 63
3 56 63 64
3 56 57 64
3 64 65 57
3 57 58 65
3 58 59 65
3 48 59 65
