ply
format ascii 1.0
element vertex 66
property float x
property float y
property float z
property float u
property float v
element face 91
property list uchar int vertex_indices
end_header
-19.7575 -6.19909 20.835 485.738 430.593
-19.2275 -0.871722 20.3657 486.236 454.13
-18.3207 4.40067 19.919 488.435 477.555
-16.8973 9.621 18.2341 492.792 500.296
-14.8086 14.5902 13.2825 499.775 520.502
-11.7169 18.9786 7.74412 511.348 538.165
-7.71964 22.5384 3.16687 527.36 552.928
-2.97432 24.964 -0.846005 547.161 563.191
2.33718 25.361 -4.53144 570.214 564.813
7.11562 23.7616 -0.766983 592.532 561.151
10.8431 20.3735 3.44083 610.83 549.448
13.85 16.3181 8.04833 626.195 534.758
16.0927 11.7992 13.5256 638.425 518.203
17.534 6.93629 18.4704 647.132 499.601
18.3292 1.91377 20.2551 652.604 478.5
18.6363 -3.12106 20.6693 655.73 456.501
18.6341 -8.16355 21.0522 657.475 434.354
-15.5678 -15.5357 0.230143 504.893 380.258
-13.6749 -17.3962 -1.6091 513.718 371.704
-11.1273 -18.3045 -2.97421 525.198 367.816
-8.39356 -18.3698 -4.2838 537.23 367.75
-5.71818 -17.7559 -5.45847 548.79 370.743
3.26042 -18.3809 -5.25313 589.03 370.966
6.01833 -19.358 -4.11252 601.796 368.096
8.91979 -19.6336 -2.78458 614.988 368.474
11.7043 -18.8347 -1.43917 627.297 373.583
13.7728 -16.8524 0.472811 636.09 383.988
-1.26742 -11.8142 -5.04721 566.663 398.704
-1.21003 -8.84605 -7.73434 565.566 410.525
-1.1336 -5.88254 -10.4202 564.556 422.333
-1.02215 -2.93887 -12.9688 563.727 434.134
-3.44223 0.312497 -6.05471 552.741 451.222
-2.05854 0.634264 -6.99084 558.675 452.624
-0.597517 0.693057 -7.97829 565.037 452.86
0.96785 0.392649 -6.96436 572.244 452.541
2.38899 -0.156171 -6.07986 578.876 451.01
-10.6631 -10.5716 -1.47853 524.844 402.972
-9.40687 -11.6839 -1.30247 530.84 398.537
-7.6688 -11.9147 -0.96076 538.706 398.245
-6.16892 -11.2097 -0.431231 545.219 402.116
-7.55026 -10.2924 -0.892347 538.694 405.504
-9.15602 -10.0844 -1.09214 531.444 405.809
4.72693 -12.0974 -0.621482 594.038 401.595
6.13328 -12.9372 -0.932643 600.548 398.171
7.87164 -12.8824 -1.05562 608.258 398.912
9.25071 -11.9295 -1.0491 614.081 403.58
7.8055 -11.2985 -0.863164 607.453 406.004
6.19127 -11.3167 -0.856122 600.268 405.407
-4.09482 10.0518 -2.69222 546.974 495.843
-3.05142 8.27504 -5.06339 551.917 487.12
-1.57696 6.6768 -6.69052 558.816 479.699
0.444609 6.72274 -8.15735 567.617 479.818
2.51157 6.23747 -6.48997 577.206 479.169
4.32319 7.42067 -4.88889 585.084 485.795
5.80498 8.87399 -2.62407 591.488 493.845
4.62703 10.2024 -3.88808 585.627 498.718
3.11527 11.182 -5.23258 578.386 501.898
1.18977 11.7536 -6.70991 569.422 503.07
-0.828898 11.7024 -5.37541 560.619 502.862
-2.62638 11.1524 -4.10569 552.961 500.483
-0.383786 8.73773 -4.91979 563.664 490.1
0.701163 8.40631 -6.93574 568.349 487.971
1.93507 8.36131 -4.97506 574.115 489.151
1.95619 8.81917 -4.42535 574.126 491.461
0.850409 9.28284 -6.22297 568.809 492.259
-0.226235 9.18605 -4.48107 564.271 492.356
3 20 21 23
3 21 22 23
3 0 1 36
3 15 16 45
3 0 17 36
3 16 26 45
3 17 18 37
3 25 26 44
3 17 36 37
3 26 44 45
3 18 19 38
3 24 25 43
3 18 37 38
3 25 43 44
3 19 20 38
3 23 24 43
3 20 21 39
3 22 23 42
3 20 38 39
3 23 42 43
3 21 22 27
3 21 27 39
3 22 27 42
3 27 28 42
3 27 28 39
3 28 42 47
3 28 39 40
3 1 36 41
3 15 45 46
3 1 2 41
3 14 15 46
3 28 29 40
3 28 29 47
3 2 40 41
3 14 46 47
3 2 29 40
3 14 29 47
3 2 3 29
3 13 14 29
3 29 30 31
3 29 30 35
3 3 29 31
3 13 29 35
3 30 32 33
3 30 33 34
3 30 31 32
3 30 34 35
3 3 4 31
3 12 13 35
3 4 5 48
3 11 12 54
3 5 6 48
3 10 11 54
3 6 48 59
3 10 54 55
3 6 7 59
3 9 10 55
3 7 58 59
3 9 55 56
3 8 57 58
3 8 56 57
3 7 8 58
3 8 9 56
3 4 31 48
3 12 35 54
3 31 48 49
3 35 53 54
3 31 49 50
3 35 52 53
3 31 32 50
3 34 35 52
3 32 33 50
3 33 34 52
3 33 50 51
3 33 51 52
3 48 49 60
3 49 60 50
3 50 60 61
3 50 51 61
3 51 52 61
3 61 62 52
3 52 53 62
3 53 54 62
3 54 55 63
3 55 56 63
3 56 63 64
3 56 57 64
3 64 65 57
3 57 58 65
3 58 59 65
3 48 59 65
