ply
format ascii 1.0
element vertex 66
property float x
property float y
property float z
property float u
property float v
element face 91
property list uchar int vertex_indices
end_header
-20.1624 -5.58821 20.8812 482.855 430.44
-19.6934 -0.52062 20.4265 482.899 452.658
-18.8195 4.49444 20.1516 484.759 474.891
-17.4098 9.3501 18.1306 488.978 495.783
-15.125 13.8579 13.389 497.087 514.165
-11.724 17.7223 7.898 510.352 529.79
-7.45762 20.7297 3.25359 527.815 542.401
-2.55659 22.7093 -0.777936 548.515 551.044
2.79299 22.7676 -4.30485 571.98 551.669
7.31179 21.5318 -0.944162 592.574 549.637
11.0706 18.8954 3.36308 610.406 541.619
14.3193 15.7104 8.16923 626.222 531.235
16.6381 11.8382 13.7966 638.236 517.87
17.8877 7.31923 18.5701 645.748 500.833
18.5112 2.42356 20.778 650.536 480.648
18.8408 -2.62653 21.1352 654.01 458.771
18.9637 -7.67103 21.6383 656.575 436.908
-16.0206 -15.299 0.241867 504.148 379.361
-13.9853 -17.0333 -1.49446 513.755 371.692
-11.4065 -17.8422 -2.9744 525.408 368.424
-8.70583 -17.9701 -4.33938 537.334 368.251
-6.0802 -17.5014 -5.6019 548.695 370.718
3.08702 -18.1085 -5.28123 589.451 371.78
6.07023 -19.173 -4.04555 603.104 368.869
9.21077 -19.5473 -2.6404 617.186 369.133
12.3032 -18.8906 -1.22768 630.647 373.909
14.781 -16.999 0.426792 640.913 383.988
-1.66183 -11.6149 -5.09967 565.902 398.538
-1.58717 -8.53158 -7.69034 564.901 410.848
-1.47822 -5.48269 -10.4969 564.057 422.916
-1.31543 -2.45719 -13.2609 563.461 434.922
-3.95442 0.762196 -6.19188 550.819 451.473
-2.53321 1.04598 -7.15935 556.945 452.803
-1.0549 1.0525 -8.13443 563.433 452.933
0.705225 0.743738 -7.21148 571.371 452.712
2.35986 0.182709 -6.18139 578.946 451.394
-11.7365 -10.2206 -1.17878 521.002 402.644
-10.1672 -11.5362 -1.12892 528.459 397.501
-8.07622 -11.657 -1.02683 537.749 397.835
-6.35711 -10.6714 -0.650928 544.969 403.017
-8.07598 -9.89575 -0.973038 537.054 405.597
-9.97705 -9.66127 -1.11878 528.556 405.815
5.52501 -11.8365 -0.934848 597.915 402.392
7.17622 -13.0542 -0.917144 605.694 397.696
9.30303 -13.0561 -0.737102 615.099 398.604
11.0768 -11.9775 -0.590268 622.513 404.104
9.32703 -11.2728 -0.837469 614.493 406.397
7.36723 -11.2135 -0.993457 605.805 405.818
-5.61737 10.1031 -2.79017 539.909 493.506
-3.95872 8.49498 -5.00236 547.783 486.013
-2.02426 7.1143 -6.64703 556.808 479.902
0.267235 7.11199 -8.23243 566.867 480.014
2.6528 6.59562 -6.55273 577.682 479.493
5.00992 7.49743 -4.92943 587.805 485.162
7.31414 8.5835 -2.91652 597.638 491.81
5.57908 10.1436 -4.11591 589.304 497.402
3.45846 11.2006 -5.34361 579.465 500.62
1.06862 11.7696 -6.54591 568.631 501.603
-1.40656 11.8884 -5.35865 557.698 501.738
-3.75032 11.377 -4.22577 547.592 499.13
-1.53389 9.14392 -5.05416 558.236 489.783
0.506308 8.77647 -7.35661 567.3 487.844
2.77266 8.52212 -5.39387 577.495 488.565
2.80517 8.81826 -4.70642 577.55 490.213
0.619461 9.22989 -6.40999 567.659 490.34
-1.46465 9.40251 -4.5223 558.462 491.204
3 20 21 23
3 21 22 23
3 0 1 36
3 15 16 45
3 0 17 36
3 16 26 45
3 17 18 37
3 25 26 44
3 17 36 37
3 26 44 45
3 18 19 38
3 24 25 43
3 18 37 38
3 25 43 44
3 19 20 38
3 23 24 43
3 20 21 39
3 22 23 42
3 20 38 39
3 23 42 43
3 21 22 27
3 21 27 39
3 22 27 42
3 27 28 42
3 27 28 39
3 28 42 47
3 28 39 40
3 1 36 41
3 15 45 46
3 1 2 41
3 14 15 46
3 28 29 40
3 28 29 47
3 2 40 41
3 14 46 47
3 2 29 40
3 14 29 47
3 2 3 29
3 13 14 29
3 29 30 31
3 29 30 35
3 3 29 31
3 13 29 35
3 30 32 33
3 30 33 34
3 30 31 32
3 30 34 35
3 3 4 31
3 12 13 35
3 4 5 48
3 11 12 54
3 5 6 48
3 10 11 54
3 6 48 59
3 10 54 55
3 6 7 59
3 9 10 55
3 7 58 59
3 9 55 56
3 8 57 58
3 8 56 57
3 7 8 58
3 8 9 56
3 4 31 48
3 12 35 54
3 31 48 49
3 35 53 54
3 31 49 50
3 35 52 53
3 31 32 50
3 34 35 52
3 32 33 50
3 33 34 52
3 33 50 51
3 33 51 52
3 48 49 60
3 49 60 50
3 50 60 61
3 50 51 61
3 51 52 61
3 61 62 52
3 52 53 62
3 53 54 62
3 54 55 63
3 55 56 63
3 56 63 64
3 56 57 64
3 64 65 57
3 57 58 65
3 58 59 65
3 48 59 65
