ply
format ascii 1.0
element vertex 66
property float x
property float y
property float z
property float u
property float v
element face 91
property list uchar int vertex_indices
end_header
-19.8064 -5.90592 20.8616 490.188 427.216
-19.286 -0.670834 20.4521 490.769 449.355
-18.378 4.50174 20.0726 493.035 471.36
-16.9212 9.54986 18.135 497.543 492.057
-14.7026 14.2874 13.3768 505.147 509.956
-11.4699 18.3957 7.81186 517.215 524.993
-7.38315 21.6856 3.16138 533.285 537.353
-2.636 23.9685 -0.82053 552.559 546.032
2.65392 24.2249 -4.48634 574.814 546.453
7.30137 22.749 -0.775494 595.546 543.777
11.0022 19.6239 3.38361 612.77 534.091
14.0378 15.8897 8.13866 627.386 521.983
16.1893 11.5929 13.7391 638.464 507.738
17.4602 6.86287 18.458 645.817 490.864
18.1376 1.92196 20.4478 650.43 471.276
18.403 -3.09314 20.7823 653.143 450.255
18.3927 -8.1067 21.2324 654.685 429.229
-15.6419 -15.4652 0.205135 509.028 375.374
-13.7848 -17.2252 -1.51558 517.37 367.402
-11.3233 -18.0625 -2.95707 528.045 363.695
-8.71341 -18.1363 -4.33368 539.127 363.312
-6.16225 -17.6107 -5.57851 549.786 365.538
3.7584 -18.2503 -5.38147 592.538 365.833
6.4413 -19.1331 -4.16337 604.429 363.6
9.24435 -19.3876 -2.75846 616.659 364.183
11.9541 -18.6452 -1.35129 628.182 368.975
14.0029 -16.7659 0.393583 636.553 378.606
-1.27971 -11.6598 -5.05682 568.939 392.551
-1.22746 -9.02194 -7.66074 568.104 402.2
-1.15384 -6.39923 -10.3456 567.358 411.742
-1.04438 -3.79957 -12.9949 566.776 421.217
-3.38884 -0.0772987 -5.98865 556.242 440.568
-2.07541 0.109885 -6.98354 561.722 441.146
-0.723051 0.112886 -8.03566 567.419 440.919
0.775286 -0.114815 -6.97737 574.014 441.026
2.19265 -0.507225 -5.90143 580.314 440.422
-11.2208 -10.4307 -1.34907 526.288 397.108
-9.89827 -11.4223 -1.15669 532.282 393.398
-8.16976 -11.6586 -0.912054 539.789 393.046
-6.66439 -11.1287 -0.564353 546.113 395.945
-8.07168 -10.2467 -0.934176 539.773 399.058
-9.70566 -10.0091 -1.07829 532.68 399.504
5.4744 -12.0943 -0.815296 598.434 395.232
6.94841 -12.753 -0.832036 604.955 392.854
8.69604 -12.6293 -0.886652 612.405 393.856
10.1136 -11.7768 -0.956657 618.214 397.848
8.61795 -11.2614 -0.902287 611.648 399.634
6.96457 -11.3086 -0.986694 604.565 398.901
-4.60925 10.265 -2.79428 548.129 486.064
-3.3946 8.49191 -5.0205 553.672 477.545
-1.81791 6.83786 -6.64587 560.787 470
0.288696 6.86125 -8.16942 569.668 469.795
2.44628 6.42205 -6.51856 579.21 469.554
4.37884 7.70779 -4.90595 587.254 476.551
6.06759 9.15384 -2.82626 594.246 484.439
4.80772 10.6781 -4.03018 588.261 489.819
3.14029 11.7739 -5.37356 580.647 493.177
1.04839 12.3713 -6.74785 571.364 494.276
-1.16661 12.2984 -5.46276 562.011 494.095
-3.1017 11.588 -4.24317 554.048 491.249
-0.967943 8.98291 -4.96634 563.93 480.371
0.517315 8.60489 -7.14749 570.208 477.883
2.16818 8.5748 -5.07379 577.492 479.487
2.21036 9.25818 -4.49172 577.518 482.753
0.683962 9.76952 -6.28522 570.646 483.398
-0.824602 9.64147 -4.50832 564.386 483.486
3 20 21 23
3 21 22 23
3 0 1 36
3 15 16 45
3 0 17 36
3 16 26 45
3 17 18 37
3 25 26 44
3 17 36 37
3 26 44 45
3 18 19 38
3 24 25 43
3 18 37 38
3 25 43 44
3 19 20 38
3 23 24 43
3 20 21 39
3 22 23 42
3 20 38 39
3 23 42 43
3 21 22 27
3 21 27 39
3 22 27 42
3 27 28 42
3 27 28 39
3 28 42 47
3 28 39 40
3 1 36 41
3 15 45 46
3 1 2 41
3 14 15 46
3 28 29 40
3 28 29 47
3 2 40 41
3 14 46 47
3 2 29 40
3 14 29 47
3 2 3 29
3 13 14 29
3 29 30 31
3 29 30 35
3 3 29 31
3 13 29 35
3 30 32 33
3 30 33 34
3 30 31 32
3 30 34 35
3 3 4 31
3 12 13 35
3 4 5 48
3 11 12 54
3 5 6 48
3 10 11 54
3 6 48 59
3 10 54 55
3 6 7 59
3 9 10 55
3 7 58 59
3 9 55 56
3 8 57 58
3 8 56 57
3 7 8 58
3 8 9 56
3 4 31 48
3 12 35 54
3 31 48 49
3 35 53 54
3 31 49 50
3 35 52 53
3 31 32 50
3 34 35 52
3 32 33 50
3 33 34 52
3 33 50 51
3 33 51 52
3 48 49 60
3 49 60 50
3 50 60 61
3 50 51 61
3 51 52 61
3 61 62 52
3 52 53 62
3 53 54 62
3 54 55 63
3 55 56 63
3 56 63 64
3 56 57 64
3 64 65 57
3 57 58 65
3 58 59 65
3 48 59 65
