ply
format ascii 1.0
element vertex 66
property float x
property float y
property float z
property float u
property float v
element face 91
property list uchar int vertex_indices
end_header
-19.9122 -5.78179 20.8906 487.021 433.926
-19.383 -0.657162 20.4608 487.883 456.241
-18.477 4.40715 20.1222 490.43 478.439
-17.0266 9.35284 18.0847 495.201 499.358
-14.7725 14.019 13.4209 503.267 517.87
-11.4898 18.0497 7.84303 515.926 533.386
-7.36198 21.2353 3.15532 532.646 545.899
-2.62507 23.4639 -0.8482 552.395 554.749
2.61619 23.7513 -4.43762 574.95 555.462
7.19516 22.3545 -0.850182 595.925 552.448
10.9336 19.4173 3.34443 613.701 542.803
14.0776 15.8867 8.12533 629.095 530.72
16.3414 11.7297 13.7375 640.889 516.111
17.6406 7.05224 18.4565 648.472 498.501
18.2914 2.14467 20.5523 652.947 478.326
18.5706 -2.83929 20.8928 655.593 456.788
18.6133 -7.8225 21.3653 657.215 435.263
-15.7375 -15.6448 0.19133 505.608 380.904
-13.7398 -17.3279 -1.45799 514.666 373.189
-11.1869 -18.092 -2.9265 525.936 369.732
-8.51228 -18.1394 -4.32288 537.552 369.479
-5.91432 -17.5653 -5.59042 548.675 371.991
3.41564 -18.2592 -5.33939 589.964 371.514
6.21348 -19.2016 -4.12427 602.686 368.766
9.14216 -19.4769 -2.7285 615.823 369.063
11.9806 -18.7428 -1.3173 628.285 373.759
14.1595 -16.8503 0.40998 637.562 383.515
-1.37696 -11.5456 -5.03861 567.051 399.782
-1.27551 -8.7052 -7.63371 566.398 410.85
-1.1531 -5.88786 -10.3863 565.824 421.739
-0.995142 -3.09746 -13.1271 565.416 432.526
-3.48636 0.128077 -5.98035 554.427 449.774
-2.12516 0.36271 -7.0328 560.226 450.595
-0.719686 0.38107 -8.10546 566.277 450.471
0.834986 0.110057 -7.04825 573.323 450.251
2.29738 -0.358681 -5.96144 580.021 449.158
-11.6873 -10.3429 -1.22838 521.799 404.384
-10.3168 -11.4782 -1.08587 528.162 399.852
-8.4746 -11.6972 -0.938624 536.349 399.451
-6.91554 -11.0002 -0.65935 543.053 403.052
-8.39733 -10.1215 -0.971665 536.25 406.343
-10.1032 -9.88517 -1.0781 528.663 406.876
5.47605 -12.0045 -0.838471 597.851 401.784
6.98203 -12.8778 -0.876392 604.716 398.337
8.85079 -12.8074 -0.837123 612.927 399.151
10.3676 -11.8505 -0.828747 619.34 403.734
8.80741 -11.2617 -0.87503 612.305 405.878
7.06749 -11.2727 -0.96783 604.638 405.329
-5.06997 10.1658 -2.8392 545.065 494.916
-3.59327 8.55181 -4.99018 551.75 487.101
-1.83422 7.06618 -6.60801 559.706 480.205
0.363401 7.09848 -8.1907 569.178 480.077
2.60359 6.6091 -6.51513 579.377 479.408
4.71726 7.66853 -4.91302 588.582 485.439
6.68309 8.87886 -2.86655 597.149 492.328
5.23385 10.4732 -4.09997 590.18 498.267
3.34798 11.5788 -5.36607 581.42 501.94
1.10825 12.1864 -6.64941 571.238 503.334
-1.24193 12.1503 -5.42651 561.052 503.214
-3.3755 11.4922 -4.2944 551.98 500.383
-1.10372 9.08209 -5.01566 562.558 490.053
0.590595 8.76685 -7.28434 569.827 487.911
2.43673 8.6099 -5.1818 578.252 488.82
2.49318 9.13938 -4.57295 578.428 491.473
0.731309 9.64678 -6.27153 570.327 492.332
-0.994946 9.58473 -4.52467 562.958 492.54
3 20 21 23
3 21 22 23
3 0 1 36
3 15 16 45
3 0 17 36
3 16 26 45
3 17 18 37
3 25 26 44
3 17 36 37
3 26 44 45
3 18 19 38
3 24 25 43
3 18 37 38
3 25 43 44
3 19 20 38
3 23 24 43
3 20 21 39
3 22 23 42
3 20 38 39
3 23 42 43
3 21 22 27
3 21 27 39
3 22 27 42
3 27 28 42
3 27 28 39
3 28 42 47
3 28 39 40
3 1 36 41
3 15 45 46
3 1 2 41
3 14 15 46
3 28 29 40
3 28 29 47
3 2 40 41
3 14 46 47
3 2 29 40
3 14 29 47
3 2 3 29
3 13 14 29
3 29 30 31
3 29 30 35
3 3 29 31
3 13 29 35
3 30 32 33
3 30 33 34
3 30 31 32
3 30 34 35
3 3 4 31
3 12 13 35
3 4 5 48
3 11 12 54
3 5 6 48
3 10 11 54
3 6 48 59
3 10 54 55
3 6 7 59
3 9 10 55
3 7 58 59
3 9 55 56
3 8 57 58
3 8 56 57
3 7 8 58
3 8 9 56
3 4 31 48
3 12 35 54
3 31 48 49
3 35 53 54
3 31 49 50
3 35 52 53
3 31 32 50
3 34 35 52
3 32 33 50
3 33 34 52
3 33 50 51
3 33 51 52
3 48 49 60
3 49 60 50
3 50 60 61
3 50 51 61
3 51 52 61
3 61 62 52
3 52 53 62
3 53 54 62
3 54 55 63
3 55 56 63
3 56 63 64
3 56 57 64
3 64 65 57
3 57 58 65
3 58 59 65
3 48 59 65
