ply
format ascii 1.0
element vertex 66
property float x
property float y
property float z
property float u
property float v
element face 91
property list uchar int vertex_indices
end_header
-20.0623 -5.64175 20.8421 484.559 430.24
-19.5916 -0.547011 20.3851 484.551 452.974
-18.7127 4.4964 20.1117 486.408 475.718
-17.312 9.35316 18.1258 490.532 497.12
-15.0656 13.8321 13.4303 498.369 516.039
-11.7171 17.693 7.92249 511.325 532.298
-7.47975 20.7202 3.25632 528.677 545.544
-2.58394 22.7291 -0.771075 549.449 554.774
2.8006 22.764 -4.27303 573.262 555.609
7.36156 21.5828 -0.935081 594.466 553.551
11.1399 18.97 3.35698 612.83 545.191
14.3793 15.7991 8.17824 629.051 534.348
16.6552 11.9467 13.8179 641.304 520.422
17.8433 7.44288 18.5837 648.873 502.789
18.427 2.51108 20.735 653.685 481.912
18.7422 -2.60261 21.1062 657.216 459.371
18.8573 -7.70847 21.6271 659.859 436.848
-15.9121 -15.3685 0.21597 505.356 379.853
-13.8577 -17.0216 -1.47948 515.091 372.585
-11.3172 -17.7746 -2.97006 526.653 369.612
-8.68048 -17.894 -4.355 538.398 369.55
-6.12311 -17.4468 -5.6381 549.564 372.028
3.185 -18.1334 -5.2845 591.582 372.819
6.11294 -19.1511 -4.04531 605.223 369.962
9.1904 -19.5072 -2.6369 619.278 370.188
12.2288 -18.8666 -1.22405 632.752 374.849
14.6904 -17.0226 0.417938 643.171 384.745
-1.69491 -11.8462 -5.11315 567.166 399.006
-1.60075 -8.75652 -7.68794 566.107 411.755
-1.47251 -5.70294 -10.4815 565.197 424.265
-1.29201 -2.66993 -13.2471 564.531 436.715
-3.86664 0.776252 -6.18922 552.194 454.023
-2.48159 1.04395 -7.15592 558.208 455.365
-1.03831 1.03886 -8.11309 564.595 455.517
0.68376 0.742822 -7.20236 572.51 455.262
2.29864 0.198803 -6.18097 580.055 453.905
-11.6857 -10.3169 -1.18426 522.113 403.496
-10.1514 -11.5718 -1.11151 529.506 398.537
-8.12621 -11.6975 -1.00747 538.64 398.826
-6.45587 -10.7757 -0.683031 545.776 403.741
-8.12461 -10.0129 -0.998834 537.961 406.348
-9.97578 -9.77837 -1.13052 529.559 406.602
5.48031 -11.9474 -0.919038 599.717 403.167
7.09264 -13.1135 -0.892891 607.42 398.617
9.16053 -13.1142 -0.732791 616.699 399.504
10.9021 -12.0997 -0.614027 624.099 404.775
9.19808 -11.4099 -0.844391 616.163 407.078
7.28244 -11.3479 -0.993373 607.541 406.53
-5.5391 10.1573 -2.79002 541.164 496.646
-3.86781 8.5935 -4.97912 549.103 489.416
-1.96557 7.2201 -6.64663 558.044 483.347
0.28107 7.19625 -8.26008 567.982 483.46
2.62145 6.70254 -6.57039 578.815 482.896
4.94706 7.59673 -4.92349 589.012 488.502
7.25965 8.63201 -2.90674 599.124 494.888
5.5531 10.1993 -4.11561 590.735 500.696
3.46121 11.2753 -5.34756 580.817 504.15
1.07279 11.841 -6.51495 569.784 505.235
-1.39516 11.962 -5.35503 558.776 505.277
-3.7036 11.4286 -4.22896 548.746 502.448
-1.46942 9.21192 -5.04435 559.592 493.104
0.513914 8.81065 -7.36527 568.443 491.132
2.72081 8.59601 -5.38389 578.589 491.882
2.765 8.93305 -4.69725 578.709 493.692
0.62727 9.33917 -6.3799 568.82 493.948
-1.40834 9.51114 -4.50762 559.789 494.689
3 20 21 23
3 21 22 23
3 0 1 36
3 15 16 45
3 0 17 36
3 16 26 45
3 17 18 37
3 25 26 44
3 17 36 37
3 26 44 45
3 18 19 38
3 24 25 43
3 18 37 38
3 25 43 44
3 19 20 38
3 23 24 43
3 20 21 39
3 22 23 42
3 20 38 39
3 23 42 43
3 21 22 27
3 21 27 39
3 22 27 42
3 27 28 42
3 27 28 39
3 28 42 47
3 28 39 40
3 1 36 41
3 15 45 46
3 1 2 41
3 14 15 46
3 28 29 40
3 28 29 47
3 2 40 41
3 14 46 47
3 2 29 40
3 14 29 47
3 2 3 29
3 13 14 29
3 29 30 31
3 29 30 35
3 3 29 31
3 13 29 35
3 30 32 33
3 30 33 34
3 30 31 32
3 30 34 35
3 3 4 31
3 12 13 35
3 4 5 48
3 11 12 54
3 5 6 48
3 10 11 54
3 6 48 59
3 10 54 55
3 6 7 59
3 9 10 55
3 7 58 59
3 9 55 56
3 8 57 58
3 8 56 57
3 7 8 58
3 8 9 56
3 4 31 48
3 12 35 54
3 31 48 49
3 35 53 54
3 31 49 50
3 35 52 53
3 31 32 50
3 34 35 52
3 32 33 50
3 33 34 52
3 33 50 51
3 33 51 52
3 48 49 60
3 49 60 50
3 50 60 61
3 50 51 61
3 51 52 61
3 61 62 52
3 52 53 62
3 53 54 62
3 54 55 63
3 55 56 63
3 56 63 64
3 56 57 64
3 64 65 57
3 57 58 65
3 58 59 65
3 48 59 65
