ply
format ascii 1.0
element vertex 66
property float x
property float y
property float z
property float u
property float v
element face 91
property list uchar int vertex_indices
end_header
-19.8513 -6.44822 20.9852 486.155 429.871
-19.2911 -1.00312 20.4973 486.978 454.087
-18.3791 4.3878 20.0034 489.397 478.159
-17.0274 9.76589 18.2386 493.639 501.655
-15.005 14.9307 13.3048 500.568 522.786
-11.8277 19.4209 7.68925 512.801 540.889
-7.66891 22.9648 3.12264 529.853 555.578
-2.739 25.2421 -0.861008 550.817 565.128
2.67151 25.5095 -4.56194 574.576 565.986
7.35862 23.7768 -0.80622 596.596 561.485
11.0306 20.3367 3.42242 614.628 549.313
13.9893 16.2439 8.05705 629.704 534.231
16.1537 11.6725 13.6206 641.469 517.258
17.496 6.77949 18.4509 649.552 498.244
18.232 1.81707 20.3476 654.574 477.263
18.5605 -3.13323 20.7579 657.583 455.468
18.6192 -8.09385 21.1666 659.383 433.55
-15.6529 -15.369 0.222223 505.142 380.737
-13.7413 -17.2145 -1.62956 514.052 372.105
-11.1973 -18.1481 -3.01375 525.584 367.96
-8.45775 -18.2511 -4.30249 537.756 367.627
-5.76503 -17.6616 -5.45285 549.528 370.441
3.45123 -18.2236 -5.26298 591.096 370.648
6.18983 -19.1721 -4.12969 603.814 367.766
9.06841 -19.4224 -2.79077 616.976 368.144
11.826 -18.6339 -1.41968 629.287 373.141
13.8959 -16.7061 0.46404 638.232 383.288
-1.29274 -11.5779 -5.06665 567.831 399.062
-1.30479 -8.55787 -7.77162 566.541 411.17
-1.29404 -5.54364 -10.4883 565.355 423.252
-1.23925 -2.55132 -13.0712 564.389 435.317
-3.65144 0.393219 -6.11352 553.526 451.296
-2.26229 0.758567 -7.03745 559.54 452.854
-0.793172 0.857222 -8.0341 565.985 453.207
0.804183 0.521868 -7.03589 573.378 452.669
2.26412 -0.059931 -6.10386 580.221 450.959
-10.7863 -10.383 -1.45871 525.292 403.524
-9.50362 -11.4028 -1.3502 531.369 399.391
-7.79994 -11.6326 -1.05963 539.122 398.997
-6.29038 -11.0181 -0.474083 545.787 402.465
-7.6913 -10.207 -0.874028 539.205 405.485
-9.27905 -10.0077 -1.09111 531.991 405.813
5.20312 -11.975 -0.830157 597.63 401.28
6.64029 -12.6725 -1.02274 604.268 398.478
8.33275 -12.5725 -1.0328 611.835 399.4
9.69166 -11.6748 -0.936599 617.678 403.841
8.22226 -11.198 -0.858699 610.948 405.592
6.6389 -11.2378 -0.926225 603.843 404.93
-4.92742 9.5686 -2.63295 545.473 493.65
-3.60361 7.88889 -5.03957 551.626 485.31
-1.86691 6.46142 -6.68546 559.649 478.599
0.331094 6.50648 -8.10751 569.33 478.705
2.57722 5.97835 -6.45339 579.774 477.823
4.64669 6.93569 -4.83792 588.976 483.502
6.42949 8.24982 -2.62322 596.856 490.995
5.03228 9.68527 -3.81689 590.007 496.401
3.28986 10.7214 -5.14687 581.712 499.858
1.17216 11.3346 -6.63987 571.839 501.238
-1.09215 11.3215 -5.29488 561.841 501.216
-3.18427 10.768 -4.06708 552.764 498.773
-0.876713 8.39164 -4.96436 563.727 488.367
0.616112 8.12618 -7.01681 570.258 486.568
2.27761 7.91998 -5.03687 578.02 487.122
2.37574 8.50452 -4.39417 578.364 490.084
0.802107 9.0387 -6.25395 570.912 491.08
-0.742256 8.97339 -4.4701 564.216 491.252
3 20 21 23
3 21 22 23
3 0 1 36
3 15 16 45
3 0 17 36
3 16 26 45
3 17 18 37
3 25 26 44
3 17 36 37
3 26 44 45
3 18 19 38
3 24 25 43
3 18 37 38
3 25 43 44
3 19 20 38
3 23 24 43
3 20 21 39
3 22 23 42
3 20 38 39
3 23 42 43
3 21 22 27
3 21 27 39
3 22 27 42
3 27 28 42
3 27 28 39
3 28 42 47
3 28 39 40
3 1 36 41
3 15 45 46
3 1 2 41
3 14 15 46
3 28 29 40
3 28 29 47
3 2 40 41
3 14 46 47
3 2 29 40
3 14 29 47
3 2 3 29
3 13 14 29
3 29 30 31
3 29 30 35
3 3 29 31
3 13 29 35
3 30 32 33
3 30 33 34
3 30 31 32
3 30 34 35
3 3 4 31
3 12 13 35
3 4 5 48
3 11 12 54
3 5 6 48
3 10 11 54
3 6 48 59
3 10 54 55
3 6 7 59
3 9 10 55
3 7 58 59
3 9 55 56
3 8 57 58
3 8 56 57
3 7 8 58
3 8 9 56
3 4 31 48
3 12 35 54
3 31 48 49
3 35 53 54
3 31 49 50
3 35 52 53
3 31 32 50
3 34 35 52
3 32 33 50
3 33 34 52
3 33 50 51
3 33 51 52
3 48 49 60
3 49 60 50
3 50 60 61
3 50 51 61
3 51 52 61
3 61 62 52
3 52 53 62
3 53 54 62
3 54 55 63
3 55 56 63
3 56 63 64
3 56 57 64
3 64 65 57
3 57 58 65
3 58 59 65
3 48 59 65
