ply
format ascii 1.0
element vertex 66
property float x
property float y
property float z
property float u
property float v
element face 91
property list uchar int vertex_indices
end_header
-19.5271 -5.85895 20.7096 485.057 429.902
-19.0053 -0.649507 20.2648 485.237 453.642
-18.0837 4.50443 19.9128 487.276 477.326
-16.6503 9.53334 18.1369 491.537 500.081
-14.5098 14.2562 13.3722 498.803 520.538
-11.3927 18.4387 7.86805 510.666 538.634
-7.3913 21.8458 3.21668 526.985 553.896
-2.65882 24.1896 -0.788627 547.157 564.868
2.66734 24.4171 -4.36559 570.962 566.618
7.28554 22.947 -0.81943 593.069 563.192
10.8932 19.7834 3.40247 611.339 551.922
13.8451 16.0456 8.15903 626.915 537.988
15.9461 11.7964 13.7039 638.909 521.699
17.2048 7.12463 18.4699 647.142 502.839
17.905 2.17957 20.3645 652.601 481.369
18.2318 -2.86476 20.7329 656.219 458.69
18.2923 -7.90987 21.1891 658.631 435.937
-15.357 -15.5196 0.16119 505.685 379.439
-13.428 -17.2491 -1.57884 515.003 371.65
-10.9476 -18.1132 -2.99561 526.519 368.15
-8.31544 -18.2636 -4.35232 538.44 367.983
-5.73583 -17.8045 -5.60109 549.882 370.61
3.19424 -18.4735 -5.32669 590.962 371.259
5.95424 -19.3827 -4.11304 604.081 368.712
8.84364 -19.6355 -2.72512 617.539 369.273
11.6469 -18.9094 -1.34908 630.199 374.249
13.8398 -17.0755 0.383488 639.656 384.164
-1.46895 -12.3208 -5.07756 567.161 397.487
-1.40718 -9.3265 -7.65376 565.906 410.114
-1.31759 -6.35421 -10.3494 564.773 422.604
-1.18604 -3.40351 -12.9992 563.846 435.031
-3.53213 0.214714 -6.03559 552.454 453.325
-2.22601 0.463455 -6.99104 558.203 454.601
-0.855454 0.472333 -7.98532 564.341 454.796
0.705265 0.213295 -6.99624 571.689 454.637
2.15107 -0.263224 -6.00124 578.603 453.444
-10.7839 -10.7423 -1.39099 524.411 402.398
-9.49471 -11.7653 -1.18514 530.743 398.342
-7.78608 -11.976 -0.898109 538.665 398.183
-6.3084 -11.3937 -0.527836 545.214 401.573
-7.70383 -10.5975 -0.929199 538.467 404.477
-9.29582 -10.3524 -1.10168 531.078 404.885
5.15762 -12.441 -0.756112 597.97 401.318
6.59348 -13.1935 -0.800201 604.831 398.452
8.33117 -13.109 -0.857663 612.723 399.511
9.75582 -12.2544 -0.905959 618.869 403.952
8.28116 -11.7381 -0.858196 611.929 405.729
6.65116 -11.7624 -0.931795 604.488 404.935
-4.42159 10.604 -2.76622 544.486 501.548
-3.29235 8.78039 -5.01956 550.131 492.806
-1.76915 7.08141 -6.63966 557.598 485.042
0.30855 7.05713 -8.17365 566.915 485.155
2.45756 6.61895 -6.51257 577.102 484.684
4.37994 7.90766 -4.91108 585.534 491.957
6.05386 9.35675 -2.80612 592.824 500.06
4.77305 10.7692 -4.04215 586.248 505.483
3.14887 11.8174 -5.30697 578.253 509.098
1.10351 12.4042 -6.61541 568.519 510.427
-1.04144 12.3969 -5.37385 558.874 510.027
-2.9305 11.7929 -4.21145 550.634 506.982
-0.738223 9.26163 -4.90626 561.607 496.066
0.555741 8.80398 -7.10061 567.448 493.63
2.0445 8.81268 -5.08556 574.477 495.069
2.04026 9.3135 -4.53594 574.315 497.565
0.70509 9.7647 -6.30235 567.826 498.38
-0.580578 9.73475 -4.4903 562.18 498.448
3 20 21 23
3 21 22 23
3 0 1 36
3 15 16 45
3 0 17 36
3 16 26 45
3 17 18 37
3 25 26 44
3 17 36 37
3 26 44 45
3 18 19 38
3 24 25 43
3 18 37 38
3 25 43 44
3 19 20 38
3 23 24 43
3 20 21 39
3 22 23 42
3 20 38 39
3 23 42 43
3 21 22 27
3 21 27 39
3 22 27 42
3 27 28 42
3 27 28 39
3 28 42 47
3 28 39 40
3 1 36 41
3 15 45 46
3 1 2 41
3 14 15 46
3 28 29 40
3 28 29 47
3 2 40 41
3 14 46 47
3 2 29 40
3 14 29 47
3 2 3 29
3 13 14 29
3 29 30 31
3 29 30 35
3 3 29 31
3 13 29 35
3 30 32 33
3 30 33 34
3 30 31 32
3 30 34 35
3 3 4 31
3 12 13 35
3 4 5 48
3 11 12 54
3 5 6 48
3 10 11 54
3 6 48 59
3 10 54 55
3 6 7 59
3 9 10 55
3 7 58 59
3 9 55 56
3 8 57 58
3 8 56 57
3 7 8 58
3 8 9 56
3 4 31 48
3 12 35 54
3 31 48 49
3 35 53 54
3 31 49 50
3 35 52 53
3 31 32 50
3 34 35 52
3 32 33 50
3 33 34 52
3 33 50 51
3 33 51 52
3 48 49 60
3 49 60 50
3 50 60 61
3 50 51 61
3 51 52 61
3 61 62 52
3 52 53 62
3 53 54 62
3 54 55 63
3 55 56 63
3 56 63 64
3 56 57 64
3 64 65 57
3 57 58 65
3 58 59 65
3 48 59 65
