ply
format ascii 1.0
element vertex 66
property float x
property float y
property float z
property float u
property float v
element face 91
property list uchar int vertex_indices
end_header
-20.1645 -5.62607 20.8667 484.523 430.846
-19.6983 -0.532141 20.4248 484.495 453.17
-18.8218 4.50778 20.1437 486.312 475.501
-17.4068 9.36537 18.1386 490.476 496.357
-15.1245 13.8458 13.4001 498.454 514.491
-11.7316 17.6971 7.91214 511.549 529.916
-7.46493 20.7111 3.26271 528.897 542.44
-2.55023 22.7038 -0.777742 549.56 551.05
2.83826 22.7392 -4.30139 573.141 551.518
7.39081 21.5432 -0.937975 593.955 549.795
11.1754 18.9384 3.36866 612.005 542.068
14.426 15.7703 8.18035 627.953 531.917
16.7149 11.9126 13.8075 639.982 518.778
17.9111 7.39984 18.6047 647.393 501.905
18.5001 2.46752 20.7722 652.128 481.595
18.8136 -2.63974 21.1426 655.603 459.484
18.9273 -7.73943 21.6559 658.2 437.401
-16.0107 -15.3289 0.235627 505.519 379.26
-13.9481 -17.0495 -1.48818 515.223 371.631
-11.3607 -17.8302 -2.97291 526.882 368.46
-8.66796 -17.9411 -4.34765 538.742 368.328
-6.05954 -17.4592 -5.61991 549.996 370.819
3.10994 -18.1058 -5.27799 590.805 371.775
6.09605 -19.1647 -4.0468 604.508 368.937
9.23938 -19.5347 -2.64495 618.638 369.275
12.3378 -18.8646 -1.2381 632.148 374.164
14.8208 -16.9433 0.426052 642.449 384.437
-1.68886 -11.6908 -5.10418 567.011 398.138
-1.59994 -8.61186 -7.69157 565.997 410.361
-1.47675 -5.56833 -10.4918 565.136 422.332
-1.30037 -2.54604 -13.2537 564.52 434.25
-3.84779 0.789093 -6.19159 552.353 451.525
-2.47907 1.04035 -7.15589 558.24 452.672
-1.05785 1.02877 -8.12263 564.466 452.684
0.649365 0.743315 -7.20429 572.184 452.577
2.25647 0.220001 -6.17256 579.563 451.445
-11.751 -10.2625 -1.17631 522.207 402.46
-10.17 -11.5869 -1.12557 529.734 397.295
-8.06685 -11.7035 -1.02764 539.082 397.664
-6.34701 -10.6947 -0.661351 546.298 402.96
-8.07371 -9.91165 -0.984725 538.33 405.551
-9.98709 -9.67943 -1.12103 529.771 405.745
5.43098 -11.8457 -0.922352 598.803 402.42
7.08507 -13.0956 -0.915607 606.619 397.589
9.2282 -13.1036 -0.745216 616.105 398.487
11.0195 -12.02 -0.606211 623.592 404.024
9.26451 -11.291 -0.84375 615.526 406.41
7.28913 -11.2239 -0.998599 606.759 405.845
-5.52879 10.1101 -2.79026 541.365 493.54
-3.87218 8.5346 -5.00051 549.186 486.138
-1.97828 7.16415 -6.65672 558.007 480.016
0.260291 7.15451 -8.24783 567.806 480.038
2.59506 6.65196 -6.57893 578.432 479.612
4.91504 7.54974 -4.94347 588.425 485.311
7.22056 8.59998 -2.91707 598.316 491.876
5.51408 10.1543 -4.11599 590.07 497.41
3.42317 11.209 -5.36163 580.324 500.575
1.05558 11.7684 -6.544 569.56 501.488
-1.39492 11.8928 -5.37099 558.753 501.671
-3.70008 11.3753 -4.23513 548.845 499.074
-1.50515 9.18183 -5.05006 559.382 489.889
0.494573 8.79659 -7.35496 568.232 487.8
2.72201 8.5654 -5.39348 578.293 488.674
2.75829 8.83308 -4.70166 578.388 490.22
0.603008 9.22008 -6.39617 568.6 490.196
-1.44615 9.40978 -4.5132 559.584 491.189
3 20 21 23
3 21 22 23
3 0 1 36
3 15 16 45
3 0 17 36
3 16 26 45
3 17 18 37
3 25 26 44
3 17 36 37
3 26 44 45
3 18 19 38
3 24 25 43
3 18 37 38
3 25 43 44
3 19 20 38
3 23 24 43
3 20 21 39
3 22 23 42
3 20 38 39
3 23 42 43
3 21 22 27
3 21 27 39
3 22 27 42
3 27 28 42
3 27 28 39
3 28 42 47
3 28 39 40
3 1 36 41
3 15 45 46
3 1 2 41
3 14 15 46
3 28 29 40
3 28 29 47
3 2 40 41
3 14 46 47
3 2 29 40
3 14 29 47
3 2 3 29
3 13 14 29
3 29 30 31
3 29 30 35
3 3 29 31
3 13 29 35
3 30 32 33
3 30 33 34
3 30 31 32
3 30 34 35
3 3 4 31
3 12 13 35
3 4 5 48
3 11 12 54
3 5 6 48
3 10 11 54
3 6 48 59
3 10 54 55
3 6 7 59
3 9 10 55
3 7 58 59
3 9 55 56
3 8 57 58
3 8 56 57
3 7 8 58
3 8 9 56
3 4 31 48
3 12 35 54
3 31 48 49
3 35 53 54
3 31 49 50
3 35 52 53
3 31 32 50
3 34 35 52
3 32 33 50
3 33 34 52
3 33 50 51
3 33 51 52
3 48 49 60
3 49 60 50
3 50 60 61
3 50 51 61
3 51 52 61
3 61 62 52
3 52 53 62
3 53 54 62
3 54 55 63
3 55 56 63
3 56 63 64
3 56 57 64
3 64 65 57
3 57 58 65
3 58 59 65
3 48 59 65
