ply
format ascii 1.0
element vertex 66
property float x
property float y
property float z
property float u
property float v
element face 91
property list uchar int vertex_indices
end_header
-19.8944 -6.15039 20.8354 487.666 430.772
-19.4317 -0.852716 20.4837 488.433 453.143
-18.5629 4.3801 20.0624 490.942 475.277
-17.0769 9.51894 18.1846 495.903 496.278
-14.827 14.3685 13.3335 503.766 514.449
-11.5596 18.5671 7.79049 516.027 529.652
-7.42789 21.9052 3.19243 532.316 541.929
-2.64911 24.2199 -0.782573 551.691 550.357
2.66419 24.5134 -4.51558 573.834 550.455
7.33377 22.9644 -0.710477 594.722 547.044
11.0407 19.7594 3.43139 611.901 536.613
14.0876 15.9424 8.11133 626.466 523.77
16.2913 11.5708 13.6451 637.667 508.909
17.6419 6.79161 18.4745 645.202 491.735
18.3554 1.84724 20.3773 649.62 472.01
18.5687 -3.12431 20.7316 651.676 451.158
18.483 -8.09474 21.1161 652.457 430.27
-15.6307 -15.5257 0.232754 504.983 379.684
-13.7917 -17.434 -1.56146 513.015 370.891
-11.2596 -18.3794 -2.97687 523.858 366.545
-8.53496 -18.4615 -4.30789 535.349 365.951
-5.86841 -17.8782 -5.5149 546.463 368.243
3.63516 -18.5398 -5.30088 587.331 367.439
6.38136 -19.4158 -4.13789 599.452 364.949
9.24479 -19.6148 -2.7977 611.951 365.46
11.9654 -18.7189 -1.42214 623.603 370.611
13.9159 -16.6456 0.464316 631.774 380.908
-1.25362 -11.8696 -5.07249 564.967 394.92
-1.20612 -9.22393 -7.65002 564.215 404.641
-1.13716 -6.58912 -10.307 563.545 414.273
-1.03336 -3.98254 -12.9653 563.03 423.792
-3.38216 -0.131455 -6.0076 553.14 443.772
-2.04679 0.0151434 -6.94579 558.689 444.106
-0.681637 -0.0070613 -7.99177 564.387 443.665
0.805954 -0.204784 -6.92871 570.954 443.746
2.21527 -0.554197 -5.93231 577.21 443.129
-10.7272 -10.2863 -1.44135 524.584 401.906
-9.43138 -11.3623 -1.26581 530.395 397.699
-7.67034 -11.585 -0.957007 538.029 397.284
-6.14579 -10.9514 -0.43554 544.493 400.582
-7.54859 -9.98004 -0.898119 538.206 404.155
-9.19532 -9.74877 -1.09359 531.076 404.696
4.77884 -11.7839 -0.665241 591.419 399.072
6.24941 -12.5365 -0.897594 597.848 396.031
8.01906 -12.4543 -1.02639 605.388 396.655
9.41414 -11.5058 -1.07274 611.146 400.929
7.92769 -10.8662 -0.922369 604.663 403.439
6.26899 -10.9173 -0.935703 597.57 402.886
-4.49936 10.4006 -2.74754 546.518 490.176
-3.38596 8.51545 -5.04483 551.365 481.042
-1.85323 6.71653 -6.66232 558.087 472.756
0.307044 6.73037 -8.10813 567.123 472.39
2.51353 6.28406 -6.52508 576.899 471.864
4.41038 7.69985 -4.92692 584.943 479.19
5.98632 9.28206 -2.75506 591.659 487.497
4.76192 10.7177 -3.98559 585.922 492.624
3.14803 11.7581 -5.39706 578.578 495.89
1.09762 12.3483 -6.7889 569.467 497.17
-1.08031 12.277 -5.49886 560.345 497.196
-2.98104 11.62 -4.23221 552.535 494.778
-0.882981 8.94578 -4.94236 562.002 483.423
0.556576 8.52331 -7.03665 567.954 480.681
2.15724 8.54487 -5.00667 575.098 482.285
2.19585 9.25838 -4.47652 575.184 485.633
0.739953 9.75429 -6.36174 568.567 486.34
-0.700758 9.63534 -4.52961 562.691 486.629
3 20 21 23
3 21 22 23
3 0 1 36
3 15 16 45
3 0 17 36
3 16 26 45
3 17 18 37
3 25 26 44
3 17 36 37
3 26 44 45
3 18 19 38
3 24 25 43
3 18 37 38
3 25 43 44
3 19 20 38
3 23 24 43
3 20 21 39
3 22 23 42
3 20 38 39
3 23 42 43
3 21 22 27
3 21 27 39
3 22 27 42
3 27 28 42
3 27 28 39
3 28 42 47
3 28 39 40
3 1 36 41
3 15 45 46
3 1 2 41
3 14 15 46
3 28 29 40
3 28 29 47
3 2 40 41
3 14 46 47
3 2 29 40
3 14 29 47
3 2 3 29
3 13 14 29
3 29 30 31
3 29 30 35
3 3 29 31
3 13 29 35
3 30 32 33
3 30 33 34
3 30 31 32
3 30 34 35
3 3 4 31
3 12 13 35
3 4 5 48
3 11 12 54
3 5 6 48
3 10 11 54
3 6 48 59
3 10 54 55
3 6 7 59
3 9 10 55
3 7 58 59
3 9 55 56
3 8 57 58
3 8 56 57
3 7 8 58
3 8 9 56
3 4 31 48
3 12 35 54
3 31 48 49
3 35 53 54
3 31 49 50
3 35 52 53
3 31 32 50
3 34 35 52
3 32 33 50
3 33 34 52
3 33 50 51
3 33 51 52
3 48 49 60
3 49 60 50
3 50 60 61
3 50 51 61
3 51 52 61
3 61 62 52
3 52 53 62
3 53 54 62
3 54 55 63
3 55 56 63
3 56 63 64
3 56 57 64
3 64 65 57
3 57 58 65
3 58 59 65
3 48 59 65
