ply
format ascii 1.0
element vertex 66
property float x
property float y
property float z
property float u
property float v
element face 91
property list uchar int vertex_indices
end_header
-20.1589 -5.69992 20.909 484.312 429.806
-19.6963 -0.576996 20.4661 484.168 452.333
-18.824 4.49383 20.1849 485.869 474.878
-17.4309 9.38263 18.1681 489.842 496.002
-15.1757 13.8894 13.4237 497.617 514.489
-11.7842 17.7495 7.92174 510.646 530.235
-7.49643 20.7479 3.2674 528.061 542.966
-2.54721 22.6873 -0.771509 548.89 551.604
2.85716 22.6876 -4.29671 572.585 552.142
7.40244 21.4856 -0.949716 593.427 550.338
11.185 18.8905 3.36805 611.543 542.553
14.429 15.7287 8.18896 627.546 532.293
16.712 11.8815 13.8303 639.638 519.015
17.9102 7.38771 18.608 647.145 502.027
18.4988 2.48206 20.8078 651.964 481.735
18.8161 -2.60239 21.1711 655.538 459.661
18.9309 -7.67925 21.6748 658.223 437.605
-16.0857 -15.2641 0.230263 505.054 379.45
-14.0126 -17.003 -1.49007 514.854 371.826
-11.4057 -17.7949 -2.97661 526.633 368.702
-8.69096 -17.9122 -4.35251 538.61 368.645
-6.05942 -17.4348 -5.63185 549.975 371.218
3.08925 -18.0446 -5.29474 590.749 372.474
6.07698 -19.1114 -4.04582 604.505 369.613
9.22731 -19.4931 -2.63309 618.701 369.912
12.34 -18.8506 -1.21932 632.298 374.705
14.8472 -16.9525 0.424971 642.7 384.886
-1.68711 -11.7485 -5.10813 566.961 398.304
-1.61123 -8.62994 -7.69748 565.813 410.817
-1.50057 -5.54838 -10.5117 564.821 423.073
-1.33484 -2.48902 -13.2952 564.085 435.269
-3.95651 0.827446 -6.2227 551.533 452.184
-2.54306 1.09723 -7.18034 557.614 453.495
-1.07407 1.09086 -8.13612 564.058 453.614
0.6829 0.794783 -7.23301 572.018 453.471
2.33626 0.24782 -6.20467 579.633 452.24
-11.918 -10.1846 -1.16379 521.267 402.859
-10.2606 -11.556 -1.1331 529.185 397.521
-8.06549 -11.6695 -1.05233 538.954 397.967
-6.26751 -10.6105 -0.677503 546.49 403.551
-8.08191 -9.83377 -0.996779 538.11 406.067
-10.0771 -9.59306 -1.12833 529.168 406.24
5.43351 -11.7618 -0.966065 598.75 403.177
7.15501 -13.0622 -0.937 606.921 398.178
9.38459 -13.0836 -0.732673 616.812 399.103
11.253 -11.96 -0.563342 624.619 404.901
9.42501 -11.2144 -0.841548 616.195 407.294
7.37054 -11.1481 -1.01844 607.062 406.653
-5.61782 10.0619 -2.77864 540.501 493.8
-3.93956 8.4678 -4.98954 548.461 486.413
-2.00779 7.10986 -6.65812 557.478 480.432
0.256645 7.09708 -8.25748 567.404 480.542
2.61637 6.59119 -6.56741 578.171 480.102
4.97237 7.46692 -4.92292 588.335 485.72
7.30311 8.53379 -2.91764 598.33 492.343
5.57072 10.0842 -4.11736 589.93 497.875
3.45256 11.1306 -5.36245 580.033 501.007
1.06827 11.6834 -6.5458 569.17 501.887
-1.40519 11.8242 -5.37208 558.237 502.049
-3.74915 11.3242 -4.23029 548.146 499.429
-1.59974 9.13312 -5.05495 558.533 490.277
0.499047 8.75111 -7.36882 567.836 488.35
2.82787 8.49639 -5.39974 578.378 489.137
2.86876 8.74013 -4.70806 578.5 490.559
0.610845 9.12633 -6.41169 568.233 490.507
-1.53984 9.33861 -4.51998 558.745 491.463
3 20 21 23
3 21 22 23
3 0 1 36
3 15 16 45
3 0 17 36
3 16 26 45
3 17 18 37
3 25 26 44
3 17 36 37
3 26 44 45
3 18 19 38
3 24 25 43
3 18 37 38
3 25 43 44
3 19 20 38
3 23 24 43
3 20 21 39
3 22 23 42
3 20 38 39
3 23 42 43
3 21 22 27
3 21 27 39
3 22 27 42
3 27 28 42
3 27 28 39
3 28 42 47
3 28 39 40
3 1 36 41
3 15 45 46
3 1 2 41
3 14 15 46
3 28 29 40
3 28 29 47
3 2 40 41
3 14 46 47
3 2 29 40
3 14 29 47
3 2 3 29
3 13 14 29
3 29 30 31
3 29 30 35
3 3 29 31
3 13 29 35
3 30 32 33
3 30 33 34
3 30 31 32
3 30 34 35
3 3 4 31
3 12 13 35
3 4 5 48
3 11 12 54
3 5 6 48
3 10 11 54
3 6 48 59
3 10 54 55
3 6 7 59
3 9 10 55
3 7 58 59
3 9 55 56
3 8 57 58
3 8 56 57
3 7 8 58
3 8 9 56
3 4 31 48
3 12 35 54
3 31 48 49
3 35 53 54
3 31 49 50
3 35 52 53
3 31 32 50
3 34 35 52
3 32 33 50
3 33 34 52
3 33 50 51
3 33 51 52
3 48 49 60
3 49 60 50
3 50 60 61
3 50 51 61
3 51 52 61
3 61 62 52
3 52 53 62
3 53 54 62
3 54 55 63
3 55 56 63
3 56 63 64
3 56 57 64
3 64 65 57
3 57 58 65
3 58 59 65
3 48 59 65
