ply
format ascii 1.0
element vertex 66
property float x
property float y
property float z
property float u
property float v
element face 91
property list uchar int vertex_indices
end_header
-20.01 -5.96947 20.69 483.175 434.259
-19.5332 -0.782206 20.284 484.028 457.176
-18.6016 4.33193 19.9013 486.922 479.881
-16.998 9.32799 18.1266 492.69 501.654
-14.5783 14.0129 13.2246 501.841 520.974
-11.2366 18.1638 7.7691 515.162 537.913
-7.13145 21.6003 3.19839 532.134 552.219
-2.36293 24.0527 -0.787532 552.347 562.551
3.00649 24.3701 -4.41968 575.772 563.708
7.57541 22.8807 -0.781259 596.803 559.611
11.1938 19.793 3.39424 614.041 548.438
14.1537 16.0966 8.07423 628.547 534.624
16.2825 11.8678 13.5774 639.568 518.595
17.5521 7.17688 18.5547 646.825 500.114
18.2514 2.20723 20.345 651.29 478.985
18.5409 -2.82107 20.7229 653.803 456.935
18.5725 -7.83913 21.2366 655.181 434.926
-15.5384 -16.1043 0.325247 503.379 382.18
-13.6555 -17.9162 -1.51252 511.99 373.841
-11.1564 -18.793 -2.93495 523.163 369.95
-8.49119 -18.8608 -4.2547 534.892 369.72
-5.91251 -18.2352 -5.45274 546.085 372.591
3.32173 -18.9052 -5.12016 587.326 371.847
6.20708 -19.8585 -4.01423 600.49 368.723
9.21895 -20.0566 -2.72773 614.056 369.045
12.0738 -19.056 -1.41067 626.644 374.653
14.1207 -16.8328 0.538229 635.415 385.747
-1.54598 -11.6952 -5.02111 563.995 402.716
-1.44415 -8.73598 -7.68692 563.477 414.77
-1.31514 -5.78665 -10.38 563.081 426.775
-1.14067 -2.85867 -12.9709 562.901 438.737
-3.48183 0.538654 -6.14094 552.385 456.006
-2.20452 0.765166 -7.01407 557.921 456.946
-0.877272 0.764242 -7.96039 563.725 456.861
0.663916 0.510427 -7.00173 570.733 456.472
2.08763 0.0531167 -6.06063 577.266 455.148
-10.6414 -10.563 -1.39978 523.663 407.133
-9.3686 -11.7233 -1.24395 529.611 402.344
-7.59243 -11.8728 -0.960711 537.571 402.198
-6.13253 -11.0472 -0.414881 543.921 406.405
-7.52416 -10.1104 -0.884156 537.466 410.05
-9.14868 -9.92084 -1.087 530.179 410.44
4.64887 -11.9063 -0.639031 592.027 404.948
6.07077 -12.8771 -0.901502 598.55 400.865
7.87329 -12.8175 -0.986286 606.54 401.502
9.29026 -11.8052 -0.979798 612.601 406.308
7.81901 -11.0903 -0.886877 605.901 409.179
6.16035 -11.079 -0.91414 598.522 408.843
-4.16627 10.2961 -2.68475 547.388 500.456
-3.10303 8.60612 -5.08173 552.271 492.246
-1.68304 7.01365 -6.69361 558.795 484.865
0.279345 7.05221 -8.18468 567.358 484.879
2.32833 6.57084 -6.58555 576.742 483.855
4.17198 7.76492 -5.00679 584.816 490.197
5.82353 9.07529 -2.75121 592.077 497.282
4.63761 10.527 -3.96065 586.34 502.956
3.08564 11.6013 -5.33852 579.047 506.807
1.12213 12.2193 -6.69373 570.035 508.554
-0.959552 12.1748 -5.41749 560.922 508.4
-2.76478 11.5097 -4.21911 553.176 505.53
-0.543794 9.15194 -4.90134 563.536 495.315
0.53218 8.76759 -7.07909 568.189 492.979
1.82575 8.72765 -5.09386 574.15 493.894
1.86632 9.17513 -4.53014 574.282 496.112
0.693051 9.61907 -6.31078 568.781 497.095
-0.402448 9.554 -4.47852 564.113 497.298
3 20 21 23
3 21 22 23
3 0 1 36
3 15 16 45
3 0 17 36
3 16 26 45
3 17 18 37
3 25 26 44
3 17 36 37
3 26 44 45
3 18 19 38
3 24 25 43
3 18 37 38
3 25 43 44
3 19 20 38
3 23 24 43
3 20 21 39
3 22 23 42
3 20 38 39
3 23 42 43
3 21 22 27
3 21 27 39
3 22 27 42
3 27 28 42
3 27 28 39
3 28 42 47
3 28 39 40
3 1 36 41
3 15 45 46
3 1 2 41
3 14 15 46
3 28 29 40
3 28 29 47
3 2 40 41
3 14 46 47
3 2 29 40
3 14 29 47
3 2 3 29
3 13 14 29
3 29 30 31
3 29 30 35
3 3 29 31
3 13 29 35
3 30 32 33
3 30 33 34
3 30 31 32
3 30 34 35
3 3 4 31
3 12 13 35
3 4 5 48
3 11 12 54
3 5 6 48
3 10 11 54
3 6 48 59
3 10 54 55
3 6 7 59
3 9 10 55
3 7 58 59
3 9 55 56
3 8 57 58
3 8 56 57
3 7 8 58
3 8 9 56
3 4 31 48
3 12 35 54
3 31 48 49
3 35 53 54
3 31 49 50
3 35 52 53
3 31 32 50
3 34 35 52
3 32 33 50
3 33 34 52
3 33 50 51
3 33 51 52
3 48 49 60
3 49 60 50
3 50 60 61
3 50 51 61
3 51 52 61
3 61 62 52
3 52 53 62
3 53 54 62
3 54 55 63
3 55 56 63
3 56 63 64
3 56 57 64
3 64 65 57
3 57 58 65
3 58 59 65
3 48 59 65
