ply
format ascii 1.0
element vertex 66
property float x
property float y
property float z
property float u
property float v
element face 91
property list uchar int vertex_indices
end_header
-19.8244 -5.96673 20.8313 490.409 427.764
-19.3783 -0.806424 20.4141 490.881 449.542
-18.5463 4.29824 20.0294 493.007 471.195
-17.1242 9.31495 18.1584 497.473 492.094
-14.9468 14.0655 13.3589 504.847 511.01
-11.7498 18.1954 7.82699 516.617 527.3
-7.68074 21.4749 3.19129 532.422 540.537
-2.98381 23.7934 -0.795781 551.225 550.103
2.24284 24.1657 -4.4992 572.825 551.678
6.9525 22.7665 -0.77388 593.63 548.292
10.7452 19.6981 3.41093 611.046 537.781
13.9539 16.0408 8.08267 626.203 524.807
16.361 11.8017 13.5848 638.219 509.467
17.8207 7.05381 18.4878 646.279 491.522
18.5647 2.06568 20.4494 651 471.326
18.8107 -2.96803 20.8614 653.429 450.257
18.7742 -8.00669 21.2235 654.655 429.077
-15.6826 -15.6188 0.269092 507.965 380.652
-13.8094 -17.4953 -1.53663 516.179 372.549
-11.2748 -18.4253 -2.96116 526.995 368.75
-8.55434 -18.5307 -4.27946 538.393 368.523
-5.89662 -17.9614 -5.46913 549.362 371.179
3.23988 -18.6787 -5.21906 588.322 370.555
6.10747 -19.6378 -4.08705 600.876 367.634
9.11011 -19.8663 -2.77866 613.831 367.898
11.9752 -18.9545 -1.39933 625.909 372.973
14.0644 -16.8239 0.517056 634.441 383.196
-1.372 -11.7152 -5.0804 566.939 398.871
-1.27684 -8.92965 -7.66691 566.281 409.745
-1.16058 -6.15936 -10.3618 565.704 420.521
-1.00877 -3.41564 -13.034 565.287 431.201
-3.31444 0.193667 -5.99251 555.432 448.395
-1.98733 0.325845 -6.98441 560.9 448.935
-0.634025 0.284064 -8.05074 566.516 448.72
0.852792 0.0756991 -6.99028 573.008 448.596
2.26105 -0.299784 -6.07707 579.192 447.693
-10.7578 -10.2279 -1.36149 527.213 404.107
-9.48413 -11.4412 -1.2297 532.952 399.349
-7.67684 -11.6346 -0.984409 540.696 399.078
-6.15855 -10.821 -0.497576 546.979 403.077
-7.56425 -9.83738 -0.936087 540.703 406.721
-9.21684 -9.62327 -1.10668 533.618 407.146
4.55463 -11.7148 -0.6103 592.625 401.977
5.97792 -12.7161 -0.971733 598.88 397.976
7.79958 -12.7128 -1.01854 606.597 398.436
9.24747 -11.696 -0.961842 612.474 403.122
7.77476 -10.9248 -0.874939 606.036 406.04
6.09161 -10.9126 -0.85964 598.898 405.669
-4.83781 10.2936 -2.77385 546.697 491.856
-3.4532 8.56388 -5.06005 552.741 484.077
-1.75423 6.91075 -6.67545 560.181 476.942
0.487015 6.91618 -8.15556 569.498 477.004
2.77851 6.42523 -6.54061 579.545 476.088
4.84582 7.62036 -4.94612 588.193 482.236
6.70689 8.93751 -2.7149 596.013 489.075
5.31782 10.5252 -4.04195 589.537 494.959
3.49029 11.6696 -5.37179 581.319 498.857
1.23702 12.2874 -6.71948 571.433 500.414
-1.08863 12.2487 -5.46474 561.739 500.109
-3.17707 11.5921 -4.22282 553.213 497.248
-0.935359 9.05272 -4.97612 563.297 486.813
0.734209 8.65287 -7.08572 570.219 484.791
2.55169 8.57109 -5.11378 578.193 485.612
2.61022 9.22353 -4.5496 578.338 488.587
0.882159 9.72771 -6.31689 570.657 489.647
-0.808697 9.69078 -4.51697 563.722 489.706
3 20 21 23
3 21 22 23
3 0 1 36
3 15 16 45
3 0 17 36
3 16 26 45
3 17 18 37
3 25 26 44
3 17 36 37
3 26 44 45
3 18 19 38
3 24 25 43
3 18 37 38
3 25 43 44
3 19 20 38
3 23 24 43
3 20 21 39
3 22 23 42
3 20 38 39
3 23 42 43
3 21 22 27
3 21 27 39
3 22 27 42
3 27 28 42
3 27 28 39
3 28 42 47
3 28 39 40
3 1 36 41
3 15 45 46
3 1 2 41
3 14 15 46
3 28 29 40
3 28 29 47
3 2 40 41
3 14 46 47
3 2 29 40
3 14 29 47
3 2 3 29
3 13 14 29
3 29 30 31
3 29 30 35
3 3 29 31
3 13 29 35
3 30 32 33
3 30 33 34
3 30 31 32
3 30 34 35
3 3 4 31
3 12 13 35
3 4 5 48
3 11 12 54
3 5 6 48
3 10 11 54
3 6 48 59
3 10 54 55
3 6 7 59
3 9 10 55
3 7 58 59
3 9 55 56
3 8 57 58
3 8 56 57
3 7 8 58
3 8 9 56
3 4 31 48
3 12 35 54
3 31 48 49
3 35 53 54
3 31 49 50
3 35 52 53
3 31 32 50
3 34 35 52
3 32 33 50
3 33 34 52
3 33 50 51
3 33 51 52
3 48 49 60
3 49 60 50
3 50 60 61
3 50 51 61
3 51 52 61
3 61 62 52
3 52 53 62
3 53 54 62
3 54 55 63
3 55 56 63
3 56 63 64
3 56 57 64
3 64 65 57
3 57 58 65
3 58 59 65
3 48 59 65
