ply
format ascii 1.0
element vertex 66
property float x
property float y
property float z
property float u
property float v
element face 91
property list uchar int vertex_indices
end_header
-19.8188 -5.83829 20.8081 484.928 431.89
-19.2472 -0.604392 20.3148 485.615 455.122
-18.2813 4.56882 19.9075 488.096 478.254
-16.8082 9.66268 18.1674 492.686 500.581
-14.6466 14.485 13.2572 500.004 520.455
-11.5196 18.7444 7.73205 511.743 537.858
-7.53336 22.2166 3.14962 527.723 552.479
-2.8096 24.5786 -0.850157 547.46 562.675
2.47165 24.9123 -4.4856 570.435 564.204
7.16488 23.3284 -0.780102 592.461 560.417
10.8276 20.0177 3.41874 610.544 548.842
13.7884 16.0692 8.07348 625.774 534.412
15.9571 11.6444 13.5918 637.75 518.006
17.3472 6.86069 18.452 646.278 499.443
18.1567 1.88883 20.299 651.859 478.456
18.5347 -3.12852 20.6765 655.324 456.444
18.6032 -8.15242 21.1252 657.419 434.334
-15.552 -15.618 0.233296 504.496 380.258
-13.6634 -17.4376 -1.57045 513.308 371.949
-11.1489 -18.3186 -2.94269 524.654 368.219
-8.4625 -18.3859 -4.26979 536.495 368.184
-5.83723 -17.7983 -5.47793 547.854 371.097
3.34827 -18.3983 -5.28249 589.124 371.529
6.09814 -19.3982 -4.09778 601.917 368.533
8.99533 -19.7093 -2.72934 615.157 368.734
11.7969 -18.9631 -1.37492 627.604 373.598
13.9237 -17.0445 0.426206 636.697 383.661
-1.30224 -11.6335 -5.01681 566.06 400.21
-1.26335 -8.72633 -7.70876 564.861 411.902
-1.2024 -5.82684 -10.4088 563.762 423.563
-1.10343 -2.94521 -12.9619 562.86 435.226
-3.42104 0.404347 -6.06582 552.312 452.559
-2.11028 0.736807 -7.00491 557.923 454.031
-0.719725 0.807433 -7.9826 563.975 454.348
0.818802 0.504405 -6.98173 571.092 453.968
2.21742 -0.0395324 -6.02748 577.659 452.45
-10.9518 -10.6266 -1.40693 523.105 403.2
-9.68793 -11.7075 -1.2279 529.147 398.891
-7.95958 -11.9329 -0.926956 536.988 398.594
-6.48846 -11.2646 -0.492631 543.391 402.25
-7.86341 -10.3553 -0.917897 536.877 405.645
-9.46803 -10.1414 -1.0792 529.612 405.996
5.36622 -12.2674 -0.748614 596.661 401.556
6.76912 -13.0618 -0.862118 603.186 398.43
8.50719 -12.9651 -0.933526 610.908 399.396
9.88358 -12.0304 -0.955367 616.733 403.993
8.44192 -11.4366 -0.860122 610.101 406.206
6.82415 -11.4602 -0.937097 602.871 405.535
-3.89885 10.2303 -2.74067 547.262 497.638
-2.95029 8.44081 -5.08601 551.789 488.904
-1.57814 6.81627 -6.69281 558.254 481.384
0.338741 6.85804 -8.19681 566.595 481.501
2.32113 6.40373 -6.50678 575.842 480.914
4.05383 7.65659 -4.91874 583.373 487.789
5.48297 9.13293 -2.72049 589.555 495.842
4.33259 10.3857 -3.92499 583.818 500.477
2.89825 11.319 -5.23273 576.908 503.551
1.07965 11.8802 -6.69495 568.388 504.772
-0.83527 11.829 -5.36494 560.035 504.534
-2.53292 11.2957 -4.13601 552.804 502.176
-0.293901 8.90392 -4.91301 563.521 491.914
0.582551 8.57649 -6.99838 567.26 489.778
1.63632 8.55687 -5.0072 572.251 490.959
1.61685 8.91508 -4.44222 572.119 492.808
0.718251 9.34209 -6.20805 567.713 493.593
-0.138396 9.24356 -4.47971 564.159 493.676
3 20 21 23
3 21 22 23
3 0 1 36
3 15 16 45
3 0 17 36
3 16 26 45
3 17 18 37
3 25 26 44
3 17 36 37
3 26 44 45
3 18 19 38
3 24 25 43
3 18 37 38
3 25 43 44
3 19 20 38
3 23 24 43
3 20 21 39
3 22 23 42
3 20 38 39
3 23 42 43
3 21 22 27
3 21 27 39
3 22 27 42
3 27 28 42
3 27 28 39
3 28 42 47
3 28 39 40
3 1 36 41
3 15 45 46
3 1 2 41
3 14 15 46
3 28 29 40
3 28 29 47
3 2 40 41
3 14 46 47
3 2 29 40
3 14 29 47
3 2 3 29
3 13 14 29
3 29 30 31
3 29 30 35
3 3 29 31
3 13 29 35
3 30 32 33
3 30 33 34
3 30 31 32
3 30 34 35
3 3 4 31
3 12 13 35
3 4 5 48
3 11 12 54
3 5 6 48
3 10 11 54
3 6 48 59
3 10 54 55
3 6 7 59
3 9 10 55
3 7 58 59
3 9 55 56
3 8 57 58
3 8 56 57
3 7 8 58
3 8 9 56
3 4 31 48
3 12 35 54
3 31 48 49
3 35 53 54
3 31 49 50
3 35 52 53
3 31 32 50
3 34 35 52
3 32 33 50
3 33 34 52
3 33 50 51
3 33 51 52
3 48 49 60
3 49 60 50
3 50 60 61
3 50 51 61
3 51 52 61
3 61 62 52
3 52 53 62
3 53 54 62
3 54 55 63
3 55 56 63
3 56 63 64
3 56 57 64
3 64 65 57
3 57 58 65
3 58 59 65
3 48 59 65
