ply
format ascii 1.0
element vertex 66
property float x
property float y
property float z
property float u
property float v
element face 91
property list uchar int vertex_indices
end_header
-20.0274 -5.54182 20.8288 484.522 431.506
-19.53 -0.487995 20.3757 484.695 454.058
-18.628 4.51109 20.0968 486.716 476.599
-17.2002 9.34196 18.1006 491.028 497.85
-14.9257 13.828 13.3933 499.061 516.714
-11.5819 17.7169 7.90661 512.065 532.992
-7.38433 20.7959 3.24316 529.284 546.347
-2.53392 22.8662 -0.787056 549.883 555.731
2.81212 22.9523 -4.29531 573.537 556.679
7.3361 21.7125 -0.944539 594.574 554.369
11.0678 19.0313 3.34484 612.709 545.725
14.2628 15.797 8.17008 628.701 534.635
16.5182 11.8933 13.7954 640.812 520.538
17.7168 7.35878 18.5645 648.371 502.841
18.3239 2.43334 20.7211 653.231 482.033
18.6608 -2.65335 21.0936 656.805 459.625
18.7959 -7.73568 21.6184 659.484 437.224
-15.8844 -15.3449 0.229751 505.403 380.426
-13.8597 -17.0376 -1.48967 515.021 372.916
-11.3163 -17.8201 -2.97086 526.619 369.774
-8.66203 -17.9439 -4.34956 538.458 369.659
-6.08452 -17.4838 -5.62071 549.728 372.167
3.20364 -18.181 -5.28426 591.667 372.83
6.13334 -19.2154 -4.05256 605.31 369.894
9.21335 -19.5735 -2.64282 619.369 370.111
12.2461 -18.9183 -1.23217 632.811 374.832
14.6814 -17.0537 0.423523 643.111 384.824
-1.65441 -11.6433 -5.09579 567.291 400.191
-1.562 -8.58694 -7.68924 566.28 412.741
-1.43587 -5.56403 -10.4806 565.418 425.068
-1.25964 -2.56215 -13.2192 564.793 437.344
-3.80184 0.697685 -6.16273 552.646 453.965
-2.44507 0.959759 -7.13691 558.546 455.241
-1.03301 0.962316 -8.11203 564.799 455.381
0.652917 0.66722 -7.18885 572.546 455.124
2.23883 0.138583 -6.14422 579.948 453.838
-11.6782 -10.3555 -1.18183 522.151 403.723
-10.1643 -11.6247 -1.10696 529.45 398.683
-8.14739 -11.7605 -1.00221 538.554 398.91
-6.49192 -10.8354 -0.667731 545.63 403.83
-8.14189 -10.0566 -0.977502 537.899 406.527
-9.9813 -9.82119 -1.10981 529.549 406.802
5.56168 -12.0221 -0.910094 600.116 403.138
7.15949 -13.1893 -0.882048 607.747 398.565
9.22172 -13.1782 -0.730415 616.998 399.486
10.9424 -12.1423 -0.629529 624.304 404.825
9.2501 -11.4603 -0.836909 616.43 407.118
7.34683 -11.4011 -0.985775 607.863 406.574
-5.42799 10.1747 -2.79379 541.829 497.088
-3.83682 8.56887 -4.99725 549.432 489.586
-1.97688 7.16428 -6.63875 558.202 483.331
0.254694 7.15232 -8.24175 568.085 483.453
2.57571 6.6565 -6.57668 578.817 482.87
4.85591 7.59961 -4.95033 588.788 488.676
7.08255 8.69787 -2.91696 598.488 495.331
5.42394 10.2677 -4.1214 590.332 501.166
3.38221 11.3534 -5.34797 580.65 504.68
1.03784 11.9368 -6.53601 569.815 505.852
-1.39063 12.0248 -5.34642 558.987 505.813
-3.64792 11.4641 -4.22866 549.181 502.914
-1.44868 9.16708 -5.02997 559.895 493.174
0.480384 8.77629 -7.35703 568.516 491.173
2.62726 8.57027 -5.36932 578.377 491.955
2.66192 8.98749 -4.68342 578.419 494.129
0.5971 9.42224 -6.35526 568.859 494.536
-1.37648 9.54621 -4.49538 560.109 495.127
3 20 21 23
3 21 22 23
3 0 1 36
3 15 16 45
3 0 17 36
3 16 26 45
3 17 18 37
3 25 26 44
3 17 36 37
3 26 44 45
3 18 19 38
3 24 25 43
3 18 37 38
3 25 43 44
3 19 20 38
3 23 24 43
3 20 21 39
3 22 23 42
3 20 38 39
3 23 42 43
3 21 22 27
3 21 27 39
3 22 27 42
3 27 28 42
3 27 28 39
3 28 42 47
3 28 39 40
3 1 36 41
3 15 45 46
3 1 2 41
3 14 15 46
3 28 29 40
3 28 29 47
3 2 40 41
3 14 46 47
3 2 29 40
3 14 29 47
3 2 3 29
3 13 14 29
3 29 30 31
3 29 30 35
3 3 29 31
3 13 29 35
3 30 32 33
3 30 33 34
3 30 31 32
3 30 34 35
3 3 4 31
3 12 13 35
3 4 5 48
3 11 12 54
3 5 6 48
3 10 11 54
3 6 48 59
3 10 54 55
3 6 7 59
3 9 10 55
3 7 58 59
3 9 55 56
3 8 57 58
3 8 56 57
3 7 8 58
3 8 9 56
3 4 31 48
3 12 35 54
3 31 48 49
3 35 53 54
3 31 49 50
3 35 52 53
3 31 32 50
3 34 35 52
3 32 33 50
3 33 34 52
3 33 50 51
3 33 51 52
3 48 49 60
3 49 60 50
3 50 60 61
3 50 51 61
3 51 52 61
3 61 62 52
3 52 53 62
3 53 54 62
3 54 55 63
3 55 56 63
3 56 63 64
3 56 57 64
3 64 65 57
3 57 58 65
3 58 59 65
3 48 59 65
