ply
format ascii 1.0
element vertex 66
property float x
property float y
property float z
property float u
property float v
element face 91
property list uchar int vertex_indices
end_header
-19.9925 -6.05827 20.7912 487.217 433.438
-19.506 -0.791317 20.46 488.289 455.798
-18.6117 4.40541 20.0266 491.11 477.864
-17.0599 9.51381 18.1418 496.517 498.816
-14.7196 14.3421 13.2763 504.838 516.973
-11.4074 18.5334 7.77182 517.343 532.195
-7.28846 21.898 3.18238 533.632 544.545
-2.55341 24.2865 -0.807351 552.855 553.174
2.73237 24.6413 -4.51894 574.869 553.372
7.36982 23.0461 -0.705045 595.786 549.501
11.043 19.8024 3.43074 612.913 538.63
14.0623 15.9535 8.10123 627.433 525.383
16.2667 11.5581 13.5936 638.694 510.151
17.6418 6.76575 18.4535 646.347 492.729
18.3746 1.8265 20.323 650.733 472.849
18.5895 -3.1211 20.6767 652.624 451.975
18.5101 -8.06764 21.0702 653.256 431.082
-15.569 -15.7123 0.246844 504.361 381.053
-13.6999 -17.5449 -1.5403 512.418 372.493
-11.1674 -18.4243 -2.95931 523.221 368.317
-8.45855 -18.4618 -4.29944 534.642 367.809
-5.81603 -17.83 -5.49777 545.681 370.227
3.71845 -18.5292 -5.28422 586.86 368.867
6.43313 -19.4012 -4.1441 598.899 366.232
9.25974 -19.5975 -2.80911 611.331 366.612
11.9389 -18.711 -1.43865 622.937 371.609
13.8522 -16.6692 0.476714 631.135 381.731
-1.22867 -11.7904 -5.04701 564.391 396.982
-1.15941 -9.07136 -7.64438 563.731 407.092
-1.07041 -6.36073 -10.3055 563.146 417.134
-0.949844 -3.67907 -12.9476 562.706 427.067
-3.27136 -0.20068 -5.9759 553.322 445.579
-1.97521 -0.0583064 -6.92713 558.703 445.84
-0.650924 -0.0709051 -7.98146 564.214 445.384
0.782309 -0.267622 -6.90497 570.607 445.393
2.13883 -0.601176 -5.87932 576.685 444.777
-10.7157 -10.4129 -1.45585 523.967 403.445
-9.44252 -11.4788 -1.2476 529.676 399.217
-7.70489 -11.7088 -0.917777 537.251 398.7
-6.21235 -11.0755 -0.389077 543.649 401.943
-7.58763 -10.0987 -0.863654 537.471 405.62
-9.20899 -9.87604 -1.07488 530.418 406.193
4.71851 -11.8715 -0.603164 590.777 400.142
6.16296 -12.617 -0.862592 597.08 397.038
7.91209 -12.524 -1.03807 604.556 397.608
9.2787 -11.5737 -1.13539 610.244 401.822
7.81356 -10.9455 -0.928675 603.864 404.392
6.18198 -10.9975 -0.910426 596.858 403.924
-4.3262 10.3989 -2.75681 547.42 492.506
-3.28729 8.54086 -5.04841 551.822 483.415
-1.81674 6.75427 -6.64541 558.19 475.098
0.29316 6.79147 -8.10596 567 474.744
2.44226 6.33895 -6.52676 576.607 474.065
4.26953 7.7617 -4.94653 584.488 481.338
5.75619 9.34073 -2.76309 590.983 489.573
4.59944 10.7558 -3.99019 585.53 494.719
3.05842 11.7929 -5.39022 578.464 498.092
1.07117 12.3997 -6.77878 569.558 499.566
-1.05228 12.2879 -5.49112 560.673 499.499
-2.87484 11.604 -4.26102 553.176 497.006
-0.769106 8.91799 -4.93863 562.604 485.484
0.531256 8.51341 -7.04803 567.897 482.741
1.98539 8.5534 -4.98744 574.511 484.333
2.02353 9.33817 -4.45559 574.626 487.995
0.721358 9.86195 -6.32187 568.598 488.946
-0.57417 9.67516 -4.52211 563.379 488.986
3 20 21 23
3 21 22 23
3 0 1 36
3 15 16 45
3 0 17 36
3 16 26 45
3 17 18 37
3 25 26 44
3 17 36 37
3 26 44 45
3 18 19 38
3 24 25 43
3 18 37 38
3 25 43 44
3 19 20 38
3 23 24 43
3 20 21 39
3 22 23 42
3 20 38 39
3 23 42 43
3 21 22 27
3 21 27 39
3 22 27 42
3 27 28 42
3 27 28 39
3 28 42 47
3 28 39 40
3 1 36 41
3 15 45 46
3 1 2 41
3 14 15 46
3 28 29 40
3 28 29 47
3 2 40 41
3 14 46 47
3 2 29 40
3 14 29 47
3 2 3 29
3 13 14 29
3 29 30 31
3 29 30 35
3 3 29 31
3 13 29 35
3 30 32 33
3 30 33 34
3 30 31 32
3 30 34 35
3 3 4 31
3 12 13 35
3 4 5 48
3 11 12 54
3 5 6 48
3 10 11 54
3 6 48 59
3 10 54 55
3 6 7 59
3 9 10 55
3 7 58 59
3 9 55 56
3 8 57 58
3 8 56 57
3 7 8 58
3 8 9 56
3 4 31 48
3 12 35 54
3 31 48 49
3 35 53 54
3 31 49 50
3 35 52 53
3 31 32 50
3 34 35 52
3 32 33 50
3 33 34 52
3 33 50 51
3 33 51 52
3 48 49 60
3 49 60 50
3 50 60 61
3 50 51 61
3 51 52 61
3 61 62 52
3 52 53 62
3 53 54 62
3 54 55 63
3 55 56 63
3 56 63 64
3 56 57 64
3 64 65 57
3 57 58 65
3 58 59 65
3 48 59 65
