ply
format ascii 1.0
element vertex 66
property float x
property float y
property float z
property float u
property float v
element face 91
property list uchar int vertex_indices
end_header
-19.8661 -6.08819 20.9455 490.039 426.218
-19.3552 -0.783952 20.5726 490.913 448.542
-18.4666 4.45535 20.1269 493.411 470.637
-17.0465 9.57519 18.1789 498.115 491.472
-14.898 14.3667 13.3911 505.837 509.431
-11.6657 18.4673 7.82802 518.303 524.267
-7.53669 21.6956 3.17391 534.861 536.154
-2.75823 23.912 -0.79882 554.475 544.311
2.53549 24.147 -4.55035 576.779 544.339
7.21287 22.6657 -0.748402 597.321 541.379
10.9375 19.523 3.41593 614.222 531.386
14.0229 15.8016 8.15131 628.57 519.132
16.2537 11.5318 13.7138 639.453 504.844
17.5869 6.82615 18.448 646.562 488.023
18.2987 1.91126 20.4709 650.908 468.591
18.564 -3.07556 20.8575 653.269 447.796
18.5444 -8.06963 21.2233 654.415 426.893
-15.7567 -15.5227 0.244428 508.615 375.202
-13.9044 -17.3628 -1.53046 516.857 366.816
-11.4253 -18.2722 -2.98074 527.567 362.699
-8.77741 -18.385 -4.32168 538.811 362.052
-6.18503 -17.8521 -5.51918 549.671 364.206
3.73385 -18.4531 -5.3338 592.147 364.069
6.42867 -19.331 -4.15709 603.928 361.668
9.2522 -19.5433 -2.78608 616.108 362.224
11.9679 -18.7411 -1.36281 627.586 367.075
14.0031 -16.7928 0.450627 635.906 376.841
-1.25469 -11.759 -5.05998 569.261 391.374
-1.22076 -9.08173 -7.66594 568.602 401.178
-1.16607 -6.42115 -10.3621 568.031 410.865
-1.07347 -3.78517 -13.0493 567.628 420.461
-2.95268 -0.0106905 -5.96137 559.121 440.12
-1.82763 -0.00868638 -6.97476 563.86 439.797
-0.705781 -0.0778923 -8.07634 568.598 439.121
0.555394 -0.195963 -6.97012 574.073 439.56
1.79328 -0.377966 -5.91738 579.462 439.691
-11.1276 -10.2332 -1.33217 526.992 397.715
-9.7467 -11.3794 -1.2073 533.168 393.262
-7.88083 -11.5997 -1.0023 541.194 392.882
-6.30228 -10.8616 -0.549551 547.778 396.632
-7.79218 -9.88965 -0.950763 541.162 400.162
-9.52949 -9.66237 -1.08813 533.686 400.64
5.10546 -11.7519 -0.815645 596.649 395.353
6.60927 -12.6091 -0.94794 603.265 392
8.47682 -12.5335 -0.941279 611.215 392.755
9.96466 -11.5344 -0.915196 617.323 397.339
8.42181 -10.8541 -0.899114 610.576 399.867
6.67629 -10.8883 -0.992153 603.132 399.264
-4.86334 10.2061 -2.78338 548.689 484.724
-3.46719 8.51042 -5.0709 554.919 476.543
-1.81577 6.85538 -6.70695 562.267 468.974
0.348625 6.86523 -8.18214 571.411 468.655
2.56145 6.42431 -6.54089 581.057 468.262
4.56048 7.68051 -4.92527 589.379 474.978
6.39735 9.0259 -2.78918 597.018 482.337
5.07426 10.6005 -4.05612 590.917 487.948
3.3184 11.744 -5.3894 583.069 491.598
1.1284 12.3576 -6.75813 573.495 492.886
-1.18856 12.288 -5.50243 563.701 492.788
-3.24175 11.5622 -4.27822 555.19 489.96
-1.12563 8.98798 -4.98932 564.799 479.152
0.594659 8.60399 -7.12702 572.103 476.679
2.47459 8.54161 -5.06957 580.262 478.051
2.55954 9.24016 -4.46906 580.492 481.374
0.769394 9.74348 -6.27585 572.624 482.033
-1.00333 9.67311 -4.51056 565.183 482.356
3 20 21 23
3 21 22 23
3 0 1 36
3 15 16 45
3 0 17 36
3 16 26 45
3 17 18 37
3 25 26 44
3 17 36 37
3 26 44 45
3 18 19 38
3 24 25 43
3 18 37 38
3 25 43 44
3 19 20 38
3 23 24 43
3 20 21 39
3 22 23 42
3 20 38 39
3 23 42 43
3 21 22 27
3 21 27 39
3 22 27 42
3 27 28 42
3 27 28 39
3 28 42 47
3 28 39 40
3 1 36 41
3 15 45 46
3 1 2 41
3 14 15 46
3 28 29 40
3 28 29 47
3 2 40 41
3 14 46 47
3 2 29 40
3 14 29 47
3 2 3 29
3 13 14 29
3 29 30 31
3 29 30 35
3 3 29 31
3 13 29 35
3 30 32 33
3 30 33 34
3 30 31 32
3 30 34 35
3 3 4 31
3 12 13 35
3 4 5 48
3 11 12 54
3 5 6 48
3 10 11 54
3 6 48 59
3 10 54 55
3 6 7 59
3 9 10 55
3 7 58 59
3 9 55 56
3 8 57 58
3 8 56 57
3 7 8 58
3 8 9 56
3 4 31 48
3 12 35 54
3 31 48 49
3 35 53 54
3 31 49 50
3 35 52 53
3 31 32 50
3 34 35 52
3 32 33 50
3 33 34 52
3 33 50 51
3 33 51 52
3 48 49 60
3 49 60 50
3 50 60 61
3 50 51 61
3 51 52 61
3 61 62 52
3 52 53 62
3 53 54 62
3 54 55 63
3 55 56 63
3 56 63 64
3 56 57 64
3 64 65 57
3 57 58 65
3 58 59 65
3 48 59 65
