ply
format ascii 1.0
element vertex 66
property float x
property float y
property float z
property float u
property float v
element face 91
property list uchar int vertex_indices
end_header
-20.1376 -5.62177 20.9433 483.266 429.784
-19.5784 -0.490758 20.5234 483.732 452.612
-18.6402 4.58222 20.1877 485.914 475.363
-17.2599 9.45996 18.1617 490.067 496.73
-15.1105 13.9403 13.4109 497.68 515.522
-11.8077 17.7726 7.95595 510.656 531.594
-7.58141 20.7468 3.29755 528.121 544.536
-2.69871 22.7048 -0.767942 548.938 553.46
2.66282 22.7271 -4.36682 572.668 554.163
7.269 21.5713 -0.918974 593.813 552.208
11.0913 18.9586 3.40064 612.072 543.837
14.3634 15.7783 8.20991 628.124 532.932
16.6378 11.9086 13.7989 640.033 518.898
17.7932 7.40404 18.5683 647.164 501.281
18.3979 2.47126 20.7712 651.89 480.506
18.769 -2.65853 21.1908 655.571 458.042
18.937 -7.79314 21.6551 658.35 435.496
-16.2059 -15.1431 0.225644 503.574 380.598
-14.1083 -16.9733 -1.53426 513.561 372.564
-11.4777 -17.8467 -3.01706 525.563 369.098
-8.72508 -18.0155 -4.37339 537.839 368.858
-6.05031 -17.5518 -5.60483 549.526 371.448
3.04918 -18.1424 -5.30256 590.338 372.456
6.02701 -19.2095 -4.08572 604.087 369.361
9.17526 -19.5634 -2.68363 618.325 369.573
12.2909 -18.9112 -1.25597 632.025 374.251
14.8477 -17.0228 0.407062 642.761 384.298
-1.58804 -11.8355 -5.085 567.207 398.762
-1.49316 -8.66836 -7.71172 566.271 411.793
-1.3672 -5.53787 -10.5237 565.479 424.599
-1.19193 -2.42276 -13.2656 564.917 437.384
-2.99244 0.781483 -6.09263 555.963 453.834
-1.983 0.822107 -7.12142 560.401 453.986
-0.963055 0.746022 -8.16183 564.93 453.618
0.327361 0.595198 -7.16219 570.788 453.852
1.58694 0.340863 -6.07394 576.552 453.651
-11.8256 -10.2661 -1.13484 521.132 403.389
-10.2379 -11.6414 -1.12303 528.749 397.899
-8.10603 -11.7827 -1.07381 538.311 398.114
-6.38796 -10.7174 -0.731219 545.569 403.646
-8.12213 -9.90134 -1.02981 537.505 406.48
-10.0557 -9.66437 -1.11392 528.788 406.752
5.54579 -11.868 -0.976891 599.211 403.038
7.1754 -13.1673 -0.95066 606.986 397.907
9.34189 -13.1698 -0.740379 616.655 398.817
11.1396 -12.0372 -0.575639 624.234 404.606
9.39495 -11.2774 -0.838486 616.146 407.201
7.40687 -11.2144 -1.03386 607.25 406.634
-5.48996 10.1777 -2.84501 541.301 495.914
-3.77017 8.6118 -5.07774 549.479 488.717
-1.91079 7.1703 -6.70679 558.258 482.37
0.295999 7.12956 -8.27951 568.04 482.401
2.59126 6.6883 -6.61021 578.522 482.005
4.85598 7.68744 -4.99914 588.301 487.97
7.16752 8.75243 -2.95304 598.283 494.422
5.44624 10.2324 -4.15703 589.975 499.84
3.37588 11.2493 -5.33388 580.293 503.079
1.03758 11.7857 -6.52322 569.605 504.076
-1.37893 11.8903 -5.35398 558.844 504.084
-3.65243 11.3847 -4.25344 548.956 501.41
-1.44781 9.17473 -5.07055 559.612 492.114
0.516328 8.76833 -7.3357 568.424 490.146
2.69254 8.60048 -5.37104 578.282 491.039
2.72388 8.87879 -4.64555 578.346 492.581
0.61539 9.20161 -6.27655 568.745 492.539
-1.39813 9.42064 -4.48376 559.764 493.464
3 20 21 23
3 21 22 23
3 0 1 36
3 15 16 45
3 0 17 36
3 16 26 45
3 17 18 37
3 25 26 44
3 17 36 37
3 26 44 45
3 18 19 38
3 24 25 43
3 18 37 38
3 25 43 44
3 19 20 38
3 23 24 43
3 20 21 39
3 22 23 42
3 20 38 39
3 23 42 43
3 21 22 27
3 21 27 39
3 22 27 42
3 27 28 42
3 27 28 39
3 28 42 47
3 28 39 40
3 1 36 41
3 15 45 46
3 1 2 41
3 14 15 46
3 28 29 40
3 28 29 47
3 2 40 41
3 14 46 47
3 2 29 40
3 14 29 47
3 2 3 29
3 13 14 29
3 29 30 31
3 29 30 35
3 3 29 31
3 13 29 35
3 30 32 33
3 30 33 34
3 30 31 32
3 30 34 35
3 3 4 31
3 12 13 35
3 4 5 48
3 11 12 54
3 5 6 48
3 10 11 54
3 6 48 59
3 10 54 55
3 6 7 59
3 9 10 55
3 7 58 59
3 9 55 56
3 8 57 58
3 8 56 57
3 7 8 58
3 8 9 56
3 4 31 48
3 12 35 54
3 31 48 49
3 35 53 54
3 31 49 50
3 35 52 53
3 31 32 50
3 34 35 52
3 32 33 50
3 33 34 52
3 33 50 51
3 33 51 52
3 48 49 60
3 49 60 50
3 50 60 61
3 50 51 61
3 51 52 61
3 61 62 52
3 52 53 62
3 53 54 62
3 54 55 63
3 55 56 63
3 56 63 64
3 56 57 64
3 64 65 57
3 57 58 65
3 58 59 65
3 48 59 65
