ply
format ascii 1.0
element vertex 66
property float x
property float y
property float z
property float u
property float v
element face 91
property list uchar int vertex_indices
end_header
-19.7034 -5.92802 20.711 485.236 432.622
-19.1729 -0.738398 20.303 486.18 456.029
-18.2309 4.38352 19.9236 489.013 479.248
-16.7087 9.41909 18.0793 494.311 501.612
-14.4476 14.2087 13.298 502.652 521.822
-11.2352 18.4325 7.7923 515.367 539.418
-7.18823 21.8528 3.17555 532.197 553.974
-2.48035 24.2633 -0.808452 552.378 564.406
2.79739 24.5917 -4.41521 575.757 565.739
7.34302 23.0178 -0.772114 597.259 561.336
10.911 19.7978 3.40161 614.843 549.468
13.8422 16.0047 8.10827 629.763 535.071
15.9565 11.6826 13.6205 641.226 518.411
17.2625 6.96041 18.4208 649.042 499.436
17.9932 2.06398 20.3087 653.925 478.301
18.3092 -2.86835 20.6568 656.742 456.251
18.3559 -7.80186 21.1093 658.35 434.169
-15.3849 -15.849 0.194285 504.889 380.307
-13.4639 -17.5915 -1.54548 513.849 372.202
-10.9547 -18.4443 -2.96141 525.276 368.404
-8.28254 -18.5241 -4.31296 537.241 368.167
-5.67283 -17.952 -5.54649 548.76 370.908
3.33272 -18.6336 -5.27675 589.809 370.272
6.10767 -19.53 -4.10705 602.783 367.432
8.99876 -19.7418 -2.75744 616.12 367.79
11.7574 -18.8882 -1.40304 628.569 372.928
13.8043 -16.9068 0.42702 637.545 383.176
-1.4054 -11.9224 -5.05128 566.534 399.455
-1.34045 -9.06667 -7.63422 565.723 411.285
-1.25113 -6.22489 -10.3063 565.016 423.022
-1.12258 -3.40943 -12.9393 564.498 434.666
-3.39914 0.0197565 -5.96615 554.136 452.496
-2.1296 0.247935 -6.9391 559.706 453.446
-0.808023 0.267562 -7.98561 565.558 453.437
0.673577 0.0147431 -6.93163 572.479 453.121
2.0476 -0.424759 -5.90932 578.958 451.921
-10.7281 -10.6796 -1.41949 524.393 404.183
-9.56053 -11.6736 -1.18911 529.986 400.092
-7.95953 -11.8973 -0.873762 537.345 399.628
-6.58647 -11.3521 -0.467151 543.474 402.617
-7.85125 -10.4623 -0.897491 537.444 406.128
-9.34252 -10.2375 -1.07983 530.598 406.681
5.15926 -12.3039 -0.694022 596.957 401.26
6.50352 -12.9725 -0.808802 603.218 398.54
8.12772 -12.8551 -0.924213 610.536 399.441
9.40523 -11.9857 -1.00296 616.082 403.666
8.03743 -11.4579 -0.878135 609.753 405.749
6.51992 -11.5064 -0.920245 602.881 405.119
-4.1916 10.6869 -2.79011 548.053 501.807
-3.20587 8.78966 -5.06268 552.747 492.538
-1.7726 6.97568 -6.63793 559.536 484.053
0.304146 6.96831 -8.13414 568.763 483.929
2.44513 6.52343 -6.50977 578.798 483.155
4.28797 7.93866 -4.95894 586.967 490.676
5.81052 9.50388 -2.81814 593.718 499.039
4.61364 10.8642 -4.00659 587.771 504.375
3.08199 11.8745 -5.30728 580.386 507.996
1.13537 12.4856 -6.65885 571.222 509.685
-0.936131 12.4244 -5.39673 562.008 509.402
-2.74243 11.8206 -4.24851 554.129 506.69
-0.500798 9.17764 -4.90258 564.926 495.057
0.561944 8.74417 -7.06802 569.586 492.465
1.81655 8.78131 -5.03309 575.523 493.812
1.81499 9.39869 -4.5007 575.417 496.824
0.740552 9.88386 -6.26906 570.188 497.994
-0.293658 9.75945 -4.50236 565.758 497.907
3 20 21 23
3 21 22 23
3 0 1 36
3 15 16 45
3 0 17 36
3 16 26 45
3 17 18 37
3 25 26 44
3 17 36 37
3 26 44 45
3 18 19 38
3 24 25 43
3 18 37 38
3 25 43 44
3 19 20 38
3 23 24 43
3 20 21 39
3 22 23 42
3 20 38 39
3 23 42 43
3 21 22 27
3 21 27 39
3 22 27 42
3 27 28 42
3 27 28 39
3 28 42 47
3 28 39 40
3 1 36 41
3 15 45 46
3 1 2 41
3 14 15 46
3 28 29 40
3 28 29 47
3 2 40 41
3 14 46 47
3 2 29 40
3 14 29 47
3 2 3 29
3 13 14 29
3 29 30 31
3 29 30 35
3 3 29 31
3 13 29 35
3 30 32 33
3 30 33 34
3 30 31 32
3 30 34 35
3 3 4 31
3 12 13 35
3 4 5 48
3 11 12 54
3 5 6 48
3 10 11 54
3 6 48 59
3 10 54 55
3 6 7 59
3 9 10 55
3 7 58 59
3 9 55 56
3 8 57 58
3 8 56 57
3 7 8 58
3 8 9 56
3 4 31 48
3 12 35 54
3 31 48 49
3 35 53 54
3 31 49 50
3 35 52 53
3 31 32 50
3 34 35 52
3 32 33 50
3 33 34 52
3 33 50 51
3 33 51 52
3 48 49 60
3 49 60 50
3 50 60 61
3 50 51 61
3 51 52 61
3 61 62 52
3 52 53 62
3 53 54 62
3 54 55 63
3 55 56 63
3 56 63 64
3 56 57 64
3 64 65 57
3 57 58 65
3 58 59 65
3 48 59 65
