ply
format ascii 1.0
element vertex 66
property float x
property float y
property float z
property float u
property float v
element face 91
property list uchar int vertex_indices
end_header
-20.1503 -5.57287 20.886 483.275 430.983
-19.6836 -0.499517 20.4263 483.249 453.261
-18.8134 4.52265 20.1486 485.043 475.567
-17.4264 9.37785 18.132 489.085 496.458
-15.1723 13.8744 13.4162 496.946 514.74
-11.7809 17.7251 7.91137 510.057 530.229
-7.5015 20.7116 3.25599 527.506 542.701
-2.57579 22.6586 -0.77873 548.279 551.171
2.79657 22.6758 -4.28401 571.848 551.595
7.32354 21.4647 -0.946052 592.597 549.763
11.0921 18.858 3.37599 610.617 541.989
14.3566 15.7104 8.19067 626.655 531.886
16.682 11.8743 13.8248 638.865 518.796
17.9104 7.37288 18.6005 646.433 501.906
18.5149 2.46448 20.8048 651.245 481.668
18.8506 -2.61278 21.1778 654.82 459.647
18.9905 -7.68507 21.6812 657.535 437.637
-15.9964 -15.3098 0.231849 504.351 379.262
-13.9224 -16.9992 -1.48838 514.117 371.775
-11.3421 -17.7794 -2.97868 525.77 368.607
-8.6539 -17.9144 -4.34666 537.645 368.384
-6.04266 -17.4623 -5.61526 548.948 370.764
3.08878 -18.1233 -5.27629 589.68 371.655
6.09241 -19.1718 -4.04759 603.486 368.859
9.25056 -19.5316 -2.64494 617.706 369.244
12.3606 -18.8626 -1.22647 631.296 374.146
14.864 -16.9624 0.427984 641.714 384.345
-1.72694 -11.7626 -5.10802 565.774 397.82
-1.65115 -8.61676 -7.68482 564.67 410.382
-1.53972 -5.50896 -10.5048 563.723 422.667
-1.37278 -2.4244 -13.3013 563.034 434.884
-3.97668 0.864523 -6.20941 550.604 451.936
-2.56931 1.14277 -7.17829 556.664 453.226
-1.10485 1.14232 -8.14698 563.09 453.312
0.650923 0.835757 -7.23958 571.047 453.123
2.30176 0.275724 -6.22303 578.649 451.831
-11.7472 -10.2103 -1.1543 521.009 402.686
-10.1691 -11.5436 -1.12571 528.543 397.46
-8.06517 -11.6558 -1.04705 537.911 397.842
-6.33993 -10.6407 -0.677889 545.162 403.182
-8.07084 -9.87605 -0.986299 537.166 405.703
-9.97987 -9.64244 -1.12607 528.607 405.901
5.48031 -11.8293 -0.960497 597.979 402.501
7.13459 -13.0878 -0.946015 605.819 397.627
9.27598 -13.103 -0.733291 615.322 398.519
11.0685 -12.0146 -0.553843 622.829 404.112
9.31135 -11.2948 -0.834589 614.737 406.439
7.33957 -11.2274 -0.999144 605.966 405.869
-5.83421 10.0523 -2.78409 538.852 493.377
-4.05814 8.50914 -4.98624 547.209 486.17
-2.05454 7.18447 -6.64828 556.518 480.289
0.268383 7.16993 -8.23956 566.714 480.337
2.68987 6.64284 -6.56171 577.757 479.834
5.12156 7.45925 -4.9194 588.296 485.229
7.55431 8.44315 -2.90183 598.796 491.553
5.74643 10.0427 -4.1144 590.063 497.256
3.54656 11.1262 -5.33561 579.803 500.529
1.08102 11.7014 -6.50327 568.577 501.486
-1.46601 11.8473 -5.34708 557.309 501.706
-3.89447 11.3438 -4.22941 546.828 499.095
-1.62603 9.17333 -5.06801 557.705 490.017
0.513161 8.80489 -7.38631 567.185 488.064
2.88191 8.51521 -5.42792 577.916 488.728
2.9303 8.77608 -4.71759 578.068 490.257
0.620995 9.1824 -6.4245 567.569 490.258
-1.57778 9.39967 -4.52278 557.861 491.31
3 20 21 23
3 21 22 23
3 0 1 36
3 15 16 45
3 0 17 36
3 16 26 45
3 17 18 37
3 25 26 44
3 17 36 37
3 26 44 45
3 18 19 38
3 24 25 43
3 18 37 38
3 25 43 44
3 19 20 38
3 23 24 43
3 20 21 39
3 22 23 42
3 20 38 39
3 23 42 43
3 21 22 27
3 21 27 39
3 22 27 42
3 27 28 42
3 27 28 39
3 28 42 47
3 28 39 40
3 1 36 41
3 15 45 46
3 1 2 41
3 14 15 46
3 28 29 40
3 28 29 47
3 2 40 41
3 14 46 47
3 2 29 40
3 14 29 47
3 2 3 29
3 13 14 29
3 29 30 31
3 29 30 35
3 3 29 31
3 13 29 35
3 30 32 33
3 30 33 34
3 30 31 32
3 30 34 35
3 3 4 31
3 12 13 35
3 4 5 48
3 11 12 54
3 5 6 48
3 10 11 54
3 6 48 59
3 10 54 55
3 6 7 59
3 9 10 55
3 7 58 59
3 9 55 56
3 8 57 58
3 8 56 57
3 7 8 58
3 8 9 56
3 4 31 48
3 12 35 54
3 31 48 49
3 35 53 54
3 31 49 50
3 35 52 53
3 31 32 50
3 34 35 52
3 32 33 50
3 33 34 52
3 33 50 51
3 33 51 52
3 48 49 60
3 49 60 50
3 50 60 61
3 50 51 61
3 51 52 61
3 61 62 52
3 52 53 62
3 53 54 62
3 54 55 63
3 55 56 63
3 56 63 64
3 56 57 64
3 64 65 57
3 57 58 65
3 58 59 65
3 48 59 65
