ply
format ascii 1.0
element vertex 66
property float x
property float y
property float z
property float u
property float v
element face 91
property list uchar int vertex_indices
end_header
-19.6285 -5.84322 20.6434 487.421 432.358
-19.1763 -0.726053 20.3347 487.475 455.382
-18.3179 4.3234 19.9308 489.369 478.203
-16.8399 9.27216 18.1011 493.82 500.16
-14.5611 13.9785 13.3392 501.405 520.013
-11.3367 18.1942 7.87105 513.304 537.684
-7.30495 21.6931 3.23655 529.276 552.79
-2.5965 24.2373 -0.799616 548.775 564.112
2.75039 24.6296 -4.44807 572.038 566.16
7.4373 23.246 -0.833095 594.4 563.212
11.2152 20.2168 3.35588 613.391 552.798
14.3132 16.5102 8.10938 629.68 539.349
16.448 12.1594 13.6694 642.023 523.018
17.545 7.27458 18.5867 649.761 503.634
18.077 2.11145 20.4216 654.458 481.431
18.2534 -3.10117 20.8947 657.307 458.275
18.2034 -8.31168 21.3341 659.126 435.033
-15.2856 -15.6797 0.273643 506.766 380.662
-13.4066 -17.4856 -1.55825 515.566 372.402
-10.9066 -18.3615 -2.99112 526.894 368.72
-8.24413 -18.4836 -4.31759 538.693 368.53
-5.65813 -17.9498 -5.52129 549.923 371.316
3.15283 -18.7879 -5.20725 590.042 370.824
6.01002 -19.7262 -4.08384 603.5 368.121
8.98952 -19.9392 -2.78033 617.271 368.802
11.8354 -19.0481 -1.42618 630.035 374.42
13.9407 -16.9686 0.488752 639.12 385.365
-1.47851 -11.9707 -5.07089 566.613 399.877
-1.3104 -9.08098 -7.63895 565.787 411.786
-1.11651 -6.2108 -10.3376 565.059 423.559
-0.891291 -3.36689 -13.0245 564.485 435.23
-3.33533 0.24127 -6.0807 553.448 453.655
-2.04579 0.37601 -6.97785 559.04 454.322
-0.725248 0.33084 -7.96039 564.823 454.154
0.779084 0.117769 -6.99663 571.875 454.158
2.20748 -0.251887 -6.0324 578.644 453.433
-10.4516 -10.5304 -1.32259 526.323 404.818
-9.17165 -11.8429 -1.25731 532.603 399.404
-7.3201 -11.9853 -1.05383 541.048 399.513
-5.81932 -11.0257 -0.482527 547.567 404.613
-7.24032 -10.0575 -0.885429 540.715 408.281
-8.91308 -9.83986 -1.06187 533.054 408.585
4.29413 -11.933 -0.556421 593.511 404.102
5.72771 -13.1316 -0.960391 600.35 399.046
7.62827 -13.1489 -1.03846 608.914 399.61
9.12108 -12.0327 -1.01211 615.233 405.169
7.62013 -11.1944 -0.882922 608.172 408.46
5.8891 -11.1461 -0.858953 600.351 408.072
-4.9725 10.33 -2.68741 542.925 499.922
-3.61036 8.62247 -4.99798 549.264 491.707
-1.92599 7.02573 -6.62674 557.146 484.408
0.289003 7.04112 -8.08972 566.848 484.617
2.55952 6.56677 -6.63681 577.549 483.937
4.62271 7.77163 -5.00644 586.718 490.809
6.51269 9.07318 -2.73664 595.193 498.338
5.06079 10.616 -4.0603 587.807 504.169
3.20685 11.6967 -5.41245 578.776 507.767
0.971996 12.2881 -6.64346 568.235 509.084
-1.33697 12.2552 -5.40357 558.073 508.664
-3.37459 11.5956 -4.21173 549.361 505.503
-1.23816 9.1293 -4.90696 559.791 494.87
0.480431 8.70068 -7.12706 567.274 492.571
2.35256 8.65757 -5.13309 576.12 493.927
2.3873 9.33062 -4.58754 576.13 497.207
0.601901 9.78389 -6.39285 567.556 497.808
-1.1388 9.765 -4.47061 560.084 497.956
3 20 21 23
3 21 22 23
3 0 1 36
3 15 16 45
3 0 17 36
3 16 26 45
3 17 18 37
3 25 26 44
3 17 36 37
3 26 44 45
3 18 19 38
3 24 25 43
3 18 37 38
3 25 43 44
3 19 20 38
3 23 24 43
3 20 21 39
3 22 23 42
3 20 38 39
3 23 42 43
3 21 22 27
3 21 27 39
3 22 27 42
3 27 28 42
3 27 28 39
3 28 42 47
3 28 39 40
3 1 36 41
3 15 45 46
3 1 2 41
3 14 15 46
3 28 29 40
3 28 29 47
3 2 40 41
3 14 46 47
3 2 29 40
3 14 29 47
3 2 3 29
3 13 14 29
3 29 30 31
3 29 30 35
3 3 29 31
3 13 29 35
3 30 32 33
3 30 33 34
3 30 31 32
3 30 34 35
3 3 4 31
3 12 13 35
3 4 5 48
3 11 12 54
3 5 6 48
3 10 11 54
3 6 48 59
3 10 54 55
3 6 7 59
3 9 10 55
3 7 58 59
3 9 55 56
3 8 57 58
3 8 56 57
3 7 8 58
3 8 9 56
3 4 31 48
3 12 35 54
3 31 48 49
3 35 53 54
3 31 49 50
3 35 52 53
3 31 32 50
3 34 35 52
3 32 33 50
3 33 34 52
3 33 50 51
3 33 51 52
3 48 49 60
3 49 60 50
3 50 60 61
3 50 51 61
3 51 52 61
3 61 62 52
3 52 53 62
3 53 54 62
3 54 55 63
3 55 56 63
3 56 63 64
3 56 57 64
3 64 65 57
3 57 58 65
3 58 59 65
3 48 59 65
