ply
format ascii 1.0
element vertex 66
property float x
property float y
property float z
property float u
property float v
element face 91
property list uchar int vertex_indices
end_header
-19.7196 -6.00572 20.7236 487.155 431.954
-19.2311 -0.843513 20.3057 487.744 455.277
-18.335 4.256 19.9666 490.214 478.469
-16.8696 9.24921 18.0449 495.087 500.662
-14.6232 13.995 13.3611 503.207 520.77
-11.36 18.1691 7.82584 516.004 538.218
-7.22833 21.5174 3.17914 533.121 552.565
-2.44066 23.8628 -0.799069 553.614 562.852
2.90019 24.1341 -4.37384 577.308 564.089
7.42529 22.6868 -0.859066 598.786 560.373
11.0667 19.6843 3.3341 616.816 549.654
14.1088 16.1091 8.09052 632.376 536.414
16.2584 11.9238 13.6753 644.179 520.51
17.457 7.22893 18.4473 651.707 501.673
18.0724 2.29311 20.4383 656.279 480.374
18.348 -2.71314 20.8084 659.107 457.958
18.4043 -7.71674 21.302 660.956 435.544
-15.4009 -15.8544 0.189659 506.977 379.772
-13.4522 -17.4932 -1.51353 516.098 372.186
-10.9844 -18.2736 -2.9689 527.349 368.743
-8.38564 -18.3583 -4.3372 538.994 368.524
-5.85755 -17.8236 -5.58988 550.146 371.138
3.31017 -18.5766 -5.23936 592.073 370.547
6.09781 -19.4905 -4.0651 605.176 367.729
9.00404 -19.7275 -2.71445 618.636 368.084
11.801 -18.9278 -1.34762 631.285 373.107
13.9345 -17.0039 0.43944 640.635 383.206
-1.54256 -11.7078 -5.08603 567.954 400.287
-1.44984 -8.84836 -7.6477 567.154 412.148
-1.32904 -6.00921 -10.3419 566.469 423.868
-1.16492 -3.19589 -13.0147 565.993 435.494
-3.52668 0.19184 -5.98761 555.189 453.173
-2.23652 0.413499 -6.98202 560.847 454.122
-0.898723 0.420768 -8.02994 566.779 454.091
0.640261 0.150541 -6.99825 573.994 453.761
2.07896 -0.311867 -5.96172 580.813 452.534
-10.9326 -10.5549 -1.34927 525.452 404.389
-9.74703 -11.5578 -1.16074 531.169 400.276
-8.13767 -11.7536 -0.919144 538.574 399.962
-6.76875 -11.1769 -0.56445 544.665 403.123
-8.04799 -10.3371 -0.936491 538.547 406.391
-9.54295 -10.1193 -1.09638 531.667 406.873
5.3022 -12.2212 -0.74678 599.798 401.828
6.65143 -12.9688 -0.836011 606.144 398.798
8.30029 -12.8788 -0.86933 613.602 399.671
9.63415 -12.0355 -0.886106 619.403 403.867
8.24768 -11.4939 -0.855795 612.943 405.928
6.70523 -11.4994 -0.920575 605.929 405.427
-4.75344 10.4908 -2.79253 546.911 500.804
-3.48391 8.73138 -5.02746 552.911 492.246
-1.85714 7.07749 -6.62571 560.587 484.544
0.313481 7.05892 -8.14729 570.247 484.434
2.55232 6.58281 -6.53981 580.783 483.624
4.60306 7.78907 -4.96902 589.946 490.358
6.46083 9.12664 -2.86033 598.266 497.862
5.07263 10.6387 -4.05113 591.335 503.787
3.30124 11.7201 -5.32248 582.785 507.617
1.15348 12.3441 -6.58734 572.665 509.27
-1.10971 12.3377 -5.36342 562.552 509.111
-3.13707 11.7252 -4.24933 553.68 506.231
-0.84344 9.21246 -4.93112 564.773 495.232
0.567818 8.79387 -7.16966 571.007 492.781
2.17606 8.71903 -5.15628 578.611 493.78
2.21124 9.30067 -4.5789 578.672 496.671
0.73099 9.7898 -6.27505 571.566 497.722
-0.688755 9.75409 -4.48608 565.371 497.92
3 20 21 23
3 21 22 23
3 0 1 36
3 15 16 45
3 0 17 36
3 16 26 45
3 17 18 37
3 25 26 44
3 17 36 37
3 26 44 45
3 18 19 38
3 24 25 43
3 18 37 38
3 25 43 44
3 19 20 38
3 23 24 43
3 20 21 39
3 22 23 42
3 20 38 39
3 23 42 43
3 21 22 27
3 21 27 39
3 22 27 42
3 27 28 42
3 27 28 39
3 28 42 47
3 28 39 40
3 1 36 41
3 15 45 46
3 1 2 41
3 14 15 46
3 28 29 40
3 28 29 47
3 2 40 41
3 14 46 47
3 2 29 40
3 14 29 47
3 2 3 29
3 13 14 29
3 29 30 31
3 29 30 35
3 3 29 31
3 13 29 35
3 30 32 33
3 30 33 34
3 30 31 32
3 30 34 35
3 3 4 31
3 12 13 35
3 4 5 48
3 11 12 54
3 5 6 48
3 10 11 54
3 6 48 59
3 10 54 55
3 6 7 59
3 9 10 55
3 7 58 59
3 9 55 56
3 8 57 58
3 8 56 57
3 7 8 58
3 8 9 56
3 4 31 48
3 12 35 54
3 31 48 49
3 35 53 54
3 31 49 50
3 35 52 53
3 31 32 50
3 34 35 52
3 32 33 50
3 33 34 52
3 33 50 51
3 33 51 52
3 48 49 60
3 49 60 50
3 50 60 61
3 50 51 61
3 51 52 61
3 61 62 52
3 52 53 62
3 53 54 62
3 54 55 63
3 55 56 63
3 56 63 64
3 56 57 64
3 64 65 57
3 57 58 65
3 58 59 65
3 48 59 65
