ply
format ascii 1.0
element vertex 66
property float x
property float y
property float z
property float u
property float v
element face 91
property list uchar int vertex_indices
end_header
-20.2609 -5.78791 20.9001 483.565 430.046
-19.7696 -0.656837 20.4085 484.008 452.61
-18.8931 4.42144 20.1016 486.194 475.146
-17.481 9.3598 18.0754 490.622 496.471
-15.2122 13.9644 13.3442 498.68 515.394
-11.7755 17.8623 7.80098 512.061 531.21
-7.44792 20.8461 3.19714 529.784 543.694
-2.54966 22.8687 -0.821018 550.411 552.38
2.79216 22.9629 -4.34713 573.685 552.92
7.35319 21.7214 -0.877096 594.652 550.429
11.1638 19.0393 3.36798 612.846 541.691
14.4636 15.8004 8.08617 629.008 530.547
16.8167 11.8537 13.6933 641.299 516.376
18.0483 7.27359 18.4925 648.747 498.698
18.6273 2.37322 20.6082 653.136 478.211
18.9031 -2.64042 20.9472 656.038 456.339
18.9827 -7.64374 21.4989 658.088 434.546
-15.9751 -15.6686 0.246525 503.69 378.662
-13.9142 -17.3224 -1.47079 513.187 371.259
-11.3583 -18.0731 -2.94554 524.606 368.102
-8.69444 -18.1268 -4.29472 536.287 368.11
-6.10844 -17.5855 -5.52373 547.441 370.769
3.40629 -18.2743 -5.19604 589.851 370.888
6.29926 -19.2368 -4.03415 603.102 368.075
9.31937 -19.5347 -2.69461 616.715 368.311
12.2577 -18.7804 -1.30752 629.626 373.183
14.5593 -16.8458 0.464238 639.368 383.229
-1.53104 -11.1379 -5.10928 565.646 400.835
-1.44365 -8.28907 -7.70581 564.833 412.273
-1.32847 -5.46529 -10.4641 564.136 423.537
-1.16686 -2.66098 -13.1555 563.657 434.76
-3.75585 0.71815 -6.13417 551.794 451.959
-2.3487 1.02372 -7.10575 557.829 453.321
-0.880736 1.05485 -8.11048 564.22 453.477
0.800663 0.740054 -7.11714 571.873 453.061
2.36222 0.173096 -6.10607 579.08 451.504
-11.1241 -10.4447 -1.22915 523.315 402.578
-9.92319 -11.4192 -1.12402 528.966 398.708
-8.34087 -11.5512 -0.956501 536.036 398.701
-7.0091 -10.8751 -0.608508 541.75 402.258
-8.29522 -10.1427 -0.928237 535.779 404.939
-9.76175 -9.98225 -1.09841 529.212 405.107
5.67507 -11.9542 -0.822735 598.274 401.418
6.97911 -12.7848 -0.884796 604.317 398.14
8.59021 -12.7305 -0.82647 611.443 398.916
9.93068 -11.9177 -0.744679 617.123 402.96
8.57133 -11.3693 -0.856013 610.909 404.899
7.06532 -11.3275 -0.925591 604.217 404.576
-5.72326 10.0592 -2.82037 540.351 494
-3.9677 8.53759 -5.05713 548.4 486.853
-2.00704 7.1525 -6.67 557.376 480.649
0.329597 7.15776 -8.19119 567.571 480.737
2.73913 6.64207 -6.55593 578.581 479.951
5.09446 7.54095 -4.96949 588.882 485.364
7.42088 8.56548 -2.87644 599.065 491.547
5.68141 10.1441 -3.98995 590.728 497.464
3.5335 11.1798 -5.23761 580.745 500.798
1.12172 11.7378 -6.48523 569.751 501.942
-1.39153 11.8339 -5.30387 558.706 502.095
-3.77419 11.3203 -4.1973 548.432 499.567
-1.22372 9.16163 -5.11825 560.345 490.446
0.576765 8.82496 -7.31803 568.208 488.554
2.57539 8.61236 -5.34988 577.332 489.123
2.63169 8.93679 -4.64131 577.547 490.886
0.704716 9.31589 -6.37805 568.709 491.177
-1.13448 9.44952 -4.54708 560.704 491.997
3 20 21 23
3 21 22 23
3 0 1 36
3 15 16 45
3 0 17 36
3 16 26 45
3 17 18 37
3 25 26 44
3 17 36 37
3 26 44 45
3 18 19 38
3 24 25 43
3 18 37 38
3 25 43 44
3 19 20 38
3 23 24 43
3 20 21 39
3 22 23 42
3 20 38 39
3 23 42 43
3 21 22 27
3 21 27 39
3 22 27 42
3 27 28 42
3 27 28 39
3 28 42 47
3 28 39 40
3 1 36 41
3 15 45 46
3 1 2 41
3 14 15 46
3 28 29 40
3 28 29 47
3 2 40 41
3 14 46 47
3 2 29 40
3 14 29 47
3 2 3 29
3 13 14 29
3 29 30 31
3 29 30 35
3 3 29 31
3 13 29 35
3 30 32 33
3 30 33 34
3 30 31 32
3 30 34 35
3 3 4 31
3 12 13 35
3 4 5 48
3 11 12 54
3 5 6 48
3 10 11 54
3 6 48 59
3 10 54 55
3 6 7 59
3 9 10 55
3 7 58 59
3 9 55 56
3 8 57 58
3 8 56 57
3 7 8 58
3 8 9 56
3 4 31 48
3 12 35 54
3 31 48 49
3 35 53 54
3 31 49 50
3 35 52 53
3 31 32 50
3 34 35 52
3 32 33 50
3 33 34 52
3 33 50 51
3 33 51 52
3 48 49 60
3 49 60 50
3 50 60 61
3 50 51 61
3 51 52 61
3 61 62 52
3 52 53 62
3 53 54 62
3 54 55 63
3 55 56 63
3 56 63 64
3 56 57 64
3 64 65 57
3 57 58 65
3 58 59 65
3 48 59 65
