ply
format ascii 1.0
element vertex 66
property float x
property float y
property float z
property float u
property float v
element face 91
property list uchar int vertex_indices
end_header
-20.2078 -5.77328 20.9905 482.771 429.981
-19.7278 -0.605528 20.5696 482.827 452.735
-18.8609 4.50825 20.2533 484.623 475.451
-17.5018 9.44348 18.1671 488.586 496.731
-15.3051 14.001 13.4397 496.283 515.416
-11.9093 17.8577 7.90418 509.532 531.095
-7.57252 20.7881 3.25098 527.359 543.481
-2.59583 22.666 -0.775293 548.47 551.777
2.804 22.6542 -4.37816 572.225 552.114
7.38461 21.4583 -0.909477 593.16 550.28
11.2294 18.8771 3.38451 611.424 542.449
14.5303 15.7138 8.19442 627.534 532.087
16.8198 11.826 13.8521 639.491 518.543
17.9777 7.29038 18.5954 646.648 501.269
18.5387 2.37259 20.8403 651.193 480.889
18.838 -2.71722 21.21 654.556 458.758
18.9419 -7.80208 21.6857 657.057 436.623
-16.2066 -15.2759 0.240339 503.276 379.8
-14.12 -17.0651 -1.4849 513.148 371.909
-11.4896 -17.8904 -2.98162 525.057 368.586
-8.74465 -18.0079 -4.34746 537.2 368.487
-6.08542 -17.4987 -5.60564 548.719 371.168
3.17548 -18.0801 -5.30929 589.993 372.354
6.16634 -19.1403 -4.07866 603.723 369.434
9.3222 -19.4924 -2.67565 617.912 369.78
12.4293 -18.797 -1.24496 631.47 374.734
14.9156 -16.8406 0.423827 641.788 385.116
-1.62153 -11.6896 -5.10592 566.214 398.737
-1.54971 -8.60747 -7.69601 565.185 411.111
-1.44634 -5.56138 -10.5055 564.299 423.234
-1.29004 -2.53756 -13.3035 563.658 435.286
-3.56688 0.697113 -6.14313 552.63 452.057
-2.31288 0.852092 -7.14879 558.076 452.75
-1.03057 0.81275 -8.17114 563.723 452.589
0.521058 0.587029 -7.19943 570.734 452.662
2.00992 0.186582 -6.12282 577.54 451.99
-11.9457 -10.0162 -1.15639 519.999 403.967
-10.3122 -11.3445 -1.14232 527.764 398.758
-8.15975 -11.4751 -1.08141 537.355 399.05
-6.38695 -10.4739 -0.707972 544.829 404.329
-8.16483 -9.6755 -1.01649 536.621 407.008
-10.1304 -9.43892 -1.12771 527.814 407.231
5.53399 -11.5879 -1.01226 598.071 403.92
7.2357 -12.8044 -0.984806 606.094 399.237
9.41593 -12.8001 -0.7702 615.762 400.207
11.2372 -11.7018 -0.590899 623.404 405.84
9.43765 -10.9866 -0.867035 615.134 408.159
7.42269 -10.9388 -1.05689 606.179 407.494
-5.78733 9.97843 -2.81486 539.268 493.666
-4.00054 8.42494 -5.01927 547.695 486.469
-2.03012 7.05489 -6.67461 556.889 480.413
0.265771 7.03413 -8.24558 566.994 480.468
2.65082 6.54789 -6.57209 577.834 480.051
5.03147 7.44176 -4.93857 588.104 485.694
7.43281 8.47532 -2.93431 598.429 492.137
5.65357 10.0329 -4.12072 589.871 497.741
3.48883 11.0804 -5.36093 579.806 500.923
1.06451 11.6337 -6.56395 568.788 501.844
-1.45848 11.7587 -5.38979 557.617 501.971
-3.85361 11.2471 -4.25825 547.263 499.322
-1.6601 9.05422 -5.0805 557.812 490.124
0.505703 8.68279 -7.37348 567.445 488.24
2.89152 8.43231 -5.38736 578.209 489.011
2.95659 8.72921 -4.67037 578.414 490.686
0.623262 9.10724 -6.37601 567.845 490.63
-1.61216 9.31794 -4.51958 557.946 491.571
3 20 21 23
3 21 22 23
3 0 1 36
3 15 16 45
3 0 17 36
3 16 26 45
3 17 18 37
3 25 26 44
3 17 36 37
3 26 44 45
3 18 19 38
3 24 25 43
3 18 37 38
3 25 43 44
3 19 20 38
3 23 24 43
3 20 21 39
3 22 23 42
3 20 38 39
3 23 42 43
3 21 22 27
3 21 27 39
3 22 27 42
3 27 28 42
3 27 28 39
3 28 42 47
3 28 39 40
3 1 36 41
3 15 45 46
3 1 2 41
3 14 15 46
3 28 29 40
3 28 29 47
3 2 40 41
3 14 46 47
3 2 29 40
3 14 29 47
3 2 3 29
3 13 14 29
3 29 30 31
3 29 30 35
3 3 29 31
3 13 29 35
3 30 32 33
3 30 33 34
3 30 31 32
3 30 34 35
3 3 4 31
3 12 13 35
3 4 5 48
3 11 12 54
3 5 6 48
3 10 11 54
3 6 48 59
3 10 54 55
3 6 7 59
3 9 10 55
3 7 58 59
3 9 55 56
3 8 57 58
3 8 56 57
3 7 8 58
3 8 9 56
3 4 31 48
3 12 35 54
3 31 48 49
3 35 53 54
3 31 49 50
3 35 52 53
3 31 32 50
3 34 35 52
3 32 33 50
3 33 34 52
3 33 50 51
3 33 51 52
3 48 49 60
3 49 60 50
3 50 60 61
3 50 51 61
3 51 52 61
3 61 62 52
3 52 53 62
3 53 54 62
3 54 55 63
3 55 56 63
3 56 63 64
3 56 57 64
3 64 65 57
3 57 58 65
3 58 59 65
3 48 59 65
