ply
format ascii 1.0
element vertex 66
property float x
property float y
property float z
property float u
property float v
element face 91
property list uchar int vertex_indices
end_header
-20.0219 -5.69538 20.8799 487.406 433.865
-19.5636 -0.6073 20.4308 487.561 456.053
-18.7066 4.42623 20.1176 489.505 478.21
-17.318 9.32116 18.1165 493.655 499.07
-15.0776 13.9073 13.4284 501.37 517.485
-11.7425 17.8829 7.89339 514.029 533.166
-7.54036 21.0311 3.21275 530.896 545.963
-2.66613 23.136 -0.800737 551.167 554.768
2.69044 23.295 -4.38253 574.304 555.446
7.26348 22.0013 -0.953394 595.279 553.115
11.0385 19.2477 3.33748 613.355 544.567
14.2665 15.9193 8.16196 629.286 533.594
16.5828 11.9313 13.8153 641.528 519.85
17.8344 7.30772 18.5755 649.211 502.5
18.4559 2.32533 20.7617 653.965 482.039
18.7736 -2.79343 21.172 657.234 459.961
18.8816 -7.91201 21.6455 659.587 437.845
-15.7894 -15.4047 0.23455 507.237 382.18
-13.7716 -17.0792 -1.48972 516.53 374.653
-11.239 -17.861 -2.97608 527.797 371.331
-8.58979 -17.9921 -4.34008 539.36 370.958
-6.01805 -17.5128 -5.59761 550.375 373.286
3.00791 -18.1566 -5.28454 590.383 373.712
5.96562 -19.2264 -4.06262 603.923 370.671
9.08425 -19.5827 -2.6649 617.936 370.897
12.1478 -18.9089 -1.24263 631.342 375.625
14.5979 -17.0222 0.42328 641.641 385.576
-1.67901 -11.6986 -5.07656 567.465 400.477
-1.59403 -8.6204 -7.67001 566.457 412.637
-1.47622 -5.57556 -10.4736 565.582 424.555
-1.30626 -2.55656 -13.2641 564.947 436.384
-3.82592 0.673617 -6.15303 553.482 453.325
-2.45296 0.909581 -7.13479 559.336 454.32
-1.03451 0.900965 -8.12649 565.476 454.255
0.655477 0.611256 -7.19747 573.122 454.044
2.25701 0.0982821 -6.19126 580.468 452.865
-11.7282 -10.0539 -1.17062 523.058 406.256
-10.1328 -11.3481 -1.14857 530.547 401.149
-8.02499 -11.492 -1.07598 539.888 401.276
-6.26167 -10.5816 -0.712057 547.368 406.05
-8.00427 -9.79836 -1.0009 539.383 408.733
-9.92931 -9.54826 -1.11959 530.804 409.109
5.34166 -11.7364 -0.966525 598.845 404.828
7.04077 -12.9005 -0.988291 606.739 400.303
9.18735 -12.8978 -0.781962 616.213 401.154
10.9927 -11.858 -0.599964 623.812 406.414
9.20293 -11.1856 -0.837219 615.665 408.623
7.21523 -11.1317 -0.998729 606.876 408.097
-5.76579 9.82547 -2.75112 542.05 494.462
-4.02637 8.27464 -4.95677 550.02 487.133
-2.0266 6.97031 -6.61898 559.109 481.251
0.299156 6.96604 -8.20077 569.177 481.211
2.7149 6.43753 -6.5333 580.186 480.583
5.12455 7.24139 -4.88791 590.691 485.772
7.49449 8.24626 -2.84633 600.993 492.03
5.77866 10.0101 -4.12963 592.667 498.501
3.61087 11.2464 -5.36013 582.546 502.536
1.10411 11.8856 -6.57545 571.146 503.85
-1.48419 11.955 -5.37407 559.856 503.89
-3.89349 11.2904 -4.23288 549.61 500.747
-1.71364 8.97489 -5.00434 559.949 490.962
0.53824 8.63329 -7.34351 569.73 489.03
2.99826 8.31838 -5.34928 580.893 489.52
3.08797 8.79772 -4.67949 581.191 491.994
0.658462 9.31128 -6.38924 570.122 492.53
-1.68371 9.42761 -4.49056 559.976 493.218
3 20 21 23
3 21 22 23
3 0 1 36
3 15 16 45
3 0 17 36
3 16 26 45
3 17 18 37
3 25 26 44
3 17 36 37
3 26 44 45
3 18 19 38
3 24 25 43
3 18 37 38
3 25 43 44
3 19 20 38
3 23 24 43
3 20 21 39
3 22 23 42
3 20 38 39
3 23 42 43
3 21 22 27
3 21 27 39
3 22 27 42
3 27 28 42
3 27 28 39
3 28 42 47
3 28 39 40
3 1 36 41
3 15 45 46
3 1 2 41
3 14 15 46
3 28 29 40
3 28 29 47
3 2 40 41
3 14 46 47
3 2 29 40
3 14 29 47
3 2 3 29
3 13 14 29
3 29 30 31
3 29 30 35
3 3 29 31
3 13 29 35
3 30 32 33
3 30 33 34
3 30 31 32
3 30 34 35
3 3 4 31
3 12 13 35
3 4 5 48
3 11 12 54
3 5 6 48
3 10 11 54
3 6 48 59
3 10 54 55
3 6 7 59
3 9 10 55
3 7 58 59
3 9 55 56
3 8 57 58
3 8 56 57
3 7 8 58
3 8 9 56
3 4 31 48
3 12 35 54
3 31 48 49
3 35 53 54
3 31 49 50
3 35 52 53
3 31 32 50
3 34 35 52
3 32 33 50
3 33 34 52
3 33 50 51
3 33 51 52
3 48 49 60
3 49 60 50
3 50 60 61
3 50 51 61
3 51 52 61
3 61 62 52
3 52 53 62
3 53 54 62
3 54 55 63
3 55 56 63
3 56 63 64
3 56 57 64
3 64 65 57
3 57 58 65
3 58 59 65
3 48 59 65
