ply
format ascii 1.0
element vertex 66
property float x
property float y
property float z
property float u
property float v
element face 91
property list uchar int vertex_indices
end_header
-19.7756 -5.84598 20.7429 486.984 433.405
-19.3041 -0.693376 20.3447 487.347 456.599
-18.4291 4.39806 19.9897 489.564 479.665
-16.9741 9.36975 18.0831 494.217 501.661
-14.7121 14.0554 13.3516 502.2 521.324
-11.4245 18.1579 7.83146 514.904 538.319
-7.28574 21.4544 3.19377 531.86 552.355
-2.4941 23.7605 -0.80195 552.198 562.427
2.84983 23.9959 -4.40993 575.781 563.518
7.42556 22.5874 -0.842972 597.497 560.254
11.1159 19.6135 3.35852 615.818 549.945
14.1971 16.0527 8.12171 631.66 537.055
16.356 11.8689 13.7151 643.655 521.448
17.5332 7.15955 18.5118 651.262 502.795
18.1307 2.17531 20.4837 655.917 481.421
18.3813 -2.89088 20.8653 658.792 458.836
18.408 -7.95174 21.3486 660.667 436.252
-15.4965 -15.8261 0.249023 506.638 380.341
-13.5342 -17.5416 -1.50638 515.833 372.42
-11.0194 -18.3552 -2.96152 527.275 368.878
-8.3685 -18.4424 -4.30853 539.107 368.702
-5.79572 -17.8895 -5.54333 550.389 371.44
3.24134 -18.6021 -5.24009 591.59 371.221
6.08233 -19.5661 -4.06985 604.948 368.311
9.0563 -19.8273 -2.72242 618.701 368.693
11.9264 -19.0204 -1.34171 631.633 373.872
14.1179 -17.0452 0.459273 641.166 384.297
-1.523 -11.8167 -5.0805 567.786 400.379
-1.42703 -8.89267 -7.64521 566.868 412.412
-1.30284 -5.99139 -10.3578 566.064 424.284
-1.13631 -3.11591 -13.0608 565.461 436.056
-3.55484 0.296414 -6.05793 554.415 453.896
-2.24593 0.501809 -7.00966 560.132 454.798
-0.892103 0.49044 -8.02324 566.115 454.708
0.670984 0.24207 -7.03024 573.423 454.539
2.14072 -0.198876 -6.0088 580.376 453.485
-10.8014 -10.4593 -1.32033 525.88 405.297
-9.52151 -11.5331 -1.18795 532.052 400.921
-7.79703 -11.6936 -0.970464 539.946 400.842
-6.34305 -10.9984 -0.537129 546.363 404.635
-7.72862 -10.1679 -0.917657 539.757 407.766
-9.32042 -9.95622 -1.09065 532.453 408.138
5.07291 -12.0027 -0.75043 598.356 403.615
6.49633 -12.8756 -0.885408 605.071 400.068
8.25643 -12.8186 -0.900612 613.02 400.874
9.68642 -11.9111 -0.887047 619.195 405.423
8.21451 -11.3044 -0.878988 612.33 407.697
6.57815 -11.2932 -0.938658 604.908 407.203
-5.06396 10.3194 -2.75954 544.739 500.121
-3.65619 8.64048 -5.01827 551.336 491.958
-1.93924 7.076 -6.63085 559.391 484.706
0.269645 7.07252 -8.13974 569.171 484.694
2.5506 6.59589 -6.55799 579.892 483.994
4.67017 7.72993 -4.96071 589.349 490.51
6.64423 8.97982 -2.82947 598.188 497.748
5.18423 10.5651 -4.06065 590.867 503.867
3.31732 11.6923 -5.34831 581.849 507.768
1.06637 12.3101 -6.60682 571.264 509.263
-1.29239 12.3055 -5.38648 560.767 509.058
-3.40485 11.6403 -4.25098 551.591 505.914
-1.11979 9.19964 -4.95463 562.645 495.31
0.505544 8.78939 -7.2031 569.807 492.94
2.32407 8.698 -5.18212 578.371 494.031
2.37374 9.26589 -4.59318 578.495 496.878
0.652812 9.7348 -6.37434 570.282 497.629
-1.0082 9.73242 -4.50483 563.039 497.953
3 20 21 23
3 21 22 23
3 0 1 36
3 15 16 45
3 0 17 36
3 16 26 45
3 17 18 37
3 25 26 44
3 17 36 37
3 26 44 45
3 18 19 38
3 24 25 43
3 18 37 38
3 25 43 44
3 19 20 38
3 23 24 43
3 20 21 39
3 22 23 42
3 20 38 39
3 23 42 43
3 21 22 27
3 21 27 39
3 22 27 42
3 27 28 42
3 27 28 39
3 28 42 47
3 28 39 40
3 1 36 41
3 15 45 46
3 1 2 41
3 14 15 46
3 28 29 40
3 28 29 47
3 2 40 41
3 14 46 47
3 2 29 40
3 14 29 47
3 2 3 29
3 13 14 29
3 29 30 31
3 29 30 35
3 3 29 31
3 13 29 35
3 30 32 33
3 30 33 34
3 30 31 32
3 30 34 35
3 3 4 31
3 12 13 35
3 4 5 48
3 11 12 54
3 5 6 48
3 10 11 54
3 6 48 59
3 10 54 55
3 6 7 59
3 9 10 55
3 7 58 59
3 9 55 56
3 8 57 58
3 8 56 57
3 7 8 58
3 8 9 56
3 4 31 48
3 12 35 54
3 31 48 49
3 35 53 54
3 31 49 50
3 35 52 53
3 31 32 50
3 34 35 52
3 32 33 50
3 33 34 52
3 33 50 51
3 33 51 52
3 48 49 60
3 49 60 50
3 50 60 61
3 50 51 61
3 51 52 61
3 61 62 52
3 52 53 62
3 53 54 62
3 54 55 63
3 55 56 63
3 56 63 64
3 56 57 64
3 64 65 57
3 57 58 65
3 58 59 65
3 48 59 65
