ply
format ascii 1.0
element vertex 66
property float x
property float y
property float z
property float u
property float v
element face 91
property list uchar int vertex_indices
end_header
-20.1419 -5.60264 20.8648 483.769 428.999
-19.6576 -0.53335 20.3973 483.867 451.47
-18.7694 4.48406 20.1327 485.801 473.951
-17.3635 9.33436 18.1057 489.946 495.163
-15.1084 13.8424 13.3922 497.762 514.075
-11.7336 17.7207 7.88938 510.742 530.301
-7.46744 20.7346 3.24773 528.111 543.398
-2.55663 22.7172 -0.773382 548.817 552.428
2.81084 22.7622 -4.29212 572.371 553.251
7.33952 21.5523 -0.93558 593.316 551.032
11.118 18.946 3.35728 611.562 542.717
14.3781 15.7811 8.15599 627.769 531.934
16.6765 11.912 13.7888 640.051 518.001
17.8758 7.38509 18.5731 647.624 500.374
18.4722 2.4648 20.7678 652.436 479.698
18.8068 -2.61987 21.1294 655.98 457.433
18.9464 -7.69845 21.6575 658.669 435.188
-15.997 -15.3035 0.226672 504.2 379.053
-13.9566 -17.0016 -1.49257 513.801 371.603
-11.4049 -17.7919 -2.97664 525.339 368.474
-8.74069 -17.9182 -4.34918 537.124 368.379
-6.15298 -17.4575 -5.61686 548.344 370.9
3.24086 -18.1623 -5.26594 590.471 371.562
6.20177 -19.1982 -4.04353 604.174 368.623
9.31213 -19.5509 -2.6446 618.287 368.844
12.3699 -18.8668 -1.23659 631.754 373.645
14.8207 -16.9641 0.42976 642.058 383.72
-1.68833 -11.5794 -5.10834 565.926 398.904
-1.601 -8.50231 -7.70405 564.855 411.507
-1.47935 -5.45843 -10.4987 563.932 423.894
-1.30518 -2.43495 -13.2371 563.256 436.234
-3.82869 0.774015 -6.1643 551.39 452.41
-2.47418 1.04379 -7.149 557.223 453.724
-1.06381 1.05073 -8.13316 563.408 453.894
0.626993 0.746728 -7.20258 571.14 453.587
2.21535 0.204994 -6.16344 578.52 452.231
-11.728 -10.2326 -1.19101 521.057 402.605
-10.2334 -11.4614 -1.11875 528.205 397.766
-8.25655 -11.5993 -1.00978 537.07 397.966
-6.6202 -10.7224 -0.685212 544.034 402.622
-8.24496 -9.95849 -0.994699 536.47 405.252
-10.0531 -9.72653 -1.12774 528.317 405.524
5.67293 -11.9301 -0.933626 599.213 401.93
7.25845 -13.0457 -0.898692 606.717 397.613
9.28008 -13.0257 -0.73751 615.723 398.552
10.9778 -12.03 -0.615168 622.895 403.676
9.3034 -11.3788 -0.841368 615.162 405.82
7.43076 -11.3212 -0.995272 606.789 405.286
-5.51674 10.1288 -2.8094 540.461 494.622
-3.88681 8.51528 -5.00955 548.158 487.189
-1.99334 7.1114 -6.6472 556.996 481.021
0.265577 7.08968 -8.24304 566.914 481.14
2.61848 6.58685 -6.57302 577.74 480.514
4.944 7.50712 -4.95497 587.872 486.165
7.22789 8.59302 -2.92782 597.791 492.704
5.50565 10.1217 -4.09503 589.411 498.332
3.42154 11.1651 -5.32302 579.607 501.642
1.06616 11.7337 -6.51784 568.788 502.755
-1.37173 11.8552 -5.32864 557.996 502.841
-3.67188 11.3598 -4.20971 548.056 500.216
-1.41068 9.11377 -5.04992 558.938 490.786
0.502847 8.72935 -7.35384 567.399 488.87
2.64197 8.50126 -5.39785 577.19 489.497
2.67445 8.84224 -4.6908 577.263 491.315
0.616943 9.24944 -6.34927 567.792 491.636
-1.3377 9.41593 -4.49873 559.193 492.382
3 20 21 23
3 21 22 23
3 0 1 36
3 15 16 45
3 0 17 36
3 16 26 45
3 17 18 37
3 25 26 44
3 17 36 37
3 26 44 45
3 18 19 38
3 24 25 43
3 18 37 38
3 25 43 44
3 19 20 38
3 23 24 43
3 20 21 39
3 22 23 42
3 20 38 39
3 23 42 43
3 21 22 27
3 21 27 39
3 22 27 42
3 27 28 42
3 27 28 39
3 28 42 47
3 28 39 40
3 1 36 41
3 15 45 46
3 1 2 41
3 14 15 46
3 28 29 40
3 28 29 47
3 2 40 41
3 14 46 47
3 2 29 40
3 14 29 47
3 2 3 29
3 13 14 29
3 29 30 31
3 29 30 35
3 3 29 31
3 13 29 35
3 30 32 33
3 30 33 34
3 30 31 32
3 30 34 35
3 3 4 31
3 12 13 35
3 4 5 48
3 11 12 54
3 5 6 48
3 10 11 54
3 6 48 59
3 10 54 55
3 6 7 59
3 9 10 55
3 7 58 59
3 9 55 56
3 8 57 58
3 8 56 57
3 7 8 58
3 8 9 56
3 4 31 48
3 12 35 54
3 31 48 49
3 35 53 54
3 31 49 50
3 35 52 53
3 31 32 50
3 34 35 52
3 32 33 50
3 33 34 52
3 33 50 51
3 33 51 52
3 48 49 60
3 49 60 50
3 50 60 61
3 50 51 61
3 51 52 61
3 61 62 52
3 52 53 62
3 53 54 62
3 54 55 63
3 55 56 63
3 56 63 64
3 56 57 64
3 64 65 57
3 57 58 65
3 58 59 65
3 48 59 65
