ply
format ascii 1.0
element vertex 66
property float x
property float y
property float z
property float u
property float v
element face 91
property list uchar int vertex_indices
end_header
-19.7734 -5.77584 20.8419 484.445 430.802
-19.2172 -0.575535 20.3729 485.008 454.285
-18.2778 4.56909 20.0225 487.34 477.701
-16.8346 9.57672 18.1364 491.845 500.055
-14.6403 14.2437 13.3723 499.579 519.972
-11.4219 18.2956 7.85348 512.1 537.171
-7.34313 21.5416 3.18682 528.902 551.385
-2.58667 23.7561 -0.819942 549.222 561.451
2.70728 23.9291 -4.39477 572.77 562.668
7.26533 22.4637 -0.846717 594.325 559.116
10.8642 19.3737 3.3859 612.202 548.166
13.8549 15.7502 8.16791 627.576 534.814
16.0182 11.6071 13.7319 639.473 519.139
17.3302 7.02095 18.4507 647.589 500.818
18.0508 2.16604 20.4625 652.844 479.975
18.4011 -2.79829 20.798 656.287 457.827
18.4975 -7.76326 21.2796 658.595 435.644
-15.6742 -15.5158 0.196206 504.446 379.924
-13.6953 -17.2518 -1.52503 513.869 372.095
-11.1635 -18.0898 -2.96842 525.497 368.629
-8.49314 -18.202 -4.33635 537.493 368.519
-5.88437 -17.6925 -5.5797 548.995 371.244
3.35865 -18.2973 -5.3388 591.115 371.904
6.12555 -19.2445 -4.11711 604.124 369.11
9.03305 -19.5323 -2.70627 617.548 369.419
11.8698 -18.8487 -1.29857 630.294 374.086
14.1051 -17.0321 0.402555 639.931 383.773
-1.41157 -11.8971 -5.05798 567.186 399.21
-1.36779 -8.9065 -7.67365 566.016 411.665
-1.29764 -5.93924 -10.4099 564.961 423.974
-1.18412 -2.99314 -13.0809 564.117 436.231
-3.51665 0.264943 -6.04133 553.086 452.961
-2.21871 0.509284 -7.03688 558.773 454.123
-0.864114 0.525572 -8.05924 564.797 454.265
0.677002 0.269879 -7.04887 571.977 454.069
2.1168 -0.192712 -5.98991 578.78 452.924
-11.2438 -10.6163 -1.31292 522.563 403.007
-9.86341 -11.6523 -1.12948 529.215 398.897
-8.0721 -11.8609 -0.907075 537.43 398.684
-6.53307 -11.2332 -0.572559 544.206 402.201
-8.01726 -10.4669 -0.931512 537.164 404.986
-9.68615 -10.235 -1.08977 529.502 405.374
5.49736 -12.2857 -0.86262 599.063 401.619
6.99043 -13.0597 -0.814314 606.116 398.676
8.80091 -12.9679 -0.792861 614.286 399.744
10.2973 -12.0932 -0.813759 620.742 404.217
8.75109 -11.6008 -0.859067 613.552 405.871
7.05559 -11.621 -0.973157 605.867 405.129
-4.80788 10.2895 -2.79405 543.895 499.07
-3.47132 8.62277 -5.02668 550.33 491.117
-1.81829 7.08843 -6.64437 558.214 484.124
0.293792 7.09575 -8.21032 567.617 484.274
2.46926 6.63353 -6.5003 577.819 483.656
4.49438 7.75034 -4.90294 586.749 490.067
6.34698 9.02931 -2.85173 594.885 497.332
5.00515 10.5868 -4.06845 588.109 503.391
3.25979 11.7238 -5.30977 579.656 507.399
1.09984 12.3401 -6.6251 569.509 508.878
-1.1838 12.3158 -5.388 559.3 508.456
-3.21919 11.6284 -4.25462 550.449 505.087
-0.981807 9.16594 -4.98483 561.413 494.473
0.540428 8.7816 -7.22253 568.218 492.373
2.2522 8.69409 -5.15513 576.219 493.426
2.29648 9.22984 -4.53766 576.287 496.111
0.698931 9.72334 -6.2877 568.687 497.059
-0.856326 9.67894 -4.50797 561.843 497.027
3 20 21 23
3 21 22 23
3 0 1 36
3 15 16 45
3 0 17 36
3 16 26 45
3 17 18 37
3 25 26 44
3 17 36 37
3 26 44 45
3 18 19 38
3 24 25 43
3 18 37 38
3 25 43 44
3 19 20 38
3 23 24 43
3 20 21 39
3 22 23 42
3 20 38 39
3 23 42 43
3 21 22 27
3 21 27 39
3 22 27 42
3 27 28 42
3 27 28 39
3 28 42 47
3 28 39 40
3 1 36 41
3 15 45 46
3 1 2 41
3 14 15 46
3 28 29 40
3 28 29 47
3 2 40 41
3 14 46 47
3 2 29 40
3 14 29 47
3 2 3 29
3 13 14 29
3 29 30 31
3 29 30 35
3 3 29 31
3 13 29 35
3 30 32 33
3 30 33 34
3 30 31 32
3 30 34 35
3 3 4 31
3 12 13 35
3 4 5 48
3 11 12 54
3 5 6 48
3 10 11 54
3 6 48 59
3 10 54 55
3 6 7 59
3 9 10 55
3 7 58 59
3 9 55 56
3 8 57 58
3 8 56 57
3 7 8 58
3 8 9 56
3 4 31 48
3 12 35 54
3 31 48 49
3 35 53 54
3 31 49 50
3 35 52 53
3 31 32 50
3 34 35 52
3 32 33 50
3 33 34 52
3 33 50 51
3 33 51 52
3 48 49 60
3 49 60 50
3 50 60 61
3 50 51 61
3 51 52 61
3 61 62 52
3 52 53 62
3 53 54 62
3 54 55 63
3 55 56 63
3 56 63 64
3 56 57 64
3 64 65 57
3 57 58 65
3 58 59 65
3 48 59 65
