ply
format ascii 1.0
element vertex 66
property float x
property float y
property float z
property float u
property float v
element face 91
property list uchar int vertex_indices
end_header
-20.1779 -5.58017 20.815 484.341 430.521
-19.6872 -0.472146 20.3559 484.334 453.273
-18.7729 4.5842 20.0897 486.266 476.05
-17.3185 9.4377 18.1616 490.504 497.423
-15.0252 13.8775 13.3807 498.334 516.059
-11.6718 17.7192 7.9288 511.078 532.172
-7.45847 20.7689 3.29334 528.096 545.462
-2.5702 22.7863 -0.755122 548.635 554.684
2.82634 22.8029 -4.25325 572.353 555.44
7.39416 21.5989 -0.917784 593.677 553.384
11.1451 18.9489 3.3856 612.07 544.975
14.3435 15.7447 8.18302 628.282 534.086
16.6122 11.9003 13.771 640.698 520.31
17.8457 7.43326 18.6006 648.658 503.011
18.4823 2.5128 20.6924 653.818 482.262
18.8234 -2.6005 21.0528 657.536 459.783
18.9435 -7.70537 21.5864 660.281 437.327
-15.9651 -15.211 0.210373 504.819 380.412
-13.9141 -16.9366 -1.5179 514.515 372.812
-11.3466 -17.7417 -2.98568 526.164 369.636
-8.66864 -17.8791 -4.36226 538.037 369.519
-6.06697 -17.4366 -5.63546 549.337 371.998
3.23798 -18.1448 -5.27363 591.29 372.79
6.16129 -19.1645 -4.03956 604.937 369.975
9.23619 -19.5204 -2.63119 619.003 370.253
12.2721 -18.8773 -1.23402 632.473 374.959
14.7326 -17.0256 0.421108 642.892 384.926
-1.66159 -11.9481 -5.09183 566.795 398.472
-1.56897 -8.784 -7.7045 565.573 411.47
-1.44137 -5.65375 -10.4999 564.5 424.252
-1.26303 -2.54061 -13.2209 563.671 437.011
-3.81142 0.849189 -6.22213 551.668 454.104
-2.45155 1.12508 -7.15861 557.523 455.481
-1.02728 1.12313 -8.08162 563.786 455.652
0.673948 0.833859 -7.1937 571.62 455.442
2.26141 0.293381 -6.18092 579.065 454.12
-11.6715 -10.3962 -1.21797 521.83 402.986
-10.0924 -11.6673 -1.12707 529.436 398.007
-8.02006 -11.8053 -0.988108 538.779 398.297
-6.30726 -10.8686 -0.646978 546.085 403.315
-8.02376 -10.109 -0.989065 538.049 405.85
-9.91943 -9.86565 -1.13321 529.452 406.1
5.40271 -12.0397 -0.880249 598.918 402.768
7.05287 -13.227 -0.847201 606.801 398.167
9.17022 -13.2269 -0.728777 616.284 399.081
10.9553 -12.1963 -0.646376 623.844 404.434
9.20941 -11.5057 -0.844572 615.722 406.712
7.25002 -11.4446 -0.986426 606.917 406.125
-5.15138 10.2205 -2.78168 542.138 496.788
-3.65389 8.60614 -4.99827 549.254 489.247
-1.8884 7.1917 -6.65603 557.55 482.948
0.245175 7.17801 -8.2743 566.908 483.055
2.47081 6.69766 -6.58349 577.261 482.555
4.655 7.66409 -4.94499 586.815 488.459
6.78483 8.78967 -2.90688 596.105 495.223
5.1974 10.252 -4.09864 588.252 500.573
3.26086 11.2692 -5.34912 579.017 503.772
1.02114 11.8103 -6.53592 568.634 504.756
-1.29767 11.9246 -5.35294 558.355 504.833
-3.44816 11.4154 -4.20796 549.085 502.185
-1.27623 9.21749 -5.02973 559.627 492.925
0.474296 8.8071 -7.31927 567.36 490.818
2.44761 8.64654 -5.35232 576.482 491.759
2.45689 8.88211 -4.67548 576.504 493.105
0.578243 9.24821 -6.36526 567.751 493.238
-1.20072 9.414 -4.50007 559.944 494.06
3 20 21 23
3 21 22 23
3 0 1 36
3 15 16 45
3 0 17 36
3 16 26 45
3 17 18 37
3 25 26 44
3 17 36 37
3 26 44 45
3 18 19 38
3 24 25 43
3 18 37 38
3 25 43 44
3 19 20 38
3 23 24 43
3 20 21 39
3 22 23 42
3 20 38 39
3 23 42 43
3 21 22 27
3 21 27 39
3 22 27 42
3 27 28 42
3 27 28 39
3 28 42 47
3 28 39 40
3 1 36 41
3 15 45 46
3 1 2 41
3 14 15 46
3 28 29 40
3 28 29 47
3 2 40 41
3 14 46 47
3 2 29 40
3 14 29 47
3 2 3 29
3 13 14 29
3 29 30 31
3 29 30 35
3 3 29 31
3 13 29 35
3 30 32 33
3 30 33 34
3 30 31 32
3 30 34 35
3 3 4 31
3 12 13 35
3 4 5 48
3 11 12 54
3 5 6 48
3 10 11 54
3 6 48 59
3 10 54 55
3 6 7 59
3 9 10 55
3 7 58 59
3 9 55 56
3 8 57 58
3 8 56 57
3 7 8 58
3 8 9 56
3 4 31 48
3 12 35 54
3 31 48 49
3 35 53 54
3 31 49 50
3 35 52 53
3 31 32 50
3 34 35 52
3 32 33 50
3 33 34 52
3 33 50 51
3 33 51 52
3 48 49 60
3 49 60 50
3 50 60 61
3 50 51 61
3 51 52 61
3 61 62 52
3 52 53 62
3 53 54 62
3 54 55 63
3 55 56 63
3 56 63 64
3 56 57 64
3 64 65 57
3 57 58 65
3 58 59 65
3 48 59 65
