ply
format ascii 1.0
element vertex 66
property float x
property float y
property float z
property float u
property float v
element face 91
property list uchar int vertex_indices
end_header
-19.9249 -5.71421 20.9115 488.146 429.491
-19.3146 -0.564085 20.467 488.942 451.761
-18.3241 4.52193 20.0889 491.421 473.915
-16.8637 9.50978 18.1554 495.823 495.046
-14.6981 14.235 13.3531 503.097 513.879
-11.5327 18.3779 7.84106 514.854 530.187
-7.52009 21.7264 3.21104 530.667 543.775
-2.8006 23.9962 -0.82268 549.996 553.226
2.44093 24.3069 -4.5017 572.323 554.553
7.06693 22.8157 -0.854707 593.346 551.449
10.7604 19.6925 3.39971 610.947 541.265
13.8103 15.9517 8.13182 626.014 528.424
16.0433 11.675 13.6934 637.8 513.392
17.4107 6.95283 18.465 645.895 495.754
18.1998 2.01371 20.548 651.279 475.67
18.616 -3.00411 20.9424 654.899 454.296
18.7491 -8.03707 21.3602 657.293 432.771
-15.8734 -15.2517 0.200968 507.045 379.501
-13.9317 -17.0472 -1.55912 515.949 371.533
-11.3928 -17.9199 -2.9928 527.159 367.919
-8.69571 -18.0371 -4.35443 538.799 367.662
-6.05522 -17.5126 -5.57286 549.981 370.232
3.39434 -18.1319 -5.37015 591.338 370.855
6.1799 -19.1579 -4.15276 603.943 367.955
9.12008 -19.497 -2.73259 617 368.177
11.9969 -18.8563 -1.31095 629.436 372.618
14.2738 -17.0578 0.394896 638.882 382.002
-1.34002 -11.6884 -5.00384 568.504 397.305
-1.27655 -8.69881 -7.69487 567.455 408.947
-1.18955 -5.7271 -10.4541 566.507 420.487
-1.06427 -2.77644 -13.1037 565.745 432.002
-3.11901 0.263582 -5.98621 556.452 447.929
-1.95595 0.421468 -7.03354 561.351 448.495
-0.759454 0.426583 -8.10615 566.448 448.4
0.609027 0.203716 -7.05528 572.587 448.412
1.91357 -0.15804 -5.98112 578.499 447.813
-11.7524 -10.238 -1.28315 523.06 401.864
-10.2522 -11.384 -1.15897 530.004 397.475
-8.28914 -11.6501 -0.976116 538.659 397.079
-6.58771 -11.0129 -0.678392 545.868 400.558
-8.20776 -10.1622 -0.991927 538.487 403.536
-10.0362 -9.88394 -1.08547 530.423 404.074
5.60614 -12.106 -0.91646 599.289 399.847
7.24415 -12.9379 -0.884296 606.712 396.819
9.23349 -12.8371 -0.83283 615.338 397.954
10.878 -11.8953 -0.801979 622.165 402.601
9.18326 -11.378 -0.84829 614.604 404.242
7.32132 -11.4042 -0.997694 606.496 403.425
-4.55112 10.0825 -2.80832 547.081 491.472
-3.32961 8.31706 -5.04897 552.792 483.155
-1.73523 6.75011 -6.64675 560.121 476.137
0.334905 6.78058 -8.20293 568.961 476.212
2.45908 6.31451 -6.51427 578.539 475.739
4.41004 7.48888 -4.92815 586.774 482.255
6.12718 8.8881 -2.83948 593.964 489.909
4.78689 10.3251 -4.07406 587.501 495.069
3.10175 11.3686 -5.3071 579.676 498.411
1.05831 11.9633 -6.68441 570.436 499.619
-1.07951 11.9151 -5.37288 561.283 499.325
-3.01387 11.3082 -4.20186 553.198 496.616
-0.947238 8.84862 -4.96171 562.98 486.305
0.56444 8.53472 -7.1531 569.448 484.39
2.23595 8.40179 -5.13464 576.971 485.367
2.23905 8.81311 -4.51856 576.902 487.448
0.685482 9.29392 -6.19744 569.803 488.182
-0.835284 9.2422 -4.47056 563.378 488.285
3 20 21 23
3 21 22 23
3 0 1 36
3 15 16 45
3 0 17 36
3 16 26 45
3 17 18 37
3 25 26 44
3 17 36 37
3 26 44 45
3 18 19 38
3 24 25 43
3 18 37 38
3 25 43 44
3 19 20 38
3 23 24 43
3 20 21 39
3 22 23 42
3 20 38 39
3 23 42 43
3 21 22 27
3 21 27 39
3 22 27 42
3 27 28 42
3 27 28 39
3 28 42 47
3 28 39 40
3 1 36 41
3 15 45 46
3 1 2 41
3 14 15 46
3 28 29 40
3 28 29 47
3 2 40 41
3 14 46 47
3 2 29 40
3 14 29 47
3 2 3 29
3 13 14 29
3 29 30 31
3 29 30 35
3 3 29 31
3 13 29 35
3 30 32 33
3 30 33 34
3 30 31 32
3 30 34 35
3 3 4 31
3 12 13 35
3 4 5 48
3 11 12 54
3 5 6 48
3 10 11 54
3 6 48 59
3 10 54 55
3 6 7 59
3 9 10 55
3 7 58 59
3 9 55 56
3 8 57 58
3 8 56 57
3 7 8 58
3 8 9 56
3 4 31 48
3 12 35 54
3 31 48 49
3 35 53 54
3 31 49 50
3 35 52 53
3 31 32 50
3 34 35 52
3 32 33 50
3 33 34 52
3 33 50 51
3 33 51 52
3 48 49 60
3 49 60 50
3 50 60 61
3 50 51 61
3 51 52 61
3 61 62 52
3 52 53 62
3 53 54 62
3 54 55 63
3 55 56 63
3 56 63 64
3 56 57 64
3 64 65 57
3 57 58 65
3 58 59 65
3 48 59 65
