ply
format ascii 1.0
element vertex 66
property float x
property float y
property float z
property float u
property float v
element face 91
property list uchar int vertex_indices
end_header
-19.9367 -6.03792 21.1563 486.204 431.196
-19.3105 -0.748209 20.7102 487.811 454.177
-18.3473 4.47815 20.2765 490.912 476.96
-16.9951 9.60383 18.1895 495.695 498.525
-14.9411 14.4274 13.4669 503.55 517.549
-11.7122 18.5101 7.85479 516.7 533.123
-7.55796 21.6769 3.15033 534.139 545.365
-2.7486 23.7693 -0.884445 554.706 553.404
2.50718 23.9677 -4.55842 577.651 553.46
7.09899 22.4677 -0.86404 598.257 549.794
10.7883 19.3585 3.41208 615.26 539.221
13.867 15.6836 8.19115 629.715 526.312
16.1409 11.487 13.7859 640.769 511.383
17.4972 6.85262 18.4318 647.857 493.858
18.222 2.04373 20.6503 652.136 474.178
18.6091 -2.8471 21.0189 654.895 453.108
18.745 -7.7548 21.4036 656.554 431.921
-16.1311 -15.389 0.173067 504.314 380.281
-14.0625 -17.0913 -1.50089 513.719 372.415
-11.4626 -17.8688 -2.98701 525.266 368.794
-8.74474 -17.9379 -4.37117 537.183 368.341
-6.08806 -17.3745 -5.5959 548.701 370.718
3.55752 -17.8905 -5.43327 591.2 370.568
6.3215 -18.8333 -4.21396 603.583 367.666
9.22974 -19.1232 -2.78367 616.467 367.752
12.0769 -18.4913 -1.31491 628.886 371.868
14.3388 -16.7127 0.388355 638.494 380.988
-1.28507 -11.5204 -5.00713 568.57 397.574
-1.26538 -8.61593 -7.67727 567.957 408.865
-1.22673 -5.73651 -10.4799 567.428 419.981
-1.14595 -2.88135 -13.2386 567.091 431.024
-3.08385 0.203355 -5.94153 558.129 447.871
-1.92135 0.305003 -7.0693 563.182 447.972
-0.74746 0.29256 -8.22673 568.309 447.562
0.560768 0.105199 -7.09313 574.131 447.607
1.83202 -0.190405 -5.95948 579.814 447.172
-12.1516 -10.1951 -1.14637 520.65 403.092
-10.6312 -11.3548 -1.0925 527.581 398.377
-8.65088 -11.6063 -1.02812 536.338 397.727
-6.95217 -10.8792 -0.774412 543.655 401.387
-8.59236 -10.0481 -1.00571 536.263 404.551
-10.4337 -9.80744 -1.06311 528.118 405.186
5.80502 -11.8857 -1.10106 599.918 399.493
7.4185 -12.7312 -0.997003 607.192 396.195
9.3915 -12.6377 -0.796202 615.848 397.12
11.0139 -11.6477 -0.645628 622.769 401.857
9.33489 -11.1327 -0.840613 615.275 403.652
7.49005 -11.1725 -1.0484 607.171 402.985
-5.64158 9.69629 -2.83926 544.949 490.373
-3.88181 8.14022 -5.03976 552.95 482.807
-1.91478 6.75855 -6.67002 561.841 476.342
0.395106 6.79028 -8.21007 571.94 476.163
2.74111 6.28337 -6.46762 582.408 475.347
5.03117 7.18793 -4.8637 592.324 480.607
7.23217 8.31971 -2.84447 601.813 487.055
5.6965 10.1311 -4.08277 594.641 493.995
3.63979 11.3869 -5.29382 585.299 498.416
1.21881 12.0345 -6.65258 574.482 500.029
-1.34891 12.0023 -5.41843 563.242 499.993
-3.74334 11.2502 -4.3006 552.914 496.791
-1.41424 8.83127 -5.08688 563.644 486.314
0.670995 8.60193 -7.29131 572.791 484.604
2.90144 8.29806 -5.19314 582.719 484.835
3.0201 8.71649 -4.50595 583.171 487.043
0.82575 9.23566 -6.22486 573.367 487.956
-1.34414 9.24601 -4.53443 563.879 488.426
3 20 21 23
3 21 22 23
3 0 1 36
3 15 16 45
3 0 17 36
3 16 26 45
3 17 18 37
3 25 26 44
3 17 36 37
3 26 44 45
3 18 19 38
3 24 25 43
3 18 37 38
3 25 43 44
3 19 20 38
3 23 24 43
3 20 21 39
3 22 23 42
3 20 38 39
3 23 42 43
3 21 22 27
3 21 27 39
3 22 27 42
3 27 28 42
3 27 28 39
3 28 42 47
3 28 39 40
3 1 36 41
3 15 45 46
3 1 2 41
3 14 15 46
3 28 29 40
3 28 29 47
3 2 40 41
3 14 46 47
3 2 29 40
3 14 29 47
3 2 3 29
3 13 14 29
3 29 30 31
3 29 30 35
3 3 29 31
3 13 29 35
3 30 32 33
3 30 33 34
3 30 31 32
3 30 34 35
3 3 4 31
3 12 13 35
3 4 5 48
3 11 12 54
3 5 6 48
3 10 11 54
3 6 48 59
3 10 54 55
3 6 7 59
3 9 10 55
3 7 58 59
3 9 55 56
3 8 57 58
3 8 56 57
3 7 8 58
3 8 9 56
3 4 31 48
3 12 35 54
3 31 48 49
3 35 53 54
3 31 49 50
3 35 52 53
3 31 32 50
3 34 35 52
3 32 33 50
3 33 34 52
3 33 50 51
3 33 51 52
3 48 49 60
3 49 60 50
3 50 60 61
3 50 51 61
3 51 52 61
3 61 62 52
3 52 53 62
3 53 54 62
3 54 55 63
3 55 56 63
3 56 63 64
3 56 57 64
3 64 65 57
3 57 58 65
3 58 59 65
3 48 59 65
