ply
format ascii 1.0
element vertex 66
property float x
property float y
property float z
property float u
property float v
element face 91
property list uchar int vertex_indices
end_header
-19.8364 -5.81184 20.8409 487.594 433.192
-19.3192 -0.669843 20.4079 488.316 455.524
-18.4234 4.41201 20.0498 490.726 477.741
-16.9788 9.38731 18.0727 495.432 498.779
-14.7343 14.0852 13.3894 503.493 517.382
-11.4562 18.1484 7.82921 516.2 533.038
-7.34209 21.3834 3.1554 532.901 545.793
-2.61296 23.6609 -0.845142 552.642 554.907
2.63803 23.9462 -4.43353 575.298 555.702
7.20609 22.5016 -0.851615 596.099 552.606
10.8868 19.4685 3.34832 613.525 542.666
13.9887 15.8799 8.1176 628.623 530.446
16.2464 11.7018 13.7099 640.26 515.86
17.5637 7.01995 18.4249 647.838 498.344
18.2331 2.11581 20.4802 652.4 478.251
18.5139 -2.85493 20.8372 655.125 456.849
18.5523 -7.82727 21.3001 656.795 435.428
-15.5783 -15.7273 0.203045 507.371 380.096
-13.6137 -17.3675 -1.48214 516.329 372.593
-11.115 -18.1252 -2.94556 527.394 369.207
-8.4924 -18.1852 -4.32157 538.805 368.944
-5.93611 -17.6413 -5.5662 549.76 371.366
3.4396 -18.3298 -5.31133 591.154 371.133
6.18336 -19.2535 -4.11343 603.58 368.518
9.05212 -19.5292 -2.72881 616.381 368.863
11.8348 -18.8274 -1.31776 628.519 373.46
13.9889 -17.007 0.422273 637.598 382.935
-1.37931 -11.5548 -5.0558 568.027 399.456
-1.30095 -8.77098 -7.63437 567.325 410.234
-1.19924 -6.00916 -10.3638 566.718 420.841
-1.05981 -3.27426 -13.0799 566.286 431.349
-3.52038 0.131306 -5.98779 555.111 449.307
-2.16205 0.357944 -7.0114 560.918 450.128
-0.758869 0.371258 -8.07818 566.981 450.008
0.802068 0.106866 -7.02255 574.006 449.859
2.27126 -0.35229 -5.96286 580.687 448.838
-11.1986 -10.4846 -1.26903 524.932 403.395
-9.93056 -11.5221 -1.1143 530.818 399.31
-8.23178 -11.727 -0.925556 538.355 398.995
-6.78213 -11.1047 -0.60036 544.566 402.289
-8.14789 -10.2629 -0.930625 538.293 405.399
-9.72789 -10.0466 -1.0726 531.279 405.823
5.43002 -12.1209 -0.800867 598.472 401.179
6.836 -12.9002 -0.855707 604.869 398.147
8.55939 -12.8218 -0.844509 612.415 398.979
9.95859 -11.9443 -0.84567 618.301 403.197
8.50874 -11.3915 -0.860788 611.771 405.192
6.89754 -11.401 -0.933188 604.692 404.66
-5.17684 10.2137 -2.81152 545.159 494.504
-3.67866 8.59305 -5.00591 552.018 486.682
-1.89404 7.08303 -6.61937 560.155 479.735
0.348592 7.1099 -8.15761 569.858 479.657
2.63886 6.61359 -6.50916 580.207 479.02
4.78259 7.68807 -4.91234 589.446 485.162
6.77315 8.8992 -2.83824 598.016 492.113
5.32297 10.5624 -4.08183 591.049 498.291
3.41376 11.7278 -5.33787 582.212 502.163
1.11931 12.3582 -6.62447 571.837 503.578
-1.28898 12.318 -5.40665 561.382 503.379
-3.46615 11.614 -4.27766 552.129 500.303
-1.12467 9.1591 -5.0078 563.067 489.866
0.586124 8.82462 -7.24317 570.479 487.69
2.45554 8.67588 -5.17052 578.915 488.677
2.51736 9.24946 -4.56947 579.071 491.517
0.735462 9.76974 -6.31863 570.939 492.348
-1.01268 9.70868 -4.52972 563.439 492.55
3 20 21 23
3 21 22 23
3 0 1 36
3 15 16 45
3 0 17 36
3 16 26 45
3 17 18 37
3 25 26 44
3 17 36 37
3 26 44 45
3 18 19 38
3 24 25 43
3 18 37 38
3 25 43 44
3 19 20 38
3 23 24 43
3 20 21 39
3 22 23 42
3 20 38 39
3 23 42 43
3 21 22 27
3 21 27 39
3 22 27 42
3 27 28 42
3 27 28 39
3 28 42 47
3 28 39 40
3 1 36 41
3 15 45 46
3 1 2 41
3 14 15 46
3 28 29 40
3 28 29 47
3 2 40 41
3 14 46 47
3 2 29 40
3 14 29 47
3 2 3 29
3 13 14 29
3 29 30 31
3 29 30 35
3 3 29 31
3 13 29 35
3 30 32 33
3 30 33 34
3 30 31 32
3 30 34 35
3 3 4 31
3 12 13 35
3 4 5 48
3 11 12 54
3 5 6 48
3 10 11 54
3 6 48 59
3 10 54 55
3 6 7 59
3 9 10 55
3 7 58 59
3 9 55 56
3 8 57 58
3 8 56 57
3 7 8 58
3 8 9 56
3 4 31 48
3 12 35 54
3 31 48 49
3 35 53 54
3 31 49 50
3 35 52 53
3 31 32 50
3 34 35 52
3 32 33 50
3 33 34 52
3 33 50 51
3 33 51 52
3 48 49 60
3 49 60 50
3 50 60 61
3 50 51 61
3 51 52 61
3 61 62 52
3 52 53 62
3 53 54 62
3 54 55 63
3 55 56 63
3 56 63 64
3 56 57 64
3 64 65 57
3 57 58 65
3 58 59 65
3 48 59 65
