ply
format ascii 1.0
element vertex 66
property float x
property float y
property float z
property float u
property float v
element face 91
property list uchar int vertex_indices
end_header
-20.1565 -5.57425 20.8069 484.449 430.903
-19.6669 -0.463488 20.3496 484.427 453.62
-18.7531 4.59516 20.0853 486.341 476.366
-17.2988 9.44577 18.151 490.586 497.651
-15.008 13.8788 13.3841 498.451 516.135
-11.6562 17.7132 7.92644 511.238 532.08
-7.44049 20.7542 3.28838 528.304 545.225
-2.55521 22.7747 -0.758138 548.854 554.375
2.84215 22.7906 -4.25385 572.596 555.074
7.41811 21.6023 -0.900488 593.885 553.194
11.1807 18.967 3.3928 612.25 544.973
14.3805 15.7666 8.18906 628.392 534.237
16.6309 11.9175 13.7782 640.65 520.587
17.835 7.44571 18.6039 648.419 503.392
18.4518 2.51766 20.6808 653.473 482.678
18.783 -2.60538 21.0324 657.156 460.197
18.8963 -7.71732 21.5736 659.881 437.761
-15.9277 -15.3156 0.207454 505.336 379.968
-13.8613 -17.014 -1.50692 515.108 372.487
-11.2992 -17.8032 -2.97714 526.735 369.362
-8.6332 -17.9371 -4.35589 538.559 369.235
-6.04613 -17.4903 -5.63345 549.794 371.703
3.23042 -18.196 -5.27458 591.567 372.538
6.15635 -19.1943 -4.04437 605.187 369.86
9.2293 -19.5266 -2.643 619.198 370.282
12.2564 -18.8558 -1.24978 632.58 375.14
14.7054 -16.9879 0.412721 642.901 385.206
-1.67075 -12.0265 -5.08433 567.083 398.042
-1.56891 -8.83964 -7.69291 565.921 411.068
-1.43321 -5.68702 -10.4882 564.905 423.871
-1.24731 -2.55141 -13.217 564.127 436.648
-3.77553 0.845942 -6.21449 552.118 453.897
-2.42765 1.11653 -7.15279 557.928 455.227
-1.01626 1.11212 -8.07561 564.139 455.368
0.668758 0.827814 -7.1837 571.878 455.201
2.2396 0.29514 -6.16813 579.225 453.939
-11.6433 -10.4245 -1.21435 522.258 402.828
-10.0849 -11.6627 -1.11799 529.753 398.007
-8.04856 -11.7996 -0.977625 538.922 398.298
-6.36171 -10.8963 -0.65211 546.108 403.155
-8.05149 -10.147 -0.992314 538.208 405.638
-9.91768 -9.90699 -1.13195 529.756 405.875
5.38669 -12.044 -0.882094 599.049 402.772
7.01929 -13.19 -0.846398 606.831 398.364
9.10028 -13.1816 -0.737934 616.134 399.305
10.857 -12.1769 -0.66328 623.563 404.527
9.1333 -11.5102 -0.855046 615.562 406.697
7.20452 -11.4554 -0.994105 606.909 406.085
-5.13932 10.2563 -2.79105 542.398 496.732
-3.64052 8.64223 -4.99902 549.548 489.168
-1.88173 7.21764 -6.65362 557.836 482.804
0.24798 7.19955 -8.27499 567.19 482.862
2.47113 6.72756 -6.58185 577.495 482.446
4.65157 7.70675 -4.94653 586.989 488.438
6.78351 8.83365 -2.90943 596.246 495.249
5.19653 10.2911 -4.0928 588.418 500.54
3.26166 11.3033 -5.34117 579.218 503.678
1.02502 11.8392 -6.52651 568.878 504.604
-1.29188 11.9536 -5.35212 558.602 504.695
-3.43664 11.4432 -4.21956 549.354 502.059
-1.23235 9.25736 -5.0275 560.042 492.879
0.477462 8.84261 -7.32326 567.618 490.694
2.41152 8.69699 -5.34193 576.523 491.741
2.41977 8.91102 -4.67119 576.539 493.001
0.580942 9.262 -6.36543 568.002 493.036
-1.15539 9.43021 -4.50459 560.366 493.917
3 20 21 23
3 21 22 23
3 0 1 36
3 15 16 45
3 0 17 36
3 16 26 45
3 17 18 37
3 25 26 44
3 17 36 37
3 26 44 45
3 18 19 38
3 24 25 43
3 18 37 38
3 25 43 44
3 19 20 38
3 23 24 43
3 20 21 39
3 22 23 42
3 20 38 39
3 23 42 43
3 21 22 27
3 21 27 39
3 22 27 42
3 27 28 42
3 27 28 39
3 28 42 47
3 28 39 40
3 1 36 41
3 15 45 46
3 1 2 41
3 14 15 46
3 28 29 40
3 28 29 47
3 2 40 41
3 14 46 47
3 2 29 40
3 14 29 47
3 2 3 29
3 13 14 29
3 29 30 31
3 29 30 35
3 3 29 31
3 13 29 35
3 30 32 33
3 30 33 34
3 30 31 32
3 30 34 35
3 3 4 31
3 12 13 35
3 4 5 48
3 11 12 54
3 5 6 48
3 10 11 54
3 6 48 59
3 10 54 55
3 6 7 59
3 9 10 55
3 7 58 59
3 9 55 56
3 8 57 58
3 8 56 57
3 7 8 58
3 8 9 56
3 4 31 48
3 12 35 54
3 31 48 49
3 35 53 54
3 31 49 50
3 35 52 53
3 31 32 50
3 34 35 52
3 32 33 50
3 33 34 52
3 33 50 51
3 33 51 52
3 48 49 60
3 49 60 50
3 50 60 61
3 50 51 61
3 51 52 61
3 61 62 52
3 52 53 62
3 53 54 62
3 54 55 63
3 55 56 63
3 56 63 64
3 56 57 64
3 64 65 57
3 57 58 65
3 58 59 65
3 48 59 65
