ply
format ascii 1.0
element vertex 66
property float x
property float y
property float z
property float u
property float v
element face 91
property list uchar int vertex_indices
end_header
-19.352 -5.62021 20.569 488.868 430.013
-18.8707 -0.635837 20.2057 488.226 452.636
-18.0063 4.2897 19.8233 489.346 475.184
-16.5563 9.17678 18.1207 492.772 497.303
-14.3997 13.9363 13.344 498.611 517.911
-11.4344 18.3346 7.88467 508.121 537.017
-7.68582 22.099 3.24852 521.75 554.012
-3.18907 24.8867 -0.798853 539.464 567.231
2.00311 25.5698 -4.53162 561.562 571.431
6.84589 24.1456 -0.841838 585.291 569.067
10.7029 20.8997 3.34782 605.69 558.171
13.8463 16.9124 8.04394 623.402 543.768
16.1298 12.3337 13.5641 637.774 526.595
17.439 7.25118 18.5604 647.863 506.417
18.1269 1.93222 20.3497 654.376 483.492
18.3654 -3.39147 20.8923 658.512 459.785
18.3152 -8.73046 21.2493 661.297 435.78
-15.0899 -15.2199 0.238901 507.752 380.234
-13.3516 -17.1322 -1.64919 516.141 371.694
-10.9078 -18.1339 -3.02529 527.369 367.852
-8.24264 -18.3379 -4.33195 539.184 367.759
-5.62491 -17.8716 -5.50484 550.456 370.728
2.87656 -18.8011 -5.24088 589.528 371.048
5.72004 -19.8184 -4.11447 603.27 368.401
8.70187 -20.0785 -2.8028 617.278 369.327
11.5536 -19.2393 -1.44682 630.108 375.173
13.6768 -17.2297 0.463922 639.156 386.165
-1.36489 -12.1281 -5.027 566.743 399.097
-1.1563 -9.20032 -7.64712 565.362 411.329
-0.926074 -6.28365 -10.3315 564.067 423.494
-0.677157 -3.39202 -12.9417 562.891 435.588
-3.14067 0.0896123 -5.97977 551.772 452.992
-1.82892 0.254796 -6.92752 557.358 454.018
-0.473621 0.231316 -7.93696 563.226 454.187
1.01225 -0.012669 -6.95304 570.361 454.271
2.41185 -0.430649 -6.07315 577.17 453.481
-10.3582 -10.3597 -1.38272 526.073 403.968
-9.11051 -11.6774 -1.29352 532.465 398.697
-7.27195 -11.913 -1.0452 540.987 398.691
-5.71139 -11.1289 -0.548824 547.763 403.254
-7.11193 -10.1087 -0.934535 540.758 406.975
-8.77994 -9.82824 -1.0745 533.014 407.319
4.13346 -12.1362 -0.446408 592.915 403.851
5.60123 -13.254 -0.955575 600.029 399.345
7.50584 -13.2719 -1.09967 608.622 400.191
9.01943 -12.2217 -1.10321 614.901 405.721
7.49689 -11.4293 -0.850838 607.645 408.619
5.75192 -11.3875 -0.772385 599.744 407.936
-4.40484 10.2675 -2.68764 541.411 499.729
-3.26951 8.43675 -4.97145 546.915 491.077
-1.69776 6.78424 -6.57614 554.487 483.744
0.456065 6.8204 -8.05495 563.808 484.399
2.64301 6.33656 -6.59852 574.378 483.963
4.54992 7.61719 -4.97286 582.765 491.428
6.14092 9.06982 -2.62747 589.828 499.811
4.8153 10.5783 -4.08859 582.597 505.323
3.11392 11.681 -5.40842 573.925 508.865
0.982585 12.2859 -6.7297 563.578 509.935
-1.1452 12.179 -5.38278 554.377 508.918
-2.98648 11.5065 -4.10593 546.762 505.464
-0.919206 8.92278 -4.81698 557.334 494.558
0.61449 8.53607 -6.96719 563.892 492.696
2.23679 8.50819 -5.03442 571.789 494.229
2.21214 9.20389 -4.56515 571.428 497.559
0.683647 9.72423 -6.28853 563.745 498.389
-0.834541 9.60294 -4.41586 557.458 497.846
3 20 21 23
3 21 22 23
3 0 1 36
3 15 16 45
3 0 17 36
3 16 26 45
3 17 18 37
3 25 26 44
3 17 36 37
3 26 44 45
3 18 19 38
3 24 25 43
3 18 37 38
3 25 43 44
3 19 20 38
3 23 24 43
3 20 21 39
3 22 23 42
3 20 38 39
3 23 42 43
3 21 22 27
3 21 27 39
3 22 27 42
3 27 28 42
3 27 28 39
3 28 42 47
3 28 39 40
3 1 36 41
3 15 45 46
3 1 2 41
3 14 15 46
3 28 29 40
3 28 29 47
3 2 40 41
3 14 46 47
3 2 29 40
3 14 29 47
3 2 3 29
3 13 14 29
3 29 30 31
3 29 30 35
3 3 29 31
3 13 29 35
3 30 32 33
3 30 33 34
3 30 31 32
3 30 34 35
3 3 4 31
3 12 13 35
3 4 5 48
3 11 12 54
3 5 6 48
3 10 11 54
3 6 48 59
3 10 54 55
3 6 7 59
3 9 10 55
3 7 58 59
3 9 55 56
3 8 57 58
3 8 56 57
3 7 8 58
3 8 9 56
3 4 31 48
3 12 35 54
3 31 48 49
3 35 53 54
3 31 49 50
3 35 52 53
3 31 32 50
3 34 35 52
3 32 33 50
3 33 34 52
3 33 50 51
3 33 51 52
3 48 49 60
3 49 60 50
3 50 60 61
3 50 51 61
3 51 52 61
3 61 62 52
3 52 53 62
3 53 54 62
3 54 55 63
3 55 56 63
3 56 63 64
3 56 57 64
3 64 65 57
3 57 58 65
3 58 59 65
3 48 59 65
