ply
format ascii 1.0
element vertex 66
property float x
property float y
property float z
property float u
property float v
element face 91
property list uchar int vertex_indices
end_header
-21.024 -5.97503 21.6368 487.572 469.133
-20.0981 -0.789953 21.046 488.32 489.236
-18.9096 4.36619 20.6542 490.061 509.407
-17.5252 9.40295 18.6019 492.783 528.956
-15.6011 13.9982 13.5442 498.109 546.627
-12.4996 17.7145 8.05733 508.433 561.537
-8.51775 20.514 3.48945 522.509 573.601
-4.04158 22.4196 -0.839627 538.928 582.583
0.84909 22.8387 -4.52813 557.667 586.254
5.90767 21.9416 -0.858192 577.003 586.24
10.2373 19.2996 3.49287 594.451 579.311
13.9246 15.8428 7.96854 609.89 568.955
16.9129 11.8098 13.3494 622.894 556.177
18.7937 7.28237 18.3299 632.001 540.844
19.7341 2.54122 20.5268 637.937 523.721
20.1852 -2.26826 20.9016 642.24 505.766
20.2223 -7.09643 21.2876 644.978 487.515
-18.2639 -13.9894 0.19359 504.655 436.657
-15.8617 -16.1959 -1.59075 515.174 429.303
-12.7372 -17.2992 -3.00441 527.798 426.598
-9.40519 -17.387 -4.31286 540.644 427.881
-6.10151 -16.7952 -5.3936 552.988 431.767
3.37388 -17.2446 -5.33898 589.24 435.284
6.08352 -18.2322 -4.13197 599.953 433.225
8.96794 -18.6654 -2.78783 611.013 433.39
11.8824 -18.455 -1.28771 621.819 436.042
14.5015 -17.2096 0.548837 630.903 442.518
-0.288174 -11.7465 -4.86667 572.27 454.227
-0.000818111 -8.26338 -7.89886 571.773 467.11
0.272203 -4.79427 -10.9282 571.229 479.932
0.529143 -1.32358 -13.6216 570.588 492.807
-2.76951 1.4804 -6.47947 555.782 502.826
-0.96059 1.92735 -7.418 562.51 505.363
0.935157 2.03822 -8.25865 569.741 506.688
2.60299 1.70587 -7.30545 576.162 506.502
4.11988 1.01674 -6.53067 582.224 504.848
-12.814 -9.81007 -0.863822 523.194 455.352
-11.0653 -10.9505 -1.07061 530.484 451.95
-8.94341 -11.2526 -1.17077 538.724 451.953
-6.98597 -10.4799 -1.10279 545.734 455.976
-8.88158 -9.90733 -1.1335 538.22 457.102
-10.8598 -9.67717 -1.08802 530.572 456.895
4.82517 -11.1347 -0.770095 590.946 460.044
6.54455 -12.1582 -1.05935 598.07 457.056
8.62823 -12.3367 -0.964254 606.076 457.54
10.5146 -11.4961 -0.668683 612.756 461.82
8.69737 -10.9544 -0.853258 605.573 462.846
6.74352 -10.9057 -0.791273 598.114 461.966
-7.07052 8.6771 -2.80699 535.125 528.4
-4.65266 7.08883 -5.00267 545.409 523.334
-1.94576 5.96185 -6.62636 556.48 520.274
0.948209 6.05207 -8.34454 567.607 521.924
3.69393 5.60879 -6.41845 578.085 522.071
6.36026 6.34446 -4.80859 587.65 526.6
8.68434 7.70556 -2.58788 595.51 533.416
6.66033 9.44679 -3.89942 587.002 538.698
4.01545 10.4447 -4.98988 576.518 540.851
1.16231 10.7665 -6.4314 565.648 540.264
-1.71436 10.7152 -5.10259 554.606 538.706
-4.54434 10.069 -3.88842 544.078 534.896
-1.84326 7.96747 -5.5195 555.66 528.131
1.09392 7.91091 -7.46107 567.054 529.21
3.87026 7.66168 -5.22819 577.511 530.162
3.93259 7.88968 -4.55188 577.553 531.175
1.11487 8.11628 -6.35095 566.907 530.186
-1.79411 8.22729 -4.69225 555.619 529.282
3 20 21 23
3 21 22 23
3 0 1 36
3 15 16 45
3 0 17 36
3 16 26 45
3 17 18 37
3 25 26 44
3 17 36 37
3 26 44 45
3 18 19 38
3 24 25 43
3 18 37 38
3 25 43 44
3 19 20 38
3 23 24 43
3 20 21 39
3 22 23 42
3 20 38 39
3 23 42 43
3 21 22 27
3 21 27 39
3 22 27 42
3 27 28 42
3 27 28 39
3 28 42 47
3 28 39 40
3 1 36 41
3 15 45 46
3 1 2 41
3 14 15 46
3 28 29 40
3 28 29 47
3 2 40 41
3 14 46 47
3 2 29 40
3 14 29 47
3 2 3 29
3 13 14 29
3 29 30 31
3 29 30 35
3 3 29 31
3 13 29 35
3 30 32 33
3 30 33 34
3 30 31 32
3 30 34 35
3 3 4 31
3 12 13 35
3 4 5 48
3 11 12 54
3 5 6 48
3 10 11 54
3 6 48 59
3 10 54 55
3 6 7 59
3 9 10 55
3 7 58 59
3 9 55 56
3 8 57 58
3 8 56 57
3 7 8 58
3 8 9 56
3 4 31 48
3 12 35 54
3 31 48 49
3 35 53 54
3 31 49 50
3 35 52 53
3 31 32 50
3 34 35 52
3 32 33 50
3 33 34 52
3 33 50 51
3 33 51 52
3 48 49 60
3 49 60 50
3 50 60 61
3 50 51 61
3 51 52 61
3 61 62 52
3 52 53 62
3 53 54 62
3 54 55 63
3 55 56 63
3 56 63 64
3 56 57 64
3 64 65 57
3 57 58 65
3 58 59 65
3 48 59 65
