ply
format ascii 1.0
element vertex 66
property float x
property float y
property float z
property float u
property float v
element face 91
property list uchar int vertex_indices
end_header
-21.3332 -5.86333 21.6694 478.875 463.421
-20.4357 -0.76529 21.0676 480.371 483.295
-19.2817 4.30054 20.7116 482.82 503.204
-17.8771 9.27446 18.4812 486.637 522.47
-15.8488 13.8788 13.5351 493.537 540.005
-12.6257 17.5457 7.97232 505.54 554.301
-8.546 20.2178 3.40687 521.054 565.335
-4.06236 22.0641 -0.873716 538.405 573.419
0.756122 22.5953 -4.59042 557.471 576.698
5.80616 21.6906 -0.856394 576.561 576.11
10.2605 19.1721 3.41672 593.91 569.174
14.1225 15.8126 7.88501 609.282 558.794
17.2328 11.749 13.3507 621.852 545.598
19.1617 7.11912 18.2216 630.218 529.603
20.0902 2.35905 20.5706 635.276 512.16
20.4936 -2.42846 20.9056 638.716 493.969
20.4806 -7.23352 21.3141 640.545 475.553
-18.1567 -14.1219 0.15282 498.672 428.444
-15.7828 -16.2608 -1.53563 509.016 420.848
-12.6913 -17.311 -2.94955 521.627 417.802
-9.39619 -17.3426 -4.27614 534.589 418.779
-6.13423 -16.6979 -5.38646 547.106 422.392
3.36355 -17.1131 -5.35616 583.849 424.77
6.0364 -18.1372 -4.11841 594.319 422.205
8.88391 -18.6073 -2.76345 605.214 421.87
11.7622 -18.4328 -1.26463 615.936 424.06
14.3498 -17.2491 0.476116 625.08 430.063
-0.188711 -11.0756 -4.82815 567.604 446.638
0.106983 -7.89055 -7.83376 568.031 458.391
0.384297 -4.71583 -10.8561 568.394 470.094
0.640173 -1.54519 -13.5855 568.619 481.834
-2.71048 1.23995 -6.35653 553.169 492.671
-0.886835 1.72614 -7.36477 560.191 495.094
1.02327 1.87917 -8.27477 567.663 496.29
2.68454 1.50756 -7.23343 574.01 495.773
4.19511 0.782326 -6.38223 579.957 493.791
-13.188 -9.51406 -0.815253 516.119 448.056
-11.5662 -10.5568 -1.01182 522.829 444.679
-9.5921 -10.8946 -1.1488 530.596 444.175
-7.74687 -10.3004 -1.19855 537.471 447.223
-9.48784 -9.64286 -1.18288 530.494 449.03
-11.3495 -9.41171 -1.0823 523.21 449.162
5.54985 -11.0143 -0.825412 588.9 450.112
7.1865 -11.845 -1.03162 595.582 447.555
9.13022 -11.9617 -0.932117 603.096 447.939
10.8745 -11.1994 -0.669968 609.452 451.658
9.16575 -10.7112 -0.867838 602.711 452.782
7.32828 -10.6835 -0.833449 595.616 452.127
-7.03224 8.62772 -2.9041 532.84 520.028
-4.62894 7.04704 -4.99304 543.148 514.51
-1.93474 5.91249 -6.57944 554.296 510.936
0.959095 6.03178 -8.29907 565.728 512.244
3.69676 5.5884 -6.37283 576.077 512.086
6.33752 6.36613 -4.7968 585.623 516.514
8.62416 7.74326 -2.66746 593.453 523.218
6.56509 9.41648 -3.93182 585.087 528.533
3.90576 10.3252 -5.00707 574.685 530.694
1.10915 10.6335 -6.4776 564.075 530.403
-1.70368 10.5478 -5.13449 553.015 529.179
-4.50635 9.95597 -3.92848 542.226 525.982
-1.66982 7.88986 -5.51874 554.303 518.881
1.08388 7.93516 -7.47438 565.272 519.796
3.6578 7.64777 -5.20097 574.859 520.243
3.69609 7.81342 -4.55528 574.813 521.032
1.08655 8.04779 -6.30082 565.007 520.477
-1.62237 8.08269 -4.70859 554.249 519.813
3 20 21 23
3 21 22 23
3 0 1 36
3 15 16 45
3 0 17 36
3 16 26 45
3 17 18 37
3 25 26 44
3 17 36 37
3 26 44 45
3 18 19 38
3 24 25 43
3 18 37 38
3 25 43 44
3 19 20 38
3 23 24 43
3 20 21 39
3 22 23 42
3 20 38 39
3 23 42 43
3 21 22 27
3 21 27 39
3 22 27 42
3 27 28 42
3 27 28 39
3 28 42 47
3 28 39 40
3 1 36 41
3 15 45 46
3 1 2 41
3 14 15 46
3 28 29 40
3 28 29 47
3 2 40 41
3 14 46 47
3 2 29 40
3 14 29 47
3 2 3 29
3 13 14 29
3 29 30 31
3 29 30 35
3 3 29 31
3 13 29 35
3 30 32 33
3 30 33 34
3 30 31 32
3 30 34 35
3 3 4 31
3 12 13 35
3 4 5 48
3 11 12 54
3 5 6 48
3 10 11 54
3 6 48 59
3 10 54 55
3 6 7 59
3 9 10 55
3 7 58 59
3 9 55 56
3 8 57 58
3 8 56 57
3 7 8 58
3 8 9 56
3 4 31 48
3 12 35 54
3 31 48 49
3 35 53 54
3 31 49 50
3 35 52 53
3 31 32 50
3 34 35 52
3 32 33 50
3 33 34 52
3 33 50 51
3 33 51 52
3 48 49 60
3 49 60 50
3 50 60 61
3 50 51 61
3 51 52 61
3 61 62 52
3 52 53 62
3 53 54 62
3 54 55 63
3 55 56 63
3 56 63 64
3 56 57 64
3 64 65 57
3 57 58 65
3 58 59 65
3 48 59 65
