ply
format ascii 1.0
element vertex 66
property float x
property float y
property float z
property float u
property float v
element face 91
property list uchar int vertex_indices
end_header
-20.9562 -5.4635 21.0862 476.451 464.434
-20.1358 -0.4435 20.4969 477.336 484.385
-18.9147 4.52987 20.2146 479.79 504.432
-17.1762 9.28066 18.482 484.534 523.453
-14.8229 13.4979 13.2893 492.303 539.715
-11.789 17.179 7.98624 503.02 554.171
-8.17549 20.3903 3.43537 516.169 567.272
-3.97673 22.862 -0.804932 531.943 577.838
0.906582 23.5827 -4.46629 551.193 582.02
6.03803 22.6208 -0.765387 571.481 581.759
10.2253 19.7626 3.43107 588.91 573.73
13.6476 16.0741 7.89663 603.698 562.143
16.5012 11.9917 13.1504 616.355 548.953
18.5243 7.4671 18.4045 625.955 533.623
19.6568 2.51787 20.1967 632.603 515.232
20.111 -2.56061 20.5502 636.788 495.605
20.0643 -7.6428 21.0262 638.991 475.754
-17.2881 -14.6631 0.267498 497.405 424.298
-15.3161 -16.6095 -1.52528 506.282 417.112
-12.6701 -17.5166 -2.89212 517.272 414.453
-9.85997 -17.516 -4.28383 528.475 415.432
-7.09851 -16.9454 -5.43037 539.189 418.694
4.19804 -17.6783 -5.26452 583.996 421.34
6.61081 -18.6315 -4.05962 593.829 419.101
9.17667 -19.0731 -2.68357 604.002 418.994
11.7668 -18.8078 -1.28041 613.93 421.681
13.9983 -17.5146 0.562885 621.909 428.355
-0.464706 -11.6709 -4.74657 562.709 442.817
-0.109193 -8.40049 -7.88918 562.86 454.961
0.235389 -5.12021 -10.7733 562.938 467.21
0.561313 -1.8258 -13.1522 562.883 479.646
-2.46292 1.2338 -6.34521 548.823 492.087
-0.859697 1.64247 -7.27414 555.033 494.212
0.84127 1.7404 -8.02906 561.759 495.212
2.38794 1.42183 -7.10845 567.907 494.967
3.75525 0.777712 -6.32938 573.52 493.316
-12.7304 -10.3702 -1.12286 513.432 442.983
-11.0547 -11.5643 -1.00433 520.589 439.139
-8.92535 -11.9281 -0.867213 529.132 438.781
-7.04739 -11.1924 -0.893545 536.176 442.574
-8.83321 -10.2721 -1.14189 528.729 445.253
-10.8335 -10.0117 -1.10054 520.726 445.317
4.67905 -11.8922 -0.422792 582.628 445.643
6.3631 -12.9473 -0.715705 589.793 442.235
8.50689 -13.0355 -0.921576 598.295 442.871
10.3767 -12.1683 -1.00921 605.25 447.16
8.61057 -11.414 -0.870026 597.922 449.304
6.5987 -11.3493 -0.754057 589.958 448.615
-3.40682 9.30072 -2.80269 540.885 524.297
-2.36551 7.62975 -5.03911 546.011 517.618
-0.912488 6.2936 -6.66731 552.536 512.622
0.891518 6.48541 -8.53417 559.735 513.732
2.59817 6.10369 -6.53051 566.434 513.617
4.09562 7.25635 -4.91336 571.613 519.32
5.15019 8.8449 -2.58543 574.768 526.717
4.26195 10.2763 -3.96406 570.725 531.525
2.87096 11.2637 -5.23447 564.905 534.376
1.05073 11.6331 -6.79085 557.72 534.511
-0.73516 11.3742 -5.33759 550.666 533.032
-2.22191 10.5419 -3.95054 545.071 529.427
0.10286 8.37383 -5.17768 555.386 521.699
0.983276 8.28656 -7.12725 559.091 521.242
1.75657 8.36312 -4.95169 561.879 522.522
1.68486 8.44741 -4.44422 561.505 522.959
0.972602 8.72058 -5.97293 558.724 523.262
0.186336 8.4612 -4.52509 555.607 522.264
3 20 21 23
3 21 22 23
3 0 1 36
3 15 16 45
3 0 17 36
3 16 26 45
3 17 18 37
3 25 26 44
3 17 36 37
3 26 44 45
3 18 19 38
3 24 25 43
3 18 37 38
3 25 43 44
3 19 20 38
3 23 24 43
3 20 21 39
3 22 23 42
3 20 38 39
3 23 42 43
3 21 22 27
3 21 27 39
3 22 27 42
3 27 28 42
3 27 28 39
3 28 42 47
3 28 39 40
3 1 36 41
3 15 45 46
3 1 2 41
3 14 15 46
3 28 29 40
3 28 29 47
3 2 40 41
3 14 46 47
3 2 29 40
3 14 29 47
3 2 3 29
3 13 14 29
3 29 30 31
3 29 30 35
3 3 29 31
3 13 29 35
3 30 32 33
3 30 33 34
3 30 31 32
3 30 34 35
3 3 4 31
3 12 13 35
3 4 5 48
3 11 12 54
3 5 6 48
3 10 11 54
3 6 48 59
3 10 54 55
3 6 7 59
3 9 10 55
3 7 58 59
3 9 55 56
3 8 57 58
3 8 56 57
3 7 8 58
3 8 9 56
3 4 31 48
3 12 35 54
3 31 48 49
3 35 53 54
3 31 49 50
3 35 52 53
3 31 32 50
3 34 35 52
3 32 33 50
3 33 34 52
3 33 50 51
3 33 51 52
3 48 49 60
3 49 60 50
3 50 60 61
3 50 51 61
3 51 52 61
3 61 62 52
3 52 53 62
3 53 54 62
3 54 55 63
3 55 56 63
3 56 63 64
3 56 57 64
3 64 65 57
3 57 58 65
3 58 59 65
3 48 59 65
