ply
format ascii 1.0
element vertex 66
property float x
property float y
property float z
property float u
property float v
element face 91
property list uchar int vertex_indices
end_header
-21.1162 -6.8876 21.606 482.039 463.526
-20.3739 -1.29179 20.9597 483.13 485.332
-19.3441 4.28056 20.4986 485.305 507.183
-17.8978 9.68611 18.5821 489.434 528.258
-15.8263 14.4884 13.4503 496.813 546.608
-12.5881 18.2609 7.91273 509.141 561.302
-8.47827 21.0571 3.25907 525.007 572.689
-3.91437 23.0065 -0.864707 542.817 581.057
1.08463 23.4776 -4.66879 562.755 583.914
6.18212 22.2496 -0.73714 582.152 581.692
10.3646 19.2018 3.38135 598.591 572.138
13.8716 15.4686 7.89561 612.571 559.767
16.8258 11.3292 13.2232 624.39 545.784
18.99 6.88926 18.0169 633.357 530.26
20.07 2.31507 20.0654 638.703 513.314
20.326 -2.31227 20.3041 641.227 495.532
20.0884 -6.93713 20.6904 641.811 477.613
-17.372 -14.7586 0.133666 503.394 430.293
-15.1762 -17.0161 -1.57744 513.001 421.997
-12.2183 -18.2142 -2.91226 525.124 418.143
-9.01133 -18.2791 -4.19606 537.815 418.773
-5.83666 -17.5647 -5.28305 550.077 422.447
3.09783 -17.4953 -5.28925 584.656 425.848
5.48614 -18.3892 -4.04738 593.97 423.46
8.06483 -18.7037 -2.72941 603.808 423.396
10.6395 -18.3973 -1.31463 613.4 425.754
12.8945 -17.1618 0.458892 621.367 431.665
-0.0186341 -11.4677 -4.81803 570.438 448.184
0.136787 -8.39551 -7.82991 570.576 459.564
0.270377 -5.32016 -10.7191 570.604 470.972
0.395642 -2.24553 -13.3021 570.542 482.432
-2.53803 0.787047 -6.31567 556.789 494.469
-0.814551 1.19882 -7.20451 563.496 496.5
0.993172 1.31284 -8.0362 570.619 497.418
2.52507 1.04767 -6.96583 576.435 497.131
3.8927 0.453839 -6.20678 581.786 495.455
-12.2485 -10.1004 -1.12279 521.89 449.889
-10.6079 -11.0211 -1.10456 528.555 446.903
-8.65143 -11.3377 -1.03016 536.225 446.377
-6.8445 -10.7142 -0.833029 542.972 449.463
-8.58617 -10.0222 -1.09026 536.041 451.483
-10.448 -9.85954 -1.11708 528.78 451.454
4.74003 -11.0519 -0.689435 587.924 452.245
6.31882 -11.7117 -0.933755 594.311 450.198
8.17542 -11.7925 -0.96784 601.535 450.53
9.80507 -11.0466 -0.858228 607.571 454.011
8.16923 -10.5289 -0.90135 601.067 455.433
6.40345 -10.5569 -0.840453 594.226 454.717
-5.44762 8.7716 -2.78436 542.11 525.035
-3.62742 7.18453 -5.04682 550.14 519.1
-1.47938 5.89894 -6.67801 559.214 514.566
0.977973 6.00128 -8.36799 569.024 515.504
3.29609 5.66711 -6.21894 577.699 515.43
5.38766 6.65859 -4.65947 585.158 520.299
7.03227 8.20785 -2.5482 590.589 527.274
5.83875 10.1083 -3.89847 585.58 533.959
3.8836 11.4031 -5.08446 577.796 538.062
1.40262 11.8492 -6.76447 568.362 538.601
-1.20672 11.5772 -5.39655 558.084 536.891
-3.51464 10.4814 -4.07858 549.264 532.089
-0.897368 7.97127 -5.31119 560.496 523.054
1.18131 7.87633 -7.2115 568.947 523.055
3.14603 7.85062 -4.76537 576.09 524.108
3.33671 8.65718 -4.28277 576.46 527.389
1.35528 9.08874 -6.16214 569.004 528.009
-0.760813 8.81739 -4.67142 560.612 526.499
3 20 21 23
3 21 22 23
3 0 1 36
3 15 16 45
3 0 17 36
3 16 26 45
3 17 18 37
3 25 26 44
3 17 36 37
3 26 44 45
3 18 19 38
3 24 25 43
3 18 37 38
3 25 43 44
3 19 20 38
3 23 24 43
3 20 21 39
3 22 23 42
3 20 38 39
3 23 42 43
3 21 22 27
3 21 27 39
3 22 27 42
3 27 28 42
3 27 28 39
3 28 42 47
3 28 39 40
3 1 36 41
3 15 45 46
3 1 2 41
3 14 15 46
3 28 29 40
3 28 29 47
3 2 40 41
3 14 46 47
3 2 29 40
3 14 29 47
3 2 3 29
3 13 14 29
3 29 30 31
3 29 30 35
3 3 29 31
3 13 29 35
3 30 32 33
3 30 33 34
3 30 31 32
3 30 34 35
3 3 4 31
3 12 13 35
3 4 5 48
3 11 12 54
3 5 6 48
3 10 11 54
3 6 48 59
3 10 54 55
3 6 7 59
3 9 10 55
3 7 58 59
3 9 55 56
3 8 57 58
3 8 56 57
3 7 8 58
3 8 9 56
3 4 31 48
3 12 35 54
3 31 48 49
3 35 53 54
3 31 49 50
3 35 52 53
3 31 32 50
3 34 35 52
3 32 33 50
3 33 34 52
3 33 50 51
3 33 51 52
3 48 49 60
3 49 60 50
3 50 60 61
3 50 51 61
3 51 52 61
3 61 62 52
3 52 53 62
3 53 54 62
3 54 55 63
3 55 56 63
3 56 63 64
3 56 57 64
3 64 65 57
3 57 58 65
3 58 59 65
3 48 59 65
