ply
format ascii 1.0
element vertex 66
property float x
property float y
property float z
property float u
property float v
element face 91
property list uchar int vertex_indices
end_header
-20.6435 -6.37423 21.1557 486.644 473.296
-19.8948 -0.873977 20.5302 486.94 494.355
-18.7974 4.59684 20.1317 488.568 515.552
-17.177 9.85311 18.5229 492.382 535.737
-14.9988 14.4985 13.3482 498.873 552.548
-12.0068 18.4046 7.90725 508.844 566.837
-8.23946 21.5862 3.28523 522.066 579.043
-3.86527 23.8991 -0.808323 537.983 588.429
1.14067 24.5003 -4.61601 557.107 591.71
6.29925 23.152 -0.647452 577.187 590.517
10.3446 19.8379 3.38085 593.94 581.332
13.5602 15.7838 7.90203 607.837 569.115
16.1974 11.4227 13.1958 619.613 555.738
18.2835 6.88751 18.0573 629.396 541.275
19.4516 2.13612 19.7539 635.996 524.38
19.7411 -2.70165 19.9859 639.383 506.194
19.4807 -7.53416 20.4322 640.649 487.845
-16.4177 -14.8992 0.0801956 508.343 435.098
-14.4413 -17.287 -1.65265 517.155 426.319
-11.6186 -18.6203 -2.89012 528.668 422.141
-8.50383 -18.7769 -4.18801 540.743 422.558
-5.42321 -18.1112 -5.32533 552.285 426.148
2.924 -18.2259 -5.29879 584.251 429.722
5.22073 -19.1406 -4.02031 593.375 427.814
7.71888 -19.4189 -2.67003 602.962 428.451
10.1947 -19.0177 -1.33752 612.143 431.656
12.3083 -17.6982 0.368929 619.476 438.32
-0.0593272 -12.269 -4.75186 569.979 451.162
0.130942 -9.10149 -7.75288 569.416 462.199
0.303877 -5.92407 -10.5426 568.768 473.343
0.459107 -2.74278 -12.9829 568.025 484.623
-2.07519 0.452492 -6.15999 556.334 498.087
-0.631095 0.804275 -7.02798 561.75 499.797
0.91196 0.89352 -7.82 567.664 500.584
2.21847 0.693916 -6.76512 572.678 500.84
3.35354 0.213569 -5.94714 577.188 499.858
-11.8295 -10.617 -1.36667 523.955 453.058
-10.2089 -11.5844 -1.13055 530.593 450.241
-8.21728 -11.9833 -0.84133 538.376 449.784
-6.39038 -11.4749 -0.662821 545.107 452.66
-8.1083 -10.6251 -1.09165 538.166 454.912
-10.0138 -10.3762 -1.12189 530.765 454.935
4.51911 -11.9098 -0.444103 587.007 456.314
6.14985 -12.5273 -0.646794 593.549 454.671
8.08931 -12.5325 -0.958185 600.989 455.466
9.73474 -11.7473 -1.17878 606.923 459.161
8.06446 -11.2098 -0.925928 600.264 460.499
6.22389 -11.273 -0.847128 593.251 459.406
-2.53818 9.902 -2.82026 549.842 535.058
-1.83232 8.19649 -5.08436 553.511 528.07
-0.742558 6.6092 -6.67952 558.544 521.963
0.842153 6.75668 -8.41326 564.656 522.643
2.30792 6.52483 -6.32151 570.222 523.236
3.37899 8.02923 -4.77324 573.492 530.046
3.92543 9.86643 -2.6133 574.556 538.096
3.44585 10.9553 -3.9876 572.304 541.503
2.53678 11.7909 -5.22276 568.519 543.791
1.09656 12.1219 -6.91774 562.976 543.734
-0.420703 11.7818 -5.47947 557.235 542.244
-1.56696 10.9501 -4.11243 553.15 539.034
0.540255 8.71122 -5.01965 562.333 531.189
0.97636 8.51174 -6.92558 564.231 529.936
1.32044 8.86042 -4.50199 565.208 532.322
1.27654 9.08459 -4.20208 564.913 533.265
1.06675 9.35247 -5.97332 564.11 533.53
0.728229 8.95638 -4.56941 562.904 532.379
3 20 21 23
3 21 22 23
3 0 1 36
3 15 16 45
3 0 17 36
3 16 26 45
3 17 18 37
3 25 26 44
3 17 36 37
3 26 44 45
3 18 19 38
3 24 25 43
3 18 37 38
3 25 43 44
3 19 20 38
3 23 24 43
3 20 21 39
3 22 23 42
3 20 38 39
3 23 42 43
3 21 22 27
3 21 27 39
3 22 27 42
3 27 28 42
3 27 28 39
3 28 42 47
3 28 39 40
3 1 36 41
3 15 45 46
3 1 2 41
3 14 15 46
3 28 29 40
3 28 29 47
3 2 40 41
3 14 46 47
3 2 29 40
3 14 29 47
3 2 3 29
3 13 14 29
3 29 30 31
3 29 30 35
3 3 29 31
3 13 29 35
3 30 32 33
3 30 33 34
3 30 31 32
3 30 34 35
3 3 4 31
3 12 13 35
3 4 5 48
3 11 12 54
3 5 6 48
3 10 11 54
3 6 48 59
3 10 54 55
3 6 7 59
3 9 10 55
3 7 58 59
3 9 55 56
3 8 57 58
3 8 56 57
3 7 8 58
3 8 9 56
3 4 31 48
3 12 35 54
3 31 48 49
3 35 53 54
3 31 49 50
3 35 52 53
3 31 32 50
3 34 35 52
3 32 33 50
3 33 34 52
3 33 50 51
3 33 51 52
3 48 49 60
3 49 60 50
3 50 60 61
3 50 51 61
3 51 52 61
3 61 62 52
3 52 53 62
3 53 54 62
3 54 55 63
3 55 56 63
3 56 63 64
3 56 57 64
3 64 65 57
3 57 58 65
3 58 59 65
3 48 59 65
