ply
format ascii 1.0
element vertex 66
property float x
property float y
property float z
property float u
property float v
element face 91
property list uchar int vertex_indices
end_header
-21.01 -5.74653 21.6446 478.698 467.081
-20.1036 -0.680186 21.0764 480.153 487.207
-18.9404 4.35491 20.702 482.592 507.37
-17.564 9.28027 18.5299 486.257 526.787
-15.5973 13.8044 13.5337 492.948 544.25
-12.4553 17.4483 8.02948 504.729 558.672
-8.48357 20.203 3.42793 519.98 570.187
-4.06456 22.1369 -0.877328 537.285 578.754
0.750925 22.6398 -4.53182 556.646 582.039
5.80171 21.7929 -0.878374 576.126 581.81
10.2079 19.2515 3.42157 593.695 574.802
13.9924 15.8709 7.9246 609.152 564.275
17.0627 11.8606 13.33 621.911 551.168
18.9196 7.28529 18.3263 630.237 535.211
19.7954 2.50435 20.5998 635.322 517.388
20.1983 -2.32867 20.9881 638.933 498.72
20.1996 -7.18096 21.378 640.979 479.797
-18.1582 -14.2353 0.262173 497.648 430.205
-15.8915 -16.2587 -1.51339 507.756 422.883
-12.9558 -17.2387 -2.95738 519.97 420.023
-9.83961 -17.3033 -4.28606 532.471 420.858
-6.74765 -16.7611 -5.36688 544.566 424.116
4.08378 -17.4303 -5.29845 587.32 426.345
6.62306 -18.3222 -4.11461 597.442 424.254
9.30898 -18.7204 -2.7734 607.893 424.2
12.0204 -18.5423 -1.252 618.159 426.456
14.4546 -17.3957 0.616578 626.85 432.462
-0.241405 -11.1652 -4.81663 567.538 449.073
0.0911733 -7.79739 -7.89385 567.96 461.714
0.406567 -4.44146 -10.9624 568.318 474.303
0.697883 -1.08423 -13.6656 568.512 486.97
-2.72619 1.61087 -6.47725 552.543 497.644
-0.882548 2.03882 -7.4586 559.773 499.92
1.03565 2.16186 -8.31536 567.404 501.062
2.70352 1.81007 -7.35395 573.915 500.648
4.23888 1.13109 -6.54519 580.078 498.858
-13.1612 -9.77289 -0.721389 515.486 449.696
-11.4811 -11.1516 -1.00171 522.729 444.98
-9.29057 -11.4294 -1.22227 531.482 444.819
-7.39238 -10.3433 -1.16581 538.442 449.935
-9.2351 -9.55612 -1.15407 530.87 452.199
-11.2397 -9.35957 -1.05234 522.904 452.098
5.03412 -11.0409 -0.742901 587.397 452.846
6.65363 -12.4062 -1.11604 594.413 448.134
8.81329 -12.6404 -0.94774 602.953 448.219
10.686 -11.5729 -0.60592 609.766 453.316
8.94097 -10.7363 -0.837273 602.603 455.762
6.95561 -10.6308 -0.780038 594.76 455.302
-7.28276 8.46763 -2.8168 530.99 523.313
-4.69813 7.03261 -5.00443 542.167 518.344
-1.9152 6.05136 -6.64531 553.82 515.367
0.973059 6.20454 -8.39735 565.413 516.856
3.6922 5.70819 -6.49946 575.932 516.559
6.40371 6.30276 -4.8587 585.994 520.474
8.85583 7.48927 -2.5758 594.659 526.74
6.7795 9.34985 -3.93309 585.964 532.793
4.02018 10.3835 -5.03729 574.903 535.359
1.10505 10.7141 -6.44373 563.594 535.032
-1.81704 10.6369 -5.12279 551.917 533.727
-4.72555 9.95443 -3.9108 540.578 530.031
-1.83181 7.97726 -5.54716 553.099 523.201
1.09222 8.05312 -7.52854 564.91 524.351
3.81254 7.69536 -5.26979 575.304 524.68
3.88524 7.84221 -4.56765 575.391 525.448
1.07499 8.06652 -6.2648 564.596 524.685
-1.83411 8.15793 -4.6815 552.847 524.106
3 20 21 23
3 21 22 23
3 0 1 36
3 15 16 45
3 0 17 36
3 16 26 45
3 17 18 37
3 25 26 44
3 17 36 37
3 26 44 45
3 18 19 38
3 24 25 43
3 18 37 38
3 25 43 44
3 19 20 38
3 23 24 43
3 20 21 39
3 22 23 42
3 20 38 39
3 23 42 43
3 21 22 27
3 21 27 39
3 22 27 42
3 27 28 42
3 27 28 39
3 28 42 47
3 28 39 40
3 1 36 41
3 15 45 46
3 1 2 41
3 14 15 46
3 28 29 40
3 28 29 47
3 2 40 41
3 14 46 47
3 2 29 40
3 14 29 47
3 2 3 29
3 13 14 29
3 29 30 31
3 29 30 35
3 3 29 31
3 13 29 35
3 30 32 33
3 30 33 34
3 30 31 32
3 30 34 35
3 3 4 31
3 12 13 35
3 4 5 48
3 11 12 54
3 5 6 48
3 10 11 54
3 6 48 59
3 10 54 55
3 6 7 59
3 9 10 55
3 7 58 59
3 9 55 56
3 8 57 58
3 8 56 57
3 7 8 58
3 8 9 56
3 4 31 48
3 12 35 54
3 31 48 49
3 35 53 54
3 31 49 50
3 35 52 53
3 31 32 50
3 34 35 52
3 32 33 50
3 33 34 52
3 33 50 51
3 33 51 52
3 48 49 60
3 49 60 50
3 50 60 61
3 50 51 61
3 51 52 61
3 61 62 52
3 52 53 62
3 53 54 62
3 54 55 63
3 55 56 63
3 56 63 64
3 56 57 64
3 64 65 57
3 57 58 65
3 58 59 65
3 48 59 65
