ply
format ascii 1.0
element vertex 66
property float x
property float y
property float z
property float u
property float v
element face 91
property list uchar int vertex_indices
end_header
-20.6664 -6.56385 21.4174 478.776 462.637
-19.8678 -1.2243 20.8211 479.694 484.165
-18.7542 4.08187 20.4234 481.839 505.751
-17.2461 9.2628 18.5346 485.953 526.684
-15.1959 14.0012 13.4133 493.168 545.374
-12.1714 17.9565 7.96835 504.696 561.32
-8.33661 21.0858 3.32263 519.646 574.527
-3.96785 23.3644 -0.82021 536.994 584.702
0.944214 24.054 -4.63968 557.151 588.865
6.00366 22.8551 -0.800388 576.996 587.292
10.1386 19.7806 3.34221 593.928 577.88
13.5592 15.9454 7.8674 608.266 565.19
16.4083 11.6798 13.169 620.341 550.694
18.4609 7.09063 18.1261 629.463 534.461
19.5504 2.35937 20.1624 635.474 516.558
19.9119 -2.40658 20.4831 638.988 497.792
19.7844 -7.18308 20.85 640.546 478.768
-17.4983 -14.3183 0.163567 499.761 428.389
-15.3937 -16.6599 -1.62354 509.619 419.622
-12.4482 -17.8839 -2.96056 522.225 415.804
-9.23444 -17.9374 -4.27488 535.37 416.782
-6.05429 -17.2381 -5.38509 547.994 420.793
3.15123 -17.4609 -5.32382 584.802 424.18
5.66644 -18.4857 -4.07764 595.012 421.539
8.37516 -18.9072 -2.73593 605.701 421.415
11.0807 -18.5836 -1.32264 616.025 424.277
13.3952 -17.2186 0.507607 624.225 431.204
-0.179872 -11.4844 -4.83988 568.713 446.58
0.0539721 -8.41574 -7.87839 568.958 458.24
0.270628 -5.33672 -10.7192 569.085 469.979
0.473805 -2.25529 -13.1901 569.073 481.804
-2.47464 0.586552 -6.2569 554.448 493.334
-0.807087 1.01374 -7.17778 561.118 495.602
0.949077 1.13687 -8.03147 568.263 496.714
2.46728 0.82818 -6.99962 574.222 496.419
3.81987 0.190389 -6.24532 579.733 494.672
-12.3274 -9.90861 -1.13761 518.7 448.074
-10.7645 -10.8756 -1.10831 525.363 444.949
-8.84561 -11.2403 -1.03455 533.165 444.399
-7.06536 -10.7307 -0.947107 540.017 447.275
-8.73395 -9.95261 -1.15129 533.057 449.56
-10.5538 -9.72485 -1.12454 525.689 449.631
4.85437 -11.2759 -0.639808 587.741 450.689
6.42877 -11.9509 -0.914198 594.388 448.665
8.29898 -12.0209 -0.983606 601.896 449.236
9.94244 -11.2985 -0.908867 608.11 452.894
8.31538 -10.7635 -0.879137 601.371 454.281
6.53954 -10.7748 -0.809851 594.277 453.429
-4.98034 8.97094 -2.7822 539.884 526.393
-3.60145 6.88899 -5.02791 546.834 518.223
-1.58524 5.25948 -6.59676 555.969 512.304
0.939809 5.2761 -8.33471 566.432 513.148
3.34218 4.98276 -6.28341 575.678 513.553
5.38101 6.32539 -4.76057 582.859 520.194
6.71622 8.35999 -2.56547 586.768 529.421
5.63218 10.3583 -3.93152 581.856 536.58
3.80768 11.799 -5.14237 574.206 541.207
1.35771 12.3354 -6.82286 564.575 541.833
-1.16615 11.9893 -5.33067 554.322 539.621
-3.27948 10.7634 -3.96965 546.133 534.061
-0.745628 7.53589 -5.18764 557.972 522.089
1.1149 7.31406 -7.13812 565.939 521.626
2.86449 7.4078 -4.80159 572.342 523.336
3.00753 8.83907 -4.34187 572.164 529.214
1.29823 9.40732 -6.05107 565.48 530.303
-0.555994 8.99444 -4.56178 557.929 528.134
3 20 21 23
3 21 22 23
3 0 1 36
3 15 16 45
3 0 17 36
3 16 26 45
3 17 18 37
3 25 26 44
3 17 36 37
3 26 44 45
3 18 19 38
3 24 25 43
3 18 37 38
3 25 43 44
3 19 20 38
3 23 24 43
3 20 21 39
3 22 23 42
3 20 38 39
3 23 42 43
3 21 22 27
3 21 27 39
3 22 27 42
3 27 28 42
3 27 28 39
3 28 42 47
3 28 39 40
3 1 36 41
3 15 45 46
3 1 2 41
3 14 15 46
3 28 29 40
3 28 29 47
3 2 40 41
3 14 46 47
3 2 29 40
3 14 29 47
3 2 3 29
3 13 14 29
3 29 30 31
3 29 30 35
3 3 29 31
3 13 29 35
3 30 32 33
3 30 33 34
3 30 31 32
3 30 34 35
3 3 4 31
3 12 13 35
3 4 5 48
3 11 12 54
3 5 6 48
3 10 11 54
3 6 48 59
3 10 54 55
3 6 7 59
3 9 10 55
3 7 58 59
3 9 55 56
3 8 57 58
3 8 56 57
3 7 8 58
3 8 9 56
3 4 31 48
3 12 35 54
3 31 48 49
3 35 53 54
3 31 49 50
3 35 52 53
3 31 32 50
3 34 35 52
3 32 33 50
3 33 34 52
3 33 50 51
3 33 51 52
3 48 49 60
3 49 60 50
3 50 60 61
3 50 51 61
3 51 52 61
3 61 62 52
3 52 53 62
3 53 54 62
3 54 55 63
3 55 56 63
3 56 63 64
3 56 57 64
3 64 65 57
3 57 58 65
3 58 59 65
3 48 59 65
