ply
format ascii 1.0
element vertex 66
property float x
property float y
property float z
property float u
property float v
element face 91
property list uchar int vertex_indices
end_header
-20.6747 -5.94371 21.521 479.992 465.592
-19.8183 -0.78034 20.9376 481.257 486.252
-18.6955 4.35483 20.5572 483.55 506.964
-17.3058 9.33054 18.5021 487.28 526.786
-15.345 13.8418 13.5462 494.011 544.367
-12.2916 17.5359 8.0472 505.519 559.079
-8.39837 20.3944 3.38006 520.557 571.048
-4.00758 22.4521 -0.850001 537.828 580.169
0.874727 22.9481 -4.53904 557.618 583.457
5.9602 22.0803 -0.842713 577.426 583.113
10.2816 19.4178 3.38406 594.888 575.456
13.9184 15.9391 7.96267 609.929 564.349
16.8114 11.8829 13.3778 622.12 550.819
18.6045 7.32632 18.2984 630.268 534.711
19.4724 2.51064 20.4523 635.383 516.545
19.8275 -2.39878 20.8245 638.841 497.377
19.7807 -7.317 21.243 640.704 478.007
-17.757 -14.319 0.24928 499.12 428.96
-15.5861 -16.3813 -1.51146 508.929 421.37
-12.7401 -17.4187 -2.94198 520.904 418.205
-9.70328 -17.5199 -4.28158 533.213 418.846
-6.69662 -16.9943 -5.38504 545.088 422.005
3.86175 -17.5243 -5.33207 587.083 424.595
6.36621 -18.396 -4.12062 597.143 422.532
9.0255 -18.7464 -2.76609 607.564 422.63
11.7007 -18.4793 -1.26772 617.754 425.209
14.0745 -17.2473 0.563017 626.273 431.545
-0.298765 -11.4859 -4.86998 567.924 446.731
0.0151198 -8.19962 -7.90213 568.31 459.176
0.31204 -4.92211 -10.8785 568.623 471.591
0.590102 -1.64034 -13.5071 568.794 484.094
-2.61352 1.20317 -6.42296 553.569 495.52
-0.869183 1.56471 -7.36941 560.491 497.507
0.942445 1.64931 -8.19854 567.777 498.456
2.53362 1.35026 -7.25631 574.026 498.191
4.00084 0.751578 -6.45932 579.942 496.654
-12.794 -9.96297 -0.886567 517.085 448.122
-11.0837 -11.1462 -1.01766 524.388 444.171
-8.96396 -11.4357 -1.12719 532.92 443.94
-7.07588 -10.5863 -1.05828 540.011 448.15
-8.91693 -9.89172 -1.13342 532.44 450.064
-10.8908 -9.68019 -1.08076 524.529 450.038
4.79204 -11.21 -0.697987 587.17 451.018
6.44757 -12.3113 -1.02776 594.258 447.323
8.53688 -12.4855 -0.95507 602.587 447.575
10.3976 -11.6016 -0.756944 609.53 451.938
8.63991 -10.9315 -0.880282 602.308 453.781
6.6865 -10.8622 -0.801017 594.535 453.209
-6.53446 8.71259 -2.78687 534.131 524.295
-4.29256 7.16757 -4.98042 544.078 518.683
-1.77633 6.02756 -6.63461 554.835 514.915
0.943847 6.11393 -8.42423 565.894 516.056
3.52223 5.71635 -6.46026 575.902 516.07
6.0078 6.51469 -4.81521 585.084 520.698
8.16421 7.8561 -2.5736 592.619 527.463
6.40309 9.76526 -3.95138 585.082 533.92
3.95864 10.9695 -5.09174 575.102 537.341
1.15944 11.3738 -6.54829 564.123 537.37
-1.66696 11.2121 -5.19639 552.758 535.786
-4.29076 10.3076 -3.94641 542.535 531.331
-1.77918 7.90969 -5.41855 553.784 522.63
1.05482 7.79277 -7.47875 565.431 522.956
3.73645 7.63655 -5.14354 575.674 524.054
3.87147 8.50379 -4.48207 575.71 527.692
1.12635 8.90004 -6.18294 564.994 527.658
-1.73136 8.8059 -4.60549 553.434 526.378
3 20 21 23
3 21 22 23
3 0 1 36
3 15 16 45
3 0 17 36
3 16 26 45
3 17 18 37
3 25 26 44
3 17 36 37
3 26 44 45
3 18 19 38
3 24 25 43
3 18 37 38
3 25 43 44
3 19 20 38
3 23 24 43
3 20 21 39
3 22 23 42
3 20 38 39
3 23 42 43
3 21 22 27
3 21 27 39
3 22 27 42
3 27 28 42
3 27 28 39
3 28 42 47
3 28 39 40
3 1 36 41
3 15 45 46
3 1 2 41
3 14 15 46
3 28 29 40
3 28 29 47
3 2 40 41
3 14 46 47
3 2 29 40
3 14 29 47
3 2 3 29
3 13 14 29
3 29 30 31
3 29 30 35
3 3 29 31
3 13 29 35
3 30 32 33
3 30 33 34
3 30 31 32
3 30 34 35
3 3 4 31
3 12 13 35
3 4 5 48
3 11 12 54
3 5 6 48
3 10 11 54
3 6 48 59
3 10 54 55
3 6 7 59
3 9 10 55
3 7 58 59
3 9 55 56
3 8 57 58
3 8 56 57
3 7 8 58
3 8 9 56
3 4 31 48
3 12 35 54
3 31 48 49
3 35 53 54
3 31 49 50
3 35 52 53
3 31 32 50
3 34 35 52
3 32 33 50
3 33 34 52
3 33 50 51
3 33 51 52
3 48 49 60
3 49 60 50
3 50 60 61
3 50 51 61
3 51 52 61
3 61 62 52
3 52 53 62
3 53 54 62
3 54 55 63
3 55 56 63
3 56 63 64
3 56 57 64
3 64 65 57
3 57 58 65
3 58 59 65
3 48 59 65
