ply
format ascii 1.0
element vertex 66
property float x
property float y
property float z
property float u
property float v
element face 91
property list uchar int vertex_indices
end_header
-20.8611 -5.61063 21.6133 486.875 466.622
-19.9325 -0.481527 21.0276 487.882 487.003
-18.7364 4.61586 20.6462 489.93 507.396
-17.353 9.54847 18.5698 492.898 527.267
-15.4285 13.9831 13.5279 498.413 545.522
-12.3682 17.5619 8.06154 508.8 561.045
-8.47756 20.3158 3.44265 522.777 573.783
-4.09865 22.2497 -0.879593 539.049 583.588
0.732683 22.6682 -4.48857 557.807 587.736
5.86371 21.8734 -0.780056 577.877 587.239
10.241 19.2657 3.52275 595.915 579.314
13.9156 15.7988 8.03366 611.655 567.693
16.8638 11.7811 13.3828 624.806 553.552
18.673 7.27082 18.3869 633.815 536.92
19.5624 2.48562 20.5217 639.582 518.787
19.9911 -2.40275 20.8696 643.732 500.039
19.9944 -7.3019 21.2698 646.233 481.03
-18.0507 -14.1906 0.236399 503.565 435.052
-15.8068 -16.1582 -1.52456 513.392 428.593
-12.947 -17.1211 -2.95232 525.071 426.343
-9.92172 -17.228 -4.2959 536.948 427.498
-6.91005 -16.7799 -5.39361 548.47 430.796
4.24458 -17.3678 -5.3898 592.037 434.24
6.76497 -18.1163 -4.19126 602.12 432.614
9.40618 -18.4144 -2.83439 612.43 432.796
12.0595 -18.1597 -1.32738 622.493 435.126
14.4369 -16.9725 0.537194 630.984 440.928
-0.266218 -11.7161 -4.80311 571.602 453.842
0.0538312 -8.29498 -7.89495 571.288 467.317
0.353771 -4.88674 -10.9523 570.9 480.731
0.631666 -1.47016 -13.6144 570.397 494.161
-2.68487 1.63251 -6.52535 555.481 504.405
-0.867278 2.04733 -7.46663 562.379 506.959
1.0288 2.15614 -8.26331 569.729 508.364
2.67692 1.8324 -7.34046 576.228 507.943
4.1835 1.18021 -6.56119 582.356 506.176
-13.1122 -10.1767 -0.750912 520.723 453.17
-11.3756 -11.5165 -0.97205 528.161 448.866
-9.16364 -11.7906 -1.13964 536.893 448.94
-7.24202 -10.7199 -1.10674 543.794 454.08
-9.13409 -9.98412 -1.12966 536.079 455.963
-11.1722 -9.78424 -1.042 528.066 455.692
4.88249 -11.3244 -0.757179 591.11 457.952
6.53366 -12.6319 -1.07137 598.206 453.731
8.70196 -12.8365 -0.949285 606.713 454.048
10.5942 -11.7895 -0.667899 613.497 459.077
8.82394 -11.0151 -0.868208 606.246 461.175
6.81883 -10.9425 -0.812091 598.428 460.427
-6.77949 8.72015 -2.81395 535.72 529.752
-4.39812 7.19223 -5.01885 545.884 525.075
-1.78873 6.10821 -6.68705 556.67 522.23
0.960671 6.24045 -8.46593 567.381 524.176
3.56284 5.80364 -6.4965 577.571 523.792
6.11971 6.53763 -4.82796 587.004 527.93
8.38174 7.85707 -2.5433 594.952 534.18
6.45271 9.60149 -3.8683 586.661 539.974
3.88246 10.5861 -5.00758 576.26 542.49
1.11198 10.8707 -6.46244 565.462 542.19
-1.66547 10.8052 -5.15092 554.638 540.494
-4.38581 10.1304 -3.90905 544.352 536.465
-1.63394 8.08889 -5.53084 556.179 529.978
1.08272 8.08297 -7.48809 566.846 531.374
3.62761 7.85563 -5.20403 576.685 531.769
3.67405 8.00098 -4.49937 576.745 532.348
1.07981 8.1726 -6.24873 566.708 531.704
-1.60301 8.26383 -4.68051 556.154 530.662
3 20 21 23
3 21 22 23
3 0 1 36
3 15 16 45
3 0 17 36
3 16 26 45
3 17 18 37
3 25 26 44
3 17 36 37
3 26 44 45
3 18 19 38
3 24 25 43
3 18 37 38
3 25 43 44
3 19 20 38
3 23 24 43
3 20 21 39
3 22 23 42
3 20 38 39
3 23 42 43
3 21 22 27
3 21 27 39
3 22 27 42
3 27 28 42
3 27 28 39
3 28 42 47
3 28 39 40
3 1 36 41
3 15 45 46
3 1 2 41
3 14 15 46
3 28 29 40
3 28 29 47
3 2 40 41
3 14 46 47
3 2 29 40
3 14 29 47
3 2 3 29
3 13 14 29
3 29 30 31
3 29 30 35
3 3 29 31
3 13 29 35
3 30 32 33
3 30 33 34
3 30 31 32
3 30 34 35
3 3 4 31
3 12 13 35
3 4 5 48
3 11 12 54
3 5 6 48
3 10 11 54
3 6 48 59
3 10 54 55
3 6 7 59
3 9 10 55
3 7 58 59
3 9 55 56
3 8 57 58
3 8 56 57
3 7 8 58
3 8 9 56
3 4 31 48
3 12 35 54
3 31 48 49
3 35 53 54
3 31 49 50
3 35 52 53
3 31 32 50
3 34 35 52
3 32 33 50
3 33 34 52
3 33 50 51
3 33 51 52
3 48 49 60
3 49 60 50
3 50 60 61
3 50 51 61
3 51 52 61
3 61 62 52
3 52 53 62
3 53 54 62
3 54 55 63
3 55 56 63
3 56 63 64
3 56 57 64
3 64 65 57
3 57 58 65
3 58 59 65
3 48 59 65
