ply
format ascii 1.0
element vertex 66
property float x
property float y
property float z
property float u
property float v
element face 91
property list uchar int vertex_indices
end_header
-20.8322 -6.03538 21.4703 480.107 465.795
-19.932 -0.895775 20.887 481.307 486.47
-18.7345 4.20553 20.5048 483.664 507.186
-17.2215 9.1825 18.5153 487.654 527.196
-15.1411 13.7191 13.4879 494.711 545.045
-12.0557 17.4452 8.04093 506.23 560.084
-8.21334 20.3731 3.41483 520.972 572.523
-3.9111 22.5352 -0.825495 537.831 582.245
0.892681 23.1507 -4.5303 557.319 586.21
5.86178 22.1243 -0.857625 576.785 585.445
10.0182 19.3024 3.37158 593.786 577.292
13.5445 15.7459 7.89952 608.584 565.985
16.484 11.6996 13.248 621.128 552.636
18.4966 7.22273 18.1574 630.293 537.021
19.5471 2.56483 20.2931 636.285 519.577
19.9888 -2.14068 20.6443 640.241 501.233
19.9741 -6.86533 21.0403 642.389 482.598
-17.7973 -14.4614 0.206326 500.457 429.033
-15.5873 -16.6587 -1.557 510.634 421.016
-12.6173 -17.7895 -2.95405 523.236 417.684
-9.41555 -17.8697 -4.27725 536.233 418.647
-6.23886 -17.2592 -5.37243 548.752 422.386
3.35347 -17.6179 -5.29257 586.943 425.729
5.87326 -18.5917 -4.06026 597.159 423.401
8.56859 -19.0174 -2.71008 607.782 423.358
11.2892 -18.8293 -1.23679 618.184 425.787
13.7206 -17.6719 0.555595 626.907 431.987
-0.187438 -11.5632 -4.81127 569.879 448.076
0.0971726 -8.32643 -7.84547 570.048 460.345
0.366076 -5.09407 -10.8035 570.141 472.605
0.616674 -1.86172 -13.4193 570.094 484.935
-2.4674 1.11143 -6.35359 555.018 496.81
-0.764395 1.50956 -7.3047 561.768 499.012
1.01675 1.61447 -8.16812 568.951 500.111
2.56187 1.31424 -7.14959 575.019 499.919
3.96278 0.696166 -6.34371 580.712 498.349
-12.5738 -10.0343 -0.916821 519.251 448.899
-10.9882 -11.1835 -1.0183 526.114 445.107
-8.97314 -11.5022 -1.08304 534.271 444.827
-7.17073 -10.7321 -1.042 541.037 448.779
-8.89095 -9.96768 -1.14338 533.867 450.933
-10.7641 -9.74839 -1.07936 526.321 450.89
4.94365 -11.3443 -0.6671 589.291 452.433
6.50843 -12.3301 -0.934181 596.025 449.241
8.48558 -12.4765 -0.899042 603.928 449.647
10.2046 -11.5972 -0.725978 610.284 454.021
8.55226 -10.9289 -0.83884 603.432 455.825
6.70901 -10.8913 -0.780774 596.094 455.075
-6.022 9.05372 -2.81957 536.378 527.33
-4.01857 7.40153 -5.02998 545.562 521.268
-1.67557 6.09331 -6.62487 555.802 516.878
0.975665 6.19436 -8.3784 566.616 518.187
3.4786 5.80659 -6.38737 576.33 518.346
5.78839 6.80628 -4.82191 584.692 523.809
7.67928 8.32635 -2.62052 591.015 531.273
6.1078 10.1706 -4.00657 584.169 537.484
3.84867 11.345 -5.09796 574.862 540.768
1.22252 11.7625 -6.58706 564.544 540.781
-1.44467 11.5419 -5.22739 553.804 538.9
-3.91083 10.6225 -3.99403 544.225 534.32
-1.17995 8.19543 -5.38043 556.503 525.737
1.11492 8.12035 -7.36591 566.034 526.119
3.25374 8.01824 -5.04186 574.1 527.306
3.32852 8.58583 -4.49546 574.013 529.718
1.18193 8.93608 -6.20159 565.673 529.652
-1.08346 8.78828 -4.65426 556.454 528.3
3 20 21 23
3 21 22 23
3 0 1 36
3 15 16 45
3 0 17 36
3 16 26 45
3 17 18 37
3 25 26 44
3 17 36 37
3 26 44 45
3 18 19 38
3 24 25 43
3 18 37 38
3 25 43 44
3 19 20 38
3 23 24 43
3 20 21 39
3 22 23 42
3 20 38 39
3 23 42 43
3 21 22 27
3 21 27 39
3 22 27 42
3 27 28 42
3 27 28 39
3 28 42 47
3 28 39 40
3 1 36 41
3 15 45 46
3 1 2 41
3 14 15 46
3 28 29 40
3 28 29 47
3 2 40 41
3 14 46 47
3 2 29 40
3 14 29 47
3 2 3 29
3 13 14 29
3 29 30 31
3 29 30 35
3 3 29 31
3 13 29 35
3 30 32 33
3 30 33 34
3 30 31 32
3 30 34 35
3 3 4 31
3 12 13 35
3 4 5 48
3 11 12 54
3 5 6 48
3 10 11 54
3 6 48 59
3 10 54 55
3 6 7 59
3 9 10 55
3 7 58 59
3 9 55 56
3 8 57 58
3 8 56 57
3 7 8 58
3 8 9 56
3 4 31 48
3 12 35 54
3 31 48 49
3 35 53 54
3 31 49 50
3 35 52 53
3 31 32 50
3 34 35 52
3 32 33 50
3 33 34 52
3 33 50 51
3 33 51 52
3 48 49 60
3 49 60 50
3 50 60 61
3 50 51 61
3 51 52 61
3 61 62 52
3 52 53 62
3 53 54 62
3 54 55 63
3 55 56 63
3 56 63 64
3 56 57 64
3 64 65 57
3 57 58 65
3 58 59 65
3 48 59 65
