ply
format ascii 1.0
element vertex 66
property float x
property float y
property float z
property float u
property float v
element face 91
property list uchar int vertex_indices
end_header
-20.8765 -5.60504 21.5149 478.948 462.194
-20.0339 -0.525863 20.9311 479.744 482.976
-18.9278 4.52371 20.5612 481.587 503.797
-17.5355 9.44841 18.4749 484.861 524.111
-15.5423 13.9496 13.4938 491.136 542.774
-12.4448 17.5914 7.98823 502.361 558.521
-8.52721 20.3545 3.37431 517.226 571.253
-4.15868 22.3339 -0.858375 534.262 581.112
0.634038 22.8703 -4.57142 553.691 585.449
5.74679 21.9644 -0.772634 574.207 584.854
10.1268 19.2861 3.44741 592.657 576.796
13.8708 15.796 7.9593 608.941 565.171
16.891 11.6916 13.3622 622.529 550.78
18.8027 7.06877 18.2809 632 533.679
19.7454 2.2409 20.4692 638.035 514.994
20.1173 -2.64477 20.82 642.043 495.607
20.0539 -7.54446 21.1916 644.307 475.937
-17.6926 -14.266 0.236971 498.965 427.145
-15.5642 -16.3521 -1.53495 508.825 419.728
-12.7281 -17.4225 -2.93815 520.949 416.796
-9.67735 -17.5413 -4.2547 533.424 417.804
-6.64025 -17.0393 -5.3445 545.491 421.32
3.85384 -17.5539 -5.35722 587.887 424.78
6.39489 -18.4275 -4.14889 598.392 422.722
9.08287 -18.7764 -2.79681 609.193 422.861
11.7705 -18.4833 -1.29856 619.638 425.591
14.127 -17.2295 0.512802 628.211 432.033
-0.241706 -11.4404 -4.83387 568.179 447.215
0.0464582 -8.25809 -7.83964 568.05 459.867
0.316995 -5.0837 -10.8204 567.852 472.48
0.566408 -1.90925 -13.4784 567.528 485.112
-2.58868 1.16176 -6.35784 552.351 496.433
-0.847798 1.5371 -7.33513 559.266 498.767
0.962876 1.63807 -8.2138 566.593 500.046
2.5433 1.33292 -7.20895 572.97 499.745
3.99797 0.730667 -6.39898 579.022 498.168
-12.6461 -9.88214 -0.879381 517.068 447.301
-11.0526 -11.0908 -1.02347 524.116 443.274
-9.01149 -11.3931 -1.11055 532.478 443.128
-7.19644 -10.5547 -1.03336 539.315 447.457
-8.92448 -9.75582 -1.12572 531.972 449.745
-10.8217 -9.542 -1.06915 524.237 449.61
5.07354 -11.2222 -0.69323 588.876 451.271
6.65051 -12.2926 -1.02493 595.809 447.774
8.65766 -12.4395 -0.971224 603.936 448.246
10.3957 -11.5091 -0.774574 610.401 452.915
8.73182 -10.7985 -0.885002 603.363 454.881
6.86138 -10.7512 -0.808684 595.82 454.093
-6.44477 8.89185 -2.85082 532.378 525.759
-4.22766 7.33676 -5.01842 542.368 520.484
-1.7561 6.1393 -6.64394 553.122 516.829
0.946401 6.26529 -8.3729 564.124 518.599
3.51266 5.84305 -6.44268 574.402 518.433
5.94793 6.71856 -4.81468 583.512 523.381
8.0526 8.08297 -2.58133 590.963 530.172
6.22267 9.78927 -3.94527 582.897 535.933
3.7853 10.8045 -5.08096 572.725 538.621
1.09104 11.1483 -6.57098 561.919 538.445
-1.60246 11.0144 -5.22507 551.006 536.613
-4.18761 10.2966 -3.95347 540.843 532.486
-1.46902 8.09777 -5.4387 553.096 524.954
1.05571 8.06521 -7.39962 563.497 525.973
3.4207 7.89044 -5.12769 572.793 526.725
3.46876 8.30258 -4.4903 572.69 528.464
1.07264 8.58508 -6.23993 563.145 528.175
-1.42618 8.54296 -4.65933 552.936 526.835
3 20 21 23
3 21 22 23
3 0 1 36
3 15 16 45
3 0 17 36
3 16 26 45
3 17 18 37
3 25 26 44
3 17 36 37
3 26 44 45
3 18 19 38
3 24 25 43
3 18 37 38
3 25 43 44
3 19 20 38
3 23 24 43
3 20 21 39
3 22 23 42
3 20 38 39
3 23 42 43
3 21 22 27
3 21 27 39
3 22 27 42
3 27 28 42
3 27 28 39
3 28 42 47
3 28 39 40
3 1 36 41
3 15 45 46
3 1 2 41
3 14 15 46
3 28 29 40
3 28 29 47
3 2 40 41
3 14 46 47
3 2 29 40
3 14 29 47
3 2 3 29
3 13 14 29
3 29 30 31
3 29 30 35
3 3 29 31
3 13 29 35
3 30 32 33
3 30 33 34
3 30 31 32
3 30 34 35
3 3 4 31
3 12 13 35
3 4 5 48
3 11 12 54
3 5 6 48
3 10 11 54
3 6 48 59
3 10 54 55
3 6 7 59
3 9 10 55
3 7 58 59
3 9 55 56
3 8 57 58
3 8 56 57
3 7 8 58
3 8 9 56
3 4 31 48
3 12 35 54
3 31 48 49
3 35 53 54
3 31 49 50
3 35 52 53
3 31 32 50
3 34 35 52
3 32 33 50
3 33 34 52
3 33 50 51
3 33 51 52
3 48 49 60
3 49 60 50
3 50 60 61
3 50 51 61
3 51 52 61
3 61 62 52
3 52 53 62
3 53 54 62
3 54 55 63
3 55 56 63
3 56 63 64
3 56 57 64
3 64 65 57
3 57 58 65
3 58 59 65
3 48 59 65
