ply
format ascii 1.0
element vertex 66
property float x
property float y
property float z
property float u
property float v
element face 91
property list uchar int vertex_indices
end_header
-21.1784 -6.42853 21.6758 481 465.735
-20.2804 -1.04146 21.0625 482.379 486.756
-19.1144 4.31492 20.6126 484.783 507.816
-17.6714 9.5499 18.6109 488.552 528.086
-15.672 14.2797 13.4751 495.173 545.753
-12.4926 18.0249 7.96544 506.824 560.003
-8.44019 20.7904 3.38881 522.109 571.095
-3.9343 22.6746 -0.847219 539.456 579.067
0.964516 23.1187 -4.60044 558.835 581.773
5.99288 22.0107 -0.790788 578.162 580.666
10.206 19.1362 3.45141 594.984 572.514
13.7743 15.5237 7.91181 609.575 561.301
16.748 11.4299 13.2546 621.922 548.229
18.8222 6.97535 18.1246 631.005 533.253
19.8929 2.40546 20.277 636.676 516.646
20.3044 -2.20224 20.5771 640.1 499.096
20.25 -6.82456 20.9465 641.714 481.315
-18.0722 -14.3804 0.187073 499.639 430.251
-15.7552 -16.6598 -1.57803 509.817 421.913
-12.6614 -17.8293 -2.95334 522.491 418.299
-9.32851 -17.8782 -4.24667 535.62 419.139
-6.02337 -17.1855 -5.31362 548.305 422.897
3.34254 -17.3217 -5.31603 584.632 426.285
5.86688 -18.2898 -4.08782 594.61 423.944
8.57958 -18.7027 -2.74538 605.073 423.861
11.3148 -18.5035 -1.27376 615.354 426.188
13.7562 -17.3214 0.531529 624.044 432.285
-0.0594718 -11.5202 -4.83893 569.019 447.417
0.145128 -8.21373 -7.88698 568.942 459.422
0.330456 -4.90999 -10.855 568.779 471.43
0.502763 -1.60625 -13.4817 568.513 483.53
-2.53671 1.14246 -6.39277 554.51 494.878
-0.802722 1.57493 -7.32364 561.195 497.012
1.01608 1.70304 -8.18284 568.321 498.025
2.5646 1.40708 -7.14086 574.275 497.822
3.95823 0.779753 -6.34221 579.803 496.206
-12.636 -9.94651 -1.00003 519.071 449.323
-10.9513 -10.9993 -1.09115 526.038 445.933
-8.90421 -11.32 -1.09554 534.098 445.548
-7.02545 -10.5939 -0.947907 541.054 449.181
-8.83922 -9.92917 -1.10355 533.784 450.948
-10.7624 -9.73495 -1.09619 526.256 450.897
4.96314 -11.0796 -0.73732 587.647 452.374
6.5963 -11.9217 -0.983329 594.354 449.733
8.56471 -12.0435 -0.957218 602.022 450.092
10.2977 -11.2104 -0.76037 608.363 454.092
8.58587 -10.6629 -0.874581 601.529 455.46
6.73446 -10.6652 -0.822498 594.352 454.692
-6.1647 8.79569 -2.8113 536.78 523.947
-4.0815 7.20821 -5.06163 545.848 518.049
-1.68924 5.97142 -6.67523 555.869 513.815
0.971298 6.08429 -8.37679 566.393 514.883
3.47867 5.69688 -6.31654 575.938 515.015
5.80644 6.60878 -4.74996 584.336 519.953
7.71918 8.10064 -2.59188 590.797 527.125
6.09639 9.75574 -3.88893 584.042 532.478
3.84282 10.7719 -5.00123 575.075 535.15
1.27293 11.1265 -6.57983 565.225 535.001
-1.38391 10.9614 -5.22527 554.791 533.634
-3.90779 10.1943 -3.97616 545.134 529.967
-1.22692 7.95536 -5.45635 556.66 522.018
1.14586 7.90694 -7.33981 566.164 522.292
3.37578 7.78238 -4.9993 574.484 523.402
3.47938 8.21923 -4.40427 574.614 525.301
1.24525 8.51719 -6.2313 566.127 525.004
-1.10788 8.42785 -4.6991 556.81 524.107
3 20 21 23
3 21 22 23
3 0 1 36
3 15 16 45
3 0 17 36
3 16 26 45
3 17 18 37
3 25 26 44
3 17 36 37
3 26 44 45
3 18 19 38
3 24 25 43
3 18 37 38
3 25 43 44
3 19 20 38
3 23 24 43
3 20 21 39
3 22 23 42
3 20 38 39
3 23 42 43
3 21 22 27
3 21 27 39
3 22 27 42
3 27 28 42
3 27 28 39
3 28 42 47
3 28 39 40
3 1 36 41
3 15 45 46
3 1 2 41
3 14 15 46
3 28 29 40
3 28 29 47
3 2 40 41
3 14 46 47
3 2 29 40
3 14 29 47
3 2 3 29
3 13 14 29
3 29 30 31
3 29 30 35
3 3 29 31
3 13 29 35
3 30 32 33
3 30 33 34
3 30 31 32
3 30 34 35
3 3 4 31
3 12 13 35
3 4 5 48
3 11 12 54
3 5 6 48
3 10 11 54
3 6 48 59
3 10 54 55
3 6 7 59
3 9 10 55
3 7 58 59
3 9 55 56
3 8 57 58
3 8 56 57
3 7 8 58
3 8 9 56
3 4 31 48
3 12 35 54
3 31 48 49
3 35 53 54
3 31 49 50
3 35 52 53
3 31 32 50
3 34 35 52
3 32 33 50
3 33 34 52
3 33 50 51
3 33 51 52
3 48 49 60
3 49 60 50
3 50 60 61
3 50 51 61
3 51 52 61
3 61 62 52
3 52 53 62
3 53 54 62
3 54 55 63
3 55 56 63
3 56 63 64
3 56 57 64
3 64 65 57
3 57 58 65
3 58 59 65
3 48 59 65
