ply
format ascii 1.0
element vertex 66
property float x
property float y
property float z
property float u
property float v
element face 91
property list uchar int vertex_indices
end_header
-20.4447 -6.60534 21.0418 486.437 473.335
-19.737 -1.14347 20.4948 486.537 494.536
-18.6388 4.27834 20.0873 488.166 515.825
-16.9626 9.53988 18.3873 492.148 536.296
-14.783 14.3483 13.1863 498.403 553.961
-11.8441 18.4844 7.86311 507.929 569.358
-8.11074 21.8248 3.25909 520.899 582.342
-3.78209 24.2751 -0.765254 536.591 592.399
1.18754 25.038 -4.63074 555.583 596.321
6.30384 23.6074 -0.595303 575.982 594.8
10.3322 20.2374 3.35322 593.113 585.238
13.5072 16.0555 7.84765 607.316 572.333
16.058 11.4804 13.0165 619.274 557.859
18.0868 6.7739 17.9493 629.281 542.537
19.2691 1.99077 19.698 636.137 525.32
19.5467 -2.81205 19.9376 639.542 507.026
19.2435 -7.60864 20.3217 640.69 488.526
-16.2758 -14.7635 0.0743325 507.161 436.099
-14.377 -17.2337 -1.72028 515.77 426.831
-11.5758 -18.6593 -2.90645 527.349 422.256
-8.42871 -18.81 -4.17164 539.65 422.737
-5.31034 -18.1091 -5.31614 551.422 426.532
2.78425 -18.2206 -5.29611 582.832 430.051
5.14369 -19.1311 -4.02536 592.378 428.163
7.68978 -19.3723 -2.72984 602.321 428.955
10.1542 -18.8013 -1.46449 611.553 432.829
12.1604 -17.3092 0.361099 618.546 440.239
-0.0504303 -11.8915 -4.81616 568.758 453.254
0.150599 -8.94965 -7.79048 568.192 463.587
0.331903 -5.98365 -10.4773 567.529 474.112
0.493652 -3.0164 -12.7922 566.778 484.77
-2.00477 -0.0279849 -6.15321 555.455 497.548
-0.580337 0.289848 -6.91682 560.84 499.183
0.924718 0.389453 -7.67137 566.644 500.019
2.18571 0.178154 -6.66538 571.602 500.193
3.29185 -0.270585 -5.96345 576.085 499.263
-11.5932 -10.3472 -1.49616 523.197 454.824
-10.0457 -11.1684 -1.21394 529.583 452.516
-8.18082 -11.578 -0.836297 536.995 451.985
-6.43687 -11.2857 -0.596747 543.602 454.051
-8.06326 -10.4421 -1.0865 536.905 456.329
-9.86663 -10.1779 -1.14012 529.793 456.45
4.36181 -11.6628 -0.353366 585.61 457.947
5.94549 -12.0564 -0.677923 591.946 457.079
7.76219 -12.0374 -1.09723 598.986 457.881
9.31751 -11.3913 -1.35881 604.704 461.032
7.72256 -10.9371 -0.969485 598.294 462.152
5.97913 -11.0327 -0.838355 591.583 460.983
-1.90722 10.4546 -2.81795 550.637 539.258
-2.0682 7.59753 -5.14426 551.47 527.296
-1.15835 5.10942 -6.60934 556.247 517.6
0.75954 5.02278 -8.31509 563.768 517.565
2.58873 4.97392 -6.26873 570.819 519.029
3.61706 7.39159 -4.85254 573.585 529.38
3.47353 10.4917 -2.6166 571.457 542.096
3.21359 11.5564 -3.86278 569.968 545.611
2.57421 12.5232 -5.15118 567.058 548.547
1.20308 12.9524 -6.98914 561.591 548.85
-0.260171 12.4992 -5.39394 556.097 546.984
-1.14887 11.4922 -3.98919 553.104 543.192
0.439478 7.61349 -4.82896 561.168 528.697
0.913149 7.03056 -6.75879 563.342 525.961
1.34711 7.75533 -4.3163 564.6 529.876
1.30746 9.72851 -4.10538 563.48 537.544
1.18088 10.2687 -5.86511 562.778 538.91
0.888427 9.58344 -4.46081 561.938 536.648
3 20 21 23
3 21 22 23
3 0 1 36
3 15 16 45
3 0 17 36
3 16 26 45
3 17 18 37
3 25 26 44
3 17 36 37
3 26 44 45
3 18 19 38
3 24 25 43
3 18 37 38
3 25 43 44
3 19 20 38
3 23 24 43
3 20 21 39
3 22 23 42
3 20 38 39
3 23 42 43
3 21 22 27
3 21 27 39
3 22 27 42
3 27 28 42
3 27 28 39
3 28 42 47
3 28 39 40
3 1 36 41
3 15 45 46
3 1 2 41
3 14 15 46
3 28 29 40
3 28 29 47
3 2 40 41
3 14 46 47
3 2 29 40
3 14 29 47
3 2 3 29
3 13 14 29
3 29 30 31
3 29 30 35
3 3 29 31
3 13 29 35
3 30 32 33
3 30 33 34
3 30 31 32
3 30 34 35
3 3 4 31
3 12 13 35
3 4 5 48
3 11 12 54
3 5 6 48
3 10 11 54
3 6 48 59
3 10 54 55
3 6 7 59
3 9 10 55
3 7 58 59
3 9 55 56
3 8 57 58
3 8 56 57
3 7 8 58
3 8 9 56
3 4 31 48
3 12 35 54
3 31 48 49
3 35 53 54
3 31 49 50
3 35 52 53
3 31 32 50
3 34 35 52
3 32 33 50
3 33 34 52
3 33 50 51
3 33 51 52
3 48 49 60
3 49 60 50
3 50 60 61
3 50 51 61
3 51 52 61
3 61 62 52
3 52 53 62
3 53 54 62
3 54 55 63
3 55 56 63
3 56 63 64
3 56 57 64
3 64 65 57
3 57 58 65
3 58 59 65
3 48 59 65
