ply
format ascii 1.0
element vertex 66
property float x
property float y
property float z
property float u
property float v
element face 91
property list uchar int vertex_indices
end_header
-20.2017 -6.3871 20.9342 484.294 470.708
-19.3957 -1.11228 20.3856 484.606 491.95
-18.1735 4.11106 20.0117 486.594 513.278
-16.4187 9.16132 18.4543 490.883 533.828
-14.2345 13.7603 13.2247 497.38 551.623
-11.4633 17.8746 7.95904 506.492 567.808
-7.99845 21.4199 3.36597 518.643 582.34
-3.87276 24.1296 -0.742475 533.863 594.081
1.02347 24.9864 -4.53311 553.168 598.991
6.08574 23.6775 -0.718402 573.836 597.878
9.97764 20.3065 3.34733 590.968 587.992
13.0277 16.1649 7.8263 605.143 574.707
15.5792 11.7511 12.9743 617.438 560.279
17.6649 7.17771 18.0686 627.967 544.937
18.9473 2.39318 19.7497 635.637 527.187
19.3989 -2.45405 20.088 640.117 508.281
19.2732 -7.31395 20.4544 642.3 489.011
-16.7698 -14.8071 0.163112 504.062 432.354
-14.8747 -17.1349 -1.65586 513.039 423.568
-12.1033 -18.3402 -2.91108 524.85 419.919
-9.059 -18.3465 -4.25969 537.086 421.16
-6.0599 -17.6225 -5.42664 548.723 425.338
3.15904 -17.9503 -5.29424 585.669 429.251
5.50154 -19.0125 -4.01125 595.52 426.762
8.04415 -19.4864 -2.64733 605.835 426.752
10.5914 -19.1775 -1.32895 615.736 429.841
12.7282 -17.8217 0.500292 623.381 437.028
-0.228924 -11.9114 -4.85263 568.76 451.502
0.0203037 -8.97806 -7.87658 568.321 462.312
0.256319 -6.0197 -10.5497 567.792 473.329
0.476221 -3.05281 -12.774 567.163 484.518
-1.98255 0.193488 -6.12658 555.103 498.222
-0.587616 0.508831 -6.99129 560.549 499.975
0.89436 0.584736 -7.7898 566.471 500.846
2.17927 0.357248 -6.77379 571.656 500.996
3.29547 -0.132011 -6.05128 576.333 499.913
-11.8207 -10.5822 -1.47053 521.556 451.391
-10.3101 -11.5338 -1.13721 528.09 448.565
-8.40889 -11.9527 -0.757168 535.882 448.091
-6.68262 -11.543 -0.665012 542.533 450.718
-8.28211 -10.5977 -1.12275 535.657 453.428
-10.0995 -10.3174 -1.13881 528.252 453.518
4.41288 -12.0857 -0.276666 587.067 454.912
5.95681 -12.6967 -0.579328 593.587 453.25
7.83978 -12.7158 -0.991833 601.136 454.095
9.45393 -12.0156 -1.26773 607.202 457.694
7.87674 -11.392 -0.88222 600.538 459.415
6.08233 -11.4281 -0.749871 593.392 458.308
-1.5281 10.516 -2.81428 550.941 540.598
-1.65647 7.87814 -5.14972 552.055 529.274
-0.844226 5.54184 -6.65852 556.698 519.948
0.888719 5.50855 -8.44904 563.748 520.201
2.53833 5.38462 -6.37837 570.259 521.312
3.48656 7.62351 -4.92126 572.697 531.222
3.41653 10.4221 -2.62763 570.704 543.06
3.22296 11.5796 -3.96084 569.376 547.116
2.62172 12.607 -5.228 566.49 550.448
1.28727 13.068 -6.97343 561.026 550.96
-0.0833903 12.6208 -5.3952 555.703 548.93
-0.892601 11.6107 -3.96629 552.943 544.929
0.837363 8.01165 -4.87896 561.91 531.293
1.03418 7.48411 -6.77364 563.116 528.685
1.18661 8.12927 -4.50304 563.213 532.079
1.10803 9.66321 -4.24317 562.027 538.219
1.23699 10.175 -5.78949 562.359 539.819
1.22594 9.53936 -4.44282 562.58 537.727
3 20 21 23
3 21 22 23
3 0 1 36
3 15 16 45
3 0 17 36
3 16 26 45
3 17 18 37
3 25 26 44
3 17 36 37
3 26 44 45
3 18 19 38
3 24 25 43
3 18 37 38
3 25 43 44
3 19 20 38
3 23 24 43
3 20 21 39
3 22 23 42
3 20 38 39
3 23 42 43
3 21 22 27
3 21 27 39
3 22 27 42
3 27 28 42
3 27 28 39
3 28 42 47
3 28 39 40
3 1 36 41
3 15 45 46
3 1 2 41
3 14 15 46
3 28 29 40
3 28 29 47
3 2 40 41
3 14 46 47
3 2 29 40
3 14 29 47
3 2 3 29
3 13 14 29
3 29 30 31
3 29 30 35
3 3 29 31
3 13 29 35
3 30 32 33
3 30 33 34
3 30 31 32
3 30 34 35
3 3 4 31
3 12 13 35
3 4 5 48
3 11 12 54
3 5 6 48
3 10 11 54
3 6 48 59
3 10 54 55
3 6 7 59
3 9 10 55
3 7 58 59
3 9 55 56
3 8 57 58
3 8 56 57
3 7 8 58
3 8 9 56
3 4 31 48
3 12 35 54
3 31 48 49
3 35 53 54
3 31 49 50
3 35 52 53
3 31 32 50
3 34 35 52
3 32 33 50
3 33 34 52
3 33 50 51
3 33 51 52
3 48 49 60
3 49 60 50
3 50 60 61
3 50 51 61
3 51 52 61
3 61 62 52
3 52 53 62
3 53 54 62
3 54 55 63
3 55 56 63
3 56 63 64
3 56 57 64
3 64 65 57
3 57 58 65
3 58 59 65
3 48 59 65
