ply
format ascii 1.0
element vertex 66
property float x
property float y
property float z
property float u
property float v
element face 91
property list uchar int vertex_indices
end_header
-20.9565 -6.07922 21.5015 480.294 465.717
-20.05 -0.922736 20.9051 481.539 486.301
-18.8339 4.19384 20.5204 483.981 506.929
-17.3044 9.18602 18.5603 488.023 526.843
-15.2244 13.7286 13.4886 495.054 544.509
-12.1428 17.4617 8.04455 506.485 559.388
-8.29348 20.3888 3.44362 521.158 571.669
-3.96779 22.5166 -0.815928 538.017 581.119
0.850276 23.1088 -4.52622 557.436 584.897
5.83137 22.0835 -0.845232 576.819 584.16
9.98344 19.2575 3.4243 593.674 576.077
13.5098 15.6998 7.91405 608.369 564.865
16.4877 11.6786 13.237 620.961 551.762
18.5695 7.23274 18.2057 630.294 536.47
19.6789 2.58804 20.3269 636.448 519.242
20.1665 -2.11007 20.6841 640.523 501.08
20.186 -6.82998 21.062 642.761 482.611
-17.9898 -14.3296 0.194317 500.047 429.596
-15.7241 -16.5813 -1.57049 510.381 421.413
-12.6739 -17.723 -2.96282 523.206 418.067
-9.39085 -17.7826 -4.28771 536.422 419.108
-6.13797 -17.1382 -5.38747 549.142 422.957
3.22449 -17.4803 -5.30044 586.158 426.172
5.85214 -18.4996 -4.07056 596.748 423.731
8.66268 -18.9499 -2.72185 607.766 423.645
11.4944 -18.7211 -1.25509 618.523 426.269
13.9878 -17.4521 0.558017 627.387 432.905
-0.246921 -11.651 -4.82557 569.633 447.537
0.0219449 -8.40279 -7.86011 569.747 459.72
0.276305 -5.15903 -10.8161 569.79 471.898
0.516452 -1.91511 -13.4313 569.711 484.151
-2.54658 1.17306 -6.3706 554.806 496.506
-0.829873 1.58479 -7.32029 561.557 498.731
0.968168 1.68576 -8.18311 568.759 499.793
2.5396 1.38032 -7.17038 574.894 499.596
3.95665 0.738345 -6.40128 580.629 497.942
-12.6941 -9.93677 -0.944399 519.045 449.174
-11.0435 -11.0883 -1.03798 526.108 445.422
-8.96926 -11.4182 -1.07563 534.441 445.121
-7.08984 -10.6737 -1.04025 541.483 448.97
-8.88196 -9.9303 -1.15318 534.095 450.998
-10.8144 -9.69498 -1.09593 526.363 451.001
4.83089 -11.2808 -0.682046 588.646 452.448
6.47166 -12.2479 -0.950541 595.618 449.374
8.50482 -12.3922 -0.915883 603.686 449.801
10.2897 -11.5248 -0.718553 610.266 454.126
8.5648 -10.889 -0.836085 603.195 455.763
6.66143 -10.862 -0.78034 595.676 454.959
-5.91604 9.05542 -2.81899 537.11 526.734
-3.96483 7.35377 -5.03525 546.033 520.454
-1.6447 6.01445 -6.63542 556.117 515.927
0.99976 6.10242 -8.38303 566.831 517.137
3.50679 5.70638 -6.37587 576.5 517.276
5.81472 6.70934 -4.81122 584.808 522.715
7.68323 8.26133 -2.6044 591 530.256
6.11267 10.0526 -3.97557 584.235 536.213
3.8801 11.1957 -5.08966 575.119 539.361
1.28362 11.6068 -6.5967 564.994 539.359
-1.34797 11.4168 -5.23336 554.454 537.661
-3.79857 10.5586 -3.97269 544.963 533.398
-1.14456 8.13788 -5.39282 556.839 524.821
1.15882 8.0425 -7.33765 566.335 525.098
3.32148 7.93076 -5.06453 574.46 526.251
3.38738 8.41996 -4.50441 574.379 528.342
1.22829 8.76211 -6.22265 566.05 528.229
-1.03639 8.65306 -4.66267 556.878 527.076
3 20 21 23
3 21 22 23
3 0 1 36
3 15 16 45
3 0 17 36
3 16 26 45
3 17 18 37
3 25 26 44
3 17 36 37
3 26 44 45
3 18 19 38
3 24 25 43
3 18 37 38
3 25 43 44
3 19 20 38
3 23 24 43
3 20 21 39
3 22 23 42
3 20 38 39
3 23 42 43
3 21 22 27
3 21 27 39
3 22 27 42
3 27 28 42
3 27 28 39
3 28 42 47
3 28 39 40
3 1 36 41
3 15 45 46
3 1 2 41
3 14 15 46
3 28 29 40
3 28 29 47
3 2 40 41
3 14 46 47
3 2 29 40
3 14 29 47
3 2 3 29
3 13 14 29
3 29 30 31
3 29 30 35
3 3 29 31
3 13 29 35
3 30 32 33
3 30 33 34
3 30 31 32
3 30 34 35
3 3 4 31
3 12 13 35
3 4 5 48
3 11 12 54
3 5 6 48
3 10 11 54
3 6 48 59
3 10 54 55
3 6 7 59
3 9 10 55
3 7 58 59
3 9 55 56
3 8 57 58
3 8 56 57
3 7 8 58
3 8 9 56
3 4 31 48
3 12 35 54
3 31 48 49
3 35 53 54
3 31 49 50
3 35 52 53
3 31 32 50
3 34 35 52
3 32 33 50
3 33 34 52
3 33 50 51
3 33 51 52
3 48 49 60
3 49 60 50
3 50 60 61
3 50 51 61
3 51 52 61
3 61 62 52
3 52 53 62
3 53 54 62
3 54 55 63
3 55 56 63
3 56 63 64
3 56 57 64
3 64 65 57
3 57 58 65
3 58 59 65
3 48 59 65
