ply
format ascii 1.0
element vertex 66
property float x
property float y
property float z
property float u
property float v
element face 91
property list uchar int vertex_indices
end_header
-20.8035 -5.67307 21.5249 478.214 464.654
-19.9218 -0.629369 20.9215 478.945 485.125
-18.7841 4.38477 20.5479 480.67 505.688
-17.4007 9.29695 18.4727 483.766 525.546
-15.4358 13.8241 13.5129 489.965 543.457
-12.3729 17.5247 8.01333 501.13 558.578
-8.50571 20.3827 3.39087 515.822 571.042
-4.17167 22.4491 -0.871206 532.763 580.717
0.609064 23.0427 -4.56547 552.227 584.932
5.68758 22.1342 -0.863117 572.308 585.263
10.0348 19.4354 3.39991 590.391 578.173
13.7583 15.9304 7.92105 606.399 567.568
16.7978 11.8324 13.3323 619.845 554.429
18.715 7.20332 18.2541 629.211 538.385
19.6609 2.37731 20.4742 635.338 520.279
20.0735 -2.4962 20.8687 639.717 501.193
20.0625 -7.3907 21.2508 642.42 481.772
-17.7592 -14.2651 0.240206 499.456 426.632
-15.583 -16.3037 -1.54045 509.666 419.32
-12.7257 -17.339 -2.95724 521.946 416.503
-9.6642 -17.4461 -4.27315 534.487 417.533
-6.61651 -16.9372 -5.35123 546.571 421.073
3.70665 -17.4737 -5.32566 588.092 425.013
6.23574 -18.4054 -4.12038 598.492 423.101
8.92234 -18.8176 -2.76769 609.194 423.391
11.6367 -18.6406 -1.25626 619.636 426.088
14.085 -17.5207 0.545246 628.415 432.463
-0.249178 -11.2937 -4.83209 568.64 447.456
0.0581417 -8.05338 -7.86506 568.589 459.764
0.34907 -4.82181 -10.8679 568.472 472.036
0.618332 -1.58964 -13.5219 568.2 484.389
-2.64329 1.30721 -6.38902 552.122 495.882
-0.860686 1.71825 -7.36653 559.192 498.314
0.998086 1.83316 -8.2375 566.717 499.638
2.62636 1.49681 -7.25343 573.221 499.512
4.1224 0.840563 -6.46394 579.418 497.982
-12.655 -9.87998 -0.83261 517.517 446.839
-11.0693 -11.0505 -1.01663 524.558 443.056
-9.06244 -11.3525 -1.14402 532.769 442.999
-7.25783 -10.5554 -1.10591 539.508 447.249
-8.97767 -9.83377 -1.13349 532.231 449.107
-10.842 -9.62203 -1.06197 524.651 448.874
5.09576 -11.2785 -0.711469 589.171 451.735
6.66034 -12.3402 -1.038 596.093 448.337
8.64055 -12.5084 -0.942473 604.078 448.857
10.3901 -11.6407 -0.694596 610.515 453.41
8.73057 -10.9785 -0.842191 603.536 455.036
6.8831 -10.9071 -0.767952 596.104 454.253
-6.84657 8.67607 -2.81995 530.4 523.721
-4.4727 7.15943 -4.99897 541.175 518.502
-1.83766 6.06025 -6.61988 552.644 515.246
0.983225 6.18625 -8.35742 564.172 516.955
3.65591 5.73471 -6.4361 574.73 517.228
6.23933 6.47909 -4.81454 584.301 522.138
8.49871 7.76974 -2.56481 592.14 529.201
6.57587 9.65515 -3.96097 583.648 535.222
3.98233 10.7866 -5.04021 572.851 537.926
1.12534 11.1693 -6.50293 561.507 537.39
-1.72663 11.0281 -5.15014 549.939 535.503
-4.47404 10.2318 -3.91539 539.188 531.034
-1.69513 8.02204 -5.45454 551.856 523.456
1.0935 8.01957 -7.44292 563.378 524.568
3.70258 7.76215 -5.17916 573.504 525.667
3.77592 8.22257 -4.53215 573.405 527.715
1.10437 8.54891 -6.25047 562.885 526.996
-1.67615 8.51896 -4.64936 551.489 525.659
3 20 21 23
3 21 22 23
3 0 1 36
3 15 16 45
3 0 17 36
3 16 26 45
3 17 18 37
3 25 26 44
3 17 36 37
3 26 44 45
3 18 19 38
3 24 25 43
3 18 37 38
3 25 43 44
3 19 20 38
3 23 24 43
3 20 21 39
3 22 23 42
3 20 38 39
3 23 42 43
3 21 22 27
3 21 27 39
3 22 27 42
3 27 28 42
3 27 28 39
3 28 42 47
3 28 39 40
3 1 36 41
3 15 45 46
3 1 2 41
3 14 15 46
3 28 29 40
3 28 29 47
3 2 40 41
3 14 46 47
3 2 29 40
3 14 29 47
3 2 3 29
3 13 14 29
3 29 30 31
3 29 30 35
3 3 29 31
3 13 29 35
3 30 32 33
3 30 33 34
3 30 31 32
3 30 34 35
3 3 4 31
3 12 13 35
3 4 5 48
3 11 12 54
3 5 6 48
3 10 11 54
3 6 48 59
3 10 54 55
3 6 7 59
3 9 10 55
3 7 58 59
3 9 55 56
3 8 57 58
3 8 56 57
3 7 8 58
3 8 9 56
3 4 31 48
3 12 35 54
3 31 48 49
3 35 53 54
3 31 49 50
3 35 52 53
3 31 32 50
3 34 35 52
3 32 33 50
3 33 34 52
3 33 50 51
3 33 51 52
3 48 49 60
3 49 60 50
3 50 60 61
3 50 51 61
3 51 52 61
3 61 62 52
3 52 53 62
3 53 54 62
3 54 55 63
3 55 56 63
3 56 63 64
3 56 57 64
3 64 65 57
3 57 58 65
3 58 59 65
3 48 59 65
