ply
format ascii 1.0
element vertex 66
property float x
property float y
property float z
property float u
property float v
element face 91
property list uchar int vertex_indices
end_header
-20.9506 -5.94094 21.6088 488.647 468.587
-20.0532 -0.750543 21.0199 489.43 488.816
-18.8916 4.41302 20.6397 491.223 509.099
-17.5298 9.43772 18.5693 493.952 528.787
-15.6218 14.0054 13.5315 499.176 546.715
-12.5229 17.6947 8.03732 509.429 561.858
-8.53599 20.4776 3.4601 523.49 574.092
-4.05081 22.3795 -0.834652 539.892 583.247
0.855643 22.7894 -4.52364 558.639 586.983
5.9585 21.948 -0.829916 578.352 586.782
10.351 19.3615 3.46833 596.217 579.608
14.0685 15.9232 7.9564 611.933 568.851
17.0252 11.88 13.3575 625.001 555.482
18.8195 7.32394 18.3269 633.919 539.508
19.6927 2.53231 20.5133 639.601 521.88
20.0942 -2.34255 20.8776 643.631 503.506
20.0851 -7.22922 21.2845 646.095 484.879
-18.0728 -14.1523 0.223196 505.126 436.574
-15.7901 -16.2386 -1.56636 515.028 429.609
-12.8464 -17.2981 -2.98668 526.903 426.944
-9.70685 -17.4164 -4.29719 539.034 427.986
-6.58685 -16.9053 -5.37465 550.752 431.445
3.81725 -17.4166 -5.32157 590.758 434.884
6.38056 -18.2933 -4.12462 600.934 432.983
9.0966 -18.6587 -2.78702 611.42 433.128
11.8372 -18.4413 -1.28801 621.69 435.527
14.3226 -17.2747 0.554228 630.475 441.454
-0.27846 -11.6569 -4.84904 572.111 454.808
0.0276051 -8.19559 -7.91042 571.671 467.879
0.317653 -4.74581 -10.9388 571.174 480.901
0.58949 -1.29085 -13.5996 570.584 493.97
-2.67053 1.55643 -6.49376 556.246 503.869
-0.891624 1.96785 -7.42545 562.883 506.268
0.966422 2.07444 -8.24343 569.974 507.555
2.59726 1.75265 -7.30314 576.316 507.264
4.08961 1.10428 -6.52029 582.306 505.639
-12.8072 -9.88044 -0.851608 523.098 455.507
-11.101 -11.0346 -1.05708 530.224 451.962
-9.01101 -11.3242 -1.17192 538.365 451.927
-7.11447 -10.502 -1.10299 545.181 456.056
-8.95681 -9.87323 -1.14249 537.821 457.499
-10.9062 -9.66173 -1.08428 530.261 457.303
4.92253 -11.1528 -0.755159 591.481 459.837
6.58204 -12.2201 -1.05877 598.389 456.589
8.63637 -12.3977 -0.968904 606.323 456.983
10.4827 -11.5368 -0.69215 612.916 461.255
8.72477 -10.9254 -0.867931 605.895 462.662
6.80031 -10.8621 -0.806862 598.507 461.914
-6.90075 8.66188 -2.80112 536.202 529.185
-4.5108 7.11213 -5.01528 546.261 524.282
-1.86761 6.00948 -6.65612 557.023 521.275
0.941031 6.11528 -8.39193 567.799 522.959
3.60173 5.68377 -6.45926 578.074 522.882
6.20015 6.4234 -4.82869 587.524 527.216
8.48996 7.75742 -2.57967 595.451 533.721
6.50279 9.4592 -3.88207 587.057 539.061
3.90812 10.4246 -4.98801 576.711 541.294
1.11948 10.722 -6.43902 565.989 540.841
-1.68686 10.6669 -5.10389 555.219 539.311
-4.44206 10.025 -3.87923 544.953 535.556
-1.72422 7.99034 -5.4999 556.481 529.03
1.0712 7.95289 -7.45334 567.293 530.139
3.70307 7.7225 -5.20262 577.335 530.847
3.76181 7.92636 -4.52222 577.415 531.724
1.08135 8.12085 -6.28172 567.177 530.903
-1.68793 8.22282 -4.66604 556.451 530.02
3 20 21 23
3 21 22 23
3 0 1 36
3 15 16 45
3 0 17 36
3 16 26 45
3 17 18 37
3 25 26 44
3 17 36 37
3 26 44 45
3 18 19 38
3 24 25 43
3 18 37 38
3 25 43 44
3 19 20 38
3 23 24 43
3 20 21 39
3 22 23 42
3 20 38 39
3 23 42 43
3 21 22 27
3 21 27 39
3 22 27 42
3 27 28 42
3 27 28 39
3 28 42 47
3 28 39 40
3 1 36 41
3 15 45 46
3 1 2 41
3 14 15 46
3 28 29 40
3 28 29 47
3 2 40 41
3 14 46 47
3 2 29 40
3 14 29 47
3 2 3 29
3 13 14 29
3 29 30 31
3 29 30 35
3 3 29 31
3 13 29 35
3 30 32 33
3 30 33 34
3 30 31 32
3 30 34 35
3 3 4 31
3 12 13 35
3 4 5 48
3 11 12 54
3 5 6 48
3 10 11 54
3 6 48 59
3 10 54 55
3 6 7 59
3 9 10 55
3 7 58 59
3 9 55 56
3 8 57 58
3 8 56 57
3 7 8 58
3 8 9 56
3 4 31 48
3 12 35 54
3 31 48 49
3 35 53 54
3 31 49 50
3 35 52 53
3 31 32 50
3 34 35 52
3 32 33 50
3 33 34 52
3 33 50 51
3 33 51 52
3 48 49 60
3 49 60 50
3 50 60 61
3 50 51 61
3 51 52 61
3 61 62 52
3 52 53 62
3 53 54 62
3 54 55 63
3 55 56 63
3 56 63 64
3 56 57 64
3 64 65 57
3 57 58 65
3 58 59 65
3 48 59 65
