ply
format ascii 1.0
element vertex 66
property float x
property float y
property float z
property float u
property float v
element face 91
property list uchar int vertex_indices
end_header
-20.8857 -6.17694 21.2613 477.36 462.911
-20.1252 -1.02687 20.6534 477.919 483.574
-19.0073 4.08701 20.3478 479.831 504.355
-17.4106 9.0375 18.5421 484.13 524.373
-15.1951 13.5071 13.3992 492.03 541.995
-12.1092 17.3002 8.01543 503.789 557.334
-8.31106 20.4093 3.41521 518.507 570.528
-3.97944 22.7438 -0.764023 535.62 581.035
0.936712 23.4399 -4.53395 555.773 585.455
5.96241 22.4009 -0.848978 575.226 584.878
10.1029 19.5407 3.36115 591.954 576.747
13.6031 15.9632 7.86021 606.431 565.506
16.5671 11.9477 13.1626 618.788 552.444
18.6788 7.47178 18.2841 628.05 537.066
19.8068 2.67517 20.2768 634.422 519.134
20.2232 -2.20973 20.6321 638.462 500.079
20.1734 -7.10523 21.0365 640.645 480.749
-17.6123 -14.3672 0.220384 500.196 427.028
-15.5485 -16.6461 -1.59242 510.026 418.637
-12.6634 -17.797 -2.96598 522.42 415.256
-9.53803 -17.8472 -4.30822 535.197 416.371
-6.45722 -17.191 -5.42469 547.377 420.317
3.17732 -17.587 -5.23506 585.717 423.856
5.8201 -18.7005 -4.01794 596.43 421.128
8.65996 -19.1907 -2.67225 607.572 421.007
11.5125 -18.8603 -1.25992 618.328 424.16
13.9346 -17.3917 0.572322 626.686 431.701
-0.481659 -11.6253 -4.83657 568.072 445.66
-0.197757 -8.42826 -7.88331 568.396 457.735
0.0783327 -5.2251 -10.7387 568.633 469.878
0.348928 -2.0166 -13.1957 568.738 482.136
-2.55776 0.947077 -6.24815 553.829 494.053
-0.943614 1.3587 -7.22528 560.282 496.294
0.762051 1.44657 -8.0946 567.233 497.325
2.32321 1.13083 -7.06983 573.305 497.145
3.70813 0.468004 -6.30173 578.924 495.433
-12.3552 -9.93589 -1.13605 519.147 447.021
-10.8005 -11.0629 -1.07638 525.866 443.386
-8.80555 -11.4086 -0.988087 533.926 443.086
-7.00755 -10.7511 -0.945306 540.707 446.647
-8.68557 -9.88067 -1.17462 533.675 449.159
-10.5494 -9.63649 -1.15114 526.156 449.153
4.75769 -11.4378 -0.548774 587.585 450.203
6.35218 -12.3582 -0.847661 594.454 447.32
8.335 -12.4503 -0.914988 602.379 447.98
10.0637 -11.6329 -0.844656 608.796 452.145
8.39631 -10.9444 -0.839229 601.835 453.999
6.53358 -10.9001 -0.758748 594.407 453.216
-4.65238 9.04921 -2.80029 540.471 525.907
-3.16891 7.34039 -5.02783 547.823 519.369
-1.27472 5.96929 -6.63051 556.463 514.538
0.986678 6.06958 -8.40728 565.856 515.69
3.15358 5.67737 -6.38117 574.097 515.769
5.10899 6.74124 -4.82523 580.886 521.393
6.63016 8.28569 -2.60945 585.53 528.855
5.50549 10.1927 -4.02888 580.486 535.476
3.68864 11.535 -5.245 572.93 539.544
1.34119 12.0433 -6.81257 563.791 539.942
-1.01777 11.7779 -5.37554 554.187 538.002
-3.04777 10.7122 -3.99666 546.309 533.049
-0.339924 8.15159 -5.2104 558.674 524.026
1.14829 8.02816 -7.14758 565.16 523.845
2.55067 7.99441 -4.98766 570.151 524.976
2.62527 8.58105 -4.49058 570.014 527.462
1.22746 9.01339 -6.06121 564.678 528.057
-0.250542 8.75451 -4.55954 558.545 526.622
3 20 21 23
3 21 22 23
3 0 1 36
3 15 16 45
3 0 17 36
3 16 26 45
3 17 18 37
3 25 26 44
3 17 36 37
3 26 44 45
3 18 19 38
3 24 25 43
3 18 37 38
3 25 43 44
3 19 20 38
3 23 24 43
3 20 21 39
3 22 23 42
3 20 38 39
3 23 42 43
3 21 22 27
3 21 27 39
3 22 27 42
3 27 28 42
3 27 28 39
3 28 42 47
3 28 39 40
3 1 36 41
3 15 45 46
3 1 2 41
3 14 15 46
3 28 29 40
3 28 29 47
3 2 40 41
3 14 46 47
3 2 29 40
3 14 29 47
3 2 3 29
3 13 14 29
3 29 30 31
3 29 30 35
3 3 29 31
3 13 29 35
3 30 32 33
3 30 33 34
3 30 31 32
3 30 34 35
3 3 4 31
3 12 13 35
3 4 5 48
3 11 12 54
3 5 6 48
3 10 11 54
3 6 48 59
3 10 54 55
3 6 7 59
3 9 10 55
3 7 58 59
3 9 55 56
3 8 57 58
3 8 56 57
3 7 8 58
3 8 9 56
3 4 31 48
3 12 35 54
3 31 48 49
3 35 53 54
3 31 49 50
3 35 52 53
3 31 32 50
3 34 35 52
3 32 33 50
3 33 34 52
3 33 50 51
3 33 51 52
3 48 49 60
3 49 60 50
3 50 60 61
3 50 51 61
3 51 52 61
3 61 62 52
3 52 53 62
3 53 54 62
3 54 55 63
3 55 56 63
3 56 63 64
3 56 57 64
3 64 65 57
3 57 58 65
3 58 59 65
3 48 59 65
