ply
format ascii 1.0
element vertex 66
property float x
property float y
property float z
property float u
property float v
element face 91
property list uchar int vertex_indices
end_header
-21.0123 -6.58168 21.6008 481.707 466.071
-20.2009 -1.10872 20.9431 482.981 487.341
-19.1036 4.33981 20.5148 485.329 508.677
-17.6417 9.61185 18.5861 489.412 529.113
-15.6037 14.2945 13.4601 496.493 546.735
-12.4632 18.0165 7.96332 508.246 560.971
-8.46727 20.8084 3.29852 523.494 572.131
-4.00277 22.7694 -0.859752 540.764 580.377
0.918136 23.2557 -4.62746 560.262 583.193
6.00641 22.1169 -0.75329 579.655 581.6
10.1836 19.14 3.40444 596.143 572.641
13.6815 15.4587 7.93049 610.195 560.798
16.6215 11.3654 13.2352 622.104 547.341
18.7752 6.96151 18.0703 631.17 532.283
19.8892 2.38505 20.1446 636.763 515.521
20.2345 -2.26843 20.3938 639.734 497.747
20.0854 -6.92379 20.7806 640.771 479.815
-17.6622 -14.5541 0.150114 501.282 431.487
-15.4094 -16.8495 -1.56216 511.115 423.06
-12.3811 -18.0426 -2.90528 523.481 419.263
-9.111 -18.0941 -4.21199 536.364 419.97
-5.87941 -17.3776 -5.31877 548.786 423.675
3.0438 -17.3603 -5.3403 583.261 427.049
5.53386 -18.32 -4.075 593.008 424.568
8.2246 -18.6931 -2.72801 603.303 424.444
10.9272 -18.4104 -1.29609 613.393 426.876
13.3046 -17.1386 0.464675 621.812 433.083
-0.0625061 -11.5992 -4.82477 569.089 448.253
0.124914 -8.39973 -7.85856 569.189 459.957
0.290065 -5.19924 -10.7674 569.181 471.685
0.444812 -1.99619 -13.3383 569.072 483.499
-2.51077 0.850532 -6.33617 555.4 495.04
-0.793945 1.28283 -7.24599 562.036 497.132
1.01229 1.40084 -8.06822 569.117 498.064
2.54954 1.12108 -7.03286 574.976 497.799
3.91783 0.496825 -6.27597 580.356 496.076
-12.5906 -10.071 -1.07605 519.474 450.384
-10.8679 -11.0428 -1.05825 526.479 447.277
-8.81752 -11.37 -1.01125 534.511 446.787
-6.93227 -10.7287 -0.899898 541.544 449.988
-8.76628 -10.065 -1.12282 534.257 451.816
-10.7085 -9.87401 -1.11929 526.683 451.833
4.81931 -11.1278 -0.718203 587.063 452.853
6.47128 -11.8523 -0.923728 593.744 450.622
8.43221 -11.9466 -0.935752 601.357 450.983
10.1733 -11.1881 -0.827492 607.791 454.583
8.45113 -10.6799 -0.900771 600.966 455.887
6.59136 -10.7012 -0.850332 593.779 455.126
-5.37955 8.87707 -2.81482 540.801 525.785
-3.64518 7.14602 -5.04385 548.518 519.222
-1.49961 5.77296 -6.65734 557.586 514.339
0.991825 5.8351 -8.41632 567.498 515.089
3.35068 5.5318 -6.23667 576.34 515.308
5.45799 6.61232 -4.68366 583.821 520.627
7.0484 8.29783 -2.57237 588.988 528.221
5.82798 10.1734 -3.91824 583.831 534.689
3.87895 11.4743 -5.07336 576.033 538.714
1.3899 11.9226 -6.74096 566.545 539.128
-1.20216 11.6474 -5.35414 556.387 537.43
-3.47315 10.5545 -4.04804 547.778 532.676
-0.945365 7.84288 -5.32431 558.747 522.848
1.17743 7.68472 -7.26885 567.346 522.567
3.18908 7.71154 -4.82603 574.682 523.994
3.35704 8.72669 -4.3133 574.875 528.095
1.35114 9.18238 -6.12603 567.277 528.682
-0.78921 8.89517 -4.65235 558.853 527.126
3 20 21 23
3 21 22 23
3 0 1 36
3 15 16 45
3 0 17 36
3 16 26 45
3 17 18 37
3 25 26 44
3 17 36 37
3 26 44 45
3 18 19 38
3 24 25 43
3 18 37 38
3 25 43 44
3 19 20 38
3 23 24 43
3 20 21 39
3 22 23 42
3 20 38 39
3 23 42 43
3 21 22 27
3 21 27 39
3 22 27 42
3 27 28 42
3 27 28 39
3 28 42 47
3 28 39 40
3 1 36 41
3 15 45 46
3 1 2 41
3 14 15 46
3 28 29 40
3 28 29 47
3 2 40 41
3 14 46 47
3 2 29 40
3 14 29 47
3 2 3 29
3 13 14 29
3 29 30 31
3 29 30 35
3 3 29 31
3 13 29 35
3 30 32 33
3 30 33 34
3 30 31 32
3 30 34 35
3 3 4 31
3 12 13 35
3 4 5 48
3 11 12 54
3 5 6 48
3 10 11 54
3 6 48 59
3 10 54 55
3 6 7 59
3 9 10 55
3 7 58 59
3 9 55 56
3 8 57 58
3 8 56 57
3 7 8 58
3 8 9 56
3 4 31 48
3 12 35 54
3 31 48 49
3 35 53 54
3 31 49 50
3 35 52 53
3 31 32 50
3 34 35 52
3 32 33 50
3 33 34 52
3 33 50 51
3 33 51 52
3 48 49 60
3 49 60 50
3 50 60 61
3 50 51 61
3 51 52 61
3 61 62 52
3 52 53 62
3 53 54 62
3 54 55 63
3 55 56 63
3 56 63 64
3 56 57 64
3 64 65 57
3 57 58 65
3 58 59 65
3 48 59 65
