ply
format ascii 1.0
element vertex 66
property float x
property float y
property float z
property float u
property float v
element face 91
property list uchar int vertex_indices
end_header
-20.6439 -5.95407 21.4131 482.944 467.821
-19.7817 -0.837631 20.8231 483.667 488.145
-18.614 4.24547 20.48 485.562 508.553
-17.1516 9.17819 18.5018 488.946 528.218
-15.1431 13.6731 13.5132 495.173 545.89
-12.1309 17.4254 8.05486 505.791 561.117
-8.31727 20.4078 3.41677 519.821 573.932
-3.96878 22.5608 -0.810926 536.32 583.88
0.901395 23.1088 -4.46613 555.625 587.956
5.9112 22.175 -0.865792 575.124 587.723
10.1137 19.4396 3.38461 592.331 580.146
13.6534 15.9303 7.92785 607.318 569.245
16.5578 11.9204 13.2946 619.962 556.205
18.4636 7.43137 18.2816 629.021 540.679
19.442 2.67065 20.404 635.055 523.037
19.8783 -2.18241 20.7818 639.297 504.405
19.8886 -7.05194 21.1863 641.879 485.482
-17.6656 -14.3883 0.223437 502.431 432.429
-15.5591 -16.3849 -1.53368 512.004 425.44
-12.7873 -17.3875 -2.95889 523.591 422.755
-9.82646 -17.4868 -4.31906 535.424 423.712
-6.88675 -16.9921 -5.43847 546.817 427.022
3.9926 -17.6255 -5.29871 589.627 430.479
6.44177 -18.5004 -4.08338 599.469 428.627
9.03974 -18.8805 -2.71533 609.604 428.817
11.6617 -18.6662 -1.23274 619.496 431.362
13.9942 -17.4996 0.588562 627.695 437.532
-0.392586 -11.5772 -4.85411 569.192 451.793
-0.0881233 -8.27545 -7.90208 569.095 464.258
0.204434 -4.97955 -10.8612 568.941 476.71
0.482343 -1.67945 -13.4394 568.667 489.245
-2.6271 1.2485 -6.36943 553.841 500.35
-0.922092 1.61519 -7.35322 560.459 502.516
0.855701 1.70369 -8.20513 567.49 503.662
2.43836 1.38985 -7.24003 573.687 503.482
3.88586 0.774138 -6.44274 579.544 502.017
-12.8831 -10.0625 -0.943854 518.98 451.683
-11.2179 -11.3066 -1.01021 526.16 447.718
-9.09174 -11.6299 -1.06316 534.646 447.599
-7.21497 -10.7743 -1.04649 541.516 451.96
-9.01996 -9.98124 -1.15942 534.059 454.055
-10.9929 -9.74479 -1.09757 526.217 453.919
4.8768 -11.4939 -0.645821 589.065 455.789
6.51318 -12.6314 -0.940238 596.112 452.18
8.62122 -12.7953 -0.898035 604.426 452.692
10.4724 -11.8691 -0.733667 611.135 457.343
8.73456 -11.1342 -0.831825 603.97 459.25
6.7679 -11.0646 -0.769078 596.241 458.467
-5.7253 9.04786 -2.80449 537.004 529.799
-3.78659 7.43929 -5.01109 545.785 524.146
-1.53448 6.20089 -6.65712 555.504 520.217
0.977962 6.30649 -8.46305 565.545 521.644
3.35587 5.87999 -6.47879 574.748 521.652
5.61631 6.77133 -4.85458 582.844 526.671
7.51954 8.17998 -2.60274 589.168 533.636
5.946 9.91352 -3.98211 582.312 539.282
3.752 11.0118 -5.1181 573.335 542.16
1.22619 11.4102 -6.56592 563.484 542.065
-1.31281 11.2596 -5.2069 553.434 540.362
-3.68501 10.4725 -3.94695 544.391 536.246
-1.17103 8.17834 -5.35909 555.66 528.383
1.11428 8.08011 -7.37215 564.956 528.851
3.26096 7.93386 -5.12598 573.065 529.878
3.32021 8.41245 -4.50923 572.943 531.897
1.15951 8.76151 -6.09751 564.567 531.781
-1.09472 8.6796 -4.58978 555.569 530.529
3 20 21 23
3 21 22 23
3 0 1 36
3 15 16 45
3 0 17 36
3 16 26 45
3 17 18 37
3 25 26 44
3 17 36 37
3 26 44 45
3 18 19 38
3 24 25 43
3 18 37 38
3 25 43 44
3 19 20 38
3 23 24 43
3 20 21 39
3 22 23 42
3 20 38 39
3 23 42 43
3 21 22 27
3 21 27 39
3 22 27 42
3 27 28 42
3 27 28 39
3 28 42 47
3 28 39 40
3 1 36 41
3 15 45 46
3 1 2 41
3 14 15 46
3 28 29 40
3 28 29 47
3 2 40 41
3 14 46 47
3 2 29 40
3 14 29 47
3 2 3 29
3 13 14 29
3 29 30 31
3 29 30 35
3 3 29 31
3 13 29 35
3 30 32 33
3 30 33 34
3 30 31 32
3 30 34 35
3 3 4 31
3 12 13 35
3 4 5 48
3 11 12 54
3 5 6 48
3 10 11 54
3 6 48 59
3 10 54 55
3 6 7 59
3 9 10 55
3 7 58 59
3 9 55 56
3 8 57 58
3 8 56 57
3 7 8 58
3 8 9 56
3 4 31 48
3 12 35 54
3 31 48 49
3 35 53 54
3 31 49 50
3 35 52 53
3 31 32 50
3 34 35 52
3 32 33 50
3 33 34 52
3 33 50 51
3 33 51 52
3 48 49 60
3 49 60 50
3 50 60 61
3 50 51 61
3 51 52 61
3 61 62 52
3 52 53 62
3 53 54 62
3 54 55 63
3 55 56 63
3 56 63 64
3 56 57 64
3 64 65 57
3 57 58 65
3 58 59 65
3 48 59 65
