ply
format ascii 1.0
element vertex 66
property float x
property float y
property float z
property float u
property float v
element face 91
property list uchar int vertex_indices
end_header
-20.5956 -5.95108 21.4457 477.291 463.043
-19.7609 -0.897536 20.9206 478.288 483.909
-18.6387 4.11579 20.521 480.456 504.783
-17.1802 8.99252 18.3608 484.348 524.879
-15.0622 13.4805 13.5559 491.547 543.139
-11.916 17.2153 8.10811 503.41 558.705
-8.03342 20.1893 3.32273 518.54 571.692
-3.69172 22.446 -0.882539 535.798 582.117
1.19253 23.0597 -4.4618 555.972 586.268
6.10944 22.1159 -0.950793 575.892 585.667
10.2926 19.4513 3.27647 593.554 577.855
13.8567 16.0364 7.99928 608.983 566.789
16.7374 12.0355 13.3972 621.807 553.146
18.4957 7.46972 18.2938 630.419 536.532
19.3115 2.65274 20.5248 635.75 517.833
19.6607 -2.23388 20.9663 639.506 498.22
19.6618 -7.1324 21.3995 641.852 478.383
-17.4522 -14.2912 0.231649 497.656 425.98
-15.2503 -16.1336 -1.47007 507.808 419.208
-12.468 -17.0355 -2.95433 519.827 416.603
-9.52761 -17.125 -4.33011 532.071 417.406
-6.62306 -16.6311 -5.46301 543.843 420.619
3.84901 -17.3252 -5.32205 586.815 423.07
6.39009 -18.1398 -4.12935 597.372 421.291
9.05845 -18.4478 -2.77741 608.172 421.674
11.7198 -18.1456 -1.27125 618.618 424.57
14.067 -16.9223 0.57599 627.275 431.132
-0.504204 -11.3256 -4.88563 566.06 445.401
-0.155312 -8.05339 -7.87917 566.357 458.228
0.180889 -4.79439 -10.8748 566.61 470.995
0.502146 -1.53814 -13.5761 566.755 483.808
-2.94338 1.05575 -6.49159 550.29 494.207
-1.11508 1.45101 -7.39463 557.69 496.531
0.774017 1.55438 -8.18153 565.461 497.723
2.478 1.19262 -7.33511 572.442 497.292
4.06365 0.522067 -6.57446 579.107 495.525
-12.9916 -9.89804 -0.765973 513.824 445.869
-11.2444 -11.1928 -0.96778 521.611 441.431
-9.03495 -11.4464 -1.21539 530.775 441.45
-7.12682 -10.4634 -1.13723 538.05 446.423
-9.02403 -9.77322 -1.11922 529.98 448.286
-11.0488 -9.5597 -1.06376 521.619 448.153
4.60293 -11.1268 -0.749149 586.09 449.683
6.28524 -12.4113 -1.13181 593.637 445.214
8.48151 -12.6291 -0.923874 602.656 445.473
10.4297 -11.662 -0.636498 610.068 450.448
8.61886 -10.9236 -0.857443 602.365 452.497
6.59002 -10.8198 -0.776639 594.037 451.921
-7.58152 8.32825 -2.69209 527.2 522.32
-5.16596 6.6064 -4.84321 538.236 516.046
-2.27777 5.44907 -6.51 550.841 512.414
0.860133 5.43999 -8.36204 563.928 513.538
3.86889 5.02889 -6.42432 576.07 513.801
6.7822 5.74731 -4.76188 587.312 518.551
9.23482 7.17428 -2.52868 596.235 526.081
7.36468 9.75073 -3.99029 587.588 535.305
4.58996 11.52 -5.13617 575.602 540.861
1.24998 12.1664 -6.49837 561.901 541.517
-2.14995 11.9047 -5.16867 547.965 539.045
-5.16396 10.5241 -3.97987 536.175 532.181
-2.699 7.24519 -5.3665 548.055 519.765
0.976415 7.03071 -7.6617 563.505 520.224
4.51812 6.78409 -5.2104 577.653 521.537
4.83489 9.00462 -4.50456 577.735 530.888
1.1712 9.79848 -6.18347 562.695 531.912
-2.62936 9.49008 -4.52716 547.097 529.121
3 20 21 23
3 21 22 23
3 0 1 36
3 15 16 45
3 0 17 36
3 16 26 45
3 17 18 37
3 25 26 44
3 17 36 37
3 26 44 45
3 18 19 38
3 24 25 43
3 18 37 38
3 25 43 44
3 19 20 38
3 23 24 43
3 20 21 39
3 22 23 42
3 20 38 39
3 23 42 43
3 21 22 27
3 21 27 39
3 22 27 42
3 27 28 42
3 27 28 39
3 28 42 47
3 28 39 40
3 1 36 41
3 15 45 46
3 1 2 41
3 14 15 46
3 28 29 40
3 28 29 47
3 2 40 41
3 14 46 47
3 2 29 40
3 14 29 47
3 2 3 29
3 13 14 29
3 29 30 31
3 29 30 35
3 3 29 31
3 13 29 35
3 30 32 33
3 30 33 34
3 30 31 32
3 30 34 35
3 3 4 31
3 12 13 35
3 4 5 48
3 11 12 54
3 5 6 48
3 10 11 54
3 6 48 59
3 10 54 55
3 6 7 59
3 9 10 55
3 7 58 59
3 9 55 56
3 8 57 58
3 8 56 57
3 7 8 58
3 8 9 56
3 4 31 48
3 12 35 54
3 31 48 49
3 35 53 54
3 31 49 50
3 35 52 53
3 31 32 50
3 34 35 52
3 32 33 50
3 33 34 52
3 33 50 51
3 33 51 52
3 48 49 60
3 49 60 50
3 50 60 61
3 50 51 61
3 51 52 61
3 61 62 52
3 52 53 62
3 53 54 62
3 54 55 63
3 55 56 63
3 56 63 64
3 56 57 64
3 64 65 57
3 57 58 65
3 58 59 65
3 48 59 65
