ply
format ascii 1.0
element vertex 66
property float x
property float y
property float z
property float u
property float v
element face 91
property list uchar int vertex_indices
end_header
-20.7832 -6.13436 21.4528 478.913 465.813
-19.9638 -0.970225 20.8909 479.964 486.35
-18.859 4.15919 20.4941 482.121 506.921
-17.4119 9.15951 18.4566 486.007 526.729
-15.346 13.7471 13.5286 493.08 544.472
-12.221 17.538 8.03627 504.786 559.424
-8.28344 20.4832 3.37544 519.9 571.627
-3.86451 22.6374 -0.831985 537.17 581.053
1.05664 23.212 -4.55338 557.021 584.618
6.08063 22.251 -0.871389 576.496 584.044
10.3457 19.5417 3.34793 593.651 576.386
13.9593 16.0441 7.93496 608.519 565.424
16.8461 11.9454 13.3632 620.626 551.978
18.6689 7.33508 18.2634 628.875 535.906
19.5593 2.50681 20.4135 634.092 517.865
19.9042 -2.3802 20.8113 637.533 498.906
19.8565 -7.27735 21.2304 639.43 479.734
-17.6046 -14.2947 0.213997 499.221 429.858
-15.3896 -16.445 -1.54115 509.237 421.971
-12.4506 -17.5456 -2.96163 521.573 418.624
-9.29451 -17.6405 -4.28595 534.299 419.354
-6.17803 -17.0443 -5.39137 546.52 422.838
3.23776 -17.4674 -5.30083 583.753 425.477
5.88427 -18.4403 -4.09198 594.362 423.156
8.70175 -18.8209 -2.75896 605.358 423.274
11.517 -18.4878 -1.28885 616.002 426.232
13.9704 -17.1387 0.532551 624.704 433.107
-0.385089 -11.508 -4.89893 566.776 447.362
-0.0818889 -8.29755 -7.86865 567.134 459.38
0.208015 -5.0947 -10.8031 567.437 471.37
0.484696 -1.89408 -13.4526 567.632 483.418
-2.71129 0.976071 -6.39468 552.391 495.016
-0.973136 1.35929 -7.30595 559.242 497.085
0.834725 1.44741 -8.14113 566.484 498.044
2.45371 1.13298 -7.19672 572.81 497.78
3.94002 0.504083 -6.42472 578.787 496.176
-12.4864 -9.79901 -0.96047 517.61 449.567
-10.814 -10.8758 -1.07279 524.692 446.065
-8.77376 -11.1686 -1.14263 532.866 445.824
-6.90713 -10.4904 -1.02797 539.891 449.368
-8.70503 -9.84675 -1.11866 532.547 451.058
-10.6144 -9.61824 -1.09959 524.926 451.094
4.65298 -11.103 -0.684711 585.597 452.299
6.32354 -12.033 -1.03467 592.654 449.314
8.34082 -12.175 -0.986124 600.647 449.685
10.1548 -11.3927 -0.791427 607.403 453.634
8.40155 -10.8377 -0.883773 600.274 454.996
6.50308 -10.7908 -0.789694 592.762 454.341
-6.63217 8.72706 -2.75557 532.81 524.62
-4.47243 7.06245 -4.94078 542.479 518.51
-1.92953 5.82125 -6.57163 553.359 514.378
0.905698 5.86046 -8.32136 564.846 515.383
3.61751 5.47705 -6.39443 575.311 515.59
6.17048 6.3575 -4.78193 584.652 520.615
8.31124 7.80577 -2.57808 592.004 527.834
6.55113 9.80856 -3.96274 584.462 534.562
4.09184 11.1273 -5.11011 574.425 538.343
1.20598 11.6084 -6.56613 563.139 538.558
-1.72114 11.4119 -5.20363 551.436 536.796
-4.37939 10.4089 -3.95613 541.17 531.957
-1.94554 7.71992 -5.35417 552.216 522.14
1.02728 7.53121 -7.44996 564.414 522.225
3.8783 7.39558 -5.11696 575.237 523.571
4.05513 8.67894 -4.49506 575.242 528.853
1.15133 9.20501 -6.24384 563.924 529.164
-1.86498 9.02524 -4.58697 551.804 527.501
3 20 21 23
3 21 22 23
3 0 1 36
3 15 16 45
3 0 17 36
3 16 26 45
3 17 18 37
3 25 26 44
3 17 36 37
3 26 44 45
3 18 19 38
3 24 25 43
3 18 37 38
3 25 43 44
3 19 20 38
3 23 24 43
3 20 21 39
3 22 23 42
3 20 38 39
3 23 42 43
3 21 22 27
3 21 27 39
3 22 27 42
3 27 28 42
3 27 28 39
3 28 42 47
3 28 39 40
3 1 36 41
3 15 45 46
3 1 2 41
3 14 15 46
3 28 29 40
3 28 29 47
3 2 40 41
3 14 46 47
3 2 29 40
3 14 29 47
3 2 3 29
3 13 14 29
3 29 30 31
3 29 30 35
3 3 29 31
3 13 29 35
3 30 32 33
3 30 33 34
3 30 31 32
3 30 34 35
3 3 4 31
3 12 13 35
3 4 5 48
3 11 12 54
3 5 6 48
3 10 11 54
3 6 48 59
3 10 54 55
3 6 7 59
3 9 10 55
3 7 58 59
3 9 55 56
3 8 57 58
3 8 56 57
3 7 8 58
3 8 9 56
3 4 31 48
3 12 35 54
3 31 48 49
3 35 53 54
3 31 49 50
3 35 52 53
3 31 32 50
3 34 35 52
3 32 33 50
3 33 34 52
3 33 50 51
3 33 51 52
3 48 49 60
3 49 60 50
3 50 60 61
3 50 51 61
3 51 52 61
3 61 62 52
3 52 53 62
3 53 54 62
3 54 55 63
3 55 56 63
3 56 63 64
3 56 57 64
3 64 65 57
3 57 58 65
3 58 59 65
3 48 59 65
