ply
format ascii 1.0
element vertex 66
property float x
property float y
property float z
property float u
property float v
element face 91
property list uchar int vertex_indices
end_header
-20.5271 -6.2818 21.4065 481.949 468.154
-19.6571 -0.989321 20.7981 482.861 489.37
-18.4602 4.26938 20.4296 485.04 510.665
-16.9305 9.34643 18.5841 488.878 531.114
-14.8822 13.8852 13.4731 495.594 549.04
-11.8898 17.6743 8.05379 506.466 564.421
-8.1316 20.7582 3.38705 520.585 577.556
-3.80355 22.9934 -0.81176 537.297 587.722
1.1068 23.5167 -4.4785 557.069 591.531
6.06715 22.4022 -0.836029 576.596 590.372
10.058 19.386 3.38433 593.139 581.331
13.3413 15.6749 7.94931 607.172 569.258
16.1282 11.6502 13.2347 619.275 555.842
18.149 7.30266 18.2164 628.564 540.702
19.2384 2.69005 20.2112 634.818 523.441
19.6885 -2.02689 20.5244 638.887 505.106
19.6699 -6.75562 20.9352 641.093 486.507
-17.5935 -14.5666 0.211051 501.301 432.643
-15.5038 -16.6408 -1.55354 510.893 425.153
-12.7123 -17.6917 -2.9536 522.685 422.132
-9.7196 -17.7698 -4.31805 534.784 423.061
-6.75004 -17.2134 -5.43999 546.434 426.532
4.01329 -17.6789 -5.31032 589.171 430.161
6.34828 -18.53 -4.07487 598.608 428.23
8.84178 -18.893 -2.69132 608.403 428.336
11.3617 -18.6879 -1.22866 618.006 430.715
13.5948 -17.5409 0.597141 625.946 436.742
-0.292394 -11.8435 -4.81142 569.172 451.128
-0.046139 -8.49422 -7.90703 569.013 463.853
0.187349 -5.14489 -10.8323 568.774 476.606
0.410131 -1.78816 -13.3368 568.416 489.468
-2.59594 1.08126 -6.35934 553.913 500.688
-0.914329 1.46982 -7.31419 560.528 502.879
0.85175 1.56577 -8.13838 567.6 503.984
2.4021 1.27442 -7.16038 573.703 503.815
3.79707 0.666346 -6.35531 579.379 502.281
-12.7426 -10.3541 -1.0299 518.588 451.479
-11.0472 -11.5377 -1.00846 525.872 447.667
-8.91417 -11.8776 -0.992779 534.466 447.406
-7.02993 -11.0501 -0.955007 541.493 451.634
-8.85735 -10.2546 -1.1369 533.909 453.814
-10.8468 -10.0313 -1.10014 525.93 453.698
4.76584 -11.6536 -0.653532 588.349 455.274
6.40396 -12.6812 -0.855361 595.367 452.003
8.49294 -12.813 -0.854093 603.687 452.539
10.3132 -11.8982 -0.764651 610.409 457.09
8.57872 -11.1977 -0.831879 603.219 458.966
6.62566 -11.1639 -0.793819 595.479 458.119
-5.01668 9.07165 -2.76646 539.759 531.741
-3.37665 7.41176 -5.03182 547.453 525.558
-1.36519 6.10427 -6.67777 556.334 521.08
0.949115 6.21574 -8.50344 565.737 522.321
3.12664 5.82734 -6.40957 574.174 522.311
5.13606 6.82246 -4.80851 581.344 527.58
6.70842 8.37417 -2.58463 586.403 534.951
5.56847 10.2874 -3.98311 581.188 541.647
3.70307 11.6069 -5.15627 573.363 545.677
1.32758 12.0827 -6.69484 564.005 546.045
-1.12107 11.8278 -5.30483 554.218 544.081
-3.2705 10.756 -4.01664 546.036 539.022
-0.710995 8.2284 -5.28851 557.624 530.079
1.12745 8.11282 -7.28517 565.289 530.149
2.84375 8.06515 -4.95669 571.694 531.298
2.94861 8.67946 -4.41069 571.709 533.887
1.23485 9.09922 -6.03784 565.009 534.35
-0.595545 8.87037 -4.59082 557.641 532.813
3 20 21 23
3 21 22 23
3 0 1 36
3 15 16 45
3 0 17 36
3 16 26 45
3 17 18 37
3 25 26 44
3 17 36 37
3 26 44 45
3 18 19 38
3 24 25 43
3 18 37 38
3 25 43 44
3 19 20 38
3 23 24 43
3 20 21 39
3 22 23 42
3 20 38 39
3 23 42 43
3 21 22 27
3 21 27 39
3 22 27 42
3 27 28 42
3 27 28 39
3 28 42 47
3 28 39 40
3 1 36 41
3 15 45 46
3 1 2 41
3 14 15 46
3 28 29 40
3 28 29 47
3 2 40 41
3 14 46 47
3 2 29 40
3 14 29 47
3 2 3 29
3 13 14 29
3 29 30 31
3 29 30 35
3 3 29 31
3 13 29 35
3 30 32 33
3 30 33 34
3 30 31 32
3 30 34 35
3 3 4 31
3 12 13 35
3 4 5 48
3 11 12 54
3 5 6 48
3 10 11 54
3 6 48 59
3 10 54 55
3 6 7 59
3 9 10 55
3 7 58 59
3 9 55 56
3 8 57 58
3 8 56 57
3 7 8 58
3 8 9 56
3 4 31 48
3 12 35 54
3 31 48 49
3 35 53 54
3 31 49 50
3 35 52 53
3 31 32 50
3 34 35 52
3 32 33 50
3 33 34 52
3 33 50 51
3 33 51 52
3 48 49 60
3 49 60 50
3 50 60 61
3 50 51 61
3 51 52 61
3 61 62 52
3 52 53 62
3 53 54 62
3 54 55 63
3 55 56 63
3 56 63 64
3 56 57 64
3 64 65 57
3 57 58 65
3 58 59 65
3 48 59 65
