ply
format ascii 1.0
element vertex 66
property float x
property float y
property float z
property float u
property float v
element face 91
property list uchar int vertex_indices
end_header
-21.3932 -6.31441 21.7266 479.879 467.788
-20.5504 -1.03215 21.1115 481.161 487.917
-19.4707 4.22978 20.7256 483.304 508.119
-18.1313 9.38344 18.5568 486.801 527.573
-16.1641 14.1045 13.559 493.362 544.94
-12.9056 17.813 7.99989 505.296 558.854
-8.71101 20.443 3.42935 520.999 569.307
-4.11227 22.2167 -0.840841 538.502 576.76
0.810862 22.6891 -4.6302 557.639 579.546
5.94711 21.8096 -0.833764 576.694 579.187
10.4842 19.3077 3.42212 594.018 572.578
14.4024 15.9458 7.88725 609.291 562.53
17.5144 11.8583 13.3392 621.61 549.668
19.4158 7.22154 18.1903 629.673 534.106
20.2856 2.45035 20.4892 634.36 516.999
20.5878 -2.3556 20.8111 637.28 499.047
20.4807 -7.16786 21.2238 638.638 480.933
-18.0909 -13.9397 0.114779 499.286 434.944
-15.6869 -16.2994 -1.62038 509.6 426.549
-12.5059 -17.5666 -2.99529 522.368 422.676
-9.06281 -17.7169 -4.25948 535.679 423.152
-5.64603 -17.0869 -5.32399 548.555 426.614
2.70889 -17.2516 -5.30621 580.208 429.287
5.46377 -18.2529 -4.09042 590.782 426.891
8.40773 -18.6211 -2.79579 601.815 426.981
11.3516 -18.3164 -1.33815 612.56 429.651
13.9887 -17.0202 0.437823 621.708 436.025
-0.129371 -11.4273 -4.84338 567.164 450.279
0.164088 -8.08121 -7.84472 567.55 462.289
0.436552 -4.7464 -10.8641 567.866 474.243
0.689461 -1.41415 -13.5979 568.055 486.251
-2.60552 1.27204 -6.40999 553.237 496.876
-0.792639 1.73097 -7.34122 560.089 499.093
1.10408 1.85995 -8.20185 567.371 500.114
2.73852 1.52693 -7.17872 573.489 499.754
4.22253 0.838604 -6.39585 579.219 497.932
-12.7436 -9.51251 -0.885242 518 453.522
-11.0622 -10.5034 -1.10394 524.777 450.388
-9.07213 -10.8171 -1.21259 532.442 449.96
-7.17552 -10.2317 -1.12987 539.374 452.938
-8.98364 -9.70107 -1.15957 532.34 454.223
-10.8614 -9.48291 -1.10856 525.147 454.32
4.98947 -10.7781 -0.784746 585.519 455.751
6.67305 -11.5647 -1.09153 592.243 453.368
8.61335 -11.7007 -1.01337 599.617 453.638
10.3851 -10.9799 -0.716188 605.986 457.132
8.62848 -10.5737 -0.893346 599.221 457.93
6.7903 -10.5554 -0.818912 592.25 457.294
-7.28217 8.5024 -2.85077 532.13 523.221
-4.76463 6.94674 -4.99173 542.641 517.808
-1.97779 5.84032 -6.58508 553.897 514.333
0.995962 5.93134 -8.25306 565.416 515.435
3.80894 5.52711 -6.31421 575.848 515.496
6.51893 6.27647 -4.74892 585.519 519.781
8.88462 7.64652 -2.62283 593.547 526.413
6.78486 9.33609 -3.89647 585.197 531.651
4.05998 10.2637 -4.97076 574.738 533.816
1.1683 10.5454 -6.47607 563.975 533.368
-1.76001 10.4768 -5.13372 552.679 532.288
-4.65369 9.85046 -3.91334 541.75 529.085
-1.89161 7.80453 -5.50587 553.272 522.052
1.1283 7.79137 -7.4365 565.054 522.714
3.97287 7.54661 -5.12445 575.475 523.482
4.06279 7.84089 -4.50879 575.589 524.781
1.16196 8.05561 -6.35373 564.88 523.993
-1.84047 8.12826 -4.70769 553.194 523.492
3 20 21 23
3 21 22 23
3 0 1 36
3 15 16 45
3 0 17 36
3 16 26 45
3 17 18 37
3 25 26 44
3 17 36 37
3 26 44 45
3 18 19 38
3 24 25 43
3 18 37 38
3 25 43 44
3 19 20 38
3 23 24 43
3 20 21 39
3 22 23 42
3 20 38 39
3 23 42 43
3 21 22 27
3 21 27 39
3 22 27 42
3 27 28 42
3 27 28 39
3 28 42 47
3 28 39 40
3 1 36 41
3 15 45 46
3 1 2 41
3 14 15 46
3 28 29 40
3 28 29 47
3 2 40 41
3 14 46 47
3 2 29 40
3 14 29 47
3 2 3 29
3 13 14 29
3 29 30 31
3 29 30 35
3 3 29 31
3 13 29 35
3 30 32 33
3 30 33 34
3 30 31 32
3 30 34 35
3 3 4 31
3 12 13 35
3 4 5 48
3 11 12 54
3 5 6 48
3 10 11 54
3 6 48 59
3 10 54 55
3 6 7 59
3 9 10 55
3 7 58 59
3 9 55 56
3 8 57 58
3 8 56 57
3 7 8 58
3 8 9 56
3 4 31 48
3 12 35 54
3 31 48 49
3 35 53 54
3 31 49 50
3 35 52 53
3 31 32 50
3 34 35 52
3 32 33 50
3 33 34 52
3 33 50 51
3 33 51 52
3 48 49 60
3 49 60 50
3 50 60 61
3 50 51 61
3 51 52 61
3 61 62 52
3 52 53 62
3 53 54 62
3 54 55 63
3 55 56 63
3 56 63 64
3 56 57 64
3 64 65 57
3 57 58 65
3 58 59 65
3 48 59 65
