ply
format ascii 1.0
element vertex 66
property float x
property float y
property float z
property float u
property float v
element face 91
property list uchar int vertex_indices
end_header
-20.7905 -5.78507 21.1259 476.791 465.334
-19.9754 -0.675472 20.5144 477.8 485.724
-18.7497 4.38897 20.2273 480.413 506.211
-17.0384 9.22157 18.5226 485.233 525.624
-14.7785 13.4962 13.3142 492.919 542.144
-11.8113 17.2063 8.00238 503.672 556.73
-8.20132 20.3961 3.4339 517.108 569.754
-3.9906 22.8094 -0.786376 533.226 580.079
0.895779 23.4768 -4.42827 552.729 583.97
5.99229 22.5065 -0.759906 572.869 583.449
10.103 19.6134 3.44063 589.903 575.026
13.4523 15.9291 7.89007 604.248 563.196
16.2928 11.9155 13.0953 616.631 550.036
18.3838 7.51711 18.3374 626.215 535.023
19.5692 2.70399 20.1341 632.84 517.035
20.0512 -2.25128 20.4634 636.931 497.77
20.0121 -7.2118 20.9075 638.948 478.278
-17.3484 -14.8677 0.247601 497.147 425.435
-15.3705 -16.8445 -1.52398 506.088 418.055
-12.7081 -17.7739 -2.87992 517.215 415.237
-9.8767 -17.7701 -4.27325 528.597 416.171
-7.09227 -17.185 -5.43593 539.502 419.443
4.10898 -17.8327 -5.24245 584.101 422.053
6.49443 -18.7546 -4.02166 593.801 419.829
9.03587 -19.1734 -2.65602 603.874 419.701
11.5984 -18.8918 -1.27178 613.713 422.355
13.7897 -17.5742 0.590138 621.557 429.06
-0.452826 -11.6851 -4.7703 563.225 444.378
-0.132616 -8.46535 -7.90203 563.445 456.402
0.175814 -5.23592 -10.7698 563.58 468.53
0.470508 -1.99208 -13.1323 563.59 480.844
-2.42596 1.27704 -6.32759 549.793 494.258
-0.831802 1.6501 -7.2677 556.054 496.208
0.853199 1.72687 -8.03727 562.786 497.074
2.37138 1.43462 -7.08673 568.805 496.868
3.71001 0.8232 -6.34754 574.284 495.263
-12.8398 -10.5036 -1.14793 513.209 444.357
-11.1513 -11.7738 -0.995882 520.443 440.152
-8.96316 -12.1299 -0.833086 529.242 439.789
-7.07158 -11.2689 -0.858068 536.345 444.047
-8.88561 -10.3023 -1.16157 528.77 446.955
-10.9277 -10.054 -1.11345 520.57 447.016
4.54012 -11.9066 -0.40551 582.531 446.954
6.20267 -13.0532 -0.705525 589.664 443.104
8.38352 -13.1728 -0.89963 598.374 443.576
10.2633 -12.2258 -0.96187 605.396 448.158
8.51004 -11.3759 -0.842162 598.06 450.747
6.47099 -11.314 -0.744875 589.95 450.086
-2.92327 9.69738 -2.82919 543.598 528.228
-2.05413 7.89775 -5.10906 548.136 520.905
-0.746672 6.38802 -6.73545 554.196 515.103
0.986459 6.54462 -8.60209 561.222 516.013
2.6229 6.18763 -6.52483 567.595 515.908
4.0024 7.48931 -4.9363 572.268 522.105
4.898 9.22741 -2.60105 574.735 530.005
4.1391 10.5252 -3.95875 571.322 534.421
2.89879 11.4276 -5.21818 566.168 537.081
1.23241 11.7686 -6.79547 559.62 537.244
-0.41444 11.5394 -5.36109 553.023 535.971
-1.79017 10.8017 -3.97323 547.733 532.8
0.424765 8.5839 -5.16562 557.646 524.733
1.12406 8.42913 -7.06518 560.725 523.932
1.73392 8.57408 -4.89945 562.798 525.363
1.64081 8.54777 -4.42956 562.382 525.343
1.13899 8.77029 -5.90954 560.484 525.596
0.573692 8.55845 -4.54222 558.168 524.867
3 20 21 23
3 21 22 23
3 0 1 36
3 15 16 45
3 0 17 36
3 16 26 45
3 17 18 37
3 25 26 44
3 17 36 37
3 26 44 45
3 18 19 38
3 24 25 43
3 18 37 38
3 25 43 44
3 19 20 38
3 23 24 43
3 20 21 39
3 22 23 42
3 20 38 39
3 23 42 43
3 21 22 27
3 21 27 39
3 22 27 42
3 27 28 42
3 27 28 39
3 28 42 47
3 28 39 40
3 1 36 41
3 15 45 46
3 1 2 41
3 14 15 46
3 28 29 40
3 28 29 47
3 2 40 41
3 14 46 47
3 2 29 40
3 14 29 47
3 2 3 29
3 13 14 29
3 29 30 31
3 29 30 35
3 3 29 31
3 13 29 35
3 30 32 33
3 30 33 34
3 30 31 32
3 30 34 35
3 3 4 31
3 12 13 35
3 4 5 48
3 11 12 54
3 5 6 48
3 10 11 54
3 6 48 59
3 10 54 55
3 6 7 59
3 9 10 55
3 7 58 59
3 9 55 56
3 8 57 58
3 8 56 57
3 7 8 58
3 8 9 56
3 4 31 48
3 12 35 54
3 31 48 49
3 35 53 54
3 31 49 50
3 35 52 53
3 31 32 50
3 34 35 52
3 32 33 50
3 33 34 52
3 33 50 51
3 33 51 52
3 48 49 60
3 49 60 50
3 50 60 61
3 50 51 61
3 51 52 61
3 61 62 52
3 52 53 62
3 53 54 62
3 54 55 63
3 55 56 63
3 56 63 64
3 56 57 64
3 64 65 57
3 57 58 65
3 58 59 65
3 48 59 65
