ply
format ascii 1.0
element vertex 66
property float x
property float y
property float z
property float u
property float v
element face 91
property list uchar int vertex_indices
end_header
-21.1081 -6.47523 21.3342 482.391 468.746
-20.2891 -1.11786 20.701 482.978 489.303
-19.1078 4.20467 20.3491 484.929 510.013
-17.4344 9.35637 18.5842 489.037 529.794
-15.1905 13.9711 13.2929 496.07 546.501
-12.0835 17.8311 7.9405 506.781 560.747
-8.24855 20.9434 3.38545 520.533 572.811
-3.87863 23.2123 -0.778851 536.689 582.081
1.05931 23.8762 -4.60478 555.758 585.657
6.1016 22.6387 -0.769294 575.111 584.912
10.1789 19.5553 3.37362 591.641 576.775
13.5426 15.7406 7.82185 605.761 565.612
16.412 11.5639 13.0455 618.064 553.113
18.6216 7.10329 18.1157 628.005 539.145
19.8588 2.43613 20.0325 634.762 522.726
20.2722 -2.2926 20.2955 638.627 505.041
20.1505 -7.0257 20.7299 640.425 487.135
-17.6175 -14.3473 0.160971 502.488 432.641
-15.4854 -16.8495 -1.65705 512.113 423.513
-12.4433 -18.1669 -2.94616 524.562 419.546
-9.10939 -18.2056 -4.24761 537.5 420.586
-5.8216 -17.4237 -5.35028 549.832 424.8
2.99165 -17.5877 -5.24585 583.581 428.638
5.52787 -18.7082 -3.99954 593.653 426.114
8.28358 -19.18 -2.66392 604.234 426.201
11.0451 -18.8586 -1.3002 614.444 429.319
13.4066 -17.4514 0.517003 622.53 436.537
-0.127303 -11.5307 -4.78371 568.625 450.289
0.102248 -8.33044 -7.89167 568.356 461.419
0.316815 -5.11391 -10.7214 567.984 472.707
0.51792 -1.88926 -13.0974 567.495 484.189
-2.33215 0.750946 -6.27364 554.374 495.351
-0.741683 1.21157 -7.15685 560.347 497.572
0.95513 1.34326 -7.96015 566.877 498.625
2.42564 1.04659 -6.93486 572.503 498.617
3.70368 0.399381 -6.17145 577.6 497.082
-12.3246 -10.0203 -1.25554 520.786 451.231
-10.6969 -10.9186 -1.12404 527.43 448.679
-8.74936 -11.3156 -0.929239 535.041 448.219
-6.91655 -10.9 -0.850304 541.831 450.75
-8.63871 -10.1446 -1.14572 534.919 452.649
-10.5016 -9.90254 -1.14821 527.681 452.634
4.83702 -11.4311 -0.539497 586.969 454.745
6.47949 -12.0097 -0.745921 593.558 453.291
8.38471 -12.0439 -0.944315 600.883 454.043
10.0733 -11.3818 -0.996639 607.019 457.39
8.38271 -10.9141 -0.884295 600.313 458.363
6.56548 -10.9372 -0.804694 593.368 457.393
-3.72745 9.22454 -2.80982 544.409 528.182
-2.78864 7.17778 -5.09209 549.314 520.014
-1.21401 5.51968 -6.62475 556.355 513.924
0.897089 5.59197 -8.38456 564.628 514.602
2.88846 5.32101 -6.2912 572.086 515.352
4.48128 6.78024 -4.81612 577.255 522.254
5.36055 8.87073 -2.62654 579.29 531.466
4.60896 10.5045 -3.93175 575.794 536.817
3.24053 11.7144 -5.15883 570.138 540.275
1.27416 12.1739 -6.88463 562.634 540.392
-0.765833 11.817 -5.35768 554.804 538.58
-2.4027 10.7251 -3.97539 548.895 534.121
0.0220172 7.83274 -5.14915 559.742 523.896
1.06681 7.63081 -7.03063 564.091 522.949
2.01385 7.84077 -4.72719 567.293 525.084
2.05546 8.70939 -4.32105 566.97 528.561
1.21041 9.13614 -6.00819 563.761 529.13
0.234108 8.71853 -4.56713 560.038 527.589
3 20 21 23
3 21 22 23
3 0 1 36
3 15 16 45
3 0 17 36
3 16 26 45
3 17 18 37
3 25 26 44
3 17 36 37
3 26 44 45
3 18 19 38
3 24 25 43
3 18 37 38
3 25 43 44
3 19 20 38
3 23 24 43
3 20 21 39
3 22 23 42
3 20 38 39
3 23 42 43
3 21 22 27
3 21 27 39
3 22 27 42
3 27 28 42
3 27 28 39
3 28 42 47
3 28 39 40
3 1 36 41
3 15 45 46
3 1 2 41
3 14 15 46
3 28 29 40
3 28 29 47
3 2 40 41
3 14 46 47
3 2 29 40
3 14 29 47
3 2 3 29
3 13 14 29
3 29 30 31
3 29 30 35
3 3 29 31
3 13 29 35
3 30 32 33
3 30 33 34
3 30 31 32
3 30 34 35
3 3 4 31
3 12 13 35
3 4 5 48
3 11 12 54
3 5 6 48
3 10 11 54
3 6 48 59
3 10 54 55
3 6 7 59
3 9 10 55
3 7 58 59
3 9 55 56
3 8 57 58
3 8 56 57
3 7 8 58
3 8 9 56
3 4 31 48
3 12 35 54
3 31 48 49
3 35 53 54
3 31 49 50
3 35 52 53
3 31 32 50
3 34 35 52
3 32 33 50
3 33 34 52
3 33 50 51
3 33 51 52
3 48 49 60
3 49 60 50
3 50 60 61
3 50 51 61
3 51 52 61
3 61 62 52
3 52 53 62
3 53 54 62
3 54 55 63
3 55 56 63
3 56 63 64
3 56 57 64
3 64 65 57
3 57 58 65
3 58 59 65
3 48 59 65
