ply
format ascii 1.0
element vertex 66
property float x
property float y
property float z
property float u
property float v
element face 91
property list uchar int vertex_indices
end_header
-21.1018 -5.57045 21.4513 485.807 467.306
-20.2692 -0.55576 20.8797 486.352 487.024
-19.14 4.42678 20.551 488.034 506.798
-17.7169 9.27088 18.5192 491.081 526.067
-15.6687 13.6963 13.4833 497.041 543.834
-12.5264 17.3557 8.05758 507.664 559.215
-8.57926 20.2084 3.50281 521.741 571.994
-4.12999 22.233 -0.810991 538.178 581.875
0.778465 22.7397 -4.48895 557.146 586.209
5.91152 21.978 -0.840448 576.984 586.344
10.366 19.4985 3.49642 595.075 579.548
14.1838 16.1521 7.97647 611.17 569.079
17.232 12.146 13.362 624.575 555.722
19.0446 7.51138 18.4744 633.588 539.252
19.9279 2.54605 20.6273 639.476 520.778
20.3411 -2.5125 21.047 643.766 501.556
20.3594 -7.58349 21.4529 646.543 482.071
-17.9302 -13.8386 0.225816 504.466 435.563
-15.7136 -15.9185 -1.5971 514.296 428.618
-12.8218 -16.9702 -3.01683 526.132 426.03
-9.73079 -17.1208 -4.33341 538.238 427.027
-6.66005 -16.6711 -5.41611 549.919 430.344
3.59949 -17.3112 -5.30885 589.759 433.459
6.37215 -18.2494 -4.14146 600.835 431.441
9.28968 -18.6291 -2.81483 612.151 431.665
12.2081 -18.2866 -1.34041 623.066 434.682
14.7686 -16.8972 0.524127 632 441.566
-0.546128 -11.6993 -4.86065 570.718 452.851
-0.199532 -8.27792 -7.89469 570.483 465.98
0.137358 -4.86865 -10.9054 570.215 479.06
0.460913 -1.45453 -13.5478 569.858 492.18
-2.81458 1.58084 -6.47985 554.947 502.631
-1.05198 1.99522 -7.41313 561.596 505.112
0.790672 2.0869 -8.22921 568.717 506.403
2.48318 1.73774 -7.32213 575.339 506.048
4.03069 1.04813 -6.57955 581.602 504.289
-12.6966 -9.77568 -0.87194 522.521 453.965
-11.0041 -11.0285 -1.07404 529.735 450.045
-8.87386 -11.3112 -1.17105 538.099 450.106
-6.95403 -10.4581 -1.09596 545.023 454.439
-8.79727 -9.77164 -1.14022 537.558 456.078
-10.7685 -9.52829 -1.09691 529.832 455.948
4.74769 -11.2163 -0.687259 590.453 457.905
6.45081 -12.4018 -1.07345 597.688 454.236
8.57969 -12.575 -0.995089 605.972 454.731
10.4849 -11.6713 -0.711685 612.792 459.267
8.68011 -11.0075 -0.859327 605.497 460.832
6.69432 -10.9196 -0.766149 597.795 460.099
-6.79711 8.64931 -2.79073 535.444 527.969
-4.47491 7.07619 -4.97658 545.44 523.005
-1.86469 5.98223 -6.62161 556.235 520.084
0.92352 6.08766 -8.34879 567.075 521.872
3.60355 5.61753 -6.4934 577.476 521.659
6.23491 6.32633 -4.84499 587.072 525.944
8.579 7.59608 -2.56288 595.198 532.281
6.53595 9.33098 -3.90267 586.517 537.749
3.91053 10.3355 -5.0605 575.972 540.102
1.08598 10.6642 -6.47863 565.05 539.725
-1.69837 10.6358 -5.13303 554.219 538.207
-4.42006 10.014 -3.84892 543.956 534.434
-1.7357 7.95133 -5.45068 555.558 527.826
1.03431 7.8973 -7.40937 566.435 528.972
3.67437 7.62341 -5.29661 576.552 529.513
3.70576 7.83485 -4.5959 576.494 530.398
1.01284 8.0641 -6.31053 566.16 529.687
-1.73296 8.18174 -4.62067 555.366 528.778
3 20 21 23
3 21 22 23
3 0 1 36
3 15 16 45
3 0 17 36
3 16 26 45
3 17 18 37
3 25 26 44
3 17 36 37
3 26 44 45
3 18 19 38
3 24 25 43
3 18 37 38
3 25 43 44
3 19 20 38
3 23 24 43
3 20 21 39
3 22 23 42
3 20 38 39
3 23 42 43
3 21 22 27
3 21 27 39
3 22 27 42
3 27 28 42
3 27 28 39
3 28 42 47
3 28 39 40
3 1 36 41
3 15 45 46
3 1 2 41
3 14 15 46
3 28 29 40
3 28 29 47
3 2 40 41
3 14 46 47
3 2 29 40
3 14 29 47
3 2 3 29
3 13 14 29
3 29 30 31
3 29 30 35
3 3 29 31
3 13 29 35
3 30 32 33
3 30 33 34
3 30 31 32
3 30 34 35
3 3 4 31
3 12 13 35
3 4 5 48
3 11 12 54
3 5 6 48
3 10 11 54
3 6 48 59
3 10 54 55
3 6 7 59
3 9 10 55
3 7 58 59
3 9 55 56
3 8 57 58
3 8 56 57
3 7 8 58
3 8 9 56
3 4 31 48
3 12 35 54
3 31 48 49
3 35 53 54
3 31 49 50
3 35 52 53
3 31 32 50
3 34 35 52
3 32 33 50
3 33 34 52
3 33 50 51
3 33 51 52
3 48 49 60
3 49 60 50
3 50 60 61
3 50 51 61
3 51 52 61
3 61 62 52
3 52 53 62
3 53 54 62
3 54 55 63
3 55 56 63
3 56 63 64
3 56 57 64
3 64 65 57
3 57 58 65
3 58 59 65
3 48 59 65
