ply
format ascii 1.0
element vertex 66
property float x
property float y
property float z
property float u
property float v
element face 91
property list uchar int vertex_indices
end_header
-20.5409 -6.25312 21.3598 483.954 469.089
-19.6923 -0.868698 20.757 484.587 490.619
-18.5059 4.48529 20.3965 486.557 512.259
-16.9548 9.61053 18.6315 490.161 532.854
-14.9068 14.1154 13.4027 496.235 550.443
-11.9483 17.8773 8.00261 506.296 565.529
-8.21494 20.9675 3.38164 519.719 578.548
-3.8761 23.19 -0.819827 535.955 588.554
1.07694 23.6642 -4.52795 555.484 592.096
6.15585 22.5438 -0.763394 575.917 591.171
10.2051 19.4632 3.4073 593.261 582.081
13.4666 15.644 7.92556 607.852 569.756
16.1887 11.5426 13.1818 620.416 556.214
18.1829 7.1789 18.2292 630.249 541.215
19.2692 2.51052 20.0936 636.826 523.8
19.6566 -2.289 20.3629 640.795 505.133
19.5355 -7.09279 20.793 642.749 486.226
-17.4993 -14.6595 0.219464 501.424 432.527
-15.4684 -16.828 -1.57155 510.655 424.597
-12.6854 -17.9001 -2.92345 522.272 421.48
-9.70229 -17.933 -4.28439 534.149 422.562
-6.75327 -17.3198 -5.41434 545.548 426.23
4.31461 -17.831 -5.30895 589.531 429.922
6.51986 -18.6875 -4.06267 598.613 427.97
8.89349 -19.0714 -2.67439 608.112 428.001
11.3073 -18.8843 -1.24195 617.474 430.316
13.4327 -17.727 0.595313 625.179 436.404
-0.123975 -11.7042 -4.78366 568.834 451.93
0.113876 -8.49076 -7.90961 568.302 463.991
0.336346 -5.27079 -10.792 567.693 476.127
0.539807 -2.03681 -13.2021 566.975 488.419
-2.34425 1.02434 -6.31505 553.639 500.63
-0.738912 1.38048 -7.25613 559.851 502.637
0.954717 1.46376 -8.06501 566.544 503.646
2.40219 1.22277 -7.0582 572.33 503.675
3.69294 0.686923 -6.21807 577.658 502.422
-12.6125 -10.5505 -1.11055 518.704 450.93
-10.9415 -11.7192 -1.0224 525.898 447.199
-8.83292 -12.0747 -0.918887 534.405 446.905
-6.98908 -11.2292 -0.866002 541.254 451.199
-8.77197 -10.3472 -1.12999 533.774 453.699
-10.7539 -10.1401 -1.09116 525.836 453.507
4.79867 -11.7987 -0.546912 588.099 455.081
6.39011 -12.822 -0.742571 594.921 451.817
8.45338 -12.9406 -0.873776 603.14 452.378
10.2256 -12.0105 -0.913361 609.668 456.947
8.54467 -11.2378 -0.856404 602.629 459.145
6.61311 -11.2033 -0.807148 594.978 458.3
-3.89399 9.3329 -2.80908 543.077 533.426
-2.62998 7.65966 -5.10878 549.052 526.935
-1.0345 6.26455 -6.73956 556.158 521.869
0.896742 6.42505 -8.54363 563.804 523.07
2.67963 6.08446 -6.47265 570.909 523.129
4.24328 7.2758 -4.87958 576.391 529.005
5.36857 8.95396 -2.61038 579.854 536.735
4.56192 10.5614 -3.96294 575.92 542.343
3.11382 11.6541 -5.20652 569.708 545.616
1.18134 12.0228 -6.80664 561.972 545.702
-0.818658 11.7537 -5.37756 554.13 543.949
-2.52164 10.7917 -4.02461 547.82 539.599
-0.0314677 8.50425 -5.24501 558.894 531.569
1.05636 8.40164 -7.13502 563.348 531.279
2.0047 8.51277 -4.826 566.911 532.747
2.01053 8.63193 -4.34237 566.847 533.333
1.11345 8.86939 -5.97806 563.271 533.425
0.0917596 8.65 -4.59945 559.271 532.359
3 20 21 23
3 21 22 23
3 0 1 36
3 15 16 45
3 0 17 36
3 16 26 45
3 17 18 37
3 25 26 44
3 17 36 37
3 26 44 45
3 18 19 38
3 24 25 43
3 18 37 38
3 25 43 44
3 19 20 38
3 23 24 43
3 20 21 39
3 22 23 42
3 20 38 39
3 23 42 43
3 21 22 27
3 21 27 39
3 22 27 42
3 27 28 42
3 27 28 39
3 28 42 47
3 28 39 40
3 1 36 41
3 15 45 46
3 1 2 41
3 14 15 46
3 28 29 40
3 28 29 47
3 2 40 41
3 14 46 47
3 2 29 40
3 14 29 47
3 2 3 29
3 13 14 29
3 29 30 31
3 29 30 35
3 3 29 31
3 13 29 35
3 30 32 33
3 30 33 34
3 30 31 32
3 30 34 35
3 3 4 31
3 12 13 35
3 4 5 48
3 11 12 54
3 5 6 48
3 10 11 54
3 6 48 59
3 10 54 55
3 6 7 59
3 9 10 55
3 7 58 59
3 9 55 56
3 8 57 58
3 8 56 57
3 7 8 58
3 8 9 56
3 4 31 48
3 12 35 54
3 31 48 49
3 35 53 54
3 31 49 50
3 35 52 53
3 31 32 50
3 34 35 52
3 32 33 50
3 33 34 52
3 33 50 51
3 33 51 52
3 48 49 60
3 49 60 50
3 50 60 61
3 50 51 61
3 51 52 61
3 61 62 52
3 52 53 62
3 53 54 62
3 54 55 63
3 55 56 63
3 56 63 64
3 56 57 64
3 64 65 57
3 57 58 65
3 58 59 65
3 48 59 65
