ply
format ascii 1.0
element vertex 66
property float x
property float y
property float z
property float u
property float v
element face 91
property list uchar int vertex_indices
end_header
-20.831 -5.45685 21.4984 483.729 466.294
-19.9696 -0.417513 20.9202 484.441 486.316
-18.8322 4.59183 20.5647 486.222 506.384
-17.4382 9.46253 18.5028 489.228 525.925
-15.4609 13.9015 13.5003 494.995 543.883
-12.402 17.5371 8.02877 505.439 559.26
-8.5391 20.3637 3.42111 519.366 571.984
-4.17782 22.3727 -0.856171 535.638 581.82
0.63897 22.8791 -4.52697 554.431 586.098
5.77196 22.0293 -0.794335 574.518 585.817
10.1624 19.386 3.47776 592.627 578.2
13.8874 15.8976 7.99375 608.578 566.959
16.8874 11.8179 13.3805 621.945 553.092
18.7429 7.19968 18.3821 631.184 536.49
19.6611 2.31512 20.5412 637.171 518.141
20.0658 -2.65177 20.9204 641.362 499.065
20.0406 -7.63344 21.3037 643.89 479.702
-17.7439 -14.1123 0.246038 502.248 432.714
-15.6091 -16.1229 -1.54627 511.785 425.904
-12.8117 -17.1408 -2.96092 523.335 423.338
-9.82071 -17.2798 -4.28752 535.162 424.302
-6.8399 -16.8442 -5.38079 546.621 427.512
4.10147 -17.5143 -5.36283 589.537 430.766
6.64602 -18.3489 -4.16677 599.774 428.97
9.32467 -18.6869 -2.8091 610.253 429.19
12.0094 -18.4104 -1.30339 620.414 431.815
14.3842 -17.1807 0.534066 628.832 438.005
-0.32908 -11.586 -4.82202 569.09 451.493
-0.0145423 -8.27954 -7.86555 568.819 464.3
0.284655 -4.98388 -10.8821 568.492 477.057
0.562131 -1.68477 -13.5387 568.046 489.843
-2.71643 1.41637 -6.44789 553.007 500.673
-0.932981 1.80219 -7.40006 559.823 503.059
0.923503 1.89917 -8.2301 567.067 504.369
2.56579 1.57808 -7.29658 573.543 504.068
4.08033 0.948129 -6.5163 579.701 502.486
-12.8295 -9.9146 -0.827625 519.218 451.595
-11.1359 -11.206 -1.01838 526.513 447.464
-8.97544 -11.5017 -1.14021 535.085 447.462
-7.0644 -10.5736 -1.08052 542.018 452.1
-8.90575 -9.8035 -1.1327 534.449 454.106
-10.9061 -9.57483 -1.06279 526.54 453.929
4.91583 -11.2917 -0.707139 588.969 455.75
6.57995 -12.5056 -1.05003 596.12 451.894
8.71896 -12.6864 -0.966645 604.529 452.343
10.5926 -11.7089 -0.729003 611.275 457.166
8.82562 -10.9644 -0.869991 604.016 459.105
6.83715 -10.8908 -0.798314 596.236 458.332
-6.58216 8.77297 -2.81388 533.72 527.487
-4.32043 7.21214 -4.99661 543.545 522.466
-1.79244 6.08286 -6.64516 554.128 519.305
0.92053 6.21459 -8.3979 564.766 521.141
3.49819 5.76564 -6.49677 574.863 520.915
5.9952 6.55342 -4.83485 584.008 525.44
8.17356 7.88765 -2.54895 591.565 531.964
6.28238 9.62993 -3.92336 583.401 537.628
3.78068 10.6533 -5.07331 573.226 540.184
1.04549 10.9834 -6.52641 562.54 539.896
-1.67063 10.8891 -5.17844 551.905 538.174
-4.30129 10.1925 -3.90317 541.931 534.15
-1.65331 8.06264 -5.44958 553.506 527.169
1.02505 8.03771 -7.42831 564.113 528.36
3.53696 7.81129 -5.19339 573.806 528.99
3.56874 8.09129 -4.52217 573.721 530.145
1.01182 8.34314 -6.26176 563.795 529.627
-1.63778 8.37527 -4.64394 553.328 528.453
3 20 21 23
3 21 22 23
3 0 1 36
3 15 16 45
3 0 17 36
3 16 26 45
3 17 18 37
3 25 26 44
3 17 36 37
3 26 44 45
3 18 19 38
3 24 25 43
3 18 37 38
3 25 43 44
3 19 20 38
3 23 24 43
3 20 21 39
3 22 23 42
3 20 38 39
3 23 42 43
3 21 22 27
3 21 27 39
3 22 27 42
3 27 28 42
3 27 28 39
3 28 42 47
3 28 39 40
3 1 36 41
3 15 45 46
3 1 2 41
3 14 15 46
3 28 29 40
3 28 29 47
3 2 40 41
3 14 46 47
3 2 29 40
3 14 29 47
3 2 3 29
3 13 14 29
3 29 30 31
3 29 30 35
3 3 29 31
3 13 29 35
3 30 32 33
3 30 33 34
3 30 31 32
3 30 34 35
3 3 4 31
3 12 13 35
3 4 5 48
3 11 12 54
3 5 6 48
3 10 11 54
3 6 48 59
3 10 54 55
3 6 7 59
3 9 10 55
3 7 58 59
3 9 55 56
3 8 57 58
3 8 56 57
3 7 8 58
3 8 9 56
3 4 31 48
3 12 35 54
3 31 48 49
3 35 53 54
3 31 49 50
3 35 52 53
3 31 32 50
3 34 35 52
3 32 33 50
3 33 34 52
3 33 50 51
3 33 51 52
3 48 49 60
3 49 60 50
3 50 60 61
3 50 51 61
3 51 52 61
3 61 62 52
3 52 53 62
3 53 54 62
3 54 55 63
3 55 56 63
3 56 63 64
3 56 57 64
3 64 65 57
3 57 58 65
3 58 59 65
3 48 59 65
