ply
format ascii 1.0
element vertex 66
property float x
property float y
property float z
property float u
property float v
element face 91
property list uchar int vertex_indices
end_header
-20.991 -5.93949 21.6308 478.754 462.769
-20.1249 -0.75594 21.0367 479.711 483.534
-19.0079 4.40122 20.6496 481.635 504.369
-17.6539 9.43056 18.5399 484.874 524.434
-15.7111 14.0079 13.526 491.195 542.364
-12.5678 17.6597 8.00368 502.81 557.136
-8.54716 20.3627 3.40119 518.194 568.812
-4.07619 22.2296 -0.8551 535.708 577.494
0.781538 22.6763 -4.56227 555.355 580.888
5.86335 21.7889 -0.828858 575.187 580.792
10.2473 19.1789 3.43179 593.021 573.66
14.0006 15.7606 7.93752 608.72 563.074
17.0179 11.7229 13.3559 621.651 549.874
18.9021 7.17211 18.254 630.457 533.96
19.8106 2.42714 20.4974 635.99 516.192
20.1831 -2.38332 20.8422 639.786 497.471
20.1387 -7.20702 21.2255 641.934 478.495
-18.0127 -14.248 0.232085 498.558 426.704
-15.774 -16.3794 -1.53841 508.783 419.029
-12.8256 -17.455 -2.95289 521.223 415.96
-9.66984 -17.5467 -4.26462 533.975 416.903
-6.53627 -16.9907 -5.3464 546.275 420.442
3.69325 -17.3899 -5.33213 586.881 424.048
6.24557 -18.3115 -4.11456 597.198 421.974
8.96282 -18.7092 -2.76478 607.883 422.081
11.7064 -18.5046 -1.26184 618.345 424.613
14.166 -17.3222 0.54055 627.144 430.927
-0.207427 -11.3499 -4.85526 568.387 446.02
0.069123 -8.06144 -7.88323 568.402 458.463
0.328182 -4.78319 -10.8921 568.349 470.862
0.569726 -1.50372 -13.5645 568.165 483.332
-2.649 1.34406 -6.41521 552.728 494.539
-0.871243 1.7511 -7.3846 559.726 496.829
0.981933 1.86206 -8.25211 567.151 498.011
2.6001 1.54512 -7.25138 573.517 497.803
4.08359 0.907938 -6.43538 579.544 496.221
-12.8209 -9.85659 -0.856758 517.087 446.422
-11.1599 -11.0717 -1.03863 524.285 442.426
-9.06488 -11.3548 -1.15449 532.723 442.343
-7.2033 -10.4506 -1.05823 539.61 446.876
-9.00609 -9.72863 -1.13154 532.144 448.797
-10.9486 -9.53229 -1.07787 524.363 448.6
5.09633 -11.085 -0.745741 588.456 450.668
6.70531 -12.2008 -1.05066 595.421 447.01
8.75302 -12.3745 -0.947363 603.578 447.384
10.5467 -11.4353 -0.687423 610.15 452.057
8.8365 -10.7382 -0.867043 603.081 453.903
6.93075 -10.6785 -0.812586 595.513 453.186
-6.80812 8.71271 -2.83546 531.986 522.317
-4.41561 7.22744 -5.02912 542.576 517.176
-1.80895 6.12736 -6.66447 553.719 513.788
0.968533 6.25294 -8.3901 564.944 515.305
3.598 5.81981 -6.427 575.187 515.364
6.15019 6.57128 -4.80698 584.6 519.984
8.41559 7.85628 -2.60436 592.508 526.695
6.47984 9.56929 -3.9308 584.254 532.18
3.91767 10.5492 -5.03356 573.848 534.504
1.1478 10.8665 -6.50851 563.018 534.025
-1.64702 10.7766 -5.18074 551.779 532.552
-4.38236 10.1077 -3.94051 541.079 528.805
-1.61923 8.05273 -5.49969 553.299 521.744
1.09709 8.04352 -7.44788 564.391 522.648
3.65243 7.81065 -5.17247 574.185 523.53
3.72591 8.08857 -4.50906 574.216 524.812
1.12163 8.324 -6.25825 564.131 524.033
-1.57941 8.36292 -4.68186 553.153 523.171
3 20 21 23
3 21 22 23
3 0 1 36
3 15 16 45
3 0 17 36
3 16 26 45
3 17 18 37
3 25 26 44
3 17 36 37
3 26 44 45
3 18 19 38
3 24 25 43
3 18 37 38
3 25 43 44
3 19 20 38
3 23 24 43
3 20 21 39
3 22 23 42
3 20 38 39
3 23 42 43
3 21 22 27
3 21 27 39
3 22 27 42
3 27 28 42
3 27 28 39
3 28 42 47
3 28 39 40
3 1 36 41
3 15 45 46
3 1 2 41
3 14 15 46
3 28 29 40
3 28 29 47
3 2 40 41
3 14 46 47
3 2 29 40
3 14 29 47
3 2 3 29
3 13 14 29
3 29 30 31
3 29 30 35
3 3 29 31
3 13 29 35
3 30 32 33
3 30 33 34
3 30 31 32
3 30 34 35
3 3 4 31
3 12 13 35
3 4 5 48
3 11 12 54
3 5 6 48
3 10 11 54
3 6 48 59
3 10 54 55
3 6 7 59
3 9 10 55
3 7 58 59
3 9 55 56
3 8 57 58
3 8 56 57
3 7 8 58
3 8 9 56
3 4 31 48
3 12 35 54
3 31 48 49
3 35 53 54
3 31 49 50
3 35 52 53
3 31 32 50
3 34 35 52
3 32 33 50
3 33 34 52
3 33 50 51
3 33 51 52
3 48 49 60
3 49 60 50
3 50 60 61
3 50 51 61
3 51 52 61
3 61 62 52
3 52 53 62
3 53 54 62
3 54 55 63
3 55 56 63
3 56 63 64
3 56 57 64
3 64 65 57
3 57 58 65
3 58 59 65
3 48 59 65
