ply
format ascii 1.0
element vertex 66
property float x
property float y
property float z
property float u
property float v
element face 91
property list uchar int vertex_indices
end_header
-21.2595 -5.72157 21.5692 479.081 463.228
-20.3904 -0.746059 20.9811 480.234 482.849
-19.2565 4.1974 20.6777 482.385 502.548
-17.8393 9.03689 18.4391 486.023 521.466
-15.7728 13.5374 13.5469 492.809 538.673
-12.5737 17.1951 8.01264 504.516 552.974
-8.54953 19.9286 3.42931 519.709 564.329
-4.11383 21.8893 -0.853093 536.816 572.954
0.702611 22.507 -4.56093 555.939 576.689
5.77429 21.7256 -0.900728 575.44 577.055
10.3042 19.3551 3.37216 593.469 571.141
14.2445 16.1048 7.86524 609.576 561.579
17.3778 12.0858 13.3491 622.727 548.901
19.2307 7.40816 18.2978 631.29 532.903
20.0944 2.52423 20.6494 636.542 514.938
20.4769 -2.40641 21.0249 640.283 496.037
20.4745 -7.3525 21.4547 642.522 476.905
-18.1046 -14.0593 0.171838 498.99 426.63
-15.7791 -16.1462 -1.52043 509.325 419.18
-12.7579 -17.1574 -2.95569 521.823 416.316
-9.54618 -17.1996 -4.30458 534.593 417.338
-6.37522 -16.5906 -5.42612 546.86 420.933
3.35596 -17.1518 -5.32722 585.033 423.452
6.08156 -18.2054 -4.10458 595.939 420.986
8.97908 -18.6874 -2.75464 607.225 420.861
11.9069 -18.4839 -1.26074 618.282 423.456
14.5264 -17.2416 0.495769 627.605 430.013
-0.33865 -11.0659 -4.83424 567.691 445.487
0.0293451 -7.81794 -7.84763 568.121 457.502
0.380766 -4.58049 -10.8679 568.492 469.467
0.709442 -1.34491 -13.5747 568.722 481.497
-2.65865 1.27461 -6.32808 553.113 491.992
-0.869328 1.74192 -7.37012 560.047 494.394
1.00272 1.88071 -8.28493 567.436 495.591
2.66 1.49618 -7.2621 573.899 495.162
4.17028 0.762933 -6.4076 579.982 493.261
-13.2882 -9.44218 -0.796817 515.761 446.653
-11.6824 -10.5588 -0.990595 522.577 443.028
-9.68625 -10.8954 -1.1563 530.544 442.634
-7.84543 -10.2615 -1.25711 537.438 445.958
-9.57483 -9.55965 -1.21902 530.361 447.868
-11.4438 -9.3126 -1.0953 522.94 447.964
5.46145 -11.0483 -0.766716 589.585 449.42
7.10212 -11.9991 -1.03421 596.472 446.439
9.09748 -12.1328 -0.932678 604.294 446.904
10.8917 -11.3484 -0.675697 610.874 450.886
9.1673 -10.795 -0.861091 603.926 452.162
7.29016 -10.7303 -0.803337 596.569 451.527
-6.97751 8.56581 -2.90731 532.266 519.193
-4.56227 7.02514 -4.95905 542.757 513.815
-1.87249 5.94622 -6.55031 554.022 510.487
0.991274 6.06383 -8.31721 565.433 511.853
3.70706 5.60664 -6.42264 575.905 511.881
6.36827 6.32159 -4.83413 585.667 516.362
8.7231 7.60295 -2.67996 593.871 523.051
6.63658 9.3513 -3.98441 585.143 528.505
3.93917 10.3205 -5.06396 574.362 530.694
1.0973 10.6529 -6.48199 563.375 530.246
-1.72237 10.5634 -5.13087 552.194 528.901
-4.50532 9.93482 -3.91697 541.433 525.44
-1.65193 7.86649 -5.48476 553.796 518.347
1.08761 7.90762 -7.49702 564.801 519.29
3.64664 7.59816 -5.26973 574.535 519.906
3.6868 7.83787 -4.61223 574.466 521.033
1.06612 8.10097 -6.23492 564.409 520.367
-1.63955 8.12529 -4.65426 553.579 519.581
3 20 21 23
3 21 22 23
3 0 1 36
3 15 16 45
3 0 17 36
3 16 26 45
3 17 18 37
3 25 26 44
3 17 36 37
3 26 44 45
3 18 19 38
3 24 25 43
3 18 37 38
3 25 43 44
3 19 20 38
3 23 24 43
3 20 21 39
3 22 23 42
3 20 38 39
3 23 42 43
3 21 22 27
3 21 27 39
3 22 27 42
3 27 28 42
3 27 28 39
3 28 42 47
3 28 39 40
3 1 36 41
3 15 45 46
3 1 2 41
3 14 15 46
3 28 29 40
3 28 29 47
3 2 40 41
3 14 46 47
3 2 29 40
3 14 29 47
3 2 3 29
3 13 14 29
3 29 30 31
3 29 30 35
3 3 29 31
3 13 29 35
3 30 32 33
3 30 33 34
3 30 31 32
3 30 34 35
3 3 4 31
3 12 13 35
3 4 5 48
3 11 12 54
3 5 6 48
3 10 11 54
3 6 48 59
3 10 54 55
3 6 7 59
3 9 10 55
3 7 58 59
3 9 55 56
3 8 57 58
3 8 56 57
3 7 8 58
3 8 9 56
3 4 31 48
3 12 35 54
3 31 48 49
3 35 53 54
3 31 49 50
3 35 52 53
3 31 32 50
3 34 35 52
3 32 33 50
3 33 34 52
3 33 50 51
3 33 51 52
3 48 49 60
3 49 60 50
3 50 60 61
3 50 51 61
3 51 52 61
3 61 62 52
3 52 53 62
3 53 54 62
3 54 55 63
3 55 56 63
3 56 63 64
3 56 57 64
3 64 65 57
3 57 58 65
3 58 59 65
3 48 59 65
