ply
format ascii 1.0
element vertex 66
property float x
property float y
property float z
property float u
property float v
element face 91
property list uchar int vertex_indices
end_header
-21.1046 -6.02691 21.4506 476.029 462.771
-20.2808 -0.943455 20.8474 476.945 483.167
-19.1451 4.1041 20.519 479.037 503.641
-17.6287 9.03146 18.5199 483.156 523.458
-15.4841 13.5459 13.4295 490.82 541.267
-12.3209 17.2798 8.00691 502.989 556.432
-8.39374 20.1931 3.43208 518.35 568.93
-4.00236 22.3196 -0.799174 535.84 578.63
0.856709 22.9526 -4.55259 555.785 582.766
5.85444 21.9988 -0.878808 575.004 582.364
10.1127 19.3276 3.39077 591.981 574.925
13.7856 15.9011 7.86974 606.958 564.246
16.8457 11.9088 13.2161 619.55 551.212
18.8931 7.38428 18.2835 628.476 535.493
19.9488 2.61582 20.466 634.401 517.656
20.3883 -2.21054 20.8344 638.419 498.869
20.3982 -7.0531 21.2278 640.739 479.804
-18.0488 -14.1553 0.240813 498 427.404
-15.8625 -16.4342 -1.5748 508.275 419.094
-12.8653 -17.5765 -2.97444 521.08 415.787
-9.63025 -17.6269 -4.29729 534.265 416.938
-6.43509 -16.9714 -5.38635 546.88 420.915
3.18855 -17.3534 -5.25709 585.094 424.335
5.93899 -18.4745 -4.05455 596.192 421.571
8.88181 -18.9737 -2.71819 607.707 421.395
11.837 -18.6667 -1.26722 618.841 424.441
14.3753 -17.2199 0.576707 627.655 431.872
-0.421257 -11.2099 -4.86206 567.676 446.89
-0.129827 -7.98841 -7.90598 568.082 459.099
0.150949 -4.7669 -10.8346 568.414 471.329
0.42359 -1.54345 -13.3802 568.606 483.649
-2.64556 1.13778 -6.31617 553.188 494.28
-0.953176 1.56173 -7.30658 559.946 496.597
0.820545 1.66681 -8.20346 567.158 497.715
2.42869 1.32721 -7.18146 573.403 497.42
3.87976 0.644573 -6.39749 579.261 495.635
-12.6804 -9.70396 -1.00114 517.379 447.47
-11.078 -10.8584 -1.06655 524.305 443.705
-9.04572 -11.1796 -1.07925 532.504 443.466
-7.20757 -10.4593 -1.02379 539.403 447.265
-8.94544 -9.68849 -1.15604 532.186 449.399
-10.8344 -9.45686 -1.12239 524.592 449.361
4.98747 -11.1609 -0.650087 587.877 450.785
6.61146 -12.1436 -0.966942 594.872 447.654
8.62377 -12.2658 -0.936658 602.883 448.202
10.3979 -11.4253 -0.742565 609.431 452.475
8.68711 -10.7852 -0.839439 602.376 454.114
6.80391 -10.7298 -0.764171 594.879 453.391
-5.86211 8.81461 -2.82896 535.712 523.797
-3.94178 7.11807 -5.03668 544.756 517.567
-1.62973 5.83418 -6.62205 554.973 513.309
0.991889 5.92744 -8.36506 565.778 514.622
3.50304 5.49964 -6.3916 575.374 514.652
5.85135 6.42626 -4.84096 583.774 519.863
7.78708 7.90625 -2.63191 590.088 527.201
6.18695 9.76978 -3.98135 583.214 533.455
3.92494 10.9743 -5.13257 573.992 536.809
1.29383 11.4247 -6.66197 563.787 536.907
-1.34692 11.2456 -5.25012 553.04 535.171
-3.7932 10.3707 -3.94137 543.435 530.757
-1.07823 7.90581 -5.36331 555.783 522.069
1.14227 7.8224 -7.3071 565.144 522.433
3.2538 7.65717 -5.14744 572.979 523.341
3.33385 8.26512 -4.54324 572.828 525.922
1.20818 8.65788 -6.16167 564.675 526.03
-0.997161 8.53203 -4.60634 555.585 524.758
3 20 21 23
3 21 22 23
3 0 1 36
3 15 16 45
3 0 17 36
3 16 26 45
3 17 18 37
3 25 26 44
3 17 36 37
3 26 44 45
3 18 19 38
3 24 25 43
3 18 37 38
3 25 43 44
3 19 20 38
3 23 24 43
3 20 21 39
3 22 23 42
3 20 38 39
3 23 42 43
3 21 22 27
3 21 27 39
3 22 27 42
3 27 28 42
3 27 28 39
3 28 42 47
3 28 39 40
3 1 36 41
3 15 45 46
3 1 2 41
3 14 15 46
3 28 29 40
3 28 29 47
3 2 40 41
3 14 46 47
3 2 29 40
3 14 29 47
3 2 3 29
3 13 14 29
3 29 30 31
3 29 30 35
3 3 29 31
3 13 29 35
3 30 32 33
3 30 33 34
3 30 31 32
3 30 34 35
3 3 4 31
3 12 13 35
3 4 5 48
3 11 12 54
3 5 6 48
3 10 11 54
3 6 48 59
3 10 54 55
3 6 7 59
3 9 10 55
3 7 58 59
3 9 55 56
3 8 57 58
3 8 56 57
3 7 8 58
3 8 9 56
3 4 31 48
3 12 35 54
3 31 48 49
3 35 53 54
3 31 49 50
3 35 52 53
3 31 32 50
3 34 35 52
3 32 33 50
3 33 34 52
3 33 50 51
3 33 51 52
3 48 49 60
3 49 60 50
3 50 60 61
3 50 51 61
3 51 52 61
3 61 62 52
3 52 53 62
3 53 54 62
3 54 55 63
3 55 56 63
3 56 63 64
3 56 57 64
3 64 65 57
3 57 58 65
3 58 59 65
3 48 59 65
