ply
format ascii 1.0
element vertex 66
property float x
property float y
property float z
property float u
property float v
element face 91
property list uchar int vertex_indices
end_header
-21.0592 -6.63849 21.5406 481.879 466.377
-20.2767 -1.18826 20.9041 482.901 487.575
-19.1888 4.23457 20.4878 485.081 508.847
-17.6871 9.48326 18.5407 489.169 529.193
-15.5808 14.1698 13.4419 496.307 546.745
-12.4078 17.934 7.9716 507.988 561.054
-8.40789 20.7959 3.29676 523.096 572.422
-3.93675 22.8358 -0.85519 540.265 580.945
1.01394 23.3751 -4.62157 559.811 583.964
6.07653 22.2086 -0.787591 579.266 582.514
10.2428 19.2389 3.36724 595.898 573.827
13.7431 15.569 7.91229 610.161 562.278
16.6949 11.474 13.206 622.349 549.073
18.8473 7.03856 18.0709 631.64 534.118
19.9527 2.42032 20.1572 637.38 517.281
20.2818 -2.26999 20.4286 640.425 499.362
20.124 -6.96233 20.8239 641.567 481.275
-17.5245 -14.5199 0.12367 501.948 431.47
-15.254 -16.7733 -1.57223 511.874 423.2
-12.2281 -17.9361 -2.91881 524.249 419.54
-8.96809 -17.9741 -4.2332 537.09 420.328
-5.75352 -17.2403 -5.3534 549.427 424.132
2.95681 -17.3081 -5.31925 583.172 427.337
5.4644 -18.2939 -4.06029 593.066 424.867
8.17302 -18.68 -2.72061 603.494 424.816
10.8912 -18.3925 -1.30128 613.686 427.394
13.282 -17.1147 0.462086 622.174 433.762
-0.131506 -11.5183 -4.82702 568.9 448.618
0.0735043 -8.34538 -7.84741 568.937 460.135
0.258658 -5.17093 -10.7438 568.878 471.683
0.433541 -1.99574 -13.3149 568.728 483.319
-2.54929 0.762012 -6.32362 555.024 494.703
-0.840156 1.18979 -7.22194 561.616 496.789
0.955642 1.30559 -8.03689 568.651 497.726
2.49772 1.0161 -7.02063 574.575 497.498
3.87404 0.386414 -6.27539 580.031 495.814
-12.6168 -9.95276 -1.08615 519.372 450.736
-10.8824 -10.8835 -1.06443 526.444 447.833
-8.84142 -11.2218 -1.02034 534.47 447.348
-6.94614 -10.6623 -0.930973 541.578 450.287
-8.78469 -10.019 -1.13659 534.242 451.987
-10.7244 -9.81344 -1.12953 526.652 452.013
4.75345 -11.1003 -0.705583 587.01 453.299
6.43406 -11.7787 -0.918687 593.812 451.286
8.40095 -11.8697 -0.936999 601.465 451.711
10.17 -11.1694 -0.834158 608.028 455.147
8.42226 -10.7008 -0.895483 601.089 456.247
6.54978 -10.7153 -0.838414 593.836 455.464
-5.39448 8.8151 -2.80247 540.346 525.655
-3.74875 6.95789 -5.01001 547.78 518.528
-1.59414 5.5176 -6.6074 556.927 513.381
0.954553 5.54582 -8.37478 567.06 514.019
3.37471 5.24874 -6.22756 576.21 514.418
5.51748 6.3803 -4.68931 583.829 520.062
7.06971 8.17868 -2.57819 588.815 528.204
5.89491 10.1962 -3.93421 583.698 535.163
3.94857 11.6322 -5.10166 575.789 539.621
1.39747 12.1423 -6.75067 565.971 540.129
-1.2585 11.8354 -5.34779 555.588 538.272
-3.53365 10.622 -4.04703 547.046 533.036
-1.07945 7.64136 -5.2712 557.891 522.157
1.14222 7.43899 -7.26451 566.881 521.712
3.25661 7.47176 -4.81787 574.674 523.347
3.44951 8.79793 -4.32353 574.831 528.683
1.34006 9.34897 -6.11641 566.73 529.485
-0.910171 9.0008 -4.61833 557.919 527.656
3 20 21 23
3 21 22 23
3 0 1 36
3 15 16 45
3 0 17 36
3 16 26 45
3 17 18 37
3 25 26 44
3 17 36 37
3 26 44 45
3 18 19 38
3 24 25 43
3 18 37 38
3 25 43 44
3 19 20 38
3 23 24 43
3 20 21 39
3 22 23 42
3 20 38 39
3 23 42 43
3 21 22 27
3 21 27 39
3 22 27 42
3 27 28 42
3 27 28 39
3 28 42 47
3 28 39 40
3 1 36 41
3 15 45 46
3 1 2 41
3 14 15 46
3 28 29 40
3 28 29 47
3 2 40 41
3 14 46 47
3 2 29 40
3 14 29 47
3 2 3 29
3 13 14 29
3 29 30 31
3 29 30 35
3 3 29 31
3 13 29 35
3 30 32 33
3 30 33 34
3 30 31 32
3 30 34 35
3 3 4 31
3 12 13 35
3 4 5 48
3 11 12 54
3 5 6 48
3 10 11 54
3 6 48 59
3 10 54 55
3 6 7 59
3 9 10 55
3 7 58 59
3 9 55 56
3 8 57 58
3 8 56 57
3 7 8 58
3 8 9 56
3 4 31 48
3 12 35 54
3 31 48 49
3 35 53 54
3 31 49 50
3 35 52 53
3 31 32 50
3 34 35 52
3 32 33 50
3 33 34 52
3 33 50 51
3 33 51 52
3 48 49 60
3 49 60 50
3 50 60 61
3 50 51 61
3 51 52 61
3 61 62 52
3 52 53 62
3 53 54 62
3 54 55 63
3 55 56 63
3 56 63 64
3 56 57 64
3 64 65 57
3 57 58 65
3 58 59 65
3 48 59 65
