ply
format ascii 1.0
element vertex 66
property float x
property float y
property float z
property float u
property float v
element face 91
property list uchar int vertex_indices
end_header
-21.4628 -6.24261 21.2896 481.944 465.587
-20.8412 -1.07138 20.7534 481.93 485.029
-19.8959 4.06598 20.3705 483.13 504.549
-18.4138 9.13698 18.3176 486.546 523.517
-16.1186 13.9054 13.4564 493.441 540.802
-12.7274 17.8498 7.95666 504.896 555.312
-8.55623 20.8783 3.36016 519.61 567.067
-3.93051 23.0692 -0.806775 536.375 576.049
1.12672 23.8355 -4.61047 555.383 580.031
6.25677 22.7482 -0.859031 574.751 579.637
10.7662 20.1047 3.31278 592.47 573.274
14.6635 16.5898 7.85007 608.26 563.487
17.7736 12.3086 13.3301 621.356 550.778
19.6795 7.37553 18.206 630.298 534.864
20.5351 2.2874 20.3793 635.648 516.975
20.7239 -2.78309 20.818 638.666 498.259
20.5122 -7.85648 21.2337 640.185 479.335
-16.5133 -14.1615 0.0347298 506.368 431.242
-14.3588 -16.2099 -1.68366 515.579 424.03
-11.5486 -17.4152 -3.03212 526.82 420.401
-8.46237 -17.7009 -4.27572 538.659 420.374
-5.38843 -17.2304 -5.35441 550.084 423.224
2.22711 -17.5659 -5.20236 578.797 425.612
4.96228 -18.502 -4.03566 589.375 423.792
7.85461 -18.7405 -2.79248 600.21 424.68
10.6801 -18.2745 -1.4153 610.453 428.213
13.1669 -16.9677 0.318613 618.999 434.848
-0.534365 -11.7659 -4.80151 565.702 446.121
-0.205386 -8.46199 -7.70525 565.7 457.657
0.114625 -5.16709 -10.6644 565.673 469.137
0.42384 -1.88837 -13.4387 565.595 480.613
-2.8602 1.00825 -6.37974 551.206 492.243
-1.10269 1.43841 -7.20166 557.684 494.405
0.732079 1.56025 -7.98422 564.592 495.465
2.42695 1.18694 -7.0627 571.03 495.177
3.97818 0.49015 -6.38091 577.104 493.531
-12.0781 -9.33013 -1.02732 520.874 451.038
-10.4209 -10.352 -1.22007 527.586 447.936
-8.40914 -10.6682 -1.26769 535.285 447.687
-6.48264 -10.2028 -1.04563 542.274 450.409
-8.27489 -9.58103 -1.13544 535.271 451.858
-10.1681 -9.30118 -1.13774 528.038 452.01
4.38503 -10.848 -0.656259 583.309 453.253
6.16404 -11.621 -1.12033 590.39 451.049
8.17944 -11.7174 -1.09571 597.994 451.647
9.99991 -11.0137 -0.832837 604.47 455.224
8.16891 -10.5979 -0.893012 597.414 455.894
6.25898 -10.5725 -0.777523 590.224 455.127
-6.78057 8.45274 -2.70289 532.664 519.443
-4.64208 6.79066 -4.82887 541.676 513.531
-2.04324 5.64316 -6.44863 552.126 509.928
0.847941 5.71621 -8.07849 563.106 511.022
3.63707 5.27889 -6.27263 573.589 511.305
6.26522 6.06079 -4.67027 582.922 516.001
8.45053 7.46597 -2.51884 590.248 523
6.50593 9.28663 -3.94463 582.253 528.413
3.95237 10.4429 -5.08588 572.252 531.149
1.09152 10.8878 -6.54191 561.461 530.978
-1.77344 10.7441 -5.18429 550.64 529.542
-4.4599 9.92975 -3.92673 540.81 525.65
-2.04552 7.54409 -5.1874 551.105 517.452
0.959311 7.47556 -7.28095 562.625 517.916
3.84786 7.18978 -4.99119 573.361 518.973
3.97588 8.06714 -4.50158 573.384 522.476
1.02194 8.56005 -6.36603 562.263 522.304
-2.01218 8.43582 -4.5596 550.752 521.01
3 20 21 23
3 21 22 23
3 0 1 36
3 15 16 45
3 0 17 36
3 16 26 45
3 17 18 37
3 25 26 44
3 17 36 37
3 26 44 45
3 18 19 38
3 24 25 43
3 18 37 38
3 25 43 44
3 19 20 38
3 23 24 43
3 20 21 39
3 22 23 42
3 20 38 39
3 23 42 43
3 21 22 27
3 21 27 39
3 22 27 42
3 27 28 42
3 27 28 39
3 28 42 47
3 28 39 40
3 1 36 41
3 15 45 46
3 1 2 41
3 14 15 46
3 28 29 40
3 28 29 47
3 2 40 41
3 14 46 47
3 2 29 40
3 14 29 47
3 2 3 29
3 13 14 29
3 29 30 31
3 29 30 35
3 3 29 31
3 13 29 35
3 30 32 33
3 30 33 34
3 30 31 32
3 30 34 35
3 3 4 31
3 12 13 35
3 4 5 48
3 11 12 54
3 5 6 48
3 10 11 54
3 6 48 59
3 10 54 55
3 6 7 59
3 9 10 55
3 7 58 59
3 9 55 56
3 8 57 58
3 8 56 57
3 7 8 58
3 8 9 56
3 4 31 48
3 12 35 54
3 31 48 49
3 35 53 54
3 31 49 50
3 35 52 53
3 31 32 50
3 34 35 52
3 32 33 50
3 33 34 52
3 33 50 51
3 33 51 52
3 48 49 60
3 49 60 50
3 50 60 61
3 50 51 61
3 51 52 61
3 61 62 52
3 52 53 62
3 53 54 62
3 54 55 63
3 55 56 63
3 56 63 64
3 56 57 64
3 64 65 57
3 57 58 65
3 58 59 65
3 48 59 65
