ply
format ascii 1.0
element vertex 66
property float x
property float y
property float z
property float u
property float v
element face 91
property list uchar int vertex_indices
end_header
-21.0433 -6.0552 21.4945 477.167 462.837
-20.2093 -0.909436 20.8823 478.132 483.444
-19.0746 4.20457 20.5392 480.233 504.131
-17.5898 9.17749 18.5357 484.194 524.084
-15.501 13.6904 13.4662 491.518 541.873
-12.3685 17.3773 8.01614 503.455 556.836
-8.44514 20.2206 3.41217 518.714 569.037
-4.05816 22.2752 -0.805388 536.088 578.435
0.788545 22.8618 -4.54956 555.868 582.362
5.82445 21.9177 -0.844625 575.296 581.908
10.0985 19.2295 3.39258 592.425 574.3
13.76 15.7831 7.89113 607.436 563.45
16.799 11.7915 13.2464 620.04 550.318
18.8505 7.30562 18.2289 629.075 534.668
19.9045 2.58209 20.4091 634.976 516.994
20.3249 -2.21424 20.7496 638.864 498.331
20.2967 -7.02388 21.1371 640.974 479.403
-17.9636 -14.2684 0.223869 498.53 427.44
-15.7834 -16.493 -1.55493 508.65 419.358
-12.8314 -17.624 -2.95206 521.197 416.058
-9.6488 -17.6949 -4.27849 534.127 417.075
-6.4985 -17.0776 -5.37586 546.541 420.841
3.32549 -17.3981 -5.29222 585.47 424.457
5.94787 -18.4374 -4.06273 596.023 421.909
8.75739 -18.8964 -2.7117 607.006 421.772
11.5908 -18.6507 -1.24722 617.716 424.454
14.0802 -17.3518 0.548339 626.478 431.195
-0.308823 -11.4242 -4.84112 568.128 446.346
-0.0271953 -8.16209 -7.8888 568.419 458.727
0.240003 -4.90205 -10.8349 568.63 471.113
0.495761 -1.63942 -13.4114 568.703 483.582
-2.56468 1.14965 -6.3381 553.529 494.574
-0.861639 1.56118 -7.31848 560.298 496.835
0.921867 1.66587 -8.1905 567.506 497.948
2.50721 1.34603 -7.17203 573.669 497.684
3.93995 0.692548 -6.38387 579.448 495.979
-12.7825 -9.79178 -0.975527 517.129 447.433
-11.1322 -10.9496 -1.04214 524.221 443.663
-9.05576 -11.2705 -1.07296 532.583 443.417
-7.18719 -10.5167 -1.03182 539.588 447.328
-8.97159 -9.74706 -1.16899 532.205 449.455
-10.9063 -9.51999 -1.12018 524.443 449.404
5.00948 -11.1616 -0.67906 587.977 450.894
6.64822 -12.1483 -0.957118 594.993 447.749
8.6896 -12.2799 -0.917151 603.108 448.249
10.4865 -11.4216 -0.735631 609.745 452.567
8.75995 -10.7633 -0.855326 602.639 454.287
6.84749 -10.7189 -0.795755 595.051 453.527
-5.82571 8.86877 -2.83582 536.068 524.184
-3.87757 7.21416 -5.03174 545.1 518.151
-1.57757 5.94333 -6.63831 555.191 513.932
1.00919 6.04082 -8.40939 565.796 515.224
3.47287 5.6429 -6.37432 575.215 515.301
5.77423 6.58345 -4.80342 583.463 520.486
7.67405 8.06297 -2.62345 589.715 527.73
6.10365 9.87006 -3.98602 582.979 533.802
3.8756 11.0339 -5.11574 573.898 537.057
1.2796 11.4492 -6.65128 563.824 537.089
-1.33617 11.2626 -5.26348 553.242 535.349
-3.75791 10.3916 -3.96621 543.779 530.984
-1.06655 7.98673 -5.37414 555.913 522.521
1.15409 7.90905 -7.33034 565.202 522.902
3.2507 7.77935 -5.08694 572.991 523.9
3.33287 8.34927 -4.50206 572.897 526.315
1.22127 8.71148 -6.14918 564.79 526.353
-0.983258 8.58043 -4.62575 555.771 525.065
3 20 21 23
3 21 22 23
3 0 1 36
3 15 16 45
3 0 17 36
3 16 26 45
3 17 18 37
3 25 26 44
3 17 36 37
3 26 44 45
3 18 19 38
3 24 25 43
3 18 37 38
3 25 43 44
3 19 20 38
3 23 24 43
3 20 21 39
3 22 23 42
3 20 38 39
3 23 42 43
3 21 22 27
3 21 27 39
3 22 27 42
3 27 28 42
3 27 28 39
3 28 42 47
3 28 39 40
3 1 36 41
3 15 45 46
3 1 2 41
3 14 15 46
3 28 29 40
3 28 29 47
3 2 40 41
3 14 46 47
3 2 29 40
3 14 29 47
3 2 3 29
3 13 14 29
3 29 30 31
3 29 30 35
3 3 29 31
3 13 29 35
3 30 32 33
3 30 33 34
3 30 31 32
3 30 34 35
3 3 4 31
3 12 13 35
3 4 5 48
3 11 12 54
3 5 6 48
3 10 11 54
3 6 48 59
3 10 54 55
3 6 7 59
3 9 10 55
3 7 58 59
3 9 55 56
3 8 57 58
3 8 56 57
3 7 8 58
3 8 9 56
3 4 31 48
3 12 35 54
3 31 48 49
3 35 53 54
3 31 49 50
3 35 52 53
3 31 32 50
3 34 35 52
3 32 33 50
3 33 34 52
3 33 50 51
3 33 51 52
3 48 49 60
3 49 60 50
3 50 60 61
3 50 51 61
3 51 52 61
3 61 62 52
3 52 53 62
3 53 54 62
3 54 55 63
3 55 56 63
3 56 63 64
3 56 57 64
3 64 65 57
3 57 58 65
3 58 59 65
3 48 59 65
