ply
format ascii 1.0
element vertex 66
property float x
property float y
property float z
property float u
property float v
element face 91
property list uchar int vertex_indices
end_header
-20.5501 -5.80926 21.6345 478.625 466.951
-19.6267 -0.673277 21.0207 480.436 487.794
-18.4686 4.43443 20.6501 483.141 508.676
-17.1393 9.39035 18.5291 487.015 528.626
-15.2839 13.89 13.544 493.873 546.321
-12.2889 17.5435 8.01821 505.769 560.97
-8.42095 20.3259 3.33524 521.31 572.671
-4.06822 22.306 -0.91558 539.01 581.45
0.735466 22.7863 -4.5468 558.965 584.537
5.81364 21.9481 -0.846856 578.777 584.091
10.1466 19.3018 3.39715 596.187 576.206
13.7855 15.8231 7.96641 611.065 564.771
16.6733 11.7714 13.3717 622.956 550.916
18.4448 7.24825 18.3037 630.671 534.605
19.2996 2.4978 20.5117 635.455 516.395
19.6997 -2.34665 20.8467 638.905 497.203
19.7048 -7.20393 21.2574 640.757 477.813
-18.098 -14.3371 0.268209 497.007 428.965
-15.9118 -16.4075 -1.47274 507.02 421.169
-13.027 -17.3752 -2.90337 519.322 418.152
-9.97386 -17.394 -4.27529 531.909 419.024
-6.95644 -16.8198 -5.39915 544.056 422.316
4.15511 -17.3434 -5.39323 588.838 424.782
6.65296 -18.2267 -4.15924 598.912 422.542
9.30453 -18.6284 -2.77242 609.374 422.331
11.9874 -18.4052 -1.26394 619.684 424.666
14.3421 -17.1419 0.571901 628.185 431.113
-0.214021 -11.0155 -4.84933 568.665 448.492
0.0890921 -7.81653 -7.93003 569.352 460.758
0.370465 -4.62429 -10.9291 569.936 473.007
0.630409 -1.42291 -13.5154 570.33 485.376
-2.56542 1.28391 -6.36225 554.708 496.523
-0.811299 1.71648 -7.40326 561.824 498.746
1.02411 1.84584 -8.29358 569.351 499.819
2.60762 1.50817 -7.28178 575.593 499.342
4.04648 0.843499 -6.41563 581.42 497.461
-13.2747 -10.199 -0.775568 514.963 447.313
-11.673 -11.5789 -0.928814 521.974 442.401
-9.5449 -11.858 -1.10702 530.665 442.116
-7.75946 -10.7251 -1.10772 537.377 447.394
-9.50972 -9.86655 -1.15131 530.025 450.109
-11.4562 -9.69638 -1.03927 522.122 450.017
5.37667 -11.3869 -0.76017 590.253 450.215
6.88022 -12.7289 -1.04036 596.886 445.387
8.96157 -12.9173 -0.895852 605.275 445.519
10.7259 -11.8146 -0.663098 611.859 450.719
9.09416 -10.9468 -0.850129 605.013 453.488
7.18596 -10.8604 -0.822309 597.317 453.057
-6.38163 8.72769 -2.86674 535.597 525.597
-4.11315 7.22761 -5.05312 545.821 520.022
-1.63555 6.12125 -6.69733 556.596 516.234
1.00301 6.24604 -8.50386 567.568 517.414
3.49108 5.83139 -6.48956 577.228 517.224
5.92217 6.60087 -4.85536 586.28 521.676
8.06993 7.90865 -2.61246 593.835 528.306
6.32608 9.75636 -3.93729 586.425 534.705
3.89524 10.8536 -5.07141 576.511 537.853
1.19328 11.2099 -6.5687 565.891 537.837
-1.53411 11.0664 -5.21581 554.68 536.443
-4.13825 10.2639 -3.96387 544.251 532.435
-1.28383 8.01123 -5.4924 556.966 524.229
1.12336 8.00557 -7.4826 567.105 524.75
3.36584 7.81665 -5.17514 575.619 525.43
3.46014 8.31797 -4.4714 575.628 527.638
1.16338 8.59718 -6.06312 566.688 527.457
-1.23771 8.5434 -4.63606 556.732 526.575
3 20 21 23
3 21 22 23
3 0 1 36
3 15 16 45
3 0 17 36
3 16 26 45
3 17 18 37
3 25 26 44
3 17 36 37
3 26 44 45
3 18 19 38
3 24 25 43
3 18 37 38
3 25 43 44
3 19 20 38
3 23 24 43
3 20 21 39
3 22 23 42
3 20 38 39
3 23 42 43
3 21 22 27
3 21 27 39
3 22 27 42
3 27 28 42
3 27 28 39
3 28 42 47
3 28 39 40
3 1 36 41
3 15 45 46
3 1 2 41
3 14 15 46
3 28 29 40
3 28 29 47
3 2 40 41
3 14 46 47
3 2 29 40
3 14 29 47
3 2 3 29
3 13 14 29
3 29 30 31
3 29 30 35
3 3 29 31
3 13 29 35
3 30 32 33
3 30 33 34
3 30 31 32
3 30 34 35
3 3 4 31
3 12 13 35
3 4 5 48
3 11 12 54
3 5 6 48
3 10 11 54
3 6 48 59
3 10 54 55
3 6 7 59
3 9 10 55
3 7 58 59
3 9 55 56
3 8 57 58
3 8 56 57
3 7 8 58
3 8 9 56
3 4 31 48
3 12 35 54
3 31 48 49
3 35 53 54
3 31 49 50
3 35 52 53
3 31 32 50
3 34 35 52
3 32 33 50
3 33 34 52
3 33 50 51
3 33 51 52
3 48 49 60
3 49 60 50
3 50 60 61
3 50 51 61
3 51 52 61
3 61 62 52
3 52 53 62
3 53 54 62
3 54 55 63
3 55 56 63
3 56 63 64
3 56 57 64
3 64 65 57
3 57 58 65
3 58 59 65
3 48 59 65
