ply
format ascii 1.0
element vertex 66
property float x
property float y
property float z
property float u
property float v
element face 91
property list uchar int vertex_indices
end_header
-21.2515 -6.19338 21.6535 487.518 469.207
-20.3836 -0.980495 21.0689 488.063 489.136
-19.2512 4.20519 20.6962 489.589 509.134
-17.8642 9.28904 18.5833 492.335 528.647
-15.881 13.9644 13.5191 497.891 546.543
-12.6676 17.715 8.01186 508.607 561.572
-8.54752 20.4616 3.47755 523.141 573.459
-3.96826 22.3049 -0.802246 539.848 582.242
0.969278 22.7406 -4.58358 558.589 586.009
6.00268 21.8173 -0.866589 577.507 585.765
10.3942 19.2624 3.44202 594.817 579.142
14.1816 15.8896 7.90061 610.28 569.148
17.2159 11.8493 13.327 623.157 556.38
19.0935 7.26925 18.2899 632.041 540.903
20.0077 2.51681 20.5657 637.729 523.892
20.4011 -2.28068 20.9227 641.719 506.167
20.3941 -7.09285 21.3222 644.211 488.179
-18.305 -13.8994 0.191084 505.273 438.946
-15.9393 -16.2778 -1.62107 515.632 431.052
-12.7662 -17.5163 -3.02136 528.362 427.922
-9.33904 -17.6314 -4.29892 541.43 429.157
-5.94412 -16.9875 -5.36136 553.946 433.249
3.07239 -17.3356 -5.27985 587.934 436.803
5.86472 -18.4086 -4.08211 598.833 434.447
8.85063 -18.8509 -2.7664 610.107 434.575
11.8465 -18.5551 -1.28977 621.005 437.498
14.4886 -17.1778 0.5452 629.957 444.335
-0.290431 -11.4543 -4.87797 572.138 457.099
-0.0123281 -8.0441 -7.89609 571.727 469.617
0.253226 -4.64385 -10.8981 571.273 482.093
0.505944 -1.24484 -13.5805 570.732 494.602
-2.68672 1.34427 -6.41794 556.512 503.578
-0.940566 1.77279 -7.36605 562.946 505.993
0.885272 1.88295 -8.24824 569.841 507.266
2.50453 1.5574 -7.24701 575.966 507.054
3.98201 0.892929 -6.44083 581.764 505.468
-12.7069 -9.47405 -0.923955 524.041 458.392
-11.0131 -10.5492 -1.12736 530.991 455.244
-8.96527 -10.8604 -1.2091 538.846 455.167
-7.04605 -10.1998 -1.0984 545.678 458.69
-8.87723 -9.60932 -1.1532 538.503 459.912
-10.7951 -9.3768 -1.11783 531.182 459.758
5.00103 -10.8678 -0.778919 591.173 462.707
6.70684 -11.7687 -1.07277 598.086 460.206
8.72138 -11.9109 -0.987234 605.706 460.768
10.5436 -11.1241 -0.690703 612.083 464.738
8.75493 -10.634 -0.86856 605.136 465.589
6.85809 -10.5961 -0.81472 597.996 464.719
-7.0503 8.6006 -2.82355 535.844 528.931
-4.66595 6.99038 -5.01928 545.909 523.874
-1.98031 5.83025 -6.60959 556.792 520.749
0.922122 5.91555 -8.28191 567.833 522.399
3.68215 5.47841 -6.39018 578.187 522.505
6.34237 6.25584 -4.82369 587.559 527.065
8.6585 7.64242 -2.64263 595.242 533.809
6.62439 9.3491 -3.91462 586.857 538.938
3.9879 10.3232 -5.01887 576.584 541.02
1.15965 10.6547 -6.49115 565.979 540.54
-1.70271 10.5959 -5.12597 555.112 538.969
-4.52113 9.96409 -3.89371 544.73 535.254
-1.77322 7.85009 -5.48796 556.355 528.587
1.07122 7.8053 -7.41709 567.279 529.683
3.769 7.55008 -5.21245 577.266 530.48
3.84145 7.81421 -4.55654 577.317 531.599
1.10316 8.05 -6.34085 567.139 530.765
-1.72094 8.14031 -4.67787 556.299 529.815
3 20 21 23
3 21 22 23
3 0 1 36
3 15 16 45
3 0 17 36
3 16 26 45
3 17 18 37
3 25 26 44
3 17 36 37
3 26 44 45
3 18 19 38
3 24 25 43
3 18 37 38
3 25 43 44
3 19 20 38
3 23 24 43
3 20 21 39
3 22 23 42
3 20 38 39
3 23 42 43
3 21 22 27
3 21 27 39
3 22 27 42
3 27 28 42
3 27 28 39
3 28 42 47
3 28 39 40
3 1 36 41
3 15 45 46
3 1 2 41
3 14 15 46
3 28 29 40
3 28 29 47
3 2 40 41
3 14 46 47
3 2 29 40
3 14 29 47
3 2 3 29
3 13 14 29
3 29 30 31
3 29 30 35
3 3 29 31
3 13 29 35
3 30 32 33
3 30 33 34
3 30 31 32
3 30 34 35
3 3 4 31
3 12 13 35
3 4 5 48
3 11 12 54
3 5 6 48
3 10 11 54
3 6 48 59
3 10 54 55
3 6 7 59
3 9 10 55
3 7 58 59
3 9 55 56
3 8 57 58
3 8 56 57
3 7 8 58
3 8 9 56
3 4 31 48
3 12 35 54
3 31 48 49
3 35 53 54
3 31 49 50
3 35 52 53
3 31 32 50
3 34 35 52
3 32 33 50
3 33 34 52
3 33 50 51
3 33 51 52
3 48 49 60
3 49 60 50
3 50 60 61
3 50 51 61
3 51 52 61
3 61 62 52
3 52 53 62
3 53 54 62
3 54 55 63
3 55 56 63
3 56 63 64
3 56 57 64
3 64 65 57
3 57 58 65
3 58 59 65
3 48 59 65
