ply
format ascii 1.0
element vertex 66
property float x
property float y
property float z
property float u
property float v
element face 91
property list uchar int vertex_indices
end_header
-20.9754 -5.30472 21.6154 477.012 463.669
-20.0928 -0.3732 21.0664 478.388 483.512
-18.964 4.52258 20.6939 480.724 503.335
-17.6203 9.32538 18.4905 484.236 522.772
-15.6684 13.7789 13.5146 490.736 540.927
-12.5713 17.3972 8.01084 502.211 556.262
-8.67175 20.1575 3.40839 517.095 568.623
-4.33547 22.1477 -0.912579 534.003 578.155
0.397249 22.7695 -4.58721 552.985 582.5
5.59115 22.0241 -0.805466 573.235 582.117
10.1693 19.5364 3.48632 591.75 574.609
14.0884 16.1083 7.96998 608.052 563.102
17.2144 11.9724 13.3824 621.392 548.502
19.0272 7.21687 18.4319 629.88 530.844
19.8692 2.24913 20.691 635.063 511.737
20.256 -2.75747 21.1067 638.753 492.158
20.234 -7.78373 21.4498 640.849 472.313
-18.0392 -14.0586 0.279033 495.82 429.06
-15.8738 -16.0426 -1.51152 505.531 422.078
-13.0355 -16.9948 -2.9428 517.384 419.497
-10.0153 -17.0823 -4.2745 529.555 420.42
-7.01009 -16.6146 -5.35597 541.381 423.545
4.10871 -17.2941 -5.38342 585.588 425.836
6.75617 -18.1491 -4.20893 596.239 423.717
9.52837 -18.5045 -2.87005 607.134 423.638
12.295 -18.2064 -1.35342 617.689 426.15
14.7005 -16.899 0.537168 626.311 432.51
-0.291456 -11.1486 -4.79011 565.388 448.182
0.0774882 -7.90845 -7.86236 565.881 460.955
0.424672 -4.67864 -10.932 566.293 473.677
0.74381 -1.44717 -13.6358 566.536 486.416
-2.66341 1.55759 -6.44333 550.627 497.213
-0.819214 1.97435 -7.44906 557.879 499.622
1.09373 2.09736 -8.32285 565.514 500.909
2.76174 1.73514 -7.35074 572.109 500.286
4.30174 1.05545 -6.56497 578.37 498.34
-13.2276 -9.74834 -0.665363 513.047 448.182
-11.5867 -11.2774 -0.987905 520.256 442.856
-9.35034 -11.5465 -1.23854 529.245 442.778
-7.45434 -10.3352 -1.18322 536.183 448.415
-9.2747 -9.41815 -1.15432 528.583 451.225
-11.3042 -9.21264 -1.02285 520.459 451.137
5.03607 -11.025 -0.73312 585.737 451.31
6.64508 -12.5368 -1.20099 592.835 446.029
8.85643 -12.7655 -1.02567 601.641 446.126
10.7231 -11.5685 -0.656764 608.421 451.713
8.98843 -10.6197 -0.861961 601.182 454.673
6.97061 -10.514 -0.788156 593.156 454.191
-7.25368 8.44991 -2.84208 528.876 522.613
-4.68076 6.95648 -4.99975 540.035 517.73
-1.89309 5.94636 -6.64971 551.748 514.883
1.01222 6.11678 -8.38113 563.413 516.748
3.77063 5.61924 -6.52147 574.236 516.134
6.50177 6.26506 -4.84831 584.471 520.014
8.96376 7.48626 -2.52095 593.287 526.086
6.78302 9.26944 -3.9015 584.098 532.068
3.9648 10.2171 -5.04975 572.728 534.478
1.04344 10.5054 -6.50273 561.291 534.218
-1.82667 10.4421 -5.1622 549.778 532.767
-4.71268 9.84985 -3.8803 538.447 529.216
-1.79581 7.86736 -5.5396 551.104 522.586
1.09689 7.97816 -7.47897 562.778 524.197
3.78716 7.61402 -5.2804 573.22 524.1
3.81491 7.71237 -4.56481 573.175 524.546
1.03781 7.89635 -6.26239 562.392 523.923
-1.82202 7.99771 -4.67242 550.808 523.143
3 20 21 23
3 21 22 23
3 0 1 36
3 15 16 45
3 0 17 36
3 16 26 45
3 17 18 37
3 25 26 44
3 17 36 37
3 26 44 45
3 18 19 38
3 24 25 43
3 18 37 38
3 25 43 44
3 19 20 38
3 23 24 43
3 20 21 39
3 22 23 42
3 20 38 39
3 23 42 43
3 21 22 27
3 21 27 39
3 22 27 42
3 27 28 42
3 27 28 39
3 28 42 47
3 28 39 40
3 1 36 41
3 15 45 46
3 1 2 41
3 14 15 46
3 28 29 40
3 28 29 47
3 2 40 41
3 14 46 47
3 2 29 40
3 14 29 47
3 2 3 29
3 13 14 29
3 29 30 31
3 29 30 35
3 3 29 31
3 13 29 35
3 30 32 33
3 30 33 34
3 30 31 32
3 30 34 35
3 3 4 31
3 12 13 35
3 4 5 48
3 11 12 54
3 5 6 48
3 10 11 54
3 6 48 59
3 10 54 55
3 6 7 59
3 9 10 55
3 7 58 59
3 9 55 56
3 8 57 58
3 8 56 57
3 7 8 58
3 8 9 56
3 4 31 48
3 12 35 54
3 31 48 49
3 35 53 54
3 31 49 50
3 35 52 53
3 31 32 50
3 34 35 52
3 32 33 50
3 33 34 52
3 33 50 51
3 33 51 52
3 48 49 60
3 49 60 50
3 50 60 61
3 50 51 61
3 51 52 61
3 61 62 52
3 52 53 62
3 53 54 62
3 54 55 63
3 55 56 63
3 56 63 64
3 56 57 64
3 64 65 57
3 57 58 65
3 58 59 65
3 48 59 65
