ply
format ascii 1.0
element vertex 66
property float x
property float y
property float z
property float u
property float v
element face 91
property list uchar int vertex_indices
end_header
-20.5716 -6.27751 21.4847 479.056 463.655
-19.7532 -1.08563 20.967 480.137 485.059
-18.6529 4.06744 20.5097 482.385 506.447
-17.2145 9.11464 18.3774 486.134 527.102
-15.1517 13.7952 13.5415 492.713 545.813
-12.0356 17.6806 8.06669 503.977 561.574
-8.15473 20.7613 3.29153 518.691 574.578
-3.79738 23.0732 -0.898737 535.668 584.813
1.10364 23.7647 -4.57146 555.559 588.817
6.10777 22.6967 -0.902988 576.331 587.658
10.3197 19.8329 3.28648 594.634 578.962
13.8492 16.1705 7.97425 610.477 566.84
16.7142 11.9569 13.3579 623.816 552.361
18.5195 7.26485 18.2016 633.056 535.317
19.3671 2.42227 20.3968 638.561 516.525
19.6714 -2.44511 20.8301 641.931 496.918
19.5839 -7.32331 21.2166 643.706 477.081
-17.2606 -14.3921 0.190947 497.081 426.3
-15.0303 -16.2205 -1.50857 507.078 419.372
-12.2349 -17.1438 -2.9622 518.976 416.452
-9.26637 -17.2242 -4.30821 531.207 417.076
-6.32733 -16.6863 -5.42299 543.034 420.271
3.622 -17.2107 -5.35857 583.94 422.551
6.07788 -18.0129 -4.15722 594.283 420.687
8.66678 -18.3057 -2.82216 604.94 420.996
11.2465 -18.044 -1.32347 615.307 423.607
13.5649 -16.9451 0.522648 624.223 429.611
-0.341838 -11.5294 -4.85956 565.21 444.109
-0.0139462 -8.2661 -7.85638 565.241 456.764
0.295641 -5.01039 -10.8287 565.2 469.386
0.586486 -1.76073 -13.5328 565.074 482.047
-2.90137 0.82751 -6.49029 549.371 492.953
-1.02207 1.23541 -7.34 556.911 495.22
0.919996 1.3535 -8.10147 564.832 496.357
2.62363 0.996388 -7.25056 571.919 495.882
4.20569 0.329071 -6.54468 578.651 494.049
-12.7104 -9.75397 -0.841989 513.686 446.959
-10.9438 -10.7987 -1.03456 521.377 443.426
-8.84334 -11.0861 -1.22349 530.1 443.132
-6.91951 -10.4173 -1.12773 537.667 446.738
-8.80815 -9.84748 -1.1118 529.693 448.231
-10.7758 -9.62533 -1.07 521.549 448.278
4.41453 -10.9548 -0.770677 584.228 449.655
6.13832 -11.8762 -1.15399 591.698 446.556
8.2069 -12.0518 -1.01231 600.227 446.792
10.1008 -11.307 -0.74169 607.63 450.741
8.28615 -10.7921 -0.8914 599.991 451.999
6.33677 -10.7415 -0.790573 591.994 451.37
-7.6085 8.16495 -2.65412 526.729 521.834
-5.32589 6.20935 -4.81905 537.016 514.285
-2.39995 4.91105 -6.46499 549.621 509.841
0.866193 4.86817 -8.27679 563.072 510.625
3.99158 4.5072 -6.31538 575.925 511.061
6.91653 5.38419 -4.67792 587.427 516.372
9.18791 7.11982 -2.4551 595.854 525.055
7.40816 9.79716 -3.92517 587.461 534.796
4.67769 11.6781 -5.06964 575.517 540.954
1.28876 12.3538 -6.53718 561.427 541.818
-2.18371 12.0233 -5.15453 547.316 539.304
-5.19872 10.4923 -3.94855 535.612 532.048
-2.82985 6.86853 -5.3063 546.951 517.948
0.997605 6.61664 -7.56971 562.808 518.006
4.67384 6.43771 -5.04194 577.809 519.581
5.02291 9.007 -4.41999 578.078 530.384
1.23921 9.88328 -6.23248 562.3 531.799
-2.71723 9.47067 -4.53561 546.232 528.82
3 20 21 23
3 21 22 23
3 0 1 36
3 15 16 45
3 0 17 36
3 16 26 45
3 17 18 37
3 25 26 44
3 17 36 37
3 26 44 45
3 18 19 38
3 24 25 43
3 18 37 38
3 25 43 44
3 19 20 38
3 23 24 43
3 20 21 39
3 22 23 42
3 20 38 39
3 23 42 43
3 21 22 27
3 21 27 39
3 22 27 42
3 27 28 42
3 27 28 39
3 28 42 47
3 28 39 40
3 1 36 41
3 15 45 46
3 1 2 41
3 14 15 46
3 28 29 40
3 28 29 47
3 2 40 41
3 14 46 47
3 2 29 40
3 14 29 47
3 2 3 29
3 13 14 29
3 29 30 31
3 29 30 35
3 3 29 31
3 13 29 35
3 30 32 33
3 30 33 34
3 30 31 32
3 30 34 35
3 3 4 31
3 12 13 35
3 4 5 48
3 11 12 54
3 5 6 48
3 10 11 54
3 6 48 59
3 10 54 55
3 6 7 59
3 9 10 55
3 7 58 59
3 9 55 56
3 8 57 58
3 8 56 57
3 7 8 58
3 8 9 56
3 4 31 48
3 12 35 54
3 31 48 49
3 35 53 54
3 31 49 50
3 35 52 53
3 31 32 50
3 34 35 52
3 32 33 50
3 33 34 52
3 33 50 51
3 33 51 52
3 48 49 60
3 49 60 50
3 50 60 61
3 50 51 61
3 51 52 61
3 61 62 52
3 52 53 62
3 53 54 62
3 54 55 63
3 55 56 63
3 56 63 64
3 56 57 64
3 64 65 57
3 57 58 65
3 58 59 65
3 48 59 65
