ply
format ascii 1.0
element vertex 66
property float x
property float y
property float z
property float u
property float v
element face 91
property list uchar int vertex_indices
end_header
-20.9598 -5.57325 21.5989 478.095 465.411
-20.0776 -0.581539 21.0431 479.407 485.312
-18.9402 4.37713 20.6779 481.703 505.231
-17.5785 9.2301 18.5063 485.22 524.537
-15.6132 13.7082 13.5268 491.728 542.18
-12.4991 17.3489 8.03312 503.205 556.975
-8.57526 20.1359 3.42894 518.101 568.935
-4.2031 22.1367 -0.876908 535.061 578.065
0.582795 22.7214 -4.55267 554.18 581.93
5.71005 21.9528 -0.858919 574.057 581.865
10.2117 19.4641 3.43079 592.154 574.864
14.0693 16.079 7.9314 608.092 564.085
17.1614 12.0171 13.3494 621.18 550.454
18.9771 7.34718 18.374 629.594 533.789
19.8224 2.45166 20.6381 634.746 515.338
20.2073 -2.49527 21.0514 638.412 496.167
20.1914 -7.46058 21.4224 640.52 476.734
-18.0572 -14.1655 0.280285 496.791 429.465
-15.8792 -16.1511 -1.51461 506.523 422.366
-13.04 -17.1195 -2.95769 518.337 419.62
-10.0181 -17.2123 -4.2878 530.456 420.412
-7.01377 -16.7323 -5.36366 542.209 423.486
4.07815 -17.393 -5.32366 586.043 425.956
6.64656 -18.2681 -4.14525 596.328 423.889
9.35144 -18.6485 -2.80732 606.902 423.852
12.0725 -18.4319 -1.28945 617.242 426.195
14.496 -17.2442 0.583122 625.92 432.272
-0.291758 -11.1887 -4.80682 566.018 448.401
0.0731098 -7.86263 -7.88918 566.454 461.108
0.419204 -4.5469 -10.9519 566.818 473.77
0.740142 -1.22871 -13.6379 567.021 486.492
-2.65245 1.59804 -6.46022 551.274 497.234
-0.826667 2.00344 -7.45225 558.42 499.492
1.06781 2.11838 -8.31176 565.944 500.664
2.72732 1.76562 -7.34988 572.462 500.196
4.26046 1.0981 -6.55529 578.652 498.407
-13.1365 -9.76101 -0.708144 514.29 448.83
-11.4798 -11.2088 -1.00152 521.491 443.855
-9.27304 -11.4794 -1.23273 530.313 443.76
-7.38159 -10.3415 -1.17651 537.218 449.098
-9.20743 -9.49188 -1.16074 529.667 451.602
-11.2186 -9.28861 -1.04556 521.661 451.503
4.99408 -11.04 -0.718668 586.042 452.074
6.60703 -12.4804 -1.14927 593.09 447.085
8.79108 -12.7127 -0.98305 601.742 447.196
10.6671 -11.5977 -0.633367 608.549 452.485
8.928 -10.701 -0.845733 601.353 455.177
6.92594 -10.5873 -0.774752 593.431 454.722
-7.21243 8.44928 -2.81692 529.708 522.651
-4.64099 7.00224 -4.99763 540.805 517.781
-1.86927 6.02104 -6.64847 552.393 514.919
1.00822 6.18421 -8.39895 563.898 516.58
3.73011 5.68971 -6.5156 574.502 516.193
6.4417 6.30146 -4.85645 584.604 520.106
8.90276 7.48211 -2.55083 593.363 526.245
6.78356 9.31647 -3.93389 584.443 532.249
4.00155 10.3232 -5.05209 573.25 534.745
1.08253 10.6371 -6.47566 561.88 534.41
-1.8082 10.5613 -5.13936 550.35 533.017
-4.68706 9.90509 -3.88824 539.141 529.337
-1.79921 7.93609 -5.5254 551.626 522.654
1.1037 8.02399 -7.49628 563.301 523.994
3.80666 7.66558 -5.2775 573.715 524.189
3.86098 7.80993 -4.5764 573.75 524.897
1.06411 8.02143 -6.24381 562.945 524.174
-1.82028 8.11041 -4.65906 551.326 523.472
3 20 21 23
3 21 22 23
3 0 1 36
3 15 16 45
3 0 17 36
3 16 26 45
3 17 18 37
3 25 26 44
3 17 36 37
3 26 44 45
3 18 19 38
3 24 25 43
3 18 37 38
3 25 43 44
3 19 20 38
3 23 24 43
3 20 21 39
3 22 23 42
3 20 38 39
3 23 42 43
3 21 22 27
3 21 27 39
3 22 27 42
3 27 28 42
3 27 28 39
3 28 42 47
3 28 39 40
3 1 36 41
3 15 45 46
3 1 2 41
3 14 15 46
3 28 29 40
3 28 29 47
3 2 40 41
3 14 46 47
3 2 29 40
3 14 29 47
3 2 3 29
3 13 14 29
3 29 30 31
3 29 30 35
3 3 29 31
3 13 29 35
3 30 32 33
3 30 33 34
3 30 31 32
3 30 34 35
3 3 4 31
3 12 13 35
3 4 5 48
3 11 12 54
3 5 6 48
3 10 11 54
3 6 48 59
3 10 54 55
3 6 7 59
3 9 10 55
3 7 58 59
3 9 55 56
3 8 57 58
3 8 56 57
3 7 8 58
3 8 9 56
3 4 31 48
3 12 35 54
3 31 48 49
3 35 53 54
3 31 49 50
3 35 52 53
3 31 32 50
3 34 35 52
3 32 33 50
3 33 34 52
3 33 50 51
3 33 51 52
3 48 49 60
3 49 60 50
3 50 60 61
3 50 51 61
3 51 52 61
3 61 62 52
3 52 53 62
3 53 54 62
3 54 55 63
3 55 56 63
3 56 63 64
3 56 57 64
3 64 65 57
3 57 58 65
3 58 59 65
3 48 59 65
