ply
format ascii 1.0
element vertex 66
property float x
property float y
property float z
property float u
property float v
element face 91
property list uchar int vertex_indices
end_header
-20.9505 -5.77714 21.3777 476.234 463.869
-20.1261 -0.788993 20.8068 476.806 484.091
-19.0032 4.16552 20.4807 478.53 504.422
-17.5328 9.00474 18.4537 482.123 524.03
-15.4298 13.464 13.4865 489.18 541.687
-12.3054 17.1705 8.063 500.857 556.817
-8.42569 20.0876 3.45948 515.802 569.471
-4.08433 22.2489 -0.806323 532.941 579.475
0.74184 22.9057 -4.48397 552.733 583.927
5.76861 22.0421 -0.906808 572.422 584.43
10.0937 19.4562 3.38057 590.122 577.846
13.8398 16.0876 7.8921 605.904 567.861
16.9295 12.1061 13.2638 619.207 555.281
18.8971 7.52711 18.2801 628.458 539.56
19.871 2.68181 20.4802 634.585 521.416
20.2831 -2.22432 20.8997 638.94 502.208
20.2842 -7.14959 21.2795 641.674 482.671
-17.7003 -14.2757 0.220182 499.261 426.067
-15.5203 -16.2803 -1.55615 509.548 418.869
-12.6718 -17.2923 -2.98387 521.85 416.119
-9.62401 -17.399 -4.31724 534.406 417.123
-6.59863 -16.8899 -5.40876 546.46 420.636
3.38685 -17.4506 -5.26331 586.613 424.325
6.00056 -18.443 -4.06754 597.324 422.236
8.77668 -18.8885 -2.72784 608.335 422.464
11.5819 -18.7053 -1.24696 619.068 425.256
14.105 -17.5463 0.557957 628.035 431.862
-0.452085 -11.5432 -4.85398 567.8 445.734
-0.10499 -8.17775 -7.86427 567.994 458.532
0.23141 -4.82145 -10.8457 568.144 471.295
0.552926 -1.4663 -13.483 568.15 484.14
-2.67442 1.29628 -6.35838 551.938 495.216
-0.931032 1.68894 -7.34521 558.914 497.538
0.88697 1.78186 -8.21456 566.332 498.741
2.53103 1.43925 -7.23756 572.854 498.612
4.03539 0.772361 -6.46612 579.053 497.052
-12.6289 -9.84632 -0.913279 517.247 446.41
-11.0164 -11.0746 -1.03579 524.419 442.428
-8.94828 -11.3773 -1.10805 532.867 442.42
-7.09968 -10.5647 -1.06963 539.773 446.76
-8.85891 -9.81868 -1.14967 532.341 448.677
-10.7671 -9.57867 -1.10288 524.573 448.522
4.77955 -11.3103 -0.60247 587.513 450.916
6.39971 -12.4469 -0.982214 594.726 447.234
8.46325 -12.6248 -0.930869 603.054 447.755
10.2923 -11.7442 -0.710638 609.798 452.405
8.56988 -11.0406 -0.824517 602.546 454.165
6.64958 -10.9523 -0.717846 594.802 453.415
-6.40607 8.88587 -2.81771 531.822 524.26
-4.21913 7.31493 -4.97853 541.983 518.689
-1.71978 6.14831 -6.5963 553.026 515.064
1.01764 6.25894 -8.36345 564.325 516.632
3.62741 5.79681 -6.43704 574.537 516.857
6.13547 6.59185 -4.83518 583.703 521.947
8.30824 7.9007 -2.60639 591.082 529.061
6.45892 9.71594 -4.02275 583.005 534.821
3.97094 10.8298 -5.10207 572.698 537.5
1.20537 11.2322 -6.50784 561.77 537.088
-1.53603 11.1048 -5.17127 550.57 535.331
-4.1508 10.3474 -3.93336 540.262 531.111
-1.45671 8.11659 -5.39027 552.653 523.401
1.13345 8.05793 -7.39572 563.519 524.141
3.57769 7.82418 -5.20965 572.876 525.251
3.63022 8.26297 -4.59896 572.685 527.2
1.14695 8.60826 -6.21603 562.969 526.669
-1.41598 8.57501 -4.61407 552.363 525.466
3 20 21 23
3 21 22 23
3 0 1 36
3 15 16 45
3 0 17 36
3 16 26 45
3 17 18 37
3 25 26 44
3 17 36 37
3 26 44 45
3 18 19 38
3 24 25 43
3 18 37 38
3 25 43 44
3 19 20 38
3 23 24 43
3 20 21 39
3 22 23 42
3 20 38 39
3 23 42 43
3 21 22 27
3 21 27 39
3 22 27 42
3 27 28 42
3 27 28 39
3 28 42 47
3 28 39 40
3 1 36 41
3 15 45 46
3 1 2 41
3 14 15 46
3 28 29 40
3 28 29 47
3 2 40 41
3 14 46 47
3 2 29 40
3 14 29 47
3 2 3 29
3 13 14 29
3 29 30 31
3 29 30 35
3 3 29 31
3 13 29 35
3 30 32 33
3 30 33 34
3 30 31 32
3 30 34 35
3 3 4 31
3 12 13 35
3 4 5 48
3 11 12 54
3 5 6 48
3 10 11 54
3 6 48 59
3 10 54 55
3 6 7 59
3 9 10 55
3 7 58 59
3 9 55 56
3 8 57 58
3 8 56 57
3 7 8 58
3 8 9 56
3 4 31 48
3 12 35 54
3 31 48 49
3 35 53 54
3 31 49 50
3 35 52 53
3 31 32 50
3 34 35 52
3 32 33 50
3 33 34 52
3 33 50 51
3 33 51 52
3 48 49 60
3 49 60 50
3 50 60 61
3 50 51 61
3 51 52 61
3 61 62 52
3 52 53 62
3 53 54 62
3 54 55 63
3 55 56 63
3 56 63 64
3 56 57 64
3 64 65 57
3 57 58 65
3 58 59 65
3 48 59 65
