ply
format ascii 1.0
element vertex 66
property float x
property float y
property float z
property float u
property float v
element face 91
property list uchar int vertex_indices
end_header
-20.8934 -5.39679 21.5133 484.812 465.737
-20.0371 -0.372385 20.9331 485.483 485.624
-18.9061 4.62276 20.5851 487.211 505.553
-17.5371 9.47545 18.5062 490.099 525.003
-15.5884 13.8982 13.4989 495.738 543.004
-12.5298 17.5174 8.0326 506.147 558.478
-8.65014 20.3187 3.44078 520.089 571.255
-4.2707 22.2983 -0.860705 536.378 581.131
0.554404 22.8014 -4.53016 555.125 585.553
5.74776 22.0319 -0.778353 575.279 585.491
10.2295 19.472 3.51618 593.589 578.134
14.0306 16.0182 8.00694 609.727 566.958
17.0616 11.9353 13.3886 623.138 552.962
18.8755 7.27903 18.4318 632.18 536.082
19.7591 2.33221 20.5944 638.05 517.482
20.1607 -2.70566 20.9812 642.272 498.213
20.1377 -7.75576 21.3593 644.859 478.668
-17.8088 -14.0804 0.242803 503.42 433.091
-15.638 -16.0319 -1.54817 513.036 426.648
-12.8492 -17.0081 -2.96648 524.486 424.323
-9.88202 -17.1475 -4.2922 536.167 425.336
-6.92552 -16.7336 -5.38385 547.488 428.491
4.07322 -17.4039 -5.37597 590.405 431.813
6.66917 -18.2247 -4.19037 600.779 430.071
9.39233 -18.5506 -2.84403 611.363 430.318
12.1196 -18.2556 -1.34134 621.616 432.975
14.5428 -17.0077 0.511668 630.147 439.169
-0.381748 -11.6723 -4.81663 570.037 451.618
-0.044013 -8.2965 -7.87146 569.82 464.765
0.276997 -4.9327 -10.9049 569.543 477.857
0.576512 -1.56365 -13.5682 569.145 490.97
-2.7229 1.54706 -6.47307 554.038 501.467
-0.927853 1.93915 -7.42398 560.863 503.919
0.94086 2.03594 -8.24074 568.119 505.272
2.60067 1.70503 -7.32188 574.632 504.914
4.12906 1.05754 -6.56732 580.823 503.254
-12.8893 -9.87842 -0.803302 520.298 451.966
-11.1821 -11.1527 -1.01893 527.609 447.945
-9.0265 -11.4412 -1.15094 536.117 447.983
-7.10636 -10.5323 -1.1154 543.055 452.535
-8.95943 -9.79969 -1.14445 535.495 454.373
-10.9583 -9.57096 -1.06482 527.63 454.185
4.87576 -11.2411 -0.724931 589.763 456.248
6.55539 -12.4472 -1.08625 596.943 452.471
8.69151 -12.6293 -0.995818 605.298 452.919
10.5838 -11.683 -0.724613 612.086 457.608
8.80222 -10.9698 -0.878464 604.824 459.405
6.81103 -10.8927 -0.80044 597.071 458.635
-6.74273 8.69186 -2.82109 534.303 527.077
-4.42181 7.09728 -4.9949 544.345 522.083
-1.8234 5.97949 -6.64567 555.155 519.1
0.944979 6.10246 -8.39744 565.967 521.007
3.58619 5.6523 -6.4982 576.249 520.748
6.16349 6.41461 -4.83118 585.655 525.139
8.42341 7.75637 -2.53209 593.461 531.622
6.43022 9.4822 -3.88741 584.951 537.185
3.8399 10.4695 -5.03376 574.506 539.576
1.05276 10.7699 -6.49199 563.698 539.192
-1.69658 10.7129 -5.1478 552.963 537.537
-4.38973 10.0721 -3.87117 542.766 533.65
-1.70594 7.98696 -5.4679 554.421 526.971
1.04817 7.96624 -7.42745 565.274 528.308
3.6389 7.72072 -5.22444 575.222 528.823
3.65733 7.90576 -4.53614 575.129 529.572
1.01718 8.10988 -6.27863 564.968 528.885
-1.70046 8.20193 -4.64728 554.249 527.833
3 20 21 23
3 21 22 23
3 0 1 36
3 15 16 45
3 0 17 36
3 16 26 45
3 17 18 37
3 25 26 44
3 17 36 37
3 26 44 45
3 18 19 38
3 24 25 43
3 18 37 38
3 25 43 44
3 19 20 38
3 23 24 43
3 20 21 39
3 22 23 42
3 20 38 39
3 23 42 43
3 21 22 27
3 21 27 39
3 22 27 42
3 27 28 42
3 27 28 39
3 28 42 47
3 28 39 40
3 1 36 41
3 15 45 46
3 1 2 41
3 14 15 46
3 28 29 40
3 28 29 47
3 2 40 41
3 14 46 47
3 2 29 40
3 14 29 47
3 2 3 29
3 13 14 29
3 29 30 31
3 29 30 35
3 3 29 31
3 13 29 35
3 30 32 33
3 30 33 34
3 30 31 32
3 30 34 35
3 3 4 31
3 12 13 35
3 4 5 48
3 11 12 54
3 5 6 48
3 10 11 54
3 6 48 59
3 10 54 55
3 6 7 59
3 9 10 55
3 7 58 59
3 9 55 56
3 8 57 58
3 8 56 57
3 7 8 58
3 8 9 56
3 4 31 48
3 12 35 54
3 31 48 49
3 35 53 54
3 31 49 50
3 35 52 53
3 31 32 50
3 34 35 52
3 32 33 50
3 33 34 52
3 33 50 51
3 33 51 52
3 48 49 60
3 49 60 50
3 50 60 61
3 50 51 61
3 51 52 61
3 61 62 52
3 52 53 62
3 53 54 62
3 54 55 63
3 55 56 63
3 56 63 64
3 56 57 64
3 64 65 57
3 57 58 65
3 58 59 65
3 48 59 65
