ply
format ascii 1.0
element vertex 66
property float x
property float y
property float z
property float u
property float v
element face 91
property list uchar int vertex_indices
end_header
-20.8059 -5.67017 21.5195 487.249 468.753
-19.9155 -0.584781 20.9357 488.058 488.886
-18.7443 4.4707 20.594 489.957 509.075
-17.3547 9.36029 18.5427 492.898 528.566
-15.4001 13.7783 13.5114 498.468 546.231
-12.324 17.4032 8.07901 508.832 561.374
-8.41899 20.2302 3.47123 522.779 573.942
-4.00368 22.2269 -0.847462 539.125 583.59
0.887559 22.6466 -4.4366 558.103 587.446
5.96837 21.8915 -0.84114 577.981 587.563
10.3252 19.3647 3.49078 595.938 580.5
14.0065 15.9899 8.00884 611.711 569.809
16.9461 12.0371 13.3588 624.859 556.568
18.6951 7.53148 18.4396 633.697 540.527
19.5386 2.69786 20.5737 639.383 522.442
19.9604 -2.25168 20.95 643.605 503.509
19.9971 -7.21008 21.3768 646.335 484.343
-18.0005 -14.1747 0.254868 503.959 435.14
-15.7811 -16.1029 -1.53583 513.698 428.659
-12.9665 -17.0437 -2.98053 525.202 426.355
-9.99378 -17.1635 -4.32858 536.881 427.328
-7.03978 -16.736 -5.42319 548.183 430.439
4.20983 -17.4363 -5.32248 592.18 433.682
6.78546 -18.2207 -4.15281 602.51 432.118
9.48191 -18.5323 -2.81049 613.048 432.469
12.188 -18.247 -1.31714 623.3 435.155
14.597 -16.9984 0.58372 631.865 441.461
-0.458161 -11.6493 -4.84603 570.993 453.702
-0.112805 -8.13588 -7.93289 570.675 467.201
0.218402 -4.63557 -10.9756 570.306 480.647
0.533488 -1.12589 -13.5975 569.844 494.162
-2.80426 1.70154 -6.51701 554.959 504.066
-1.00506 2.11189 -7.4697 561.781 506.514
0.872679 2.20969 -8.27137 569.064 507.807
2.55605 1.86725 -7.37244 575.717 507.458
4.09598 1.19199 -6.5979 581.997 505.731
-12.9864 -10.1781 -0.803659 521.367 453.185
-11.2741 -11.5157 -0.993942 528.726 448.884
-9.09023 -11.7793 -1.13199 537.345 449.003
-7.19338 -10.721 -1.08408 544.141 454.114
-9.0614 -10.0193 -1.12122 536.528 455.844
-11.0663 -9.8158 -1.06312 528.64 455.579
4.76048 -11.4061 -0.697281 590.844 457.818
6.40403 -12.7515 -1.05351 597.951 453.434
8.56623 -12.9625 -0.943864 606.442 453.77
10.476 -11.9488 -0.666598 613.297 458.738
8.70498 -11.1852 -0.845968 606.037 460.745
6.70721 -11.0824 -0.7655 598.228 460.095
-6.73266 8.72315 -2.79425 535.784 529.588
-4.37072 7.21455 -5.01215 545.881 524.766
-1.77434 6.16586 -6.67806 556.61 521.907
0.954934 6.28867 -8.4645 567.244 523.648
3.55127 5.81796 -6.53443 577.441 523.388
6.14138 6.47785 -4.87305 587.034 527.482
8.47269 7.71344 -2.56559 595.279 533.736
6.51915 9.48644 -3.8858 586.851 539.447
3.93399 10.5025 -5.02503 576.36 541.906
1.14872 10.818 -6.43079 565.479 541.517
-1.63239 10.7842 -5.11561 554.626 540.046
-4.35385 10.1281 -3.8858 544.339 536.185
-1.63723 8.10973 -5.50056 556.042 529.634
1.08141 8.07001 -7.48715 566.734 530.72
3.65287 7.8081 -5.28543 576.707 531.283
3.70418 7.98064 -4.55434 576.768 532.052
1.07774 8.18171 -6.2167 566.58 531.278
-1.61409 8.30272 -4.63391 555.975 530.481
3 20 21 23
3 21 22 23
3 0 1 36
3 15 16 45
3 0 17 36
3 16 26 45
3 17 18 37
3 25 26 44
3 17 36 37
3 26 44 45
3 18 19 38
3 24 25 43
3 18 37 38
3 25 43 44
3 19 20 38
3 23 24 43
3 20 21 39
3 22 23 42
3 20 38 39
3 23 42 43
3 21 22 27
3 21 27 39
3 22 27 42
3 27 28 42
3 27 28 39
3 28 42 47
3 28 39 40
3 1 36 41
3 15 45 46
3 1 2 41
3 14 15 46
3 28 29 40
3 28 29 47
3 2 40 41
3 14 46 47
3 2 29 40
3 14 29 47
3 2 3 29
3 13 14 29
3 29 30 31
3 29 30 35
3 3 29 31
3 13 29 35
3 30 32 33
3 30 33 34
3 30 31 32
3 30 34 35
3 3 4 31
3 12 13 35
3 4 5 48
3 11 12 54
3 5 6 48
3 10 11 54
3 6 48 59
3 10 54 55
3 6 7 59
3 9 10 55
3 7 58 59
3 9 55 56
3 8 57 58
3 8 56 57
3 7 8 58
3 8 9 56
3 4 31 48
3 12 35 54
3 31 48 49
3 35 53 54
3 31 49 50
3 35 52 53
3 31 32 50
3 34 35 52
3 32 33 50
3 33 34 52
3 33 50 51
3 33 51 52
3 48 49 60
3 49 60 50
3 50 60 61
3 50 51 61
3 51 52 61
3 61 62 52
3 52 53 62
3 53 54 62
3 54 55 63
3 55 56 63
3 56 63 64
3 56 57 64
3 64 65 57
3 57 58 65
3 58 59 65
3 48 59 65
