ply
format ascii 1.0
element vertex 66
property float x
property float y
property float z
property float u
property float v
element face 91
property list uchar int vertex_indices
end_header
-20.8048 -5.74412 21.043 476.494 464.417
-19.995 -0.712528 20.4254 477.421 484.598
-18.7616 4.27386 20.1785 479.999 504.887
-17.0205 9.04256 18.5273 484.883 524.238
-14.735 13.2964 13.3138 492.653 541.003
-11.7993 17.0564 8.03147 503.244 556.108
-8.23884 20.3333 3.49421 516.439 569.766
-4.05936 22.8354 -0.726152 532.412 580.722
0.81992 23.5776 -4.40657 551.916 585.162
5.91708 22.6404 -0.773972 572.084 584.708
10.0406 19.7811 3.43914 589.216 576.304
13.4194 16.1213 7.8633 603.742 564.421
16.292 12.1097 13.072 616.319 551.08
18.4081 7.67518 18.368 626.083 535.721
19.6277 2.80405 20.152 632.973 517.409
20.1428 -2.20526 20.5074 637.326 497.891
20.1367 -7.22317 20.952 639.605 478.109
-17.3621 -14.553 0.229983 497.121 426.458
-15.4564 -16.6372 -1.58373 505.908 418.701
-12.8096 -17.6787 -2.9301 517.08 415.536
-9.95372 -17.7493 -4.31266 528.629 416.309
-7.13173 -17.2237 -5.46 539.731 419.48
3.87681 -17.8939 -5.21934 583.681 422.142
6.35853 -18.8585 -4.00956 593.816 419.781
8.99815 -19.2814 -2.65332 604.301 419.674
11.6464 -18.9443 -1.2833 614.462 422.585
13.8899 -17.5452 0.580481 622.449 429.622
-0.54855 -11.8772 -4.78067 563.235 443.962
-0.204836 -8.62553 -7.91328 563.492 456.3
0.130716 -5.36178 -10.7581 563.672 468.747
0.454463 -2.08266 -13.08 563.727 481.368
-2.36548 1.24499 -6.29168 550.053 494.738
-0.819226 1.60936 -7.24438 556.144 496.705
0.818764 1.67764 -8.03097 562.716 497.581
2.32239 1.37957 -7.07312 568.691 497.336
3.64478 0.761871 -6.34912 574.129 495.684
-12.664 -10.3838 -1.21141 513.989 444.894
-11.0277 -11.6176 -1.03266 521.037 440.829
-8.90119 -12.0041 -0.828959 529.626 440.361
-7.02103 -11.2824 -0.876476 536.751 444.108
-8.7834 -10.3147 -1.18498 529.346 447.029
-10.7743 -10.029 -1.14194 521.308 447.219
4.50914 -11.9949 -0.360316 582.753 446.914
6.18068 -13.0525 -0.679159 589.924 443.451
8.32154 -13.1453 -0.909663 598.492 444.054
10.1817 -12.2657 -0.989985 605.467 448.41
8.43303 -11.4798 -0.830761 598.139 450.724
6.4212 -11.4247 -0.714833 590.117 450.007
-2.70664 9.7944 -2.82659 544.204 529.229
-1.93 7.95433 -5.1005 548.46 521.796
-0.686694 6.39794 -6.71469 554.343 515.859
1.01711 6.54897 -8.57234 561.282 516.852
2.63534 6.1848 -6.52721 567.596 516.646
3.97663 7.53311 -4.95156 572.067 522.985
4.82418 9.28878 -2.61128 574.285 530.875
4.05481 10.5086 -3.98022 570.845 535.03
2.85453 11.3695 -5.23943 565.849 537.582
1.23805 11.7097 -6.81419 559.49 537.801
-0.32716 11.4898 -5.34681 553.186 536.513
-1.62591 10.81 -3.92625 548.162 533.521
0.581572 8.61415 -5.12641 558.115 525.605
1.14564 8.44399 -7.00183 560.687 524.776
1.6294 8.59707 -4.92532 562.252 526.084
1.50186 8.49775 -4.46989 561.731 525.732
1.13983 8.71789 -5.89371 560.385 526.109
0.727515 8.51038 -4.50859 558.659 525.403
3 20 21 23
3 21 22 23
3 0 1 36
3 15 16 45
3 0 17 36
3 16 26 45
3 17 18 37
3 25 26 44
3 17 36 37
3 26 44 45
3 18 19 38
3 24 25 43
3 18 37 38
3 25 43 44
3 19 20 38
3 23 24 43
3 20 21 39
3 22 23 42
3 20 38 39
3 23 42 43
3 21 22 27
3 21 27 39
3 22 27 42
3 27 28 42
3 27 28 39
3 28 42 47
3 28 39 40
3 1 36 41
3 15 45 46
3 1 2 41
3 14 15 46
3 28 29 40
3 28 29 47
3 2 40 41
3 14 46 47
3 2 29 40
3 14 29 47
3 2 3 29
3 13 14 29
3 29 30 31
3 29 30 35
3 3 29 31
3 13 29 35
3 30 32 33
3 30 33 34
3 30 31 32
3 30 34 35
3 3 4 31
3 12 13 35
3 4 5 48
3 11 12 54
3 5 6 48
3 10 11 54
3 6 48 59
3 10 54 55
3 6 7 59
3 9 10 55
3 7 58 59
3 9 55 56
3 8 57 58
3 8 56 57
3 7 8 58
3 8 9 56
3 4 31 48
3 12 35 54
3 31 48 49
3 35 53 54
3 31 49 50
3 35 52 53
3 31 32 50
3 34 35 52
3 32 33 50
3 33 34 52
3 33 50 51
3 33 51 52
3 48 49 60
3 49 60 50
3 50 60 61
3 50 51 61
3 51 52 61
3 61 62 52
3 52 53 62
3 53 54 62
3 54 55 63
3 55 56 63
3 56 63 64
3 56 57 64
3 64 65 57
3 57 58 65
3 58 59 65
3 48 59 65
