ply
format ascii 1.0
element vertex 66
property float x
property float y
property float z
property float u
property float v
element face 91
property list uchar int vertex_indices
end_header
-20.9613 -6.86205 21.6045 483.534 466.959
-20.271 -1.34716 20.9904 484.279 488.107
-19.327 4.14795 20.4993 485.982 509.322
-17.9766 9.55097 18.4366 489.581 529.767
-15.9627 14.5152 13.4665 496.445 547.724
-12.712 18.4453 7.90719 508.551 561.984
-8.54515 21.2907 3.20372 524.413 572.756
-3.95163 23.2748 -0.882293 542.111 580.621
1.03122 23.8668 -4.73836 561.773 583.391
6.1432 22.6222 -0.771851 581.111 582.039
10.4552 19.6321 3.3109 597.994 573.74
14.1047 15.8759 7.89289 612.518 562.438
17.0682 11.5371 13.2825 624.467 548.937
19.0825 6.8224 17.9657 633.042 533.376
20.0247 2.0931 20.1541 637.979 516.436
20.1951 -2.62242 20.4544 640.307 498.562
19.913 -7.33498 20.8234 640.883 480.552
-16.9377 -14.5102 0.103369 505.903 431.378
-14.7413 -16.8166 -1.63077 515.519 422.761
-11.7776 -18.1557 -2.94604 527.647 418.293
-8.50727 -18.3594 -4.16385 540.518 418.324
-5.2551 -17.7124 -5.22331 552.977 421.661
2.39142 -17.5963 -5.2848 582.321 425.018
4.93725 -18.4853 -4.06481 592.195 423.038
7.67072 -18.6971 -2.80499 602.533 423.737
10.3432 -18.2335 -1.40343 612.362 427.049
12.6657 -16.9126 0.380914 620.459 433.647
-0.0520871 -11.3509 -4.84661 570.558 448.144
0.139528 -8.24359 -7.78721 570.715 459.036
0.307548 -5.13722 -10.6954 570.776 469.928
0.463388 -2.04153 -13.3785 570.75 480.856
-2.66794 0.607394 -6.36887 556.41 492.353
-0.873788 1.01427 -7.17152 563.307 494.306
0.990125 1.13836 -7.96942 570.574 495.205
2.5813 0.842739 -6.97917 576.606 495.046
4.03625 0.235852 -6.30283 582.289 493.528
-11.9774 -9.67562 -1.07051 523.409 451.357
-10.2972 -10.537 -1.18215 530.201 448.665
-8.34667 -10.8293 -1.19289 537.804 448.291
-6.48984 -10.3236 -0.892024 544.694 451.049
-8.2816 -9.78881 -1.07078 537.649 452.343
-10.135 -9.60474 -1.10969 530.468 452.322
4.46125 -10.6552 -0.739653 586.857 454.039
6.11677 -11.2388 -1.12189 593.505 452.301
7.97757 -11.3391 -1.08853 600.684 452.643
9.65645 -10.6773 -0.868525 606.848 455.901
7.94786 -10.3137 -0.933394 600.164 456.613
6.17466 -10.3435 -0.839587 593.345 455.853
-6.64784 8.53975 -2.72391 537.513 522.517
-4.6507 6.61042 -4.96303 546.321 515.081
-2.07787 5.17809 -6.54849 557.034 510.008
0.913661 5.16346 -8.18628 568.844 510.502
3.77129 4.87255 -6.15252 579.541 511.228
6.31102 5.96494 -4.61603 588.603 516.945
8.1939 7.81251 -2.49134 594.753 525.515
6.62856 9.93067 -3.86774 588.225 532.518
4.27422 11.4058 -5.00235 578.855 536.846
1.35096 11.932 -6.67665 567.752 537.127
-1.69566 11.6378 -5.26687 555.886 535.347
-4.38251 10.4151 -4.00177 545.772 530.097
-2.05779 7.21971 -5.24304 556.112 518.306
1.08765 6.98668 -7.29865 568.674 517.871
4.11556 6.94908 -4.758 579.835 519.817
4.39172 8.87984 -4.27828 580.096 527.488
1.33385 9.54355 -6.2659 568.484 528.129
-1.88613 9.19039 -4.61192 555.928 526.145
3 20 21 23
3 21 22 23
3 0 1 36
3 15 16 45
3 0 17 36
3 16 26 45
3 17 18 37
3 25 26 44
3 17 36 37
3 26 44 45
3 18 19 38
3 24 25 43
3 18 37 38
3 25 43 44
3 19 20 38
3 23 24 43
3 20 21 39
3 22 23 42
3 20 38 39
3 23 42 43
3 21 22 27
3 21 27 39
3 22 27 42
3 27 28 42
3 27 28 39
3 28 42 47
3 28 39 40
3 1 36 41
3 15 45 46
3 1 2 41
3 14 15 46
3 28 29 40
3 28 29 47
3 2 40 41
3 14 46 47
3 2 29 40
3 14 29 47
3 2 3 29
3 13 14 29
3 29 30 31
3 29 30 35
3 3 29 31
3 13 29 35
3 30 32 33
3 30 33 34
3 30 31 32
3 30 34 35
3 3 4 31
3 12 13 35
3 4 5 48
3 11 12 54
3 5 6 48
3 10 11 54
3 6 48 59
3 10 54 55
3 6 7 59
3 9 10 55
3 7 58 59
3 9 55 56
3 8 57 58
3 8 56 57
3 7 8 58
3 8 9 56
3 4 31 48
3 12 35 54
3 31 48 49
3 35 53 54
3 31 49 50
3 35 52 53
3 31 32 50
3 34 35 52
3 32 33 50
3 33 34 52
3 33 50 51
3 33 51 52
3 48 49 60
3 49 60 50
3 50 60 61
3 50 51 61
3 51 52 61
3 61 62 52
3 52 53 62
3 53 54 62
3 54 55 63
3 55 56 63
3 56 63 64
3 56 57 64
3 64 65 57
3 57 58 65
3 58 59 65
3 48 59 65
