ply
format ascii 1.0
element vertex 66
property float x
property float y
property float z
property float u
property float v
element face 91
property list uchar int vertex_indices
end_header
-20.9779 -5.76385 21.5561 478.234 463.108
-20.1151 -0.670566 20.9624 479.109 483.621
-18.9946 4.39297 20.586 480.98 504.206
-17.6099 9.35437 18.5003 484.281 524.12
-15.6271 13.9177 13.4914 490.722 542.079
-12.51 17.6121 7.98723 502.216 557.081
-8.56192 20.4034 3.39428 517.304 569.163
-4.159 22.3771 -0.856303 534.56 578.327
0.64816 22.94 -4.58029 554.057 582.24
5.73757 22.019 -0.832184 574.02 582.197
10.1205 19.3561 3.42431 591.992 574.992
13.8815 15.8761 7.91722 607.878 564.271
16.9349 11.7744 13.3298 621.105 550.927
18.8737 7.14769 18.2527 630.276 534.789
19.8333 2.34214 20.4896 636.169 516.781
20.2342 -2.50719 20.8588 640.225 497.856
20.2061 -7.37495 21.2223 642.59 478.628
-17.8781 -14.2233 0.235411 499.043 426.15
-15.693 -16.3281 -1.5486 509.157 418.547
-12.7919 -17.3941 -2.95474 521.497 415.535
-9.67564 -17.4869 -4.26708 534.165 416.519
-6.5771 -16.941 -5.34556 546.383 420.08
3.60149 -17.3612 -5.33915 586.998 423.85
6.17372 -18.3286 -4.12288 597.479 421.677
8.91286 -18.7591 -2.76699 608.316 421.756
11.6775 -18.5657 -1.26621 618.899 424.355
14.1488 -17.3911 0.522837 627.751 430.757
-0.244297 -11.3399 -4.83684 568.49 445.79
0.0435756 -8.06754 -7.86743 568.502 458.196
0.314755 -4.80226 -10.8632 568.444 470.575
0.567807 -1.53722 -13.5148 568.249 483.024
-2.62101 1.26065 -6.36688 552.761 494.115
-0.86413 1.68197 -7.35595 559.703 496.488
0.971622 1.8052 -8.24099 567.094 497.746
2.58497 1.46883 -7.22872 573.479 497.515
4.0596 0.810465 -6.41806 579.52 495.885
-12.7462 -9.7989 -0.877735 517.309 446.167
-11.1367 -11.0111 -1.04334 524.363 442.181
-9.08012 -11.3136 -1.14089 532.701 442.056
-7.24366 -10.4737 -1.06486 539.536 446.385
-8.99486 -9.70647 -1.13769 532.199 448.474
-10.9014 -9.49273 -1.07796 524.509 448.318
5.17837 -11.1647 -0.723396 589.132 450.358
6.77111 -12.2407 -1.03986 596.077 446.867
8.79177 -12.3926 -0.954722 604.159 447.364
10.552 -11.4709 -0.713245 610.617 452.015
8.86566 -10.7812 -0.859769 603.592 453.815
6.98469 -10.7257 -0.798508 596.086 453.045
-6.59822 8.7191 -2.83912 532.401 522.402
-4.31837 7.18501 -5.01805 542.669 517.019
-1.77138 6.05165 -6.63806 553.68 513.5
0.979707 6.18519 -8.36438 564.859 515.087
3.59236 5.74373 -6.41181 575.085 515.196
6.09782 6.5381 -4.8002 584.305 520.067
8.27244 7.86726 -2.59076 591.817 527.023
6.37495 9.58195 -3.94956 583.65 532.485
3.86736 10.5872 -5.04449 573.382 534.871
1.13388 10.933 -6.54088 562.639 534.427
-1.60058 10.8109 -5.18501 551.591 532.806
-4.25905 10.1218 -3.92729 541.16 528.954
-1.46296 7.98945 -5.45334 553.664 521.629
1.09729 7.99921 -7.39782 564.192 522.572
3.49799 7.76407 -5.15671 573.414 523.455
3.55103 8.08743 -4.51586 573.332 524.917
1.11041 8.36459 -6.23291 563.83 524.305
-1.42648 8.34524 -4.65943 553.471 523.248
3 20 21 23
3 21 22 23
3 0 1 36
3 15 16 45
3 0 17 36
3 16 26 45
3 17 18 37
3 25 26 44
3 17 36 37
3 26 44 45
3 18 19 38
3 24 25 43
3 18 37 38
3 25 43 44
3 19 20 38
3 23 24 43
3 20 21 39
3 22 23 42
3 20 38 39
3 23 42 43
3 21 22 27
3 21 27 39
3 22 27 42
3 27 28 42
3 27 28 39
3 28 42 47
3 28 39 40
3 1 36 41
3 15 45 46
3 1 2 41
3 14 15 46
3 28 29 40
3 28 29 47
3 2 40 41
3 14 46 47
3 2 29 40
3 14 29 47
3 2 3 29
3 13 14 29
3 29 30 31
3 29 30 35
3 3 29 31
3 13 29 35
3 30 32 33
3 30 33 34
3 30 31 32
3 30 34 35
3 3 4 31
3 12 13 35
3 4 5 48
3 11 12 54
3 5 6 48
3 10 11 54
3 6 48 59
3 10 54 55
3 6 7 59
3 9 10 55
3 7 58 59
3 9 55 56
3 8 57 58
3 8 56 57
3 7 8 58
3 8 9 56
3 4 31 48
3 12 35 54
3 31 48 49
3 35 53 54
3 31 49 50
3 35 52 53
3 31 32 50
3 34 35 52
3 32 33 50
3 33 34 52
3 33 50 51
3 33 51 52
3 48 49 60
3 49 60 50
3 50 60 61
3 50 51 61
3 51 52 61
3 61 62 52
3 52 53 62
3 53 54 62
3 54 55 63
3 55 56 63
3 56 63 64
3 56 57 64
3 64 65 57
3 57 58 65
3 58 59 65
3 48 59 65
