ply
format ascii 1.0
element vertex 66
property float x
property float y
property float z
property float u
property float v
element face 91
property list uchar int vertex_indices
end_header
-20.558 -6.1408 21.2173 483.32 467.334
-19.7062 -0.770673 20.6206 484.163 488.978
-18.4895 4.5601 20.2539 486.457 510.662
-16.8228 9.66469 18.6204 490.725 531.552
-14.6704 14.1571 13.3561 497.443 549.921
-11.7613 17.9836 7.95861 507.489 566.002
-8.12032 21.1822 3.3781 520.686 580.019
-3.84846 23.515 -0.789552 536.773 590.944
1.07964 24.0675 -4.53713 556.287 595.164
6.16483 22.8409 -0.670927 576.791 593.093
10.1288 19.6049 3.45714 593.794 582.54
13.2659 15.6301 7.93211 607.851 568.693
15.8972 11.417 13.1778 619.967 553.727
17.9855 7.02284 18.2302 630.029 537.765
19.2044 2.34532 19.9483 636.993 519.962
19.6375 -2.44766 20.1975 640.99 501.192
19.526 -7.24596 20.6138 642.82 482.154
-17.29 -14.7493 0.204965 501.743 432.885
-15.3341 -17.0421 -1.57528 510.71 424.575
-12.5302 -18.1876 -2.88827 522.46 421.262
-9.49454 -18.2044 -4.26226 534.592 422.53
-6.50054 -17.5271 -5.41269 546.212 426.55
4.03921 -17.9329 -5.34551 588.192 430.011
6.32036 -18.8525 -4.07862 597.597 427.575
8.78227 -19.2443 -2.67097 607.456 427.331
11.2571 -18.9419 -1.27363 617.035 429.845
13.3283 -17.5931 0.540838 624.485 436.35
-0.151784 -12.0563 -4.79123 568.725 451.344
0.0604796 -8.90458 -7.87639 568.254 463.663
0.257678 -5.7398 -10.6818 567.699 476.051
0.438543 -2.56405 -13.0412 567.045 488.515
-2.19905 0.644141 -6.19655 554.613 500.582
-0.703741 0.983308 -7.15549 560.441 502.559
0.883848 1.06032 -7.9948 566.752 503.551
2.24336 0.845657 -6.94021 572.178 503.448
3.43489 0.349285 -6.07506 577.085 502.131
-12.4742 -10.6455 -1.31106 518.969 451.331
-10.7966 -11.7884 -1.05883 526.152 447.628
-8.66915 -12.1967 -0.787302 534.765 447.056
-6.77909 -11.4936 -0.703882 541.917 450.759
-8.56817 -10.5266 -1.10449 534.386 453.697
-10.583 -10.2709 -1.10933 526.275 453.742
4.66778 -12.0122 -0.437873 587.535 454.226
6.33169 -12.8731 -0.625163 594.557 451.596
8.41694 -12.9124 -0.914136 602.862 452.415
10.1745 -11.9918 -1.12251 609.403 456.89
8.44939 -11.2809 -0.895054 602.208 458.9
6.48573 -11.3105 -0.819848 594.432 457.846
-2.43501 9.89822 -2.83923 549.031 537.457
-1.72493 8.18941 -5.12864 552.811 530.818
-0.647968 6.6172 -6.75265 557.938 524.957
0.892077 6.80201 -8.5596 564.071 526.266
2.30892 6.50196 -6.45526 569.698 525.947
3.39042 7.9518 -4.87362 573.191 532.357
3.97991 9.74653 -2.6355 574.525 539.956
3.48815 10.8453 -3.9738 572.135 543.955
2.56297 11.6467 -5.26604 568.165 546.572
1.15346 11.9694 -6.92754 562.528 547.024
-0.312913 11.6687 -5.47208 556.765 545.259
-1.46068 10.9158 -4.06395 552.484 541.849
0.691427 8.74246 -5.14441 562.128 534.17
1.03752 8.57749 -6.9897 563.697 533.516
1.28657 8.86281 -4.70591 564.402 534.972
1.20729 8.8389 -4.2862 564.072 534.877
1.09932 9.06412 -5.90794 563.64 535.572
0.877539 8.7352 -4.57846 562.833 534.282
3 20 21 23
3 21 22 23
3 0 1 36
3 15 16 45
3 0 17 36
3 16 26 45
3 17 18 37
3 25 26 44
3 17 36 37
3 26 44 45
3 18 19 38
3 24 25 43
3 18 37 38
3 25 43 44
3 19 20 38
3 23 24 43
3 20 21 39
3 22 23 42
3 20 38 39
3 23 42 43
3 21 22 27
3 21 27 39
3 22 27 42
3 27 28 42
3 27 28 39
3 28 42 47
3 28 39 40
3 1 36 41
3 15 45 46
3 1 2 41
3 14 15 46
3 28 29 40
3 28 29 47
3 2 40 41
3 14 46 47
3 2 29 40
3 14 29 47
3 2 3 29
3 13 14 29
3 29 30 31
3 29 30 35
3 3 29 31
3 13 29 35
3 30 32 33
3 30 33 34
3 30 31 32
3 30 34 35
3 3 4 31
3 12 13 35
3 4 5 48
3 11 12 54
3 5 6 48
3 10 11 54
3 6 48 59
3 10 54 55
3 6 7 59
3 9 10 55
3 7 58 59
3 9 55 56
3 8 57 58
3 8 56 57
3 7 8 58
3 8 9 56
3 4 31 48
3 12 35 54
3 31 48 49
3 35 53 54
3 31 49 50
3 35 52 53
3 31 32 50
3 34 35 52
3 32 33 50
3 33 34 52
3 33 50 51
3 33 51 52
3 48 49 60
3 49 60 50
3 50 60 61
3 50 51 61
3 51 52 61
3 61 62 52
3 52 53 62
3 53 54 62
3 54 55 63
3 55 56 63
3 56 63 64
3 56 57 64
3 64 65 57
3 57 58 65
3 58 59 65
3 48 59 65
