ply
format ascii 1.0
element vertex 66
property float x
property float y
property float z
property float u
property float v
element face 91
property list uchar int vertex_indices
end_header
-20.8336 -5.76176 21.7245 477.14 466.628
-19.883 -0.639041 21.1309 479.104 487.129
-18.6979 4.45171 20.7312 481.965 507.638
-17.3617 9.42493 18.5523 485.858 527.351
-15.4898 13.9729 13.5506 492.651 544.972
-12.4193 17.611 8.00578 504.648 559.34
-8.48081 20.3333 3.37722 520.222 570.624
-4.09381 22.2354 -0.924926 537.808 578.909
0.685814 22.7083 -4.55194 557.337 581.842
5.77011 21.8674 -0.819937 576.95 581.307
10.1662 19.2602 3.46298 594.384 573.639
13.8881 15.7913 7.96283 609.427 562.349
16.8835 11.7291 13.3566 621.623 548.626
18.7044 7.17266 18.3244 629.451 532.398
19.5688 2.4391 20.5586 634.162 514.5
19.9838 -2.35009 20.9065 637.53 495.794
19.9938 -7.15623 21.2941 639.292 476.873
-18.2493 -14.3625 0.266431 495.312 428.915
-15.9874 -16.375 -1.47811 505.401 421.451
-13.058 -17.3207 -2.91691 517.663 418.533
-9.96117 -17.3488 -4.2651 530.223 419.329
-6.88975 -16.7878 -5.35921 542.404 422.501
4.30042 -17.3841 -5.36375 586.903 424.487
6.81409 -18.1977 -4.17063 596.893 422.506
9.46072 -18.5453 -2.81856 607.198 422.455
12.1186 -18.3059 -1.29863 617.29 424.767
14.4568 -17.0811 0.595991 625.665 430.934
-0.162735 -11.0785 -4.81076 566.75 447.816
0.151416 -7.79722 -7.90714 567.439 460.239
0.441983 -4.52548 -10.9694 568.029 472.622
0.707111 -1.24894 -13.6424 568.432 485.1
-2.65271 1.55098 -6.44757 552.506 496.445
-0.807815 1.99387 -7.46201 559.861 498.691
1.11432 2.1309 -8.33952 567.607 499.788
2.74891 1.78164 -7.34054 573.987 499.26
4.24203 1.10164 -6.51279 579.968 497.331
-13.3406 -10.0411 -0.699661 513.319 447.702
-11.7066 -11.4538 -0.952513 520.371 442.694
-9.53888 -11.7303 -1.17426 529.101 442.393
-7.69707 -10.5589 -1.14331 535.94 447.748
-9.49338 -9.721 -1.14024 528.517 450.366
-11.4728 -9.55132 -1.02292 520.596 450.294
5.17801 -11.17 -0.772383 587.029 450.412
6.72404 -12.5546 -1.12513 593.744 445.459
8.83819 -12.7737 -0.955872 602.154 445.45
10.6327 -11.6367 -0.629623 608.755 450.716
8.96012 -10.7662 -0.849656 601.858 453.461
7.02457 -10.6816 -0.803858 594.158 453.054
-7.02331 8.56735 -2.85024 531.784 523.288
-4.48691 7.1426 -5.04731 542.837 518.156
-1.78558 6.13466 -6.6984 554.267 514.857
1.02285 6.29726 -8.4594 565.704 516.205
3.65989 5.82172 -6.50042 575.886 515.777
6.28007 6.45658 -4.85377 585.653 519.666
8.64641 7.66751 -2.56335 594.056 525.877
6.6466 9.44404 -3.87826 585.764 531.839
3.97664 10.4042 -5.00305 575.086 534.353
1.16365 10.6996 -6.46978 564.168 534.108
-1.67024 10.6206 -5.1518 552.696 532.984
-4.50274 9.98379 -3.93026 541.46 529.633
-1.56638 8.0319 -5.58229 554.175 522.691
1.15161 8.11987 -7.5226 565.322 523.669
3.66856 7.80767 -5.22799 574.894 523.914
3.73844 7.90283 -4.50332 574.975 524.477
1.14783 8.08485 -6.18975 565.027 523.821
-1.54304 8.16224 -4.69948 554.025 523.409
3 20 21 23
3 21 22 23
3 0 1 36
3 15 16 45
3 0 17 36
3 16 26 45
3 17 18 37
3 25 26 44
3 17 36 37
3 26 44 45
3 18 19 38
3 24 25 43
3 18 37 38
3 25 43 44
3 19 20 38
3 23 24 43
3 20 21 39
3 22 23 42
3 20 38 39
3 23 42 43
3 21 22 27
3 21 27 39
3 22 27 42
3 27 28 42
3 27 28 39
3 28 42 47
3 28 39 40
3 1 36 41
3 15 45 46
3 1 2 41
3 14 15 46
3 28 29 40
3 28 29 47
3 2 40 41
3 14 46 47
3 2 29 40
3 14 29 47
3 2 3 29
3 13 14 29
3 29 30 31
3 29 30 35
3 3 29 31
3 13 29 35
3 30 32 33
3 30 33 34
3 30 31 32
3 30 34 35
3 3 4 31
3 12 13 35
3 4 5 48
3 11 12 54
3 5 6 48
3 10 11 54
3 6 48 59
3 10 54 55
3 6 7 59
3 9 10 55
3 7 58 59
3 9 55 56
3 8 57 58
3 8 56 57
3 7 8 58
3 8 9 56
3 4 31 48
3 12 35 54
3 31 48 49
3 35 53 54
3 31 49 50
3 35 52 53
3 31 32 50
3 34 35 52
3 32 33 50
3 33 34 52
3 33 50 51
3 33 51 52
3 48 49 60
3 49 60 50
3 50 60 61
3 50 51 61
3 51 52 61
3 61 62 52
3 52 53 62
3 53 54 62
3 54 55 63
3 55 56 63
3 56 63 64
3 56 57 64
3 64 65 57
3 57 58 65
3 58 59 65
3 48 59 65
