ply
format ascii 1.0
element vertex 66
property float x
property float y
property float z
property float u
property float v
element face 91
property list uchar int vertex_indices
end_header
-21.3145 -6.41617 21.2847 479.846 465.844
-20.7282 -1.14418 20.7009 479.864 485.749
-19.8111 4.10033 20.334 481.097 505.746
-18.3229 9.23272 18.2967 484.828 525.204
-16.0477 13.9798 13.4188 492.203 542.931
-12.6888 17.8512 7.92676 504.138 557.719
-8.52187 20.7673 3.27558 519.368 569.471
-3.92189 22.8799 -0.80261 536.468 578.529
1.10862 23.5797 -4.58581 555.744 582.546
6.20644 22.4416 -0.796522 574.683 581.393
10.6084 19.7088 3.28744 591.647 574.014
14.4172 16.1978 7.84893 606.635 563.559
17.5097 11.9995 13.2573 619.077 550.397
19.5392 7.2315 18.074 627.885 534.492
20.4788 2.30347 20.2339 633.157 516.909
20.6473 -2.63759 20.5873 635.871 498.529
20.3812 -7.57469 21.0052 636.94 479.986
-16.3635 -14.3971 0.0282422 505.798 433.358
-14.3082 -16.4678 -1.65329 514.722 426.129
-11.5835 -17.7029 -2.97723 525.731 422.413
-8.57419 -17.9784 -4.23211 537.378 422.437
-5.5743 -17.4979 -5.33528 548.634 425.328
2.50946 -17.7613 -5.19929 579.073 427.966
5.08929 -18.6116 -4.00594 588.909 426.191
7.82225 -18.7946 -2.75367 599.019 427.001
10.4783 -18.2806 -1.3978 608.519 430.414
12.7797 -16.954 0.326394 616.267 436.799
-0.426489 -11.5238 -4.82211 565.272 450.141
-0.156473 -8.41981 -7.71739 565.468 461.256
0.101619 -5.31941 -10.6153 565.622 472.352
0.350841 -2.23159 -13.3034 565.709 483.444
-2.7262 0.758237 -6.30219 551.575 494.855
-1.0255 1.14528 -7.13946 557.945 496.877
0.74582 1.2562 -7.93441 564.693 497.903
2.35058 0.924171 -6.96708 570.684 497.588
3.81566 0.294405 -6.28448 576.333 496.03
-12.0787 -9.57996 -1.1108 520.001 453.078
-10.4825 -10.5589 -1.16854 526.429 450.103
-8.53307 -10.8815 -1.1444 533.884 449.766
-6.70439 -10.3983 -0.936473 540.501 452.438
-8.41695 -9.70033 -1.13323 533.805 454.25
-10.2592 -9.4534 -1.1524 526.784 454.353
4.54558 -10.9822 -0.605668 582.93 455.327
6.21065 -11.6949 -1.01669 589.566 453.303
8.13896 -11.7745 -1.03999 596.845 453.857
9.85488 -11.0708 -0.884313 602.953 457.294
8.14099 -10.5945 -0.903049 596.315 458.314
6.30958 -10.5868 -0.792065 589.415 457.553
-5.83888 8.89069 -2.76201 535.707 524.766
-4.0873 7.05961 -4.9072 543.472 518.198
-1.81123 5.65844 -6.50806 552.919 513.597
0.88081 5.68619 -8.17847 563.32 514.525
3.47462 5.32822 -6.24584 572.859 514.768
5.80239 6.39319 -4.68282 580.849 520.148
7.58893 8.05168 -2.55675 586.446 527.639
6.0313 9.83157 -3.94821 580.08 533.311
3.85051 11.0507 -5.11452 571.577 536.653
1.22867 11.5271 -6.65112 561.809 536.93
-1.43229 11.3142 -5.28142 551.66 535.254
-3.81405 10.3853 -3.9965 542.886 530.997
-1.51448 7.62595 -5.13467 552.927 521.416
1.02138 7.44209 -7.2148 562.908 521.389
3.4673 7.34864 -4.84834 571.698 522.656
3.61259 8.62928 -4.39627 571.604 527.625
1.16181 9.19214 -6.20168 562.49 528.242
-1.3882 8.92261 -4.54449 552.729 526.467
3 20 21 23
3 21 22 23
3 0 1 36
3 15 16 45
3 0 17 36
3 16 26 45
3 17 18 37
3 25 26 44
3 17 36 37
3 26 44 45
3 18 19 38
3 24 25 43
3 18 37 38
3 25 43 44
3 19 20 38
3 23 24 43
3 20 21 39
3 22 23 42
3 20 38 39
3 23 42 43
3 21 22 27
3 21 27 39
3 22 27 42
3 27 28 42
3 27 28 39
3 28 42 47
3 28 39 40
3 1 36 41
3 15 45 46
3 1 2 41
3 14 15 46
3 28 29 40
3 28 29 47
3 2 40 41
3 14 46 47
3 2 29 40
3 14 29 47
3 2 3 29
3 13 14 29
3 29 30 31
3 29 30 35
3 3 29 31
3 13 29 35
3 30 32 33
3 30 33 34
3 30 31 32
3 30 34 35
3 3 4 31
3 12 13 35
3 4 5 48
3 11 12 54
3 5 6 48
3 10 11 54
3 6 48 59
3 10 54 55
3 6 7 59
3 9 10 55
3 7 58 59
3 9 55 56
3 8 57 58
3 8 56 57
3 7 8 58
3 8 9 56
3 4 31 48
3 12 35 54
3 31 48 49
3 35 53 54
3 31 49 50
3 35 52 53
3 31 32 50
3 34 35 52
3 32 33 50
3 33 34 52
3 33 50 51
3 33 51 52
3 48 49 60
3 49 60 50
3 50 60 61
3 50 51 61
3 51 52 61
3 61 62 52
3 52 53 62
3 53 54 62
3 54 55 63
3 55 56 63
3 56 63 64
3 56 57 64
3 64 65 57
3 57 58 65
3 58 59 65
3 48 59 65
