ply
format ascii 1.0
element vertex 66
property float x
property float y
property float z
property float u
property float v
element face 91
property list uchar int vertex_indices
end_header
-21.1176 -5.61934 21.5941 477.548 466.627
-20.2476 -0.641463 21.0159 478.787 486.455
-19.1121 4.30513 20.6708 481.044 506.337
-17.726 9.14261 18.4762 484.648 525.495
-15.7143 13.6005 13.5317 491.348 542.841
-12.5512 17.1987 8.03208 503.063 557.224
-8.58873 19.9297 3.4305 518.165 568.775
-4.20528 21.8962 -0.87038 535.222 577.587
0.576005 22.4758 -4.52086 554.369 581.282
5.6671 21.7103 -0.88566 574.122 581.463
10.1586 19.2681 3.40706 592.174 574.926
14.0613 15.9754 7.8968 608.269 564.817
17.2466 12.0063 13.3086 621.697 551.922
19.1531 7.39549 18.3225 630.458 535.82
20.0364 2.54647 20.6271 635.763 517.702
20.4279 -2.35666 21.0378 639.478 498.719
20.4149 -7.27931 21.4234 641.616 479.465
-18.0364 -14.2555 0.254904 497.211 429.39
-15.8129 -16.1692 -1.49875 507.124 422.522
-12.9689 -17.0938 -2.95103 518.973 419.895
-9.95604 -17.1672 -4.28597 531.076 420.716
-6.96242 -16.6754 -5.3698 542.802 423.804
4.06876 -17.3931 -5.27958 586.483 426.156
6.60472 -18.2755 -4.10287 596.659 424.137
9.27798 -18.6759 -2.77057 607.127 424.11
11.9791 -18.5128 -1.25073 617.415 426.351
14.4233 -17.4118 0.597924 626.209 432.228
-0.299992 -11.0587 -4.8123 566.329 449.099
0.0636269 -7.76827 -7.87821 566.768 461.509
0.409989 -4.4896 -10.9453 567.145 473.864
0.731507 -1.21011 -13.6527 567.364 486.291
-2.71552 1.65015 -6.45748 551.291 497.519
-0.859562 2.06533 -7.45473 558.565 499.794
1.0661 2.18171 -8.31563 566.227 500.959
2.75309 1.81838 -7.35048 572.863 500.535
4.3106 1.13037 -6.57252 579.17 498.733
-13.1697 -9.68701 -0.706632 514.414 449.392
-11.5331 -11.0412 -0.982568 521.514 444.776
-9.39271 -11.3225 -1.20866 530.096 444.62
-7.52884 -10.2947 -1.20394 536.952 449.528
-9.32045 -9.49146 -1.17652 529.536 451.853
-11.283 -9.28903 -1.06173 521.709 451.757
5.05274 -11.0315 -0.705111 586.668 452.621
6.64737 -12.3759 -1.1127 593.621 447.995
8.76975 -12.6105 -0.949331 602.045 448.101
10.6259 -11.5965 -0.60295 608.819 453.028
8.91174 -10.7556 -0.829941 601.734 455.479
6.95319 -10.636 -0.750228 593.966 455.052
-7.31535 8.45937 -2.83577 529.479 522.922
-4.69203 7.04005 -4.98814 540.805 518.093
-1.87841 6.07498 -6.63182 552.585 515.25
1.03399 6.23091 -8.39534 564.26 516.83
3.78403 5.72096 -6.50026 574.986 516.533
6.53726 6.28912 -4.8543 585.272 520.418
9.04985 7.4237 -2.56759 594.245 526.557
6.91072 9.30314 -3.95049 585.208 532.631
4.08808 10.3421 -5.04239 573.82 535.15
1.12477 10.6721 -6.43334 562.253 534.753
-1.81075 10.6022 -5.1209 550.523 533.4
-4.7432 9.93877 -3.89693 539.093 529.697
-1.83897 7.99102 -5.54119 551.679 523.037
1.13984 8.07957 -7.52341 563.683 524.334
3.91094 7.6914 -5.29951 574.38 524.599
3.97227 7.82139 -4.60263 574.444 525.294
1.10134 8.0556 -6.25593 563.329 524.505
-1.85853 8.15255 -4.67136 551.381 523.856
3 20 21 23
3 21 22 23
3 0 1 36
3 15 16 45
3 0 17 36
3 16 26 45
3 17 18 37
3 25 26 44
3 17 36 37
3 26 44 45
3 18 19 38
3 24 25 43
3 18 37 38
3 25 43 44
3 19 20 38
3 23 24 43
3 20 21 39
3 22 23 42
3 20 38 39
3 23 42 43
3 21 22 27
3 21 27 39
3 22 27 42
3 27 28 42
3 27 28 39
3 28 42 47
3 28 39 40
3 1 36 41
3 15 45 46
3 1 2 41
3 14 15 46
3 28 29 40
3 28 29 47
3 2 40 41
3 14 46 47
3 2 29 40
3 14 29 47
3 2 3 29
3 13 14 29
3 29 30 31
3 29 30 35
3 3 29 31
3 13 29 35
3 30 32 33
3 30 33 34
3 30 31 32
3 30 34 35
3 3 4 31
3 12 13 35
3 4 5 48
3 11 12 54
3 5 6 48
3 10 11 54
3 6 48 59
3 10 54 55
3 6 7 59
3 9 10 55
3 7 58 59
3 9 55 56
3 8 57 58
3 8 56 57
3 7 8 58
3 8 9 56
3 4 31 48
3 12 35 54
3 31 48 49
3 35 53 54
3 31 49 50
3 35 52 53
3 31 32 50
3 34 35 52
3 32 33 50
3 33 34 52
3 33 50 51
3 33 51 52
3 48 49 60
3 49 60 50
3 50 60 61
3 50 51 61
3 51 52 61
3 61 62 52
3 52 53 62
3 53 54 62
3 54 55 63
3 55 56 63
3 56 63 64
3 56 57 64
3 64 65 57
3 57 58 65
3 58 59 65
3 48 59 65
