ply
format ascii 1.0
element vertex 66
property float x
property float y
property float z
property float u
property float v
element face 91
property list uchar int vertex_indices
end_header
-21.305 -6.07016 21.761 479.615 465.614
-20.3928 -0.841642 21.1411 481.295 485.841
-19.2475 4.36157 20.752 483.837 506.114
-17.8833 9.45915 18.555 487.572 525.639
-15.9209 14.1221 13.535 494.25 543.06
-12.6959 17.7753 7.96885 506.236 556.963
-8.56855 20.3825 3.40355 521.895 567.437
-4.03932 22.138 -0.878162 539.36 574.867
0.807807 22.5733 -4.62302 558.436 577.487
5.86756 21.6426 -0.832136 577.525 576.731
10.29 19.0592 3.4429 594.695 569.517
14.1041 15.6581 7.90567 609.801 558.985
17.1764 11.5968 13.3472 622.135 545.874
19.1113 7.03371 18.1969 630.396 530.271
20.0412 2.35463 20.5177 635.283 513.246
20.4245 -2.35991 20.817 638.438 495.403
20.39 -7.08728 21.2241 639.976 477.378
-18.3379 -14.1541 0.180115 497.712 430.686
-15.9198 -16.4057 -1.54625 508.114 422.57
-12.7494 -17.5312 -2.9511 520.93 419.128
-9.35987 -17.5701 -4.25298 534.168 419.955
-6.00512 -16.8834 -5.33344 546.968 423.601
3.30669 -17.1477 -5.35206 582.777 426.11
5.9684 -18.1674 -4.12095 593.147 423.502
8.81737 -18.6167 -2.7754 604.004 423.176
11.6967 -18.4266 -1.27236 614.715 425.349
14.2868 -17.2202 0.50179 623.896 431.369
-0.0845423 -11.1751 -4.84061 567.484 447.824
0.17989 -7.87739 -7.86833 567.808 459.843
0.423377 -4.58952 -10.894 568.055 471.816
0.646725 -1.30335 -13.6068 568.171 483.849
-2.66894 1.25294 -6.38858 553.263 494.087
-0.843908 1.73169 -7.37485 560.257 496.379
1.0681 1.8781 -8.2737 567.691 497.452
2.7064 1.53548 -7.22798 573.918 497.007
4.19385 0.837754 -6.37715 579.732 495.098
-13.0019 -9.61966 -0.852691 516.684 449.832
-11.3356 -10.6094 -1.03835 523.471 446.628
-9.35694 -10.9315 -1.1474 531.196 446.118
-7.4942 -10.3223 -1.12328 538.11 449.162
-9.2775 -9.74882 -1.14346 531.064 450.679
-11.1472 -9.54416 -1.08223 523.808 450.769
5.38164 -10.9265 -0.831258 587.659 451.791
7.02506 -11.7125 -1.03945 594.287 449.354
8.94849 -11.8342 -0.951159 601.693 449.636
10.6894 -11.0938 -0.692473 608.051 453.193
8.96962 -10.6585 -0.885201 601.329 454.163
7.14959 -10.6425 -0.840109 594.336 453.546
-7.16136 8.53472 -2.88526 532.746 521.105
-4.67596 7.0177 -5.02389 543.207 515.731
-1.94117 5.92849 -6.6121 554.371 512.22
0.963788 6.05078 -8.31653 565.761 513.386
3.70276 5.62312 -6.34638 576.081 513.249
6.35318 6.35961 -4.77832 585.701 517.443
8.66725 7.70453 -2.65239 593.711 523.972
6.63752 9.41346 -3.90286 585.515 529.455
3.97642 10.3549 -4.97164 575.149 531.802
1.14659 10.6567 -6.48236 564.447 531.531
-1.73311 10.5655 -5.13931 553.205 530.408
-4.58622 9.9213 -3.94032 542.293 527.142
-1.73696 7.88749 -5.55911 554.25 520.049
1.10301 7.91795 -7.48726 565.463 520.787
3.76357 7.65768 -5.17005 575.36 521.343
3.83984 7.86616 -4.50899 575.461 522.326
1.1337 8.08837 -6.32338 565.317 521.725
-1.68301 8.13014 -4.73278 554.224 521.194
3 20 21 23
3 21 22 23
3 0 1 36
3 15 16 45
3 0 17 36
3 16 26 45
3 17 18 37
3 25 26 44
3 17 36 37
3 26 44 45
3 18 19 38
3 24 25 43
3 18 37 38
3 25 43 44
3 19 20 38
3 23 24 43
3 20 21 39
3 22 23 42
3 20 38 39
3 23 42 43
3 21 22 27
3 21 27 39
3 22 27 42
3 27 28 42
3 27 28 39
3 28 42 47
3 28 39 40
3 1 36 41
3 15 45 46
3 1 2 41
3 14 15 46
3 28 29 40
3 28 29 47
3 2 40 41
3 14 46 47
3 2 29 40
3 14 29 47
3 2 3 29
3 13 14 29
3 29 30 31
3 29 30 35
3 3 29 31
3 13 29 35
3 30 32 33
3 30 33 34
3 30 31 32
3 30 34 35
3 3 4 31
3 12 13 35
3 4 5 48
3 11 12 54
3 5 6 48
3 10 11 54
3 6 48 59
3 10 54 55
3 6 7 59
3 9 10 55
3 7 58 59
3 9 55 56
3 8 57 58
3 8 56 57
3 7 8 58
3 8 9 56
3 4 31 48
3 12 35 54
3 31 48 49
3 35 53 54
3 31 49 50
3 35 52 53
3 31 32 50
3 34 35 52
3 32 33 50
3 33 34 52
3 33 50 51
3 33 51 52
3 48 49 60
3 49 60 50
3 50 60 61
3 50 51 61
3 51 52 61
3 61 62 52
3 52 53 62
3 53 54 62
3 54 55 63
3 55 56 63
3 56 63 64
3 56 57 64
3 64 65 57
3 57 58 65
3 58 59 65
3 48 59 65
