ply
format ascii 1.0
element vertex 66
property float x
property float y
property float z
property float u
property float v
element face 91
property list uchar int vertex_indices
end_header
-20.4594 -6.11742 21.4667 480.249 465.776
-19.6257 -0.880691 20.9263 481.422 486.81
-18.5288 4.32509 20.4993 483.636 507.862
-17.1548 9.38604 18.4864 487.276 528.087
-15.2232 14.0022 13.5585 493.808 546.102
-12.2101 17.8123 8.05645 505.079 561.251
-8.33703 20.7736 3.36121 519.996 573.594
-3.94429 22.9118 -0.861614 537.252 583.005
0.971297 23.4383 -4.5726 557.189 586.363
6.06314 22.4692 -0.84175 577.228 585.61
10.3307 19.6621 3.37007 594.693 577.311
13.879 16.0392 7.9858 609.578 565.554
16.6638 11.8519 13.4064 621.535 551.412
18.4065 7.22424 18.2445 629.632 534.931
19.2537 2.3908 20.3542 634.71 516.6
19.5677 -2.51576 20.7407 637.985 497.341
19.4734 -7.43244 21.1244 639.642 477.863
-17.4443 -14.373 0.196087 499.288 429.295
-15.2306 -16.4899 -1.54775 509.282 421.442
-12.3157 -17.5639 -2.95326 521.562 418.115
-9.19798 -17.6644 -4.28261 534.222 418.761
-6.11489 -17.0978 -5.40163 546.425 422.09
3.3468 -17.492 -5.3788 584.21 424.65
5.87026 -18.4008 -4.137 594.425 422.433
8.5625 -18.7636 -2.77912 605.058 422.484
11.2718 -18.5114 -1.29678 615.477 425.014
13.683 -17.2938 0.49525 624.247 431.321
-0.261159 -11.7624 -4.89063 567.342 445.95
0.0298112 -8.53833 -7.84731 567.616 458.185
0.303799 -5.32507 -10.7859 567.824 470.375
0.55899 -2.11301 -13.4505 567.913 482.615
-2.59684 0.894031 -6.38154 552.909 494.847
-0.869267 1.24229 -7.29178 559.781 496.769
0.925575 1.31757 -8.12064 567.023 497.654
2.49652 1.04102 -7.16971 573.229 497.464
3.94551 0.471176 -6.37641 579.101 496.018
-12.4625 -10.0566 -0.9368 517.445 448.341
-10.7512 -11.2057 -1.05766 524.759 444.495
-8.64162 -11.4894 -1.13373 533.28 444.268
-6.74993 -10.6846 -1.00492 540.437 448.319
-8.59463 -10.0191 -1.10694 532.836 450.135
-10.5617 -9.79781 -1.07244 524.915 450.165
4.57973 -11.2493 -0.687863 585.673 451.085
6.24588 -12.2811 -1.02307 592.793 447.634
8.31829 -12.448 -0.983407 601.098 447.883
10.1566 -11.5777 -0.811056 608.007 452.18
8.39711 -10.9492 -0.889688 600.757 453.892
6.45758 -10.9056 -0.80992 593.013 453.239
-6.46361 8.92936 -2.76955 533.51 525.926
-4.35755 7.2169 -4.95843 542.978 519.527
-1.88199 5.9122 -6.59929 553.649 515.037
0.895692 5.95203 -8.34577 564.967 515.994
3.53644 5.60678 -6.40816 575.292 516.229
5.99187 6.59129 -4.77717 584.364 521.592
8.01749 8.14238 -2.57097 591.391 529.154
6.32598 10.0562 -3.97315 584.083 535.688
3.94697 11.2974 -5.10738 574.283 539.315
1.15063 11.7235 -6.56848 563.226 539.445
-1.69145 11.5281 -5.22185 551.785 537.749
-4.27062 10.5579 -3.98054 541.737 533.064
-1.8959 7.88117 -5.34391 552.546 523.147
1.00984 7.67222 -7.42298 564.534 523.093
3.77509 7.61385 -5.03858 575.158 524.627
3.91746 8.77443 -4.45232 575.132 529.436
1.12039 9.22189 -6.2412 564.117 529.574
-1.80512 9.06946 -4.60756 552.279 528.079
3 20 21 23
3 21 22 23
3 0 1 36
3 15 16 45
3 0 17 36
3 16 26 45
3 17 18 37
3 25 26 44
3 17 36 37
3 26 44 45
3 18 19 38
3 24 25 43
3 18 37 38
3 25 43 44
3 19 20 38
3 23 24 43
3 20 21 39
3 22 23 42
3 20 38 39
3 23 42 43
3 21 22 27
3 21 27 39
3 22 27 42
3 27 28 42
3 27 28 39
3 28 42 47
3 28 39 40
3 1 36 41
3 15 45 46
3 1 2 41
3 14 15 46
3 28 29 40
3 28 29 47
3 2 40 41
3 14 46 47
3 2 29 40
3 14 29 47
3 2 3 29
3 13 14 29
3 29 30 31
3 29 30 35
3 3 29 31
3 13 29 35
3 30 32 33
3 30 33 34
3 30 31 32
3 30 34 35
3 3 4 31
3 12 13 35
3 4 5 48
3 11 12 54
3 5 6 48
3 10 11 54
3 6 48 59
3 10 54 55
3 6 7 59
3 9 10 55
3 7 58 59
3 9 55 56
3 8 57 58
3 8 56 57
3 7 8 58
3 8 9 56
3 4 31 48
3 12 35 54
3 31 48 49
3 35 53 54
3 31 49 50
3 35 52 53
3 31 32 50
3 34 35 52
3 32 33 50
3 33 34 52
3 33 50 51
3 33 51 52
3 48 49 60
3 49 60 50
3 50 60 61
3 50 51 61
3 51 52 61
3 61 62 52
3 52 53 62
3 53 54 62
3 54 55 63
3 55 56 63
3 56 63 64
3 56 57 64
3 64 65 57
3 57 58 65
3 58 59 65
3 48 59 65
