ply
format ascii 1.0
element vertex 66
property float x
property float y
property float z
property float u
property float v
element face 91
property list uchar int vertex_indices
end_header
-20.9127 -5.7501 21.5314 484.163 466.844
-20.0107 -0.671407 20.9313 484.845 486.852
-18.8248 4.37607 20.5845 486.608 506.943
-17.4164 9.28759 18.5389 489.527 526.368
-15.4528 13.7696 13.5373 495.216 543.987
-12.3913 17.4532 8.06022 505.656 559.079
-8.51029 20.3287 3.46639 519.6 571.661
-4.11509 22.3574 -0.82923 535.969 581.319
0.743635 22.8641 -4.48081 554.905 585.473
5.83287 22.0355 -0.857339 574.541 585.757
10.1952 19.4361 3.44987 592.286 578.903
13.8963 15.9953 7.94896 607.931 568.457
16.8999 11.984 13.3457 621.091 555.553
18.762 7.4295 18.3521 630.205 539.841
19.6886 2.60238 20.532 636.231 522.097
20.1398 -2.31262 20.9237 640.704 503.46
20.1713 -7.24519 21.3308 643.566 484.517
-17.9506 -14.0767 0.213038 503.078 433.056
-15.7615 -16.0433 -1.55654 512.869 426.443
-12.9449 -17.0332 -2.99046 524.484 424.008
-9.94633 -17.1612 -4.33235 536.301 425.016
-6.95652 -16.7274 -5.42603 547.734 428.224
4.04782 -17.3709 -5.33099 590.549 432.044
6.56668 -18.2178 -4.1308 600.592 430.406
9.2217 -18.5921 -2.77114 610.872 430.694
11.9074 -18.4126 -1.26529 620.938 433.158
14.35 -17.3066 0.552006 629.501 439.106
-0.364529 -11.6282 -4.82503 570.205 451.752
-0.0375346 -8.23521 -7.90529 569.946 464.539
0.275553 -4.85239 -10.9341 569.632 477.287
0.57045 -1.46348 -13.572 569.194 490.11
-2.71777 1.58051 -6.47059 553.859 501.093
-0.927465 2.0034 -7.43676 560.653 503.594
0.944222 2.11633 -8.26202 567.919 504.969
2.60691 1.76672 -7.32598 574.411 504.718
4.1266 1.08464 -6.54879 580.56 503.078
-13.0018 -9.91507 -0.824917 519.952 451.771
-11.3229 -11.1363 -1.01332 527.147 447.99
-9.21589 -11.4495 -1.14549 535.471 447.965
-7.3211 -10.6149 -1.1587 542.312 452.265
-9.14107 -9.90265 -1.17052 534.887 453.97
-11.1011 -9.66856 -1.08289 527.18 453.767
5.04073 -11.3605 -0.74144 590.38 456.517
6.69597 -12.4906 -1.0292 597.445 453.059
8.78517 -12.6638 -0.92306 605.59 453.601
10.649 -11.7697 -0.654192 612.241 458.157
8.89393 -11.0989 -0.835933 605.113 459.713
6.93944 -11.023 -0.781419 597.521 458.898
-6.66974 8.65739 -2.79944 534.125 526.709
-4.33584 7.14663 -4.98654 544.271 521.871
-1.75127 6.08644 -6.64627 555.06 518.996
0.980732 6.21749 -8.42203 565.758 520.782
3.56993 5.75047 -6.47984 575.761 520.767
6.12297 6.4392 -4.8264 585.008 525.143
8.38555 7.70273 -2.56571 592.729 531.665
6.45413 9.46487 -3.91666 584.454 537.145
3.89912 10.485 -5.03034 574.162 539.444
1.13715 10.8135 -6.46323 563.505 538.907
-1.61321 10.7416 -5.12124 552.758 537.27
-4.30671 10.0693 -3.87071 542.583 533.336
-1.56372 8.05534 -5.47303 554.516 526.882
1.10345 8.06386 -7.441 565.059 528.128
3.60236 7.78011 -5.23206 574.575 528.81
3.64497 7.90393 -4.55223 574.581 529.419
1.08884 8.13828 -6.22143 564.802 528.6
-1.55001 8.20724 -4.6374 554.374 527.608
3 20 21 23
3 21 22 23
3 0 1 36
3 15 16 45
3 0 17 36
3 16 26 45
3 17 18 37
3 25 26 44
3 17 36 37
3 26 44 45
3 18 19 38
3 24 25 43
3 18 37 38
3 25 43 44
3 19 20 38
3 23 24 43
3 20 21 39
3 22 23 42
3 20 38 39
3 23 42 43
3 21 22 27
3 21 27 39
3 22 27 42
3 27 28 42
3 27 28 39
3 28 42 47
3 28 39 40
3 1 36 41
3 15 45 46
3 1 2 41
3 14 15 46
3 28 29 40
3 28 29 47
3 2 40 41
3 14 46 47
3 2 29 40
3 14 29 47
3 2 3 29
3 13 14 29
3 29 30 31
3 29 30 35
3 3 29 31
3 13 29 35
3 30 32 33
3 30 33 34
3 30 31 32
3 30 34 35
3 3 4 31
3 12 13 35
3 4 5 48
3 11 12 54
3 5 6 48
3 10 11 54
3 6 48 59
3 10 54 55
3 6 7 59
3 9 10 55
3 7 58 59
3 9 55 56
3 8 57 58
3 8 56 57
3 7 8 58
3 8 9 56
3 4 31 48
3 12 35 54
3 31 48 49
3 35 53 54
3 31 49 50
3 35 52 53
3 31 32 50
3 34 35 52
3 32 33 50
3 33 34 52
3 33 50 51
3 33 51 52
3 48 49 60
3 49 60 50
3 50 60 61
3 50 51 61
3 51 52 61
3 61 62 52
3 52 53 62
3 53 54 62
3 54 55 63
3 55 56 63
3 56 63 64
3 56 57 64
3 64 65 57
3 57 58 65
3 58 59 65
3 48 59 65
