ply
format ascii 1.0
element vertex 66
property float x
property float y
property float z
property float u
property float v
element face 91
property list uchar int vertex_indices
end_header
-20.9721 -5.73409 21.486 483.211 467.634
-20.0861 -0.679536 20.9033 483.945 487.588
-18.9078 4.34149 20.5456 485.806 507.616
-17.4619 9.23611 18.5045 488.952 526.983
-15.4376 13.7117 13.5091 494.882 544.487
-12.3468 17.389 8.05726 505.431 559.4
-8.47638 20.2733 3.45802 519.346 571.834
-4.11821 22.3476 -0.831855 535.561 581.458
0.708379 22.9169 -4.47094 554.347 585.634
5.77717 22.0496 -0.857867 574.089 585.753
10.1154 19.4178 3.43753 591.891 578.764
13.8205 15.9706 7.93123 607.663 568.307
16.8834 11.9672 13.291 621.158 555.504
18.8321 7.41784 18.3027 630.669 539.908
19.8038 2.61055 20.4781 636.833 522.237
20.2478 -2.26728 20.8823 641.178 503.667
20.2605 -7.16492 21.2646 643.864 484.779
-17.7926 -14.2734 0.218451 502.455 432.29
-15.6115 -16.153 -1.54215 512.124 425.88
-12.8354 -17.0973 -2.9776 523.554 423.481
-9.88385 -17.2148 -4.31828 535.202 424.399
-6.9398 -16.7764 -5.40513 546.491 427.514
4.04794 -17.4385 -5.29975 589.438 431.026
6.50699 -18.2689 -4.11117 599.299 429.391
9.09828 -18.6361 -2.76103 609.403 429.652
11.7193 -18.4915 -1.25658 619.326 431.942
14.123 -17.4706 0.567839 627.893 437.566
-0.349661 -11.6547 -4.80887 569.177 451.095
-0.0137354 -8.22066 -7.8837 568.927 463.998
0.307792 -4.79639 -10.9179 568.623 476.863
0.60976 -1.36929 -13.5724 568.202 489.8
-2.67703 1.55644 -6.45854 553.108 500.665
-0.887613 1.95963 -7.423 559.927 503.031
0.977828 2.06915 -8.2464 567.186 504.327
2.62418 1.72493 -7.30646 573.657 504.079
4.13283 1.06192 -6.54614 579.787 502.487
-12.9409 -9.94215 -0.833295 519.007 451.54
-11.2607 -11.2089 -1.0113 526.232 447.526
-9.12171 -11.5191 -1.13495 534.707 447.48
-7.22034 -10.6248 -1.11984 541.588 451.995
-9.04921 -9.87449 -1.15718 534.092 453.886
-11.028 -9.64362 -1.08108 526.286 453.703
4.85525 -11.3396 -0.676614 588.745 455.966
6.50425 -12.5343 -1.0217 595.827 452.183
8.62374 -12.7279 -0.930981 604.14 452.619
10.4985 -11.7927 -0.670433 610.87 457.323
8.74293 -11.059 -0.830035 603.68 459.167
6.77024 -10.9755 -0.750093 595.978 458.418
-6.58443 8.71588 -2.79466 533.659 526.933
-4.28764 7.20814 -4.98137 543.619 521.945
-1.72429 6.13224 -6.63744 554.319 518.878
1.0072 6.27178 -8.42271 565.021 520.586
3.59079 5.79571 -6.46807 575.09 520.536
6.11885 6.49903 -4.82083 584.332 524.966
8.33259 7.76776 -2.54997 591.98 531.529
6.439 9.5334 -3.94233 583.822 537.06
3.91295 10.5733 -5.03627 573.576 539.488
1.16198 10.9219 -6.45444 562.871 539.054
-1.57655 10.8233 -5.13054 552.169 537.413
-4.24519 10.1282 -3.89833 542.073 533.483
-1.52456 8.07594 -5.45478 553.906 526.74
1.12895 8.0872 -7.43457 564.396 527.871
3.60652 7.80599 -5.20177 573.919 528.57
3.65326 8.00584 -4.54834 573.921 529.494
1.12167 8.27756 -6.20992 564.134 528.836
-1.4991 8.30457 -4.63782 553.793 527.794
3 20 21 23
3 21 22 23
3 0 1 36
3 15 16 45
3 0 17 36
3 16 26 45
3 17 18 37
3 25 26 44
3 17 36 37
3 26 44 45
3 18 19 38
3 24 25 43
3 18 37 38
3 25 43 44
3 19 20 38
3 23 24 43
3 20 21 39
3 22 23 42
3 20 38 39
3 23 42 43
3 21 22 27
3 21 27 39
3 22 27 42
3 27 28 42
3 27 28 39
3 28 42 47
3 28 39 40
3 1 36 41
3 15 45 46
3 1 2 41
3 14 15 46
3 28 29 40
3 28 29 47
3 2 40 41
3 14 46 47
3 2 29 40
3 14 29 47
3 2 3 29
3 13 14 29
3 29 30 31
3 29 30 35
3 3 29 31
3 13 29 35
3 30 32 33
3 30 33 34
3 30 31 32
3 30 34 35
3 3 4 31
3 12 13 35
3 4 5 48
3 11 12 54
3 5 6 48
3 10 11 54
3 6 48 59
3 10 54 55
3 6 7 59
3 9 10 55
3 7 58 59
3 9 55 56
3 8 57 58
3 8 56 57
3 7 8 58
3 8 9 56
3 4 31 48
3 12 35 54
3 31 48 49
3 35 53 54
3 31 49 50
3 35 52 53
3 31 32 50
3 34 35 52
3 32 33 50
3 33 34 52
3 33 50 51
3 33 51 52
3 48 49 60
3 49 60 50
3 50 60 61
3 50 51 61
3 51 52 61
3 61 62 52
3 52 53 62
3 53 54 62
3 54 55 63
3 55 56 63
3 56 63 64
3 56 57 64
3 64 65 57
3 57 58 65
3 58 59 65
3 48 59 65
