ply
format ascii 1.0
element vertex 66
property float x
property float y
property float z
property float u
property float v
element face 91
property list uchar int vertex_indices
end_header
-20.9451 -6.63464 21.4899 480.941 464.547
-20.2212 -1.27526 20.8765 481.712 485.511
-19.2216 4.06069 20.463 483.523 506.566
-17.8344 9.27928 18.41 487.271 526.804
-15.7954 14.0835 13.4938 494.392 544.788
-12.6008 17.9879 7.95922 506.531 559.567
-8.51206 20.9039 3.2717 522.364 571.155
-3.949 22.9634 -0.854969 540.267 579.793
1.05451 23.568 -4.62143 560.399 583.074
6.14346 22.4821 -0.863404 579.817 582.23
10.4858 19.6982 3.28089 596.928 574.585
14.1721 16.1189 7.86797 611.705 563.707
17.1259 11.9127 13.2948 623.687 550.346
19.0441 7.2302 18.0774 631.976 534.483
19.9451 2.41194 20.279 636.952 516.828
20.1873 -2.44178 20.6319 639.8 498.161
20.0157 -7.29718 21.0433 641.023 479.329
-17.1231 -14.3961 0.103158 503.964 429.116
-14.905 -16.523 -1.58907 513.875 421.245
-11.9986 -17.6741 -2.9512 525.993 417.571
-8.8516 -17.803 -4.2422 538.614 418
-5.73891 -17.1823 -5.35259 550.754 421.389
2.68764 -17.3395 -5.28515 583.658 424.4
5.24427 -18.3053 -4.04783 593.735 422.132
7.98817 -18.6477 -2.7395 604.271 422.392
10.7245 -18.3338 -1.32221 614.484 425.238
13.1634 -17.1068 0.413674 623.09 431.611
-0.282293 -11.3165 -4.88277 569.52 446.694
-0.024774 -8.13391 -7.83772 569.906 458.237
0.215493 -4.95464 -10.7491 570.215 469.775
0.445375 -1.78051 -13.39 570.423 481.375
-2.72356 0.799525 -6.3455 555.383 492.321
-0.964625 1.24272 -7.22528 562.263 494.514
0.876767 1.3749 -8.03444 569.576 495.555
2.50512 1.02908 -7.06805 575.843 495.216
3.98119 0.348333 -6.34422 581.709 493.431
-12.4466 -9.70887 -1.04991 520.547 448.981
-10.7788 -10.6354 -1.12028 527.445 446.066
-8.81102 -10.9451 -1.14425 535.25 445.694
-6.9651 -10.4271 -1.00097 542.202 448.544
-8.74162 -9.84873 -1.13581 535.07 449.992
-10.6054 -9.63443 -1.13174 527.715 450.031
4.78924 -10.9746 -0.71661 588.191 451.528
6.44692 -11.6798 -1.0383 595.017 449.39
8.36848 -11.786 -1.00123 602.544 449.81
10.1208 -11.1266 -0.814122 609.064 453.184
8.39589 -10.703 -0.893772 602.183 454.069
6.56682 -10.6858 -0.813492 595.026 453.38
-6.3067 8.61029 -2.75981 537.387 522.33
-4.36442 6.77009 -4.93268 546.216 515.303
-1.89685 5.4281 -6.54141 556.758 510.619
0.933356 5.4245 -8.27071 568.194 511.26
3.64234 5.0976 -6.24644 578.422 511.795
6.11931 6.08432 -4.68058 587.314 517.195
8.03708 7.76745 -2.56266 593.613 525.243
6.43138 9.7492 -3.9207 586.856 531.832
4.11818 11.1049 -5.04116 577.541 535.758
1.31316 11.604 -6.60866 566.763 535.998
-1.56429 11.3696 -5.21564 555.317 534.304
-4.12912 10.3063 -3.96179 545.462 529.473
-1.77009 7.35054 -5.24943 556.167 518.568
1.08227 7.13668 -7.33833 567.859 518.284
3.82718 7.05515 -4.91888 578.035 519.917
4.04311 8.67295 -4.38343 578.091 526.475
1.26832 9.28011 -6.15623 567.434 527.083
-1.63291 8.99436 -4.5604 555.87 525.243
3 20 21 23
3 21 22 23
3 0 1 36
3 15 16 45
3 0 17 36
3 16 26 45
3 17 18 37
3 25 26 44
3 17 36 37
3 26 44 45
3 18 19 38
3 24 25 43
3 18 37 38
3 25 43 44
3 19 20 38
3 23 24 43
3 20 21 39
3 22 23 42
3 20 38 39
3 23 42 43
3 21 22 27
3 21 27 39
3 22 27 42
3 27 28 42
3 27 28 39
3 28 42 47
3 28 39 40
3 1 36 41
3 15 45 46
3 1 2 41
3 14 15 46
3 28 29 40
3 28 29 47
3 2 40 41
3 14 46 47
3 2 29 40
3 14 29 47
3 2 3 29
3 13 14 29
3 29 30 31
3 29 30 35
3 3 29 31
3 13 29 35
3 30 32 33
3 30 33 34
3 30 31 32
3 30 34 35
3 3 4 31
3 12 13 35
3 4 5 48
3 11 12 54
3 5 6 48
3 10 11 54
3 6 48 59
3 10 54 55
3 6 7 59
3 9 10 55
3 7 58 59
3 9 55 56
3 8 57 58
3 8 56 57
3 7 8 58
3 8 9 56
3 4 31 48
3 12 35 54
3 31 48 49
3 35 53 54
3 31 49 50
3 35 52 53
3 31 32 50
3 34 35 52
3 32 33 50
3 33 34 52
3 33 50 51
3 33 51 52
3 48 49 60
3 49 60 50
3 50 60 61
3 50 51 61
3 51 52 61
3 61 62 52
3 52 53 62
3 53 54 62
3 54 55 63
3 55 56 63
3 56 63 64
3 56 57 64
3 64 65 57
3 57 58 65
3 58 59 65
3 48 59 65
