ply
format ascii 1.0
element vertex 66
property float x
property float y
property float z
property float u
property float v
element face 91
property list uchar int vertex_indices
end_header
-21.23 -5.99918 21.7719 480.608 468.022
-20.2899 -0.782721 21.1682 482.213 488.321
-19.1149 4.40508 20.7531 484.705 508.649
-17.7456 9.48699 18.5987 488.249 528.254
-15.8128 14.1267 13.5478 494.572 545.729
-12.6427 17.7825 7.98682 506.13 559.816
-8.57693 20.4302 3.42307 521.392 570.624
-4.09069 22.2284 -0.880558 538.576 578.399
0.742004 22.6654 -4.6215 557.557 581.214
5.83608 21.7535 -0.808477 576.957 580.675
10.2586 19.1348 3.47512 594.391 573.408
14.0437 15.6808 7.92801 609.683 562.707
17.0936 11.5947 13.3518 622.255 549.495
19.0105 7.02434 18.2596 630.74 533.837
19.9421 2.3211 20.5123 635.884 516.658
20.3446 -2.41773 20.8414 639.294 498.684
20.3205 -7.17284 21.2348 641.059 480.488
-18.4403 -14.0701 0.207296 497.825 433.228
-16.0298 -16.3915 -1.55177 508.301 424.896
-12.8277 -17.5467 -2.95352 521.299 421.454
-9.39935 -17.5869 -4.25057 534.702 422.414
-6.00586 -16.9014 -5.32311 547.646 426.201
3.42432 -17.2426 -5.34955 584.077 428.764
6.11744 -18.2428 -4.13546 594.663 426.305
8.99207 -18.6737 -2.80006 605.699 426.137
11.8844 -18.4271 -1.29544 616.504 428.618
14.4411 -17.1242 0.538373 625.544 435.097
-0.0661386 -11.2855 -4.83782 568.167 450.341
0.207975 -8.012 -7.87732 568.357 462.342
0.460413 -4.74818 -10.9078 568.466 474.298
0.689452 -1.48419 -13.6213 568.438 486.319
-2.62027 1.35614 -6.43861 553.481 497.513
-0.79354 1.82315 -7.39845 560.466 499.84
1.1188 1.95862 -8.27653 567.902 500.948
2.74298 1.62966 -7.25409 574.132 500.585
4.21681 0.946692 -6.43724 579.957 498.753
-12.937 -9.65948 -0.816154 517.378 452.212
-11.2705 -10.7673 -1.04968 524.273 448.586
-9.23065 -11.0758 -1.18791 532.268 448.208
-7.3514 -10.3152 -1.12415 539.184 451.92
-9.1521 -9.67045 -1.1416 531.997 453.653
-11.0612 -9.47048 -1.06884 524.559 453.652
5.15627 -10.8905 -0.803612 587.501 454.929
6.79125 -11.8387 -1.0895 594.218 451.892
8.7739 -11.9974 -0.990686 601.897 452.121
10.5341 -11.1425 -0.697595 608.282 456.198
8.81429 -10.5822 -0.885767 601.466 457.6
6.95582 -10.5532 -0.830556 594.294 456.96
-7.23583 8.52417 -2.85479 532.293 523.982
-4.70117 7.029 -5.02856 542.975 518.782
-1.9485 5.94468 -6.63623 554.246 515.38
0.968039 6.06851 -8.32888 565.673 516.67
3.71447 5.63962 -6.39269 576.125 516.594
6.37095 6.37133 -4.79709 585.814 520.864
8.70973 7.69385 -2.59971 593.952 527.411
6.66233 9.41354 -3.87843 585.571 532.886
3.97749 10.3547 -4.98577 575.026 535.146
1.12198 10.646 -6.48684 564.144 534.748
-1.77356 10.5576 -5.14729 552.836 533.522
-4.64428 9.91293 -3.91924 541.865 530.143
-1.77186 7.89947 -5.58071 553.979 523.207
1.10101 7.92926 -7.48439 565.308 524.07
3.78107 7.67655 -5.1796 575.378 524.727
3.85884 7.86861 -4.50502 575.499 525.651
1.12084 8.06448 -6.3492 565.16 524.857
-1.73052 8.12966 -4.73835 553.92 524.301
3 20 21 23
3 21 22 23
3 0 1 36
3 15 16 45
3 0 17 36
3 16 26 45
3 17 18 37
3 25 26 44
3 17 36 37
3 26 44 45
3 18 19 38
3 24 25 43
3 18 37 38
3 25 43 44
3 19 20 38
3 23 24 43
3 20 21 39
3 22 23 42
3 20 38 39
3 23 42 43
3 21 22 27
3 21 27 39
3 22 27 42
3 27 28 42
3 27 28 39
3 28 42 47
3 28 39 40
3 1 36 41
3 15 45 46
3 1 2 41
3 14 15 46
3 28 29 40
3 28 29 47
3 2 40 41
3 14 46 47
3 2 29 40
3 14 29 47
3 2 3 29
3 13 14 29
3 29 30 31
3 29 30 35
3 3 29 31
3 13 29 35
3 30 32 33
3 30 33 34
3 30 31 32
3 30 34 35
3 3 4 31
3 12 13 35
3 4 5 48
3 11 12 54
3 5 6 48
3 10 11 54
3 6 48 59
3 10 54 55
3 6 7 59
3 9 10 55
3 7 58 59
3 9 55 56
3 8 57 58
3 8 56 57
3 7 8 58
3 8 9 56
3 4 31 48
3 12 35 54
3 31 48 49
3 35 53 54
3 31 49 50
3 35 52 53
3 31 32 50
3 34 35 52
3 32 33 50
3 33 34 52
3 33 50 51
3 33 51 52
3 48 49 60
3 49 60 50
3 50 60 61
3 50 51 61
3 51 52 61
3 61 62 52
3 52 53 62
3 53 54 62
3 54 55 63
3 55 56 63
3 56 63 64
3 56 57 64
3 64 65 57
3 57 58 65
3 58 59 65
3 48 59 65
