ply
format ascii 1.0
element vertex 66
property float x
property float y
property float z
property float u
property float v
element face 91
property list uchar int vertex_indices
end_header
-21.2163 -6.63468 21.4186 481.692 462.202
-20.6122 -1.29823 20.8364 481.956 482.819
-19.7235 4.01555 20.4175 483.286 503.507
-18.3366 9.2506 18.2792 486.953 523.719
-16.1959 14.1516 13.4813 494.261 542.374
-12.871 18.1044 7.91165 506.682 557.716
-8.65436 20.9825 3.21992 522.77 569.505
-4.02197 23.031 -0.845063 540.651 578.424
0.995358 23.7439 -4.65768 560.501 582.434
6.13949 22.5995 -0.809592 579.852 581.077
10.6281 19.859 3.2529 597.29 573.362
14.5065 16.2969 7.83763 612.603 562.349
17.6041 11.9828 13.2967 625.025 548.314
19.5738 7.10983 18.0046 633.515 531.487
20.442 2.16978 20.2577 638.363 513.388
20.5643 -2.75123 20.627 640.766 494.626
20.2664 -7.67033 21.0154 641.551 475.697
-16.4466 -14.3227 0.0101521 508.053 429.915
-14.31 -16.3879 -1.63589 517.483 422.522
-11.5141 -17.6105 -2.96695 529.028 418.713
-8.43671 -17.8537 -4.216 541.234 418.803
-5.37197 -17.3249 -5.31829 553.041 421.885
2.38387 -17.5134 -5.25186 582.894 424.459
4.94759 -18.3727 -4.04156 592.818 422.515
7.67192 -18.5705 -2.78842 603.078 423.189
10.3268 -18.1058 -1.40719 612.77 426.406
12.6614 -16.8538 0.304503 620.833 432.585
-0.295207 -11.3408 -4.86163 569.982 447.115
-0.0281002 -8.29882 -7.72929 570.415 458.269
0.221195 -5.26105 -10.6326 570.789 469.391
0.456623 -2.23907 -13.3718 571.079 480.483
-2.75208 0.582365 -6.31065 555.985 491.537
-0.971995 0.995895 -7.14286 562.843 493.693
0.877372 1.12948 -7.94473 570.075 494.809
2.508 0.778426 -6.97759 576.262 494.368
4.00438 0.123403 -6.31112 582.126 492.635
-12.1642 -9.37825 -1.07354 522.722 450.473
-10.5564 -10.2526 -1.1808 529.281 447.772
-8.65748 -10.5767 -1.20774 536.714 447.326
-6.8305 -10.1981 -0.998503 543.529 449.6
-8.54397 -9.59159 -1.13847 536.73 451.172
-10.3538 -9.35466 -1.14749 529.683 451.314
4.61191 -10.7308 -0.674452 587.626 452.471
6.27549 -11.3145 -1.10858 594.354 450.837
8.13819 -11.4021 -1.09299 601.542 451.292
9.83232 -10.7929 -0.888937 607.753 454.395
8.12824 -10.4184 -0.926736 601.062 455.103
6.34374 -10.4238 -0.806813 594.182 454.353
-6.6092 8.61013 -2.75243 537.064 521.526
-4.65262 6.66591 -4.86468 545.859 514.417
-2.09104 5.23607 -6.46293 556.65 509.653
0.905739 5.20601 -8.12817 568.554 510.434
3.78513 4.88229 -6.18616 579.303 510.844
6.36692 5.94753 -4.62113 588.426 516.378
8.31196 7.72588 -2.52052 594.689 524.499
6.57214 9.66402 -3.90789 587.527 530.895
4.15526 10.9925 -5.04588 577.958 534.719
1.26044 11.5013 -6.60609 566.986 535.099
-1.69233 11.2625 -5.22556 555.427 533.24
-4.33555 10.2382 -3.96384 545.406 528.47
-2.08627 7.12828 -5.17151 555.597 517.21
1.04035 6.89981 -7.29252 568.185 517.182
4.05157 6.80088 -4.83183 579.231 518.627
4.27817 8.71148 -4.35712 579.209 526.166
1.23767 9.3996 -6.22153 567.673 527.105
-1.93745 9.06505 -4.54553 555.232 524.85
3 20 21 23
3 21 22 23
3 0 1 36
3 15 16 45
3 0 17 36
3 16 26 45
3 17 18 37
3 25 26 44
3 17 36 37
3 26 44 45
3 18 19 38
3 24 25 43
3 18 37 38
3 25 43 44
3 19 20 38
3 23 24 43
3 20 21 39
3 22 23 42
3 20 38 39
3 23 42 43
3 21 22 27
3 21 27 39
3 22 27 42
3 27 28 42
3 27 28 39
3 28 42 47
3 28 39 40
3 1 36 41
3 15 45 46
3 1 2 41
3 14 15 46
3 28 29 40
3 28 29 47
3 2 40 41
3 14 46 47
3 2 29 40
3 14 29 47
3 2 3 29
3 13 14 29
3 29 30 31
3 29 30 35
3 3 29 31
3 13 29 35
3 30 32 33
3 30 33 34
3 30 31 32
3 30 34 35
3 3 4 31
3 12 13 35
3 4 5 48
3 11 12 54
3 5 6 48
3 10 11 54
3 6 48 59
3 10 54 55
3 6 7 59
3 9 10 55
3 7 58 59
3 9 55 56
3 8 57 58
3 8 56 57
3 7 8 58
3 8 9 56
3 4 31 48
3 12 35 54
3 31 48 49
3 35 53 54
3 31 49 50
3 35 52 53
3 31 32 50
3 34 35 52
3 32 33 50
3 33 34 52
3 33 50 51
3 33 51 52
3 48 49 60
3 49 60 50
3 50 60 61
3 50 51 61
3 51 52 61
3 61 62 52
3 52 53 62
3 53 54 62
3 54 55 63
3 55 56 63
3 56 63 64
3 56 57 64
3 64 65 57
3 57 58 65
3 58 59 65
3 48 59 65
