ply
format ascii 1.0
element vertex 66
property float x
property float y
property float z
property float u
property float v
element face 91
property list uchar int vertex_indices
end_header
-20.6687 -6.13383 21.4415 476.688 463.211
-19.8765 -1.03426 20.9284 477.391 484.287
-18.7933 4.0262 20.5101 479.293 505.383
-17.3457 8.96869 18.3473 482.972 525.643
-15.2149 13.5423 13.5394 489.976 543.927
-12.0336 17.342 8.08961 501.758 559.395
-8.12242 20.3706 3.30636 516.838 572.302
-3.75333 22.6681 -0.890334 534.091 582.645
1.15474 23.3455 -4.49359 554.303 586.837
6.11059 22.3565 -0.967261 574.648 586.473
10.3346 19.642 3.24834 592.789 578.898
13.936 16.1609 7.96118 608.709 568.024
16.8752 12.0933 13.3569 622.13 554.624
18.679 7.4563 18.2408 631.259 538.15
19.4966 2.6021 20.4899 636.799 519.454
19.801 -2.29838 20.9482 640.491 499.744
19.7426 -7.21082 21.3527 642.711 479.78
-17.2826 -14.3383 0.213562 497.469 424.846
-15.0991 -16.0577 -1.48189 507.506 418.43
-12.3886 -16.8933 -2.96497 519.221 415.963
-9.53141 -16.9661 -4.33507 531.133 416.723
-6.70345 -16.4849 -5.45965 542.61 419.806
3.86975 -17.1468 -5.31929 586.221 422.64
6.30574 -17.9465 -4.12475 596.451 421.012
8.86521 -18.2746 -2.77716 606.925 421.423
11.4336 -18.0761 -1.26929 617.146 424.038
13.7604 -17.0316 0.559808 625.905 430.083
-0.463605 -11.2691 -4.87721 565.418 444.528
-0.115339 -8.029 -7.87454 565.572 457.005
0.21937 -4.79943 -10.8662 565.676 469.433
0.538438 -1.57486 -13.5697 565.681 481.923
-3.03905 1.00742 -6.50802 548.808 492.812
-1.13751 1.42717 -7.38552 556.491 495.241
0.827824 1.54684 -8.14975 564.575 496.512
2.59515 1.16019 -7.31429 571.902 496.112
4.2394 0.454618 -6.59004 578.902 494.311
-12.8919 -9.80565 -0.785199 513.258 445.324
-11.1463 -11.0217 -0.997404 521.054 441.199
-8.97776 -11.2792 -1.23612 530.095 441.2
-7.07365 -10.3864 -1.14469 537.423 445.863
-8.95858 -9.72605 -1.11672 529.365 447.589
-10.9587 -9.51593 -1.07 521.062 447.422
4.54828 -11.0311 -0.740692 585.286 449.394
6.23217 -12.2237 -1.14706 592.843 445.272
8.38474 -12.4411 -0.948671 601.742 445.565
10.3197 -11.5558 -0.646992 609.173 450.279
8.5174 -10.8588 -0.85426 601.464 452.124
6.5158 -10.7546 -0.757581 593.203 451.54
-7.77005 8.10537 -2.65557 525.315 520.541
-5.34692 6.30661 -4.80775 536.432 513.783
-2.36845 5.14778 -6.48073 549.434 510.076
0.872831 5.13541 -8.32065 562.947 511.136
3.97932 4.7189 -6.3743 575.63 511.656
6.97157 5.42956 -4.70919 587.304 516.632
9.42575 6.94079 -2.4833 596.295 524.772
7.55381 9.65332 -3.9717 587.435 534.412
4.7194 11.5273 -5.11488 575.019 540.235
1.27785 12.2056 -6.5036 560.759 540.784
-2.22675 11.9158 -5.15754 546.385 538.2
-5.31669 10.436 -3.95386 534.335 530.927
-2.84173 6.99785 -5.33798 546.404 517.742
0.994481 6.79848 -7.62492 562.506 518.207
4.6851 6.52252 -5.16078 577.442 519.766
5.03093 8.92993 -4.48948 577.541 529.986
1.20628 9.79061 -6.20265 561.662 530.979
-2.76903 9.43315 -4.52125 545.352 527.979
3 20 21 23
3 21 22 23
3 0 1 36
3 15 16 45
3 0 17 36
3 16 26 45
3 17 18 37
3 25 26 44
3 17 36 37
3 26 44 45
3 18 19 38
3 24 25 43
3 18 37 38
3 25 43 44
3 19 20 38
3 23 24 43
3 20 21 39
3 22 23 42
3 20 38 39
3 23 42 43
3 21 22 27
3 21 27 39
3 22 27 42
3 27 28 42
3 27 28 39
3 28 42 47
3 28 39 40
3 1 36 41
3 15 45 46
3 1 2 41
3 14 15 46
3 28 29 40
3 28 29 47
3 2 40 41
3 14 46 47
3 2 29 40
3 14 29 47
3 2 3 29
3 13 14 29
3 29 30 31
3 29 30 35
3 3 29 31
3 13 29 35
3 30 32 33
3 30 33 34
3 30 31 32
3 30 34 35
3 3 4 31
3 12 13 35
3 4 5 48
3 11 12 54
3 5 6 48
3 10 11 54
3 6 48 59
3 10 54 55
3 6 7 59
3 9 10 55
3 7 58 59
3 9 55 56
3 8 57 58
3 8 56 57
3 7 8 58
3 8 9 56
3 4 31 48
3 12 35 54
3 31 48 49
3 35 53 54
3 31 49 50
3 35 52 53
3 31 32 50
3 34 35 52
3 32 33 50
3 33 34 52
3 33 50 51
3 33 51 52
3 48 49 60
3 49 60 50
3 50 60 61
3 50 51 61
3 51 52 61
3 61 62 52
3 52 53 62
3 53 54 62
3 54 55 63
3 55 56 63
3 56 63 64
3 56 57 64
3 64 65 57
3 57 58 65
3 58 59 65
3 48 59 65
