ply
format ascii 1.0
element vertex 66
property float x
property float y
property float z
property float u
property float v
element face 91
property list uchar int vertex_indices
end_header
-21.0039 -5.67403 21.6193 485.926 466.123
-20.1153 -0.513729 21.0312 486.735 486.502
-18.9644 4.61965 20.6513 488.56 506.926
-17.5977 9.61602 18.5731 491.391 526.822
-15.6611 14.1419 13.4875 496.848 545
-12.5414 17.7704 8.01903 507.365 560.294
-8.57311 20.5139 3.44421 521.568 572.662
-4.11924 22.3877 -0.85645 538.081 581.935
0.73754 22.7914 -4.53298 556.875 585.77
5.85712 21.9072 -0.776362 576.91 585.237
10.2371 19.2445 3.52682 594.97 577.48
13.9563 15.7505 8.00564 610.892 566.177
16.97 11.69 13.36 624.327 552.374
18.8494 7.13152 18.3604 633.652 536.037
19.7754 2.34181 20.541 639.575 518.132
20.1854 -2.52589 20.8833 643.652 499.54
20.1638 -7.40688 21.2605 646.064 480.676
-18.0053 -13.9841 0.231945 503.074 434.161
-15.8146 -16.0391 -1.58159 512.715 427.229
-12.9575 -17.094 -2.99149 524.393 424.535
-9.89833 -17.244 -4.30017 536.379 425.452
-6.83974 -16.8067 -5.36466 548.046 428.656
4.21472 -17.3766 -5.36805 591.095 432.165
6.74034 -18.1634 -4.18438 601.199 430.503
9.39472 -18.4726 -2.83461 611.545 430.766
12.0542 -18.2095 -1.32674 621.607 433.255
14.427 -17.0161 0.536555 630.058 439.217
-0.247614 -11.5934 -4.81928 570.82 452.26
0.0321009 -8.1998 -7.89888 570.334 465.332
0.295142 -4.81658 -10.9389 569.785 478.357
0.538863 -1.42794 -13.5867 569.136 491.418
-2.73333 1.51759 -6.48688 554.541 501.575
-0.931234 1.91992 -7.43056 561.359 504.001
0.946437 2.03008 -8.26051 568.614 505.345
2.58814 1.71111 -7.31049 575.072 505.021
4.09844 1.07816 -6.52033 581.193 503.404
-12.8485 -9.97522 -0.834193 521.014 452.262
-11.1365 -11.2262 -1.04067 528.293 448.295
-8.98934 -11.5206 -1.15201 536.756 448.259
-7.07345 -10.5882 -1.05389 543.679 452.862
-8.93259 -9.882 -1.10633 536.127 454.629
-10.9253 -9.67288 -1.06028 528.31 454.41
4.97603 -11.247 -0.752883 590.605 456.561
6.63571 -12.4098 -1.06411 597.642 452.902
8.74042 -12.5829 -0.969218 605.866 453.326
10.5914 -11.6147 -0.700031 612.51 458.044
8.8277 -10.9306 -0.868866 605.345 459.768
6.86878 -10.8729 -0.805401 597.735 458.983
-6.83548 8.64109 -2.80969 534.783 527.241
-4.47117 7.09506 -5.03007 544.856 522.341
-1.85459 6.00108 -6.6773 555.638 519.356
0.917949 6.14574 -8.39702 566.388 521.238
3.54425 5.68397 -6.46953 576.67 520.934
6.10843 6.42083 -4.82113 586.11 525.215
8.35548 7.7586 -2.55013 593.977 531.696
6.40793 9.47112 -3.86246 585.638 537.228
3.8414 10.4373 -5.0077 575.281 539.564
1.08289 10.732 -6.49488 564.548 539.183
-1.68778 10.6735 -5.15097 553.783 537.611
-4.42359 10.0336 -3.88684 543.457 533.804
-1.67393 8.00786 -5.51681 555.233 527.285
1.05004 8.02 -7.42576 565.875 528.618
3.60591 7.76007 -5.19621 575.763 529.076
3.64371 7.85703 -4.49304 575.817 529.516
1.04574 8.045 -6.28489 565.778 528.785
-1.64519 8.14048 -4.67944 555.226 527.867
3 20 21 23
3 21 22 23
3 0 1 36
3 15 16 45
3 0 17 36
3 16 26 45
3 17 18 37
3 25 26 44
3 17 36 37
3 26 44 45
3 18 19 38
3 24 25 43
3 18 37 38
3 25 43 44
3 19 20 38
3 23 24 43
3 20 21 39
3 22 23 42
3 20 38 39
3 23 42 43
3 21 22 27
3 21 27 39
3 22 27 42
3 27 28 42
3 27 28 39
3 28 42 47
3 28 39 40
3 1 36 41
3 15 45 46
3 1 2 41
3 14 15 46
3 28 29 40
3 28 29 47
3 2 40 41
3 14 46 47
3 2 29 40
3 14 29 47
3 2 3 29
3 13 14 29
3 29 30 31
3 29 30 35
3 3 29 31
3 13 29 35
3 30 32 33
3 30 33 34
3 30 31 32
3 30 34 35
3 3 4 31
3 12 13 35
3 4 5 48
3 11 12 54
3 5 6 48
3 10 11 54
3 6 48 59
3 10 54 55
3 6 7 59
3 9 10 55
3 7 58 59
3 9 55 56
3 8 57 58
3 8 56 57
3 7 8 58
3 8 9 56
3 4 31 48
3 12 35 54
3 31 48 49
3 35 53 54
3 31 49 50
3 35 52 53
3 31 32 50
3 34 35 52
3 32 33 50
3 33 34 52
3 33 50 51
3 33 51 52
3 48 49 60
3 49 60 50
3 50 60 61
3 50 51 61
3 51 52 61
3 61 62 52
3 52 53 62
3 53 54 62
3 54 55 63
3 55 56 63
3 56 63 64
3 56 57 64
3 64 65 57
3 57 58 65
3 58 59 65
3 48 59 65
