ply
format ascii 1.0
element vertex 66
property float x
property float y
property float z
property float u
property float v
element face 91
property list uchar int vertex_indices
end_header
-21.1364 -5.74025 21.4942 476.91 462.702
-20.3081 -0.664707 20.8961 477.768 483.078
-19.1982 4.37968 20.5515 479.701 503.524
-17.7557 9.2912 18.487 483.384 523.276
-15.6664 13.764 13.4481 490.48 541.038
-12.4826 17.3929 7.98838 502.418 555.94
-8.51385 20.1686 3.40925 517.7 568.044
-4.10623 22.1742 -0.8468 535.034 577.392
0.730955 22.7456 -4.55775 554.67 581.396
5.82655 21.8806 -0.833642 574.459 581.32
10.2281 19.299 3.42196 592.25 574.205
14.0143 15.9013 7.90634 607.968 563.594
17.0896 11.874 13.2944 620.998 550.308
19.037 7.28497 18.2837 629.934 534.144
19.9944 2.45228 20.4817 635.673 515.959
20.3748 -2.44681 20.8372 639.559 496.852
20.3305 -7.35666 21.2374 641.76 477.494
-17.8631 -14.3133 0.244858 498.696 426.288
-15.6756 -16.3904 -1.53638 508.769 418.844
-12.7903 -17.4223 -2.94329 520.997 415.964
-9.70402 -17.4925 -4.26411 533.52 417.006
-6.64662 -16.9282 -5.34941 545.559 420.589
3.5411 -17.3399 -5.30292 586.044 424.187
6.1496 -18.3264 -4.09708 596.597 421.86
8.92534 -18.7632 -2.75358 607.505 421.819
11.7256 -18.5384 -1.27722 618.151 424.433
14.2141 -17.3047 0.522936 626.988 430.941
-0.318779 -11.2646 -4.8294 567.632 446.326
-0.00813123 -7.9921 -7.87281 567.87 458.824
0.286823 -4.72522 -10.8567 568.036 471.304
0.565957 -1.45598 -13.4705 568.059 483.858
-2.63908 1.31758 -6.37389 552.477 494.584
-0.890439 1.7424 -7.3508 559.388 496.967
0.939084 1.8576 -8.21304 566.749 498.189
2.57148 1.51849 -7.21311 573.161 497.881
4.05565 0.846597 -6.41066 579.196 496.143
-12.7297 -9.86296 -0.904972 517.01 446.287
-11.1145 -11.0432 -1.03044 524.016 442.423
-9.07144 -11.3355 -1.0963 532.256 442.3
-7.24804 -10.5173 -1.03625 539.044 446.481
-8.99519 -9.76778 -1.13225 531.78 448.531
-10.8931 -9.56038 -1.08606 524.16 448.388
5.08872 -11.1885 -0.671732 588.09 450.216
6.68637 -12.2531 -0.993142 595.01 446.761
8.70216 -12.3964 -0.94729 603.044 447.236
10.4742 -11.5152 -0.742269 609.566 451.668
8.78212 -10.839 -0.864215 602.561 453.451
6.90159 -10.7719 -0.783186 595.074 452.77
-6.29993 8.73623 -2.84523 533.525 522.74
-4.12071 7.2158 -5.02453 543.371 517.414
-1.673 6.09381 -6.6398 553.959 513.912
0.97784 6.23619 -8.38315 564.743 515.488
3.50316 5.7976 -6.42117 574.53 515.434
5.93141 6.59384 -4.82042 583.391 520.142
8.04595 7.90347 -2.61082 590.625 526.839
6.23766 9.62571 -3.95294 582.897 532.458
3.81244 10.6463 -5.06981 573.033 535.031
1.14416 10.9923 -6.56647 562.627 534.738
-1.51836 10.8678 -5.20897 551.871 533.15
-4.07669 10.15 -3.93903 541.842 529.252
-1.30311 8.05575 -5.43483 554.18 522.097
1.09237 8.05341 -7.38173 564.071 522.93
3.34663 7.84224 -5.16507 572.617 523.687
3.39167 8.10588 -4.53186 572.528 524.877
1.10164 8.36793 -6.21943 563.701 524.408
-1.26855 8.34185 -4.64856 554.005 523.401
3 20 21 23
3 21 22 23
3 0 1 36
3 15 16 45
3 0 17 36
3 16 26 45
3 17 18 37
3 25 26 44
3 17 36 37
3 26 44 45
3 18 19 38
3 24 25 43
3 18 37 38
3 25 43 44
3 19 20 38
3 23 24 43
3 20 21 39
3 22 23 42
3 20 38 39
3 23 42 43
3 21 22 27
3 21 27 39
3 22 27 42
3 27 28 42
3 27 28 39
3 28 42 47
3 28 39 40
3 1 36 41
3 15 45 46
3 1 2 41
3 14 15 46
3 28 29 40
3 28 29 47
3 2 40 41
3 14 46 47
3 2 29 40
3 14 29 47
3 2 3 29
3 13 14 29
3 29 30 31
3 29 30 35
3 3 29 31
3 13 29 35
3 30 32 33
3 30 33 34
3 30 31 32
3 30 34 35
3 3 4 31
3 12 13 35
3 4 5 48
3 11 12 54
3 5 6 48
3 10 11 54
3 6 48 59
3 10 54 55
3 6 7 59
3 9 10 55
3 7 58 59
3 9 55 56
3 8 57 58
3 8 56 57
3 7 8 58
3 8 9 56
3 4 31 48
3 12 35 54
3 31 48 49
3 35 53 54
3 31 49 50
3 35 52 53
3 31 32 50
3 34 35 52
3 32 33 50
3 33 34 52
3 33 50 51
3 33 51 52
3 48 49 60
3 49 60 50
3 50 60 61
3 50 51 61
3 51 52 61
3 61 62 52
3 52 53 62
3 53 54 62
3 54 55 63
3 55 56 63
3 56 63 64
3 56 57 64
3 64 65 57
3 57 58 65
3 58 59 65
3 48 59 65
