ply
format ascii 1.0
element vertex 66
property float x
property float y
property float z
property float u
property float v
element face 91
property list uchar int vertex_indices
end_header
-20.6968 -5.6181 21.4012 483.744 466.17
-19.8853 -0.575569 20.8373 484.144 486.251
-18.7841 4.4387 20.515 485.663 506.412
-17.3917 9.28648 18.5017 488.604 525.904
-15.4198 13.6953 13.5319 494.389 543.687
-12.409 17.376 8.07292 504.693 559.161
-8.57196 20.2801 3.44886 518.566 572.161
-4.19897 22.3723 -0.815804 534.945 582.334
0.68408 22.9028 -4.50323 554.128 586.761
5.8529 22.1417 -0.823637 574.319 587.11
10.2814 19.5858 3.44549 592.56 580.098
14.0211 16.1598 7.98242 608.571 569.33
16.9767 12.1104 13.387 621.772 555.78
18.7542 7.48263 18.4303 630.74 539.268
19.6189 2.51292 20.5524 636.667 520.587
19.9863 -2.57195 20.957 640.911 500.988
19.9462 -7.66719 21.3477 643.572 481.118
-17.6675 -14.0757 0.230151 502.716 432.559
-15.5501 -16.0993 -1.55051 512.321 425.661
-12.7692 -17.1105 -2.97294 523.906 423.13
-9.80402 -17.2465 -4.32223 535.712 424.126
-6.86263 -16.8066 -5.44076 547.074 427.383
3.85893 -17.4947 -5.35241 589.308 430.761
6.45983 -18.3838 -4.14698 599.825 428.891
9.20623 -18.7493 -2.78845 610.599 429.163
11.9664 -18.4494 -1.30203 621.038 432.054
14.3952 -17.1401 0.528677 629.578 438.736
-0.472351 -11.7712 -4.86845 569.129 450.711
-0.121755 -8.44531 -7.88268 568.971 463.564
0.215968 -5.13045 -10.8566 568.765 476.371
0.535316 -1.81031 -13.4788 568.443 489.227
-2.65189 1.30102 -6.39362 553.451 500.344
-0.929635 1.6464 -7.3667 560.091 502.559
0.861513 1.71123 -8.20372 567.142 503.732
2.47713 1.40566 -7.2716 573.516 503.553
3.96619 0.798365 -6.4942 579.582 502.108
-12.8103 -9.89595 -0.904042 519.46 451.495
-11.0945 -11.1828 -1.03229 526.895 447.427
-8.91561 -11.4839 -1.11132 535.58 447.473
-6.98078 -10.6024 -1.07851 542.635 452.011
-8.84114 -9.83488 -1.16419 534.951 453.947
-10.8619 -9.58378 -1.09719 526.913 453.793
4.69963 -11.3376 -0.641446 588.599 455.785
6.40448 -12.5533 -1.01374 595.98 451.961
8.58057 -12.7326 -0.973986 604.572 452.494
10.5111 -11.7974 -0.780611 611.561 457.257
8.70378 -11.057 -0.872303 604.1 459.116
6.67233 -10.9719 -0.781058 596.111 458.311
-6.15595 8.91484 -2.81722 535.09 528.477
-4.04088 7.31985 -4.97595 544.488 523.21
-1.64971 6.13853 -6.63556 554.674 519.768
0.955616 6.23941 -8.41844 564.99 521.439
3.44133 5.81505 -6.51571 574.718 521.393
5.84308 6.6559 -4.85056 583.434 526.213
7.94193 8.0001 -2.57749 590.615 532.894
6.14089 9.70347 -3.96828 582.785 538.374
3.75334 10.7326 -5.13668 573.018 540.916
1.09507 11.07 -6.56056 562.612 540.577
-1.52472 10.9819 -5.20807 552.28 538.901
-4.01176 10.2848 -3.90714 542.815 534.917
-1.51367 8.10174 -5.38333 553.961 527.645
1.05206 7.99426 -7.38793 564.265 528.456
3.47517 7.83036 -5.19961 573.569 529.423
3.5064 8.20806 -4.55062 573.405 530.986
1.04466 8.47985 -6.19725 563.828 530.477
-1.49326 8.50175 -4.59342 553.727 529.304
3 20 21 23
3 21 22 23
3 0 1 36
3 15 16 45
3 0 17 36
3 16 26 45
3 17 18 37
3 25 26 44
3 17 36 37
3 26 44 45
3 18 19 38
3 24 25 43
3 18 37 38
3 25 43 44
3 19 20 38
3 23 24 43
3 20 21 39
3 22 23 42
3 20 38 39
3 23 42 43
3 21 22 27
3 21 27 39
3 22 27 42
3 27 28 42
3 27 28 39
3 28 42 47
3 28 39 40
3 1 36 41
3 15 45 46
3 1 2 41
3 14 15 46
3 28 29 40
3 28 29 47
3 2 40 41
3 14 46 47
3 2 29 40
3 14 29 47
3 2 3 29
3 13 14 29
3 29 30 31
3 29 30 35
3 3 29 31
3 13 29 35
3 30 32 33
3 30 33 34
3 30 31 32
3 30 34 35
3 3 4 31
3 12 13 35
3 4 5 48
3 11 12 54
3 5 6 48
3 10 11 54
3 6 48 59
3 10 54 55
3 6 7 59
3 9 10 55
3 7 58 59
3 9 55 56
3 8 57 58
3 8 56 57
3 7 8 58
3 8 9 56
3 4 31 48
3 12 35 54
3 31 48 49
3 35 53 54
3 31 49 50
3 35 52 53
3 31 32 50
3 34 35 52
3 32 33 50
3 33 34 52
3 33 50 51
3 33 51 52
3 48 49 60
3 49 60 50
3 50 60 61
3 50 51 61
3 51 52 61
3 61 62 52
3 52 53 62
3 53 54 62
3 54 55 63
3 55 56 63
3 56 63 64
3 56 57 64
3 64 65 57
3 57 58 65
3 58 59 65
3 48 59 65
