ply
format ascii 1.0
element vertex 66
property float x
property float y
property float z
property float u
property float v
element face 91
property list uchar int vertex_indices
end_header
-20.9558 -5.45198 21.5474 485.999 466.068
-20.106 -0.359182 20.9652 486.735 486.22
-18.9913 4.70679 20.6083 488.494 506.406
-17.643 9.62121 18.5314 491.352 526.102
-15.7084 14.0796 13.4879 496.911 544.29
-12.6211 17.7011 8.00566 507.391 559.82
-8.68341 20.4718 3.43546 521.536 572.499
-4.24189 22.3963 -0.868069 538.046 582.161
0.63101 22.8403 -4.56431 556.94 586.316
5.86513 22.0681 -0.746865 577.348 586.044
10.3875 19.5049 3.53929 595.88 578.478
14.2003 16.0233 8.01756 612.12 566.995
17.1892 11.894 13.4169 625.437 552.596
18.9415 7.2065 18.4566 634.273 535.399
19.7818 2.2332 20.5924 639.918 516.593
20.1468 -2.83464 20.9548 643.89 497.154
20.093 -7.90917 21.3517 646.24 477.476
-17.8576 -13.981 0.239072 503.775 434.331
-15.6779 -16.0004 -1.56569 513.367 427.597
-12.8551 -17.0126 -2.97212 524.91 425.097
-9.84741 -17.1498 -4.28799 536.717 426.081
-6.85287 -16.7169 -5.37261 548.166 429.27
4.09823 -17.3375 -5.39517 590.896 432.449
6.71312 -18.1545 -4.21228 601.36 430.634
9.45622 -18.4678 -2.86875 612.053 430.836
12.1972 -18.1314 -1.37372 622.396 433.557
14.6117 -16.8185 0.487747 630.953 439.898
-0.342042 -11.6351 -4.82541 570.755 452.281
-0.0187957 -8.29601 -7.88131 570.511 465.339
0.286787 -4.96749 -10.9019 570.202 478.347
0.570688 -1.63181 -13.546 569.779 491.378
-2.72856 1.49561 -6.47585 554.933 501.902
-0.936252 1.90012 -7.41234 561.731 504.371
0.933911 2.00224 -8.22561 568.977 505.709
2.59122 1.67633 -7.30014 575.499 505.304
4.113 1.02965 -6.52516 581.67 503.585
-12.7761 -9.89832 -0.837241 521.448 452.721
-11.0824 -11.0921 -1.04274 528.629 448.958
-8.98616 -11.381 -1.14607 536.902 448.906
-7.09172 -10.5471 -1.0841 543.809 453.103
-8.91725 -9.85666 -1.123 536.39 454.846
-10.8762 -9.63718 -1.06208 528.688 454.698
4.94667 -11.2266 -0.7393 590.755 456.613
6.61717 -12.3276 -1.08007 597.809 453.196
8.68958 -12.481 -1.02236 605.909 453.659
10.5364 -11.5898 -0.777883 612.591 458.056
8.77495 -10.9528 -0.902705 605.453 459.623
6.83273 -10.8911 -0.8212 597.894 458.873
-6.7453 8.61622 -2.82148 535.503 527.483
-4.42257 7.04235 -5.00381 545.447 522.543
-1.84047 5.9445 -6.65393 556.118 519.585
0.899371 6.07664 -8.37571 566.777 521.471
3.51297 5.63754 -6.49568 576.997 521.128
6.06424 6.4004 -4.827 586.377 525.405
8.31105 7.74188 -2.53672 594.241 531.777
6.32088 9.41639 -3.84506 585.768 537.231
3.75158 10.3513 -5.02336 575.42 539.527
1.00012 10.6218 -6.51309 564.726 539.152
-1.72483 10.5772 -5.1547 554.104 537.608
-4.39796 9.96363 -3.8595 543.977 533.886
-1.70183 7.94876 -5.48212 555.555 527.434
0.999808 7.93323 -7.40843 566.155 528.726
3.54271 7.70831 -5.20959 575.97 529.18
3.55849 7.82432 -4.50777 575.925 529.647
0.968062 7.98751 -6.30337 565.93 528.935
-1.70022 8.09431 -4.65588 555.431 528.01
3 20 21 23
3 21 22 23
3 0 1 36
3 15 16 45
3 0 17 36
3 16 26 45
3 17 18 37
3 25 26 44
3 17 36 37
3 26 44 45
3 18 19 38
3 24 25 43
3 18 37 38
3 25 43 44
3 19 20 38
3 23 24 43
3 20 21 39
3 22 23 42
3 20 38 39
3 23 42 43
3 21 22 27
3 21 27 39
3 22 27 42
3 27 28 42
3 27 28 39
3 28 42 47
3 28 39 40
3 1 36 41
3 15 45 46
3 1 2 41
3 14 15 46
3 28 29 40
3 28 29 47
3 2 40 41
3 14 46 47
3 2 29 40
3 14 29 47
3 2 3 29
3 13 14 29
3 29 30 31
3 29 30 35
3 3 29 31
3 13 29 35
3 30 32 33
3 30 33 34
3 30 31 32
3 30 34 35
3 3 4 31
3 12 13 35
3 4 5 48
3 11 12 54
3 5 6 48
3 10 11 54
3 6 48 59
3 10 54 55
3 6 7 59
3 9 10 55
3 7 58 59
3 9 55 56
3 8 57 58
3 8 56 57
3 7 8 58
3 8 9 56
3 4 31 48
3 12 35 54
3 31 48 49
3 35 53 54
3 31 49 50
3 35 52 53
3 31 32 50
3 34 35 52
3 32 33 50
3 33 34 52
3 33 50 51
3 33 51 52
3 48 49 60
3 49 60 50
3 50 60 61
3 50 51 61
3 51 52 61
3 61 62 52
3 52 53 62
3 53 54 62
3 54 55 63
3 55 56 63
3 56 63 64
3 56 57 64
3 64 65 57
3 57 58 65
3 58 59 65
3 48 59 65
