ply
format ascii 1.0
element vertex 66
property float x
property float y
property float z
property float u
property float v
element face 91
property list uchar int vertex_indices
end_header
-20.6216 -5.8494 20.9954 478.511 463.405
-19.8664 -0.881793 20.406 478.777 483.479
-18.7202 4.04231 20.1722 480.555 503.689
-17.0418 8.79588 18.4597 484.844 523.202
-14.7789 13.1546 13.3906 492.356 540.733
-11.8495 17.0602 8.01674 502.843 556.784
-8.24558 20.4162 3.46025 516.17 571.227
-4.02569 23.0049 -0.709872 532.313 583.065
0.884598 23.8422 -4.51195 552.139 588.422
5.96152 22.891 -0.839983 572.168 588.436
10.1464 20.0847 3.34247 589.611 580.661
13.616 16.46 7.81817 604.619 569.276
16.4458 12.3366 13.1796 617.189 555.732
18.413 7.70982 18.39 626.645 539.645
19.5142 2.694 20.2604 633.542 520.753
19.9554 -2.4245 20.6641 638.163 500.738
19.9406 -7.55469 21.1124 640.966 480.419
-17.2728 -14.3758 0.223305 500.888 426.788
-15.3672 -16.6782 -1.59582 510.163 418.337
-12.5989 -17.8461 -2.95551 522.127 415.008
-9.58209 -17.9204 -4.32935 534.455 416.172
-6.61958 -17.2968 -5.48127 546.121 420.132
3.15378 -17.9309 -5.22109 585.346 423.395
5.86061 -19.1087 -4.00555 596.559 420.568
8.765 -19.6129 -2.65122 608.143 420.568
11.6655 -19.1734 -1.27407 619.164 424.325
14.0484 -17.5274 0.556623 627.34 432.681
-0.66324 -11.7137 -4.85831 566.5 445.975
-0.305009 -8.61146 -7.87931 566.743 457.85
0.0491814 -5.49821 -10.6595 566.917 469.821
0.393754 -2.37773 -13.0251 566.965 481.908
-2.30282 0.743854 -6.11073 553.055 494.296
-0.851945 1.07176 -7.13865 558.848 496.221
0.680755 1.11965 -8.04618 565.103 497.106
2.12463 0.831456 -7.01053 570.812 497.038
3.40718 0.244367 -6.20305 576.095 495.635
-12.3322 -9.93782 -1.28098 518.306 447.003
-10.8155 -11.0356 -1.09012 524.938 443.567
-8.85817 -11.4448 -0.880887 532.925 443.133
-7.05397 -11.0008 -0.92382 539.861 445.947
-8.67973 -10.0604 -1.20671 532.904 448.673
-10.5296 -9.74228 -1.16749 525.348 448.863
4.67613 -11.8178 -0.385259 586.927 449.693
6.3291 -12.6392 -0.715619 594.047 447.32
8.32987 -12.6732 -0.952192 602.079 448.304
10.0873 -11.9408 -1.05282 608.675 452.225
8.38471 -11.3127 -0.850211 601.495 453.772
6.48552 -11.2741 -0.72992 593.887 452.839
-3.15776 9.67047 -2.84816 543.865 530.042
-2.20656 7.92203 -5.04008 549.095 523.152
-0.841823 6.41036 -6.6252 555.714 517.582
0.984183 6.53428 -8.42806 563.273 518.741
2.73568 6.16217 -6.5045 570.077 518.718
4.22172 7.44882 -4.94792 574.943 525.057
5.29118 9.04538 -2.67651 577.83 532.545
4.3656 10.4029 -4.07973 573.644 537.089
3.00039 11.3734 -5.33395 567.9 539.869
1.19625 11.7939 -6.86893 560.78 540.141
-0.547088 11.5482 -5.37593 553.683 538.476
-1.98419 10.7985 -3.9574 548.11 534.969
0.262102 8.52157 -5.07452 558.586 526.976
1.08713 8.32721 -7.02284 562.371 526.25
1.84258 8.43475 -4.98472 564.911 527.577
1.76687 8.64662 -4.5332 564.398 528.477
1.09041 8.98998 -5.9334 561.786 529.133
0.361532 8.72797 -4.4697 558.743 527.991
3 20 21 23
3 21 22 23
3 0 1 36
3 15 16 45
3 0 17 36
3 16 26 45
3 17 18 37
3 25 26 44
3 17 36 37
3 26 44 45
3 18 19 38
3 24 25 43
3 18 37 38
3 25 43 44
3 19 20 38
3 23 24 43
3 20 21 39
3 22 23 42
3 20 38 39
3 23 42 43
3 21 22 27
3 21 27 39
3 22 27 42
3 27 28 42
3 27 28 39
3 28 42 47
3 28 39 40
3 1 36 41
3 15 45 46
3 1 2 41
3 14 15 46
3 28 29 40
3 28 29 47
3 2 40 41
3 14 46 47
3 2 29 40
3 14 29 47
3 2 3 29
3 13 14 29
3 29 30 31
3 29 30 35
3 3 29 31
3 13 29 35
3 30 32 33
3 30 33 34
3 30 31 32
3 30 34 35
3 3 4 31
3 12 13 35
3 4 5 48
3 11 12 54
3 5 6 48
3 10 11 54
3 6 48 59
3 10 54 55
3 6 7 59
3 9 10 55
3 7 58 59
3 9 55 56
3 8 57 58
3 8 56 57
3 7 8 58
3 8 9 56
3 4 31 48
3 12 35 54
3 31 48 49
3 35 53 54
3 31 49 50
3 35 52 53
3 31 32 50
3 34 35 52
3 32 33 50
3 33 34 52
3 33 50 51
3 33 51 52
3 48 49 60
3 49 60 50
3 50 60 61
3 50 51 61
3 51 52 61
3 61 62 52
3 52 53 62
3 53 54 62
3 54 55 63
3 55 56 63
3 56 63 64
3 56 57 64
3 64 65 57
3 57 58 65
3 58 59 65
3 48 59 65
