ply
format ascii 1.0
element vertex 66
property float x
property float y
property float z
property float u
property float v
element face 91
property list uchar int vertex_indices
end_header
-20.6525 -5.94772 21.7112 478.204 466.199
-19.7319 -0.684598 21.1226 480.329 487.329
-18.5745 4.54849 20.6975 483.365 508.447
-17.239 9.62399 18.5875 487.565 528.707
-15.3794 14.1871 13.5148 494.724 546.596
-12.3293 17.8213 7.98484 507.02 561.103
-8.39569 20.5466 3.32484 522.906 572.436
-3.98764 22.4377 -0.929947 540.846 580.678
0.842437 22.8362 -4.58096 560.792 583.226
5.92745 21.9159 -0.78127 580.376 581.889
10.226 19.171 3.45311 597.31 573.113
13.8046 15.6035 7.99265 611.573 560.881
16.6667 11.5202 13.3597 622.953 546.503
18.4739 7.03865 18.29 630.373 530.121
19.3517 2.36839 20.4513 634.827 512.209
19.7263 -2.3846 20.7519 637.756 493.483
19.6811 -7.14722 21.1358 638.999 474.595
-18.1384 -14.5671 0.296663 496.097 429.085
-15.9346 -16.6456 -1.46513 505.94 421.243
-13.0289 -17.6138 -2.88679 518.137 418.105
-9.95459 -17.6139 -4.23885 530.679 418.884
-6.91584 -17.0017 -5.34234 542.826 422.129
4.38938 -17.4488 -5.38826 587.903 424.061
6.80816 -18.2618 -4.16885 597.479 421.833
9.37439 -18.61 -2.79604 607.457 421.527
11.9591 -18.3659 -1.28704 617.287 423.606
14.2096 -17.1111 0.59884 625.376 429.659
-0.096563 -11.11 -4.82276 567.923 447.889
0.166911 -7.87296 -7.92197 568.686 460.317
0.405976 -4.6419 -10.9367 569.334 472.728
0.623484 -1.40325 -13.5461 569.796 485.231
-2.55058 1.3375 -6.41329 554.593 496.307
-0.781599 1.73943 -7.41486 561.736 498.316
1.06137 1.85923 -8.2856 569.231 499.249
2.61996 1.5592 -7.26983 575.275 498.742
4.04182 0.952092 -6.40699 580.91 496.944
-13.2123 -10.2734 -0.786231 514.566 447.593
-11.537 -11.7068 -0.958585 521.721 442.415
-9.31391 -11.9669 -1.11904 530.676 442.084
-7.46769 -10.7004 -1.01464 537.584 447.746
-9.30086 -9.81775 -1.10842 530.042 450.636
-11.3308 -9.67178 -1.02287 521.908 450.564
5.13299 -11.2219 -0.758635 587.76 449.86
6.67367 -12.6321 -1.06837 594.406 444.706
8.82213 -12.837 -0.936778 602.977 444.62
10.6156 -11.6396 -0.69199 609.664 450.013
8.94256 -10.7069 -0.872037 602.762 453.141
6.98104 -10.6353 -0.845396 594.938 452.785
-6.33315 8.72225 -2.84259 536.351 525.04
-4.06513 7.26226 -5.08986 546.37 519.595
-1.62206 6.16488 -6.74728 556.826 515.751
0.972184 6.32213 -8.51767 567.512 516.927
3.40527 5.90418 -6.48801 576.824 516.412
5.7734 6.68111 -4.84672 585.592 520.562
7.86175 8.00013 -2.58001 592.925 526.881
6.17899 9.77153 -3.89107 585.99 533.148
3.80905 10.798 -5.05624 576.526 536.251
1.18637 11.118 -6.58792 566.372 536.398
-1.49653 10.9794 -5.25236 555.433 535.193
-4.08132 10.2102 -3.99722 545.104 531.499
-1.25674 8.09099 -5.5219 557.37 523.74
1.1133 8.11473 -7.46044 567.247 524.282
3.31372 7.93498 -5.10953 575.482 524.694
3.40905 8.23179 -4.41695 575.599 526.024
1.16076 8.44539 -6.11643 567.007 525.843
-1.19859 8.42321 -4.68425 557.293 525.224
3 20 21 23
3 21 22 23
3 0 1 36
3 15 16 45
3 0 17 36
3 16 26 45
3 17 18 37
3 25 26 44
3 17 36 37
3 26 44 45
3 18 19 38
3 24 25 43
3 18 37 38
3 25 43 44
3 19 20 38
3 23 24 43
3 20 21 39
3 22 23 42
3 20 38 39
3 23 42 43
3 21 22 27
3 21 27 39
3 22 27 42
3 27 28 42
3 27 28 39
3 28 42 47
3 28 39 40
3 1 36 41
3 15 45 46
3 1 2 41
3 14 15 46
3 28 29 40
3 28 29 47
3 2 40 41
3 14 46 47
3 2 29 40
3 14 29 47
3 2 3 29
3 13 14 29
3 29 30 31
3 29 30 35
3 3 29 31
3 13 29 35
3 30 32 33
3 30 33 34
3 30 31 32
3 30 34 35
3 3 4 31
3 12 13 35
3 4 5 48
3 11 12 54
3 5 6 48
3 10 11 54
3 6 48 59
3 10 54 55
3 6 7 59
3 9 10 55
3 7 58 59
3 9 55 56
3 8 57 58
3 8 56 57
3 7 8 58
3 8 9 56
3 4 31 48
3 12 35 54
3 31 48 49
3 35 53 54
3 31 49 50
3 35 52 53
3 31 32 50
3 34 35 52
3 32 33 50
3 33 34 52
3 33 50 51
3 33 51 52
3 48 49 60
3 49 60 50
3 50 60 61
3 50 51 61
3 51 52 61
3 61 62 52
3 52 53 62
3 53 54 62
3 54 55 63
3 55 56 63
3 56 63 64
3 56 57 64
3 64 65 57
3 57 58 65
3 58 59 65
3 48 59 65
