ply
format ascii 1.0
element vertex 66
property float x
property float y
property float z
property float u
property float v
element face 91
property list uchar int vertex_indices
end_header
-20.9925 -6.56721 21.4814 482.385 468.119
-20.1827 -1.15908 20.805 483.393 488.775
-19.0549 4.21785 20.3796 485.58 509.534
-17.5067 9.42809 18.4981 489.706 529.338
-15.3632 14.0986 13.4156 496.913 546.243
-12.2403 17.9267 7.95375 508.268 560.232
-8.3444 20.9445 3.25747 522.757 571.732
-3.93807 23.1414 -0.885664 539.424 580.519
1.00652 23.7785 -4.62854 558.705 583.746
6.07084 22.5647 -0.8263 577.801 582.581
10.1893 19.5008 3.32151 593.981 574.106
13.6081 15.7224 7.88763 607.708 562.764
16.5187 11.5675 13.1841 619.516 550.028
18.6827 7.0902 18.0633 628.687 535.608
19.8244 2.41873 20.0905 634.568 519.039
20.2014 -2.32148 20.3975 637.88 501.294
20.086 -7.06581 20.8332 639.293 483.371
-17.3149 -14.6583 0.131928 503.65 431.605
-15.0507 -16.8433 -1.5576 513.483 423.681
-12.0663 -17.9655 -2.89527 525.564 420.22
-8.85739 -17.9905 -4.21266 538.05 421.03
-5.70132 -17.2401 -5.33816 549.983 424.829
2.81122 -17.3219 -5.29164 582.456 428.133
5.311 -18.3497 -4.03446 592.171 425.717
8.02008 -18.7585 -2.69552 602.416 425.769
10.7438 -18.4869 -1.29022 612.428 428.435
13.1567 -17.2386 0.457886 620.794 434.798
-0.176475 -11.3999 -4.79394 568.562 449.54
0.0443041 -8.19571 -7.8565 568.664 460.755
0.245386 -4.98684 -10.7542 568.659 472.036
0.436202 -1.77494 -13.2886 568.546 483.449
-2.57722 0.877033 -6.36496 554.698 494.627
-0.866658 1.36138 -7.22873 561.181 496.894
0.943739 1.50443 -7.99119 568.165 497.941
2.51224 1.17624 -7.03064 574.1 497.688
3.89672 0.480862 -6.33122 579.531 495.871
-12.6476 -10.002 -1.07444 519.766 450.854
-10.9016 -10.8874 -1.0536 526.779 448.236
-8.87317 -11.2315 -1.02449 534.646 447.796
-6.97729 -10.737 -0.97034 541.661 450.495
-8.82117 -10.1326 -1.14575 534.418 451.952
-10.7542 -9.9242 -1.12232 526.961 451.934
4.76949 -11.2085 -0.723818 586.584 453.755
6.46376 -11.8432 -0.922591 593.338 451.992
8.42664 -11.9246 -0.926542 600.854 452.511
10.2143 -11.2856 -0.821177 607.388 455.731
8.45241 -10.871 -0.880344 600.514 456.541
6.57871 -10.876 -0.833212 593.365 455.746
-5.21182 8.61743 -2.75264 540.833 524.161
-3.66225 6.76458 -4.98069 547.907 517.012
-1.54916 5.38683 -6.58048 556.819 512.122
0.948085 5.40946 -8.38386 566.662 512.644
3.32538 5.11875 -6.21305 575.441 513.29
5.43081 6.19132 -4.66977 582.744 518.785
6.90944 7.97941 -2.52612 587.255 526.94
5.82893 10.1204 -3.91733 582.521 534.139
3.9525 11.6984 -5.07128 574.939 538.945
1.39883 12.2713 -6.74625 565.281 539.467
-1.25398 11.91 -5.3097 555.051 537.465
-3.46124 10.5561 -4.01537 546.949 531.833
-1.07786 7.45348 -5.21072 557.52 520.643
1.12604 7.25464 -7.26857 566.383 520.113
3.22647 7.27603 -4.78621 573.921 521.934
3.45193 8.85841 -4.29888 574.046 528.209
1.33806 9.51101 -6.06497 566.049 529.188
-0.921165 9.07046 -4.56784 557.339 527.073
3 20 21 23
3 21 22 23
3 0 1 36
3 15 16 45
3 0 17 36
3 16 26 45
3 17 18 37
3 25 26 44
3 17 36 37
3 26 44 45
3 18 19 38
3 24 25 43
3 18 37 38
3 25 43 44
3 19 20 38
3 23 24 43
3 20 21 39
3 22 23 42
3 20 38 39
3 23 42 43
3 21 22 27
3 21 27 39
3 22 27 42
3 27 28 42
3 27 28 39
3 28 42 47
3 28 39 40
3 1 36 41
3 15 45 46
3 1 2 41
3 14 15 46
3 28 29 40
3 28 29 47
3 2 40 41
3 14 46 47
3 2 29 40
3 14 29 47
3 2 3 29
3 13 14 29
3 29 30 31
3 29 30 35
3 3 29 31
3 13 29 35
3 30 32 33
3 30 33 34
3 30 31 32
3 30 34 35
3 3 4 31
3 12 13 35
3 4 5 48
3 11 12 54
3 5 6 48
3 10 11 54
3 6 48 59
3 10 54 55
3 6 7 59
3 9 10 55
3 7 58 59
3 9 55 56
3 8 57 58
3 8 56 57
3 7 8 58
3 8 9 56
3 4 31 48
3 12 35 54
3 31 48 49
3 35 53 54
3 31 49 50
3 35 52 53
3 31 32 50
3 34 35 52
3 32 33 50
3 33 34 52
3 33 50 51
3 33 51 52
3 48 49 60
3 49 60 50
3 50 60 61
3 50 51 61
3 51 52 61
3 61 62 52
3 52 53 62
3 53 54 62
3 54 55 63
3 55 56 63
3 56 63 64
3 56 57 64
3 64 65 57
3 57 58 65
3 58 59 65
3 48 59 65
