ply
format ascii 1.0
element vertex 66
property float x
property float y
property float z
property float u
property float v
element face 91
property list uchar int vertex_indices
end_header
-21.0116 -5.8414 21.7332 477.96 465.988
-20.071 -0.689387 21.1616 479.561 486.449
-18.8929 4.43133 20.7485 482.082 506.924
-17.5364 9.43359 18.5636 485.63 526.63
-15.6011 13.9862 13.5417 492.083 544.213
-12.4407 17.5861 8.02565 503.819 558.486
-8.43462 20.2586 3.40338 519.121 569.683
-4.01044 22.1247 -0.908649 536.354 577.969
0.792518 22.5749 -4.53201 555.563 581.021
5.84489 21.7105 -0.843654 575.155 580.605
10.2293 19.1255 3.44294 592.762 573.291
13.9726 15.7107 7.95487 608.171 562.5
17.0064 11.6957 13.3411 620.914 549.241
18.8608 7.17424 18.2795 629.318 533.393
19.7272 2.48323 20.5357 634.342 515.879
20.117 -2.25716 20.8856 637.817 497.556
20.0998 -7.01362 21.2745 639.698 479.003
-18.2484 -14.3055 0.257479 495.742 429.404
-15.9532 -16.3346 -1.4994 505.874 422.067
-12.9909 -17.3126 -2.93883 518.126 419.202
-9.85109 -17.365 -4.26867 530.666 420.063
-6.73163 -16.8148 -5.34482 542.832 423.329
4.17655 -17.3519 -5.33492 585.821 425.925
6.65648 -18.165 -4.14115 595.699 424.065
9.27317 -18.52 -2.79621 605.896 424.092
11.9128 -18.3519 -1.27282 615.934 426.214
14.2913 -17.248 0.597114 624.498 431.965
-0.111069 -11.1816 -4.80329 566.322 448.36
0.200263 -7.82534 -7.89499 566.611 460.974
0.489467 -4.48096 -10.9784 566.816 473.533
0.753077 -1.13383 -13.6888 566.862 486.173
-2.69571 1.61118 -6.50734 551.053 496.985
-0.818489 2.06455 -7.47571 558.373 499.361
1.1378 2.20501 -8.31891 566.116 500.572
2.80462 1.85584 -7.34267 572.644 500.132
4.33041 1.1701 -6.5206 578.786 498.281
-13.1984 -10.0181 -0.68304 513.877 448.168
-11.533 -11.4417 -0.974711 521.053 443.247
-9.33447 -11.6984 -1.2175 529.818 443.136
-7.47034 -10.4797 -1.1291 536.598 448.731
-9.30436 -9.67548 -1.12333 529.067 451.092
-11.3058 -9.51238 -1.02612 521.137 450.89
5.07531 -11.0654 -0.765449 585.971 451.918
6.63677 -12.4921 -1.12766 592.752 446.924
8.7781 -12.735 -0.94197 601.22 446.936
10.5984 -11.5807 -0.593098 607.814 452.315
8.90308 -10.6921 -0.846782 600.832 455.011
6.94898 -10.5984 -0.795145 593.124 454.548
-7.41428 8.45998 -2.81746 529.082 522.572
-4.74979 7.07225 -5.02364 540.461 517.809
-1.92427 6.11237 -6.67829 552.203 514.91
0.987492 6.27769 -8.42804 563.823 516.435
3.71871 5.79936 -6.47586 574.426 516.158
6.43995 6.38921 -4.82879 584.586 519.995
8.90973 7.57158 -2.56413 593.413 526.177
6.83831 9.42432 -3.8981 584.72 532.254
4.05791 10.4311 -5.00084 573.568 534.763
1.1283 10.7343 -6.43463 562.18 534.38
-1.83753 10.6494 -5.13928 550.385 533.049
-4.7945 9.95668 -3.93878 538.897 529.321
-1.80115 8.00045 -5.60054 551.719 522.59
1.11297 8.09895 -7.55777 563.409 523.81
3.81742 7.76366 -5.22856 573.787 524.163
3.91115 7.92444 -4.51593 573.975 524.986
1.11783 8.11729 -6.26192 563.217 524.163
-1.78484 8.19714 -4.71778 551.561 523.558
3 20 21 23
3 21 22 23
3 0 1 36
3 15 16 45
3 0 17 36
3 16 26 45
3 17 18 37
3 25 26 44
3 17 36 37
3 26 44 45
3 18 19 38
3 24 25 43
3 18 37 38
3 25 43 44
3 19 20 38
3 23 24 43
3 20 21 39
3 22 23 42
3 20 38 39
3 23 42 43
3 21 22 27
3 21 27 39
3 22 27 42
3 27 28 42
3 27 28 39
3 28 42 47
3 28 39 40
3 1 36 41
3 15 45 46
3 1 2 41
3 14 15 46
3 28 29 40
3 28 29 47
3 2 40 41
3 14 46 47
3 2 29 40
3 14 29 47
3 2 3 29
3 13 14 29
3 29 30 31
3 29 30 35
3 3 29 31
3 13 29 35
3 30 32 33
3 30 33 34
3 30 31 32
3 30 34 35
3 3 4 31
3 12 13 35
3 4 5 48
3 11 12 54
3 5 6 48
3 10 11 54
3 6 48 59
3 10 54 55
3 6 7 59
3 9 10 55
3 7 58 59
3 9 55 56
3 8 57 58
3 8 56 57
3 7 8 58
3 8 9 56
3 4 31 48
3 12 35 54
3 31 48 49
3 35 53 54
3 31 49 50
3 35 52 53
3 31 32 50
3 34 35 52
3 32 33 50
3 33 34 52
3 33 50 51
3 33 51 52
3 48 49 60
3 49 60 50
3 50 60 61
3 50 51 61
3 51 52 61
3 61 62 52
3 52 53 62
3 53 54 62
3 54 55 63
3 55 56 63
3 56 63 64
3 56 57 64
3 64 65 57
3 57 58 65
3 58 59 65
3 48 59 65
