ply
format ascii 1.0
element vertex 66
property float x
property float y
property float z
property float u
property float v
element face 91
property list uchar int vertex_indices
end_header
-21.2275 -6.59244 21.5024 480.762 464.648
-20.555 -1.28878 20.9392 481.174 485.35
-19.6033 3.98867 20.5001 482.672 506.101
-18.1954 9.17088 18.3616 486.114 526.239
-16.0359 13.977 13.5353 492.841 544.545
-12.7042 17.8573 8.00867 504.567 559.582
-8.52803 20.7365 3.28779 519.936 571.306
-3.93118 22.8116 -0.828468 537.232 580.251
1.08823 23.4769 -4.64017 556.743 583.988
6.17644 22.3931 -0.87704 576.68 582.933
10.5924 19.6929 3.25855 594.66 575.422
14.4098 16.203 7.90546 610.61 564.725
17.4727 11.9983 13.3713 623.868 551.147
19.4069 7.21928 18.1026 633.04 534.671
20.2739 2.31447 20.3862 638.308 516.617
20.4636 -2.5995 20.7958 641.092 497.755
20.2564 -7.51524 21.1923 642.337 478.713
-16.9886 -13.9489 0.0709198 501.986 432.4
-14.7566 -16.113 -1.62561 511.703 424.525
-11.8304 -17.3608 -3.00638 523.704 420.581
-8.62805 -17.5952 -4.26655 536.341 420.715
-5.44654 -17.0539 -5.35232 548.555 423.891
2.32811 -17.1982 -5.28902 578.815 426.67
5.01997 -18.1393 -4.07392 589.578 424.486
7.88844 -18.4107 -2.79305 600.738 424.99
10.7144 -17.9984 -1.36074 611.432 428.166
13.2246 -16.7167 0.361702 620.51 434.652
-0.355333 -11.5796 -4.88749 565.983 447.408
-0.0748679 -8.38156 -7.78868 565.942 459.175
0.190618 -5.19242 -10.7276 565.85 470.892
0.446184 -2.01628 -13.4936 565.712 482.598
-2.8697 0.693417 -6.43926 551.142 493.51
-1.05121 1.11295 -7.238 558.091 495.707
0.834497 1.23068 -8.0022 565.425 496.771
2.52745 0.880864 -7.1086 572.082 496.369
4.09198 0.207403 -6.44584 578.394 494.598
-12.2982 -9.23701 -0.990546 518.296 452.395
-10.5251 -10.133 -1.17368 525.577 449.632
-8.48547 -10.4318 -1.28713 533.636 449.316
-6.51827 -10.0131 -1.0751 541.085 451.834
-8.40912 -9.52836 -1.13604 533.539 452.889
-10.3442 -9.27769 -1.14918 525.917 453.031
4.4465 -10.5419 -0.780883 583.883 454.544
6.25203 -11.1944 -1.17645 591.204 452.684
8.2574 -11.3118 -1.06113 599.035 453.115
10.1263 -10.7111 -0.778156 606.02 456.315
8.26237 -10.3826 -0.926688 598.651 456.754
6.34468 -10.3721 -0.823716 591.189 456.002
-7.61947 8.1282 -2.67262 529.256 521.276
-5.31435 6.24192 -4.79665 539.172 514.4
-2.40217 4.95892 -6.42515 551.153 510.249
0.863438 4.89657 -8.13467 563.997 510.96
4.0149 4.56573 -6.1811 576.23 511.529
6.93606 5.44328 -4.58074 587.085 516.593
9.24851 7.10454 -2.49508 595.206 524.56
7.33609 9.49129 -3.93617 586.877 532.623
4.59787 11.1682 -5.06976 575.617 537.661
1.26898 11.7821 -6.58443 562.541 538.227
-2.13354 11.5111 -5.20181 549.331 536.08
-5.13393 10.1841 -3.94414 538.14 529.979
-2.86117 6.79958 -5.24834 548.501 517.493
0.990961 6.53634 -7.4608 563.747 517.546
4.73159 6.35589 -4.97114 578.165 519.088
5.07319 8.79652 -4.41071 578.416 528.84
1.23152 9.63486 -6.32473 563.284 529.954
-2.75753 9.27149 -4.53851 547.804 527.303
3 20 21 23
3 21 22 23
3 0 1 36
3 15 16 45
3 0 17 36
3 16 26 45
3 17 18 37
3 25 26 44
3 17 36 37
3 26 44 45
3 18 19 38
3 24 25 43
3 18 37 38
3 25 43 44
3 19 20 38
3 23 24 43
3 20 21 39
3 22 23 42
3 20 38 39
3 23 42 43
3 21 22 27
3 21 27 39
3 22 27 42
3 27 28 42
3 27 28 39
3 28 42 47
3 28 39 40
3 1 36 41
3 15 45 46
3 1 2 41
3 14 15 46
3 28 29 40
3 28 29 47
3 2 40 41
3 14 46 47
3 2 29 40
3 14 29 47
3 2 3 29
3 13 14 29
3 29 30 31
3 29 30 35
3 3 29 31
3 13 29 35
3 30 32 33
3 30 33 34
3 30 31 32
3 30 34 35
3 3 4 31
3 12 13 35
3 4 5 48
3 11 12 54
3 5 6 48
3 10 11 54
3 6 48 59
3 10 54 55
3 6 7 59
3 9 10 55
3 7 58 59
3 9 55 56
3 8 57 58
3 8 56 57
3 7 8 58
3 8 9 56
3 4 31 48
3 12 35 54
3 31 48 49
3 35 53 54
3 31 49 50
3 35 52 53
3 31 32 50
3 34 35 52
3 32 33 50
3 33 34 52
3 33 50 51
3 33 51 52
3 48 49 60
3 49 60 50
3 50 60 61
3 50 51 61
3 51 52 61
3 61 62 52
3 52 53 62
3 53 54 62
3 54 55 63
3 55 56 63
3 56 63 64
3 56 57 64
3 64 65 57
3 57 58 65
3 58 59 65
3 48 59 65
