ply
format ascii 1.0
element vertex 66
property float x
property float y
property float z
property float u
property float v
element face 91
property list uchar int vertex_indices
end_header
-21.4503 -6.2384 21.7241 479.655 466.088
-20.5874 -0.98454 21.1125 481.055 486.252
-19.4847 4.24369 20.7148 483.343 506.46
-18.119 9.38666 18.5217 486.959 526.038
-16.1263 14.1341 13.5339 493.568 543.721
-12.8628 17.8677 7.95789 505.492 557.909
-8.68828 20.5249 3.40531 521.121 568.59
-4.11823 22.3244 -0.866483 538.532 576.228
0.764203 22.8456 -4.65095 557.534 579.239
5.88466 21.9025 -0.829007 576.746 578.502
10.3987 19.3316 3.42613 594.194 571.443
14.3 15.9023 7.86681 609.604 560.925
17.4323 11.7608 13.3221 622.189 547.634
19.3884 7.08721 18.1542 630.603 531.724
20.3068 2.32684 20.4738 635.513 514.512
20.6397 -2.44341 20.7965 638.528 496.583
20.5475 -7.22554 21.1909 639.917 478.461
-18.0658 -14.0721 0.11348 499.038 432.718
-15.6587 -16.3187 -1.5933 509.325 424.722
-12.507 -17.485 -2.97425 521.984 421.195
-9.11606 -17.5678 -4.25594 535.129 421.901
-5.75245 -16.9048 -5.33039 547.853 425.479
2.90669 -17.0985 -5.33498 580.875 428.091
5.59402 -18.1138 -4.10886 591.283 425.549
8.46679 -18.5326 -2.7926 602.156 425.368
11.355 -18.3149 -1.32047 612.821 427.646
13.9636 -17.1257 0.430996 622.011 433.573
-0.0896524 -11.2357 -4.83398 567.179 449.329
0.189119 -7.99275 -7.83315 567.508 461.082
0.446136 -4.75835 -10.8443 567.76 472.792
0.682296 -1.529 -13.5757 567.888 484.537
-2.6318 1.17073 -6.36876 553.076 495.152
-0.802294 1.64917 -7.32771 560.014 497.461
1.11308 1.79845 -8.21584 567.391 498.567
2.75383 1.44744 -7.16429 573.594 498.107
4.24204 0.742372 -6.35887 579.391 496.185
-12.8454 -9.49093 -0.894901 517.338 451.92
-11.2014 -10.413 -1.08698 523.973 449.008
-9.27352 -10.7505 -1.17303 531.45 448.452
-7.41094 -10.2696 -1.13366 538.349 451.009
-9.16765 -9.72146 -1.15447 531.462 452.408
-11.0023 -9.49981 -1.09712 524.388 452.554
5.23404 -10.8472 -0.797533 586.627 453.781
6.89422 -11.5179 -1.05983 593.24 451.814
8.77231 -11.6238 -1.00444 600.417 452.151
10.4909 -10.9607 -0.73716 606.662 455.397
8.7714 -10.6003 -0.889527 600.008 456.067
6.97988 -10.5978 -0.820596 593.179 455.399
-7.1428 8.51943 -2.87302 532.564 522.132
-4.70746 6.9257 -4.9939 542.78 516.535
-1.96395 5.78634 -6.57691 553.909 512.906
0.992437 5.89418 -8.2436 565.391 514.082
3.78548 5.47789 -6.29933 575.856 514.021
6.45033 6.26692 -4.74114 585.443 518.405
8.72559 7.6926 -2.62839 593.215 525.183
6.65656 9.3335 -3.88658 584.93 530.334
3.98374 10.223 -4.95386 574.599 532.439
1.15785 10.5094 -6.47998 563.989 532.088
-1.70468 10.4225 -5.1287 552.908 530.957
-4.5468 9.82718 -3.91383 542.119 527.87
-1.7848 7.75978 -5.50769 553.67 520.719
1.12675 7.77943 -7.41803 565.055 521.487
3.85698 7.52431 -5.11015 575.161 522.097
3.92556 7.78216 -4.50018 575.224 523.242
1.15763 8.01556 -6.342 564.907 522.64
-1.71928 8.04835 -4.7187 553.681 522.02
3 20 21 23
3 21 22 23
3 0 1 36
3 15 16 45
3 0 17 36
3 16 26 45
3 17 18 37
3 25 26 44
3 17 36 37
3 26 44 45
3 18 19 38
3 24 25 43
3 18 37 38
3 25 43 44
3 19 20 38
3 23 24 43
3 20 21 39
3 22 23 42
3 20 38 39
3 23 42 43
3 21 22 27
3 21 27 39
3 22 27 42
3 27 28 42
3 27 28 39
3 28 42 47
3 28 39 40
3 1 36 41
3 15 45 46
3 1 2 41
3 14 15 46
3 28 29 40
3 28 29 47
3 2 40 41
3 14 46 47
3 2 29 40
3 14 29 47
3 2 3 29
3 13 14 29
3 29 30 31
3 29 30 35
3 3 29 31
3 13 29 35
3 30 32 33
3 30 33 34
3 30 31 32
3 30 34 35
3 3 4 31
3 12 13 35
3 4 5 48
3 11 12 54
3 5 6 48
3 10 11 54
3 6 48 59
3 10 54 55
3 6 7 59
3 9 10 55
3 7 58 59
3 9 55 56
3 8 57 58
3 8 56 57
3 7 8 58
3 8 9 56
3 4 31 48
3 12 35 54
3 31 48 49
3 35 53 54
3 31 49 50
3 35 52 53
3 31 32 50
3 34 35 52
3 32 33 50
3 33 34 52
3 33 50 51
3 33 51 52
3 48 49 60
3 49 60 50
3 50 60 61
3 50 51 61
3 51 52 61
3 61 62 52
3 52 53 62
3 53 54 62
3 54 55 63
3 55 56 63
3 56 63 64
3 56 57 64
3 64 65 57
3 57 58 65
3 58 59 65
3 48 59 65
