ply
format ascii 1.0
element vertex 66
property float x
property float y
property float z
property float u
property float v
element face 91
property list uchar int vertex_indices
end_header
-20.9579 -5.50336 21.7106 476.744 465.97
-20.019 -0.480388 21.124 478.402 486.076
-18.8537 4.51162 20.7355 480.928 506.195
-17.5264 9.41666 18.5437 484.482 525.72
-15.6352 13.949 13.5185 490.974 543.517
-12.5536 17.5904 7.99814 502.637 558.236
-8.63254 20.3244 3.40187 517.819 569.91
-4.27148 22.243 -0.923197 535.032 578.612
0.461199 22.7938 -4.59548 554.171 582.201
5.5962 21.9677 -0.823737 574.03 581.87
10.0799 19.3817 3.48416 591.972 574.411
13.9147 15.9048 7.95568 607.708 563.185
17.0169 11.7842 13.3501 620.651 549.266
18.8861 7.11727 18.3653 629.043 532.586
19.776 2.28353 20.6402 634.182 514.328
20.1999 -2.58369 21.0209 637.869 495.396
20.2109 -7.47326 21.3747 639.943 476.19
-18.2815 -14.0484 0.277077 495.157 429.63
-16.0506 -16.1196 -1.5205 505.192 422.122
-13.1118 -17.1161 -2.94626 517.484 419.228
-9.98153 -17.1791 -4.27134 530.11 420.115
-6.86687 -16.6483 -5.339 542.369 423.381
4.14541 -17.2627 -5.37811 586.051 425.78
6.7502 -18.145 -4.19644 596.467 423.655
9.49444 -18.5317 -2.84674 607.186 423.575
12.2484 -18.2934 -1.31884 617.641 425.994
14.6663 -17.0413 0.574197 626.265 432.328
-0.173323 -11.0294 -4.79987 566.236 448.561
0.154792 -7.73671 -7.90051 566.722 461.13
0.460284 -4.45291 -10.9745 567.117 473.659
0.738109 -1.16583 -13.6519 567.324 486.259
-2.66884 1.55278 -6.44031 551.315 496.771
-0.810677 2.00519 -7.45948 558.645 499.186
1.12531 2.14821 -8.35007 566.39 500.44
2.78466 1.78289 -7.35332 572.893 499.905
4.30667 1.08372 -6.5417 579.034 497.961
-13.2474 -9.82803 -0.690128 513.378 448.3
-11.6113 -11.2658 -0.98636 520.503 443.296
-9.42971 -11.5513 -1.21483 529.27 443.087
-7.55395 -10.4094 -1.16409 536.164 448.419
-9.36068 -9.56642 -1.1377 528.674 450.955
-11.3497 -9.37649 -1.02225 520.729 450.852
5.19871 -11.087 -0.765692 586.648 451.409
6.78006 -12.4837 -1.16448 593.56 446.526
8.91977 -12.7015 -0.990627 602.054 446.636
10.741 -11.5665 -0.635593 608.676 451.972
9.03466 -10.7086 -0.848615 601.623 454.568
7.07685 -10.6177 -0.786869 593.854 454.078
-7.2825 8.40213 -2.84958 529.484 522.389
-4.68455 6.94223 -5.03236 540.779 517.383
-1.88453 5.95653 -6.66645 552.56 514.433
1.01839 6.13264 -8.39678 564.266 516.09
3.75481 5.63284 -6.49277 574.896 515.66
6.46855 6.24549 -4.84647 585.008 519.559
8.90252 7.46649 -2.53983 593.627 525.851
6.776 9.26391 -3.8846 584.735 531.763
3.99153 10.224 -5.00386 573.566 534.128
1.09081 10.5189 -6.48595 562.294 533.754
-1.79492 10.4448 -5.13532 550.686 532.438
-4.70445 9.83247 -3.88227 539.235 528.973
-1.72637 7.871 -5.5841 552.15 522.242
1.12634 7.99624 -7.49606 563.715 523.645
3.76613 7.63197 -5.26678 573.842 523.764
3.81121 7.70187 -4.53457 573.846 524.19
1.08911 7.88843 -6.24317 563.37 523.427
-1.73295 7.98087 -4.69512 551.903 522.831
3 20 21 23
3 21 22 23
3 0 1 36
3 15 16 45
3 0 17 36
3 16 26 45
3 17 18 37
3 25 26 44
3 17 36 37
3 26 44 45
3 18 19 38
3 24 25 43
3 18 37 38
3 25 43 44
3 19 20 38
3 23 24 43
3 20 21 39
3 22 23 42
3 20 38 39
3 23 42 43
3 21 22 27
3 21 27 39
3 22 27 42
3 27 28 42
3 27 28 39
3 28 42 47
3 28 39 40
3 1 36 41
3 15 45 46
3 1 2 41
3 14 15 46
3 28 29 40
3 28 29 47
3 2 40 41
3 14 46 47
3 2 29 40
3 14 29 47
3 2 3 29
3 13 14 29
3 29 30 31
3 29 30 35
3 3 29 31
3 13 29 35
3 30 32 33
3 30 33 34
3 30 31 32
3 30 34 35
3 3 4 31
3 12 13 35
3 4 5 48
3 11 12 54
3 5 6 48
3 10 11 54
3 6 48 59
3 10 54 55
3 6 7 59
3 9 10 55
3 7 58 59
3 9 55 56
3 8 57 58
3 8 56 57
3 7 8 58
3 8 9 56
3 4 31 48
3 12 35 54
3 31 48 49
3 35 53 54
3 31 49 50
3 35 52 53
3 31 32 50
3 34 35 52
3 32 33 50
3 33 34 52
3 33 50 51
3 33 51 52
3 48 49 60
3 49 60 50
3 50 60 61
3 50 51 61
3 51 52 61
3 61 62 52
3 52 53 62
3 53 54 62
3 54 55 63
3 55 56 63
3 56 63 64
3 56 57 64
3 64 65 57
3 57 58 65
3 58 59 65
3 48 59 65
