ply
format ascii 1.0
element vertex 66
property float x
property float y
property float z
property float u
property float v
element face 91
property list uchar int vertex_indices
end_header
-20.8704 -6.2433 21.5122 479.241 465.84
-20.0777 -1.01748 20.9329 480.277 486.406
-19.0129 4.18108 20.5584 482.349 507.02
-17.6191 9.23911 18.4812 486.048 526.898
-15.607 13.8676 13.5326 492.815 544.813
-12.4617 17.6467 8.00688 504.444 559.786
-8.43199 20.4929 3.36945 519.751 571.668
-3.92618 22.5146 -0.827951 537.178 580.625
1.0339 23.0237 -4.59162 556.923 583.966
6.11297 22.1082 -0.850614 576.452 583.249
10.4834 19.4893 3.35115 593.844 575.692
14.1922 16.047 7.91291 608.937 564.72
17.0927 11.9394 13.3697 621.004 550.991
18.8692 7.30677 18.2619 629.004 534.639
19.7086 2.46018 20.4472 633.898 516.541
20.0022 -2.45487 20.8062 637.003 497.598
19.9072 -7.37379 21.2399 638.583 478.491
-17.7275 -14.1853 0.192493 498.346 432.153
-15.4851 -16.4605 -1.56006 508.312 423.901
-12.4718 -17.6311 -2.95932 520.767 420.339
-9.2263 -17.724 -4.27051 533.667 421.088
-6.02708 -17.0859 -5.38105 546.053 424.701
3.10244 -17.4485 -5.30418 581.749 427.133
5.79618 -18.4633 -4.08297 592.453 424.547
8.67512 -18.8556 -2.75831 603.605 424.481
11.551 -18.4856 -1.30412 614.409 427.406
14.0413 -17.0523 0.506518 623.214 434.378
-0.329375 -11.3463 -4.91228 565.806 449.526
-0.0346063 -8.1865 -7.87411 566.154 461.383
0.245277 -5.0335 -10.7973 566.44 473.216
0.510788 -1.88102 -13.4349 566.622 485.094
-2.66829 0.948766 -6.36185 551.882 496.133
-0.938619 1.34437 -7.28591 558.613 498.222
0.864998 1.43678 -8.13848 565.744 499.175
2.47039 1.12626 -7.16266 571.96 498.826
3.93816 0.493446 -6.36892 577.803 497.13
-12.53 -9.68267 -0.983563 516.937 451.638
-10.8778 -10.7005 -1.08969 523.809 448.348
-8.88864 -10.999 -1.14205 531.688 448.01
-7.04616 -10.3847 -1.03819 538.595 451.194
-8.81227 -9.75778 -1.14055 531.475 452.875
-10.6865 -9.53611 -1.1142 524.079 452.956
4.84232 -10.9974 -0.702594 585.096 453.86
6.49597 -11.8462 -1.02705 591.941 451.187
8.45877 -11.972 -0.999277 599.634 451.526
10.2341 -11.236 -0.816661 606.215 455.171
8.50624 -10.7262 -0.902492 599.29 456.414
6.64913 -10.6869 -0.818052 592.026 455.805
-6.51095 8.75383 -2.80312 533.104 525.589
-4.38428 7.05793 -4.97272 542.451 519.463
-1.88967 5.78277 -6.58389 552.964 515.237
0.901421 5.81727 -8.30911 564.112 516.211
3.56653 5.45713 -6.38935 574.318 516.295
6.06589 6.38969 -4.79879 583.401 521.279
8.15997 7.89069 -2.62135 590.573 528.418
6.39654 9.76095 -3.94282 583.157 534.706
3.97535 10.954 -5.10392 573.432 538.113
1.17963 11.3739 -6.59261 562.621 538.289
-1.65733 11.2112 -5.21302 551.405 536.73
-4.26441 10.3134 -3.94669 541.406 532.384
-1.79038 7.72864 -5.36499 552.345 523.087
1.0242 7.54326 -7.41272 563.729 523.154
3.71627 7.44245 -5.09944 573.867 524.334
3.86251 8.52388 -4.48582 573.888 528.723
1.13185 8.95646 -6.23734 563.369 528.926
-1.70586 8.83075 -4.60222 552.092 527.56
3 20 21 23
3 21 22 23
3 0 1 36
3 15 16 45
3 0 17 36
3 16 26 45
3 17 18 37
3 25 26 44
3 17 36 37
3 26 44 45
3 18 19 38
3 24 25 43
3 18 37 38
3 25 43 44
3 19 20 38
3 23 24 43
3 20 21 39
3 22 23 42
3 20 38 39
3 23 42 43
3 21 22 27
3 21 27 39
3 22 27 42
3 27 28 42
3 27 28 39
3 28 42 47
3 28 39 40
3 1 36 41
3 15 45 46
3 1 2 41
3 14 15 46
3 28 29 40
3 28 29 47
3 2 40 41
3 14 46 47
3 2 29 40
3 14 29 47
3 2 3 29
3 13 14 29
3 29 30 31
3 29 30 35
3 3 29 31
3 13 29 35
3 30 32 33
3 30 33 34
3 30 31 32
3 30 34 35
3 3 4 31
3 12 13 35
3 4 5 48
3 11 12 54
3 5 6 48
3 10 11 54
3 6 48 59
3 10 54 55
3 6 7 59
3 9 10 55
3 7 58 59
3 9 55 56
3 8 57 58
3 8 56 57
3 7 8 58
3 8 9 56
3 4 31 48
3 12 35 54
3 31 48 49
3 35 53 54
3 31 49 50
3 35 52 53
3 31 32 50
3 34 35 52
3 32 33 50
3 33 34 52
3 33 50 51
3 33 51 52
3 48 49 60
3 49 60 50
3 50 60 61
3 50 51 61
3 51 52 61
3 61 62 52
3 52 53 62
3 53 54 62
3 54 55 63
3 55 56 63
3 56 63 64
3 56 57 64
3 64 65 57
3 57 58 65
3 58 59 65
3 48 59 65
