ply
format ascii 1.0
element vertex 66
property float x
property float y
property float z
property float u
property float v
element face 91
property list uchar int vertex_indices
end_header
-20.9313 -5.54525 21.1256 476.172 464.084
-20.2117 -0.627606 20.5986 476.621 483.975
-19.1736 4.25761 20.3441 478.333 503.981
-17.6699 8.97708 18.3772 482.194 523.054
-15.4528 13.3006 13.4664 489.455 540.035
-12.3042 16.9928 8.08056 500.828 554.828
-8.42954 19.987 3.48973 515.377 567.438
-4.07784 22.3054 -0.779773 532.146 577.687
0.848911 23.0154 -4.48407 551.975 581.964
6.00548 22.2905 -0.870897 572.614 582.795
10.4914 19.8565 3.37472 591.359 576.63
14.3506 16.561 7.908 607.995 566.78
17.3635 12.5252 13.3253 621.51 553.796
19.112 7.78641 18.4167 630.347 537.25
19.924 2.6519 20.4746 635.977 517.737
20.2005 -2.58235 20.9046 639.696 497.063
20.1055 -7.81964 21.352 641.923 476.192
-17.2216 -14.1133 0.161268 497.811 425.475
-15.0776 -16.1473 -1.59819 507.647 417.918
-12.2676 -17.1737 -3.00706 519.602 414.839
-9.26486 -17.3103 -4.35406 531.872 415.439
-6.30172 -16.8282 -5.47819 543.643 418.56
3.00205 -17.5018 -5.27437 581.284 420.719
5.7566 -18.5255 -4.09026 592.719 418.393
8.66849 -18.9429 -2.76833 604.46 418.617
11.5881 -18.6044 -1.34137 615.837 421.9
14.1563 -17.2261 0.446507 625.234 429.27
-0.642742 -11.8705 -4.87243 563.756 441.493
-0.21723 -8.5813 -7.80161 564.129 454.001
0.200769 -5.30227 -10.71 564.473 466.471
0.600593 -2.02161 -13.3127 564.709 479.03
-2.5464 1.00746 -6.24506 549.736 491.631
-0.917688 1.36887 -7.23094 556.199 493.623
0.789657 1.42813 -8.10038 563.118 494.481
2.38234 1.10672 -7.11885 569.557 494.308
3.83025 0.468321 -6.30663 575.597 492.741
-12.102 -9.94345 -1.01448 516.365 444.447
-10.625 -11.0197 -1.05289 522.841 440.891
-8.7611 -11.3313 -1.04018 530.475 440.608
-7.04596 -10.7672 -1.04414 537.07 443.747
-8.6332 -10.0437 -1.14991 530.347 445.793
-10.3771 -9.77809 -1.11934 523.213 445.966
4.63954 -11.5655 -0.471258 584.287 446.743
6.20333 -12.5185 -0.8825 591.091 443.614
8.11102 -12.6315 -0.9831 598.813 444.114
9.83167 -11.9158 -0.912586 605.344 447.885
8.19331 -11.3323 -0.873226 598.471 449.388
6.39758 -11.2455 -0.70519 591.204 448.86
-5.89712 9.098 -2.85589 531.795 523.286
-3.89615 7.54214 -4.9269 540.85 517.475
-1.617 6.33583 -6.52997 550.79 513.346
0.92888 6.43883 -8.27679 561.151 514.55
3.37659 6.01686 -6.48069 570.979 514.656
5.70953 6.91786 -4.87228 579.695 519.942
7.77296 8.19498 -2.65934 587.07 526.773
6.00914 9.92056 -4.06447 579.279 532.351
3.66488 10.9777 -5.21394 569.47 535.032
1.02868 11.3483 -6.56922 558.862 534.753
-1.53554 11.2265 -5.23045 548.483 533.343
-3.90289 10.4801 -3.95279 539.219 529.517
-1.20082 8.33645 -5.28361 551.3 521.936
0.990663 8.21103 -7.308 560.388 521.961
3.05954 8.09959 -5.19418 568.501 523.209
3.05484 8.42363 -4.63258 568.253 524.671
0.955858 8.70057 -6.23589 559.876 524.22
-1.19785 8.6607 -4.56472 551.065 523.449
3 20 21 23
3 21 22 23
3 0 1 36
3 15 16 45
3 0 17 36
3 16 26 45
3 17 18 37
3 25 26 44
3 17 36 37
3 26 44 45
3 18 19 38
3 24 25 43
3 18 37 38
3 25 43 44
3 19 20 38
3 23 24 43
3 20 21 39
3 22 23 42
3 20 38 39
3 23 42 43
3 21 22 27
3 21 27 39
3 22 27 42
3 27 28 42
3 27 28 39
3 28 42 47
3 28 39 40
3 1 36 41
3 15 45 46
3 1 2 41
3 14 15 46
3 28 29 40
3 28 29 47
3 2 40 41
3 14 46 47
3 2 29 40
3 14 29 47
3 2 3 29
3 13 14 29
3 29 30 31
3 29 30 35
3 3 29 31
3 13 29 35
3 30 32 33
3 30 33 34
3 30 31 32
3 30 34 35
3 3 4 31
3 12 13 35
3 4 5 48
3 11 12 54
3 5 6 48
3 10 11 54
3 6 48 59
3 10 54 55
3 6 7 59
3 9 10 55
3 7 58 59
3 9 55 56
3 8 57 58
3 8 56 57
3 7 8 58
3 8 9 56
3 4 31 48
3 12 35 54
3 31 48 49
3 35 53 54
3 31 49 50
3 35 52 53
3 31 32 50
3 34 35 52
3 32 33 50
3 33 34 52
3 33 50 51
3 33 51 52
3 48 49 60
3 49 60 50
3 50 60 61
3 50 51 61
3 51 52 61
3 61 62 52
3 52 53 62
3 53 54 62
3 54 55 63
3 55 56 63
3 56 63 64
3 56 57 64
3 64 65 57
3 57 58 65
3 58 59 65
3 48 59 65
