ply
format ascii 1.0
element vertex 66
property float x
property float y
property float z
property float u
property float v
element face 91
property list uchar int vertex_indices
end_header
-21.1697 -5.59574 21.52 476.552 463.104
-20.2992 -0.612134 20.9223 477.366 483.134
-19.1599 4.33832 20.5807 479.196 503.247
-17.7185 9.19841 18.4741 482.707 522.763
-15.6332 13.6882 13.4543 489.692 540.504
-12.4457 17.3329 7.99016 501.61 555.434
-8.48332 20.0998 3.43059 516.851 567.553
-4.10534 22.0972 -0.84018 534.09 576.939
0.668218 22.7009 -4.5536 553.527 581.179
5.69879 21.8125 -0.85927 572.967 581.408
10.0734 19.2371 3.42688 590.608 574.741
13.8847 15.8656 7.89802 606.422 564.653
17.0083 11.8374 13.2996 619.654 551.797
18.9902 7.22601 18.2786 628.807 535.889
19.9794 2.42125 20.548 634.822 518.017
20.417 -2.41852 20.9217 639.149 499.249
20.4384 -7.27796 21.306 641.842 480.168
-18.0458 -14.1278 0.254301 498.924 426.234
-15.8386 -16.2651 -1.55083 509.278 418.635
-12.8925 -17.3434 -2.96669 521.863 415.73
-9.72397 -17.4288 -4.27711 534.748 416.895
-6.57583 -16.8673 -5.34479 547.133 420.659
3.45974 -17.3063 -5.30533 586.995 424.665
6.1508 -18.342 -4.10707 597.9 422.393
9.01144 -18.8115 -2.76002 609.122 422.488
11.8929 -18.5926 -1.26269 620.006 425.347
14.4447 -17.343 0.540075 628.939 432.159
-0.326635 -11.2017 -4.83989 568.532 446.711
-0.0192268 -7.91096 -7.87342 568.669 459.168
0.274309 -4.62686 -10.8731 568.747 471.598
0.552022 -1.34358 -13.5136 568.674 484.1
-2.69542 1.31151 -6.36397 552.595 494.399
-0.929258 1.76111 -7.36475 559.568 496.948
0.919432 1.89192 -8.26511 567.019 498.31
2.57382 1.52948 -7.25011 573.501 498.061
4.08145 0.826391 -6.43369 579.642 496.337
-12.7016 -9.72068 -0.875563 517.856 446.419
-11.1382 -10.8995 -1.03626 524.725 442.621
-9.14163 -11.2013 -1.12638 532.799 442.548
-7.34205 -10.4264 -1.07135 539.461 446.647
-9.04469 -9.6847 -1.1287 532.339 448.59
-10.8938 -9.46538 -1.082 524.904 448.411
5.26321 -11.1694 -0.702942 589.558 450.997
6.83878 -12.2055 -1.02025 596.435 447.732
8.81375 -12.3434 -0.941262 604.29 448.334
10.5459 -11.4682 -0.698438 610.583 452.834
8.8786 -10.826 -0.849688 603.679 454.382
7.03986 -10.7637 -0.771065 596.364 453.597
-6.74893 8.69802 -2.85384 531.606 522.064
-4.42962 7.17206 -5.01907 542.152 516.859
-1.82912 6.05742 -6.61351 553.437 513.57
0.97745 6.19766 -8.3377 564.871 515.323
3.65526 5.72829 -6.4132 575.227 515.449
6.23553 6.48887 -4.82632 584.598 520.296
8.49349 7.77345 -2.62251 592.252 527.171
6.513 9.51963 -3.96391 583.793 532.62
3.92475 10.5373 -5.04615 573.276 534.906
1.13171 10.901 -6.52236 562.412 534.402
-1.64822 10.7874 -5.16128 551.159 532.685
-4.36461 10.1107 -3.91494 540.499 528.754
-1.47929 7.99568 -5.47699 553.458 521.687
1.09061 8.01937 -7.42303 564.077 522.793
3.51137 7.74537 -5.23893 573.245 523.604
3.55237 8.03956 -4.57509 573.078 524.944
1.09294 8.32655 -6.26541 563.627 524.278
-1.44889 8.3153 -4.66192 553.197 523.157
3 20 21 23
3 21 22 23
3 0 1 36
3 15 16 45
3 0 17 36
3 16 26 45
3 17 18 37
3 25 26 44
3 17 36 37
3 26 44 45
3 18 19 38
3 24 25 43
3 18 37 38
3 25 43 44
3 19 20 38
3 23 24 43
3 20 21 39
3 22 23 42
3 20 38 39
3 23 42 43
3 21 22 27
3 21 27 39
3 22 27 42
3 27 28 42
3 27 28 39
3 28 42 47
3 28 39 40
3 1 36 41
3 15 45 46
3 1 2 41
3 14 15 46
3 28 29 40
3 28 29 47
3 2 40 41
3 14 46 47
3 2 29 40
3 14 29 47
3 2 3 29
3 13 14 29
3 29 30 31
3 29 30 35
3 3 29 31
3 13 29 35
3 30 32 33
3 30 33 34
3 30 31 32
3 30 34 35
3 3 4 31
3 12 13 35
3 4 5 48
3 11 12 54
3 5 6 48
3 10 11 54
3 6 48 59
3 10 54 55
3 6 7 59
3 9 10 55
3 7 58 59
3 9 55 56
3 8 57 58
3 8 56 57
3 7 8 58
3 8 9 56
3 4 31 48
3 12 35 54
3 31 48 49
3 35 53 54
3 31 49 50
3 35 52 53
3 31 32 50
3 34 35 52
3 32 33 50
3 33 34 52
3 33 50 51
3 33 51 52
3 48 49 60
3 49 60 50
3 50 60 61
3 50 51 61
3 51 52 61
3 61 62 52
3 52 53 62
3 53 54 62
3 54 55 63
3 55 56 63
3 56 63 64
3 56 57 64
3 64 65 57
3 57 58 65
3 58 59 65
3 48 59 65
