ply
format ascii 1.0
element vertex 66
property float x
property float y
property float z
property float u
property float v
element face 91
property list uchar int vertex_indices
end_header
-20.912 -5.56 21.5176 485.176 466.572
-20.0292 -0.506006 20.931 485.796 486.466
-18.8689 4.51874 20.5744 487.482 506.43
-17.4761 9.40719 18.5457 490.281 525.809
-15.5191 13.8565 13.5098 495.751 543.47
-12.4632 17.5018 8.05581 505.941 558.606
-8.59142 20.3352 3.47277 519.654 571.173
-4.2121 22.3314 -0.832806 535.769 580.832
0.622315 22.8258 -4.50501 554.425 585.036
5.75652 22.0105 -0.819704 574.352 585.203
10.152 19.4011 3.49454 592.384 578.117
13.8905 15.9468 7.98334 608.345 567.427
16.9195 11.9091 13.3577 621.824 554.192
18.7976 7.32464 18.3878 631.205 538.165
19.7369 2.45772 20.5494 637.367 520.196
20.1764 -2.49745 20.9459 641.802 501.404
20.1865 -7.46984 21.3215 644.593 482.302
-17.9369 -14.0236 0.241848 503.161 433.221
-15.7473 -16.0446 -1.56722 512.88 426.462
-12.9039 -17.0683 -2.98805 524.526 423.957
-9.86791 -17.2097 -4.30969 536.413 424.968
-6.84051 -16.7758 -5.38932 547.923 428.218
3.94283 -17.3936 -5.34775 589.808 431.907
6.52313 -18.2659 -4.1541 600.137 430.134
9.24564 -18.6419 -2.79944 610.722 430.371
11.9917 -18.424 -1.29012 621.053 432.927
14.4648 -17.2488 0.545491 629.769 439.053
-0.358836 -11.7582 -4.83262 570.037 451.251
-0.0376193 -8.32905 -7.89337 569.612 464.289
0.269457 -4.91159 -10.9222 569.135 477.278
0.557627 -1.48908 -13.574 568.551 490.319
-2.71861 1.56124 -6.48238 553.627 501.034
-0.930721 1.96251 -7.42928 560.369 503.477
0.935186 2.06019 -8.24764 567.572 504.809
2.59552 1.7307 -7.32385 574.075 504.579
4.11951 1.07547 -6.56704 580.25 502.998
-12.8016 -9.89415 -0.837975 520.723 451.889
-11.087 -11.1558 -1.03826 528.052 447.972
-8.92877 -11.4508 -1.15184 536.541 448.036
-6.99611 -10.5569 -1.09933 543.482 452.571
-8.86098 -9.84653 -1.14212 535.903 454.254
-10.861 -9.61286 -1.07883 528.062 454.036
4.84761 -11.2777 -0.712139 589.481 456.499
6.53282 -12.4673 -1.05299 596.667 452.826
8.66922 -12.6554 -0.96279 604.996 453.313
10.5682 -11.723 -0.694198 611.767 458.002
8.77883 -11.021 -0.85575 604.494 459.681
6.7872 -10.9438 -0.780423 596.772 458.868
-6.73157 8.70826 -2.79927 533.856 526.724
-4.39735 7.16279 -4.99579 543.898 521.833
-1.80108 6.06719 -6.64941 554.652 518.885
0.960201 6.19307 -8.40365 565.367 520.722
3.58731 5.73552 -6.48245 575.583 520.656
6.15269 6.46976 -4.82411 584.916 525.116
8.4118 7.76921 -2.54355 592.7 531.651
6.44506 9.50026 -3.9151 584.269 537.055
3.87448 10.5055 -5.03564 573.897 539.354
1.09047 10.8224 -6.47863 563.115 538.844
-1.66857 10.7567 -5.13771 552.41 537.193
-4.36705 10.0998 -3.87025 542.276 533.29
-1.67114 8.04867 -5.47574 553.945 526.723
1.07282 8.02605 -7.42741 564.693 527.956
3.65331 7.774 -5.23145 574.591 528.687
3.68313 7.94593 -4.55011 574.552 529.444
1.05278 8.16857 -6.28206 564.439 528.625
-1.66 8.25239 -4.64994 553.805 527.608
3 20 21 23
3 21 22 23
3 0 1 36
3 15 16 45
3 0 17 36
3 16 26 45
3 17 18 37
3 25 26 44
3 17 36 37
3 26 44 45
3 18 19 38
3 24 25 43
3 18 37 38
3 25 43 44
3 19 20 38
3 23 24 43
3 20 21 39
3 22 23 42
3 20 38 39
3 23 42 43
3 21 22 27
3 21 27 39
3 22 27 42
3 27 28 42
3 27 28 39
3 28 42 47
3 28 39 40
3 1 36 41
3 15 45 46
3 1 2 41
3 14 15 46
3 28 29 40
3 28 29 47
3 2 40 41
3 14 46 47
3 2 29 40
3 14 29 47
3 2 3 29
3 13 14 29
3 29 30 31
3 29 30 35
3 3 29 31
3 13 29 35
3 30 32 33
3 30 33 34
3 30 31 32
3 30 34 35
3 3 4 31
3 12 13 35
3 4 5 48
3 11 12 54
3 5 6 48
3 10 11 54
3 6 48 59
3 10 54 55
3 6 7 59
3 9 10 55
3 7 58 59
3 9 55 56
3 8 57 58
3 8 56 57
3 7 8 58
3 8 9 56
3 4 31 48
3 12 35 54
3 31 48 49
3 35 53 54
3 31 49 50
3 35 52 53
3 31 32 50
3 34 35 52
3 32 33 50
3 33 34 52
3 33 50 51
3 33 51 52
3 48 49 60
3 49 60 50
3 50 60 61
3 50 51 61
3 51 52 61
3 61 62 52
3 52 53 62
3 53 54 62
3 54 55 63
3 55 56 63
3 56 63 64
3 56 57 64
3 64 65 57
3 57 58 65
3 58 59 65
3 48 59 65
