ply
format ascii 1.0
element vertex 66
property float x
property float y
property float z
property float u
property float v
element face 91
property list uchar int vertex_indices
end_header
-20.5194 -6.14285 21.3771 481.947 467.948
-19.6992 -0.964867 20.7893 482.659 488.717
-18.5556 4.18016 20.4524 484.617 509.572
-17.0794 9.15334 18.5158 488.288 529.618
-15.0508 13.6526 13.5068 494.98 547.496
-12.0426 17.4257 8.07293 505.996 562.935
-8.2388 20.4565 3.39975 520.386 575.999
-3.87863 22.653 -0.796126 537.308 586.146
1.03617 23.184 -4.45433 557.167 590.104
6.01143 22.2029 -0.875428 576.632 589.491
10.1251 19.3999 3.36121 593.494 581.358
13.5725 15.8669 7.94414 608.029 570.06
16.4246 11.8904 13.284 620.291 556.845
18.3483 7.46658 18.2739 629.181 541.314
19.3432 2.74487 20.3705 635.114 523.576
19.7631 -2.08773 20.7323 639.17 504.772
19.7532 -6.93328 21.1361 641.525 485.702
-17.5562 -14.4095 0.215093 501.982 432.823
-15.4906 -16.4395 -1.54438 511.522 425.544
-12.7422 -17.466 -2.96538 523.181 422.647
-9.79929 -17.5722 -4.33231 535.129 423.498
-6.88015 -17.0745 -5.46616 546.629 426.766
3.93064 -17.658 -5.29705 589.611 430.109
6.3705 -18.5301 -4.06998 599.458 428.164
8.96308 -18.8988 -2.69756 609.624 428.315
11.5755 -18.6495 -1.23052 619.534 430.935
13.8716 -17.4244 0.591696 627.628 437.312
-0.444785 -11.6281 -4.86576 569.161 451.738
-0.164369 -8.37104 -7.9052 569.197 464.174
0.10638 -5.11882 -10.8332 569.176 476.607
0.367975 -1.86179 -13.3795 569.041 489.127
-2.68059 1.12376 -6.35398 554.108 500.668
-0.992944 1.47235 -7.32625 560.787 502.738
0.765123 1.54537 -8.1717 567.861 503.779
2.349 1.24588 -7.21069 574.085 503.601
3.79727 0.646699 -6.42072 579.96 502.136
-12.8342 -10.1326 -0.985856 518.691 451.944
-11.1413 -11.3958 -1.01233 526.03 447.828
-8.97504 -11.7127 -1.04377 534.757 447.696
-7.08068 -10.8231 -1.00866 541.781 452.201
-8.91566 -10.0115 -1.15903 534.146 454.425
-10.9229 -9.77617 -1.1099 526.085 454.321
4.76774 -11.5222 -0.646631 588.884 455.663
6.42073 -12.6798 -0.918414 596.059 451.898
8.56456 -12.8418 -0.87148 604.604 452.381
10.4404 -11.8932 -0.72387 611.503 457.13
8.68257 -11.1299 -0.825302 604.187 459.213
6.68368 -11.0621 -0.777786 596.245 458.451
-5.43558 9.11355 -2.78474 538.452 531.475
-3.65287 7.4128 -5.01225 546.796 525.261
-1.49946 6.09046 -6.66189 556.3 520.844
0.959126 6.16774 -8.47753 566.328 522.082
3.29568 5.7627 -6.45933 575.375 522.078
5.48791 6.73212 -4.84396 583.229 527.353
7.27939 8.24077 -2.60818 589.103 534.667
5.89271 10.1241 -4.00498 582.934 541.121
3.82014 11.3868 -5.17319 574.327 544.811
1.30792 11.8483 -6.64163 564.45 545.051
-1.2388 11.6605 -5.26957 554.217 543.246
-3.53574 10.7097 -3.98305 545.377 538.541
-1.08599 8.15972 -5.29771 556.613 529.491
1.1189 8 -7.33375 565.802 529.62
3.21204 7.90076 -5.07557 573.685 530.743
3.30792 8.62812 -4.48813 573.578 533.777
1.20856 9.05503 -6.06217 565.371 534.075
-0.985848 8.90779 -4.56602 556.485 532.637
3 20 21 23
3 21 22 23
3 0 1 36
3 15 16 45
3 0 17 36
3 16 26 45
3 17 18 37
3 25 26 44
3 17 36 37
3 26 44 45
3 18 19 38
3 24 25 43
3 18 37 38
3 25 43 44
3 19 20 38
3 23 24 43
3 20 21 39
3 22 23 42
3 20 38 39
3 23 42 43
3 21 22 27
3 21 27 39
3 22 27 42
3 27 28 42
3 27 28 39
3 28 42 47
3 28 39 40
3 1 36 41
3 15 45 46
3 1 2 41
3 14 15 46
3 28 29 40
3 28 29 47
3 2 40 41
3 14 46 47
3 2 29 40
3 14 29 47
3 2 3 29
3 13 14 29
3 29 30 31
3 29 30 35
3 3 29 31
3 13 29 35
3 30 32 33
3 30 33 34
3 30 31 32
3 30 34 35
3 3 4 31
3 12 13 35
3 4 5 48
3 11 12 54
3 5 6 48
3 10 11 54
3 6 48 59
3 10 54 55
3 6 7 59
3 9 10 55
3 7 58 59
3 9 55 56
3 8 57 58
3 8 56 57
3 7 8 58
3 8 9 56
3 4 31 48
3 12 35 54
3 31 48 49
3 35 53 54
3 31 49 50
3 35 52 53
3 31 32 50
3 34 35 52
3 32 33 50
3 33 34 52
3 33 50 51
3 33 51 52
3 48 49 60
3 49 60 50
3 50 60 61
3 50 51 61
3 51 52 61
3 61 62 52
3 52 53 62
3 53 54 62
3 54 55 63
3 55 56 63
3 56 63 64
3 56 57 64
3 64 65 57
3 57 58 65
3 58 59 65
3 48 59 65
