ply
format ascii 1.0
element vertex 66
property float x
property float y
property float z
property float u
property float v
element face 91
property list uchar int vertex_indices
end_header
-20.3005 -5.93936 20.9697 483.184 466.852
-19.5011 -0.734741 20.4446 483.562 488.228
-18.3036 4.42216 20.1201 485.565 509.65
-16.5914 9.37318 18.4983 489.809 530.402
-14.3944 13.8241 13.2805 496.43 549.062
-11.5611 17.7655 7.96974 505.902 566.01
-8.03718 21.1545 3.40173 518.433 581.182
-3.86317 23.7213 -0.752638 534.022 593.437
1.03971 24.4534 -4.52141 553.546 598.733
6.13967 23.2685 -0.676698 574.61 597.136
10.1428 20.0756 3.42209 592.347 586.861
13.3012 16.0778 7.89973 607.104 572.912
15.8693 11.7513 13.1195 619.632 557.382
17.8346 7.18753 18.2504 629.863 540.555
19.0056 2.33225 19.9391 637.191 521.785
19.4187 -2.62124 20.2422 641.574 502.07
19.2914 -7.58117 20.6337 643.776 482.039
-16.9125 -14.7836 0.199337 502.563 431.079
-15.0385 -17.033 -1.61083 511.433 422.871
-12.323 -18.1613 -2.90715 523.059 419.695
-9.36935 -18.1852 -4.28348 535.04 421.097
-6.46068 -17.5336 -5.45532 546.459 425.217
3.76102 -18.0558 -5.33769 587.966 428.761
6.1103 -19.0348 -4.07377 597.929 426.23
8.63596 -19.4552 -2.68395 608.29 426.061
11.1619 -19.106 -1.32481 618.229 428.991
13.254 -17.6934 0.507891 625.815 436.016
-0.304693 -12.1413 -4.80935 568.29 450.416
-0.0272817 -9.05533 -7.8437 567.833 462.722
0.23805 -5.95262 -10.5843 567.306 475.116
0.484641 -2.84065 -12.8882 566.68 487.58
-2.03777 0.394632 -6.10525 554.449 499.88
-0.646679 0.683434 -7.05842 559.939 501.721
0.827857 0.7413 -7.90829 565.889 502.687
2.12116 0.529793 -6.86056 571.178 502.647
3.25782 0.0706759 -6.0139 575.981 501.504
-12.1251 -10.6074 -1.37236 519.634 450.408
-10.5789 -11.7369 -1.08424 526.48 446.734
-8.56457 -12.1482 -0.763055 534.818 446.218
-6.7843 -11.5435 -0.700403 541.662 449.644
-8.43433 -10.5051 -1.12458 534.453 452.88
-10.3399 -10.2202 -1.11668 526.61 452.978
4.57577 -12.1459 -0.320389 587.793 453.517
6.1645 -12.9799 -0.587835 594.671 451.006
8.17391 -13.0031 -0.964228 602.803 451.984
9.85496 -12.1287 -1.23488 609.112 456.411
8.21708 -11.3891 -0.900282 602.086 458.522
6.3255 -11.4086 -0.790376 594.463 457.41
-1.84144 10.3644 -2.86489 549.618 540.496
-1.57615 8.21827 -5.13525 551.963 531.772
-0.702904 6.26566 -6.6948 556.623 524.232
0.851245 6.36829 -8.49168 562.908 525.332
2.31245 6.13632 -6.48456 568.847 525.394
3.27867 8.00129 -4.95331 571.654 533.593
3.55231 10.2422 -2.67187 571.431 542.996
3.15835 11.2592 -4.00936 569.336 546.752
2.39874 12.0575 -5.3057 565.886 549.428
1.10566 12.4072 -6.95706 560.545 549.968
-0.197476 12.0672 -5.4499 555.416 548.022
-1.10079 11.2993 -4.03023 552.138 544.563
0.930363 8.60448 -4.99074 561.853 534.726
0.9708 8.28883 -6.86418 562.266 533.297
0.941061 8.74929 -4.65545 561.802 535.348
0.792723 9.14983 -4.32006 560.97 536.913
1.04052 9.41803 -5.85584 561.884 537.984
1.18332 9.00085 -4.5046 562.635 536.51
3 20 21 23
3 21 22 23
3 0 1 36
3 15 16 45
3 0 17 36
3 16 26 45
3 17 18 37
3 25 26 44
3 17 36 37
3 26 44 45
3 18 19 38
3 24 25 43
3 18 37 38
3 25 43 44
3 19 20 38
3 23 24 43
3 20 21 39
3 22 23 42
3 20 38 39
3 23 42 43
3 21 22 27
3 21 27 39
3 22 27 42
3 27 28 42
3 27 28 39
3 28 42 47
3 28 39 40
3 1 36 41
3 15 45 46
3 1 2 41
3 14 15 46
3 28 29 40
3 28 29 47
3 2 40 41
3 14 46 47
3 2 29 40
3 14 29 47
3 2 3 29
3 13 14 29
3 29 30 31
3 29 30 35
3 3 29 31
3 13 29 35
3 30 32 33
3 30 33 34
3 30 31 32
3 30 34 35
3 3 4 31
3 12 13 35
3 4 5 48
3 11 12 54
3 5 6 48
3 10 11 54
3 6 48 59
3 10 54 55
3 6 7 59
3 9 10 55
3 7 58 59
3 9 55 56
3 8 57 58
3 8 56 57
3 7 8 58
3 8 9 56
3 4 31 48
3 12 35 54
3 31 48 49
3 35 53 54
3 31 49 50
3 35 52 53
3 31 32 50
3 34 35 52
3 32 33 50
3 33 34 52
3 33 50 51
3 33 51 52
3 48 49 60
3 49 60 50
3 50 60 61
3 50 51 61
3 51 52 61
3 61 62 52
3 52 53 62
3 53 54 62
3 54 55 63
3 55 56 63
3 56 63 64
3 56 57 64
3 64 65 57
3 57 58 65
3 58 59 65
3 48 59 65
