ply
format ascii 1.0
element vertex 66
property float x
property float y
property float z
property float u
property float v
element face 91
property list uchar int vertex_indices
end_header
-20.7373 -5.17469 21.1829 476.165 464.108
-19.8846 -0.350882 20.6515 477.256 483.677
-18.7089 4.42772 20.3406 479.64 503.268
-17.1416 9.08104 18.3691 483.801 522.233
-14.928 13.3715 13.4363 490.992 539.5
-11.8598 17.0366 8.06158 501.944 554.609
-8.16158 20.0862 3.45407 515.645 567.72
-3.99366 22.4723 -0.821166 531.516 578.479
0.756021 23.2293 -4.46262 550.452 583.145
5.794 22.3558 -0.831947 570.673 582.846
10.0654 19.6764 3.41151 588.661 575.079
13.7014 16.1821 7.95134 604.483 563.803
16.654 12.0962 13.3174 617.79 549.987
18.5178 7.42842 18.3541 627.062 533.248
19.4787 2.46562 20.4061 633.145 514.312
19.91 -2.55549 20.8274 637.289 494.569
19.9173 -7.59319 21.2439 639.749 474.549
-17.2817 -14.4381 0.243194 496.423 424.822
-15.2086 -16.3326 -1.53814 505.796 417.944
-12.5044 -17.2943 -2.96268 517.2 415.168
-9.61071 -17.4268 -4.31227 528.948 415.809
-6.73202 -16.9992 -5.41781 540.339 418.725
3.70083 -17.7184 -5.31157 582.358 421.028
6.27374 -18.6104 -4.1265 592.965 418.967
8.97405 -18.9806 -2.77584 603.81 419.083
11.6762 -18.7141 -1.29842 614.339 421.765
14.0729 -17.527 0.512346 623.166 428.034
-0.491228 -11.8918 -4.78789 562.709 442.31
-0.10198 -8.56805 -7.79323 562.91 455.189
0.276344 -5.25225 -10.7587 563.068 468.038
0.632406 -1.93656 -13.3829 563.105 480.941
-2.57472 1.18119 -6.34514 548.123 493.152
-0.887104 1.56113 -7.30658 554.766 495.317
0.876715 1.6523 -8.14892 561.844 496.39
2.47855 1.32018 -7.20003 568.319 496.038
3.94314 0.683943 -6.39617 574.408 494.377
-12.3051 -10.129 -0.887565 514.295 444.259
-10.809 -11.3278 -0.988177 520.868 440.195
-8.85552 -11.6368 -1.04941 528.829 439.915
-7.11862 -10.9006 -1.05385 535.407 443.71
-8.74561 -10.0869 -1.12047 528.515 446.141
-10.5536 -9.83215 -1.05873 521.162 446.276
4.81203 -11.6695 -0.558677 583.399 446.63
6.35713 -12.7452 -0.917706 590.131 443.031
8.33004 -12.876 -0.940513 598.078 443.479
10.0466 -12.0049 -0.823548 604.498 447.826
8.41725 -11.3069 -0.855861 597.65 449.8
6.58355 -11.2364 -0.734075 590.279 449.199
-6.03774 9.13708 -2.81573 530.067 523.869
-4.03218 7.54618 -4.95511 539.054 518.1
-1.70105 6.31632 -6.56329 549.116 514.034
0.910056 6.45221 -8.34267 559.643 515.524
3.40724 6.01168 -6.49051 569.665 515.355
5.75632 6.94631 -4.86597 578.443 520.558
7.75509 8.30761 -2.59115 585.552 527.415
6.01816 10.1072 -4.0338 577.864 533.461
3.67062 11.2337 -5.14673 568.036 536.583
1.01389 11.6436 -6.53616 557.349 536.639
-1.59388 11.4561 -5.19286 546.9 534.862
-4.00945 10.6209 -3.95659 537.547 530.573
-1.25543 8.34918 -5.32731 549.787 522.604
0.981594 8.29237 -7.38075 558.939 523.088
3.07118 8.14771 -5.16498 567.155 523.968
3.06893 8.5655 -4.58751 566.888 525.745
0.961153 8.89639 -6.24453 558.458 525.706
-1.23032 8.7786 -4.60055 549.611 524.47
3 20 21 23
3 21 22 23
3 0 1 36
3 15 16 45
3 0 17 36
3 16 26 45
3 17 18 37
3 25 26 44
3 17 36 37
3 26 44 45
3 18 19 38
3 24 25 43
3 18 37 38
3 25 43 44
3 19 20 38
3 23 24 43
3 20 21 39
3 22 23 42
3 20 38 39
3 23 42 43
3 21 22 27
3 21 27 39
3 22 27 42
3 27 28 42
3 27 28 39
3 28 42 47
3 28 39 40
3 1 36 41
3 15 45 46
3 1 2 41
3 14 15 46
3 28 29 40
3 28 29 47
3 2 40 41
3 14 46 47
3 2 29 40
3 14 29 47
3 2 3 29
3 13 14 29
3 29 30 31
3 29 30 35
3 3 29 31
3 13 29 35
3 30 32 33
3 30 33 34
3 30 31 32
3 30 34 35
3 3 4 31
3 12 13 35
3 4 5 48
3 11 12 54
3 5 6 48
3 10 11 54
3 6 48 59
3 10 54 55
3 6 7 59
3 9 10 55
3 7 58 59
3 9 55 56
3 8 57 58
3 8 56 57
3 7 8 58
3 8 9 56
3 4 31 48
3 12 35 54
3 31 48 49
3 35 53 54
3 31 49 50
3 35 52 53
3 31 32 50
3 34 35 52
3 32 33 50
3 33 34 52
3 33 50 51
3 33 51 52
3 48 49 60
3 49 60 50
3 50 60 61
3 50 51 61
3 51 52 61
3 61 62 52
3 52 53 62
3 53 54 62
3 54 55 63
3 55 56 63
3 56 63 64
3 56 57 64
3 64 65 57
3 57 58 65
3 58 59 65
3 48 59 65
