ply
format ascii 1.0
element vertex 66
property float x
property float y
property float z
property float u
property float v
element face 91
property list uchar int vertex_indices
end_header
-21.1479 -5.9634 21.4198 477.948 464.433
-20.3497 -0.885115 20.8619 478.85 484.464
-19.2547 4.1566 20.5011 480.904 504.55
-17.7455 9.09555 18.4711 484.862 523.92
-15.5383 13.65 13.5008 492.141 541.221
-12.3016 17.4138 8.02722 503.88 555.759
-8.32972 20.3701 3.42457 518.741 567.748
-3.91262 22.5718 -0.81165 535.635 577.107
0.987077 23.2452 -4.5888 555.047 580.86
6.01331 22.2552 -0.875164 574.651 580.445
10.3305 19.5701 3.3662 592.172 573.243
14.05 16.1028 7.90154 607.667 562.798
17.087 12.0096 13.3356 620.646 549.866
19.0263 7.34059 18.3057 629.654 534.036
19.9702 2.45281 20.4622 635.26 516.039
20.3172 -2.46374 20.8642 638.79 497.123
20.2635 -7.39321 21.2846 640.754 477.976
-17.6342 -14.0719 0.190835 498.373 427.966
-15.4279 -16.3088 -1.59415 508.277 419.711
-12.4448 -17.487 -3.00607 520.69 416.063
-9.21265 -17.6223 -4.3096 533.59 416.636
-6.01156 -17.0305 -5.38422 546.007 420.103
2.98939 -17.4675 -5.26707 581.43 422.598
5.74627 -18.5063 -4.08746 592.528 420.175
8.67739 -18.9017 -2.77188 603.998 420.386
11.5923 -18.5326 -1.30855 615.037 423.62
14.1117 -17.1236 0.510162 624.007 430.839
-0.417543 -11.6036 -4.83383 565.372 444.051
-0.0942156 -8.33728 -7.81911 565.579 456.052
0.218551 -5.07753 -10.7746 565.744 468.031
0.517147 -1.82305 -13.4504 565.815 480.067
-2.70558 1.01268 -6.34659 550.91 491.801
-0.973723 1.42621 -7.28787 557.637 493.932
0.834877 1.52539 -8.16172 564.796 494.892
2.46868 1.19163 -7.17206 571.205 494.644
3.96022 0.526068 -6.37581 577.234 492.977
-12.3359 -9.57363 -0.953825 517.241 447.637
-10.7345 -10.6313 -1.09777 524.01 444.205
-8.76133 -10.9551 -1.16844 531.893 443.832
-6.90958 -10.3906 -1.07335 538.874 446.922
-8.63834 -9.71279 -1.13211 531.806 448.751
-10.488 -9.46014 -1.10716 524.446 448.889
4.72576 -11.0624 -0.677267 584.679 449.804
6.39977 -11.9121 -1.031 591.668 447.153
8.36769 -12.0201 -0.992382 599.416 447.654
10.1298 -11.2669 -0.781436 605.945 451.475
8.3874 -10.7637 -0.872978 598.907 452.606
6.53347 -10.7253 -0.771048 591.617 451.928
-6.84085 8.47563 -2.76529 530.833 520.114
-4.5256 7.00029 -4.91268 540.869 514.774
-1.91509 5.93191 -6.52718 551.802 511.321
0.907898 6.04757 -8.23169 563.043 512.563
3.60446 5.58877 -6.36926 573.546 512.584
6.20271 6.29672 -4.76741 583.172 517.036
8.48194 7.52201 -2.58115 591.233 523.538
6.6425 9.59164 -4.00424 583.294 530.338
4.07647 10.9139 -5.1555 572.81 533.965
1.1414 11.3966 -6.60343 561.304 534.052
-1.80975 11.203 -5.23399 549.644 532.345
-4.5472 10.2138 -3.96558 539.195 527.6
-1.78326 7.88057 -5.36538 551.271 519.344
1.02333 7.85107 -7.40587 562.561 519.91
3.68647 7.57908 -5.15364 572.794 520.762
3.82845 8.29369 -4.55618 572.942 523.799
1.07449 8.75178 -6.32648 562.201 523.778
-1.77914 8.61957 -4.61705 550.847 522.458
3 20 21 23
3 21 22 23
3 0 1 36
3 15 16 45
3 0 17 36
3 16 26 45
3 17 18 37
3 25 26 44
3 17 36 37
3 26 44 45
3 18 19 38
3 24 25 43
3 18 37 38
3 25 43 44
3 19 20 38
3 23 24 43
3 20 21 39
3 22 23 42
3 20 38 39
3 23 42 43
3 21 22 27
3 21 27 39
3 22 27 42
3 27 28 42
3 27 28 39
3 28 42 47
3 28 39 40
3 1 36 41
3 15 45 46
3 1 2 41
3 14 15 46
3 28 29 40
3 28 29 47
3 2 40 41
3 14 46 47
3 2 29 40
3 14 29 47
3 2 3 29
3 13 14 29
3 29 30 31
3 29 30 35
3 3 29 31
3 13 29 35
3 30 32 33
3 30 33 34
3 30 31 32
3 30 34 35
3 3 4 31
3 12 13 35
3 4 5 48
3 11 12 54
3 5 6 48
3 10 11 54
3 6 48 59
3 10 54 55
3 6 7 59
3 9 10 55
3 7 58 59
3 9 55 56
3 8 57 58
3 8 56 57
3 7 8 58
3 8 9 56
3 4 31 48
3 12 35 54
3 31 48 49
3 35 53 54
3 31 49 50
3 35 52 53
3 31 32 50
3 34 35 52
3 32 33 50
3 33 34 52
3 33 50 51
3 33 51 52
3 48 49 60
3 49 60 50
3 50 60 61
3 50 51 61
3 51 52 61
3 61 62 52
3 52 53 62
3 53 54 62
3 54 55 63
3 55 56 63
3 56 63 64
3 56 57 64
3 64 65 57
3 57 58 65
3 58 59 65
3 48 59 65
