ply
format ascii 1.0
element vertex 66
property float x
property float y
property float z
property float u
property float v
element face 91
property list uchar int vertex_indices
end_header
-20.5977 -5.89803 21.5228 478.252 465.776
-19.6883 -0.773488 20.953 479.363 486.776
-18.5046 4.31342 20.5661 481.573 507.821
-17.062 9.25821 18.4833 485.177 527.942
-15.0362 13.7523 13.5604 491.832 545.736
-11.9429 17.4218 8.05658 503.325 560.599
-8.06617 20.2897 3.36691 518.271 572.876
-3.72542 22.3908 -0.880802 535.421 582.432
1.10849 22.8789 -4.47323 555.297 585.926
6.02243 21.9084 -0.878922 575.094 585.644
10.1519 19.1634 3.37303 592.535 577.975
13.6439 15.689 7.97946 607.718 567.126
16.4926 11.7114 13.3797 620.432 554.134
18.3214 7.27144 18.2611 629.346 538.587
19.2207 2.61522 20.4246 635.05 520.894
19.6333 -2.11354 20.7748 639.116 502.128
19.6558 -6.85719 21.2074 641.599 483.119
-17.771 -14.6243 0.243517 497.642 425.93
-15.5513 -16.5975 -1.46893 507.918 418.649
-12.6777 -17.5487 -2.92644 520.269 415.911
-9.63634 -17.5999 -4.29503 532.816 416.921
-6.62642 -17.0447 -5.41795 544.882 420.431
4.04129 -17.6339 -5.32508 588.316 423.726
6.50456 -18.4594 -4.11281 598.511 422.047
9.10628 -18.8034 -2.74276 608.991 422.43
11.7224 -18.573 -1.23185 619.209 425.179
14.0325 -17.3922 0.600897 627.643 431.695
-0.30583 -11.4097 -4.84103 567.427 446.685
-0.0131263 -8.15633 -7.85973 567.41 459.102
0.26457 -4.91537 -10.8616 567.335 471.465
0.525143 -1.67456 -13.5396 567.139 483.913
-2.75075 1.22297 -6.40052 551.236 495.927
-0.969293 1.62201 -7.38601 558.392 498.197
0.88465 1.7254 -8.25672 565.977 499.345
2.51067 1.40594 -7.27603 572.561 499.198
4.00253 0.771711 -6.41656 578.785 497.676
-12.9107 -10.2382 -0.80048 515.191 445.904
-11.2905 -11.5298 -0.944024 522.436 441.508
-9.18741 -11.807 -1.1025 531.111 441.457
-7.38023 -10.7966 -1.06175 537.889 446.503
-9.14674 -10.0185 -1.10855 530.349 448.695
-11.0785 -9.82768 -1.04096 522.426 448.462
4.97792 -11.4346 -0.728057 588.147 450.565
6.53332 -12.6647 -0.997583 595.119 446.346
8.59975 -12.8497 -0.87055 603.552 446.729
10.3746 -11.824 -0.652197 610.162 451.871
8.70351 -11.0486 -0.836619 603.031 454.063
6.79943 -10.9782 -0.791246 595.287 453.353
-6.7085 8.86664 -2.80371 530.684 525.717
-4.3468 7.45829 -4.99086 541.318 520.653
-1.79255 6.38501 -6.64405 552.472 517.198
0.92982 6.51288 -8.43449 563.704 518.64
3.49811 6.05684 -6.47327 574.012 518.723
6.01785 6.76078 -4.83667 583.573 523.368
8.28162 7.95279 -2.61408 591.752 530.017
6.52232 9.9475 -3.99468 583.824 536.739
4.02142 11.1752 -5.11086 573.253 540.049
1.2014 11.6086 -6.50193 561.847 539.905
-1.67804 11.4457 -5.21194 550.078 538.095
-4.39781 10.5331 -4.03265 539.362 533.312
-1.63332 8.29168 -5.46544 551.937 525.316
1.06904 8.25946 -7.54538 563.218 526.018
3.6134 8.01917 -5.1836 573.252 527.075
3.74481 8.57856 -4.52019 573.386 529.593
1.1339 8.95103 -6.2055 562.905 529.229
-1.58643 8.87771 -4.65818 551.692 527.939
3 20 21 23
3 21 22 23
3 0 1 36
3 15 16 45
3 0 17 36
3 16 26 45
3 17 18 37
3 25 26 44
3 17 36 37
3 26 44 45
3 18 19 38
3 24 25 43
3 18 37 38
3 25 43 44
3 19 20 38
3 23 24 43
3 20 21 39
3 22 23 42
3 20 38 39
3 23 42 43
3 21 22 27
3 21 27 39
3 22 27 42
3 27 28 42
3 27 28 39
3 28 42 47
3 28 39 40
3 1 36 41
3 15 45 46
3 1 2 41
3 14 15 46
3 28 29 40
3 28 29 47
3 2 40 41
3 14 46 47
3 2 29 40
3 14 29 47
3 2 3 29
3 13 14 29
3 29 30 31
3 29 30 35
3 3 29 31
3 13 29 35
3 30 32 33
3 30 33 34
3 30 31 32
3 30 34 35
3 3 4 31
3 12 13 35
3 4 5 48
3 11 12 54
3 5 6 48
3 10 11 54
3 6 48 59
3 10 54 55
3 6 7 59
3 9 10 55
3 7 58 59
3 9 55 56
3 8 57 58
3 8 56 57
3 7 8 58
3 8 9 56
3 4 31 48
3 12 35 54
3 31 48 49
3 35 53 54
3 31 49 50
3 35 52 53
3 31 32 50
3 34 35 52
3 32 33 50
3 33 34 52
3 33 50 51
3 33 51 52
3 48 49 60
3 49 60 50
3 50 60 61
3 50 51 61
3 51 52 61
3 61 62 52
3 52 53 62
3 53 54 62
3 54 55 63
3 55 56 63
3 56 63 64
3 56 57 64
3 64 65 57
3 57 58 65
3 58 59 65
3 48 59 65
