ply
format ascii 1.0
element vertex 66
property float x
property float y
property float z
property float u
property float v
element face 91
property list uchar int vertex_indices
end_header
-20.815 -6.3688 21.6961 481.723 468.018
-19.899 -1.01731 21.0612 483.22 488.843
-18.7336 4.30675 20.62 485.657 509.735
-17.3697 9.50966 18.6154 489.211 529.699
-15.5013 14.2244 13.5269 495.506 546.917
-12.4394 17.9904 7.98659 506.894 560.818
-8.46999 20.7975 3.36887 522.011 571.721
-4.0115 22.7115 -0.873984 539.313 579.514
0.859956 23.1527 -4.60337 558.715 581.973
5.90068 22.1103 -0.825779 577.941 581.389
10.1137 19.2452 3.43634 594.608 573.589
13.6532 15.6193 7.92806 608.932 562.647
16.5705 11.5229 13.2983 620.868 549.932
18.5502 7.06546 18.1589 629.417 535.251
19.5633 2.47364 20.3266 634.791 518.705
19.9922 -2.17261 20.6416 638.278 501.059
19.9732 -6.83504 21.0098 640.027 483.179
-18.0992 -14.5476 0.220743 499.661 430.111
-15.7812 -16.769 -1.5432 509.877 421.899
-12.7188 -17.8826 -2.93591 522.457 418.406
-9.43995 -17.9209 -4.24156 535.422 419.186
-6.19318 -17.2419 -5.32116 547.928 422.801
3.37785 -17.4107 -5.33262 585.07 426.181
5.90145 -18.3848 -4.09551 595.003 423.915
8.61627 -18.811 -2.74377 605.433 423.885
11.3665 -18.6343 -1.25434 615.73 426.246
13.8331 -17.4572 0.558442 624.46 432.462
-0.105042 -11.4814 -4.84395 569.08 447.774
0.11422 -8.14141 -7.90089 569.157 459.696
0.313174 -4.80718 -10.8849 569.144 471.613
0.499178 -1.47088 -13.5155 569.012 483.656
-2.57121 1.26638 -6.39278 554.649 495.409
-0.817053 1.70009 -7.3563 561.451 497.487
1.02229 1.82204 -8.22801 568.693 498.43
2.59419 1.51926 -7.19308 574.706 498.284
4.01138 0.876 -6.39632 580.304 496.676
-12.7365 -10.0399 -0.926229 518.821 449.376
-11.0623 -11.1555 -1.05141 525.783 445.731
-8.9984 -11.4547 -1.11049 533.91 445.426
-7.13653 -10.6286 -1.00857 540.766 449.436
-8.94752 -9.96149 -1.12342 533.503 451.208
-10.8726 -9.78051 -1.07992 525.965 451.11
5.00566 -11.1454 -0.783008 587.963 452.64
6.60562 -12.1012 -1.02396 594.594 449.541
8.59001 -12.2526 -0.935982 602.325 449.824
10.3349 -11.374 -0.688145 608.679 454.037
8.64178 -10.7687 -0.853422 601.907 455.603
6.78502 -10.7473 -0.825687 594.702 454.912
-6.3518 8.77271 -2.81622 536.277 524.038
-4.13882 7.23194 -5.07245 545.904 518.238
-1.66747 6.05775 -6.69608 556.263 514.182
1.0206 6.167 -8.41825 566.959 515.137
3.55558 5.76749 -6.34827 576.545 515.385
5.96348 6.59162 -4.76801 585.235 520.132
8.01367 7.99514 -2.58112 592.189 527.176
6.3309 9.76243 -3.90604 585.206 532.828
3.97638 10.8396 -4.98787 575.856 535.617
1.31611 11.2001 -6.55037 565.704 535.343
-1.41846 11.0534 -5.20365 554.915 534.093
-4.03798 10.2618 -3.97437 544.855 530.36
-1.2793 8.07508 -5.46881 556.713 522.561
1.19838 8.04008 -7.38001 566.689 522.805
3.52747 7.87274 -5.0452 575.333 523.954
3.63673 8.21563 -4.43422 575.5 525.537
1.27891 8.49001 -6.2114 566.595 524.983
-1.18987 8.45681 -4.69822 556.758 524.34
3 20 21 23
3 21 22 23
3 0 1 36
3 15 16 45
3 0 17 36
3 16 26 45
3 17 18 37
3 25 26 44
3 17 36 37
3 26 44 45
3 18 19 38
3 24 25 43
3 18 37 38
3 25 43 44
3 19 20 38
3 23 24 43
3 20 21 39
3 22 23 42
3 20 38 39
3 23 42 43
3 21 22 27
3 21 27 39
3 22 27 42
3 27 28 42
3 27 28 39
3 28 42 47
3 28 39 40
3 1 36 41
3 15 45 46
3 1 2 41
3 14 15 46
3 28 29 40
3 28 29 47
3 2 40 41
3 14 46 47
3 2 29 40
3 14 29 47
3 2 3 29
3 13 14 29
3 29 30 31
3 29 30 35
3 3 29 31
3 13 29 35
3 30 32 33
3 30 33 34
3 30 31 32
3 30 34 35
3 3 4 31
3 12 13 35
3 4 5 48
3 11 12 54
3 5 6 48
3 10 11 54
3 6 48 59
3 10 54 55
3 6 7 59
3 9 10 55
3 7 58 59
3 9 55 56
3 8 57 58
3 8 56 57
3 7 8 58
3 8 9 56
3 4 31 48
3 12 35 54
3 31 48 49
3 35 53 54
3 31 49 50
3 35 52 53
3 31 32 50
3 34 35 52
3 32 33 50
3 33 34 52
3 33 50 51
3 33 51 52
3 48 49 60
3 49 60 50
3 50 60 61
3 50 51 61
3 51 52 61
3 61 62 52
3 52 53 62
3 53 54 62
3 54 55 63
3 55 56 63
3 56 63 64
3 56 57 64
3 64 65 57
3 57 58 65
3 58 59 65
3 48 59 65
