ply
format ascii 1.0
element vertex 66
property float x
property float y
property float z
property float u
property float v
element face 91
property list uchar int vertex_indices
end_header
-21.4592 -6.06512 21.0999 480.047 465.36
-20.8565 -0.880383 20.5156 479.868 484.685
-19.8762 4.26765 20.1649 481.085 504.127
-18.2588 9.28763 18.2885 484.895 522.948
-15.8654 13.9092 13.3116 492.116 539.741
-12.566 17.7892 7.87727 503.108 554.091
-8.57216 20.8983 3.31301 516.955 566.183
-4.09236 23.2299 -0.80844 532.932 575.763
0.915914 24.0763 -4.60523 551.548 580.195
6.15059 22.951 -0.749238 571.121 579.725
10.6136 20.1319 3.32259 588.613 572.669
14.3972 16.4496 7.79068 603.952 562.204
17.4863 12.1327 13.1652 616.915 549.322
19.5642 7.26106 18.1265 626.431 533.771
20.5901 2.16459 20.0891 632.47 515.977
20.7976 -2.94953 20.4733 635.647 497.247
20.5095 -8.06075 20.9116 636.976 478.304
-16.1276 -14.6445 0.0495527 506.245 429.866
-14.1375 -16.5866 -1.65246 514.754 423.129
-11.521 -17.7013 -2.94361 525.151 419.884
-8.65134 -17.9032 -4.21125 536.048 420.151
-5.79906 -17.4038 -5.32008 546.528 423.055
2.71873 -17.785 -5.17887 578.347 425.824
5.18702 -18.6843 -3.98932 587.82 424.049
7.80916 -18.9504 -2.73007 597.555 424.714
10.385 -18.5485 -1.40134 606.79 427.852
12.6597 -17.3524 0.311381 614.485 433.901
-0.396213 -11.603 -4.74205 563.765 447.343
-0.0788243 -8.5425 -7.70235 563.801 457.948
0.225882 -5.47666 -10.5731 563.776 468.594
0.513516 -2.41736 -13.1623 563.661 479.292
-2.52584 0.919272 -6.29985 550.027 492.23
-0.875601 1.33182 -7.10917 556.049 494.318
0.861988 1.4544 -7.84823 562.527 495.395
2.43338 1.11528 -6.89883 568.426 495.187
3.84113 0.467677 -6.24356 573.896 493.668
-11.906 -9.74203 -1.17699 519.719 449.711
-10.3672 -10.6389 -1.17444 525.866 447.137
-8.50214 -10.9971 -1.05375 532.955 446.753
-6.72139 -10.6595 -0.91662 539.396 448.91
-8.35045 -9.89249 -1.14573 533 450.891
-10.1398 -9.62943 -1.14232 526.224 450.997
4.53892 -11.2789 -0.47438 581.487 452.219
6.1797 -11.8899 -0.891729 587.921 450.628
8.04787 -11.9335 -1.06896 594.904 451.321
9.71863 -11.3268 -1.03282 600.818 454.392
8.05147 -10.8509 -0.90583 594.381 455.382
6.259 -10.8389 -0.764423 587.699 454.598
-4.62764 9.03213 -2.76393 537.95 522.322
-3.29047 7.22131 -4.93008 544.021 515.615
-1.42464 5.81209 -6.5261 551.801 510.823
0.875876 5.91671 -8.20638 560.482 511.825
3.0842 5.56764 -6.30024 568.648 512.176
4.98817 6.74583 -4.72667 574.989 517.937
6.33589 8.45282 -2.51872 578.941 525.576
5.04885 9.92929 -3.9214 573.603 530.001
3.25674 10.9341 -5.1221 566.593 532.493
1.06551 11.3251 -6.70426 558.435 532.403
-1.1069 11.0839 -5.28847 550.325 530.877
-3.00929 10.2779 -3.94302 543.495 527.37
-0.736635 7.86951 -5.058 553.214 519.219
0.976254 7.75963 -7.0441 559.847 519.049
2.58092 7.75507 -4.75722 565.564 520.497
2.59273 8.39442 -4.38472 565.262 522.982
1.0222 8.80071 -6.16658 559.424 523.191
-0.636411 8.51822 -4.53118 553.219 521.828
3 20 21 23
3 21 22 23
3 0 1 36
3 15 16 45
3 0 17 36
3 16 26 45
3 17 18 37
3 25 26 44
3 17 36 37
3 26 44 45
3 18 19 38
3 24 25 43
3 18 37 38
3 25 43 44
3 19 20 38
3 23 24 43
3 20 21 39
3 22 23 42
3 20 38 39
3 23 42 43
3 21 22 27
3 21 27 39
3 22 27 42
3 27 28 42
3 27 28 39
3 28 42 47
3 28 39 40
3 1 36 41
3 15 45 46
3 1 2 41
3 14 15 46
3 28 29 40
3 28 29 47
3 2 40 41
3 14 46 47
3 2 29 40
3 14 29 47
3 2 3 29
3 13 14 29
3 29 30 31
3 29 30 35
3 3 29 31
3 13 29 35
3 30 32 33
3 30 33 34
3 30 31 32
3 30 34 35
3 3 4 31
3 12 13 35
3 4 5 48
3 11 12 54
3 5 6 48
3 10 11 54
3 6 48 59
3 10 54 55
3 6 7 59
3 9 10 55
3 7 58 59
3 9 55 56
3 8 57 58
3 8 56 57
3 7 8 58
3 8 9 56
3 4 31 48
3 12 35 54
3 31 48 49
3 35 53 54
3 31 49 50
3 35 52 53
3 31 32 50
3 34 35 52
3 32 33 50
3 33 34 52
3 33 50 51
3 33 51 52
3 48 49 60
3 49 60 50
3 50 60 61
3 50 51 61
3 51 52 61
3 61 62 52
3 52 53 62
3 53 54 62
3 54 55 63
3 55 56 63
3 56 63 64
3 56 57 64
3 64 65 57
3 57 58 65
3 58 59 65
3 48 59 65
