ply
format ascii 1.0
element vertex 66
property float x
property float y
property float z
property float u
property float v
element face 91
property list uchar int vertex_indices
end_header
-21.0542 -5.83991 21.6411 478.428 465.764
-20.1882 -0.707275 21.0522 479.741 486.106
-19.0705 4.40221 20.6918 481.997 506.506
-17.7323 9.39037 18.5529 485.559 526.234
-15.7931 13.9463 13.5285 492.291 544.058
-12.6285 17.5866 8.02467 504.31 558.76
-8.58771 20.2854 3.44017 519.952 570.32
-4.09286 22.1312 -0.845738 537.667 578.794
0.775584 22.5622 -4.52951 557.316 582.002
5.85935 21.7274 -0.852133 576.722 581.577
10.2987 19.2079 3.43928 594.197 574.386
14.1205 15.8554 7.93415 609.571 563.703
17.1897 11.8507 13.3475 622.083 550.293
19.0365 7.27985 18.3191 630.159 534.061
19.8985 2.49144 20.5854 635.078 516.099
20.2664 -2.36259 20.946 638.517 497.349
20.2327 -7.2296 21.3439 640.384 478.378
-18.0998 -14.0427 0.23617 498.216 431.454
-15.858 -16.1604 -1.56352 508.28 423.862
-12.9203 -17.2442 -2.98516 520.535 420.678
-9.77272 -17.3764 -4.28731 533.176 421.326
-6.63903 -16.8786 -5.3554 545.441 424.468
3.87969 -17.4399 -5.29938 586.762 426.893
6.45441 -18.3237 -4.11079 596.937 424.764
9.17984 -18.692 -2.77871 607.448 424.74
11.9226 -18.4671 -1.27298 617.734 427.07
14.3862 -17.2812 0.573139 626.442 433.091
-0.252597 -11.3439 -4.84206 567.904 448.983
0.055573 -7.94449 -7.89861 568.326 461.898
0.348054 -4.55731 -10.9486 568.69 474.76
0.620354 -1.16757 -13.636 568.895 487.682
-2.77906 1.57935 -6.48411 552.856 498.113
-0.93747 2.01665 -7.43834 560.074 500.471
0.984449 2.13763 -8.2802 567.717 501.647
2.67281 1.79035 -7.32319 574.25 501.188
4.22244 1.10521 -6.52801 580.422 499.321
-12.8829 -9.7681 -0.793359 516.992 450.277
-11.215 -11.0516 -1.04611 524.114 445.95
-9.08897 -11.3266 -1.21415 532.574 445.779
-7.20826 -10.3466 -1.11606 539.48 450.45
-9.02972 -9.63018 -1.14123 532.062 452.447
-10.9884 -9.4321 -1.07657 524.311 452.374
5.03618 -11.0397 -0.744206 587.53 453.169
6.65453 -12.2779 -1.09711 594.461 448.98
8.74588 -12.4872 -0.957741 602.69 449.102
10.5824 -11.5028 -0.637161 609.372 453.807
8.8508 -10.7614 -0.853793 602.337 455.91
6.915 -10.6724 -0.789809 594.722 455.42
-7.25051 8.5221 -2.81409 531.601 523.895
-4.69375 7.0595 -5.01019 542.701 518.936
-1.93008 6.04649 -6.6494 554.294 515.916
0.9525 6.18282 -8.37299 565.878 517.427
3.67736 5.70731 -6.46739 576.306 517.079
6.37841 6.34021 -4.83327 586.226 521.007
8.81559 7.56024 -2.58394 594.727 527.216
6.72839 9.3428 -3.91122 586.102 533.048
3.99272 10.3291 -5.02021 575.237 535.52
1.10014 10.6335 -6.45289 564.123 535.205
-1.80201 10.5854 -5.12484 552.512 533.965
-4.69228 9.94789 -3.89105 541.221 530.411
-1.81154 7.98964 -5.53377 553.678 523.748
1.0769 8.02641 -7.48495 565.378 524.834
3.78279 7.70847 -5.24822 575.591 525.148
3.84844 7.83919 -4.55276 575.637 525.803
1.06721 8.03487 -6.29608 565.073 525.06
-1.80491 8.15371 -4.68158 553.445 524.533
3 20 21 23
3 21 22 23
3 0 1 36
3 15 16 45
3 0 17 36
3 16 26 45
3 17 18 37
3 25 26 44
3 17 36 37
3 26 44 45
3 18 19 38
3 24 25 43
3 18 37 38
3 25 43 44
3 19 20 38
3 23 24 43
3 20 21 39
3 22 23 42
3 20 38 39
3 23 42 43
3 21 22 27
3 21 27 39
3 22 27 42
3 27 28 42
3 27 28 39
3 28 42 47
3 28 39 40
3 1 36 41
3 15 45 46
3 1 2 41
3 14 15 46
3 28 29 40
3 28 29 47
3 2 40 41
3 14 46 47
3 2 29 40
3 14 29 47
3 2 3 29
3 13 14 29
3 29 30 31
3 29 30 35
3 3 29 31
3 13 29 35
3 30 32 33
3 30 33 34
3 30 31 32
3 30 34 35
3 3 4 31
3 12 13 35
3 4 5 48
3 11 12 54
3 5 6 48
3 10 11 54
3 6 48 59
3 10 54 55
3 6 7 59
3 9 10 55
3 7 58 59
3 9 55 56
3 8 57 58
3 8 56 57
3 7 8 58
3 8 9 56
3 4 31 48
3 12 35 54
3 31 48 49
3 35 53 54
3 31 49 50
3 35 52 53
3 31 32 50
3 34 35 52
3 32 33 50
3 33 34 52
3 33 50 51
3 33 51 52
3 48 49 60
3 49 60 50
3 50 60 61
3 50 51 61
3 51 52 61
3 61 62 52
3 52 53 62
3 53 54 62
3 54 55 63
3 55 56 63
3 56 63 64
3 56 57 64
3 64 65 57
3 57 58 65
3 58 59 65
3 48 59 65
