ply
format ascii 1.0
element vertex 66
property float x
property float y
property float z
property float u
property float v
element face 91
property list uchar int vertex_indices
end_header
-20.6528 -5.91329 21.582 479.543 467.954
-19.7487 -0.75115 20.9868 481.181 488.673
-18.5814 4.37995 20.5892 483.841 509.431
-17.1737 9.35672 18.5377 487.84 529.232
-15.219 13.8544 13.5162 494.784 546.558
-12.1825 17.5218 8.03273 506.454 560.91
-8.33556 20.3791 3.36682 521.515 572.6
-4.00202 22.4466 -0.885773 538.748 581.465
0.822232 22.9583 -4.5457 558.443 584.513
5.88293 22.0658 -0.842832 578.212 584.058
10.1515 19.3408 3.39845 595.463 576.141
13.7253 15.8064 7.95614 610.213 564.807
16.6252 11.7592 13.323 622.331 551.373
18.4796 7.2606 18.2854 630.55 535.605
19.3968 2.52581 20.4252 635.685 517.753
19.7933 -2.29315 20.7811 639.128 498.871
19.7714 -7.1233 21.1906 640.902 479.786
-17.9634 -14.5342 0.300595 497.836 429.108
-15.777 -16.5739 -1.47569 507.697 421.435
-12.9123 -17.5597 -2.90828 519.766 418.321
-9.87017 -17.6026 -4.25418 532.146 419.049
-6.86273 -17.026 -5.34889 544.09 422.291
4.08724 -17.5379 -5.32327 587.846 424.8
6.54107 -18.4047 -4.11769 597.721 422.697
9.1496 -18.7741 -2.76086 607.982 422.675
11.781 -18.5481 -1.2557 618.066 425.067
14.1094 -17.3455 0.620734 626.481 431.312
-0.210984 -11.2765 -4.83366 568.139 448.023
0.0994973 -7.95702 -7.92698 568.642 460.506
0.389541 -4.64355 -10.9301 569.048 472.981
0.658631 -1.32379 -13.5325 569.29 485.579
-2.61081 1.35392 -6.45431 553.835 496.763
-0.822573 1.74479 -7.41037 560.977 498.799
1.03734 1.84668 -8.23499 568.494 499.753
2.64501 1.53589 -7.28663 574.83 499.439
4.11846 0.910966 -6.49177 580.788 497.78
-12.9909 -10.1164 -0.832391 516.061 448.412
-11.2667 -11.4115 -0.981796 523.469 443.942
-9.07481 -11.6868 -1.1171 532.324 443.72
-7.17886 -10.6492 -1.04247 539.435 448.646
-9.0487 -9.89464 -1.11818 531.708 450.849
-11.069 -9.71145 -1.05181 523.586 450.758
4.78873 -11.2151 -0.691786 587.198 451.45
6.41591 -12.476 -1.03908 594.244 447.022
8.5604 -12.6818 -0.943046 602.838 447.119
10.4322 -11.6753 -0.718756 609.836 451.952
8.68356 -10.8883 -0.862798 602.592 454.315
6.70064 -10.8051 -0.789861 594.657 453.844
-6.42074 8.66142 -2.787 535.033 525.196
-4.18496 7.15101 -5.0248 544.967 519.521
-1.68889 6.05177 -6.67663 555.659 515.745
0.986959 6.17523 -8.48339 566.604 516.859
3.50791 5.75879 -6.47441 576.408 516.788
5.94926 6.52065 -4.83671 585.495 521.266
8.05746 7.85261 -2.55332 592.903 528.043
6.36496 9.78583 -3.93318 585.662 534.65
3.95491 10.9899 -5.06803 575.812 538.13
1.20247 11.3871 -6.55669 564.993 538.168
-1.58766 11.2074 -5.1998 553.704 536.663
-4.19542 10.2879 -3.95638 543.458 532.264
-1.59019 7.95903 -5.4597 555.049 523.689
1.10918 7.90357 -7.48903 566.203 524.042
3.64036 7.72588 -5.13624 575.885 525.016
3.77004 8.43606 -4.46755 575.986 528.07
1.17484 8.79687 -6.14889 565.845 527.977
-1.53762 8.70116 -4.63177 554.799 526.881
3 20 21 23
3 21 22 23
3 0 1 36
3 15 16 45
3 0 17 36
3 16 26 45
3 17 18 37
3 25 26 44
3 17 36 37
3 26 44 45
3 18 19 38
3 24 25 43
3 18 37 38
3 25 43 44
3 19 20 38
3 23 24 43
3 20 21 39
3 22 23 42
3 20 38 39
3 23 42 43
3 21 22 27
3 21 27 39
3 22 27 42
3 27 28 42
3 27 28 39
3 28 42 47
3 28 39 40
3 1 36 41
3 15 45 46
3 1 2 41
3 14 15 46
3 28 29 40
3 28 29 47
3 2 40 41
3 14 46 47
3 2 29 40
3 14 29 47
3 2 3 29
3 13 14 29
3 29 30 31
3 29 30 35
3 3 29 31
3 13 29 35
3 30 32 33
3 30 33 34
3 30 31 32
3 30 34 35
3 3 4 31
3 12 13 35
3 4 5 48
3 11 12 54
3 5 6 48
3 10 11 54
3 6 48 59
3 10 54 55
3 6 7 59
3 9 10 55
3 7 58 59
3 9 55 56
3 8 57 58
3 8 56 57
3 7 8 58
3 8 9 56
3 4 31 48
3 12 35 54
3 31 48 49
3 35 53 54
3 31 49 50
3 35 52 53
3 31 32 50
3 34 35 52
3 32 33 50
3 33 34 52
3 33 50 51
3 33 51 52
3 48 49 60
3 49 60 50
3 50 60 61
3 50 51 61
3 51 52 61
3 61 62 52
3 52 53 62
3 53 54 62
3 54 55 63
3 55 56 63
3 56 63 64
3 56 57 64
3 64 65 57
3 57 58 65
3 58 59 65
3 48 59 65
