ply
format ascii 1.0
element vertex 66
property float x
property float y
property float z
property float u
property float v
element face 91
property list uchar int vertex_indices
end_header
-21.049 -5.83658 21.4138 477.575 461.465
-20.2545 -0.743619 20.8339 478.312 481.873
-19.1597 4.31724 20.491 480.201 502.336
-17.6894 9.23486 18.4839 483.98 522.205
-15.5801 13.7095 13.435 491.118 540.252
-12.4295 17.3859 8.00561 502.833 555.623
-8.49705 20.2353 3.41698 517.865 568.233
-4.1009 22.3138 -0.813136 535.032 578.08
0.766064 22.9109 -4.55588 554.686 582.385
5.86906 22.0201 -0.828672 574.477 581.909
10.2386 19.3929 3.40201 592.131 574.284
13.9825 15.9617 7.90266 607.661 563.209
17.0172 11.9133 13.2728 620.521 549.459
18.9693 7.31714 18.2776 629.46 532.959
19.9466 2.45705 20.4297 635.27 514.56
20.3121 -2.47697 20.8006 639.069 495.332
20.2411 -7.42148 21.1911 641.149 475.847
-17.7156 -14.2154 0.22906 499.178 427.338
-15.5695 -16.396 -1.57114 509.081 419.578
-12.6743 -17.5072 -2.95826 521.325 416.465
-9.55398 -17.6018 -4.27145 533.939 417.483
-6.46479 -17.0313 -5.36437 546.057 421.137
3.31905 -17.4328 -5.29099 584.804 424.459
5.95753 -18.4557 -4.07719 595.46 421.902
8.77371 -18.8967 -2.7397 606.504 421.746
11.6067 -18.6232 -1.28571 617.238 424.431
14.0944 -17.3081 0.514899 626.027 431.096
-0.348485 -11.4004 -4.85188 567.282 446.471
-0.041938 -8.19109 -7.86671 567.523 458.89
0.251214 -4.98557 -10.8054 567.698 471.297
0.529719 -1.77777 -13.3896 567.741 483.752
-2.55347 1.15382 -6.34986 552.703 494.685
-0.866585 1.53912 -7.29797 559.356 496.925
0.896262 1.63118 -8.14922 566.433 498.06
2.47931 1.31992 -7.15835 572.623 497.753
3.92038 0.692483 -6.3804 578.454 496.101
-12.5245 -9.8259 -0.975015 517.72 447.091
-10.9038 -11.0023 -1.06621 524.707 443.251
-8.84993 -11.3005 -1.09138 532.955 443.099
-7.01406 -10.5157 -0.999965 539.785 447.125
-8.76675 -9.74176 -1.14145 532.524 449.282
-10.6769 -9.5175 -1.10657 524.877 449.215
4.90038 -11.1869 -0.621039 587 450.489
6.51699 -12.2335 -0.968864 593.96 447.125
8.55038 -12.3744 -0.96271 602.043 447.587
10.3368 -11.5049 -0.795496 608.621 451.932
8.63144 -10.8135 -0.870453 601.573 453.796
6.73126 -10.7506 -0.780768 594.034 453.105
-5.905 8.92627 -2.83069 534.939 524.118
-3.95353 7.25048 -5.02314 543.905 518.201
-1.6497 5.96486 -6.62809 553.949 514.075
0.951566 6.06153 -8.36517 564.509 515.532
3.43902 5.67007 -6.41739 574.108 515.486
5.75274 6.64832 -4.82937 582.421 520.708
7.67494 8.13717 -2.61308 588.809 527.829
6.0157 9.85728 -3.97511 581.699 533.606
3.74786 10.9373 -5.12138 572.462 536.582
1.15284 11.3155 -6.62809 562.355 536.579
-1.43511 11.1552 -5.24623 551.951 534.831
-3.84195 10.3597 -3.94105 542.59 530.659
-1.22365 7.99343 -5.3553 554.367 522.454
1.06528 7.89124 -7.31297 563.839 522.942
3.23082 7.78593 -5.1018 571.975 523.897
3.28006 8.35355 -4.51414 571.769 526.237
1.10525 8.67462 -6.19902 563.383 526.196
-1.15565 8.58034 -4.61264 554.193 524.899
3 20 21 23
3 21 22 23
3 0 1 36
3 15 16 45
3 0 17 36
3 16 26 45
3 17 18 37
3 25 26 44
3 17 36 37
3 26 44 45
3 18 19 38
3 24 25 43
3 18 37 38
3 25 43 44
3 19 20 38
3 23 24 43
3 20 21 39
3 22 23 42
3 20 38 39
3 23 42 43
3 21 22 27
3 21 27 39
3 22 27 42
3 27 28 42
3 27 28 39
3 28 42 47
3 28 39 40
3 1 36 41
3 15 45 46
3 1 2 41
3 14 15 46
3 28 29 40
3 28 29 47
3 2 40 41
3 14 46 47
3 2 29 40
3 14 29 47
3 2 3 29
3 13 14 29
3 29 30 31
3 29 30 35
3 3 29 31
3 13 29 35
3 30 32 33
3 30 33 34
3 30 31 32
3 30 34 35
3 3 4 31
3 12 13 35
3 4 5 48
3 11 12 54
3 5 6 48
3 10 11 54
3 6 48 59
3 10 54 55
3 6 7 59
3 9 10 55
3 7 58 59
3 9 55 56
3 8 57 58
3 8 56 57
3 7 8 58
3 8 9 56
3 4 31 48
3 12 35 54
3 31 48 49
3 35 53 54
3 31 49 50
3 35 52 53
3 31 32 50
3 34 35 52
3 32 33 50
3 33 34 52
3 33 50 51
3 33 51 52
3 48 49 60
3 49 60 50
3 50 60 61
3 50 51 61
3 51 52 61
3 61 62 52
3 52 53 62
3 53 54 62
3 54 55 63
3 55 56 63
3 56 63 64
3 56 57 64
3 64 65 57
3 57 58 65
3 58 59 65
3 48 59 65
