ply
format ascii 1.0
element vertex 66
property float x
property float y
property float z
property float u
property float v
element face 91
property list uchar int vertex_indices
end_header
-18.9798 -6.53947 21.0902 466.156 543.015
-18.3135 -1.04294 20.6495 468.591 568.275
-17.3262 4.40644 20.1571 472.506 593.367
-15.9654 9.70421 18.39 478.41 618.066
-14.1565 14.5907 13.5136 487.056 641.557
-11.4473 18.8452 7.91923 500.04 662.412
-7.83378 22.3724 3.14149 517.075 679.892
-3.49795 24.9472 -0.877624 537.372 692.958
1.54419 25.5308 -4.67689 561.1 696.973
6.62222 24.1481 -0.638888 583.62 690.458
10.517 20.6347 3.35882 601.017 674.083
13.4205 16.2761 8.06555 613.851 653.592
15.5251 11.5819 13.5211 622.924 631.326
16.9548 6.7747 18.2067 629.092 608.617
17.7232 1.87818 19.9464 632.862 586.007
17.8982 -3.06727 20.2463 634.227 563.391
17.6224 -8.00925 20.5757 633.528 540.731
-15.7408 -15.7416 0.201854 486.436 505.54
-14.023 -17.6692 -1.52154 494.879 497.285
-11.6154 -18.6733 -2.87051 506.276 493.254
-9.00467 -18.7855 -4.23414 518.49 493.321
-6.42249 -18.2654 -5.43949 530.46 496.24
3.98136 -18.6046 -5.48567 578.003 495.93
6.11522 -19.2255 -4.20561 587.557 493.092
8.36805 -19.3312 -2.82515 597.569 492.602
10.5472 -18.7752 -1.42151 607.154 495.118
12.2524 -17.3367 0.417696 614.374 501.521
-0.353554 -12.2574 -4.87784 557.283 524.274
-0.186835 -9.55154 -7.71054 558.286 537.21
-0.0365023 -6.84292 -10.4242 559.19 550.133
0.104803 -4.14319 -12.9547 560.016 562.978
-2.42313 -0.171631 -6.0561 546.543 579.439
-0.942572 -0.0449052 -6.9888 553.479 580.378
0.570804 -0.0495271 -7.91252 560.579 580.719
1.90001 -0.182781 -6.83777 566.44 580.054
3.14757 -0.462255 -5.93469 571.984 578.746
-11.5904 -10.887 -1.2687 505.068 528.485
-10.0827 -12.0427 -1.10562 512.064 523.355
-8.09396 -12.3493 -0.910542 521.14 522.151
-6.38485 -11.5749 -0.639785 528.788 525.834
-8.00283 -10.5651 -1.01881 521.352 530.329
-9.87893 -10.3423 -1.02161 512.76 531.125
4.29284 -11.9625 -0.583838 577.566 525.315
5.81728 -12.8062 -0.864118 584.69 521.699
7.74969 -12.8272 -1.05901 593.554 521.87
9.30044 -11.8207 -1.18132 600.53 526.673
7.74048 -11.0717 -0.9389 593.263 529.86
5.92478 -11.1395 -0.917389 584.979 529.332
-3.37063 10.3324 -2.75587 540.2 626.625
-2.52258 8.29883 -5.07284 544.809 617.902
-1.19987 6.42325 -6.72724 551.428 609.825
0.739903 6.48523 -8.37337 560.615 610.664
2.5945 6.23695 -6.46603 568.718 609.37
4.02244 7.94011 -4.83563 574.682 616.99
4.88872 9.99669 -2.5772 577.907 626.033
4.21008 11.4614 -3.97984 574.913 632.918
2.98605 12.5293 -5.30389 569.464 637.912
1.19564 12.9698 -6.92857 561.572 640.034
-0.706682 12.6602 -5.51954 552.636 638.116
-2.19531 11.6934 -4.18174 545.687 633.261
-0.375612 8.8042 -4.93241 554.516 620.435
0.91313 8.43651 -6.98244 560.87 619.316
2.16305 8.75618 -4.55781 566.033 620.441
2.19311 9.65798 -4.23191 565.988 624.497
1.08178 10.0762 -6.03332 561.235 626.633
-0.150326 9.71318 -4.53767 555.347 624.533
3 20 21 23
3 21 22 23
3 0 1 36
3 15 16 45
3 0 17 36
3 16 26 45
3 17 18 37
3 25 26 44
3 17 36 37
3 26 44 45
3 18 19 38
3 24 25 43
3 18 37 38
3 25 43 44
3 19 20 38
3 23 24 43
3 20 21 39
3 22 23 42
3 20 38 39
3 23 42 43
3 21 22 27
3 21 27 39
3 22 27 42
3 27 28 42
3 27 28 39
3 28 42 47
3 28 39 40
3 1 36 41
3 15 45 46
3 1 2 41
3 14 15 46
3 28 29 40
3 28 29 47
3 2 40 41
3 14 46 47
3 2 29 40
3 14 29 47
3 2 3 29
3 13 14 29
3 29 30 31
3 29 30 35
3 3 29 31
3 13 29 35
3 30 32 33
3 30 33 34
3 30 31 32
3 30 34 35
3 3 4 31
3 12 13 35
3 4 5 48
3 11 12 54
3 5 6 48
3 10 11 54
3 6 48 59
3 10 54 55
3 6 7 59
3 9 10 55
3 7 58 59
3 9 55 56
3 8 57 58
3 8 56 57
3 7 8 58
3 8 9 56
3 4 31 48
3 12 35 54
3 31 48 49
3 35 53 54
3 31 49 50
3 35 52 53
3 31 32 50
3 34 35 52
3 32 33 50
3 33 34 52
3 33 50 51
3 33 51 52
3 48 49 60
3 49 60 50
3 50 60 61
3 50 51 61
3 51 52 61
3 61 62 52
3 52 53 62
3 53 54 62
3 54 55 63
3 55 56 63
3 56 63 64
3 56 57 64
3 64 65 57
3 57 58 65
3 58 59 65
3 48 59 65
