ply
format ascii 1.0
element vertex 66
property float x
property float y
property float z
property float u
property float v
element face 91
property list uchar int vertex_indices
end_header
-20.0745 -6.66275 21.4525 465.982 542.563
-19.4094 -1.19799 21.2114 468.079 566.303
-18.4798 4.20382 20.6444 471.383 589.804
-17.2908 9.62301 18.4291 476.08 613.394
-15.4648 14.8954 13.5247 483.997 636.402
-12.2985 19.3438 7.8838 497.954 656.035
-8.14754 22.7911 3.27787 516.146 671.501
-3.35188 25.0944 -0.931315 537.232 682.121
1.87907 25.691 -4.79204 560.397 685.427
7.01959 24.3779 -0.753521 582.149 680.583
11.4206 21.3147 3.46305 600.937 668.059
14.8634 17.1228 8.07526 615.685 650.514
17.2014 12.1845 13.6962 625.601 629.588
18.254 6.84987 18.4795 630.159 606.742
18.643 1.6273 20.6249 632.267 584.239
18.7254 -3.50396 21.0499 633.321 562.058
18.4867 -8.64171 21.2811 633.02 539.798
-16.5966 -14.3876 0.123418 485.705 509.328
-14.6433 -16.0832 -1.65799 494.699 502.258
-12.1077 -16.8854 -3.0906 506.018 499.146
-9.40854 -16.9761 -4.43553 517.924 499.138
-6.71181 -16.554 -5.56727 529.707 501.352
4.17614 -16.9356 -5.63449 576.847 501.337
6.62263 -17.5617 -4.42673 587.318 499.016
9.13325 -17.7387 -3.06112 597.973 498.649
11.5731 -17.3273 -1.59652 608.217 500.819
13.5937 -16.0269 0.282053 616.447 506.779
-0.547424 -11.8698 -4.86348 555.54 522.556
-0.31666 -8.94005 -7.73868 556.575 535.221
-0.0989952 -6.01485 -10.6365 557.558 547.864
0.11399 -3.10999 -13.3875 558.499 560.42
-3.08029 0.213361 -6.23282 543.008 574.431
-1.33585 0.536767 -7.1857 550.659 576.078
0.451916 0.659455 -8.15832 558.531 576.862
2.10163 0.322732 -7.10298 565.538 575.67
3.66474 -0.214711 -6.10887 572.212 573.595
-12.3575 -9.90222 -0.966984 503.541 529.354
-10.8089 -11.2586 -1.2565 510.487 523.714
-8.72165 -11.5276 -1.35013 519.567 522.863
-6.89424 -10.6051 -0.972245 527.267 527.135
-8.60031 -9.64907 -1.01339 519.755 531.014
-10.5366 -9.40867 -0.97668 511.341 531.763
5.01403 -11.1425 -0.960451 578.829 526.601
6.67897 -12.1899 -1.31368 586.242 522.314
8.73174 -12.2054 -1.22172 595.104 522.557
10.3746 -11.0258 -0.904827 601.978 527.913
8.66296 -10.3379 -0.934463 594.48 530.631
6.75931 -10.3843 -0.97329 586.263 530.143
-7.07876 8.51108 -2.65821 523.887 609.786
-5.04265 6.45239 -4.89125 533.368 601.15
-2.42708 5.04088 -6.58102 545.167 595.41
0.563214 5.16251 -8.02904 558.316 596.363
3.46607 4.69376 -6.41745 570.67 594.797
6.17145 5.76735 -4.71975 581.924 599.875
8.33771 7.6257 -2.53302 590.65 608.276
6.34084 9.40026 -3.77727 581.957 615.633
3.72836 10.3488 -5.13073 570.744 619.323
0.966336 10.7198 -6.68285 559.005 620.488
-1.89294 10.6513 -5.2724 546.42 619.784
-4.67496 9.99418 -3.95088 534.272 616.544
-2.07382 7.36602 -5.18857 546.115 605.545
0.732563 7.38364 -7.13509 558.568 606.012
3.46564 7.06563 -4.95774 570.071 605.082
3.5398 7.54433 -4.40473 570.229 607.173
0.811121 7.84892 -6.36845 558.711 608.049
-1.99037 7.84078 -4.59434 546.307 607.621
3 20 21 23
3 21 22 23
3 0 1 36
3 15 16 45
3 0 17 36
3 16 26 45
3 17 18 37
3 25 26 44
3 17 36 37
3 26 44 45
3 18 19 38
3 24 25 43
3 18 37 38
3 25 43 44
3 19 20 38
3 23 24 43
3 20 21 39
3 22 23 42
3 20 38 39
3 23 42 43
3 21 22 27
3 21 27 39
3 22 27 42
3 27 28 42
3 27 28 39
3 28 42 47
3 28 39 40
3 1 36 41
3 15 45 46
3 1 2 41
3 14 15 46
3 28 29 40
3 28 29 47
3 2 40 41
3 14 46 47
3 2 29 40
3 14 29 47
3 2 3 29
3 13 14 29
3 29 30 31
3 29 30 35
3 3 29 31
3 13 29 35
3 30 32 33
3 30 33 34
3 30 31 32
3 30 34 35
3 3 4 31
3 12 13 35
3 4 5 48
3 11 12 54
3 5 6 48
3 10 11 54
3 6 48 59
3 10 54 55
3 6 7 59
3 9 10 55
3 7 58 59
3 9 55 56
3 8 57 58
3 8 56 57
3 7 8 58
3 8 9 56
3 4 31 48
3 12 35 54
3 31 48 49
3 35 53 54
3 31 49 50
3 35 52 53
3 31 32 50
3 34 35 52
3 32 33 50
3 33 34 52
3 33 50 51
3 33 51 52
3 48 49 60
3 49 60 50
3 50 60 61
3 50 51 61
3 51 52 61
3 61 62 52
3 52 53 62
3 53 54 62
3 54 55 63
3 55 56 63
3 56 63 64
3 56 57 64
3 64 65 57
3 57 58 65
3 58 59 65
3 48 59 65
