ply
format ascii 1.0
element vertex 66
property float x
property float y
property float z
property float u
property float v
element face 91
property list uchar int vertex_indices
end_header
-19.1335 -6.44394 21.293 466.909 538.977
-18.6173 -1.06121 20.8903 468.753 563.719
-17.8519 4.27975 20.3215 471.75 588.311
-16.7169 9.5607 18.1133 476.518 612.826
-14.9003 14.6073 13.5441 484.536 636.567
-11.8689 18.8497 7.80588 498.25 656.86
-7.90695 22.1756 2.9022 516.283 672.967
-3.37415 24.641 -0.997358 536.971 685.09
1.71795 25.2952 -4.85965 560.401 688.97
6.8229 23.9985 -0.729641 583.732 683.132
11.0654 20.8117 3.15002 603.312 668.576
14.3949 16.6769 8.04498 618.76 649.489
16.6176 11.8334 13.7479 629.174 626.967
17.6436 6.59664 18.2136 634.2 602.647
17.9771 1.39515 20.3153 636.155 578.652
17.8965 -3.76966 20.7118 636.286 554.952
17.4979 -8.91471 21.1027 634.957 531.311
-15.3759 -15.8118 0.334568 485.986 498.506
-13.651 -17.4382 -1.41333 494.127 491.401
-11.4212 -18.3308 -2.85172 504.494 487.675
-9.00776 -18.4891 -4.1322 515.621 487.315
-6.62513 -18.0392 -5.2786 526.541 489.724
4.00381 -18.3861 -5.4277 575.268 489.204
6.22332 -18.9425 -4.22526 585.438 486.757
8.53106 -18.9389 -2.93577 595.951 486.876
10.7129 -18.2438 -1.46739 605.81 490.131
12.4509 -16.8121 0.405282 613.545 496.676
-0.465097 -11.1371 -4.90012 554.05 521.907
-0.244395 -8.59332 -7.68196 554.929 533.852
-0.0427975 -6.05251 -10.4822 555.722 545.784
0.149591 -3.53137 -13.2337 556.473 557.619
-3.05351 -0.00715487 -6.333 541.143 572.764
-1.29776 0.228591 -7.09718 549.195 574.093
0.47732 0.296749 -7.91189 557.355 574.661
2.09998 0.028472 -7.02437 564.776 573.506
3.67153 -0.410562 -6.21839 571.982 571.572
-11.1582 -9.87901 -0.909974 504.767 526.217
-9.78841 -10.7984 -1.14781 511.144 522.166
-8.08184 -10.9447 -1.33806 518.984 521.683
-6.59485 -10.2806 -0.919167 525.71 524.831
-8.03442 -9.49317 -1.00323 519.041 528.303
-9.65134 -9.37363 -0.986135 511.622 528.689
4.72292 -10.7002 -0.940098 577.595 524.033
6.10081 -11.4213 -1.36315 583.997 520.909
7.75563 -11.4759 -1.20399 591.576 520.808
9.1406 -10.6842 -0.963355 597.83 524.547
7.73643 -10.0652 -1.02441 591.338 527.249
6.17189 -10.0641 -1.02056 584.172 527.098
-7.67346 8.38442 -2.55789 518.974 610.366
-5.50715 6.32119 -4.84262 529.204 601.356
-2.72223 4.82385 -6.51337 542.185 594.939
0.513479 4.7398 -8.09522 557.084 595.03
3.68518 4.47012 -6.36125 571.563 593.939
6.56164 5.63309 -4.66571 584.547 599.384
8.83504 7.49116 -2.39343 594.674 607.896
7.16921 10.4113 -3.85972 586.816 621.248
4.50765 12.5095 -5.16966 574.473 630.722
1.07797 13.2828 -6.76372 558.756 634.08
-2.50098 12.8783 -5.33818 542.34 631.733
-5.47067 11.0623 -4.08228 528.863 622.998
-3.11228 7.02342 -5.00519 540.111 604.826
0.643787 6.6822 -7.4162 557.457 603.872
4.34962 6.62531 -4.75492 574.32 603.718
4.7946 9.8432 -4.25057 576.013 618.449
0.964774 10.8124 -6.32874 558.466 622.712
-3.03022 10.2649 -4.47625 540.139 619.627
3 20 21 23
3 21 22 23
3 0 1 36
3 15 16 45
3 0 17 36
3 16 26 45
3 17 18 37
3 25 26 44
3 17 36 37
3 26 44 45
3 18 19 38
3 24 25 43
3 18 37 38
3 25 43 44
3 19 20 38
3 23 24 43
3 20 21 39
3 22 23 42
3 20 38 39
3 23 42 43
3 21 22 27
3 21 27 39
3 22 27 42
3 27 28 42
3 27 28 39
3 28 42 47
3 28 39 40
3 1 36 41
3 15 45 46
3 1 2 41
3 14 15 46
3 28 29 40
3 28 29 47
3 2 40 41
3 14 46 47
3 2 29 40
3 14 29 47
3 2 3 29
3 13 14 29
3 29 30 31
3 29 30 35
3 3 29 31
3 13 29 35
3 30 32 33
3 30 33 34
3 30 31 32
3 30 34 35
3 3 4 31
3 12 13 35
3 4 5 48
3 11 12 54
3 5 6 48
3 10 11 54
3 6 48 59
3 10 54 55
3 6 7 59
3 9 10 55
3 7 58 59
3 9 55 56
3 8 57 58
3 8 56 57
3 7 8 58
3 8 9 56
3 4 31 48
3 12 35 54
3 31 48 49
3 35 53 54
3 31 49 50
3 35 52 53
3 31 32 50
3 34 35 52
3 32 33 50
3 33 34 52
3 33 50 51
3 33 51 52
3 48 49 60
3 49 60 50
3 50 60 61
3 50 51 61
3 51 52 61
3 61 62 52
3 52 53 62
3 53 54 62
3 54 55 63
3 55 56 63
3 56 63 64
3 56 57 64
3 64 65 57
3 57 58 65
3 58 59 65
3 48 59 65
