ply
format ascii 1.0
element vertex 66
property float x
property float y
property float z
property float u
property float v
element face 91
property list uchar int vertex_indices
end_header
-18.9318 -6.51906 21.1139 465.853 540.497
-18.4236 -1.08667 20.6554 467.907 565.475
-17.63 4.30666 20.1711 471.275 590.294
-16.4605 9.59385 18.231 476.568 614.887
-14.7131 14.5767 13.5932 484.891 638.559
-11.8578 18.8501 7.80326 498.488 659.233
-7.9984 22.2463 2.99996 516.604 675.787
-3.45937 24.6919 -0.905955 537.77 687.88
1.67683 25.2514 -4.76078 561.78 691.363
6.793 23.9894 -0.667789 584.734 685.207
10.9386 20.771 3.2499 603.387 670.067
14.1338 16.6343 8.01185 617.63 650.529
16.2733 11.9047 13.7205 626.948 628.063
17.3936 6.85409 18.2661 631.774 604.259
17.8584 1.73208 20.1599 633.962 580.523
17.8647 -3.41288 20.5021 634.261 556.909
17.5236 -8.54093 20.8886 632.963 533.346
-15.271 -16.3273 0.289903 486.042 499.192
-13.6306 -18.0381 -1.41975 493.891 491.731
-11.4249 -18.9589 -2.82605 504.24 487.869
-9.0365 -19.1169 -4.1463 515.367 487.497
-6.68634 -18.6487 -5.3376 526.262 489.969
3.8647 -19.0088 -5.37497 574.61 488.925
6.07724 -19.6178 -4.14719 584.614 486.062
8.39859 -19.6413 -2.83225 595.069 485.872
10.6064 -18.9196 -1.41174 604.943 489.07
12.3041 -17.3597 0.420651 612.374 496.01
-0.62242 -11.8165 -4.90865 553.554 521.527
-0.432937 -9.17142 -7.6542 554.631 534.097
-0.256591 -6.53016 -10.3928 555.646 546.648
-0.0801804 -3.90602 -13.0725 556.655 559.111
-2.74558 0.0947682 -6.08355 543.256 576.138
-1.21451 0.241331 -7.0168 550.385 577.049
0.341903 0.246042 -7.96158 557.641 577.313
1.7923 0.0578394 -6.9072 564.152 576.361
3.17233 -0.281346 -6.00713 570.371 574.74
-11.1621 -10.3704 -1.15348 504.688 526.937
-9.86387 -11.4383 -1.14725 510.698 522.12
-8.11507 -11.6501 -1.09485 518.713 521.241
-6.62008 -10.9184 -0.747974 525.468 524.62
-8.00783 -9.91836 -1.04496 519.091 529.168
-9.65759 -9.75429 -1.03324 511.524 529.824
4.63889 -11.395 -0.741863 577.059 523.076
6.00256 -12.1951 -1.10105 583.402 519.548
7.70858 -12.2065 -1.13103 591.22 519.598
9.06319 -11.2776 -1.07396 597.359 523.919
7.68174 -10.526 -0.974353 590.973 527.266
6.07381 -10.553 -0.986708 583.612 527.053
-5.02301 9.65487 -2.70691 531.779 619.232
-3.39299 8.05876 -4.9985 539.653 612.391
-1.544 6.60813 -6.70012 548.441 606.131
0.70131 6.68349 -8.27431 558.932 606.86
2.89492 6.3465 -6.4798 568.756 605.149
4.86903 7.53111 -4.78924 577.495 610.41
6.59358 8.95101 -2.53445 585 616.641
5.33345 10.7241 -3.96301 579.313 624.922
3.46892 11.9299 -5.26631 570.876 630.549
1.14909 12.4198 -6.81596 560.432 632.914
-1.26545 12.1995 -5.47084 549.205 631.548
-3.35264 11.227 -4.18473 539.532 626.767
-1.0856 8.76235 -4.9565 550.171 615.736
0.861999 8.53376 -7.13451 559.4 615.156
2.7953 8.55641 -4.72024 567.925 614.975
2.9424 9.40702 -4.31682 568.492 618.813
0.997474 9.84811 -6.168 559.808 621.024
-1.01841 9.62112 -4.53157 550.368 619.603
3 20 21 23
3 21 22 23
3 0 1 36
3 15 16 45
3 0 17 36
3 16 26 45
3 17 18 37
3 25 26 44
3 17 36 37
3 26 44 45
3 18 19 38
3 24 25 43
3 18 37 38
3 25 43 44
3 19 20 38
3 23 24 43
3 20 21 39
3 22 23 42
3 20 38 39
3 23 42 43
3 21 22 27
3 21 27 39
3 22 27 42
3 27 28 42
3 27 28 39
3 28 42 47
3 28 39 40
3 1 36 41
3 15 45 46
3 1 2 41
3 14 15 46
3 28 29 40
3 28 29 47
3 2 40 41
3 14 46 47
3 2 29 40
3 14 29 47
3 2 3 29
3 13 14 29
3 29 30 31
3 29 30 35
3 3 29 31
3 13 29 35
3 30 32 33
3 30 33 34
3 30 31 32
3 30 34 35
3 3 4 31
3 12 13 35
3 4 5 48
3 11 12 54
3 5 6 48
3 10 11 54
3 6 48 59
3 10 54 55
3 6 7 59
3 9 10 55
3 7 58 59
3 9 55 56
3 8 57 58
3 8 56 57
3 7 8 58
3 8 9 56
3 4 31 48
3 12 35 54
3 31 48 49
3 35 53 54
3 31 49 50
3 35 52 53
3 31 32 50
3 34 35 52
3 32 33 50
3 33 34 52
3 33 50 51
3 33 51 52
3 48 49 60
3 49 60 50
3 50 60 61
3 50 51 61
3 51 52 61
3 61 62 52
3 52 53 62
3 53 54 62
3 54 55 63
3 55 56 63
3 56 63 64
3 56 57 64
3 64 65 57
3 57 58 65
3 58 59 65
3 48 59 65
