ply
format ascii 1.0
element vertex 66
property float x
property float y
property float z
property float u
property float v
element face 91
property list uchar int vertex_indices
end_header
-20.3027 -6.85408 21.6112 464.61 545.491
-19.6326 -1.30495 21.3568 467.318 569.711
-18.7264 4.18437 20.7442 471.095 593.678
-17.5785 9.67779 18.4423 476.107 617.659
-15.7677 14.9591 13.588 484.293 640.724
-12.5001 19.2663 7.9349 498.956 659.598
-8.21933 22.4686 3.28845 517.975 673.709
-3.39407 24.6017 -0.95863 539.37 683.184
1.80817 25.118 -4.78953 562.433 685.631
6.94589 23.8718 -0.739066 584.444 680.454
11.3746 20.8904 3.5146 603.418 667.684
14.9158 16.8427 8.13261 618.53 650.229
17.3893 12.0403 13.7114 628.918 629.445
18.5471 6.82608 18.3965 633.687 606.8
18.9459 1.73906 20.6204 635.406 584.658
19.0006 -3.26059 21.0212 635.818 562.866
18.7398 -8.26426 21.2252 634.877 541.042
-16.7761 -14.4272 0.0740987 482.627 512.453
-14.642 -16.105 -1.64156 492.185 505.217
-11.9723 -16.909 -3.08986 504.012 501.817
-9.14785 -17.0122 -4.41944 516.47 501.479
-6.32303 -16.579 -5.53482 528.883 503.482
3.74187 -16.7331 -5.65415 572.769 503.248
6.26698 -17.2901 -4.45215 583.67 500.939
8.85059 -17.3979 -3.1151 594.791 500.593
11.355 -16.9676 -1.63808 605.529 502.59
13.4675 -15.6907 0.237195 614.479 508.264
-0.460467 -11.9686 -4.88664 554.164 523.843
-0.246413 -9.04708 -7.70758 555.274 536.566
-0.0510817 -6.13916 -10.6443 556.315 549.229
0.141082 -3.25572 -13.5058 557.336 561.785
-3.08403 0.216442 -6.27181 542.35 576.841
-1.26911 0.49386 -7.20828 550.349 578.122
0.571456 0.585028 -8.18644 558.473 578.592
2.23124 0.288442 -7.10777 565.603 577.38
3.81957 -0.204565 -6.16084 572.446 575.307
-12.3417 -9.97593 -0.900542 501.866 532.045
-10.7156 -11.2516 -1.22333 509.043 526.552
-8.61658 -11.4893 -1.35063 518.215 525.606
-6.74579 -10.5732 -0.958433 526.287 529.684
-8.53099 -9.79082 -0.972649 518.474 533.018
-10.4823 -9.57623 -0.965719 509.959 533.868
4.65983 -10.9264 -0.988194 576.016 528.642
6.35631 -11.9097 -1.36873 583.494 524.426
8.388 -11.9569 -1.23223 592.336 524.309
10.0602 -10.8428 -0.843266 599.534 529.243
8.31176 -10.2659 -0.941591 591.899 531.681
6.4187 -10.3295 -0.945574 583.652 531.321
-8.04334 8.48106 -2.68279 519.991 612.686
-5.60347 6.47487 -4.88573 530.949 604.028
-2.64114 5.09521 -6.58021 544.102 598.128
0.664036 5.1805 -8.00545 558.657 598.632
3.8686 4.71872 -6.33667 572.465 596.772
6.8932 5.70163 -4.6509 585.423 601.203
9.40998 7.48205 -2.5225 596.086 609.092
7.16907 9.41761 -3.76803 586.369 617.423
4.21876 10.4426 -5.05924 573.605 621.753
1.11798 10.8084 -6.58281 560.239 623.2
-2.10752 10.7743 -5.26347 546.04 622.921
-5.27434 10.0787 -4.00626 532.133 619.761
-2.72597 7.39366 -5.31232 543.496 608.155
0.856579 7.36022 -7.26057 559.322 608.15
4.35847 7.00334 -4.99424 574.356 606.765
4.50389 7.69711 -4.41086 574.897 609.801
0.981666 8.0302 -6.4997 559.756 611.082
-2.6219 8.08909 -4.67451 543.851 611.197
3 20 21 23
3 21 22 23
3 0 1 36
3 15 16 45
3 0 17 36
3 16 26 45
3 17 18 37
3 25 26 44
3 17 36 37
3 26 44 45
3 18 19 38
3 24 25 43
3 18 37 38
3 25 43 44
3 19 20 38
3 23 24 43
3 20 21 39
3 22 23 42
3 20 38 39
3 23 42 43
3 21 22 27
3 21 27 39
3 22 27 42
3 27 28 42
3 27 28 39
3 28 42 47
3 28 39 40
3 1 36 41
3 15 45 46
3 1 2 41
3 14 15 46
3 28 29 40
3 28 29 47
3 2 40 41
3 14 46 47
3 2 29 40
3 14 29 47
3 2 3 29
3 13 14 29
3 29 30 31
3 29 30 35
3 3 29 31
3 13 29 35
3 30 32 33
3 30 33 34
3 30 31 32
3 30 34 35
3 3 4 31
3 12 13 35
3 4 5 48
3 11 12 54
3 5 6 48
3 10 11 54
3 6 48 59
3 10 54 55
3 6 7 59
3 9 10 55
3 7 58 59
3 9 55 56
3 8 57 58
3 8 56 57
3 7 8 58
3 8 9 56
3 4 31 48
3 12 35 54
3 31 48 49
3 35 53 54
3 31 49 50
3 35 52 53
3 31 32 50
3 34 35 52
3 32 33 50
3 33 34 52
3 33 50 51
3 33 51 52
3 48 49 60
3 49 60 50
3 50 60 61
3 50 51 61
3 51 52 61
3 61 62 52
3 52 53 62
3 53 54 62
3 54 55 63
3 55 56 63
3 56 63 64
3 56 57 64
3 64 65 57
3 57 58 65
3 58 59 65
3 48 59 65
