ply
format ascii 1.0
element vertex 66
property float x
property float y
property float z
property float u
property float v
element face 91
property list uchar int vertex_indices
end_header
-19.2705 -6.71463 21.3282 466.57 542.999
-18.6062 -1.28455 20.93 468.963 567.98
-17.6839 4.08938 20.3266 472.554 592.701
-16.4805 9.48734 18.257 477.457 617.326
-14.7046 14.7358 13.5795 485.052 640.904
-11.7224 19.1974 7.80586 498.311 660.834
-7.78643 22.7299 3.04687 516.056 676.777
-3.2221 25.2538 -0.972023 536.805 688.283
1.87575 25.9225 -4.82819 560.235 691.352
6.83591 24.4205 -0.771546 583.176 685.729
10.8809 21.0184 3.26077 602.141 671.252
14.0287 16.7061 7.98806 617.08 652.594
16.2405 11.8219 13.6614 627.769 631.348
17.4085 6.64974 18.2133 633.709 608.463
17.9005 1.62111 20.2294 636.561 585.737
18.0071 -3.30249 20.6538 637.651 563.184
17.7828 -8.23346 21.0011 637.221 540.544
-15.7081 -15.8867 0.244896 484.414 497.798
-13.8393 -17.6763 -1.51471 493.258 489.512
-11.3646 -18.6481 -2.93281 504.785 485.117
-8.67568 -18.7949 -4.20559 517.192 484.564
-6.00877 -18.2514 -5.32093 529.412 487.209
3.63779 -18.6291 -5.36228 573.837 486.659
5.96529 -19.271 -4.19636 584.605 484.187
8.39226 -19.3156 -2.91817 595.756 484.493
10.6905 -18.6636 -1.4693 606.226 488.013
12.5017 -17.2045 0.452226 614.349 495.262
-0.465776 -11.496 -4.8485 554.072 519.03
-0.28546 -8.77268 -7.65031 554.609 531.111
-0.118647 -6.05389 -10.4864 555.086 543.164
0.0425815 -3.36066 -13.2692 555.539 555.108
-2.83914 0.244927 -6.19222 541.728 572.494
-1.2113 0.480641 -7.08044 549.202 573.632
0.444576 0.552706 -8.0457 556.825 574.009
1.93231 0.301111 -6.9939 563.684 573.21
3.35261 -0.119439 -6.10246 570.256 571.599
-11.1972 -10.1182 -0.964294 504.473 524.677
-9.94014 -11.1942 -1.20135 510.393 519.847
-8.23576 -11.4176 -1.31202 518.263 519.012
-6.73946 -10.6858 -0.902925 525.05 522.629
-8.11177 -9.78616 -0.9998 518.627 526.579
-9.70185 -9.62889 -0.966057 511.293 527.111
4.71377 -11.1619 -0.897355 577.798 521.857
6.06229 -11.9477 -1.29582 584.104 518.346
7.71385 -11.9825 -1.17966 591.705 518.409
9.01224 -11.0176 -0.895861 597.555 523.052
7.63855 -10.3742 -0.9153 591.156 525.837
6.10164 -10.4101 -0.94841 584.091 525.477
-6.96664 8.88399 -2.6139 521.621 612.29
-4.78559 7.19779 -4.95039 531.898 604.423
-2.26156 5.85919 -6.60502 543.7 598.308
0.629444 5.93226 -8.06106 557.013 598.762
3.42227 5.50505 -6.41242 569.889 597.415
6.0094 6.48043 -4.76101 581.645 602.491
8.22476 7.95857 -2.45966 591.619 609.939
6.51619 10.1872 -3.88003 583.506 619.74
4.03114 11.6294 -5.12551 571.915 625.858
1.13301 12.2177 -6.653 558.534 627.953
-1.9124 11.9734 -5.29256 544.533 626.677
-4.69366 10.8371 -4.10559 531.86 621.305
-2.0647 8.09667 -5.08422 544.307 608.87
0.820756 8.01354 -7.24712 557.625 608.488
3.62461 7.77402 -4.80546 570.515 608.136
3.86001 8.90913 -4.34138 571.451 613.46
0.983005 9.4621 -6.35676 558.179 615.315
-2.00819 9.25315 -4.5839 544.417 614.276
3 20 21 23
3 21 22 23
3 0 1 36
3 15 16 45
3 0 17 36
3 16 26 45
3 17 18 37
3 25 26 44
3 17 36 37
3 26 44 45
3 18 19 38
3 24 25 43
3 18 37 38
3 25 43 44
3 19 20 38
3 23 24 43
3 20 21 39
3 22 23 42
3 20 38 39
3 23 42 43
3 21 22 27
3 21 27 39
3 22 27 42
3 27 28 42
3 27 28 39
3 28 42 47
3 28 39 40
3 1 36 41
3 15 45 46
3 1 2 41
3 14 15 46
3 28 29 40
3 28 29 47
3 2 40 41
3 14 46 47
3 2 29 40
3 14 29 47
3 2 3 29
3 13 14 29
3 29 30 31
3 29 30 35
3 3 29 31
3 13 29 35
3 30 32 33
3 30 33 34
3 30 31 32
3 30 34 35
3 3 4 31
3 12 13 35
3 4 5 48
3 11 12 54
3 5 6 48
3 10 11 54
3 6 48 59
3 10 54 55
3 6 7 59
3 9 10 55
3 7 58 59
3 9 55 56
3 8 57 58
3 8 56 57
3 7 8 58
3 8 9 56
3 4 31 48
3 12 35 54
3 31 48 49
3 35 53 54
3 31 49 50
3 35 52 53
3 31 32 50
3 34 35 52
3 32 33 50
3 33 34 52
3 33 50 51
3 33 51 52
3 48 49 60
3 49 60 50
3 50 60 61
3 50 51 61
3 51 52 61
3 61 62 52
3 52 53 62
3 53 54 62
3 54 55 63
3 55 56 63
3 56 63 64
3 56 57 64
3 64 65 57
3 57 58 65
3 58 59 65
3 48 59 65
