ply
format ascii 1.0
element vertex 66
property float x
property float y
property float z
property float u
property float v
element face 91
property list uchar int vertex_indices
end_header
-19.1193 -6.74544 21.2004 465.604 545.779
-18.5189 -1.16477 20.8033 468.239 571.46
-17.6569 4.37083 20.2527 472.094 596.97
-16.427 9.77575 18.3078 477.813 622.152
-14.623 14.7919 13.6632 486.511 646.075
-11.7339 19.0359 7.94477 500.343 666.687
-7.8884 22.4177 3.07036 518.484 683.21
-3.40045 24.8977 -0.922552 539.492 695.447
1.72595 25.4547 -4.72347 563.463 698.847
6.83359 24.0899 -0.659832 586.435 691.951
10.8631 20.6828 3.31901 604.534 675.679
13.9417 16.4302 8.14847 618.191 655.345
16.076 11.691 13.7644 627.433 632.609
17.3448 6.73793 18.1808 632.859 609.095
17.9062 1.75278 20.0721 635.352 585.893
17.933 -3.25925 20.3903 635.587 562.851
17.5889 -8.26175 20.7087 634.121 539.842
-15.4419 -15.4381 0.092304 485.343 509.988
-13.6605 -17.146 -1.50572 493.764 502.502
-11.3168 -18.0496 -2.91693 504.718 498.684
-8.80166 -18.2085 -4.30209 516.433 498.279
-6.3004 -17.7964 -5.51598 528.045 500.461
3.72608 -17.9414 -5.62806 574.063 500.069
5.87908 -18.4378 -4.32793 583.795 497.602
8.11998 -18.463 -2.92273 593.903 497.278
10.284 -17.9368 -1.46897 603.636 499.472
12.0489 -16.6453 0.235981 611.484 505.117
-0.422467 -12.5082 -4.92705 554.78 524.747
-0.266108 -9.91158 -7.63259 555.752 537.168
-0.127771 -7.3232 -10.3637 556.646 549.556
0.00691235 -4.75332 -13.0768 557.521 561.855
-2.66116 -0.590516 -6.02181 544.283 579.548
-1.09921 -0.442015 -6.97892 551.563 580.448
0.488846 -0.428283 -7.94425 558.967 580.733
1.90667 -0.593462 -6.83986 565.341 579.803
3.25714 -0.905638 -5.86791 571.426 578.222
-11.4884 -10.7357 -1.1872 503.496 531.892
-10.0361 -11.7123 -1.09356 510.177 527.433
-8.20429 -11.9995 -1.00715 518.579 526.146
-6.56628 -11.4363 -0.737412 526.044 528.719
-8.10617 -10.5706 -0.992012 518.984 532.698
-9.86042 -10.3508 -1.01505 510.932 533.666
4.57745 -11.7892 -0.780361 577.185 527.389
6.08434 -12.3728 -0.990956 584.142 524.791
7.85428 -12.3315 -1.06597 592.27 525.039
9.30083 -11.472 -1.11583 598.887 529.026
7.78317 -10.949 -0.981495 591.891 531.36
6.0933 -11.0574 -0.97008 584.14 530.819
-5.33886 9.63354 -2.71864 531.282 625.741
-3.72504 7.8573 -4.88572 539.007 618.045
-1.74648 6.27674 -6.61195 548.345 611.172
0.698126 6.31444 -8.22434 559.758 611.711
3.06449 6.03523 -6.33049 570.389 610.133
5.12241 7.37124 -4.62285 579.58 615.989
6.75309 9.06271 -2.55489 586.754 623.397
5.57751 11.0148 -3.9953 581.48 632.591
3.69022 12.3869 -5.29598 572.94 639.08
1.19912 12.9246 -6.84937 561.687 641.776
-1.43762 12.6202 -5.53517 549.437 640.066
-3.61865 11.4245 -4.2427 539.308 634.284
-1.54021 8.38301 -5.00896 549.03 620.534
0.856447 8.06721 -7.18093 560.303 619.556
3.22195 8.17959 -4.64205 570.839 619.652
3.4339 9.73345 -4.23544 571.714 626.706
1.08828 10.3625 -6.1821 561.174 629.898
-1.39075 9.95056 -4.5533 549.612 627.64
3 20 21 23
3 21 22 23
3 0 1 36
3 15 16 45
3 0 17 36
3 16 26 45
3 17 18 37
3 25 26 44
3 17 36 37
3 26 44 45
3 18 19 38
3 24 25 43
3 18 37 38
3 25 43 44
3 19 20 38
3 23 24 43
3 20 21 39
3 22 23 42
3 20 38 39
3 23 42 43
3 21 22 27
3 21 27 39
3 22 27 42
3 27 28 42
3 27 28 39
3 28 42 47
3 28 39 40
3 1 36 41
3 15 45 46
3 1 2 41
3 14 15 46
3 28 29 40
3 28 29 47
3 2 40 41
3 14 46 47
3 2 29 40
3 14 29 47
3 2 3 29
3 13 14 29
3 29 30 31
3 29 30 35
3 3 29 31
3 13 29 35
3 30 32 33
3 30 33 34
3 30 31 32
3 30 34 35
3 3 4 31
3 12 13 35
3 4 5 48
3 11 12 54
3 5 6 48
3 10 11 54
3 6 48 59
3 10 54 55
3 6 7 59
3 9 10 55
3 7 58 59
3 9 55 56
3 8 57 58
3 8 56 57
3 7 8 58
3 8 9 56
3 4 31 48
3 12 35 54
3 31 48 49
3 35 53 54
3 31 49 50
3 35 52 53
3 31 32 50
3 34 35 52
3 32 33 50
3 33 34 52
3 33 50 51
3 33 51 52
3 48 49 60
3 49 60 50
3 50 60 61
3 50 51 61
3 51 52 61
3 61 62 52
3 52 53 62
3 53 54 62
3 54 55 63
3 55 56 63
3 56 63 64
3 56 57 64
3 64 65 57
3 57 58 65
3 58 59 65
3 48 59 65
