ply
format ascii 1.0
element vertex 66
property float x
property float y
property float z
property float u
property float v
element face 91
property list uchar int vertex_indices
end_header
-19.9593 -6.70259 21.5092 465.839 543.598
-19.3033 -1.13933 21.2321 468.522 568.352
-18.416 4.3697 20.6386 472.27 592.918
-17.2649 9.83333 18.4099 477.373 617.512
-15.4777 15.0217 13.593 485.602 641.259
-12.3263 19.289 7.93204 500.023 661.09
-8.16608 22.5125 3.21099 518.865 676.206
-3.42457 24.7032 -0.961503 540.274 686.692
1.76043 25.1953 -4.77682 563.69 689.61
6.91611 23.9104 -0.696145 586.177 683.586
11.2534 20.799 3.47498 605.106 669.408
14.6758 16.6796 8.17098 619.963 650.647
17.0391 11.8718 13.7522 630.053 628.667
18.1981 6.71235 18.3757 634.921 605.202
18.6251 1.62333 20.5195 636.813 582.349
18.6628 -3.42297 20.8902 637.175 559.907
18.3741 -8.47005 21.1108 636.104 537.467
-16.4732 -14.4466 0.0784917 484.07 512.248
-14.4689 -16.1179 -1.60681 493.232 505.144
-11.9199 -16.9119 -3.04891 504.744 501.923
-9.22467 -17.0074 -4.41641 516.864 501.799
-6.53155 -16.5968 -5.56975 528.926 503.892
4.11898 -16.8327 -5.71489 576.225 503.326
6.49793 -17.3539 -4.47474 586.669 500.95
8.93658 -17.4583 -3.08356 597.342 500.406
11.3067 -17.029 -1.59556 607.675 502.215
13.2833 -15.7558 0.222488 616.185 507.707
-0.433697 -12.0675 -4.91238 555.706 524.168
-0.246177 -9.27002 -7.70869 556.721 536.965
-0.0771966 -6.4833 -10.5784 557.661 549.723
0.0868066 -3.7166 -13.3681 558.572 562.381
-2.93997 -0.154652 -6.16963 544.167 577.095
-1.2268 0.0900097 -7.14298 551.868 578.385
0.514109 0.171271 -8.13418 559.702 578.953
2.07505 -0.091429 -7.0403 566.52 577.709
3.56962 -0.525533 -6.03877 573.062 575.713
-12.2587 -10.2069 -0.983134 502.696 531.388
-10.6852 -11.4434 -1.17196 509.759 525.994
-8.64205 -11.7065 -1.24421 518.847 524.924
-6.84641 -10.8411 -0.895341 526.738 528.796
-8.55604 -9.97457 -0.977472 519.118 532.578
-10.4679 -9.75782 -0.976724 510.623 533.457
4.88701 -11.2492 -0.95232 578.84 527.5
6.51458 -12.1665 -1.25258 586.141 523.541
8.4942 -12.1759 -1.17244 594.918 523.574
10.1009 -11.0818 -0.941766 601.973 528.468
8.42796 -10.4726 -0.966908 594.522 531.102
6.57776 -10.5484 -0.976835 586.315 530.687
-7.23625 8.70805 -2.70956 524.298 615.777
-5.08216 6.71849 -4.87592 534.194 607.331
-2.42271 5.25823 -6.58607 546.257 601.194
0.619447 5.32456 -8.0834 559.923 601.82
3.56941 4.92573 -6.34815 572.841 599.946
6.29606 6.04425 -4.63756 584.699 604.799
8.5102 7.85955 -2.54057 594.207 612.671
6.6168 9.83517 -3.82532 585.855 621.528
4.00758 11.0001 -5.15644 574.369 626.763
1.08357 11.4308 -6.70406 561.544 628.755
-1.97265 11.3011 -5.36848 547.836 627.868
-4.8248 10.4143 -4.07041 535.073 623.635
-2.35112 7.45968 -5.23264 546.32 610.786
0.792091 7.34395 -7.23762 560.501 610.676
3.86956 7.14394 -4.90035 573.908 609.609
4.04355 8.2832 -4.32611 574.562 614.596
0.959064 8.73723 -6.35007 561.077 616.748
-2.23268 8.60797 -4.6182 546.724 615.805
3 20 21 23
3 21 22 23
3 0 1 36
3 15 16 45
3 0 17 36
3 16 26 45
3 17 18 37
3 25 26 44
3 17 36 37
3 26 44 45
3 18 19 38
3 24 25 43
3 18 37 38
3 25 43 44
3 19 20 38
3 23 24 43
3 20 21 39
3 22 23 42
3 20 38 39
3 23 42 43
3 21 22 27
3 21 27 39
3 22 27 42
3 27 28 42
3 27 28 39
3 28 42 47
3 28 39 40
3 1 36 41
3 15 45 46
3 1 2 41
3 14 15 46
3 28 29 40
3 28 29 47
3 2 40 41
3 14 46 47
3 2 29 40
3 14 29 47
3 2 3 29
3 13 14 29
3 29 30 31
3 29 30 35
3 3 29 31
3 13 29 35
3 30 32 33
3 30 33 34
3 30 31 32
3 30 34 35
3 3 4 31
3 12 13 35
3 4 5 48
3 11 12 54
3 5 6 48
3 10 11 54
3 6 48 59
3 10 54 55
3 6 7 59
3 9 10 55
3 7 58 59
3 9 55 56
3 8 57 58
3 8 56 57
3 7 8 58
3 8 9 56
3 4 31 48
3 12 35 54
3 31 48 49
3 35 53 54
3 31 49 50
3 35 52 53
3 31 32 50
3 34 35 52
3 32 33 50
3 33 34 52
3 33 50 51
3 33 51 52
3 48 49 60
3 49 60 50
3 50 60 61
3 50 51 61
3 51 52 61
3 61 62 52
3 52 53 62
3 53 54 62
3 54 55 63
3 55 56 63
3 56 63 64
3 56 57 64
3 64 65 57
3 57 58 65
3 58 59 65
3 48 59 65
