ply
format ascii 1.0
element vertex 66
property float x
property float y
property float z
property float u
property float v
element face 91
property list uchar int vertex_indices
end_header
-19.7935 -6.6659 21.4927 465.527 543.662
-19.1345 -1.10105 21.2122 468.29 568.311
-18.251 4.41136 20.628 472.093 592.782
-17.1175 9.87098 18.4007 477.247 617.281
-15.357 15.056 13.6181 485.565 640.981
-12.2446 19.3451 7.92842 500.022 660.901
-8.11709 22.6137 3.18646 518.857 676.196
-3.38564 24.8448 -0.972939 540.309 686.835
1.81179 25.3364 -4.7957 563.829 689.749
6.9767 24.0489 -0.694856 586.079 683.576
11.3115 20.9157 3.45417 604.717 669.217
14.695 16.7533 8.18043 619.101 650.193
16.9788 11.9023 13.8012 628.515 627.957
18.049 6.71037 18.3997 632.732 604.338
18.4229 1.58221 20.5197 634.242 581.363
18.4408 -3.51031 20.8808 634.442 558.808
18.1448 -8.60002 21.129 633.271 536.274
-16.3761 -14.5428 0.0848385 484.105 512.272
-14.3813 -16.1931 -1.5885 493.226 505.298
-11.857 -16.9728 -3.038 504.623 502.151
-9.19479 -17.0673 -4.41471 516.595 502.024
-6.54003 -16.6534 -5.57933 528.485 504.11
4.19657 -16.9281 -5.73114 575.955 503.231
6.54952 -17.4396 -4.48577 586.182 500.847
8.96203 -17.5294 -3.08603 596.634 500.304
11.3052 -17.0848 -1.59119 606.748 502.104
13.2578 -15.8058 0.218508 615.06 507.532
-0.443065 -12.1535 -4.89872 555.167 524.063
-0.243861 -9.31754 -7.6988 556.37 537.032
-0.0637348 -6.49267 -10.5671 557.499 549.961
0.109579 -3.68701 -13.3608 558.587 562.795
-2.93709 -0.203621 -6.15358 543.926 576.981
-1.23274 0.0500145 -7.13731 551.595 578.303
0.50304 0.135085 -8.12919 559.41 578.883
2.05842 -0.129626 -7.04047 566.128 577.59
3.54606 -0.567613 -6.00753 572.561 575.539
-12.2497 -10.2167 -0.9723 502.347 531.669
-10.6922 -11.3986 -1.15685 509.297 526.521
-8.69361 -11.6686 -1.24276 518.149 525.4
-6.92143 -10.8772 -0.929146 525.905 528.899
-8.60307 -10.0295 -0.988942 518.455 532.605
-10.4834 -9.8104 -0.972543 510.137 533.516
4.97192 -11.3002 -0.987258 578.477 527.385
6.59304 -12.1449 -1.24689 585.707 523.74
8.53402 -12.1349 -1.16694 594.271 523.828
10.1168 -11.0885 -0.959325 601.197 528.465
8.4569 -10.5313 -0.980882 593.847 530.882
6.63577 -10.613 -1.00404 585.807 530.472
-7.2591 8.62144 -2.70561 524.011 615.313
-5.07479 6.69396 -4.85315 534.05 607.193
-2.4174 5.2953 -6.56732 546.096 601.355
0.587649 5.36919 -8.08202 559.598 602.004
3.49802 4.97348 -6.35523 572.211 600.073
6.21344 6.04209 -4.63324 583.914 604.606
8.4494 7.79483 -2.54288 593.42 612.091
6.58624 9.85227 -3.83738 585.311 621.328
3.9824 11.0826 -5.17257 573.965 626.895
1.04059 11.5317 -6.71604 561.183 629.033
-2.03835 11.3812 -5.37269 547.383 628.07
-4.88499 10.4178 -4.08602 534.646 623.532
-2.34974 7.49161 -5.21294 546.117 610.852
0.751735 7.3946 -7.26173 560.13 610.83
3.78149 7.18949 -4.88885 573.168 609.645
3.97011 8.32466 -4.31874 573.877 614.577
0.912175 8.78979 -6.34081 560.653 616.856
-2.25805 8.63716 -4.60803 546.392 615.822
3 20 21 23
3 21 22 23
3 0 1 36
3 15 16 45
3 0 17 36
3 16 26 45
3 17 18 37
3 25 26 44
3 17 36 37
3 26 44 45
3 18 19 38
3 24 25 43
3 18 37 38
3 25 43 44
3 19 20 38
3 23 24 43
3 20 21 39
3 22 23 42
3 20 38 39
3 23 42 43
3 21 22 27
3 21 27 39
3 22 27 42
3 27 28 42
3 27 28 39
3 28 42 47
3 28 39 40
3 1 36 41
3 15 45 46
3 1 2 41
3 14 15 46
3 28 29 40
3 28 29 47
3 2 40 41
3 14 46 47
3 2 29 40
3 14 29 47
3 2 3 29
3 13 14 29
3 29 30 31
3 29 30 35
3 3 29 31
3 13 29 35
3 30 32 33
3 30 33 34
3 30 31 32
3 30 34 35
3 3 4 31
3 12 13 35
3 4 5 48
3 11 12 54
3 5 6 48
3 10 11 54
3 6 48 59
3 10 54 55
3 6 7 59
3 9 10 55
3 7 58 59
3 9 55 56
3 8 57 58
3 8 56 57
3 7 8 58
3 8 9 56
3 4 31 48
3 12 35 54
3 31 48 49
3 35 53 54
3 31 49 50
3 35 52 53
3 31 32 50
3 34 35 52
3 32 33 50
3 33 34 52
3 33 50 51
3 33 51 52
3 48 49 60
3 49 60 50
3 50 60 61
3 50 51 61
3 51 52 61
3 61 62 52
3 52 53 62
3 53 54 62
3 54 55 63
3 55 56 63
3 56 63 64
3 56 57 64
3 64 65 57
3 57 58 65
3 58 59 65
3 48 59 65
