ply
format ascii 1.0
element vertex 66
property float x
property float y
property float z
property float u
property float v
element face 91
property list uchar int vertex_indices
end_header
-18.9689 -6.77803 21.0836 466.152 539.737
-18.4684 -1.38106 20.6746 468.081 564.508
-17.6611 3.96728 20.1767 471.428 589.083
-16.4922 9.26566 18.2119 476.604 613.522
-14.7779 14.3932 13.5616 484.604 637.34
-11.948 18.8877 7.79897 497.887 658.392
-8.08862 22.496 3.05114 515.833 675.417
-3.50601 25.0803 -0.881357 537.074 687.772
1.68276 25.7872 -4.78873 561.229 691.572
6.8378 24.553 -0.72487 584.451 686.125
11.0981 21.4048 3.22668 603.736 671.851
14.3657 17.2136 7.92898 618.467 652.692
16.5135 12.3456 13.6372 628.007 630.304
17.5292 7.10298 18.301 632.514 606.164
17.9344 1.83531 20.2277 634.545 581.985
17.9504 -3.41147 20.6607 634.967 557.94
17.6302 -8.64858 21.0132 633.859 533.917
-15.3088 -16.1792 0.275976 486.043 497.891
-13.6771 -17.8779 -1.48212 493.846 490.312
-11.481 -18.7953 -2.87988 504.133 486.338
-9.09107 -18.9547 -4.18321 515.238 485.846
-6.73935 -18.4844 -5.35958 526.105 488.228
3.62827 -18.9059 -5.32181 573.597 487.074
5.92853 -19.5745 -4.12599 584.04 484.13
8.33612 -19.6277 -2.85637 594.919 484.011
10.6196 -18.8899 -1.47169 605.156 487.499
12.3756 -17.2901 0.431727 612.852 494.871
-0.728257 -11.5952 -4.91377 553.049 520.208
-0.483944 -8.95579 -7.69232 554.29 532.437
-0.251615 -6.31456 -10.4259 555.47 544.672
-0.0190475 -3.69095 -13.0666 556.642 556.822
-2.6553 0.233928 -6.1031 543.465 574.287
-1.15451 0.367169 -7.01457 550.432 575.05
0.363061 0.376642 -7.95337 557.488 575.249
1.79614 0.158454 -6.91976 563.945 574.311
3.16478 -0.195131 -6.08647 570.141 572.758
-11.2608 -10.085 -1.15392 504.278 526.166
-9.97615 -11.2188 -1.22894 510.254 521.073
-8.20421 -11.4376 -1.19879 518.379 520.203
-6.68426 -10.6989 -0.835253 525.239 523.683
-8.07318 -9.66347 -1.08953 518.831 528.332
-9.73432 -9.47767 -1.04195 511.207 529.056
4.48199 -11.2121 -0.718274 576.385 522.164
5.87387 -12.0861 -1.20395 582.881 518.288
7.6231 -12.1169 -1.22487 590.894 518.279
9.0199 -11.1708 -1.06604 597.198 522.709
7.61011 -10.3835 -0.946132 590.67 526.204
5.96498 -10.3876 -0.952203 583.139 526.062
-5.00667 9.56433 -2.66717 531.591 616.685
-3.52805 7.66398 -5.0078 538.777 608.198
-1.64494 6.05358 -6.68375 547.716 601.039
0.735357 6.08439 -8.20967 558.788 601.427
3.07195 5.74776 -6.50621 569.313 599.984
5.12999 7.06429 -4.84571 578.442 606.093
6.79707 8.76133 -2.50584 585.673 613.885
5.42099 10.4421 -3.90089 579.407 621.541
3.49725 11.5547 -5.2131 570.668 626.551
1.18777 12.0266 -6.7793 560.241 628.609
-1.18527 11.8402 -5.36993 549.227 627.514
-3.27579 10.9917 -4.06246 539.569 623.413
-1.13344 8.33402 -4.89199 549.676 611.44
0.899513 8.08017 -7.02893 559.251 610.526
2.9195 8.08226 -4.73084 568.231 610.584
3.03245 9.01894 -4.3508 568.633 614.865
1.02619 9.44507 -6.12457 559.622 616.745
-1.033 9.26453 -4.47134 550.016 615.69
3 20 21 23
3 21 22 23
3 0 1 36
3 15 16 45
3 0 17 36
3 16 26 45
3 17 18 37
3 25 26 44
3 17 36 37
3 26 44 45
3 18 19 38
3 24 25 43
3 18 37 38
3 25 43 44
3 19 20 38
3 23 24 43
3 20 21 39
3 22 23 42
3 20 38 39
3 23 42 43
3 21 22 27
3 21 27 39
3 22 27 42
3 27 28 42
3 27 28 39
3 28 42 47
3 28 39 40
3 1 36 41
3 15 45 46
3 1 2 41
3 14 15 46
3 28 29 40
3 28 29 47
3 2 40 41
3 14 46 47
3 2 29 40
3 14 29 47
3 2 3 29
3 13 14 29
3 29 30 31
3 29 30 35
3 3 29 31
3 13 29 35
3 30 32 33
3 30 33 34
3 30 31 32
3 30 34 35
3 3 4 31
3 12 13 35
3 4 5 48
3 11 12 54
3 5 6 48
3 10 11 54
3 6 48 59
3 10 54 55
3 6 7 59
3 9 10 55
3 7 58 59
3 9 55 56
3 8 57 58
3 8 56 57
3 7 8 58
3 8 9 56
3 4 31 48
3 12 35 54
3 31 48 49
3 35 53 54
3 31 49 50
3 35 52 53
3 31 32 50
3 34 35 52
3 32 33 50
3 33 34 52
3 33 50 51
3 33 51 52
3 48 49 60
3 49 60 50
3 50 60 61
3 50 51 61
3 51 52 61
3 61 62 52
3 52 53 62
3 53 54 62
3 54 55 63
3 55 56 63
3 56 63 64
3 56 57 64
3 64 65 57
3 57 58 65
3 58 59 65
3 48 59 65
