ply
format ascii 1.0
element vertex 66
property float x
property float y
property float z
property float u
property float v
element face 91
property list uchar int vertex_indices
end_header
-19.7906 -6.71346 21.4098 465.844 543.276
-19.0923 -1.25923 21.1086 468.341 567.691
-18.1298 4.13402 20.4978 472.065 591.86
-16.8895 9.54262 18.3039 477.231 616.105
-15.0627 14.7944 13.4734 485.375 639.677
-11.9846 19.2215 7.89892 499.296 659.707
-7.96006 22.6536 3.15825 517.449 675.426
-3.34455 25.0532 -0.955699 538.281 686.622
1.7604 25.7181 -4.73689 561.461 690.141
6.78897 24.2802 -0.744059 583.541 684.401
10.9564 20.9991 3.3857 601.984 670.336
14.2409 16.7497 8.09291 616.531 651.853
16.588 11.8627 13.5763 626.873 630.425
17.8445 6.67029 18.2598 632.492 607.488
18.3913 1.63008 20.4004 635.259 585.103
18.5328 -3.31168 20.8255 636.429 563.078
18.3218 -8.26354 21.0528 636.055 540.962
-16.325 -14.5246 0.120431 485.013 508.484
-14.3438 -16.2178 -1.62818 494.28 501.139
-11.8015 -17.0729 -3.04181 505.906 497.607
-9.07336 -17.1692 -4.37197 518.258 497.485
-6.34378 -16.7201 -5.50859 530.525 499.8
3.9575 -17.049 -5.60708 576.52 499.576
6.3471 -17.6271 -4.39366 587.089 497.306
8.80131 -17.7514 -3.04518 597.874 497.071
11.1616 -17.2788 -1.58851 608.154 499.49
13.1131 -15.996 0.306988 616.457 505.481
-0.45319 -11.7463 -4.91245 556.12 522.714
-0.260294 -8.91873 -7.75217 557.01 535.305
-0.0838826 -6.0921 -10.5972 557.827 547.89
0.0870465 -3.28548 -13.3043 558.604 560.387
-3.03723 -0.0830733 -6.27686 543.37 574.417
-1.28845 0.256241 -7.13666 551.24 576.128
0.503229 0.394797 -8.03564 559.331 576.947
2.11196 0.0568412 -7.05371 566.419 575.65
3.63155 -0.487293 -6.1991 573.15 573.421
-11.9658 -10.0698 -0.986652 504.062 528.868
-10.4987 -11.2341 -1.20551 510.774 523.847
-8.57676 -11.4882 -1.29938 519.389 522.944
-6.89402 -10.6987 -0.916495 526.749 526.677
-8.49523 -9.84753 -0.985863 519.514 530.28
-10.2833 -9.64302 -0.987006 511.515 530.976
4.8563 -11.1689 -0.926465 579.212 525.999
6.37383 -12.0279 -1.30644 586.133 522.344
8.23742 -12.0619 -1.19864 594.434 522.419
9.75121 -11.0464 -0.919831 601.027 527.138
8.18923 -10.4376 -0.944189 593.991 529.665
6.45452 -10.496 -0.939233 586.26 529.195
-7.25759 8.67938 -2.62173 523.017 613.064
-5.46384 6.13962 -4.87577 531.616 601.911
-2.75792 4.31577 -6.51334 544.117 594.073
0.571998 4.23462 -8.04304 559.177 594.088
3.82334 3.91104 -6.2966 573.489 593.067
6.6569 5.35224 -4.65845 585.74 599.867
8.60285 7.74225 -2.4557 593.844 610.803
6.83997 10.0453 -3.75488 585.874 620.844
4.28693 11.6018 -5.0602 574.47 627.458
1.18638 12.2233 -6.67219 560.777 629.829
-2.06152 11.9551 -5.23965 546.137 628.264
-4.91843 10.7049 -3.9649 533.38 622.362
-2.50319 6.64264 -5.11181 544.79 604.51
0.762533 6.34731 -7.21994 559.665 603.551
3.97954 6.27729 -4.81419 573.708 603.668
4.242 8.81638 -4.27058 574.502 615.038
1.05928 9.59052 -6.27005 560.474 618.073
-2.26778 9.19107 -4.52294 545.457 615.918
3 20 21 23
3 21 22 23
3 0 1 36
3 15 16 45
3 0 17 36
3 16 26 45
3 17 18 37
3 25 26 44
3 17 36 37
3 26 44 45
3 18 19 38
3 24 25 43
3 18 37 38
3 25 43 44
3 19 20 38
3 23 24 43
3 20 21 39
3 22 23 42
3 20 38 39
3 23 42 43
3 21 22 27
3 21 27 39
3 22 27 42
3 27 28 42
3 27 28 39
3 28 42 47
3 28 39 40
3 1 36 41
3 15 45 46
3 1 2 41
3 14 15 46
3 28 29 40
3 28 29 47
3 2 40 41
3 14 46 47
3 2 29 40
3 14 29 47
3 2 3 29
3 13 14 29
3 29 30 31
3 29 30 35
3 3 29 31
3 13 29 35
3 30 32 33
3 30 33 34
3 30 31 32
3 30 34 35
3 3 4 31
3 12 13 35
3 4 5 48
3 11 12 54
3 5 6 48
3 10 11 54
3 6 48 59
3 10 54 55
3 6 7 59
3 9 10 55
3 7 58 59
3 9 55 56
3 8 57 58
3 8 56 57
3 7 8 58
3 8 9 56
3 4 31 48
3 12 35 54
3 31 48 49
3 35 53 54
3 31 49 50
3 35 52 53
3 31 32 50
3 34 35 52
3 32 33 50
3 33 34 52
3 33 50 51
3 33 51 52
3 48 49 60
3 49 60 50
3 50 60 61
3 50 51 61
3 51 52 61
3 61 62 52
3 52 53 62
3 53 54 62
3 54 55 63
3 55 56 63
3 56 63 64
3 56 57 64
3 64 65 57
3 57 58 65
3 58 59 65
3 48 59 65
