ply
format ascii 1.0
element vertex 66
property float x
property float y
property float z
property float u
property float v
element face 91
property list uchar int vertex_indices
end_header
-20.29 -6.77309 21.6 465.063 545.979
-19.592 -1.28129 21.3376 467.674 569.981
-18.6563 4.14905 20.7394 471.363 593.719
-17.4874 9.59582 18.425 476.252 617.468
-15.6636 14.8638 13.5981 484.283 640.375
-12.4171 19.1881 7.94393 498.687 659.249
-8.1786 22.4312 3.29816 517.399 673.538
-3.38701 24.6006 -0.947441 538.569 683.211
1.78584 25.151 -4.78386 561.495 685.872
6.88262 23.8841 -0.769452 583.394 680.968
11.2766 20.891 3.49152 602.348 668.487
14.7989 16.8432 8.11792 617.549 651.347
17.2788 12.0465 13.7142 628.163 630.898
18.461 6.83032 18.3839 633.253 608.465
18.8923 1.7516 20.6451 635.317 586.455
18.9898 -3.23418 21.0588 636.116 564.736
18.7713 -8.22961 21.2703 635.56 542.937
-16.7925 -14.3231 0.0699078 483.271 512.336
-14.6872 -16.0126 -1.64716 492.778 505.066
-12.0325 -16.8387 -3.10125 504.581 501.62
-9.21321 -16.963 -4.43574 517.03 501.256
-6.38778 -16.551 -5.55017 529.437 503.242
3.78644 -16.7601 -5.65321 573.833 503.191
6.30371 -17.3389 -4.44605 584.729 500.938
8.88197 -17.4655 -3.09495 595.837 500.668
11.3865 -17.0639 -1.6059 606.565 502.703
13.5112 -15.8245 0.24448 615.527 508.377
-0.467121 -11.8924 -4.88019 554.792 524.097
-0.250551 -8.98107 -7.71146 555.797 536.682
-0.050977 -6.08308 -10.6526 556.741 549.202
0.144742 -3.2102 -13.5102 557.661 561.616
-3.04794 0.193358 -6.25065 542.67 576.53
-1.25868 0.459448 -7.20922 550.554 577.798
0.552759 0.55141 -8.20729 558.553 578.307
2.19059 0.252807 -7.12342 565.603 577.195
3.76635 -0.229901 -6.15533 572.411 575.269
-12.4686 -9.88666 -0.894005 501.857 532.011
-10.8311 -11.1493 -1.21376 509.139 526.628
-8.72663 -11.413 -1.35113 518.353 525.65
-6.83176 -10.5663 -1.00133 526.507 529.521
-8.62729 -9.78809 -0.989611 518.611 532.763
-10.5891 -9.55079 -0.967771 510.033 533.632
4.80845 -10.992 -1.00937 577.305 528.655
6.53571 -11.9341 -1.34895 584.953 524.677
8.58379 -11.9682 -1.20086 593.871 524.71
10.2809 -10.8823 -0.819211 601.139 529.609
8.50425 -10.3466 -0.92626 593.358 531.789
6.59041 -10.4124 -0.944831 585.02 531.338
-8.00976 8.48313 -2.68859 519.952 612.433
-5.58437 6.48704 -4.87806 530.932 603.83
-2.63232 5.11962 -6.56418 544.102 598.038
0.659597 5.21232 -8.00257 558.605 598.656
3.84637 4.73765 -6.34543 572.363 596.934
6.85948 5.70874 -4.66413 585.24 601.505
9.36486 7.47264 -2.54336 595.789 609.512
7.11847 9.40015 -3.79785 585.966 617.669
4.1776 10.4255 -5.06912 573.192 621.832
1.09527 10.806 -6.58016 559.882 623.158
-2.10549 10.7612 -5.24357 545.784 622.753
-5.25506 10.0723 -3.99579 531.972 619.538
-2.76413 7.39647 -5.30476 543.201 608.017
0.844947 7.37824 -7.27679 559.153 608.153
4.36556 6.9938 -5.01847 574.295 606.882
4.50073 7.68011 -4.42853 574.763 609.914
0.960114 8.04243 -6.47648 559.513 611.097
-2.66713 8.08557 -4.65787 543.496 611.062
3 20 21 23
3 21 22 23
3 0 1 36
3 15 16 45
3 0 17 36
3 16 26 45
3 17 18 37
3 25 26 44
3 17 36 37
3 26 44 45
3 18 19 38
3 24 25 43
3 18 37 38
3 25 43 44
3 19 20 38
3 23 24 43
3 20 21 39
3 22 23 42
3 20 38 39
3 23 42 43
3 21 22 27
3 21 27 39
3 22 27 42
3 27 28 42
3 27 28 39
3 28 42 47
3 28 39 40
3 1 36 41
3 15 45 46
3 1 2 41
3 14 15 46
3 28 29 40
3 28 29 47
3 2 40 41
3 14 46 47
3 2 29 40
3 14 29 47
3 2 3 29
3 13 14 29
3 29 30 31
3 29 30 35
3 3 29 31
3 13 29 35
3 30 32 33
3 30 33 34
3 30 31 32
3 30 34 35
3 3 4 31
3 12 13 35
3 4 5 48
3 11 12 54
3 5 6 48
3 10 11 54
3 6 48 59
3 10 54 55
3 6 7 59
3 9 10 55
3 7 58 59
3 9 55 56
3 8 57 58
3 8 56 57
3 7 8 58
3 8 9 56
3 4 31 48
3 12 35 54
3 31 48 49
3 35 53 54
3 31 49 50
3 35 52 53
3 31 32 50
3 34 35 52
3 32 33 50
3 33 34 52
3 33 50 51
3 33 51 52
3 48 49 60
3 49 60 50
3 50 60 61
3 50 51 61
3 51 52 61
3 61 62 52
3 52 53 62
3 53 54 62
3 54 55 63
3 55 56 63
3 56 63 64
3 56 57 64
3 64 65 57
3 57 58 65
3 58 59 65
3 48 59 65
