ply
format ascii 1.0
element vertex 66
property float x
property float y
property float z
property float u
property float v
element face 91
property list uchar int vertex_indices
end_header
-19.9819 -6.62333 21.5985 464.272 544.258
-19.3462 -1.09821 21.3764 467.038 568.395
-18.4967 4.36766 20.7651 470.801 592.321
-17.457 9.83232 18.3927 475.689 616.458
-15.762 15.1188 13.6147 483.839 640.113
-12.5563 19.4539 7.89965 498.743 659.736
-8.27021 22.6541 3.23317 518.192 674.283
-3.39956 24.7475 -0.986253 540.126 683.948
1.83745 25.211 -4.85034 563.61 686.46
7.05515 24.0355 -0.697258 585.684 680.841
11.5979 21.1229 3.52401 604.816 667.632
15.1762 17.0458 8.19129 619.676 649.286
17.49 12.1104 13.8739 628.857 627.065
18.3622 6.73566 18.4987 631.931 603.052
18.5857 1.48478 20.745 632.573 579.868
18.5779 -3.69444 21.1455 632.513 557.221
18.2904 -8.87094 21.3529 631.266 534.608
-16.5886 -14.489 0.108169 482.729 512.571
-14.5216 -16.1097 -1.60984 492.045 505.716
-11.9494 -16.8635 -3.0694 503.514 502.614
-9.24281 -16.9728 -4.40769 515.544 502.309
-6.54232 -16.5802 -5.54852 527.511 504.17
3.93251 -16.7608 -5.7433 573.234 503.441
6.4842 -17.2953 -4.52388 584.164 500.969
9.08666 -17.3761 -3.16652 595.289 500.459
11.601 -16.8705 -1.67486 606.003 502.491
13.6876 -15.4902 0.179362 614.783 508.295
-0.545635 -11.9638 -4.90609 553.523 524.255
-0.326613 -9.11466 -7.68822 554.92 537.026
-0.126951 -6.28178 -10.611 556.257 549.744
0.0698947 -3.47311 -13.4938 557.575 562.352
-3.0745 0.0957156 -6.23426 542.618 577.027
-1.31834 0.333856 -7.19275 550.436 578.189
0.454409 0.413284 -8.19458 558.335 578.664
2.0811 0.131631 -7.11865 565.253 577.309
3.65711 -0.312709 -6.10812 571.962 575.252
-12.3598 -9.91965 -0.866593 501.3 532.641
-10.7512 -11.2118 -1.22157 508.386 527.052
-8.66485 -11.4253 -1.38322 517.515 526.147
-6.82565 -10.4943 -0.987628 525.464 530.167
-8.58426 -9.68013 -0.979958 517.785 533.713
-10.5277 -9.46636 -0.94664 509.301 534.635
4.94496 -10.8945 -1.08904 576.825 528.473
6.63506 -11.8876 -1.43083 584.262 524.187
8.66224 -11.9031 -1.26542 593.076 524.106
10.3138 -10.7618 -0.876393 600.205 529.044
8.57828 -10.1778 -0.986627 592.649 531.599
6.68798 -10.2465 -1.03396 584.413 531.299
-8.16572 8.48048 -2.70236 519.754 613.164
-5.69689 6.44416 -4.88086 530.903 604.553
-2.72945 5.05287 -6.58542 544.142 598.701
0.567006 5.12454 -7.9916 558.755 599.196
3.7874 4.68964 -6.38521 572.536 597.113
6.84417 5.71107 -4.66532 585.574 601.37
9.43786 7.4983 -2.54325 596.518 608.918
7.09237 9.37934 -3.75404 586.475 617.265
4.0909 10.3429 -5.07626 573.596 621.621
0.98433 10.6781 -6.60673 560.299 623.26
-2.23287 10.6761 -5.27537 546.044 623.078
-5.4016 10.0362 -4.00685 532.016 620.121
-2.87457 7.35237 -5.28238 543.273 608.574
0.734212 7.30381 -7.27349 559.347 608.617
4.2855 6.96371 -5.01506 574.462 606.87
4.41501 7.66938 -4.40261 574.919 609.874
0.83967 7.95685 -6.50628 559.673 611.374
-2.80179 8.05499 -4.65254 543.479 611.563
3 20 21 23
3 21 22 23
3 0 1 36
3 15 16 45
3 0 17 36
3 16 26 45
3 17 18 37
3 25 26 44
3 17 36 37
3 26 44 45
3 18 19 38
3 24 25 43
3 18 37 38
3 25 43 44
3 19 20 38
3 23 24 43
3 20 21 39
3 22 23 42
3 20 38 39
3 23 42 43
3 21 22 27
3 21 27 39
3 22 27 42
3 27 28 42
3 27 28 39
3 28 42 47
3 28 39 40
3 1 36 41
3 15 45 46
3 1 2 41
3 14 15 46
3 28 29 40
3 28 29 47
3 2 40 41
3 14 46 47
3 2 29 40
3 14 29 47
3 2 3 29
3 13 14 29
3 29 30 31
3 29 30 35
3 3 29 31
3 13 29 35
3 30 32 33
3 30 33 34
3 30 31 32
3 30 34 35
3 3 4 31
3 12 13 35
3 4 5 48
3 11 12 54
3 5 6 48
3 10 11 54
3 6 48 59
3 10 54 55
3 6 7 59
3 9 10 55
3 7 58 59
3 9 55 56
3 8 57 58
3 8 56 57
3 7 8 58
3 8 9 56
3 4 31 48
3 12 35 54
3 31 48 49
3 35 53 54
3 31 49 50
3 35 52 53
3 31 32 50
3 34 35 52
3 32 33 50
3 33 34 52
3 33 50 51
3 33 51 52
3 48 49 60
3 49 60 50
3 50 60 61
3 50 51 61
3 51 52 61
3 61 62 52
3 52 53 62
3 53 54 62
3 54 55 63
3 55 56 63
3 56 63 64
3 56 57 64
3 64 65 57
3 57 58 65
3 58 59 65
3 48 59 65
