ply
format ascii 1.0
element vertex 66
property float x
property float y
property float z
property float u
property float v
element face 91
property list uchar int vertex_indices
end_header
-20.4728 -6.92566 21.7457 464.286 545.019
-19.729 -1.31065 21.4776 467.204 569.543
-18.7765 4.24376 20.8052 471.077 593.816
-17.6186 9.83361 18.4842 476.017 618.253
-15.815 15.2042 13.5645 484.059 641.77
-12.5111 19.4985 7.88317 498.787 660.688
-8.20366 22.6335 3.26202 517.849 674.617
-3.39086 24.6869 -0.98706 539.143 683.863
1.74565 25.1828 -4.8259 561.901 686.34
6.84258 23.8041 -0.729211 583.77 680.657
11.2027 20.6679 3.5095 602.522 667.266
14.7024 16.5186 8.09206 617.553 649.406
17.2334 11.6778 13.6573 628.301 628.472
18.5417 6.50535 18.2742 633.841 606.013
19.0382 1.56676 20.5329 636.076 584.519
19.1244 -3.24174 20.9149 636.713 563.563
18.8616 -8.06425 21.0963 635.851 542.523
-16.9904 -14.3486 0.0978025 482.207 512.839
-14.9008 -16.0905 -1.64266 491.607 505.373
-12.212 -16.9332 -3.07995 503.529 501.866
-9.34655 -17.0096 -4.39515 516.16 501.71
-6.46353 -16.5505 -5.4709 528.809 503.891
4.20438 -16.6682 -5.65453 575.329 504.047
6.54624 -17.1889 -4.45108 585.441 501.926
8.94459 -17.3229 -3.09471 595.759 501.495
11.2802 -17.0206 -1.58757 605.76 502.962
13.2708 -15.9243 0.28408 614.17 507.869
-0.167672 -11.5128 -4.87508 555.869 526.248
-0.0117622 -8.75932 -7.73828 556.677 538.256
0.122012 -6.01403 -10.6855 557.398 550.227
0.246532 -3.29362 -13.5236 558.069 562.09
-3.00161 0.174037 -6.28169 542.934 577.016
-1.14883 0.466357 -7.22225 551.089 578.405
0.729728 0.588628 -8.22447 559.374 579.054
2.35863 0.296669 -7.09673 566.372 577.885
3.92276 -0.178182 -6.11372 573.116 575.915
-12.373 -10.0572 -0.894695 502.166 531.835
-10.7899 -11.3561 -1.22594 509.182 526.271
-8.71075 -11.6113 -1.35283 518.272 525.289
-6.87696 -10.6185 -0.899971 526.154 529.733
-8.6202 -9.77125 -0.925393 518.507 533.317
-10.552 -9.58543 -0.934742 510.077 534.006
4.93743 -10.9415 -0.974972 577.672 529.066
6.55821 -11.9372 -1.34544 584.837 524.827
8.54444 -11.9893 -1.21411 593.482 524.724
10.1328 -10.8042 -0.840783 600.291 529.991
8.45852 -10.1646 -0.925339 592.963 532.674
6.61777 -10.2375 -0.927334 584.946 532.241
-8.11817 8.38492 -2.67935 519.741 612.496
-5.59849 6.507 -4.93039 531.077 604.463
-2.6203 5.19555 -6.62829 544.317 598.93
0.672226 5.34604 -8.02091 558.804 599.79
3.825 4.85928 -6.33308 572.397 597.869
6.78631 5.80415 -4.64575 585.066 602.177
9.2441 7.53245 -2.50801 595.444 609.87
7.02448 9.36666 -3.73836 585.785 617.724
4.10272 10.2848 -5.02352 573.129 621.541
1.07523 10.6194 -6.59152 560.079 622.807
-2.10845 10.554 -5.26161 546.068 622.324
-5.28632 9.91717 -3.99718 532.125 619.351
-2.68923 7.38299 -5.40131 543.75 608.464
0.863391 7.44712 -7.26766 559.426 608.963
4.29156 7.0596 -4.95974 574.147 607.493
4.43738 7.65332 -4.34955 574.682 610.092
0.992099 7.9746 -6.48593 559.871 611.272
-2.57295 7.99312 -4.71754 544.147 611.132
3 20 21 23
3 21 22 23
3 0 1 36
3 15 16 45
3 0 17 36
3 16 26 45
3 17 18 37
3 25 26 44
3 17 36 37
3 26 44 45
3 18 19 38
3 24 25 43
3 18 37 38
3 25 43 44
3 19 20 38
3 23 24 43
3 20 21 39
3 22 23 42
3 20 38 39
3 23 42 43
3 21 22 27
3 21 27 39
3 22 27 42
3 27 28 42
3 27 28 39
3 28 42 47
3 28 39 40
3 1 36 41
3 15 45 46
3 1 2 41
3 14 15 46
3 28 29 40
3 28 29 47
3 2 40 41
3 14 46 47
3 2 29 40
3 14 29 47
3 2 3 29
3 13 14 29
3 29 30 31
3 29 30 35
3 3 29 31
3 13 29 35
3 30 32 33
3 30 33 34
3 30 31 32
3 30 34 35
3 3 4 31
3 12 13 35
3 4 5 48
3 11 12 54
3 5 6 48
3 10 11 54
3 6 48 59
3 10 54 55
3 6 7 59
3 9 10 55
3 7 58 59
3 9 55 56
3 8 57 58
3 8 56 57
3 7 8 58
3 8 9 56
3 4 31 48
3 12 35 54
3 31 48 49
3 35 53 54
3 31 49 50
3 35 52 53
3 31 32 50
3 34 35 52
3 32 33 50
3 33 34 52
3 33 50 51
3 33 51 52
3 48 49 60
3 49 60 50
3 50 60 61
3 50 51 61
3 51 52 61
3 61 62 52
3 52 53 62
3 53 54 62
3 54 55 63
3 55 56 63
3 56 63 64
3 56 57 64
3 64 65 57
3 57 58 65
3 58 59 65
3 48 59 65
