ply
format ascii 1.0
element vertex 66
property float x
property float y
property float z
property float u
property float v
element face 91
property list uchar int vertex_indices
end_header
-20.1257 -6.63982 21.5477 465.448 545.319
-19.4665 -1.21398 21.2993 467.795 568.932
-18.5652 4.15228 20.7357 471.243 592.297
-17.4379 9.52673 18.4154 475.916 615.641
-15.6501 14.745 13.6079 483.821 638.264
-12.4439 19.079 7.96291 498.088 657.156
-8.22314 22.3455 3.31096 516.726 671.561
-3.41729 24.5216 -0.930125 537.955 681.312
1.78088 25.0658 -4.77255 560.996 684.035
6.91065 23.8975 -0.783277 582.816 679.668
11.3757 21.0247 3.4854 601.884 667.846
14.944 17.0409 8.13785 617.119 651.125
17.37 12.2387 13.771 627.342 630.778
18.4145 6.96405 18.4774 631.748 608.197
18.7609 1.77926 20.7502 633.457 585.825
18.8389 -3.334 21.1806 634.252 563.653
18.624 -8.45235 21.3981 633.807 541.419
-16.7743 -14.237 0.0961514 483.767 511.716
-14.7 -15.9631 -1.64894 493.188 504.357
-12.0618 -16.8075 -3.10457 504.926 500.896
-9.25695 -16.9576 -4.43893 517.3 500.473
-6.45282 -16.5749 -5.56992 529.588 502.371
3.61582 -16.8014 -5.66403 573.317 502.417
6.24704 -17.4289 -4.44752 584.628 500.017
8.94604 -17.5691 -3.09719 596.165 499.746
11.5668 -17.1056 -1.61704 607.284 502.093
13.7633 -15.7389 0.234339 616.418 508.336
-0.608222 -11.9806 -4.9018 554.393 522.947
-0.363735 -9.01288 -7.71754 555.548 535.73
-0.133879 -6.06092 -10.6565 556.659 548.437
0.0949418 -3.13303 -13.5142 557.757 561.044
-3.14628 0.262915 -6.27245 542.333 575.78
-1.35469 0.534249 -7.22254 550.214 577.099
0.461016 0.616564 -8.20364 558.222 577.599
2.14945 0.304378 -7.16062 565.434 576.464
3.7735 -0.203216 -6.20269 572.399 574.47
-12.5 -9.79467 -0.876149 502.003 531.398
-10.8257 -11.1553 -1.2267 509.455 525.646
-8.64142 -11.3901 -1.38839 518.98 524.844
-6.7057 -10.4464 -1.02595 527.234 529.156
-8.55262 -9.64769 -1.01174 519.137 532.435
-10.5728 -9.3988 -0.977038 510.34 533.31
4.76248 -10.9218 -1.0265 577.048 528.269
6.53429 -12.0029 -1.39241 584.898 523.74
8.67607 -12.0551 -1.21467 594.172 523.742
10.4496 -10.9027 -0.80145 601.694 528.945
8.61781 -10.3004 -0.935143 593.703 531.366
6.62683 -10.3445 -0.967807 585.072 530.969
-8.01476 8.52513 -2.68254 519.868 611.312
-5.62367 6.44705 -4.86859 530.76 602.437
-2.67062 5.04688 -6.55778 543.953 596.586
0.632118 5.1123 -8.00512 558.482 597.144
3.85329 4.65093 -6.38007 572.279 595.544
6.90779 5.65364 -4.68723 585.195 600.287
9.45614 7.4591 -2.55528 595.773 608.482
7.14025 9.36676 -3.81044 585.706 616.471
4.16088 10.3766 -5.09646 572.855 620.491
1.05812 10.7455 -6.59039 559.563 621.707
-2.13586 10.7361 -5.23931 545.514 621.4
-5.27899 10.0836 -3.97041 531.762 618.301
-2.83466 7.35625 -5.26676 542.827 606.653
0.803783 7.29397 -7.27636 558.904 606.666
4.37849 6.92256 -5.06658 574.144 605.519
4.49578 7.64429 -4.47249 574.497 608.691
0.903897 7.98295 -6.48594 559.158 609.703
-2.75102 8.07242 -4.62897 543.028 609.799
3 20 21 23
3 21 22 23
3 0 1 36
3 15 16 45
3 0 17 36
3 16 26 45
3 17 18 37
3 25 26 44
3 17 36 37
3 26 44 45
3 18 19 38
3 24 25 43
3 18 37 38
3 25 43 44
3 19 20 38
3 23 24 43
3 20 21 39
3 22 23 42
3 20 38 39
3 23 42 43
3 21 22 27
3 21 27 39
3 22 27 42
3 27 28 42
3 27 28 39
3 28 42 47
3 28 39 40
3 1 36 41
3 15 45 46
3 1 2 41
3 14 15 46
3 28 29 40
3 28 29 47
3 2 40 41
3 14 46 47
3 2 29 40
3 14 29 47
3 2 3 29
3 13 14 29
3 29 30 31
3 29 30 35
3 3 29 31
3 13 29 35
3 30 32 33
3 30 33 34
3 30 31 32
3 30 34 35
3 3 4 31
3 12 13 35
3 4 5 48
3 11 12 54
3 5 6 48
3 10 11 54
3 6 48 59
3 10 54 55
3 6 7 59
3 9 10 55
3 7 58 59
3 9 55 56
3 8 57 58
3 8 56 57
3 7 8 58
3 8 9 56
3 4 31 48
3 12 35 54
3 31 48 49
3 35 53 54
3 31 49 50
3 35 52 53
3 31 32 50
3 34 35 52
3 32 33 50
3 33 34 52
3 33 50 51
3 33 51 52
3 48 49 60
3 49 60 50
3 50 60 61
3 50 51 61
3 51 52 61
3 61 62 52
3 52 53 62
3 53 54 62
3 54 55 63
3 55 56 63
3 56 63 64
3 56 57 64
3 64 65 57
3 57 58 65
3 58 59 65
3 48 59 65
