ply
format ascii 1.0
element vertex 66
property float x
property float y
property float z
property float u
property float v
element face 91
property list uchar int vertex_indices
end_header
-19.9925 -6.58323 21.4913 465.709 543.913
-19.3435 -1.1347 21.2483 467.989 567.505
-18.4608 4.2567 20.6867 471.345 590.871
-17.3603 9.65726 18.417 475.977 614.285
-15.6148 14.9092 13.5708 483.916 637.102
-12.4546 19.3086 7.90997 498.205 656.379
-8.25268 22.6465 3.28088 516.895 671.191
-3.42425 24.8552 -0.944794 538.325 681.196
1.81137 25.3965 -4.80327 561.613 684.047
6.99446 24.1983 -0.761616 583.296 679.452
11.4928 21.2712 3.47633 602.167 667.321
15.0418 17.1903 8.11605 616.985 650.112
17.3815 12.2764 13.7744 626.472 629.189
18.3241 6.91319 18.5124 630.162 606.172
18.6157 1.64069 20.7122 631.535 583.456
18.6581 -3.55858 21.1406 632.175 561.015
18.4143 -8.76055 21.3711 631.619 538.531
-16.6441 -14.2946 0.117004 485.172 510.781
-14.6255 -16.0384 -1.65688 494.41 503.448
-12.0246 -16.8692 -3.09387 505.999 500.121
-9.26103 -16.9887 -4.42916 518.195 499.882
-6.50515 -16.5783 -5.56302 530.262 501.933
3.80734 -16.8757 -5.66594 574.794 501.727
6.38319 -17.5296 -4.45125 585.733 499.184
9.03168 -17.6983 -3.09223 596.906 498.744
11.6076 -17.2407 -1.62319 607.68 501.002
13.7477 -15.8531 0.237695 616.399 507.234
-0.591081 -11.913 -4.90081 555.155 522.701
-0.346706 -8.95175 -7.72796 556.458 535.488
-0.116589 -6.00188 -10.6389 557.718 548.224
0.109743 -3.07286 -13.4389 558.942 560.87
-3.07906 0.217924 -6.22449 543.421 574.808
-1.33915 0.520644 -7.19005 551.085 576.289
0.438614 0.624242 -8.17945 558.938 576.913
2.09165 0.3011 -7.12067 565.892 575.7
3.66722 -0.221817 -6.11944 572.545 573.616
-12.3112 -9.90506 -0.924113 503.609 530.179
-10.7454 -11.279 -1.24911 510.57 524.408
-8.64642 -11.5153 -1.37608 519.673 523.606
-6.81413 -10.5442 -0.986428 527.398 527.994
-8.54388 -9.6595 -1.00572 519.849 531.633
-10.4824 -9.42657 -0.971214 511.457 532.436
4.96957 -11.0703 -0.990309 578.28 526.955
6.64029 -12.17 -1.36268 585.675 522.379
8.70343 -12.2022 -1.23439 594.552 522.457
10.3696 -11.0148 -0.878703 601.544 527.762
8.64199 -10.35 -0.946251 594.037 530.45
6.73334 -10.3873 -0.98126 585.815 530.09
-7.56699 8.5345 -2.68842 522.5 610.278
-5.3135 6.51223 -4.88942 532.865 601.763
-2.53731 5.13609 -6.57689 545.315 596.097
0.578841 5.23219 -8.00834 559.029 596.826
3.61563 4.77526 -6.41856 571.861 595.184
6.48667 5.79748 -4.71736 583.803 599.913
8.88356 7.5754 -2.55775 593.53 607.86
6.67802 9.34592 -3.79255 584.076 615.263
3.86645 10.254 -5.11234 572.115 618.878
0.954812 10.5908 -6.63116 559.821 620.014
-2.04091 10.5768 -5.25414 546.629 619.652
-4.99311 9.98812 -3.95891 533.701 616.813
-2.39993 7.41708 -5.2292 545.404 605.972
0.735148 7.39791 -7.19798 559.317 606.2
3.80556 7.06858 -5.02446 572.166 605.118
3.88447 7.56553 -4.43918 572.34 607.277
0.804747 7.82916 -6.42484 559.42 608.076
-2.33458 7.90851 -4.60901 545.513 608.106
3 20 21 23
3 21 22 23
3 0 1 36
3 15 16 45
3 0 17 36
3 16 26 45
3 17 18 37
3 25 26 44
3 17 36 37
3 26 44 45
3 18 19 38
3 24 25 43
3 18 37 38
3 25 43 44
3 19 20 38
3 23 24 43
3 20 21 39
3 22 23 42
3 20 38 39
3 23 42 43
3 21 22 27
3 21 27 39
3 22 27 42
3 27 28 42
3 27 28 39
3 28 42 47
3 28 39 40
3 1 36 41
3 15 45 46
3 1 2 41
3 14 15 46
3 28 29 40
3 28 29 47
3 2 40 41
3 14 46 47
3 2 29 40
3 14 29 47
3 2 3 29
3 13 14 29
3 29 30 31
3 29 30 35
3 3 29 31
3 13 29 35
3 30 32 33
3 30 33 34
3 30 31 32
3 30 34 35
3 3 4 31
3 12 13 35
3 4 5 48
3 11 12 54
3 5 6 48
3 10 11 54
3 6 48 59
3 10 54 55
3 6 7 59
3 9 10 55
3 7 58 59
3 9 55 56
3 8 57 58
3 8 56 57
3 7 8 58
3 8 9 56
3 4 31 48
3 12 35 54
3 31 48 49
3 35 53 54
3 31 49 50
3 35 52 53
3 31 32 50
3 34 35 52
3 32 33 50
3 33 34 52
3 33 50 51
3 33 51 52
3 48 49 60
3 49 60 50
3 50 60 61
3 50 51 61
3 51 52 61
3 61 62 52
3 52 53 62
3 53 54 62
3 54 55 63
3 55 56 63
3 56 63 64
3 56 57 64
3 64 65 57
3 57 58 65
3 58 59 65
3 48 59 65
