ply
format ascii 1.0
element vertex 66
property float x
property float y
property float z
property float u
property float v
element face 91
property list uchar int vertex_indices
end_header
-18.114 -6.42921 20.8142 466.809 537.639
-17.572 -1.02485 20.3264 468.466 563.702
-16.6799 4.34196 19.9044 471.791 589.617
-15.2857 9.48574 18.2549 477.794 615.097
-13.4381 14.1552 13.5133 486.644 639.757
-10.9042 18.3412 7.93597 499.027 662.599
-7.55578 21.9989 2.97812 515.286 682.791
-3.48291 24.9146 -0.865084 534.939 699.081
1.47935 25.6521 -4.69964 559.256 705.138
6.53947 24.282 -0.619142 582.933 697.681
10.2834 20.6354 3.15732 600.808 679.283
13.0175 16.2405 8.03228 613.787 656.661
14.9755 11.5948 13.4799 622.994 632.457
16.3589 6.85889 18.1185 629.625 608.081
17.092 1.91907 19.6977 633.769 583.971
17.1449 -3.1185 19.9669 634.928 559.854
16.7329 -8.13449 20.3859 633.833 535.695
-14.8723 -16.6252 0.305213 488.16 498.645
-13.3899 -18.6304 -1.43111 495.96 490.11
-11.1909 -19.7583 -2.76566 506.943 485.701
-8.75639 -19.9336 -4.11158 518.874 485.877
-6.36958 -19.4008 -5.34557 530.42 489.371
3.81511 -19.8357 -5.34257 579.199 489.049
5.81722 -20.4284 -4.06873 588.642 486.007
7.95122 -20.4137 -2.74042 598.589 485.859
9.966 -19.6186 -1.37369 607.811 489.392
11.4331 -17.9749 0.511502 614.154 496.647
-0.369845 -12.2809 -4.83352 557.655 524.107
-0.155067 -9.74698 -7.63363 558.734 537.454
0.0419578 -7.20543 -10.2501 559.692 550.753
0.223507 -4.66895 -12.7094 560.546 563.956
-2.13961 -0.445068 -5.97909 547.16 580.712
-0.770877 -0.41407 -6.85837 553.867 581.483
0.618273 -0.482437 -7.73354 560.689 581.782
1.82622 -0.53976 -6.69357 566.277 581.258
2.9662 -0.712861 -5.85139 571.6 580.258
-10.6911 -11.0548 -1.26365 507.391 526.602
-9.42199 -12.0942 -1.02376 513.611 521.761
-7.68506 -12.3559 -0.859162 521.935 520.741
-6.2564 -11.6438 -0.630706 528.587 524.279
-7.59546 -10.5259 -1.0699 522.055 529.57
-9.23567 -10.3535 -1.03375 514.173 530.093
3.94457 -11.9852 -0.46005 577.394 524.332
5.21066 -12.7709 -0.802472 583.662 520.956
6.90496 -12.8127 -1.02626 591.814 521.146
8.22776 -11.9063 -1.26286 598.012 525.798
6.93622 -11.023 -0.968544 591.612 529.656
5.34728 -11.054 -0.925952 584.013 529.216
-2.74314 10.6004 -2.73104 541.554 631.815
-2.13849 8.51733 -5.07117 545.288 623.023
-1.05721 6.47458 -6.68767 551.155 614.187
0.734233 6.44849 -8.41989 560.056 615.134
2.45237 6.32116 -6.48189 567.925 613.969
3.66062 8.24436 -4.88314 573.032 622.637
4.28787 10.3813 -2.53917 575.178 631.895
4.16049 12.5782 -4.13513 574.455 643.046
3.20652 14.3807 -5.48452 569.808 652.067
1.2703 15.0673 -7.12295 560.732 655.728
-0.786289 14.506 -5.67765 550.73 652.062
-2.06273 12.7502 -4.32905 544.704 642.881
-0.0650435 9.09804 -4.70692 555.022 625.987
0.890868 8.56135 -6.9804 560.128 624.595
1.80985 9.11923 -4.34644 563.914 626.251
1.97997 11.0852 -4.17641 564.321 635.574
1.14234 11.7716 -5.92264 560.518 639.471
0.140799 11.0774 -4.4534 555.581 635.343
3 20 21 23
3 21 22 23
3 0 1 36
3 15 16 45
3 0 17 36
3 16 26 45
3 17 18 37
3 25 26 44
3 17 36 37
3 26 44 45
3 18 19 38
3 24 25 43
3 18 37 38
3 25 43 44
3 19 20 38
3 23 24 43
3 20 21 39
3 22 23 42
3 20 38 39
3 23 42 43
3 21 22 27
3 21 27 39
3 22 27 42
3 27 28 42
3 27 28 39
3 28 42 47
3 28 39 40
3 1 36 41
3 15 45 46
3 1 2 41
3 14 15 46
3 28 29 40
3 28 29 47
3 2 40 41
3 14 46 47
3 2 29 40
3 14 29 47
3 2 3 29
3 13 14 29
3 29 30 31
3 29 30 35
3 3 29 31
3 13 29 35
3 30 32 33
3 30 33 34
3 30 31 32
3 30 34 35
3 3 4 31
3 12 13 35
3 4 5 48
3 11 12 54
3 5 6 48
3 10 11 54
3 6 48 59
3 10 54 55
3 6 7 59
3 9 10 55
3 7 58 59
3 9 55 56
3 8 57 58
3 8 56 57
3 7 8 58
3 8 9 56
3 4 31 48
3 12 35 54
3 31 48 49
3 35 53 54
3 31 49 50
3 35 52 53
3 31 32 50
3 34 35 52
3 32 33 50
3 33 34 52
3 33 50 51
3 33 51 52
3 48 49 60
3 49 60 50
3 50 60 61
3 50 51 61
3 51 52 61
3 61 62 52
3 52 53 62
3 53 54 62
3 54 55 63
3 55 56 63
3 56 63 64
3 56 57 64
3 64 65 57
3 57 58 65
3 58 59 65
3 48 59 65
