ply
format ascii 1.0
element vertex 66
property float x
property float y
property float z
property float u
property float v
element face 91
property list uchar int vertex_indices
end_header
-19.5948 -6.92837 21.3609 466.408 541.639
-18.9505 -1.41689 20.9826 468.677 566.723
-18.0331 4.03906 20.3637 472.196 591.545
-16.7994 9.51226 18.318 477.159 616.224
-14.9958 14.8179 13.5046 484.746 639.709
-11.9753 19.3217 7.77769 497.973 659.527
-7.97795 22.8556 3.0796 515.763 675.237
-3.33968 25.3306 -0.942087 536.596 686.329
1.81524 26.018 -4.85262 559.998 689.371
6.88619 24.5464 -0.735188 583.251 684.036
11.071 21.2051 3.27699 602.696 670.067
14.3083 16.8658 7.93522 617.946 651.561
16.5684 11.9116 13.5628 628.817 630.314
17.7688 6.676 18.2248 634.9 607.484
18.28 1.58764 20.2093 637.836 584.755
18.3521 -3.39032 20.6405 638.765 562.194
18.0633 -8.37131 20.9673 638.051 539.556
-15.9274 -15.5741 0.252312 484.222 498.921
-14.0888 -17.4828 -1.56061 492.83 490.131
-11.5815 -18.5186 -2.94061 504.377 485.472
-8.83593 -18.6482 -4.19629 516.898 484.987
-6.11532 -18.069 -5.29472 529.219 487.752
3.68214 -18.3887 -5.34345 573.868 487.473
6.00554 -19.065 -4.18041 584.525 484.888
8.43802 -19.1402 -2.92025 595.606 485.068
10.7421 -18.4898 -1.50695 606.013 488.562
12.5446 -16.9975 0.456387 614.034 495.926
-0.374406 -11.3621 -4.85599 554.547 519.039
-0.178917 -8.61992 -7.72016 555.115 531.02
0.000114414 -5.87316 -10.5413 555.607 543.027
0.170651 -3.1472 -13.2406 556.063 554.961
-2.75371 0.311434 -6.26688 542.306 571.607
-1.10991 0.574186 -7.09145 549.762 572.851
0.568255 0.666187 -7.98813 557.395 573.31
2.0603 0.399512 -6.97677 564.218 572.461
3.47195 -0.0449007 -6.14588 570.696 570.76
-11.3701 -9.94065 -1.04467 504.296 524.868
-10.0089 -11.0925 -1.28054 510.634 519.749
-8.16947 -11.3219 -1.34553 519.037 518.916
-6.56658 -10.5021 -0.85268 526.235 522.929
-8.05348 -9.55049 -1.01162 519.35 527.05
-9.76684 -9.38812 -0.993337 511.529 527.585
4.52508 -10.9038 -0.816049 576.786 522.449
5.96104 -11.784 -1.31768 583.433 518.527
7.74211 -11.8395 -1.26457 591.549 518.5
9.14802 -10.8137 -0.991122 597.826 523.386
7.6819 -10.0889 -0.943955 591.062 526.516
6.0275 -10.1167 -0.944102 583.533 526.189
-6.41663 8.7827 -2.58198 524.592 610.373
-4.55105 6.86956 -4.97063 533.326 601.461
-2.18602 5.39195 -6.62601 544.278 594.725
0.633498 5.44787 -8.08521 557.114 595.056
3.35473 5.07373 -6.4123 569.544 593.986
5.78246 6.23485 -4.76649 580.453 599.86
7.68171 8.01334 -2.42464 588.878 608.606
6.08227 9.9907 -3.79228 581.361 617.161
3.79696 11.2708 -5.10454 570.805 622.471
1.10539 11.795 -6.71731 558.491 624.238
-1.72422 11.5462 -5.28563 545.633 623.023
-4.27648 10.5103 -4.0101 534.132 618.233
-1.87206 7.60244 -5.0547 545.435 605.104
0.809965 7.47246 -7.14057 557.67 604.459
3.4122 7.34203 -4.72981 569.526 604.617
3.62499 8.69321 -4.27856 570.33 610.872
0.992178 9.2257 -6.28136 558.285 612.614
-1.75983 8.96885 -4.54412 545.779 611.427
3 20 21 23
3 21 22 23
3 0 1 36
3 15 16 45
3 0 17 36
3 16 26 45
3 17 18 37
3 25 26 44
3 17 36 37
3 26 44 45
3 18 19 38
3 24 25 43
3 18 37 38
3 25 43 44
3 19 20 38
3 23 24 43
3 20 21 39
3 22 23 42
3 20 38 39
3 23 42 43
3 21 22 27
3 21 27 39
3 22 27 42
3 27 28 42
3 27 28 39
3 28 42 47
3 28 39 40
3 1 36 41
3 15 45 46
3 1 2 41
3 14 15 46
3 28 29 40
3 28 29 47
3 2 40 41
3 14 46 47
3 2 29 40
3 14 29 47
3 2 3 29
3 13 14 29
3 29 30 31
3 29 30 35
3 3 29 31
3 13 29 35
3 30 32 33
3 30 33 34
3 30 31 32
3 30 34 35
3 3 4 31
3 12 13 35
3 4 5 48
3 11 12 54
3 5 6 48
3 10 11 54
3 6 48 59
3 10 54 55
3 6 7 59
3 9 10 55
3 7 58 59
3 9 55 56
3 8 57 58
3 8 56 57
3 7 8 58
3 8 9 56
3 4 31 48
3 12 35 54
3 31 48 49
3 35 53 54
3 31 49 50
3 35 52 53
3 31 32 50
3 34 35 52
3 32 33 50
3 33 34 52
3 33 50 51
3 33 51 52
3 48 49 60
3 49 60 50
3 50 60 61
3 50 51 61
3 51 52 61
3 61 62 52
3 52 53 62
3 53 54 62
3 54 55 63
3 55 56 63
3 56 63 64
3 56 57 64
3 64 65 57
3 57 58 65
3 58 59 65
3 48 59 65
