ply
format ascii 1.0
element vertex 66
property float x
property float y
property float z
property float u
property float v
element face 91
property list uchar int vertex_indices
end_header
-19.6223 -5.87149 20.9951 502.559 434.928
-18.9275 -0.659248 20.3966 504.186 455.383
-17.938 4.51407 19.9554 506.927 475.822
-16.6001 9.56623 18.178 511.53 495.43
-14.7227 14.2782 13.4856 519.35 512.867
-11.9499 18.3979 7.90281 531.145 527.93
-8.3311 21.8133 3.11763 546.161 540.735
-4.03878 24.3551 -1.0095 563.814 550.523
0.915536 25.1164 -4.59072 584.323 553.691
6.08703 23.891 -0.841934 603.637 551.602
10.2069 20.6368 3.31099 619.19 541.39
13.5061 16.5635 7.98021 631.547 527.906
16.0715 12.0433 13.4395 640.86 512.729
17.7649 7.16925 18.1177 647.108 495.653
18.6354 2.09331 20.0025 651.146 476.608
18.935 -3.04943 20.4389 653.462 456.651
18.8126 -8.20653 20.7975 654.151 436.492
-15.3717 -15.9058 0.0615991 529.044 389.643
-13.2631 -17.2814 -1.47065 538.202 384.316
-10.7899 -17.8688 -2.82522 548.533 382.246
-8.24544 -17.8582 -4.21947 559.007 382.53
-5.75478 -17.3062 -5.46316 569.082 384.976
2.76609 -17.7002 -5.43903 602.635 385.831
5.03896 -18.6032 -4.13585 611.334 383.366
7.47651 -18.995 -2.73092 620.517 382.988
9.96244 -18.887 -1.32067 629.763 384.588
12.2615 -17.9683 0.258417 638.012 389.375
-0.596284 -11.8858 -4.85345 587.767 407.912
-0.355031 -8.88036 -7.64981 588.932 418.832
-0.127178 -5.88724 -10.4758 590.057 429.69
0.092693 -2.90451 -13.1217 591.091 440.566
-2.64572 0.509282 -6.04744 577.022 455.593
-1.08884 0.876423 -7.05422 583.393 457.131
0.557371 0.972624 -7.94068 590.142 457.671
2.06482 0.662386 -6.91548 595.784 457.224
3.41735 0.0645289 -6.1202 600.969 455.526
-11.9568 -10.9373 -1.10706 541.613 409.712
-10.5084 -11.9544 -0.988212 547.515 406.166
-8.66529 -12.2543 -0.87462 554.789 405.545
-7.04261 -11.6434 -0.863231 561.004 408.403
-8.58914 -10.8789 -1.07903 554.814 410.897
-10.3244 -10.6621 -1.03419 547.929 411.275
4.88128 -12.3669 -0.618893 607.927 408.995
6.32767 -13.1834 -0.837669 613.889 406.122
8.15006 -13.2403 -0.91745 621.087 406.384
9.72661 -12.4858 -0.93232 627.094 409.783
8.21441 -11.9108 -0.829374 620.976 411.651
6.49309 -11.8928 -0.797381 614.2 411.249
-4.21734 9.82962 -2.84391 567.397 492.827
-2.88267 8.14267 -4.96411 573.798 485.861
-1.17737 6.7235 -6.60826 581.423 480.212
0.923394 6.79018 -8.34502 590.259 480.476
2.96005 6.44779 -6.35087 597.651 480.379
4.76116 7.58165 -4.71887 603.872 485.889
6.16093 9.09195 -2.55491 608.238 492.944
4.99489 10.6027 -4.03868 603.795 498.045
3.32559 11.6556 -5.08617 597.339 501.355
1.22328 12.0978 -6.57396 589.489 501.997
-0.877675 11.8902 -5.29725 580.847 501.024
-2.71254 11.12 -4.124 573.427 497.882
-0.543431 8.72143 -5.00074 582.852 488.778
1.05933 8.50521 -7.11679 589.936 487.663
2.60586 8.54362 -4.76607 595.183 489.044
2.60425 9.08031 -4.37428 594.906 491.283
1.12069 9.50383 -6.03385 589.55 491.967
-0.434373 9.27729 -4.5352 582.979 491.148
3 20 21 23
3 21 22 23
3 0 1 36
3 15 16 45
3 0 17 36
3 16 26 45
3 17 18 37
3 25 26 44
3 17 36 37
3 26 44 45
3 18 19 38
3 24 25 43
3 18 37 38
3 25 43 44
3 19 20 38
3 23 24 43
3 20 21 39
3 22 23 42
3 20 38 39
3 23 42 43
3 21 22 27
3 21 27 39
3 22 27 42
3 27 28 42
3 27 28 39
3 28 42 47
3 28 39 40
3 1 36 41
3 15 45 46
3 1 2 41
3 14 15 46
3 28 29 40
3 28 29 47
3 2 40 41
3 14 46 47
3 2 29 40
3 14 29 47
3 2 3 29
3 13 14 29
3 29 30 31
3 29 30 35
3 3 29 31
3 13 29 35
3 30 32 33
3 30 33 34
3 30 31 32
3 30 34 35
3 3 4 31
3 12 13 35
3 4 5 48
3 11 12 54
3 5 6 48
3 10 11 54
3 6 48 59
3 10 54 55
3 6 7 59
3 9 10 55
3 7 58 59
3 9 55 56
3 8 57 58
3 8 56 57
3 7 8 58
3 8 9 56
3 4 31 48
3 12 35 54
3 31 48 49
3 35 53 54
3 31 49 50
3 35 52 53
3 31 32 50
3 34 35 52
3 32 33 50
3 33 34 52
3 33 50 51
3 33 51 52
3 48 49 60
3 49 60 50
3 50 60 61
3 50 51 61
3 51 52 61
3 61 62 52
3 52 53 62
3 53 54 62
3 54 55 63
3 55 56 63
3 56 63 64
3 56 57 64
3 64 65 57
3 57 58 65
3 58 59 65
3 48 59 65
