ply
format ascii 1.0
element vertex 66
property float x
property float y
property float z
property float u
property float v
element face 91
property list uchar int vertex_indices
end_header
-20.2453 -5.69202 21.1075 502.037 434.685
-19.5992 -0.523654 20.5349 503.102 454.302
-18.673 4.6119 20.1357 505.193 473.947
-17.3496 9.61799 18.1552 509.283 492.667
-15.3616 14.2809 13.4406 516.783 509.326
-12.3593 18.2466 7.85055 528.599 523.359
-8.51262 21.4125 3.13072 543.618 534.945
-4.08663 23.7431 -1.03094 560.932 543.749
0.896521 24.4573 -4.64374 580.694 546.799
6.15514 23.3757 -0.83055 599.929 545.775
10.5651 20.441 3.31493 616.399 537.561
14.1918 16.5988 7.93972 630.028 525.819
16.9404 12.1137 13.4453 640.26 511.665
18.568 7.12766 18.1885 646.597 494.971
19.3079 1.93046 20.2067 650.398 476.214
19.4881 -3.32605 20.6119 652.55 456.474
19.2729 -8.58446 21.0126 653.199 436.595
-15.7286 -15.5898 0.0806404 528.179 391.104
-13.5414 -16.9455 -1.45087 537.34 386.128
-11.0052 -17.4763 -2.82065 547.534 384.455
-8.4179 -17.4079 -4.2078 557.746 385.065
-5.89662 -16.8141 -5.43902 567.505 387.703
3.09167 -17.3187 -5.43374 601.833 388.728
5.41182 -18.2466 -4.15399 610.57 386.423
7.89011 -18.6735 -2.76658 619.726 386.108
10.4218 -18.5819 -1.34454 628.92 387.791
12.7741 -17.6602 0.252116 637.133 392.627
-0.518917 -11.3127 -4.84553 586.13 410.546
-0.22699 -8.3493 -7.66588 587.152 420.878
0.048605 -5.39771 -10.5369 588.13 431.143
0.307614 -2.45593 -13.2176 588.993 441.433
-2.81984 0.613753 -6.11576 574.155 454.592
-1.12797 1.0473 -7.10783 580.74 456.436
0.658386 1.17771 -7.97236 587.74 457.206
2.28515 0.816747 -6.97018 593.748 456.726
3.75353 0.141983 -6.14222 599.299 454.941
-12.2422 -10.4954 -1.03191 540.221 411.175
-10.7657 -11.4127 -0.992118 546.099 408.192
-8.96805 -11.7037 -0.934066 553.006 407.696
-7.34203 -11.1901 -0.939345 559.035 410.175
-8.89078 -10.4962 -1.08275 552.979 412.25
-10.6047 -10.2956 -1.03572 546.388 412.468
5.16503 -11.9342 -0.638749 606.731 411.547
6.64385 -12.68 -0.883839 612.648 409.113
8.43466 -12.7359 -0.97048 619.499 409.456
10.0317 -12.0844 -0.964439 625.374 412.452
8.49321 -11.5865 -0.882089 619.351 413.867
6.78707 -11.5451 -0.813289 612.831 413.491
-5.09013 9.25872 -2.87726 561.999 487.806
-3.47162 7.59108 -4.92495 569.238 481.277
-1.47169 6.31631 -6.55026 577.689 476.514
0.844009 6.41116 -8.27619 586.958 477.015
3.07844 6.0423 -6.36493 595.021 477.028
5.13551 7.03876 -4.7293 602.077 482.065
6.79431 8.51257 -2.58414 607.33 488.964
5.34356 10.0997 -3.98094 601.734 494.013
3.36179 11.1109 -5.07242 594.205 496.813
1.04216 11.5008 -6.5525 585.689 497.006
-1.26331 11.3302 -5.25451 576.604 496.068
-3.35316 10.593 -4.06742 568.541 493.011
-1.02622 8.27467 -5.10788 578.383 484.605
0.941541 8.14647 -7.21528 586.504 484.009
2.81594 8.09043 -4.8737 592.982 485.245
2.82097 8.62241 -4.41324 592.709 487.429
0.967105 8.99884 -6.13176 586.037 487.638
-0.964476 8.82303 -4.56532 578.299 486.899
3 20 21 23
3 21 22 23
3 0 1 36
3 15 16 45
3 0 17 36
3 16 26 45
3 17 18 37
3 25 26 44
3 17 36 37
3 26 44 45
3 18 19 38
3 24 25 43
3 18 37 38
3 25 43 44
3 19 20 38
3 23 24 43
3 20 21 39
3 22 23 42
3 20 38 39
3 23 42 43
3 21 22 27
3 21 27 39
3 22 27 42
3 27 28 42
3 27 28 39
3 28 42 47
3 28 39 40
3 1 36 41
3 15 45 46
3 1 2 41
3 14 15 46
3 28 29 40
3 28 29 47
3 2 40 41
3 14 46 47
3 2 29 40
3 14 29 47
3 2 3 29
3 13 14 29
3 29 30 31
3 29 30 35
3 3 29 31
3 13 29 35
3 30 32 33
3 30 33 34
3 30 31 32
3 30 34 35
3 3 4 31
3 12 13 35
3 4 5 48
3 11 12 54
3 5 6 48
3 10 11 54
3 6 48 59
3 10 54 55
3 6 7 59
3 9 10 55
3 7 58 59
3 9 55 56
3 8 57 58
3 8 56 57
3 7 8 58
3 8 9 56
3 4 31 48
3 12 35 54
3 31 48 49
3 35 53 54
3 31 49 50
3 35 52 53
3 31 32 50
3 34 35 52
3 32 33 50
3 33 34 52
3 33 50 51
3 33 51 52
3 48 49 60
3 49 60 50
3 50 60 61
3 50 51 61
3 51 52 61
3 61 62 52
3 52 53 62
3 53 54 62
3 54 55 63
3 55 56 63
3 56 63 64
3 56 57 64
3 64 65 57
3 57 58 65
3 58 59 65
3 48 59 65
