ply
format ascii 1.0
element vertex 66
property float x
property float y
property float z
property float u
property float v
element face 91
property list uchar int vertex_indices
end_header
-19.7482 -5.80931 20.8663 503.411 433.694
-19.1469 -0.712499 20.3543 504.352 453.552
-18.2304 4.33703 19.9458 506.514 473.368
-16.8508 9.28718 18.0908 510.866 492.389
-14.8049 13.9861 13.4807 518.562 509.586
-11.8925 18.1661 7.89757 530.037 524.666
-8.19002 21.6762 3.13136 544.606 537.706
-3.83356 24.3522 -0.990108 561.827 547.956
1.19914 25.2069 -4.60383 582.119 551.524
6.33929 24.0162 -0.891561 601.681 549.978
10.5416 20.9196 3.26069 618.043 540.871
13.9449 16.9531 7.96065 631.412 528.327
16.5018 12.3971 13.5078 641.444 513.538
18.0304 7.35057 18.2448 647.799 496.193
18.7561 2.08177 20.1631 651.76 476.636
18.9637 -3.22929 20.6492 654.053 456.195
18.8137 -8.54967 21.0302 654.976 435.561
-15.2042 -15.8191 0.0771673 529.201 388.153
-13.1345 -17.1241 -1.45851 538.056 383.146
-10.7052 -17.6385 -2.85325 548.046 381.391
-8.22025 -17.6013 -4.26779 558.092 381.795
-5.80551 -17.0374 -5.52478 567.667 384.29
2.69604 -17.5811 -5.41948 601.047 384.964
5.10871 -18.5487 -4.14697 610.465 382.464
7.67643 -18.9636 -2.75355 620.294 382.215
10.2713 -18.7677 -1.3494 630.043 384.36
12.5917 -17.689 0.254437 638.404 389.932
-0.843348 -11.7505 -4.88757 585.324 406.743
-0.545353 -8.8223 -7.62185 586.267 417.196
-0.25441 -5.90695 -10.4217 587.202 427.572
0.0320243 -3.00877 -13.1045 588.096 437.925
-2.86841 0.287284 -5.99976 574.051 452.566
-1.29603 0.647174 -7.02293 580.337 454.083
0.357658 0.733337 -7.94438 587 454.599
1.94491 0.390678 -6.92731 593.064 454.17
3.38602 -0.232794 -6.08046 598.682 452.533
-11.8571 -10.627 -1.13209 541.017 409.002
-10.445 -11.6402 -1.02666 546.818 405.552
-8.63519 -11.9319 -0.920028 553.956 405.042
-7.02296 -11.4102 -0.880087 560.094 407.612
-8.52806 -10.622 -1.06756 554.017 410.124
-10.2331 -10.3784 -1.04249 547.27 410.531
4.79852 -12.2094 -0.586091 606.486 408.438
6.29103 -13.0101 -0.873229 612.632 405.69
8.12144 -13.0386 -0.970785 619.821 406.134
9.71113 -12.3166 -0.991644 625.824 409.454
8.16389 -11.7709 -0.849116 619.576 411.134
6.43175 -11.7377 -0.785681 612.778 410.728
-4.63852 9.58935 -2.81414 563.563 489.467
-3.19975 7.94942 -4.87348 570.178 482.749
-1.37544 6.61943 -6.52314 578.109 477.522
0.827708 6.69872 -8.23342 587.112 477.885
2.98829 6.29963 -6.38521 595.234 477.741
4.96015 7.32151 -4.73413 602.239 482.998
6.58017 8.6964 -2.58663 607.642 489.707
5.25248 10.3531 -4.08079 602.312 495.157
3.40099 11.4886 -5.19211 594.999 498.554
1.1326 11.9912 -6.60062 586.317 499.236
-1.1168 11.7921 -5.31756 577.273 498.226
-3.0767 10.979 -4.131 569.568 494.881
-0.907687 8.555 -4.95599 578.978 485.819
0.93736 8.35456 -7.14965 586.781 484.79
2.74725 8.29055 -4.87709 593.329 486.002
2.77286 8.97997 -4.46686 593.123 488.855
0.988585 9.49157 -6.10495 586.387 489.64
-0.846047 9.24676 -4.49273 578.899 488.713
3 20 21 23
3 21 22 23
3 0 1 36
3 15 16 45
3 0 17 36
3 16 26 45
3 17 18 37
3 25 26 44
3 17 36 37
3 26 44 45
3 18 19 38
3 24 25 43
3 18 37 38
3 25 43 44
3 19 20 38
3 23 24 43
3 20 21 39
3 22 23 42
3 20 38 39
3 23 42 43
3 21 22 27
3 21 27 39
3 22 27 42
3 27 28 42
3 27 28 39
3 28 42 47
3 28 39 40
3 1 36 41
3 15 45 46
3 1 2 41
3 14 15 46
3 28 29 40
3 28 29 47
3 2 40 41
3 14 46 47
3 2 29 40
3 14 29 47
3 2 3 29
3 13 14 29
3 29 30 31
3 29 30 35
3 3 29 31
3 13 29 35
3 30 32 33
3 30 33 34
3 30 31 32
3 30 34 35
3 3 4 31
3 12 13 35
3 4 5 48
3 11 12 54
3 5 6 48
3 10 11 54
3 6 48 59
3 10 54 55
3 6 7 59
3 9 10 55
3 7 58 59
3 9 55 56
3 8 57 58
3 8 56 57
3 7 8 58
3 8 9 56
3 4 31 48
3 12 35 54
3 31 48 49
3 35 53 54
3 31 49 50
3 35 52 53
3 31 32 50
3 34 35 52
3 32 33 50
3 33 34 52
3 33 50 51
3 33 51 52
3 48 49 60
3 49 60 50
3 50 60 61
3 50 51 61
3 51 52 61
3 61 62 52
3 52 53 62
3 53 54 62
3 54 55 63
3 55 56 63
3 56 63 64
3 56 57 64
3 64 65 57
3 57 58 65
3 58 59 65
3 48 59 65
