ply
format ascii 1.0
element vertex 66
property float x
property float y
property float z
property float u
property float v
element face 91
property list uchar int vertex_indices
end_header
-19.4447 -5.78231 20.993 504.677 431.466
-18.8011 -0.690017 20.5129 505.429 451.887
-17.911 4.35943 20.0304 507.185 472.234
-16.6526 9.37063 18.0564 510.729 492.085
-14.7384 14.2117 13.5982 517.462 510.704
-11.8737 18.4621 7.93616 528.465 526.945
-8.20268 21.9904 3.08026 542.803 540.884
-3.91395 24.7107 -1.04067 559.769 552.08
1.03181 25.6366 -4.69091 579.945 556.525
6.19025 24.3748 -0.91164 600.298 554.747
10.421 21.1417 3.2072 617.615 544.848
13.8496 17.027 8.00193 631.917 531.336
16.4005 12.288 13.6303 642.774 515.259
17.8531 7.07655 18.1527 649.638 496.505
18.4837 1.78242 20.1771 653.749 476.282
18.6276 -3.49186 20.6985 656.208 455.457
18.4254 -8.78341 21.0399 657.325 434.368
-15.0023 -15.4881 0.0439021 530.338 387.629
-12.9597 -16.7882 -1.48627 539.31 382.742
-10.5578 -17.3826 -2.89665 549.429 380.852
-8.06679 -17.4507 -4.28168 559.701 381.105
-5.61046 -17.0009 -5.50157 569.606 383.467
2.73331 -17.5259 -5.51645 603.192 384.642
5.03428 -18.3631 -4.23661 612.456 382.621
7.46726 -18.6886 -2.83599 622.031 382.735
9.91741 -18.5509 -1.36673 631.486 384.726
12.1792 -17.6898 0.200395 639.895 389.562
-0.604092 -11.8384 -4.87596 587.565 406.242
-0.305802 -9.0159 -7.56945 588.238 416.746
-0.0204749 -6.21158 -10.4097 588.895 427.124
0.247791 -3.43163 -13.2183 589.487 437.408
-2.9015 -0.000283809 -6.0349 574.143 452.213
-1.20262 0.353007 -7.02713 581.008 453.966
0.566061 0.453699 -7.95718 588.235 454.759
2.19106 0.110497 -6.94977 594.663 454.356
3.70297 -0.492716 -6.09592 600.767 452.82
-11.5868 -10.4956 -0.987061 542.33 408.561
-10.2184 -11.4216 -1.02593 548.162 405.389
-8.50427 -11.7165 -1.0596 555.139 404.874
-6.92274 -11.3046 -0.994438 561.298 407.16
-8.38064 -10.6135 -1.03782 555.213 409.332
-10.0068 -10.3689 -0.992958 548.605 409.685
4.82484 -12.0712 -0.697431 608.532 408.808
6.28268 -12.746 -1.00503 614.681 406.587
8.00678 -12.7881 -1.0084 621.596 407.094
9.52016 -12.1295 -0.947123 627.391 410.337
8.01979 -11.6979 -0.862813 621.208 411.499
6.3803 -11.6854 -0.790045 614.629 410.929
-6.35748 9.11581 -2.75159 556.216 488.315
-4.34647 7.4941 -4.76433 565.28 481.975
-1.93762 6.26537 -6.42611 575.717 477.473
0.798395 6.3225 -8.09262 586.979 478.231
3.44698 5.92048 -6.32019 597.37 478.245
5.90916 6.8191 -4.62793 606.542 483.351
7.9719 8.1734 -2.50042 613.856 490.261
6.29427 10.3151 -4.0937 606.657 497.63
3.91009 11.7659 -5.15425 596.785 502.139
1.042 12.353 -6.53816 585.367 502.905
-1.83018 12.08 -5.25879 573.719 501.105
-4.35972 10.9685 -4.11507 563.786 496.049
-2.0701 8.16438 -5.01686 574.187 485.461
0.876958 7.99545 -7.30591 586.504 485.196
3.71349 7.8253 -4.86598 597.425 486.427
3.859 9.23756 -4.44075 597.389 492.26
0.966077 9.9375 -6.2569 585.917 493.325
-2.0495 9.60299 -4.51735 573.626 491.375
3 20 21 23
3 21 22 23
3 0 1 36
3 15 16 45
3 0 17 36
3 16 26 45
3 17 18 37
3 25 26 44
3 17 36 37
3 26 44 45
3 18 19 38
3 24 25 43
3 18 37 38
3 25 43 44
3 19 20 38
3 23 24 43
3 20 21 39
3 22 23 42
3 20 38 39
3 23 42 43
3 21 22 27
3 21 27 39
3 22 27 42
3 27 28 42
3 27 28 39
3 28 42 47
3 28 39 40
3 1 36 41
3 15 45 46
3 1 2 41
3 14 15 46
3 28 29 40
3 28 29 47
3 2 40 41
3 14 46 47
3 2 29 40
3 14 29 47
3 2 3 29
3 13 14 29
3 29 30 31
3 29 30 35
3 3 29 31
3 13 29 35
3 30 32 33
3 30 33 34
3 30 31 32
3 30 34 35
3 3 4 31
3 12 13 35
3 4 5 48
3 11 12 54
3 5 6 48
3 10 11 54
3 6 48 59
3 10 54 55
3 6 7 59
3 9 10 55
3 7 58 59
3 9 55 56
3 8 57 58
3 8 56 57
3 7 8 58
3 8 9 56
3 4 31 48
3 12 35 54
3 31 48 49
3 35 53 54
3 31 49 50
3 35 52 53
3 31 32 50
3 34 35 52
3 32 33 50
3 33 34 52
3 33 50 51
3 33 51 52
3 48 49 60
3 49 60 50
3 50 60 61
3 50 51 61
3 51 52 61
3 61 62 52
3 52 53 62
3 53 54 62
3 54 55 63
3 55 56 63
3 56 63 64
3 56 57 64
3 64 65 57
3 57 58 65
3 58 59 65
3 48 59 65
