ply
format ascii 1.0
element vertex 66
property float x
property float y
property float z
property float u
property float v
element face 91
property list uchar int vertex_indices
end_header
-20.4423 -5.6061 21.0761 502.605 433.646
-19.7595 -0.431647 20.513 503.824 453.286
-18.7671 4.70315 20.095 506.202 472.926
-17.359 9.70181 18.2025 510.524 491.629
-15.2754 14.3306 13.3855 518.164 508.047
-12.235 18.3163 7.85836 529.789 522.057
-8.41372 21.5968 3.18076 544.408 533.951
-3.96592 23.9944 -1.03232 561.57 542.862
1.07851 24.6939 -4.61445 581.36 545.749
6.32535 23.5589 -0.847365 600.854 544.478
10.6799 20.566 3.35315 617.395 536.041
14.2157 16.6498 7.96007 630.997 523.997
16.92 12.1552 13.4263 641.414 509.819
18.5509 7.1811 18.2788 648.015 493.259
19.329 1.95433 20.1995 652.079 474.381
19.5664 -3.33826 20.6344 654.428 454.531
19.4017 -8.63394 21.0652 655.246 434.542
-15.7755 -15.4755 0.0918115 527.819 389.814
-13.5414 -16.8396 -1.48365 537.068 384.744
-10.9615 -17.3634 -2.84351 547.343 383.051
-8.3355 -17.2965 -4.22344 557.626 383.607
-5.78063 -16.6953 -5.44168 567.447 386.229
3.10427 -17.2575 -5.40341 601.443 386.873
5.47235 -18.2086 -4.14669 610.466 384.469
8.00042 -18.6469 -2.76382 619.921 384.107
10.5825 -18.555 -1.35806 629.423 385.783
12.9814 -17.6114 0.270228 637.931 390.718
-0.587375 -11.4822 -4.80488 585.573 407.866
-0.288544 -8.32939 -7.68788 586.423 418.849
-0.0023724 -5.18802 -10.5934 587.232 429.776
0.269134 -2.05368 -13.2577 587.935 440.762
-2.92688 0.911555 -6.2377 573.371 453.64
-1.22765 1.39245 -7.16048 579.905 455.65
0.579371 1.53799 -7.94666 586.916 456.471
2.25176 1.1547 -7.02703 593.197 455.879
3.74845 0.432082 -6.23138 598.935 453.899
-12.3159 -10.5573 -1.02436 539.809 409.139
-10.7116 -11.5623 -1.02719 546.213 405.823
-8.76123 -11.8463 -0.973268 553.712 405.372
-7.01047 -11.2285 -0.925475 560.19 408.278
-8.70588 -10.5635 -1.06122 553.569 410.224
-10.5508 -10.3502 -1.02729 546.473 410.473
4.93235 -11.9796 -0.643996 605.835 409.247
6.53171 -12.8571 -0.898116 612.237 406.32
8.48243 -12.9295 -0.977496 619.706 406.622
10.2224 -12.2048 -0.942603 626.115 409.926
8.54741 -11.6882 -0.87029 619.569 411.393
6.70356 -11.6322 -0.810672 612.517 411.054
-4.98977 9.04459 -2.80138 562.402 485.147
-3.43012 7.42534 -4.90612 569.271 478.701
-1.4694 6.26211 -6.54974 577.435 474.283
0.762251 6.38712 -8.27845 586.275 474.807
2.91922 5.99011 -6.39317 594.196 474.674
4.93665 6.88058 -4.73509 601.26 479.3
6.55998 8.30263 -2.53888 606.551 486.021
5.14242 9.86307 -3.93751 601.003 490.98
3.21558 10.8608 -5.05815 593.618 493.75
0.961641 11.2471 -6.52925 585.241 493.966
-1.28018 11.0905 -5.21818 576.462 493.163
-3.31359 10.3623 -4.02496 568.669 490.212
-1.06224 8.18904 -5.09743 578.11 482.265
0.858373 8.09818 -7.20839 585.911 481.73
2.69243 7.99542 -4.89351 592.422 482.774
2.68621 8.34148 -4.41317 592.193 484.264
0.863964 8.69183 -6.17067 585.534 484.372
-1.02431 8.54899 -4.54906 578.03 483.847
3 20 21 23
3 21 22 23
3 0 1 36
3 15 16 45
3 0 17 36
3 16 26 45
3 17 18 37
3 25 26 44
3 17 36 37
3 26 44 45
3 18 19 38
3 24 25 43
3 18 37 38
3 25 43 44
3 19 20 38
3 23 24 43
3 20 21 39
3 22 23 42
3 20 38 39
3 23 42 43
3 21 22 27
3 21 27 39
3 22 27 42
3 27 28 42
3 27 28 39
3 28 42 47
3 28 39 40
3 1 36 41
3 15 45 46
3 1 2 41
3 14 15 46
3 28 29 40
3 28 29 47
3 2 40 41
3 14 46 47
3 2 29 40
3 14 29 47
3 2 3 29
3 13 14 29
3 29 30 31
3 29 30 35
3 3 29 31
3 13 29 35
3 30 32 33
3 30 33 34
3 30 31 32
3 30 34 35
3 3 4 31
3 12 13 35
3 4 5 48
3 11 12 54
3 5 6 48
3 10 11 54
3 6 48 59
3 10 54 55
3 6 7 59
3 9 10 55
3 7 58 59
3 9 55 56
3 8 57 58
3 8 56 57
3 7 8 58
3 8 9 56
3 4 31 48
3 12 35 54
3 31 48 49
3 35 53 54
3 31 49 50
3 35 52 53
3 31 32 50
3 34 35 52
3 32 33 50
3 33 34 52
3 33 50 51
3 33 51 52
3 48 49 60
3 49 60 50
3 50 60 61
3 50 51 61
3 51 52 61
3 61 62 52
3 52 53 62
3 53 54 62
3 54 55 63
3 55 56 63
3 56 63 64
3 56 57 64
3 64 65 57
3 57 58 65
3 58 59 65
3 48 59 65
