ply
format ascii 1.0
element vertex 66
property float x
property float y
property float z
property float u
property float v
element face 91
property list uchar int vertex_indices
end_header
-20.3899 -5.6688 21.0361 502.138 434.306
-19.7358 -0.54838 20.4796 503.268 453.714
-18.761 4.52855 20.0738 505.597 473.117
-17.3629 9.48573 18.1506 509.913 491.595
-15.2753 14.1284 13.4096 517.577 507.975
-12.2328 18.1598 7.87031 529.233 522.017
-8.4067 21.4837 3.18059 543.891 533.958
-3.95052 23.9246 -1.01494 561.095 542.942
1.10145 24.6704 -4.57576 580.92 545.935
6.31772 23.5754 -0.887386 600.286 544.877
10.682 20.6571 3.32201 616.82 536.843
14.2482 16.8065 7.94184 630.493 525.187
16.9705 12.339 13.4385 640.934 511.275
18.5752 7.33869 18.2758 647.42 494.73
19.3287 2.08509 20.2522 651.375 475.821
19.5745 -3.22936 20.7211 653.75 455.924
19.4367 -8.5496 21.1419 654.676 435.865
-15.6539 -15.5075 0.083376 527.716 390.131
-13.4833 -16.7507 -1.47051 536.693 385.475
-11.0126 -17.2152 -2.85133 546.549 383.936
-8.50639 -17.1658 -4.24631 556.394 384.352
-6.06441 -16.6297 -5.47688 565.816 386.659
3.10772 -17.2195 -5.39104 600.91 387.322
5.47874 -18.1441 -4.13447 609.931 385.055
7.99608 -18.5734 -2.75296 619.337 384.762
10.5643 -18.4847 -1.34926 628.782 386.459
12.9517 -17.5661 0.263672 637.25 391.332
-0.720302 -11.3605 -4.83388 584.501 408.574
-0.410021 -8.28949 -7.69289 585.429 419.185
-0.109948 -5.23069 -10.5906 586.331 429.73
0.1807 -2.18126 -13.2615 587.149 440.328
-3.02035 0.923894 -6.22664 572.482 453.904
-1.30941 1.38574 -7.16714 579.076 455.817
0.500392 1.52439 -7.96823 586.109 456.59
2.21079 1.12178 -7.05193 592.538 455.962
3.75296 0.389562 -6.27448 598.452 453.975
-12.4363 -10.5073 -1.02067 538.768 409.666
-10.8456 -11.5621 -1.02353 545.135 406.16
-8.87862 -11.8396 -0.982802 552.7 405.738
-7.1283 -11.1955 -0.950536 559.174 408.742
-8.81803 -10.5001 -1.07565 552.563 410.802
-10.6708 -10.2758 -1.03523 545.43 411.09
4.95355 -11.994 -0.644015 605.365 409.61
6.55661 -12.9279 -0.922098 611.805 406.457
8.53403 -13.005 -0.968498 619.371 406.765
10.2954 -12.259 -0.897347 625.849 410.173
8.61503 -11.7057 -0.84681 619.275 411.767
6.74664 -11.6376 -0.791309 612.125 411.464
-5.02553 9.12242 -2.79357 561.696 485.745
-3.46146 7.46774 -4.89189 568.603 479.122
-1.47145 6.28201 -6.55218 576.899 474.586
0.806932 6.39223 -8.28571 585.934 475.027
3.02502 5.97414 -6.4048 594.086 474.881
5.11346 6.85197 -4.73751 601.415 479.527
6.81327 8.257 -2.54536 606.993 486.26
5.30651 9.78464 -3.94699 601.122 491.027
3.31624 10.7512 -5.058 593.507 493.631
1.03383 11.1461 -6.49928 585.019 493.842
-1.22032 11.0225 -5.19871 576.177 493.186
-3.29405 10.3708 -4.00598 568.2 490.54
-1.15655 8.16982 -5.07634 577.221 482.433
0.907503 8.05936 -7.2119 585.593 481.809
2.90536 7.90924 -4.94491 592.742 482.766
2.89938 8.32684 -4.45362 592.488 484.543
0.918673 8.71526 -6.1376 585.206 484.728
-1.10853 8.59284 -4.5198 577.157 484.274
3 20 21 23
3 21 22 23
3 0 1 36
3 15 16 45
3 0 17 36
3 16 26 45
3 17 18 37
3 25 26 44
3 17 36 37
3 26 44 45
3 18 19 38
3 24 25 43
3 18 37 38
3 25 43 44
3 19 20 38
3 23 24 43
3 20 21 39
3 22 23 42
3 20 38 39
3 23 42 43
3 21 22 27
3 21 27 39
3 22 27 42
3 27 28 42
3 27 28 39
3 28 42 47
3 28 39 40
3 1 36 41
3 15 45 46
3 1 2 41
3 14 15 46
3 28 29 40
3 28 29 47
3 2 40 41
3 14 46 47
3 2 29 40
3 14 29 47
3 2 3 29
3 13 14 29
3 29 30 31
3 29 30 35
3 3 29 31
3 13 29 35
3 30 32 33
3 30 33 34
3 30 31 32
3 30 34 35
3 3 4 31
3 12 13 35
3 4 5 48
3 11 12 54
3 5 6 48
3 10 11 54
3 6 48 59
3 10 54 55
3 6 7 59
3 9 10 55
3 7 58 59
3 9 55 56
3 8 57 58
3 8 56 57
3 7 8 58
3 8 9 56
3 4 31 48
3 12 35 54
3 31 48 49
3 35 53 54
3 31 49 50
3 35 52 53
3 31 32 50
3 34 35 52
3 32 33 50
3 33 34 52
3 33 50 51
3 33 51 52
3 48 49 60
3 49 60 50
3 50 60 61
3 50 51 61
3 51 52 61
3 61 62 52
3 52 53 62
3 53 54 62
3 54 55 63
3 55 56 63
3 56 63 64
3 56 57 64
3 64 65 57
3 57 58 65
3 58 59 65
3 48 59 65
