ply
format ascii 1.0
element vertex 66
property float x
property float y
property float z
property float u
property float v
element face 91
property list uchar int vertex_indices
end_header
-20.1242 -5.58218 20.9391 503.026 434.066
-19.4553 -0.456383 20.3806 504.024 453.755
-18.4642 4.62919 19.991 506.25 473.47
-17.027 9.5796 18.1729 510.493 492.231
-14.9313 14.1952 13.3888 517.911 508.713
-11.9854 18.2781 7.8633 528.915 523.137
-8.28402 21.7379 3.1651 542.895 535.77
-3.90732 24.3227 -1.00466 559.676 545.492
1.14339 25.1037 -4.62118 579.554 548.747
6.37218 23.9272 -0.864486 599.464 547.58
10.6582 20.845 3.28731 616.29 538.931
14.0904 16.8362 7.93579 630.037 526.633
16.6712 12.2637 13.4385 640.532 512.227
18.2283 7.23128 18.2911 647.341 495.434
18.9912 1.93358 20.1413 651.698 476.111
19.2209 -3.43003 20.5898 654.267 455.774
19.0526 -8.79615 21.0506 655.297 435.295
-15.5396 -15.4588 0.101338 527.632 389.136
-13.4097 -16.9112 -1.49783 536.613 383.635
-10.8753 -17.505 -2.84861 546.829 381.673
-8.271 -17.4586 -4.23494 557.111 382.18
-5.74126 -16.8557 -5.46778 566.896 384.861
3.02504 -17.4893 -5.39439 600.932 385.485
5.38927 -18.4922 -4.12657 610.164 382.971
7.92284 -18.9488 -2.73413 619.85 382.666
10.5045 -18.8116 -1.34012 629.525 384.658
12.8639 -17.7914 0.27991 638.013 390.058
-0.637701 -11.5726 -4.81531 584.749 407.184
-0.323847 -8.48793 -7.68277 585.453 417.96
-0.0195941 -5.41044 -10.5303 586.118 428.712
0.268791 -2.33906 -13.1372 586.682 439.536
-2.87888 0.674103 -6.17525 572.317 452.888
-1.23463 1.15457 -7.09818 578.669 454.921
0.522704 1.29627 -7.891 585.546 455.746
2.16896 0.913514 -6.9757 591.866 455.221
3.63624 0.193159 -6.15898 597.623 453.297
-12.0308 -10.5515 -1.09447 539.778 408.704
-10.5154 -11.4814 -1.04089 545.923 405.677
-8.6736 -11.7886 -0.949587 553.118 405.171
-6.99631 -11.3239 -0.926689 559.436 407.544
-8.58715 -10.6264 -1.07823 553.093 409.612
-10.3432 -10.3912 -1.03954 546.23 409.925
4.9793 -12.1463 -0.604287 605.879 408.654
6.53572 -12.9011 -0.839049 612.177 406.195
8.40033 -12.9378 -0.972168 619.41 406.643
10.0654 -12.2918 -1.01942 625.634 409.68
8.45071 -11.8167 -0.875491 619.22 411.007
6.67754 -11.7674 -0.813575 612.348 410.609
-4.52886 9.16911 -2.78269 562.563 486.343
-3.19186 7.48769 -4.88308 568.646 479.482
-1.40439 6.24188 -6.5129 576.241 474.643
0.713999 6.34844 -8.25583 584.691 475.066
2.76571 5.98154 -6.40848 592.406 475.126
4.631 6.98943 -4.75684 598.986 480.321
6.06335 8.49125 -2.5512 603.634 487.492
4.83329 10.1253 -3.98425 598.602 492.753
3.08683 11.2411 -5.13258 591.695 495.963
0.915884 11.6896 -6.6088 583.427 496.328
-1.23664 11.4632 -5.24646 574.953 495.277
-3.0811 10.5895 -4.02524 567.904 491.787
-0.856086 8.21184 -4.99376 577.444 483.024
0.792887 8.06849 -7.1564 584.237 482.153
2.3633 8.0496 -4.84171 589.899 483.575
2.36147 8.651 -4.40968 589.618 486.062
0.810668 9.08405 -6.12065 583.791 486.486
-0.817191 8.82386 -4.49305 577.305 485.594
3 20 21 23
3 21 22 23
3 0 1 36
3 15 16 45
3 0 17 36
3 16 26 45
3 17 18 37
3 25 26 44
3 17 36 37
3 26 44 45
3 18 19 38
3 24 25 43
3 18 37 38
3 25 43 44
3 19 20 38
3 23 24 43
3 20 21 39
3 22 23 42
3 20 38 39
3 23 42 43
3 21 22 27
3 21 27 39
3 22 27 42
3 27 28 42
3 27 28 39
3 28 42 47
3 28 39 40
3 1 36 41
3 15 45 46
3 1 2 41
3 14 15 46
3 28 29 40
3 28 29 47
3 2 40 41
3 14 46 47
3 2 29 40
3 14 29 47
3 2 3 29
3 13 14 29
3 29 30 31
3 29 30 35
3 3 29 31
3 13 29 35
3 30 32 33
3 30 33 34
3 30 31 32
3 30 34 35
3 3 4 31
3 12 13 35
3 4 5 48
3 11 12 54
3 5 6 48
3 10 11 54
3 6 48 59
3 10 54 55
3 6 7 59
3 9 10 55
3 7 58 59
3 9 55 56
3 8 57 58
3 8 56 57
3 7 8 58
3 8 9 56
3 4 31 48
3 12 35 54
3 31 48 49
3 35 53 54
3 31 49 50
3 35 52 53
3 31 32 50
3 34 35 52
3 32 33 50
3 33 34 52
3 33 50 51
3 33 51 52
3 48 49 60
3 49 60 50
3 50 60 61
3 50 51 61
3 51 52 61
3 61 62 52
3 52 53 62
3 53 54 62
3 54 55 63
3 55 56 63
3 56 63 64
3 56 57 64
3 64 65 57
3 57 58 65
3 58 59 65
3 48 59 65
