ply
format ascii 1.0
element vertex 66
property float x
property float y
property float z
property float u
property float v
element face 91
property list uchar int vertex_indices
end_header
-20.2408 -5.80024 21.1137 502.817 433.642
-19.6126 -0.605772 20.5385 503.845 453.38
-18.7078 4.55758 20.1277 505.883 473.143
-17.412 9.59691 18.1649 509.914 492.045
-15.4618 14.3006 13.4659 517.36 508.975
-12.4725 18.2975 7.86122 529.239 523.254
-8.59875 21.4535 3.13609 544.464 534.917
-4.13862 23.7557 -1.00809 561.994 543.718
0.868801 24.4537 -4.62823 581.921 546.777
6.14806 23.3883 -0.818242 601.157 545.693
10.5822 20.4723 3.32308 617.627 537.42
14.2403 16.65 7.94637 631.267 525.615
17.0038 12.1645 13.4585 641.434 511.3
18.633 7.1676 18.194 647.673 494.419
19.3675 1.95834 20.2092 651.396 475.542
19.5403 -3.30992 20.6332 653.482 455.731
19.3229 -8.58112 21.0175 654.097 435.771
-15.7033 -15.4007 0.0600016 529.271 391.653
-13.5439 -16.8196 -1.47825 538.366 386.449
-11.008 -17.4172 -2.84043 548.596 384.542
-8.39939 -17.3948 -4.21678 558.924 385.009
-5.84883 -16.839 -5.44298 568.828 387.533
2.96512 -17.3233 -5.42915 602.479 388.532
5.33664 -18.2297 -4.15511 611.379 386.276
7.8626 -18.6217 -2.77997 620.683 386.056
10.4245 -18.4606 -1.36782 629.95 387.96
12.7726 -17.457 0.238207 638.096 393.06
-0.558991 -11.4173 -4.88203 587.169 410.01
-0.27681 -8.48982 -7.67488 588.221 420.291
-0.0100631 -5.57458 -10.531 589.238 430.499
0.242782 -2.6695 -13.2164 590.152 440.721
-2.82583 0.592339 -6.12371 575.377 454.476
-1.14382 1.0145 -7.10212 581.943 456.296
0.63027 1.13755 -7.96377 588.913 457.047
2.25305 0.779791 -6.96723 594.887 456.541
3.71861 0.110526 -6.17546 600.418 454.734
-12.1429 -10.4508 -1.0616 541.685 411.224
-10.6783 -11.4064 -1.02579 547.525 408.078
-8.86991 -11.693 -0.960949 554.466 407.592
-7.23921 -11.1455 -0.921302 560.492 410.209
-8.78624 -10.4314 -1.08567 554.449 412.369
-10.5037 -10.2256 -1.0527 547.848 412.609
5.04742 -11.8839 -0.623915 607.337 411.454
6.5236 -12.6655 -0.921909 613.271 408.861
8.32291 -12.7298 -0.999638 620.154 409.17
9.9178 -12.046 -0.969571 626.007 412.29
8.38326 -11.5175 -0.884275 619.991 413.831
6.67167 -11.4787 -0.804817 613.447 413.455
-5.15399 9.30965 -2.86051 562.962 487.916
-3.51612 7.61941 -4.9171 570.311 481.341
-1.49344 6.30533 -6.55992 578.887 476.456
0.868448 6.37142 -8.26883 588.364 476.899
3.15729 6.0116 -6.35997 596.596 476.902
5.25237 7.02672 -4.71126 603.763 481.978
6.94816 8.50529 -2.5607 609.124 488.852
5.43944 10.0327 -3.96052 603.36 493.703
3.43099 11.0114 -5.0686 595.769 496.406
1.08385 11.3964 -6.54642 587.177 496.623
-1.2437 11.2503 -5.25626 577.981 495.748
-3.36109 10.5684 -4.04392 569.765 492.88
-1.09704 8.19579 -5.10407 579.395 484.246
0.969487 8.02234 -7.19723 587.936 483.557
2.9559 7.97928 -4.87807 594.801 484.802
2.97671 8.66535 -4.40391 594.534 487.571
1.01356 9.06454 -6.12696 587.472 487.884
-1.02145 8.89886 -4.54993 579.307 487.124
3 20 21 23
3 21 22 23
3 0 1 36
3 15 16 45
3 0 17 36
3 16 26 45
3 17 18 37
3 25 26 44
3 17 36 37
3 26 44 45
3 18 19 38
3 24 25 43
3 18 37 38
3 25 43 44
3 19 20 38
3 23 24 43
3 20 21 39
3 22 23 42
3 20 38 39
3 23 42 43
3 21 22 27
3 21 27 39
3 22 27 42
3 27 28 42
3 27 28 39
3 28 42 47
3 28 39 40
3 1 36 41
3 15 45 46
3 1 2 41
3 14 15 46
3 28 29 40
3 28 29 47
3 2 40 41
3 14 46 47
3 2 29 40
3 14 29 47
3 2 3 29
3 13 14 29
3 29 30 31
3 29 30 35
3 3 29 31
3 13 29 35
3 30 32 33
3 30 33 34
3 30 31 32
3 30 34 35
3 3 4 31
3 12 13 35
3 4 5 48
3 11 12 54
3 5 6 48
3 10 11 54
3 6 48 59
3 10 54 55
3 6 7 59
3 9 10 55
3 7 58 59
3 9 55 56
3 8 57 58
3 8 56 57
3 7 8 58
3 8 9 56
3 4 31 48
3 12 35 54
3 31 48 49
3 35 53 54
3 31 49 50
3 35 52 53
3 31 32 50
3 34 35 52
3 32 33 50
3 33 34 52
3 33 50 51
3 33 51 52
3 48 49 60
3 49 60 50
3 50 60 61
3 50 51 61
3 51 52 61
3 61 62 52
3 52 53 62
3 53 54 62
3 54 55 63
3 55 56 63
3 56 63 64
3 56 57 64
3 64 65 57
3 57 58 65
3 58 59 65
3 48 59 65
