ply
format ascii 1.0
element vertex 66
property float x
property float y
property float z
property float u
property float v
element face 91
property list uchar int vertex_indices
end_header
-20.1138 -5.79305 20.9857 504.644 433.235
-19.4952 -0.65332 20.4387 505.572 452.916
-18.5728 4.44812 20.0377 507.642 472.611
-17.2116 9.44006 18.1603 511.811 491.444
-15.173 14.1303 13.4401 519.404 508.213
-12.1814 18.2145 7.87068 531.067 522.641
-8.37326 21.566 3.1653 545.875 534.879
-3.93398 24.0503 -0.976286 563.236 544.231
1.11366 24.8077 -4.61756 583.344 547.37
6.30158 23.6666 -0.880419 602.695 546.227
10.6093 20.6738 3.281 619.127 537.864
14.1383 16.7976 7.92392 632.714 526.047
16.8072 12.3008 13.4579 642.958 511.92
18.3908 7.29152 18.2422 649.378 495.167
19.1316 2.05029 20.2018 653.35 476.116
19.3338 -3.24163 20.6644 655.647 456.092
19.1629 -8.53985 21.069 656.527 435.896
-15.5619 -15.5511 0.108096 530.498 389.038
-13.4702 -16.9889 -1.49108 539.396 383.591
-10.9745 -17.6032 -2.86596 549.535 381.524
-8.39667 -17.595 -4.23899 559.797 381.871
-5.88206 -17.0319 -5.45264 569.603 384.386
2.86648 -17.5633 -5.3656 603.392 385.314
5.26246 -18.5485 -4.10998 612.591 382.843
7.82408 -18.9793 -2.73533 622.225 382.599
10.4235 -18.8187 -1.32825 631.813 384.647
12.7849 -17.7819 0.29381 640.16 390.057
-0.703717 -11.5127 -4.8705 587.662 407.499
-0.412963 -8.49377 -7.67503 588.561 418.044
-0.130298 -5.48586 -10.5171 589.442 428.529
0.14421 -2.48985 -13.1767 590.249 439.038
-2.85788 0.622316 -6.10968 575.937 452.778
-1.24281 1.02195 -7.08683 582.274 454.46
0.462488 1.12887 -7.95898 589.022 455.093
2.07683 0.775924 -6.97356 595.088 454.674
3.5384 0.122986 -6.15043 600.701 452.991
-11.9006 -10.4629 -1.10537 543.314 409.275
-10.4433 -11.4685 -1.06199 549.219 405.927
-8.60897 -11.7502 -0.976286 556.339 405.496
-6.96608 -11.1827 -0.890286 562.46 408.255
-8.51546 -10.4376 -1.07087 556.316 410.519
-10.2455 -10.2154 -1.05349 549.589 410.798
4.91944 -11.9873 -0.5967 608.344 409.27
6.42387 -12.8265 -0.895818 614.466 406.439
8.26999 -12.8816 -0.979247 621.604 406.813
9.8911 -12.1627 -0.9588 627.611 410.118
8.32376 -11.6061 -0.856412 621.385 411.767
6.57828 -11.552 -0.790161 614.638 411.416
-4.92298 9.30383 -2.80538 564.464 486.669
-3.34458 7.73416 -4.90914 571.557 480.343
-1.42236 6.51222 -6.55321 579.748 475.649
0.810498 6.61885 -8.24811 588.734 476.129
2.98293 6.2123 -6.39923 596.743 476.037
5.00232 7.14038 -4.75097 603.802 480.927
6.69535 8.46668 -2.57567 609.347 487.444
5.26436 10.0465 -4.02315 603.724 492.44
3.33024 11.083 -5.13364 596.248 495.32
1.04797 11.5179 -6.572 587.704 495.648
-1.21437 11.3554 -5.26581 578.72 494.789
-3.25157 10.6251 -4.06066 570.804 491.79
-0.978671 8.41951 -5.03704 580.477 483.711
0.911638 8.2835 -7.16643 588.332 482.973
2.74048 8.18368 -4.90889 594.82 484.104
2.75273 8.64529 -4.45709 594.609 486.057
0.932583 9.0563 -6.14016 587.912 486.35
-0.942581 8.89105 -4.51765 580.337 485.737
3 20 21 23
3 21 22 23
3 0 1 36
3 15 16 45
3 0 17 36
3 16 26 45
3 17 18 37
3 25 26 44
3 17 36 37
3 26 44 45
3 18 19 38
3 24 25 43
3 18 37 38
3 25 43 44
3 19 20 38
3 23 24 43
3 20 21 39
3 22 23 42
3 20 38 39
3 23 42 43
3 21 22 27
3 21 27 39
3 22 27 42
3 27 28 42
3 27 28 39
3 28 42 47
3 28 39 40
3 1 36 41
3 15 45 46
3 1 2 41
3 14 15 46
3 28 29 40
3 28 29 47
3 2 40 41
3 14 46 47
3 2 29 40
3 14 29 47
3 2 3 29
3 13 14 29
3 29 30 31
3 29 30 35
3 3 29 31
3 13 29 35
3 30 32 33
3 30 33 34
3 30 31 32
3 30 34 35
3 3 4 31
3 12 13 35
3 4 5 48
3 11 12 54
3 5 6 48
3 10 11 54
3 6 48 59
3 10 54 55
3 6 7 59
3 9 10 55
3 7 58 59
3 9 55 56
3 8 57 58
3 8 56 57
3 7 8 58
3 8 9 56
3 4 31 48
3 12 35 54
3 31 48 49
3 35 53 54
3 31 49 50
3 35 52 53
3 31 32 50
3 34 35 52
3 32 33 50
3 33 34 52
3 33 50 51
3 33 51 52
3 48 49 60
3 49 60 50
3 50 60 61
3 50 51 61
3 51 52 61
3 61 62 52
3 52 53 62
3 53 54 62
3 54 55 63
3 55 56 63
3 56 63 64
3 56 57 64
3 64 65 57
3 57 58 65
3 58 59 65
3 48 59 65
