ply
format ascii 1.0
element vertex 66
property float x
property float y
property float z
property float u
property float v
element face 91
property list uchar int vertex_indices
end_header
-19.8856 -5.95986 21.0354 503.211 433.57
-19.2689 -0.827077 20.4865 504.526 453.47
-18.3657 4.26289 20.0369 506.939 473.324
-17.0863 9.3087 18.1101 511.284 492.493
-15.1603 14.1575 13.4888 519.028 509.947
-12.2219 18.3898 7.88094 531.176 524.873
-8.42836 21.8339 3.11687 546.594 537.324
-3.9929 24.3676 -1.01685 564.545 546.677
1.02343 25.2027 -4.6289 585.019 549.804
6.1557 23.9735 -0.930473 604.204 547.996
10.3923 20.8635 3.28724 620.198 538.844
13.8896 16.9009 7.95744 633.378 526.36
16.6013 12.3442 13.4838 643.375 511.707
18.2342 7.27956 18.2019 649.538 494.441
19.0001 2.06496 20.2664 653.17 475.241
19.2588 -3.15974 20.785 655.301 455.214
19.1616 -8.40426 21.101 656.112 434.926
-15.4138 -15.6038 0.0647431 529.464 388.534
-13.2799 -16.8469 -1.49092 538.571 383.641
-10.8302 -17.3486 -2.89182 548.681 381.784
-8.32003 -17.3367 -4.275 558.895 381.948
-5.86069 -16.8111 -5.49453 568.735 384.163
2.61654 -17.277 -5.4218 601.896 384.734
5.06794 -18.2412 -4.16692 611.31 382.19
7.67278 -18.6646 -2.78657 621.151 381.844
10.3092 -18.5262 -1.35812 630.963 383.712
12.7161 -17.5415 0.256567 639.614 388.884
-0.847099 -11.5355 -4.89973 586.816 406.317
-0.590082 -8.5306 -7.65737 587.929 416.919
-0.340406 -5.54051 -10.5112 589.046 427.42
-0.089456 -2.56982 -13.2369 590.134 437.901
-3.04789 0.523283 -6.06492 575.631 452.109
-1.39362 0.928269 -7.09011 582.3 453.713
0.342933 1.04559 -8.01959 589.331 454.262
2.00312 0.656841 -7.01226 595.593 453.633
3.51618 -0.033299 -6.23644 601.426 451.694
-12.0024 -10.4123 -1.05693 541.843 409.198
-10.5641 -11.4527 -1.0567 547.709 405.552
-8.72555 -11.7299 -1.02126 554.938 404.999
-7.07846 -11.1477 -0.947341 561.198 407.75
-8.62826 -10.4242 -1.07078 555.013 410.082
-10.3475 -10.1976 -1.04516 548.242 410.497
4.93027 -11.9802 -0.710838 608.175 407.944
6.42685 -12.8234 -1.02013 614.315 404.951
8.26384 -12.8824 -0.981835 621.484 405.247
9.87622 -12.1451 -0.829558 627.546 408.626
8.31311 -11.6174 -0.812257 621.313 410.251
6.57891 -11.5754 -0.775447 614.527 409.949
-5.62769 9.16208 -2.78431 562.44 486.357
-3.86587 7.45468 -4.87269 570.374 479.333
-1.65711 6.18729 -6.52611 579.809 474.326
0.89256 6.23388 -8.19892 590.258 474.514
3.39948 5.78784 -6.31633 599.568 474.263
5.75258 6.64387 -4.66945 608.031 478.934
7.707 8.01553 -2.51717 614.658 485.711
6.08689 9.87436 -4.01201 608.341 491.864
3.87713 11.1289 -5.06653 599.737 495.687
1.27113 11.6722 -6.50864 589.881 496.473
-1.32178 11.5197 -5.22885 579.41 495.697
-3.69361 10.6988 -4.06105 570 492.335
-1.38008 8.11871 -5.02882 579.956 482.54
1.04273 7.96178 -7.1865 590.108 481.698
3.42724 7.73387 -4.94547 598.778 482.412
3.51359 8.62238 -4.46838 598.75 486.09
1.12055 9.20258 -6.14173 589.787 486.982
-1.32143 9.02463 -4.50777 579.802 486.296
3 20 21 23
3 21 22 23
3 0 1 36
3 15 16 45
3 0 17 36
3 16 26 45
3 17 18 37
3 25 26 44
3 17 36 37
3 26 44 45
3 18 19 38
3 24 25 43
3 18 37 38
3 25 43 44
3 19 20 38
3 23 24 43
3 20 21 39
3 22 23 42
3 20 38 39
3 23 42 43
3 21 22 27
3 21 27 39
3 22 27 42
3 27 28 42
3 27 28 39
3 28 42 47
3 28 39 40
3 1 36 41
3 15 45 46
3 1 2 41
3 14 15 46
3 28 29 40
3 28 29 47
3 2 40 41
3 14 46 47
3 2 29 40
3 14 29 47
3 2 3 29
3 13 14 29
3 29 30 31
3 29 30 35
3 3 29 31
3 13 29 35
3 30 32 33
3 30 33 34
3 30 31 32
3 30 34 35
3 3 4 31
3 12 13 35
3 4 5 48
3 11 12 54
3 5 6 48
3 10 11 54
3 6 48 59
3 10 54 55
3 6 7 59
3 9 10 55
3 7 58 59
3 9 55 56
3 8 57 58
3 8 56 57
3 7 8 58
3 8 9 56
3 4 31 48
3 12 35 54
3 31 48 49
3 35 53 54
3 31 49 50
3 35 52 53
3 31 32 50
3 34 35 52
3 32 33 50
3 33 34 52
3 33 50 51
3 33 51 52
3 48 49 60
3 49 60 50
3 50 60 61
3 50 51 61
3 51 52 61
3 61 62 52
3 52 53 62
3 53 54 62
3 54 55 63
3 55 56 63
3 56 63 64
3 56 57 64
3 64 65 57
3 57 58 65
3 58 59 65
3 48 59 65
