ply
format ascii 1.0
element vertex 66
property float x
property float y
property float z
property float u
property float v
element face 91
property list uchar int vertex_indices
end_header
-20.1905 -5.29828 20.8456 503.298 433.205
-19.4909 -0.273463 20.3133 504.16 452.676
-18.4397 4.70485 19.9486 506.375 472.151
-16.9234 9.52916 18.1422 510.63 490.814
-14.7582 14.0126 13.3712 517.907 507.599
-11.82 18.0092 7.89447 528.444 522.615
-8.16643 21.4287 3.2238 541.855 535.909
-3.85264 24.0157 -0.960809 558.066 546.387
1.15485 24.792 -4.54295 577.562 550.33
6.35679 23.6759 -0.829094 597.572 549.078
10.6372 20.6913 3.30694 614.681 540.39
14.0698 16.774 7.94145 628.807 527.92
16.6278 12.2678 13.4222 639.67 513.076
18.1675 7.28275 18.2907 646.867 495.825
18.9537 1.99907 20.1006 651.669 476.287
19.2222 -3.36356 20.5503 654.682 455.869
19.0745 -8.72922 21.0342 656.085 435.287
-15.4651 -15.5291 0.0943543 528.13 389.92
-13.3416 -17.0261 -1.50346 537.101 384.539
-10.8017 -17.6825 -2.84047 547.326 382.628
-8.17456 -17.691 -4.21822 557.646 383.235
-5.61788 -17.1338 -5.45987 567.463 386.03
2.98789 -17.8557 -5.35439 600.929 386.619
5.36677 -18.8207 -4.08714 610.309 384.177
7.90639 -19.2315 -2.71027 620.084 383.961
10.4796 -19.0481 -1.33483 629.764 386.046
12.8338 -18.0155 0.277691 638.245 391.38
-0.637309 -11.8532 -4.78453 584.588 408.48
-0.290177 -8.71029 -7.64042 585.108 419.927
0.0485507 -5.57776 -10.5028 585.601 431.328
0.366627 -2.45129 -13.1369 585.986 442.762
-2.66876 0.833614 -6.20831 572.12 456.144
-1.10722 1.26312 -7.09611 578.099 458.159
0.560011 1.38173 -7.85643 584.586 459.052
2.1222 1.03551 -6.96432 590.629 458.572
3.51714 0.381453 -6.15256 596.154 456.819
-12.0138 -10.6152 -1.06372 539.734 409.859
-10.4982 -11.6431 -1.02595 545.967 406.5
-8.60062 -11.9457 -0.942785 553.393 406.094
-6.91308 -11.3874 -0.928635 559.691 408.902
-8.51714 -10.6227 -1.10062 553.234 411.176
-10.3108 -10.3683 -1.03799 546.208 411.477
4.8756 -12.2217 -0.541452 605.445 410.372
6.43559 -13.1032 -0.793986 611.832 407.514
8.36946 -13.1629 -0.958927 619.339 407.989
10.0637 -12.4266 -1.03236 625.606 411.461
8.4401 -11.8493 -0.881177 619.102 413.095
6.61745 -11.7941 -0.819441 612.04 412.618
-4.11394 9.6612 -2.81391 562.749 490.508
-2.93606 7.92586 -4.91489 568.228 483.703
-1.32204 6.5466 -6.52624 575.19 478.575
0.684098 6.64589 -8.28116 583.123 479.251
2.62418 6.31528 -6.47249 590.498 479.23
4.32668 7.50684 -4.83124 596.4 484.932
5.59836 9.09732 -2.59626 600.411 492.166
4.37569 10.4117 -4.01367 595.379 496.361
2.76122 11.2877 -5.14332 588.965 498.795
0.805342 11.6523 -6.55709 581.465 499.049
-1.10872 11.4539 -5.22496 573.98 497.911
-2.75872 10.7702 -4.03359 567.717 494.967
-0.632205 8.54791 -4.97849 576.889 486.975
0.738436 8.36388 -7.15185 582.532 486.198
2.02746 8.44607 -4.83225 587.172 487.656
1.9343 8.77203 -4.43738 586.637 488.983
0.714952 9.07496 -6.13495 582.039 489.208
-0.569698 8.87302 -4.50298 576.945 488.382
3 20 21 23
3 21 22 23
3 0 1 36
3 15 16 45
3 0 17 36
3 16 26 45
3 17 18 37
3 25 26 44
3 17 36 37
3 26 44 45
3 18 19 38
3 24 25 43
3 18 37 38
3 25 43 44
3 19 20 38
3 23 24 43
3 20 21 39
3 22 23 42
3 20 38 39
3 23 42 43
3 21 22 27
3 21 27 39
3 22 27 42
3 27 28 42
3 27 28 39
3 28 42 47
3 28 39 40
3 1 36 41
3 15 45 46
3 1 2 41
3 14 15 46
3 28 29 40
3 28 29 47
3 2 40 41
3 14 46 47
3 2 29 40
3 14 29 47
3 2 3 29
3 13 14 29
3 29 30 31
3 29 30 35
3 3 29 31
3 13 29 35
3 30 32 33
3 30 33 34
3 30 31 32
3 30 34 35
3 3 4 31
3 12 13 35
3 4 5 48
3 11 12 54
3 5 6 48
3 10 11 54
3 6 48 59
3 10 54 55
3 6 7 59
3 9 10 55
3 7 58 59
3 9 55 56
3 8 57 58
3 8 56 57
3 7 8 58
3 8 9 56
3 4 31 48
3 12 35 54
3 31 48 49
3 35 53 54
3 31 49 50
3 35 52 53
3 31 32 50
3 34 35 52
3 32 33 50
3 33 34 52
3 33 50 51
3 33 51 52
3 48 49 60
3 49 60 50
3 50 60 61
3 50 51 61
3 51 52 61
3 61 62 52
3 52 53 62
3 53 54 62
3 54 55 63
3 55 56 63
3 56 63 64
3 56 57 64
3 64 65 57
3 57 58 65
3 58 59 65
3 48 59 65
