ply
format ascii 1.0
element vertex 66
property float x
property float y
property float z
property float u
property float v
element face 91
property list uchar int vertex_indices
end_header
-19.9883 -5.66852 20.8942 504.551 433.307
-19.3549 -0.552501 20.3388 505.438 453.057
-18.403 4.52246 19.9465 507.534 472.819
-16.9761 9.47283 18.1526 511.831 491.761
-14.8828 14.1041 13.451 519.482 508.654
-11.9546 18.1941 7.86871 530.743 523.434
-8.25844 21.6357 3.14737 544.991 536.295
-3.90695 24.2397 -0.972132 561.912 546.374
1.11572 25.0435 -4.60678 581.912 549.921
6.3059 23.8482 -0.850189 601.518 548.492
10.5413 20.7409 3.26242 617.979 539.484
13.9632 16.7642 7.92442 631.456 527.036
16.5556 12.2246 13.4726 641.705 512.447
18.1659 7.22186 18.237 648.488 495.444
18.9533 1.97252 20.0875 652.842 476.147
19.1657 -3.33178 20.5391 655.313 455.93
18.9824 -8.64236 20.9745 656.258 435.545
-15.3327 -15.6008 0.0927251 530.635 389.115
-13.3136 -17.0955 -1.48332 539.302 383.489
-10.8435 -17.751 -2.84044 549.385 381.338
-8.27813 -17.749 -4.22934 559.628 381.743
-5.77689 -17.1831 -5.46533 569.401 384.356
2.92599 -17.7752 -5.37627 603.24 385.159
5.26955 -18.7456 -4.10298 612.332 382.7
7.77781 -19.1606 -2.7109 621.851 382.484
10.3157 -18.9657 -1.31465 631.281 384.631
12.5854 -17.8926 0.280348 639.339 390.143
-0.65738 -11.6637 -4.84817 587.238 407.66
-0.367168 -8.75383 -7.64121 588.043 417.973
-0.0850604 -5.85241 -10.4496 588.822 428.244
0.184382 -2.9624 -13.0875 589.518 438.529
-2.7875 0.459959 -6.07061 575.274 453.222
-1.19785 0.866864 -7.04283 581.513 454.997
0.489704 0.97439 -7.90701 588.204 455.692
2.07537 0.632247 -6.91636 594.222 455.287
3.4993 -0.0127248 -6.07411 599.749 453.604
-11.8071 -10.6 -1.14745 542.905 409.188
-10.3902 -11.5932 -1.04236 548.69 405.893
-8.58583 -11.905 -0.919326 555.744 405.368
-6.96649 -11.399 -0.864347 561.828 407.908
-8.46845 -10.5834 -1.07503 555.797 410.45
-10.1799 -10.3426 -1.04915 549.092 410.787
4.92035 -12.2114 -0.542505 608.002 409.063
6.40957 -12.9942 -0.81307 614.083 406.469
8.23437 -13.0237 -0.961896 621.186 406.942
9.81314 -12.3052 -1.03981 627.073 410.238
8.27475 -11.7389 -0.865595 620.895 411.946
6.54554 -11.703 -0.794948 614.179 411.503
-4.27883 9.5246 -2.80659 565.758 488.835
-2.90247 8.03002 -4.89374 572.057 482.799
-1.22224 6.79282 -6.54765 579.346 478.02
0.787432 6.92653 -8.26472 587.471 478.62
2.732 6.53865 -6.41782 594.696 478.474
4.49481 7.53803 -4.75297 600.801 483.549
5.94773 8.83989 -2.57476 605.489 489.867
4.73269 10.3198 -4.05526 600.641 494.612
3.04863 11.3205 -5.20182 594.06 497.465
0.977167 11.7539 -6.64139 586.236 497.889
-1.07074 11.5404 -5.32621 578.082 496.822
-2.84802 10.7873 -4.09317 571.172 493.741
-0.644439 8.66109 -4.984 580.604 485.993
0.868594 8.52633 -7.1288 586.995 485.228
2.31143 8.50393 -4.83297 592.054 486.479
2.2971 8.88444 -4.42794 591.78 488.087
0.877327 9.30034 -6.1073 586.538 488.585
-0.610423 9.05235 -4.50734 580.496 487.686
3 20 21 23
3 21 22 23
3 0 1 36
3 15 16 45
3 0 17 36
3 16 26 45
3 17 18 37
3 25 26 44
3 17 36 37
3 26 44 45
3 18 19 38
3 24 25 43
3 18 37 38
3 25 43 44
3 19 20 38
3 23 24 43
3 20 21 39
3 22 23 42
3 20 38 39
3 23 42 43
3 21 22 27
3 21 27 39
3 22 27 42
3 27 28 42
3 27 28 39
3 28 42 47
3 28 39 40
3 1 36 41
3 15 45 46
3 1 2 41
3 14 15 46
3 28 29 40
3 28 29 47
3 2 40 41
3 14 46 47
3 2 29 40
3 14 29 47
3 2 3 29
3 13 14 29
3 29 30 31
3 29 30 35
3 3 29 31
3 13 29 35
3 30 32 33
3 30 33 34
3 30 31 32
3 30 34 35
3 3 4 31
3 12 13 35
3 4 5 48
3 11 12 54
3 5 6 48
3 10 11 54
3 6 48 59
3 10 54 55
3 6 7 59
3 9 10 55
3 7 58 59
3 9 55 56
3 8 57 58
3 8 56 57
3 7 8 58
3 8 9 56
3 4 31 48
3 12 35 54
3 31 48 49
3 35 53 54
3 31 49 50
3 35 52 53
3 31 32 50
3 34 35 52
3 32 33 50
3 33 34 52
3 33 50 51
3 33 51 52
3 48 49 60
3 49 60 50
3 50 60 61
3 50 51 61
3 51 52 61
3 61 62 52
3 52 53 62
3 53 54 62
3 54 55 63
3 55 56 63
3 56 63 64
3 56 57 64
3 64 65 57
3 57 58 65
3 58 59 65
3 48 59 65
