ply
format ascii 1.0
element vertex 66
property float x
property float y
property float z
property float u
property float v
element face 91
property list uchar int vertex_indices
end_header
-20.3133 -5.63908 21.0193 502.973 432.931
-19.6621 -0.474467 20.4523 503.933 452.552
-18.6893 4.65206 20.0603 506.085 472.192
-17.2771 9.63364 18.2065 510.307 490.975
-15.1959 14.2446 13.3948 517.912 507.657
-12.1918 18.2463 7.85146 529.394 522.114
-8.39961 21.561 3.17543 543.876 534.505
-3.95786 23.9902 -0.987872 560.983 543.92
1.10044 24.6886 -4.62055 580.855 547.149
6.33807 23.5507 -0.842904 600.184 545.792
10.6685 20.5503 3.31254 616.572 537.184
14.1789 16.6431 7.93195 630.022 525.007
16.8402 12.1567 13.437 640.217 510.622
18.4511 7.18879 18.2797 646.738 493.849
19.2315 1.9478 20.1847 650.912 474.842
19.4571 -3.36985 20.6166 653.363 454.897
19.2747 -8.68985 21.0604 654.263 434.808
-15.7076 -15.452 0.114542 528.706 390.772
-13.5893 -16.9343 -1.49274 537.616 385.37
-11.0561 -17.5533 -2.84625 547.763 383.46
-8.44709 -17.5194 -4.21913 557.995 384.045
-5.90709 -16.9321 -5.44017 567.75 386.751
3.152 -17.5206 -5.37306 602.322 387.614
5.50373 -18.5029 -4.10774 611.256 385.083
8.02441 -18.9495 -2.72274 620.632 384.678
10.5945 -18.8123 -1.32189 630.006 386.507
12.9444 -17.7903 0.296725 638.207 391.683
-0.605825 -11.455 -4.82122 585.979 409.504
-0.318709 -8.42456 -7.68972 586.801 420.193
-0.0410563 -5.40267 -10.5515 587.588 430.848
0.223395 -2.38678 -13.1781 588.27 441.55
-2.8462 0.815318 -6.19555 573.885 454.826
-1.21201 1.25798 -7.12325 580.175 456.769
0.525274 1.38339 -7.92776 586.928 457.582
2.15111 1.02533 -6.99042 592.988 457.069
3.60996 0.346909 -6.17784 598.546 455.246
-12.1222 -10.4569 -1.07604 541.014 410.55
-10.5839 -11.4462 -1.04831 547.165 407.33
-8.69025 -11.7385 -0.969904 554.43 406.889
-6.99026 -11.1712 -0.917298 560.691 409.633
-8.61133 -10.4322 -1.0886 554.341 411.831
-10.4096 -10.2108 -1.04909 547.432 412.072
5.04274 -11.978 -0.625949 606.57 410.747
6.6016 -12.8148 -0.863562 612.815 408.03
8.50541 -12.8694 -0.963401 620.086 408.437
10.189 -12.1587 -0.967048 626.252 411.701
8.56717 -11.6029 -0.87322 619.893 413.287
6.76185 -11.5473 -0.82884 613.009 412.899
-4.62092 9.19081 -2.80218 563.639 487.031
-3.17846 7.58493 -4.92306 570.148 480.771
-1.36691 6.36948 -6.56586 577.817 476.265
0.74123 6.49194 -8.28603 586.203 476.908
2.78226 6.11146 -6.42152 593.619 476.74
4.66432 7.07963 -4.76492 600.052 481.565
6.18326 8.49772 -2.56396 604.828 488.143
4.88286 10.0324 -3.97567 599.745 493.078
3.08987 11.0413 -5.12735 592.895 495.935
0.938764 11.44 -6.60514 584.961 496.255
-1.19443 11.2631 -5.26739 576.59 495.279
-3.08928 10.5073 -4.0313 569.335 492.157
-0.833289 8.33834 -5.04686 578.843 484.384
0.83325 8.22756 -7.15535 585.721 483.871
2.42345 8.17248 -4.87014 591.219 484.915
2.40742 8.4924 -4.41811 590.946 486.263
0.833931 8.84095 -6.14137 585.28 486.513
-0.80407 8.67126 -4.52635 578.72 485.818
3 20 21 23
3 21 22 23
3 0 1 36
3 15 16 45
3 0 17 36
3 16 26 45
3 17 18 37
3 25 26 44
3 17 36 37
3 26 44 45
3 18 19 38
3 24 25 43
3 18 37 38
3 25 43 44
3 19 20 38
3 23 24 43
3 20 21 39
3 22 23 42
3 20 38 39
3 23 42 43
3 21 22 27
3 21 27 39
3 22 27 42
3 27 28 42
3 27 28 39
3 28 42 47
3 28 39 40
3 1 36 41
3 15 45 46
3 1 2 41
3 14 15 46
3 28 29 40
3 28 29 47
3 2 40 41
3 14 46 47
3 2 29 40
3 14 29 47
3 2 3 29
3 13 14 29
3 29 30 31
3 29 30 35
3 3 29 31
3 13 29 35
3 30 32 33
3 30 33 34
3 30 31 32
3 30 34 35
3 3 4 31
3 12 13 35
3 4 5 48
3 11 12 54
3 5 6 48
3 10 11 54
3 6 48 59
3 10 54 55
3 6 7 59
3 9 10 55
3 7 58 59
3 9 55 56
3 8 57 58
3 8 56 57
3 7 8 58
3 8 9 56
3 4 31 48
3 12 35 54
3 31 48 49
3 35 53 54
3 31 49 50
3 35 52 53
3 31 32 50
3 34 35 52
3 32 33 50
3 33 34 52
3 33 50 51
3 33 51 52
3 48 49 60
3 49 60 50
3 50 60 61
3 50 51 61
3 51 52 61
3 61 62 52
3 52 53 62
3 53 54 62
3 54 55 63
3 55 56 63
3 56 63 64
3 56 57 64
3 64 65 57
3 57 58 65
3 58 59 65
3 48 59 65
