ply
format ascii 1.0
element vertex 66
property float x
property float y
property float z
property float u
property float v
element face 91
property list uchar int vertex_indices
end_header
-20.207 -5.44582 20.8741 503.548 432.967
-19.5391 -0.369909 20.3265 504.384 452.469
-18.5151 4.66239 19.9781 506.565 471.993
-17.0325 9.52966 18.1794 510.815 490.642
-14.9077 14.0378 13.3526 518.183 507.293
-11.965 18.0479 7.87313 528.977 522.156
-8.26965 21.46 3.22933 542.725 535.249
-3.89297 24.0006 -0.952294 559.314 545.394
1.16293 24.7398 -4.56443 579.053 549.065
6.40308 23.67 -0.828223 598.865 547.982
10.7344 20.7353 3.31916 615.79 539.548
14.1973 16.8376 7.92133 629.654 527.239
16.7573 12.3438 13.4023 640.118 512.567
18.266 7.36236 18.3241 646.826 495.481
19.0269 2.05851 20.14 651.326 475.998
19.279 -3.34008 20.5747 654.151 455.571
19.1171 -8.73722 21.0591 655.381 435.01
-15.5887 -15.5736 0.117344 528.496 390.029
-13.4936 -17.0764 -1.50756 537.346 384.596
-10.9829 -17.7204 -2.84234 547.431 382.683
-8.39102 -17.7124 -4.21701 557.6 383.282
-5.8735 -17.1454 -5.45452 567.259 386.031
3.06137 -17.8203 -5.33779 601.718 386.795
5.44773 -18.805 -4.07546 610.995 384.274
7.99939 -19.232 -2.70678 620.687 383.978
10.5898 -19.0378 -1.3435 630.306 386.069
12.9461 -17.9553 0.294121 638.661 391.549
-0.677457 -11.6793 -4.79252 585.095 409.048
-0.336815 -8.55309 -7.67851 585.783 420.306
-0.00439055 -5.43432 -10.5306 586.437 431.543
0.311673 -2.31806 -13.1127 586.981 442.84
-2.68407 0.939497 -6.20455 573.129 456.157
-1.12935 1.36242 -7.10559 579.092 458.094
0.530135 1.47455 -7.87321 585.545 458.919
2.10161 1.1288 -6.96786 591.533 458.437
3.5025 0.472785 -6.16081 596.995 456.678
-12.0724 -10.5921 -1.09256 540.396 410.037
-10.5518 -11.6149 -1.04292 546.58 406.704
-8.65504 -11.9092 -0.93436 553.935 406.312
-6.97032 -11.3358 -0.918537 560.182 409.134
-8.57507 -10.5668 -1.11109 553.791 411.425
-10.3715 -10.3255 -1.04863 546.81 411.7
4.92709 -12.164 -0.54945 606.005 410.483
6.48487 -13.0508 -0.798791 612.335 407.598
8.41416 -13.1048 -0.967694 619.777 408.058
10.1118 -12.3779 -1.02569 626.032 411.451
8.49024 -11.7906 -0.876373 619.581 413.138
6.66686 -11.7268 -0.825964 612.563 412.721
-3.86783 9.61887 -2.82193 564.892 489.874
-2.75228 7.86906 -4.95863 570.167 482.986
-1.20944 6.49507 -6.57118 576.852 477.844
0.71185 6.60631 -8.31128 584.478 478.485
2.57679 6.26811 -6.48719 591.427 478.404
4.22581 7.45055 -4.85527 597.038 484.002
5.46596 9.0462 -2.60585 600.826 491.205
4.28517 10.3087 -3.98332 596.089 495.202
2.72468 11.1281 -5.1349 590.016 497.429
0.855512 11.4601 -6.59084 582.989 497.591
-0.967459 11.2975 -5.2351 575.825 496.679
-2.55912 10.6775 -4.01038 569.735 494.068
-0.418178 8.57521 -4.9761 578.86 486.547
0.783071 8.40893 -7.0918 583.892 485.753
1.91864 8.47987 -4.84083 587.826 487.087
1.80461 8.54778 -4.44161 587.295 487.418
0.744569 8.77631 -6.101 583.44 487.426
-0.360047 8.63812 -4.49974 578.978 486.945
3 20 21 23
3 21 22 23
3 0 1 36
3 15 16 45
3 0 17 36
3 16 26 45
3 17 18 37
3 25 26 44
3 17 36 37
3 26 44 45
3 18 19 38
3 24 25 43
3 18 37 38
3 25 43 44
3 19 20 38
3 23 24 43
3 20 21 39
3 22 23 42
3 20 38 39
3 23 42 43
3 21 22 27
3 21 27 39
3 22 27 42
3 27 28 42
3 27 28 39
3 28 42 47
3 28 39 40
3 1 36 41
3 15 45 46
3 1 2 41
3 14 15 46
3 28 29 40
3 28 29 47
3 2 40 41
3 14 46 47
3 2 29 40
3 14 29 47
3 2 3 29
3 13 14 29
3 29 30 31
3 29 30 35
3 3 29 31
3 13 29 35
3 30 32 33
3 30 33 34
3 30 31 32
3 30 34 35
3 3 4 31
3 12 13 35
3 4 5 48
3 11 12 54
3 5 6 48
3 10 11 54
3 6 48 59
3 10 54 55
3 6 7 59
3 9 10 55
3 7 58 59
3 9 55 56
3 8 57 58
3 8 56 57
3 7 8 58
3 8 9 56
3 4 31 48
3 12 35 54
3 31 48 49
3 35 53 54
3 31 49 50
3 35 52 53
3 31 32 50
3 34 35 52
3 32 33 50
3 33 34 52
3 33 50 51
3 33 51 52
3 48 49 60
3 49 60 50
3 50 60 61
3 50 51 61
3 51 52 61
3 61 62 52
3 52 53 62
3 53 54 62
3 54 55 63
3 55 56 63
3 56 63 64
3 56 57 64
3 64 65 57
3 57 58 65
3 58 59 65
3 48 59 65
