ply
format ascii 1.0
element vertex 66
property float x
property float y
property float z
property float u
property float v
element face 91
property list uchar int vertex_indices
end_header
-20.8612 -6.29769 21.14 507.896 433.28
-20.4149 -0.952587 20.5575 508.068 452.891
-19.6785 4.37255 20.1391 509.256 472.592
-18.4328 9.62122 18.2451 512.885 491.638
-16.4187 14.5558 13.3569 520.542 508.675
-13.2044 18.6868 7.75647 533.136 522.911
-9.03195 21.8245 3.17195 549.202 534.209
-4.26419 23.9726 -0.941979 567.6 542.252
0.940495 24.6326 -4.74751 587.965 545.088
6.30037 23.4838 -0.83828 606.642 544.215
10.8933 20.6106 3.34274 622.938 536.827
14.7872 16.8323 7.84088 636.827 525.981
17.7762 12.3012 13.366 647.242 512.431
19.5353 7.16746 18.2449 653.554 495.986
20.2938 1.8328 20.3041 657.276 477.393
20.3672 -3.52249 20.7634 659.067 457.881
20.0531 -8.87744 21.0964 659.477 438.187
-15.8019 -15.0135 0.0803037 537.011 395.087
-13.6567 -16.694 -1.61184 546.066 389.024
-11.0111 -17.4787 -2.92866 556.544 386.574
-8.2246 -17.4877 -4.20565 567.282 387.044
-5.4989 -16.8483 -5.35185 577.544 389.928
2.26345 -17.1427 -5.28752 606.214 391.604
4.86439 -18.285 -4.07312 615.712 388.772
7.66749 -18.7768 -2.76979 625.717 388.438
10.4938 -18.5311 -1.4041 635.552 390.851
13.0116 -17.3001 0.261979 643.83 396.894
-0.70044 -11.1327 -4.9483 593.273 412.806
-0.482236 -8.19066 -7.7202 594.166 422.671
-0.26973 -5.25428 -10.5318 595.054 432.498
-0.0551769 -2.33226 -13.1788 595.894 442.335
-3.11682 0.696641 -6.14197 581.077 455.043
-1.41246 1.153 -7.05952 587.549 456.979
0.391998 1.27536 -7.92777 594.478 457.739
2.12144 0.89214 -6.92301 600.602 457.315
3.67793 0.162816 -6.22239 606.31 455.442
-11.4158 -9.80526 -1.27049 552.024 415.294
-9.95411 -10.6418 -1.26253 557.671 412.734
-8.2073 -10.908 -1.07306 564.122 412.441
-6.5391 -10.5134 -0.79215 570.041 414.586
-8.0826 -9.87205 -1.05493 564.248 416.304
-9.75613 -9.67368 -1.13241 558.047 416.415
4.78733 -11.2887 -0.582066 611.941 415.803
6.32672 -11.9198 -1.01905 617.972 413.859
8.06379 -11.9649 -1.1293 624.427 414.264
9.64821 -11.4119 -1.00738 630.046 416.903
8.07188 -10.979 -0.886187 624.057 417.986
6.39793 -10.9299 -0.771409 617.831 417.62
-5.45526 8.76884 -2.78309 568.683 485.187
-3.74828 7.09133 -4.93198 576.289 478.809
-1.61962 5.8705 -6.56237 585.115 474.454
0.832436 5.94641 -8.10669 594.693 475.018
3.24602 5.5172 -6.2862 603.053 474.972
5.48449 6.37571 -4.66965 610.437 479.527
7.33718 7.76736 -2.50913 616.032 486.112
5.69571 9.30782 -3.88854 610.004 490.685
3.57265 10.2906 -5.06237 602.302 493.114
1.13289 10.6914 -6.62509 593.76 493.143
-1.27917 10.6238 -5.27234 584.397 492.552
-3.54003 10.0277 -3.94704 575.769 490.058
-1.18147 7.82381 -5.06732 585.565 482.358
0.975813 7.69003 -7.00005 594.265 481.901
3.09945 7.51317 -4.90666 601.378 482.784
3.14301 7.9762 -4.43702 601.22 484.679
1.01412 8.36129 -6.27374 593.928 484.657
-1.14793 8.30885 -4.54333 585.344 484.352
3 20 21 23
3 21 22 23
3 0 1 36
3 15 16 45
3 0 17 36
3 16 26 45
3 17 18 37
3 25 26 44
3 17 36 37
3 26 44 45
3 18 19 38
3 24 25 43
3 18 37 38
3 25 43 44
3 19 20 38
3 23 24 43
3 20 21 39
3 22 23 42
3 20 38 39
3 23 42 43
3 21 22 27
3 21 27 39
3 22 27 42
3 27 28 42
3 27 28 39
3 28 42 47
3 28 39 40
3 1 36 41
3 15 45 46
3 1 2 41
3 14 15 46
3 28 29 40
3 28 29 47
3 2 40 41
3 14 46 47
3 2 29 40
3 14 29 47
3 2 3 29
3 13 14 29
3 29 30 31
3 29 30 35
3 3 29 31
3 13 29 35
3 30 32 33
3 30 33 34
3 30 31 32
3 30 34 35
3 3 4 31
3 12 13 35
3 4 5 48
3 11 12 54
3 5 6 48
3 10 11 54
3 6 48 59
3 10 54 55
3 6 7 59
3 9 10 55
3 7 58 59
3 9 55 56
3 8 57 58
3 8 56 57
3 7 8 58
3 8 9 56
3 4 31 48
3 12 35 54
3 31 48 49
3 35 53 54
3 31 49 50
3 35 52 53
3 31 32 50
3 34 35 52
3 32 33 50
3 33 34 52
3 33 50 51
3 33 51 52
3 48 49 60
3 49 60 50
3 50 60 61
3 50 51 61
3 51 52 61
3 61 62 52
3 52 53 62
3 53 54 62
3 54 55 63
3 55 56 63
3 56 63 64
3 56 57 64
3 64 65 57
3 57 58 65
3 58 59 65
3 48 59 65
