ply
format ascii 1.0
element vertex 66
property float x
property float y
property float z
property float u
property float v
element face 91
property list uchar int vertex_indices
end_header
-19.5766 -5.79512 20.9544 503.684 433.18
-18.9482 -0.735426 20.475 504.534 453.018
-18.0223 4.27836 20.0317 506.563 472.798
-16.712 9.22531 18.0363 510.457 491.813
-14.7662 13.9954 13.463 517.46 509.295
-11.892 18.2368 7.94321 528.497 524.651
-8.21271 21.775 3.11457 542.792 537.832
-3.88267 24.4545 -1.02533 559.793 548.171
1.11222 25.3402 -4.62721 579.904 551.951
6.23929 24.1422 -0.959971 599.696 550.635
10.4627 21.0384 3.21718 616.475 541.742
13.8931 17.036 7.99219 630.313 529.292
16.4558 12.4014 13.4949 640.798 514.356
17.9083 7.26432 18.1989 647.258 496.719
18.5787 1.96922 20.2744 651.256 477.091
18.7925 -3.34764 20.8097 653.793 456.574
18.6512 -8.67925 21.152 654.981 435.79
-15.2925 -15.4121 0.0722226 528.261 388.417
-13.1374 -16.6785 -1.49695 537.503 383.587
-10.6657 -17.1887 -2.89521 547.697 381.903
-8.13669 -17.173 -4.28479 557.935 382.303
-5.66778 -16.6492 -5.53303 567.733 384.728
2.63772 -17.2254 -5.47718 600.584 385.498
5.05951 -18.1919 -4.19158 610.165 383.123
7.63444 -18.6293 -2.8007 620.145 382.918
10.2503 -18.5214 -1.36911 630.092 384.88
12.6755 -17.5906 0.245101 638.969 390.07
-0.773282 -11.4996 -4.90904 585.097 406.918
-0.463145 -8.55921 -7.65511 585.9 417.404
-0.161837 -5.63418 -10.4916 586.694 427.788
0.129823 -2.72705 -13.2033 587.429 438.151
-3.03618 0.273585 -6.14548 572.45 451.681
-1.34575 0.65947 -7.07104 579.164 453.419
0.419678 0.767316 -7.91471 586.251 454.13
2.09493 0.388729 -7.01585 592.778 453.626
3.64333 -0.274177 -6.25818 598.932 451.905
-11.9731 -10.3582 -0.992335 539.823 408.962
-10.448 -11.3177 -1.03398 546.156 405.74
-8.58599 -11.5803 -1.05768 553.575 405.375
-6.90682 -11.0839 -1.01323 560 407.944
-8.52561 -10.4643 -1.07265 553.435 409.76
-10.2792 -10.2221 -1.02355 546.445 410.094
4.79008 -11.9163 -0.713624 606.226 409.038
6.34421 -12.7207 -1.01408 612.677 406.326
8.22387 -12.8059 -0.991341 620.094 406.681
9.92534 -12.1636 -0.8815 626.544 409.857
8.30138 -11.697 -0.847845 619.99 411.11
6.519 -11.6405 -0.797389 612.95 410.708
-5.92949 9.19549 -2.75072 557.307 486.974
-4.39207 6.96968 -4.81965 564.553 477.957
-2.08753 5.37281 -6.42101 574.503 471.874
0.734617 5.29142 -8.1425 585.997 471.862
3.50873 4.97002 -6.32768 596.631 472.359
5.9756 6.20241 -4.70423 605.568 478.749
7.74651 8.15629 -2.52776 611.404 487.942
6.20883 10.3693 -4.02769 604.922 495.428
3.9688 11.9592 -5.0977 595.798 500.4
1.13578 12.6016 -6.52755 584.741 501.298
-1.69625 12.3296 -5.17809 573.407 499.768
-4.09414 11.1134 -4.02645 564.145 494.617
-2.07909 7.52383 -4.94352 573.488 480.912
0.844395 7.14797 -7.26296 585.609 479.535
3.71639 7.11912 -4.88447 596.408 481.447
3.85693 9.23703 -4.44681 596.146 489.971
1.00579 10.0247 -6.17435 585.032 491.308
-1.95007 9.65197 -4.44703 573.165 489.496
3 20 21 23
3 21 22 23
3 0 1 36
3 15 16 45
3 0 17 36
3 16 26 45
3 17 18 37
3 25 26 44
3 17 36 37
3 26 44 45
3 18 19 38
3 24 25 43
3 18 37 38
3 25 43 44
3 19 20 38
3 23 24 43
3 20 21 39
3 22 23 42
3 20 38 39
3 23 42 43
3 21 22 27
3 21 27 39
3 22 27 42
3 27 28 42
3 27 28 39
3 28 42 47
3 28 39 40
3 1 36 41
3 15 45 46
3 1 2 41
3 14 15 46
3 28 29 40
3 28 29 47
3 2 40 41
3 14 46 47
3 2 29 40
3 14 29 47
3 2 3 29
3 13 14 29
3 29 30 31
3 29 30 35
3 3 29 31
3 13 29 35
3 30 32 33
3 30 33 34
3 30 31 32
3 30 34 35
3 3 4 31
3 12 13 35
3 4 5 48
3 11 12 54
3 5 6 48
3 10 11 54
3 6 48 59
3 10 54 55
3 6 7 59
3 9 10 55
3 7 58 59
3 9 55 56
3 8 57 58
3 8 56 57
3 7 8 58
3 8 9 56
3 4 31 48
3 12 35 54
3 31 48 49
3 35 53 54
3 31 49 50
3 35 52 53
3 31 32 50
3 34 35 52
3 32 33 50
3 33 34 52
3 33 50 51
3 33 51 52
3 48 49 60
3 49 60 50
3 50 60 61
3 50 51 61
3 51 52 61
3 61 62 52
3 52 53 62
3 53 54 62
3 54 55 63
3 55 56 63
3 56 63 64
3 56 57 64
3 64 65 57
3 57 58 65
3 58 59 65
3 48 59 65
