ply
format ascii 1.0
element vertex 66
property float x
property float y
property float z
property float u
property float v
element face 91
property list uchar int vertex_indices
end_header
-20.2812 -5.84254 21.1974 503.203 433.124
-19.6084 -0.590725 20.6328 504.258 453.104
-18.6816 4.63215 20.1968 506.252 473.103
-17.3981 9.72827 18.2088 510.071 492.229
-15.4715 14.4583 13.4773 517.21 509.277
-12.4671 18.4254 7.86613 528.933 523.504
-8.56668 21.5193 3.14177 544.093 535.013
-4.09864 23.7544 -1.02848 561.53 543.638
0.895696 24.4082 -4.65188 581.317 546.619
6.16972 23.3175 -0.815455 600.657 545.536
10.598 20.3755 3.33017 617.281 537.24
14.2374 16.5272 7.95578 631.059 525.395
16.9799 12.0276 13.465 641.388 511.064
18.605 7.05971 18.1597 647.84 494.306
19.3313 1.91561 20.1862 651.668 475.693
19.4931 -3.28132 20.5844 653.816 456.15
19.2617 -8.48079 20.9674 654.473 436.458
-15.8849 -15.4137 0.0651864 528.786 391.298
-13.6521 -16.8847 -1.47203 538.167 385.964
-11.0236 -17.4978 -2.83366 548.732 384.079
-8.32264 -17.4529 -4.20668 559.369 384.712
-5.68341 -16.848 -5.42194 569.55 387.503
2.99526 -17.2655 -5.45294 602.694 388.855
5.31844 -18.1764 -4.16742 611.461 386.61
7.80545 -18.584 -2.78088 620.664 386.365
10.3441 -18.4959 -1.35116 629.895 388.034
12.7101 -17.5816 0.246556 638.162 392.837
-0.406735 -11.4621 -4.86452 587.76 409.926
-0.129487 -8.43673 -7.67779 588.635 420.577
0.128921 -5.42486 -10.5625 589.463 431.146
0.368548 -2.42327 -13.2727 590.175 441.727
-2.75679 0.583226 -6.14045 575.369 454.436
-1.05536 1.0166 -7.11966 581.972 456.336
0.740921 1.14962 -7.98076 588.999 457.166
2.34515 0.803868 -6.97153 594.93 456.732
3.79332 0.145764 -6.13785 600.415 455.001
-12.2334 -10.5098 -1.03257 541.425 410.792
-10.7159 -11.477 -1.01704 547.498 407.641
-8.85894 -11.763 -0.971234 554.637 407.201
-7.18933 -11.1627 -0.912885 560.78 410.066
-8.79295 -10.4808 -1.06783 554.509 412.059
-10.5534 -10.2856 -1.0358 547.744 412.213
5.05514 -11.8375 -0.640661 607.481 411.752
6.55364 -12.6413 -0.915553 613.51 409.118
8.38746 -12.7187 -0.992584 620.529 409.421
10.0078 -12.0012 -0.969714 626.458 412.703
8.44188 -11.4795 -0.894992 620.318 414.177
6.70515 -11.4469 -0.817846 613.682 413.736
-5.35214 9.2265 -2.86772 561.863 487.45
-3.6101 7.61082 -4.92242 569.566 481.229
-1.52661 6.36237 -6.56125 578.336 476.655
0.855187 6.45445 -8.27443 587.838 477.248
3.13917 6.09961 -6.34883 596.104 477.312
5.24363 7.07423 -4.70269 603.344 482.271
6.96283 8.52289 -2.57522 608.836 489.057
5.4331 10.0298 -3.96755 602.927 493.799
3.38981 10.9659 -5.0511 595.16 496.301
1.03338 11.3205 -6.52824 586.495 496.359
-1.32662 11.1635 -5.24876 577.217 495.384
-3.49326 10.4837 -4.06742 568.866 492.458
-1.17847 8.2177 -5.15685 578.686 484.281
0.949035 8.08391 -7.24547 587.396 483.806
2.96921 8.04125 -4.86135 594.433 485.117
2.99371 8.62848 -4.38421 594.208 487.513
0.98906 8.98587 -6.15233 586.961 487.605
-1.10701 8.82702 -4.58634 578.607 486.807
3 20 21 23
3 21 22 23
3 0 1 36
3 15 16 45
3 0 17 36
3 16 26 45
3 17 18 37
3 25 26 44
3 17 36 37
3 26 44 45
3 18 19 38
3 24 25 43
3 18 37 38
3 25 43 44
3 19 20 38
3 23 24 43
3 20 21 39
3 22 23 42
3 20 38 39
3 23 42 43
3 21 22 27
3 21 27 39
3 22 27 42
3 27 28 42
3 27 28 39
3 28 42 47
3 28 39 40
3 1 36 41
3 15 45 46
3 1 2 41
3 14 15 46
3 28 29 40
3 28 29 47
3 2 40 41
3 14 46 47
3 2 29 40
3 14 29 47
3 2 3 29
3 13 14 29
3 29 30 31
3 29 30 35
3 3 29 31
3 13 29 35
3 30 32 33
3 30 33 34
3 30 31 32
3 30 34 35
3 3 4 31
3 12 13 35
3 4 5 48
3 11 12 54
3 5 6 48
3 10 11 54
3 6 48 59
3 10 54 55
3 6 7 59
3 9 10 55
3 7 58 59
3 9 55 56
3 8 57 58
3 8 56 57
3 7 8 58
3 8 9 56
3 4 31 48
3 12 35 54
3 31 48 49
3 35 53 54
3 31 49 50
3 35 52 53
3 31 32 50
3 34 35 52
3 32 33 50
3 33 34 52
3 33 50 51
3 33 51 52
3 48 49 60
3 49 60 50
3 50 60 61
3 50 51 61
3 51 52 61
3 61 62 52
3 52 53 62
3 53 54 62
3 54 55 63
3 55 56 63
3 56 63 64
3 56 57 64
3 64 65 57
3 57 58 65
3 58 59 65
3 48 59 65
