ply
format ascii 1.0
element vertex 66
property float x
property float y
property float z
property float u
property float v
element face 91
property list uchar int vertex_indices
end_header
-20.3792 -5.59943 20.8917 503.932 432.988
-19.7331 -0.468819 20.3367 504.656 452.495
-18.7276 4.61818 19.9606 506.726 472.021
-17.2223 9.55538 18.1754 511.005 490.76
-15.0417 14.132 13.3363 518.536 507.505
-12.0268 18.1685 7.83551 529.547 522.323
-8.26528 21.5741 3.19835 543.457 535.276
-3.83929 24.0999 -0.955846 560.113 545.283
1.2463 24.8386 -4.58463 579.814 548.917
6.46143 23.6729 -0.829762 599.328 547.512
10.7586 20.6679 3.29768 615.946 538.909
14.2185 16.7432 7.89341 629.63 526.649
16.8229 12.2379 13.3789 640.111 512.13
18.4147 7.2557 18.282 647.026 495.263
19.2145 1.98277 20.0927 651.609 476.113
19.4498 -3.36236 20.5322 654.328 456.086
19.2659 -8.70711 21.0181 655.447 435.919
-15.5286 -15.5808 0.111913 529.715 391.009
-13.4206 -17.1204 -1.5129 538.561 385.491
-10.8729 -17.7913 -2.84085 548.712 383.511
-8.23144 -17.7667 -4.19971 558.975 384.19
-5.6668 -17.1512 -5.42551 568.712 387.117
2.98914 -17.8038 -5.2988 601.766 387.883
5.36928 -18.8145 -4.04793 610.928 385.296
7.92174 -19.2514 -2.69117 620.519 384.976
10.5061 -19.0464 -1.33274 630.003 387.099
12.8403 -17.9508 0.308573 638.167 392.583
-0.648008 -11.5517 -4.80327 585.644 410.355
-0.338775 -8.49205 -7.67298 586.254 421.23
-0.0363078 -5.43782 -10.5111 586.834 432.091
0.25166 -2.38904 -13.1056 587.316 442.996
-2.77813 0.881979 -6.21834 573.387 456.243
-1.1962 1.33537 -7.08967 579.388 458.294
0.495818 1.4627 -7.84862 585.903 459.184
2.09425 1.10392 -6.94522 591.93 458.676
3.51395 0.421183 -6.15921 597.416 456.842
-11.8926 -10.4799 -1.13127 541.921 411.311
-10.3986 -11.4418 -1.07984 547.923 408.236
-8.55119 -11.7372 -0.955658 555.016 407.836
-6.88972 -11.2226 -0.882614 561.123 410.421
-8.46164 -10.4608 -1.09365 554.926 412.663
-10.2189 -10.2297 -1.06015 548.169 412.898
4.90552 -12.0389 -0.544567 606.108 411.789
6.44545 -12.8446 -0.812859 612.288 409.231
8.31906 -12.8909 -0.984307 619.445 409.699
9.96916 -12.2051 -1.03787 625.471 412.891
8.37509 -11.6447 -0.880065 619.194 414.469
6.59838 -11.588 -0.82004 612.421 414.043
-4.04207 9.44266 -2.7874 564.908 489.179
-2.8788 7.74363 -4.93686 570.323 482.557
-1.28539 6.41114 -6.55498 577.141 477.635
0.684756 6.52056 -8.2705 584.893 478.285
2.5966 6.17056 -6.44953 591.938 478.19
4.28651 7.29423 -4.81716 597.649 483.54
5.55952 8.84056 -2.57531 601.516 490.511
4.39257 10.1974 -3.96517 596.86 494.817
2.812 11.1097 -5.13655 590.752 497.35
0.872306 11.4914 -6.60472 583.526 497.656
-1.04263 11.3014 -5.24953 576.079 496.618
-2.69637 10.5984 -4.01526 569.828 493.7
-0.5208 8.42548 -4.97367 579.034 486
0.767221 8.26787 -7.08964 584.366 485.271
1.99107 8.3108 -4.8158 588.577 486.541
1.92859 8.58771 -4.41608 588.167 487.681
0.760926 8.90012 -6.13319 583.941 487.938
-0.463008 8.70389 -4.50193 579.067 487.212
3 20 21 23
3 21 22 23
3 0 1 36
3 15 16 45
3 0 17 36
3 16 26 45
3 17 18 37
3 25 26 44
3 17 36 37
3 26 44 45
3 18 19 38
3 24 25 43
3 18 37 38
3 25 43 44
3 19 20 38
3 23 24 43
3 20 21 39
3 22 23 42
3 20 38 39
3 23 42 43
3 21 22 27
3 21 27 39
3 22 27 42
3 27 28 42
3 27 28 39
3 28 42 47
3 28 39 40
3 1 36 41
3 15 45 46
3 1 2 41
3 14 15 46
3 28 29 40
3 28 29 47
3 2 40 41
3 14 46 47
3 2 29 40
3 14 29 47
3 2 3 29
3 13 14 29
3 29 30 31
3 29 30 35
3 3 29 31
3 13 29 35
3 30 32 33
3 30 33 34
3 30 31 32
3 30 34 35
3 3 4 31
3 12 13 35
3 4 5 48
3 11 12 54
3 5 6 48
3 10 11 54
3 6 48 59
3 10 54 55
3 6 7 59
3 9 10 55
3 7 58 59
3 9 55 56
3 8 57 58
3 8 56 57
3 7 8 58
3 8 9 56
3 4 31 48
3 12 35 54
3 31 48 49
3 35 53 54
3 31 49 50
3 35 52 53
3 31 32 50
3 34 35 52
3 32 33 50
3 33 34 52
3 33 50 51
3 33 51 52
3 48 49 60
3 49 60 50
3 50 60 61
3 50 51 61
3 51 52 61
3 61 62 52
3 52 53 62
3 53 54 62
3 54 55 63
3 55 56 63
3 56 63 64
3 56 57 64
3 64 65 57
3 57 58 65
3 58 59 65
3 48 59 65
