ply
format ascii 1.0
element vertex 66
property float x
property float y
property float z
property float u
property float v
element face 91
property list uchar int vertex_indices
end_header
-20.602 -5.87047 21.1017 503.41 435.115
-20.0049 -0.688154 20.5464 504.238 454.372
-19.1102 4.45958 20.1327 506.151 473.647
-17.7689 9.53366 18.1866 510.14 492.233
-15.7245 14.3431 13.3874 517.558 509.022
-12.6243 18.452 7.79549 529.323 523.258
-8.65095 21.6879 3.17771 544.355 534.882
-4.07846 23.99 -0.974052 561.78 543.397
0.997438 24.7224 -4.68917 581.437 546.397
6.26071 23.5654 -0.840891 600.427 545.187
10.7359 20.6503 3.32816 616.918 537.305
14.4587 16.7987 7.87417 630.786 525.837
17.2798 12.2292 13.4091 641.253 511.77
18.9347 7.11001 18.2478 647.712 495.032
19.6949 1.82246 20.2768 651.6 476.357
19.8743 -3.47708 20.7351 653.727 456.878
19.6629 -8.78322 21.1192 654.417 437.223
-15.8441 -15.1712 0.0849521 529.272 394.408
-13.6698 -16.7774 -1.54819 538.273 388.539
-11.0162 -17.4931 -2.88606 548.723 386.243
-8.24379 -17.471 -4.21161 559.392 386.733
-5.5359 -16.8335 -5.39816 569.603 389.54
2.65479 -17.3252 -5.34612 600.278 390.362
5.189 -18.3979 -4.10866 609.732 387.638
7.90357 -18.8663 -2.7688 619.652 387.257
10.6398 -18.6485 -1.38 629.437 389.451
13.0863 -17.4916 0.273219 637.794 395.14
-0.619744 -11.2054 -4.88416 586.132 412.231
-0.349841 -8.24947 -7.6893 586.975 422.286
-0.0891472 -5.30076 -10.5369 587.797 432.295
0.161432 -2.36585 -13.2095 588.54 442.313
-2.9563 0.68726 -6.15597 574.209 455.233
-1.2738 1.15266 -7.08945 580.583 457.163
0.508726 1.29385 -7.94945 587.407 457.947
2.17822 0.905546 -6.96791 593.498 457.397
3.68125 0.18733 -6.19738 599.119 455.491
-11.8911 -10.0075 -1.13607 542.79 414.43
-10.426 -10.9128 -1.15029 548.526 411.53
-8.63892 -11.209 -1.04447 555.251 411.041
-6.9689 -10.7833 -0.903152 561.316 413.211
-8.51874 -10.0893 -1.07859 555.375 415.23
-10.224 -9.86442 -1.07721 548.949 415.519
5.02942 -11.5915 -0.620856 606.225 414.163
6.57145 -12.2811 -0.969878 612.269 411.967
8.36461 -12.3235 -1.07153 618.994 412.348
9.96747 -11.697 -0.997272 624.766 415.219
8.38275 -11.2408 -0.885344 618.693 416.447
6.6694 -11.2025 -0.802361 612.271 416.07
-5.26388 9.05025 -2.81364 562.268 486.802
-3.67125 7.31226 -4.91978 569.26 480.084
-1.62557 6.01764 -6.53064 577.683 475.341
0.779076 6.10025 -8.15361 587.039 475.829
3.12166 5.69864 -6.35626 595.436 475.743
5.25723 6.68475 -4.73635 602.693 480.686
6.95597 8.19207 -2.55194 608.023 487.631
5.35908 9.64311 -3.91848 601.986 492.015
3.32065 10.5528 -5.06339 594.406 494.325
0.998061 10.9398 -6.56856 586.014 494.47
-1.2981 10.82 -5.21689 577.143 493.779
-3.43249 10.2287 -3.96812 569.041 491.351
-1.14784 7.95702 -5.07788 578.518 483.234
0.885767 7.83015 -7.11417 586.658 482.674
2.84929 7.71459 -4.91009 593.452 483.678
2.84516 8.21678 -4.44128 593.168 485.714
0.905809 8.59469 -6.22449 586.279 485.847
-1.09107 8.47376 -4.54203 578.44 485.369
3 20 21 23
3 21 22 23
3 0 1 36
3 15 16 45
3 0 17 36
3 16 26 45
3 17 18 37
3 25 26 44
3 17 36 37
3 26 44 45
3 18 19 38
3 24 25 43
3 18 37 38
3 25 43 44
3 19 20 38
3 23 24 43
3 20 21 39
3 22 23 42
3 20 38 39
3 23 42 43
3 21 22 27
3 21 27 39
3 22 27 42
3 27 28 42
3 27 28 39
3 28 42 47
3 28 39 40
3 1 36 41
3 15 45 46
3 1 2 41
3 14 15 46
3 28 29 40
3 28 29 47
3 2 40 41
3 14 46 47
3 2 29 40
3 14 29 47
3 2 3 29
3 13 14 29
3 29 30 31
3 29 30 35
3 3 29 31
3 13 29 35
3 30 32 33
3 30 33 34
3 30 31 32
3 30 34 35
3 3 4 31
3 12 13 35
3 4 5 48
3 11 12 54
3 5 6 48
3 10 11 54
3 6 48 59
3 10 54 55
3 6 7 59
3 9 10 55
3 7 58 59
3 9 55 56
3 8 57 58
3 8 56 57
3 7 8 58
3 8 9 56
3 4 31 48
3 12 35 54
3 31 48 49
3 35 53 54
3 31 49 50
3 35 52 53
3 31 32 50
3 34 35 52
3 32 33 50
3 33 34 52
3 33 50 51
3 33 51 52
3 48 49 60
3 49 60 50
3 50 60 61
3 50 51 61
3 51 52 61
3 61 62 52
3 52 53 62
3 53 54 62
3 54 55 63
3 55 56 63
3 56 63 64
3 56 57 64
3 64 65 57
3 57 58 65
3 58 59 65
3 48 59 65
