ply
format ascii 1.0
element vertex 66
property float x
property float y
property float z
property float u
property float v
element face 91
property list uchar int vertex_indices
end_header
-19.457 -6.02267 21.0223 503.027 432.409
-18.7683 -0.76776 20.4175 504.514 453.253
-17.8012 4.45049 19.9608 507.058 474.071
-16.5117 9.56253 18.1939 511.366 494.241
-14.715 14.352 13.5443 518.78 512.576
-12.0058 18.5328 7.91343 530.312 528.533
-8.4173 21.985 3.10373 545.227 542.072
-4.14761 24.5566 -1.00986 562.831 552.502
0.784924 25.3604 -4.61768 583.361 556.26
5.995 24.1216 -0.821241 602.943 553.847
10.1293 20.7977 3.31399 618.73 542.948
13.4226 16.643 7.98086 631.238 528.644
15.9939 12.0604 13.4561 640.727 512.631
17.7093 7.15263 18.0788 647.226 494.867
18.5803 2.08191 19.9585 651.4 475.531
18.8597 -3.04052 20.3933 653.76 455.458
18.7079 -8.1795 20.7182 654.461 435.163
-15.2387 -15.9195 0.0280356 529.803 389.337
-13.1907 -17.2829 -1.48296 538.799 384.181
-10.7769 -17.8988 -2.83386 548.978 382.13
-8.27808 -17.9319 -4.22814 559.347 382.399
-5.81742 -17.4305 -5.46705 569.363 384.81
2.75088 -17.7728 -5.46798 603.298 386.006
4.9668 -18.6002 -4.16097 611.818 383.715
7.33552 -18.9306 -2.75858 620.77 383.459
9.73982 -18.8033 -1.34469 629.733 385.027
11.9613 -17.9161 0.230128 637.709 389.586
-0.541799 -12.0336 -4.84754 588.496 407.882
-0.306133 -9.08991 -7.63058 589.596 418.911
-0.0871321 -6.15807 -10.4489 590.646 429.88
0.122297 -3.23844 -13.1095 591.606 440.836
-2.56293 0.380498 -5.99075 577.498 456.108
-0.999539 0.714635 -7.02981 583.947 457.639
0.645562 0.80042 -7.95222 590.745 458.24
2.12367 0.507245 -6.88071 596.286 457.785
3.45521 -0.0570581 -6.08905 601.422 456.144
-11.92 -10.9857 -1.11861 541.956 409.56
-10.5061 -12.006 -0.988712 547.775 405.977
-8.68675 -12.3268 -0.869026 555.007 405.279
-7.07123 -11.7427 -0.869475 561.227 408.07
-8.58687 -10.9472 -1.08619 555.098 410.713
-10.3036 -10.7231 -1.03082 548.237 411.102
4.79315 -12.4166 -0.610924 608.18 409
6.22152 -13.1906 -0.852951 614.12 406.304
8.01094 -13.2401 -0.938368 621.231 406.62
9.54626 -12.4786 -0.949742 627.089 410.086
8.06167 -11.9107 -0.824436 621.025 411.922
6.36648 -11.9132 -0.785285 614.317 411.417
-4.1756 9.89934 -2.85042 567.403 494.057
-2.79078 8.26538 -4.96058 574.065 487.486
-1.08389 6.8551 -6.62216 581.78 482.005
1.00932 6.93921 -8.34248 590.629 482.537
3.02652 6.58735 -6.33006 597.985 482.242
4.80953 7.70809 -4.6867 604.14 487.611
6.2159 9.17311 -2.52892 608.531 494.357
5.05088 10.6492 -4.04547 604.057 499.476
3.37762 11.6604 -5.08676 597.537 502.721
1.28997 12.0829 -6.5924 589.706 503.4
-0.793761 11.8768 -5.32383 581.086 502.277
-2.63772 11.1491 -4.13695 573.586 499.142
-0.4729 8.85297 -4.99717 583.071 490.491
1.15173 8.66523 -7.08034 590.272 489.718
2.7034 8.68661 -4.71921 595.564 490.847
2.69907 9.08195 -4.35508 595.309 492.499
1.20538 9.4901 -6.01235 589.881 493.261
-0.366008 9.27271 -4.54628 583.219 492.294
3 20 21 23
3 21 22 23
3 0 1 36
3 15 16 45
3 0 17 36
3 16 26 45
3 17 18 37
3 25 26 44
3 17 36 37
3 26 44 45
3 18 19 38
3 24 25 43
3 18 37 38
3 25 43 44
3 19 20 38
3 23 24 43
3 20 21 39
3 22 23 42
3 20 38 39
3 23 42 43
3 21 22 27
3 21 27 39
3 22 27 42
3 27 28 42
3 27 28 39
3 28 42 47
3 28 39 40
3 1 36 41
3 15 45 46
3 1 2 41
3 14 15 46
3 28 29 40
3 28 29 47
3 2 40 41
3 14 46 47
3 2 29 40
3 14 29 47
3 2 3 29
3 13 14 29
3 29 30 31
3 29 30 35
3 3 29 31
3 13 29 35
3 30 32 33
3 30 33 34
3 30 31 32
3 30 34 35
3 3 4 31
3 12 13 35
3 4 5 48
3 11 12 54
3 5 6 48
3 10 11 54
3 6 48 59
3 10 54 55
3 6 7 59
3 9 10 55
3 7 58 59
3 9 55 56
3 8 57 58
3 8 56 57
3 7 8 58
3 8 9 56
3 4 31 48
3 12 35 54
3 31 48 49
3 35 53 54
3 31 49 50
3 35 52 53
3 31 32 50
3 34 35 52
3 32 33 50
3 33 34 52
3 33 50 51
3 33 51 52
3 48 49 60
3 49 60 50
3 50 60 61
3 50 51 61
3 51 52 61
3 61 62 52
3 52 53 62
3 53 54 62
3 54 55 63
3 55 56 63
3 56 63 64
3 56 57 64
3 64 65 57
3 57 58 65
3 58 59 65
3 48 59 65
