ply
format ascii 1.0
element vertex 66
property float x
property float y
property float z
property float u
property float v
element face 91
property list uchar int vertex_indices
end_header
-20.2451 -5.7124 21.108 502.624 434.997
-19.5826 -0.567174 20.5454 503.765 454.62
-18.6468 4.54314 20.1269 505.922 474.256
-17.3318 9.55575 18.1303 509.999 493.03
-15.3558 14.2721 13.4476 517.443 509.846
-12.3415 18.279 7.85898 529.326 523.944
-8.47688 21.4553 3.14339 544.469 535.494
-4.04903 23.7916 -1.02357 561.868 544.238
0.917874 24.5209 -4.62016 581.654 547.253
6.12791 23.4082 -0.844271 600.871 546.192
10.5048 20.4576 3.32071 617.345 537.999
14.1341 16.6212 7.94101 631.099 526.358
16.9049 12.1295 13.4413 641.521 512.278
18.545 7.12804 18.1589 647.989 495.578
19.2922 1.95755 20.2084 651.835 476.9
19.4961 -3.24656 20.638 654.063 457.286
19.3155 -8.45817 21.0193 654.837 437.497
-15.6967 -15.5357 0.0669657 528.851 390.834
-13.4951 -16.8643 -1.47081 538.104 385.892
-10.9584 -17.4087 -2.8474 548.357 384.114
-8.36019 -17.3733 -4.22174 558.67 384.568
-5.81591 -16.8154 -5.43564 568.575 387.06
3.00738 -17.3264 -5.42163 602.483 388.017
5.34988 -18.2266 -4.15886 611.365 385.846
7.84027 -18.6286 -2.78362 620.631 385.667
10.3728 -18.5312 -1.35558 629.894 387.427
12.7356 -17.6417 0.252228 638.218 392.222
-0.546685 -11.3845 -4.86287 586.939 409.729
-0.259852 -8.38741 -7.66023 587.913 420.166
0.0120158 -5.40392 -10.5403 588.857 430.514
0.268921 -2.43349 -13.2514 589.7 440.872
-2.8558 0.617416 -6.12363 574.839 454.256
-1.15794 1.04889 -7.11089 581.48 456.076
0.63106 1.18355 -7.98754 588.528 456.836
2.26275 0.813746 -6.98487 594.603 456.353
3.74131 0.135812 -6.17274 600.238 454.569
-12.0883 -10.4921 -1.02602 541.442 410.832
-10.6587 -11.4022 -1.01015 547.182 407.837
-8.90765 -11.6894 -0.960669 553.954 407.337
-7.31491 -11.1896 -0.934983 559.89 409.776
-8.82353 -10.5208 -1.06333 553.952 411.782
-10.4877 -10.3189 -1.03288 547.516 412.016
5.12305 -11.9472 -0.639194 607.624 411.092
6.56831 -12.6785 -0.916007 613.451 408.67
8.31214 -12.7385 -0.982774 620.16 408.988
9.86622 -12.0919 -0.939539 625.899 411.982
8.36247 -11.6176 -0.868999 619.983 413.324
6.70364 -11.5804 -0.788096 613.602 412.952
-5.47873 9.28589 -2.86246 561.282 487.726
-3.74766 7.59525 -4.91541 568.987 481.048
-1.61483 6.30091 -6.53618 577.989 476.181
0.852571 6.37757 -8.23693 587.88 476.623
3.23826 5.99131 -6.35017 596.598 476.668
5.43613 6.97219 -4.72009 604.258 481.767
7.21935 8.44241 -2.57169 610.038 488.797
5.6246 10.0374 -3.97076 603.846 493.812
3.50691 11.046 -5.03009 595.735 496.55
1.07186 11.4511 -6.48249 586.701 496.729
-1.35183 11.2984 -5.20462 577.118 495.847
-3.58508 10.5994 -4.05088 568.462 492.896
-1.2298 8.22328 -5.12711 578.49 484.188
0.95738 8.08209 -7.23817 587.489 483.547
3.0528 7.99047 -4.90649 594.884 484.794
3.07025 8.64644 -4.42826 594.62 487.488
0.996994 9.05716 -6.16635 587.048 487.696
-1.15385 8.89613 -4.56876 578.422 486.997
3 20 21 23
3 21 22 23
3 0 1 36
3 15 16 45
3 0 17 36
3 16 26 45
3 17 18 37
3 25 26 44
3 17 36 37
3 26 44 45
3 18 19 38
3 24 25 43
3 18 37 38
3 25 43 44
3 19 20 38
3 23 24 43
3 20 21 39
3 22 23 42
3 20 38 39
3 23 42 43
3 21 22 27
3 21 27 39
3 22 27 42
3 27 28 42
3 27 28 39
3 28 42 47
3 28 39 40
3 1 36 41
3 15 45 46
3 1 2 41
3 14 15 46
3 28 29 40
3 28 29 47
3 2 40 41
3 14 46 47
3 2 29 40
3 14 29 47
3 2 3 29
3 13 14 29
3 29 30 31
3 29 30 35
3 3 29 31
3 13 29 35
3 30 32 33
3 30 33 34
3 30 31 32
3 30 34 35
3 3 4 31
3 12 13 35
3 4 5 48
3 11 12 54
3 5 6 48
3 10 11 54
3 6 48 59
3 10 54 55
3 6 7 59
3 9 10 55
3 7 58 59
3 9 55 56
3 8 57 58
3 8 56 57
3 7 8 58
3 8 9 56
3 4 31 48
3 12 35 54
3 31 48 49
3 35 53 54
3 31 49 50
3 35 52 53
3 31 32 50
3 34 35 52
3 32 33 50
3 33 34 52
3 33 50 51
3 33 51 52
3 48 49 60
3 49 60 50
3 50 60 61
3 50 51 61
3 51 52 61
3 61 62 52
3 52 53 62
3 53 54 62
3 54 55 63
3 55 56 63
3 56 63 64
3 56 57 64
3 64 65 57
3 57 58 65
3 58 59 65
3 48 59 65
