ply
format ascii 1.0
element vertex 66
property float x
property float y
property float z
property float u
property float v
element face 91
property list uchar int vertex_indices
end_header
-20.3295 -5.71658 21.0981 502.314 433.617
-19.6541 -0.551998 20.5369 503.567 453.2
-18.6835 4.57543 20.1277 505.916 472.791
-17.3339 9.58144 18.1961 510.125 491.449
-15.3194 14.2556 13.4325 517.672 507.957
-12.2971 18.282 7.88307 529.435 522.014
-8.45026 21.5612 3.19348 544.332 533.822
-3.97521 23.9409 -1.01684 561.755 542.597
1.07795 24.6368 -4.59333 581.694 545.406
6.30995 23.5577 -0.876626 600.981 544.356
10.6938 20.641 3.34234 617.432 536.269
14.2702 16.7855 7.95862 630.975 524.527
16.979 12.3094 13.4535 641.169 510.503
18.5489 7.31912 18.2844 647.34 493.922
19.27 2.08644 20.2652 651.065 475.059
19.4999 -3.20933 20.7144 653.324 455.214
19.3563 -8.50894 21.1328 654.17 435.227
-15.8157 -15.4192 0.0881069 527.525 390.074
-13.6036 -16.7317 -1.48482 536.712 385.166
-11.0729 -17.2448 -2.86612 546.839 383.463
-8.49742 -17.2125 -4.25069 556.982 383.841
-5.98412 -16.6693 -5.46416 566.702 386.204
3.11197 -17.2328 -5.40561 601.473 386.883
5.49287 -18.1473 -4.15532 610.48 384.629
8.02339 -18.5589 -2.77643 619.883 384.378
10.6038 -18.4617 -1.36081 629.322 386.086
13.01 -17.5346 0.274499 637.809 390.974
-0.660106 -11.5069 -4.83643 585.352 407.666
-0.348176 -8.30831 -7.70858 586.358 418.785
-0.0484497 -5.1233 -10.6227 587.333 429.833
0.239621 -1.9462 -13.3003 588.205 440.939
-2.97919 0.92901 -6.22704 573.36 453.592
-1.26244 1.39494 -7.18048 580.003 455.518
0.555526 1.53475 -7.9925 587.089 456.293
2.25107 1.14106 -7.06476 593.421 455.679
3.77859 0.414284 -6.26676 599.241 453.7
-12.3767 -10.5288 -1.01478 539.512 409.255
-10.7844 -11.5577 -1.02953 545.868 405.836
-8.83753 -11.8361 -0.994567 553.349 405.391
-7.08964 -11.2015 -0.951603 559.813 408.352
-8.78043 -10.5555 -1.06729 553.223 410.238
-10.6155 -10.3388 -1.034 546.167 410.51
4.92205 -11.9689 -0.657839 605.682 409.244
6.51689 -12.8767 -0.935843 612.079 406.182
8.4666 -12.9575 -0.981376 619.536 406.457
10.2132 -12.226 -0.904993 625.959 409.798
8.53847 -11.7157 -0.858017 619.427 411.237
6.69659 -11.6533 -0.794383 612.382 410.933
-5.29463 9.0302 -2.8 561.394 484.938
-3.5969 7.43001 -4.89689 568.837 478.578
-1.5157 6.29821 -6.55303 577.496 474.284
0.815263 6.41425 -8.28229 586.771 474.771
3.07223 5.9942 -6.3982 595.008 474.599
5.22399 6.81416 -4.7333 602.549 479.014
7.01412 8.17027 -2.54602 608.43 485.554
5.44766 9.72911 -3.94044 602.377 490.448
3.37791 10.6985 -5.03636 594.5 493.066
1.02703 11.0777 -6.48026 585.806 493.224
-1.30565 10.9636 -5.18245 576.632 492.576
-3.4714 10.3072 -4.00615 568.277 489.876
-1.22082 8.17745 -5.11809 577.726 482.058
0.916715 8.0841 -7.23933 586.423 481.54
2.97246 7.92526 -4.95517 593.719 482.452
2.97719 8.27437 -4.44603 593.511 483.975
0.923146 8.6285 -6.15439 586.021 484.027
-1.18516 8.53741 -4.53879 577.615 483.658
3 20 21 23
3 21 22 23
3 0 1 36
3 15 16 45
3 0 17 36
3 16 26 45
3 17 18 37
3 25 26 44
3 17 36 37
3 26 44 45
3 18 19 38
3 24 25 43
3 18 37 38
3 25 43 44
3 19 20 38
3 23 24 43
3 20 21 39
3 22 23 42
3 20 38 39
3 23 42 43
3 21 22 27
3 21 27 39
3 22 27 42
3 27 28 42
3 27 28 39
3 28 42 47
3 28 39 40
3 1 36 41
3 15 45 46
3 1 2 41
3 14 15 46
3 28 29 40
3 28 29 47
3 2 40 41
3 14 46 47
3 2 29 40
3 14 29 47
3 2 3 29
3 13 14 29
3 29 30 31
3 29 30 35
3 3 29 31
3 13 29 35
3 30 32 33
3 30 33 34
3 30 31 32
3 30 34 35
3 3 4 31
3 12 13 35
3 4 5 48
3 11 12 54
3 5 6 48
3 10 11 54
3 6 48 59
3 10 54 55
3 6 7 59
3 9 10 55
3 7 58 59
3 9 55 56
3 8 57 58
3 8 56 57
3 7 8 58
3 8 9 56
3 4 31 48
3 12 35 54
3 31 48 49
3 35 53 54
3 31 49 50
3 35 52 53
3 31 32 50
3 34 35 52
3 32 33 50
3 33 34 52
3 33 50 51
3 33 51 52
3 48 49 60
3 49 60 50
3 50 60 61
3 50 51 61
3 51 52 61
3 61 62 52
3 52 53 62
3 53 54 62
3 54 55 63
3 55 56 63
3 56 63 64
3 56 57 64
3 64 65 57
3 57 58 65
3 58 59 65
3 48 59 65
