ply
format ascii 1.0
element vertex 66
property float x
property float y
property float z
property float u
property float v
element face 91
property list uchar int vertex_indices
end_header
-20.4572 -5.85728 21.0802 502.993 434.401
-19.8422 -0.686694 20.5328 503.898 453.75
-18.9194 4.44469 20.1207 505.936 473.103
-17.5739 9.48363 18.168 509.996 491.664
-15.5421 14.2468 13.4092 517.457 508.351
-12.4758 18.3477 7.81606 529.222 522.579
-8.54799 21.6268 3.17418 544.218 534.371
-3.99712 23.9751 -0.987129 561.705 543.064
1.09196 24.6953 -4.65585 581.571 546.024
6.33667 23.5811 -0.866298 600.601 544.995
10.7786 20.6917 3.31707 617.043 537.21
14.4349 16.8496 7.8946 630.716 525.752
17.1726 12.3098 13.4462 640.891 511.753
18.7419 7.22236 18.2678 647.035 495.047
19.4642 1.93427 20.2922 650.797 476.253
19.6657 -3.38943 20.7577 653.025 456.565
19.4882 -8.71838 21.1569 653.849 436.71
-15.8171 -15.4261 0.0997234 528.827 392.13
-13.6262 -16.8505 -1.49481 537.903 386.905
-11.0478 -17.4214 -2.8639 548.119 385.087
-8.39997 -17.353 -4.22518 558.402 385.688
-5.82488 -16.7292 -5.43978 568.207 388.4
2.85554 -17.2432 -5.37194 600.943 389.324
5.3214 -18.2863 -4.11707 610.185 386.697
7.95959 -18.7724 -2.75387 619.879 386.253
10.6433 -18.6357 -1.35092 629.546 388.169
13.092 -17.5897 0.276848 638 393.499
-0.691913 -11.2554 -4.88162 585.698 410.773
-0.406643 -8.26658 -7.69782 586.618 420.986
-0.130474 -5.28698 -10.5548 587.517 431.147
0.137913 -2.31965 -13.2298 588.343 441.328
-2.99363 0.765208 -6.17734 573.796 454.533
-1.31014 1.22296 -7.1212 580.23 456.436
0.471192 1.3593 -7.96607 587.103 457.205
2.15703 0.966571 -7.00733 593.298 456.647
3.67778 0.247091 -6.22039 599.017 454.747
-12.1217 -10.139 -1.0976 541.438 412.67
-10.6115 -11.0466 -1.10363 547.383 409.762
-8.78752 -11.3309 -1.02061 554.296 409.322
-7.10163 -10.882 -0.940859 560.473 411.581
-8.6915 -10.2085 -1.09057 554.339 413.528
-10.4332 -9.98511 -1.06713 547.725 413.807
5.09093 -11.695 -0.663949 606.433 412.607
6.65605 -12.4138 -0.954611 612.604 410.315
8.48924 -12.4576 -1.03153 619.522 410.718
10.1421 -11.8388 -0.956664 625.524 413.601
8.52813 -11.3791 -0.877746 619.304 414.827
6.77378 -11.3321 -0.820339 612.686 414.454
-5.20719 9.07144 -2.80842 562.105 486.186
-3.62337 7.3413 -4.90903 569.126 479.428
-1.59011 6.07233 -6.54036 577.573 474.72
0.779289 6.1518 -8.20862 586.888 475.155
3.09393 5.75314 -6.37751 595.217 475.11
5.2338 6.71065 -4.73959 602.534 480.011
6.95824 8.19401 -2.5651 607.992 486.95
5.37586 9.683 -3.92759 601.963 491.493
3.34057 10.6199 -5.05607 594.337 493.91
1.01974 11.0128 -6.53438 585.893 494.066
-1.27681 10.8985 -5.20139 576.951 493.397
-3.40096 10.2826 -3.98126 568.835 490.863
-1.17426 8.01577 -5.07292 578.165 482.687
0.887206 7.87985 -7.15862 586.499 482.057
2.89065 7.75566 -4.93654 593.473 483.087
2.89083 8.24524 -4.45736 593.201 485.101
0.908852 8.62532 -6.19514 586.102 485.221
-1.12062 8.5132 -4.53172 578.075 484.772
3 20 21 23
3 21 22 23
3 0 1 36
3 15 16 45
3 0 17 36
3 16 26 45
3 17 18 37
3 25 26 44
3 17 36 37
3 26 44 45
3 18 19 38
3 24 25 43
3 18 37 38
3 25 43 44
3 19 20 38
3 23 24 43
3 20 21 39
3 22 23 42
3 20 38 39
3 23 42 43
3 21 22 27
3 21 27 39
3 22 27 42
3 27 28 42
3 27 28 39
3 28 42 47
3 28 39 40
3 1 36 41
3 15 45 46
3 1 2 41
3 14 15 46
3 28 29 40
3 28 29 47
3 2 40 41
3 14 46 47
3 2 29 40
3 14 29 47
3 2 3 29
3 13 14 29
3 29 30 31
3 29 30 35
3 3 29 31
3 13 29 35
3 30 32 33
3 30 33 34
3 30 31 32
3 30 34 35
3 3 4 31
3 12 13 35
3 4 5 48
3 11 12 54
3 5 6 48
3 10 11 54
3 6 48 59
3 10 54 55
3 6 7 59
3 9 10 55
3 7 58 59
3 9 55 56
3 8 57 58
3 8 56 57
3 7 8 58
3 8 9 56
3 4 31 48
3 12 35 54
3 31 48 49
3 35 53 54
3 31 49 50
3 35 52 53
3 31 32 50
3 34 35 52
3 32 33 50
3 33 34 52
3 33 50 51
3 33 51 52
3 48 49 60
3 49 60 50
3 50 60 61
3 50 51 61
3 51 52 61
3 61 62 52
3 52 53 62
3 53 54 62
3 54 55 63
3 55 56 63
3 56 63 64
3 56 57 64
3 64 65 57
3 57 58 65
3 58 59 65
3 48 59 65
