ply
format ascii 1.0
element vertex 66
property float x
property float y
property float z
property float u
property float v
element face 91
property list uchar int vertex_indices
end_header
-20.5131 -5.95139 21.145 503.165 433.562
-19.907 -0.721504 20.5797 503.954 453.114
-19.0113 4.47788 20.1712 505.793 472.701
-17.7034 9.58513 18.2043 509.623 491.57
-15.7101 14.3975 13.4157 516.866 508.641
-12.6314 18.4898 7.80622 528.616 523.117
-8.65383 21.7018 3.16214 543.744 534.922
-4.06117 23.9581 -0.984435 561.339 543.526
1.03285 24.6356 -4.67711 581.18 546.551
6.29188 23.4878 -0.860451 600.193 545.277
10.7568 20.578 3.3048 616.69 537.271
14.4536 16.7365 7.87859 630.494 525.661
17.2448 12.1986 13.4254 640.865 511.466
18.8692 7.12747 18.2315 647.235 494.645
19.6012 1.87654 20.2858 651.061 475.951
19.7703 -3.40642 20.7269 653.223 456.42
19.5524 -8.69429 21.1221 653.951 436.725
-15.8774 -15.217 0.0826759 529.054 393.593
-13.7021 -16.7574 -1.52704 538.107 388.039
-11.0851 -17.4218 -2.87744 548.469 385.991
-8.37082 -17.3857 -4.22051 558.975 386.594
-5.72125 -16.7619 -5.42035 569.017 389.417
2.92154 -17.285 -5.36281 601.506 390.376
5.3477 -18.3198 -4.10738 610.57 387.735
7.95237 -18.7928 -2.74649 620.099 387.288
10.6001 -18.6553 -1.34163 629.587 389.149
13.016 -17.6161 0.286559 637.866 394.374
-0.578484 -11.1531 -4.8811 586.367 412.266
-0.313999 -8.17051 -7.7074 587.185 422.568
-0.0595062 -5.19624 -10.5699 587.978 432.823
0.183893 -2.23357 -13.2403 588.682 443.095
-2.9782 0.730564 -6.16893 574.027 455.428
-1.2754 1.20135 -7.11646 580.506 457.446
0.529138 1.3479 -7.96906 587.442 458.318
2.2078 0.957534 -6.9939 593.583 457.742
3.72126 0.236799 -6.19837 599.258 455.817
-12.1126 -10.0663 -1.10434 541.854 413.703
-10.6086 -10.9854 -1.11965 547.773 410.769
-8.78399 -11.2818 -1.0426 554.672 410.298
-7.09636 -10.8103 -0.936453 560.812 412.659
-8.68201 -10.1213 -1.09458 554.706 414.65
-10.4234 -9.90492 -1.07552 548.117 414.881
5.16394 -11.6322 -0.660361 606.872 413.785
6.71174 -12.3617 -0.956187 612.97 411.481
8.53777 -12.4165 -1.02807 619.84 411.864
10.1751 -11.7747 -0.953635 625.746 414.834
8.57555 -11.295 -0.878312 619.591 416.115
6.83174 -11.2469 -0.819614 613.035 415.73
-5.29521 8.97049 -2.8162 561.887 486.53
-3.65992 7.27344 -4.91626 569.099 480.05
-1.59921 6.03298 -6.54276 577.634 475.573
0.777351 6.12205 -8.19923 586.943 476.158
3.08001 5.72072 -6.36536 595.193 476.031
5.2125 6.65203 -4.73184 602.444 480.76
6.93066 8.12648 -2.56395 607.831 487.554
5.36888 9.63458 -3.92787 601.883 492.217
3.33156 10.5793 -5.06438 594.27 494.691
1.00261 10.9657 -6.56142 585.836 494.862
-1.31345 10.844 -5.21553 576.846 494.074
-3.46541 10.2125 -3.97882 568.659 491.401
-1.16058 7.96417 -5.09198 578.283 483.409
0.888128 7.85663 -7.14992 586.535 483.018
2.8556 7.72518 -4.90901 593.337 483.921
2.86638 8.20033 -4.42938 593.101 485.857
0.909622 8.57429 -6.18294 586.133 486.023
-1.11276 8.45737 -4.54125 578.161 485.448
3 20 21 23
3 21 22 23
3 0 1 36
3 15 16 45
3 0 17 36
3 16 26 45
3 17 18 37
3 25 26 44
3 17 36 37
3 26 44 45
3 18 19 38
3 24 25 43
3 18 37 38
3 25 43 44
3 19 20 38
3 23 24 43
3 20 21 39
3 22 23 42
3 20 38 39
3 23 42 43
3 21 22 27
3 21 27 39
3 22 27 42
3 27 28 42
3 27 28 39
3 28 42 47
3 28 39 40
3 1 36 41
3 15 45 46
3 1 2 41
3 14 15 46
3 28 29 40
3 28 29 47
3 2 40 41
3 14 46 47
3 2 29 40
3 14 29 47
3 2 3 29
3 13 14 29
3 29 30 31
3 29 30 35
3 3 29 31
3 13 29 35
3 30 32 33
3 30 33 34
3 30 31 32
3 30 34 35
3 3 4 31
3 12 13 35
3 4 5 48
3 11 12 54
3 5 6 48
3 10 11 54
3 6 48 59
3 10 54 55
3 6 7 59
3 9 10 55
3 7 58 59
3 9 55 56
3 8 57 58
3 8 56 57
3 7 8 58
3 8 9 56
3 4 31 48
3 12 35 54
3 31 48 49
3 35 53 54
3 31 49 50
3 35 52 53
3 31 32 50
3 34 35 52
3 32 33 50
3 33 34 52
3 33 50 51
3 33 51 52
3 48 49 60
3 49 60 50
3 50 60 61
3 50 51 61
3 51 52 61
3 61 62 52
3 52 53 62
3 53 54 62
3 54 55 63
3 55 56 63
3 56 63 64
3 56 57 64
3 64 65 57
3 57 58 65
3 58 59 65
3 48 59 65
