ply
format ascii 1.0
element vertex 66
property float x
property float y
property float z
property float u
property float v
element face 91
property list uchar int vertex_indices
end_header
-19.3198 -5.88794 20.8726 504.55 433.28
-18.6981 -0.808058 20.3864 505.485 453.536
-17.7797 4.22204 19.93 507.614 473.71
-16.4605 9.21464 18.0569 511.729 493.336
-14.529 14.0534 13.5024 519.046 511.542
-11.7275 18.3926 7.9244 530.272 527.676
-8.14294 22.0769 3.09977 544.641 541.768
-3.88976 24.9187 -1.01059 561.769 553.015
1.06774 25.905 -4.65091 582.196 557.306
6.18593 24.6022 -0.913136 602.073 555.359
10.308 21.2874 3.23052 618.529 545.206
13.6159 17.1031 7.97774 631.863 531.534
16.1284 12.3748 13.5077 641.993 515.714
17.6448 7.21375 18.16 648.522 497.483
18.3732 1.94332 20.1219 652.65 477.51
18.5943 -3.31518 20.6459 655.128 456.856
18.4415 -8.59297 20.9584 656.176 435.912
-14.9592 -15.7303 0.0584231 530.696 387.694
-12.9558 -16.976 -1.50664 539.518 382.846
-10.6123 -17.518 -2.89967 549.42 380.986
-8.18845 -17.5451 -4.29228 559.473 381.204
-5.80414 -17.0708 -5.52658 569.161 383.465
2.64013 -17.5673 -5.4797 603.025 384.496
4.97175 -18.4578 -4.20264 612.291 382.264
7.4396 -18.8281 -2.81117 621.898 382.195
9.92554 -18.6764 -1.38376 631.396 384.224
12.1917 -17.7521 0.227461 639.714 389.321
-0.765186 -11.8787 -4.87187 587.394 406.167
-0.478178 -9.01962 -7.59684 588.316 416.609
-0.20046 -6.17224 -10.3935 589.224 426.974
0.0697491 -3.34619 -13.0944 590.084 437.287
-2.89554 0.0720518 -6.00169 575.247 452.554
-1.2652 0.425736 -6.99784 581.902 454.158
0.439014 0.522739 -7.92502 588.918 454.794
2.04621 0.169624 -6.91527 595.185 454.343
3.52266 -0.450594 -6.11396 601.073 452.702
-11.5319 -10.6275 -1.07275 542.995 408.788
-10.205 -11.579 -1.03915 548.597 405.482
-8.50175 -11.8739 -0.989229 555.481 404.931
-6.9576 -11.4434 -0.943678 561.492 407.208
-8.37794 -10.6869 -1.05605 555.602 409.674
-9.98548 -10.4408 -1.01282 549.091 410.101
4.7719 -12.2342 -0.654372 608.505 408.323
6.19291 -12.9278 -0.956453 614.486 405.95
7.90793 -12.9569 -0.995581 621.353 406.426
9.39879 -12.2873 -0.945364 627.071 409.638
7.93487 -11.7997 -0.829306 621.035 411.105
6.3066 -11.7852 -0.773558 614.515 410.608
-5.35546 9.46824 -2.75822 561.472 490.325
-3.83673 7.53145 -4.83854 568.723 482.359
-1.73955 6.03145 -6.46603 578.02 476.508
0.832351 6.04587 -8.13904 588.724 476.837
3.35315 5.66863 -6.31484 598.431 476.924
5.59386 6.82798 -4.67815 606.563 482.958
7.28994 8.50564 -2.50865 612.209 491.065
5.89048 10.5731 -4.0724 606.352 498.203
3.81783 12.0382 -5.14446 597.877 502.891
1.20079 12.6552 -6.59356 587.608 503.867
-1.41048 12.3731 -5.27047 576.927 502.326
-3.64271 11.2617 -4.09652 568.072 497.56
-1.38641 8.18496 -4.90904 578.309 485.8
0.956798 7.93771 -7.13861 588.333 484.794
3.24391 7.86867 -4.8057 596.872 486.22
3.33525 9.24949 -4.43938 596.684 491.889
1.06691 9.93808 -6.15139 587.853 493.173
-1.29276 9.57863 -4.47969 578.11 491.545
3 20 21 23
3 21 22 23
3 0 1 36
3 15 16 45
3 0 17 36
3 16 26 45
3 17 18 37
3 25 26 44
3 17 36 37
3 26 44 45
3 18 19 38
3 24 25 43
3 18 37 38
3 25 43 44
3 19 20 38
3 23 24 43
3 20 21 39
3 22 23 42
3 20 38 39
3 23 42 43
3 21 22 27
3 21 27 39
3 22 27 42
3 27 28 42
3 27 28 39
3 28 42 47
3 28 39 40
3 1 36 41
3 15 45 46
3 1 2 41
3 14 15 46
3 28 29 40
3 28 29 47
3 2 40 41
3 14 46 47
3 2 29 40
3 14 29 47
3 2 3 29
3 13 14 29
3 29 30 31
3 29 30 35
3 3 29 31
3 13 29 35
3 30 32 33
3 30 33 34
3 30 31 32
3 30 34 35
3 3 4 31
3 12 13 35
3 4 5 48
3 11 12 54
3 5 6 48
3 10 11 54
3 6 48 59
3 10 54 55
3 6 7 59
3 9 10 55
3 7 58 59
3 9 55 56
3 8 57 58
3 8 56 57
3 7 8 58
3 8 9 56
3 4 31 48
3 12 35 54
3 31 48 49
3 35 53 54
3 31 49 50
3 35 52 53
3 31 32 50
3 34 35 52
3 32 33 50
3 33 34 52
3 33 50 51
3 33 51 52
3 48 49 60
3 49 60 50
3 50 60 61
3 50 51 61
3 51 52 61
3 61 62 52
3 52 53 62
3 53 54 62
3 54 55 63
3 55 56 63
3 56 63 64
3 56 57 64
3 64 65 57
3 57 58 65
3 58 59 65
3 48 59 65
