ply
format ascii 1.0
element vertex 66
property float x
property float y
property float z
property float u
property float v
element face 91
property list uchar int vertex_indices
end_header
-20.1917 -5.68731 21.0924 502.785 434.648
-19.5604 -0.54101 20.547 503.758 454.198
-18.6541 4.5721 20.1466 505.749 473.765
-17.3562 9.5637 18.1498 509.698 492.42
-15.3774 14.2368 13.4756 517.058 509.117
-12.3678 18.2256 7.87986 528.8 523.221
-8.49935 21.4014 3.1521 543.826 534.839
-4.04693 23.7335 -1.01781 561.184 543.651
0.961158 24.438 -4.6282 581.005 546.671
6.21263 23.3868 -0.85414 600.302 545.794
10.6452 20.5099 3.30788 616.936 537.856
14.2978 16.71 7.95989 630.751 526.333
17.019 12.2187 13.5027 640.994 512.2
18.5677 7.19325 18.2232 647.157 495.352
19.2485 1.95467 20.2643 650.804 476.431
19.4092 -3.34159 20.6928 652.923 456.532
19.1976 -8.63993 21.0885 653.635 436.489
-15.704 -15.4333 0.0697815 528.518 391.478
-13.5095 -16.8198 -1.46617 537.71 386.382
-10.9507 -17.3771 -2.84376 547.993 384.612
-8.33364 -17.3391 -4.22925 558.317 385.119
-5.7814 -16.7741 -5.46452 568.192 387.66
2.8988 -17.271 -5.45019 601.384 388.655
5.29126 -18.213 -4.16464 610.433 386.34
7.84228 -18.6402 -2.77568 619.901 386.069
10.4435 -18.5323 -1.35056 629.386 387.86
12.8515 -17.5749 0.231988 637.833 392.869
-0.584523 -11.445 -4.87487 586.183 409.83
-0.282834 -8.46741 -7.65623 587.169 420.223
0.00467368 -5.50546 -10.53 588.129 430.518
0.277245 -2.55588 -13.2503 588.996 440.816
-2.91444 0.577003 -6.1313 573.969 454.245
-1.20218 1.00891 -7.11252 580.619 456.095
0.603091 1.1318 -7.97617 587.686 456.846
2.27113 0.765333 -6.99198 593.883 456.365
3.78464 0.0819098 -6.16036 599.63 454.575
-12.1921 -10.4426 -1.02052 540.651 411.193
-10.6896 -11.4137 -1.01251 546.666 408.007
-8.84457 -11.689 -0.97568 553.764 407.587
-7.18201 -11.1298 -0.946667 559.914 410.271
-8.76991 -10.4498 -1.07651 553.696 412.28
-10.5182 -10.2358 -1.03712 546.964 412.527
5.06873 -11.8913 -0.648109 606.702 411.548
6.58678 -12.7054 -0.91769 612.803 408.862
8.4324 -12.7745 -0.981345 619.867 409.189
10.0752 -12.0828 -0.947572 625.899 412.371
8.49271 -11.5716 -0.883455 619.701 413.811
6.74147 -11.5246 -0.813204 613.002 413.435
-5.41439 9.26535 -2.85925 560.908 487.596
-3.69328 7.59823 -4.89196 568.518 481.096
-1.59177 6.33723 -6.52919 577.346 476.409
0.819964 6.41772 -8.24112 586.963 476.89
3.15652 6.04335 -6.3721 595.469 476.924
5.32684 7.01365 -4.72012 602.988 481.928
7.11737 8.45581 -2.59163 608.789 488.772
5.53136 10.0399 -3.99866 602.645 493.749
3.42716 11.0318 -5.08912 594.625 496.42
1.01153 11.4169 -6.52533 585.698 496.559
-1.38352 11.2763 -5.24271 576.278 495.699
-3.57643 10.5786 -4.05979 567.826 492.753
-1.30211 8.25463 -5.10935 577.478 484.302
0.907384 8.10123 -7.24719 586.512 483.673
3.03164 8.022 -4.9208 593.996 484.923
3.04249 8.62555 -4.44987 593.726 487.39
0.932119 9.01113 -6.18655 586.042 487.522
-1.24893 8.87074 -4.56078 577.344 486.858
3 20 21 23
3 21 22 23
3 0 1 36
3 15 16 45
3 0 17 36
3 16 26 45
3 17 18 37
3 25 26 44
3 17 36 37
3 26 44 45
3 18 19 38
3 24 25 43
3 18 37 38
3 25 43 44
3 19 20 38
3 23 24 43
3 20 21 39
3 22 23 42
3 20 38 39
3 23 42 43
3 21 22 27
3 21 27 39
3 22 27 42
3 27 28 42
3 27 28 39
3 28 42 47
3 28 39 40
3 1 36 41
3 15 45 46
3 1 2 41
3 14 15 46
3 28 29 40
3 28 29 47
3 2 40 41
3 14 46 47
3 2 29 40
3 14 29 47
3 2 3 29
3 13 14 29
3 29 30 31
3 29 30 35
3 3 29 31
3 13 29 35
3 30 32 33
3 30 33 34
3 30 31 32
3 30 34 35
3 3 4 31
3 12 13 35
3 4 5 48
3 11 12 54
3 5 6 48
3 10 11 54
3 6 48 59
3 10 54 55
3 6 7 59
3 9 10 55
3 7 58 59
3 9 55 56
3 8 57 58
3 8 56 57
3 7 8 58
3 8 9 56
3 4 31 48
3 12 35 54
3 31 48 49
3 35 53 54
3 31 49 50
3 35 52 53
3 31 32 50
3 34 35 52
3 32 33 50
3 33 34 52
3 33 50 51
3 33 51 52
3 48 49 60
3 49 60 50
3 50 60 61
3 50 51 61
3 51 52 61
3 61 62 52
3 52 53 62
3 53 54 62
3 54 55 63
3 55 56 63
3 56 63 64
3 56 57 64
3 64 65 57
3 57 58 65
3 58 59 65
3 48 59 65
