ply
format ascii 1.0
element vertex 66
property float x
property float y
property float z
property float u
property float v
element face 91
property list uchar int vertex_indices
end_header
-20.2571 -5.54453 21.0856 502.144 434.964
-19.6132 -0.413558 20.5337 503.072 454.421
-18.6881 4.68353 20.1407 505.041 473.904
-17.3658 9.64487 18.1402 508.958 492.428
-15.3627 14.2676 13.4494 516.234 508.928
-12.3472 18.2098 7.85372 527.798 522.872
-8.49126 21.3652 3.13974 542.591 534.444
-4.05105 23.6866 -1.02988 559.739 543.257
0.948828 24.3782 -4.63855 579.4 546.292
6.2193 23.3303 -0.829413 598.822 545.521
10.6694 20.4572 3.3136 615.634 537.675
14.3258 16.6514 7.953 629.609 526.201
17.0448 12.1606 13.493 640.022 512.137
18.587 7.13684 18.2383 646.331 495.36
19.2712 1.88068 20.253 650.128 476.417
19.4348 -3.44181 20.6706 652.362 456.464
19.2166 -8.76478 21.0903 653.145 436.379
-15.6901 -15.5466 0.0886168 527.889 391.041
-13.5001 -16.903 -1.44582 537.024 386.102
-10.9641 -17.4305 -2.82142 547.167 384.48
-8.38163 -17.3719 -4.20882 557.301 385.089
-5.86891 -16.7924 -5.44577 566.965 387.702
3.15571 -17.3777 -5.43498 601.437 388.601
5.49626 -18.3054 -4.15808 610.313 386.357
7.99246 -18.7276 -2.76944 619.59 386.122
10.5403 -18.619 -1.34286 628.884 387.929
12.904 -17.6735 0.248243 637.167 392.902
-0.548229 -11.3539 -4.84323 585.278 410.355
-0.239397 -8.37876 -7.65169 586.184 420.713
0.0544766 -5.41791 -10.5335 587.056 430.985
0.32967 -2.46712 -13.242 587.818 441.275
-2.82417 0.66371 -6.13761 573.077 454.622
-1.14543 1.08975 -7.11775 579.559 456.459
0.626708 1.21523 -7.97077 586.461 457.236
2.25166 0.857734 -6.99074 592.508 456.798
3.72434 0.193516 -6.14405 598.109 455.096
-12.245 -10.4423 -0.999946 539.6 411.168
-10.7578 -11.3924 -0.994309 545.555 408.084
-8.9374 -11.6741 -0.964671 552.554 407.656
-7.30114 -11.1288 -0.963082 558.595 410.286
-8.86203 -10.4239 -1.08747 552.468 412.373
-10.5941 -10.2175 -1.03036 545.807 412.578
5.18752 -11.9088 -0.649682 606.215 411.751
6.68325 -12.7099 -0.898155 612.216 409.143
8.50809 -12.7721 -0.976061 619.188 409.508
10.13 -12.0924 -0.965897 625.129 412.646
8.57227 -11.568 -0.893621 619.024 414.121
6.8388 -11.5163 -0.831069 612.406 413.742
-5.2465 9.23112 -2.87309 560.309 487.422
-3.55906 7.6154 -4.90697 567.742 481.146
-1.52929 6.38783 -6.53895 576.251 476.605
0.787483 6.48929 -8.26177 585.444 477.163
3.02421 6.11676 -6.40286 593.604 477.197
5.1083 7.07781 -4.74761 600.804 482.156
6.83984 8.48635 -2.59346 606.398 488.87
5.31266 10.0424 -3.98902 600.438 493.731
3.27806 11.0116 -5.09172 592.668 496.301
0.941445 11.3822 -6.53255 584.026 496.377
-1.37168 11.2302 -5.24462 574.97 495.47
-3.48512 10.5304 -4.06419 566.876 492.519
-1.15413 8.31175 -5.11292 576.705 484.538
0.865612 8.1946 -7.2479 584.942 484.017
2.78755 8.12421 -4.90804 591.69 485.262
2.78051 8.57592 -4.43361 591.4 487.142
0.867125 8.91851 -6.16842 584.448 487.151
-1.11973 8.77783 -4.56319 576.55 486.515
3 20 21 23
3 21 22 23
3 0 1 36
3 15 16 45
3 0 17 36
3 16 26 45
3 17 18 37
3 25 26 44
3 17 36 37
3 26 44 45
3 18 19 38
3 24 25 43
3 18 37 38
3 25 43 44
3 19 20 38
3 23 24 43
3 20 21 39
3 22 23 42
3 20 38 39
3 23 42 43
3 21 22 27
3 21 27 39
3 22 27 42
3 27 28 42
3 27 28 39
3 28 42 47
3 28 39 40
3 1 36 41
3 15 45 46
3 1 2 41
3 14 15 46
3 28 29 40
3 28 29 47
3 2 40 41
3 14 46 47
3 2 29 40
3 14 29 47
3 2 3 29
3 13 14 29
3 29 30 31
3 29 30 35
3 3 29 31
3 13 29 35
3 30 32 33
3 30 33 34
3 30 31 32
3 30 34 35
3 3 4 31
3 12 13 35
3 4 5 48
3 11 12 54
3 5 6 48
3 10 11 54
3 6 48 59
3 10 54 55
3 6 7 59
3 9 10 55
3 7 58 59
3 9 55 56
3 8 57 58
3 8 56 57
3 7 8 58
3 8 9 56
3 4 31 48
3 12 35 54
3 31 48 49
3 35 53 54
3 31 49 50
3 35 52 53
3 31 32 50
3 34 35 52
3 32 33 50
3 33 34 52
3 33 50 51
3 33 51 52
3 48 49 60
3 49 60 50
3 50 60 61
3 50 51 61
3 51 52 61
3 61 62 52
3 52 53 62
3 53 54 62
3 54 55 63
3 55 56 63
3 56 63 64
3 56 57 64
3 64 65 57
3 57 58 65
3 58 59 65
3 48 59 65
