ply
format ascii 1.0
element vertex 66
property float x
property float y
property float z
property float u
property float v
element face 91
property list uchar int vertex_indices
end_header
-20.1177 -5.73341 21.0266 504.514 432.546
-19.4809 -0.591367 20.4731 505.565 452.351
-18.5553 4.51321 20.0573 507.707 472.154
-17.2167 9.51463 18.1587 511.852 491.169
-15.2066 14.2158 13.4599 519.391 508.256
-12.2194 18.2819 7.87239 531.119 522.899
-8.40204 21.5858 3.15573 546.057 535.185
-3.96617 24.0236 -0.991163 563.499 544.539
1.05757 24.7628 -4.61993 583.588 547.726
6.25091 23.6179 -0.863516 603.018 546.327
10.5645 20.6145 3.3034 619.508 537.633
14.1057 16.7323 7.95135 633.159 525.477
16.7862 12.2256 13.4892 643.45 510.953
18.3813 7.21481 18.2335 649.906 493.857
19.1265 1.99225 20.2103 653.849 474.692
19.3376 -3.27599 20.6679 656.133 454.641
19.1764 -8.552 21.0616 656.998 434.418
-15.5756 -15.4898 0.0942659 530.308 389.057
-13.461 -16.9239 -1.48889 539.304 383.66
-10.9475 -17.5439 -2.86398 549.541 381.6
-8.35004 -17.5492 -4.23571 559.916 381.935
-5.8106 -17.0022 -5.44768 569.86 384.434
2.84473 -17.5032 -5.3983 603.401 385.322
5.25579 -18.4598 -4.13888 612.673 382.865
7.82761 -18.8676 -2.75875 622.369 382.615
10.4317 -18.6963 -1.34162 632.007 384.618
12.7984 -17.6629 0.268508 640.42 389.931
-0.675901 -11.5794 -4.87286 587.898 407.174
-0.395619 -8.5533 -7.66445 588.78 417.927
-0.124996 -5.54038 -10.5197 589.645 428.603
0.136863 -2.54053 -13.2099 590.437 439.285
-2.87175 0.598224 -6.1127 576.075 452.904
-1.24114 1.00378 -7.09492 582.496 454.645
0.47963 1.11604 -7.97331 589.327 455.324
2.09667 0.762276 -6.98334 595.422 454.835
3.56238 0.107393 -6.15887 601.065 453.079
-11.9388 -10.4869 -1.08401 543.138 409.075
-10.4717 -11.4976 -1.05225 549.096 405.671
-8.62822 -11.7797 -0.980309 556.277 405.207
-6.97413 -11.2036 -0.891584 562.465 407.99
-8.53739 -10.476 -1.06041 556.256 410.226
-10.2749 -10.2535 -1.04535 549.48 410.526
4.94732 -11.9922 -0.624822 608.642 408.905
6.45764 -12.825 -0.916978 614.795 406.085
8.30543 -12.8787 -0.982269 621.959 406.453
9.92517 -12.1471 -0.94916 627.981 409.804
8.35167 -11.6111 -0.862649 621.726 411.389
6.60566 -11.5684 -0.797508 614.958 411.012
-5.13994 9.29456 -2.81295 563.865 486.814
-3.47132 7.74925 -4.90072 571.301 480.667
-1.47544 6.54566 -6.55074 579.786 476.096
0.818553 6.64994 -8.24277 589.038 476.641
3.04973 6.24243 -6.38275 597.298 476.452
5.13185 7.1439 -4.72537 604.64 481.181
6.89455 8.44281 -2.56575 610.502 487.515
5.38727 10.0074 -4.0127 604.583 492.54
3.38401 11.0235 -5.11009 596.825 495.415
1.04745 11.4498 -6.54786 588.046 495.792
-1.27185 11.2976 -5.25869 578.813 494.911
-3.38321 10.5956 -4.06552 570.572 491.948
-1.10926 8.39879 -5.06709 580.263 483.873
0.918382 8.26625 -7.19869 588.671 483.265
2.88117 8.15251 -4.91718 595.699 484.268
2.90122 8.65477 -4.44581 595.506 486.375
0.944139 9.07254 -6.16035 588.264 486.744
-1.07194 8.91499 -4.5327 580.116 486.061
3 20 21 23
3 21 22 23
3 0 1 36
3 15 16 45
3 0 17 36
3 16 26 45
3 17 18 37
3 25 26 44
3 17 36 37
3 26 44 45
3 18 19 38
3 24 25 43
3 18 37 38
3 25 43 44
3 19 20 38
3 23 24 43
3 20 21 39
3 22 23 42
3 20 38 39
3 23 42 43
3 21 22 27
3 21 27 39
3 22 27 42
3 27 28 42
3 27 28 39
3 28 42 47
3 28 39 40
3 1 36 41
3 15 45 46
3 1 2 41
3 14 15 46
3 28 29 40
3 28 29 47
3 2 40 41
3 14 46 47
3 2 29 40
3 14 29 47
3 2 3 29
3 13 14 29
3 29 30 31
3 29 30 35
3 3 29 31
3 13 29 35
3 30 32 33
3 30 33 34
3 30 31 32
3 30 34 35
3 3 4 31
3 12 13 35
3 4 5 48
3 11 12 54
3 5 6 48
3 10 11 54
3 6 48 59
3 10 54 55
3 6 7 59
3 9 10 55
3 7 58 59
3 9 55 56
3 8 57 58
3 8 56 57
3 7 8 58
3 8 9 56
3 4 31 48
3 12 35 54
3 31 48 49
3 35 53 54
3 31 49 50
3 35 52 53
3 31 32 50
3 34 35 52
3 32 33 50
3 33 34 52
3 33 50 51
3 33 51 52
3 48 49 60
3 49 60 50
3 50 60 61
3 50 51 61
3 51 52 61
3 61 62 52
3 52 53 62
3 53 54 62
3 54 55 63
3 55 56 63
3 56 63 64
3 56 57 64
3 64 65 57
3 57 58 65
3 58 59 65
3 48 59 65
