ply
format ascii 1.0
element vertex 66
property float x
property float y
property float z
property float u
property float v
element face 91
property list uchar int vertex_indices
end_header
-19.707 -5.64878 20.9712 503.396 433.674
-19.0479 -0.520845 20.4496 504.287 453.719
-18.1149 4.57008 20.0162 506.235 473.753
-16.8032 9.55244 18.0894 510.113 493.014
-14.8699 14.252 13.4931 517.256 510.527
-12.0022 18.3468 7.91207 528.533 525.714
-8.30498 21.7073 3.11658 543.088 538.615
-3.98782 24.2481 -1.01804 560.169 548.778
0.972804 25.0388 -4.61331 580.233 552.547
6.18485 23.8804 -0.843295 599.928 551.256
10.465 20.7776 3.27147 616.584 542.155
13.9298 16.7854 7.99243 630.208 529.482
16.5056 12.1801 13.517 640.36 514.351
18.018 7.12155 18.1538 646.772 496.758
18.7175 1.88684 20.1153 650.818 477.287
18.8954 -3.39057 20.571 653.263 456.955
18.6902 -8.67551 20.9484 654.239 436.423
-15.2451 -15.579 0.0550209 530.136 389.783
-13.1341 -16.8914 -1.47474 539.261 384.966
-10.6894 -17.4561 -2.85026 549.379 383.239
-8.17778 -17.4689 -4.24062 559.565 383.681
-5.71579 -16.9723 -5.48055 569.335 386.137
2.96107 -17.5229 -5.48297 603.373 387.279
5.22319 -18.3732 -4.19021 612.14 385.252
7.62765 -18.7349 -2.78929 621.258 385.217
10.0715 -18.6303 -1.35502 630.355 387.024
12.3617 -17.7811 0.217818 638.548 391.718
-0.558491 -11.8313 -4.87259 587.452 408.311
-0.257974 -8.8629 -7.62229 588.331 419.074
0.0280868 -5.90971 -10.4609 589.183 429.744
0.295662 -2.97078 -13.1743 589.934 440.393
-2.76847 0.288426 -6.09006 574.858 454.265
-1.12092 0.668719 -7.05243 581.415 456.052
0.611727 0.778496 -7.91057 588.372 456.852
2.19322 0.442853 -6.93914 594.39 456.465
3.63755 -0.170932 -6.11332 600.013 454.895
-11.8095 -10.6781 -1.04881 542.098 409.803
-10.3818 -11.5897 -1.00208 547.978 406.81
-8.62637 -11.8805 -0.951133 554.914 406.359
-7.0381 -11.4124 -0.922255 560.934 408.793
-8.54308 -10.7278 -1.05755 554.858 410.844
-10.2129 -10.5012 -1.02117 548.255 411.106
4.91699 -12.1676 -0.617383 607.746 410.481
6.36918 -12.8852 -0.885906 613.74 408.148
8.1284 -12.9397 -0.979525 620.647 408.571
9.68734 -12.2921 -1.00838 626.505 411.674
8.18135 -11.8131 -0.884586 620.426 413.009
6.50803 -11.7876 -0.802998 613.868 412.502
-5.26437 9.51227 -2.82285 560.935 490.317
-3.69403 7.71013 -4.86105 568.266 483.22
-1.65521 6.28935 -6.49324 577.177 477.921
0.790971 6.32109 -8.22278 587.186 478.399
3.15937 5.99609 -6.3573 596.021 478.647
5.27274 7.1441 -4.70165 603.396 484.465
6.90342 8.75859 -2.55436 608.586 492.079
5.46334 10.4849 -4.03357 602.765 497.767
3.46487 11.6654 -5.10112 594.847 501.254
1.01418 12.1383 -6.52822 585.516 501.696
-1.42931 11.903 -5.23977 575.712 500.28
-3.5467 10.9931 -4.08559 567.457 496.316
-1.36855 8.23891 -5.01877 577.192 486.108
0.870316 7.98556 -7.23602 586.629 485.237
3.0205 8.0168 -4.81701 594.333 486.972
3.06793 9.20251 -4.39536 593.979 491.747
0.948022 9.739 -6.14766 586.006 492.454
-1.27678 9.44141 -4.51825 576.983 490.991
3 20 21 23
3 21 22 23
3 0 1 36
3 15 16 45
3 0 17 36
3 16 26 45
3 17 18 37
3 25 26 44
3 17 36 37
3 26 44 45
3 18 19 38
3 24 25 43
3 18 37 38
3 25 43 44
3 19 20 38
3 23 24 43
3 20 21 39
3 22 23 42
3 20 38 39
3 23 42 43
3 21 22 27
3 21 27 39
3 22 27 42
3 27 28 42
3 27 28 39
3 28 42 47
3 28 39 40
3 1 36 41
3 15 45 46
3 1 2 41
3 14 15 46
3 28 29 40
3 28 29 47
3 2 40 41
3 14 46 47
3 2 29 40
3 14 29 47
3 2 3 29
3 13 14 29
3 29 30 31
3 29 30 35
3 3 29 31
3 13 29 35
3 30 32 33
3 30 33 34
3 30 31 32
3 30 34 35
3 3 4 31
3 12 13 35
3 4 5 48
3 11 12 54
3 5 6 48
3 10 11 54
3 6 48 59
3 10 54 55
3 6 7 59
3 9 10 55
3 7 58 59
3 9 55 56
3 8 57 58
3 8 56 57
3 7 8 58
3 8 9 56
3 4 31 48
3 12 35 54
3 31 48 49
3 35 53 54
3 31 49 50
3 35 52 53
3 31 32 50
3 34 35 52
3 32 33 50
3 33 34 52
3 33 50 51
3 33 51 52
3 48 49 60
3 49 60 50
3 50 60 61
3 50 51 61
3 51 52 61
3 61 62 52
3 52 53 62
3 53 54 62
3 54 55 63
3 55 56 63
3 56 63 64
3 56 57 64
3 64 65 57
3 57 58 65
3 58 59 65
3 48 59 65
