ply
format ascii 1.0
element vertex 66
property float x
property float y
property float z
property float u
property float v
element face 91
property list uchar int vertex_indices
end_header
-20.6365 -6.10583 21.2626 503.5 434.431
-19.9972 -0.819906 20.6725 504.518 454.116
-19.1016 4.44044 20.2286 506.454 473.841
-17.8284 9.64531 18.2419 510.302 492.925
-15.889 14.5669 13.4053 517.62 510.143
-12.788 18.669 7.78476 529.76 524.402
-8.7592 21.7952 3.15999 545.335 535.685
-4.1659 23.9627 -0.995702 563.15 543.749
0.864764 24.6526 -4.71072 582.892 546.61
6.11869 23.4542 -0.841235 601.628 545.242
10.5857 20.4791 3.33342 617.853 537.112
14.3244 16.5993 7.85353 631.517 525.5
17.2256 12.0392 13.3571 641.946 511.438
18.9927 6.98675 18.1318 648.518 494.911
19.7957 1.84504 20.2337 652.362 476.776
19.9762 -3.28807 20.6533 654.412 457.865
19.7531 -8.4306 21.0029 654.981 438.762
-16.0838 -15.1783 0.0843916 529.843 394.477
-13.8806 -16.7753 -1.54772 539.049 388.654
-11.2059 -17.5018 -2.88565 549.666 386.332
-8.40579 -17.4781 -4.19924 560.523 386.854
-5.65467 -16.837 -5.35256 570.964 389.718
2.85023 -17.2156 -5.35549 602.813 391.062
5.24924 -18.2299 -4.11582 611.671 388.507
7.82763 -18.6868 -2.77166 621.003 388.125
10.4433 -18.5791 -1.35636 630.284 389.884
12.847 -17.6124 0.301058 638.447 394.861
-0.414333 -11.0696 -4.8804 588.674 413.069
-0.175513 -8.02991 -7.72855 589.571 423.443
0.0484775 -4.9961 -10.6098 590.425 433.778
0.259603 -1.97563 -13.281 591.168 444.135
-2.92867 0.71595 -6.16088 576.231 455.694
-1.17529 1.20516 -7.12344 582.934 457.738
0.680291 1.37168 -8.00453 590.088 458.641
2.35552 0.976757 -6.9817 596.132 458.082
3.86296 0.245557 -6.20438 601.727 456.127
-12.0074 -10.0839 -1.12237 543.938 414.34
-10.5385 -10.9702 -1.13957 549.685 411.508
-8.7618 -11.2744 -1.04188 556.373 410.986
-7.09706 -10.8083 -0.884666 562.399 413.318
-8.65349 -10.1538 -1.0582 556.453 415.189
-10.3478 -9.95849 -1.06988 550.077 415.364
5.12289 -11.5417 -0.636009 608.135 414.634
6.62219 -12.2119 -0.980761 614.036 412.499
8.37341 -12.273 -1.05944 620.613 412.811
9.94065 -11.6403 -0.959616 626.244 415.711
8.39008 -11.2 -0.87319 620.301 416.88
6.71885 -11.1698 -0.780867 614.027 416.485
-5.58036 8.89958 -2.82654 562.878 486.521
-3.81537 7.22765 -4.95036 570.626 480.099
-1.6295 6.00196 -6.56145 579.652 475.661
0.870807 6.10943 -8.1878 589.464 476.285
3.27461 5.69102 -6.30556 597.962 476.184
5.48917 6.58999 -4.69899 605.454 480.829
7.25658 8.06651 -2.5362 610.933 487.681
5.60861 9.53049 -3.89256 604.781 492.112
3.47912 10.4187 -4.983 596.918 494.337
1.09029 10.7841 -6.53048 588.385 494.367
-1.30123 10.6621 -5.1863 579.073 493.622
-3.57818 10.0903 -3.96544 570.359 491.195
-1.17731 7.88687 -5.16402 580.344 483.333
0.996994 7.82056 -7.14633 589.103 483.075
3.06687 7.66173 -4.88754 596.16 483.969
3.08975 8.1271 -4.39723 595.954 485.886
1.03443 8.49666 -6.19026 588.742 485.951
-1.10324 8.38027 -4.58338 580.292 485.404
3 20 21 23
3 21 22 23
3 0 1 36
3 15 16 45
3 0 17 36
3 16 26 45
3 17 18 37
3 25 26 44
3 17 36 37
3 26 44 45
3 18 19 38
3 24 25 43
3 18 37 38
3 25 43 44
3 19 20 38
3 23 24 43
3 20 21 39
3 22 23 42
3 20 38 39
3 23 42 43
3 21 22 27
3 21 27 39
3 22 27 42
3 27 28 42
3 27 28 39
3 28 42 47
3 28 39 40
3 1 36 41
3 15 45 46
3 1 2 41
3 14 15 46
3 28 29 40
3 28 29 47
3 2 40 41
3 14 46 47
3 2 29 40
3 14 29 47
3 2 3 29
3 13 14 29
3 29 30 31
3 29 30 35
3 3 29 31
3 13 29 35
3 30 32 33
3 30 33 34
3 30 31 32
3 30 34 35
3 3 4 31
3 12 13 35
3 4 5 48
3 11 12 54
3 5 6 48
3 10 11 54
3 6 48 59
3 10 54 55
3 6 7 59
3 9 10 55
3 7 58 59
3 9 55 56
3 8 57 58
3 8 56 57
3 7 8 58
3 8 9 56
3 4 31 48
3 12 35 54
3 31 48 49
3 35 53 54
3 31 49 50
3 35 52 53
3 31 32 50
3 34 35 52
3 32 33 50
3 33 34 52
3 33 50 51
3 33 51 52
3 48 49 60
3 49 60 50
3 50 60 61
3 50 51 61
3 51 52 61
3 61 62 52
3 52 53 62
3 53 54 62
3 54 55 63
3 55 56 63
3 56 63 64
3 56 57 64
3 64 65 57
3 57 58 65
3 58 59 65
3 48 59 65
