ply
format ascii 1.0
element vertex 66
property float x
property float y
property float z
property float u
property float v
element face 91
property list uchar int vertex_indices
end_header
-19.9636 -5.8253 21.0972 504.213 432.922
-19.3126 -0.692779 20.5474 505.534 452.726
-18.3823 4.39983 20.1068 507.914 472.498
-17.1247 9.42613 18.1556 512.022 491.554
-15.2331 14.212 13.4679 519.45 508.862
-12.2785 18.3521 7.88612 531.425 523.658
-8.45308 21.6956 3.15836 546.73 535.947
-3.99515 24.1229 -1.02508 564.565 545.083
1.02336 24.8712 -4.62022 584.841 548.118
6.19499 23.7483 -0.915705 604.059 546.655
10.5129 20.7625 3.32527 620.311 537.948
14.0615 16.8705 7.96813 633.708 525.665
16.754 12.3503 13.4831 643.702 511.027
18.2912 7.31153 18.2473 649.584 493.774
18.9944 2.09524 20.3053 653.082 474.596
19.2477 -3.15151 20.7999 655.306 454.595
19.1471 -8.41167 21.1474 656.208 434.384
-15.6799 -15.6429 0.105733 529.556 388.554
-13.4771 -16.9276 -1.48693 538.887 383.652
-10.9638 -17.4411 -2.88239 549.158 381.891
-8.39666 -17.4286 -4.24689 559.488 382.188
-5.88546 -16.896 -5.45186 569.417 384.535
2.70005 -17.3499 -5.40476 602.742 385.309
5.16844 -18.3059 -4.15765 612.179 382.798
7.79197 -18.7253 -2.79369 622.041 382.447
10.4555 -18.6002 -1.3667 631.894 384.232
12.9171 -17.626 0.279623 640.676 389.318
-0.776918 -11.5237 -4.87215 587.589 406.983
-0.49352 -8.37469 -7.67924 588.677 418.192
-0.220028 -5.24281 -10.5809 589.758 429.297
0.0503341 -2.12541 -13.3083 590.78 440.41
-3.01887 0.861669 -6.16713 576.015 453.67
-1.33288 1.28706 -7.15297 582.715 455.443
0.440889 1.40822 -8.03236 589.805 456.106
2.12328 1.02153 -7.06368 596.132 455.461
3.65299 0.318814 -6.29084 602.009 453.479
-12.0654 -10.4889 -0.978949 542.494 409.111
-10.583 -11.5757 -1.04801 548.538 405.322
-8.69684 -11.8165 -1.05303 555.901 404.942
-7.03406 -11.1031 -0.965154 562.12 408.214
-8.63339 -10.4232 -1.06587 555.782 410.335
-10.387 -10.2217 -1.02596 548.932 410.615
4.91038 -11.8934 -0.722816 608.473 408.743
6.40816 -12.8615 -1.04073 614.618 405.326
8.28721 -12.9579 -0.990522 621.899 405.521
9.93948 -12.1687 -0.800486 628.027 409.121
8.35863 -11.596 -0.82338 621.766 410.862
6.59757 -11.5307 -0.790588 614.925 410.611
-5.83106 9.12981 -2.79276 561.952 486.011
-3.96535 7.4425 -4.91617 570.242 479.261
-1.69407 6.22567 -6.55931 579.835 474.623
0.868936 6.29005 -8.2292 590.225 475.007
3.37947 5.85401 -6.36382 599.506 474.742
5.76773 6.68634 -4.72016 608.044 479.258
7.79172 8.05527 -2.52895 614.868 485.94
6.06257 9.81032 -3.97204 608.137 491.681
3.77088 10.9254 -5.01122 599.28 494.934
1.17811 11.3769 -6.44579 589.55 495.392
-1.396 11.2762 -5.17246 579.243 494.719
-3.81479 10.5639 -4.0285 569.737 491.683
-1.41458 8.21734 -5.09545 579.959 482.932
1.00623 8.09157 -7.22655 589.985 482.371
3.37262 7.87154 -4.98393 598.54 483.037
3.41389 8.40733 -4.48716 598.412 485.3
1.04012 8.82251 -6.19715 589.62 485.581
-1.3728 8.7666 -4.54553 579.813 485.267
3 20 21 23
3 21 22 23
3 0 1 36
3 15 16 45
3 0 17 36
3 16 26 45
3 17 18 37
3 25 26 44
3 17 36 37
3 26 44 45
3 18 19 38
3 24 25 43
3 18 37 38
3 25 43 44
3 19 20 38
3 23 24 43
3 20 21 39
3 22 23 42
3 20 38 39
3 23 42 43
3 21 22 27
3 21 27 39
3 22 27 42
3 27 28 42
3 27 28 39
3 28 42 47
3 28 39 40
3 1 36 41
3 15 45 46
3 1 2 41
3 14 15 46
3 28 29 40
3 28 29 47
3 2 40 41
3 14 46 47
3 2 29 40
3 14 29 47
3 2 3 29
3 13 14 29
3 29 30 31
3 29 30 35
3 3 29 31
3 13 29 35
3 30 32 33
3 30 33 34
3 30 31 32
3 30 34 35
3 3 4 31
3 12 13 35
3 4 5 48
3 11 12 54
3 5 6 48
3 10 11 54
3 6 48 59
3 10 54 55
3 6 7 59
3 9 10 55
3 7 58 59
3 9 55 56
3 8 57 58
3 8 56 57
3 7 8 58
3 8 9 56
3 4 31 48
3 12 35 54
3 31 48 49
3 35 53 54
3 31 49 50
3 35 52 53
3 31 32 50
3 34 35 52
3 32 33 50
3 33 34 52
3 33 50 51
3 33 51 52
3 48 49 60
3 49 60 50
3 50 60 61
3 50 51 61
3 51 52 61
3 61 62 52
3 52 53 62
3 53 54 62
3 54 55 63
3 55 56 63
3 56 63 64
3 56 57 64
3 64 65 57
3 57 58 65
3 58 59 65
3 48 59 65
