ply
format ascii 1.0
element vertex 66
property float x
property float y
property float z
property float u
property float v
element face 91
property list uchar int vertex_indices
end_header
-19.3037 -5.81346 20.923 504.566 433.43
-18.6566 -0.721334 20.4218 505.605 453.854
-17.7434 4.32406 19.9454 507.721 474.194
-16.4485 9.34048 18.0649 511.742 494.047
-14.5378 14.1948 13.5415 518.974 512.514
-11.7409 18.5067 7.90712 530.229 528.723
-8.15827 22.1412 3.06833 544.654 542.787
-3.92733 24.9511 -1.03513 561.761 554.046
0.988081 25.9327 -4.6809 582.101 558.397
6.11613 24.5981 -0.890292 602.128 556.24
10.2366 21.2255 3.23378 618.702 545.692
13.5454 16.9987 7.98785 632.139 531.666
16.0694 12.239 13.5556 642.393 515.524
17.6183 7.0706 18.1335 649.129 497.044
18.3546 1.8276 20.0932 653.31 477.032
18.564 -3.39011 20.6011 655.747 456.411
18.4015 -8.62861 20.9118 656.749 435.503
-14.9391 -15.7712 0.0659223 530.794 387.595
-12.9592 -17.0143 -1.48041 539.549 382.763
-10.6285 -17.5613 -2.88016 549.444 380.893
-8.21427 -17.5938 -4.27676 559.502 381.113
-5.83355 -17.1238 -5.49949 569.214 383.395
2.79311 -17.5996 -5.50863 603.978 384.54
5.06029 -18.4524 -4.22972 613.023 382.392
7.46021 -18.7995 -2.82139 622.398 382.361
9.87721 -18.665 -1.36785 631.671 384.279
12.083 -17.7902 0.221833 639.816 389.134
-0.663552 -11.8985 -4.86241 588.056 406.363
-0.389711 -9.0486 -7.58288 588.917 416.882
-0.128112 -6.21098 -10.3909 589.756 427.315
0.122389 -3.39637 -13.1215 590.538 437.68
-2.85604 -0.0280959 -5.96398 575.615 452.69
-1.21163 0.327901 -6.99743 582.362 454.323
0.507211 0.433327 -7.9579 589.471 455.006
2.09729 0.0871083 -6.90965 595.692 454.562
3.56023 -0.520764 -6.06192 601.541 452.953
-11.5247 -10.6921 -1.069 543.103 408.717
-10.2196 -11.6378 -1.02073 548.638 405.413
-8.5371 -11.9469 -0.973071 555.477 404.788
-7.00487 -11.5235 -0.920145 561.47 407.044
-8.40182 -10.7517 -1.03249 555.64 409.597
-9.9932 -10.5105 -0.997625 549.167 410.012
4.85927 -12.2877 -0.656292 609.245 408.279
6.26091 -12.9471 -0.948123 615.162 406.032
7.94609 -12.9623 -0.993118 621.938 406.551
9.39407 -12.2772 -0.97366 627.515 409.812
7.95316 -11.8057 -0.8407 621.544 411.237
6.35389 -11.8069 -0.775285 615.112 410.689
-5.49878 9.38002 -2.76862 561.067 490.555
-3.8016 7.69403 -4.82346 568.967 483.667
-1.66601 6.36172 -6.47351 578.404 478.496
0.858194 6.43474 -8.14836 588.94 479.076
3.3128 6.02703 -6.3079 598.443 478.978
5.53946 7.03341 -4.64326 606.609 484.394
7.32683 8.47091 -2.49815 612.745 491.554
5.88495 10.4927 -4.08988 606.705 498.559
3.77719 11.9002 -5.14935 598.059 503.063
1.16122 12.4982 -6.59529 587.744 504.008
-1.4558 12.2075 -5.29566 577.004 502.388
-3.72692 11.1374 -4.13195 567.946 497.722
-1.39988 8.34528 -4.95984 578.421 487.074
0.967248 8.18073 -7.18523 588.549 486.449
3.25337 8.05896 -4.80647 597.142 487.63
3.35552 9.25591 -4.41785 597.054 492.596
1.0589 9.93447 -6.15551 588.068 493.871
-1.34264 9.56517 -4.50664 578.129 492.139
3 20 21 23
3 21 22 23
3 0 1 36
3 15 16 45
3 0 17 36
3 16 26 45
3 17 18 37
3 25 26 44
3 17 36 37
3 26 44 45
3 18 19 38
3 24 25 43
3 18 37 38
3 25 43 44
3 19 20 38
3 23 24 43
3 20 21 39
3 22 23 42
3 20 38 39
3 23 42 43
3 21 22 27
3 21 27 39
3 22 27 42
3 27 28 42
3 27 28 39
3 28 42 47
3 28 39 40
3 1 36 41
3 15 45 46
3 1 2 41
3 14 15 46
3 28 29 40
3 28 29 47
3 2 40 41
3 14 46 47
3 2 29 40
3 14 29 47
3 2 3 29
3 13 14 29
3 29 30 31
3 29 30 35
3 3 29 31
3 13 29 35
3 30 32 33
3 30 33 34
3 30 31 32
3 30 34 35
3 3 4 31
3 12 13 35
3 4 5 48
3 11 12 54
3 5 6 48
3 10 11 54
3 6 48 59
3 10 54 55
3 6 7 59
3 9 10 55
3 7 58 59
3 9 55 56
3 8 57 58
3 8 56 57
3 7 8 58
3 8 9 56
3 4 31 48
3 12 35 54
3 31 48 49
3 35 53 54
3 31 49 50
3 35 52 53
3 31 32 50
3 34 35 52
3 32 33 50
3 33 34 52
3 33 50 51
3 33 51 52
3 48 49 60
3 49 60 50
3 50 60 61
3 50 51 61
3 51 52 61
3 61 62 52
3 52 53 62
3 53 54 62
3 54 55 63
3 55 56 63
3 56 63 64
3 56 57 64
3 64 65 57
3 57 58 65
3 58 59 65
3 48 59 65
