ply
format ascii 1.0
element vertex 66
property float x
property float y
property float z
property float u
property float v
element face 91
property list uchar int vertex_indices
end_header
-20.4715 -5.67886 21.0873 502.15 434.487
-19.811 -0.538072 20.5245 503.35 453.941
-18.8408 4.56032 20.1164 505.704 473.387
-17.467 9.55281 18.1526 509.98 491.953
-15.408 14.2451 13.3904 517.588 508.508
-12.3387 18.2786 7.82538 529.405 522.564
-8.44928 21.5353 3.16606 544.351 534.275
-3.94812 23.8877 -1.0207 561.767 542.928
1.10046 24.6006 -4.60445 581.586 545.771
6.31982 23.4934 -0.85793 600.879 544.604
10.7192 20.5938 3.34126 617.453 536.575
14.3263 16.7492 7.92874 631.19 524.877
17.0548 12.2506 13.4389 641.558 510.792
18.6429 7.22433 18.2644 647.896 494.1
19.3856 1.98613 20.2725 651.726 475.261
19.6278 -3.29834 20.7159 654.026 455.49
19.4874 -8.58759 21.1347 654.878 435.576
-15.789 -15.5063 0.0900146 527.532 390.569
-13.5973 -16.7947 -1.47106 536.584 385.748
-11.0844 -17.2782 -2.84536 546.59 384.146
-8.52873 -17.2066 -4.2297 556.604 384.656
-6.03858 -16.6331 -5.45406 566.192 387.108
3.14579 -17.1818 -5.39895 601.252 387.829
5.5421 -18.1253 -4.14367 610.339 385.466
8.0872 -18.5656 -2.76616 619.822 385.1
10.6779 -18.4558 -1.36223 629.319 386.842
13.0679 -17.4949 0.258702 637.764 391.831
-0.678327 -11.2259 -4.83998 584.916 409.447
-0.386206 -8.18614 -7.69731 585.831 419.944
-0.105444 -5.15667 -10.5897 586.714 430.386
0.166079 -2.13669 -13.2556 587.513 440.876
-3.01336 0.900251 -6.20662 572.954 454.141
-1.30697 1.38673 -7.15989 579.524 456.131
0.502531 1.54354 -7.98437 586.55 456.954
2.2037 1.13139 -7.03839 592.916 456.273
3.73131 0.384305 -6.23925 598.749 454.214
-12.4002 -10.4296 -1.03123 539.251 410.389
-10.877 -11.4206 -1.0355 545.321 407.094
-9.00232 -11.7005 -0.98238 552.514 406.622
-7.3193 -11.1208 -0.946273 558.743 409.34
-8.93065 -10.4234 -1.07472 552.45 411.445
-10.7059 -10.212 -1.03637 545.633 411.723
5.2041 -11.9223 -0.67751 606.519 410.197
6.74892 -12.7576 -0.931176 612.685 407.402
8.62726 -12.8085 -0.984839 619.853 407.757
10.2952 -12.0998 -0.913273 625.979 410.974
8.6848 -11.5873 -0.862417 619.701 412.447
6.90371 -11.5349 -0.816167 612.904 412.125
-5.0878 9.11369 -2.82209 561.988 485.93
-3.51912 7.42398 -4.92009 568.907 479.194
-1.51683 6.20158 -6.56084 577.24 474.536
0.790152 6.30944 -8.2673 586.373 474.983
3.03829 5.89752 -6.39142 594.604 474.828
5.13891 6.81517 -4.74351 601.955 479.575
6.83582 8.26808 -2.56436 607.499 486.434
5.28329 9.71937 -3.90995 601.499 490.941
3.27903 10.6116 -5.02373 593.885 493.284
1.02013 10.9824 -6.49859 585.531 493.435
-1.21756 10.8736 -5.18733 576.753 492.853
-3.30709 10.29 -3.99506 568.698 490.471
-1.04547 8.11031 -5.10237 578.162 482.471
0.897729 8.01857 -7.19582 586.057 481.903
2.77868 7.87697 -4.94348 592.73 482.806
2.759 8.22233 -4.44003 592.443 484.302
0.908607 8.56814 -6.1447 585.702 484.394
-0.985737 8.46113 -4.53973 578.161 484.036
3 20 21 23
3 21 22 23
3 0 1 36
3 15 16 45
3 0 17 36
3 16 26 45
3 17 18 37
3 25 26 44
3 17 36 37
3 26 44 45
3 18 19 38
3 24 25 43
3 18 37 38
3 25 43 44
3 19 20 38
3 23 24 43
3 20 21 39
3 22 23 42
3 20 38 39
3 23 42 43
3 21 22 27
3 21 27 39
3 22 27 42
3 27 28 42
3 27 28 39
3 28 42 47
3 28 39 40
3 1 36 41
3 15 45 46
3 1 2 41
3 14 15 46
3 28 29 40
3 28 29 47
3 2 40 41
3 14 46 47
3 2 29 40
3 14 29 47
3 2 3 29
3 13 14 29
3 29 30 31
3 29 30 35
3 3 29 31
3 13 29 35
3 30 32 33
3 30 33 34
3 30 31 32
3 30 34 35
3 3 4 31
3 12 13 35
3 4 5 48
3 11 12 54
3 5 6 48
3 10 11 54
3 6 48 59
3 10 54 55
3 6 7 59
3 9 10 55
3 7 58 59
3 9 55 56
3 8 57 58
3 8 56 57
3 7 8 58
3 8 9 56
3 4 31 48
3 12 35 54
3 31 48 49
3 35 53 54
3 31 49 50
3 35 52 53
3 31 32 50
3 34 35 52
3 32 33 50
3 33 34 52
3 33 50 51
3 33 51 52
3 48 49 60
3 49 60 50
3 50 60 61
3 50 51 61
3 51 52 61
3 61 62 52
3 52 53 62
3 53 54 62
3 54 55 63
3 55 56 63
3 56 63 64
3 56 57 64
3 64 65 57
3 57 58 65
3 58 59 65
3 48 59 65
