ply
format ascii 1.0
element vertex 66
property float x
property float y
property float z
property float u
property float v
element face 91
property list uchar int vertex_indices
end_header
-20.2334 -5.72884 21.0448 503.271 433.629
-19.632 -0.576099 20.5123 504.122 453.184
-18.7325 4.54071 20.1276 506.077 472.748
-17.4191 9.53753 18.1488 510.052 491.471
-15.4278 14.2295 13.4458 517.397 508.37
-12.4112 18.2601 7.86503 529.063 522.811
-8.52193 21.4733 3.16395 544.066 534.725
-4.02652 23.8057 -1.00467 561.502 543.672
1.0205 24.5077 -4.61489 581.386 546.801
6.26775 23.4359 -0.842013 600.668 545.683
10.6992 20.5666 3.33403 617.295 537.617
14.3505 16.7673 7.95488 631.128 525.916
17.0739 12.2768 13.4719 641.417 511.585
18.6251 7.24473 18.2602 647.608 494.58
19.3168 1.9845 20.2819 651.317 475.526
19.487 -3.33513 20.7123 653.473 455.558
19.2822 -8.65718 21.0932 654.22 435.442
-15.6458 -15.4997 0.0482516 529.083 391.232
-13.435 -16.868 -1.48406 538.291 386.266
-10.8702 -17.4002 -2.85279 548.547 384.639
-8.25411 -17.3452 -4.24144 558.823 385.247
-5.70874 -16.7595 -5.49156 568.633 387.89
2.83957 -17.3082 -5.43214 601.249 388.62
5.28406 -18.2714 -4.15534 610.497 386.183
7.88696 -18.7025 -2.77698 620.158 385.849
10.5306 -18.5482 -1.37558 629.79 387.754
12.9449 -17.5077 0.228511 638.228 393.01
-0.690119 -11.5265 -4.86974 585.937 409.568
-0.392377 -8.51668 -7.64209 586.866 420.168
-0.106078 -5.52213 -10.5054 587.778 430.678
0.169155 -2.54065 -13.2186 588.614 441.183
-2.91824 0.617357 -6.09574 574.091 454.473
-1.25453 1.04487 -7.09234 580.536 456.311
0.503496 1.16405 -7.97098 587.402 457.049
2.14826 0.79576 -6.97303 593.504 456.516
3.63242 0.112052 -6.14751 599.135 454.678
-12.2251 -10.4044 -1.04998 540.804 411.304
-10.7426 -11.4205 -1.03024 546.739 407.942
-8.88527 -11.7009 -0.967032 553.862 407.506
-7.22634 -11.1146 -0.942517 559.977 410.278
-8.80029 -10.3757 -1.09864 553.815 412.514
-10.5535 -10.1541 -1.0516 547.077 412.797
5.05791 -11.9101 -0.641374 606.794 411.37
6.57349 -12.762 -0.916572 612.88 408.546
8.43701 -12.8251 -0.989592 619.995 408.891
10.0768 -12.094 -0.946116 625.988 412.212
8.49766 -11.5379 -0.874931 619.804 413.828
6.7342 -11.4914 -0.820328 613.078 413.446
-5.04397 9.40828 -2.87832 562.509 488.153
-3.48674 7.65316 -4.91416 569.483 481.343
-1.51434 6.30645 -6.53971 577.803 476.351
0.81049 6.37683 -8.23566 587.048 476.823
3.07565 5.99564 -6.38147 595.288 476.722
5.15845 7.03668 -4.7466 602.459 481.882
6.84313 8.55389 -2.60654 607.843 488.882
5.32463 10.038 -3.99031 601.981 493.561
3.32908 10.9621 -5.10164 594.407 496.049
1.04459 11.3362 -6.5395 585.988 496.252
-1.21171 11.2258 -5.25823 577.122 495.515
-3.29299 10.6144 -4.06589 569.097 492.908
-0.974312 8.32179 -5.06684 578.86 484.648
0.920601 8.16483 -7.16737 586.645 483.985
2.75102 8.09563 -4.90779 593.035 485.058
2.72126 8.46307 -4.46036 592.695 486.587
0.930794 8.79121 -6.16168 586.234 486.691
-0.907233 8.69601 -4.55545 578.869 486.255
3 20 21 23
3 21 22 23
3 0 1 36
3 15 16 45
3 0 17 36
3 16 26 45
3 17 18 37
3 25 26 44
3 17 36 37
3 26 44 45
3 18 19 38
3 24 25 43
3 18 37 38
3 25 43 44
3 19 20 38
3 23 24 43
3 20 21 39
3 22 23 42
3 20 38 39
3 23 42 43
3 21 22 27
3 21 27 39
3 22 27 42
3 27 28 42
3 27 28 39
3 28 42 47
3 28 39 40
3 1 36 41
3 15 45 46
3 1 2 41
3 14 15 46
3 28 29 40
3 28 29 47
3 2 40 41
3 14 46 47
3 2 29 40
3 14 29 47
3 2 3 29
3 13 14 29
3 29 30 31
3 29 30 35
3 3 29 31
3 13 29 35
3 30 32 33
3 30 33 34
3 30 31 32
3 30 34 35
3 3 4 31
3 12 13 35
3 4 5 48
3 11 12 54
3 5 6 48
3 10 11 54
3 6 48 59
3 10 54 55
3 6 7 59
3 9 10 55
3 7 58 59
3 9 55 56
3 8 57 58
3 8 56 57
3 7 8 58
3 8 9 56
3 4 31 48
3 12 35 54
3 31 48 49
3 35 53 54
3 31 49 50
3 35 52 53
3 31 32 50
3 34 35 52
3 32 33 50
3 33 34 52
3 33 50 51
3 33 51 52
3 48 49 60
3 49 60 50
3 50 60 61
3 50 51 61
3 51 52 61
3 61 62 52
3 52 53 62
3 53 54 62
3 54 55 63
3 55 56 63
3 56 63 64
3 56 57 64
3 64 65 57
3 57 58 65
3 58 59 65
3 48 59 65
