ply
format ascii 1.0
element vertex 66
property float x
property float y
property float z
property float u
property float v
element face 91
property list uchar int vertex_indices
end_header
-20.0772 -5.79341 21.1327 504.014 433.987
-19.4016 -0.684548 20.5914 505.401 453.64
-18.4393 4.38026 20.1408 507.884 473.248
-17.1897 9.41425 18.1385 511.93 492.173
-15.3281 14.2666 13.4281 519.168 509.447
-12.3581 18.4513 7.87108 531.113 524.128
-8.50334 21.7949 3.19263 546.454 536.202
-4.02326 24.1761 -1.02861 564.342 544.949
0.974577 24.9337 -4.61831 584.488 547.862
6.14171 23.8008 -0.912335 603.707 546.602
10.4932 20.8313 3.3698 620.103 538.265
14.0822 16.9174 7.95897 633.719 526.189
16.8129 12.3466 13.4426 643.937 511.701
18.3532 7.2533 18.2205 649.896 494.548
19.0724 2.04318 20.3369 653.476 475.583
19.3685 -3.16854 20.8392 655.884 455.809
19.2936 -8.39846 21.1612 656.914 435.777
-15.7417 -15.5657 0.0760035 529.451 388.825
-13.4839 -16.8121 -1.53032 538.976 384.029
-10.944 -17.3222 -2.90939 549.328 382.249
-8.34406 -17.3256 -4.24842 559.764 382.455
-5.78686 -16.8208 -5.44151 569.856 384.666
2.5967 -17.2501 -5.4111 602.374 385.541
5.10141 -18.1909 -4.16909 611.955 383.189
7.75123 -18.6073 -2.8249 621.926 382.944
10.4373 -18.5087 -1.40738 631.877 384.723
12.9544 -17.6024 0.247892 640.888 389.662
-0.755684 -11.4412 -4.85749 587.687 407.14
-0.47782 -8.29719 -7.6711 588.719 418.155
-0.210272 -5.1707 -10.5974 589.749 429.051
0.053723 -2.06049 -13.3418 590.717 439.959
-3.07859 1.01277 -6.21945 575.735 453.841
-1.34898 1.45789 -7.16898 582.574 455.676
0.468048 1.59512 -8.03239 589.809 456.388
2.18682 1.18745 -7.07958 596.291 455.733
3.75314 0.459449 -6.35214 602.334 453.704
-12.0844 -10.4117 -0.940168 542.49 409.348
-10.6059 -11.4515 -1.07138 548.524 405.732
-8.75331 -11.6912 -1.08495 555.754 405.359
-7.09042 -11.0403 -1.00411 561.984 408.399
-8.68712 -10.4238 -1.06424 555.662 410.269
-10.4153 -10.2175 -1.01331 548.911 410.566
4.99267 -11.844 -0.766223 608.845 409.028
6.49426 -12.7476 -1.07879 614.984 405.867
8.33659 -12.8446 -1.01518 622.114 406.073
9.97608 -12.1027 -0.758481 628.178 409.53
8.39864 -11.6 -0.809432 621.959 410.972
6.66446 -11.5442 -0.787394 615.233 410.676
-6.07139 9.22492 -2.80242 560.969 486.005
-4.25341 7.27208 -4.94836 569.139 478.13
-1.88472 5.89181 -6.55332 579.129 472.852
0.857214 5.92234 -8.17371 590.186 473.113
3.5488 5.4941 -6.34605 600.183 473.037
6.05321 6.47281 -4.73887 609.14 478.231
8.05947 8.11385 -2.52601 615.818 486.081
6.18293 9.76266 -3.90423 608.514 491.291
3.79052 10.7604 -4.91039 599.284 493.995
1.17503 11.1648 -6.36741 589.481 494.157
-1.41399 11.1125 -5.07862 579.117 493.719
-3.91912 10.5343 -3.95861 569.267 491.209
-1.56004 8.06416 -5.10937 579.384 481.921
1.01062 7.91905 -7.19018 589.958 481.261
3.52587 7.69822 -4.98773 599.11 482.088
3.5117 8.16115 -4.50287 598.791 484.07
1.03599 8.5125 -6.26462 589.63 483.943
-1.47261 8.53579 -4.56991 579.44 483.99
3 20 21 23
3 21 22 23
3 0 1 36
3 15 16 45
3 0 17 36
3 16 26 45
3 17 18 37
3 25 26 44
3 17 36 37
3 26 44 45
3 18 19 38
3 24 25 43
3 18 37 38
3 25 43 44
3 19 20 38
3 23 24 43
3 20 21 39
3 22 23 42
3 20 38 39
3 23 42 43
3 21 22 27
3 21 27 39
3 22 27 42
3 27 28 42
3 27 28 39
3 28 42 47
3 28 39 40
3 1 36 41
3 15 45 46
3 1 2 41
3 14 15 46
3 28 29 40
3 28 29 47
3 2 40 41
3 14 46 47
3 2 29 40
3 14 29 47
3 2 3 29
3 13 14 29
3 29 30 31
3 29 30 35
3 3 29 31
3 13 29 35
3 30 32 33
3 30 33 34
3 30 31 32
3 30 34 35
3 3 4 31
3 12 13 35
3 4 5 48
3 11 12 54
3 5 6 48
3 10 11 54
3 6 48 59
3 10 54 55
3 6 7 59
3 9 10 55
3 7 58 59
3 9 55 56
3 8 57 58
3 8 56 57
3 7 8 58
3 8 9 56
3 4 31 48
3 12 35 54
3 31 48 49
3 35 53 54
3 31 49 50
3 35 52 53
3 31 32 50
3 34 35 52
3 32 33 50
3 33 34 52
3 33 50 51
3 33 51 52
3 48 49 60
3 49 60 50
3 50 60 61
3 50 51 61
3 51 52 61
3 61 62 52
3 52 53 62
3 53 54 62
3 54 55 63
3 55 56 63
3 56 63 64
3 56 57 64
3 64 65 57
3 57 58 65
3 58 59 65
3 48 59 65
