ply
format ascii 1.0
element vertex 66
property float x
property float y
property float z
property float u
property float v
element face 91
property list uchar int vertex_indices
end_header
-20.2093 -5.65353 21.0234 502.981 435.239
-19.5881 -0.548602 20.4693 503.866 454.647
-18.6635 4.5193 20.0938 505.874 474.087
-17.3136 9.4506 18.1172 509.958 492.527
-15.2744 14.0606 13.4457 517.464 508.926
-12.2591 18.0429 7.88994 529.121 522.928
-8.42381 21.277 3.15889 543.936 534.69
-3.98826 23.68 -1.00638 561.161 543.72
1.03806 24.4073 -4.59578 581.028 546.808
6.25422 23.3652 -0.878889 600.315 546.097
10.6417 20.5079 3.2939 616.902 538.378
14.2592 16.745 7.95351 630.716 527.141
16.978 12.3157 13.4689 641.094 513.397
18.538 7.32919 18.246 647.416 496.846
19.2425 2.07734 20.2721 651.261 477.913
19.4357 -3.25111 20.7147 653.584 457.893
19.2597 -8.58138 21.1345 654.505 437.729
-15.6199 -15.5309 0.0727631 529.002 391.048
-13.4339 -16.8488 -1.45958 538.156 386.188
-10.9241 -17.3633 -2.84469 548.252 384.552
-8.37077 -17.3227 -4.24027 558.34 385.038
-5.88786 -16.7662 -5.48578 567.956 387.52
2.91592 -17.3378 -5.4099 601.715 388.405
5.32558 -18.2894 -4.13735 610.889 386.115
7.89166 -18.7158 -2.75551 620.464 385.918
10.506 -18.583 -1.34482 630.038 387.875
12.922 -17.595 0.248729 638.535 393.088
-0.706457 -11.3892 -4.8637 585.855 409.992
-0.391224 -8.38864 -7.66302 586.817 420.412
-0.0870786 -5.40324 -10.5319 587.759 430.744
0.205824 -2.42834 -13.222 588.616 441.101
-2.8962 0.670959 -6.133 573.977 454.598
-1.23815 1.08039 -7.11262 580.424 456.341
0.508401 1.19055 -7.96414 587.272 457.027
2.15153 0.826185 -7.00198 593.413 456.584
3.64313 0.154475 -6.18801 599.111 454.862
-12.2676 -10.4476 -1.02365 540.454 411.1
-10.7506 -11.4065 -0.996147 546.542 407.987
-8.89863 -11.6846 -0.95589 553.688 407.582
-7.2324 -11.1535 -0.969059 559.88 410.17
-8.82985 -10.4818 -1.09528 553.602 412.125
-10.586 -10.2608 -1.0466 546.818 412.38
5.04269 -11.9616 -0.645521 606.899 411.447
6.57808 -12.7774 -0.896409 613.082 408.775
8.44364 -12.8414 -0.953793 620.236 409.151
10.1219 -12.1829 -0.921238 626.422 412.245
8.51881 -11.6818 -0.866473 620.131 413.62
6.74518 -11.6216 -0.806646 613.328 413.262
-5.15868 9.29437 -2.85457 561.755 487.894
-3.55675 7.57663 -4.8972 568.938 481.113
-1.53723 6.2857 -6.52597 577.473 476.26
0.810717 6.34898 -8.26239 586.857 476.628
3.09846 5.97316 -6.3897 595.228 476.72
5.22542 6.95815 -4.75035 602.612 481.84
6.96252 8.42445 -2.60151 608.224 488.855
5.46552 10.0814 -4.01007 602.343 494.089
3.43511 11.1612 -5.10245 594.529 497.068
1.05124 11.5883 -6.52747 585.66 497.313
-1.30626 11.4376 -5.2366 576.382 496.435
-3.42667 10.6726 -4.06123 568.233 493.257
-1.21212 8.25565 -5.065 577.712 484.435
0.907813 8.07374 -7.23622 586.415 483.622
2.9619 7.99552 -4.93503 593.69 484.933
2.97561 8.6605 -4.46496 593.41 487.651
0.938323 9.08269 -6.14066 585.93 487.898
-1.15652 8.92721 -4.52584 577.572 487.219
3 20 21 23
3 21 22 23
3 0 1 36
3 15 16 45
3 0 17 36
3 16 26 45
3 17 18 37
3 25 26 44
3 17 36 37
3 26 44 45
3 18 19 38
3 24 25 43
3 18 37 38
3 25 43 44
3 19 20 38
3 23 24 43
3 20 21 39
3 22 23 42
3 20 38 39
3 23 42 43
3 21 22 27
3 21 27 39
3 22 27 42
3 27 28 42
3 27 28 39
3 28 42 47
3 28 39 40
3 1 36 41
3 15 45 46
3 1 2 41
3 14 15 46
3 28 29 40
3 28 29 47
3 2 40 41
3 14 46 47
3 2 29 40
3 14 29 47
3 2 3 29
3 13 14 29
3 29 30 31
3 29 30 35
3 3 29 31
3 13 29 35
3 30 32 33
3 30 33 34
3 30 31 32
3 30 34 35
3 3 4 31
3 12 13 35
3 4 5 48
3 11 12 54
3 5 6 48
3 10 11 54
3 6 48 59
3 10 54 55
3 6 7 59
3 9 10 55
3 7 58 59
3 9 55 56
3 8 57 58
3 8 56 57
3 7 8 58
3 8 9 56
3 4 31 48
3 12 35 54
3 31 48 49
3 35 53 54
3 31 49 50
3 35 52 53
3 31 32 50
3 34 35 52
3 32 33 50
3 33 34 52
3 33 50 51
3 33 51 52
3 48 49 60
3 49 60 50
3 50 60 61
3 50 51 61
3 51 52 61
3 61 62 52
3 52 53 62
3 53 54 62
3 54 55 63
3 55 56 63
3 56 63 64
3 56 57 64
3 64 65 57
3 57 58 65
3 58 59 65
3 48 59 65
