ply
format ascii 1.0
element vertex 66
property float x
property float y
property float z
property float u
property float v
element face 91
property list uchar int vertex_indices
end_header
-19.6328 -5.67061 20.878 503.623 433.192
-18.9799 -0.553118 20.3633 504.402 453.4
-18.0277 4.51955 19.9328 506.358 473.575
-16.6567 9.48563 18.1187 510.314 493.077
-14.6676 14.1663 13.5102 517.44 510.857
-11.8361 18.3093 7.91217 528.306 526.555
-8.22351 21.8117 3.13019 542.3 540.285
-3.95414 24.4992 -1.00446 559.037 551.263
1.01268 25.3589 -4.60645 579.08 555.491
6.20808 24.137 -0.843118 599.135 553.844
10.403 20.921 3.27401 615.915 544.078
13.7652 16.8383 7.97494 629.609 530.758
16.3095 12.2244 13.5113 640.093 515.284
17.8801 7.18569 18.1812 647.097 497.5
18.6399 1.94776 20.0381 651.62 477.772
18.848 -3.32949 20.5098 654.299 457.258
18.6578 -8.61987 20.8792 655.438 436.507
-15.0576 -15.8041 0.0456869 530.112 388.886
-13.0271 -17.1091 -1.47398 538.934 384.091
-10.6371 -17.6564 -2.84803 548.855 382.457
-8.18123 -17.6593 -4.25846 558.841 382.977
-5.77571 -17.1579 -5.50957 568.405 385.508
2.95695 -17.7403 -5.45943 602.984 386.633
5.18932 -18.6013 -4.16863 611.8 384.507
7.56335 -18.9711 -2.75871 620.964 384.402
9.97531 -18.8602 -1.33759 630.095 386.204
12.1963 -17.9758 0.228132 638.155 391.015
-0.621804 -12.0164 -4.83533 586.624 407.92
-0.32748 -9.11977 -7.58185 587.323 418.591
-0.0446599 -6.23659 -10.3979 587.998 429.183
0.222291 -3.36901 -13.0995 588.591 439.742
-2.66175 0.273134 -5.99987 574.279 455.067
-1.09141 0.62347 -7.01416 580.558 456.75
0.563867 0.714924 -7.92089 587.244 457.481
2.08739 0.400676 -6.88642 593.124 457.15
3.46866 -0.180876 -6.02566 598.584 455.662
-11.7426 -10.8423 -1.08628 541.567 409.333
-10.3845 -11.8726 -0.997261 547.277 405.84
-8.61074 -12.1847 -0.910284 554.355 405.33
-7.04256 -11.6324 -0.895799 560.318 408.115
-8.49183 -10.7848 -1.07123 554.338 410.829
-10.1658 -10.5443 -1.01675 547.647 411.139
4.85724 -12.4068 -0.562923 607.371 409.804
6.2783 -13.2178 -0.830123 613.327 407.09
8.06335 -13.2574 -0.95313 620.395 407.592
9.58145 -12.4921 -1.0145 626.1 411.172
8.10993 -11.888 -0.850468 620.045 413.022
6.4254 -11.8666 -0.787012 613.393 412.47
-4.53903 9.7219 -2.82691 562.652 492.42
-3.06664 8.17176 -4.87668 569.488 486.285
-1.29083 6.85804 -6.53785 577.343 481.314
0.839454 6.97496 -8.24915 586.071 482.088
2.89477 6.5948 -6.3944 593.883 481.952
4.74496 7.65744 -4.71925 600.392 487.352
6.2655 9.01618 -2.5589 605.383 493.933
5.00081 10.5899 -4.0944 600.165 499.163
3.21552 11.6441 -5.18833 592.992 502.281
1.0317 12.09 -6.59466 584.548 502.76
-1.13035 11.8618 -5.33108 575.838 501.402
-3.01974 11.0652 -4.14636 568.43 497.893
-0.733159 8.81083 -4.9776 578.458 489.674
0.927866 8.66866 -7.13411 585.536 489.113
2.50088 8.65123 -4.78847 591.204 490.363
2.48726 9.07609 -4.42055 590.909 492.138
0.941081 9.50086 -6.11246 585.047 492.696
-0.686255 9.25033 -4.53064 578.378 491.554
3 20 21 23
3 21 22 23
3 0 1 36
3 15 16 45
3 0 17 36
3 16 26 45
3 17 18 37
3 25 26 44
3 17 36 37
3 26 44 45
3 18 19 38
3 24 25 43
3 18 37 38
3 25 43 44
3 19 20 38
3 23 24 43
3 20 21 39
3 22 23 42
3 20 38 39
3 23 42 43
3 21 22 27
3 21 27 39
3 22 27 42
3 27 28 42
3 27 28 39
3 28 42 47
3 28 39 40
3 1 36 41
3 15 45 46
3 1 2 41
3 14 15 46
3 28 29 40
3 28 29 47
3 2 40 41
3 14 46 47
3 2 29 40
3 14 29 47
3 2 3 29
3 13 14 29
3 29 30 31
3 29 30 35
3 3 29 31
3 13 29 35
3 30 32 33
3 30 33 34
3 30 31 32
3 30 34 35
3 3 4 31
3 12 13 35
3 4 5 48
3 11 12 54
3 5 6 48
3 10 11 54
3 6 48 59
3 10 54 55
3 6 7 59
3 9 10 55
3 7 58 59
3 9 55 56
3 8 57 58
3 8 56 57
3 7 8 58
3 8 9 56
3 4 31 48
3 12 35 54
3 31 48 49
3 35 53 54
3 31 49 50
3 35 52 53
3 31 32 50
3 34 35 52
3 32 33 50
3 33 34 52
3 33 50 51
3 33 51 52
3 48 49 60
3 49 60 50
3 50 60 61
3 50 51 61
3 51 52 61
3 61 62 52
3 52 53 62
3 53 54 62
3 54 55 63
3 55 56 63
3 56 63 64
3 56 57 64
3 64 65 57
3 57 58 65
3 58 59 65
3 48 59 65
