ply
format ascii 1.0
element vertex 66
property float x
property float y
property float z
property float u
property float v
element face 91
property list uchar int vertex_indices
end_header
-19.2395 -5.86127 20.9279 504.672 431.348
-18.6023 -0.767084 20.4282 505.508 451.951
-17.7073 4.28302 19.9478 507.394 472.48
-16.4248 9.29072 18.0472 511.201 492.569
-14.508 14.1232 13.6034 518.242 511.448
-11.7075 18.4112 7.94843 529.336 528.115
-8.11471 22.0155 3.05438 543.689 542.556
-3.88022 24.8192 -1.02465 560.722 554.258
1.05122 25.7768 -4.66029 581.129 558.924
6.15543 24.4603 -0.92104 601.277 556.667
10.2591 21.1246 3.18359 618.038 546.009
13.5683 16.9648 8.00908 631.723 531.941
16.0707 12.2516 13.6194 642.168 515.57
17.5899 7.10916 18.1196 649.075 496.769
18.2921 1.8733 20.1089 653.329 476.544
18.4762 -3.35156 20.6309 655.846 455.735
18.3079 -8.59602 20.9607 656.996 434.656
-14.8754 -15.6192 0.0502058 530.86 387.599
-12.8901 -16.9119 -1.47039 539.7 382.705
-10.5366 -17.508 -2.88286 549.744 380.787
-8.0902 -17.5757 -4.28447 559.968 381.036
-5.67896 -17.1254 -5.51938 569.821 383.404
2.63685 -17.5945 -5.51741 603.508 384.685
4.92544 -18.4481 -4.22122 612.73 382.502
7.35252 -18.7829 -2.80338 622.292 382.495
9.79671 -18.6343 -1.33819 631.735 384.454
12.0309 -17.7471 0.211243 640.042 389.332
-0.678028 -11.9733 -4.8973 587.952 406.232
-0.402756 -9.15465 -7.57675 588.684 416.897
-0.138508 -6.35241 -10.3812 589.407 427.454
0.114963 -3.57487 -13.1548 590.089 437.917
-2.91141 -0.138957 -5.98862 574.908 452.7
-1.25129 0.20633 -7.00023 581.719 454.425
0.479555 0.300373 -7.94289 588.888 455.186
2.08912 -0.0392197 -6.9267 595.254 454.731
3.58014 -0.639666 -6.08152 601.278 453.13
-11.5374 -10.6154 -1.05229 542.76 408.69
-10.1763 -11.5614 -1.01441 548.581 405.411
-8.4465 -11.8622 -1.00616 555.66 404.862
-6.86833 -11.4425 -0.943274 561.853 407.171
-8.32397 -10.713 -1.03857 555.744 409.525
-9.95911 -10.4609 -1.00886 549.054 409.926
4.77544 -12.2127 -0.67885 609 408.585
6.22693 -12.885 -0.965386 615.164 406.348
7.96316 -12.9153 -0.973009 622.175 406.885
9.47331 -12.2403 -0.949684 628.011 410.185
7.97842 -11.7848 -0.84994 621.796 411.478
6.32944 -11.7817 -0.784806 615.133 410.881
-5.88122 9.30414 -2.74161 558.718 490.535
-4.05119 7.65982 -4.76536 567.181 484.019
-1.79498 6.36384 -6.4369 577.15 479.171
0.834639 6.40024 -8.1391 588.148 479.819
3.39318 6.01281 -6.29559 598.155 479.776
5.7356 6.9707 -4.60691 606.84 485.02
7.65639 8.34736 -2.49931 613.571 491.913
6.15565 10.5191 -4.13069 607.126 499.604
3.94306 12.0662 -5.18725 597.901 504.679
1.15431 12.7162 -6.587 586.763 505.822
-1.64629 12.402 -5.30528 575.279 503.866
-4.03716 11.2038 -4.15038 565.799 498.471
-1.83118 8.22731 -4.9574 575.969 487.093
0.929017 7.99999 -7.27675 587.737 486.548
3.61004 7.88047 -4.82818 597.995 487.808
3.78153 9.53843 -4.42203 597.985 494.667
1.0603 10.3378 -6.17739 587.15 496.332
-1.78123 9.91115 -4.48525 575.443 494.029
3 20 21 23
3 21 22 23
3 0 1 36
3 15 16 45
3 0 17 36
3 16 26 45
3 17 18 37
3 25 26 44
3 17 36 37
3 26 44 45
3 18 19 38
3 24 25 43
3 18 37 38
3 25 43 44
3 19 20 38
3 23 24 43
3 20 21 39
3 22 23 42
3 20 38 39
3 23 42 43
3 21 22 27
3 21 27 39
3 22 27 42
3 27 28 42
3 27 28 39
3 28 42 47
3 28 39 40
3 1 36 41
3 15 45 46
3 1 2 41
3 14 15 46
3 28 29 40
3 28 29 47
3 2 40 41
3 14 46 47
3 2 29 40
3 14 29 47
3 2 3 29
3 13 14 29
3 29 30 31
3 29 30 35
3 3 29 31
3 13 29 35
3 30 32 33
3 30 33 34
3 30 31 32
3 30 34 35
3 3 4 31
3 12 13 35
3 4 5 48
3 11 12 54
3 5 6 48
3 10 11 54
3 6 48 59
3 10 54 55
3 6 7 59
3 9 10 55
3 7 58 59
3 9 55 56
3 8 57 58
3 8 56 57
3 7 8 58
3 8 9 56
3 4 31 48
3 12 35 54
3 31 48 49
3 35 53 54
3 31 49 50
3 35 52 53
3 31 32 50
3 34 35 52
3 32 33 50
3 33 34 52
3 33 50 51
3 33 51 52
3 48 49 60
3 49 60 50
3 50 60 61
3 50 51 61
3 51 52 61
3 61 62 52
3 52 53 62
3 53 54 62
3 54 55 63
3 55 56 63
3 56 63 64
3 56 57 64
3 64 65 57
3 57 58 65
3 58 59 65
3 48 59 65
