ply
format ascii 1.0
element vertex 66
property float x
property float y
property float z
property float u
property float v
element face 91
property list uchar int vertex_indices
end_header
-20.5753 -5.81584 21.1545 502.089 435.585
-19.9532 -0.623932 20.5704 503.226 455.007
-19.0352 4.53346 20.1605 505.433 474.447
-17.6947 9.59838 18.1916 509.692 493.112
-15.66 14.3613 13.396 517.438 509.848
-12.5711 18.4049 7.78678 529.56 523.907
-8.61992 21.59 3.13898 544.872 535.338
-4.07265 23.85 -1.00695 562.522 543.654
0.971563 24.5581 -4.6738 582.31 546.468
6.22303 23.4108 -0.834535 601.237 545.044
10.67 20.492 3.33004 617.517 536.865
14.35 16.6431 7.89265 631.049 525.122
17.1614 12.1212 13.4218 641.224 510.947
18.8457 7.07721 18.2353 647.507 494.239
19.628 1.85548 20.2787 651.237 475.626
19.8349 -3.39592 20.7031 653.273 456.165
19.6435 -8.65154 21.0976 653.824 436.561
-15.9108 -15.4123 0.104628 528.087 393.551
-13.7282 -16.8833 -1.48316 537.116 388.111
-11.13 -17.4878 -2.83826 547.412 386.119
-8.44927 -17.4184 -4.19383 557.841 386.674
-5.83745 -16.7759 -5.40133 567.818 389.409
2.95327 -17.2438 -5.37689 600.933 390.205
5.39821 -18.2704 -4.1194 610.024 387.509
8.01737 -18.7385 -2.7535 619.592 386.995
10.6736 -18.5815 -1.34846 629.123 388.846
13.0774 -17.5167 0.280218 637.405 394.105
-0.59687 -11.1364 -4.85311 585.853 412.242
-0.333407 -8.13019 -7.69929 586.859 422.574
-0.0822214 -5.13129 -10.5751 587.829 432.865
0.159582 -2.14415 -13.2483 588.709 443.18
-3.01648 0.792072 -6.17729 574.011 455.759
-1.29211 1.29112 -7.13581 580.625 457.788
0.538009 1.4517 -7.98325 587.693 458.619
2.24115 1.04396 -7.00728 593.916 457.928
3.76733 0.290413 -6.22088 599.621 455.824
-12.2883 -10.1259 -1.08166 540.631 413.982
-10.7669 -11.0794 -1.08374 546.594 410.849
-8.90446 -11.3709 -1.01033 553.641 410.321
-7.20225 -10.8524 -0.926993 559.871 412.784
-8.81044 -10.1357 -1.09133 553.692 414.946
-10.5813 -9.92506 -1.06568 546.982 415.233
5.20544 -11.6349 -0.679584 606.582 413.524
6.76375 -12.3911 -0.962285 612.71 411.042
8.61898 -12.4381 -1.02094 619.704 411.381
10.2664 -11.7584 -0.942494 625.687 414.431
8.65389 -11.2579 -0.883514 619.486 415.861
6.88771 -11.218 -0.832019 612.831 415.518
-5.13958 8.97063 -2.82688 562.943 486.965
-3.53997 7.30491 -4.92373 569.98 480.447
-1.51757 6.09002 -6.55547 578.353 475.904
0.810946 6.19638 -8.23932 587.543 476.381
3.07512 5.78821 -6.34849 595.614 476.173
5.17538 6.69496 -4.71297 602.796 480.754
6.86365 8.13748 -2.54987 608.141 487.41
5.3326 9.62438 -3.91461 602.39 492.055
3.33321 10.5615 -5.04708 594.959 494.588
1.04459 10.9509 -6.57161 586.698 494.847
-1.22861 10.8197 -5.23349 577.82 494.172
-3.34168 10.1944 -3.99903 569.703 491.655
-1.01492 7.98586 -5.10272 579.33 483.664
0.925836 7.90739 -7.16465 587.22 483.203
2.79645 7.76367 -4.90636 593.64 484.002
2.80566 8.1907 -4.41969 593.424 485.776
0.949279 8.56994 -6.16271 586.85 486.045
-0.963394 8.42953 -4.55302 579.251 485.535
3 20 21 23
3 21 22 23
3 0 1 36
3 15 16 45
3 0 17 36
3 16 26 45
3 17 18 37
3 25 26 44
3 17 36 37
3 26 44 45
3 18 19 38
3 24 25 43
3 18 37 38
3 25 43 44
3 19 20 38
3 23 24 43
3 20 21 39
3 22 23 42
3 20 38 39
3 23 42 43
3 21 22 27
3 21 27 39
3 22 27 42
3 27 28 42
3 27 28 39
3 28 42 47
3 28 39 40
3 1 36 41
3 15 45 46
3 1 2 41
3 14 15 46
3 28 29 40
3 28 29 47
3 2 40 41
3 14 46 47
3 2 29 40
3 14 29 47
3 2 3 29
3 13 14 29
3 29 30 31
3 29 30 35
3 3 29 31
3 13 29 35
3 30 32 33
3 30 33 34
3 30 31 32
3 30 34 35
3 3 4 31
3 12 13 35
3 4 5 48
3 11 12 54
3 5 6 48
3 10 11 54
3 6 48 59
3 10 54 55
3 6 7 59
3 9 10 55
3 7 58 59
3 9 55 56
3 8 57 58
3 8 56 57
3 7 8 58
3 8 9 56
3 4 31 48
3 12 35 54
3 31 48 49
3 35 53 54
3 31 49 50
3 35 52 53
3 31 32 50
3 34 35 52
3 32 33 50
3 33 34 52
3 33 50 51
3 33 51 52
3 48 49 60
3 49 60 50
3 50 60 61
3 50 51 61
3 51 52 61
3 61 62 52
3 52 53 62
3 53 54 62
3 54 55 63
3 55 56 63
3 56 63 64
3 56 57 64
3 64 65 57
3 57 58 65
3 58 59 65
3 48 59 65
