ply
format ascii 1.0
element vertex 66
property float x
property float y
property float z
property float u
property float v
element face 91
property list uchar int vertex_indices
end_header
-20.3313 -5.4501 20.8535 503.392 433.864
-19.6725 -0.363787 20.3018 504.285 453.259
-18.6546 4.67753 19.9404 506.54 472.674
-17.1364 9.56077 18.1696 510.948 491.159
-14.949 14.0903 13.3478 518.438 507.443
-11.9784 18.132 7.84373 529.176 521.897
-8.27701 21.5874 3.20241 542.788 534.678
-3.88943 24.1699 -0.963837 559.251 544.542
1.18525 24.9462 -4.58194 578.87 547.961
6.44081 23.8156 -0.819193 598.835 546.809
10.772 20.8229 3.30998 615.84 538.378
14.231 16.8698 7.90907 629.769 526.158
16.8082 12.3289 13.4081 640.404 511.716
18.3648 7.30422 18.3374 647.376 494.877
19.1521 1.96266 20.1118 651.933 475.444
19.3946 -3.46042 20.5584 654.612 455.041
19.2223 -8.88269 21.0512 655.699 434.514
-15.4922 -15.5225 0.106098 528.015 389.807
-13.4051 -17.0184 -1.49938 536.706 384.261
-10.8908 -17.6444 -2.83132 546.703 382.272
-8.29748 -17.6086 -4.21592 556.788 382.811
-5.78447 -17.0067 -5.45846 566.358 385.527
3.09157 -17.7244 -5.33874 600.508 385.9
5.47862 -18.7297 -4.08161 609.801 383.343
8.03293 -19.169 -2.70576 619.528 383.042
10.6203 -18.9577 -1.34532 629.166 385.223
12.945 -17.841 0.286051 637.461 390.857
-0.686231 -11.6552 -4.79397 583.969 407.896
-0.350598 -8.56578 -7.67373 584.604 418.749
-0.0227308 -5.48125 -10.5111 585.204 429.596
0.288283 -2.4007 -13.0928 585.708 440.513
-2.7479 0.8321 -6.18957 572.104 454.228
-1.17866 1.29201 -7.09043 578.068 456.2
0.504008 1.42289 -7.85449 584.558 457.007
2.09629 1.05536 -6.95274 590.647 456.478
3.50583 0.362423 -6.14447 596.159 454.614
-12.0809 -10.5217 -1.13846 539.55 409.58
-10.5589 -11.517 -1.05901 545.689 406.345
-8.66895 -11.8328 -0.926022 553.001 405.842
-6.9699 -11.3264 -0.898096 559.322 408.366
-8.57108 -10.5373 -1.10397 552.966 410.744
-10.3697 -10.2857 -1.05682 546.001 411.098
4.91798 -12.1635 -0.529064 604.992 409.412
6.50105 -12.9884 -0.791961 611.353 406.724
8.42822 -13.0209 -0.988674 618.757 407.195
10.1233 -12.3189 -1.08241 625.014 410.419
8.48582 -11.7616 -0.889139 618.543 412.045
6.65828 -11.708 -0.822701 611.531 411.642
-3.75371 9.4525 -2.79961 564.929 487.905
-2.66499 7.79958 -4.91467 569.924 481.236
-1.16416 6.50791 -6.54644 576.309 476.256
0.693838 6.63969 -8.29497 583.6 476.777
2.49563 6.2849 -6.47153 590.363 476.696
4.09321 7.38762 -4.81708 595.881 482.034
5.29516 8.88742 -2.57559 599.676 488.956
4.16692 10.1509 -3.97315 595.127 492.88
2.66814 10.9955 -5.16063 589.274 495.156
0.82963 11.3565 -6.62479 582.321 495.375
-0.96472 11.1665 -5.26197 575.345 494.517
-2.501 10.5175 -4.01261 569.523 491.961
-0.388584 8.4468 -4.95991 578.415 484.469
0.755837 8.30778 -7.0864 583.119 483.579
1.83285 8.35626 -4.82347 586.918 484.94
1.74526 8.52848 -4.41557 586.472 485.71
0.726026 8.82766 -6.08583 582.698 485.903
-0.345013 8.6181 -4.48216 578.461 485.306
3 20 21 23
3 21 22 23
3 0 1 36
3 15 16 45
3 0 17 36
3 16 26 45
3 17 18 37
3 25 26 44
3 17 36 37
3 26 44 45
3 18 19 38
3 24 25 43
3 18 37 38
3 25 43 44
3 19 20 38
3 23 24 43
3 20 21 39
3 22 23 42
3 20 38 39
3 23 42 43
3 21 22 27
3 21 27 39
3 22 27 42
3 27 28 42
3 27 28 39
3 28 42 47
3 28 39 40
3 1 36 41
3 15 45 46
3 1 2 41
3 14 15 46
3 28 29 40
3 28 29 47
3 2 40 41
3 14 46 47
3 2 29 40
3 14 29 47
3 2 3 29
3 13 14 29
3 29 30 31
3 29 30 35
3 3 29 31
3 13 29 35
3 30 32 33
3 30 33 34
3 30 31 32
3 30 34 35
3 3 4 31
3 12 13 35
3 4 5 48
3 11 12 54
3 5 6 48
3 10 11 54
3 6 48 59
3 10 54 55
3 6 7 59
3 9 10 55
3 7 58 59
3 9 55 56
3 8 57 58
3 8 56 57
3 7 8 58
3 8 9 56
3 4 31 48
3 12 35 54
3 31 48 49
3 35 53 54
3 31 49 50
3 35 52 53
3 31 32 50
3 34 35 52
3 32 33 50
3 33 34 52
3 33 50 51
3 33 51 52
3 48 49 60
3 49 60 50
3 50 60 61
3 50 51 61
3 51 52 61
3 61 62 52
3 52 53 62
3 53 54 62
3 54 55 63
3 55 56 63
3 56 63 64
3 56 57 64
3 64 65 57
3 57 58 65
3 58 59 65
3 48 59 65
