ply
format ascii 1.0
element vertex 66
property float x
property float y
property float z
property float u
property float v
element face 91
property list uchar int vertex_indices
end_header
-20.4993 -5.94428 21.0886 503.691 434.55
-19.9285 -0.781726 20.5463 504.377 453.708
-19.0532 4.34629 20.1558 506.167 472.895
-17.7293 9.40528 18.191 510.059 491.401
-15.6998 14.2303 13.4165 517.38 508.25
-12.6136 18.3873 7.7964 529.061 522.661
-8.637 21.6734 3.18143 544.062 534.499
-4.03778 24.0025 -0.951839 561.549 543.165
1.06962 24.7417 -4.69858 581.314 546.237
6.32299 23.6136 -0.865901 600.223 545.179
10.8197 20.7545 3.2955 616.76 537.564
14.5502 16.9301 7.85306 630.635 526.255
17.3306 12.3523 13.442 640.935 512.21
18.9013 7.19538 18.2959 647.1 495.348
19.605 1.86177 20.3487 650.819 476.525
19.7656 -3.48526 20.8162 652.933 456.896
19.5531 -8.83724 21.2107 653.678 437.099
-15.8967 -15.1667 0.108435 529.11 394.206
-13.7628 -16.7993 -1.53744 537.984 388.252
-11.1265 -17.5215 -2.89095 548.373 385.951
-8.3697 -17.4932 -4.22384 558.976 386.483
-5.68354 -16.8481 -5.42123 569.092 389.331
2.70678 -17.393 -5.33396 600.477 390.115
5.27025 -18.5029 -4.09376 610.039 387.292
8.01843 -18.9928 -2.75283 620.073 386.87
10.7872 -18.7499 -1.3604 629.945 389.193
13.2332 -17.525 0.303543 638.245 395.155
-0.694831 -11.1439 -4.90157 585.785 412.348
-0.411929 -8.22035 -7.70131 586.672 422.278
-0.135941 -5.30317 -10.5361 587.544 432.169
0.131803 -2.40041 -13.2061 588.346 442.064
-3.03989 0.668518 -6.14812 573.761 454.975
-1.34417 1.13255 -7.09423 580.179 456.914
0.449947 1.26762 -7.96796 587.045 457.692
2.15437 0.869204 -6.99063 593.259 457.131
3.69408 0.138321 -6.20483 599.012 455.213
-11.9473 -9.82546 -1.14033 542.505 414.889
-10.4849 -10.7354 -1.16549 548.235 411.985
-8.69611 -11.032 -1.07269 554.962 411.509
-7.01688 -10.6357 -0.944292 561.06 413.582
-8.56257 -9.91777 -1.10732 555.128 415.677
-10.2721 -9.68166 -1.09107 548.686 415.994
5.07745 -11.4879 -0.642834 606.275 414.527
6.6418 -12.1753 -0.990102 612.401 412.367
8.44868 -12.214 -1.07785 619.163 412.788
10.0683 -11.5978 -0.988893 624.982 415.644
8.46663 -11.1322 -0.887449 618.849 416.88
6.73569 -11.0865 -0.818889 612.373 416.502
-5.3031 8.98574 -2.80213 561.917 486.322
-3.69885 7.24559 -4.90503 568.97 479.627
-1.64208 5.96631 -6.52213 577.441 474.97
0.764917 6.04671 -8.14664 586.801 475.474
3.11477 5.63273 -6.38194 595.218 475.356
5.27937 6.5936 -4.75505 602.561 480.23
7.02825 8.07573 -2.56734 608.049 487.106
5.40913 9.57411 -3.93397 601.918 491.637
3.3406 10.5111 -5.1044 594.233 494.006
0.994189 10.9121 -6.59646 585.762 494.177
-1.32035 10.801 -5.22384 576.821 493.498
-3.47256 10.1985 -3.95587 568.662 491.01
-1.18187 7.93625 -5.05671 578.17 482.969
0.871562 7.81386 -7.11563 586.389 482.445
2.86046 7.66809 -4.94546 593.274 483.35
2.86209 8.1449 -4.47806 593.013 485.291
0.883737 8.53015 -6.22537 585.983 485.432
-1.14366 8.42353 -4.525 578.025 484.984
3 20 21 23
3 21 22 23
3 0 1 36
3 15 16 45
3 0 17 36
3 16 26 45
3 17 18 37
3 25 26 44
3 17 36 37
3 26 44 45
3 18 19 38
3 24 25 43
3 18 37 38
3 25 43 44
3 19 20 38
3 23 24 43
3 20 21 39
3 22 23 42
3 20 38 39
3 23 42 43
3 21 22 27
3 21 27 39
3 22 27 42
3 27 28 42
3 27 28 39
3 28 42 47
3 28 39 40
3 1 36 41
3 15 45 46
3 1 2 41
3 14 15 46
3 28 29 40
3 28 29 47
3 2 40 41
3 14 46 47
3 2 29 40
3 14 29 47
3 2 3 29
3 13 14 29
3 29 30 31
3 29 30 35
3 3 29 31
3 13 29 35
3 30 32 33
3 30 33 34
3 30 31 32
3 30 34 35
3 3 4 31
3 12 13 35
3 4 5 48
3 11 12 54
3 5 6 48
3 10 11 54
3 6 48 59
3 10 54 55
3 6 7 59
3 9 10 55
3 7 58 59
3 9 55 56
3 8 57 58
3 8 56 57
3 7 8 58
3 8 9 56
3 4 31 48
3 12 35 54
3 31 48 49
3 35 53 54
3 31 49 50
3 35 52 53
3 31 32 50
3 34 35 52
3 32 33 50
3 33 34 52
3 33 50 51
3 33 51 52
3 48 49 60
3 49 60 50
3 50 60 61
3 50 51 61
3 51 52 61
3 61 62 52
3 52 53 62
3 53 54 62
3 54 55 63
3 55 56 63
3 56 63 64
3 56 57 64
3 64 65 57
3 57 58 65
3 58 59 65
3 48 59 65
