ply
format ascii 1.0
element vertex 66
property float x
property float y
property float z
property float u
property float v
element face 91
property list uchar int vertex_indices
end_header
-19.6348 -5.76765 20.754 504.008 433.761
-19.0233 -0.66623 20.2357 504.837 453.774
-18.0723 4.38692 19.8437 506.992 473.763
-16.6369 9.3219 18.1062 511.361 492.949
-14.5745 13.9863 13.4704 518.865 510.198
-11.7495 18.2095 7.89799 529.702 525.629
-8.15285 21.8388 3.14966 543.606 539.311
-3.84137 24.6049 -0.959015 560.478 550.1
1.20489 25.4754 -4.57214 580.767 553.901
6.35967 24.2415 -0.875486 600.715 552.251
10.5018 21.0501 3.25172 617.238 542.739
13.7999 16.9878 7.93939 630.615 529.731
16.2793 12.3998 13.4827 640.773 514.702
17.8316 7.37216 18.2391 647.586 497.33
18.6158 2.09067 20.0483 652.049 477.584
18.8502 -3.2492 20.5357 654.633 456.919
18.6978 -8.60026 20.9328 655.717 436.041
-14.9862 -15.8723 0.0610861 529.761 387.956
-13.0029 -17.2073 -1.47635 538.311 382.832
-10.6333 -17.7535 -2.84614 548.088 380.997
-8.1981 -17.7347 -4.27101 557.947 381.379
-5.83064 -17.1911 -5.54416 567.337 383.851
2.8174 -17.8198 -5.40364 601.54 384.444
5.12976 -18.7843 -4.11405 610.697 381.953
7.60154 -19.207 -2.70292 620.279 381.688
10.1096 -19.0416 -1.31612 629.815 383.731
12.3586 -18.0107 0.257905 638.009 389.148
-0.82399 -11.9567 -4.87172 585.176 406.361
-0.528027 -9.03658 -7.61638 585.927 416.874
-0.236975 -6.12636 -10.386 586.667 427.336
0.0470339 -3.23094 -13.0168 587.356 437.791
-2.7333 0.263252 -5.96712 573.858 453.183
-1.23192 0.603551 -6.98759 579.856 454.653
0.356149 0.680983 -7.89429 586.26 455.166
1.88156 0.360014 -6.87815 592.164 454.821
3.25708 -0.229039 -6.01955 597.598 453.314
-11.8148 -10.7708 -1.21485 540.813 408.573
-10.3971 -11.8112 -1.03687 546.698 405.054
-8.55684 -12.1372 -0.860661 554.01 404.482
-6.92218 -11.6338 -0.836854 560.271 407.032
-8.4322 -10.7712 -1.08406 554.095 409.795
-10.1717 -10.5009 -1.0538 547.156 410.262
4.76018 -12.4766 -0.505354 606.444 407.912
6.27237 -13.2835 -0.768442 612.712 405.175
8.14501 -13.2999 -0.947559 620.12 405.694
9.7543 -12.5568 -1.0656 626.231 409.121
8.19308 -11.9676 -0.841247 619.849 410.972
6.41921 -11.9397 -0.780583 612.849 410.489
-3.63059 9.93307 -2.817 566.512 491.963
-2.52259 8.32792 -4.89177 571.815 485.273
-1.05805 6.94733 -6.55049 578.363 479.744
0.815738 7.05859 -8.28133 586.044 480.177
2.64397 6.67609 -6.43016 592.993 480.012
4.25338 7.80943 -4.7693 598.62 485.641
5.52294 9.20632 -2.60123 602.721 492.375
4.44518 10.5647 -4.10862 598.335 496.756
2.95366 11.5151 -5.2394 592.38 499.537
1.06202 11.9652 -6.64642 585.07 500.113
-0.796535 11.7572 -5.34743 577.567 499.142
-2.37107 11.0704 -4.13212 571.356 496.362
-0.368377 8.87024 -4.88295 580.11 488.15
0.911843 8.66495 -7.05185 585.648 486.971
2.15413 8.69341 -4.79914 590.076 488.365
2.1021 9.02966 -4.44469 589.689 489.799
0.926784 9.46465 -6.02965 585.239 490.497
-0.297816 9.20651 -4.46831 580.194 489.649
3 20 21 23
3 21 22 23
3 0 1 36
3 15 16 45
3 0 17 36
3 16 26 45
3 17 18 37
3 25 26 44
3 17 36 37
3 26 44 45
3 18 19 38
3 24 25 43
3 18 37 38
3 25 43 44
3 19 20 38
3 23 24 43
3 20 21 39
3 22 23 42
3 20 38 39
3 23 42 43
3 21 22 27
3 21 27 39
3 22 27 42
3 27 28 42
3 27 28 39
3 28 42 47
3 28 39 40
3 1 36 41
3 15 45 46
3 1 2 41
3 14 15 46
3 28 29 40
3 28 29 47
3 2 40 41
3 14 46 47
3 2 29 40
3 14 29 47
3 2 3 29
3 13 14 29
3 29 30 31
3 29 30 35
3 3 29 31
3 13 29 35
3 30 32 33
3 30 33 34
3 30 31 32
3 30 34 35
3 3 4 31
3 12 13 35
3 4 5 48
3 11 12 54
3 5 6 48
3 10 11 54
3 6 48 59
3 10 54 55
3 6 7 59
3 9 10 55
3 7 58 59
3 9 55 56
3 8 57 58
3 8 56 57
3 7 8 58
3 8 9 56
3 4 31 48
3 12 35 54
3 31 48 49
3 35 53 54
3 31 49 50
3 35 52 53
3 31 32 50
3 34 35 52
3 32 33 50
3 33 34 52
3 33 50 51
3 33 51 52
3 48 49 60
3 49 60 50
3 50 60 61
3 50 51 61
3 51 52 61
3 61 62 52
3 52 53 62
3 53 54 62
3 54 55 63
3 55 56 63
3 56 63 64
3 56 57 64
3 64 65 57
3 57 58 65
3 58 59 65
3 48 59 65
