ply
format ascii 1.0
element vertex 66
property float x
property float y
property float z
property float u
property float v
element face 91
property list uchar int vertex_indices
end_header
-20.312 -5.57935 20.9086 503.245 432.889
-19.6658 -0.42204 20.3279 504.094 452.574
-18.6664 4.6957 19.9633 506.252 472.289
-17.17 9.63721 18.2129 510.668 491.153
-15.0166 14.1651 13.35 518.414 507.881
-12.0499 18.1485 7.85095 529.579 522.661
-8.33238 21.5144 3.18779 543.624 535.573
-3.94438 24.0172 -0.962314 560.398 545.57
1.11545 24.7375 -4.59175 580.213 549.16
6.36048 23.5856 -0.808158 599.72 547.593
10.6369 20.5405 3.31897 616.104 538.576
14.0718 16.6031 7.92283 629.481 525.993
16.6886 12.1352 13.3827 639.734 511.324
18.3541 7.22257 18.2827 646.641 494.487
19.2064 1.98618 20.0737 651.252 475.337
19.4528 -3.34849 20.4844 653.897 455.248
19.2635 -8.68172 20.9547 654.871 435.027
-15.6065 -15.5483 0.106024 529.124 391.326
-13.499 -17.122 -1.50078 538.03 385.674
-10.9339 -17.792 -2.82401 548.31 383.691
-8.28056 -17.7477 -4.20114 558.697 384.44
-5.7074 -17.115 -5.44147 568.55 387.433
2.97371 -17.7008 -5.34663 601.759 388.284
5.35244 -18.7283 -4.07113 610.874 385.54
7.91302 -19.1869 -2.68875 620.465 385.051
10.5175 -18.9956 -1.32405 630.008 387.043
12.8623 -17.8758 0.293395 638.194 392.539
-0.621007 -11.6562 -4.80591 585.923 410.137
-0.328424 -8.60745 -7.67789 586.645 421.096
-0.0444094 -5.5639 -10.5022 587.326 432.044
0.225981 -2.52346 -13.073 587.9 443.041
-2.73361 0.772568 -6.17071 573.996 456.295
-1.1639 1.2211 -7.07875 580.019 458.32
0.518452 1.34001 -7.85615 586.553 459.165
2.09817 0.997138 -6.92496 592.473 458.656
3.49374 0.323381 -6.12726 597.834 456.789
-12.0061 -10.5769 -1.15625 541.428 411.169
-10.4769 -11.5455 -1.04716 547.549 408.053
-8.59173 -11.8537 -0.894826 554.792 407.583
-6.9004 -11.3322 -0.86112 561.045 410.169
-8.50664 -10.5566 -1.10134 554.725 412.491
-10.3021 -10.3228 -1.06716 547.806 412.757
4.9244 -12.1257 -0.54442 606.237 411.393
6.48346 -12.9219 -0.770115 612.488 408.856
8.38535 -12.9599 -0.954255 619.778 409.334
10.06 -12.2684 -1.04983 625.939 412.527
8.44473 -11.7049 -0.88381 619.566 414.144
6.63859 -11.6593 -0.828513 612.665 413.696
-3.70254 9.51547 -2.81968 566.619 490.049
-2.61987 7.83774 -4.94771 571.776 483.508
-1.13043 6.49399 -6.57289 578.257 478.507
0.730795 6.60745 -8.32066 585.688 479.146
2.53634 6.27368 -6.4275 592.251 478.997
4.11764 7.41994 -4.79291 597.52 484.329
5.29129 8.96241 -2.58301 600.975 491.17
4.26354 10.3379 -3.99179 596.913 495.678
2.80172 11.2919 -5.16953 591.291 498.489
0.928531 11.6799 -6.67014 584.365 498.922
-0.919326 11.4686 -5.31477 577.104 497.815
-2.47314 10.7139 -4.05241 571.166 494.722
-0.302577 8.51587 -4.97364 580.371 486.894
0.819189 8.34616 -7.07085 585.161 486.107
1.88215 8.43138 -4.78692 588.671 487.389
1.8211 8.69093 -4.39413 588.264 488.455
0.819749 9.01096 -6.08733 584.721 488.886
-0.241205 8.78199 -4.50906 580.411 488.046
3 20 21 23
3 21 22 23
3 0 1 36
3 15 16 45
3 0 17 36
3 16 26 45
3 17 18 37
3 25 26 44
3 17 36 37
3 26 44 45
3 18 19 38
3 24 25 43
3 18 37 38
3 25 43 44
3 19 20 38
3 23 24 43
3 20 21 39
3 22 23 42
3 20 38 39
3 23 42 43
3 21 22 27
3 21 27 39
3 22 27 42
3 27 28 42
3 27 28 39
3 28 42 47
3 28 39 40
3 1 36 41
3 15 45 46
3 1 2 41
3 14 15 46
3 28 29 40
3 28 29 47
3 2 40 41
3 14 46 47
3 2 29 40
3 14 29 47
3 2 3 29
3 13 14 29
3 29 30 31
3 29 30 35
3 3 29 31
3 13 29 35
3 30 32 33
3 30 33 34
3 30 31 32
3 30 34 35
3 3 4 31
3 12 13 35
3 4 5 48
3 11 12 54
3 5 6 48
3 10 11 54
3 6 48 59
3 10 54 55
3 6 7 59
3 9 10 55
3 7 58 59
3 9 55 56
3 8 57 58
3 8 56 57
3 7 8 58
3 8 9 56
3 4 31 48
3 12 35 54
3 31 48 49
3 35 53 54
3 31 49 50
3 35 52 53
3 31 32 50
3 34 35 52
3 32 33 50
3 33 34 52
3 33 50 51
3 33 51 52
3 48 49 60
3 49 60 50
3 50 60 61
3 50 51 61
3 51 52 61
3 61 62 52
3 52 53 62
3 53 54 62
3 54 55 63
3 55 56 63
3 56 63 64
3 56 57 64
3 64 65 57
3 57 58 65
3 58 59 65
3 48 59 65
