ply
format ascii 1.0
element vertex 66
property float x
property float y
property float z
property float u
property float v
element face 91
property list uchar int vertex_indices
end_header
-19.6402 -5.91276 21.1652 502.846 433.257
-18.9045 -0.760888 20.6016 504.565 453.539
-17.9184 4.35069 20.121 507.255 473.764
-16.6993 9.4329 18.1573 511.338 493.427
-14.9336 14.3168 13.5575 518.455 511.555
-12.0964 18.5233 7.92044 530.297 526.971
-8.35951 21.8999 3.13806 545.63 539.679
-3.99341 24.3523 -1.02895 563.491 549.149
0.928613 25.1249 -4.60855 583.798 552.376
6.02487 23.9006 -0.906333 603.022 550.325
10.2106 20.7403 3.31693 619.006 540.574
13.6331 16.7249 7.99017 632.067 527.395
16.2783 12.1565 13.5096 641.946 512.108
17.8688 7.15979 18.1237 648.071 494.516
18.6268 2.08944 20.212 651.731 475.517
18.9404 -2.97816 20.6999 654.146 455.845
18.8845 -8.07041 21.0135 655.166 435.908
-15.5925 -15.6842 0.061368 528.003 388.683
-13.4122 -16.9721 -1.49582 537.418 383.711
-10.9188 -17.558 -2.89554 547.832 381.645
-8.34261 -17.6214 -4.25608 558.422 381.672
-5.79353 -17.1596 -5.45109 568.715 383.815
2.76871 -17.5843 -5.44512 602.542 384.634
5.12233 -18.4155 -4.18454 611.632 382.485
7.61331 -18.745 -2.8097 621.095 382.389
10.1302 -18.6391 -1.3519 630.519 384.042
12.4939 -17.805 0.271778 639.096 388.572
-0.632236 -11.813 -4.85286 587.445 406.551
-0.376997 -8.65913 -7.64595 588.5 418.062
-0.135166 -5.52491 -10.5662 589.548 429.448
0.0994024 -2.40907 -13.3502 590.529 440.806
-2.87271 0.72731 -6.12894 575.726 454.783
-1.19637 1.1215 -7.14501 582.543 456.468
0.559025 1.24511 -8.06751 589.714 457.144
2.16524 0.881905 -7.05382 595.815 456.533
3.63598 0.23071 -6.26589 601.53 454.673
-12.0432 -10.6172 -0.928939 540.96 409.3
-10.6251 -11.6955 -1.01493 546.855 405.441
-8.79407 -11.9677 -1.06283 554.151 404.886
-7.16924 -11.2898 -1.01083 560.355 408.042
-8.71231 -10.6002 -1.07256 554.117 410.285
-10.4133 -10.3894 -1.00585 547.342 410.643
4.98723 -12.0525 -0.779268 608.353 408.654
6.42394 -12.9467 -1.05488 614.333 405.458
8.22987 -13.0404 -0.959627 621.439 405.648
9.79393 -12.2325 -0.747786 627.319 409.353
8.28156 -11.6914 -0.803128 621.239 411.023
6.59061 -11.6635 -0.792412 614.569 410.645
-6.12725 9.3188 -2.79852 559.6 488.785
-4.12463 7.65253 -4.91385 568.591 482.079
-1.74894 6.3924 -6.55844 578.796 477.243
0.933441 6.44722 -8.22786 589.87 477.659
3.53383 6.01407 -6.3273 599.625 477.369
5.98627 6.87263 -4.68565 608.54 482.028
8.05982 8.24908 -2.51208 615.658 488.797
6.28393 10.0349 -3.99632 608.663 494.791
3.91958 11.1729 -4.96745 599.359 498.244
1.24859 11.6421 -6.39079 589.166 498.82
-1.42861 11.5117 -5.1456 578.266 497.961
-3.96742 10.7786 -4.05925 568.119 494.717
-1.5066 8.37369 -5.12169 578.776 485.604
1.08579 8.26066 -7.27112 589.692 485.167
3.59027 8.03135 -4.9317 598.877 485.804
3.65119 8.6479 -4.45301 598.804 488.413
1.14071 9.10396 -6.18322 589.344 488.877
-1.44042 9.01625 -4.57311 578.695 488.341
3 20 21 23
3 21 22 23
3 0 1 36
3 15 16 45
3 0 17 36
3 16 26 45
3 17 18 37
3 25 26 44
3 17 36 37
3 26 44 45
3 18 19 38
3 24 25 43
3 18 37 38
3 25 43 44
3 19 20 38
3 23 24 43
3 20 21 39
3 22 23 42
3 20 38 39
3 23 42 43
3 21 22 27
3 21 27 39
3 22 27 42
3 27 28 42
3 27 28 39
3 28 42 47
3 28 39 40
3 1 36 41
3 15 45 46
3 1 2 41
3 14 15 46
3 28 29 40
3 28 29 47
3 2 40 41
3 14 46 47
3 2 29 40
3 14 29 47
3 2 3 29
3 13 14 29
3 29 30 31
3 29 30 35
3 3 29 31
3 13 29 35
3 30 32 33
3 30 33 34
3 30 31 32
3 30 34 35
3 3 4 31
3 12 13 35
3 4 5 48
3 11 12 54
3 5 6 48
3 10 11 54
3 6 48 59
3 10 54 55
3 6 7 59
3 9 10 55
3 7 58 59
3 9 55 56
3 8 57 58
3 8 56 57
3 7 8 58
3 8 9 56
3 4 31 48
3 12 35 54
3 31 48 49
3 35 53 54
3 31 49 50
3 35 52 53
3 31 32 50
3 34 35 52
3 32 33 50
3 33 34 52
3 33 50 51
3 33 51 52
3 48 49 60
3 49 60 50
3 50 60 61
3 50 51 61
3 51 52 61
3 61 62 52
3 52 53 62
3 53 54 62
3 54 55 63
3 55 56 63
3 56 63 64
3 56 57 64
3 64 65 57
3 57 58 65
3 58 59 65
3 48 59 65
