ply
format ascii 1.0
element vertex 66
property float x
property float y
property float z
property float u
property float v
element face 91
property list uchar int vertex_indices
end_header
-20.9578 -6.86306 21.2197 521.452 420.064
-20.5373 -1.16138 20.7396 520.158 440.675
-19.8645 4.52639 20.249 519.777 461.371
-18.734 10.081 18.3233 521.644 481.596
-16.8683 15.2289 13.3638 527.501 500.254
-13.5986 19.4671 7.70562 539.118 516.291
-9.17717 22.5618 3.17242 555.025 529.036
-4.10309 24.5431 -0.940187 573.689 538.21
1.39637 24.9789 -4.89111 594.62 542.095
6.95782 23.8356 -0.7793 613.549 541.695
11.7984 21.0277 3.3115 630.778 534.927
15.7791 17.1732 7.8168 645.323 524.006
18.5073 12.4171 13.4466 655.435 509.358
19.8101 7.09192 18.2686 661.053 491.759
20.2471 1.56822 20.2409 664.756 472.502
20.0859 -4.00587 20.6913 666.923 452.485
19.5767 -9.5651 21.0786 667.861 432.322
-15.7593 -14.6725 0.00168293 552.146 391.305
-13.5347 -16.6364 -1.71893 561.778 385.175
-10.7362 -17.5643 -2.98947 572.751 383.15
-7.78409 -17.5612 -4.23194 583.775 384.554
-4.91721 -16.8186 -5.37069 594.069 388.583
2.35991 -17.1116 -5.30801 620.22 391.488
4.84088 -18.2604 -4.08873 629.23 388.914
7.54587 -18.7434 -2.80325 638.669 388.862
10.2933 -18.5011 -1.47315 647.864 391.444
12.7856 -17.2498 0.184073 655.495 397.564
-0.437076 -11.0946 -4.97526 606.948 411.621
-0.222149 -8.28993 -7.72745 607.292 421.343
-0.0152928 -5.48859 -10.4818 607.609 431.048
0.181232 -2.69287 -13.0912 607.837 440.752
-2.42924 0.459522 -6.07789 594.203 451.824
-1.01907 0.804494 -6.94878 599.395 453.681
0.480689 0.90063 -7.81923 605.036 454.693
1.86925 0.634719 -6.75449 609.738 454.67
3.12173 0.117762 -5.90529 614.166 453.636
-11.0083 -9.78079 -1.33249 567.083 411.214
-9.65733 -10.4781 -1.38044 572.297 409.436
-8.09486 -10.7454 -1.18895 577.951 409.356
-6.58618 -10.4239 -0.805994 583.033 411.392
-7.97055 -9.76523 -1.07851 577.841 412.96
-9.50585 -9.60484 -1.13264 572.288 412.694
5.10344 -11.1576 -0.607585 625.141 415.13
6.51154 -11.6545 -1.01101 630.588 414.043
8.06795 -11.6573 -1.21701 636.233 414.842
9.47491 -11.1545 -1.17734 640.986 417.416
8.04877 -10.7402 -0.962577 635.589 418.166
6.53354 -10.6984 -0.882866 630.119 417.508
-5.36673 8.60563 -2.80027 578.203 480.015
-3.67773 6.95245 -4.97056 585.927 474.635
-1.69815 5.68953 -6.58885 594.277 470.905
0.591695 5.74704 -8.00873 602.972 472.115
2.81462 5.44047 -6.36237 610.459 472.496
4.83934 6.47271 -4.74297 616.547 477.569
6.56305 7.97006 -2.59248 621.115 484.237
4.99452 9.264 -3.82784 615.297 487.824
3.0174 10.005 -5.09749 608.32 489.199
0.789048 10.2644 -6.66691 600.81 488.659
-1.45881 10.2129 -5.29059 592.278 487.486
-3.54591 9.69591 -3.93948 584.575 484.725
-1.03268 7.68479 -5.04448 595.03 478.685
0.694758 7.54206 -6.88361 601.977 478.801
2.35825 7.54572 -4.75732 607.12 480.072
2.38304 7.77838 -4.30926 606.917 480.996
0.707429 7.91621 -6.25173 601.588 480.257
-1.02747 7.93595 -4.52487 594.721 479.676
3 20 21 23
3 21 22 23
3 0 1 36
3 15 16 45
3 0 17 36
3 16 26 45
3 17 18 37
3 25 26 44
3 17 36 37
3 26 44 45
3 18 19 38
3 24 25 43
3 18 37 38
3 25 43 44
3 19 20 38
3 23 24 43
3 20 21 39
3 22 23 42
3 20 38 39
3 23 42 43
3 21 22 27
3 21 27 39
3 22 27 42
3 27 28 42
3 27 28 39
3 28 42 47
3 28 39 40
3 1 36 41
3 15 45 46
3 1 2 41
3 14 15 46
3 28 29 40
3 28 29 47
3 2 40 41
3 14 46 47
3 2 29 40
3 14 29 47
3 2 3 29
3 13 14 29
3 29 30 31
3 29 30 35
3 3 29 31
3 13 29 35
3 30 32 33
3 30 33 34
3 30 31 32
3 30 34 35
3 3 4 31
3 12 13 35
3 4 5 48
3 11 12 54
3 5 6 48
3 10 11 54
3 6 48 59
3 10 54 55
3 6 7 59
3 9 10 55
3 7 58 59
3 9 55 56
3 8 57 58
3 8 56 57
3 7 8 58
3 8 9 56
3 4 31 48
3 12 35 54
3 31 48 49
3 35 53 54
3 31 49 50
3 35 52 53
3 31 32 50
3 34 35 52
3 32 33 50
3 33 34 52
3 33 50 51
3 33 51 52
3 48 49 60
3 49 60 50
3 50 60 61
3 50 51 61
3 51 52 61
3 61 62 52
3 52 53 62
3 53 54 62
3 54 55 63
3 55 56 63
3 56 63 64
3 56 57 64
3 64 65 57
3 57 58 65
3 58 59 65
3 48 59 65
