ply
format ascii 1.0
element vertex 66
property float x
property float y
property float z
property float u
property float v
element face 91
property list uchar int vertex_indices
end_header
-20.294 -5.39441 20.8476 503.446 433.653
-19.6324 -0.351884 20.2951 504.347 452.884
-18.6109 4.64549 19.9466 506.606 472.136
-17.1103 9.48809 18.1544 510.962 490.498
-14.9449 13.9917 13.3316 518.428 506.82
-11.9779 18.015 7.8568 529.213 521.384
-8.27534 21.4464 3.22195 542.878 534.226
-3.89728 24.0142 -0.964757 559.345 544.167
1.1609 24.7904 -4.56267 578.924 547.722
6.40505 23.7211 -0.840992 598.732 546.701
10.7546 20.8045 3.31623 615.687 538.481
14.2442 16.9147 7.90992 629.624 526.401
16.8281 12.4071 13.3935 640.18 511.942
18.3472 7.38955 18.339 646.927 494.996
19.1127 2.04762 20.1478 651.383 475.534
19.371 -3.38026 20.5985 654.138 455.126
19.2227 -8.80655 21.0889 655.334 434.595
-15.5748 -15.6008 0.120725 528.036 389.756
-13.4384 -17.0679 -1.49631 536.928 384.4
-10.901 -17.6687 -2.83168 547.014 382.57
-8.29353 -17.6255 -4.20953 557.156 383.2
-5.7695 -17.0225 -5.4518 566.769 385.974
2.89586 -17.6906 -5.33046 600.038 386.508
5.34227 -18.7289 -4.07145 609.534 383.824
7.96012 -19.1941 -2.7055 619.473 383.415
10.6195 -19.0053 -1.34881 629.35 385.506
13.0336 -17.9014 0.286163 637.94 391.081
-0.733256 -11.6327 -4.80064 584.062 408.449
-0.382306 -8.47894 -7.67935 584.768 419.633
-0.0389774 -5.33217 -10.5298 585.443 430.796
0.289377 -2.1889 -13.1143 586.022 442.027
-2.79113 0.959357 -6.21768 572.162 455.161
-1.20317 1.43226 -7.10898 578.195 457.227
0.499696 1.56345 -7.86191 584.761 458.078
2.12706 1.18339 -6.97632 590.965 457.49
3.56731 0.464535 -6.18979 596.585 455.515
-12.052 -10.5516 -1.10332 539.952 409.797
-10.5373 -11.5475 -1.04984 546.061 406.557
-8.65987 -11.836 -0.932432 553.304 406.156
-6.98197 -11.2988 -0.914556 559.521 408.793
-8.57922 -10.5558 -1.10412 553.204 410.997
-10.3579 -10.3145 -1.05269 546.328 411.309
4.91706 -12.1396 -0.54043 605.148 409.884
6.47931 -13.0006 -0.808146 611.44 407.069
8.39404 -13.0503 -0.982765 618.789 407.494
10.0907 -12.3583 -1.03748 625.036 410.703
8.46616 -11.8022 -0.879396 618.626 412.3
6.65453 -11.7346 -0.815173 611.681 411.944
-3.93438 9.5245 -2.81139 564.387 488.444
-2.82404 7.76363 -4.93568 569.54 481.446
-1.24885 6.41122 -6.54619 576.25 476.331
0.70871 6.51451 -8.29332 583.948 476.842
2.61987 6.17068 -6.46863 591.081 476.796
4.31412 7.31984 -4.83731 596.909 482.29
5.57792 8.90707 -2.59134 600.855 489.499
4.35925 10.1888 -3.96874 595.979 493.5
2.76825 11.0323 -5.11773 589.797 495.777
0.858768 11.3836 -6.5737 582.613 495.972
-0.996732 11.2191 -5.21639 575.384 495.137
-2.6095 10.5908 -3.9947 569.259 492.579
-0.460865 8.43727 -4.96948 578.333 484.824
0.775333 8.26543 -7.1006 583.43 483.912
1.95605 8.32307 -4.86003 587.576 485.272
1.85326 8.51809 -4.45233 587.057 486.11
0.744526 8.7876 -6.1136 582.986 486.208
-0.402609 8.6251 -4.49054 578.419 485.715
3 20 21 23
3 21 22 23
3 0 1 36
3 15 16 45
3 0 17 36
3 16 26 45
3 17 18 37
3 25 26 44
3 17 36 37
3 26 44 45
3 18 19 38
3 24 25 43
3 18 37 38
3 25 43 44
3 19 20 38
3 23 24 43
3 20 21 39
3 22 23 42
3 20 38 39
3 23 42 43
3 21 22 27
3 21 27 39
3 22 27 42
3 27 28 42
3 27 28 39
3 28 42 47
3 28 39 40
3 1 36 41
3 15 45 46
3 1 2 41
3 14 15 46
3 28 29 40
3 28 29 47
3 2 40 41
3 14 46 47
3 2 29 40
3 14 29 47
3 2 3 29
3 13 14 29
3 29 30 31
3 29 30 35
3 3 29 31
3 13 29 35
3 30 32 33
3 30 33 34
3 30 31 32
3 30 34 35
3 3 4 31
3 12 13 35
3 4 5 48
3 11 12 54
3 5 6 48
3 10 11 54
3 6 48 59
3 10 54 55
3 6 7 59
3 9 10 55
3 7 58 59
3 9 55 56
3 8 57 58
3 8 56 57
3 7 8 58
3 8 9 56
3 4 31 48
3 12 35 54
3 31 48 49
3 35 53 54
3 31 49 50
3 35 52 53
3 31 32 50
3 34 35 52
3 32 33 50
3 33 34 52
3 33 50 51
3 33 51 52
3 48 49 60
3 49 60 50
3 50 60 61
3 50 51 61
3 51 52 61
3 61 62 52
3 52 53 62
3 53 54 62
3 54 55 63
3 55 56 63
3 56 63 64
3 56 57 64
3 64 65 57
3 57 58 65
3 58 59 65
3 48 59 65
