ply
format ascii 1.0
element vertex 66
property float x
property float y
property float z
property float u
property float v
element face 91
property list uchar int vertex_indices
end_header
-19.5154 -5.87865 21.0239 502.287 435.705
-18.8536 -0.718738 20.4105 504.107 455.879
-17.9054 4.40296 19.9804 506.986 476.036
-16.6439 9.43459 18.1464 511.667 495.404
-14.8338 14.1914 13.5209 519.66 512.812
-12.0621 18.3559 7.90784 531.933 527.763
-8.40677 21.7726 3.10524 547.496 540.281
-4.07478 24.2875 -1.02176 565.623 549.664
0.879785 25.0605 -4.58283 586.311 552.565
6.02558 23.8837 -0.876397 605.253 550.495
10.1737 20.7105 3.32922 620.479 540.542
13.5322 16.7044 8.0033 632.587 527.306
16.1431 12.21 13.4852 641.539 512.272
17.797 7.30057 18.1705 647.136 495.098
18.6213 2.19526 20.1423 650.594 475.978
18.9397 -2.96866 20.6024 652.679 455.963
18.8727 -8.14837 20.9337 653.306 435.748
-15.3564 -16.0154 0.0702303 528.899 389.324
-13.2261 -17.2591 -1.45218 538.102 384.393
-10.8015 -17.7744 -2.8352 548.26 382.437
-8.32316 -17.7847 -4.22972 558.533 382.472
-5.89584 -17.2771 -5.47416 568.445 384.58
2.57679 -17.6495 -5.43861 601.729 385.113
4.97648 -18.5461 -4.15507 610.807 382.622
7.53132 -18.9081 -2.76637 620.347 382.303
10.1166 -18.7321 -1.34949 629.889 384.111
12.4808 -17.7319 0.253495 638.327 389.169
-0.80763 -11.8849 -4.87187 587.095 407.14
-0.561504 -8.77763 -7.64871 588.548 418.381
-0.327056 -5.68741 -10.5048 589.99 429.523
-0.0912663 -2.61133 -13.2027 591.377 440.667
-2.88014 0.656765 -6.04812 576.961 455.426
-1.2736 1.03332 -7.09358 583.601 456.901
0.417304 1.12776 -8.01168 590.577 457.334
2.01068 0.781641 -6.99164 596.489 456.718
3.44901 0.133654 -6.22983 601.955 454.789
-12.0861 -10.8293 -1.05599 541.147 410.025
-10.6242 -11.9042 -0.984379 547.064 406.176
-8.74492 -12.178 -0.914965 554.46 405.567
-7.09509 -11.511 -0.910222 560.796 408.571
-8.67358 -10.7832 -1.08616 554.532 410.993
-10.4258 -10.5667 -1.03704 547.599 411.45
4.83178 -12.2647 -0.697994 607.631 408.481
6.3058 -13.1534 -0.946578 613.685 405.25
8.1637 -13.2222 -0.929768 620.977 405.421
9.78163 -12.4399 -0.826286 627.127 408.905
8.23247 -11.8765 -0.807246 620.933 410.76
6.48315 -11.8482 -0.792401 614.062 410.467
-4.77398 9.69543 -2.83851 566.479 491.602
-3.21628 8.02018 -4.95056 573.755 484.63
-1.28924 6.67674 -6.6057 582.233 479.211
0.989124 6.72671 -8.33225 591.842 479.315
3.22633 6.32642 -6.33315 599.902 478.992
5.29725 7.29199 -4.69666 607.184 483.857
7.01195 8.67846 -2.53372 612.777 490.48
5.60887 10.3096 -4.02714 607.545 496.009
3.67717 11.4207 -5.03932 600.152 499.549
1.36035 11.8931 -6.50762 591.555 500.329
-0.940863 11.7553 -5.2572 582.063 499.703
-3.03947 11.0379 -4.11407 573.522 496.812
-0.808429 8.67409 -5.01668 583.095 487.734
1.15438 8.47664 -7.15936 591.68 486.643
3.08889 8.37103 -4.87036 598.38 487.51
3.11243 8.85522 -4.43521 598.204 489.573
1.21392 9.30374 -6.06005 591.315 490.299
-0.72055 9.17532 -4.53391 583.149 489.896
3 20 21 23
3 21 22 23
3 0 1 36
3 15 16 45
3 0 17 36
3 16 26 45
3 17 18 37
3 25 26 44
3 17 36 37
3 26 44 45
3 18 19 38
3 24 25 43
3 18 37 38
3 25 43 44
3 19 20 38
3 23 24 43
3 20 21 39
3 22 23 42
3 20 38 39
3 23 42 43
3 21 22 27
3 21 27 39
3 22 27 42
3 27 28 42
3 27 28 39
3 28 42 47
3 28 39 40
3 1 36 41
3 15 45 46
3 1 2 41
3 14 15 46
3 28 29 40
3 28 29 47
3 2 40 41
3 14 46 47
3 2 29 40
3 14 29 47
3 2 3 29
3 13 14 29
3 29 30 31
3 29 30 35
3 3 29 31
3 13 29 35
3 30 32 33
3 30 33 34
3 30 31 32
3 30 34 35
3 3 4 31
3 12 13 35
3 4 5 48
3 11 12 54
3 5 6 48
3 10 11 54
3 6 48 59
3 10 54 55
3 6 7 59
3 9 10 55
3 7 58 59
3 9 55 56
3 8 57 58
3 8 56 57
3 7 8 58
3 8 9 56
3 4 31 48
3 12 35 54
3 31 48 49
3 35 53 54
3 31 49 50
3 35 52 53
3 31 32 50
3 34 35 52
3 32 33 50
3 33 34 52
3 33 50 51
3 33 51 52
3 48 49 60
3 49 60 50
3 50 60 61
3 50 51 61
3 51 52 61
3 61 62 52
3 52 53 62
3 53 54 62
3 54 55 63
3 55 56 63
3 56 63 64
3 56 57 64
3 64 65 57
3 57 58 65
3 58 59 65
3 48 59 65
