ply
format ascii 1.0
element vertex 66
property float x
property float y
property float z
property float u
property float v
element face 91
property list uchar int vertex_indices
end_header
-20.3723 -5.60031 20.9235 504.018 431.889
-19.7248 -0.45593 20.3584 504.75 451.455
-18.7343 4.65199 19.9985 506.759 471.064
-17.2621 9.59848 18.2065 510.913 489.862
-15.1264 14.1665 13.3559 518.274 506.671
-12.1381 18.1811 7.8566 529.184 521.527
-8.3772 21.5449 3.21323 543.098 534.426
-3.9535 24.0309 -0.947889 559.748 544.372
1.12367 24.7615 -4.5903 579.405 548.048
6.39646 23.6543 -0.815794 599.104 546.779
10.7683 20.6975 3.30264 615.98 538.267
14.2881 16.7923 7.89573 629.875 525.976
16.92 12.2829 13.3767 640.455 511.304
18.5044 7.29074 18.2891 647.339 494.271
19.2811 1.99592 20.1028 651.833 474.984
19.4869 -3.38101 20.5277 654.444 454.814
19.2719 -8.75422 21.015 655.447 434.519
-15.6091 -15.3675 0.0987031 529.343 391.204
-13.5129 -16.975 -1.53415 538.16 385.46
-10.9528 -17.7063 -2.85144 548.367 383.285
-8.28345 -17.7193 -4.20554 558.741 383.861
-5.68468 -17.1334 -5.42396 568.609 386.714
2.99977 -17.7856 -5.3152 601.751 387.46
5.37523 -18.7715 -4.06163 610.88 384.927
7.92241 -19.1831 -2.70682 620.438 384.658
10.499 -18.965 -1.34881 629.883 386.785
12.8329 -17.8662 0.296518 638.043 392.233
-0.583197 -11.6375 -4.80068 585.889 409.557
-0.254351 -8.51708 -7.6887 586.555 420.736
0.0649479 -5.4018 -10.5365 587.18 431.902
0.365204 -2.28927 -13.1192 587.685 443.12
-2.72032 0.876975 -6.22305 573.604 455.781
-1.11733 1.33659 -7.0982 579.678 457.88
0.59855 1.46613 -7.84768 586.276 458.804
2.19691 1.10815 -6.94722 592.299 458.271
3.61482 0.420451 -6.16432 597.777 456.393
-11.9518 -10.4661 -1.12902 541.696 410.782
-10.4345 -11.4395 -1.07961 547.786 407.666
-8.56562 -11.745 -0.960975 554.959 407.227
-6.87744 -11.2242 -0.897855 561.164 409.834
-8.47486 -10.4755 -1.10488 554.879 412.028
-10.2528 -10.2396 -1.0666 548.047 412.279
4.85136 -12.0213 -0.522416 605.853 411.219
6.40815 -12.8431 -0.813763 612.1 408.602
8.30254 -12.9001 -0.998912 619.338 409.033
9.97917 -12.2119 -1.06352 625.463 412.237
8.36475 -11.6569 -0.892287 619.113 413.79
6.56876 -11.5984 -0.813377 612.268 413.373
-4.06251 9.39395 -2.79813 564.867 488.431
-2.8734 7.69416 -4.93089 570.368 481.874
-1.25994 6.37549 -6.55035 577.249 477.049
0.715212 6.48702 -8.28178 585.015 477.743
2.61942 6.15054 -6.44895 592.021 477.647
4.30464 7.27446 -4.81162 597.714 482.95
5.56581 8.83863 -2.5702 601.532 489.922
4.38655 10.1675 -3.96184 596.842 494.155
2.79541 11.049 -5.13528 590.71 496.602
0.852643 11.3994 -6.61487 583.489 496.828
-1.05643 11.2116 -5.24651 576.067 495.775
-2.70621 10.5228 -3.99535 569.828 492.889
-0.526529 8.36779 -4.98898 579.039 485.27
0.783274 8.21133 -7.09307 584.444 484.607
2.00937 8.27661 -4.80543 588.653 485.903
1.94185 8.55697 -4.40366 588.225 487.045
0.767209 8.84474 -6.11108 583.98 487.257
-0.472907 8.65271 -4.49916 579.052 486.497
3 20 21 23
3 21 22 23
3 0 1 36
3 15 16 45
3 0 17 36
3 16 26 45
3 17 18 37
3 25 26 44
3 17 36 37
3 26 44 45
3 18 19 38
3 24 25 43
3 18 37 38
3 25 43 44
3 19 20 38
3 23 24 43
3 20 21 39
3 22 23 42
3 20 38 39
3 23 42 43
3 21 22 27
3 21 27 39
3 22 27 42
3 27 28 42
3 27 28 39
3 28 42 47
3 28 39 40
3 1 36 41
3 15 45 46
3 1 2 41
3 14 15 46
3 28 29 40
3 28 29 47
3 2 40 41
3 14 46 47
3 2 29 40
3 14 29 47
3 2 3 29
3 13 14 29
3 29 30 31
3 29 30 35
3 3 29 31
3 13 29 35
3 30 32 33
3 30 33 34
3 30 31 32
3 30 34 35
3 3 4 31
3 12 13 35
3 4 5 48
3 11 12 54
3 5 6 48
3 10 11 54
3 6 48 59
3 10 54 55
3 6 7 59
3 9 10 55
3 7 58 59
3 9 55 56
3 8 57 58
3 8 56 57
3 7 8 58
3 8 9 56
3 4 31 48
3 12 35 54
3 31 48 49
3 35 53 54
3 31 49 50
3 35 52 53
3 31 32 50
3 34 35 52
3 32 33 50
3 33 34 52
3 33 50 51
3 33 51 52
3 48 49 60
3 49 60 50
3 50 60 61
3 50 51 61
3 51 52 61
3 61 62 52
3 52 53 62
3 53 54 62
3 54 55 63
3 55 56 63
3 56 63 64
3 56 57 64
3 64 65 57
3 57 58 65
3 58 59 65
3 48 59 65
