ply
format ascii 1.0
element vertex 66
property float x
property float y
property float z
property float u
property float v
element face 91
property list uchar int vertex_indices
end_header
-19.4232 -5.76687 20.8968 504.474 434.212
-18.7699 -0.687927 20.384 505.568 454.385
-17.8283 4.34308 19.9359 507.808 474.492
-16.4777 9.31291 18.1104 512.031 493.982
-14.506 14.0695 13.5378 519.463 511.812
-11.7003 18.3171 7.92489 530.63 527.522
-8.13466 21.9402 3.10587 544.826 541.312
-3.90893 24.752 -1.01344 561.738 552.373
1.0268 25.7074 -4.64553 581.95 556.497
6.15876 24.4223 -0.88952 601.858 554.564
10.2755 21.1111 3.24436 618.286 544.389
13.5743 16.9497 7.98186 631.586 530.787
16.1006 12.2777 13.5374 641.778 515.202
17.6738 7.18713 18.1903 648.533 497.292
18.437 1.9509 20.0892 652.786 477.498
18.6678 -3.28939 20.5895 655.263 456.983
18.5202 -8.54795 20.9339 656.28 436.207
-15.082 -15.7517 0.073997 530.029 388.324
-13.0876 -17.0853 -1.47656 538.769 383.14
-10.7005 -17.6638 -2.87034 548.79 381.144
-8.2282 -17.6839 -4.27608 558.973 381.387
-5.80124 -17.1818 -5.51035 568.766 383.749
2.7514 -17.694 -5.47213 602.94 384.665
5.07521 -18.5899 -4.19333 612.159 382.386
7.54186 -18.9582 -2.78706 621.745 382.297
10.0276 -18.7889 -1.35142 631.227 384.357
12.2629 -17.8105 0.248234 639.413 389.601
-0.70089 -11.9624 -4.84753 587.216 406.444
-0.412311 -9.07936 -7.59108 588.109 416.951
-0.134316 -6.20846 -10.4012 588.979 427.381
0.13299 -3.35706 -13.11 589.789 437.769
-2.81743 0.131453 -5.9846 575.194 453.253
-1.19916 0.496541 -7.01456 581.765 454.871
0.500261 0.59292 -7.95546 588.724 455.485
2.08451 0.25289 -6.91697 594.881 455.067
3.52831 -0.365454 -6.06965 600.615 453.427
-11.6495 -10.7268 -1.07158 542.35 409
-10.3093 -11.7559 -1.0104 547.995 405.401
-8.54999 -12.0644 -0.956028 555.079 404.802
-6.97681 -11.5483 -0.920255 561.162 407.401
-8.41827 -10.724 -1.05594 555.197 410.125
-10.0716 -10.4773 -1.009 548.53 410.554
4.77867 -12.3181 -0.619372 608.094 408.492
6.21234 -13.0927 -0.910743 614.116 405.803
7.98131 -13.1226 -0.970793 621.176 406.268
9.48756 -12.3676 -0.967368 626.924 409.78
8.00561 -11.8148 -0.834991 620.82 411.514
6.33734 -11.8015 -0.775182 614.166 411.017
-5.07449 9.46183 -2.77623 562.439 490.679
-3.45461 7.88235 -4.8395 569.893 484.2
-1.47184 6.60444 -6.50037 578.595 479.192
0.865553 6.70478 -8.19755 588.274 479.757
3.13609 6.29161 -6.34955 596.987 479.587
5.21114 7.26374 -4.67833 604.521 484.778
6.92244 8.59783 -2.51765 610.372 491.463
5.5781 10.5088 -4.10762 604.799 497.986
3.60055 11.8315 -5.19634 596.775 502.147
1.14131 12.3925 -6.62348 587.161 502.995
-1.30745 12.1202 -5.33099 577.193 501.558
-3.428 11.1159 -4.1433 568.791 497.292
-1.08783 8.57439 -4.96283 579.115 487.71
0.97069 8.43355 -7.1686 587.886 487.033
2.95166 8.32497 -4.82393 595.228 488.158
3.01952 9.1682 -4.44107 595.134 491.668
1.02829 9.7596 -6.13811 587.438 492.696
-1.05066 9.43593 -4.51048 578.876 491.308
3 20 21 23
3 21 22 23
3 0 1 36
3 15 16 45
3 0 17 36
3 16 26 45
3 17 18 37
3 25 26 44
3 17 36 37
3 26 44 45
3 18 19 38
3 24 25 43
3 18 37 38
3 25 43 44
3 19 20 38
3 23 24 43
3 20 21 39
3 22 23 42
3 20 38 39
3 23 42 43
3 21 22 27
3 21 27 39
3 22 27 42
3 27 28 42
3 27 28 39
3 28 42 47
3 28 39 40
3 1 36 41
3 15 45 46
3 1 2 41
3 14 15 46
3 28 29 40
3 28 29 47
3 2 40 41
3 14 46 47
3 2 29 40
3 14 29 47
3 2 3 29
3 13 14 29
3 29 30 31
3 29 30 35
3 3 29 31
3 13 29 35
3 30 32 33
3 30 33 34
3 30 31 32
3 30 34 35
3 3 4 31
3 12 13 35
3 4 5 48
3 11 12 54
3 5 6 48
3 10 11 54
3 6 48 59
3 10 54 55
3 6 7 59
3 9 10 55
3 7 58 59
3 9 55 56
3 8 57 58
3 8 56 57
3 7 8 58
3 8 9 56
3 4 31 48
3 12 35 54
3 31 48 49
3 35 53 54
3 31 49 50
3 35 52 53
3 31 32 50
3 34 35 52
3 32 33 50
3 33 34 52
3 33 50 51
3 33 51 52
3 48 49 60
3 49 60 50
3 50 60 61
3 50 51 61
3 51 52 61
3 61 62 52
3 52 53 62
3 53 54 62
3 54 55 63
3 55 56 63
3 56 63 64
3 56 57 64
3 64 65 57
3 57 58 65
3 58 59 65
3 48 59 65
