ply
format ascii 1.0
element vertex 66
property float x
property float y
property float z
property float u
property float v
element face 91
property list uchar int vertex_indices
end_header
-19.4193 -5.54506 20.7304 503.826 434.21
-18.7735 -0.507302 20.2041 504.627 454.273
-17.8022 4.48238 19.8089 506.71 474.308
-16.3716 9.35071 18.0686 510.947 493.659
-14.3352 13.9504 13.4962 518.29 511.376
-11.5788 18.1281 7.91824 528.861 527.415
-8.08084 21.7577 3.1276 542.411 541.791
-3.88586 24.5912 -0.975094 558.877 553.477
1.07661 25.5072 -4.56797 578.994 558.006
6.24398 24.3012 -0.845962 599.157 556.279
10.374 21.0738 3.24216 615.878 546.245
13.6431 16.9724 7.96402 629.373 532.595
16.0869 12.3566 13.5109 639.608 516.822
17.6101 7.31796 18.2076 646.528 498.776
18.3813 2.03375 19.9863 651.175 478.639
18.6159 -3.30684 20.4682 653.989 457.704
18.4567 -8.65807 20.8799 655.26 436.555
-14.8091 -15.9841 0.0709994 530.394 388.769
-12.8762 -17.2884 -1.45627 538.874 383.914
-10.5757 -17.8574 -2.82606 548.506 382.16
-8.20146 -17.8902 -4.24736 558.243 382.545
-5.88275 -17.412 -5.51528 567.536 384.976
2.91748 -18.0659 -5.42082 602.682 385.813
5.16415 -18.936 -4.13274 611.648 383.599
7.55283 -19.281 -2.72536 620.956 383.554
9.9628 -19.0832 -1.32746 630.149 385.665
12.1352 -18.0982 0.244067 638.07 390.854
-0.742551 -12.0931 -4.83894 585.813 408.232
-0.422901 -9.18669 -7.58492 586.584 419.093
-0.112146 -6.29146 -10.366 587.332 429.898
0.18445 -3.4103 -13.0141 588.001 440.678
-2.60021 0.238118 -5.97268 574.097 456.056
-1.10199 0.55565 -6.98369 580.139 457.606
0.477936 0.627637 -7.878 586.572 458.248
1.96469 0.324631 -6.86883 592.371 457.908
3.31175 -0.23029 -6.01263 597.741 456.473
-11.6738 -10.9337 -1.15324 541.219 409.646
-10.3164 -11.9613 -0.990533 546.953 406.145
-8.53806 -12.2842 -0.852834 554.101 405.591
-6.96749 -11.7846 -0.859135 560.149 408.177
-8.41266 -10.9168 -1.07769 554.138 410.995
-10.0935 -10.6532 -1.02666 547.359 411.404
4.73233 -12.5938 -0.49377 606.802 409.595
6.17788 -13.3905 -0.766765 612.893 406.92
7.98763 -13.4111 -0.945628 620.12 407.486
9.53098 -12.6696 -1.08271 625.999 410.982
8.03869 -12.0757 -0.851999 619.807 412.824
6.32743 -12.0524 -0.778345 612.991 412.276
-3.77362 10.031 -2.82118 565.129 495.301
-2.5858 8.46552 -4.88456 570.864 488.971
-1.07823 7.08645 -6.54172 577.711 483.62
0.832808 7.19958 -8.29115 585.625 484.31
2.68634 6.83891 -6.44099 592.721 484.122
4.30934 7.99738 -4.76906 598.376 489.814
5.60348 9.37466 -2.57825 602.534 496.393
4.51004 10.7986 -4.12509 597.994 501.174
2.97507 11.7994 -5.22926 591.765 504.233
1.01807 12.2528 -6.62558 584.127 504.878
-0.899456 12.0054 -5.33858 576.336 503.522
-2.50302 11.24 -4.1492 570.004 500.206
-0.457916 8.99883 -4.88883 579.111 491.906
0.904726 8.79138 -7.10182 585.066 490.983
2.20465 8.8556 -4.76897 589.705 492.401
2.15884 9.31756 -4.42635 589.278 494.311
0.915253 9.76567 -6.03367 584.518 495.151
-0.396238 9.46458 -4.47423 579.094 493.893
3 20 21 23
3 21 22 23
3 0 1 36
3 15 16 45
3 0 17 36
3 16 26 45
3 17 18 37
3 25 26 44
3 17 36 37
3 26 44 45
3 18 19 38
3 24 25 43
3 18 37 38
3 25 43 44
3 19 20 38
3 23 24 43
3 20 21 39
3 22 23 42
3 20 38 39
3 23 42 43
3 21 22 27
3 21 27 39
3 22 27 42
3 27 28 42
3 27 28 39
3 28 42 47
3 28 39 40
3 1 36 41
3 15 45 46
3 1 2 41
3 14 15 46
3 28 29 40
3 28 29 47
3 2 40 41
3 14 46 47
3 2 29 40
3 14 29 47
3 2 3 29
3 13 14 29
3 29 30 31
3 29 30 35
3 3 29 31
3 13 29 35
3 30 32 33
3 30 33 34
3 30 31 32
3 30 34 35
3 3 4 31
3 12 13 35
3 4 5 48
3 11 12 54
3 5 6 48
3 10 11 54
3 6 48 59
3 10 54 55
3 6 7 59
3 9 10 55
3 7 58 59
3 9 55 56
3 8 57 58
3 8 56 57
3 7 8 58
3 8 9 56
3 4 31 48
3 12 35 54
3 31 48 49
3 35 53 54
3 31 49 50
3 35 52 53
3 31 32 50
3 34 35 52
3 32 33 50
3 33 34 52
3 33 50 51
3 33 51 52
3 48 49 60
3 49 60 50
3 50 60 61
3 50 51 61
3 51 52 61
3 61 62 52
3 52 53 62
3 53 54 62
3 54 55 63
3 55 56 63
3 56 63 64
3 56 57 64
3 64 65 57
3 57 58 65
3 58 59 65
3 48 59 65
