ply
format ascii 1.0
element vertex 66
property float x
property float y
property float z
property float u
property float v
element face 91
property list uchar int vertex_indices
end_header
-19.5324 -6.07469 21.0753 502.274 435.117
-18.8574 -0.88518 20.463 504.061 455.437
-17.9073 4.2643 20.0056 506.882 475.737
-16.6721 9.37679 18.1646 511.364 495.36
-14.901 14.284 13.5275 519.07 513.092
-12.124 18.5814 7.88007 531.257 528.241
-8.44454 22.0932 3.10231 546.837 540.91
-4.07671 24.6469 -1.02851 565.088 550.268
0.887352 25.4734 -4.61856 585.851 553.22
6.01499 24.2118 -0.89931 604.912 551.19
10.1512 20.9485 3.32974 620.297 541.254
13.5009 16.8396 7.96969 632.605 527.971
16.1385 12.252 13.4676 641.88 512.996
17.8173 7.26414 18.1582 647.77 495.851
18.6516 2.15808 20.1599 651.384 476.851
18.9872 -2.96043 20.6433 653.614 457.013
18.9427 -8.10178 20.9441 654.421 436.908
-15.4197 -15.9148 0.0612808 528.616 388.289
-13.3064 -17.1316 -1.48111 537.796 383.369
-10.8947 -17.6384 -2.87032 547.941 381.385
-8.42033 -17.6441 -4.25727 558.226 381.388
-5.98513 -17.1391 -5.47754 568.184 383.464
2.64598 -17.5079 -5.43906 602.27 384.233
5.03454 -18.4022 -4.17473 611.394 381.877
7.57083 -18.7729 -2.79107 620.942 381.67
10.1326 -18.6215 -1.36496 630.463 383.542
12.4724 -17.6612 0.266025 638.858 388.629
-0.806079 -11.7774 -4.87467 587.224 406.141
-0.576054 -8.68491 -7.66849 588.538 417.146
-0.35728 -5.60587 -10.5266 589.836 428.066
-0.135133 -2.54349 -13.2192 591.087 438.995
-2.9855 0.629254 -6.03347 576.428 453.883
-1.33122 1.04523 -7.09959 583.268 455.477
0.411898 1.16751 -8.05122 590.476 455.988
2.04843 0.78381 -7.00528 596.61 455.352
3.52293 0.0857123 -6.24712 602.281 453.314
-12.0385 -10.7216 -1.07205 541.269 409.086
-10.6399 -11.7566 -1.0247 546.985 405.392
-8.83541 -12.0507 -0.953545 554.133 404.727
-7.21739 -11.4634 -0.931677 560.378 407.46
-8.73328 -10.7366 -1.07726 554.303 409.869
-10.4207 -10.5185 -1.03483 547.589 410.314
4.92853 -12.2375 -0.730647 608.344 407.603
6.37336 -13.0361 -0.996675 614.311 404.715
8.15321 -13.0848 -0.961506 621.324 404.993
9.70181 -12.3361 -0.808774 627.211 408.4
8.19354 -11.8294 -0.787155 621.149 410.017
6.51123 -11.8141 -0.772047 614.508 409.655
-5.10102 9.44263 -2.80602 564.975 489.421
-3.43474 7.78125 -4.93628 572.712 482.382
-1.37608 6.49783 -6.59607 581.735 477.134
1.01682 6.56745 -8.28078 591.796 477.284
3.36123 6.11591 -6.30265 600.378 476.969
5.55648 6.98046 -4.66675 608.222 481.645
7.37758 8.32983 -2.49452 614.282 488.365
5.87821 10.03 -3.9853 608.579 494.02
3.82711 11.1653 -4.9982 600.638 497.521
1.41622 11.6622 -6.49439 591.601 498.207
-0.986814 11.5314 -5.22143 581.67 497.634
-3.22766 10.8295 -4.07037 572.546 494.804
-0.869183 8.49066 -5.033 582.71 485.785
1.20218 8.36475 -7.12866 591.703 484.904
3.23548 8.15457 -4.88614 598.906 485.575
3.27864 8.58772 -4.43567 598.811 487.486
1.26421 9.06982 -6.06794 591.392 488.156
-0.788707 8.94581 -4.53514 582.74 487.813
3 20 21 23
3 21 22 23
3 0 1 36
3 15 16 45
3 0 17 36
3 16 26 45
3 17 18 37
3 25 26 44
3 17 36 37
3 26 44 45
3 18 19 38
3 24 25 43
3 18 37 38
3 25 43 44
3 19 20 38
3 23 24 43
3 20 21 39
3 22 23 42
3 20 38 39
3 23 42 43
3 21 22 27
3 21 27 39
3 22 27 42
3 27 28 42
3 27 28 39
3 28 42 47
3 28 39 40
3 1 36 41
3 15 45 46
3 1 2 41
3 14 15 46
3 28 29 40
3 28 29 47
3 2 40 41
3 14 46 47
3 2 29 40
3 14 29 47
3 2 3 29
3 13 14 29
3 29 30 31
3 29 30 35
3 3 29 31
3 13 29 35
3 30 32 33
3 30 33 34
3 30 31 32
3 30 34 35
3 3 4 31
3 12 13 35
3 4 5 48
3 11 12 54
3 5 6 48
3 10 11 54
3 6 48 59
3 10 54 55
3 6 7 59
3 9 10 55
3 7 58 59
3 9 55 56
3 8 57 58
3 8 56 57
3 7 8 58
3 8 9 56
3 4 31 48
3 12 35 54
3 31 48 49
3 35 53 54
3 31 49 50
3 35 52 53
3 31 32 50
3 34 35 52
3 32 33 50
3 33 34 52
3 33 50 51
3 33 51 52
3 48 49 60
3 49 60 50
3 50 60 61
3 50 51 61
3 51 52 61
3 61 62 52
3 52 53 62
3 53 54 62
3 54 55 63
3 55 56 63
3 56 63 64
3 56 57 64
3 64 65 57
3 57 58 65
3 58 59 65
3 48 59 65
