ply
format ascii 1.0
element vertex 66
property float x
property float y
property float z
property float u
property float v
element face 91
property list uchar int vertex_indices
end_header
-20.1392 -5.63846 20.9379 504.384 434.489
-19.5085 -0.529196 20.3822 505.336 453.995
-18.5561 4.53815 19.9895 507.495 473.52
-17.1511 9.48704 18.147 511.788 492.13
-15.0718 14.1263 13.4168 519.48 508.557
-12.0953 18.1955 7.85345 531.003 522.757
-8.33268 21.5794 3.16274 545.544 534.977
-3.92436 24.0995 -0.985055 562.703 544.346
1.11497 24.8677 -4.60536 582.705 547.459
6.31569 23.7174 -0.857558 602.112 546.427
10.6105 20.6993 3.29755 618.527 538.122
14.1032 16.7842 7.928 632.028 526.317
16.7412 12.2687 13.4581 642.213 512.31
18.3276 7.25464 18.2626 648.696 495.729
19.0943 1.99128 20.1654 652.827 476.683
19.3221 -3.32854 20.6218 655.263 456.622
19.1605 -8.65381 21.0484 656.213 436.395
-15.4735 -15.6422 0.102664 530.593 388.982
-13.3772 -17.056 -1.4812 539.478 383.619
-10.8865 -17.6428 -2.84424 549.564 381.645
-8.32253 -17.6146 -4.22428 559.741 382.039
-5.8267 -17.0402 -5.45507 569.447 384.56
2.89087 -17.608 -5.37037 603.08 385.395
5.28878 -18.5973 -4.10741 612.287 382.968
7.85071 -19.0348 -2.72786 621.922 382.755
10.45 -18.8652 -1.3328 631.505 384.882
12.8035 -17.8132 0.276269 639.814 390.388
-0.713751 -11.5535 -4.8466 587.204 407.531
-0.420691 -8.56452 -7.65541 588.082 417.86
-0.135517 -5.58571 -10.4931 588.94 428.135
0.140177 -2.61782 -13.1442 589.72 438.445
-2.87668 0.675946 -6.12381 575.365 452.992
-1.26117 1.10316 -7.08252 581.671 454.768
0.453272 1.21973 -7.92961 588.427 455.437
2.08047 0.857006 -6.96174 594.55 455.016
3.54218 0.179842 -6.14643 600.175 453.273
-11.9193 -10.5278 -1.10596 542.929 409.226
-10.469 -11.5129 -1.04835 548.794 405.979
-8.64863 -11.8011 -0.946022 555.85 405.541
-7.01441 -11.2702 -0.891425 561.944 408.15
-8.55082 -10.5116 -1.07607 555.852 410.448
-10.2748 -10.2833 -1.04734 549.153 410.745
4.978 -12.0901 -0.592962 608.178 409.227
6.48388 -12.8965 -0.861532 614.281 406.544
8.32124 -12.9372 -0.972711 621.376 406.967
9.93231 -12.2347 -0.983065 627.344 410.196
8.37075 -11.6883 -0.861447 621.146 411.804
6.62919 -11.6406 -0.803255 614.429 411.418
-4.58232 9.4149 -2.81199 565.248 487.22
-3.14168 7.82576 -4.91287 571.799 480.744
-1.34405 6.57576 -6.55412 579.5 475.88
0.781179 6.69068 -8.25731 588.045 476.319
2.85278 6.29491 -6.41192 595.669 476.297
4.754 7.2768 -4.76092 602.253 481.399
6.31548 8.64187 -2.57368 607.279 488.079
4.963 10.1247 -4.00792 601.973 492.676
3.14905 11.0979 -5.13333 594.979 495.299
0.996443 11.5113 -6.5794 586.941 495.531
-1.12701 11.347 -5.2692 578.515 494.737
-3.02645 10.6562 -4.05736 571.139 491.965
-0.781481 8.51259 -5.01477 580.671 484.129
0.876303 8.38012 -7.14044 587.603 483.284
2.47677 8.31633 -4.88351 593.211 484.545
2.45133 8.63134 -4.45088 592.908 485.924
0.879034 9.00309 -6.14499 587.172 486.089
-0.742615 8.83452 -4.52075 580.597 485.583
3 20 21 23
3 21 22 23
3 0 1 36
3 15 16 45
3 0 17 36
3 16 26 45
3 17 18 37
3 25 26 44
3 17 36 37
3 26 44 45
3 18 19 38
3 24 25 43
3 18 37 38
3 25 43 44
3 19 20 38
3 23 24 43
3 20 21 39
3 22 23 42
3 20 38 39
3 23 42 43
3 21 22 27
3 21 27 39
3 22 27 42
3 27 28 42
3 27 28 39
3 28 42 47
3 28 39 40
3 1 36 41
3 15 45 46
3 1 2 41
3 14 15 46
3 28 29 40
3 28 29 47
3 2 40 41
3 14 46 47
3 2 29 40
3 14 29 47
3 2 3 29
3 13 14 29
3 29 30 31
3 29 30 35
3 3 29 31
3 13 29 35
3 30 32 33
3 30 33 34
3 30 31 32
3 30 34 35
3 3 4 31
3 12 13 35
3 4 5 48
3 11 12 54
3 5 6 48
3 10 11 54
3 6 48 59
3 10 54 55
3 6 7 59
3 9 10 55
3 7 58 59
3 9 55 56
3 8 57 58
3 8 56 57
3 7 8 58
3 8 9 56
3 4 31 48
3 12 35 54
3 31 48 49
3 35 53 54
3 31 49 50
3 35 52 53
3 31 32 50
3 34 35 52
3 32 33 50
3 33 34 52
3 33 50 51
3 33 51 52
3 48 49 60
3 49 60 50
3 50 60 61
3 50 51 61
3 51 52 61
3 61 62 52
3 52 53 62
3 53 54 62
3 54 55 63
3 55 56 63
3 56 63 64
3 56 57 64
3 64 65 57
3 57 58 65
3 58 59 65
3 48 59 65
