ply
format ascii 1.0
element vertex 66
property float x
property float y
property float z
property float u
property float v
element face 91
property list uchar int vertex_indices
end_header
-20.3118 -5.66811 21.1152 502.624 434.115
-19.6724 -0.492738 20.5645 503.544 453.763
-18.7517 4.64973 20.1595 505.507 473.433
-17.4318 9.66416 18.1676 509.426 492.2
-15.4374 14.3323 13.4466 516.701 508.934
-12.4085 18.2848 7.86591 528.351 523.007
-8.5325 21.4248 3.1578 543.261 534.591
-4.0829 23.7205 -1.01936 560.488 543.356
0.910706 24.409 -4.63702 580.155 546.406
6.17601 23.3285 -0.817529 599.558 545.433
10.6047 20.41 3.33955 616.281 537.324
14.2567 16.5814 7.95899 630.227 525.662
17.0227 12.098 13.4593 640.793 511.522
18.647 7.10446 18.2021 647.371 494.794
19.3776 1.90238 20.2265 651.299 476.025
19.5459 -3.35607 20.6346 653.511 456.288
19.316 -8.61682 21.0221 654.216 436.399
-15.7142 -15.4713 0.0638493 528.486 391.179
-13.5211 -16.8447 -1.47654 537.645 386.182
-10.975 -17.4058 -2.84344 547.844 384.445
-8.36857 -17.3732 -4.2195 558.085 384.977
-5.82015 -16.8148 -5.44237 567.899 387.536
3.09321 -17.3358 -5.4398 601.945 388.597
5.42249 -18.2297 -4.16621 610.765 386.445
7.90262 -18.6264 -2.78517 619.973 386.267
10.4287 -18.5218 -1.36138 629.186 388.02
12.7807 -17.608 0.238792 637.435 392.843
-0.509458 -11.46 -4.84119 586.23 409.857
-0.218731 -8.47173 -7.6491 587.086 420.307
0.0563526 -5.4977 -10.5339 587.906 430.672
0.313938 -2.53504 -13.2473 588.62 441.047
-2.82668 0.63444 -6.13704 573.895 454.471
-1.12896 1.04692 -7.11251 580.461 456.273
0.658354 1.16698 -7.97138 587.431 457.038
2.28409 0.819565 -6.9758 593.472 456.621
3.76029 0.169525 -6.15114 599.084 454.947
-12.1954 -10.4622 -1.0202 540.538 410.991
-10.689 -11.411 -1.01005 546.563 407.91
-8.85099 -11.6997 -0.959941 553.629 407.459
-7.18662 -11.1563 -0.935719 559.776 410.095
-8.77321 -10.4672 -1.07522 553.561 412.118
-10.5218 -10.2581 -1.03393 546.838 412.33
5.0551 -11.8914 -0.637707 606.468 411.58
6.56765 -12.6733 -0.900528 612.532 409.039
8.39908 -12.7399 -0.984193 619.536 409.382
10.0286 -12.0576 -0.960276 625.506 412.532
8.45531 -11.5491 -0.885588 619.345 413.95
6.71398 -11.5102 -0.813026 612.696 413.53
-5.27383 9.28232 -2.87138 561.022 487.563
-3.59583 7.60809 -4.91785 568.446 481.074
-1.54345 6.32841 -6.54661 577.062 476.354
0.822181 6.42609 -8.25012 586.449 476.936
3.10279 6.05009 -6.37092 594.767 476.942
5.20605 7.04993 -4.72777 602.033 482.022
6.91544 8.52915 -2.58095 607.522 488.96
5.39395 10.0799 -3.97956 601.595 493.834
3.35226 11.0438 -5.075 593.801 496.412
1.00428 11.4097 -6.53425 585.125 496.491
-1.32818 11.2631 -5.25028 575.984 495.588
-3.4725 10.5753 -4.0646 567.756 492.663
-1.16446 8.31062 -5.12134 577.515 484.495
0.918504 8.18524 -7.21663 585.996 483.999
2.90159 8.11564 -4.88172 592.972 485.224
2.89256 8.54917 -4.42296 592.685 487.024
0.931618 8.89069 -6.18575 585.563 487.037
-1.10686 8.76105 -4.58093 577.455 486.41
3 20 21 23
3 21 22 23
3 0 1 36
3 15 16 45
3 0 17 36
3 16 26 45
3 17 18 37
3 25 26 44
3 17 36 37
3 26 44 45
3 18 19 38
3 24 25 43
3 18 37 38
3 25 43 44
3 19 20 38
3 23 24 43
3 20 21 39
3 22 23 42
3 20 38 39
3 23 42 43
3 21 22 27
3 21 27 39
3 22 27 42
3 27 28 42
3 27 28 39
3 28 42 47
3 28 39 40
3 1 36 41
3 15 45 46
3 1 2 41
3 14 15 46
3 28 29 40
3 28 29 47
3 2 40 41
3 14 46 47
3 2 29 40
3 14 29 47
3 2 3 29
3 13 14 29
3 29 30 31
3 29 30 35
3 3 29 31
3 13 29 35
3 30 32 33
3 30 33 34
3 30 31 32
3 30 34 35
3 3 4 31
3 12 13 35
3 4 5 48
3 11 12 54
3 5 6 48
3 10 11 54
3 6 48 59
3 10 54 55
3 6 7 59
3 9 10 55
3 7 58 59
3 9 55 56
3 8 57 58
3 8 56 57
3 7 8 58
3 8 9 56
3 4 31 48
3 12 35 54
3 31 48 49
3 35 53 54
3 31 49 50
3 35 52 53
3 31 32 50
3 34 35 52
3 32 33 50
3 33 34 52
3 33 50 51
3 33 51 52
3 48 49 60
3 49 60 50
3 50 60 61
3 50 51 61
3 51 52 61
3 61 62 52
3 52 53 62
3 53 54 62
3 54 55 63
3 55 56 63
3 56 63 64
3 56 57 64
3 64 65 57
3 57 58 65
3 58 59 65
3 48 59 65
