ply
format ascii 1.0
element vertex 66
property float x
property float y
property float z
property float u
property float v
element face 91
property list uchar int vertex_indices
end_header
-20.0024 -5.69654 21.1401 503.252 434.103
-19.3068 -0.523666 20.6131 504.395 454.11
-18.358 4.61497 20.1501 506.512 474.096
-17.0625 9.65644 18.1426 510.392 493.278
-15.1459 14.3992 13.4832 517.439 510.58
-12.2151 18.434 7.90323 528.872 525.175
-8.43372 21.6469 3.12574 543.658 537.182
-4.07976 24.0269 -1.03519 560.774 546.393
0.842695 24.7804 -4.6479 580.478 549.723
6.07606 23.6235 -0.822168 600.128 548.439
10.424 20.56 3.30922 616.895 539.601
13.9781 16.5972 7.99364 630.745 527.216
16.6685 12.0051 13.4818 641.256 512.389
18.2798 6.97025 18.1237 647.952 495.179
19.0204 1.81039 20.1642 651.976 476.259
19.2061 -3.37426 20.6003 654.268 456.48
18.9908 -8.56812 20.9485 655.035 436.495
-15.6259 -15.36 0.0616563 528.636 390.848
-13.4388 -16.7589 -1.48184 537.938 385.662
-10.882 -17.3736 -2.84965 548.371 383.692
-8.24201 -17.3795 -4.21972 558.929 384.098
-5.64754 -16.8471 -5.43229 569.096 386.621
3.01808 -17.3213 -5.49637 602.779 387.777
5.29989 -18.1672 -4.20887 611.554 385.765
7.72832 -18.5266 -2.81659 620.711 385.717
10.1939 -18.438 -1.36824 629.852 387.43
12.5114 -17.605 0.231315 638.14 392.016
-0.39835 -11.6617 -4.8575 587.567 408.65
-0.109353 -8.63287 -7.6501 588.406 419.439
0.160271 -5.61876 -10.5364 589.198 430.132
0.407424 -2.61908 -13.278 589.872 440.813
-2.7595 0.393212 -6.15958 574.849 453.866
-1.04308 0.794309 -7.1048 581.596 455.673
0.756614 0.922374 -7.94819 588.727 456.491
2.35428 0.58122 -6.98195 594.773 456.074
3.81737 -0.0446432 -6.1785 600.432 454.454
-12.1142 -10.4993 -0.99495 540.905 410.44
-10.5765 -11.4664 -1.01126 547.17 407.238
-8.70022 -11.757 -1.00363 554.519 406.771
-7.0057 -11.194 -0.937287 560.873 409.554
-8.63541 -10.5356 -1.05292 554.385 411.487
-10.4111 -10.318 -1.01603 547.438 411.723
4.88581 -11.8708 -0.654778 607.01 411.173
6.41219 -12.658 -0.955538 613.245 408.559
8.27008 -12.7446 -1.00902 620.472 408.851
9.91739 -12.0368 -0.974097 626.604 412.165
8.32491 -11.5425 -0.897712 620.266 413.546
6.56678 -11.5199 -0.810991 613.437 413.054
-5.7081 9.26626 -2.82564 559.723 488.255
-4.00166 7.41613 -4.87361 567.44 480.982
-1.78913 6.01145 -6.49886 576.863 475.753
0.817209 6.04373 -8.22572 587.368 476.168
3.32444 5.71991 -6.32574 596.69 476.466
5.56885 6.8414 -4.67798 604.59 482.157
7.26992 8.53156 -2.53028 610.078 490.031
5.7122 10.259 -3.9847 603.859 495.636
3.57933 11.4113 -5.04489 595.504 498.963
1.02398 11.8574 -6.51157 585.847 499.275
-1.53848 11.6276 -5.21342 575.684 497.961
-3.81105 10.741 -4.05737 566.891 494.163
-1.64803 7.92378 -5.10411 576.436 483.675
0.900033 7.69863 -7.28697 586.914 482.915
3.33244 7.69751 -4.82447 595.7 484.631
3.40243 9.0026 -4.36618 595.431 489.852
0.993204 9.53995 -6.17554 586.396 490.445
-1.54004 9.25439 -4.55311 576.282 489.041
3 20 21 23
3 21 22 23
3 0 1 36
3 15 16 45
3 0 17 36
3 16 26 45
3 17 18 37
3 25 26 44
3 17 36 37
3 26 44 45
3 18 19 38
3 24 25 43
3 18 37 38
3 25 43 44
3 19 20 38
3 23 24 43
3 20 21 39
3 22 23 42
3 20 38 39
3 23 42 43
3 21 22 27
3 21 27 39
3 22 27 42
3 27 28 42
3 27 28 39
3 28 42 47
3 28 39 40
3 1 36 41
3 15 45 46
3 1 2 41
3 14 15 46
3 28 29 40
3 28 29 47
3 2 40 41
3 14 46 47
3 2 29 40
3 14 29 47
3 2 3 29
3 13 14 29
3 29 30 31
3 29 30 35
3 3 29 31
3 13 29 35
3 30 32 33
3 30 33 34
3 30 31 32
3 30 34 35
3 3 4 31
3 12 13 35
3 4 5 48
3 11 12 54
3 5 6 48
3 10 11 54
3 6 48 59
3 10 54 55
3 6 7 59
3 9 10 55
3 7 58 59
3 9 55 56
3 8 57 58
3 8 56 57
3 7 8 58
3 8 9 56
3 4 31 48
3 12 35 54
3 31 48 49
3 35 53 54
3 31 49 50
3 35 52 53
3 31 32 50
3 34 35 52
3 32 33 50
3 33 34 52
3 33 50 51
3 33 51 52
3 48 49 60
3 49 60 50
3 50 60 61
3 50 51 61
3 51 52 61
3 61 62 52
3 52 53 62
3 53 54 62
3 54 55 63
3 55 56 63
3 56 63 64
3 56 57 64
3 64 65 57
3 57 58 65
3 58 59 65
3 48 59 65
