ply
format ascii 1.0
element vertex 66
property float x
property float y
property float z
property float u
property float v
element face 91
property list uchar int vertex_indices
end_header
-19.6582 -5.66153 20.8559 504.651 433.217
-19.0261 -0.591909 20.3389 505.567 453.108
-18.0912 4.43278 19.9269 507.662 472.963
-16.7068 9.36344 18.1032 511.855 492.146
-14.669 14.0425 13.5202 519.287 509.672
-11.8038 18.2121 7.90536 530.355 525.157
-8.16504 21.7386 3.12677 544.49 538.665
-3.86906 24.4486 -0.988517 561.33 549.423
1.12097 25.3185 -4.61531 581.396 553.38
6.26779 24.0875 -0.878553 601.189 551.569
10.4468 20.9138 3.24136 617.745 541.944
13.8213 16.8861 7.96109 631.298 528.893
16.3579 12.2878 13.5447 641.567 513.598
17.9005 7.22408 18.2282 648.285 495.844
18.6413 1.95412 20.1091 652.529 476.09
18.8486 -3.34853 20.5957 654.99 455.569
18.685 -8.66387 20.9908 656.02 434.84
-15.1253 -15.7016 0.0683457 530.219 388.728
-13.0857 -17.1151 -1.47041 539.018 383.404
-10.6264 -17.7208 -2.85378 549.162 381.438
-8.08365 -17.7213 -4.25933 559.439 381.862
-5.60345 -17.1713 -5.512 569.255 384.468
2.71967 -17.7752 -5.42928 602.085 385.025
5.09172 -18.7378 -4.14618 611.432 382.5
7.6222 -19.1445 -2.74148 621.19 382.246
10.1787 -18.9551 -1.32189 630.851 384.338
12.4666 -17.9027 0.253621 639.139 389.765
-0.729006 -11.9124 -4.86735 586.499 406.953
-0.432563 -9.02402 -7.58813 587.292 417.473
-0.143531 -6.14937 -10.3889 588.077 427.911
0.133641 -3.29279 -13.1006 588.803 438.303
-2.80782 0.210016 -5.99379 574.58 453.304
-1.22863 0.584972 -7.00849 580.869 454.99
0.439038 0.677692 -7.92921 587.577 455.632
2.01119 0.343149 -6.90813 593.635 455.202
3.43615 -0.277137 -6.03934 599.243 453.553
-11.6735 -10.6187 -1.11127 542.333 409.436
-10.315 -11.6181 -1.02366 547.973 406.025
-8.55586 -11.9285 -0.937629 554.958 405.45
-6.9751 -11.4518 -0.904202 560.994 407.876
-8.4242 -10.6317 -1.07376 555.075 410.526
-10.0864 -10.3778 -1.03458 548.462 410.955
4.86571 -12.2818 -0.579537 607.645 408.849
6.32342 -13.0442 -0.85194 613.673 406.284
8.10774 -13.0706 -0.960751 620.705 406.765
9.64033 -12.3484 -1.01333 626.489 410.107
8.13731 -11.7982 -0.856307 620.378 411.789
6.44914 -11.774 -0.79247 613.734 411.317
-4.75626 9.58863 -2.80763 563.152 490.368
-3.22231 8.08091 -4.84495 570.106 484.337
-1.38384 6.81962 -6.5007 578.09 479.5
0.798318 6.92431 -8.20713 586.982 480.113
2.91772 6.52551 -6.39395 595.038 479.879
4.85361 7.51139 -4.72161 601.946 484.955
6.48581 8.78205 -2.57348 607.467 491.195
5.1619 10.4577 -4.11619 602.051 496.79
3.30501 11.6043 -5.228 594.628 500.27
1.02209 12.1054 -6.61369 585.805 500.986
-1.23933 11.8726 -5.33376 576.736 499.705
-3.20175 11.0177 -4.14336 569.065 496.066
-0.925366 8.70851 -4.96433 578.934 487.552
0.883575 8.55026 -7.17193 586.556 486.843
2.62186 8.49036 -4.85053 592.896 487.969
2.64455 9.10326 -4.46028 592.698 490.502
0.910284 9.6085 -6.14853 586.091 491.327
-0.898612 9.3342 -4.50979 578.734 490.159
3 20 21 23
3 21 22 23
3 0 1 36
3 15 16 45
3 0 17 36
3 16 26 45
3 17 18 37
3 25 26 44
3 17 36 37
3 26 44 45
3 18 19 38
3 24 25 43
3 18 37 38
3 25 43 44
3 19 20 38
3 23 24 43
3 20 21 39
3 22 23 42
3 20 38 39
3 23 42 43
3 21 22 27
3 21 27 39
3 22 27 42
3 27 28 42
3 27 28 39
3 28 42 47
3 28 39 40
3 1 36 41
3 15 45 46
3 1 2 41
3 14 15 46
3 28 29 40
3 28 29 47
3 2 40 41
3 14 46 47
3 2 29 40
3 14 29 47
3 2 3 29
3 13 14 29
3 29 30 31
3 29 30 35
3 3 29 31
3 13 29 35
3 30 32 33
3 30 33 34
3 30 31 32
3 30 34 35
3 3 4 31
3 12 13 35
3 4 5 48
3 11 12 54
3 5 6 48
3 10 11 54
3 6 48 59
3 10 54 55
3 6 7 59
3 9 10 55
3 7 58 59
3 9 55 56
3 8 57 58
3 8 56 57
3 7 8 58
3 8 9 56
3 4 31 48
3 12 35 54
3 31 48 49
3 35 53 54
3 31 49 50
3 35 52 53
3 31 32 50
3 34 35 52
3 32 33 50
3 33 34 52
3 33 50 51
3 33 51 52
3 48 49 60
3 49 60 50
3 50 60 61
3 50 51 61
3 51 52 61
3 61 62 52
3 52 53 62
3 53 54 62
3 54 55 63
3 55 56 63
3 56 63 64
3 56 57 64
3 64 65 57
3 57 58 65
3 58 59 65
3 48 59 65
