ply
format ascii 1.0
element vertex 66
property float x
property float y
property float z
property float u
property float v
element face 91
property list uchar int vertex_indices
end_header
-19.8503 -5.88131 20.9993 504.08 433.03
-19.2211 -0.695759 20.4961 505.084 453.275
-18.3004 4.44568 20.0289 507.236 473.458
-16.9644 9.50802 18.1196 511.387 492.88
-14.9827 14.3164 13.4616 518.808 510.397
-12.0543 18.516 7.87208 530.351 525.469
-8.30969 21.9814 3.10599 545.119 538.28
-3.92357 24.5719 -1.02971 562.516 548.145
1.09556 25.4029 -4.67228 582.814 551.551
6.28888 24.1341 -0.866823 602.642 549.864
10.536 20.9361 3.27579 619.268 540.473
13.966 16.8492 7.96621 632.832 527.566
16.5641 12.1855 13.4862 643.11 512.474
18.1299 7.08117 18.1851 649.675 494.985
18.8636 1.83326 20.1439 653.681 475.541
19.0478 -3.42808 20.627 655.893 455.26
18.8454 -8.70168 20.9744 656.626 434.748
-15.2773 -15.6185 0.0646672 530.019 387.957
-13.1657 -16.9509 -1.49182 539.078 382.814
-10.6901 -17.4961 -2.8659 549.278 380.938
-8.14653 -17.4623 -4.24929 559.572 381.341
-5.66109 -16.8932 -5.47834 569.436 383.878
2.88144 -17.4115 -5.4552 603.074 384.676
5.19729 -18.3312 -4.18283 612.126 382.369
7.66514 -18.7314 -2.79377 621.587 382.187
10.1653 -18.603 -1.37192 631.006 384.093
12.4515 -17.6606 0.243106 639.291 389.186
-0.618799 -11.6015 -4.86329 587.437 406.448
-0.347646 -8.70583 -7.62826 588.282 416.71
-0.088282 -5.82153 -10.4578 589.099 426.898
0.15884 -2.95464 -13.1632 589.844 437.064
-2.85778 0.290469 -6.07722 575.323 451.639
-1.21446 0.670669 -7.0426 581.881 453.269
0.510441 0.78156 -7.92555 588.82 453.909
2.10428 0.437982 -6.93375 594.934 453.498
3.55986 -0.182786 -6.11863 600.633 451.887
-11.8622 -10.5149 -1.07633 542.122 408.538
-10.4005 -11.4863 -1.05446 548.143 405.236
-8.57527 -11.7798 -0.994719 555.372 404.716
-6.92894 -11.2615 -0.906046 561.646 407.317
-8.48004 -10.5237 -1.05082 555.376 409.628
-10.2086 -10.2966 -1.02133 548.524 409.957
4.82707 -12.0069 -0.643825 607.892 408.384
6.33323 -12.7682 -0.943128 614.1 405.786
8.15802 -12.817 -1.01173 621.284 406.168
9.75462 -12.1109 -0.982519 627.32 409.462
8.19468 -11.5949 -0.864072 621.019 411.011
6.46438 -11.5696 -0.802954 614.215 410.566
-5.21935 9.27112 -2.7825 562.531 487.269
-3.67499 7.48398 -4.86629 569.632 479.948
-1.64558 6.11339 -6.50525 578.4 474.595
0.780494 6.17158 -8.18294 588.295 474.934
3.13752 5.79777 -6.3445 597.206 475.003
5.259 6.86454 -4.69298 604.798 480.542
6.90023 8.44093 -2.52355 610.228 488.124
5.50623 10.2504 -4.01196 604.57 494.12
3.51904 11.4879 -5.12531 596.671 497.841
1.07539 12.0011 -6.58883 587.288 498.441
-1.3741 11.7652 -5.27629 577.442 497.251
-3.51299 10.8299 -4.08529 569.057 493.383
-1.3334 8.11493 -4.994 578.648 483.13
0.891007 7.92186 -7.16588 587.949 482.22
3.03986 7.85769 -4.81158 595.825 483.64
3.10678 8.90344 -4.39589 595.668 487.914
0.972235 9.46564 -6.16203 587.555 488.684
-1.25608 9.17853 -4.51477 578.511 487.503
3 20 21 23
3 21 22 23
3 0 1 36
3 15 16 45
3 0 17 36
3 16 26 45
3 17 18 37
3 25 26 44
3 17 36 37
3 26 44 45
3 18 19 38
3 24 25 43
3 18 37 38
3 25 43 44
3 19 20 38
3 23 24 43
3 20 21 39
3 22 23 42
3 20 38 39
3 23 42 43
3 21 22 27
3 21 27 39
3 22 27 42
3 27 28 42
3 27 28 39
3 28 42 47
3 28 39 40
3 1 36 41
3 15 45 46
3 1 2 41
3 14 15 46
3 28 29 40
3 28 29 47
3 2 40 41
3 14 46 47
3 2 29 40
3 14 29 47
3 2 3 29
3 13 14 29
3 29 30 31
3 29 30 35
3 3 29 31
3 13 29 35
3 30 32 33
3 30 33 34
3 30 31 32
3 30 34 35
3 3 4 31
3 12 13 35
3 4 5 48
3 11 12 54
3 5 6 48
3 10 11 54
3 6 48 59
3 10 54 55
3 6 7 59
3 9 10 55
3 7 58 59
3 9 55 56
3 8 57 58
3 8 56 57
3 7 8 58
3 8 9 56
3 4 31 48
3 12 35 54
3 31 48 49
3 35 53 54
3 31 49 50
3 35 52 53
3 31 32 50
3 34 35 52
3 32 33 50
3 33 34 52
3 33 50 51
3 33 51 52
3 48 49 60
3 49 60 50
3 50 60 61
3 50 51 61
3 51 52 61
3 61 62 52
3 52 53 62
3 53 54 62
3 54 55 63
3 55 56 63
3 56 63 64
3 56 57 64
3 64 65 57
3 57 58 65
3 58 59 65
3 48 59 65
