ply
format ascii 1.0
element vertex 66
property float x
property float y
property float z
property float u
property float v
element face 91
property list uchar int vertex_indices
end_header
-19.9665 -5.67362 20.9897 504.282 433.311
-19.3481 -0.583979 20.4224 505.419 452.962
-18.4385 4.46857 20.0198 507.647 472.617
-17.126 9.41965 18.1303 511.895 491.471
-15.1434 14.0879 13.4659 519.621 508.441
-12.194 18.1622 7.88567 531.522 523.084
-8.42225 21.512 3.14014 546.567 535.478
-4.01533 24.0059 -1.00427 564.135 544.975
0.99964 24.7795 -4.60465 584.379 548.205
6.18755 23.6713 -0.901618 603.699 546.836
10.4921 20.6862 3.28706 619.981 538.118
14.0344 16.8281 7.95657 633.417 525.967
16.7298 12.3546 13.4912 643.495 511.49
18.3109 7.34471 18.2594 649.63 494.325
19.0428 2.08723 20.2505 653.354 474.949
19.2704 -3.22762 20.7359 655.578 454.657
19.1402 -8.55169 21.1221 656.448 434.184
-15.4804 -15.6503 0.115112 530.494 388.651
-13.3725 -16.9618 -1.46441 539.479 383.662
-10.9281 -17.4967 -2.85741 549.496 381.842
-8.42565 -17.4929 -4.23971 559.584 382.126
-5.98433 -16.9695 -5.45918 569.244 384.457
2.80821 -17.5058 -5.38553 603.412 385.097
5.23255 -18.4754 -4.1322 612.705 382.54
7.81684 -18.8982 -2.75204 622.427 382.191
10.4417 -18.7456 -1.32955 632.134 384.092
12.8427 -17.7301 0.283536 640.678 389.328
-0.799625 -11.5583 -4.87416 587.636 407.158
-0.504859 -8.47734 -7.6687 588.728 418.15
-0.218217 -5.4114 -10.5331 589.813 429.057
0.0635592 -2.35807 -13.2237 590.833 439.976
-2.94318 0.71245 -6.11067 576.27 453.471
-1.30999 1.1192 -7.11361 582.771 455.182
0.412961 1.22679 -7.99412 589.667 455.809
2.05953 0.856611 -7.01984 595.862 455.231
3.55275 0.177575 -6.21962 601.6 453.35
-11.9656 -10.5251 -1.04667 543.007 409.111
-10.5091 -11.5817 -1.02839 548.936 405.48
-8.65333 -11.8437 -0.986534 556.181 405.05
-7.01438 -11.2016 -0.924723 562.329 408.053
-8.57319 -10.4691 -1.07332 556.133 410.354
-10.3088 -10.2544 -1.04489 549.345 410.663
4.92133 -12.0345 -0.642273 608.689 408.583
6.41139 -12.9574 -0.948096 614.804 405.362
8.27655 -13.0302 -0.962413 622.049 405.645
9.9153 -12.2785 -0.883679 628.161 409.079
8.34986 -11.6954 -0.838733 621.925 410.87
6.59495 -11.6275 -0.783569 615.096 410.616
-5.27092 9.21561 -2.80369 563.925 486.8
-3.53101 7.69204 -4.8925 571.693 480.696
-1.47047 6.54036 -6.55124 580.473 476.281
0.857523 6.63442 -8.2647 589.957 476.741
3.13655 6.20458 -6.38797 598.355 476.45
5.30848 7.01479 -4.72313 606.054 480.84
7.19284 8.23242 -2.54603 612.378 486.901
5.65161 9.95567 -4.03321 606.362 492.555
3.56508 11.0972 -5.1058 598.276 495.944
1.11857 11.5691 -6.5253 589.085 496.511
-1.29546 11.4221 -5.24815 579.409 495.663
-3.49085 10.6487 -4.06865 570.783 492.428
-1.14531 8.40879 -5.04988 580.774 484.138
0.966238 8.28037 -7.21555 589.614 483.51
3.02503 8.11032 -4.96043 596.977 484.29
3.06648 8.65754 -4.4775 596.845 486.591
0.989415 9.11277 -6.13674 589.158 487.12
-1.13143 8.97027 -4.51337 580.516 486.504
3 20 21 23
3 21 22 23
3 0 1 36
3 15 16 45
3 0 17 36
3 16 26 45
3 17 18 37
3 25 26 44
3 17 36 37
3 26 44 45
3 18 19 38
3 24 25 43
3 18 37 38
3 25 43 44
3 19 20 38
3 23 24 43
3 20 21 39
3 22 23 42
3 20 38 39
3 23 42 43
3 21 22 27
3 21 27 39
3 22 27 42
3 27 28 42
3 27 28 39
3 28 42 47
3 28 39 40
3 1 36 41
3 15 45 46
3 1 2 41
3 14 15 46
3 28 29 40
3 28 29 47
3 2 40 41
3 14 46 47
3 2 29 40
3 14 29 47
3 2 3 29
3 13 14 29
3 29 30 31
3 29 30 35
3 3 29 31
3 13 29 35
3 30 32 33
3 30 33 34
3 30 31 32
3 30 34 35
3 3 4 31
3 12 13 35
3 4 5 48
3 11 12 54
3 5 6 48
3 10 11 54
3 6 48 59
3 10 54 55
3 6 7 59
3 9 10 55
3 7 58 59
3 9 55 56
3 8 57 58
3 8 56 57
3 7 8 58
3 8 9 56
3 4 31 48
3 12 35 54
3 31 48 49
3 35 53 54
3 31 49 50
3 35 52 53
3 31 32 50
3 34 35 52
3 32 33 50
3 33 34 52
3 33 50 51
3 33 51 52
3 48 49 60
3 49 60 50
3 50 60 61
3 50 51 61
3 51 52 61
3 61 62 52
3 52 53 62
3 53 54 62
3 54 55 63
3 55 56 63
3 56 63 64
3 56 57 64
3 64 65 57
3 57 58 65
3 58 59 65
3 48 59 65
