ply
format ascii 1.0
element vertex 66
property float x
property float y
property float z
property float u
property float v
element face 91
property list uchar int vertex_indices
end_header
-19.5893 -5.62895 20.8225 504.272 433.532
-18.9748 -0.538747 20.2941 505.216 453.595
-18.0472 4.50735 19.8888 507.384 473.623
-16.688 9.44214 18.0873 511.557 492.928
-14.7013 14.1158 13.4901 518.819 510.558
-11.8772 18.3051 7.88917 529.726 526.248
-8.24163 21.8468 3.11893 543.873 539.907
-3.90213 24.5142 -0.9921 560.94 550.556
1.13119 25.331 -4.58593 581.218 554.307
6.31229 24.1338 -0.864074 601.301 552.412
10.513 20.9885 3.27279 618.044 542.663
13.8755 16.9568 7.98109 631.648 529.328
16.3691 12.3565 13.5452 641.839 513.735
17.86 7.29319 18.2643 648.383 495.738
18.5865 1.986 20.1271 652.537 475.663
18.8092 -3.38118 20.6168 654.986 454.771
18.6635 -8.75867 21.0075 656.006 433.688
-14.9981 -15.819 0.0712829 529.51 388.613
-12.9813 -17.1088 -1.46232 538.154 383.726
-10.6148 -17.6327 -2.84017 547.91 382.013
-8.19214 -17.6317 -4.25546 557.732 382.372
-5.83382 -17.1204 -5.52416 567.113 384.762
2.87322 -17.7579 -5.4358 601.618 385.106
5.21908 -18.6859 -4.15168 610.908 382.608
7.71691 -19.0758 -2.74203 620.606 382.314
10.2437 -18.8818 -1.33693 630.237 384.325
12.5146 -17.8361 0.239261 638.563 389.656
-0.833215 -11.9138 -4.88106 585.087 407.063
-0.542782 -8.95524 -7.61418 585.838 417.963
-0.258773 -6.01079 -10.4148 586.581 428.785
0.0179339 -3.08155 -13.0924 587.276 439.582
-2.82587 0.347693 -6.00671 573.643 454.309
-1.28723 0.7022 -7.0224 579.793 455.893
0.337636 0.788437 -7.92219 586.344 456.485
1.89561 0.455123 -6.92975 592.399 455.982
3.30835 -0.150771 -6.0811 597.994 454.315
-11.858 -10.7333 -1.14367 540.543 409.268
-10.4277 -11.7932 -1.02594 546.488 405.599
-8.57654 -12.0939 -0.90702 553.856 405.053
-6.94297 -11.5307 -0.866912 560.113 407.811
-8.46994 -10.708 -1.07437 553.878 410.488
-10.2127 -10.4532 -1.04017 546.923 410.936
4.84293 -12.3831 -0.577635 606.784 408.369
6.34744 -13.2397 -0.847835 613.033 405.406
8.2236 -13.2714 -0.961497 620.461 405.855
9.83986 -12.505 -1.01831 626.605 409.377
8.27836 -11.9178 -0.853212 620.236 411.231
6.50676 -11.8831 -0.803044 613.231 410.807
-4.24673 9.75826 -2.81584 564.51 491.84
-2.91524 8.16818 -4.87856 570.648 485.388
-1.24218 6.84725 -6.54499 577.972 480.227
0.797595 6.93945 -8.26943 586.315 480.726
2.79488 6.55147 -6.42642 593.956 480.409
4.60652 7.59428 -4.74626 600.452 485.611
6.09759 8.9386 -2.57519 605.497 492.045
4.83042 10.3917 -4.07737 600.339 496.893
3.12756 11.3893 -5.19193 593.53 499.925
1.04102 11.8436 -6.59201 585.432 500.609
-1.01157 11.6637 -5.3116 577.151 499.625
-2.80111 10.9681 -4.11853 570.083 496.672
-0.734716 8.71659 -4.92878 579.083 488.238
0.890798 8.51416 -7.12612 585.975 487.299
2.47682 8.49058 -4.84792 591.798 488.415
2.4563 8.98386 -4.44037 591.486 490.473
0.911222 9.4362 -6.07178 585.567 491.255
-0.683224 9.21641 -4.47828 579.045 490.358
3 20 21 23
3 21 22 23
3 0 1 36
3 15 16 45
3 0 17 36
3 16 26 45
3 17 18 37
3 25 26 44
3 17 36 37
3 26 44 45
3 18 19 38
3 24 25 43
3 18 37 38
3 25 43 44
3 19 20 38
3 23 24 43
3 20 21 39
3 22 23 42
3 20 38 39
3 23 42 43
3 21 22 27
3 21 27 39
3 22 27 42
3 27 28 42
3 27 28 39
3 28 42 47
3 28 39 40
3 1 36 41
3 15 45 46
3 1 2 41
3 14 15 46
3 28 29 40
3 28 29 47
3 2 40 41
3 14 46 47
3 2 29 40
3 14 29 47
3 2 3 29
3 13 14 29
3 29 30 31
3 29 30 35
3 3 29 31
3 13 29 35
3 30 32 33
3 30 33 34
3 30 31 32
3 30 34 35
3 3 4 31
3 12 13 35
3 4 5 48
3 11 12 54
3 5 6 48
3 10 11 54
3 6 48 59
3 10 54 55
3 6 7 59
3 9 10 55
3 7 58 59
3 9 55 56
3 8 57 58
3 8 56 57
3 7 8 58
3 8 9 56
3 4 31 48
3 12 35 54
3 31 48 49
3 35 53 54
3 31 49 50
3 35 52 53
3 31 32 50
3 34 35 52
3 32 33 50
3 33 34 52
3 33 50 51
3 33 51 52
3 48 49 60
3 49 60 50
3 50 60 61
3 50 51 61
3 51 52 61
3 61 62 52
3 52 53 62
3 53 54 62
3 54 55 63
3 55 56 63
3 56 63 64
3 56 57 64
3 64 65 57
3 57 58 65
3 58 59 65
3 48 59 65
