ply
format ascii 1.0
element vertex 66
property float x
property float y
property float z
property float u
property float v
element face 91
property list uchar int vertex_indices
end_header
-20.4505 -5.63189 21.0928 502.16 434.414
-19.7652 -0.487946 20.5369 503.374 453.915
-18.7732 4.61384 20.1172 505.738 473.409
-17.3834 9.60509 18.1738 509.984 491.995
-15.3205 14.2793 13.3876 517.507 508.445
-12.2734 18.3016 7.85071 529.137 522.432
-8.42368 21.5706 3.18019 543.856 534.165
-3.96103 23.942 -1.04019 561.078 542.871
1.0667 24.6596 -4.60118 580.796 545.749
6.28649 23.5308 -0.867708 600.198 544.629
10.6572 20.5831 3.35207 616.797 536.537
14.2295 16.6992 7.94639 630.549 524.793
16.9575 12.1958 13.4174 641.076 510.786
18.581 7.19377 18.2587 647.68 494.283
19.3489 1.97898 20.2391 651.712 475.548
19.6 -3.28227 20.6845 654.124 455.854
19.4578 -8.55023 21.0967 655.047 435.997
-15.8127 -15.4758 0.0760518 527.32 390.073
-13.5498 -16.8138 -1.48217 536.676 385.087
-10.9452 -17.3113 -2.84286 547.041 383.477
-8.29751 -17.2278 -4.22524 557.405 384.075
-5.72088 -16.6172 -5.45248 567.308 386.712
2.98012 -17.1686 -5.40817 600.607 387.397
5.3955 -18.1367 -4.14642 609.818 385
7.96911 -18.5927 -2.76728 619.455 384.642
10.5947 -18.5091 -1.3664 629.127 386.357
13.0257 -17.5599 0.259723 637.752 391.383
-0.614052 -11.3111 -4.82576 585.059 408.707
-0.31612 -8.21039 -7.68502 585.903 419.408
-0.0308198 -5.1221 -10.5943 586.713 430.037
0.241135 -2.04378 -13.2777 587.427 440.715
-3.00508 0.910945 -6.22693 572.649 453.736
-1.27307 1.40895 -7.16265 579.304 455.796
0.566267 1.56528 -7.96856 586.441 456.647
2.27376 1.15907 -7.03804 592.862 456.023
3.80331 0.406544 -6.25031 598.739 453.972
-12.4385 -10.5218 -1.00648 538.948 409.493
-10.8508 -11.5719 -1.02633 545.311 406.006
-8.89034 -11.8495 -0.983138 552.851 405.592
-7.14503 -11.1866 -0.935919 559.294 408.678
-8.83427 -10.5084 -1.06145 552.686 410.664
-10.6785 -10.2946 -1.022 545.589 410.907
5.00209 -11.9552 -0.649493 605.732 409.729
6.58912 -12.8817 -0.923448 612.11 406.608
8.54917 -12.9649 -0.982808 619.615 406.89
10.2856 -12.2018 -0.911978 625.989 410.362
8.61894 -11.6607 -0.855656 619.468 411.909
6.77301 -11.6019 -0.798871 612.406 411.57
-5.08182 9.16179 -2.82169 561.559 485.743
-3.53366 7.44095 -4.918 568.423 478.862
-1.53042 6.20207 -6.54879 576.775 474.14
0.786218 6.30857 -8.26219 585.943 474.587
3.03125 5.90549 -6.38944 594.205 474.526
5.11273 6.84873 -4.74753 601.498 479.425
6.756 8.35729 -2.55685 606.834 486.551
5.23968 9.821 -3.92517 600.924 491.069
3.25364 10.7228 -5.02701 593.333 493.415
0.998724 11.0881 -6.48882 584.955 493.496
-1.23842 10.9663 -5.18508 576.184 492.852
-3.3173 10.3577 -4.00858 568.187 490.359
-1.11265 8.1369 -5.10819 577.481 482.192
0.889942 8.03025 -7.20883 585.6 481.575
2.81266 7.91473 -4.92186 592.459 482.669
2.78452 8.27158 -4.43708 592.141 484.208
0.898779 8.6107 -6.17201 585.236 484.197
-1.04402 8.50252 -4.55571 577.514 483.823
3 20 21 23
3 21 22 23
3 0 1 36
3 15 16 45
3 0 17 36
3 16 26 45
3 17 18 37
3 25 26 44
3 17 36 37
3 26 44 45
3 18 19 38
3 24 25 43
3 18 37 38
3 25 43 44
3 19 20 38
3 23 24 43
3 20 21 39
3 22 23 42
3 20 38 39
3 23 42 43
3 21 22 27
3 21 27 39
3 22 27 42
3 27 28 42
3 27 28 39
3 28 42 47
3 28 39 40
3 1 36 41
3 15 45 46
3 1 2 41
3 14 15 46
3 28 29 40
3 28 29 47
3 2 40 41
3 14 46 47
3 2 29 40
3 14 29 47
3 2 3 29
3 13 14 29
3 29 30 31
3 29 30 35
3 3 29 31
3 13 29 35
3 30 32 33
3 30 33 34
3 30 31 32
3 30 34 35
3 3 4 31
3 12 13 35
3 4 5 48
3 11 12 54
3 5 6 48
3 10 11 54
3 6 48 59
3 10 54 55
3 6 7 59
3 9 10 55
3 7 58 59
3 9 55 56
3 8 57 58
3 8 56 57
3 7 8 58
3 8 9 56
3 4 31 48
3 12 35 54
3 31 48 49
3 35 53 54
3 31 49 50
3 35 52 53
3 31 32 50
3 34 35 52
3 32 33 50
3 33 34 52
3 33 50 51
3 33 51 52
3 48 49 60
3 49 60 50
3 50 60 61
3 50 51 61
3 51 52 61
3 61 62 52
3 52 53 62
3 53 54 62
3 54 55 63
3 55 56 63
3 56 63 64
3 56 57 64
3 64 65 57
3 57 58 65
3 58 59 65
3 48 59 65
