ply
format ascii 1.0
element vertex 66
property float x
property float y
property float z
property float u
property float v
element face 91
property list uchar int vertex_indices
end_header
-20.5435 -6.72982 21.5564 465.546 546.044
-19.801 -1.33887 21.3032 468.022 569.554
-18.7928 3.98075 20.7143 471.685 592.742
-17.5261 9.3664 18.4243 476.573 616.001
-15.5943 14.6463 13.5254 484.538 638.506
-12.2903 19.0202 7.93587 498.646 657.169
-8.05645 22.3331 3.35747 516.886 671.504
-3.28878 24.5648 -0.910119 537.583 681.262
1.8434 25.199 -4.71774 560.064 684.195
6.82269 23.8623 -0.806314 581.664 679.69
11.1277 20.8614 3.50239 600.542 667.911
14.629 16.8417 8.06427 616.054 651.623
17.1906 12.0873 13.6035 627.519 632.15
18.5032 6.89842 18.3748 633.663 610.492
19.0495 1.88713 20.6543 636.609 589.123
19.2547 -2.98887 21.0991 638.171 568.018
19.1365 -7.88589 21.2939 638.344 546.738
-17.0197 -14.176 0.0804576 483.327 510.97
-14.917 -15.9014 -1.68471 492.835 503.509
-12.2219 -16.7533 -3.13718 504.775 499.979
-9.33827 -16.8705 -4.46436 517.422 499.69
-6.43942 -16.4486 -5.55495 530.043 501.782
3.74245 -16.7067 -5.58744 574.375 502.133
6.33998 -17.347 -4.40832 585.69 499.902
8.99572 -17.5271 -3.06931 597.182 499.705
11.5704 -17.14 -1.59373 608.232 501.982
13.7353 -15.8846 0.296759 617.348 508.038
-0.546884 -11.8087 -4.87197 554.969 522.914
-0.328634 -8.81482 -7.73812 555.675 535.535
-0.122477 -5.82986 -10.6889 556.335 548.103
0.0842462 -2.87157 -13.5117 556.994 560.574
-3.11668 0.352104 -6.2689 542.14 575.208
-1.32928 0.680542 -7.23182 549.931 576.752
0.491564 0.808256 -8.24047 557.899 577.421
2.163 0.456036 -7.15335 565.15 576.294
3.75182 -0.105532 -6.20523 572.081 574.225
-12.4756 -9.82455 -0.910777 502.537 530.402
-10.9179 -11.1871 -1.24217 509.529 524.654
-8.82152 -11.4605 -1.3666 518.696 523.751
-6.96121 -10.5415 -0.991128 526.633 528.073
-8.70013 -9.67647 -0.987474 518.945 531.582
-10.629 -9.42903 -0.976977 510.518 532.38
4.90963 -11.045 -0.96803 578.344 527.61
6.59054 -12.0816 -1.34667 585.829 523.29
8.63975 -12.1192 -1.18934 594.739 523.448
10.2957 -10.9453 -0.767248 601.747 528.856
8.55899 -10.3298 -0.883381 594.112 531.263
6.66518 -10.3873 -0.897548 585.882 530.736
-7.89908 8.53985 -2.67319 519.933 610.652
-5.57845 6.46705 -4.90003 530.468 601.643
-2.64959 5.04225 -6.56206 543.521 595.625
0.6747 5.14405 -7.98747 558.059 596.337
3.90166 4.62371 -6.34507 572.066 594.789
6.92407 5.62262 -4.69773 584.964 599.817
9.37827 7.44424 -2.54938 595.241 608.414
7.09018 9.26255 -3.78253 585.107 615.804
4.16233 10.2083 -5.03989 572.317 619.303
1.14238 10.6037 -6.54319 559.22 620.36
-1.98625 10.5719 -5.19142 545.527 619.969
-5.11585 9.99516 -3.94731 531.915 617.193
-2.4731 7.31569 -5.31197 543.883 605.722
0.876928 7.33837 -7.23172 558.576 606.02
4.1514 6.9062 -5.07458 572.744 604.939
4.2501 7.48609 -4.4732 573.051 607.565
0.987199 7.84823 -6.45365 558.933 608.37
-2.34463 7.89078 -4.64995 544.316 608.341
3 20 21 23
3 21 22 23
3 0 1 36
3 15 16 45
3 0 17 36
3 16 26 45
3 17 18 37
3 25 26 44
3 17 36 37
3 26 44 45
3 18 19 38
3 24 25 43
3 18 37 38
3 25 43 44
3 19 20 38
3 23 24 43
3 20 21 39
3 22 23 42
3 20 38 39
3 23 42 43
3 21 22 27
3 21 27 39
3 22 27 42
3 27 28 42
3 27 28 39
3 28 42 47
3 28 39 40
3 1 36 41
3 15 45 46
3 1 2 41
3 14 15 46
3 28 29 40
3 28 29 47
3 2 40 41
3 14 46 47
3 2 29 40
3 14 29 47
3 2 3 29
3 13 14 29
3 29 30 31
3 29 30 35
3 3 29 31
3 13 29 35
3 30 32 33
3 30 33 34
3 30 31 32
3 30 34 35
3 3 4 31
3 12 13 35
3 4 5 48
3 11 12 54
3 5 6 48
3 10 11 54
3 6 48 59
3 10 54 55
3 6 7 59
3 9 10 55
3 7 58 59
3 9 55 56
3 8 57 58
3 8 56 57
3 7 8 58
3 8 9 56
3 4 31 48
3 12 35 54
3 31 48 49
3 35 53 54
3 31 49 50
3 35 52 53
3 31 32 50
3 34 35 52
3 32 33 50
3 33 34 52
3 33 50 51
3 33 51 52
3 48 49 60
3 49 60 50
3 50 60 61
3 50 51 61
3 51 52 61
3 61 62 52
3 52 53 62
3 53 54 62
3 54 55 63
3 55 56 63
3 56 63 64
3 56 57 64
3 64 65 57
3 57 58 65
3 58 59 65
3 48 59 65
