ply
format ascii 1.0
element vertex 66
property float x
property float y
property float z
property float u
property float v
element face 91
property list uchar int vertex_indices
end_header
-20.5105 -6.96768 21.6061 465.245 546.545
-19.7649 -1.45532 21.3314 467.982 570.654
-18.7628 3.98789 20.7189 471.868 594.441
-17.5114 9.46554 18.4243 476.953 618.181
-15.61 14.7714 13.5771 485.064 640.897
-12.3072 19.113 7.93911 499.443 659.437
-8.0434 22.3647 3.31732 518.06 673.448
-3.25677 24.5522 -0.936208 539.039 682.914
1.90211 25.1277 -4.72263 561.771 685.439
6.89442 23.7794 -0.790391 583.448 680.571
11.1701 20.7342 3.49295 602.137 668.268
14.625 16.7011 8.07995 617.316 651.609
17.1524 11.9774 13.6287 628.448 631.97
18.4794 6.86532 18.298 634.432 610.398
19.02 1.92929 20.5607 637.125 589.198
19.1937 -2.89182 20.9701 638.327 568.217
19.0395 -7.72941 21.1795 638.112 547.106
-16.9246 -14.4282 0.0338749 483.078 511.464
-14.7561 -16.0559 -1.64292 492.822 504.35
-12.06 -16.8314 -3.10509 504.773 501.038
-9.20824 -16.905 -4.45616 517.328 500.822
-6.3486 -16.4507 -5.57207 529.849 502.943
3.76437 -16.6178 -5.62029 574.045 503.216
6.25225 -17.1971 -4.41535 584.889 501.094
8.79642 -17.355 -3.06225 595.927 500.837
11.2757 -17.025 -1.58066 606.626 502.722
13.4033 -15.8822 0.261222 615.685 508.169
-0.464552 -11.8615 -4.88006 555.058 523.661
-0.268776 -8.9508 -7.72002 555.818 536.015
-0.0888295 -6.05094 -10.6576 556.517 548.306
0.0914838 -3.17766 -13.5027 557.214 560.493
-3.05847 0.215314 -6.23769 542.637 575.959
-1.26904 0.524521 -7.21178 550.489 577.358
0.550766 0.642886 -8.22439 558.494 577.922
2.189 0.317598 -7.10786 565.608 576.813
3.74592 -0.210841 -6.14314 572.396 574.789
-12.548 -9.99391 -0.925801 501.827 531.136
-10.9763 -11.2107 -1.19866 508.83 525.943
-8.94511 -11.4947 -1.30276 517.738 524.892
-7.10912 -10.7019 -0.985613 525.659 528.579
-8.83645 -9.91437 -0.986242 518.037 531.846
-10.7314 -9.68102 -0.976383 509.736 532.677
4.93146 -11.1193 -0.992433 578.297 527.956
6.5988 -11.9786 -1.29473 585.684 524.33
8.56635 -11.9946 -1.15893 594.271 524.474
10.1848 -10.9382 -0.785698 601.213 529.298
8.47392 -10.4302 -0.894674 593.697 531.331
6.63313 -10.5126 -0.912481 585.665 530.786
-7.8294 8.5957 -2.69639 520.741 612.547
-5.47647 6.59667 -4.89111 531.361 603.762
-2.57157 5.18949 -6.57116 544.3 597.684
0.709794 5.28336 -8.01921 558.722 598.229
3.88266 4.79174 -6.30384 572.515 596.626
6.85945 5.77722 -4.65144 585.312 601.445
9.29766 7.55533 -2.56157 595.649 609.73
7.10089 9.41225 -3.7847 585.953 617.457
4.22482 10.396 -5.02772 573.377 621.301
1.21329 10.7923 -6.53419 560.284 622.532
-1.93771 10.7422 -5.22286 546.437 622.173
-5.05634 10.1021 -4.00686 532.795 619.228
-2.48096 7.43198 -5.3286 544.394 607.65
0.925155 7.43009 -7.26395 559.402 607.725
4.2525 7.03569 -5.01496 573.825 606.632
4.388 7.67819 -4.42764 574.315 609.529
1.0668 8.06176 -6.43549 559.904 610.607
-2.33726 8.07289 -4.67364 544.915 610.55
3 20 21 23
3 21 22 23
3 0 1 36
3 15 16 45
3 0 17 36
3 16 26 45
3 17 18 37
3 25 26 44
3 17 36 37
3 26 44 45
3 18 19 38
3 24 25 43
3 18 37 38
3 25 43 44
3 19 20 38
3 23 24 43
3 20 21 39
3 22 23 42
3 20 38 39
3 23 42 43
3 21 22 27
3 21 27 39
3 22 27 42
3 27 28 42
3 27 28 39
3 28 42 47
3 28 39 40
3 1 36 41
3 15 45 46
3 1 2 41
3 14 15 46
3 28 29 40
3 28 29 47
3 2 40 41
3 14 46 47
3 2 29 40
3 14 29 47
3 2 3 29
3 13 14 29
3 29 30 31
3 29 30 35
3 3 29 31
3 13 29 35
3 30 32 33
3 30 33 34
3 30 31 32
3 30 34 35
3 3 4 31
3 12 13 35
3 4 5 48
3 11 12 54
3 5 6 48
3 10 11 54
3 6 48 59
3 10 54 55
3 6 7 59
3 9 10 55
3 7 58 59
3 9 55 56
3 8 57 58
3 8 56 57
3 7 8 58
3 8 9 56
3 4 31 48
3 12 35 54
3 31 48 49
3 35 53 54
3 31 49 50
3 35 52 53
3 31 32 50
3 34 35 52
3 32 33 50
3 33 34 52
3 33 50 51
3 33 51 52
3 48 49 60
3 49 60 50
3 50 60 61
3 50 51 61
3 51 52 61
3 61 62 52
3 52 53 62
3 53 54 62
3 54 55 63
3 55 56 63
3 56 63 64
3 56 57 64
3 64 65 57
3 57 58 65
3 58 59 65
3 48 59 65
