ply
format ascii 1.0
element vertex 66
property float x
property float y
property float z
property float u
property float v
element face 91
property list uchar int vertex_indices
end_header
-17.9023 -6.56123 20.9362 466.908 537.142
-17.3114 -1.18726 20.5495 468.772 563.312
-16.4675 4.14348 20.0204 471.89 589.364
-15.2814 9.38443 18.1507 476.885 615.456
-13.6302 14.3605 13.6813 484.58 641.148
-11.0402 18.7302 7.91823 497.131 664.483
-7.53237 22.3926 2.9468 514.136 684.332
-3.38146 25.323 -0.935305 534.226 700.435
1.56481 26.136 -4.77514 558.568 706.451
6.60421 24.7485 -0.677755 582.572 699.438
10.5009 21.1519 3.10736 601.531 681.643
13.4193 16.7354 8.00613 615.751 659.369
15.3689 11.8615 13.6546 625.262 634.479
16.4212 6.80078 18.0504 630.663 608.902
16.8461 1.7507 19.7901 633.439 584.071
16.7907 -3.27578 20.159 634.098 559.683
16.3712 -8.29514 20.5283 632.996 535.262
-14.656 -16.7785 0.255936 487.779 494.736
-13.0795 -18.5158 -1.42653 495.999 487.156
-10.9178 -19.511 -2.83544 506.86 483.183
-8.54768 -19.7065 -4.16226 518.56 483.085
-6.19861 -19.2553 -5.34891 530.01 486.062
3.85948 -19.7742 -5.37888 578.739 485.434
5.77553 -20.2246 -4.15407 587.902 483.242
7.77476 -20.1413 -2.85522 597.351 483.618
9.64942 -19.4658 -1.41294 606.059 486.787
11.103 -18.1329 0.464021 612.537 492.919
-0.291573 -12.3154 -4.85045 557.131 520.508
-0.0374312 -9.85999 -7.5338 558.292 533.228
0.195783 -7.40765 -10.2111 559.35 545.927
0.404201 -4.97434 -12.9005 560.295 558.533
-2.08456 -0.54757 -5.90393 546.322 577.305
-0.672231 -0.515061 -6.85771 553.29 578.015
0.748214 -0.549353 -7.8641 560.318 578.421
1.93504 -0.639231 -6.7147 565.896 577.857
3.08464 -0.809514 -5.76511 571.341 576.958
-10.0779 -10.9853 -1.05165 508.978 523.952
-9.2272 -11.9329 -1.04143 513.274 519.532
-7.92334 -12.1614 -1.06724 519.626 518.679
-6.86101 -11.5269 -0.811196 524.598 521.861
-7.77042 -10.4088 -1.04005 520.018 527.16
-8.99731 -10.2845 -0.961805 514.051 527.508
4.38133 -11.9121 -0.583919 578.986 522.02
5.29755 -12.5863 -1.01088 583.613 519.066
6.56279 -12.6232 -1.10678 589.752 519.152
7.46068 -11.7464 -1.16219 593.929 523.569
6.54297 -10.9036 -0.952067 589.295 527.403
5.36754 -10.9378 -0.903459 583.612 527.004
-5.37626 10.0955 -2.71554 527.836 627.098
-3.64608 8.41366 -4.97345 536.877 619.99
-1.71261 6.71666 -6.61396 546.808 612.658
0.745285 6.73269 -8.18989 558.929 613.673
3.08344 6.48863 -6.47347 570.016 612.405
5.05715 7.97693 -4.82611 579.013 619.454
6.69615 9.59065 -2.50587 586.264 626.84
5.71287 12.0487 -4.13121 581.279 639.02
3.81055 13.8212 -5.36435 571.925 647.599
1.16009 14.4906 -6.83574 559.207 650.788
-1.61885 14.01 -5.52139 545.666 647.55
-3.80777 12.3755 -4.33079 535.221 638.889
-0.996463 9.17431 -4.8778 549.522 624.125
0.88047 8.87036 -7.15433 559.005 623.702
2.63868 9.1037 -4.49991 567.051 624.344
2.87457 10.7725 -4.26486 567.828 632.372
1.07129 11.3857 -6.14104 559.279 635.57
-0.908324 10.8666 -4.54259 549.565 632.208
3 20 21 23
3 21 22 23
3 0 1 36
3 15 16 45
3 0 17 36
3 16 26 45
3 17 18 37
3 25 26 44
3 17 36 37
3 26 44 45
3 18 19 38
3 24 25 43
3 18 37 38
3 25 43 44
3 19 20 38
3 23 24 43
3 20 21 39
3 22 23 42
3 20 38 39
3 23 42 43
3 21 22 27
3 21 27 39
3 22 27 42
3 27 28 42
3 27 28 39
3 28 42 47
3 28 39 40
3 1 36 41
3 15 45 46
3 1 2 41
3 14 15 46
3 28 29 40
3 28 29 47
3 2 40 41
3 14 46 47
3 2 29 40
3 14 29 47
3 2 3 29
3 13 14 29
3 29 30 31
3 29 30 35
3 3 29 31
3 13 29 35
3 30 32 33
3 30 33 34
3 30 31 32
3 30 34 35
3 3 4 31
3 12 13 35
3 4 5 48
3 11 12 54
3 5 6 48
3 10 11 54
3 6 48 59
3 10 54 55
3 6 7 59
3 9 10 55
3 7 58 59
3 9 55 56
3 8 57 58
3 8 56 57
3 7 8 58
3 8 9 56
3 4 31 48
3 12 35 54
3 31 48 49
3 35 53 54
3 31 49 50
3 35 52 53
3 31 32 50
3 34 35 52
3 32 33 50
3 33 34 52
3 33 50 51
3 33 51 52
3 48 49 60
3 49 60 50
3 50 60 61
3 50 51 61
3 51 52 61
3 61 62 52
3 52 53 62
3 53 54 62
3 54 55 63
3 55 56 63
3 56 63 64
3 56 57 64
3 64 65 57
3 57 58 65
3 58 59 65
3 48 59 65
