ply
format ascii 1.0
element vertex 66
property float x
property float y
property float z
property float u
property float v
element face 91
property list uchar int vertex_indices
end_header
-19.9166 -6.78748 21.5603 465.754 544.198
-19.2319 -1.16998 21.2811 468.51 569.085
-18.3378 4.39699 20.6691 472.241 593.794
-17.2067 9.91242 18.4397 477.257 618.454
-15.4475 15.1251 13.6093 485.443 642.078
-12.3021 19.3877 7.93874 499.926 661.662
-8.13613 22.5939 3.19918 518.841 676.534
-3.3964 24.7721 -0.993128 540.268 686.837
1.79175 25.2468 -4.80111 563.714 689.597
6.95638 23.9464 -0.720943 586.008 683.697
11.2944 20.8066 3.44501 604.74 669.618
14.6965 16.6548 8.1625 619.313 650.961
17.0232 11.8221 13.7516 629.047 629.15
18.1511 6.67205 18.3374 633.647 605.978
18.5438 1.61215 20.4695 635.352 583.419
18.5504 -3.40322 20.8267 635.606 561.221
18.2341 -8.41753 21.0663 634.45 539.022
-16.551 -14.4765 0.0730708 484.167 512.614
-14.4651 -16.2245 -1.60393 493.722 505.171
-11.8055 -17.0401 -3.03594 505.724 501.852
-9.00027 -17.1033 -4.39974 518.318 501.859
-6.20822 -16.6222 -5.55329 530.793 504.249
3.94648 -16.7932 -5.72121 575.686 504.036
6.30018 -17.3568 -4.4637 585.932 501.538
8.73156 -17.4981 -3.06766 596.478 500.895
11.114 -17.1382 -1.57749 606.766 502.456
13.1363 -15.9258 0.224569 615.372 507.732
-0.296779 -12.0099 -4.90241 556.558 524.869
-0.104654 -9.17481 -7.70736 557.658 537.696
0.0659358 -6.3516 -10.5911 558.674 550.477
0.226022 -3.54759 -13.3928 559.634 563.165
-2.91122 -0.165198 -6.18669 544.542 577.205
-1.16021 0.12149 -7.1456 552.4 578.662
0.629619 0.21935 -8.12052 560.443 579.288
2.20305 -0.0475002 -7.02703 567.25 578.077
3.69874 -0.50921 -6.00354 573.734 576.009
-12.2483 -10.3096 -0.947919 503.093 531.355
-10.6637 -11.5473 -1.16052 510.192 525.99
-8.61491 -11.7993 -1.26098 519.272 524.992
-6.82552 -10.8805 -0.901771 527.073 529.108
-8.54693 -10.0493 -0.966394 519.433 532.699
-10.4593 -9.8519 -0.959278 510.973 533.471
4.88233 -11.2417 -0.952019 578.821 528.124
6.48921 -12.1923 -1.24375 586.015 524.036
8.46536 -12.2243 -1.16146 594.734 523.989
10.066 -11.1117 -0.936755 601.711 528.965
8.40324 -10.496 -0.968138 594.336 531.603
6.56525 -10.5641 -0.977084 586.222 531.208
-7.41897 8.60301 -2.70763 523.639 615.358
-5.1744 6.67595 -4.87083 533.975 607.182
-2.45657 5.28171 -6.57424 546.306 601.338
0.607786 5.35871 -8.07565 560.057 601.992
3.55744 4.97633 -6.33512 572.855 600.275
6.29496 6.05353 -4.62987 584.642 605.001
8.52951 7.84453 -2.54734 594.112 612.816
6.64788 9.88312 -3.83899 585.874 621.86
4.00507 11.0753 -5.14964 574.324 627.126
1.0389 11.4959 -6.69264 561.422 628.99
-2.07828 11.3412 -5.36221 547.467 628.008
-4.97668 10.3889 -4.08908 534.53 623.519
-2.42348 7.46507 -5.25885 546.14 610.852
0.769471 7.3712 -7.27709 560.544 610.81
3.86967 7.18645 -4.87056 573.9 609.906
4.06099 8.33752 -4.3112 574.6 614.945
0.93739 8.77292 -6.37078 561.077 616.92
-2.31424 8.62965 -4.64109 546.469 615.94
3 20 21 23
3 21 22 23
3 0 1 36
3 15 16 45
3 0 17 36
3 16 26 45
3 17 18 37
3 25 26 44
3 17 36 37
3 26 44 45
3 18 19 38
3 24 25 43
3 18 37 38
3 25 43 44
3 19 20 38
3 23 24 43
3 20 21 39
3 22 23 42
3 20 38 39
3 23 42 43
3 21 22 27
3 21 27 39
3 22 27 42
3 27 28 42
3 27 28 39
3 28 42 47
3 28 39 40
3 1 36 41
3 15 45 46
3 1 2 41
3 14 15 46
3 28 29 40
3 28 29 47
3 2 40 41
3 14 46 47
3 2 29 40
3 14 29 47
3 2 3 29
3 13 14 29
3 29 30 31
3 29 30 35
3 3 29 31
3 13 29 35
3 30 32 33
3 30 33 34
3 30 31 32
3 30 34 35
3 3 4 31
3 12 13 35
3 4 5 48
3 11 12 54
3 5 6 48
3 10 11 54
3 6 48 59
3 10 54 55
3 6 7 59
3 9 10 55
3 7 58 59
3 9 55 56
3 8 57 58
3 8 56 57
3 7 8 58
3 8 9 56
3 4 31 48
3 12 35 54
3 31 48 49
3 35 53 54
3 31 49 50
3 35 52 53
3 31 32 50
3 34 35 52
3 32 33 50
3 33 34 52
3 33 50 51
3 33 51 52
3 48 49 60
3 49 60 50
3 50 60 61
3 50 51 61
3 51 52 61
3 61 62 52
3 52 53 62
3 53 54 62
3 54 55 63
3 55 56 63
3 56 63 64
3 56 57 64
3 64 65 57
3 57 58 65
3 58 59 65
3 48 59 65
