ply
format ascii 1.0
element vertex 66
property float x
property float y
property float z
property float u
property float v
element face 91
property list uchar int vertex_indices
end_header
-19.5061 -6.56603 21.4114 466.627 542.522
-18.862 -1.19623 21.0503 469.182 566.987
-17.9716 4.11825 20.4628 472.866 591.2
-16.8344 9.46768 18.2271 477.691 615.456
-15.0844 14.7012 13.5377 485.345 639.029
-11.9879 19.0687 7.78266 499.207 658.669
-7.88929 22.3907 3.07762 517.693 673.706
-3.22917 24.7067 -0.967686 538.799 684.256
1.86243 25.3124 -4.82282 561.99 687.065
6.85497 23.9817 -0.74897 584.769 681.693
11.1057 20.887 3.29836 604.295 668.235
14.4769 16.7864 7.98437 619.88 650.186
16.7523 11.9364 13.6733 630.516 628.728
17.7688 6.69585 18.2499 635.461 605.311
18.1284 1.62064 20.4007 637.434 582.404
18.1894 -3.34188 20.8101 638.06 559.847
17.9467 -8.30348 21.15 637.304 537.267
-15.995 -15.9218 0.297784 483.548 498.463
-14.0765 -17.6476 -1.4963 492.429 490.597
-11.6036 -18.5822 -2.92839 503.774 486.403
-8.92656 -18.7351 -4.17406 515.992 485.797
-6.2705 -18.2232 -5.26971 528.064 488.229
3.70709 -18.5466 -5.34969 573.523 487.463
6.11091 -19.1622 -4.20193 584.499 484.925
8.60087 -19.1865 -2.95868 595.824 485.093
10.9541 -18.5167 -1.50827 606.474 488.429
12.8391 -17.0601 0.449 614.929 495.354
-0.486873 -11.3002 -4.85054 553.902 520.196
-0.266763 -8.45067 -7.66677 554.737 532.958
-0.0628804 -5.60853 -10.5592 555.499 545.678
0.135128 -2.79203 -13.3862 556.235 558.287
-2.89556 0.556159 -6.28938 542.107 573.89
-1.21418 0.801003 -7.15052 549.757 575.055
0.488313 0.884558 -8.08996 557.515 575.481
2.03349 0.609305 -7.06833 564.558 574.421
3.51908 0.167656 -6.18581 571.344 572.588
-11.3433 -9.92835 -0.863025 504.317 525.99
-10.0754 -11.0804 -1.21271 510.177 520.807
-8.33713 -11.2409 -1.39378 518.107 520.186
-6.85274 -10.3501 -0.936698 524.797 524.385
-8.2464 -9.46892 -1.00068 518.389 528.292
-9.84828 -9.34123 -0.957061 511.085 528.762
4.83859 -10.7936 -0.942884 578.068 523.201
6.17073 -11.7318 -1.40321 584.207 518.987
7.85181 -11.8024 -1.23151 591.865 518.8
9.16899 -10.7641 -0.842534 597.784 523.653
7.79694 -10.0481 -0.944583 591.486 526.806
6.24891 -10.0578 -0.978452 584.438 526.649
-7.65611 8.81881 -2.64228 519.794 611.465
-5.2894 6.98618 -4.98963 530.731 603.1
-2.52547 5.59899 -6.61986 543.437 596.85
0.611048 5.64968 -8.05095 557.734 597.189
3.65913 5.23138 -6.43848 571.624 595.633
6.50398 6.24691 -4.80494 584.485 600.592
8.94742 7.84315 -2.49152 595.469 608.222
6.88326 9.93057 -3.81455 585.938 617.472
4.10519 11.179 -5.02951 573.213 622.859
1.07187 11.6707 -6.54721 559.384 624.757
-2.09134 11.5203 -5.19926 544.974 623.956
-5.09801 10.5893 -4.04772 531.334 619.595
-2.35831 7.88895 -5.1624 544.016 607.406
0.790367 7.8125 -7.309 558.387 607.109
3.86585 7.54567 -4.90182 572.381 606.309
4.06325 8.59239 -4.39093 573.199 611.13
0.929383 9.00898 -6.42726 558.924 612.638
-2.29035 8.94298 -4.61527 544.244 612.254
3 20 21 23
3 21 22 23
3 0 1 36
3 15 16 45
3 0 17 36
3 16 26 45
3 17 18 37
3 25 26 44
3 17 36 37
3 26 44 45
3 18 19 38
3 24 25 43
3 18 37 38
3 25 43 44
3 19 20 38
3 23 24 43
3 20 21 39
3 22 23 42
3 20 38 39
3 23 42 43
3 21 22 27
3 21 27 39
3 22 27 42
3 27 28 42
3 27 28 39
3 28 42 47
3 28 39 40
3 1 36 41
3 15 45 46
3 1 2 41
3 14 15 46
3 28 29 40
3 28 29 47
3 2 40 41
3 14 46 47
3 2 29 40
3 14 29 47
3 2 3 29
3 13 14 29
3 29 30 31
3 29 30 35
3 3 29 31
3 13 29 35
3 30 32 33
3 30 33 34
3 30 31 32
3 30 34 35
3 3 4 31
3 12 13 35
3 4 5 48
3 11 12 54
3 5 6 48
3 10 11 54
3 6 48 59
3 10 54 55
3 6 7 59
3 9 10 55
3 7 58 59
3 9 55 56
3 8 57 58
3 8 56 57
3 7 8 58
3 8 9 56
3 4 31 48
3 12 35 54
3 31 48 49
3 35 53 54
3 31 49 50
3 35 52 53
3 31 32 50
3 34 35 52
3 32 33 50
3 33 34 52
3 33 50 51
3 33 51 52
3 48 49 60
3 49 60 50
3 50 60 61
3 50 51 61
3 51 52 61
3 61 62 52
3 52 53 62
3 53 54 62
3 54 55 63
3 55 56 63
3 56 63 64
3 56 57 64
3 64 65 57
3 57 58 65
3 58 59 65
3 48 59 65
