ply
format ascii 1.0
element vertex 66
property float x
property float y
property float z
property float u
property float v
element face 91
property list uchar int vertex_indices
end_header
-19.9613 -6.6018 21.4419 466.001 545.743
-19.3231 -1.07025 21.1859 468.551 570.259
-18.4439 4.40566 20.6135 472.196 594.565
-17.2808 9.82778 18.4083 477.241 618.774
-15.4555 14.9781 13.5778 485.456 642.015
-12.2903 19.2567 7.93407 499.713 661.533
-8.1352 22.5378 3.2387 518.319 676.618
-3.37802 24.7832 -0.957912 539.6 687.116
1.8494 25.29 -4.78759 563.021 689.922
7.03776 24.0448 -0.71174 585.679 684.372
11.4284 20.9901 3.46748 604.898 670.77
14.869 16.875 8.16483 619.927 652.39
17.1748 12.0292 13.7792 629.897 630.65
18.2212 6.80165 18.4372 634.4 607.229
18.5799 1.61209 20.5405 636.082 584.135
18.5877 -3.54264 20.9196 636.358 561.31
18.2812 -8.6936 21.1715 635.256 538.495
-16.396 -14.4453 0.0803001 484.032 512.874
-14.3811 -16.1519 -1.62428 493.181 505.562
-11.809 -16.9547 -3.05749 504.723 502.254
-9.09225 -17.0515 -4.42049 516.86 502.071
-6.38735 -16.6289 -5.57987 528.899 504.169
3.90856 -16.867 -5.7082 574.455 503.66
6.34666 -17.4473 -4.46469 585.16 501.125
8.85385 -17.5818 -3.07771 596.135 500.553
11.299 -17.1513 -1.60653 606.798 502.472
13.3455 -15.8418 0.197795 615.622 508.231
-0.482894 -12.1376 -4.89503 554.712 524.286
-0.265553 -9.30123 -7.68992 555.763 537.054
-0.0649453 -6.47662 -10.5591 556.748 549.776
0.129531 -3.67114 -13.3463 557.699 562.407
-2.94709 -0.0954969 -6.17677 543.283 577.512
-1.2476 0.165692 -7.13191 550.867 578.828
0.486824 0.245595 -8.10525 558.617 579.346
2.06827 -0.0228582 -7.02786 565.532 578.158
3.57575 -0.474783 -6.00508 572.134 576.16
-12.1483 -10.216 -0.978982 502.683 531.88
-10.5777 -11.4558 -1.18834 509.713 526.494
-8.53904 -11.7077 -1.25922 518.748 525.491
-6.74514 -10.8517 -0.908969 526.605 529.343
-8.45049 -9.99641 -0.979922 519.024 533.042
-10.358 -9.77225 -0.970586 510.576 533.934
4.8749 -11.2865 -0.941799 578.019 528.025
6.51923 -12.2216 -1.2363 585.366 523.997
8.51047 -12.2244 -1.18032 594.167 524.083
10.1295 -11.135 -0.962615 601.25 528.969
8.44031 -10.535 -0.971985 593.748 531.535
6.58096 -10.6001 -0.986648 585.531 531.152
-7.13638 8.70652 -2.70544 523.987 615.956
-5.01207 6.74828 -4.86807 533.673 607.571
-2.40385 5.33228 -6.57047 545.43 601.575
0.563989 5.4205 -8.04998 558.678 602.232
3.44683 5.02127 -6.37631 571.303 600.488
6.12606 6.13055 -4.66488 582.945 605.401
8.33204 7.91231 -2.5646 592.423 613.235
6.42624 9.82656 -3.84114 584.004 621.699
3.83336 10.9186 -5.1815 572.595 626.497
0.973635 11.311 -6.70911 560.059 628.201
-2.00156 11.2009 -5.36409 546.792 627.457
-4.78941 10.3622 -4.06249 534.395 623.504
-2.28094 7.58984 -5.20333 545.735 611.46
0.716211 7.50001 -7.21158 559.168 611.372
3.64999 7.30194 -4.91058 571.953 610.472
3.7796 8.14431 -4.36294 572.434 614.162
0.838306 8.50891 -6.39645 559.583 615.778
-2.19503 8.43267 -4.61615 546.019 615.147
3 20 21 23
3 21 22 23
3 0 1 36
3 15 16 45
3 0 17 36
3 16 26 45
3 17 18 37
3 25 26 44
3 17 36 37
3 26 44 45
3 18 19 38
3 24 25 43
3 18 37 38
3 25 43 44
3 19 20 38
3 23 24 43
3 20 21 39
3 22 23 42
3 20 38 39
3 23 42 43
3 21 22 27
3 21 27 39
3 22 27 42
3 27 28 42
3 27 28 39
3 28 42 47
3 28 39 40
3 1 36 41
3 15 45 46
3 1 2 41
3 14 15 46
3 28 29 40
3 28 29 47
3 2 40 41
3 14 46 47
3 2 29 40
3 14 29 47
3 2 3 29
3 13 14 29
3 29 30 31
3 29 30 35
3 3 29 31
3 13 29 35
3 30 32 33
3 30 33 34
3 30 31 32
3 30 34 35
3 3 4 31
3 12 13 35
3 4 5 48
3 11 12 54
3 5 6 48
3 10 11 54
3 6 48 59
3 10 54 55
3 6 7 59
3 9 10 55
3 7 58 59
3 9 55 56
3 8 57 58
3 8 56 57
3 7 8 58
3 8 9 56
3 4 31 48
3 12 35 54
3 31 48 49
3 35 53 54
3 31 49 50
3 35 52 53
3 31 32 50
3 34 35 52
3 32 33 50
3 33 34 52
3 33 50 51
3 33 51 52
3 48 49 60
3 49 60 50
3 50 60 61
3 50 51 61
3 51 52 61
3 61 62 52
3 52 53 62
3 53 54 62
3 54 55 63
3 55 56 63
3 56 63 64
3 56 57 64
3 64 65 57
3 57 58 65
3 58 59 65
3 48 59 65
