ply
format ascii 1.0
element vertex 66
property float x
property float y
property float z
property float u
property float v
element face 91
property list uchar int vertex_indices
end_header
-19.3264 -6.66391 21.2242 465.007 545.209
-18.7488 -1.10974 20.8917 467.573 570.442
-17.9059 4.39502 20.366 471.365 595.498
-16.6938 9.75495 18.3419 477.017 620.246
-14.8742 14.7318 13.6756 485.75 643.871
-11.9338 18.9489 7.97622 499.703 664.304
-8.0211 22.2926 3.12875 517.973 680.597
-3.46067 24.7171 -0.926197 539.097 692.553
1.71725 25.2565 -4.71381 563.019 695.917
6.90259 24.0109 -0.66024 586.046 689.403
11.0901 20.7854 3.37908 604.586 673.916
14.3064 16.6308 8.18956 618.646 654.034
16.484 11.9006 13.8131 627.908 631.349
17.6588 6.87743 18.3289 632.765 607.581
18.1344 1.77139 20.2662 634.77 584.02
18.1318 -3.38044 20.6002 634.803 560.615
17.7818 -8.52191 20.8826 633.268 537.265
-15.7179 -15.0125 0.0525322 484.088 512.294
-13.8912 -16.6504 -1.51688 492.586 505.256
-11.5234 -17.4287 -2.95004 503.506 502.085
-9.02728 -17.5244 -4.38481 514.996 502.007
-6.55367 -17.1238 -5.6328 526.353 504.133
3.93262 -17.3631 -5.72845 573.896 503.181
6.17953 -17.8737 -4.41511 583.928 500.592
8.50144 -17.9555 -2.97724 594.278 499.917
10.7633 -17.4651 -1.51749 604.343 501.826
12.6007 -16.1195 0.182206 612.441 507.55
-0.534901 -12.5307 -4.94566 553.471 524.837
-0.343897 -9.96303 -7.64467 554.624 537.085
-0.170333 -7.40574 -10.3873 555.703 549.295
-6.14477e-05 -4.86564 -13.111 556.765 561.423
-2.73512 -0.641476 -5.98854 543.428 578.89
-1.15787 -0.484492 -7.00631 550.698 579.851
0.445416 -0.469537 -8.00479 558.086 580.165
1.90145 -0.65765 -6.88146 564.552 579.071
3.28755 -0.997627 -5.85753 570.715 577.311
-12.0127 -10.6352 -1.15165 500.955 532.43
-10.4891 -11.77 -1.08031 507.871 527.291
-8.5174 -12.0647 -1.01871 516.804 525.963
-6.78981 -11.37 -0.798139 524.596 529.077
-8.41677 -10.4193 -1.0198 517.233 533.416
-10.2892 -10.1743 -1.01556 508.742 534.505
4.69814 -11.7723 -0.803113 576.671 527.377
6.28938 -12.534 -1.01638 583.922 523.994
8.21449 -12.4957 -1.07869 592.654 524.202
9.77721 -11.5126 -1.10782 599.724 528.677
8.1633 -10.8973 -0.987272 592.384 531.418
6.33815 -10.9938 -0.984372 584.113 530.961
-5.39341 9.51756 -2.76015 530.815 624.125
-3.77047 7.67716 -4.8553 538.458 616.289
-1.76397 6.10322 -6.60442 547.792 609.583
0.68691 6.15455 -8.22291 559.097 610.213
3.07026 5.85008 -6.36712 569.678 608.434
5.18292 7.17112 -4.6282 579.018 614.039
6.88131 8.88914 -2.59224 586.439 621.37
5.59466 10.7476 -3.98733 580.747 630.092
3.63012 11.9848 -5.35051 571.988 635.986
1.15306 12.4613 -6.87618 560.94 638.467
-1.43966 12.2273 -5.56842 549.033 637.081
-3.63915 11.1856 -4.22422 538.917 632.033
-1.52116 8.22102 -5.04504 548.666 618.819
0.834899 7.94403 -7.1633 559.608 618.075
3.16583 8.00612 -4.73414 569.875 617.824
3.3303 9.29138 -4.28399 570.544 623.542
1.02536 9.83292 -6.17008 560.319 626.402
-1.3876 9.50958 -4.55287 549.19 624.542
3 20 21 23
3 21 22 23
3 0 1 36
3 15 16 45
3 0 17 36
3 16 26 45
3 17 18 37
3 25 26 44
3 17 36 37
3 26 44 45
3 18 19 38
3 24 25 43
3 18 37 38
3 25 43 44
3 19 20 38
3 23 24 43
3 20 21 39
3 22 23 42
3 20 38 39
3 23 42 43
3 21 22 27
3 21 27 39
3 22 27 42
3 27 28 42
3 27 28 39
3 28 42 47
3 28 39 40
3 1 36 41
3 15 45 46
3 1 2 41
3 14 15 46
3 28 29 40
3 28 29 47
3 2 40 41
3 14 46 47
3 2 29 40
3 14 29 47
3 2 3 29
3 13 14 29
3 29 30 31
3 29 30 35
3 3 29 31
3 13 29 35
3 30 32 33
3 30 33 34
3 30 31 32
3 30 34 35
3 3 4 31
3 12 13 35
3 4 5 48
3 11 12 54
3 5 6 48
3 10 11 54
3 6 48 59
3 10 54 55
3 6 7 59
3 9 10 55
3 7 58 59
3 9 55 56
3 8 57 58
3 8 56 57
3 7 8 58
3 8 9 56
3 4 31 48
3 12 35 54
3 31 48 49
3 35 53 54
3 31 49 50
3 35 52 53
3 31 32 50
3 34 35 52
3 32 33 50
3 33 34 52
3 33 50 51
3 33 51 52
3 48 49 60
3 49 60 50
3 50 60 61
3 50 51 61
3 51 52 61
3 61 62 52
3 52 53 62
3 53 54 62
3 54 55 63
3 55 56 63
3 56 63 64
3 56 57 64
3 64 65 57
3 57 58 65
3 58 59 65
3 48 59 65
