ply
format ascii 1.0
element vertex 66
property float x
property float y
property float z
property float u
property float v
element face 91
property list uchar int vertex_indices
end_header
-18.9458 -6.68484 21.2292 467.222 540.346
-18.427 -1.25832 20.7839 469.242 565.421
-17.6504 4.12863 20.2655 472.462 590.338
-16.5339 9.44206 18.2353 477.445 615.052
-14.8065 14.4802 13.647 485.587 638.729
-11.8851 18.7482 7.8429 499.441 659.037
-7.97371 22.118 2.98453 517.808 675.214
-3.4329 24.5787 -0.938951 539.027 687.183
1.67891 25.1825 -4.76955 563.01 690.633
6.73685 23.9188 -0.749027 585.9 684.906
10.8743 20.7223 3.2021 604.71 670.209
14.1208 16.6464 8.00853 619.377 651.33
16.3635 11.976 13.7223 629.352 629.569
17.5072 6.93907 18.2374 634.445 606.122
17.9272 1.86647 20.2414 636.524 582.638
17.919 -3.20223 20.6234 636.836 559.255
17.596 -8.2602 20.9825 635.699 535.9
-15.4158 -16.2907 0.304008 486.878 497.871
-13.7414 -17.9032 -1.40445 494.933 490.692
-11.5479 -18.7663 -2.85579 505.289 486.988
-9.185 -18.9277 -4.17596 516.352 486.521
-6.85098 -18.4888 -5.33769 527.216 488.806
3.93171 -18.8449 -5.35667 576.914 487.991
6.11782 -19.4097 -4.15577 586.877 485.469
8.39971 -19.4198 -2.85242 597.224 485.502
10.5735 -18.7643 -1.39591 607.002 488.584
12.282 -17.3178 0.464696 614.524 495.244
-0.614812 -11.6115 -4.8975 555.346 520.938
-0.412557 -8.93533 -7.66328 556.418 533.484
-0.224464 -6.26635 -10.4573 557.428 545.998
-0.0355529 -3.61718 -13.2008 558.436 558.417
-2.83692 0.210428 -6.12212 544.338 575.326
-1.22769 0.368076 -7.07817 551.859 576.245
0.399286 0.383369 -8.04537 559.474 576.51
1.90256 0.168687 -6.98291 566.282 575.559
3.34443 -0.20244 -6.08892 572.84 573.894
-11.2522 -10.3181 -1.00701 505.754 525.802
-9.98892 -11.4986 -1.11897 511.68 520.468
-8.2203 -11.6763 -1.20521 519.852 519.791
-6.75502 -10.7565 -0.840957 526.483 524.114
-8.12822 -9.74194 -1.04126 520.104 528.698
-9.76534 -9.61138 -1.00985 512.548 529.173
4.61894 -11.2176 -0.810902 578.908 522.858
5.91941 -12.2028 -1.22714 585.028 518.448
7.63492 -12.2689 -1.11204 592.921 518.266
8.97736 -11.235 -0.907196 598.997 523.117
7.63411 -10.3803 -0.933456 592.746 526.955
6.04256 -10.3722 -0.952946 585.417 526.872
-6.29766 9.11049 -2.65877 527.261 615.818
-4.13501 7.67678 -4.95145 537.625 609.544
-1.82422 6.44724 -6.67846 548.584 604.18
0.76431 6.53325 -8.24593 560.699 604.888
3.28116 6.12615 -6.45191 572.098 603.075
5.68204 7.00561 -4.74169 582.872 607.187
7.91147 8.18247 -2.48435 592.764 612.616
6.39352 10.4463 -3.98754 585.784 623.039
4.06816 11.9615 -5.25097 575.113 629.935
1.25781 12.5479 -6.75311 562.312 632.53
-1.66604 12.3099 -5.44708 548.697 631.115
-4.26182 11.109 -4.20112 536.677 625.293
-1.65757 8.55373 -5.04135 548.98 613.78
0.941002 8.42501 -7.26104 561.24 613.546
3.49437 8.24288 -4.81324 572.707 612.725
3.75822 9.33829 -4.35554 573.778 617.759
1.09786 9.8889 -6.20697 561.715 620.227
-1.64636 9.66785 -4.54843 548.882 618.879
3 20 21 23
3 21 22 23
3 0 1 36
3 15 16 45
3 0 17 36
3 16 26 45
3 17 18 37
3 25 26 44
3 17 36 37
3 26 44 45
3 18 19 38
3 24 25 43
3 18 37 38
3 25 43 44
3 19 20 38
3 23 24 43
3 20 21 39
3 22 23 42
3 20 38 39
3 23 42 43
3 21 22 27
3 21 27 39
3 22 27 42
3 27 28 42
3 27 28 39
3 28 42 47
3 28 39 40
3 1 36 41
3 15 45 46
3 1 2 41
3 14 15 46
3 28 29 40
3 28 29 47
3 2 40 41
3 14 46 47
3 2 29 40
3 14 29 47
3 2 3 29
3 13 14 29
3 29 30 31
3 29 30 35
3 3 29 31
3 13 29 35
3 30 32 33
3 30 33 34
3 30 31 32
3 30 34 35
3 3 4 31
3 12 13 35
3 4 5 48
3 11 12 54
3 5 6 48
3 10 11 54
3 6 48 59
3 10 54 55
3 6 7 59
3 9 10 55
3 7 58 59
3 9 55 56
3 8 57 58
3 8 56 57
3 7 8 58
3 8 9 56
3 4 31 48
3 12 35 54
3 31 48 49
3 35 53 54
3 31 49 50
3 35 52 53
3 31 32 50
3 34 35 52
3 32 33 50
3 33 34 52
3 33 50 51
3 33 51 52
3 48 49 60
3 49 60 50
3 50 60 61
3 50 51 61
3 51 52 61
3 61 62 52
3 52 53 62
3 53 54 62
3 54 55 63
3 55 56 63
3 56 63 64
3 56 57 64
3 64 65 57
3 57 58 65
3 58 59 65
3 48 59 65
