ply
format ascii 1.0
element vertex 66
property float x
property float y
property float z
property float u
property float v
element face 91
property list uchar int vertex_indices
end_header
-20.2961 -6.79531 21.5456 465.313 545.521
-19.621 -1.34491 21.2876 467.826 569.34
-18.6898 4.04278 20.7143 471.496 592.89
-17.5012 9.46214 18.4047 476.479 616.503
-15.6542 14.7387 13.5662 484.625 639.407
-12.401 19.0972 7.94955 499.066 658.384
-8.16334 22.3712 3.32015 517.784 672.769
-3.37356 24.5634 -0.917969 538.957 682.505
1.79196 25.1453 -4.75132 561.86 685.271
6.84089 23.8641 -0.781782 583.548 680.338
11.197 20.8817 3.49866 602.324 667.941
14.7189 16.8665 8.10628 617.513 650.987
17.2352 12.1007 13.6663 628.274 630.725
18.4684 6.89806 18.3782 633.569 608.4
18.9424 1.83619 20.6673 635.81 586.488
19.0698 -3.12477 21.0851 636.737 564.882
18.8788 -8.09749 21.2736 636.303 543.184
-16.7906 -14.3091 0.0632373 483.611 511.839
-14.6904 -15.9733 -1.66672 493.102 504.662
-12.0495 -16.7949 -3.12168 504.85 501.223
-9.2387 -16.9249 -4.45437 517.266 500.822
-6.41777 -16.5242 -5.57011 529.659 502.75
3.66853 -16.7396 -5.63549 573.672 502.671
6.23797 -17.3455 -4.43373 584.796 500.316
8.86744 -17.4887 -3.08961 596.128 499.992
11.4182 -17.0761 -1.61034 607.054 502.093
13.5766 -15.8167 0.252081 616.155 507.877
-0.571342 -11.9619 -4.89553 554.697 523.19
-0.35696 -9.00087 -7.71474 555.694 535.967
-0.156439 -6.05235 -10.643 556.644 548.682
0.0453442 -3.1307 -13.485 557.592 561.285
-3.13381 0.172284 -6.23037 542.646 575.828
-1.34505 0.444659 -7.19733 550.531 577.115
0.46642 0.537173 -8.20772 558.536 577.617
2.13132 0.221647 -7.12296 565.703 576.445
3.72936 -0.284681 -6.17897 572.611 574.426
-12.4037 -9.81641 -0.93439 502.475 531.757
-10.791 -11.0583 -1.22876 509.645 526.462
-8.71487 -11.3265 -1.33245 518.734 525.464
-6.83276 -10.536 -0.99029 526.837 529.093
-8.60566 -9.76317 -0.996554 519.041 532.312
-10.5394 -9.51352 -0.988215 510.585 533.235
4.79017 -11.0026 -0.994593 577.567 528.053
6.51371 -11.9037 -1.33839 585.198 524.251
8.5394 -11.9299 -1.19681 594.019 524.319
10.226 -10.8794 -0.807286 601.243 529.068
8.45705 -10.3673 -0.912868 593.497 531.144
6.56076 -10.4362 -0.926822 585.234 530.68
-7.89542 8.61691 -2.69586 520.777 612.455
-5.60079 6.45176 -4.88628 531.209 603.084
-2.67175 4.95362 -6.54911 544.294 596.707
0.672427 5.01164 -7.98666 559.032 597.166
3.92753 4.53472 -6.32284 573.085 595.458
6.965 5.60593 -4.67231 586.059 600.484
9.41183 7.51693 -2.55732 596.335 609.149
7.17836 9.45539 -3.80226 586.569 617.343
4.25854 10.5157 -5.06144 573.885 621.647
1.17377 10.9283 -6.57649 560.564 623.098
-2.02256 10.8898 -5.22861 546.479 622.732
-5.15819 10.202 -3.98253 532.724 619.532
-2.66258 7.32847 -5.26934 543.992 607.139
0.878828 7.26228 -7.23405 559.66 607.044
4.35592 6.8928 -5.02993 574.611 605.854
4.47863 7.69242 -4.45591 575.016 609.385
1.01149 8.0918 -6.46715 560.083 610.717
-2.52974 8.12528 -4.64456 544.435 610.661
3 20 21 23
3 21 22 23
3 0 1 36
3 15 16 45
3 0 17 36
3 16 26 45
3 17 18 37
3 25 26 44
3 17 36 37
3 26 44 45
3 18 19 38
3 24 25 43
3 18 37 38
3 25 43 44
3 19 20 38
3 23 24 43
3 20 21 39
3 22 23 42
3 20 38 39
3 23 42 43
3 21 22 27
3 21 27 39
3 22 27 42
3 27 28 42
3 27 28 39
3 28 42 47
3 28 39 40
3 1 36 41
3 15 45 46
3 1 2 41
3 14 15 46
3 28 29 40
3 28 29 47
3 2 40 41
3 14 46 47
3 2 29 40
3 14 29 47
3 2 3 29
3 13 14 29
3 29 30 31
3 29 30 35
3 3 29 31
3 13 29 35
3 30 32 33
3 30 33 34
3 30 31 32
3 30 34 35
3 3 4 31
3 12 13 35
3 4 5 48
3 11 12 54
3 5 6 48
3 10 11 54
3 6 48 59
3 10 54 55
3 6 7 59
3 9 10 55
3 7 58 59
3 9 55 56
3 8 57 58
3 8 56 57
3 7 8 58
3 8 9 56
3 4 31 48
3 12 35 54
3 31 48 49
3 35 53 54
3 31 49 50
3 35 52 53
3 31 32 50
3 34 35 52
3 32 33 50
3 33 34 52
3 33 50 51
3 33 51 52
3 48 49 60
3 49 60 50
3 50 60 61
3 50 51 61
3 51 52 61
3 61 62 52
3 52 53 62
3 53 54 62
3 54 55 63
3 55 56 63
3 56 63 64
3 56 57 64
3 64 65 57
3 57 58 65
3 58 59 65
3 48 59 65
