ply
format ascii 1.0
element vertex 66
property float x
property float y
property float z
property float u
property float v
element face 91
property list uchar int vertex_indices
end_header
-19.1143 -6.5284 21.2428 465.777 543.985
-18.452 -1.08902 20.8459 468.473 569.409
-17.5272 4.30041 20.2673 472.404 594.642
-16.3247 9.64512 18.2159 477.702 619.877
-14.5774 14.7392 13.5607 485.678 644.319
-11.6449 19.0241 7.87743 499.283 665.212
-7.74793 22.3721 3.08286 517.408 681.701
-3.26 24.7905 -0.923332 538.317 693.804
1.78635 25.3576 -4.73145 561.956 697.303
6.77696 23.9837 -0.688176 585.11 690.754
10.8093 20.6628 3.30158 603.95 675.078
13.94 16.4595 8.07339 618.619 655.127
16.074 11.6708 13.681 628.651 632.269
17.2159 6.62894 18.1013 634.138 608.313
17.7241 1.68226 20.1023 636.78 585.064
17.8186 -3.21897 20.4563 637.57 562.206
17.5482 -8.11545 20.8022 636.661 539.346
-15.5353 -15.9009 0.207332 484.138 503.31
-13.6646 -17.648 -1.52222 493.062 495.535
-11.2534 -18.6615 -2.91978 504.433 491.173
-8.62484 -18.8896 -4.1882 516.752 490.467
-5.99994 -18.4703 -5.32405 528.999 492.758
3.43935 -18.6162 -5.44888 572.977 492.788
5.68176 -19.1444 -4.2188 583.401 490.336
8.0134 -19.131 -2.9196 594.198 490.403
10.2347 -18.5435 -1.47478 604.431 493.116
12.0938 -17.2822 0.340622 612.909 498.892
-0.379874 -12.144 -4.88047 554.679 522.567
-0.203018 -9.34644 -7.62531 555.423 535.956
-0.04315 -6.55876 -10.435 556.091 549.307
0.11034 -3.79306 -13.2086 556.73 562.55
-2.6864 0.0794737 -6.23409 543.087 579.48
-1.0892 0.259455 -7.04864 550.55 580.54
0.530409 0.300337 -7.93669 558.132 580.963
1.97967 0.106105 -6.92771 564.848 580.036
3.37227 -0.235733 -6.06375 571.319 578.436
-10.887 -10.4792 -1.01691 505.438 529.05
-9.58463 -11.3808 -1.15811 511.578 524.967
-7.93957 -11.579 -1.19257 519.256 524.169
-6.4718 -10.9864 -0.811626 526.029 526.987
-7.86517 -10.2431 -0.9756 519.492 530.366
-9.42427 -10.0817 -0.97952 512.219 531.004
4.63889 -11.3619 -0.860194 577.804 526.061
5.97979 -11.9608 -1.16443 584.108 523.411
7.55835 -11.9799 -1.13323 591.46 523.434
8.84654 -11.1693 -0.972522 597.391 527.281
7.4909 -10.6555 -0.966792 591.039 529.573
5.9986 -10.7261 -0.975611 584.094 529.136
-6.60199 9.59934 -2.66751 523.971 623.056
-4.72135 7.54206 -4.97721 532.992 613.913
-2.32871 5.81754 -6.60303 544.341 606.268
0.608681 5.78037 -8.11429 558.095 606.505
3.46727 5.51335 -6.35658 571.345 605.246
5.95082 6.95186 -4.73562 582.727 611.918
7.87832 8.89593 -2.5226 591.454 620.827
6.25895 10.9331 -3.89425 583.825 630.368
3.9357 12.3088 -5.06999 572.958 636.753
1.117 12.8404 -6.60903 559.863 639.218
-1.85039 12.5791 -5.27719 546 637.613
-4.45157 11.4228 -4.12378 533.918 631.891
-2.11231 8.18662 -5.05144 545.098 617.115
0.778906 7.85213 -7.25759 558.692 616.053
3.6268 7.92325 -4.70425 571.83 616.266
3.82228 9.63038 -4.29647 572.593 624.176
1.00465 10.1793 -6.37769 559.528 626.791
-1.93956 9.90272 -4.59344 545.753 625.058
3 20 21 23
3 21 22 23
3 0 1 36
3 15 16 45
3 0 17 36
3 16 26 45
3 17 18 37
3 25 26 44
3 17 36 37
3 26 44 45
3 18 19 38
3 24 25 43
3 18 37 38
3 25 43 44
3 19 20 38
3 23 24 43
3 20 21 39
3 22 23 42
3 20 38 39
3 23 42 43
3 21 22 27
3 21 27 39
3 22 27 42
3 27 28 42
3 27 28 39
3 28 42 47
3 28 39 40
3 1 36 41
3 15 45 46
3 1 2 41
3 14 15 46
3 28 29 40
3 28 29 47
3 2 40 41
3 14 46 47
3 2 29 40
3 14 29 47
3 2 3 29
3 13 14 29
3 29 30 31
3 29 30 35
3 3 29 31
3 13 29 35
3 30 32 33
3 30 33 34
3 30 31 32
3 30 34 35
3 3 4 31
3 12 13 35
3 4 5 48
3 11 12 54
3 5 6 48
3 10 11 54
3 6 48 59
3 10 54 55
3 6 7 59
3 9 10 55
3 7 58 59
3 9 55 56
3 8 57 58
3 8 56 57
3 7 8 58
3 8 9 56
3 4 31 48
3 12 35 54
3 31 48 49
3 35 53 54
3 31 49 50
3 35 52 53
3 31 32 50
3 34 35 52
3 32 33 50
3 33 34 52
3 33 50 51
3 33 51 52
3 48 49 60
3 49 60 50
3 50 60 61
3 50 51 61
3 51 52 61
3 61 62 52
3 52 53 62
3 53 54 62
3 54 55 63
3 55 56 63
3 56 63 64
3 56 57 64
3 64 65 57
3 57 58 65
3 58 59 65
3 48 59 65
