ply
format ascii 1.0
element vertex 66
property float x
property float y
property float z
property float u
property float v
element face 91
property list uchar int vertex_indices
end_header
-20.1695 -6.72083 21.591 465.213 545.096
-19.4802 -1.24668 21.337 467.73 568.934
-18.5528 4.16569 20.7399 471.34 592.514
-17.408 9.59766 18.4171 476.164 616.146
-15.6236 14.8642 13.5954 484.173 639.04
-12.4096 19.1972 7.94108 498.608 657.988
-8.18964 22.4462 3.28962 517.354 672.356
-3.40986 24.6176 -0.953304 538.567 682.109
1.75168 25.1659 -4.78298 561.525 684.86
6.85799 23.9161 -0.756034 583.177 680.047
11.2609 20.927 3.50317 601.903 667.618
14.7826 16.8695 8.13012 616.846 650.476
17.2436 12.0557 13.7196 627.104 629.978
18.3868 6.82176 18.4047 631.823 607.501
18.7952 1.72567 20.6634 633.72 585.474
18.8897 -3.27748 21.0796 634.536 563.763
18.6691 -8.29009 21.2778 634.019 541.974
-16.7623 -14.3939 0.083745 484.11 511.403
-14.6694 -16.0632 -1.64111 493.625 504.297
-12.0357 -16.8725 -3.09513 505.363 500.986
-9.24186 -16.9945 -4.42834 517.713 500.68
-6.44182 -16.5921 -5.54788 530.007 502.659
3.84511 -16.8334 -5.65869 574.706 502.588
6.37208 -17.3943 -4.45512 585.539 500.431
8.95424 -17.5063 -3.1099 596.548 500.234
11.455 -17.0734 -1.6223 607.13 502.4
13.5578 -15.7947 0.251935 615.843 508.215
-0.492035 -11.9007 -4.88231 555.29 523.627
-0.272835 -9.00274 -7.70621 556.413 536.146
-0.070936 -6.11867 -10.6464 557.481 548.6
0.127017 -3.2597 -13.5066 558.521 560.947
-3.06324 0.219565 -6.25216 543.202 575.988
-1.27079 0.478505 -7.21075 551.11 577.253
0.541855 0.566248 -8.21059 559.128 577.775
2.18248 0.268747 -7.1306 566.109 576.674
3.76265 -0.209942 -6.17414 572.864 574.776
-12.4348 -9.90906 -0.872281 502.625 531.268
-10.8236 -11.2165 -1.20987 509.796 525.731
-8.71889 -11.466 -1.36017 518.98 524.843
-6.84813 -10.5537 -1.00364 526.96 528.996
-8.62247 -9.74018 -0.992494 519.179 532.361
-10.5755 -9.51066 -0.961032 510.673 533.173
4.78707 -10.9807 -1.01169 577.513 528.25
6.48271 -11.9877 -1.37548 585.026 524.026
8.52974 -12.0348 -1.21456 593.892 524.022
10.2091 -10.9037 -0.812122 601.013 529.109
8.4608 -10.3098 -0.926875 593.385 531.518
6.55568 -10.3692 -0.949645 585.124 531.077
-8.02494 8.55879 -2.69379 520.317 611.854
-5.61619 6.49517 -4.89262 531.315 603.049
-2.65983 5.07071 -6.5749 544.548 597.09
0.659466 5.14862 -8.00597 559.175 597.699
3.87904 4.67935 -6.36182 572.938 596.02
6.91076 5.69974 -4.68093 585.739 600.795
9.41681 7.52316 -2.53445 596.109 609.024
7.1568 9.461 -3.78762 586.312 617.186
4.20016 10.4899 -5.06578 573.581 621.333
1.10458 10.8682 -6.57821 560.345 622.633
-2.10341 10.8329 -5.24309 546.211 622.216
-5.26475 10.151 -3.99315 532.354 618.992
-2.73785 7.40919 -5.29773 543.788 607.281
0.849774 7.37468 -7.26505 559.675 607.411
4.35288 7.00432 -5.01879 574.565 606.208
4.47901 7.70176 -4.43196 574.954 609.268
0.963209 8.04651 -6.47877 559.981 610.365
-2.63416 8.1086 -4.66 544.072 610.35
3 20 21 23
3 21 22 23
3 0 1 36
3 15 16 45
3 0 17 36
3 16 26 45
3 17 18 37
3 25 26 44
3 17 36 37
3 26 44 45
3 18 19 38
3 24 25 43
3 18 37 38
3 25 43 44
3 19 20 38
3 23 24 43
3 20 21 39
3 22 23 42
3 20 38 39
3 23 42 43
3 21 22 27
3 21 27 39
3 22 27 42
3 27 28 42
3 27 28 39
3 28 42 47
3 28 39 40
3 1 36 41
3 15 45 46
3 1 2 41
3 14 15 46
3 28 29 40
3 28 29 47
3 2 40 41
3 14 46 47
3 2 29 40
3 14 29 47
3 2 3 29
3 13 14 29
3 29 30 31
3 29 30 35
3 3 29 31
3 13 29 35
3 30 32 33
3 30 33 34
3 30 31 32
3 30 34 35
3 3 4 31
3 12 13 35
3 4 5 48
3 11 12 54
3 5 6 48
3 10 11 54
3 6 48 59
3 10 54 55
3 6 7 59
3 9 10 55
3 7 58 59
3 9 55 56
3 8 57 58
3 8 56 57
3 7 8 58
3 8 9 56
3 4 31 48
3 12 35 54
3 31 48 49
3 35 53 54
3 31 49 50
3 35 52 53
3 31 32 50
3 34 35 52
3 32 33 50
3 33 34 52
3 33 50 51
3 33 51 52
3 48 49 60
3 49 60 50
3 50 60 61
3 50 51 61
3 51 52 61
3 61 62 52
3 52 53 62
3 53 54 62
3 54 55 63
3 55 56 63
3 56 63 64
3 56 57 64
3 64 65 57
3 57 58 65
3 58 59 65
3 48 59 65
