ply
format ascii 1.0
element vertex 66
property float x
property float y
property float z
property float u
property float v
element face 91
property list uchar int vertex_indices
end_header
-18.3171 -6.5206 21.1033 467.071 540.547
-17.6973 -1.1881 20.7222 469.259 565.971
-16.8284 4.09216 20.17 472.657 591.196
-15.6683 9.35098 18.156 477.608 616.467
-13.9942 14.4437 13.6706 485.307 641.202
-11.2572 18.8676 7.86753 498.301 663.014
-7.59026 22.4938 2.96022 515.723 681.114
-3.29192 25.2857 -0.964913 536.152 695.278
1.68361 26.075 -4.81255 560.084 700.033
6.66008 24.6448 -0.725182 583.438 693.688
10.6108 21.1385 3.16339 602.257 677.355
13.6243 16.7675 8.01912 616.648 656.71
15.6588 11.8668 13.7243 626.375 633.346
16.6962 6.71324 18.1407 631.558 608.728
17.1105 1.64928 20.0561 634.059 584.621
17.1365 -3.34604 20.4525 634.883 560.891
16.8291 -8.34242 20.7982 634.13 537.111
-15.0738 -16.5054 0.26318 486.35 495.133
-13.3936 -18.159 -1.42966 494.764 487.655
-11.1614 -19.07 -2.87275 505.657 483.764
-8.73701 -19.2295 -4.19542 517.336 483.46
-6.3319 -18.763 -5.36694 528.812 486.112
3.85525 -19.229 -5.41982 577.221 485.408
5.96144 -19.7508 -4.21048 587.153 483.156
8.14721 -19.7267 -2.90317 597.369 483.5
10.2063 -19.064 -1.43292 606.87 486.844
11.8129 -17.6847 0.442936 614.071 493.492
-0.447009 -11.9869 -4.84462 555.661 519.099
-0.222373 -9.46006 -7.55791 556.662 531.317
-0.0151149 -6.93843 -10.3049 557.586 543.511
0.178259 -4.44123 -13.0686 558.449 555.587
-2.48119 -0.295486 -5.98388 544.396 574.362
-0.970175 -0.170487 -6.9552 551.658 575.247
0.554596 -0.153232 -7.98677 559.009 575.628
1.89185 -0.330158 -6.85563 565.249 574.905
3.18294 -0.624 -5.8971 571.309 573.633
-10.6095 -10.5406 -0.957124 506.781 524.185
-9.65808 -11.5189 -1.07508 511.455 519.691
-8.25811 -11.7422 -1.18376 518.143 518.846
-7.07546 -11.1212 -0.922871 523.631 521.949
-8.10335 -10.0702 -1.04353 518.611 526.793
-9.41732 -9.93001 -0.954432 512.346 527.258
4.79991 -11.5945 -0.811468 580.032 521.448
5.8527 -12.257 -1.17097 585.168 518.485
7.21205 -12.2663 -1.11808 591.613 518.638
8.21057 -11.3729 -0.994001 596.202 523.016
7.15586 -10.6352 -0.935971 591.081 526.357
5.88854 -10.6801 -0.95664 585.078 525.958
-6.43752 9.48876 -2.68471 523.784 619.973
-4.38299 7.79956 -4.93894 534.044 612.421
-2.06582 6.2714 -6.58711 545.456 605.629
0.693254 6.30302 -8.11548 558.717 606.296
3.35394 5.96335 -6.43192 571.198 604.956
5.74122 7.18948 -4.77592 582.151 611.009
7.79618 8.70488 -2.49336 591.411 618.34
6.40608 11.2535 -4.04537 584.614 630.34
4.10108 13.0136 -5.27073 573.556 638.44
1.17698 13.6998 -6.75858 559.752 641.371
-1.88048 13.3103 -5.43115 545.151 638.977
-4.4783 11.7989 -4.25664 532.916 631.337
-1.55135 8.68983 -4.96611 547.349 617.066
0.859377 8.51208 -7.23132 559.074 616.74
3.17625 8.47895 -4.67123 569.776 616.742
3.43591 9.99194 -4.32752 570.743 623.935
1.04001 10.625 -6.24778 559.502 626.723
-1.49921 10.2251 -4.56418 547.32 624.33
3 20 21 23
3 21 22 23
3 0 1 36
3 15 16 45
3 0 17 36
3 16 26 45
3 17 18 37
3 25 26 44
3 17 36 37
3 26 44 45
3 18 19 38
3 24 25 43
3 18 37 38
3 25 43 44
3 19 20 38
3 23 24 43
3 20 21 39
3 22 23 42
3 20 38 39
3 23 42 43
3 21 22 27
3 21 27 39
3 22 27 42
3 27 28 42
3 27 28 39
3 28 42 47
3 28 39 40
3 1 36 41
3 15 45 46
3 1 2 41
3 14 15 46
3 28 29 40
3 28 29 47
3 2 40 41
3 14 46 47
3 2 29 40
3 14 29 47
3 2 3 29
3 13 14 29
3 29 30 31
3 29 30 35
3 3 29 31
3 13 29 35
3 30 32 33
3 30 33 34
3 30 31 32
3 30 34 35
3 3 4 31
3 12 13 35
3 4 5 48
3 11 12 54
3 5 6 48
3 10 11 54
3 6 48 59
3 10 54 55
3 6 7 59
3 9 10 55
3 7 58 59
3 9 55 56
3 8 57 58
3 8 56 57
3 7 8 58
3 8 9 56
3 4 31 48
3 12 35 54
3 31 48 49
3 35 53 54
3 31 49 50
3 35 52 53
3 31 32 50
3 34 35 52
3 32 33 50
3 33 34 52
3 33 50 51
3 33 51 52
3 48 49 60
3 49 60 50
3 50 60 61
3 50 51 61
3 51 52 61
3 61 62 52
3 52 53 62
3 53 54 62
3 54 55 63
3 55 56 63
3 56 63 64
3 56 57 64
3 64 65 57
3 57 58 65
3 58 59 65
3 48 59 65
