ply
format ascii 1.0
element vertex 66
property float x
property float y
property float z
property float u
property float v
element face 91
property list uchar int vertex_indices
end_header
-19.6901 -6.56131 21.3679 465.404 546.033
-19.062 -1.04005 21.0988 468.062 570.683
-18.1875 4.42569 20.5276 471.849 595.133
-17.0037 9.80557 18.3714 477.17 619.421
-15.1747 14.8756 13.6273 485.629 642.694
-12.0859 19.1123 7.96819 499.816 662.411
-8.02056 22.3964 3.19807 518.296 677.792
-3.34856 24.7055 -0.941312 539.447 688.761
1.85008 25.2056 -4.74167 562.967 691.64
7.01083 23.9634 -0.680259 585.604 685.703
11.2994 20.8498 3.44408 604.405 671.397
14.6387 16.7377 8.2103 618.944 652.531
16.8706 11.9452 13.8288 628.487 630.489
17.9345 6.80128 18.4127 632.936 606.988
18.3221 1.65438 20.458 634.62 583.796
18.3327 -3.48587 20.8295 634.787 560.847
18.0273 -8.62021 21.0919 633.556 537.931
-16.1513 -14.5697 0.0809612 483.492 513.307
-14.2139 -16.2634 -1.58127 492.338 506.037
-11.7215 -17.083 -3.02488 503.609 502.647
-9.08249 -17.21 -4.4111 515.507 502.34
-6.45403 -16.829 -5.59742 527.323 504.268
3.97047 -17.0811 -5.7274 573.793 503.448
6.36758 -17.5908 -4.46713 584.367 501.074
8.82498 -17.6611 -3.0643 595.182 500.64
11.2039 -17.1502 -1.58839 605.622 502.783
13.1518 -15.7777 0.194303 614.087 508.712
-0.524496 -12.3892 -4.9281 553.544 524.12
-0.317942 -9.64445 -7.67254 554.649 536.721
-0.128047 -6.91288 -10.4999 555.688 549.273
0.0573974 -4.20065 -13.2874 556.704 561.735
-2.89053 -0.325181 -6.14182 542.754 577.961
-1.23744 -0.120022 -7.0986 550.207 579.049
0.440957 -0.0713574 -8.07009 557.779 579.442
1.97284 -0.302037 -6.99943 564.508 578.312
3.44188 -0.693058 -5.98372 570.966 576.475
-12.0415 -10.373 -1.02161 501.784 532.263
-10.4757 -11.6008 -1.14882 508.811 526.853
-8.43959 -11.8553 -1.19559 517.896 525.781
-6.66078 -11.0196 -0.85958 525.764 529.508
-8.35608 -10.1371 -0.97779 518.195 533.409
-10.2647 -9.9043 -0.981556 509.684 534.394
4.72094 -11.4242 -0.90602 576.496 528.023
6.35537 -12.3307 -1.1911 583.834 524.068
8.34301 -12.3252 -1.15454 592.686 524.142
9.95332 -11.2439 -1.01079 599.815 528.984
8.27939 -10.6283 -0.98969 592.335 531.677
6.41863 -10.7083 -0.992564 584.047 531.271
-6.80752 8.99419 -2.70279 524.683 618.91
-4.78453 7.06265 -4.84446 533.964 610.648
-2.30256 5.57262 -6.57347 545.237 604.309
0.581001 5.62332 -8.10591 558.234 604.82
3.39013 5.26711 -6.37743 570.593 603.078
5.96255 6.45768 -4.64155 581.85 608.22
8.07475 8.21938 -2.55914 591.005 615.847
6.32092 10.1823 -3.88731 583.26 624.721
3.86913 11.3917 -5.24309 572.431 630.223
1.03192 11.8427 -6.75043 559.922 632.357
-1.92856 11.6804 -5.43128 546.607 631.376
-4.59847 10.714 -4.12296 534.612 626.822
-2.2754 7.72365 -5.15976 545.155 613.703
0.726882 7.524 -7.24815 558.743 613.176
3.68702 7.42615 -4.8701 571.704 612.502
3.8651 8.72733 -4.32834 572.405 618.231
0.901832 9.21893 -6.34101 559.382 620.61
-2.16475 9.02658 -4.58607 545.553 619.434
3 20 21 23
3 21 22 23
3 0 1 36
3 15 16 45
3 0 17 36
3 16 26 45
3 17 18 37
3 25 26 44
3 17 36 37
3 26 44 45
3 18 19 38
3 24 25 43
3 18 37 38
3 25 43 44
3 19 20 38
3 23 24 43
3 20 21 39
3 22 23 42
3 20 38 39
3 23 42 43
3 21 22 27
3 21 27 39
3 22 27 42
3 27 28 42
3 27 28 39
3 28 42 47
3 28 39 40
3 1 36 41
3 15 45 46
3 1 2 41
3 14 15 46
3 28 29 40
3 28 29 47
3 2 40 41
3 14 46 47
3 2 29 40
3 14 29 47
3 2 3 29
3 13 14 29
3 29 30 31
3 29 30 35
3 3 29 31
3 13 29 35
3 30 32 33
3 30 33 34
3 30 31 32
3 30 34 35
3 3 4 31
3 12 13 35
3 4 5 48
3 11 12 54
3 5 6 48
3 10 11 54
3 6 48 59
3 10 54 55
3 6 7 59
3 9 10 55
3 7 58 59
3 9 55 56
3 8 57 58
3 8 56 57
3 7 8 58
3 8 9 56
3 4 31 48
3 12 35 54
3 31 48 49
3 35 53 54
3 31 49 50
3 35 52 53
3 31 32 50
3 34 35 52
3 32 33 50
3 33 34 52
3 33 50 51
3 33 51 52
3 48 49 60
3 49 60 50
3 50 60 61
3 50 51 61
3 51 52 61
3 61 62 52
3 52 53 62
3 53 54 62
3 54 55 63
3 55 56 63
3 56 63 64
3 56 57 64
3 64 65 57
3 57 58 65
3 58 59 65
3 48 59 65
