ply
format ascii 1.0
element vertex 66
property float x
property float y
property float z
property float u
property float v
element face 91
property list uchar int vertex_indices
end_header
-19.1358 -6.47415 21.3416 466.271 542.257
-18.473 -1.07024 21.0048 468.887 567.332
-17.5523 4.27798 20.401 472.715 592.188
-16.4081 9.64916 18.2323 477.657 617.275
-14.7292 14.8692 13.498 485.22 641.88
-11.7575 19.2252 7.82369 498.886 662.662
-7.79599 22.5667 3.09693 517.169 678.774
-3.26219 24.9074 -0.95795 538.15 690.26
1.74092 25.493 -4.79297 561.443 693.655
6.71257 24.0748 -0.686669 584.346 687.246
10.8092 20.765 3.35009 603.37 672.018
14.0073 16.5046 8.04682 618.286 652.271
16.1941 11.6101 13.6234 628.531 629.447
17.2918 6.45658 18.1227 633.819 605.402
17.7575 1.51237 20.224 636.29 582.433
17.8511 -3.32288 20.5856 637.122 560.052
17.5705 -8.16045 20.8587 636.228 537.634
-15.7229 -16.0699 0.259234 483.991 499.577
-13.8319 -17.8096 -1.54456 492.983 491.813
-11.3831 -18.799 -2.93215 504.468 487.54
-8.71016 -19.0018 -4.15998 516.913 486.913
-6.03444 -18.5526 -5.26441 529.309 489.294
3.61797 -18.749 -5.4227 573.982 489.223
5.88244 -19.2771 -4.22635 584.439 486.894
8.22655 -19.2653 -2.96552 595.215 487.065
10.444 -18.6788 -1.52009 605.345 489.871
12.2715 -17.4076 0.397458 613.588 495.779
-0.310006 -11.7494 -4.83087 555.177 521.222
-0.13696 -8.94426 -7.60868 555.88 534.398
0.0175774 -6.14865 -10.4771 556.503 547.534
0.162389 -3.38028 -13.2957 557.082 560.539
-2.75963 0.343952 -6.27057 542.876 577.045
-1.09448 0.519891 -7.08558 550.606 578.056
0.582913 0.572799 -8.00747 558.408 578.506
2.06565 0.36562 -6.97431 565.23 577.605
3.50531 0.0262298 -6.11555 571.874 576.102
-10.9956 -10.3201 -0.893348 505.421 526.654
-9.71469 -11.4529 -1.19471 511.459 521.545
-7.96782 -11.6122 -1.30613 519.559 520.965
-6.48675 -10.7102 -0.835065 526.307 525.232
-7.89655 -9.84424 -0.963115 519.718 529.125
-9.50889 -9.71144 -0.931481 512.247 529.599
4.65244 -11.0738 -0.895307 577.866 524.509
5.95751 -11.9718 -1.30048 584.001 520.494
7.62455 -12.0538 -1.19682 591.714 520.251
8.914 -11.0028 -0.880701 597.571 525.201
7.57241 -10.2765 -0.938967 591.306 528.45
6.03778 -10.3203 -0.976954 584.213 528.118
-7.03961 9.58503 -2.6815 522.092 619.181
-5.07042 7.34942 -5.06292 531.519 609.169
-2.52493 5.54376 -6.64374 543.532 601.141
0.592166 5.53887 -8.0543 558.024 601.48
3.61646 5.21498 -6.40398 571.955 600.13
6.25018 6.7098 -4.82036 583.925 607.164
8.2634 8.8289 -2.51364 592.933 616.983
6.44006 10.7832 -3.84218 584.4 625.956
3.92204 11.9816 -5.01093 572.711 631.361
1.08184 12.4388 -6.56878 559.615 633.337
-1.9019 12.2487 -5.22199 545.76 632.112
-4.68105 11.2955 -4.08791 532.928 627.389
-2.14454 8.18891 -5.09747 544.982 613.305
0.790111 7.96399 -7.20254 558.686 612.657
3.65323 7.93025 -4.73204 571.803 612.58
3.76582 9.07867 -4.34134 572.204 617.876
0.956402 9.44553 -6.46872 559.288 619.474
-1.96649 9.34504 -4.65944 545.682 618.638
3 20 21 23
3 21 22 23
3 0 1 36
3 15 16 45
3 0 17 36
3 16 26 45
3 17 18 37
3 25 26 44
3 17 36 37
3 26 44 45
3 18 19 38
3 24 25 43
3 18 37 38
3 25 43 44
3 19 20 38
3 23 24 43
3 20 21 39
3 22 23 42
3 20 38 39
3 23 42 43
3 21 22 27
3 21 27 39
3 22 27 42
3 27 28 42
3 27 28 39
3 28 42 47
3 28 39 40
3 1 36 41
3 15 45 46
3 1 2 41
3 14 15 46
3 28 29 40
3 28 29 47
3 2 40 41
3 14 46 47
3 2 29 40
3 14 29 47
3 2 3 29
3 13 14 29
3 29 30 31
3 29 30 35
3 3 29 31
3 13 29 35
3 30 32 33
3 30 33 34
3 30 31 32
3 30 34 35
3 3 4 31
3 12 13 35
3 4 5 48
3 11 12 54
3 5 6 48
3 10 11 54
3 6 48 59
3 10 54 55
3 6 7 59
3 9 10 55
3 7 58 59
3 9 55 56
3 8 57 58
3 8 56 57
3 7 8 58
3 8 9 56
3 4 31 48
3 12 35 54
3 31 48 49
3 35 53 54
3 31 49 50
3 35 52 53
3 31 32 50
3 34 35 52
3 32 33 50
3 33 34 52
3 33 50 51
3 33 51 52
3 48 49 60
3 49 60 50
3 50 60 61
3 50 51 61
3 51 52 61
3 61 62 52
3 52 53 62
3 53 54 62
3 54 55 63
3 55 56 63
3 56 63 64
3 56 57 64
3 64 65 57
3 57 58 65
3 58 59 65
3 48 59 65
