ply
format ascii 1.0
element vertex 66
property float x
property float y
property float z
property float u
property float v
element face 91
property list uchar int vertex_indices
end_header
-19.7078 -6.63682 21.4434 465.384 546.039
-19.0542 -1.08728 21.1894 468.117 570.727
-18.1675 4.4084 20.6141 471.931 595.214
-17.0136 9.83454 18.407 477.158 619.547
-15.2324 14.9719 13.6161 485.534 642.851
-12.1379 19.2492 7.96523 499.889 662.457
-8.03857 22.5319 3.21314 518.619 677.6
-3.33039 24.7949 -0.956596 540.009 688.184
1.87449 25.2784 -4.77048 563.621 690.849
7.02985 24.0196 -0.697979 585.996 685.068
11.3426 20.9108 3.45521 604.688 671.035
14.6934 16.7716 8.20581 619.064 652.341
16.9187 11.9357 13.8113 628.352 630.438
17.9441 6.76316 18.4234 632.462 607.089
18.302 1.62864 20.516 633.952 584.112
18.3119 -3.48446 20.8765 634.133 561.374
18.0113 -8.59231 21.1264 632.952 538.659
-16.3968 -14.4542 0.0821945 483.295 513.354
-14.3833 -16.1881 -1.59978 492.528 505.874
-11.8002 -17.0068 -3.04262 504.223 502.455
-9.07197 -17.1027 -4.42424 516.528 502.245
-6.35845 -16.6736 -5.60346 528.72 504.348
3.98629 -16.9201 -5.74891 574.674 503.617
6.40678 -17.4667 -4.48762 585.267 501.158
8.89477 -17.5728 -3.08308 596.124 500.645
11.3135 -17.1042 -1.59968 606.642 502.675
13.3129 -15.7519 0.20854 615.221 508.585
-0.468262 -12.3095 -4.92046 554.616 523.866
-0.257877 -9.46576 -7.69499 555.826 536.751
-0.0656026 -6.63469 -10.5463 556.967 549.585
0.119934 -3.8227 -13.3346 558.07 562.329
-2.93852 -0.299068 -6.15885 543.38 577.229
-1.24293 -0.0557851 -7.12148 551.03 578.453
0.484006 0.0141242 -8.09835 558.828 578.909
2.04396 -0.237302 -7.02782 565.616 577.75
3.5355 -0.664467 -5.99388 572.112 575.81
-12.1966 -10.2828 -0.990237 501.936 532.116
-10.598 -11.5108 -1.15937 509.101 526.733
-8.53919 -11.7682 -1.23069 518.26 525.665
-6.73093 -10.924 -0.897298 526.211 529.446
-8.46243 -10.0797 -0.980438 518.505 533.144
-10.3905 -9.8501 -0.973967 509.936 534.098
4.8013 -11.3258 -0.950977 577.431 528.056
6.45862 -12.2359 -1.22304 584.859 524.095
8.46431 -12.239 -1.16686 593.755 524.144
10.0991 -11.1539 -0.987222 600.949 529.002
8.39608 -10.5683 -0.989636 593.367 531.545
6.52152 -10.6477 -1.00311 585.05 531.13
-7.09077 8.82416 -2.70723 524.139 617.292
-5.03136 6.78057 -4.85114 533.651 608.479
-2.44038 5.26914 -6.55598 545.442 602.008
0.558042 5.31211 -8.07984 558.961 602.437
3.46949 4.95333 -6.36484 571.664 600.788
6.1389 6.15507 -4.6508 583.236 606.061
8.27859 8.04098 -2.56904 592.381 614.322
6.46726 10.0665 -3.86238 584.443 623.371
3.92831 11.2942 -5.20977 573.311 628.858
1.0207 11.7414 -6.73612 560.595 630.883
-2.02282 11.5834 -5.39082 546.905 629.957
-4.79242 10.6007 -4.09739 534.468 625.384
-2.37894 7.5077 -5.18654 545.445 611.828
0.713041 7.32815 -7.25862 559.462 611.321
3.74768 7.20926 -4.88109 572.613 610.682
3.92531 8.52096 -4.33099 573.279 616.464
0.889541 8.99477 -6.35698 560.062 618.647
-2.25857 8.82247 -4.59989 545.851 617.618
3 20 21 23
3 21 22 23
3 0 1 36
3 15 16 45
3 0 17 36
3 16 26 45
3 17 18 37
3 25 26 44
3 17 36 37
3 26 44 45
3 18 19 38
3 24 25 43
3 18 37 38
3 25 43 44
3 19 20 38
3 23 24 43
3 20 21 39
3 22 23 42
3 20 38 39
3 23 42 43
3 21 22 27
3 21 27 39
3 22 27 42
3 27 28 42
3 27 28 39
3 28 42 47
3 28 39 40
3 1 36 41
3 15 45 46
3 1 2 41
3 14 15 46
3 28 29 40
3 28 29 47
3 2 40 41
3 14 46 47
3 2 29 40
3 14 29 47
3 2 3 29
3 13 14 29
3 29 30 31
3 29 30 35
3 3 29 31
3 13 29 35
3 30 32 33
3 30 33 34
3 30 31 32
3 30 34 35
3 3 4 31
3 12 13 35
3 4 5 48
3 11 12 54
3 5 6 48
3 10 11 54
3 6 48 59
3 10 54 55
3 6 7 59
3 9 10 55
3 7 58 59
3 9 55 56
3 8 57 58
3 8 56 57
3 7 8 58
3 8 9 56
3 4 31 48
3 12 35 54
3 31 48 49
3 35 53 54
3 31 49 50
3 35 52 53
3 31 32 50
3 34 35 52
3 32 33 50
3 33 34 52
3 33 50 51
3 33 51 52
3 48 49 60
3 49 60 50
3 50 60 61
3 50 51 61
3 51 52 61
3 61 62 52
3 52 53 62
3 53 54 62
3 54 55 63
3 55 56 63
3 56 63 64
3 56 57 64
3 64 65 57
3 57 58 65
3 58 59 65
3 48 59 65
