ply
format ascii 1.0
element vertex 66
property float x
property float y
property float z
property float u
property float v
element face 91
property list uchar int vertex_indices
end_header
-19.9932 -6.76934 21.6203 463.382 544.247
-19.3286 -1.23255 21.3752 466.302 568.414
-18.4438 4.24389 20.778 470.244 592.354
-17.3833 9.71011 18.3986 475.258 616.437
-15.697 14.9969 13.6626 483.406 639.983
-12.528 19.3472 7.9155 498.194 659.552
-8.26689 22.565 3.23082 517.562 674.069
-3.41554 24.6799 -0.994044 539.427 683.73
1.81669 25.1738 -4.8306 562.889 686.281
7.03063 24.0214 -0.723226 584.908 680.821
11.5759 21.1403 3.49558 603.998 667.813
15.1432 17.0839 8.16029 618.753 649.634
17.4609 12.1813 13.8532 627.888 627.658
18.3587 6.84717 18.4689 631.023 603.916
18.5971 1.6311 20.7157 631.691 580.937
18.6111 -3.52077 21.1109 631.701 558.432
18.3419 -8.67085 21.3394 630.505 535.952
-16.6747 -14.5836 0.0617498 481.589 512.431
-14.5286 -16.1863 -1.58189 491.23 505.613
-11.8903 -16.8964 -3.04518 502.983 502.668
-9.13611 -16.9526 -4.41366 515.223 502.564
-6.4016 -16.499 -5.59003 527.341 504.663
3.79618 -16.691 -5.7433 571.811 503.833
6.34767 -17.255 -4.49999 582.718 501.242
8.95848 -17.3687 -3.13493 593.861 500.6
11.495 -16.9037 -1.65194 604.658 502.47
13.6179 -15.5485 0.173911 613.591 508.186
-0.528351 -11.9376 -4.89694 552.803 524.474
-0.289977 -9.10752 -7.68363 554.313 537.106
-0.073132 -6.2937 -10.6086 555.753 549.681
0.138665 -3.50349 -13.5002 557.166 562.15
-3.03947 0.10858 -6.21049 542.046 577.138
-1.26461 0.384166 -7.1965 549.95 578.442
0.535553 0.477045 -8.20156 557.969 578.951
2.1673 0.175904 -7.11111 564.893 577.522
3.73091 -0.313716 -6.10155 571.535 575.28
-12.7037 -9.90784 -0.845508 499.036 532.91
-11.0862 -11.1765 -1.17947 506.147 527.412
-9.00011 -11.4158 -1.35671 515.27 526.386
-7.14937 -10.5398 -1.06646 523.282 530.173
-8.91253 -9.72438 -1.03274 515.59 533.727
-10.8629 -9.50022 -0.95689 507.076 534.698
5.02292 -10.9373 -1.09991 576.338 528.433
6.72336 -11.888 -1.40153 583.804 524.318
8.75216 -11.9047 -1.23518 592.617 524.226
10.4183 -10.7987 -0.853287 599.808 529.007
8.67526 -10.2377 -0.974232 592.231 531.467
6.77562 -10.3104 -1.03466 583.963 531.158
-7.92587 8.53235 -2.73234 520.123 613.508
-5.51306 6.49912 -4.86805 531.013 604.864
-2.60486 5.10275 -6.57389 543.987 598.952
0.632567 5.16575 -8.02509 558.346 599.376
3.78256 4.7427 -6.37185 571.79 597.355
6.77472 5.76438 -4.66092 584.532 601.628
9.29942 7.55931 -2.56435 595.167 609.233
7.01988 9.40437 -3.76735 585.434 617.406
4.08453 10.3394 -5.07594 572.864 621.622
1.04943 10.6646 -6.59483 559.898 623.202
-2.09644 10.6568 -5.27313 545.96 623.032
-5.19776 10.0375 -4.01979 532.23 620.203
-2.67644 7.39138 -5.28158 543.444 608.796
0.805628 7.34981 -7.28621 558.965 608.821
4.21729 7.02051 -4.99758 573.44 607.143
4.34215 7.64447 -4.40928 573.881 609.802
0.909056 7.92265 -6.44703 559.269 611.231
-2.59146 8.01003 -4.65542 543.704 611.427
3 20 21 23
3 21 22 23
3 0 1 36
3 15 16 45
3 0 17 36
3 16 26 45
3 17 18 37
3 25 26 44
3 17 36 37
3 26 44 45
3 18 19 38
3 24 25 43
3 18 37 38
3 25 43 44
3 19 20 38
3 23 24 43
3 20 21 39
3 22 23 42
3 20 38 39
3 23 42 43
3 21 22 27
3 21 27 39
3 22 27 42
3 27 28 42
3 27 28 39
3 28 42 47
3 28 39 40
3 1 36 41
3 15 45 46
3 1 2 41
3 14 15 46
3 28 29 40
3 28 29 47
3 2 40 41
3 14 46 47
3 2 29 40
3 14 29 47
3 2 3 29
3 13 14 29
3 29 30 31
3 29 30 35
3 3 29 31
3 13 29 35
3 30 32 33
3 30 33 34
3 30 31 32
3 30 34 35
3 3 4 31
3 12 13 35
3 4 5 48
3 11 12 54
3 5 6 48
3 10 11 54
3 6 48 59
3 10 54 55
3 6 7 59
3 9 10 55
3 7 58 59
3 9 55 56
3 8 57 58
3 8 56 57
3 7 8 58
3 8 9 56
3 4 31 48
3 12 35 54
3 31 48 49
3 35 53 54
3 31 49 50
3 35 52 53
3 31 32 50
3 34 35 52
3 32 33 50
3 33 34 52
3 33 50 51
3 33 51 52
3 48 49 60
3 49 60 50
3 50 60 61
3 50 51 61
3 51 52 61
3 61 62 52
3 52 53 62
3 53 54 62
3 54 55 63
3 55 56 63
3 56 63 64
3 56 57 64
3 64 65 57
3 57 58 65
3 58 59 65
3 48 59 65
