ply
format ascii 1.0
element vertex 66
property float x
property float y
property float z
property float u
property float v
element face 91
property list uchar int vertex_indices
end_header
-19.4925 -6.5381 21.2299 465.151 545.502
-18.9197 -1.00823 20.9226 467.671 570.437
-18.0744 4.46892 20.3927 471.44 595.189
-16.8463 9.80025 18.3652 477.087 619.623
-14.9698 14.7418 13.6473 485.934 642.913
-11.9588 18.9329 7.98753 499.994 663.052
-8.00151 22.2727 3.16701 518.24 679.187
-3.39028 24.6753 -0.922529 539.37 690.952
1.83027 25.177 -4.71357 563.242 694.112
7.0078 23.9436 -0.673779 586.149 687.723
11.2089 20.7674 3.41664 604.687 672.577
14.4467 16.6526 8.22847 618.833 653.04
16.6269 11.9427 13.8487 628.146 630.636
17.7614 6.90356 18.4275 632.866 606.971
18.2165 1.74868 20.3701 634.799 583.368
18.2267 -3.45877 20.7251 634.892 559.878
17.907 -8.65564 21.0092 633.509 536.447
-15.8537 -14.789 0.0748897 483.821 513.171
-13.9961 -16.4651 -1.54067 492.373 506.017
-11.5834 -17.2533 -2.98134 503.39 502.822
-9.04226 -17.3611 -4.40709 514.973 502.684
-6.52697 -16.9677 -5.64047 526.411 504.755
3.87169 -17.2105 -5.73386 573.22 503.801
6.23863 -17.7636 -4.43813 583.748 501.051
8.68327 -17.8622 -3.00088 594.604 500.314
11.0642 -17.337 -1.53868 605.16 502.375
12.986 -15.8976 0.181039 613.609 508.484
-0.637571 -12.5863 -4.94621 552.772 524.364
-0.445246 -9.9207 -7.65719 553.872 536.955
-0.266682 -7.26796 -10.423 554.915 549.5
-0.0870356 -4.63222 -13.1603 555.96 561.963
-2.84474 -0.518603 -6.04591 542.757 578.838
-1.27361 -0.357603 -7.0409 549.926 579.801
0.323136 -0.34724 -8.0226 557.212 580.084
1.81306 -0.541211 -6.93604 563.808 578.986
3.2354 -0.891145 -5.90843 570.11 577.2
-12.0378 -10.5525 -1.13068 501.048 532.529
-10.429 -11.7648 -1.10978 508.305 527.091
-8.34973 -12.0382 -1.06925 517.662 525.876
-6.5376 -11.2538 -0.791659 525.776 529.361
-8.26529 -10.3281 -0.99794 518.007 533.55
-10.2254 -10.0752 -1.01176 509.184 534.668
4.61219 -11.6803 -0.841758 575.963 527.579
6.29173 -12.5519 -1.06495 583.558 523.729
8.33109 -12.5206 -1.09011 592.737 523.898
9.99494 -11.4739 -1.07126 600.206 528.618
8.27987 -10.8462 -0.989227 592.469 531.402
6.35817 -10.9305 -0.996324 583.823 531.004
-5.72778 9.30182 -2.72622 529.284 622.214
-4.00114 7.49372 -4.83889 537.3 614.576
-1.89316 6.00561 -6.59648 546.989 608.302
0.615682 6.06665 -8.19454 558.442 608.961
3.07288 5.73327 -6.38399 569.32 607.085
5.30269 6.9532 -4.62946 579.155 612.203
7.15209 8.5964 -2.58614 587.242 619.155
5.75187 10.5143 -3.97598 581.052 628.072
3.66912 11.7801 -5.3612 571.8 634.049
1.09383 12.2653 -6.86916 560.358 636.538
-1.59341 12.0632 -5.55969 548.134 635.307
-3.90191 11.0212 -4.2058 537.624 630.295
-1.78223 8.10539 -5.06461 547.298 617.401
0.760786 7.84635 -7.18937 558.963 616.739
3.2968 7.8395 -4.81193 570.133 616.206
3.46902 9.0771 -4.31556 570.837 621.661
0.939991 9.61273 -6.23998 559.644 624.471
-1.68036 9.34354 -4.54847 547.684 622.854
3 20 21 23
3 21 22 23
3 0 1 36
3 15 16 45
3 0 17 36
3 16 26 45
3 17 18 37
3 25 26 44
3 17 36 37
3 26 44 45
3 18 19 38
3 24 25 43
3 18 37 38
3 25 43 44
3 19 20 38
3 23 24 43
3 20 21 39
3 22 23 42
3 20 38 39
3 23 42 43
3 21 22 27
3 21 27 39
3 22 27 42
3 27 28 42
3 27 28 39
3 28 42 47
3 28 39 40
3 1 36 41
3 15 45 46
3 1 2 41
3 14 15 46
3 28 29 40
3 28 29 47
3 2 40 41
3 14 46 47
3 2 29 40
3 14 29 47
3 2 3 29
3 13 14 29
3 29 30 31
3 29 30 35
3 3 29 31
3 13 29 35
3 30 32 33
3 30 33 34
3 30 31 32
3 30 34 35
3 3 4 31
3 12 13 35
3 4 5 48
3 11 12 54
3 5 6 48
3 10 11 54
3 6 48 59
3 10 54 55
3 6 7 59
3 9 10 55
3 7 58 59
3 9 55 56
3 8 57 58
3 8 56 57
3 7 8 58
3 8 9 56
3 4 31 48
3 12 35 54
3 31 48 49
3 35 53 54
3 31 49 50
3 35 52 53
3 31 32 50
3 34 35 52
3 32 33 50
3 33 34 52
3 33 50 51
3 33 51 52
3 48 49 60
3 49 60 50
3 50 60 61
3 50 51 61
3 51 52 61
3 61 62 52
3 52 53 62
3 53 54 62
3 54 55 63
3 55 56 63
3 56 63 64
3 56 57 64
3 64 65 57
3 57 58 65
3 58 59 65
3 48 59 65
