ply
format ascii 1.0
element vertex 66
property float x
property float y
property float z
property float u
property float v
element face 91
property list uchar int vertex_indices
end_header
-19.9423 -6.60316 21.4384 465.02 544.843
-19.2802 -1.08614 21.1739 467.736 569.392
-18.3679 4.37274 20.607 471.594 593.73
-17.1707 9.76644 18.392 476.877 617.991
-15.3334 14.8821 13.6027 485.259 641.359
-12.1987 19.1427 7.95597 499.521 661.089
-8.08602 22.4248 3.23483 518.08 676.406
-3.37172 24.6888 -0.955792 539.306 687.164
1.82858 25.2075 -4.75681 562.731 690.149
6.98738 23.9615 -0.708903 585.303 684.345
11.3309 20.8988 3.46754 604.327 670.427
14.731 16.7982 8.1761 619.157 651.798
17.0415 12.0009 13.7713 629.098 629.922
18.1404 6.83413 18.4192 633.767 606.469
18.5446 1.69294 20.5254 635.592 583.41
18.5897 -3.42377 20.9019 635.987 560.654
18.3138 -8.53893 21.1543 634.968 537.907
-16.3959 -14.5255 0.0600958 483.155 512.424
-14.3582 -16.1655 -1.59454 492.432 505.432
-11.7974 -16.9228 -3.04096 503.973 502.355
-9.10751 -17.0049 -4.42918 516.05 502.273
-6.43211 -16.5803 -5.60941 528.02 504.415
4.00759 -16.8737 -5.71825 574.39 503.569
6.41961 -17.4217 -4.46797 585.003 501.087
8.89478 -17.5385 -3.07028 595.864 500.503
11.3069 -17.1076 -1.59303 606.412 502.339
13.3273 -15.8178 0.203193 615.152 507.931
-0.501767 -12.2222 -4.8911 554.083 523.924
-0.278709 -9.37148 -7.68588 555.211 536.927
-0.0732291 -6.53331 -10.5578 556.268 549.882
0.125794 -3.71465 -13.3562 557.291 562.742
-2.89037 -0.137333 -6.15732 543.055 577.619
-1.21244 0.0996974 -7.1357 550.587 578.861
0.494317 0.170894 -8.11606 558.254 579.368
2.03835 -0.0874154 -7.03645 565.017 578.156
3.51415 -0.516525 -6.01555 571.491 576.19
-12.4064 -10.221 -0.974844 500.77 531.826
-10.789 -11.4523 -1.14918 508.023 526.451
-8.70992 -11.7278 -1.22163 517.272 525.325
-6.87258 -10.9107 -0.937137 525.365 528.995
-8.62282 -10.0575 -1.00366 517.563 532.716
-10.5737 -9.81672 -0.978083 508.889 533.699
4.84071 -11.3412 -0.946381 577.385 527.582
6.52839 -12.2484 -1.21264 584.944 523.659
8.56114 -12.2487 -1.15573 593.962 523.737
10.2299 -11.1794 -0.957849 601.304 528.53
8.49779 -10.602 -0.969789 593.589 531.021
6.59284 -10.6767 -0.987956 585.138 530.611
-6.94003 8.81261 -2.72362 524.348 616.757
-4.88717 6.82925 -4.85723 533.753 608.299
-2.33447 5.37102 -6.56383 545.314 602.142
0.59851 5.44225 -8.09088 558.477 602.768
3.44336 5.05234 -6.37292 570.96 600.949
6.07604 6.19155 -4.66148 582.434 605.91
8.21476 8.00058 -2.57259 591.648 613.776
6.37762 9.91161 -3.85824 583.529 622.337
3.85469 11.0309 -5.18894 572.405 627.36
1.03285 11.445 -6.70169 560.003 629.262
-1.90801 11.3173 -5.36991 546.826 628.409
-4.63834 10.456 -4.08691 534.622 624.314
-2.2453 7.5954 -5.19704 545.48 611.853
0.756922 7.47353 -7.24155 559.008 611.688
3.695 7.2959 -4.90313 571.836 610.74
3.83497 8.264 -4.35394 572.362 614.976
0.897102 8.68027 -6.34179 559.49 616.941
-2.13809 8.56407 -4.60586 545.856 616.086
3 20 21 23
3 21 22 23
3 0 1 36
3 15 16 45
3 0 17 36
3 16 26 45
3 17 18 37
3 25 26 44
3 17 36 37
3 26 44 45
3 18 19 38
3 24 25 43
3 18 37 38
3 25 43 44
3 19 20 38
3 23 24 43
3 20 21 39
3 22 23 42
3 20 38 39
3 23 42 43
3 21 22 27
3 21 27 39
3 22 27 42
3 27 28 42
3 27 28 39
3 28 42 47
3 28 39 40
3 1 36 41
3 15 45 46
3 1 2 41
3 14 15 46
3 28 29 40
3 28 29 47
3 2 40 41
3 14 46 47
3 2 29 40
3 14 29 47
3 2 3 29
3 13 14 29
3 29 30 31
3 29 30 35
3 3 29 31
3 13 29 35
3 30 32 33
3 30 33 34
3 30 31 32
3 30 34 35
3 3 4 31
3 12 13 35
3 4 5 48
3 11 12 54
3 5 6 48
3 10 11 54
3 6 48 59
3 10 54 55
3 6 7 59
3 9 10 55
3 7 58 59
3 9 55 56
3 8 57 58
3 8 56 57
3 7 8 58
3 8 9 56
3 4 31 48
3 12 35 54
3 31 48 49
3 35 53 54
3 31 49 50
3 35 52 53
3 31 32 50
3 34 35 52
3 32 33 50
3 33 34 52
3 33 50 51
3 33 51 52
3 48 49 60
3 49 60 50
3 50 60 61
3 50 51 61
3 51 52 61
3 61 62 52
3 52 53 62
3 53 54 62
3 54 55 63
3 55 56 63
3 56 63 64
3 56 57 64
3 64 65 57
3 57 58 65
3 58 59 65
3 48 59 65
