ply
format ascii 1.0
element vertex 66
property float x
property float y
property float z
property float u
property float v
element face 91
property list uchar int vertex_indices
end_header
-20.419 -6.91314 21.5852 463.832 546.322
-19.7104 -1.38645 21.3237 466.716 570.442
-18.7553 4.07506 20.7101 470.71 594.272
-17.5609 9.56299 18.4329 475.902 618.149
-15.7165 14.8758 13.5864 484.178 641.169
-12.4396 19.235 7.92958 498.816 660.053
-8.15591 22.4839 3.31522 517.792 674.188
-3.32035 24.6381 -0.931859 539.186 683.589
1.8852 25.1751 -4.74984 562.22 685.974
6.95199 23.8792 -0.767222 583.993 680.727
11.3137 20.8824 3.51051 602.734 668.047
14.8186 16.8482 8.1013 617.754 650.82
17.2996 12.0708 13.6888 628.246 630.355
18.5123 6.88278 18.3684 633.311 608.003
18.9754 1.84297 20.6049 635.331 586.149
19.1032 -3.09552 21.0267 636.054 564.637
18.9189 -8.04599 21.2306 635.439 543.05
-16.8483 -14.4011 0.053683 481.739 512.804
-14.6965 -16.0598 -1.64912 491.351 505.583
-12.011 -16.8525 -3.10634 503.231 502.172
-9.16934 -16.9438 -4.44665 515.751 501.832
-6.32531 -16.4997 -5.56193 528.239 503.838
3.6818 -16.6622 -5.6335 571.886 503.554
6.22164 -17.2632 -4.43093 582.873 501.099
8.8242 -17.4161 -3.08202 594.1 500.607
11.3574 -17.036 -1.60307 604.991 502.443
13.5136 -15.8083 0.244511 614.168 507.977
-0.523685 -12.0172 -4.90172 553.286 523.666
-0.320653 -9.05319 -7.72019 554.312 536.468
-0.132797 -6.10166 -10.6496 555.283 549.21
0.0563892 -3.17607 -13.5031 556.254 561.842
-3.05546 0.226597 -6.23944 541.861 576.89
-1.29455 0.51844 -7.20565 549.617 578.193
0.496134 0.623156 -8.21176 557.515 578.679
2.12714 0.310119 -7.11049 564.537 577.435
3.68065 -0.199925 -6.14475 571.241 575.323
-12.4018 -9.9421 -0.949182 501.035 532.393
-10.8115 -11.1865 -1.23556 508.048 527.021
-8.75351 -11.4516 -1.33011 517.042 525.948
-6.89895 -10.623 -0.962815 525.059 529.659
-8.64789 -9.83404 -0.984294 517.402 533.024
-10.5651 -9.59965 -0.98378 509.033 533.964
4.83538 -11.0442 -0.991691 576.245 528.323
6.52655 -11.9492 -1.33109 583.689 524.433
8.52492 -11.968 -1.20302 592.391 524.443
10.169 -10.8898 -0.826641 599.479 529.233
8.43353 -10.3609 -0.919578 591.899 531.461
6.56587 -10.4372 -0.93473 583.76 531.047
-7.84357 8.574 -2.68775 520.3 613.256
-5.46184 6.6134 -4.88559 530.974 604.704
-2.56764 5.23892 -6.57971 543.81 598.754
0.680116 5.33041 -8.00993 558.102 599.225
3.83264 4.84726 -6.32783 571.71 597.332
6.80722 5.81039 -4.65224 584.482 601.739
9.29181 7.53174 -2.55096 595.046 609.451
7.03534 9.30645 -3.77608 585.248 617.036
4.14663 10.2235 -5.03853 572.733 620.853
1.15001 10.5875 -6.54151 559.793 622.241
-1.97048 10.5716 -5.23064 546.064 622.099
-5.07251 10.0008 -3.9943 532.446 619.536
-2.52311 7.44171 -5.31214 543.793 608.422
0.881021 7.42483 -7.24558 558.818 608.403
4.21883 7.04245 -5.02618 573.18 606.983
4.34365 7.60348 -4.42966 573.644 609.464
1.00353 7.93869 -6.45963 559.257 610.687
-2.40552 8.00048 -4.66248 544.221 610.895
3 20 21 23
3 21 22 23
3 0 1 36
3 15 16 45
3 0 17 36
3 16 26 45
3 17 18 37
3 25 26 44
3 17 36 37
3 26 44 45
3 18 19 38
3 24 25 43
3 18 37 38
3 25 43 44
3 19 20 38
3 23 24 43
3 20 21 39
3 22 23 42
3 20 38 39
3 23 42 43
3 21 22 27
3 21 27 39
3 22 27 42
3 27 28 42
3 27 28 39
3 28 42 47
3 28 39 40
3 1 36 41
3 15 45 46
3 1 2 41
3 14 15 46
3 28 29 40
3 28 29 47
3 2 40 41
3 14 46 47
3 2 29 40
3 14 29 47
3 2 3 29
3 13 14 29
3 29 30 31
3 29 30 35
3 3 29 31
3 13 29 35
3 30 32 33
3 30 33 34
3 30 31 32
3 30 34 35
3 3 4 31
3 12 13 35
3 4 5 48
3 11 12 54
3 5 6 48
3 10 11 54
3 6 48 59
3 10 54 55
3 6 7 59
3 9 10 55
3 7 58 59
3 9 55 56
3 8 57 58
3 8 56 57
3 7 8 58
3 8 9 56
3 4 31 48
3 12 35 54
3 31 48 49
3 35 53 54
3 31 49 50
3 35 52 53
3 31 32 50
3 34 35 52
3 32 33 50
3 33 34 52
3 33 50 51
3 33 51 52
3 48 49 60
3 49 60 50
3 50 60 61
3 50 51 61
3 51 52 61
3 61 62 52
3 52 53 62
3 53 54 62
3 54 55 63
3 55 56 63
3 56 63 64
3 56 57 64
3 64 65 57
3 57 58 65
3 58 59 65
3 48 59 65
