ply
format ascii 1.0
element vertex 66
property float x
property float y
property float z
property float u
property float v
element face 91
property list uchar int vertex_indices
end_header
-20.4518 -5.9996 21.4284 476.21 303.844
-19.9777 -0.668467 21.0122 475.731 325.194
-19.2631 4.6501 20.6888 476.199 346.618
-18.1258 9.76082 18.4492 478.73 367.142
-16.21 14.3813 13.6254 484.968 385.715
-12.9561 18.0698 7.99185 497.071 401.087
-8.66099 20.6845 3.28415 513.663 412.799
-3.85312 22.4175 -0.799073 532.6 421.331
1.32968 22.6147 -4.75395 553.707 423.948
6.51958 21.7116 -0.746187 574.144 423.309
11.0543 19.2058 3.3882 592.688 416.015
14.9432 15.9064 8.126 608.935 405.354
17.6902 11.7414 13.7877 620.899 390.856
19.0666 6.9221 18.5215 627.851 372.996
19.5682 1.78427 20.8417 631.835 353.13
19.5426 -3.49831 21.1473 634.091 332.164
19.2087 -8.76737 21.4898 635.111 311.114
-17.1093 -13.7218 0.170818 496.212 271.716
-15.0689 -16.1265 -1.59714 505.683 262.851
-12.1843 -17.3512 -3.02734 517.922 259.111
-9.07192 -17.5224 -4.34999 530.571 259.679
-6.01319 -16.9834 -5.52345 542.661 263.065
3.36346 -17.4374 -5.52873 580.14 265.578
6.17731 -18.4644 -4.25651 591.601 262.97
9.17957 -18.8182 -2.85606 603.486 263.142
12.1591 -18.2316 -1.34896 614.835 267.057
14.5887 -16.4026 0.351714 623.404 275.683
-0.614582 -11.7325 -5.03384 561.656 286.491
-0.425453 -8.98153 -7.71866 561.56 297.137
-0.237856 -6.2536 -10.5332 561.487 307.673
-0.0517178 -3.53746 -13.3182 561.41 318.166
-2.77574 -0.0612804 -6.04504 547.905 331.745
-1.28269 0.0627984 -7.10039 553.942 332.778
0.231391 0.0162884 -8.16057 560.141 333.142
1.68653 -0.128322 -7.04685 565.824 333.393
3.10325 -0.448463 -5.99068 571.442 332.921
-11.9948 -9.22812 -1.0648 514.682 291.76
-10.3524 -10.3153 -1.15485 521.719 288.182
-8.33055 -10.5782 -1.19 529.881 288.064
-6.48694 -9.95064 -0.95483 536.888 291.44
-8.22558 -9.15037 -1.13283 529.64 293.795
-10.1433 -8.89854 -1.14095 521.904 293.912
5.24429 -10.7543 -0.88254 583.875 293.658
6.95711 -11.6077 -1.06802 591.1 291.029
8.97602 -11.646 -0.997428 599.132 291.816
10.7371 -10.8003 -0.890776 605.731 296.003
8.97421 -10.2031 -1.00376 598.469 297.549
7.05664 -10.1927 -1.01924 590.844 296.706
-7.05355 8.84384 -2.90122 526.373 365.611
-4.69499 7.25371 -4.91494 536.776 360.095
-2.18973 5.95402 -6.5596 547.573 355.853
0.554012 5.97344 -8.13487 558.708 356.973
3.23532 5.60865 -6.44487 569.278 356.994
5.82647 6.57855 -4.77497 578.885 362.276
8.27767 7.86878 -2.77761 587.74 368.812
6.45592 10.0276 -4.13527 579.72 376.364
3.89758 11.4184 -5.47465 569.119 380.527
0.901829 11.8942 -6.88639 557.207 380.841
-2.1411 11.7951 -5.55538 544.956 379.232
-4.89706 10.7552 -4.16978 534.266 374.024
-2.26453 8.12199 -5.26502 546.094 364.616
0.674026 7.886 -7.34878 558.196 364.74
3.56617 7.75768 -5.15152 569.42 365.869
3.73066 8.66702 -4.52882 569.566 369.646
0.749359 9.069 -6.43216 557.819 369.605
-2.31302 9.05931 -4.61393 545.377 368.411
3 20 21 23
3 21 22 23
3 0 1 36
3 15 16 45
3 0 17 36
3 16 26 45
3 17 18 37
3 25 26 44
3 17 36 37
3 26 44 45
3 18 19 38
3 24 25 43
3 18 37 38
3 25 43 44
3 19 20 38
3 23 24 43
3 20 21 39
3 22 23 42
3 20 38 39
3 23 42 43
3 21 22 27
3 21 27 39
3 22 27 42
3 27 28 42
3 27 28 39
3 28 42 47
3 28 39 40
3 1 36 41
3 15 45 46
3 1 2 41
3 14 15 46
3 28 29 40
3 28 29 47
3 2 40 41
3 14 46 47
3 2 29 40
3 14 29 47
3 2 3 29
3 13 14 29
3 29 30 31
3 29 30 35
3 3 29 31
3 13 29 35
3 30 32 33
3 30 33 34
3 30 31 32
3 30 34 35
3 3 4 31
3 12 13 35
3 4 5 48
3 11 12 54
3 5 6 48
3 10 11 54
3 6 48 59
3 10 54 55
3 6 7 59
3 9 10 55
3 7 58 59
3 9 55 56
3 8 57 58
3 8 56 57
3 7 8 58
3 8 9 56
3 4 31 48
3 12 35 54
3 31 48 49
3 35 53 54
3 31 49 50
3 35 52 53
3 31 32 50
3 34 35 52
3 32 33 50
3 33 34 52
3 33 50 51
3 33 51 52
3 48 49 60
3 49 60 50
3 50 60 61
3 50 51 61
3 51 52 61
3 61 62 52
3 52 53 62
3 53 54 62
3 54 55 63
3 55 56 63
3 56 63 64
3 56 57 64
3 64 65 57
3 57 58 65
3 58 59 65
3 48 59 65
