ply
format ascii 1.0
element vertex 66
property float x
property float y
property float z
property float u
property float v
element face 91
property list uchar int vertex_indices
end_header
-20.5805 -6.03754 21.3645 475.86 304.164
-20.1726 -0.731648 20.9601 475.229 325.197
-19.4897 4.55951 20.6754 475.668 346.308
-18.3251 9.63264 18.4387 478.425 366.525
-16.377 14.2316 13.5774 484.916 384.887
-13.1188 17.9306 7.96064 497.084 400.184
-8.80159 20.5374 3.30121 513.738 411.765
-3.96039 22.2472 -0.744578 532.743 420.12
1.24343 22.4743 -4.74906 553.813 422.798
6.49197 21.6418 -0.703203 574.17 422.339
11.1275 19.252 3.39594 592.78 415.481
15.108 16.0174 8.07754 609.08 405.081
17.8999 11.8569 13.7317 620.936 390.633
19.2941 6.99999 18.5476 627.731 372.719
19.8162 1.79554 20.8711 631.659 352.738
19.7746 -3.56298 21.1757 633.773 331.646
19.4025 -8.90495 21.4984 634.574 310.476
-17.1077 -13.6664 0.180264 496.407 272.957
-15.1883 -16.1167 -1.6085 505.332 263.922
-12.3845 -17.3729 -3.01853 517.158 260.028
-9.33636 -17.5462 -4.34133 529.462 260.519
-6.34215 -17.0222 -5.52852 541.227 263.751
3.45149 -17.5006 -5.49968 580.007 266.179
6.29015 -18.5486 -4.22479 591.43 263.46
9.31637 -18.9108 -2.83811 603.274 263.54
12.3061 -18.2499 -1.366 614.517 267.646
14.683 -16.2954 0.351547 622.742 276.609
-0.683977 -11.5617 -5.0537 561.062 287.815
-0.486884 -8.96298 -7.73773 561.159 297.8
-0.290134 -6.38105 -10.5055 561.276 307.71
-0.0922996 -3.80924 -13.2234 561.394 317.586
-2.67888 -0.0806771 -6.00875 548.376 332.05
-1.24399 -0.00269613 -7.06796 554.171 332.854
0.20236 -0.0676878 -8.13336 560.075 333.1
1.61917 -0.200369 -7.00526 565.524 333.343
3.00307 -0.484161 -5.97851 570.927 332.964
-12.1135 -9.03232 -1.14914 514.288 293.244
-10.4759 -10.1837 -1.1917 521.246 289.423
-8.41126 -10.4576 -1.16458 529.493 289.256
-6.54982 -9.80933 -0.923299 536.503 292.66
-8.28528 -8.87892 -1.17633 529.305 295.53
-10.2439 -8.60923 -1.17621 521.473 295.73
5.26134 -10.6355 -0.809812 583.366 294.616
6.99412 -11.5358 -1.04795 590.622 291.801
9.06591 -11.5649 -1.03518 598.794 292.6
10.8513 -10.6789 -0.959473 605.429 296.885
9.07794 -9.97801 -1.01626 598.148 298.86
7.1072 -9.9643 -1.02679 590.381 298.045
-6.17022 9.15288 -2.93462 530.096 367.281
-4.19092 7.36214 -4.96578 539.011 360.84
-1.97925 5.84921 -6.60158 548.654 355.645
0.582636 5.85102 -8.17132 559.008 356.581
3.10512 5.51968 -6.48252 568.804 356.599
5.45852 6.73313 -4.82875 577.27 362.625
7.60076 8.2452 -2.805 584.711 369.781
5.91212 10.0874 -4.1144 577.479 376.13
3.61335 11.2663 -5.51456 568.147 379.586
0.919898 11.68 -6.97299 557.602 379.847
-1.78719 11.6091 -5.59826 546.74 378.55
-4.23031 10.7585 -4.12988 537.24 374.309
-1.79779 8.09113 -5.19739 548.159 364.736
0.701069 7.79891 -7.21291 558.467 364.429
3.18264 7.7709 -5.11565 567.902 365.676
3.27317 8.57434 -4.52772 567.811 368.955
0.764339 8.90951 -6.34304 558.088 368.943
-1.80048 8.90937 -4.57805 547.689 368.037
3 20 21 23
3 21 22 23
3 0 1 36
3 15 16 45
3 0 17 36
3 16 26 45
3 17 18 37
3 25 26 44
3 17 36 37
3 26 44 45
3 18 19 38
3 24 25 43
3 18 37 38
3 25 43 44
3 19 20 38
3 23 24 43
3 20 21 39
3 22 23 42
3 20 38 39
3 23 42 43
3 21 22 27
3 21 27 39
3 22 27 42
3 27 28 42
3 27 28 39
3 28 42 47
3 28 39 40
3 1 36 41
3 15 45 46
3 1 2 41
3 14 15 46
3 28 29 40
3 28 29 47
3 2 40 41
3 14 46 47
3 2 29 40
3 14 29 47
3 2 3 29
3 13 14 29
3 29 30 31
3 29 30 35
3 3 29 31
3 13 29 35
3 30 32 33
3 30 33 34
3 30 31 32
3 30 34 35
3 3 4 31
3 12 13 35
3 4 5 48
3 11 12 54
3 5 6 48
3 10 11 54
3 6 48 59
3 10 54 55
3 6 7 59
3 9 10 55
3 7 58 59
3 9 55 56
3 8 57 58
3 8 56 57
3 7 8 58
3 8 9 56
3 4 31 48
3 12 35 54
3 31 48 49
3 35 53 54
3 31 49 50
3 35 52 53
3 31 32 50
3 34 35 52
3 32 33 50
3 33 34 52
3 33 50 51
3 33 51 52
3 48 49 60
3 49 60 50
3 50 60 61
3 50 51 61
3 51 52 61
3 61 62 52
3 52 53 62
3 53 54 62
3 54 55 63
3 55 56 63
3 56 63 64
3 56 57 64
3 64 65 57
3 57 58 65
3 58 59 65
3 48 59 65
