ply
format ascii 1.0
element vertex 66
property float x
property float y
property float z
property float u
property float v
element face 91
property list uchar int vertex_indices
end_header
-20.6657 -6.22524 21.3452 475.805 306.486
-20.2881 -0.889391 20.9107 475.594 327.61
-19.6079 4.43154 20.6582 476.512 348.801
-18.4321 9.53256 18.4291 480.153 369.114
-16.499 14.1651 13.5658 487.863 387.603
-13.2505 17.8866 7.95749 501.319 402.898
-8.90878 20.4699 3.33412 519.113 414.189
-4.04412 22.1271 -0.733047 539.085 422.069
1.16055 22.351 -4.71606 560.859 424.429
6.40923 21.5442 -0.694112 580.329 423.497
11.0428 19.1874 3.45261 597.876 416.249
15.0427 15.9903 8.05978 613.062 405.506
17.9068 11.8863 13.6575 623.75 390.878
19.4169 7.09202 18.4949 629.629 372.976
20.0197 1.95171 20.8411 632.945 353.152
20.0154 -3.34892 21.1125 634.668 332.284
19.6531 -8.63231 21.4049 634.971 311.358
-17.106 -13.9214 0.107793 499.969 275.414
-15.0768 -16.2595 -1.61011 509.357 266.759
-12.2293 -17.426 -3.00726 521.439 263.043
-9.16459 -17.5467 -4.34265 533.99 263.532
-6.15941 -16.9814 -5.56428 546.03 266.715
3.06117 -17.351 -5.50585 582.352 268.547
5.95814 -18.4295 -4.20825 593.644 265.449
9.04722 -18.8248 -2.83095 605.425 265.121
12.1105 -18.2001 -1.38871 616.73 268.81
14.5787 -16.278 0.304052 625.159 277.424
-0.759926 -11.6365 -5.07236 565.212 289.75
-0.578769 -9.06566 -7.7157 565.969 299.698
-0.398311 -6.51295 -10.4641 566.767 309.565
-0.210435 -3.97322 -13.1841 567.588 319.385
-2.79886 -0.0821368 -5.9565 553.516 334.482
-1.3152 0.00210298 -7.03894 559.697 335.24
0.181451 -0.0738191 -8.12498 565.986 335.371
1.65391 -0.214046 -6.96174 571.406 335.453
3.07712 -0.529368 -5.98943 576.76 334.808
-12.246 -9.06188 -1.22598 517.846 296.172
-10.5746 -10.0547 -1.18114 524.739 292.858
-8.5598 -10.3521 -1.04979 532.709 292.416
-6.66912 -9.91999 -0.904505 539.933 294.806
-8.42439 -9.10129 -1.1935 532.858 297.38
-10.3644 -8.81319 -1.20152 525.142 297.825
5.165 -10.7127 -0.786353 586.645 295.906
6.94691 -11.3894 -0.973605 593.944 293.855
8.96224 -11.3946 -1.02707 601.88 294.547
10.7615 -10.6827 -0.970886 608.68 297.999
8.9589 -10.1478 -0.997599 601.425 299.463
7.00686 -10.1642 -0.99909 593.764 298.703
-5.58265 9.6188 -3.00938 538.18 372.005
-3.88518 7.5751 -5.01362 546.264 364.365
-1.83109 5.83105 -6.61433 555.502 358.071
0.68723 5.79413 -8.17717 565.959 358.675
3.18106 5.4773 -6.42562 575.243 358.479
5.43466 6.88974 -4.83153 583.041 364.999
7.36445 8.65801 -2.85004 589.306 372.843
5.74529 10.2577 -4.0908 582.832 378.454
3.59319 11.2532 -5.4513 574.517 381.483
1.09841 11.6062 -6.9374 565.122 381.846
-1.3985 11.6029 -5.57932 554.836 381.073
-3.69545 10.9621 -4.12974 545.523 377.866
-1.47206 8.29171 -5.17376 555.55 368.034
0.853152 7.91984 -7.11531 565.498 367.213
3.19066 7.9548 -5.08449 573.948 368.374
3.19656 8.43153 -4.56128 573.621 370.305
0.914829 8.68245 -6.35355 565.207 370.312
-1.3941 8.77209 -4.61679 555.493 370.008
3 20 21 23
3 21 22 23
3 0 1 36
3 15 16 45
3 0 17 36
3 16 26 45
3 17 18 37
3 25 26 44
3 17 36 37
3 26 44 45
3 18 19 38
3 24 25 43
3 18 37 38
3 25 43 44
3 19 20 38
3 23 24 43
3 20 21 39
3 22 23 42
3 20 38 39
3 23 42 43
3 21 22 27
3 21 27 39
3 22 27 42
3 27 28 42
3 27 28 39
3 28 42 47
3 28 39 40
3 1 36 41
3 15 45 46
3 1 2 41
3 14 15 46
3 28 29 40
3 28 29 47
3 2 40 41
3 14 46 47
3 2 29 40
3 14 29 47
3 2 3 29
3 13 14 29
3 29 30 31
3 29 30 35
3 3 29 31
3 13 29 35
3 30 32 33
3 30 33 34
3 30 31 32
3 30 34 35
3 3 4 31
3 12 13 35
3 4 5 48
3 11 12 54
3 5 6 48
3 10 11 54
3 6 48 59
3 10 54 55
3 6 7 59
3 9 10 55
3 7 58 59
3 9 55 56
3 8 57 58
3 8 56 57
3 7 8 58
3 8 9 56
3 4 31 48
3 12 35 54
3 31 48 49
3 35 53 54
3 31 49 50
3 35 52 53
3 31 32 50
3 34 35 52
3 32 33 50
3 33 34 52
3 33 50 51
3 33 51 52
3 48 49 60
3 49 60 50
3 50 60 61
3 50 51 61
3 51 52 61
3 61 62 52
3 52 53 62
3 53 54 62
3 54 55 63
3 55 56 63
3 56 63 64
3 56 57 64
3 64 65 57
3 57 58 65
3 58 59 65
3 48 59 65
