ply
format ascii 1.0
element vertex 66
property float x
property float y
property float z
property float u
property float v
element face 91
property list uchar int vertex_indices
end_header
-20.6589 -6.29971 21.3272 478.789 309.675
-20.2623 -0.948261 20.9008 478.624 330.688
-19.5551 4.38476 20.6005 479.611 351.775
-18.3423 9.51716 18.5138 483.532 371.912
-16.3754 14.1525 13.495 492.035 389.802
-13.1161 17.8838 7.98018 506.138 404.553
-8.82402 20.54 3.38229 524.185 415.683
-3.9987 22.265 -0.687678 544.375 423.48
1.19072 22.4967 -4.68148 566.48 425.59
6.36695 21.6064 -0.723886 584.951 424.91
10.8414 19.1001 3.45836 601.158 417.679
14.7209 15.8406 8.05318 615.116 407.352
17.602 11.7862 13.5749 625.01 393.716
19.2481 7.09309 18.4695 630.644 376.974
19.9727 2.05654 20.7648 634.12 358.005
20.0369 -3.12791 21.0775 636.074 337.801
19.7207 -8.30466 21.3212 636.581 317.465
-17.2469 -13.7752 0.201715 505.335 277.465
-15.3684 -16.2422 -1.66734 514.465 268.159
-12.5829 -17.5318 -3.05498 526.459 263.91
-9.53028 -17.7226 -4.34855 539.05 264.083
-6.51177 -17.2268 -5.49664 551.189 266.961
3.13742 -17.4648 -5.4355 588.777 269.779
5.98611 -18.5538 -4.16608 599.613 266.876
9.03177 -18.9705 -2.795 610.922 266.702
12.0578 -18.3969 -1.3478 621.761 270.412
14.4919 -16.5227 0.395934 629.682 279.043
-0.740093 -11.6705 -5.08176 571.437 291.028
-0.603081 -9.03135 -7.78447 572.377 300.865
-0.461926 -6.40567 -10.5303 573.36 310.641
-0.305472 -3.79018 -13.1689 574.353 320.405
-2.76541 0.115519 -6.04128 559.808 336.181
-1.3177 0.171061 -7.0732 565.937 336.75
0.139075 0.083663 -8.13291 572.166 336.758
1.60144 -0.0368466 -6.98859 577.324 337.084
3.01992 -0.319438 -6.05988 582.478 336.715
-11.8008 -9.28609 -1.26753 525.644 296.848
-10.1347 -10.5155 -1.24832 532.557 292.685
-7.99506 -10.765 -1.09924 540.895 292.568
-6.0911 -9.98208 -0.756085 547.848 296.439
-7.88447 -9.05086 -1.1243 540.722 299.315
-9.89175 -8.79028 -1.19416 532.856 299.543
4.88989 -10.7468 -0.707551 590.812 297.708
6.62725 -11.7491 -0.995674 598.074 294.4
8.74979 -11.8076 -1.01371 606.36 294.989
10.5681 -10.857 -0.904947 613.037 299.436
8.77785 -10.0765 -0.949161 605.816 301.789
6.76932 -10.0595 -0.941311 597.993 301.079
-5.52486 9.59136 -2.91036 544.103 372.834
-3.81163 7.646 -5.0696 552.548 365.447
-1.77781 5.95527 -6.69721 561.882 359.288
0.707134 5.9576 -8.22065 572.311 359.952
3.17571 5.60652 -6.44496 581.149 359.893
5.40198 6.96822 -4.83938 588.515 366.409
7.33878 8.64129 -2.79069 594.421 374.122
5.77119 10.2732 -4.09925 588.394 379.638
3.64955 11.3212 -5.45839 580.446 382.643
1.15201 11.7047 -6.96897 571.351 382.872
-1.35567 11.684 -5.59831 560.917 382.097
-3.65788 10.9977 -4.10049 551.457 378.821
-1.37519 8.36969 -5.18482 561.823 369.2
0.884869 8.02108 -7.05508 571.677 368.333
3.17668 8.02841 -5.09835 579.609 369.645
3.20304 8.51694 -4.55544 579.264 371.677
0.963204 8.78575 -6.35233 571.355 371.498
-1.29952 8.86636 -4.60423 561.648 371.291
3 20 21 23
3 21 22 23
3 0 1 36
3 15 16 45
3 0 17 36
3 16 26 45
3 17 18 37
3 25 26 44
3 17 36 37
3 26 44 45
3 18 19 38
3 24 25 43
3 18 37 38
3 25 43 44
3 19 20 38
3 23 24 43
3 20 21 39
3 22 23 42
3 20 38 39
3 23 42 43
3 21 22 27
3 21 27 39
3 22 27 42
3 27 28 42
3 27 28 39
3 28 42 47
3 28 39 40
3 1 36 41
3 15 45 46
3 1 2 41
3 14 15 46
3 28 29 40
3 28 29 47
3 2 40 41
3 14 46 47
3 2 29 40
3 14 29 47
3 2 3 29
3 13 14 29
3 29 30 31
3 29 30 35
3 3 29 31
3 13 29 35
3 30 32 33
3 30 33 34
3 30 31 32
3 30 34 35
3 3 4 31
3 12 13 35
3 4 5 48
3 11 12 54
3 5 6 48
3 10 11 54
3 6 48 59
3 10 54 55
3 6 7 59
3 9 10 55
3 7 58 59
3 9 55 56
3 8 57 58
3 8 56 57
3 7 8 58
3 8 9 56
3 4 31 48
3 12 35 54
3 31 48 49
3 35 53 54
3 31 49 50
3 35 52 53
3 31 32 50
3 34 35 52
3 32 33 50
3 33 34 52
3 33 50 51
3 33 51 52
3 48 49 60
3 49 60 50
3 50 60 61
3 50 51 61
3 51 52 61
3 61 62 52
3 52 53 62
3 53 54 62
3 54 55 63
3 55 56 63
3 56 63 64
3 56 57 64
3 64 65 57
3 57 58 65
3 58 59 65
3 48 59 65
