ply
format ascii 1.0
element vertex 66
property float x
property float y
property float z
property float u
property float v
element face 91
property list uchar int vertex_indices
end_header
-20.6581 -6.0146 21.4475 476.481 300.94
-20.2244 -0.636089 21.0221 475.806 322.412
-19.5405 4.73563 20.7218 476.097 343.986
-18.4337 9.86447 18.4904 478.601 364.629
-16.5394 14.4495 13.566 485.068 383.254
-13.2563 18.0889 7.98662 497.612 398.727
-8.89671 20.6352 3.32101 514.719 410.45
-4.00108 22.2535 -0.798054 534.254 418.796
1.25107 22.3731 -4.73792 555.852 421.386
6.55082 21.5839 -0.743507 576.302 421.079
11.2229 19.209 3.43137 594.961 414.213
15.2251 15.9825 8.1258 611.248 403.705
18.0315 11.8545 13.744 623.016 389.146
19.3906 7.03469 18.5812 629.549 371.104
19.8664 1.82464 20.9059 633.324 350.887
19.8141 -3.56999 21.2059 635.543 329.518
19.4444 -8.9445 21.5433 636.489 308.083
-17.2731 -13.4788 0.16658 498.034 271.127
-15.2125 -15.8454 -1.62496 507.678 262.561
-12.3398 -17.0085 -3.03647 519.894 259.174
-9.26497 -17.1488 -4.36095 532.419 259.942
-6.24796 -16.6273 -5.54097 544.377 263.317
3.46425 -17.069 -5.54456 583.01 266.105
6.28486 -18.1188 -4.26237 594.372 263.375
9.29774 -18.5289 -2.85783 606.172 263.279
12.3166 -18.013 -1.37057 617.549 266.862
14.8206 -16.2189 0.328159 626.252 275.285
-0.640039 -11.5445 -5.05872 564.111 286.114
-0.446032 -8.78817 -7.77776 564.207 296.89
-0.253482 -6.05359 -10.5942 564.329 307.571
-0.0606604 -3.32406 -13.3127 564.433 318.24
-2.88638 0.142696 -6.11522 550.057 331.271
-1.34283 0.298447 -7.13768 556.319 332.521
0.230937 0.258227 -8.14104 562.786 333.011
1.76228 0.0919409 -7.07384 568.686 333.16
3.24044 -0.275806 -6.06366 574.481 332.481
-12.1883 -9.25522 -1.08945 516.481 290.126
-10.447 -10.3734 -1.17508 523.906 286.503
-8.33411 -10.6161 -1.17581 532.379 286.529
-6.42308 -9.90589 -0.930021 539.557 290.257
-8.26057 -9.14379 -1.13281 531.98 292.4
-10.2646 -8.90159 -1.15443 523.943 292.421
5.23518 -10.7221 -0.85485 586.047 292.478
7.00498 -11.6754 -1.05575 593.534 289.512
9.11444 -11.7382 -1.00889 601.9 290.253
10.9851 -10.8881 -0.896664 608.884 294.504
9.15149 -10.2559 -1.00434 601.36 296.143
7.14595 -10.2165 -1.00936 593.408 295.361
-6.77144 8.79631 -2.90948 529.977 364.011
-4.57487 7.03916 -4.94585 539.931 357.902
-2.1405 5.67651 -6.59519 550.558 353.5
0.550887 5.68081 -8.17529 561.555 354.639
3.19372 5.33818 -6.46419 571.791 354.664
5.73496 6.38107 -4.79127 580.994 360.126
8.06945 7.84464 -2.77718 589.109 367.188
6.26469 9.85782 -4.06788 581.324 374.209
3.77484 11.1237 -5.43974 571.191 377.942
0.886081 11.5236 -6.89109 559.897 378.051
-2.02676 11.4871 -5.53358 548.088 376.662
-4.68251 10.5691 -4.09249 537.685 371.908
-2.19067 7.91208 -5.27276 549.034 362.446
0.669757 7.63499 -7.28415 560.925 362.512
3.50082 7.55235 -5.16975 571.697 363.69
3.61775 8.36917 -4.52584 571.639 367.035
0.730754 8.68309 -6.41017 560.489 366.768
-2.21818 8.75066 -4.60111 548.389 365.813
3 20 21 23
3 21 22 23
3 0 1 36
3 15 16 45
3 0 17 36
3 16 26 45
3 17 18 37
3 25 26 44
3 17 36 37
3 26 44 45
3 18 19 38
3 24 25 43
3 18 37 38
3 25 43 44
3 19 20 38
3 23 24 43
3 20 21 39
3 22 23 42
3 20 38 39
3 23 42 43
3 21 22 27
3 21 27 39
3 22 27 42
3 27 28 42
3 27 28 39
3 28 42 47
3 28 39 40
3 1 36 41
3 15 45 46
3 1 2 41
3 14 15 46
3 28 29 40
3 28 29 47
3 2 40 41
3 14 46 47
3 2 29 40
3 14 29 47
3 2 3 29
3 13 14 29
3 29 30 31
3 29 30 35
3 3 29 31
3 13 29 35
3 30 32 33
3 30 33 34
3 30 31 32
3 30 34 35
3 3 4 31
3 12 13 35
3 4 5 48
3 11 12 54
3 5 6 48
3 10 11 54
3 6 48 59
3 10 54 55
3 6 7 59
3 9 10 55
3 7 58 59
3 9 55 56
3 8 57 58
3 8 56 57
3 7 8 58
3 8 9 56
3 4 31 48
3 12 35 54
3 31 48 49
3 35 53 54
3 31 49 50
3 35 52 53
3 31 32 50
3 34 35 52
3 32 33 50
3 33 34 52
3 33 50 51
3 33 51 52
3 48 49 60
3 49 60 50
3 50 60 61
3 50 51 61
3 51 52 61
3 61 62 52
3 52 53 62
3 53 54 62
3 54 55 63
3 55 56 63
3 56 63 64
3 56 57 64
3 64 65 57
3 57 58 65
3 58 59 65
3 48 59 65
