ply
format ascii 1.0
element vertex 66
property float x
property float y
property float z
property float u
property float v
element face 91
property list uchar int vertex_indices
end_header
-20.5761 -6.25578 21.2739 476.02 305.087
-20.2727 -0.941162 20.8906 475.308 326.109
-19.6618 4.35686 20.6077 475.779 347.193
-18.5014 9.44543 18.3864 479.09 367.51
-16.543 14.0947 13.5699 486.507 386.198
-13.2794 17.8539 7.94459 499.642 401.821
-8.91425 20.4604 3.27706 517.245 413.408
-4.02037 22.1516 -0.705395 537.062 421.649
1.22002 22.4058 -4.71227 558.795 424.362
6.46328 21.5621 -0.704905 578.471 423.394
11.1092 19.2166 3.36542 596.353 416.284
15.1443 16.0543 8.03881 611.96 405.768
17.9997 11.9292 13.6848 622.996 391.078
19.4677 7.07013 18.5007 629.119 372.894
20.0248 1.8585 20.8521 632.563 352.769
19.9562 -3.50352 21.1907 634.229 331.647
19.5451 -8.85153 21.4541 634.568 310.442
-16.833 -13.8414 0.15459 500.161 274.964
-14.9543 -16.2582 -1.60364 509.006 266.032
-12.1915 -17.4923 -3.00175 520.763 262.13
-9.18272 -17.6461 -4.32445 533.052 262.586
-6.23464 -17.1045 -5.54553 544.806 265.765
3.14198 -17.573 -5.45186 581.791 267.565
6.0131 -18.6696 -4.16124 593.087 264.463
9.08125 -19.0619 -2.79102 604.865 264.218
12.107 -18.374 -1.3507 616.043 268.217
14.4798 -16.3574 0.349368 624.07 277.217
-0.818693 -11.5293 -5.11689 563.828 289.862
-0.645081 -9.09165 -7.7102 564.386 299.324
-0.467631 -6.67082 -10.4247 565.003 308.711
-0.281297 -4.26614 -13.1622 565.669 318.037
-2.75067 -0.182058 -5.96424 552.182 333.744
-1.33799 -0.140911 -7.01384 558.041 334.37
0.0779214 -0.228692 -8.08749 563.97 334.487
1.50231 -0.356539 -6.95237 569.262 334.627
2.89527 -0.625323 -5.99704 574.541 334.185
-12.0328 -8.86794 -1.22708 517.554 296.307
-10.4119 -10.13 -1.23609 524.405 291.964
-8.28381 -10.3838 -1.16629 532.84 291.795
-6.41529 -9.62327 -0.865332 539.797 295.54
-8.15166 -8.56536 -1.2091 532.68 299.006
-10.1509 -8.2891 -1.21978 524.724 299.318
5.06863 -10.4708 -0.73812 585.195 296.667
6.79209 -11.5016 -1.06654 592.46 293.249
8.92758 -11.5636 -1.05603 600.869 293.834
10.7337 -10.5902 -0.9592 607.564 298.377
8.96914 -9.71782 -1.00472 600.314 301.125
6.94759 -9.69102 -1.01345 592.365 300.446
-5.68102 9.54775 -2.9436 536.03 371.176
-3.96094 7.55024 -4.97727 544.178 363.812
-1.91031 5.79697 -6.61825 553.41 357.57
0.626358 5.72871 -8.17344 563.884 358.16
3.15292 5.42651 -6.46978 573.396 358.087
5.42055 6.84789 -4.82772 581.254 364.697
7.39838 8.54581 -2.80855 587.752 372.315
5.78284 10.2313 -4.13703 581.175 378.221
3.62473 11.3482 -5.55723 572.713 381.669
1.04686 11.7758 -7.00138 562.87 382.238
-1.52873 11.7291 -5.65009 552.351 381.163
-3.83241 10.9794 -4.14483 543.12 377.437
-1.59353 8.0709 -5.1067 553.32 366.771
0.769522 7.65924 -7.11241 563.382 365.906
3.15932 7.70785 -5.07058 572.119 367.188
3.23889 8.75253 -4.54068 571.869 371.377
0.869897 9.1355 -6.30534 562.964 371.825
-1.53326 9.12333 -4.55228 552.985 370.985
3 20 21 23
3 21 22 23
3 0 1 36
3 15 16 45
3 0 17 36
3 16 26 45
3 17 18 37
3 25 26 44
3 17 36 37
3 26 44 45
3 18 19 38
3 24 25 43
3 18 37 38
3 25 43 44
3 19 20 38
3 23 24 43
3 20 21 39
3 22 23 42
3 20 38 39
3 23 42 43
3 21 22 27
3 21 27 39
3 22 27 42
3 27 28 42
3 27 28 39
3 28 42 47
3 28 39 40
3 1 36 41
3 15 45 46
3 1 2 41
3 14 15 46
3 28 29 40
3 28 29 47
3 2 40 41
3 14 46 47
3 2 29 40
3 14 29 47
3 2 3 29
3 13 14 29
3 29 30 31
3 29 30 35
3 3 29 31
3 13 29 35
3 30 32 33
3 30 33 34
3 30 31 32
3 30 34 35
3 3 4 31
3 12 13 35
3 4 5 48
3 11 12 54
3 5 6 48
3 10 11 54
3 6 48 59
3 10 54 55
3 6 7 59
3 9 10 55
3 7 58 59
3 9 55 56
3 8 57 58
3 8 56 57
3 7 8 58
3 8 9 56
3 4 31 48
3 12 35 54
3 31 48 49
3 35 53 54
3 31 49 50
3 35 52 53
3 31 32 50
3 34 35 52
3 32 33 50
3 33 34 52
3 33 50 51
3 33 51 52
3 48 49 60
3 49 60 50
3 50 60 61
3 50 51 61
3 51 52 61
3 61 62 52
3 52 53 62
3 53 54 62
3 54 55 63
3 55 56 63
3 56 63 64
3 56 57 64
3 64 65 57
3 57 58 65
3 58 59 65
3 48 59 65
