ply
format ascii 1.0
element vertex 66
property float x
property float y
property float z
property float u
property float v
element face 91
property list uchar int vertex_indices
end_header
-20.6427 -6.22485 21.3453 481.208 313.101
-20.1666 -0.905838 20.8612 481.411 333.805
-19.3861 4.39357 20.5731 482.685 354.618
-18.1353 9.49674 18.5079 486.86 374.304
-16.1679 14.0996 13.4796 495.676 391.409
-12.9438 17.8061 7.96901 509.941 405.393
-8.7207 20.4743 3.38422 527.905 416.042
-3.98264 22.2485 -0.704579 547.895 423.585
1.13498 22.5194 -4.68614 569.828 425.476
6.27283 21.6242 -0.721874 587.713 425.339
10.6811 19.0655 3.46842 603.251 418.514
14.4933 15.7684 8.0338 616.539 408.695
17.3598 11.7279 13.5345 625.908 395.895
19.0533 7.0899 18.4143 631.32 380.101
19.8399 2.12875 20.6867 634.839 361.864
19.9785 -2.97508 20.9657 637.048 342.182
19.7263 -8.07164 21.2515 637.742 322.371
-17.3817 -14.0043 0.210761 508.678 277.58
-15.4478 -16.4551 -1.64767 518.086 268.266
-12.6301 -17.7416 -3.03556 530.218 263.983
-9.54746 -17.9164 -4.32801 542.918 264.156
-6.49876 -17.3868 -5.46256 555.144 267.101
3.04715 -17.5395 -5.42336 592.022 270.416
5.89283 -18.6391 -4.1587 602.678 267.703
8.93824 -19.0588 -2.79164 613.801 267.744
11.9686 -18.5048 -1.3426 624.47 271.587
14.4382 -16.681 0.399707 632.351 280.227
-0.679541 -11.6505 -5.039 575.302 291.892
-0.534121 -8.93019 -7.79163 576.461 301.654
-0.387907 -6.22081 -10.5485 577.628 311.373
-0.227859 -3.51835 -13.1503 578.763 321.12
-2.64846 0.201166 -6.02446 564.008 336.817
-1.21708 0.292057 -7.07797 570.103 337.423
0.231984 0.223939 -8.14784 576.333 337.414
1.66459 0.0938921 -6.97706 581.239 337.861
3.03906 -0.216613 -6.03686 586.118 337.511
-11.7523 -9.44545 -1.25793 529.609 297.125
-10.1668 -10.4775 -1.19938 536.066 293.782
-8.20552 -10.7504 -1.02872 543.636 293.576
-6.39971 -10.1917 -0.787966 550.268 296.558
-8.08546 -9.36985 -1.12219 543.657 298.958
-9.95086 -9.11931 -1.18069 536.401 299.151
5.10128 -10.9336 -0.734611 594.896 298.386
6.76617 -11.6788 -0.934123 601.704 296.108
8.70574 -11.6901 -0.979968 609.22 296.842
10.4039 -10.9164 -0.905027 615.454 300.563
8.70234 -10.3252 -0.941455 608.695 302.154
6.84425 -10.3331 -0.934066 601.522 301.368
-5.42412 9.61642 -2.94192 548.149 373.225
-3.7082 7.72074 -5.10431 556.69 365.883
-1.69179 6.06141 -6.69693 565.98 359.76
0.760301 6.0813 -8.2403 576.32 360.354
3.18835 5.73391 -6.41242 584.771 360.569
5.37887 7.07589 -4.84831 591.85 367.167
7.28432 8.72011 -2.80736 597.446 374.972
5.75766 10.3739 -4.08521 591.69 380.372
3.66505 11.4369 -5.38104 583.972 383.241
1.19747 11.8213 -6.92898 575.195 383.241
-1.287 11.7731 -5.54688 564.833 382.473
-3.56717 11.0521 -4.10143 555.464 379.196
-1.14345 8.5234 -5.21491 566.364 370.013
0.944281 8.21322 -7.07529 575.598 369.076
3.05485 8.22844 -5.08882 582.603 370.62
3.06743 8.54802 -4.55019 582.228 372.035
1.01453 8.78811 -6.33222 575.238 371.571
-1.0639 8.8507 -4.62657 566.217 371.501
3 20 21 23
3 21 22 23
3 0 1 36
3 15 16 45
3 0 17 36
3 16 26 45
3 17 18 37
3 25 26 44
3 17 36 37
3 26 44 45
3 18 19 38
3 24 25 43
3 18 37 38
3 25 43 44
3 19 20 38
3 23 24 43
3 20 21 39
3 22 23 42
3 20 38 39
3 23 42 43
3 21 22 27
3 21 27 39
3 22 27 42
3 27 28 42
3 27 28 39
3 28 42 47
3 28 39 40
3 1 36 41
3 15 45 46
3 1 2 41
3 14 15 46
3 28 29 40
3 28 29 47
3 2 40 41
3 14 46 47
3 2 29 40
3 14 29 47
3 2 3 29
3 13 14 29
3 29 30 31
3 29 30 35
3 3 29 31
3 13 29 35
3 30 32 33
3 30 33 34
3 30 31 32
3 30 34 35
3 3 4 31
3 12 13 35
3 4 5 48
3 11 12 54
3 5 6 48
3 10 11 54
3 6 48 59
3 10 54 55
3 6 7 59
3 9 10 55
3 7 58 59
3 9 55 56
3 8 57 58
3 8 56 57
3 7 8 58
3 8 9 56
3 4 31 48
3 12 35 54
3 31 48 49
3 35 53 54
3 31 49 50
3 35 52 53
3 31 32 50
3 34 35 52
3 32 33 50
3 33 34 52
3 33 50 51
3 33 51 52
3 48 49 60
3 49 60 50
3 50 60 61
3 50 51 61
3 51 52 61
3 61 62 52
3 52 53 62
3 53 54 62
3 54 55 63
3 55 56 63
3 56 63 64
3 56 57 64
3 64 65 57
3 57 58 65
3 58 59 65
3 48 59 65
