ply
format ascii 1.0
element vertex 66
property float x
property float y
property float z
property float u
property float v
element face 91
property list uchar int vertex_indices
end_header
-20.6239 -6.04478 21.4231 477.68 301.7
-20.1934 -0.666573 20.9957 476.818 323.017
-19.511 4.70558 20.6967 476.925 344.456
-18.4127 9.84251 18.4702 479.164 364.864
-16.5301 14.4539 13.578 485.271 383.162
-13.2507 18.1274 7.98603 497.474 398.35
-8.88182 20.7014 3.31971 514.323 409.906
-3.96542 22.3285 -0.795186 533.684 418.096
1.30826 22.4404 -4.71804 555.157 420.531
6.58844 21.6332 -0.76153 575.558 420.632
11.247 19.2555 3.4161 594.24 414.276
15.2431 16.0333 8.11548 610.627 404.349
18.0402 11.9049 13.7475 622.557 390.409
19.3763 7.07525 18.5721 629.238 372.848
19.8339 1.85795 20.8964 633.144 352.916
19.7812 -3.54038 21.21 635.525 331.69
19.4206 -8.91987 21.5575 636.678 310.391
-17.1518 -13.5299 0.148857 499.201 270.512
-15.0772 -15.8534 -1.63099 508.857 262.112
-12.2183 -17.0035 -3.04497 520.952 258.782
-9.16112 -17.1569 -4.36648 533.32 259.489
-6.16031 -16.6502 -5.54917 545.115 262.789
3.44404 -17.1539 -5.52024 583.158 265.605
6.24741 -18.1914 -4.24471 594.451 263.127
9.24007 -18.5907 -2.84675 606.151 263.276
12.2382 -18.0837 -1.36145 617.411 267.009
14.7425 -16.3285 0.331345 626.073 275.444
-0.675926 -11.5906 -5.06273 564.121 285.522
-0.480286 -8.80128 -7.76725 564.054 296.161
-0.28422 -6.03546 -10.5884 564.022 306.688
-0.0875494 -3.27592 -13.3264 563.979 317.204
-2.92485 0.193422 -6.11939 549.692 330.616
-1.38273 0.356541 -7.1368 555.882 331.862
0.192098 0.319854 -8.13626 562.295 332.342
1.73023 0.145042 -7.07933 568.227 332.593
3.21385 -0.233445 -6.0745 574.055 332.007
-12.1137 -9.25408 -1.08663 517.174 289.658
-10.4015 -10.3504 -1.18249 524.471 286.181
-8.32681 -10.5937 -1.18959 532.757 286.258
-6.44206 -9.91242 -0.946671 539.794 289.919
-8.24857 -9.16724 -1.13783 532.355 291.92
-10.2177 -8.92387 -1.15844 524.489 291.892
5.24077 -10.7674 -0.856803 586.179 292.399
6.98907 -11.7042 -1.05779 593.559 289.552
9.0662 -11.7704 -1.00326 601.756 290.337
10.9151 -10.9436 -0.879883 608.603 294.534
9.1045 -10.3268 -0.994098 601.197 296.04
7.12783 -10.2825 -1.00168 593.396 295.227
-6.87919 8.80622 -2.90065 529.268 363.069
-4.63765 7.07727 -4.9331 539.338 357.052
-2.17292 5.73849 -6.58424 550.021 352.744
0.538278 5.73716 -8.1585 561.002 353.836
3.19905 5.38219 -6.46994 571.317 354.041
5.7739 6.38391 -4.79441 580.631 359.541
8.16146 7.80104 -2.77541 588.936 366.64
6.31336 9.81132 -4.06956 580.929 373.42
3.78807 11.0706 -5.42617 570.638 376.897
0.878657 11.4748 -6.84572 559.267 376.805
-2.05525 11.4542 -5.50368 547.466 375.478
-4.74845 10.5615 -4.0876 537.026 370.849
-2.22846 7.95797 -5.26401 548.453 361.667
0.660834 7.68437 -7.29212 560.358 361.703
3.51837 7.57704 -5.17981 571.243 363.05
3.63533 8.34656 -4.53742 571.2 366.242
0.715601 8.65807 -6.41978 559.925 365.705
-2.26317 8.74975 -4.59668 547.797 364.875
3 20 21 23
3 21 22 23
3 0 1 36
3 15 16 45
3 0 17 36
3 16 26 45
3 17 18 37
3 25 26 44
3 17 36 37
3 26 44 45
3 18 19 38
3 24 25 43
3 18 37 38
3 25 43 44
3 19 20 38
3 23 24 43
3 20 21 39
3 22 23 42
3 20 38 39
3 23 42 43
3 21 22 27
3 21 27 39
3 22 27 42
3 27 28 42
3 27 28 39
3 28 42 47
3 28 39 40
3 1 36 41
3 15 45 46
3 1 2 41
3 14 15 46
3 28 29 40
3 28 29 47
3 2 40 41
3 14 46 47
3 2 29 40
3 14 29 47
3 2 3 29
3 13 14 29
3 29 30 31
3 29 30 35
3 3 29 31
3 13 29 35
3 30 32 33
3 30 33 34
3 30 31 32
3 30 34 35
3 3 4 31
3 12 13 35
3 4 5 48
3 11 12 54
3 5 6 48
3 10 11 54
3 6 48 59
3 10 54 55
3 6 7 59
3 9 10 55
3 7 58 59
3 9 55 56
3 8 57 58
3 8 56 57
3 7 8 58
3 8 9 56
3 4 31 48
3 12 35 54
3 31 48 49
3 35 53 54
3 31 49 50
3 35 52 53
3 31 32 50
3 34 35 52
3 32 33 50
3 33 34 52
3 33 50 51
3 33 51 52
3 48 49 60
3 49 60 50
3 50 60 61
3 50 51 61
3 51 52 61
3 61 62 52
3 52 53 62
3 53 54 62
3 54 55 63
3 55 56 63
3 56 63 64
3 56 57 64
3 64 65 57
3 57 58 65
3 58 59 65
3 48 59 65
