ply
format ascii 1.0
element vertex 66
property float x
property float y
property float z
property float u
property float v
element face 91
property list uchar int vertex_indices
end_header
-20.5928 -6.30856 21.3837 477.362 307.281
-20.185 -0.932433 20.9387 477.26 328.584
-19.4857 4.42921 20.6573 478.246 349.952
-18.3104 9.56453 18.4693 481.901 370.386
-16.398 14.1948 13.5653 489.657 388.788
-13.1731 17.8988 7.98325 503.147 403.933
-8.86859 20.483 3.33315 520.918 415.156
-4.04069 22.1532 -0.717436 540.836 423.029
1.14163 22.3741 -4.71123 562.63 425.32
6.37178 21.5488 -0.693834 581.947 424.402
10.938 19.1224 3.44248 599.169 416.943
14.8655 15.8887 8.07616 613.974 406.125
17.7046 11.8056 13.6496 624.443 391.67
19.2604 7.07911 18.4511 630.387 374.128
19.9092 2.01309 20.7904 633.816 354.642
19.9311 -3.21969 21.0614 635.623 334.041
19.5853 -8.43693 21.3395 635.977 313.368
-17.1838 -13.8335 0.14379 501.409 276.442
-15.244 -16.2241 -1.61936 510.53 267.513
-12.458 -17.4627 -3.01777 522.436 263.475
-9.4301 -17.6393 -4.34369 534.896 263.721
-6.44592 -17.1316 -5.53406 546.894 266.666
3.16898 -17.3708 -5.51057 584.744 269.192
5.99365 -18.4016 -4.21114 595.71 266.291
9.00889 -18.7654 -2.82439 607.159 266.099
11.9999 -18.1599 -1.36997 618.149 269.73
14.4198 -16.2951 0.322349 626.367 278.148
-0.693633 -11.707 -5.06908 567.428 290.189
-0.530409 -9.08259 -7.75831 568.172 300.297
-0.369304 -6.47386 -10.5105 568.937 310.336
-0.198517 -3.87489 -13.1882 569.715 320.348
-2.6634 -0.0717414 -5.98804 555.983 335.27
-1.22104 -0.0232182 -7.05921 562.038 335.861
0.226431 -0.106535 -8.1315 568.16 335.933
1.64565 -0.221947 -6.97216 573.337 336.12
3.02773 -0.489264 -6.00287 578.494 335.673
-12.2227 -9.20026 -1.23316 519.807 296.351
-10.5091 -10.2789 -1.18353 526.897 292.72
-8.41121 -10.5653 -1.06269 535.194 292.36
-6.48636 -9.99729 -0.858145 542.481 295.318
-8.29867 -9.15124 -1.17295 535.185 297.966
-10.3009 -8.87314 -1.19727 527.231 298.338
5.0976 -10.7307 -0.789038 588.223 296.609
6.887 -11.5119 -0.984607 595.599 294.151
8.9692 -11.5288 -1.00741 603.795 294.833
10.8026 -10.7253 -0.94405 610.694 298.671
8.97742 -10.1206 -0.991358 603.33 300.392
6.97702 -10.1359 -0.998326 595.479 299.61
-5.54619 9.5557 -2.96919 540.161 372.544
-3.82908 7.56928 -5.02988 548.379 365.096
-1.77785 5.85955 -6.65287 557.647 358.909
0.720461 5.83166 -8.23481 568.071 359.522
3.19229 5.52887 -6.41417 577.2 359.424
5.42403 6.92311 -4.80757 584.875 365.909
7.34194 8.65761 -2.82492 591.056 373.665
5.78075 10.307 -4.0988 584.829 379.464
3.66005 11.3723 -5.44649 576.636 382.75
1.14618 11.7484 -6.9669 567.203 383.156
-1.38562 11.7068 -5.59712 556.752 382.233
-3.67738 10.9759 -4.13103 547.448 378.689
-1.5 8.23242 -5.1822 557.356 368.534
0.883884 7.85559 -7.1282 567.589 367.689
3.28562 7.9052 -5.06064 576.227 368.983
3.33451 8.60845 -4.5172 575.968 371.835
0.978801 8.91547 -6.29362 567.277 371.997
-1.41554 8.94339 -4.59601 557.219 371.435
3 20 21 23
3 21 22 23
3 0 1 36
3 15 16 45
3 0 17 36
3 16 26 45
3 17 18 37
3 25 26 44
3 17 36 37
3 26 44 45
3 18 19 38
3 24 25 43
3 18 37 38
3 25 43 44
3 19 20 38
3 23 24 43
3 20 21 39
3 22 23 42
3 20 38 39
3 23 42 43
3 21 22 27
3 21 27 39
3 22 27 42
3 27 28 42
3 27 28 39
3 28 42 47
3 28 39 40
3 1 36 41
3 15 45 46
3 1 2 41
3 14 15 46
3 28 29 40
3 28 29 47
3 2 40 41
3 14 46 47
3 2 29 40
3 14 29 47
3 2 3 29
3 13 14 29
3 29 30 31
3 29 30 35
3 3 29 31
3 13 29 35
3 30 32 33
3 30 33 34
3 30 31 32
3 30 34 35
3 3 4 31
3 12 13 35
3 4 5 48
3 11 12 54
3 5 6 48
3 10 11 54
3 6 48 59
3 10 54 55
3 6 7 59
3 9 10 55
3 7 58 59
3 9 55 56
3 8 57 58
3 8 56 57
3 7 8 58
3 8 9 56
3 4 31 48
3 12 35 54
3 31 48 49
3 35 53 54
3 31 49 50
3 35 52 53
3 31 32 50
3 34 35 52
3 32 33 50
3 33 34 52
3 33 50 51
3 33 51 52
3 48 49 60
3 49 60 50
3 50 60 61
3 50 51 61
3 51 52 61
3 61 62 52
3 52 53 62
3 53 54 62
3 54 55 63
3 55 56 63
3 56 63 64
3 56 57 64
3 64 65 57
3 57 58 65
3 58 59 65
3 48 59 65
