ply
format ascii 1.0
element vertex 66
property float x
property float y
property float z
property float u
property float v
element face 91
property list uchar int vertex_indices
end_header
-20.5845 -5.99322 21.4041 477.492 301.515
-20.1696 -0.651583 20.9785 476.559 322.731
-19.5043 4.68398 20.6831 476.589 344.068
-18.4054 9.78669 18.4364 478.844 364.422
-16.5003 14.374 13.5827 485.067 382.768
-13.2119 18.0302 7.99311 497.357 398.034
-8.85911 20.6066 3.29944 514.198 409.709
-3.9751 22.2732 -0.803603 533.464 418.149
1.27513 22.423 -4.71545 554.89 420.82
6.54471 21.6192 -0.775016 575.259 420.887
11.1984 19.2425 3.38992 593.937 414.471
15.2089 16.0376 8.11487 610.376 404.545
18.0357 11.9233 13.7484 622.415 390.568
19.3877 7.0865 18.5582 629.167 372.876
19.8399 1.85861 20.9018 633.069 352.827
19.7725 -3.54697 21.2249 635.426 331.519
19.402 -8.9341 21.5712 636.573 310.134
-17.0407 -13.5616 0.154648 499.574 270.349
-15.0013 -15.8274 -1.61661 509.104 262.183
-12.1988 -16.9515 -3.04045 521.003 258.957
-9.20291 -17.1134 -4.36645 533.167 259.637
-6.25966 -16.6342 -5.54902 544.774 262.841
3.51072 -17.1738 -5.51573 583.557 265.652
6.28341 -18.185 -4.24497 594.732 263.25
9.23773 -18.569 -2.84747 606.285 263.431
12.1948 -18.065 -1.35522 617.388 267.131
14.6659 -16.3397 0.334794 625.927 275.431
-0.686723 -11.5042 -5.05967 564.096 285.962
-0.482442 -8.76138 -7.75724 564.089 296.489
-0.277827 -6.04249 -10.5796 564.121 306.904
-0.0734232 -3.33092 -13.3263 564.14 317.301
-2.94802 0.151262 -6.11254 549.6 330.638
-1.38955 0.304675 -7.13452 555.877 331.881
0.197132 0.265311 -8.13686 562.357 332.38
1.74718 0.087089 -7.0831 568.342 332.614
3.24898 -0.288727 -6.08308 574.245 332.036
-12.0927 -9.25613 -1.06113 517.19 289.652
-10.4013 -10.365 -1.16334 524.431 286.118
-8.33791 -10.6028 -1.19439 532.691 286.217
-6.47469 -9.90421 -0.958098 539.641 289.948
-8.2599 -9.14375 -1.13468 532.261 292.02
-10.2144 -8.90484 -1.15251 524.44 291.973
5.22859 -10.7693 -0.848158 586.191 292.463
6.95403 -11.733 -1.06743 593.517 289.501
9.02296 -11.8073 -0.994695 601.697 290.264
10.8616 -10.9741 -0.865437 608.505 294.497
9.07093 -10.3319 -0.988743 601.151 296.108
7.10512 -10.2777 -0.98804 593.373 295.329
-7.0552 8.74077 -2.89375 528.477 362.913
-4.74792 7.0312 -4.91379 538.837 357.04
-2.21869 5.71725 -6.56911 549.801 352.893
0.547559 5.71462 -8.15359 561.033 354.048
3.262 5.35052 -6.46776 571.571 354.229
5.89987 6.31678 -4.78504 581.146 359.619
8.3549 7.69748 -2.76311 589.726 366.6
6.49224 9.84311 -4.09073 581.586 373.928
3.90157 11.2091 -5.44358 570.97 377.81
0.891442 11.6525 -6.84991 559.169 377.833
-2.14082 11.6076 -5.51314 546.963 376.32
-4.90338 10.622 -4.10053 536.272 371.244
-2.36245 7.92071 -5.25887 547.87 361.703
0.664981 7.64983 -7.32051 560.363 361.862
3.65491 7.51781 -5.18817 571.781 363.163
3.80021 8.46595 -4.5428 571.75 367.07
0.7295 8.8402 -6.41503 559.84 366.722
-2.40735 8.8931 -4.58712 547.072 365.614
3 20 21 23
3 21 22 23
3 0 1 36
3 15 16 45
3 0 17 36
3 16 26 45
3 17 18 37
3 25 26 44
3 17 36 37
3 26 44 45
3 18 19 38
3 24 25 43
3 18 37 38
3 25 43 44
3 19 20 38
3 23 24 43
3 20 21 39
3 22 23 42
3 20 38 39
3 23 42 43
3 21 22 27
3 21 27 39
3 22 27 42
3 27 28 42
3 27 28 39
3 28 42 47
3 28 39 40
3 1 36 41
3 15 45 46
3 1 2 41
3 14 15 46
3 28 29 40
3 28 29 47
3 2 40 41
3 14 46 47
3 2 29 40
3 14 29 47
3 2 3 29
3 13 14 29
3 29 30 31
3 29 30 35
3 3 29 31
3 13 29 35
3 30 32 33
3 30 33 34
3 30 31 32
3 30 34 35
3 3 4 31
3 12 13 35
3 4 5 48
3 11 12 54
3 5 6 48
3 10 11 54
3 6 48 59
3 10 54 55
3 6 7 59
3 9 10 55
3 7 58 59
3 9 55 56
3 8 57 58
3 8 56 57
3 7 8 58
3 8 9 56
3 4 31 48
3 12 35 54
3 31 48 49
3 35 53 54
3 31 49 50
3 35 52 53
3 31 32 50
3 34 35 52
3 32 33 50
3 33 34 52
3 33 50 51
3 33 51 52
3 48 49 60
3 49 60 50
3 50 60 61
3 50 51 61
3 51 52 61
3 61 62 52
3 52 53 62
3 53 54 62
3 54 55 63
3 55 56 63
3 56 63 64
3 56 57 64
3 64 65 57
3 57 58 65
3 58 59 65
3 48 59 65
