ply
format ascii 1.0
element vertex 66
property float x
property float y
property float z
property float u
property float v
element face 91
property list uchar int vertex_indices
end_header
-20.8274 -6.15347 21.3704 476.008 304.144
-20.4609 -0.703655 20.8078 475.101 325.753
-19.828 4.75262 20.538 475.095 347.623
-18.7089 9.88465 18.4227 478.097 367.872
-16.7835 14.33 13.5103 486.025 384.926
-13.4922 17.7982 7.97104 500.138 398.626
-9.10443 20.1556 3.24379 518.708 408.762
-4.19798 21.6424 -0.798979 539.404 415.941
1.07274 21.6833 -4.58028 562.106 417.666
6.40592 21.003 -0.749146 581.566 419.008
11.0538 18.7226 3.39544 598.936 413.75
15.1014 15.7047 8.09714 614.012 405.431
18.0617 11.8527 13.6181 624.784 393.497
19.6772 7.29327 18.4334 630.943 377.825
20.2936 2.2036 20.7233 634.687 358.714
20.2601 -3.15619 20.9967 637.012 337.544
19.8913 -8.48673 21.3622 637.951 316.342
-16.9673 -13.8542 0.15076 505.679 268.849
-14.9532 -15.9242 -1.54264 515.489 261.163
-12.2918 -16.9079 -2.94318 527.182 258.217
-9.48725 -17.0121 -4.30409 538.994 258.845
-6.74412 -16.5477 -5.51938 550.216 261.74
3.50133 -16.8647 -5.47381 590.808 265.895
6.14539 -17.8509 -4.16391 601.068 263.8
8.98333 -18.2729 -2.74506 611.764 264.077
11.867 -17.8751 -1.29417 622.229 267.639
14.344 -16.2846 0.312022 630.431 275.762
-0.741801 -11.2811 -5.13443 571.177 285.896
-0.580764 -8.52194 -7.85568 571.849 296.042
-0.4218 -5.78285 -10.6369 572.553 306.088
-0.250546 -3.04024 -13.2431 573.216 316.21
-2.98513 0.364672 -6.14766 557.191 330.541
-1.42605 0.563166 -7.15975 563.762 331.824
0.179129 0.53616 -8.07477 570.576 332.269
1.76885 0.336618 -7.05759 576.438 332.642
3.26872 -0.105848 -6.16942 582.128 331.963
-12.3726 -9.75199 -1.21923 522.53 287.086
-10.585 -10.8687 -1.10345 530.071 283.639
-8.42943 -11.0765 -0.991149 538.628 283.988
-6.55223 -10.2281 -0.761863 545.516 288.412
-8.42781 -9.49423 -1.1184 537.933 290.218
-10.4641 -9.30083 -1.20861 529.843 289.883
5.18572 -11.0199 -0.708045 592.228 291.474
6.88958 -12.0812 -0.920995 599.579 288.098
9.01981 -12.1781 -0.909846 608.033 288.839
10.9393 -11.3562 -0.890078 615.205 293.114
9.14339 -10.6287 -0.977599 607.805 295.023
7.11676 -10.5487 -0.936139 599.742 294.286
-5.62229 9.12952 -2.93378 540.913 364.918
-3.7547 7.43252 -4.98474 550.144 358.518
-1.65029 6.0494 -6.68751 559.983 353.599
0.730958 6.01034 -8.40457 570.272 354.147
3.09744 5.71856 -6.41853 578.757 354.875
5.35733 6.76068 -4.73266 586.328 360.736
7.41718 8.1579 -2.75986 592.792 367.992
5.89019 9.92361 -4.0434 586.554 373.773
3.76591 11.1285 -5.36663 578.248 377.004
1.15035 11.5237 -6.84896 568.475 376.717
-1.47783 11.5035 -5.55308 557.452 375.668
-3.79269 10.6664 -4.10117 547.983 371.598
-1.64603 7.94268 -5.24362 558.355 361.568
0.864562 7.52101 -7.26928 569.496 360.569
3.41397 7.57121 -5.12756 578.46 362.798
3.56471 8.82844 -4.44715 578.103 368.078
1.00338 9.24567 -6.15502 568.647 367.834
-1.593 9.21873 -4.53605 557.59 366.879
3 20 21 23
3 21 22 23
3 0 1 36
3 15 16 45
3 0 17 36
3 16 26 45
3 17 18 37
3 25 26 44
3 17 36 37
3 26 44 45
3 18 19 38
3 24 25 43
3 18 37 38
3 25 43 44
3 19 20 38
3 23 24 43
3 20 21 39
3 22 23 42
3 20 38 39
3 23 42 43
3 21 22 27
3 21 27 39
3 22 27 42
3 27 28 42
3 27 28 39
3 28 42 47
3 28 39 40
3 1 36 41
3 15 45 46
3 1 2 41
3 14 15 46
3 28 29 40
3 28 29 47
3 2 40 41
3 14 46 47
3 2 29 40
3 14 29 47
3 2 3 29
3 13 14 29
3 29 30 31
3 29 30 35
3 3 29 31
3 13 29 35
3 30 32 33
3 30 33 34
3 30 31 32
3 30 34 35
3 3 4 31
3 12 13 35
3 4 5 48
3 11 12 54
3 5 6 48
3 10 11 54
3 6 48 59
3 10 54 55
3 6 7 59
3 9 10 55
3 7 58 59
3 9 55 56
3 8 57 58
3 8 56 57
3 7 8 58
3 8 9 56
3 4 31 48
3 12 35 54
3 31 48 49
3 35 53 54
3 31 49 50
3 35 52 53
3 31 32 50
3 34 35 52
3 32 33 50
3 33 34 52
3 33 50 51
3 33 51 52
3 48 49 60
3 49 60 50
3 50 60 61
3 50 51 61
3 51 52 61
3 61 62 52
3 52 53 62
3 53 54 62
3 54 55 63
3 55 56 63
3 56 63 64
3 56 57 64
3 64 65 57
3 57 58 65
3 58 59 65
3 48 59 65
