ply
format ascii 1.0
element vertex 66
property float x
property float y
property float z
property float u
property float v
element face 91
property list uchar int vertex_indices
end_header
-20.2863 -6.67425 21.6278 500.408 308.287
-19.7312 -1.22127 20.9863 499.091 328.907
-18.9295 4.22877 20.668 498.367 349.74
-17.8449 9.45732 18.6463 500.4 369.783
-16.1951 14.1152 13.6586 507.626 387.819
-13.2093 17.8174 8.03187 520.954 403.26
-9.03449 20.326 3.30878 538.595 415.274
-4.28211 21.8397 -0.731938 558.405 424.106
0.798245 21.983 -4.67959 580.297 428.108
5.93044 21.1705 -0.825636 595.846 429.437
10.2798 18.6539 3.40757 609.441 423.874
14.0306 15.4524 8.05626 620.981 415.353
16.8788 11.575 13.6019 628.919 403.723
18.7011 7.19025 18.3238 634.278 389.334
19.5957 2.46487 20.7256 638.679 372.719
19.8658 -2.47034 21.0007 642.943 354.616
19.7475 -7.40591 21.2577 645.822 336.213
-18.0391 -13.9537 0.215594 533.556 280.656
-15.9036 -16.7524 -1.57351 544.93 271.701
-12.7465 -18.1892 -2.94565 558.63 268.634
-9.30314 -18.3192 -4.25377 572.366 270.649
-5.93141 -17.6088 -5.4432 585.13 275.745
1.84847 -17.2808 -5.47108 613.011 282.924
4.93987 -18.6639 -4.08584 623.884 280.303
8.33227 -19.2529 -2.66629 635.242 280.867
11.7632 -18.7564 -1.20527 645.922 285.499
14.5878 -16.7597 0.41456 653.189 295.258
-0.653871 -11.582 -5.13653 599.575 302.219
-0.578535 -8.68986 -7.88822 600.316 312.728
-0.507237 -5.81607 -10.6713 601.085 323.162
-0.409107 -2.94574 -13.3042 601.814 333.62
-2.70543 0.406917 -6.06928 584.423 345.097
-1.23858 0.589013 -7.16841 590.605 346.78
0.267621 0.535613 -8.22769 597.062 347.622
1.75072 0.382469 -7.07706 601.462 348.313
3.1377 -0.0407171 -6.2164 605.978 347.896
-12.722 -9.34937 -1.20608 550.763 301.688
-10.8088 -10.678 -1.15245 558.575 298.224
-8.39771 -10.9133 -1.07371 567.377 299.206
-6.28467 -9.94686 -0.852983 574.108 304.44
-8.36678 -9.1608 -1.22238 566.368 305.726
-10.5998 -8.91299 -1.232 558.136 304.934
5.11479 -10.6287 -0.915645 615.814 310.637
6.98575 -11.7479 -1.04728 623.495 307.898
9.32003 -11.8625 -0.87329 631.844 309.28
11.3589 -10.848 -0.649777 638.271 314.637
9.38948 -10.1003 -0.903754 630.858 315.878
7.19369 -10.0892 -1.00395 623.015 314.225
-5.23834 9.63373 -2.96119 565.778 377.777
-3.45727 7.79701 -5.13404 575.538 372.083
-1.42161 6.19086 -6.77401 585.558 367.498
0.997959 6.10943 -8.44989 595.903 368.87
3.40667 5.84373 -6.31464 602.815 369.958
5.61693 7.06685 -4.74681 608.467 376.366
7.57793 8.62643 -2.81231 612.638 383.873
6.07623 10.2161 -4.14152 607.304 388.486
4.0305 11.3179 -5.32902 600.226 390.884
1.54186 11.7192 -6.93306 592.436 390.295
-0.980828 11.6966 -5.57243 582.085 388.424
-3.29214 11.0033 -4.12759 572.901 384.232
-1.19776 8.32958 -5.25572 583.426 375.78
1.21723 7.89275 -7.20199 594.26 375.799
3.69953 7.94127 -5.10699 601.249 378.107
3.81813 8.76109 -4.52123 600.547 381.307
1.3783 9.11259 -6.16347 593.005 380.567
-1.07757 9.17442 -4.61111 582.657 379.081
3 20 21 23
3 21 22 23
3 0 1 36
3 15 16 45
3 0 17 36
3 16 26 45
3 17 18 37
3 25 26 44
3 17 36 37
3 26 44 45
3 18 19 38
3 24 25 43
3 18 37 38
3 25 43 44
3 19 20 38
3 23 24 43
3 20 21 39
3 22 23 42
3 20 38 39
3 23 42 43
3 21 22 27
3 21 27 39
3 22 27 42
3 27 28 42
3 27 28 39
3 28 42 47
3 28 39 40
3 1 36 41
3 15 45 46
3 1 2 41
3 14 15 46
3 28 29 40
3 28 29 47
3 2 40 41
3 14 46 47
3 2 29 40
3 14 29 47
3 2 3 29
3 13 14 29
3 29 30 31
3 29 30 35
3 3 29 31
3 13 29 35
3 30 32 33
3 30 33 34
3 30 31 32
3 30 34 35
3 3 4 31
3 12 13 35
3 4 5 48
3 11 12 54
3 5 6 48
3 10 11 54
3 6 48 59
3 10 54 55
3 6 7 59
3 9 10 55
3 7 58 59
3 9 55 56
3 8 57 58
3 8 56 57
3 7 8 58
3 8 9 56
3 4 31 48
3 12 35 54
3 31 48 49
3 35 53 54
3 31 49 50
3 35 52 53
3 31 32 50
3 34 35 52
3 32 33 50
3 33 34 52
3 33 50 51
3 33 51 52
3 48 49 60
3 49 60 50
3 50 60 61
3 50 51 61
3 51 52 61
3 61 62 52
3 52 53 62
3 53 54 62
3 54 55 63
3 55 56 63
3 56 63 64
3 56 57 64
3 64 65 57
3 57 58 65
3 58 59 65
3 48 59 65
