ply
format ascii 1.0
element vertex 66
property float x
property float y
property float z
property float u
property float v
element face 91
property list uchar int vertex_indices
end_header
-20.6737 -6.08623 21.3511 474.595 305.311
-20.3452 -0.636393 20.818 473.59 326.908
-19.7529 4.82457 20.5622 473.539 348.748
-18.6605 9.94936 18.4076 476.201 368.99
-16.7706 14.3959 13.558 483.15 386.206
-13.533 17.8771 7.96695 496.101 400.041
-9.16389 20.2261 3.21447 513.789 410.15
-4.26021 21.6981 -0.797941 533.766 417.236
1.0144 21.7337 -4.64198 555.811 418.854
6.40498 21.0483 -0.717317 576.269 419.735
11.1198 18.7713 3.36635 594.725 414.036
15.2006 15.7223 8.10277 610.82 405.152
18.1118 11.789 13.6807 622.427 392.435
19.6504 7.14738 18.4521 629.166 376.05
20.2085 1.97853 20.7425 633.019 356.452
20.1025 -3.46395 21.0056 634.985 334.917
19.6521 -8.87355 21.3718 635.54 313.377
-16.8277 -13.8517 0.132542 499.822 270.739
-14.781 -16.04 -1.5324 509.427 262.6
-12.0336 -17.0843 -2.92027 521.203 259.396
-9.13193 -17.1758 -4.27856 533.15 260.047
-6.30822 -16.6444 -5.52809 544.473 263.157
3.3756 -17.0578 -5.5046 583 266.113
6.04081 -18.1008 -4.16611 593.618 263.6
8.91908 -18.5359 -2.7423 604.779 263.618
11.8386 -18.0911 -1.28551 615.693 267.15
14.3197 -16.4158 0.297514 624.276 275.38
-0.672142 -11.4328 -5.13557 564.31 286.571
-0.500115 -8.74782 -7.79613 564.587 296.579
-0.331172 -6.08534 -10.5561 564.893 306.47
-0.158322 -3.42316 -13.2255 565.186 316.386
-2.93585 0.114142 -6.10642 550.411 330.971
-1.3808 0.287309 -7.10768 556.796 332.128
0.21737 0.241797 -8.02661 563.426 332.46
1.7765 0.0728855 -7.01392 569.367 332.799
3.25771 -0.3272 -6.10594 575.137 332.157
-12.3373 -9.44451 -1.21613 516.019 289.962
-10.5149 -10.4905 -1.11503 523.679 286.709
-8.35969 -10.7187 -1.0178 532.287 286.852
-6.44145 -10.0076 -0.818715 539.5 290.63
-8.33723 -9.27069 -1.16604 531.765 292.558
-10.3938 -9.05085 -1.22297 523.539 292.44
5.14241 -10.8163 -0.726253 585.71 292.938
6.90519 -11.7682 -0.925185 593.182 289.95
9.04579 -11.8635 -0.942633 601.708 290.582
10.9924 -11.1114 -0.964063 609.082 294.477
9.15608 -10.4236 -1.02469 601.517 296.315
7.10393 -10.3579 -0.991565 593.351 295.612
-5.63189 9.19212 -2.9592 534.66 366.483
-3.82638 7.38883 -4.94416 543.233 359.669
-1.74861 5.90042 -6.6276 552.649 354.311
0.653233 5.82168 -8.34794 562.722 354.68
3.02967 5.58227 -6.42237 571.653 355.369
5.24872 6.76186 -4.73468 579.39 361.54
7.21535 8.29998 -2.77643 585.883 369.083
5.74667 10.1273 -4.08914 579.64 375.276
3.6646 11.4018 -5.44476 571.232 378.977
1.03171 11.812 -6.91109 561.068 378.965
-1.61171 11.7497 -5.59816 550.227 377.815
-3.87894 10.8097 -4.13408 541.228 373.408
-1.80412 7.88835 -5.19003 551.09 362.54
0.766349 7.4086 -7.27631 562.123 361.303
3.35091 7.54268 -5.0608 571.621 363.647
3.50455 9.00546 -4.44014 571.377 369.678
0.903555 9.45118 -6.21252 561.416 369.74
-1.75971 9.37636 -4.54057 550.393 368.627
3 20 21 23
3 21 22 23
3 0 1 36
3 15 16 45
3 0 17 36
3 16 26 45
3 17 18 37
3 25 26 44
3 17 36 37
3 26 44 45
3 18 19 38
3 24 25 43
3 18 37 38
3 25 43 44
3 19 20 38
3 23 24 43
3 20 21 39
3 22 23 42
3 20 38 39
3 23 42 43
3 21 22 27
3 21 27 39
3 22 27 42
3 27 28 42
3 27 28 39
3 28 42 47
3 28 39 40
3 1 36 41
3 15 45 46
3 1 2 41
3 14 15 46
3 28 29 40
3 28 29 47
3 2 40 41
3 14 46 47
3 2 29 40
3 14 29 47
3 2 3 29
3 13 14 29
3 29 30 31
3 29 30 35
3 3 29 31
3 13 29 35
3 30 32 33
3 30 33 34
3 30 31 32
3 30 34 35
3 3 4 31
3 12 13 35
3 4 5 48
3 11 12 54
3 5 6 48
3 10 11 54
3 6 48 59
3 10 54 55
3 6 7 59
3 9 10 55
3 7 58 59
3 9 55 56
3 8 57 58
3 8 56 57
3 7 8 58
3 8 9 56
3 4 31 48
3 12 35 54
3 31 48 49
3 35 53 54
3 31 49 50
3 35 52 53
3 31 32 50
3 34 35 52
3 32 33 50
3 33 34 52
3 33 50 51
3 33 51 52
3 48 49 60
3 49 60 50
3 50 60 61
3 50 51 61
3 51 52 61
3 61 62 52
3 52 53 62
3 53 54 62
3 54 55 63
3 55 56 63
3 56 63 64
3 56 57 64
3 64 65 57
3 57 58 65
3 58 59 65
3 48 59 65
