ply
format ascii 1.0
element vertex 66
property float x
property float y
property float z
property float u
property float v
element face 91
property list uchar int vertex_indices
end_header
-20.7099 -6.21843 21.3943 475.934 304.084
-20.3214 -0.72397 20.8346 475.056 325.966
-19.6748 4.77898 20.5601 475.07 348.103
-18.5701 9.95723 18.463 477.866 368.632
-16.6815 14.4395 13.5252 485.366 385.936
-13.4178 17.9422 7.97947 499.066 399.875
-9.03654 20.3259 3.2494 517.385 410.195
-4.11412 21.8024 -0.796554 537.989 417.396
1.17797 21.792 -4.58114 560.667 418.956
6.48488 21.0671 -0.754336 580.388 420.002
11.0777 18.7251 3.39418 597.918 414.343
15.0501 15.6542 8.11386 613.089 405.636
17.9283 11.7733 13.645 623.951 393.385
19.4981 7.2299 18.4427 630.268 377.596
20.0985 2.17393 20.7153 634.101 358.494
20.0666 -3.15279 20.9711 636.448 337.372
19.7034 -8.44997 21.3483 637.412 316.232
-17.0571 -13.698 0.145143 503.449 269.767
-15.034 -15.8827 -1.56649 513.295 261.611
-12.3064 -16.9331 -2.95886 525.244 258.429
-9.41901 -17.0447 -4.31739 537.356 259.075
-6.59278 -16.5636 -5.53451 548.876 262.088
3.50629 -16.8697 -5.49789 589.085 266.139
6.16032 -17.8685 -4.175 599.518 263.951
9.01443 -18.2984 -2.74314 610.42 264.164
11.915 -17.8943 -1.28963 621.092 267.723
14.391 -16.2667 0.317766 629.417 275.975
-0.696202 -11.3382 -5.14798 569.567 286.056
-0.554959 -8.578 -7.86756 569.989 296.278
-0.414926 -5.83797 -10.6408 570.439 306.402
-0.263099 -3.09366 -13.2361 570.856 316.604
-3.04848 0.285659 -6.15592 555.034 330.75
-1.47074 0.510461 -7.15766 561.628 332.16
0.160971 0.491992 -8.07198 568.516 332.658
1.77037 0.290233 -7.0586 574.553 333.002
3.28347 -0.168103 -6.14368 580.376 332.245
-12.3201 -9.8038 -1.23274 520.965 287.3
-10.528 -10.9132 -1.11542 528.563 283.857
-8.37424 -11.1249 -0.997274 537.161 284.172
-6.49266 -10.2812 -0.748511 544.108 288.582
-8.37419 -9.56554 -1.10529 536.452 290.34
-10.4104 -9.37008 -1.204 528.32 290.027
5.23895 -11.0789 -0.73009 591.042 291.522
6.94636 -12.1206 -0.906071 598.402 288.215
9.07177 -12.2119 -0.898962 606.877 288.96
10.9819 -11.3801 -0.895759 614.052 293.264
9.18306 -10.6768 -0.979899 606.609 295.098
7.16212 -10.6066 -0.950516 598.542 294.334
-5.64586 9.14333 -2.92255 538.997 365.608
-3.7977 7.42394 -4.98453 548.077 359.104
-1.70046 6.02411 -6.68433 557.83 354.112
0.680676 5.98132 -8.39141 568.054 354.661
3.04017 5.69879 -6.42031 576.684 355.366
5.28285 6.76786 -4.7355 584.32 361.298
7.30773 8.21118 -2.7732 590.788 368.69
5.8167 9.98984 -4.03951 584.566 374.601
3.71996 11.2053 -5.37923 576.247 377.935
1.11592 11.6023 -6.86691 566.378 377.705
-1.51975 11.5761 -5.55553 555.352 376.629
-3.82871 10.7122 -4.09864 545.965 372.435
-1.67224 7.94147 -5.24732 556.376 362.189
0.817714 7.5065 -7.27247 567.363 361.138
3.34474 7.58106 -5.11751 576.403 363.407
3.49901 8.87045 -4.43566 576.088 368.822
0.966915 9.28697 -6.17357 566.605 368.631
-1.61105 9.25159 -4.54137 555.671 367.646
3 20 21 23
3 21 22 23
3 0 1 36
3 15 16 45
3 0 17 36
3 16 26 45
3 17 18 37
3 25 26 44
3 17 36 37
3 26 44 45
3 18 19 38
3 24 25 43
3 18 37 38
3 25 43 44
3 19 20 38
3 23 24 43
3 20 21 39
3 22 23 42
3 20 38 39
3 23 42 43
3 21 22 27
3 21 27 39
3 22 27 42
3 27 28 42
3 27 28 39
3 28 42 47
3 28 39 40
3 1 36 41
3 15 45 46
3 1 2 41
3 14 15 46
3 28 29 40
3 28 29 47
3 2 40 41
3 14 46 47
3 2 29 40
3 14 29 47
3 2 3 29
3 13 14 29
3 29 30 31
3 29 30 35
3 3 29 31
3 13 29 35
3 30 32 33
3 30 33 34
3 30 31 32
3 30 34 35
3 3 4 31
3 12 13 35
3 4 5 48
3 11 12 54
3 5 6 48
3 10 11 54
3 6 48 59
3 10 54 55
3 6 7 59
3 9 10 55
3 7 58 59
3 9 55 56
3 8 57 58
3 8 56 57
3 7 8 58
3 8 9 56
3 4 31 48
3 12 35 54
3 31 48 49
3 35 53 54
3 31 49 50
3 35 52 53
3 31 32 50
3 34 35 52
3 32 33 50
3 33 34 52
3 33 50 51
3 33 51 52
3 48 49 60
3 49 60 50
3 50 60 61
3 50 51 61
3 51 52 61
3 61 62 52
3 52 53 62
3 53 54 62
3 54 55 63
3 55 56 63
3 56 63 64
3 56 57 64
3 64 65 57
3 57 58 65
3 58 59 65
3 48 59 65
