ply
format ascii 1.0
element vertex 66
property float x
property float y
property float z
property float u
property float v
element face 91
property list uchar int vertex_indices
end_header
-20.8848 -5.99565 21.2936 484.121 307.014
-20.5049 -0.674305 20.7361 482.693 327.494
-19.8337 4.64565 20.4628 482.188 348.237
-18.6599 9.71226 18.4303 484.878 367.868
-16.6891 14.1947 13.4633 492.841 384.997
-13.3974 17.7497 7.92035 506.75 399.288
-9.02327 20.1751 3.29489 524.858 410.213
-4.1205 21.6862 -0.713671 545.127 418.15
1.11781 21.7622 -4.6257 567.477 420.838
6.33362 20.9677 -0.76682 585.252 422.268
10.8715 18.6299 3.38727 601.201 417.42
14.8847 15.6106 8.03451 615.255 409.749
17.8232 11.7205 13.6204 625.154 398.288
19.4827 7.11157 18.4394 631.134 383.025
20.2125 2.03338 20.7478 635.493 364.678
20.2931 -3.26516 21.0719 638.805 344.526
20.0217 -8.54849 21.4221 640.755 324.207
-17.1915 -13.7887 0.229905 516.462 273.933
-15.1632 -16.2792 -1.60285 526.85 265.237
-12.2718 -17.5481 -2.97578 539.475 261.912
-9.14066 -17.6846 -4.25551 552.261 263.107
-6.07896 -17.1002 -5.43055 564.279 267.045
2.62302 -17.2872 -5.37236 597.364 272.074
5.57624 -18.5915 -4.06614 608.514 269.375
8.78496 -19.1664 -2.67471 620.136 269.66
12.0286 -18.6768 -1.22829 631.208 274.06
14.7425 -16.8146 0.37519 639.337 283.41
-0.836821 -11.402 -5.16975 580.538 292.39
-0.727068 -8.66887 -7.82527 581.011 302.216
-0.608238 -5.95422 -10.5586 581.579 311.955
-0.467984 -3.24321 -13.1893 582.165 321.723
-2.97052 0.401074 -6.14462 565.912 335.927
-1.52884 0.6101 -7.10646 571.875 337.418
-0.0350342 0.573902 -8.0579 578.177 338.007
1.52064 0.386088 -7.02885 583.528 338.589
2.98361 -0.0563867 -6.16161 588.786 338.091
-11.5684 -9.22357 -1.29544 536.007 294.709
-9.92242 -10.2438 -1.23633 542.831 291.902
-7.92281 -10.4389 -1.0831 550.436 292.512
-6.12686 -9.7852 -0.745588 556.633 296.289
-7.86432 -9.03546 -1.13793 549.841 297.911
-9.75678 -8.81606 -1.24867 542.601 297.475
5.36725 -10.718 -0.757481 600.807 300.282
7.02671 -11.5962 -0.95672 607.763 297.957
9.01546 -11.6565 -0.935203 615.33 299.042
10.7967 -10.9199 -0.861275 621.592 303.056
9.07823 -10.2472 -0.975437 614.739 304.47
7.17829 -10.1878 -0.977749 607.497 303.446
-5.78772 9.3364 -2.90755 547.713 369.164
-3.95513 7.55896 -5.0281 557.112 362.993
-1.85401 6.0296 -6.66558 567.068 358.079
0.625052 5.94531 -8.27106 577.56 358.956
3.12687 5.66395 -6.40262 586.014 360.029
5.43217 6.85305 -4.77712 592.987 366.538
7.52609 8.30203 -2.79316 598.769 374
5.87194 9.99059 -4.08567 592.305 379.03
3.71365 11.1823 -5.38091 584.231 381.825
1.06999 11.6238 -6.86499 574.894 381.375
-1.57069 11.6046 -5.52728 564.025 379.923
-3.91365 10.8144 -4.06368 554.672 375.748
-1.58426 8.06013 -5.19696 565.911 366.428
0.767342 7.59745 -7.19326 576.401 365.668
3.20065 7.66852 -5.17284 584.283 368.085
3.3161 8.86605 -4.5363 583.583 372.919
0.894367 9.27053 -6.34219 575.318 372.388
-1.54113 9.2761 -4.5548 564.922 371.286
3 20 21 23
3 21 22 23
3 0 1 36
3 15 16 45
3 0 17 36
3 16 26 45
3 17 18 37
3 25 26 44
3 17 36 37
3 26 44 45
3 18 19 38
3 24 25 43
3 18 37 38
3 25 43 44
3 19 20 38
3 23 24 43
3 20 21 39
3 22 23 42
3 20 38 39
3 23 42 43
3 21 22 27
3 21 27 39
3 22 27 42
3 27 28 42
3 27 28 39
3 28 42 47
3 28 39 40
3 1 36 41
3 15 45 46
3 1 2 41
3 14 15 46
3 28 29 40
3 28 29 47
3 2 40 41
3 14 46 47
3 2 29 40
3 14 29 47
3 2 3 29
3 13 14 29
3 29 30 31
3 29 30 35
3 3 29 31
3 13 29 35
3 30 32 33
3 30 33 34
3 30 31 32
3 30 34 35
3 3 4 31
3 12 13 35
3 4 5 48
3 11 12 54
3 5 6 48
3 10 11 54
3 6 48 59
3 10 54 55
3 6 7 59
3 9 10 55
3 7 58 59
3 9 55 56
3 8 57 58
3 8 56 57
3 7 8 58
3 8 9 56
3 4 31 48
3 12 35 54
3 31 48 49
3 35 53 54
3 31 49 50
3 35 52 53
3 31 32 50
3 34 35 52
3 32 33 50
3 33 34 52
3 33 50 51
3 33 51 52
3 48 49 60
3 49 60 50
3 50 60 61
3 50 51 61
3 51 52 61
3 61 62 52
3 52 53 62
3 53 54 62
3 54 55 63
3 55 56 63
3 56 63 64
3 56 57 64
3 64 65 57
3 57 58 65
3 58 59 65
3 48 59 65
