ply
format ascii 1.0
element vertex 66
property float x
property float y
property float z
property float u
property float v
element face 91
property list uchar int vertex_indices
end_header
-20.7542 -6.13234 21.4874 476.302 301.649
-20.3238 -0.704775 21.0481 475.434 323.111
-19.6436 4.71951 20.7496 475.524 344.707
-18.5531 9.9095 18.5408 477.681 365.267
-16.6793 14.5497 13.5851 483.673 383.595
-13.3802 18.2167 7.98312 495.854 398.695
-8.9824 20.7697 3.33974 512.723 410.122
-4.03231 22.3472 -0.787573 532.143 418.074
1.25294 22.439 -4.7393 553.571 420.383
6.56078 21.6157 -0.749808 574.113 420.434
11.2425 19.2169 3.44077 592.925 414.019
15.2607 15.9735 8.1076 609.456 404.039
18.1134 11.8511 13.7316 621.663 390.189
19.5173 7.04061 18.5883 628.65 372.793
20.0072 1.84533 20.909 632.685 353.011
19.9546 -3.52861 21.208 635.036 331.922
19.5781 -8.88458 21.5437 636.1 310.75
-17.3073 -13.357 0.139366 497.17 271.406
-15.2479 -15.7637 -1.66094 506.753 262.667
-12.3598 -16.9697 -3.06447 518.938 259.12
-9.25607 -17.1395 -4.37671 531.45 259.766
-6.20121 -16.6366 -5.54402 543.417 263.054
3.51451 -17.1178 -5.51909 581.82 265.963
6.31531 -18.1507 -4.24792 593.1 263.499
9.30697 -18.5467 -2.85146 604.797 263.653
12.3028 -18.0375 -1.36613 616.056 267.38
14.793 -16.2641 0.338749 624.673 275.86
-0.619124 -11.6007 -5.04066 562.812 285.678
-0.438519 -8.80833 -7.77672 562.653 296.281
-0.257954 -6.03797 -10.611 562.523 306.781
-0.0771331 -3.27263 -13.342 562.377 317.279
-2.93256 0.266654 -6.12682 548.149 330.978
-1.36573 0.444737 -7.15298 554.402 332.28
0.237956 0.413401 -8.15999 560.898 332.78
1.7893 0.237447 -7.08255 566.886 333.034
3.27971 -0.153574 -6.07737 572.753 332.401
-12.1883 -9.19508 -1.08507 515.479 290.079
-10.4582 -10.3364 -1.19979 522.853 286.43
-8.3429 -10.5929 -1.20885 531.29 286.464
-6.41911 -9.86984 -0.955482 538.452 290.297
-8.25213 -9.08823 -1.1476 530.904 292.431
-10.2573 -8.84344 -1.16307 522.91 292.4
5.24983 -10.7131 -0.868373 584.695 292.757
7.01986 -11.6834 -1.06951 592.157 289.785
9.13023 -11.753 -1.00586 600.471 290.564
10.9945 -10.8789 -0.858435 607.345 294.943
9.16187 -10.2313 -0.986057 599.853 296.561
7.15673 -10.1904 -1.00234 591.957 295.73
-6.87039 8.66662 -2.8968 528.017 362.574
-4.56913 7.02603 -4.94316 538.222 356.923
-2.10065 5.76925 -6.60673 548.829 352.927
0.563878 5.80834 -8.16122 559.557 354.136
3.16731 5.42387 -6.46525 569.67 354.193
5.71876 6.34302 -4.78186 578.947 359.344
8.12557 7.67933 -2.75951 587.393 366.119
6.29029 9.67537 -4.0575 579.444 372.839
3.76374 10.8949 -5.43793 569.171 376.153
0.885911 11.2707 -6.88343 557.939 375.968
-2.01716 11.2664 -5.5321 546.293 374.744
-4.7234 10.413 -4.07888 535.815 370.298
-2.09486 8.01588 -5.29328 547.525 361.975
0.697323 7.82003 -7.25528 558.942 362.256
3.4419 7.65793 -5.17484 569.433 363.321
3.54619 8.08748 -4.53377 569.519 365.167
0.724605 8.33397 -6.43085 558.652 364.426
-2.15493 8.47383 -4.62039 546.946 363.857
3 20 21 23
3 21 22 23
3 0 1 36
3 15 16 45
3 0 17 36
3 16 26 45
3 17 18 37
3 25 26 44
3 17 36 37
3 26 44 45
3 18 19 38
3 24 25 43
3 18 37 38
3 25 43 44
3 19 20 38
3 23 24 43
3 20 21 39
3 22 23 42
3 20 38 39
3 23 42 43
3 21 22 27
3 21 27 39
3 22 27 42
3 27 28 42
3 27 28 39
3 28 42 47
3 28 39 40
3 1 36 41
3 15 45 46
3 1 2 41
3 14 15 46
3 28 29 40
3 28 29 47
3 2 40 41
3 14 46 47
3 2 29 40
3 14 29 47
3 2 3 29
3 13 14 29
3 29 30 31
3 29 30 35
3 3 29 31
3 13 29 35
3 30 32 33
3 30 33 34
3 30 31 32
3 30 34 35
3 3 4 31
3 12 13 35
3 4 5 48
3 11 12 54
3 5 6 48
3 10 11 54
3 6 48 59
3 10 54 55
3 6 7 59
3 9 10 55
3 7 58 59
3 9 55 56
3 8 57 58
3 8 56 57
3 7 8 58
3 8 9 56
3 4 31 48
3 12 35 54
3 31 48 49
3 35 53 54
3 31 49 50
3 35 52 53
3 31 32 50
3 34 35 52
3 32 33 50
3 33 34 52
3 33 50 51
3 33 51 52
3 48 49 60
3 49 60 50
3 50 60 61
3 50 51 61
3 51 52 61
3 61 62 52
3 52 53 62
3 53 54 62
3 54 55 63
3 55 56 63
3 56 63 64
3 56 57 64
3 64 65 57
3 57 58 65
3 58 59 65
3 48 59 65
