ply
format ascii 1.0
element vertex 66
property float x
property float y
property float z
property float u
property float v
element face 91
property list uchar int vertex_indices
end_header
-20.8249 -6.2435 21.4235 475.545 303.909
-20.442 -0.740622 20.8719 474.667 325.789
-19.8017 4.77162 20.6039 474.664 347.932
-18.7095 9.96783 18.5136 477.495 368.478
-16.838 14.4691 13.5042 485.174 385.744
-13.5589 17.9736 7.98127 499.159 399.627
-9.14943 20.3393 3.29576 517.762 409.847
-4.20255 21.7795 -0.786867 538.646 416.864
1.09182 21.7658 -4.60385 561.48 418.375
6.431 21.0628 -0.746716 581.075 419.611
11.0717 18.7433 3.44214 598.525 414.166
15.1022 15.6806 8.10752 613.686 405.6
18.0456 11.8003 13.6072 624.531 393.483
19.6517 7.24609 18.476 630.716 377.786
20.2695 2.17831 20.756 634.501 358.709
20.2425 -3.15455 21.0113 636.85 337.596
19.8755 -8.45982 21.3572 637.796 316.444
-17.259 -13.5573 0.142222 503.601 269.968
-15.2036 -15.8134 -1.606 513.686 261.53
-12.4103 -16.8938 -2.98817 525.943 258.266
-9.44796 -16.9998 -4.33284 538.381 258.972
-6.54498 -16.5003 -5.53221 550.219 262.098
3.39675 -16.7771 -5.49698 589.698 266.227
6.12189 -17.8196 -4.18625 600.352 263.933
9.05296 -18.279 -2.76581 611.485 264.098
12.0328 -17.8746 -1.31772 622.38 267.729
14.5689 -16.1985 0.321532 630.809 276.237
-0.691144 -11.3577 -5.14421 570.717 285.717
-0.550491 -8.57204 -7.87505 571.26 295.986
-0.410854 -5.80595 -10.653 571.831 306.162
-0.258932 -3.03494 -13.2365 572.354 316.425
-3.01837 0.34517 -6.13878 556.324 330.658
-1.44374 0.564964 -7.15735 562.95 332.033
0.184704 0.539566 -8.09683 569.869 332.488
1.78943 0.344072 -7.05286 575.807 332.886
3.29567 -0.112223 -6.14316 581.547 332.153
-12.2628 -9.75025 -1.24254 522.217 287.269
-10.4822 -10.8772 -1.14183 529.763 283.76
-8.33131 -11.0919 -1.00341 538.315 284.08
-6.4427 -10.236 -0.744067 545.252 288.552
-8.31883 -9.51449 -1.10526 537.651 290.319
-10.3492 -9.31855 -1.20687 529.567 289.999
5.18731 -11.0296 -0.713916 591.669 291.513
6.89374 -12.0864 -0.915963 599.035 288.147
9.01429 -12.1818 -0.922661 607.481 288.879
10.9184 -11.338 -0.892913 614.596 293.239
9.12051 -10.6279 -0.970386 607.172 295.091
7.10587 -10.5569 -0.933094 599.143 294.328
-5.66076 9.13979 -2.94327 540.044 365.215
-3.79625 7.38853 -5.01741 549.287 358.579
-1.68561 5.97033 -6.70093 559.153 353.519
0.709783 5.94253 -8.36745 569.465 354.135
3.08303 5.64052 -6.42041 578.056 354.8
5.33939 6.72011 -4.75445 585.653 360.802
7.37997 8.18919 -2.77814 592.056 368.335
5.848 9.91789 -4.02758 585.764 374
3.71828 11.0597 -5.37194 577.436 376.989
1.13189 11.4177 -6.87734 567.758 376.575
-1.47317 11.4278 -5.55788 556.794 375.668
-3.80553 10.6504 -4.07961 547.214 371.827
-1.54166 8.00074 -5.27361 558.043 362.112
0.859043 7.59863 -7.21209 568.69 361.158
3.29213 7.65119 -5.13752 577.284 363.303
3.40511 8.60806 -4.46194 576.938 367.378
0.976356 8.93076 -6.21026 568.02 366.829
-1.48644 8.97836 -4.5692 557.444 366.247
3 20 21 23
3 21 22 23
3 0 1 36
3 15 16 45
3 0 17 36
3 16 26 45
3 17 18 37
3 25 26 44
3 17 36 37
3 26 44 45
3 18 19 38
3 24 25 43
3 18 37 38
3 25 43 44
3 19 20 38
3 23 24 43
3 20 21 39
3 22 23 42
3 20 38 39
3 23 42 43
3 21 22 27
3 21 27 39
3 22 27 42
3 27 28 42
3 27 28 39
3 28 42 47
3 28 39 40
3 1 36 41
3 15 45 46
3 1 2 41
3 14 15 46
3 28 29 40
3 28 29 47
3 2 40 41
3 14 46 47
3 2 29 40
3 14 29 47
3 2 3 29
3 13 14 29
3 29 30 31
3 29 30 35
3 3 29 31
3 13 29 35
3 30 32 33
3 30 33 34
3 30 31 32
3 30 34 35
3 3 4 31
3 12 13 35
3 4 5 48
3 11 12 54
3 5 6 48
3 10 11 54
3 6 48 59
3 10 54 55
3 6 7 59
3 9 10 55
3 7 58 59
3 9 55 56
3 8 57 58
3 8 56 57
3 7 8 58
3 8 9 56
3 4 31 48
3 12 35 54
3 31 48 49
3 35 53 54
3 31 49 50
3 35 52 53
3 31 32 50
3 34 35 52
3 32 33 50
3 33 34 52
3 33 50 51
3 33 51 52
3 48 49 60
3 49 60 50
3 50 60 61
3 50 51 61
3 51 52 61
3 61 62 52
3 52 53 62
3 53 54 62
3 54 55 63
3 55 56 63
3 56 63 64
3 56 57 64
3 64 65 57
3 57 58 65
3 58 59 65
3 48 59 65
