ply
format ascii 1.0
element vertex 66
property float x
property float y
property float z
property float u
property float v
element face 91
property list uchar int vertex_indices
end_header
-20.7631 -6.01809 21.3248 474.079 305.724
-20.4124 -0.606408 20.7885 473.141 327.228
-19.7923 4.81336 20.5348 473.173 348.978
-18.6604 9.92069 18.4052 476.009 369.188
-16.7129 14.3754 13.5076 483.309 386.394
-13.4313 17.8746 7.94569 496.572 400.263
-9.05881 20.2628 3.23462 514.398 410.502
-4.158 21.7684 -0.773331 534.497 417.701
1.10786 21.815 -4.62315 556.669 419.331
6.43285 21.0729 -0.726457 576.857 420.127
11.0789 18.7495 3.36601 595.017 414.369
15.1202 15.6839 8.08274 610.912 405.552
18.0301 11.7482 13.6572 622.432 392.979
19.5972 7.10722 18.4469 629.21 376.718
20.1963 1.96458 20.7378 633.21 357.261
20.1326 -3.43119 21.0044 635.371 335.881
19.7258 -8.79753 21.3829 636.119 314.484
-16.8945 -13.6999 0.16487 500.064 270.91
-14.931 -15.9145 -1.56138 509.464 262.57
-12.2374 -17.0044 -2.95132 521.129 259.151
-9.36583 -17.1275 -4.29516 533.036 259.671
-6.55606 -16.6413 -5.51142 544.373 262.618
3.58345 -17.0656 -5.47834 584.82 265.896
6.23007 -18.1025 -4.16043 595.37 263.458
9.08046 -18.5436 -2.73465 606.417 263.517
11.9672 -18.1062 -1.27236 617.189 267.092
14.4132 -16.4547 0.324623 625.602 275.313
-0.686825 -11.3219 -5.1386 565.086 286.717
-0.532352 -8.64435 -7.82752 565.355 296.638
-0.377388 -5.9851 -10.5791 565.655 306.467
-0.215396 -3.32516 -13.1981 565.938 316.341
-2.99493 0.140159 -6.12497 550.933 330.816
-1.44669 0.336783 -7.11583 557.32 332.063
0.14901 0.310277 -8.03857 563.977 332.467
1.72759 0.120478 -7.02755 569.995 332.781
3.22545 -0.301975 -6.10377 575.831 332.106
-12.1149 -9.46664 -1.25401 517.552 289.64
-10.3728 -10.4713 -1.14232 524.898 286.534
-8.30936 -10.7041 -1.01706 533.158 286.654
-6.46119 -10.0502 -0.77799 540.113 290.224
-8.27169 -9.30839 -1.1316 532.698 292.182
-10.2452 -9.09106 -1.22086 524.791 292.054
5.33558 -10.9159 -0.718746 587.336 292.567
7.04178 -11.8013 -0.901057 594.583 289.831
9.0961 -11.8662 -0.930734 602.78 290.568
10.9583 -11.1412 -0.966058 609.85 294.347
9.18621 -10.4867 -1.01282 602.525 296.066
7.2141 -10.4252 -0.97484 594.653 295.358
-5.68317 9.12644 -2.92915 535.024 366.123
-3.88287 7.35234 -4.95606 543.672 359.364
-1.79863 5.89159 -6.63329 553.185 354.09
0.610879 5.83764 -8.32939 563.344 354.556
3.00024 5.56916 -6.42833 572.321 355.215
5.23056 6.72422 -4.74654 580.08 361.384
7.20707 8.22964 -2.77725 586.573 368.904
5.71417 10.0474 -4.06794 580.232 375.015
3.62643 11.3178 -5.42781 571.807 378.641
0.997966 11.7462 -6.90906 561.666 378.624
-1.64551 11.6778 -5.56881 550.754 377.454
-3.9215 10.7449 -4.09478 541.658 373.07
-1.75665 7.84993 -5.20094 551.966 362.307
0.723479 7.4044 -7.26064 562.707 361.146
3.22808 7.50583 -5.09634 571.883 363.407
3.3775 8.96559 -4.44554 571.582 369.467
0.862321 9.43178 -6.21811 561.97 369.57
-1.71316 9.33316 -4.52846 551.226 368.415
3 20 21 23
3 21 22 23
3 0 1 36
3 15 16 45
3 0 17 36
3 16 26 45
3 17 18 37
3 25 26 44
3 17 36 37
3 26 44 45
3 18 19 38
3 24 25 43
3 18 37 38
3 25 43 44
3 19 20 38
3 23 24 43
3 20 21 39
3 22 23 42
3 20 38 39
3 23 42 43
3 21 22 27
3 21 27 39
3 22 27 42
3 27 28 42
3 27 28 39
3 28 42 47
3 28 39 40
3 1 36 41
3 15 45 46
3 1 2 41
3 14 15 46
3 28 29 40
3 28 29 47
3 2 40 41
3 14 46 47
3 2 29 40
3 14 29 47
3 2 3 29
3 13 14 29
3 29 30 31
3 29 30 35
3 3 29 31
3 13 29 35
3 30 32 33
3 30 33 34
3 30 31 32
3 30 34 35
3 3 4 31
3 12 13 35
3 4 5 48
3 11 12 54
3 5 6 48
3 10 11 54
3 6 48 59
3 10 54 55
3 6 7 59
3 9 10 55
3 7 58 59
3 9 55 56
3 8 57 58
3 8 56 57
3 7 8 58
3 8 9 56
3 4 31 48
3 12 35 54
3 31 48 49
3 35 53 54
3 31 49 50
3 35 52 53
3 31 32 50
3 34 35 52
3 32 33 50
3 33 34 52
3 33 50 51
3 33 51 52
3 48 49 60
3 49 60 50
3 50 60 61
3 50 51 61
3 51 52 61
3 61 62 52
3 52 53 62
3 53 54 62
3 54 55 63
3 55 56 63
3 56 63 64
3 56 57 64
3 64 65 57
3 57 58 65
3 58 59 65
3 48 59 65
