ply
format ascii 1.0
element vertex 66
property float x
property float y
property float z
property float u
property float v
element face 91
property list uchar int vertex_indices
end_header
-20.4712 -6.43399 21.5457 496.874 310.178
-19.9354 -1.05213 20.9094 495.476 330.567
-19.1328 4.32718 20.6258 494.709 351.237
-17.9874 9.47066 18.647 496.987 370.952
-16.225 14.0222 13.5912 504.894 388.317
-13.1814 17.663 8.03089 518.604 403.216
-9.01084 20.1754 3.34396 536.394 414.999
-4.25552 21.7012 -0.713057 556.426 423.705
0.841492 21.8331 -4.65815 578.615 427.508
5.95049 21.0136 -0.853913 594.105 429.383
10.2766 18.5244 3.40965 607.54 424.487
14.043 15.3848 8.05318 619.056 416.788
16.936 11.5736 13.5771 627.051 406.058
18.8106 7.21475 18.3847 632.44 392.309
19.7516 2.44977 20.7734 637.062 375.784
20.0434 -2.54309 21.0605 641.513 357.444
19.9461 -7.53689 21.3328 644.567 338.783
-18.0949 -13.7992 0.247604 531.361 280.18
-15.957 -16.6305 -1.58817 542.963 270.963
-12.7753 -18.0618 -2.95913 556.877 267.914
-9.31071 -18.1731 -4.26632 570.787 270.036
-5.92631 -17.4426 -5.45093 583.671 275.259
1.85435 -17.1979 -5.4439 611.721 282.482
4.99659 -18.689 -4.06338 622.894 279.751
8.45717 -19.3668 -2.62798 634.573 280.326
11.9776 -18.9196 -1.16447 645.615 285.154
14.8901 -16.9122 0.441517 653.167 295.342
-0.73709 -11.5534 -5.13928 597.877 301.513
-0.660162 -8.57981 -7.90169 598.624 312.099
-0.581223 -5.62452 -10.6826 599.41 322.615
-0.473095 -2.67141 -13.2858 600.132 333.183
-2.80094 0.470865 -6.08467 582.461 344.523
-1.35386 0.673976 -7.17448 588.61 346.228
0.141348 0.621232 -8.21738 595.076 347.026
1.65744 0.456669 -7.09841 599.625 347.874
3.07063 0.00758293 -6.22413 604.244 347.525
-12.6401 -9.2746 -1.24205 549.263 301.18
-10.685 -10.6139 -1.16907 557.272 297.781
-8.23227 -10.8469 -1.05903 566.239 298.923
-6.08185 -9.88356 -0.819633 573.105 304.312
-8.20537 -9.10566 -1.21058 565.203 305.412
-10.4749 -8.84577 -1.24689 556.811 304.535
5.15038 -10.6672 -0.882544 614.504 310.479
7.06947 -11.8271 -0.99426 622.428 307.683
9.46388 -11.9408 -0.841353 631.055 309.231
11.569 -10.9369 -0.653313 637.776 314.724
9.54354 -10.1804 -0.898079 630.105 315.855
7.29429 -10.1469 -0.99323 622.009 314.136
-5.09464 9.54884 -2.95245 564.46 377.2
-3.38849 7.74458 -5.12429 574.063 371.396
-1.41741 6.18992 -6.7538 583.923 366.852
0.919304 6.12589 -8.44183 594.071 368.156
3.25872 5.83924 -6.33567 600.749 369.421
5.41869 7.02171 -4.76863 606.214 375.912
7.34448 8.52996 -2.83472 610.238 383.505
5.89482 10.1524 -4.17809 605.075 388.106
3.9084 11.3043 -5.37798 598.172 390.546
1.45193 11.7332 -6.96003 590.461 389.826
-1.02357 11.7042 -5.58287 580.176 387.997
-3.26357 10.9695 -4.12047 571.183 383.743
-1.15032 8.32244 -5.23831 581.87 375.344
1.12607 7.89197 -7.19336 592.325 375.176
3.4829 7.92819 -5.15976 598.899 377.645
3.58365 8.69462 -4.55961 598.125 380.712
1.26669 9.05946 -6.19043 591.014 379.856
-1.05818 9.11319 -4.59405 581.005 378.504
3 20 21 23
3 21 22 23
3 0 1 36
3 15 16 45
3 0 17 36
3 16 26 45
3 17 18 37
3 25 26 44
3 17 36 37
3 26 44 45
3 18 19 38
3 24 25 43
3 18 37 38
3 25 43 44
3 19 20 38
3 23 24 43
3 20 21 39
3 22 23 42
3 20 38 39
3 23 42 43
3 21 22 27
3 21 27 39
3 22 27 42
3 27 28 42
3 27 28 39
3 28 42 47
3 28 39 40
3 1 36 41
3 15 45 46
3 1 2 41
3 14 15 46
3 28 29 40
3 28 29 47
3 2 40 41
3 14 46 47
3 2 29 40
3 14 29 47
3 2 3 29
3 13 14 29
3 29 30 31
3 29 30 35
3 3 29 31
3 13 29 35
3 30 32 33
3 30 33 34
3 30 31 32
3 30 34 35
3 3 4 31
3 12 13 35
3 4 5 48
3 11 12 54
3 5 6 48
3 10 11 54
3 6 48 59
3 10 54 55
3 6 7 59
3 9 10 55
3 7 58 59
3 9 55 56
3 8 57 58
3 8 56 57
3 7 8 58
3 8 9 56
3 4 31 48
3 12 35 54
3 31 48 49
3 35 53 54
3 31 49 50
3 35 52 53
3 31 32 50
3 34 35 52
3 32 33 50
3 33 34 52
3 33 50 51
3 33 51 52
3 48 49 60
3 49 60 50
3 50 60 61
3 50 51 61
3 51 52 61
3 61 62 52
3 52 53 62
3 53 54 62
3 54 55 63
3 55 56 63
3 56 63 64
3 56 57 64
3 64 65 57
3 57 58 65
3 58 59 65
3 48 59 65
