ply
format ascii 1.0
element vertex 66
property float x
property float y
property float z
property float u
property float v
element face 91
property list uchar int vertex_indices
end_header
-20.5497 -6.07494 21.296 474.681 306.006
-20.2264 -0.779202 20.8924 473.964 327.065
-19.6133 4.50626 20.6303 474.354 348.222
-18.4778 9.56997 18.3912 477.5 368.445
-16.5453 14.1719 13.5648 484.77 386.814
-13.2898 17.8679 7.94754 497.874 402.03
-8.92389 20.3993 3.2811 515.544 413.219
-4.03903 22.0207 -0.725228 535.429 421.105
1.17896 22.2131 -4.70633 557.195 423.471
6.42696 21.4013 -0.699802 577.048 422.959
11.0812 19.0807 3.38985 595.132 416.237
15.1314 15.9485 8.06893 610.973 406.132
17.9809 11.8435 13.7091 622.163 391.81
19.4274 7.00708 18.5188 628.352 373.9
19.9686 1.80537 20.8808 631.853 353.836
19.9009 -3.56085 21.1875 633.638 332.589
19.4976 -8.90959 21.4717 634.096 311.271
-16.9492 -13.756 0.158912 498.426 274.172
-15.0045 -16.1945 -1.59864 507.626 265.071
-12.1765 -17.4247 -2.99438 519.724 261.17
-9.11076 -17.5656 -4.31776 532.304 261.692
-6.10952 -17.0092 -5.54251 544.32 264.964
3.14233 -17.4852 -5.48649 581.073 266.891
6.04604 -18.6019 -4.18575 592.604 263.839
9.15215 -19.0161 -2.80146 604.628 263.664
12.2265 -18.3493 -1.34885 616.074 267.768
14.6597 -16.3374 0.339529 624.376 276.97
-0.784033 -11.5383 -5.12728 563.061 288.886
-0.611546 -9.03298 -7.71637 563.53 298.53
-0.436048 -6.54727 -10.4435 564.06 308.078
-0.254066 -4.07616 -13.184 564.626 317.569
-2.86382 -0.184793 -5.97935 550.557 332.896
-1.39608 -0.0995272 -7.02957 556.646 333.694
0.0860874 -0.174656 -8.09519 562.86 333.861
1.5665 -0.316975 -6.97546 568.429 334.059
3.00496 -0.628091 -6.00206 573.944 333.55
-12.0121 -8.93873 -1.21629 516.438 295.101
-10.3762 -10.1166 -1.21229 523.376 291.107
-8.29006 -10.3676 -1.13173 531.7 290.982
-6.42991 -9.68161 -0.857439 538.696 294.502
-8.1701 -8.72354 -1.18602 531.533 297.538
-10.1408 -8.45232 -1.21178 523.641 297.798
5.16668 -10.5465 -0.752379 584.859 295.86
6.89184 -11.4976 -1.03321 592.146 292.763
8.98489 -11.5536 -1.03916 600.446 293.401
10.787 -10.657 -0.973391 607.192 297.704
9.0205 -9.88296 -1.01799 599.912 300.038
7.03082 -9.85932 -1.01573 592.035 299.313
-5.87534 9.54067 -2.97027 533.844 370.599
-4.10233 7.53127 -4.97651 542.269 363.094
-1.98938 5.79397 -6.59984 551.812 356.858
0.593584 5.72126 -8.16833 562.531 357.419
3.16203 5.4259 -6.46369 572.285 357.537
5.47873 6.83569 -4.82872 580.382 364.299
7.49316 8.55005 -2.8295 587.052 372.192
5.83155 10.2577 -4.13019 580.196 378.097
3.62234 11.3796 -5.53195 571.44 381.442
0.993971 11.7941 -6.97328 561.321 381.806
-1.63338 11.7579 -5.6225 550.536 380.766
-3.9882 11.0008 -4.14018 541.077 377
-1.71917 8.07645 -5.14641 551.525 366.211
0.728605 7.64803 -7.16343 561.988 365.245
3.19748 7.71555 -5.10303 571.095 366.809
3.26739 8.77899 -4.54874 570.777 371.127
0.824255 9.14702 -6.35023 561.519 371.334
-1.65981 9.15048 -4.57435 551.156 370.568
3 20 21 23
3 21 22 23
3 0 1 36
3 15 16 45
3 0 17 36
3 16 26 45
3 17 18 37
3 25 26 44
3 17 36 37
3 26 44 45
3 18 19 38
3 24 25 43
3 18 37 38
3 25 43 44
3 19 20 38
3 23 24 43
3 20 21 39
3 22 23 42
3 20 38 39
3 23 42 43
3 21 22 27
3 21 27 39
3 22 27 42
3 27 28 42
3 27 28 39
3 28 42 47
3 28 39 40
3 1 36 41
3 15 45 46
3 1 2 41
3 14 15 46
3 28 29 40
3 28 29 47
3 2 40 41
3 14 46 47
3 2 29 40
3 14 29 47
3 2 3 29
3 13 14 29
3 29 30 31
3 29 30 35
3 3 29 31
3 13 29 35
3 30 32 33
3 30 33 34
3 30 31 32
3 30 34 35
3 3 4 31
3 12 13 35
3 4 5 48
3 11 12 54
3 5 6 48
3 10 11 54
3 6 48 59
3 10 54 55
3 6 7 59
3 9 10 55
3 7 58 59
3 9 55 56
3 8 57 58
3 8 56 57
3 7 8 58
3 8 9 56
3 4 31 48
3 12 35 54
3 31 48 49
3 35 53 54
3 31 49 50
3 35 52 53
3 31 32 50
3 34 35 52
3 32 33 50
3 33 34 52
3 33 50 51
3 33 51 52
3 48 49 60
3 49 60 50
3 50 60 61
3 50 51 61
3 51 52 61
3 61 62 52
3 52 53 62
3 53 54 62
3 54 55 63
3 55 56 63
3 56 63 64
3 56 57 64
3 64 65 57
3 57 58 65
3 58 59 65
3 48 59 65
