ply
format ascii 1.0
element vertex 66
property float x
property float y
property float z
property float u
property float v
element face 91
property list uchar int vertex_indices
end_header
-20.6696 -6.09644 21.5157 488.696 309.229
-20.1532 -0.821645 20.9296 487.464 329.664
-19.3512 4.44675 20.6819 487.044 350.372
-18.1663 9.4783 18.5908 489.688 370.009
-16.2927 13.9573 13.6127 497.592 387.342
-13.157 17.5452 8.01774 511.352 402.063
-8.91694 19.9955 3.34524 529.323 413.488
-4.09088 21.434 -0.679227 549.686 421.641
1.03856 21.5005 -4.63797 572.086 424.787
6.09064 20.6666 -0.856054 588.688 426.329
10.4472 18.3054 3.38206 603.364 421.614
14.2719 15.2854 8.07948 616.128 414.089
17.1325 11.4902 13.7149 625.055 403.1
18.9087 7.06823 18.4755 631.025 388.681
19.7974 2.22851 20.9596 635.744 371.437
20.0842 -2.84365 21.2533 640.092 352.311
20.0021 -7.91672 21.5594 643.041 332.907
-18.1121 -13.4379 0.24975 520.228 277.836
-16.0008 -16.2875 -1.56685 531.582 268.074
-12.8201 -17.7225 -2.96625 545.655 264.633
-9.35596 -17.8393 -4.29328 559.828 266.47
-5.97667 -17.1336 -5.51403 573.03 271.416
2.20363 -17.1047 -5.4895 603.789 277.695
5.39034 -18.6362 -4.08242 615.729 274.578
8.89378 -19.3548 -2.6028 628.244 274.83
12.4583 -18.8998 -1.10373 640.163 279.624
15.3905 -16.854 0.427418 648.578 290.039
-0.833935 -11.5618 -5.15969 588.266 296.703
-0.761433 -8.65185 -7.87158 588.678 307.23
-0.679695 -5.76404 -10.658 589.199 317.661
-0.568966 -2.88347 -13.3416 589.753 328.111
-3.0334 0.336391 -6.11889 572.534 340.351
-1.57373 0.558397 -7.19455 578.728 342.036
-0.0654781 0.517661 -8.22931 585.254 342.763
1.5115 0.328794 -7.16533 590.479 343.489
2.99942 -0.137067 -6.2178 595.652 343.059
-12.9322 -8.77486 -1.21425 537.671 299.226
-10.8919 -10.1003 -1.18071 546.241 295.698
-8.36784 -10.3535 -1.12173 555.871 296.645
-6.12355 -9.51074 -0.905081 563.568 301.614
-8.32394 -8.70885 -1.24985 555.003 302.941
-10.6773 -8.39606 -1.27049 545.943 302.361
5.57085 -10.4725 -0.997883 608.333 306.718
7.62621 -11.5719 -1.00405 616.834 304.057
10.1236 -11.6518 -0.811005 626.139 305.679
12.3313 -10.6733 -0.641648 633.641 311.129
10.1853 -9.95846 -0.94118 625.306 312.175
7.82582 -9.93407 -1.08536 616.52 310.456
-5.50378 9.38193 -2.94345 554.477 373.892
-3.75417 7.55315 -5.03091 563.979 367.698
-1.69955 6.01751 -6.67287 574.074 362.964
0.714401 5.93515 -8.38615 584.575 364.047
3.14345 5.64403 -6.36951 592.325 365.257
5.40684 6.81685 -4.75961 598.762 371.846
7.43131 8.32087 -2.8892 603.865 379.587
5.84472 9.96205 -4.21257 597.807 384.349
3.76762 11.1415 -5.46698 590.166 386.99
1.22428 11.6075 -6.9781 581.466 386.488
-1.33554 11.5803 -5.58782 570.746 384.797
-3.63932 10.8266 -4.11254 561.425 380.539
-1.61297 8.04902 -5.22623 571.853 371.16
0.887805 7.60995 -7.29716 583.21 370.855
3.47847 7.60343 -5.24883 591.346 373.284
3.59157 8.64543 -4.60205 590.541 377.516
1.02614 9.10157 -6.27001 581.888 376.921
-1.55343 9.11355 -4.56897 570.822 375.441
3 20 21 23
3 21 22 23
3 0 1 36
3 15 16 45
3 0 17 36
3 16 26 45
3 17 18 37
3 25 26 44
3 17 36 37
3 26 44 45
3 18 19 38
3 24 25 43
3 18 37 38
3 25 43 44
3 19 20 38
3 23 24 43
3 20 21 39
3 22 23 42
3 20 38 39
3 23 42 43
3 21 22 27
3 21 27 39
3 22 27 42
3 27 28 42
3 27 28 39
3 28 42 47
3 28 39 40
3 1 36 41
3 15 45 46
3 1 2 41
3 14 15 46
3 28 29 40
3 28 29 47
3 2 40 41
3 14 46 47
3 2 29 40
3 14 29 47
3 2 3 29
3 13 14 29
3 29 30 31
3 29 30 35
3 3 29 31
3 13 29 35
3 30 32 33
3 30 33 34
3 30 31 32
3 30 34 35
3 3 4 31
3 12 13 35
3 4 5 48
3 11 12 54
3 5 6 48
3 10 11 54
3 6 48 59
3 10 54 55
3 6 7 59
3 9 10 55
3 7 58 59
3 9 55 56
3 8 57 58
3 8 56 57
3 7 8 58
3 8 9 56
3 4 31 48
3 12 35 54
3 31 48 49
3 35 53 54
3 31 49 50
3 35 52 53
3 31 32 50
3 34 35 52
3 32 33 50
3 33 34 52
3 33 50 51
3 33 51 52
3 48 49 60
3 49 60 50
3 50 60 61
3 50 51 61
3 51 52 61
3 61 62 52
3 52 53 62
3 53 54 62
3 54 55 63
3 55 56 63
3 56 63 64
3 56 57 64
3 64 65 57
3 57 58 65
3 58 59 65
3 48 59 65
