ply
format ascii 1.0
element vertex 66
property float x
property float y
property float z
property float u
property float v
element face 91
property list uchar int vertex_indices
end_header
-20.5286 -6.17812 21.421 495.08 308.785
-20.0297 -0.925623 20.821 493.385 328.799
-19.2392 4.3188 20.5688 492.454 349.091
-18.0475 9.34142 18.5827 494.708 368.565
-16.1764 13.8338 13.5851 502.539 386.061
-13.0906 17.4984 8.02965 515.956 401.363
-8.91943 20.0759 3.35147 533.409 413.655
-4.14816 21.6667 -0.68749 553.254 422.865
0.978328 21.8341 -4.61904 575.405 427.052
6.0428 21.0022 -0.886958 591.282 428.854
10.3698 18.5837 3.374 605.213 424.184
14.1653 15.5119 8.05433 617.328 416.697
17.0369 11.6954 13.6409 625.827 405.81
18.8439 7.25409 18.469 631.583 391.549
19.7521 2.37811 20.8689 636.542 374.457
20.0479 -2.7203 21.2005 641.268 355.636
19.9786 -7.82197 21.4942 644.694 336.49
-17.9322 -13.57 0.241689 529.142 279.304
-15.8238 -16.4262 -1.59565 540.707 270.01
-12.6395 -17.8637 -2.97401 554.71 267.023
-9.16637 -17.9812 -4.2917 568.698 269.241
-5.78081 -17.2627 -5.50424 581.626 274.543
1.72958 -17.1715 -5.44007 609.015 281.175
4.9933 -18.7478 -4.05243 620.955 278.245
8.5795 -19.4779 -2.60255 633.368 278.772
12.2193 -18.9893 -1.14281 645.028 283.917
15.1941 -16.8728 0.425253 652.897 294.635
-0.919324 -11.596 -5.16527 594.759 299.932
-0.828299 -8.67283 -7.8696 595.24 310.476
-0.727408 -5.77016 -10.6332 595.826 320.94
-0.594558 -2.8738 -13.2719 596.423 331.431
-3.01331 0.398357 -6.08907 578.644 343.014
-1.56621 0.645202 -7.16203 584.71 344.952
-0.0612433 0.605086 -8.19568 591.174 345.868
1.52845 0.39888 -7.12199 596.203 346.622
3.00679 -0.111457 -6.23326 601.223 346.107
-12.5922 -9.04022 -1.24497 546.53 300.489
-10.6592 -10.4398 -1.19405 554.648 296.863
-8.18781 -10.6695 -1.10383 563.8 298.083
-6.03078 -9.71704 -0.851766 570.743 303.507
-8.14016 -8.8756 -1.22879 562.7 304.831
-10.4183 -8.58132 -1.26378 554.157 304.024
5.28842 -10.6552 -0.894612 612.977 309.44
7.24062 -11.872 -1.00421 621.167 306.486
9.68652 -11.9756 -0.832457 630.055 308.174
11.8193 -10.936 -0.646417 636.901 313.892
9.7649 -10.1364 -0.902711 628.984 315.127
7.47392 -10.0904 -1.01257 620.653 313.365
-5.21337 9.53063 -2.9284 560.719 376.025
-3.54385 7.69998 -5.05421 570.14 370.159
-1.56496 6.14118 -6.6893 580.049 365.662
0.801225 6.05627 -8.37855 590.287 367.009
3.19546 5.75541 -6.36244 597.497 368.254
5.40868 6.93529 -4.77161 603.28 374.825
7.38842 8.4175 -2.85439 607.683 382.396
5.85953 10.057 -4.21631 602.026 387.018
3.83354 11.2441 -5.45422 594.788 389.549
1.32909 11.7196 -6.96933 586.593 388.96
-1.17153 11.6956 -5.58811 576.221 387.035
-3.41295 10.9566 -4.10704 567.262 382.662
-1.30133 8.2035 -5.18281 578.082 373.899
0.984481 7.75131 -7.21231 588.611 373.737
3.37495 7.76084 -5.22805 595.597 376.138
3.47334 8.71936 -4.61854 594.675 379.93
1.11758 9.157 -6.23919 587.148 379.303
-1.23254 9.17947 -4.55436 577.021 377.734
3 20 21 23
3 21 22 23
3 0 1 36
3 15 16 45
3 0 17 36
3 16 26 45
3 17 18 37
3 25 26 44
3 17 36 37
3 26 44 45
3 18 19 38
3 24 25 43
3 18 37 38
3 25 43 44
3 19 20 38
3 23 24 43
3 20 21 39
3 22 23 42
3 20 38 39
3 23 42 43
3 21 22 27
3 21 27 39
3 22 27 42
3 27 28 42
3 27 28 39
3 28 42 47
3 28 39 40
3 1 36 41
3 15 45 46
3 1 2 41
3 14 15 46
3 28 29 40
3 28 29 47
3 2 40 41
3 14 46 47
3 2 29 40
3 14 29 47
3 2 3 29
3 13 14 29
3 29 30 31
3 29 30 35
3 3 29 31
3 13 29 35
3 30 32 33
3 30 33 34
3 30 31 32
3 30 34 35
3 3 4 31
3 12 13 35
3 4 5 48
3 11 12 54
3 5 6 48
3 10 11 54
3 6 48 59
3 10 54 55
3 6 7 59
3 9 10 55
3 7 58 59
3 9 55 56
3 8 57 58
3 8 56 57
3 7 8 58
3 8 9 56
3 4 31 48
3 12 35 54
3 31 48 49
3 35 53 54
3 31 49 50
3 35 52 53
3 31 32 50
3 34 35 52
3 32 33 50
3 33 34 52
3 33 50 51
3 33 51 52
3 48 49 60
3 49 60 50
3 50 60 61
3 50 51 61
3 51 52 61
3 61 62 52
3 52 53 62
3 53 54 62
3 54 55 63
3 55 56 63
3 56 63 64
3 56 57 64
3 64 65 57
3 57 58 65
3 58 59 65
3 48 59 65
