ply
format ascii 1.0
element vertex 66
property float x
property float y
property float z
property float u
property float v
element face 91
property list uchar int vertex_indices
end_header
-20.8012 -6.21191 21.3459 477.445 304.381
-20.4115 -0.766679 20.7839 476.433 325.876
-19.7519 4.68455 20.52 476.326 347.65
-18.6119 9.81868 18.4608 479.198 367.829
-16.678 14.2684 13.4962 487.048 384.761
-13.3929 17.767 7.98575 500.984 398.522
-9.0236 20.1834 3.28882 519.324 408.912
-4.12302 21.7204 -0.769698 539.879 416.354
1.16316 21.7537 -4.56131 562.595 418.18
6.45328 21.0602 -0.777087 581.791 419.747
11.0403 18.7527 3.39113 598.866 414.684
15.0368 15.73 8.07755 613.724 406.645
17.9669 11.8967 13.5901 624.386 395.09
19.5731 7.36578 18.4479 630.547 379.808
20.2015 2.29813 20.7059 634.487 360.963
20.1952 -3.03664 20.9894 637.091 340.025
19.8602 -8.34454 21.3692 638.34 319.04
-17.1228 -13.7251 0.172434 506.745 269.567
-15.1215 -15.8987 -1.57754 516.644 261.531
-12.4196 -16.9495 -2.97762 528.533 258.439
-9.55423 -17.0661 -4.32693 540.551 259.141
-6.74714 -16.5969 -5.51983 551.955 262.172
3.469 -16.9204 -5.4382 592.23 266.718
6.14238 -17.9497 -4.14209 602.603 264.622
9.01592 -18.4039 -2.72808 613.402 264.947
11.94 -18.0146 -1.27907 623.942 268.638
14.4465 -16.3983 0.35556 632.107 276.994
-0.753907 -11.303 -5.15147 572.564 286.568
-0.594507 -8.51631 -7.88834 573.154 296.704
-0.433947 -5.74775 -10.6556 573.774 306.758
-0.259436 -2.97348 -13.2169 574.339 316.913
-2.98724 0.405674 -6.15841 558.215 331.115
-1.44313 0.615672 -7.16182 564.693 332.474
0.152513 0.588143 -8.08094 571.452 332.954
1.74666 0.38674 -7.06232 577.296 333.414
3.24462 -0.0676643 -6.16648 582.957 332.78
-12.1133 -9.80901 -1.25499 525.132 287.356
-10.3873 -10.8948 -1.13161 532.416 284.096
-8.30469 -11.1017 -0.992676 540.637 284.509
-6.48098 -10.286 -0.737634 547.248 288.847
-8.29323 -9.56947 -1.10104 539.94 290.519
-10.2607 -9.37897 -1.2125 532.167 290.116
5.17666 -11.1082 -0.674448 593.457 292.238
6.83268 -12.1417 -0.891103 600.615 289.029
8.89621 -12.234 -0.902481 608.778 289.831
10.7596 -11.4392 -0.892506 615.683 294.024
9.01347 -10.7298 -0.960374 608.486 295.808
7.05014 -10.6439 -0.90768 600.699 295.051
-5.63503 9.13922 -2.91155 541.589 365.161
-3.75673 7.47338 -5.00175 550.917 358.94
-1.65738 6.10453 -6.69579 560.754 354.152
0.717163 6.07469 -8.3908 570.977 354.798
3.07537 5.7688 -6.43706 579.395 355.601
5.33066 6.79695 -4.76337 586.859 361.509
7.40611 8.15956 -2.77038 593.277 368.743
5.88277 9.94002 -4.04572 587.023 374.46
3.75873 11.1519 -5.37031 578.729 377.577
1.1431 11.553 -6.84343 569.002 377.169
-1.48788 11.5356 -5.53186 557.994 376.059
-3.80633 10.6929 -4.07464 548.568 371.923
-1.5667 8.02625 -5.25443 559.366 362.275
0.853758 7.60784 -7.24883 570.126 361.312
3.31534 7.6569 -5.16063 578.696 363.619
3.45886 8.82279 -4.4729 578.299 368.534
0.986362 9.21895 -6.17445 569.255 368.108
-1.51851 9.20892 -4.53381 558.568 367.212
3 20 21 23
3 21 22 23
3 0 1 36
3 15 16 45
3 0 17 36
3 16 26 45
3 17 18 37
3 25 26 44
3 17 36 37
3 26 44 45
3 18 19 38
3 24 25 43
3 18 37 38
3 25 43 44
3 19 20 38
3 23 24 43
3 20 21 39
3 22 23 42
3 20 38 39
3 23 42 43
3 21 22 27
3 21 27 39
3 22 27 42
3 27 28 42
3 27 28 39
3 28 42 47
3 28 39 40
3 1 36 41
3 15 45 46
3 1 2 41
3 14 15 46
3 28 29 40
3 28 29 47
3 2 40 41
3 14 46 47
3 2 29 40
3 14 29 47
3 2 3 29
3 13 14 29
3 29 30 31
3 29 30 35
3 3 29 31
3 13 29 35
3 30 32 33
3 30 33 34
3 30 31 32
3 30 34 35
3 3 4 31
3 12 13 35
3 4 5 48
3 11 12 54
3 5 6 48
3 10 11 54
3 6 48 59
3 10 54 55
3 6 7 59
3 9 10 55
3 7 58 59
3 9 55 56
3 8 57 58
3 8 56 57
3 7 8 58
3 8 9 56
3 4 31 48
3 12 35 54
3 31 48 49
3 35 53 54
3 31 49 50
3 35 52 53
3 31 32 50
3 34 35 52
3 32 33 50
3 33 34 52
3 33 50 51
3 33 51 52
3 48 49 60
3 49 60 50
3 50 60 61
3 50 51 61
3 51 52 61
3 61 62 52
3 52 53 62
3 53 54 62
3 54 55 63
3 55 56 63
3 56 63 64
3 56 57 64
3 64 65 57
3 57 58 65
3 58 59 65
3 48 59 65
