ply
format ascii 1.0
element vertex 66
property float x
property float y
property float z
property float u
property float v
element face 91
property list uchar int vertex_indices
end_header
-20.6171 -6.08231 21.3857 477.068 302.223
-20.2137 -0.695615 20.9202 476.091 323.56
-19.5598 4.69086 20.6275 476.066 345.056
-18.4424 9.8249 18.428 478.37 365.435
-16.5206 14.4042 13.5718 484.644 383.538
-13.2436 18.0434 7.9693 496.869 398.482
-8.89511 20.5926 3.2543 513.678 409.835
-4.01473 22.2446 -0.788208 532.893 418.045
1.24204 22.3877 -4.70206 554.31 420.525
6.52592 21.5603 -0.753421 574.756 420.657
11.1607 19.1474 3.34941 593.397 414.245
15.1556 15.9399 8.08776 609.783 404.499
17.9903 11.845 13.7204 621.858 390.839
19.4165 7.05232 18.5007 628.896 373.564
19.9179 1.85351 20.8107 632.981 353.764
19.8398 -3.53599 21.1169 635.273 332.549
19.4457 -8.90324 21.4849 636.296 311.275
-16.9721 -13.557 0.162365 499.322 270.661
-14.9876 -15.8406 -1.59679 508.617 262.336
-12.2311 -16.9914 -3.01189 520.327 258.925
-9.27231 -17.1487 -4.34242 532.326 259.546
-6.36721 -16.6597 -5.52862 543.766 262.712
3.63494 -17.1832 -5.4965 583.429 265.686
6.32197 -18.1897 -4.21458 594.259 263.311
9.1974 -18.577 -2.80742 605.502 263.492
12.0796 -18.08 -1.31834 616.318 267.177
14.4899 -16.3852 0.347051 624.648 275.375
-0.641067 -11.4859 -5.08189 563.686 286.058
-0.451775 -8.75614 -7.78886 563.621 296.404
-0.262926 -6.04548 -10.5782 563.579 306.659
-0.0741513 -3.3392 -13.2745 563.521 316.914
-2.92778 0.0551259 -6.11682 549.184 330.183
-1.37473 0.240678 -7.12143 555.411 331.508
0.216819 0.22005 -8.09075 561.884 332.047
1.76167 0.0300474 -7.05559 567.86 332.268
3.24457 -0.371363 -6.07604 573.707 331.614
-12.0274 -9.24572 -1.13984 516.935 289.89
-10.3555 -10.2667 -1.16696 524.032 286.704
-8.3484 -10.5187 -1.15547 532.063 286.723
-6.52178 -9.91127 -0.915428 538.913 290.079
-8.26993 -9.14758 -1.14313 531.693 292.166
-10.1865 -8.91494 -1.18403 524.034 292.111
5.30783 -10.7722 -0.812888 585.928 292.655
7.00268 -11.6264 -1.02154 593.069 290.104
9.01092 -11.6831 -0.985373 601.003 290.897
10.8092 -10.9273 -0.926963 607.704 294.789
9.05855 -10.3107 -1.01123 600.519 296.323
7.13742 -10.2636 -0.993003 592.922 295.545
-6.71111 8.69015 -2.87705 529.373 362.901
-4.53946 6.99549 -4.89534 539.166 356.942
-2.12177 5.66766 -6.56549 549.679 352.616
0.555214 5.64299 -8.20205 560.563 353.561
3.18218 5.31903 -6.43632 570.724 353.934
5.70149 6.31693 -4.74451 579.823 359.447
8.00116 7.71663 -2.74185 587.796 366.49
6.29767 9.87303 -4.07962 580.285 373.88
3.87069 11.3253 -5.44912 570.276 378.126
0.918907 11.8127 -6.89341 558.691 378.293
-2.06611 11.7084 -5.53679 546.712 376.633
-4.6922 10.6104 -4.09518 536.621 371.255
-2.20219 7.72149 -5.22764 548.083 360.916
0.664479 7.40075 -7.31837 559.951 360.705
3.50246 7.34905 -5.12643 570.724 362.336
3.70016 8.74697 -4.47729 570.685 368.063
0.779576 9.23735 -6.32302 559.3 368.183
-2.22509 9.14901 -4.54744 547.153 366.655
3 20 21 23
3 21 22 23
3 0 1 36
3 15 16 45
3 0 17 36
3 16 26 45
3 17 18 37
3 25 26 44
3 17 36 37
3 26 44 45
3 18 19 38
3 24 25 43
3 18 37 38
3 25 43 44
3 19 20 38
3 23 24 43
3 20 21 39
3 22 23 42
3 20 38 39
3 23 42 43
3 21 22 27
3 21 27 39
3 22 27 42
3 27 28 42
3 27 28 39
3 28 42 47
3 28 39 40
3 1 36 41
3 15 45 46
3 1 2 41
3 14 15 46
3 28 29 40
3 28 29 47
3 2 40 41
3 14 46 47
3 2 29 40
3 14 29 47
3 2 3 29
3 13 14 29
3 29 30 31
3 29 30 35
3 3 29 31
3 13 29 35
3 30 32 33
3 30 33 34
3 30 31 32
3 30 34 35
3 3 4 31
3 12 13 35
3 4 5 48
3 11 12 54
3 5 6 48
3 10 11 54
3 6 48 59
3 10 54 55
3 6 7 59
3 9 10 55
3 7 58 59
3 9 55 56
3 8 57 58
3 8 56 57
3 7 8 58
3 8 9 56
3 4 31 48
3 12 35 54
3 31 48 49
3 35 53 54
3 31 49 50
3 35 52 53
3 31 32 50
3 34 35 52
3 32 33 50
3 33 34 52
3 33 50 51
3 33 51 52
3 48 49 60
3 49 60 50
3 50 60 61
3 50 51 61
3 51 52 61
3 61 62 52
3 52 53 62
3 53 54 62
3 54 55 63
3 55 56 63
3 56 63 64
3 56 57 64
3 64 65 57
3 57 58 65
3 58 59 65
3 48 59 65
