ply
format ascii 1.0
element vertex 66
property float x
property float y
property float z
property float u
property float v
element face 91
property list uchar int vertex_indices
end_header
-20.6688 -6.06752 21.4882 476.658 302.111
-20.2254 -0.671812 21.0624 475.893 323.561
-19.5388 4.7177 20.7487 476.066 345.125
-18.456 9.88398 18.4937 478.335 365.688
-16.5861 14.5228 13.5811 484.547 384.126
-13.2841 18.1802 7.98596 497.032 399.284
-8.90189 20.7272 3.32274 514.113 410.742
-3.99055 22.326 -0.814408 533.626 418.802
1.25377 22.4448 -4.73566 555.121 421.219
6.53284 21.6209 -0.763712 575.483 421.209
11.1962 19.2182 3.42995 594.13 414.699
15.2008 15.9693 8.11535 610.478 404.604
18.0424 11.8361 13.7334 622.461 390.597
19.4232 7.01617 18.5437 629.188 373.028
19.8942 1.84301 20.8991 633.032 353.219
19.8416 -3.49629 21.2012 635.338 332.163
19.4694 -8.81856 21.5283 636.37 311.022
-17.2032 -13.5927 0.151176 498.634 270.654
-15.1282 -15.8735 -1.63103 508.314 262.383
-12.285 -17.0046 -3.0469 520.39 259.088
-9.24553 -17.1644 -4.36173 532.749 259.741
-6.2527 -16.6766 -5.52866 544.578 262.952
3.54616 -17.1356 -5.52723 583.468 265.965
6.29059 -18.1278 -4.25472 594.499 263.606
9.21647 -18.5084 -2.85907 605.924 263.77
12.1515 -18.0513 -1.363 616.958 267.262
14.6274 -16.3927 0.334375 625.556 275.304
-0.593517 -11.5238 -5.02776 564.311 286.162
-0.403514 -8.71986 -7.75912 564.302 296.882
-0.215572 -5.94012 -10.6138 564.325 307.486
-0.0288793 -3.16781 -13.3743 564.325 318.075
-2.93639 0.281031 -6.13774 549.603 331.431
-1.34489 0.443162 -7.16157 556.029 332.689
0.275904 0.411121 -8.1672 562.66 333.198
1.83431 0.236402 -7.09397 568.66 333.449
3.34244 -0.139666 -6.08628 574.572 332.87
-12.2187 -9.29905 -1.03382 516.488 289.867
-10.4816 -10.4513 -1.16993 523.929 286.151
-8.35746 -10.6897 -1.20745 532.435 286.25
-6.4434 -9.92043 -0.956544 539.561 290.27
-8.28546 -9.16489 -1.12634 531.964 292.318
-10.2925 -8.93217 -1.13709 523.934 292.247
5.22506 -10.7316 -0.87559 585.981 292.827
6.98061 -11.7383 -1.08161 593.44 289.684
9.09476 -11.8228 -0.997924 601.806 290.405
10.9616 -10.9342 -0.832843 608.707 294.859
9.13567 -10.2797 -0.979361 601.217 296.52
7.13296 -10.2333 -0.993798 593.295 295.714
-7.08874 8.72092 -2.90064 528.431 363.229
-4.72893 7.04682 -4.9473 539 357.451
-2.17972 5.77522 -6.60214 550.035 353.418
0.572901 5.81256 -8.16094 561.22 354.668
3.25938 5.42765 -6.46178 571.636 354.747
5.8877 6.35904 -4.78538 581.192 359.99
8.34808 7.72953 -2.76183 589.796 366.939
6.4476 9.76149 -4.06596 581.599 373.814
3.83745 10.9913 -5.40284 570.997 377.167
0.892643 11.3694 -6.83204 559.506 376.978
-2.0824 11.3598 -5.50015 547.48 375.691
-4.86856 10.4951 -4.09535 536.596 371.133
-2.28156 8.03963 -5.30404 548.255 362.517
0.703572 7.84002 -7.30091 560.568 362.876
3.63471 7.66709 -5.17729 571.754 363.981
3.74092 8.17952 -4.54052 571.787 366.159
0.737333 8.43913 -6.44744 560.225 365.396
-2.32931 8.57825 -4.63265 547.66 364.729
3 20 21 23
3 21 22 23
3 0 1 36
3 15 16 45
3 0 17 36
3 16 26 45
3 17 18 37
3 25 26 44
3 17 36 37
3 26 44 45
3 18 19 38
3 24 25 43
3 18 37 38
3 25 43 44
3 19 20 38
3 23 24 43
3 20 21 39
3 22 23 42
3 20 38 39
3 23 42 43
3 21 22 27
3 21 27 39
3 22 27 42
3 27 28 42
3 27 28 39
3 28 42 47
3 28 39 40
3 1 36 41
3 15 45 46
3 1 2 41
3 14 15 46
3 28 29 40
3 28 29 47
3 2 40 41
3 14 46 47
3 2 29 40
3 14 29 47
3 2 3 29
3 13 14 29
3 29 30 31
3 29 30 35
3 3 29 31
3 13 29 35
3 30 32 33
3 30 33 34
3 30 31 32
3 30 34 35
3 3 4 31
3 12 13 35
3 4 5 48
3 11 12 54
3 5 6 48
3 10 11 54
3 6 48 59
3 10 54 55
3 6 7 59
3 9 10 55
3 7 58 59
3 9 55 56
3 8 57 58
3 8 56 57
3 7 8 58
3 8 9 56
3 4 31 48
3 12 35 54
3 31 48 49
3 35 53 54
3 31 49 50
3 35 52 53
3 31 32 50
3 34 35 52
3 32 33 50
3 33 34 52
3 33 50 51
3 33 51 52
3 48 49 60
3 49 60 50
3 50 60 61
3 50 51 61
3 51 52 61
3 61 62 52
3 52 53 62
3 53 54 62
3 54 55 63
3 55 56 63
3 56 63 64
3 56 57 64
3 64 65 57
3 57 58 65
3 58 59 65
3 48 59 65
