ply
format ascii 1.0
element vertex 66
property float x
property float y
property float z
property float u
property float v
element face 91
property list uchar int vertex_indices
end_header
-20.6983 -6.00591 21.3581 476.157 301.737
-20.3166 -0.63963 20.9179 475.204 323.082
-19.6595 4.72086 20.6481 475.299 344.559
-18.5261 9.82463 18.4329 477.864 365.011
-16.5861 14.3823 13.538 484.514 383.364
-13.2974 18.0171 7.97391 497.092 398.64
-8.94216 20.5694 3.30213 514.186 410.267
-4.04689 22.1997 -0.794827 533.716 418.583
1.21288 22.3497 -4.69808 555.347 421.247
6.52626 21.561 -0.737731 575.761 421.205
11.21 19.2059 3.41765 594.391 414.689
15.2342 16.0051 8.10489 610.693 404.576
18.0847 11.9041 13.6965 622.575 390.444
19.5089 7.0956 18.5378 629.342 372.73
20.0186 1.8719 20.8516 633.301 352.615
19.9521 -3.54725 21.1414 635.56 331.195
19.551 -8.9434 21.4806 636.476 309.71
-16.9467 -13.6655 0.120534 499.707 270.64
-14.9078 -15.9031 -1.61773 509.244 262.57
-12.1196 -16.9981 -3.01301 521.111 259.423
-9.14638 -17.1354 -4.34916 533.237 260.16
-6.23133 -16.6373 -5.55938 544.8 263.396
3.39359 -17.1118 -5.52577 583.027 266.204
6.15921 -18.1353 -4.23021 594.128 263.664
9.11181 -18.5334 -2.82876 605.644 263.7
12.0721 -18.0362 -1.36955 616.747 267.286
14.5462 -16.3095 0.289601 625.295 275.521
-0.694296 -11.5314 -5.05052 564.102 286.336
-0.496932 -8.81051 -7.74689 564.224 296.853
-0.300352 -6.1114 -10.5494 564.379 307.27
-0.102447 -3.4186 -13.2615 564.521 317.675
-2.93387 0.136908 -6.08725 549.926 331.246
-1.38221 0.297333 -7.10684 556.22 332.508
0.20262 0.258343 -8.09149 562.732 333.002
1.7552 0.080498 -7.03158 568.695 333.185
3.24627 -0.30366 -6.05457 574.534 332.513
-12.2691 -9.31762 -1.12808 516.398 289.947
-10.5201 -10.4273 -1.15827 523.843 286.407
-8.3974 -10.6788 -1.11656 532.335 286.45
-6.48221 -9.9954 -0.90896 539.522 290.109
-8.32358 -9.21482 -1.14965 531.935 292.27
-10.3408 -8.96384 -1.16938 523.854 292.278
5.20122 -10.8326 -0.801439 586.034 292.494
6.97838 -11.7761 -0.998863 593.55 289.603
9.10318 -11.8383 -0.989335 601.969 290.392
10.9937 -11.0116 -0.917161 609.022 294.588
9.15489 -10.3676 -0.995561 601.471 296.23
7.12922 -10.3255 -0.994029 593.451 295.412
-6.18913 9.05948 -2.93795 532.052 365.328
-4.24069 7.1981 -4.94943 541.117 358.667
-1.99051 5.72996 -6.59232 551.097 353.753
0.575852 5.72083 -8.19609 561.619 354.765
3.10369 5.39352 -6.45182 571.341 354.917
5.49154 6.54777 -4.7918 579.822 360.847
7.61713 8.12666 -2.79051 586.983 368.372
5.94201 9.99696 -4.07754 579.781 374.791
3.63214 11.1845 -5.44273 570.418 378.193
0.923276 11.5665 -6.89416 559.885 378.205
-1.79517 11.5383 -5.54677 548.841 376.939
-4.25697 10.6942 -4.10563 539.179 372.585
-1.91226 8.00689 -5.2061 549.986 362.964
0.700962 7.69105 -7.22283 560.939 362.735
3.29856 7.66258 -5.11243 570.706 364.148
3.37293 8.42136 -4.51971 570.495 367.258
0.759159 8.72639 -6.35618 560.466 366.964
-1.90562 8.78148 -4.58585 549.494 366.107
3 20 21 23
3 21 22 23
3 0 1 36
3 15 16 45
3 0 17 36
3 16 26 45
3 17 18 37
3 25 26 44
3 17 36 37
3 26 44 45
3 18 19 38
3 24 25 43
3 18 37 38
3 25 43 44
3 19 20 38
3 23 24 43
3 20 21 39
3 22 23 42
3 20 38 39
3 23 42 43
3 21 22 27
3 21 27 39
3 22 27 42
3 27 28 42
3 27 28 39
3 28 42 47
3 28 39 40
3 1 36 41
3 15 45 46
3 1 2 41
3 14 15 46
3 28 29 40
3 28 29 47
3 2 40 41
3 14 46 47
3 2 29 40
3 14 29 47
3 2 3 29
3 13 14 29
3 29 30 31
3 29 30 35
3 3 29 31
3 13 29 35
3 30 32 33
3 30 33 34
3 30 31 32
3 30 34 35
3 3 4 31
3 12 13 35
3 4 5 48
3 11 12 54
3 5 6 48
3 10 11 54
3 6 48 59
3 10 54 55
3 6 7 59
3 9 10 55
3 7 58 59
3 9 55 56
3 8 57 58
3 8 56 57
3 7 8 58
3 8 9 56
3 4 31 48
3 12 35 54
3 31 48 49
3 35 53 54
3 31 49 50
3 35 52 53
3 31 32 50
3 34 35 52
3 32 33 50
3 33 34 52
3 33 50 51
3 33 51 52
3 48 49 60
3 49 60 50
3 50 60 61
3 50 51 61
3 51 52 61
3 61 62 52
3 52 53 62
3 53 54 62
3 54 55 63
3 55 56 63
3 56 63 64
3 56 57 64
3 64 65 57
3 57 58 65
3 58 59 65
3 48 59 65
