ply
format ascii 1.0
element vertex 66
property float x
property float y
property float z
property float u
property float v
element face 91
property list uchar int vertex_indices
end_header
-20.7339 -5.98784 21.3585 474.213 304.686
-20.3373 -0.559128 20.8217 473.473 326.439
-19.6754 4.87469 20.5607 473.694 348.414
-18.5366 9.98255 18.4461 476.616 368.835
-16.5989 14.4097 13.519 484.022 386.191
-13.3354 17.8965 7.98209 497.37 400.273
-8.99265 20.3091 3.26155 515.241 410.798
-4.10341 21.827 -0.800022 535.478 418.184
1.17088 21.8433 -4.60634 557.859 419.82
6.48558 21.1119 -0.743899 578.075 420.482
11.0904 18.7683 3.40682 596.103 414.43
15.0635 15.6753 8.13482 611.752 405.226
17.9209 11.7562 13.6829 623.044 392.391
19.4614 7.16093 18.4952 629.644 376.022
20.059 2.04312 20.7617 633.609 356.444
20.0342 -3.34467 21.0216 635.911 334.963
19.6752 -8.70362 21.4062 636.822 313.467
-17.0398 -13.6155 0.145343 499.881 270.471
-15.0003 -15.8244 -1.56636 509.643 262.186
-12.2407 -16.8763 -2.96021 521.635 258.959
-9.3225 -16.9808 -4.32462 533.813 259.604
-6.47139 -16.4835 -5.55161 545.396 262.657
3.50057 -16.86 -5.53028 585.384 266
6.20518 -17.8988 -4.20246 596.203 263.507
9.11369 -18.3484 -2.75776 607.522 263.498
12.0675 -17.9277 -1.2954 618.614 266.995
14.5766 -16.2553 0.2993 627.305 275.313
-0.710914 -11.4266 -5.12658 565.913 285.78
-0.554631 -8.66483 -7.83787 566.204 296.19
-0.398659 -5.92435 -10.6136 566.526 306.498
-0.234149 -3.18105 -13.2312 566.826 316.863
-3.02789 0.1959 -6.13813 551.637 330.85
-1.47236 0.409176 -7.14399 558.1 332.197
0.135025 0.38414 -8.06572 564.852 332.637
1.72777 0.191206 -7.05868 570.951 332.902
3.23213 -0.248809 -6.11324 576.833 332.119
-12.3698 -9.67606 -1.21927 517.184 288.131
-10.5402 -10.7509 -1.11012 524.949 284.752
-8.37108 -10.9819 -0.997037 533.679 284.911
-6.44548 -10.2357 -0.783785 540.949 288.885
-8.35772 -9.53416 -1.11423 533.103 290.674
-10.4199 -9.31171 -1.19829 524.794 290.54
5.28084 -11.0733 -0.753819 588.154 291.239
7.0542 -12.0468 -0.893527 595.734 288.173
9.20954 -12.1163 -0.903182 604.377 288.939
11.1602 -11.3267 -0.927637 611.81 293.036
9.3043 -10.6862 -0.997852 604.127 294.677
7.24671 -10.6268 -0.975678 595.875 293.921
-5.65411 9.11831 -2.93432 535.907 366.074
-3.83986 7.3725 -4.95927 544.664 359.45
-1.75681 5.96468 -6.64432 554.221 354.396
0.615149 5.9275 -8.35414 564.306 354.954
2.9673 5.64745 -6.43217 573.159 355.477
5.19561 6.74668 -4.74518 580.962 361.392
7.19232 8.21995 -2.78944 587.573 368.76
5.70487 10.0257 -4.06453 581.242 374.924
3.61648 11.265 -5.41791 572.8 378.512
1.01309 11.672 -6.89366 562.729 378.49
-1.61164 11.627 -5.56589 551.806 377.381
-3.89053 10.7256 -4.10763 542.615 373.05
-1.77003 7.92576 -5.22995 552.769 362.596
0.733963 7.49596 -7.28505 563.682 361.56
3.26763 7.57452 -5.12615 573.012 363.666
3.40277 8.84512 -4.45254 572.73 368.986
0.862879 9.26871 -6.21813 563.006 368.986
-1.72857 9.21679 -4.54073 552.097 367.957
3 20 21 23
3 21 22 23
3 0 1 36
3 15 16 45
3 0 17 36
3 16 26 45
3 17 18 37
3 25 26 44
3 17 36 37
3 26 44 45
3 18 19 38
3 24 25 43
3 18 37 38
3 25 43 44
3 19 20 38
3 23 24 43
3 20 21 39
3 22 23 42
3 20 38 39
3 23 42 43
3 21 22 27
3 21 27 39
3 22 27 42
3 27 28 42
3 27 28 39
3 28 42 47
3 28 39 40
3 1 36 41
3 15 45 46
3 1 2 41
3 14 15 46
3 28 29 40
3 28 29 47
3 2 40 41
3 14 46 47
3 2 29 40
3 14 29 47
3 2 3 29
3 13 14 29
3 29 30 31
3 29 30 35
3 3 29 31
3 13 29 35
3 30 32 33
3 30 33 34
3 30 31 32
3 30 34 35
3 3 4 31
3 12 13 35
3 4 5 48
3 11 12 54
3 5 6 48
3 10 11 54
3 6 48 59
3 10 54 55
3 6 7 59
3 9 10 55
3 7 58 59
3 9 55 56
3 8 57 58
3 8 56 57
3 7 8 58
3 8 9 56
3 4 31 48
3 12 35 54
3 31 48 49
3 35 53 54
3 31 49 50
3 35 52 53
3 31 32 50
3 34 35 52
3 32 33 50
3 33 34 52
3 33 50 51
3 33 51 52
3 48 49 60
3 49 60 50
3 50 60 61
3 50 51 61
3 51 52 61
3 61 62 52
3 52 53 62
3 53 54 62
3 54 55 63
3 55 56 63
3 56 63 64
3 56 57 64
3 64 65 57
3 57 58 65
3 58 59 65
3 48 59 65
