ply
format ascii 1.0
element vertex 66
property float x
property float y
property float z
property float u
property float v
element face 91
property list uchar int vertex_indices
end_header
-20.7035 -6.07268 21.3661 474.839 304.843
-20.3206 -0.625613 20.8184 473.944 326.582
-19.6744 4.8299 20.5633 473.982 348.577
-18.5565 9.95353 18.4724 476.764 368.941
-16.6472 14.3791 13.5154 484.137 386.068
-13.3924 17.8562 7.99169 497.543 399.935
-9.03959 20.2473 3.26832 515.537 410.277
-4.13872 21.7417 -0.787733 535.889 417.525
1.14441 21.7349 -4.5859 558.388 419.065
6.45804 21.0284 -0.753989 578.411 420.121
11.0583 18.7041 3.40331 596.249 414.461
15.0429 15.6509 8.12581 611.771 405.751
17.9278 11.782 13.6515 622.998 393.468
19.492 7.23235 18.4956 629.558 377.591
20.0949 2.1393 20.7607 633.546 358.283
20.0669 -3.23363 21.0226 635.927 336.935
19.7074 -8.57772 21.3986 636.931 315.567
-17.1152 -13.5695 0.159542 500.905 270.445
-15.1021 -15.8175 -1.57653 510.673 261.996
-12.3493 -16.8946 -2.96781 522.689 258.697
-9.43075 -17.0084 -4.32721 534.887 259.33
-6.57686 -16.5221 -5.54574 546.484 262.364
3.52249 -16.8952 -5.50269 586.858 266.063
6.22823 -17.934 -4.18243 597.624 263.705
9.13951 -18.3859 -2.74536 608.88 263.826
12.0968 -17.9569 -1.2889 619.887 267.487
14.5973 -16.2545 0.330051 628.398 276.038
-0.724827 -11.3639 -5.1461 567.14 286.037
-0.574255 -8.60259 -7.86517 567.452 296.303
-0.423172 -5.86189 -10.6352 567.797 306.472
-0.261438 -3.1162 -13.2238 568.111 316.72
-3.03149 0.266687 -6.14349 552.725 330.906
-1.47666 0.47765 -7.15348 559.202 332.24
0.130732 0.447661 -8.07654 565.972 332.667
1.72782 0.255596 -7.06572 572.034 333.023
3.23298 -0.188689 -6.13828 577.885 332.301
-12.3105 -9.73867 -1.22807 518.719 287.755
-10.5069 -10.8858 -1.11645 526.411 284.141
-8.3232 -11.1007 -1.00123 535.165 284.438
-6.42094 -10.2371 -0.756921 542.228 288.927
-8.31741 -9.49419 -1.11254 534.455 290.809
-10.3774 -9.28775 -1.20577 526.189 290.549
5.22313 -11.0758 -0.719395 588.979 291.559
6.95183 -12.1645 -0.899993 596.457 288.052
9.11715 -12.2597 -0.897505 605.123 288.782
11.0574 -11.4025 -0.903557 612.437 293.19
9.23424 -10.6692 -0.982258 604.854 295.155
7.18026 -10.5909 -0.953033 596.627 294.424
-5.60104 9.14599 -2.9307 536.972 365.939
-3.77564 7.4172 -4.98369 545.864 359.368
-1.70398 6.00992 -6.67555 555.443 354.314
0.651759 5.97004 -8.38297 565.498 354.849
2.98917 5.68398 -6.44549 574.197 355.487
5.21166 6.76805 -4.75936 581.874 361.452
7.22489 8.21263 -2.78383 588.432 368.832
5.75412 10.026 -4.0643 582.193 374.921
3.67086 11.2712 -5.42361 573.821 378.409
1.06797 11.6767 -6.90049 563.83 378.249
-1.55399 11.6454 -5.57669 552.897 377.178
-3.83688 10.7539 -4.10099 543.67 372.899
-1.65881 7.96758 -5.23987 554.125 362.569
0.780203 7.53099 -7.26571 564.826 361.471
3.2543 7.61058 -5.14033 573.82 363.692
3.39483 8.86136 -4.45653 573.513 368.954
0.912605 9.26993 -6.18772 564.099 368.792
-1.61453 9.23965 -4.53658 553.417 367.872
3 20 21 23
3 21 22 23
3 0 1 36
3 15 16 45
3 0 17 36
3 16 26 45
3 17 18 37
3 25 26 44
3 17 36 37
3 26 44 45
3 18 19 38
3 24 25 43
3 18 37 38
3 25 43 44
3 19 20 38
3 23 24 43
3 20 21 39
3 22 23 42
3 20 38 39
3 23 42 43
3 21 22 27
3 21 27 39
3 22 27 42
3 27 28 42
3 27 28 39
3 28 42 47
3 28 39 40
3 1 36 41
3 15 45 46
3 1 2 41
3 14 15 46
3 28 29 40
3 28 29 47
3 2 40 41
3 14 46 47
3 2 29 40
3 14 29 47
3 2 3 29
3 13 14 29
3 29 30 31
3 29 30 35
3 3 29 31
3 13 29 35
3 30 32 33
3 30 33 34
3 30 31 32
3 30 34 35
3 3 4 31
3 12 13 35
3 4 5 48
3 11 12 54
3 5 6 48
3 10 11 54
3 6 48 59
3 10 54 55
3 6 7 59
3 9 10 55
3 7 58 59
3 9 55 56
3 8 57 58
3 8 56 57
3 7 8 58
3 8 9 56
3 4 31 48
3 12 35 54
3 31 48 49
3 35 53 54
3 31 49 50
3 35 52 53
3 31 32 50
3 34 35 52
3 32 33 50
3 33 34 52
3 33 50 51
3 33 51 52
3 48 49 60
3 49 60 50
3 50 60 61
3 50 51 61
3 51 52 61
3 61 62 52
3 52 53 62
3 53 54 62
3 54 55 63
3 55 56 63
3 56 63 64
3 56 57 64
3 64 65 57
3 57 58 65
3 58 59 65
3 48 59 65
