ply
format ascii 1.0
element vertex 66
property float x
property float y
property float z
property float u
property float v
element face 91
property list uchar int vertex_indices
end_header
-20.3373 -6.00777 21.3757 476.991 302.638
-19.9024 -0.658527 20.9231 476.203 324.059
-19.2241 4.6854 20.6198 476.361 345.597
-18.1212 9.78785 18.4291 478.631 366.148
-16.2365 14.3543 13.6435 484.69 384.629
-13.0185 18.0104 8.01797 496.626 400.04
-8.75204 20.6331 3.26764 513.087 411.964
-3.94373 22.3808 -0.799516 532.013 420.76
1.27436 22.5522 -4.70742 553.306 423.51
6.50921 21.7087 -0.768436 573.878 423.208
11.0585 19.2243 3.36156 592.489 416.07
14.957 15.9618 8.1366 608.785 405.602
17.7184 11.8597 13.7947 620.825 391.349
19.0922 7.08008 18.5148 627.83 373.607
19.5737 1.90539 20.8108 631.875 353.557
19.5245 -3.45496 21.1265 634.224 332.263
19.1707 -8.79762 21.488 635.346 310.897
-16.8319 -13.7628 0.152188 498.136 270.892
-14.8447 -16.0166 -1.59138 507.41 262.689
-12.1036 -17.1747 -3.02567 519.099 259.249
-9.15988 -17.3842 -4.35904 531.117 259.691
-6.26196 -16.9417 -5.54371 542.613 262.721
3.47204 -17.4391 -5.51862 581.537 265.511
6.18232 -18.395 -4.24027 592.564 263.196
9.07105 -18.7195 -2.83322 603.972 263.495
11.9537 -18.1866 -1.3282 614.926 267.211
14.3611 -16.4861 0.332379 623.4 275.355
-0.680609 -11.8014 -5.04285 562.225 285.949
-0.484869 -9.02982 -7.72985 562.099 296.729
-0.289503 -6.2837 -10.5446 562.005 307.392
-0.0936076 -3.54555 -13.3093 561.908 318.029
-2.84201 0.0544314 -6.07396 548.062 331.893
-1.33156 0.175276 -7.1156 554.177 332.983
0.202902 0.120672 -8.13227 560.467 333.391
1.69511 -0.0297214 -7.0605 566.296 333.656
3.14576 -0.362762 -6.04439 572.057 333.168
-11.958 -9.40087 -1.0654 515.594 290.466
-10.2984 -10.4724 -1.13067 522.719 287.011
-8.27671 -10.7225 -1.16653 530.881 287.001
-6.44214 -10.0797 -0.959494 537.827 290.48
-8.1913 -9.31874 -1.13959 530.536 292.627
-10.1115 -9.07503 -1.15166 522.789 292.654
5.18041 -10.9183 -0.864443 584.411 292.846
6.881 -11.8075 -1.04224 591.63 290.122
8.90381 -11.8634 -0.958657 599.683 290.9
10.6972 -11.0555 -0.860563 606.403 295.001
8.93822 -10.4478 -0.987306 599.138 296.54
7.01127 -10.4126 -0.997354 591.465 295.736
-6.98254 8.80831 -2.88108 526.847 365.061
-4.60053 7.28266 -4.8921 537.381 359.912
-2.10366 6.05551 -6.57017 548.172 356.048
0.58525 6.06679 -8.18403 559.116 357.208
3.21834 5.70335 -6.44982 569.475 357.268
5.80556 6.58728 -4.74898 579.052 362.259
8.29694 7.78366 -2.74936 588.049 368.482
6.51664 10.0286 -4.14409 580.114 376.361
3.96798 11.5048 -5.4701 569.485 380.818
0.937788 11.9941 -6.86237 557.432 381.107
-2.12702 11.9039 -5.55121 545.081 379.411
-4.87559 10.8019 -4.16131 534.464 373.858
-2.30068 8.17943 -5.23852 546.143 364.56
0.702677 7.9197 -7.35621 558.551 364.734
3.66599 7.78431 -5.1505 570.035 365.92
3.85149 8.7656 -4.52223 570.194 369.99
0.778866 9.19696 -6.38693 558.077 369.969
-2.36932 9.19139 -4.58259 545.274 368.63
3 20 21 23
3 21 22 23
3 0 1 36
3 15 16 45
3 0 17 36
3 16 26 45
3 17 18 37
3 25 26 44
3 17 36 37
3 26 44 45
3 18 19 38
3 24 25 43
3 18 37 38
3 25 43 44
3 19 20 38
3 23 24 43
3 20 21 39
3 22 23 42
3 20 38 39
3 23 42 43
3 21 22 27
3 21 27 39
3 22 27 42
3 27 28 42
3 27 28 39
3 28 42 47
3 28 39 40
3 1 36 41
3 15 45 46
3 1 2 41
3 14 15 46
3 28 29 40
3 28 29 47
3 2 40 41
3 14 46 47
3 2 29 40
3 14 29 47
3 2 3 29
3 13 14 29
3 29 30 31
3 29 30 35
3 3 29 31
3 13 29 35
3 30 32 33
3 30 33 34
3 30 31 32
3 30 34 35
3 3 4 31
3 12 13 35
3 4 5 48
3 11 12 54
3 5 6 48
3 10 11 54
3 6 48 59
3 10 54 55
3 6 7 59
3 9 10 55
3 7 58 59
3 9 55 56
3 8 57 58
3 8 56 57
3 7 8 58
3 8 9 56
3 4 31 48
3 12 35 54
3 31 48 49
3 35 53 54
3 31 49 50
3 35 52 53
3 31 32 50
3 34 35 52
3 32 33 50
3 33 34 52
3 33 50 51
3 33 51 52
3 48 49 60
3 49 60 50
3 50 60 61
3 50 51 61
3 51 52 61
3 61 62 52
3 52 53 62
3 53 54 62
3 54 55 63
3 55 56 63
3 56 63 64
3 56 57 64
3 64 65 57
3 57 58 65
3 58 59 65
3 48 59 65
