ply
format ascii 1.0
element vertex 66
property float x
property float y
property float z
property float u
property float v
element face 91
property list uchar int vertex_indices
end_header
-20.7756 -6.15807 21.3982 474.688 304.306
-20.4043 -0.656075 20.8319 473.681 326.206
-19.7796 4.85961 20.5758 473.539 348.395
-18.6961 10.0408 18.486 476.183 368.909
-16.8232 14.5023 13.5066 483.577 386.052
-13.555 17.9688 7.97972 497.243 399.804
-9.16246 20.3126 3.26647 515.578 409.949
-4.228 21.7431 -0.801967 536.236 416.957
1.06427 21.7152 -4.59957 558.921 418.441
6.4156 21.0088 -0.75572 578.849 419.711
11.055 18.6794 3.41282 596.613 414.252
15.0849 15.6232 8.1111 612.087 405.747
18.0258 11.7573 13.6206 623.285 393.702
19.636 7.2167 18.4484 629.828 378.048
20.2489 2.14004 20.7315 633.786 358.915
20.2023 -3.21888 20.9772 636.151 337.653
19.8128 -8.54814 21.3397 637.088 316.365
-17.0927 -13.6256 0.132433 502.276 269.735
-15.0401 -15.8196 -1.58843 512.264 261.547
-12.2857 -16.8617 -2.96932 524.321 258.424
-9.37752 -16.9632 -4.32252 536.51 259.132
-6.53101 -16.4737 -5.53653 548.1 262.203
3.46129 -16.7832 -5.50717 587.923 266.295
6.10834 -17.8209 -4.17821 598.371 264.002
8.96549 -18.2931 -2.74034 609.326 264.105
11.8892 -17.9521 -1.28456 620.134 267.484
14.4213 -16.378 0.305582 628.717 275.602
-0.662749 -11.3376 -5.13727 568.684 285.881
-0.523601 -8.5495 -7.86124 569.041 296.17
-0.385521 -5.7826 -10.6408 569.427 306.357
-0.237376 -3.0102 -13.2298 569.768 316.632
-3.02561 0.313927 -6.13151 553.956 330.65
-1.44819 0.540746 -7.15002 560.552 332.064
0.187038 0.519249 -8.07447 567.459 332.551
1.79461 0.323592 -7.04361 573.491 332.959
3.30374 -0.134597 -6.12125 579.31 332.235
-12.287 -9.79939 -1.23412 520.059 287.071
-10.4914 -10.8896 -1.11514 527.678 283.728
-8.34758 -11.1064 -0.982123 536.242 284.048
-6.46445 -10.2801 -0.753008 543.211 288.41
-8.3451 -9.58018 -1.11082 535.551 290.079
-10.3759 -9.38651 -1.2072 527.432 289.738
5.2886 -11.1075 -0.719589 590.281 291.379
6.99219 -12.1403 -0.878127 597.628 288.126
9.10844 -12.236 -0.88597 606.083 288.869
11.0229 -11.4294 -0.891597 613.289 293.093
9.22588 -10.7342 -0.973035 605.843 294.877
7.21074 -10.6564 -0.942446 597.788 294.124
-5.60196 9.1228 -2.9526 537.973 365.338
-3.74989 7.4052 -4.99968 547.071 358.834
-1.66422 6.01886 -6.68556 556.776 353.888
0.685787 5.99075 -8.38175 566.861 354.481
3.00981 5.70177 -6.41495 575.377 355.199
5.22762 6.76483 -4.74052 582.929 361.144
7.23759 8.21068 -2.78641 589.343 368.591
5.76468 9.99294 -4.05617 583.163 374.489
3.6741 11.1933 -5.38466 574.844 377.726
1.09021 11.5663 -6.87911 565.048 377.355
-1.51319 11.553 -5.56612 554.144 376.339
-3.81114 10.7049 -4.10061 544.801 372.214
-1.56238 8.02393 -5.25561 555.563 362.376
0.823897 7.6173 -7.23585 566.104 361.392
3.23523 7.68671 -5.11461 574.722 363.631
3.35679 8.72702 -4.44832 574.399 368.048
0.941376 9.07813 -6.19255 565.392 367.6
-1.51912 9.08929 -4.56124 554.905 366.86
3 20 21 23
3 21 22 23
3 0 1 36
3 15 16 45
3 0 17 36
3 16 26 45
3 17 18 37
3 25 26 44
3 17 36 37
3 26 44 45
3 18 19 38
3 24 25 43
3 18 37 38
3 25 43 44
3 19 20 38
3 23 24 43
3 20 21 39
3 22 23 42
3 20 38 39
3 23 42 43
3 21 22 27
3 21 27 39
3 22 27 42
3 27 28 42
3 27 28 39
3 28 42 47
3 28 39 40
3 1 36 41
3 15 45 46
3 1 2 41
3 14 15 46
3 28 29 40
3 28 29 47
3 2 40 41
3 14 46 47
3 2 29 40
3 14 29 47
3 2 3 29
3 13 14 29
3 29 30 31
3 29 30 35
3 3 29 31
3 13 29 35
3 30 32 33
3 30 33 34
3 30 31 32
3 30 34 35
3 3 4 31
3 12 13 35
3 4 5 48
3 11 12 54
3 5 6 48
3 10 11 54
3 6 48 59
3 10 54 55
3 6 7 59
3 9 10 55
3 7 58 59
3 9 55 56
3 8 57 58
3 8 56 57
3 7 8 58
3 8 9 56
3 4 31 48
3 12 35 54
3 31 48 49
3 35 53 54
3 31 49 50
3 35 52 53
3 31 32 50
3 34 35 52
3 32 33 50
3 33 34 52
3 33 50 51
3 33 51 52
3 48 49 60
3 49 60 50
3 50 60 61
3 50 51 61
3 51 52 61
3 61 62 52
3 52 53 62
3 53 54 62
3 54 55 63
3 55 56 63
3 56 63 64
3 56 57 64
3 64 65 57
3 57 58 65
3 58 59 65
3 48 59 65
