ply
format ascii 1.0
element vertex 66
property float x
property float y
property float z
property float u
property float v
element face 91
property list uchar int vertex_indices
end_header
-20.4987 -6.25037 21.2937 476.052 304.931
-20.2342 -0.948912 20.9676 474.942 325.813
-19.6578 4.33638 20.7039 475.047 346.775
-18.5495 9.42837 18.467 477.8 366.931
-16.6468 14.1108 13.5623 484.49 385.447
-13.395 17.9179 7.95017 497.012 401.007
-9.00913 20.5588 3.32722 514.231 412.613
-4.05969 22.2153 -0.691679 533.926 420.679
1.21074 22.4495 -4.75531 555.489 423.294
6.47616 21.6217 -0.727831 575.507 422.865
11.1834 19.3232 3.38837 593.932 416.435
15.2646 16.1586 8.0326 610.137 406.41
18.1191 11.9973 13.6867 621.703 392.086
19.512 7.079 18.6075 628.034 374.06
20.0131 1.80684 20.9925 631.632 353.908
19.9182 -3.60917 21.3435 633.449 332.652
19.4822 -9.01401 21.5558 633.958 311.274
-17.0659 -13.7147 0.189942 497.792 274.152
-15.1868 -16.2776 -1.64384 506.685 264.641
-12.3345 -17.5543 -3.03418 518.747 260.658
-9.22397 -17.6874 -4.34315 531.321 261.288
-6.1824 -17.1005 -5.56264 543.301 264.727
3.09088 -17.6226 -5.45178 579.864 266.672
6.05641 -18.8278 -4.15928 591.687 263.393
9.23804 -19.2971 -2.79101 604.029 263.107
12.3864 -18.6168 -1.35076 615.741 267.33
14.8249 -16.4862 0.395622 623.985 276.985
-0.849152 -11.5007 -5.10862 561.756 289.065
-0.672099 -9.03356 -7.70578 562.047 298.465
-0.487922 -6.58466 -10.4343 562.405 307.778
-0.294858 -4.15347 -13.1862 562.812 317.022
-2.81376 -0.0819054 -5.94992 549.459 332.937
-1.39048 -0.0508547 -7.02394 555.29 333.52
0.0351901 -0.153913 -8.13544 561.196 333.572
1.48781 -0.275369 -6.97755 566.662 333.88
2.91232 -0.540216 -5.99249 572.121 333.589
-12.0932 -8.67363 -1.18439 515.512 295.887
-10.4418 -10.1695 -1.28245 522.642 290.709
-8.16177 -10.4004 -1.24841 531.673 290.786
-6.22128 -9.38185 -0.889204 538.768 295.668
-8.02322 -8.18934 -1.2343 531.284 299.528
-10.1298 -7.90887 -1.21505 522.9 299.728
5.01516 -10.2812 -0.748512 583.182 296.978
6.7752 -11.6049 -1.12785 590.734 292.483
9.06782 -11.7167 -1.0778 599.76 293.035
10.9532 -10.5292 -0.901453 606.613 298.531
9.13186 -9.44602 -0.985593 599.035 301.991
6.99481 -9.38788 -1.02946 590.64 301.296
-5.7116 9.54356 -2.95458 533.321 369.903
-3.97815 7.4927 -5.01617 541.484 362.307
-1.9287 5.72494 -6.64366 550.661 356.019
0.592667 5.68724 -8.1402 560.93 356.744
3.10328 5.34626 -6.52844 570.528 356.708
5.37715 6.78104 -4.89291 578.445 363.545
7.38935 8.51467 -2.83455 585.107 371.502
5.72794 10.1671 -4.17056 578.223 377.09
3.52126 11.1911 -5.62797 569.493 379.961
0.986108 11.5685 -7.05969 559.74 380.155
-1.52765 11.578 -5.68816 549.542 379.305
-3.85554 10.9384 -4.13984 540.304 376.011
-1.43789 8.22224 -5.10421 551.162 366.249
0.747576 7.88129 -7.03314 560.347 365.579
2.94986 7.87196 -5.11129 568.52 366.756
2.95883 8.32749 -4.6128 568.242 368.618
0.779111 8.54709 -6.37152 560.029 368.299
-1.41453 8.6842 -4.58444 550.933 368.146
3 20 21 23
3 21 22 23
3 0 1 36
3 15 16 45
3 0 17 36
3 16 26 45
3 17 18 37
3 25 26 44
3 17 36 37
3 26 44 45
3 18 19 38
3 24 25 43
3 18 37 38
3 25 43 44
3 19 20 38
3 23 24 43
3 20 21 39
3 22 23 42
3 20 38 39
3 23 42 43
3 21 22 27
3 21 27 39
3 22 27 42
3 27 28 42
3 27 28 39
3 28 42 47
3 28 39 40
3 1 36 41
3 15 45 46
3 1 2 41
3 14 15 46
3 28 29 40
3 28 29 47
3 2 40 41
3 14 46 47
3 2 29 40
3 14 29 47
3 2 3 29
3 13 14 29
3 29 30 31
3 29 30 35
3 3 29 31
3 13 29 35
3 30 32 33
3 30 33 34
3 30 31 32
3 30 34 35
3 3 4 31
3 12 13 35
3 4 5 48
3 11 12 54
3 5 6 48
3 10 11 54
3 6 48 59
3 10 54 55
3 6 7 59
3 9 10 55
3 7 58 59
3 9 55 56
3 8 57 58
3 8 56 57
3 7 8 58
3 8 9 56
3 4 31 48
3 12 35 54
3 31 48 49
3 35 53 54
3 31 49 50
3 35 52 53
3 31 32 50
3 34 35 52
3 32 33 50
3 33 34 52
3 33 50 51
3 33 51 52
3 48 49 60
3 49 60 50
3 50 60 61
3 50 51 61
3 51 52 61
3 61 62 52
3 52 53 62
3 53 54 62
3 54 55 63
3 55 56 63
3 56 63 64
3 56 57 64
3 64 65 57
3 57 58 65
3 58 59 65
3 48 59 65
