ply
format ascii 1.0
element vertex 66
property float x
property float y
property float z
property float u
property float v
element face 91
property list uchar int vertex_indices
end_header
-20.3555 -5.792 21.0627 487.519 444.095
-19.85 -0.605207 20.6203 488.064 465.887
-18.9742 4.52717 20.2876 490.207 487.628
-17.5939 9.51296 18.1625 494.513 507.83
-15.3521 14.142 13.439 502.555 525.233
-11.9139 18.0116 7.85931 515.918 539.28
-7.57354 20.9338 3.20119 533.438 550.151
-2.64073 22.8338 -0.82293 553.812 557.264
2.68893 22.8973 -4.40971 576.454 557.004
7.27379 21.599 -0.876744 596.474 555.026
11.1039 18.88 3.39244 613.729 547.258
14.4026 15.5942 8.17959 628.901 537.246
16.7745 11.6215 13.8317 640.35 524.57
18.0767 7.04674 18.5272 647.404 508.454
18.7046 2.18146 20.7835 651.628 489.448
18.9986 -2.80806 21.1127 654.43 468.664
19.0722 -7.79472 21.5765 656.293 447.905
-16.2379 -15.1286 0.198339 507.574 393.437
-14.1743 -16.8343 -1.47272 516.87 385.86
-11.5703 -17.5945 -2.96887 528.183 382.545
-8.85753 -17.6571 -4.35858 539.745 382.272
-6.21539 -17.1413 -5.61851 550.83 384.499
3.53049 -17.7125 -5.38506 592.574 385.183
6.41208 -18.6953 -4.14364 605.189 382.649
9.43431 -19.0433 -2.7146 618.213 382.951
12.4057 -18.4092 -1.26547 630.715 387.397
14.7687 -16.5699 0.385552 640.256 396.869
-1.45515 -11.461 -5.08587 569.385 410.249
-1.40816 -8.57962 -7.68628 568.647 420.876
-1.33488 -5.72829 -10.4873 568.026 431.264
-1.2142 -2.90144 -13.2762 567.615 441.57
-3.77554 0.423816 -6.11179 555.798 459.121
-2.35604 0.689568 -7.14134 561.75 460.058
-0.889645 0.712875 -8.18399 567.977 459.977
0.780848 0.421696 -7.17157 575.21 459.86
2.36048 -0.0918489 -6.08015 582.126 458.823
-12.0369 -10.0578 -1.16388 523.898 415.31
-10.5006 -11.2408 -1.10709 530.816 410.815
-8.50416 -11.4179 -1.02465 539.386 410.722
-6.81304 -10.613 -0.710369 546.356 414.822
-8.47091 -9.81386 -0.985826 539.033 417.529
-10.3189 -9.58257 -1.10754 531.079 417.872
5.84065 -11.6944 -1.0218 600.648 413.907
7.47111 -12.665 -0.950543 607.902 410.346
9.48262 -12.6093 -0.773837 616.467 411.297
11.1578 -11.618 -0.645572 623.307 416.068
9.45763 -11.0243 -0.87563 615.868 417.922
7.57987 -11.0183 -1.03638 607.856 417.281
-5.98917 9.73267 -2.82189 543.543 499.728
-4.16161 8.18366 -4.97287 551.775 492.454
-2.09537 6.85161 -6.63478 560.968 486.462
0.29641 6.86904 -8.20845 571.133 486.32
2.75386 6.35466 -6.49418 581.804 485.918
5.18372 7.20956 -4.85225 591.933 491.248
7.54981 8.28039 -2.89159 601.729 497.66
5.80178 9.97064 -4.06826 593.73 503.564
3.59657 11.1009 -5.33936 583.953 506.908
1.09154 11.688 -6.60859 573.065 507.868
-1.53091 11.7531 -5.41284 561.883 508.063
-4.00394 11.1418 -4.25079 551.547 505.426
-1.65479 8.81183 -5.12921 562.269 495.774
0.54018 8.5235 -7.37902 571.677 493.877
2.92228 8.2295 -5.34093 581.965 494.577
3.01959 8.71163 -4.61912 582.244 497.074
0.683919 9.19058 -6.37852 572.102 497.336
-1.58964 9.27088 -4.55289 562.416 498.077
3 20 21 23
3 21 22 23
3 0 1 36
3 15 16 45
3 0 17 36
3 16 26 45
3 17 18 37
3 25 26 44
3 17 36 37
3 26 44 45
3 18 19 38
3 24 25 43
3 18 37 38
3 25 43 44
3 19 20 38
3 23 24 43
3 20 21 39
3 22 23 42
3 20 38 39
3 23 42 43
3 21 22 27
3 21 27 39
3 22 27 42
3 27 28 42
3 27 28 39
3 28 42 47
3 28 39 40
3 1 36 41
3 15 45 46
3 1 2 41
3 14 15 46
3 28 29 40
3 28 29 47
3 2 40 41
3 14 46 47
3 2 29 40
3 14 29 47
3 2 3 29
3 13 14 29
3 29 30 31
3 29 30 35
3 3 29 31
3 13 29 35
3 30 32 33
3 30 33 34
3 30 31 32
3 30 34 35
3 3 4 31
3 12 13 35
3 4 5 48
3 11 12 54
3 5 6 48
3 10 11 54
3 6 48 59
3 10 54 55
3 6 7 59
3 9 10 55
3 7 58 59
3 9 55 56
3 8 57 58
3 8 56 57
3 7 8 58
3 8 9 56
3 4 31 48
3 12 35 54
3 31 48 49
3 35 53 54
3 31 49 50
3 35 52 53
3 31 32 50
3 34 35 52
3 32 33 50
3 33 34 52
3 33 50 51
3 33 51 52
3 48 49 60
3 49 60 50
3 50 60 61
3 50 51 61
3 51 52 61
3 61 62 52
3 52 53 62
3 53 54 62
3 54 55 63
3 55 56 63
3 56 63 64
3 56 57 64
3 64 65 57
3 57 58 65
3 58 59 65
3 48 59 65
