ply
format ascii 1.0
element vertex 66
property float x
property float y
property float z
property float u
property float v
element face 91
property list uchar int vertex_indices
end_header
-19.9804 -5.96209 21.0467 483.878 449.11
-19.391 -0.653425 20.6569 484.77 471.325
-18.4457 4.58814 20.1719 487.194 493.313
-17.0562 9.67159 18.2537 491.618 513.929
-14.9982 14.3525 13.4305 499.136 531.351
-11.868 18.3569 7.91407 511.435 545.859
-7.84983 21.5594 3.21251 527.7 557.76
-3.1449 23.7651 -0.830056 547.147 566.081
2.11039 24.0414 -4.61479 569.502 566.633
6.92992 22.6562 -0.812018 590.151 564.559
10.7521 19.528 3.41648 607.089 555.118
13.9101 15.8062 8.18476 621.37 543.3
16.234 11.5797 13.723 632.235 529.562
17.6545 6.90948 18.4346 639.45 513.195
18.4475 1.94418 20.5121 644.225 493.844
18.7949 -3.15066 20.9759 647.232 472.859
18.8211 -8.26854 21.2842 648.892 451.586
-16.0042 -15.0869 0.198346 504.517 399.777
-14.0738 -17.0115 -1.56855 513.366 391.261
-11.5058 -17.9328 -3.00444 524.593 387.345
-8.78277 -18.049 -4.35767 536.226 386.902
-6.11866 -17.5228 -5.5555 547.405 389.227
3.29334 -17.9494 -5.42444 587.388 390.429
6.00187 -18.9705 -4.18748 599.111 387.714
8.88461 -19.3284 -2.76145 611.359 387.947
11.7405 -18.7631 -1.31114 623.21 392.056
14.0436 -17.0034 0.365396 632.344 401.138
-1.13748 -11.7736 -5.01191 566.716 415.2
-1.09632 -9.10001 -7.67772 566.202 424.852
-1.03744 -6.44752 -10.4155 565.773 434.379
-0.944241 -3.8117 -13.098 565.492 443.879
-2.3545 0.15222 -5.93383 557.961 464.291
-1.43987 0.055935 -6.99369 561.915 463.546
-0.543836 -0.0493955 -8.10508 565.795 462.726
0.487786 -0.093774 -6.96833 570.123 463.529
1.52782 -0.151689 -5.90657 574.493 464.235
-11.6928 -10.2337 -1.19865 521.359 420.64
-10.1285 -11.5946 -1.15904 528.398 415.44
-7.9919 -11.826 -1.06862 537.513 415.184
-6.23942 -10.8478 -0.7084 544.618 420.041
-7.93939 -9.82052 -1.03796 537.121 423.629
-9.90674 -9.57308 -1.0774 528.715 424.034
5.3024 -11.7916 -0.925316 593.796 419.527
6.92021 -12.9302 -0.979032 600.998 415.222
9.05254 -12.8999 -0.851026 610.012 416.084
10.7637 -11.7452 -0.745569 616.901 421.518
9.06658 -10.9161 -0.851534 609.465 424.408
7.09263 -10.917 -1.02833 601.115 423.689
-4.80348 9.97216 -2.81778 544.436 506.553
-3.30534 8.35353 -5.08777 551.386 498.889
-1.64771 6.79005 -6.74211 558.964 491.87
0.433568 6.79908 -8.25226 567.848 491.661
2.56055 6.40788 -6.53228 576.892 491.693
4.51689 7.61614 -4.89513 584.728 498.332
6.38965 8.89391 -2.79226 592.166 505.51
5.09324 10.5472 -4.14975 586.237 511.242
3.32401 11.7539 -5.41039 578.436 515.011
1.10333 12.3445 -6.7945 568.918 515.984
-1.20565 12.2481 -5.54057 559.109 515.605
-3.24397 11.4433 -4.28441 550.662 512.34
-1.16016 8.91067 -5.00705 560.296 501.937
0.64939 8.57364 -7.11505 568.164 499.841
2.59218 8.49611 -5.06084 576.316 501.329
2.67032 9.06444 -4.45418 576.444 504.094
0.77976 9.5144 -6.18527 568.384 504.375
-1.10187 9.47986 -4.49025 560.344 504.647
3 20 21 23
3 21 22 23
3 0 1 36
3 15 16 45
3 0 17 36
3 16 26 45
3 17 18 37
3 25 26 44
3 17 36 37
3 26 44 45
3 18 19 38
3 24 25 43
3 18 37 38
3 25 43 44
3 19 20 38
3 23 24 43
3 20 21 39
3 22 23 42
3 20 38 39
3 23 42 43
3 21 22 27
3 21 27 39
3 22 27 42
3 27 28 42
3 27 28 39
3 28 42 47
3 28 39 40
3 1 36 41
3 15 45 46
3 1 2 41
3 14 15 46
3 28 29 40
3 28 29 47
3 2 40 41
3 14 46 47
3 2 29 40
3 14 29 47
3 2 3 29
3 13 14 29
3 29 30 31
3 29 30 35
3 3 29 31
3 13 29 35
3 30 32 33
3 30 33 34
3 30 31 32
3 30 34 35
3 3 4 31
3 12 13 35
3 4 5 48
3 11 12 54
3 5 6 48
3 10 11 54
3 6 48 59
3 10 54 55
3 6 7 59
3 9 10 55
3 7 58 59
3 9 55 56
3 8 57 58
3 8 56 57
3 7 8 58
3 8 9 56
3 4 31 48
3 12 35 54
3 31 48 49
3 35 53 54
3 31 49 50
3 35 52 53
3 31 32 50
3 34 35 52
3 32 33 50
3 33 34 52
3 33 50 51
3 33 51 52
3 48 49 60
3 49 60 50
3 50 60 61
3 50 51 61
3 51 52 61
3 61 62 52
3 52 53 62
3 53 54 62
3 54 55 63
3 55 56 63
3 56 63 64
3 56 57 64
3 64 65 57
3 57 58 65
3 58 59 65
3 48 59 65
