ply
format ascii 1.0
element vertex 66
property float x
property float y
property float z
property float u
property float v
element face 91
property list uchar int vertex_indices
end_header
-20.3177 -5.92181 21.1285 485.515 444.716
-19.8247 -0.648579 20.6923 486.126 466.796
-18.9807 4.57536 20.3363 488.248 488.818
-17.6627 9.64408 18.1935 492.439 509.149
-15.5042 14.3251 13.4464 500.33 526.376
-12.0738 18.1867 7.86005 513.88 539.955
-7.68205 21.0351 3.19256 531.815 550.135
-2.69491 22.8258 -0.834441 552.588 556.442
2.65558 22.8156 -4.4356 575.42 555.539
7.26212 21.5115 -0.869179 595.431 553.667
11.1073 18.782 3.41443 612.597 546.044
14.4227 15.4984 8.2 627.66 536.266
16.8073 11.5367 13.8309 638.942 523.922
18.1171 6.99479 18.5053 645.806 508.205
18.7357 2.16899 20.7948 649.807 489.536
19.0056 -2.79163 21.1146 652.361 468.912
19.056 -7.74969 21.5385 653.979 448.305
-16.2869 -15.2036 0.200824 505.374 393.017
-14.1828 -16.905 -1.47292 514.834 385.338
-11.5531 -17.6525 -2.9682 526.265 381.944
-8.82377 -17.7071 -4.35088 537.925 381.573
-6.16768 -17.1711 -5.60343 549.105 383.756
3.53403 -17.6841 -5.39792 590.632 384.444
6.38061 -18.6643 -4.15348 603.049 381.925
9.37719 -19.0128 -2.72173 615.927 382.233
12.3341 -18.4151 -1.26246 628.368 386.535
14.7087 -16.6163 0.392526 637.984 395.866
-1.41016 -11.4848 -5.1011 567.788 409.385
-1.38695 -8.53019 -7.69546 567.055 420.147
-1.33884 -5.60823 -10.5075 566.438 430.635
-1.24211 -2.71122 -13.3133 566.036 441.036
-3.68332 0.4172 -6.08811 554.724 458.27
-2.30322 0.628402 -7.14037 560.553 458.858
-0.887279 0.630545 -8.20662 566.594 458.565
0.719979 0.378049 -7.16864 573.52 458.631
2.25375 -0.0680605 -6.06435 580.186 457.903
-12.0998 -10.0874 -1.17176 521.789 414.855
-10.4928 -11.3269 -1.1167 528.994 410.117
-8.40703 -11.4927 -1.02948 537.937 410.059
-6.65957 -10.5762 -0.671126 545.131 414.646
-8.39761 -9.78551 -0.976054 537.494 417.293
-10.3199 -9.5672 -1.10839 529.233 417.588
5.73682 -11.6144 -1.02995 598.302 413.506
7.39776 -12.673 -0.970823 605.686 409.548
9.482 -12.6419 -0.777597 614.567 410.389
11.2164 -11.5897 -0.630929 621.667 415.406
9.47063 -10.9512 -0.875712 614.04 417.448
7.53292 -10.9408 -1.04374 605.773 416.839
-6.00888 9.76276 -2.84143 542.153 499.138
-4.13792 8.22861 -5.00537 550.572 491.778
-2.06494 6.89549 -6.6691 559.795 485.65
0.317993 6.91079 -8.23207 569.958 485.358
2.7607 6.40013 -6.4901 580.518 485.03
5.18733 7.24596 -4.8521 590.627 490.347
7.57221 8.30845 -2.90056 600.495 496.772
5.82212 9.9514 -4.07703 592.567 502.436
3.61801 11.0397 -5.32704 582.86 505.588
1.1301 11.6036 -6.60147 572.09 506.434
-1.48787 11.6922 -5.42676 560.896 506.843
-3.98389 11.1295 -4.2798 550.407 504.524
-1.68467 8.85384 -5.14926 560.86 495.006
0.576203 8.55521 -7.37373 570.592 492.924
3.02352 8.26412 -5.32728 581.11 493.722
3.12332 8.66108 -4.59767 581.422 495.901
0.724327 9.10233 -6.36409 571.067 495.932
-1.61363 9.23348 -4.56885 561.054 497.006
3 20 21 23
3 21 22 23
3 0 1 36
3 15 16 45
3 0 17 36
3 16 26 45
3 17 18 37
3 25 26 44
3 17 36 37
3 26 44 45
3 18 19 38
3 24 25 43
3 18 37 38
3 25 43 44
3 19 20 38
3 23 24 43
3 20 21 39
3 22 23 42
3 20 38 39
3 23 42 43
3 21 22 27
3 21 27 39
3 22 27 42
3 27 28 42
3 27 28 39
3 28 42 47
3 28 39 40
3 1 36 41
3 15 45 46
3 1 2 41
3 14 15 46
3 28 29 40
3 28 29 47
3 2 40 41
3 14 46 47
3 2 29 40
3 14 29 47
3 2 3 29
3 13 14 29
3 29 30 31
3 29 30 35
3 3 29 31
3 13 29 35
3 30 32 33
3 30 33 34
3 30 31 32
3 30 34 35
3 3 4 31
3 12 13 35
3 4 5 48
3 11 12 54
3 5 6 48
3 10 11 54
3 6 48 59
3 10 54 55
3 6 7 59
3 9 10 55
3 7 58 59
3 9 55 56
3 8 57 58
3 8 56 57
3 7 8 58
3 8 9 56
3 4 31 48
3 12 35 54
3 31 48 49
3 35 53 54
3 31 49 50
3 35 52 53
3 31 32 50
3 34 35 52
3 32 33 50
3 33 34 52
3 33 50 51
3 33 51 52
3 48 49 60
3 49 60 50
3 50 60 61
3 50 51 61
3 51 52 61
3 61 62 52
3 52 53 62
3 53 54 62
3 54 55 63
3 55 56 63
3 56 63 64
3 56 57 64
3 64 65 57
3 57 58 65
3 58 59 65
3 48 59 65
