ply
format ascii 1.0
element vertex 66
property float x
property float y
property float z
property float u
property float v
element face 91
property list uchar int vertex_indices
end_header
-18.9589 -5.60745 20.6715 485.422 447.22
-18.4516 -0.577357 20.1584 485.002 469.21
-17.6185 4.41187 19.7921 486.056 491.257
-16.3079 9.33327 18.1048 489.071 512.576
-14.4044 14.0634 13.4349 494.4 531.845
-11.6729 18.3685 7.88599 503.474 549.221
-8.08599 22.0022 3.1309 516.759 564.486
-3.75002 24.71 -0.853402 533.916 576.463
1.27387 25.4204 -4.57468 555.158 580.178
6.22856 24.0434 -0.809967 578.153 578.515
10.08 20.6465 3.33797 597.383 567.664
13.2399 16.5923 8.05729 613.984 553.886
15.6652 12.0679 13.5561 627.698 538.081
17.2343 7.11147 18.3666 637.777 519.614
18.0802 1.90927 20.2377 644.416 498.229
18.3731 -3.3444 20.7282 648.467 475.646
18.323 -8.62062 21.0203 650.995 452.695
-14.9612 -15.4034 0.190055 505.345 396.008
-13.3103 -17.095 -1.57964 513.242 388.533
-11.0671 -17.9763 -2.95941 523.38 385.093
-8.64098 -18.1668 -4.31252 533.97 384.778
-6.23846 -17.7842 -5.51153 544.183 387.036
3.14494 -18.5556 -5.37097 585.87 388.383
5.71887 -19.4903 -4.17116 597.829 386.178
8.43324 -19.771 -2.78552 610.094 386.996
11.0746 -19.1361 -1.3732 621.571 391.795
13.1389 -17.4529 0.390913 630.018 401.071
-1.18346 -12.0033 -5.03533 563.511 415.063
-1.03228 -9.27648 -7.66047 562.43 425.736
-0.869265 -6.55936 -10.3153 561.403 436.358
-0.688949 -3.86138 -12.8668 560.475 446.956
-2.86144 -0.184562 -5.78952 549.961 465.537
-1.58369 -0.0649045 -6.892 555.375 466.136
-0.268257 -0.0939309 -7.99289 561.031 466.105
1.10929 -0.306703 -6.88934 567.344 466.415
2.4101 -0.675028 -6.01028 573.37 465.893
-10.6529 -10.6279 -1.3984 521.633 418.224
-9.48053 -11.7302 -1.15062 527.388 414.109
-7.81482 -12.0305 -0.862432 534.906 413.767
-6.35847 -11.4946 -0.603131 541.07 416.964
-7.64115 -10.5089 -0.99021 534.872 420.443
-9.19035 -10.2418 -1.08673 527.908 420.795
4.70612 -12.5265 -0.509382 590.279 417.982
6.04773 -13.335 -0.849358 596.55 414.939
7.74651 -13.3046 -0.980115 603.989 415.848
9.13252 -12.471 -1.06794 609.646 420.135
7.75392 -11.8131 -0.825579 603.276 422.452
6.15856 -11.8062 -0.768898 596.263 421.721
-3.89623 10.41 -2.8117 540.36 512.863
-2.7757 8.65347 -5.00995 545.901 504.625
-1.30212 6.98634 -6.63119 553.026 497.245
0.722127 7.01198 -8.20685 561.709 497.563
2.76809 6.56931 -6.49365 571.16 497.508
4.53499 7.85442 -4.86595 578.486 504.826
6.00495 9.25568 -2.61313 584.528 512.821
4.90041 10.8886 -4.14189 578.63 518.642
3.34693 12.1479 -5.35726 570.99 522.766
1.24032 12.7865 -6.78935 561.209 523.79
-0.846123 12.6118 -5.45242 552.297 522.668
-2.59794 11.8047 -4.15995 545.176 518.924
-0.495703 9.08803 -4.83846 555.729 507.742
0.898888 8.69965 -6.94734 561.785 505.668
2.36187 8.72099 -4.93725 568.473 507.503
2.36669 9.5773 -4.47193 568.116 511.485
0.993708 10.1929 -6.06758 561.551 512.691
-0.400017 9.95758 -4.42109 555.758 511.803
3 20 21 23
3 21 22 23
3 0 1 36
3 15 16 45
3 0 17 36
3 16 26 45
3 17 18 37
3 25 26 44
3 17 36 37
3 26 44 45
3 18 19 38
3 24 25 43
3 18 37 38
3 25 43 44
3 19 20 38
3 23 24 43
3 20 21 39
3 22 23 42
3 20 38 39
3 23 42 43
3 21 22 27
3 21 27 39
3 22 27 42
3 27 28 42
3 27 28 39
3 28 42 47
3 28 39 40
3 1 36 41
3 15 45 46
3 1 2 41
3 14 15 46
3 28 29 40
3 28 29 47
3 2 40 41
3 14 46 47
3 2 29 40
3 14 29 47
3 2 3 29
3 13 14 29
3 29 30 31
3 29 30 35
3 3 29 31
3 13 29 35
3 30 32 33
3 30 33 34
3 30 31 32
3 30 34 35
3 3 4 31
3 12 13 35
3 4 5 48
3 11 12 54
3 5 6 48
3 10 11 54
3 6 48 59
3 10 54 55
3 6 7 59
3 9 10 55
3 7 58 59
3 9 55 56
3 8 57 58
3 8 56 57
3 7 8 58
3 8 9 56
3 4 31 48
3 12 35 54
3 31 48 49
3 35 53 54
3 31 49 50
3 35 52 53
3 31 32 50
3 34 35 52
3 32 33 50
3 33 34 52
3 33 50 51
3 33 51 52
3 48 49 60
3 49 60 50
3 50 60 61
3 50 51 61
3 51 52 61
3 61 62 52
3 52 53 62
3 53 54 62
3 54 55 63
3 55 56 63
3 56 63 64
3 56 57 64
3 64 65 57
3 57 58 65
3 58 59 65
3 48 59 65
