ply
format ascii 1.0
element vertex 66
property float x
property float y
property float z
property float u
property float v
element face 91
property list uchar int vertex_indices
end_header
-19.9974 -6.27637 21.1249 480.932 448.44
-19.384 -0.91126 20.6925 482.638 471.426
-18.4115 4.38792 20.1922 485.925 494.163
-17.035 9.55559 18.1879 491.171 515.554
-15.0077 14.3601 13.315 499.655 533.872
-11.8124 18.4408 7.89413 513.416 548.995
-7.70424 21.6441 3.16986 531.225 560.922
-2.93452 23.8094 -0.849014 552.018 568.916
2.34719 24.0595 -4.57404 575.362 568.931
7.03117 22.6098 -0.865715 595.54 565.757
10.7427 19.4683 3.39227 611.746 555.412
13.8345 15.7714 8.17753 625.302 542.852
16.1491 11.5851 13.5952 635.498 528.388
17.5644 6.97824 18.3392 641.947 511.545
18.3635 2.13971 20.5294 646.068 492.118
18.7669 -2.8114 20.9758 648.7 471.129
18.8744 -7.78122 21.3052 650.063 449.931
-16.1647 -15.1112 0.215598 501.746 399.198
-14.1361 -16.9191 -1.59163 511.115 390.787
-11.5736 -17.8097 -3.03194 522.587 386.646
-8.85922 -17.9316 -4.35335 534.56 385.914
-6.19785 -17.4039 -5.51952 546.162 388.059
3.23225 -17.7174 -5.36907 587.17 388.704
5.98102 -18.6956 -4.17126 599.152 385.732
8.89174 -19.0056 -2.79118 611.69 385.776
11.7552 -18.3974 -1.36408 623.845 389.792
14.1027 -16.6639 0.399058 633.506 398.743
-1.22627 -11.3657 -5.03523 566.564 415.352
-1.20429 -8.4779 -7.77613 566.444 426.227
-1.16479 -5.60667 -10.5348 566.404 437.025
-1.08054 -2.74811 -13.1374 566.543 447.866
-2.58412 0.344285 -6.06853 558.584 464.926
-1.61155 0.329214 -7.04719 562.929 464.498
-0.651774 0.27666 -8.08351 567.232 463.873
0.457705 0.159977 -7.04056 571.949 464.192
1.56122 -0.0007264 -6.08144 576.659 464.272
-11.6947 -10.2449 -1.17715 520.415 420.267
-10.1341 -11.4184 -1.16642 527.414 415.535
-8.11728 -11.6102 -1.10559 536.204 415.152
-6.44731 -10.7355 -0.72213 543.249 419.477
-8.12745 -9.93972 -1.00479 535.834 422.403
-9.98592 -9.74094 -1.08352 527.732 422.838
5.40749 -11.6491 -1.0361 594.959 417.762
6.9628 -12.6281 -1.06827 601.904 413.842
8.95549 -12.5953 -0.849729 610.528 414.512
10.6188 -11.6123 -0.63618 617.543 419.205
8.97267 -10.9771 -0.836496 610.296 421.493
7.1205 -10.9719 -1.01989 602.271 421.035
-5.51212 9.63736 -2.75745 543.718 506.257
-4.09724 7.4858 -5.11565 550.551 495.926
-2.13781 5.67135 -6.70162 559.595 487.6
0.395124 5.52423 -8.23471 570.81 486.602
2.99672 5.18795 -6.42943 581.959 486.713
5.33237 6.54417 -4.88287 591.666 493.913
7.26201 8.32901 -2.75821 599.458 503.207
5.90971 10.4425 -4.01051 593.335 511.321
3.94148 12.0756 -5.21315 584.621 517.268
1.33838 12.8327 -6.688 573.346 519.159
-1.41248 12.6863 -5.36988 561.266 518.725
-3.75706 11.5322 -4.19238 551.157 513.953
-1.67047 7.95021 -4.98784 560.991 498.491
0.673271 7.44273 -7.1795 571.531 495.526
3.20324 7.39886 -5.06315 582.277 497.06
3.41925 9.27658 -4.39093 582.781 505.577
0.965619 9.99822 -6.11485 572.192 507.202
-1.49011 9.82247 -4.42374 561.355 506.915
3 20 21 23
3 21 22 23
3 0 1 36
3 15 16 45
3 0 17 36
3 16 26 45
3 17 18 37
3 25 26 44
3 17 36 37
3 26 44 45
3 18 19 38
3 24 25 43
3 18 37 38
3 25 43 44
3 19 20 38
3 23 24 43
3 20 21 39
3 22 23 42
3 20 38 39
3 23 42 43
3 21 22 27
3 21 27 39
3 22 27 42
3 27 28 42
3 27 28 39
3 28 42 47
3 28 39 40
3 1 36 41
3 15 45 46
3 1 2 41
3 14 15 46
3 28 29 40
3 28 29 47
3 2 40 41
3 14 46 47
3 2 29 40
3 14 29 47
3 2 3 29
3 13 14 29
3 29 30 31
3 29 30 35
3 3 29 31
3 13 29 35
3 30 32 33
3 30 33 34
3 30 31 32
3 30 34 35
3 3 4 31
3 12 13 35
3 4 5 48
3 11 12 54
3 5 6 48
3 10 11 54
3 6 48 59
3 10 54 55
3 6 7 59
3 9 10 55
3 7 58 59
3 9 55 56
3 8 57 58
3 8 56 57
3 7 8 58
3 8 9 56
3 4 31 48
3 12 35 54
3 31 48 49
3 35 53 54
3 31 49 50
3 35 52 53
3 31 32 50
3 34 35 52
3 32 33 50
3 33 34 52
3 33 50 51
3 33 51 52
3 48 49 60
3 49 60 50
3 50 60 61
3 50 51 61
3 51 52 61
3 61 62 52
3 52 53 62
3 53 54 62
3 54 55 63
3 55 56 63
3 56 63 64
3 56 57 64
3 64 65 57
3 57 58 65
3 58 59 65
3 48 59 65
