ply
format ascii 1.0
element vertex 66
property float x
property float y
property float z
property float u
property float v
element face 91
property list uchar int vertex_indices
end_header
-19.762 -6.02165 21.1489 483.366 450.086
-19.1189 -0.668154 20.7328 484.699 472.873
-18.1588 4.6253 20.2192 487.427 495.433
-16.8343 9.7603 18.2891 491.913 516.535
-14.8996 14.4639 13.5104 499.434 534.185
-11.8629 18.4276 7.96585 511.993 548.515
-7.90891 21.5513 3.20075 528.666 560.01
-3.30118 23.7196 -0.85612 548.354 568.058
1.85412 24.0058 -4.60641 570.896 568.419
6.71729 22.6602 -0.78078 591.877 566.472
10.5462 19.4779 3.42983 608.864 556.626
13.6876 15.6985 8.2222 622.992 544.395
16.0184 11.4504 13.7405 633.679 530.383
17.488 6.82679 18.33 640.846 513.938
18.2946 1.96269 20.4144 645.467 494.705
18.6354 -3.02449 20.8425 648.277 473.775
18.6303 -8.03367 21.1226 649.615 452.558
-16.0515 -15.1015 0.16557 503.982 399.238
-14.0828 -17.0124 -1.55478 513.179 390.568
-11.4946 -17.9611 -2.98471 524.754 386.368
-8.74357 -18.1137 -4.33787 536.803 385.662
-6.03305 -17.6378 -5.53356 548.488 387.728
3.1845 -17.8928 -5.50093 588.336 389.319
5.8007 -18.7992 -4.2288 599.751 387
8.57991 -19.0942 -2.79408 611.684 387.442
11.3375 -18.5948 -1.32221 623.3 391.292
13.6196 -17.0075 0.321969 632.546 399.759
-0.923339 -12.1017 -4.99808 568.953 413.179
-0.877538 -9.3762 -7.66268 568.66 423.162
-0.823358 -6.67477 -10.4308 568.421 432.979
-0.742448 -3.99009 -13.16 568.298 442.758
-2.34266 0.0934561 -5.97672 559.546 464.234
-1.29707 0.0330222 -7.0207 564.179 463.624
-0.263756 -0.057061 -8.10282 568.771 462.859
0.823897 -0.105356 -6.96758 573.366 463.678
1.9099 -0.19485 -5.94303 577.975 464.251
-11.7201 -10.4622 -1.13352 521.519 419.485
-10.1347 -11.8028 -1.10831 528.73 414.234
-7.9956 -12.0299 -1.05419 538.019 413.915
-6.23243 -11.0294 -0.724995 545.318 418.903
-7.96019 -10.0702 -1.02736 537.626 422.311
-9.9297 -9.83447 -1.05597 529.064 422.731
5.14891 -11.8264 -0.933784 594.678 418.653
6.74578 -12.9384 -0.992464 601.884 414.329
8.85056 -12.9388 -0.850703 610.953 415.023
10.5454 -11.788 -0.734741 617.937 420.499
8.86711 -10.9903 -0.862554 610.486 423.341
6.91854 -11.0139 -1.0156 602.099 422.582
-5.19484 10.0492 -2.82413 544.165 507.901
-3.5394 8.395 -5.0692 551.991 499.908
-1.70958 6.8014 -6.73691 560.495 492.586
0.546735 6.79267 -8.28235 570.389 492.232
2.81912 6.44379 -6.46442 580.112 492.537
4.88595 7.69147 -4.81755 588.522 499.493
6.80528 9.05758 -2.74743 596.221 507.177
5.44068 10.7689 -4.14081 589.996 513.219
3.54651 12.0029 -5.34124 581.599 517.19
1.17694 12.565 -6.74658 571.357 518.026
-1.29222 12.4427 -5.52208 560.613 517.558
-3.47648 11.5799 -4.29346 551.303 514.013
-1.37896 8.91309 -5.06728 561.171 502.745
0.756747 8.55202 -7.18474 570.699 500.493
2.98793 8.52672 -4.99525 580.117 502.401
3.0937 9.32834 -4.41448 580.294 506.218
0.915303 9.79542 -6.2118 570.942 506.458
-1.28766 9.72518 -4.54016 561.288 506.57
3 20 21 23
3 21 22 23
3 0 1 36
3 15 16 45
3 0 17 36
3 16 26 45
3 17 18 37
3 25 26 44
3 17 36 37
3 26 44 45
3 18 19 38
3 24 25 43
3 18 37 38
3 25 43 44
3 19 20 38
3 23 24 43
3 20 21 39
3 22 23 42
3 20 38 39
3 23 42 43
3 21 22 27
3 21 27 39
3 22 27 42
3 27 28 42
3 27 28 39
3 28 42 47
3 28 39 40
3 1 36 41
3 15 45 46
3 1 2 41
3 14 15 46
3 28 29 40
3 28 29 47
3 2 40 41
3 14 46 47
3 2 29 40
3 14 29 47
3 2 3 29
3 13 14 29
3 29 30 31
3 29 30 35
3 3 29 31
3 13 29 35
3 30 32 33
3 30 33 34
3 30 31 32
3 30 34 35
3 3 4 31
3 12 13 35
3 4 5 48
3 11 12 54
3 5 6 48
3 10 11 54
3 6 48 59
3 10 54 55
3 6 7 59
3 9 10 55
3 7 58 59
3 9 55 56
3 8 57 58
3 8 56 57
3 7 8 58
3 8 9 56
3 4 31 48
3 12 35 54
3 31 48 49
3 35 53 54
3 31 49 50
3 35 52 53
3 31 32 50
3 34 35 52
3 32 33 50
3 33 34 52
3 33 50 51
3 33 51 52
3 48 49 60
3 49 60 50
3 50 60 61
3 50 51 61
3 51 52 61
3 61 62 52
3 52 53 62
3 53 54 62
3 54 55 63
3 55 56 63
3 56 63 64
3 56 57 64
3 64 65 57
3 57 58 65
3 58 59 65
3 48 59 65
