ply
format ascii 1.0
element vertex 66
property float x
property float y
property float z
property float u
property float v
element face 91
property list uchar int vertex_indices
end_header
-20.2898 -5.83109 21.1232 482.749 443.983
-19.775 -0.620699 20.6564 483.375 466.007
-18.8975 4.54214 20.3442 485.572 488.023
-17.5601 9.54878 18.1846 489.753 508.483
-15.3916 14.1881 13.4769 497.562 526.212
-11.9944 18.0434 7.87649 510.854 540.478
-7.65102 20.9122 3.20461 528.513 551.352
-2.70627 22.7253 -0.830246 549.077 558.275
2.6126 22.7431 -4.39312 571.793 557.946
7.21592 21.4868 -0.881124 591.951 555.931
11.0832 18.8173 3.39432 609.395 548.119
14.402 15.5551 8.18322 624.677 537.914
16.779 11.6011 13.8368 636.149 524.972
18.0744 7.05729 18.508 643.149 508.656
18.6854 2.22887 20.8009 647.262 489.605
18.9743 -2.73555 21.0994 650.001 468.771
19.0346 -7.69394 21.5715 651.763 447.99
-16.3034 -15.1276 0.170879 502.266 394.016
-14.1876 -16.8346 -1.46772 511.815 386.482
-11.5447 -17.602 -2.95528 523.342 383.178
-8.79578 -17.6759 -4.3463 535.115 382.906
-6.11675 -17.1669 -5.62432 546.415 385.152
3.49385 -17.7351 -5.40161 587.756 385.715
6.35621 -18.6924 -4.13658 600.328 383.202
9.36149 -19.0254 -2.70557 613.326 383.476
12.3221 -18.4181 -1.25659 625.849 387.74
14.7071 -16.633 0.37609 635.555 396.939
-1.39402 -11.4985 -5.07684 564.944 410.934
-1.34089 -8.5468 -7.6858 564.237 422.035
-1.2642 -5.62812 -10.517 563.636 432.879
-1.14344 -2.73358 -13.3342 563.232 443.642
-3.88147 0.529126 -6.15442 550.644 460.684
-2.37051 0.831024 -7.17429 557.008 461.847
-0.805394 0.864943 -8.18958 563.684 461.89
0.934882 0.556821 -7.20227 571.248 461.648
2.5748 -0.000169976 -6.13138 578.459 460.365
-12.311 -10.037 -1.12206 517.81 416.104
-10.6893 -11.226 -1.08481 525.116 411.556
-8.62018 -11.4063 -1.02635 534.034 411.436
-6.85285 -10.5885 -0.757114 541.362 415.584
-8.60164 -9.84649 -1.01058 533.643 418.076
-10.52 -9.60924 -1.10958 525.353 418.459
5.81839 -11.6527 -1.05102 595.955 414.661
7.51087 -12.6426 -0.953993 603.504 411.013
9.58818 -12.6141 -0.759698 612.397 411.858
11.3449 -11.6276 -0.610381 619.627 416.653
9.57656 -11.0587 -0.87533 611.876 418.397
7.63347 -11.0518 -1.04665 603.548 417.755
-6.02313 9.79573 -2.8419 538.733 501.252
-4.19856 8.16911 -4.97378 547.002 493.698
-2.09906 6.80918 -6.6316 556.377 487.622
0.325075 6.81343 -8.23278 566.732 487.468
2.79998 6.31288 -6.48628 577.514 487.049
5.24735 7.19103 -4.84933 587.761 492.416
7.5869 8.35682 -2.89984 597.464 499.147
5.81219 9.98411 -4.05708 589.352 504.888
3.58966 11.0448 -5.3048 579.49 508.039
1.1041 11.5853 -6.57366 568.658 508.891
-1.49945 11.68 -5.37972 557.498 509.185
-3.98967 11.1349 -4.23637 547.016 506.767
-1.72701 8.82444 -5.14591 557.389 497.119
0.574011 8.52343 -7.40894 567.297 495.264
3.04446 8.24086 -5.32913 578 495.954
3.11916 8.62355 -4.62366 578.216 497.995
0.70844 9.05399 -6.38653 567.73 498.126
-1.64511 9.1857 -4.57435 557.64 498.996
3 20 21 23
3 21 22 23
3 0 1 36
3 15 16 45
3 0 17 36
3 16 26 45
3 17 18 37
3 25 26 44
3 17 36 37
3 26 44 45
3 18 19 38
3 24 25 43
3 18 37 38
3 25 43 44
3 19 20 38
3 23 24 43
3 20 21 39
3 22 23 42
3 20 38 39
3 23 42 43
3 21 22 27
3 21 27 39
3 22 27 42
3 27 28 42
3 27 28 39
3 28 42 47
3 28 39 40
3 1 36 41
3 15 45 46
3 1 2 41
3 14 15 46
3 28 29 40
3 28 29 47
3 2 40 41
3 14 46 47
3 2 29 40
3 14 29 47
3 2 3 29
3 13 14 29
3 29 30 31
3 29 30 35
3 3 29 31
3 13 29 35
3 30 32 33
3 30 33 34
3 30 31 32
3 30 34 35
3 3 4 31
3 12 13 35
3 4 5 48
3 11 12 54
3 5 6 48
3 10 11 54
3 6 48 59
3 10 54 55
3 6 7 59
3 9 10 55
3 7 58 59
3 9 55 56
3 8 57 58
3 8 56 57
3 7 8 58
3 8 9 56
3 4 31 48
3 12 35 54
3 31 48 49
3 35 53 54
3 31 49 50
3 35 52 53
3 31 32 50
3 34 35 52
3 32 33 50
3 33 34 52
3 33 50 51
3 33 51 52
3 48 49 60
3 49 60 50
3 50 60 61
3 50 51 61
3 51 52 61
3 61 62 52
3 52 53 62
3 53 54 62
3 54 55 63
3 55 56 63
3 56 63 64
3 56 57 64
3 64 65 57
3 57 58 65
3 58 59 65
3 48 59 65
