ply
format ascii 1.0
element vertex 66
property float x
property float y
property float z
property float u
property float v
element face 91
property list uchar int vertex_indices
end_header
-20.3117 -5.82377 21.1249 482.608 444.289
-19.8139 -0.581103 20.7057 483.163 466.362
-18.9719 4.61133 20.3427 485.203 488.355
-17.6789 9.64673 18.1891 489.169 508.821
-15.5572 14.3048 13.4371 496.719 526.491
-12.148 18.16 7.87172 509.977 540.69
-7.76518 21.0069 3.21443 527.707 551.416
-2.77948 22.7998 -0.82908 548.333 558.202
2.57479 22.7995 -4.46571 571.073 557.742
7.23636 21.5593 -0.872537 591.396 555.853
11.1627 18.893 3.41639 609.026 548.108
14.5446 15.632 8.20095 624.523 537.965
16.9271 11.6424 13.8401 635.995 524.925
18.1586 7.03833 18.5328 642.722 508.428
18.7328 2.13062 20.8336 646.68 489.127
18.995 -2.91957 21.1878 649.306 468.053
19.0425 -7.9691 21.6058 651.017 446.955
-16.305 -15.062 0.211084 501.941 394.797
-14.2091 -16.8387 -1.50338 511.364 386.946
-11.5656 -17.6438 -2.98828 522.837 383.489
-8.80872 -17.7351 -4.34961 534.584 383.15
-6.12424 -17.2202 -5.5859 545.846 385.423
3.38688 -17.7307 -5.39137 586.547 386.144
6.28612 -18.744 -4.15523 599.235 383.392
9.34266 -19.0982 -2.73714 612.403 383.572
12.3605 -18.4815 -1.2823 625.119 387.866
14.7974 -16.6427 0.377977 635 397.271
-1.40531 -11.4395 -5.09786 564.257 411.504
-1.3618 -8.49972 -7.69756 563.509 422.5
-1.29343 -5.59347 -10.5135 562.872 433.241
-1.17889 -2.70985 -13.3129 562.438 443.91
-3.45955 0.495988 -6.09148 551.933 460.805
-2.17209 0.649282 -7.13229 557.352 461.25
-0.860419 0.628808 -8.1985 562.924 460.954
0.653912 0.409981 -7.16285 569.469 461.045
2.11551 0.0316933 -6.06263 575.837 460.483
-12.0103 -10.0256 -1.13577 518.722 416.59
-10.41 -11.3135 -1.13655 525.927 411.612
-8.31004 -11.4657 -1.08333 534.925 411.61
-6.56862 -10.4901 -0.705854 542.067 416.451
-8.30435 -9.68458 -0.990808 534.422 419.191
-10.2317 -9.4667 -1.10155 526.139 419.489
5.73159 -11.5516 -1.03475 594.809 415.365
7.38218 -12.6918 -1.0108 602.184 411.039
9.48797 -12.675 -0.799949 611.161 411.841
11.2351 -11.5877 -0.619721 618.29 417.046
9.49261 -10.9024 -0.876098 610.653 419.293
7.54265 -10.8746 -1.05208 602.328 418.744
-6.12273 9.75705 -2.84635 537.907 500.977
-4.2113 8.18577 -5.02836 546.47 493.681
-2.11177 6.8238 -6.67867 555.786 487.619
0.301941 6.82378 -8.21244 566.039 487.471
2.77995 6.33686 -6.52442 576.787 487.072
5.23345 7.23104 -4.89007 587.019 492.474
7.66207 8.32473 -2.9049 597.093 498.906
5.83388 9.93848 -4.08219 588.793 504.542
3.57381 10.9906 -5.32291 578.817 507.642
1.05967 11.5267 -6.59212 567.911 508.471
-1.56353 11.6282 -5.40578 556.726 508.794
-4.07693 11.0947 -4.2522 546.198 506.447
-1.78523 8.81956 -5.14464 556.621 497.002
0.540027 8.50696 -7.3567 566.575 495.13
3.04722 8.2354 -5.34101 577.39 495.832
3.12746 8.61514 -4.60623 577.637 497.868
0.664942 9.00247 -6.3721 566.983 497.808
-1.73235 9.18068 -4.55369 556.753 498.872
3 20 21 23
3 21 22 23
3 0 1 36
3 15 16 45
3 0 17 36
3 16 26 45
3 17 18 37
3 25 26 44
3 17 36 37
3 26 44 45
3 18 19 38
3 24 25 43
3 18 37 38
3 25 43 44
3 19 20 38
3 23 24 43
3 20 21 39
3 22 23 42
3 20 38 39
3 23 42 43
3 21 22 27
3 21 27 39
3 22 27 42
3 27 28 42
3 27 28 39
3 28 42 47
3 28 39 40
3 1 36 41
3 15 45 46
3 1 2 41
3 14 15 46
3 28 29 40
3 28 29 47
3 2 40 41
3 14 46 47
3 2 29 40
3 14 29 47
3 2 3 29
3 13 14 29
3 29 30 31
3 29 30 35
3 3 29 31
3 13 29 35
3 30 32 33
3 30 33 34
3 30 31 32
3 30 34 35
3 3 4 31
3 12 13 35
3 4 5 48
3 11 12 54
3 5 6 48
3 10 11 54
3 6 48 59
3 10 54 55
3 6 7 59
3 9 10 55
3 7 58 59
3 9 55 56
3 8 57 58
3 8 56 57
3 7 8 58
3 8 9 56
3 4 31 48
3 12 35 54
3 31 48 49
3 35 53 54
3 31 49 50
3 35 52 53
3 31 32 50
3 34 35 52
3 32 33 50
3 33 34 52
3 33 50 51
3 33 51 52
3 48 49 60
3 49 60 50
3 50 60 61
3 50 51 61
3 51 52 61
3 61 62 52
3 52 53 62
3 53 54 62
3 54 55 63
3 55 56 63
3 56 63 64
3 56 57 64
3 64 65 57
3 57 58 65
3 58 59 65
3 48 59 65
