ply
format ascii 1.0
element vertex 66
property float x
property float y
property float z
property float u
property float v
element face 91
property list uchar int vertex_indices
end_header
-20.0994 -5.96038 21.0814 484.486 448.489
-19.5259 -0.661697 20.6994 485.181 470.503
-18.5865 4.56912 20.2248 487.438 492.302
-17.2126 9.63105 18.2508 491.604 512.679
-15.1401 14.2864 13.4694 498.894 529.981
-11.9492 18.251 7.92626 511.121 544.337
-7.84951 21.3908 3.2297 527.416 556.04
-3.05893 23.5064 -0.82195 546.932 564.075
2.25656 23.6967 -4.58148 569.273 564.437
7.05739 22.3741 -0.84729 589.791 562.633
10.923 19.3891 3.40557 606.91 553.904
14.1366 15.7972 8.19484 621.478 542.747
16.457 11.6461 13.7912 632.459 529.435
17.7916 6.98985 18.4908 639.482 513.187
18.5151 2.00393 20.6236 644.097 493.898
18.8547 -3.1302 21.1018 647.181 472.919
18.8966 -8.28517 21.441 649.025 451.678
-16.0974 -15.0088 0.195298 504.658 400.166
-14.1141 -16.9129 -1.55173 513.642 391.886
-11.5141 -17.8055 -3.00816 524.882 388.18
-8.77541 -17.918 -4.36581 536.449 387.823
-6.10349 -17.4013 -5.5828 547.529 390.143
3.29737 -17.8859 -5.4118 587.168 391.275
6.06533 -18.9226 -4.16759 599.105 388.573
9.00818 -19.2973 -2.74083 611.559 388.787
11.9316 -18.736 -1.28371 623.626 392.906
14.3041 -16.9547 0.369599 632.978 402.036
-1.22668 -11.6863 -5.03523 566.145 415.819
-1.18336 -9.04125 -7.67742 565.521 425.325
-1.11872 -6.42273 -10.4389 564.998 434.659
-1.01658 -3.82199 -13.1796 564.638 443.943
-2.56148 0.337152 -6.01608 556.653 464.853
-1.59243 0.258983 -7.04469 560.769 464.253
-0.641257 0.150822 -8.12576 564.821 463.492
0.475969 0.0883498 -7.03851 569.512 464.218
1.60158 -0.00392804 -5.98399 574.248 464.804
-11.8858 -10.0619 -1.13726 520.767 421.353
-10.2489 -11.4508 -1.16213 528.094 416.091
-8.04206 -11.6569 -1.1288 537.43 415.969
-6.22921 -10.6366 -0.771522 544.706 421.008
-8.00626 -9.64808 -1.05841 536.926 424.379
-10.0381 -9.39609 -1.08502 528.311 424.753
5.3618 -11.6325 -0.996287 593.718 420.497
7.04778 -12.8416 -1.02429 601.193 415.997
9.25894 -12.8337 -0.832855 610.474 416.857
11.0594 -11.6672 -0.662656 617.654 422.393
9.28889 -10.8264 -0.849923 609.948 425.209
7.23901 -10.8079 -1.05633 601.336 424.503
-5.27663 9.8496 -2.79885 542.093 505.397
-3.60295 8.2715 -5.05701 549.682 498.08
-1.79913 6.78489 -6.73421 557.775 491.518
0.378217 6.77938 -8.24255 566.952 491.337
2.60835 6.37129 -6.56228 576.418 491.326
4.72444 7.47291 -4.89883 584.914 497.55
6.81445 8.65875 -2.80861 593.265 504.361
5.34111 10.3374 -4.1415 586.559 510.103
3.39868 11.5255 -5.4139 578.04 513.687
1.05787 12.1012 -6.73752 568.048 514.564
-1.37008 12.0658 -5.51002 557.837 514.333
-3.56877 11.3159 -4.26486 548.82 511.212
-1.53646 8.87624 -5.04063 558.164 501.276
0.593688 8.53675 -7.19288 567.265 499.321
2.86639 8.38677 -5.15239 576.818 500.604
2.95634 8.89996 -4.50789 577.017 503.138
0.713162 9.32931 -6.26435 567.491 503.19
-1.50494 9.38622 -4.49809 558.12 503.719
3 20 21 23
3 21 22 23
3 0 1 36
3 15 16 45
3 0 17 36
3 16 26 45
3 17 18 37
3 25 26 44
3 17 36 37
3 26 44 45
3 18 19 38
3 24 25 43
3 18 37 38
3 25 43 44
3 19 20 38
3 23 24 43
3 20 21 39
3 22 23 42
3 20 38 39
3 23 42 43
3 21 22 27
3 21 27 39
3 22 27 42
3 27 28 42
3 27 28 39
3 28 42 47
3 28 39 40
3 1 36 41
3 15 45 46
3 1 2 41
3 14 15 46
3 28 29 40
3 28 29 47
3 2 40 41
3 14 46 47
3 2 29 40
3 14 29 47
3 2 3 29
3 13 14 29
3 29 30 31
3 29 30 35
3 3 29 31
3 13 29 35
3 30 32 33
3 30 33 34
3 30 31 32
3 30 34 35
3 3 4 31
3 12 13 35
3 4 5 48
3 11 12 54
3 5 6 48
3 10 11 54
3 6 48 59
3 10 54 55
3 6 7 59
3 9 10 55
3 7 58 59
3 9 55 56
3 8 57 58
3 8 56 57
3 7 8 58
3 8 9 56
3 4 31 48
3 12 35 54
3 31 48 49
3 35 53 54
3 31 49 50
3 35 52 53
3 31 32 50
3 34 35 52
3 32 33 50
3 33 34 52
3 33 50 51
3 33 51 52
3 48 49 60
3 49 60 50
3 50 60 61
3 50 51 61
3 51 52 61
3 61 62 52
3 52 53 62
3 53 54 62
3 54 55 63
3 55 56 63
3 56 63 64
3 56 57 64
3 64 65 57
3 57 58 65
3 58 59 65
3 48 59 65
