ply
format ascii 1.0
element vertex 66
property float x
property float y
property float z
property float u
property float v
element face 91
property list uchar int vertex_indices
end_header
-19.8189 -5.60967 20.9165 484.7 445.346
-19.1797 -0.420768 20.4442 484.907 467.656
-18.2461 4.7171 19.9711 486.406 489.884
-16.8764 9.76717 18.1986 489.656 511.315
-14.8998 14.5288 13.3591 495.256 530.32
-11.9639 18.7078 7.8046 505.174 546.93
-8.17141 22.1537 3.14563 519.253 561.221
-3.67999 24.6614 -0.888582 536.876 572.113
1.42358 25.2645 -4.72488 558.074 575.218
6.47219 23.8339 -0.738271 581.04 573.327
10.4862 20.4759 3.38583 600.488 562.762
13.7738 16.4149 8.03204 617.212 549.099
16.2479 11.8408 13.5401 630.789 533.273
17.7711 6.84317 18.392 640.385 514.877
18.5931 1.61866 20.2562 646.675 493.755
18.8836 -3.65108 20.7634 650.518 471.544
18.8292 -8.94874 21.0928 652.865 448.969
-15.5356 -15.0499 0.215246 504.957 396.947
-13.7868 -16.9474 -1.617 513.16 388.744
-11.3874 -17.9227 -2.98987 523.786 385.014
-8.79173 -18.0812 -4.30646 534.874 384.903
-6.22975 -17.5882 -5.42212 545.532 387.665
3.74234 -18.3806 -5.3362 588.894 388.916
6.23985 -19.3239 -4.20069 600.258 386.57
8.88774 -19.6017 -2.82954 611.981 387.259
11.4703 -18.9837 -1.39765 623.003 391.786
13.5155 -17.3087 0.407037 631.251 400.775
-0.870334 -11.6065 -4.92803 565.826 416.017
-0.725748 -8.82481 -7.70142 564.751 426.68
-0.574442 -6.04632 -10.4198 563.715 437.358
-0.417402 -3.27695 -12.9525 562.732 448.088
-1.95371 0.0898501 -5.80214 555.439 465.234
-1.03158 0.101946 -6.91808 559.26 465.177
-0.0935964 0.0787764 -8.04588 563.165 464.971
0.849343 -0.0333626 -6.8622 567.438 465.493
1.76343 -0.187218 -5.84197 571.585 465.744
-10.931 -10.4088 -1.29583 522.376 418.243
-9.78109 -11.5658 -1.18795 527.9 413.867
-8.11354 -11.8937 -1.01223 535.266 413.316
-6.69964 -11.2272 -0.691795 541.082 416.979
-7.9436 -10.1159 -1.01641 535.146 421.013
-9.49632 -9.89083 -1.05729 528.342 421.241
5.28208 -12.2248 -0.627816 593.2 418.268
6.56368 -13.0981 -0.928044 599.101 414.973
8.25267 -13.0311 -1.01336 606.336 416
9.56499 -12.0715 -1.0623 611.525 420.695
8.23738 -11.3268 -0.865648 605.473 423.368
6.67163 -11.3194 -0.870892 598.722 422.674
-4.29465 9.6051 -2.81997 541.186 506.367
-2.8195 8.28722 -5.07083 547.878 500.321
-1.29238 6.95941 -6.69494 554.881 494.557
0.586324 7.08839 -8.20421 562.716 495.255
2.4484 6.64421 -6.55919 571.169 494.999
4.14443 7.67936 -4.91344 578.198 501.008
5.77706 8.71767 -2.6235 585.038 507.309
4.59836 10.2571 -4.07295 579.03 512.669
2.99465 11.3767 -5.32933 571.418 516.126
0.950412 11.9386 -6.80022 562.146 516.886
-1.11073 11.7334 -5.45478 553.54 515.699
-2.90539 10.9563 -4.16275 546.348 512.157
-0.356491 8.81523 -4.9821 558.25 503.765
0.723371 8.68027 -6.97476 562.706 502.731
1.81001 8.60814 -4.92888 567.692 503.903
1.8432 8.95207 -4.34627 567.747 505.672
0.757665 9.38299 -5.9988 562.645 506.226
-0.372176 9.18708 -4.4344 558.076 505.614
3 20 21 23
3 21 22 23
3 0 1 36
3 15 16 45
3 0 17 36
3 16 26 45
3 17 18 37
3 25 26 44
3 17 36 37
3 26 44 45
3 18 19 38
3 24 25 43
3 18 37 38
3 25 43 44
3 19 20 38
3 23 24 43
3 20 21 39
3 22 23 42
3 20 38 39
3 23 42 43
3 21 22 27
3 21 27 39
3 22 27 42
3 27 28 42
3 27 28 39
3 28 42 47
3 28 39 40
3 1 36 41
3 15 45 46
3 1 2 41
3 14 15 46
3 28 29 40
3 28 29 47
3 2 40 41
3 14 46 47
3 2 29 40
3 14 29 47
3 2 3 29
3 13 14 29
3 29 30 31
3 29 30 35
3 3 29 31
3 13 29 35
3 30 32 33
3 30 33 34
3 30 31 32
3 30 34 35
3 3 4 31
3 12 13 35
3 4 5 48
3 11 12 54
3 5 6 48
3 10 11 54
3 6 48 59
3 10 54 55
3 6 7 59
3 9 10 55
3 7 58 59
3 9 55 56
3 8 57 58
3 8 56 57
3 7 8 58
3 8 9 56
3 4 31 48
3 12 35 54
3 31 48 49
3 35 53 54
3 31 49 50
3 35 52 53
3 31 32 50
3 34 35 52
3 32 33 50
3 33 34 52
3 33 50 51
3 33 51 52
3 48 49 60
3 49 60 50
3 50 60 61
3 50 51 61
3 51 52 61
3 61 62 52
3 52 53 62
3 53 54 62
3 54 55 63
3 55 56 63
3 56 63 64
3 56 57 64
3 64 65 57
3 57 58 65
3 58 59 65
3 48 59 65
