ply
format ascii 1.0
element vertex 66
property float x
property float y
property float z
property float u
property float v
element face 91
property list uchar int vertex_indices
end_header
-19.2538 -5.67569 20.633 483.99 449.13
-18.6771 -0.541893 20.2094 484.452 471.91
-17.7179 4.52681 19.7715 486.636 494.54
-16.1838 9.50857 18.1019 491.197 516.526
-13.9795 14.2368 13.3494 498.312 536.448
-11.0258 18.5306 7.83577 508.797 554.436
-7.34049 22.2341 3.12692 522.897 570.399
-2.92797 25.0113 -0.858584 540.714 582.819
2.21359 25.6073 -4.51661 562.683 585.986
6.96475 24.0061 -0.754573 585.042 582.156
10.5647 20.4761 3.34333 603.108 569.483
13.4065 16.3135 8.09925 618.17 553.977
15.5169 11.7532 13.6043 630.269 536.724
16.927 6.87775 18.3957 639.263 517.535
17.7335 1.81297 20.0923 645.128 496.078
18.0275 -3.27543 20.5251 648.515 473.833
17.9906 -8.37445 20.9432 650.433 451.41
-14.8942 -15.7721 0.227608 503.874 398.176
-13.1976 -17.5174 -1.54495 511.794 390.405
-10.8725 -18.4164 -2.92994 522.235 386.769
-8.36122 -18.5619 -4.28417 533.211 386.551
-5.89287 -18.0793 -5.48797 543.774 389.155
3.56649 -18.864 -5.31828 586.102 389.33
6.08971 -19.6839 -4.14649 597.824 387.111
8.72631 -19.8527 -2.77663 609.826 387.893
11.2393 -19.0745 -1.39836 620.907 392.824
13.0967 -17.2717 0.430867 628.75 402.217
-1.1315 -12.1019 -4.97282 562.638 417.618
-1.00724 -9.34635 -7.6277 561.653 428.833
-0.868215 -6.59773 -10.2917 560.735 440.02
-0.711034 -3.871 -12.8689 559.921 451.15
-3.0023 -0.153148 -5.95742 549.452 469.42
-1.72952 0.0134145 -6.90987 554.875 470.27
-0.411389 0.0141939 -7.90652 560.557 470.386
0.976196 -0.194389 -6.88331 566.972 470.385
2.2751 -0.554915 -5.92335 573.042 469.654
-10.57 -10.9004 -1.40109 520.871 420.747
-9.34075 -12.0259 -1.17168 526.81 416.319
-7.60799 -12.2943 -0.88339 534.657 415.899
-6.13643 -11.6513 -0.471958 541.005 419.462
-7.47587 -10.6455 -0.89213 534.591 423.244
-9.08472 -10.398 -1.03636 527.327 423.675
4.58436 -12.5218 -0.533411 588.927 419.646
5.97639 -13.3482 -0.808842 595.386 416.408
7.73605 -13.2801 -0.986998 603.14 417.306
9.10913 -12.3209 -1.14453 608.83 422.012
7.68436 -11.6546 -0.877412 602.287 424.525
6.05123 -11.6837 -0.84768 595.055 423.789
-3.7114 10.4425 -2.70499 542.673 517.316
-2.76063 8.77703 -4.99418 547.164 509.416
-1.45325 7.14526 -6.62846 553.334 502.054
0.423758 7.21929 -8.18233 561.374 502.49
2.31895 6.78902 -6.54408 570.234 501.938
3.9128 8.11903 -4.90424 577.062 509.065
5.20494 9.53339 -2.64012 582.622 516.693
4.26907 11.0454 -4.06504 577.63 522.48
2.92162 12.2253 -5.38622 570.96 526.68
1.02365 12.8683 -6.7843 562.045 528.265
-0.953071 12.6446 -5.46484 553.581 527.038
-2.5403 11.782 -4.22782 547.086 523.098
-0.550039 9.15913 -4.83214 556.853 512.007
0.598986 8.7882 -7.03014 561.728 509.948
1.84316 8.86765 -4.87144 567.585 511.608
1.87475 9.76087 -4.40267 567.452 515.756
0.744044 10.3717 -6.17057 561.892 517.346
-0.416927 10.0442 -4.44225 557.161 516.126
3 20 21 23
3 21 22 23
3 0 1 36
3 15 16 45
3 0 17 36
3 16 26 45
3 17 18 37
3 25 26 44
3 17 36 37
3 26 44 45
3 18 19 38
3 24 25 43
3 18 37 38
3 25 43 44
3 19 20 38
3 23 24 43
3 20 21 39
3 22 23 42
3 20 38 39
3 23 42 43
3 21 22 27
3 21 27 39
3 22 27 42
3 27 28 42
3 27 28 39
3 28 42 47
3 28 39 40
3 1 36 41
3 15 45 46
3 1 2 41
3 14 15 46
3 28 29 40
3 28 29 47
3 2 40 41
3 14 46 47
3 2 29 40
3 14 29 47
3 2 3 29
3 13 14 29
3 29 30 31
3 29 30 35
3 3 29 31
3 13 29 35
3 30 32 33
3 30 33 34
3 30 31 32
3 30 34 35
3 3 4 31
3 12 13 35
3 4 5 48
3 11 12 54
3 5 6 48
3 10 11 54
3 6 48 59
3 10 54 55
3 6 7 59
3 9 10 55
3 7 58 59
3 9 55 56
3 8 57 58
3 8 56 57
3 7 8 58
3 8 9 56
3 4 31 48
3 12 35 54
3 31 48 49
3 35 53 54
3 31 49 50
3 35 52 53
3 31 32 50
3 34 35 52
3 32 33 50
3 33 34 52
3 33 50 51
3 33 51 52
3 48 49 60
3 49 60 50
3 50 60 61
3 50 51 61
3 51 52 61
3 61 62 52
3 52 53 62
3 53 54 62
3 54 55 63
3 55 56 63
3 56 63 64
3 56 57 64
3 64 65 57
3 57 58 65
3 58 59 65
3 48 59 65
