ply
format ascii 1.0
element vertex 66
property float x
property float y
property float z
property float u
property float v
element face 91
property list uchar int vertex_indices
end_header
-19.4255 -6.34546 21.1611 481.762 447.891
-18.7907 -0.89543 20.7026 483.551 472.016
-17.8432 4.49678 20.1636 486.754 495.918
-16.584 9.76381 18.2751 491.543 518.783
-14.8066 14.6566 13.5339 499.076 538.94
-11.9102 18.8136 7.92732 511.85 555.719
-8.00931 22.0661 3.13529 529.176 569.029
-3.39308 24.2664 -0.863275 549.798 578.146
1.76695 24.5802 -4.62606 573.192 579.104
6.63576 23.1219 -0.75879 594.676 575.236
10.3921 19.7461 3.42906 611.551 562.757
13.4243 15.7733 8.20865 625.246 547.716
15.6947 11.3969 13.7194 635.537 531.019
17.2068 6.73551 18.2476 642.633 512.499
18.066 1.91303 20.3263 647.165 492.132
18.438 -3.01053 20.7502 649.758 470.542
18.4433 -7.96137 20.9852 650.747 448.677
-15.7954 -15.2074 0.114575 502.383 400.808
-13.8967 -17.0654 -1.57414 511.426 392.283
-11.3957 -18.016 -2.98117 522.934 388.025
-8.72091 -18.1839 -4.33574 535.051 387.298
-6.07248 -17.7318 -5.5478 546.908 389.373
3.17348 -17.9322 -5.53284 588.121 390.449
5.72052 -18.7801 -4.24434 599.47 387.751
8.42302 -19.0296 -2.80726 611.373 387.799
11.0868 -18.4926 -1.35097 622.942 391.337
13.2608 -16.9072 0.29223 632.096 399.497
-0.930143 -12.0784 -5.02997 568.605 415.751
-0.938795 -9.4789 -7.67428 568.38 426.207
-0.940577 -6.89895 -10.395 568.198 436.548
-0.910785 -4.33729 -13.0824 568.157 446.827
-2.38555 -0.0998544 -5.90718 559.826 468.224
-1.33806 -0.158617 -6.97222 564.638 467.753
-0.302814 -0.237017 -8.08395 569.405 467.173
0.771839 -0.296085 -6.91917 574.055 467.611
1.84036 -0.392158 -5.94341 578.708 467.808
-11.7191 -10.5116 -1.22418 519.761 421.959
-10.1819 -11.766 -1.13091 526.847 416.758
-8.119 -12.0289 -1.01181 536.071 416.078
-6.3873 -11.1676 -0.70223 543.57 420.391
-8.05992 -10.2064 -1.04004 535.971 424.163
-9.97605 -9.96182 -1.06968 527.393 424.83
5.21759 -11.9616 -0.961594 595.442 419.223
6.78234 -12.8961 -0.999748 602.603 415.394
8.79482 -12.8619 -0.871457 611.542 416.024
10.4145 -11.7857 -0.761789 618.524 421.185
8.7895 -11.0707 -0.847338 611.155 423.978
6.90672 -11.1331 -1.0175 602.805 423.233
-4.66416 10.2879 -2.82581 547.198 515.071
-3.28714 8.40658 -5.09584 553.997 506.096
-1.60536 6.60532 -6.76149 562.06 497.786
0.618396 6.54454 -8.29256 572.17 497.367
2.86676 6.22219 -6.41212 582.008 497.176
4.82353 7.64391 -4.78379 590.23 504.559
6.49684 9.25788 -2.70952 597.093 512.914
5.27974 10.868 -4.08196 591.524 519.242
3.57629 12.0816 -5.28293 583.846 523.777
1.35059 12.6657 -6.77315 574.006 525.292
-0.987321 12.5378 -5.51423 563.461 524.74
-3.03112 11.7215 -4.26443 554.365 521.193
-1.1283 8.7806 -4.99116 563.523 508.255
0.871671 8.34357 -7.07285 572.781 505.896
2.98926 8.37946 -4.88716 581.926 507.391
3.09662 9.41711 -4.34089 582.126 512.238
1.08259 9.96041 -6.10469 573.272 513.506
-0.960599 9.83339 -4.50913 563.996 513.157
3 20 21 23
3 21 22 23
3 0 1 36
3 15 16 45
3 0 17 36
3 16 26 45
3 17 18 37
3 25 26 44
3 17 36 37
3 26 44 45
3 18 19 38
3 24 25 43
3 18 37 38
3 25 43 44
3 19 20 38
3 23 24 43
3 20 21 39
3 22 23 42
3 20 38 39
3 23 42 43
3 21 22 27
3 21 27 39
3 22 27 42
3 27 28 42
3 27 28 39
3 28 42 47
3 28 39 40
3 1 36 41
3 15 45 46
3 1 2 41
3 14 15 46
3 28 29 40
3 28 29 47
3 2 40 41
3 14 46 47
3 2 29 40
3 14 29 47
3 2 3 29
3 13 14 29
3 29 30 31
3 29 30 35
3 3 29 31
3 13 29 35
3 30 32 33
3 30 33 34
3 30 31 32
3 30 34 35
3 3 4 31
3 12 13 35
3 4 5 48
3 11 12 54
3 5 6 48
3 10 11 54
3 6 48 59
3 10 54 55
3 6 7 59
3 9 10 55
3 7 58 59
3 9 55 56
3 8 57 58
3 8 56 57
3 7 8 58
3 8 9 56
3 4 31 48
3 12 35 54
3 31 48 49
3 35 53 54
3 31 49 50
3 35 52 53
3 31 32 50
3 34 35 52
3 32 33 50
3 33 34 52
3 33 50 51
3 33 51 52
3 48 49 60
3 49 60 50
3 50 60 61
3 50 51 61
3 51 52 61
3 61 62 52
3 52 53 62
3 53 54 62
3 54 55 63
3 55 56 63
3 56 63 64
3 56 57 64
3 64 65 57
3 57 58 65
3 58 59 65
3 48 59 65
