ply
format ascii 1.0
element vertex 66
property float x
property float y
property float z
property float u
property float v
element face 91
property list uchar int vertex_indices
end_header
-19.2549 -5.67151 20.7417 484.638 447.277
-18.6779 -0.602024 20.311 484.644 469.394
-17.7849 4.4115 19.8528 486.058 491.402
-16.4552 9.4225 18.1377 489.227 512.947
-14.5711 14.324 13.3159 494.482 532.656
-11.7858 18.7657 7.80631 503.821 550.425
-8.12184 22.4667 3.16677 517.481 565.835
-3.7135 25.1687 -0.868417 534.965 577.56
1.32868 25.9309 -4.6726 556.2 581.256
6.313 24.455 -0.768073 579.252 579.201
10.2387 20.9965 3.40784 598.667 568.16
13.439 16.7967 8.01129 615.318 553.774
15.8594 12.0755 13.4599 628.914 537.194
17.3671 6.95157 18.3888 638.641 518.162
18.2079 1.69438 20.247 645.12 496.636
18.533 -3.54441 20.7964 649.163 474.266
18.5114 -8.81867 21.0216 651.663 451.41
-15.2435 -15.3093 0.229564 504.287 396.497
-13.566 -17.1228 -1.65063 512.279 388.407
-11.228 -18.0531 -3.00324 522.802 384.746
-8.68051 -18.2072 -4.31091 533.872 384.586
-6.15687 -17.738 -5.44242 544.555 387.221
3.26389 -18.5113 -5.33354 586.219 388.324
5.8867 -19.4966 -4.19881 598.334 385.854
8.65099 -19.7973 -2.85428 610.762 386.541
11.322 -19.1272 -1.46049 622.316 391.436
13.368 -17.3577 0.424499 630.659 401.082
-1.08026 -11.7211 -5.00025 563.925 416.026
-0.930637 -8.95144 -7.69237 562.89 426.751
-0.770997 -6.18332 -10.36 561.902 437.486
-0.597836 -3.43372 -12.8671 561.003 448.231
-2.37115 -0.061937 -5.75872 552.5 465.788
-1.30123 -0.00993471 -6.87056 557.02 465.936
-0.210441 -0.029922 -8.02501 561.662 465.757
0.92371 -0.204352 -6.85314 566.865 466.14
2.00749 -0.458719 -5.93705 571.853 466.018
-10.5586 -10.5389 -1.39681 522.284 418.613
-9.48232 -11.8218 -1.24936 527.642 413.608
-7.80119 -12.1207 -0.970752 535.188 413.24
-6.40195 -11.3583 -0.564727 540.999 417.426
-7.61228 -10.2015 -0.96633 535.082 421.686
-9.14314 -9.95788 -1.05246 528.246 421.985
4.787 -12.3581 -0.486401 590.516 418.355
6.03978 -13.3603 -0.955853 596.432 414.334
7.74601 -13.3315 -1.09656 603.875 415.184
9.04062 -12.2837 -1.11138 609.035 420.345
7.73932 -11.4533 -0.822572 602.967 423.502
6.17601 -11.4429 -0.77372 596.119 422.84
-3.79594 10.3207 -2.81081 541.581 511.862
-2.74804 8.48707 -5.11304 546.771 503.169
-1.33698 6.73975 -6.69219 553.602 495.399
0.67558 6.79926 -8.14892 562.204 495.841
2.7038 6.34574 -6.54951 571.515 495.651
4.39922 7.74235 -4.95917 578.466 503.355
5.76765 9.26612 -2.60046 584.02 511.86
4.57334 10.5752 -4.05097 577.966 516.244
3.05633 11.5387 -5.28558 570.694 519.084
1.13805 12.0945 -6.77249 561.829 519.83
-0.761007 11.9467 -5.39807 553.757 519.014
-2.44093 11.3966 -4.10072 546.83 516.508
-0.163258 8.85523 -4.86689 557.947 506.111
0.85136 8.56197 -6.81538 562.287 504.293
1.92149 8.57591 -4.91369 567.211 505.847
1.8582 9.06544 -4.42136 566.758 508.205
0.909481 9.51551 -6.02403 562.178 508.885
-0.0514848 9.35419 -4.4211 558.251 508.568
3 20 21 23
3 21 22 23
3 0 1 36
3 15 16 45
3 0 17 36
3 16 26 45
3 17 18 37
3 25 26 44
3 17 36 37
3 26 44 45
3 18 19 38
3 24 25 43
3 18 37 38
3 25 43 44
3 19 20 38
3 23 24 43
3 20 21 39
3 22 23 42
3 20 38 39
3 23 42 43
3 21 22 27
3 21 27 39
3 22 27 42
3 27 28 42
3 27 28 39
3 28 42 47
3 28 39 40
3 1 36 41
3 15 45 46
3 1 2 41
3 14 15 46
3 28 29 40
3 28 29 47
3 2 40 41
3 14 46 47
3 2 29 40
3 14 29 47
3 2 3 29
3 13 14 29
3 29 30 31
3 29 30 35
3 3 29 31
3 13 29 35
3 30 32 33
3 30 33 34
3 30 31 32
3 30 34 35
3 3 4 31
3 12 13 35
3 4 5 48
3 11 12 54
3 5 6 48
3 10 11 54
3 6 48 59
3 10 54 55
3 6 7 59
3 9 10 55
3 7 58 59
3 9 55 56
3 8 57 58
3 8 56 57
3 7 8 58
3 8 9 56
3 4 31 48
3 12 35 54
3 31 48 49
3 35 53 54
3 31 49 50
3 35 52 53
3 31 32 50
3 34 35 52
3 32 33 50
3 33 34 52
3 33 50 51
3 33 51 52
3 48 49 60
3 49 60 50
3 50 60 61
3 50 51 61
3 51 52 61
3 61 62 52
3 52 53 62
3 53 54 62
3 54 55 63
3 55 56 63
3 56 63 64
3 56 57 64
3 64 65 57
3 57 58 65
3 58 59 65
3 48 59 65
