ply
format ascii 1.0
element vertex 66
property float x
property float y
property float z
property float u
property float v
element face 91
property list uchar int vertex_indices
end_header
-19.8203 -6.05554 21.0699 479.533 447.552
-19.1957 -0.732645 20.6565 480.878 470.794
-18.2311 4.52696 20.2032 483.74 493.829
-16.8834 9.67637 18.2012 488.366 515.668
-14.8915 14.5096 13.4318 495.999 534.837
-11.7561 18.624 7.86975 508.887 550.748
-7.67007 21.823 3.18733 526.183 563.373
-2.91557 23.9572 -0.854141 546.691 571.857
2.32234 24.1952 -4.54767 569.824 572.356
7.02423 22.7341 -0.798872 590.826 569.202
10.7778 19.5876 3.43941 608.082 558.678
13.8678 15.8272 8.18138 622.563 545.554
16.1034 11.5333 13.7249 633.396 530.289
17.443 6.84595 18.3697 640.412 512.588
18.1801 1.99198 20.4958 644.892 492.667
18.54 -2.94452 20.8734 647.784 471.362
18.6068 -7.89797 21.2124 649.39 449.883
-15.9546 -15.3217 0.139905 499.671 397
-13.9405 -17.083 -1.5585 509.069 388.938
-11.3706 -17.9253 -2.99755 520.664 385.183
-8.6598 -18.0277 -4.36405 532.68 384.742
-5.997 -17.5099 -5.5844 544.315 387.079
3.40032 -17.9397 -5.4592 585.845 387.787
6.08333 -18.8456 -4.21824 597.875 385.198
8.90819 -19.1282 -2.79558 610.359 385.471
11.6801 -18.5439 -1.35544 622.377 389.532
13.9175 -16.8639 0.331765 631.74 398.374
-1.15315 -11.859 -5.01534 564.14 413.407
-1.12087 -9.00811 -7.66491 563.601 424.493
-1.07316 -6.17905 -10.4247 563.139 435.43
-0.989942 -3.37128 -13.1327 562.838 446.31
-2.77158 0.0943092 -5.92232 553.844 464.8
-1.67832 0.15548 -7.00725 558.679 464.789
-0.574027 0.130049 -8.13342 563.587 464.38
0.636845 -0.01722 -6.98809 568.929 464.665
1.81205 -0.248875 -5.8926 574.138 464.545
-11.768 -10.4281 -1.21676 516.859 418.823
-10.3252 -11.6074 -1.12897 523.53 414.096
-8.39663 -11.8571 -0.995468 532.093 413.592
-6.76841 -11.0933 -0.699008 539.057 417.527
-8.33162 -10.1932 -1.00226 531.936 420.887
-10.1221 -9.95292 -1.06447 523.982 421.424
5.63106 -12.0333 -0.973264 593.967 416.598
7.15657 -12.9011 -0.940353 600.922 413.228
9.07261 -12.8187 -0.844468 609.342 414.154
10.6137 -11.798 -0.763907 615.859 419.076
9.0296 -11.1953 -0.856187 608.719 421.24
7.24311 -11.2439 -1.02629 600.863 420.458
-4.95614 10.1968 -2.85992 541.428 510.037
-3.52289 8.4016 -5.08665 548.291 501.391
-1.79241 6.73627 -6.70052 556.411 493.717
0.424949 6.73199 -8.21585 566.231 493.494
2.67832 6.31827 -6.47137 576.221 493.209
4.72989 7.58636 -4.88284 584.877 500.147
6.56861 9.05356 -2.83753 592.529 508.14
5.15915 10.5336 -4.06475 585.958 513.591
3.34039 11.5655 -5.27284 577.703 516.98
1.169 12.1168 -6.66616 568.027 518.075
-1.12452 12.077 -5.42224 557.892 517.941
-3.23253 11.4629 -4.26648 548.73 515.298
-1.0021 8.91224 -5.03184 559.264 504.331
0.67752 8.58374 -7.14718 566.818 502.229
2.49862 8.49863 -5.05947 574.805 503.447
2.53321 8.94085 -4.45534 574.821 505.71
0.82732 9.35264 -6.19021 567.244 506.139
-0.862551 9.34459 -4.53069 559.749 506.525
3 20 21 23
3 21 22 23
3 0 1 36
3 15 16 45
3 0 17 36
3 16 26 45
3 17 18 37
3 25 26 44
3 17 36 37
3 26 44 45
3 18 19 38
3 24 25 43
3 18 37 38
3 25 43 44
3 19 20 38
3 23 24 43
3 20 21 39
3 22 23 42
3 20 38 39
3 23 42 43
3 21 22 27
3 21 27 39
3 22 27 42
3 27 28 42
3 27 28 39
3 28 42 47
3 28 39 40
3 1 36 41
3 15 45 46
3 1 2 41
3 14 15 46
3 28 29 40
3 28 29 47
3 2 40 41
3 14 46 47
3 2 29 40
3 14 29 47
3 2 3 29
3 13 14 29
3 29 30 31
3 29 30 35
3 3 29 31
3 13 29 35
3 30 32 33
3 30 33 34
3 30 31 32
3 30 34 35
3 3 4 31
3 12 13 35
3 4 5 48
3 11 12 54
3 5 6 48
3 10 11 54
3 6 48 59
3 10 54 55
3 6 7 59
3 9 10 55
3 7 58 59
3 9 55 56
3 8 57 58
3 8 56 57
3 7 8 58
3 8 9 56
3 4 31 48
3 12 35 54
3 31 48 49
3 35 53 54
3 31 49 50
3 35 52 53
3 31 32 50
3 34 35 52
3 32 33 50
3 33 34 52
3 33 50 51
3 33 51 52
3 48 49 60
3 49 60 50
3 50 60 61
3 50 51 61
3 51 52 61
3 61 62 52
3 52 53 62
3 53 54 62
3 54 55 63
3 55 56 63
3 56 63 64
3 56 57 64
3 64 65 57
3 57 58 65
3 58 59 65
3 48 59 65
