ply
format ascii 1.0
element vertex 66
property float x
property float y
property float z
property float u
property float v
element face 91
property list uchar int vertex_indices
end_header
-19.6966 -6.05712 21.0791 483.16 450.247
-19.0743 -0.732369 20.6931 484.392 472.905
-18.113 4.52593 20.1777 487.123 495.298
-16.7593 9.64251 18.279 491.767 516.311
-14.8168 14.3752 13.5054 499.434 534.01
-11.8343 18.4219 7.95595 511.884 548.592
-7.93694 21.6425 3.21072 528.408 560.44
-3.36196 23.8925 -0.837257 548.039 568.798
1.78156 24.2547 -4.61121 570.621 569.447
6.66663 22.8872 -0.767191 591.583 567.547
10.4999 19.6655 3.43158 608.484 557.65
13.6262 15.819 8.19508 622.438 545.24
15.9458 11.4992 13.7149 632.946 531.057
17.4402 6.81424 18.3309 640.115 514.486
18.2837 1.90883 20.3871 644.871 495.131
18.634 -3.1024 20.8404 647.737 474.145
18.615 -8.14089 21.0805 649.046 452.794
-15.9595 -15.1084 0.149528 504.564 399.254
-14.0408 -17.0439 -1.56347 513.611 390.464
-11.4601 -17.9872 -2.97855 525.196 386.298
-8.71015 -18.1077 -4.34314 537.273 385.725
-6.00345 -17.6079 -5.56215 548.969 387.88
3.10476 -17.8934 -5.51409 588.341 389.412
5.73521 -18.8423 -4.22451 599.791 386.979
8.53191 -19.179 -2.78442 611.765 387.306
11.3057 -18.6782 -1.32866 623.401 391.209
13.5612 -17.0439 0.31322 632.458 399.913
-0.941177 -12.0955 -5.01733 569.184 413.264
-0.896391 -9.54458 -7.64506 569 422.469
-0.842353 -7.01458 -10.3692 568.874 431.526
-0.762149 -4.50425 -13.0828 568.865 440.513
-2.31456 -0.0694348 -5.92307 559.983 463.586
-1.28057 -0.149707 -6.97411 564.603 462.875
-0.262201 -0.249846 -8.07696 569.169 462.041
0.815419 -0.293169 -6.91929 573.68 462.924
1.89143 -0.368603 -5.91218 578.213 463.573
-11.7265 -10.3901 -1.19149 521.671 419.787
-10.1601 -11.7835 -1.1337 528.815 414.346
-7.9952 -12.0296 -1.03159 538.211 414.008
-6.21574 -11.0327 -0.702796 545.565 419.005
-7.93124 -9.96987 -1.04608 537.908 422.807
-9.92455 -9.70895 -1.06423 529.236 423.313
5.07233 -11.8437 -0.870376 594.519 418.806
6.68276 -12.9747 -0.970393 601.799 414.397
8.8208 -12.9724 -0.881667 611.012 415.102
10.5184 -11.7827 -0.796138 617.989 420.74
8.83796 -10.914 -0.858548 610.502 423.905
6.85691 -10.9466 -1.00453 601.983 423.08
-4.60043 10.3685 -2.83892 546.773 509.431
-3.22429 8.55181 -5.08128 553.515 500.645
-1.59441 6.77344 -6.74406 561.266 492.471
0.568336 6.75175 -8.27183 570.802 492.04
2.7552 6.42146 -6.48009 580.097 492.438
4.65272 7.87426 -4.83923 587.661 500.261
6.32267 9.4289 -2.75225 594.155 508.738
5.06326 10.9336 -4.14794 588.479 513.883
3.35389 12.0299 -5.38386 580.955 517.255
1.18618 12.5644 -6.80177 571.636 517.975
-1.05975 12.4425 -5.5575 561.818 517.586
-3.03013 11.7 -4.28092 553.36 514.652
-1.10757 8.95597 -5.00776 562.524 503.049
0.777406 8.54879 -7.08145 571.042 500.538
2.76561 8.59868 -4.9474 579.328 502.719
2.81383 9.35306 -4.42175 579.255 506.291
0.929425 9.80235 -6.18968 571.228 506.507
-0.974981 9.71462 -4.53003 562.82 506.633
3 20 21 23
3 21 22 23
3 0 1 36
3 15 16 45
3 0 17 36
3 16 26 45
3 17 18 37
3 25 26 44
3 17 36 37
3 26 44 45
3 18 19 38
3 24 25 43
3 18 37 38
3 25 43 44
3 19 20 38
3 23 24 43
3 20 21 39
3 22 23 42
3 20 38 39
3 23 42 43
3 21 22 27
3 21 27 39
3 22 27 42
3 27 28 42
3 27 28 39
3 28 42 47
3 28 39 40
3 1 36 41
3 15 45 46
3 1 2 41
3 14 15 46
3 28 29 40
3 28 29 47
3 2 40 41
3 14 46 47
3 2 29 40
3 14 29 47
3 2 3 29
3 13 14 29
3 29 30 31
3 29 30 35
3 3 29 31
3 13 29 35
3 30 32 33
3 30 33 34
3 30 31 32
3 30 34 35
3 3 4 31
3 12 13 35
3 4 5 48
3 11 12 54
3 5 6 48
3 10 11 54
3 6 48 59
3 10 54 55
3 6 7 59
3 9 10 55
3 7 58 59
3 9 55 56
3 8 57 58
3 8 56 57
3 7 8 58
3 8 9 56
3 4 31 48
3 12 35 54
3 31 48 49
3 35 53 54
3 31 49 50
3 35 52 53
3 31 32 50
3 34 35 52
3 32 33 50
3 33 34 52
3 33 50 51
3 33 51 52
3 48 49 60
3 49 60 50
3 50 60 61
3 50 51 61
3 51 52 61
3 61 62 52
3 52 53 62
3 53 54 62
3 54 55 63
3 55 56 63
3 56 63 64
3 56 57 64
3 64 65 57
3 57 58 65
3 58 59 65
3 48 59 65
