ply
format ascii 1.0
element vertex 66
property float x
property float y
property float z
property float u
property float v
element face 91
property list uchar int vertex_indices
end_header
-20.2794 -5.81301 21.1003 482.753 444.747
-19.795 -0.606574 20.6589 483.234 466.663
-18.9619 4.55306 20.3281 485.22 488.548
-17.6617 9.56699 18.1713 489.199 508.907
-15.5221 14.2285 13.4485 496.804 526.549
-12.1185 18.0965 7.86438 510.023 540.716
-7.74619 20.9473 3.19882 527.709 551.393
-2.77854 22.7468 -0.82265 548.27 558.169
2.54822 22.7741 -4.42749 570.91 557.794
7.17554 21.5181 -0.87846 591.132 555.892
11.0798 18.855 3.39524 608.712 548.238
14.4615 15.6113 8.1795 624.248 538.266
16.8747 11.6392 13.825 635.893 525.42
18.1602 7.04877 18.5122 642.887 509.074
18.7572 2.17075 20.8248 646.97 489.943
19.0221 -2.83862 21.158 649.625 469.02
19.0706 -7.846 21.5859 651.358 448.097
-16.252 -15.0875 0.198375 502.231 394.701
-14.1781 -16.8299 -1.48844 511.569 386.976
-11.5585 -17.6229 -2.97401 522.955 383.545
-8.82277 -17.7117 -4.34689 534.626 383.192
-6.15574 -17.2061 -5.59931 545.826 385.403
3.43252 -17.766 -5.38374 586.932 386.002
6.31626 -18.7641 -4.13922 599.575 383.35
9.35121 -19.1138 -2.71676 612.672 383.587
12.3409 -18.494 -1.26451 625.283 387.931
14.7406 -16.6688 0.386616 635.016 397.312
-1.42581 -11.4455 -5.1016 564.286 411.462
-1.37945 -8.4924 -7.69186 563.526 422.481
-1.30789 -5.57195 -10.5063 562.877 433.241
-1.19025 -2.67607 -13.3105 562.433 443.916
-3.67397 0.463967 -6.08941 551.06 460.611
-2.28674 0.69068 -7.1393 556.887 461.379
-0.860186 0.699598 -8.20024 562.948 461.23
0.762038 0.430484 -7.17385 569.98 461.162
2.30792 -0.040313 -6.08633 576.749 460.254
-12.0716 -10.0005 -1.1505 518.503 416.687
-10.506 -11.2731 -1.12107 525.572 411.785
-8.43952 -11.4372 -1.05564 534.445 411.741
-6.7174 -10.5068 -0.709091 541.523 416.386
-8.41898 -9.68839 -0.999325 534.004 419.178
-10.3159 -9.46371 -1.11403 525.836 419.5
5.79394 -11.5975 -1.01458 595.254 415.308
7.427 -12.7013 -0.987379 602.56 411.138
9.5024 -12.6825 -0.785472 611.419 411.949
11.2222 -11.6145 -0.622795 618.441 417.071
9.50286 -10.9399 -0.872639 610.891 419.271
7.57905 -10.9162 -1.03642 602.668 418.707
-6.05036 9.80081 -2.85064 538.171 501.266
-4.18433 8.21331 -5.00251 546.563 493.868
-2.09198 6.84635 -6.65438 555.868 487.757
0.32767 6.84775 -8.21825 566.157 487.582
2.80835 6.34427 -6.50347 576.942 487.173
5.25961 7.22659 -4.87003 587.18 492.57
7.65103 8.33145 -2.90235 597.103 499.084
5.841 9.94161 -4.08439 588.859 504.68
3.59998 10.9991 -5.32545 578.942 507.776
1.09772 11.5499 -6.59082 568.062 508.638
-1.51124 11.6474 -5.40273 556.925 508.959
-4.01131 11.1229 -4.24865 546.44 506.661
-1.67408 8.81601 -5.13502 557.093 497.086
0.571221 8.51131 -7.36628 566.715 495.181
2.99609 8.22872 -5.34072 577.202 495.868
3.07542 8.65104 -4.6191 577.431 498.093
0.702292 9.0775 -6.35637 567.128 498.195
-1.60697 9.21972 -4.5549 557.272 499.147
3 20 21 23
3 21 22 23
3 0 1 36
3 15 16 45
3 0 17 36
3 16 26 45
3 17 18 37
3 25 26 44
3 17 36 37
3 26 44 45
3 18 19 38
3 24 25 43
3 18 37 38
3 25 43 44
3 19 20 38
3 23 24 43
3 20 21 39
3 22 23 42
3 20 38 39
3 23 42 43
3 21 22 27
3 21 27 39
3 22 27 42
3 27 28 42
3 27 28 39
3 28 42 47
3 28 39 40
3 1 36 41
3 15 45 46
3 1 2 41
3 14 15 46
3 28 29 40
3 28 29 47
3 2 40 41
3 14 46 47
3 2 29 40
3 14 29 47
3 2 3 29
3 13 14 29
3 29 30 31
3 29 30 35
3 3 29 31
3 13 29 35
3 30 32 33
3 30 33 34
3 30 31 32
3 30 34 35
3 3 4 31
3 12 13 35
3 4 5 48
3 11 12 54
3 5 6 48
3 10 11 54
3 6 48 59
3 10 54 55
3 6 7 59
3 9 10 55
3 7 58 59
3 9 55 56
3 8 57 58
3 8 56 57
3 7 8 58
3 8 9 56
3 4 31 48
3 12 35 54
3 31 48 49
3 35 53 54
3 31 49 50
3 35 52 53
3 31 32 50
3 34 35 52
3 32 33 50
3 33 34 52
3 33 50 51
3 33 51 52
3 48 49 60
3 49 60 50
3 50 60 61
3 50 51 61
3 51 52 61
3 61 62 52
3 52 53 62
3 53 54 62
3 54 55 63
3 55 56 63
3 56 63 64
3 56 57 64
3 64 65 57
3 57 58 65
3 58 59 65
3 48 59 65
