ply
format ascii 1.0
element vertex 66
property float x
property float y
property float z
property float u
property float v
element face 91
property list uchar int vertex_indices
end_header
-20.1365 -6.03784 21.0611 480.657 445.387
-19.5919 -0.675892 20.6206 481.33 468.355
-18.6827 4.63303 20.22 483.599 491.23
-17.3071 9.7916 18.2311 487.888 512.733
-15.1704 14.56 13.4037 495.507 531.243
-11.871 18.5916 7.8463 508.371 546.543
-7.63844 21.709 3.18527 525.589 558.689
-2.72229 23.7096 -0.84059 546.135 566.592
2.65229 23.7898 -4.47821 569.279 566.593
7.3283 22.3392 -0.833384 590.097 563.778
11.0977 19.3183 3.41362 607.496 554.267
14.2206 15.6977 8.1876 622.299 542.269
16.4616 11.5171 13.7756 633.481 528.038
17.7775 6.88914 18.4776 640.769 511.119
18.4614 2.01071 20.5919 645.318 491.517
18.758 -2.98646 20.9281 648.171 470.316
18.7868 -7.98408 21.3602 649.869 449.084
-16.0123 -15.0702 0.163698 500.699 396.421
-13.9833 -16.8479 -1.54472 509.99 388.47
-11.3889 -17.676 -2.98773 521.442 384.916
-8.66549 -17.7613 -4.35868 533.223 384.633
-6.00469 -17.234 -5.60053 544.546 387.035
3.59173 -17.7536 -5.42045 586.28 387.833
6.31654 -18.6957 -4.17222 598.414 385.299
9.19007 -19.0139 -2.73714 611.004 385.594
12.0178 -18.4199 -1.3072 623.111 389.791
14.2845 -16.6769 0.361024 632.436 398.885
-1.27162 -11.714 -5.05262 563.341 412.503
-1.25494 -8.77288 -7.70868 562.415 423.697
-1.21584 -5.85522 -10.484 561.589 434.733
-1.13512 -2.95751 -13.1929 560.952 445.731
-3.48233 0.295535 -6.10323 549.987 462.864
-2.1538 0.524686 -7.08989 555.64 463.717
-0.777452 0.546907 -8.09573 561.564 463.684
0.753193 0.30278 -7.08987 568.3 463.651
2.19908 -0.130586 -6.02086 574.731 462.815
-11.887 -10.2746 -1.25639 517.028 417.516
-10.2801 -11.4299 -1.1634 524.352 413.093
-8.23158 -11.6462 -1.01378 533.297 412.872
-6.47587 -10.8711 -0.644944 540.671 416.941
-8.20169 -10.0813 -0.968761 532.94 419.631
-10.112 -9.8421 -1.0973 524.587 420.004
5.59661 -11.8709 -0.987271 593.264 416.147
7.27229 -12.7777 -0.92113 600.807 412.799
9.31937 -12.7111 -0.819871 609.657 413.766
11.0249 -11.7253 -0.754765 616.738 418.559
9.28266 -11.1683 -0.881657 609.014 420.351
7.36573 -11.1886 -1.04222 600.713 419.59
-5.21765 9.77392 -2.77743 539.615 504.883
-3.74008 8.07896 -5.00097 546.476 496.837
-1.93186 6.62378 -6.6601 554.711 490.23
0.271842 6.63671 -8.21795 564.205 490.108
2.52403 6.18364 -6.47637 574.155 489.801
4.66032 7.22299 -4.83774 583.134 495.815
6.60211 8.55425 -2.82581 591.191 503.228
5.17072 10.1345 -4.01778 584.462 508.931
3.30861 11.2485 -5.31134 576.009 512.443
1.0623 11.8231 -6.67712 566.058 513.48
-1.32424 11.8215 -5.42007 555.76 513.43
-3.49513 11.1461 -4.22256 546.604 510.517
-1.37103 8.65242 -5.04271 556.557 500.002
0.51921 8.32313 -7.23685 564.78 497.967
2.57775 8.16534 -5.14431 573.81 499.061
2.66238 8.75904 -4.4834 574.012 501.999
0.685747 9.24279 -6.28775 565.244 502.488
-1.26455 9.23374 -4.51679 556.853 502.82
3 20 21 23
3 21 22 23
3 0 1 36
3 15 16 45
3 0 17 36
3 16 26 45
3 17 18 37
3 25 26 44
3 17 36 37
3 26 44 45
3 18 19 38
3 24 25 43
3 18 37 38
3 25 43 44
3 19 20 38
3 23 24 43
3 20 21 39
3 22 23 42
3 20 38 39
3 23 42 43
3 21 22 27
3 21 27 39
3 22 27 42
3 27 28 42
3 27 28 39
3 28 42 47
3 28 39 40
3 1 36 41
3 15 45 46
3 1 2 41
3 14 15 46
3 28 29 40
3 28 29 47
3 2 40 41
3 14 46 47
3 2 29 40
3 14 29 47
3 2 3 29
3 13 14 29
3 29 30 31
3 29 30 35
3 3 29 31
3 13 29 35
3 30 32 33
3 30 33 34
3 30 31 32
3 30 34 35
3 3 4 31
3 12 13 35
3 4 5 48
3 11 12 54
3 5 6 48
3 10 11 54
3 6 48 59
3 10 54 55
3 6 7 59
3 9 10 55
3 7 58 59
3 9 55 56
3 8 57 58
3 8 56 57
3 7 8 58
3 8 9 56
3 4 31 48
3 12 35 54
3 31 48 49
3 35 53 54
3 31 49 50
3 35 52 53
3 31 32 50
3 34 35 52
3 32 33 50
3 33 34 52
3 33 50 51
3 33 51 52
3 48 49 60
3 49 60 50
3 50 60 61
3 50 51 61
3 51 52 61
3 61 62 52
3 52 53 62
3 53 54 62
3 54 55 63
3 55 56 63
3 56 63 64
3 56 57 64
3 64 65 57
3 57 58 65
3 58 59 65
3 48 59 65
