ply
format ascii 1.0
element vertex 66
property float x
property float y
property float z
property float u
property float v
element face 91
property list uchar int vertex_indices
end_header
-20.047 -5.87278 21.0006 480.212 445.73
-19.5043 -0.618725 20.5773 480.882 468.409
-18.5921 4.57936 20.2189 483.182 490.994
-17.1996 9.62612 18.1627 487.548 512.219
-15.0308 14.3181 13.4404 495.294 530.81
-11.734 18.3008 7.87143 508.14 546.26
-7.52202 21.3777 3.18914 525.297 558.523
-2.66104 23.4012 -0.83028 545.642 566.766
2.66141 23.5103 -4.44368 568.624 567.078
7.27463 22.1032 -0.849201 589.308 564.24
11.0284 19.1725 3.3849 606.763 554.866
14.1787 15.6662 8.18722 621.798 543.1
16.4218 11.5508 13.805 633.113 528.828
17.7049 6.93996 18.461 640.366 511.63
18.3634 2.07265 20.6291 644.876 491.876
18.6619 -2.91534 20.958 647.778 470.563
18.7083 -7.90523 21.403 649.589 449.221
-15.939 -15.1782 0.139307 500.174 396.267
-13.8929 -16.9274 -1.51562 509.568 388.507
-11.2903 -17.733 -2.97731 521.093 385.099
-8.56677 -17.8128 -4.37011 532.915 384.901
-5.91013 -17.287 -5.64307 544.259 387.363
3.50511 -17.8894 -5.42722 585.447 387.8
6.26474 -18.841 -4.16437 597.817 385.18
9.16891 -19.1639 -2.72137 610.624 385.415
12.0254 -18.5587 -1.2845 622.928 389.646
14.3117 -16.8005 0.347749 632.39 398.784
-1.32195 -11.7216 -5.05707 562.484 413.157
-1.28236 -8.86488 -7.65442 561.635 424.217
-1.21897 -6.03596 -10.422 560.892 435.078
-1.11588 -3.23069 -13.1785 560.33 445.855
-3.42662 0.154189 -6.01926 549.496 463.377
-2.13416 0.351637 -7.05711 555.016 464.112
-0.801901 0.357548 -8.11663 560.769 464.019
0.694526 0.125109 -7.06949 567.402 464.007
2.11774 -0.280026 -5.94961 573.774 463.262
-11.9324 -10.2459 -1.21623 515.986 418.165
-10.4097 -11.3802 -1.1081 522.981 413.789
-8.44206 -11.6059 -0.981033 531.624 413.489
-6.75974 -10.8992 -0.70143 538.735 417.211
-8.39361 -10.078 -0.997997 531.348 420.104
-10.2296 -9.82478 -1.09545 523.27 420.578
5.77971 -11.9639 -0.986716 593.65 416.371
7.39918 -12.8284 -0.876719 600.98 413.192
9.38206 -12.75 -0.774451 609.591 414.2
11.024 -11.7899 -0.73669 616.434 418.883
9.34501 -11.2383 -0.876385 608.944 420.676
7.48674 -11.2615 -1.04585 600.854 419.91
-5.25625 10.0649 -2.84393 538.508 507.267
-3.75561 8.35921 -4.99488 545.493 499.276
-1.95323 6.83345 -6.6288 553.756 492.416
0.273009 6.83174 -8.19962 563.382 492.312
2.54749 6.3814 -6.49359 573.499 491.932
4.69768 7.48992 -4.87475 582.575 498.211
6.68382 8.81206 -2.90168 590.884 505.541
5.20958 10.3897 -4.09457 583.913 511.304
3.30834 11.4872 -5.35865 575.233 514.822
1.04758 12.0669 -6.65636 565.151 515.971
-1.3419 12.0669 -5.43255 554.801 515.843
-3.52457 11.415 -4.27817 545.556 512.924
-1.32823 8.91503 -5.03896 555.881 502.414
0.512634 8.5698 -7.27875 563.91 500.367
2.51876 8.42588 -5.18159 572.778 501.425
2.57445 8.94913 -4.54241 572.881 504.027
0.662044 9.41845 -6.29743 564.332 504.578
-1.21986 9.41913 -4.53109 556.214 504.883
3 20 21 23
3 21 22 23
3 0 1 36
3 15 16 45
3 0 17 36
3 16 26 45
3 17 18 37
3 25 26 44
3 17 36 37
3 26 44 45
3 18 19 38
3 24 25 43
3 18 37 38
3 25 43 44
3 19 20 38
3 23 24 43
3 20 21 39
3 22 23 42
3 20 38 39
3 23 42 43
3 21 22 27
3 21 27 39
3 22 27 42
3 27 28 42
3 27 28 39
3 28 42 47
3 28 39 40
3 1 36 41
3 15 45 46
3 1 2 41
3 14 15 46
3 28 29 40
3 28 29 47
3 2 40 41
3 14 46 47
3 2 29 40
3 14 29 47
3 2 3 29
3 13 14 29
3 29 30 31
3 29 30 35
3 3 29 31
3 13 29 35
3 30 32 33
3 30 33 34
3 30 31 32
3 30 34 35
3 3 4 31
3 12 13 35
3 4 5 48
3 11 12 54
3 5 6 48
3 10 11 54
3 6 48 59
3 10 54 55
3 6 7 59
3 9 10 55
3 7 58 59
3 9 55 56
3 8 57 58
3 8 56 57
3 7 8 58
3 8 9 56
3 4 31 48
3 12 35 54
3 31 48 49
3 35 53 54
3 31 49 50
3 35 52 53
3 31 32 50
3 34 35 52
3 32 33 50
3 33 34 52
3 33 50 51
3 33 51 52
3 48 49 60
3 49 60 50
3 50 60 61
3 50 51 61
3 51 52 61
3 61 62 52
3 52 53 62
3 53 54 62
3 54 55 63
3 55 56 63
3 56 63 64
3 56 57 64
3 64 65 57
3 57 58 65
3 58 59 65
3 48 59 65
