ply
format ascii 1.0
element vertex 66
property float x
property float y
property float z
property float u
property float v
element face 91
property list uchar int vertex_indices
end_header
-20.3508 -5.93792 21.1789 484.327 444.374
-19.8096 -0.634572 20.7482 485.272 466.664
-18.935 4.61778 20.3748 487.655 488.858
-17.6305 9.71032 18.1865 491.915 509.361
-15.5203 14.412 13.4596 499.717 526.845
-12.1039 18.2659 7.85854 513.318 540.535
-7.69295 21.0689 3.19113 531.438 550.616
-2.70214 22.8241 -0.852338 552.306 556.802
2.64163 22.8015 -4.46328 575.14 555.83
7.27626 21.5197 -0.841258 595.272 553.838
11.1681 18.8144 3.43389 612.597 546.044
14.5084 15.5269 8.20934 627.716 535.959
16.8655 11.5327 13.8394 638.818 523.164
18.1129 6.97036 18.4858 645.324 507.076
18.6964 2.14353 20.7802 649.062 488.243
18.9669 -2.81821 21.0917 651.496 467.531
19.0249 -7.77767 21.5227 653.022 446.848
-16.3737 -15.2082 0.168531 503.699 393.18
-14.19 -16.9244 -1.47481 513.47 385.464
-11.498 -17.674 -2.96861 525.163 382.055
-8.71268 -17.7172 -4.35378 537.074 381.724
-6.00504 -17.1506 -5.60623 548.495 384.034
3.49817 -17.6462 -5.42456 589.222 384.474
6.35372 -18.6065 -4.18336 601.67 381.912
9.35732 -18.9304 -2.75679 614.586 382.192
12.3181 -18.3157 -1.29753 627.077 386.449
14.7125 -16.5132 0.358412 636.842 395.706
-1.33952 -11.53 -5.08525 566.979 409.305
-1.30274 -8.55167 -7.68518 566.367 420.293
-1.245 -5.60657 -10.5046 565.854 431.01
-1.14315 -2.68457 -13.3206 565.535 441.642
-3.39699 0.372668 -6.0423 555.121 458.502
-2.11462 0.550729 -7.12185 560.553 458.912
-0.803047 0.550556 -8.21529 566.156 458.568
0.671432 0.327269 -7.13715 572.514 458.669
2.08378 -0.0605296 -5.99542 578.648 458.097
-12.1775 -10.1217 -1.14225 520.315 414.939
-10.6176 -11.292 -1.09537 527.281 410.418
-8.6137 -11.475 -1.02732 535.889 410.198
-6.92417 -10.6353 -0.721477 542.891 414.368
-8.60076 -9.86769 -0.994521 535.53 417.016
-10.4572 -9.65448 -1.09827 527.544 417.38
5.89173 -11.6445 -1.06551 597.903 413.156
7.50352 -12.6036 -0.973877 605.036 409.569
9.50281 -12.5489 -0.788284 613.563 410.425
11.1669 -11.5452 -0.651273 620.414 415.177
9.47695 -10.9746 -0.891654 613.047 417.009
7.61294 -10.9824 -1.0687 605.086 416.391
-6.07532 9.78538 -2.88644 541.254 499.564
-4.1635 8.24093 -5.02404 549.819 492.198
-2.0782 6.87382 -6.6669 559.08 485.932
0.322398 6.87405 -8.22469 569.335 485.58
2.77311 6.3961 -6.4862 579.929 485.262
5.19656 7.29158 -4.86653 590.052 490.669
7.58565 8.38857 -2.92685 599.977 497.117
5.80295 9.9763 -4.06161 591.951 502.671
3.58441 11.0081 -5.28868 582.207 505.706
1.108 11.543 -6.56773 571.489 506.543
-1.50565 11.6282 -5.40332 560.301 506.959
-4.00723 11.0952 -4.29285 549.752 504.757
-1.62097 8.83057 -5.17596 560.53 495.245
0.57476 8.53503 -7.38708 569.986 493.185
2.94334 8.28223 -5.30549 580.17 494.01
3.03685 8.65106 -4.56634 580.475 496.051
0.720007 9.0424 -6.33054 570.476 496.021
-1.54264 9.18172 -4.57747 560.774 497.12
3 20 21 23
3 21 22 23
3 0 1 36
3 15 16 45
3 0 17 36
3 16 26 45
3 17 18 37
3 25 26 44
3 17 36 37
3 26 44 45
3 18 19 38
3 24 25 43
3 18 37 38
3 25 43 44
3 19 20 38
3 23 24 43
3 20 21 39
3 22 23 42
3 20 38 39
3 23 42 43
3 21 22 27
3 21 27 39
3 22 27 42
3 27 28 42
3 27 28 39
3 28 42 47
3 28 39 40
3 1 36 41
3 15 45 46
3 1 2 41
3 14 15 46
3 28 29 40
3 28 29 47
3 2 40 41
3 14 46 47
3 2 29 40
3 14 29 47
3 2 3 29
3 13 14 29
3 29 30 31
3 29 30 35
3 3 29 31
3 13 29 35
3 30 32 33
3 30 33 34
3 30 31 32
3 30 34 35
3 3 4 31
3 12 13 35
3 4 5 48
3 11 12 54
3 5 6 48
3 10 11 54
3 6 48 59
3 10 54 55
3 6 7 59
3 9 10 55
3 7 58 59
3 9 55 56
3 8 57 58
3 8 56 57
3 7 8 58
3 8 9 56
3 4 31 48
3 12 35 54
3 31 48 49
3 35 53 54
3 31 49 50
3 35 52 53
3 31 32 50
3 34 35 52
3 32 33 50
3 33 34 52
3 33 50 51
3 33 51 52
3 48 49 60
3 49 60 50
3 50 60 61
3 50 51 61
3 51 52 61
3 61 62 52
3 52 53 62
3 53 54 62
3 54 55 63
3 55 56 63
3 56 63 64
3 56 57 64
3 64 65 57
3 57 58 65
3 58 59 65
3 48 59 65
