ply
format ascii 1.0
element vertex 66
property float x
property float y
property float z
property float u
property float v
element face 91
property list uchar int vertex_indices
end_header
-20.0987 -5.80608 20.9515 481.032 445.722
-19.6174 -0.569357 20.5189 481.394 468.104
-18.7493 4.61583 20.1862 483.446 490.44
-17.3417 9.62888 18.1805 487.823 511.33
-15.1015 14.2412 13.3945 495.82 529.304
-11.7501 18.1527 7.87604 508.817 544.24
-7.52159 21.1963 3.19977 525.918 556.176
-2.65047 23.2073 -0.814409 546.154 564.237
2.69086 23.2872 -4.40535 569.065 564.389
7.30319 21.9186 -0.856522 589.568 561.853
11.0495 19.0332 3.38456 606.849 552.902
14.2141 15.5956 8.1921 621.818 541.695
16.4957 11.5611 13.7803 633.195 528.059
17.8208 7.00514 18.4993 640.578 511.425
18.4896 2.135 20.6375 645.13 491.878
18.7596 -2.87488 20.954 647.936 470.647
18.7744 -7.87916 21.4103 649.643 449.432
-15.9113 -15.1993 0.191227 501.387 395.854
-13.9219 -16.9576 -1.51271 510.488 388.05
-11.3635 -17.7728 -2.96881 521.749 384.602
-8.67997 -17.8677 -4.34861 533.32 384.322
-6.06336 -17.3687 -5.6125 544.413 386.629
3.49805 -17.9415 -5.38354 585.91 387.333
6.27668 -18.9025 -4.12816 598.272 384.755
9.20177 -19.2308 -2.69587 611.069 385.031
12.0783 -18.6082 -1.27225 623.346 389.364
14.3633 -16.8093 0.381702 632.695 398.675
-1.3861 -11.6876 -5.06834 562.792 412.764
-1.34817 -8.78915 -7.67475 561.915 423.834
-1.28377 -5.91839 -10.4429 561.156 434.709
-1.17531 -3.06997 -13.1724 560.596 445.523
-3.69063 0.303954 -6.10332 548.902 462.91
-2.30042 0.538755 -7.08793 554.794 463.84
-0.861464 0.543202 -8.0894 560.97 463.79
0.771651 0.288252 -7.10044 568.145 463.736
2.31474 -0.176341 -6.03049 575.002 462.797
-11.7617 -10.3175 -1.23792 517.672 417.355
-10.186 -11.5343 -1.1246 524.878 412.698
-8.13127 -11.7146 -0.975646 533.818 412.656
-6.40877 -10.8562 -0.61353 540.994 417.075
-8.10999 -10.0342 -0.961047 533.365 419.877
-10.0094 -9.79803 -1.10257 525.078 420.211
5.52294 -11.8987 -0.921995 592.862 416.236
7.17015 -12.9228 -0.871256 600.312 412.395
9.23825 -12.8825 -0.772884 609.236 413.277
10.9502 -11.8535 -0.729387 616.299 418.257
9.22719 -11.2062 -0.874371 608.64 420.408
7.30288 -11.1988 -1.01761 600.32 419.753
-5.20273 10.0368 -2.80264 539.333 505.902
-3.72925 8.34789 -4.99663 546.164 497.974
-1.9381 6.86464 -6.64641 554.32 491.315
0.261277 6.87607 -8.22535 563.758 491.233
2.52321 6.41004 -6.50428 573.745 490.858
4.67636 7.47403 -4.87296 582.762 496.964
6.67093 8.76204 -2.87736 591.035 504.171
5.23081 10.3962 -4.09307 584.237 510.081
3.33741 11.5464 -5.38478 575.636 513.732
1.05623 12.1338 -6.6845 565.542 514.842
-1.34667 12.1456 -5.45872 555.204 514.773
-3.52218 11.4512 -4.26846 546.077 511.73
-1.36582 8.95728 -5.03039 556.174 501.32
0.501476 8.59319 -7.27473 564.273 499.172
2.55484 8.44613 -5.2062 573.269 500.283
2.61712 8.99573 -4.5673 573.384 502.995
0.65423 9.47288 -6.3426 564.682 503.483
-1.26449 9.48459 -4.53052 556.459 503.877
3 20 21 23
3 21 22 23
3 0 1 36
3 15 16 45
3 0 17 36
3 16 26 45
3 17 18 37
3 25 26 44
3 17 36 37
3 26 44 45
3 18 19 38
3 24 25 43
3 18 37 38
3 25 43 44
3 19 20 38
3 23 24 43
3 20 21 39
3 22 23 42
3 20 38 39
3 23 42 43
3 21 22 27
3 21 27 39
3 22 27 42
3 27 28 42
3 27 28 39
3 28 42 47
3 28 39 40
3 1 36 41
3 15 45 46
3 1 2 41
3 14 15 46
3 28 29 40
3 28 29 47
3 2 40 41
3 14 46 47
3 2 29 40
3 14 29 47
3 2 3 29
3 13 14 29
3 29 30 31
3 29 30 35
3 3 29 31
3 13 29 35
3 30 32 33
3 30 33 34
3 30 31 32
3 30 34 35
3 3 4 31
3 12 13 35
3 4 5 48
3 11 12 54
3 5 6 48
3 10 11 54
3 6 48 59
3 10 54 55
3 6 7 59
3 9 10 55
3 7 58 59
3 9 55 56
3 8 57 58
3 8 56 57
3 7 8 58
3 8 9 56
3 4 31 48
3 12 35 54
3 31 48 49
3 35 53 54
3 31 49 50
3 35 52 53
3 31 32 50
3 34 35 52
3 32 33 50
3 33 34 52
3 33 50 51
3 33 51 52
3 48 49 60
3 49 60 50
3 50 60 61
3 50 51 61
3 51 52 61
3 61 62 52
3 52 53 62
3 53 54 62
3 54 55 63
3 55 56 63
3 56 63 64
3 56 57 64
3 64 65 57
3 57 58 65
3 58 59 65
3 48 59 65
