ply
format ascii 1.0
element vertex 66
property float x
property float y
property float z
property float u
property float v
element face 91
property list uchar int vertex_indices
end_header
-20.2281 -6.08906 21.1508 479.626 447.21
-19.6239 -0.747727 20.6782 480.861 469.969
-18.6752 4.53447 20.2507 483.602 492.592
-17.3195 9.70082 18.1898 488.163 513.832
-15.2375 14.5354 13.4075 496.001 532.188
-11.9441 18.6044 7.80717 509.296 547.08
-7.69921 21.7182 3.15241 526.94 558.7
-2.79311 23.7218 -0.87065 547.724 566.118
2.5358 23.8703 -4.53609 570.814 565.914
7.20431 22.4167 -0.843318 591.332 563.139
11.0038 19.3978 3.41336 608.487 553.773
14.1743 15.7674 8.15254 623.069 541.917
16.4744 11.5599 13.7549 634.02 527.885
17.8102 6.88923 18.4305 640.933 511.055
18.5154 2.02011 20.6243 645.212 491.704
18.8756 -2.94357 20.9862 648.054 470.747
18.9794 -7.91678 21.4075 649.788 449.717
-16.1463 -15.1908 0.164028 500.025 396.525
-14.099 -16.8786 -1.5238 509.354 388.8
-11.5388 -17.653 -2.98648 520.661 385.258
-8.86121 -17.718 -4.35928 532.291 384.841
-6.24284 -17.1766 -5.5788 543.504 387.101
3.65412 -17.6599 -5.41317 586.461 387.701
6.38383 -18.6012 -4.19126 598.499 385.119
9.25669 -18.9143 -2.76629 610.989 385.388
12.0803 -18.3187 -1.32258 623.03 389.551
14.3568 -16.596 0.355654 632.406 398.543
-1.27319 -11.3579 -5.03004 563.491 413.66
-1.25625 -8.4709 -7.72656 562.862 424.399
-1.22004 -5.60415 -10.5147 562.322 435.001
-1.14067 -2.75615 -13.2091 561.973 445.591
-3.17776 0.352984 -6.02404 552.222 462.747
-1.97641 0.535683 -7.08857 557.393 463.196
-0.743443 0.563245 -8.17035 562.741 462.977
0.635348 0.328715 -7.08954 568.751 462.987
1.94964 -0.0514058 -5.99701 574.519 462.362
-12.0922 -10.182 -1.20875 516.294 418.209
-10.59 -11.2535 -1.13504 523.072 414.052
-8.67744 -11.4966 -1.02577 531.411 413.574
-7.02174 -10.8381 -0.740281 538.401 416.999
-8.62617 -10.0452 -1.00073 531.255 419.822
-10.4204 -9.81843 -1.08647 523.433 420.276
5.9927 -11.8653 -1.07669 595.001 415.773
7.57901 -12.6324 -0.974348 602.064 412.96
9.486 -12.5215 -0.818255 610.286 414.026
11.0744 -11.613 -0.696544 616.923 418.405
9.43153 -11.1388 -0.86148 609.692 419.911
7.63513 -11.1719 -1.05222 601.929 419.186
-5.43417 9.57256 -2.81594 540.004 503.617
-3.80474 7.95354 -5.03871 547.516 495.753
-1.90351 6.56074 -6.68091 556.136 489.281
0.356882 6.58 -8.22334 565.941 489.015
2.66589 6.10515 -6.45944 576.027 488.651
4.89534 7.04831 -4.84521 585.403 494.251
6.98428 8.26772 -2.82766 594.092 501.244
5.44452 9.8905 -3.99044 587.026 507.093
3.47015 11.0155 -5.23192 578.21 510.647
1.15555 11.6094 -6.63502 568.063 511.739
-1.29722 11.6049 -5.37249 557.426 511.849
-3.58156 10.9551 -4.21144 547.688 509.176
-1.29861 8.53598 -5.08374 558.213 498.873
0.617082 8.28465 -7.2471 566.607 496.98
2.69623 8.03553 -5.17783 575.634 497.709
2.80207 8.56687 -4.46617 575.942 500.445
0.780371 9.05977 -6.19432 567.094 500.983
-1.20814 9.0581 -4.50567 558.458 501.485
3 20 21 23
3 21 22 23
3 0 1 36
3 15 16 45
3 0 17 36
3 16 26 45
3 17 18 37
3 25 26 44
3 17 36 37
3 26 44 45
3 18 19 38
3 24 25 43
3 18 37 38
3 25 43 44
3 19 20 38
3 23 24 43
3 20 21 39
3 22 23 42
3 20 38 39
3 23 42 43
3 21 22 27
3 21 27 39
3 22 27 42
3 27 28 42
3 27 28 39
3 28 42 47
3 28 39 40
3 1 36 41
3 15 45 46
3 1 2 41
3 14 15 46
3 28 29 40
3 28 29 47
3 2 40 41
3 14 46 47
3 2 29 40
3 14 29 47
3 2 3 29
3 13 14 29
3 29 30 31
3 29 30 35
3 3 29 31
3 13 29 35
3 30 32 33
3 30 33 34
3 30 31 32
3 30 34 35
3 3 4 31
3 12 13 35
3 4 5 48
3 11 12 54
3 5 6 48
3 10 11 54
3 6 48 59
3 10 54 55
3 6 7 59
3 9 10 55
3 7 58 59
3 9 55 56
3 8 57 58
3 8 56 57
3 7 8 58
3 8 9 56
3 4 31 48
3 12 35 54
3 31 48 49
3 35 53 54
3 31 49 50
3 35 52 53
3 31 32 50
3 34 35 52
3 32 33 50
3 33 34 52
3 33 50 51
3 33 51 52
3 48 49 60
3 49 60 50
3 50 60 61
3 50 51 61
3 51 52 61
3 61 62 52
3 52 53 62
3 53 54 62
3 54 55 63
3 55 56 63
3 56 63 64
3 56 57 64
3 64 65 57
3 57 58 65
3 58 59 65
3 48 59 65
