ply
format ascii 1.0
element vertex 66
property float x
property float y
property float z
property float u
property float v
element face 91
property list uchar int vertex_indices
end_header
-20.2707 -5.97529 21.1416 485.998 445.147
-19.7755 -0.70993 20.6927 486.717 467.146
-18.9415 4.50813 20.333 488.893 489.092
-17.6544 9.592 18.1806 493.024 509.432
-15.553 14.3219 13.4631 500.703 526.836
-12.1587 18.2153 7.83362 514.102 540.465
-7.77482 21.0609 3.174 531.996 550.568
-2.81746 22.873 -0.85035 552.606 556.881
2.49533 22.9166 -4.45298 575.198 556.116
7.15167 21.6398 -0.843257 595.378 554.283
11.0664 18.9127 3.41184 612.785 546.571
14.4486 15.6046 8.15484 628.08 536.591
16.8858 11.5918 13.7889 639.541 523.975
18.2003 6.99158 18.4747 646.372 507.983
18.796 2.14147 20.7424 650.197 489.19
19.0386 -2.8179 21.0661 652.537 468.59
19.0563 -7.77546 21.4844 653.92 448
-16.2637 -15.3256 0.190128 505.419 393.296
-14.152 -17.0077 -1.46566 514.845 385.695
-11.521 -17.7415 -2.95394 526.233 382.328
-8.79036 -17.7723 -4.33016 537.861 382.018
-6.13076 -17.2178 -5.57862 549.033 384.235
3.58222 -17.7957 -5.37193 590.542 384.457
6.40065 -18.7402 -4.14634 602.797 382.005
9.35772 -19.0661 -2.74314 615.48 382.308
12.2625 -18.4422 -1.29147 627.691 386.626
14.5769 -16.6379 0.406145 637.078 395.917
-1.33661 -11.3772 -5.09858 567.91 410.371
-1.29356 -8.5287 -7.68197 567.33 420.701
-1.22946 -5.71028 -10.4837 566.848 430.769
-1.12307 -2.9168 -13.2906 566.551 440.74
-3.63241 0.427398 -6.06155 555.022 458.835
-2.20806 0.66786 -7.12443 561.018 459.53
-0.741899 0.685204 -8.20597 567.25 459.285
0.871046 0.415607 -7.13636 574.194 459.26
2.39778 -0.0641349 -6.06266 580.826 458.331
-11.8999 -10.0996 -1.15414 522.616 415.555
-10.4616 -11.2721 -1.11159 529.049 411.021
-8.5582 -11.4431 -1.02839 537.199 410.849
-6.9607 -10.5923 -0.700839 543.778 415.056
-8.51661 -9.76284 -0.989118 536.934 417.957
-10.2743 -9.56764 -1.10257 529.398 418.249
5.76289 -11.6095 -0.977619 598.219 413.899
7.2712 -12.5921 -0.98816 604.9 410.148
9.1711 -12.566 -0.825019 612.984 410.856
10.7335 -11.5654 -0.670333 619.373 415.573
9.15607 -10.9133 -0.876185 612.484 417.775
7.38706 -10.9027 -1.00996 604.948 417.274
-6.13708 9.78869 -2.86342 541.908 499.651
-4.18607 8.26143 -5.01665 550.606 492.338
-2.05924 6.9059 -6.67102 560.011 486.116
0.389579 6.92062 -8.20928 570.426 485.819
2.88238 6.40657 -6.49204 581.184 485.413
5.34225 7.26422 -4.86173 591.44 490.714
7.75979 8.32398 -2.86709 601.464 497.091
5.956 9.9641 -4.03991 593.346 502.767
3.68639 11.0158 -5.29178 583.399 505.796
1.16023 11.5564 -6.57314 572.495 506.587
-1.48322 11.647 -5.40658 561.221 507.036
-4.03319 11.1234 -4.25866 550.507 504.913
-1.52174 8.89862 -5.17536 561.782 495.609
0.648443 8.63027 -7.34605 571.082 493.64
2.97488 8.34454 -5.30483 581.073 494.36
3.06533 8.65168 -4.594 581.381 496.135
0.780607 9.04809 -6.36549 571.54 496.066
-1.44962 9.19208 -4.59339 562.015 497.238
3 20 21 23
3 21 22 23
3 0 1 36
3 15 16 45
3 0 17 36
3 16 26 45
3 17 18 37
3 25 26 44
3 17 36 37
3 26 44 45
3 18 19 38
3 24 25 43
3 18 37 38
3 25 43 44
3 19 20 38
3 23 24 43
3 20 21 39
3 22 23 42
3 20 38 39
3 23 42 43
3 21 22 27
3 21 27 39
3 22 27 42
3 27 28 42
3 27 28 39
3 28 42 47
3 28 39 40
3 1 36 41
3 15 45 46
3 1 2 41
3 14 15 46
3 28 29 40
3 28 29 47
3 2 40 41
3 14 46 47
3 2 29 40
3 14 29 47
3 2 3 29
3 13 14 29
3 29 30 31
3 29 30 35
3 3 29 31
3 13 29 35
3 30 32 33
3 30 33 34
3 30 31 32
3 30 34 35
3 3 4 31
3 12 13 35
3 4 5 48
3 11 12 54
3 5 6 48
3 10 11 54
3 6 48 59
3 10 54 55
3 6 7 59
3 9 10 55
3 7 58 59
3 9 55 56
3 8 57 58
3 8 56 57
3 7 8 58
3 8 9 56
3 4 31 48
3 12 35 54
3 31 48 49
3 35 53 54
3 31 49 50
3 35 52 53
3 31 32 50
3 34 35 52
3 32 33 50
3 33 34 52
3 33 50 51
3 33 51 52
3 48 49 60
3 49 60 50
3 50 60 61
3 50 51 61
3 51 52 61
3 61 62 52
3 52 53 62
3 53 54 62
3 54 55 63
3 55 56 63
3 56 63 64
3 56 57 64
3 64 65 57
3 57 58 65
3 58 59 65
3 48 59 65
