ply
format ascii 1.0
element vertex 66
property float x
property float y
property float z
property float u
property float v
element face 91
property list uchar int vertex_indices
end_header
-20.2881 -5.82799 21.0947 484.269 444.975
-19.8087 -0.591617 20.653 484.699 466.894
-18.979 4.59923 20.3099 486.637 488.791
-17.6702 9.63849 18.2002 490.65 509.047
-15.5201 14.2966 13.4466 498.344 526.233
-12.1173 18.1535 7.87062 511.617 539.888
-7.75656 21.007 3.2084 529.289 550.2
-2.79617 22.809 -0.818205 549.845 556.675
2.53465 22.8193 -4.42524 572.534 555.988
7.17499 21.541 -0.865712 592.736 554.319
11.0526 18.8214 3.41135 610.135 546.814
14.4051 15.5404 8.19256 625.473 537.112
16.8194 11.5661 13.825 637.032 524.759
18.1492 6.99824 18.5095 644.143 508.961
18.7774 2.13673 20.7834 648.334 490.147
19.0393 -2.85847 21.1129 650.988 469.396
19.0706 -7.85136 21.5312 652.659 448.642
-16.2427 -15.0474 0.200577 504.174 393.78
-14.1726 -16.8148 -1.49799 513.527 385.857
-11.541 -17.624 -2.97695 524.98 382.283
-8.78845 -17.7141 -4.34495 536.729 381.847
-6.10181 -17.2104 -5.59188 548.016 383.971
3.41499 -17.7325 -5.39317 588.743 384.78
6.28099 -18.7292 -4.14311 601.276 382.26
9.30064 -19.0872 -2.71505 614.269 382.594
12.2806 -18.4899 -1.25973 626.8 386.957
14.6776 -16.6891 0.386324 636.477 396.339
-1.39196 -11.5785 -5.10894 566.365 409.437
-1.36112 -8.63269 -7.69143 565.569 420.179
-1.30481 -5.71957 -10.498 564.891 430.645
-1.20218 -2.83119 -13.3008 564.417 441.024
-3.73865 0.434222 -6.11359 552.661 458.684
-2.31547 0.670788 -7.13856 558.646 459.445
-0.848668 0.677236 -8.18047 564.888 459.239
0.808291 0.412418 -7.16575 572.04 459.284
2.38302 -0.066016 -6.09509 578.909 458.441
-11.9211 -10.0582 -1.18073 521.05 415.21
-10.3318 -11.3126 -1.13647 528.21 410.434
-8.25368 -11.4737 -1.04246 537.118 410.445
-6.50966 -10.5521 -0.663011 544.272 415.102
-8.23525 -9.75381 -0.976836 536.668 417.74
-10.147 -9.52899 -1.11563 528.449 418.018
5.65996 -11.6122 -0.989752 596.467 414.106
7.31176 -12.6965 -0.969058 603.842 410.05
9.39304 -12.6815 -0.791027 612.71 410.859
11.1239 -11.6257 -0.647425 619.764 415.924
9.38875 -10.9606 -0.87719 612.162 418.052
7.45592 -10.9428 -1.02614 603.917 417.445
-6.02898 9.81167 -2.83018 540.044 499.632
-4.17092 8.24228 -4.99408 548.428 492.176
-2.08811 6.88162 -6.65792 557.71 485.993
0.322188 6.88948 -8.21556 567.969 485.743
2.79233 6.38815 -6.49047 578.666 485.499
5.22227 7.27246 -4.84554 588.765 491.029
7.58538 8.37439 -2.88042 598.516 497.663
5.81002 9.99164 -4.08098 590.441 503.159
3.59499 11.0647 -5.33344 580.66 506.196
1.0921 11.6155 -6.60584 569.811 506.932
-1.52147 11.7058 -5.42144 558.653 507.292
-4.00939 11.156 -4.24905 548.227 504.985
-1.70901 8.85013 -5.13895 558.734 495.388
0.566131 8.53268 -7.35415 568.511 493.299
3.02064 8.26833 -5.32194 579.071 494.249
3.10465 8.70861 -4.61005 579.3 496.592
0.703499 9.14435 -6.39773 568.916 496.539
-1.64017 9.27528 -4.568 558.901 497.571
3 20 21 23
3 21 22 23
3 0 1 36
3 15 16 45
3 0 17 36
3 16 26 45
3 17 18 37
3 25 26 44
3 17 36 37
3 26 44 45
3 18 19 38
3 24 25 43
3 18 37 38
3 25 43 44
3 19 20 38
3 23 24 43
3 20 21 39
3 22 23 42
3 20 38 39
3 23 42 43
3 21 22 27
3 21 27 39
3 22 27 42
3 27 28 42
3 27 28 39
3 28 42 47
3 28 39 40
3 1 36 41
3 15 45 46
3 1 2 41
3 14 15 46
3 28 29 40
3 28 29 47
3 2 40 41
3 14 46 47
3 2 29 40
3 14 29 47
3 2 3 29
3 13 14 29
3 29 30 31
3 29 30 35
3 3 29 31
3 13 29 35
3 30 32 33
3 30 33 34
3 30 31 32
3 30 34 35
3 3 4 31
3 12 13 35
3 4 5 48
3 11 12 54
3 5 6 48
3 10 11 54
3 6 48 59
3 10 54 55
3 6 7 59
3 9 10 55
3 7 58 59
3 9 55 56
3 8 57 58
3 8 56 57
3 7 8 58
3 8 9 56
3 4 31 48
3 12 35 54
3 31 48 49
3 35 53 54
3 31 49 50
3 35 52 53
3 31 32 50
3 34 35 52
3 32 33 50
3 33 34 52
3 33 50 51
3 33 51 52
3 48 49 60
3 49 60 50
3 50 60 61
3 50 51 61
3 51 52 61
3 61 62 52
3 52 53 62
3 53 54 62
3 54 55 63
3 55 56 63
3 56 63 64
3 56 57 64
3 64 65 57
3 57 58 65
3 58 59 65
3 48 59 65
