ply
format ascii 1.0
element vertex 66
property float x
property float y
property float z
property float u
property float v
element face 91
property list uchar int vertex_indices
end_header
-20.1331 -5.97539 21.0884 484.386 449.093
-19.5364 -0.662766 20.7318 485.219 471.171
-18.5781 4.57643 20.2213 487.598 492.967
-17.1877 9.65154 18.2383 491.867 513.348
-15.1178 14.3214 13.4616 499.166 530.608
-11.9301 18.2833 7.92582 511.397 544.828
-7.83743 21.412 3.22712 527.68 556.361
-3.0741 23.5462 -0.820374 547.085 564.352
2.2174 23.7634 -4.61085 569.311 564.687
7.02379 22.4123 -0.815687 589.87 562.821
10.8793 19.3801 3.41928 606.959 553.922
14.0888 15.7569 8.20135 621.511 542.683
16.4144 11.5805 13.7763 632.511 529.332
17.77 6.91563 18.4529 639.605 513.114
18.52 1.94337 20.5804 644.293 493.921
18.8697 -3.16663 21.0754 647.37 473.066
18.9123 -8.3027 21.3843 649.167 451.896
-16.0819 -15.0341 0.188359 504.611 400.353
-14.1001 -16.956 -1.55984 513.573 391.951
-11.4973 -17.8684 -3.01607 524.821 388.117
-8.74852 -17.9848 -4.36789 536.429 387.702
-6.06312 -17.4607 -5.5704 547.566 390.019
3.31157 -17.9219 -5.41889 587.097 391.145
6.05755 -18.9386 -4.1858 598.936 388.509
8.97509 -19.2924 -2.76484 611.283 388.795
11.8665 -18.7166 -1.30283 623.226 392.965
14.2102 -16.9387 0.359576 632.483 402.081
-1.17124 -11.7462 -5.02624 566.304 415.654
-1.13379 -9.15662 -7.66036 565.686 424.884
-1.07662 -6.59254 -10.4094 565.161 433.947
-0.98377 -4.04671 -13.154 564.791 442.947
-2.24204 0.221115 -5.9598 558.038 464.55
-1.40259 0.0604195 -7.00666 561.633 463.528
-0.598887 -0.0705799 -8.12416 565.069 462.577
0.356879 -0.0798417 -6.98923 569.069 463.51
1.34682 -0.0634454 -5.91588 573.206 464.523
-11.7781 -10.0704 -1.13795 521.146 421.576
-10.1955 -11.4556 -1.16421 528.234 416.297
-8.03292 -11.6723 -1.13415 537.388 416.095
-6.26955 -10.6585 -0.768598 544.47 421.084
-7.98779 -9.61853 -1.06204 536.927 424.696
-9.97845 -9.36962 -1.07869 528.485 425.094
5.37667 -11.6232 -0.992063 593.711 420.611
7.01004 -12.8043 -1.03286 600.948 416.188
9.17211 -12.7829 -0.848403 610.022 417.068
10.9068 -11.6028 -0.685506 616.934 422.62
9.19405 -10.7387 -0.856318 609.468 425.574
7.19249 -10.7342 -1.06463 601.06 424.839
-5.24823 9.93007 -2.81724 542.287 505.846
-3.57683 8.34031 -5.07976 549.849 498.424
-1.79925 6.78222 -6.74597 557.837 491.519
0.386198 6.76445 -8.23211 567.049 491.258
2.62237 6.38083 -6.55957 576.539 491.354
4.70716 7.56797 -4.90715 584.896 497.924
6.76748 8.78676 -2.81111 593.133 504.881
5.31665 10.4574 -4.15299 586.531 510.582
3.39853 11.6552 -5.41704 578.114 514.214
1.06204 12.2414 -6.74727 568.133 515.131
-1.3669 12.1752 -5.53037 557.929 514.808
-3.54726 11.3968 -4.29284 548.994 511.613
-1.47438 8.87637 -5.04092 558.512 501.34
0.599938 8.52566 -7.17006 567.373 499.278
2.81227 8.41581 -5.1143 576.67 500.732
2.91042 9.02981 -4.47429 576.877 503.695
0.73142 9.46656 -6.23716 567.613 503.784
-1.43241 9.48945 -4.49738 558.486 504.224
3 20 21 23
3 21 22 23
3 0 1 36
3 15 16 45
3 0 17 36
3 16 26 45
3 17 18 37
3 25 26 44
3 17 36 37
3 26 44 45
3 18 19 38
3 24 25 43
3 18 37 38
3 25 43 44
3 19 20 38
3 23 24 43
3 20 21 39
3 22 23 42
3 20 38 39
3 23 42 43
3 21 22 27
3 21 27 39
3 22 27 42
3 27 28 42
3 27 28 39
3 28 42 47
3 28 39 40
3 1 36 41
3 15 45 46
3 1 2 41
3 14 15 46
3 28 29 40
3 28 29 47
3 2 40 41
3 14 46 47
3 2 29 40
3 14 29 47
3 2 3 29
3 13 14 29
3 29 30 31
3 29 30 35
3 3 29 31
3 13 29 35
3 30 32 33
3 30 33 34
3 30 31 32
3 30 34 35
3 3 4 31
3 12 13 35
3 4 5 48
3 11 12 54
3 5 6 48
3 10 11 54
3 6 48 59
3 10 54 55
3 6 7 59
3 9 10 55
3 7 58 59
3 9 55 56
3 8 57 58
3 8 56 57
3 7 8 58
3 8 9 56
3 4 31 48
3 12 35 54
3 31 48 49
3 35 53 54
3 31 49 50
3 35 52 53
3 31 32 50
3 34 35 52
3 32 33 50
3 33 34 52
3 33 50 51
3 33 51 52
3 48 49 60
3 49 60 50
3 50 60 61
3 50 51 61
3 51 52 61
3 61 62 52
3 52 53 62
3 53 54 62
3 54 55 63
3 55 56 63
3 56 63 64
3 56 57 64
3 64 65 57
3 57 58 65
3 58 59 65
3 48 59 65
