ply
format ascii 1.0
element vertex 66
property float x
property float y
property float z
property float u
property float v
element face 91
property list uchar int vertex_indices
end_header
-19.0266 -5.64312 20.7064 484.174 447.721
-18.4839 -0.528682 20.2081 484.04 470.231
-17.6111 4.54315 19.8335 485.402 492.768
-16.2792 9.51377 18.1341 488.671 514.417
-14.3616 14.2282 13.4483 494.262 533.73
-11.5915 18.4785 7.8943 503.735 550.968
-7.948 22.0417 3.14156 517.51 565.986
-3.55442 24.6592 -0.859056 535.158 577.566
1.52274 25.2458 -4.55313 556.852 580.679
6.44501 23.8405 -0.785259 579.802 578.656
10.2505 20.4462 3.35964 598.822 567.548
13.3383 16.4076 8.09886 615.056 553.566
15.6561 11.9162 13.6044 628.203 537.613
17.1473 7.0372 18.3674 637.782 519.201
17.9592 1.90379 20.2075 644.095 497.904
18.2481 -3.30385 20.6525 647.947 475.345
18.1967 -8.52903 20.9855 650.287 452.495
-15.0272 -15.4433 0.150857 503.903 396.268
-13.2711 -17.1844 -1.57944 512.286 388.566
-10.9243 -18.0776 -2.95561 522.92 385.047
-8.40499 -18.2512 -4.31709 533.97 384.781
-5.91955 -17.8261 -5.53852 544.601 387.203
3.15861 -18.5713 -5.39889 585.142 388.221
5.72147 -19.4824 -4.17792 597.081 386.011
8.42717 -19.7465 -2.77914 609.363 386.802
11.0656 -19.1163 -1.3708 620.916 391.502
13.1471 -17.4401 0.360781 629.543 400.706
-1.12534 -12.2179 -5.01605 563.171 414.371
-0.992139 -9.43527 -7.63258 562.073 425.38
-0.847099 -6.66634 -10.3007 561.027 436.308
-0.685864 -3.91549 -12.8879 560.072 447.204
-2.80088 -0.175206 -5.80814 549.837 466.188
-1.56704 -0.0488137 -6.89235 555.093 466.781
-0.290083 -0.0758384 -7.97692 560.613 466.719
1.03902 -0.264883 -6.87215 566.729 467.054
2.28809 -0.6084 -5.93425 572.544 466.589
-10.7492 -10.7525 -1.37288 520.364 418.145
-9.54567 -11.8216 -1.12917 526.237 414.122
-7.87351 -12.1212 -0.853075 533.816 413.719
-6.41378 -11.5898 -0.613561 540.049 416.856
-7.71996 -10.6374 -0.993314 533.76 420.25
-9.28297 -10.374 -1.07845 526.706 420.639
4.84867 -12.5929 -0.573971 590.365 417.706
6.20203 -13.3591 -0.806907 596.692 414.849
7.90105 -13.3126 -0.939416 604.169 415.78
9.28216 -12.4736 -1.05638 609.859 420.056
7.89297 -11.8552 -0.844028 603.442 422.236
6.29636 -11.8682 -0.827434 596.387 421.443
-3.85595 10.5159 -2.83334 540.396 514.214
-2.74458 8.79043 -5.01626 545.86 506.057
-1.32631 7.11717 -6.6338 552.73 498.552
0.628526 7.14079 -8.21103 561.16 498.784
2.59839 6.72919 -6.49743 570.299 498.74
4.29557 8.05164 -4.87359 577.382 506.155
5.72743 9.46553 -2.66764 583.324 514.137
4.67163 11.0226 -4.14056 577.707 519.766
3.18218 12.2125 -5.36079 570.383 523.703
1.15981 12.8131 -6.76739 560.961 524.707
-0.875821 12.6501 -5.46251 552.205 523.688
-2.58179 11.8637 -4.20914 545.202 520.055
-0.420935 9.25394 -4.85921 555.937 509.256
0.810682 8.86542 -6.9809 561.295 507.068
2.11252 8.9348 -4.90879 567.293 509.007
2.10248 9.58758 -4.44998 566.993 512.102
0.90311 10.1174 -6.10198 561.214 513.056
-0.319394 9.91668 -4.45487 556.119 512.42
3 20 21 23
3 21 22 23
3 0 1 36
3 15 16 45
3 0 17 36
3 16 26 45
3 17 18 37
3 25 26 44
3 17 36 37
3 26 44 45
3 18 19 38
3 24 25 43
3 18 37 38
3 25 43 44
3 19 20 38
3 23 24 43
3 20 21 39
3 22 23 42
3 20 38 39
3 23 42 43
3 21 22 27
3 21 27 39
3 22 27 42
3 27 28 42
3 27 28 39
3 28 42 47
3 28 39 40
3 1 36 41
3 15 45 46
3 1 2 41
3 14 15 46
3 28 29 40
3 28 29 47
3 2 40 41
3 14 46 47
3 2 29 40
3 14 29 47
3 2 3 29
3 13 14 29
3 29 30 31
3 29 30 35
3 3 29 31
3 13 29 35
3 30 32 33
3 30 33 34
3 30 31 32
3 30 34 35
3 3 4 31
3 12 13 35
3 4 5 48
3 11 12 54
3 5 6 48
3 10 11 54
3 6 48 59
3 10 54 55
3 6 7 59
3 9 10 55
3 7 58 59
3 9 55 56
3 8 57 58
3 8 56 57
3 7 8 58
3 8 9 56
3 4 31 48
3 12 35 54
3 31 48 49
3 35 53 54
3 31 49 50
3 35 52 53
3 31 32 50
3 34 35 52
3 32 33 50
3 33 34 52
3 33 50 51
3 33 51 52
3 48 49 60
3 49 60 50
3 50 60 61
3 50 51 61
3 51 52 61
3 61 62 52
3 52 53 62
3 53 54 62
3 54 55 63
3 55 56 63
3 56 63 64
3 56 57 64
3 64 65 57
3 57 58 65
3 58 59 65
3 48 59 65
