ply
format ascii 1.0
element vertex 66
property float x
property float y
property float z
property float u
property float v
element face 91
property list uchar int vertex_indices
end_header
-20.2498 -5.8716 21.0967 481.586 445.601
-19.7387 -0.609037 20.6462 482.184 467.865
-18.8761 4.6054 20.3024 484.31 490.088
-17.5496 9.65323 18.1792 488.379 510.71
-15.4085 14.3094 13.4467 495.918 528.398
-12.0286 18.1779 7.85945 508.96 542.602
-7.68701 21.062 3.18553 526.471 553.424
-2.73431 22.8979 -0.840948 546.951 560.339
2.61075 22.9084 -4.43926 569.683 559.852
7.24563 21.6172 -0.865842 590.145 557.758
11.1051 18.8764 3.39769 607.75 549.675
14.411 15.5658 8.18496 623.179 539.311
16.7693 11.5816 13.8152 634.79 526.295
18.0515 7.02463 18.4979 641.904 509.988
18.6611 2.16587 20.7497 646.091 490.802
18.9316 -2.83722 21.0705 648.762 469.792
18.978 -7.83727 21.5208 650.478 448.804
-16.2062 -15.2283 0.183582 500.592 394.93
-14.094 -16.9415 -1.47647 510.074 387.298
-11.4612 -17.6969 -2.96042 521.513 383.99
-8.7307 -17.7503 -4.34629 533.168 383.753
-6.07733 -17.2043 -5.60772 544.319 386.112
3.53718 -17.7852 -5.38918 585.749 386.542
6.35684 -18.7676 -4.14339 598.206 383.897
9.32895 -19.1137 -2.71401 611.136 384.106
12.264 -18.5139 -1.26398 623.627 388.339
14.6312 -16.7226 0.385762 633.337 397.589
-1.37703 -11.4792 -5.08407 562.803 412.114
-1.33519 -8.53473 -7.6894 561.962 423.144
-1.26957 -5.62186 -10.4939 561.223 433.932
-1.16007 -2.73111 -13.2773 560.679 444.651
-3.54296 0.421093 -6.06602 549.907 461.523
-2.20783 0.631916 -7.12099 555.514 462.196
-0.833246 0.636057 -8.18065 561.352 462
0.718877 0.390153 -7.14179 568.14 462.001
2.19529 -0.0462147 -6.03371 574.664 461.21
-12.0778 -10.1356 -1.16652 516.709 416.997
-10.5179 -11.3197 -1.09948 523.758 412.451
-8.50327 -11.5023 -1.01304 532.46 412.305
-6.80762 -10.6603 -0.708867 539.499 416.55
-8.48488 -9.87205 -0.999481 532.053 419.25
-10.3504 -9.65266 -1.10736 523.979 419.583
5.81425 -11.7257 -1.01464 593.946 415.485
7.43115 -12.7227 -0.938138 601.184 411.757
9.45255 -12.6828 -0.770998 609.853 412.606
11.1411 -11.6854 -0.658411 616.805 417.399
9.44484 -11.075 -0.876778 609.334 419.379
7.55993 -11.063 -1.04458 601.236 418.789
-5.7844 9.81277 -2.85923 537.662 502.658
-3.98844 8.26822 -5.01018 545.711 495.369
-1.99634 6.91223 -6.66023 554.572 489.227
0.314423 6.92058 -8.23734 564.397 489.02
2.67814 6.43362 -6.50538 574.776 488.63
5.0144 7.32447 -4.87526 584.621 494.031
7.30428 8.41804 -2.9063 594.225 500.476
5.63199 10.048 -4.08055 586.501 506.248
3.51174 11.138 -5.32652 577.012 509.552
1.09168 11.696 -6.60138 566.395 510.492
-1.45107 11.7633 -5.41528 555.531 510.728
-3.85058 11.1752 -4.27512 545.475 508.193
-1.52093 8.89402 -5.12651 556.103 498.674
0.561241 8.58986 -7.35781 565.006 496.696
2.81532 8.34576 -5.29307 574.86 497.498
2.90012 8.72388 -4.58149 575.149 499.541
0.696622 9.14562 -6.32229 565.477 499.695
-1.45358 9.25568 -4.55473 556.315 500.561
3 20 21 23
3 21 22 23
3 0 1 36
3 15 16 45
3 0 17 36
3 16 26 45
3 17 18 37
3 25 26 44
3 17 36 37
3 26 44 45
3 18 19 38
3 24 25 43
3 18 37 38
3 25 43 44
3 19 20 38
3 23 24 43
3 20 21 39
3 22 23 42
3 20 38 39
3 23 42 43
3 21 22 27
3 21 27 39
3 22 27 42
3 27 28 42
3 27 28 39
3 28 42 47
3 28 39 40
3 1 36 41
3 15 45 46
3 1 2 41
3 14 15 46
3 28 29 40
3 28 29 47
3 2 40 41
3 14 46 47
3 2 29 40
3 14 29 47
3 2 3 29
3 13 14 29
3 29 30 31
3 29 30 35
3 3 29 31
3 13 29 35
3 30 32 33
3 30 33 34
3 30 31 32
3 30 34 35
3 3 4 31
3 12 13 35
3 4 5 48
3 11 12 54
3 5 6 48
3 10 11 54
3 6 48 59
3 10 54 55
3 6 7 59
3 9 10 55
3 7 58 59
3 9 55 56
3 8 57 58
3 8 56 57
3 7 8 58
3 8 9 56
3 4 31 48
3 12 35 54
3 31 48 49
3 35 53 54
3 31 49 50
3 35 52 53
3 31 32 50
3 34 35 52
3 32 33 50
3 33 34 52
3 33 50 51
3 33 51 52
3 48 49 60
3 49 60 50
3 50 60 61
3 50 51 61
3 51 52 61
3 61 62 52
3 52 53 62
3 53 54 62
3 54 55 63
3 55 56 63
3 56 63 64
3 56 57 64
3 64 65 57
3 57 58 65
3 58 59 65
3 48 59 65
