ply
format ascii 1.0
element vertex 66
property float x
property float y
property float z
property float u
property float v
element face 91
property list uchar int vertex_indices
end_header
-20.0779 -5.91131 21.0789 484.367 448.693
-19.4899 -0.625663 20.6917 485.188 470.696
-18.542 4.59352 20.2241 487.547 492.492
-17.1461 9.6387 18.2723 491.891 512.872
-15.0602 14.262 13.4525 499.36 530.103
-11.8969 18.2061 7.93629 511.597 544.453
-7.85609 21.3595 3.23313 527.749 556.24
-3.1357 23.5265 -0.81953 547.049 564.495
2.12777 23.7812 -4.60861 569.228 565.097
6.95291 22.4613 -0.82279 589.821 563.243
10.8216 19.4374 3.41242 606.914 554.235
14.025 15.8001 8.19223 621.384 542.765
16.3675 11.6317 13.7513 632.375 529.245
17.7617 6.98256 18.4788 639.555 512.955
18.527 2.00464 20.5834 644.276 493.625
18.8679 -3.11875 21.0445 647.309 472.633
18.8955 -8.26184 21.3729 649.034 451.385
-16.1388 -15.0308 0.214951 504.463 400.223
-14.1953 -16.9765 -1.55332 513.307 391.735
-11.6116 -17.9106 -3.00223 524.514 387.846
-8.87393 -18.0414 -4.35763 536.114 387.407
-6.19924 -17.5241 -5.55649 547.239 389.737
3.31599 -17.9641 -5.41519 587.398 390.991
6.06023 -18.9897 -4.17876 599.225 388.277
8.98069 -19.3402 -2.75479 611.575 388.538
11.8741 -18.7584 -1.29796 623.517 392.695
14.2107 -16.9696 0.378231 632.73 401.831
-1.15996 -11.7979 -4.9961 566.615 415.517
-1.09643 -9.05217 -7.68317 566.102 425.477
-1.0152 -6.32963 -10.4503 565.674 435.301
-0.90007 -3.62296 -13.1586 565.391 445.102
-2.37919 0.285057 -5.9821 557.713 464.95
-1.44508 0.184773 -7.03449 561.707 464.237
-0.532381 0.0721629 -8.12601 565.615 463.445
0.523401 0.0279048 -7.01548 570.036 464.217
1.59136 -0.0327114 -5.95082 574.513 464.899
-11.9128 -10.1067 -1.14931 520.732 421.323
-10.2618 -11.5228 -1.14885 528.122 415.942
-8.02463 -11.746 -1.10404 537.602 415.744
-6.18946 -10.7093 -0.756188 544.984 420.841
-7.98431 -9.69162 -1.06004 537.123 424.346
-10.0405 -9.43601 -1.08221 528.394 424.748
5.25003 -11.6476 -0.956554 593.404 420.436
6.94799 -12.8682 -1.00791 600.932 415.855
9.18522 -12.8562 -0.843656 610.334 416.705
10.9977 -11.6653 -0.705328 617.578 422.32
9.21122 -10.8131 -0.858984 609.8 425.222
7.14254 -10.8014 -1.04708 601.101 424.511
-5.00589 9.82679 -2.80939 543.56 505.676
-3.39673 8.27941 -5.06982 550.887 498.467
-1.6678 6.80708 -6.73711 558.675 491.941
0.428969 6.82856 -8.2708 567.536 491.834
2.56909 6.4268 -6.5507 576.611 491.8
4.58761 7.54291 -4.89823 584.698 498.018
6.57163 8.73045 -2.79881 592.604 504.773
5.20723 10.4239 -4.16392 586.374 510.636
3.35474 11.641 -5.42919 578.238 514.414
1.07442 12.221 -6.79055 568.507 515.348
-1.2892 12.1391 -5.54052 558.551 514.96
-3.39471 11.3271 -4.28427 549.911 511.613
-1.3252 8.90024 -5.03025 559.403 501.732
0.634988 8.58992 -7.17172 567.814 499.858
2.72223 8.46636 -5.10616 576.567 501.161
2.80973 8.95092 -4.48204 576.763 503.559
0.748706 9.3819 -6.20713 568.012 503.736
-1.29758 9.38412 -4.49265 559.35 504.06
3 20 21 23
3 21 22 23
3 0 1 36
3 15 16 45
3 0 17 36
3 16 26 45
3 17 18 37
3 25 26 44
3 17 36 37
3 26 44 45
3 18 19 38
3 24 25 43
3 18 37 38
3 25 43 44
3 19 20 38
3 23 24 43
3 20 21 39
3 22 23 42
3 20 38 39
3 23 42 43
3 21 22 27
3 21 27 39
3 22 27 42
3 27 28 42
3 27 28 39
3 28 42 47
3 28 39 40
3 1 36 41
3 15 45 46
3 1 2 41
3 14 15 46
3 28 29 40
3 28 29 47
3 2 40 41
3 14 46 47
3 2 29 40
3 14 29 47
3 2 3 29
3 13 14 29
3 29 30 31
3 29 30 35
3 3 29 31
3 13 29 35
3 30 32 33
3 30 33 34
3 30 31 32
3 30 34 35
3 3 4 31
3 12 13 35
3 4 5 48
3 11 12 54
3 5 6 48
3 10 11 54
3 6 48 59
3 10 54 55
3 6 7 59
3 9 10 55
3 7 58 59
3 9 55 56
3 8 57 58
3 8 56 57
3 7 8 58
3 8 9 56
3 4 31 48
3 12 35 54
3 31 48 49
3 35 53 54
3 31 49 50
3 35 52 53
3 31 32 50
3 34 35 52
3 32 33 50
3 33 34 52
3 33 50 51
3 33 51 52
3 48 49 60
3 49 60 50
3 50 60 61
3 50 51 61
3 51 52 61
3 61 62 52
3 52 53 62
3 53 54 62
3 54 55 63
3 55 56 63
3 56 63 64
3 56 57 64
3 64 65 57
3 57 58 65
3 58 59 65
3 48 59 65
