ply
format ascii 1.0
element vertex 66
property float x
property float y
property float z
property float u
property float v
element face 91
property list uchar int vertex_indices
end_header
-19.8007 -6.13742 21.0448 483.426 448.734
-19.1979 -0.777886 20.6703 484.49 471.424
-18.2385 4.50921 20.1458 487.113 493.823
-16.871 9.65304 18.2496 491.632 514.92
-14.9022 14.4232 13.461 499.059 532.89
-11.861 18.5213 7.9113 511.333 547.876
-7.8814 21.7817 3.19834 527.802 560.084
-3.18817 24.0111 -0.817986 547.571 568.545
2.06275 24.3047 -4.61903 570.271 569.089
6.89631 22.8819 -0.778804 591.085 566.771
10.6878 19.6677 3.43 607.925 556.764
13.7847 15.8513 8.19086 621.921 544.326
16.0452 11.5499 13.7334 632.414 530.046
17.4572 6.85658 18.3861 639.455 513.323
18.2752 1.91366 20.4498 644.226 493.827
18.6485 -3.14779 20.9322 647.248 472.755
18.684 -8.23874 21.1904 648.85 451.325
-15.9054 -15.141 0.167473 504.33 399.288
-14.015 -17.05 -1.57479 513.113 390.716
-11.4867 -17.9708 -3.00461 524.318 386.711
-8.79884 -18.0874 -4.36633 535.969 386.204
-6.16231 -17.5777 -5.57816 547.208 388.428
3.28292 -17.9449 -5.46563 587.759 389.739
5.94916 -18.9272 -4.2091 599.364 387.111
8.78334 -19.2683 -2.77408 611.49 387.358
11.5864 -18.7004 -1.32626 623.219 391.459
13.834 -16.9546 0.335301 632.213 400.519
-1.12365 -11.9187 -5.04035 567.113 414.246
-1.10955 -9.37692 -7.67052 566.644 423.468
-1.07898 -6.85456 -10.3704 566.256 432.571
-1.01209 -4.35037 -13.0482 566.028 441.621
-2.18868 -0.0182206 -5.87813 559.181 463.91
-1.34849 -0.169313 -6.95343 562.907 462.879
-0.538173 -0.28901 -8.09516 566.501 461.933
0.400676 -0.30313 -6.92003 570.435 462.85
1.36075 -0.295097 -5.86827 574.463 463.794
-11.6786 -10.2813 -1.24326 521.139 420.317
-10.1539 -11.6553 -1.17413 528.061 414.982
-8.03415 -11.902 -1.05495 537.202 414.636
-6.30488 -10.9347 -0.693304 544.301 419.467
-7.96736 -9.83766 -1.05466 536.892 423.412
-9.92199 -9.57979 -1.0824 528.448 423.909
5.32437 -11.8519 -0.931762 594.392 418.885
6.91154 -12.9529 -0.986246 601.511 414.653
9.01718 -12.9069 -0.87034 610.507 415.542
10.6788 -11.728 -0.772323 617.276 421.093
9.02474 -10.8671 -0.851008 609.949 424.207
7.0712 -10.8953 -1.04402 601.606 423.394
-4.43455 10.2803 -2.82894 546.353 508.739
-3.10623 8.52591 -5.11083 552.725 500.335
-1.57417 6.77788 -6.77421 559.921 492.386
0.475719 6.74803 -8.26719 568.825 491.98
2.57937 6.39782 -6.52179 577.8 492.156
4.43454 7.795 -4.88459 585.216 499.606
6.14718 9.23617 -2.78602 591.972 507.475
4.91092 10.7149 -4.13346 586.355 512.579
3.27021 11.8198 -5.39716 579.107 516.028
1.17627 12.3929 -6.80666 570.082 516.999
-1.00793 12.2975 -5.55685 560.658 516.69
-2.92383 11.5847 -4.28383 552.559 513.855
-0.975623 8.91263 -4.97137 561.728 502.69
0.704748 8.50964 -7.04299 569.202 500.248
2.53457 8.51427 -4.99413 576.879 502.028
2.59733 9.20217 -4.41302 576.904 505.31
0.862575 9.65789 -6.12697 569.476 505.71
-0.863629 9.59988 -4.47894 561.971 505.931
3 20 21 23
3 21 22 23
3 0 1 36
3 15 16 45
3 0 17 36
3 16 26 45
3 17 18 37
3 25 26 44
3 17 36 37
3 26 44 45
3 18 19 38
3 24 25 43
3 18 37 38
3 25 43 44
3 19 20 38
3 23 24 43
3 20 21 39
3 22 23 42
3 20 38 39
3 23 42 43
3 21 22 27
3 21 27 39
3 22 27 42
3 27 28 42
3 27 28 39
3 28 42 47
3 28 39 40
3 1 36 41
3 15 45 46
3 1 2 41
3 14 15 46
3 28 29 40
3 28 29 47
3 2 40 41
3 14 46 47
3 2 29 40
3 14 29 47
3 2 3 29
3 13 14 29
3 29 30 31
3 29 30 35
3 3 29 31
3 13 29 35
3 30 32 33
3 30 33 34
3 30 31 32
3 30 34 35
3 3 4 31
3 12 13 35
3 4 5 48
3 11 12 54
3 5 6 48
3 10 11 54
3 6 48 59
3 10 54 55
3 6 7 59
3 9 10 55
3 7 58 59
3 9 55 56
3 8 57 58
3 8 56 57
3 7 8 58
3 8 9 56
3 4 31 48
3 12 35 54
3 31 48 49
3 35 53 54
3 31 49 50
3 35 52 53
3 31 32 50
3 34 35 52
3 32 33 50
3 33 34 52
3 33 50 51
3 33 51 52
3 48 49 60
3 49 60 50
3 50 60 61
3 50 51 61
3 51 52 61
3 61 62 52
3 52 53 62
3 53 54 62
3 54 55 63
3 55 56 63
3 56 63 64
3 56 57 64
3 64 65 57
3 57 58 65
3 58 59 65
3 48 59 65
