ply
format ascii 1.0
element vertex 66
property float x
property float y
property float z
property float u
property float v
element face 91
property list uchar int vertex_indices
end_header
-19.8668 -6.09417 21.0798 480.024 447.633
-19.2403 -0.714822 20.6246 481.663 471.109
-18.2613 4.60217 20.15 484.868 494.381
-16.9044 9.78363 18.2367 489.88 516.456
-14.9203 14.5813 13.3942 497.965 535.591
-11.7951 18.6561 7.87363 511.284 551.489
-7.72352 21.8449 3.1883 528.896 564.118
-2.95626 23.9499 -0.844835 549.754 572.467
2.31211 24.128 -4.53289 573.207 572.655
7.02906 22.6636 -0.791643 594.005 569.078
10.7276 19.4646 3.46478 610.65 557.926
13.7602 15.6909 8.20775 624.449 544.342
15.9924 11.4565 13.7044 634.762 528.923
17.3982 6.85904 18.3689 641.578 511.332
18.2076 2.04227 20.4506 646.016 491.416
18.6166 -2.88955 20.8356 648.848 470.096
18.7132 -7.83786 21.1772 650.31 448.613
-15.9751 -15.2971 0.163586 500.771 398.208
-13.9746 -17.0906 -1.5758 510.103 389.968
-11.4243 -17.9716 -3.00021 521.635 385.996
-8.72602 -18.105 -4.34606 533.653 385.369
-6.07228 -17.613 -5.54899 545.329 387.538
3.28808 -17.9179 -5.43703 586.612 388.335
5.9882 -18.8338 -4.19789 598.604 385.516
8.8402 -19.1159 -2.77969 611.115 385.592
11.6455 -18.5216 -1.35022 623.232 389.5
13.9269 -16.8222 0.333675 632.784 398.253
-1.19247 -11.9167 -5.02117 565.556 413.816
-1.19637 -9.023 -7.70294 565.125 425.204
-1.18309 -6.15037 -10.459 564.781 436.469
-1.12684 -3.29403 -13.1199 564.622 447.717
-2.75346 0.294663 -6.00092 556.133 466.471
-1.70518 0.34327 -7.03112 560.819 466.424
-0.645477 0.305886 -8.10194 565.578 465.984
0.548911 0.176282 -7.00262 570.781 466.207
1.70498 -0.0401221 -5.97316 575.839 466.008
-11.651 -10.5357 -1.24163 518.902 419.346
-10.1376 -11.7189 -1.14861 525.814 414.545
-8.14816 -11.9429 -0.996614 534.613 414.079
-6.47884 -11.117 -0.650299 541.761 418.231
-8.11675 -10.264 -0.989341 534.39 421.441
-9.96122 -10.0379 -1.07576 526.224 421.98
5.52047 -12.0327 -0.99956 594.833 416.72
7.07718 -12.9388 -0.951651 601.881 413.122
9.04021 -12.8649 -0.826767 610.501 413.941
10.6381 -11.8428 -0.718244 617.31 418.823
9.01334 -11.2317 -0.847006 610.033 421.076
7.18225 -11.2732 -1.03495 601.992 420.398
-4.79639 10.151 -2.81653 544.769 510.696
-3.42801 8.33461 -5.1169 551.365 501.947
-1.74505 6.66155 -6.74666 559.264 494.217
0.425785 6.63081 -8.26552 568.95 493.839
2.6556 6.24344 -6.45474 578.713 493.503
4.6779 7.51297 -4.86121 587.223 500.272
6.48092 8.99692 -2.79596 594.684 508.157
5.1513 10.5254 -4.02978 588.595 513.965
3.40344 11.6471 -5.23658 580.75 517.912
1.23265 12.2226 -6.67506 571.178 519.262
-1.06588 12.1807 -5.42385 560.966 519.166
-3.1365 11.4895 -4.24291 551.903 516.244
-1.00918 8.83672 -5.01808 561.903 504.73
0.694719 8.45334 -7.12207 569.653 502.425
2.57485 8.39929 -5.04288 577.784 503.599
2.63979 9.01532 -4.41831 577.889 506.609
0.875971 9.45954 -6.17792 570.162 507.322
-0.861637 9.44608 -4.51018 562.382 507.674
3 20 21 23
3 21 22 23
3 0 1 36
3 15 16 45
3 0 17 36
3 16 26 45
3 17 18 37
3 25 26 44
3 17 36 37
3 26 44 45
3 18 19 38
3 24 25 43
3 18 37 38
3 25 43 44
3 19 20 38
3 23 24 43
3 20 21 39
3 22 23 42
3 20 38 39
3 23 42 43
3 21 22 27
3 21 27 39
3 22 27 42
3 27 28 42
3 27 28 39
3 28 42 47
3 28 39 40
3 1 36 41
3 15 45 46
3 1 2 41
3 14 15 46
3 28 29 40
3 28 29 47
3 2 40 41
3 14 46 47
3 2 29 40
3 14 29 47
3 2 3 29
3 13 14 29
3 29 30 31
3 29 30 35
3 3 29 31
3 13 29 35
3 30 32 33
3 30 33 34
3 30 31 32
3 30 34 35
3 3 4 31
3 12 13 35
3 4 5 48
3 11 12 54
3 5 6 48
3 10 11 54
3 6 48 59
3 10 54 55
3 6 7 59
3 9 10 55
3 7 58 59
3 9 55 56
3 8 57 58
3 8 56 57
3 7 8 58
3 8 9 56
3 4 31 48
3 12 35 54
3 31 48 49
3 35 53 54
3 31 49 50
3 35 52 53
3 31 32 50
3 34 35 52
3 32 33 50
3 33 34 52
3 33 50 51
3 33 51 52
3 48 49 60
3 49 60 50
3 50 60 61
3 50 51 61
3 51 52 61
3 61 62 52
3 52 53 62
3 53 54 62
3 54 55 63
3 55 56 63
3 56 63 64
3 56 57 64
3 64 65 57
3 57 58 65
3 58 59 65
3 48 59 65
