ply
format ascii 1.0
element vertex 66
property float x
property float y
property float z
property float u
property float v
element face 91
property list uchar int vertex_indices
end_header
-20.3158 -5.87576 21.1149 483.676 444.857
-19.8382 -0.637765 20.6685 484.264 466.827
-18.9989 4.55098 20.3325 486.409 488.758
-17.6797 9.58534 18.1833 490.678 509.021
-15.5102 14.2461 13.4728 498.726 526.317
-12.0889 18.1064 7.85781 512.358 540.008
-7.71135 20.9663 3.18454 530.335 550.336
-2.73367 22.7726 -0.837916 551.158 556.796
2.61241 22.7867 -4.42121 574.045 556.068
7.24182 21.5125 -0.873492 594.108 554.225
11.1283 18.8247 3.39592 611.378 546.664
14.4751 15.5565 8.18501 626.497 536.832
16.8719 11.5893 13.8493 637.739 524.339
18.1698 7.01914 18.5204 644.473 508.364
18.7702 2.15732 20.8058 648.351 489.45
19.0299 -2.83857 21.1262 650.846 468.629
19.0634 -7.83024 21.5688 652.372 447.839
-16.2239 -15.189 0.180226 504.107 393.383
-14.1234 -16.8824 -1.46284 513.576 385.773
-11.4945 -17.6196 -2.95326 525.034 382.445
-8.76826 -17.6671 -4.34318 536.713 382.121
-6.11701 -17.1374 -5.62041 547.909 384.284
3.4826 -17.6944 -5.39975 589.053 384.741
6.34514 -18.6757 -4.13925 601.528 382.192
9.35481 -19.0313 -2.70827 614.454 382.435
12.3236 -18.4274 -1.2574 626.939 386.732
14.7004 -16.6151 0.375453 636.555 396.081
-1.42048 -11.4498 -5.09236 566.371 409.943
-1.38472 -8.59036 -7.67173 565.772 420.392
-1.32412 -5.76412 -10.4849 565.293 430.558
-1.21699 -2.96357 -13.3138 565.019 440.62
-3.83779 0.472328 -6.11948 552.746 458.965
-2.37176 0.74211 -7.15105 558.949 459.858
-0.857753 0.76192 -8.19026 565.427 459.703
0.84452 0.472964 -7.17646 572.759 459.599
2.45416 -0.0476195 -6.09979 579.758 458.531
-12.1749 -10.0156 -1.13342 519.979 415.522
-10.5904 -11.2601 -1.10417 527.091 410.725
-8.51979 -11.4244 -1.04474 535.978 410.645
-6.78273 -10.5228 -0.727464 543.139 415.137
-8.49806 -9.70645 -1.00532 535.592 417.931
-10.4086 -9.48237 -1.11036 527.372 418.279
5.80229 -11.5882 -1.04255 597.182 413.936
7.45596 -12.6515 -0.980158 604.539 409.945
9.53166 -12.6287 -0.774792 613.393 410.749
11.2567 -11.58 -0.610872 620.464 415.761
9.52548 -10.9186 -0.874628 612.892 417.906
7.59254 -10.9035 -1.05059 604.637 417.32
-6.05539 9.75559 -2.83824 540.634 499.633
-4.17831 8.19988 -4.977 549.12 492.229
-2.08367 6.86808 -6.65051 558.464 486.125
0.320082 6.87944 -8.22051 568.753 485.845
2.78373 6.36863 -6.49171 579.386 485.47
5.23193 7.21264 -4.83967 589.576 490.763
7.62835 8.28969 -2.88732 599.476 497.216
5.85222 9.94708 -4.06928 591.45 502.971
3.61593 11.0292 -5.33904 581.621 506.114
1.10908 11.5818 -6.60321 570.784 506.948
-1.51373 11.6793 -5.42868 559.537 507.376
-4.02364 11.126 -4.26235 548.953 505.082
-1.68688 8.8621 -5.14031 559.577 495.614
0.573021 8.57737 -7.3766 569.346 493.621
3.01136 8.27433 -5.32679 579.807 494.32
3.09986 8.61602 -4.62025 580.077 496.236
0.705377 9.04379 -6.39654 569.764 496.249
-1.62532 9.18522 -4.57749 559.74 497.353
3 20 21 23
3 21 22 23
3 0 1 36
3 15 16 45
3 0 17 36
3 16 26 45
3 17 18 37
3 25 26 44
3 17 36 37
3 26 44 45
3 18 19 38
3 24 25 43
3 18 37 38
3 25 43 44
3 19 20 38
3 23 24 43
3 20 21 39
3 22 23 42
3 20 38 39
3 23 42 43
3 21 22 27
3 21 27 39
3 22 27 42
3 27 28 42
3 27 28 39
3 28 42 47
3 28 39 40
3 1 36 41
3 15 45 46
3 1 2 41
3 14 15 46
3 28 29 40
3 28 29 47
3 2 40 41
3 14 46 47
3 2 29 40
3 14 29 47
3 2 3 29
3 13 14 29
3 29 30 31
3 29 30 35
3 3 29 31
3 13 29 35
3 30 32 33
3 30 33 34
3 30 31 32
3 30 34 35
3 3 4 31
3 12 13 35
3 4 5 48
3 11 12 54
3 5 6 48
3 10 11 54
3 6 48 59
3 10 54 55
3 6 7 59
3 9 10 55
3 7 58 59
3 9 55 56
3 8 57 58
3 8 56 57
3 7 8 58
3 8 9 56
3 4 31 48
3 12 35 54
3 31 48 49
3 35 53 54
3 31 49 50
3 35 52 53
3 31 32 50
3 34 35 52
3 32 33 50
3 33 34 52
3 33 50 51
3 33 51 52
3 48 49 60
3 49 60 50
3 50 60 61
3 50 51 61
3 51 52 61
3 61 62 52
3 52 53 62
3 53 54 62
3 54 55 63
3 55 56 63
3 56 63 64
3 56 57 64
3 64 65 57
3 57 58 65
3 58 59 65
3 48 59 65
