ply
format ascii 1.0
element vertex 66
property float x
property float y
property float z
property float u
property float v
element face 91
property list uchar int vertex_indices
end_header
-20.1809 -6.06578 21.5638 480.225 445.632
-19.4712 -0.623862 20.8629 482.407 469.217
-18.4946 4.79122 20.2972 485.744 492.807
-17.2475 10.0562 18.2973 490.546 515.105
-15.2722 14.7957 13.5543 499.121 533.937
-12.0754 18.6213 7.90017 513.397 548.595
-8.03283 21.5997 2.96427 531.427 560.078
-3.38699 23.6249 -1.04267 552.133 567.974
1.76681 23.8452 -4.57237 575.337 568.323
6.70284 22.4833 -0.906362 596.651 565.19
10.6204 19.2649 3.22805 613.771 553.957
13.8277 15.4276 8.19078 627.747 540.271
16.3192 11.1758 13.7959 638.55 524.932
17.9062 6.5564 18.2377 645.651 507.234
18.6568 1.7405 20.3764 649.513 487.388
18.954 -3.17988 20.7653 651.706 466.144
18.8961 -8.09418 21.3127 652.31 444.928
-16.2742 -14.4467 0.217287 502.691 399.536
-14.1211 -16.2539 -1.46473 512.789 391.285
-11.4566 -17.21 -2.88176 524.922 386.988
-8.62815 -17.3762 -4.1696 537.601 386.239
-5.82873 -16.9443 -5.34084 550.016 388.153
3.3642 -17.1012 -5.45359 590.447 389.361
5.8734 -17.8754 -4.16053 601.396 387.134
8.53409 -18.1243 -2.75795 612.889 387.289
11.1827 -17.7294 -1.25426 624.188 390.301
13.5264 -16.4627 0.348686 633.96 397.106
-0.575559 -11.1017 -4.95339 571.891 414.977
-0.533587 -8.30097 -7.8136 572.025 425.839
-0.49503 -5.52065 -10.7515 572.162 436.574
-0.441676 -2.74549 -13.5362 572.338 447.363
-4.20314 1.0789 -6.83691 553.919 466.509
-2.10478 1.7631 -7.40417 563.102 469.669
0.118814 1.97194 -7.93803 572.92 470.794
2.2612 1.49964 -7.34695 582.321 469.47
4.2161 0.563646 -6.74014 590.985 466.089
-11.9314 -10.1042 -0.76512 521.094 418.952
-10.128 -10.9664 -1.0641 529.234 415.423
-8.10937 -11.0759 -1.35256 538.172 415.233
-6.29463 -10.3367 -1.01027 545.941 419.012
-8.1963 -10.0051 -0.978636 537.518 420.073
-10.1051 -9.88542 -1.03598 529.121 420.164
5.35207 -11.0387 -1.28172 597.283 418.281
7.01632 -11.8357 -1.30936 604.753 415.138
8.9531 -11.9492 -0.855016 613.204 415.273
10.7405 -11.2569 -0.447828 620.851 418.872
8.99402 -10.8768 -0.914335 613.186 419.937
7.15257 -10.8373 -1.03249 605.11 419.662
-9.0271 7.41463 -2.41854 530.739 495.299
-6.33375 5.70043 -4.71206 543.298 487.274
-3.04789 4.74955 -6.491 558.222 482.956
0.401469 4.60356 -8.22314 573.701 482.213
3.82209 4.28229 -6.19692 588.439 482.512
7.16387 4.74324 -4.40984 602.721 486.097
9.99052 6.12234 -2.29909 614.506 493.74
8.11182 9.51622 -3.75574 605.846 507.465
5.1095 12.0604 -4.99131 592.378 517.346
1.15664 12.969 -6.54365 575.106 519.728
-2.98557 12.6488 -5.20131 556.742 518.1
-6.48216 10.5725 -3.95258 541.57 508.893
-4.13663 6.46457 -5.24787 552.893 490.818
0.582543 6.10695 -7.7555 574.124 489.044
5.31579 5.8013 -5.04175 594.507 490.023
5.93748 9.58449 -4.26822 596.37 507.055
0.99134 10.8148 -6.52073 574.794 510.294
-4.11182 10.3101 -4.51047 552.129 507.979
3 20 21 23
3 21 22 23
3 0 1 36
3 15 16 45
3 0 17 36
3 16 26 45
3 17 18 37
3 25 26 44
3 17 36 37
3 26 44 45
3 18 19 38
3 24 25 43
3 18 37 38
3 25 43 44
3 19 20 38
3 23 24 43
3 20 21 39
3 22 23 42
3 20 38 39
3 23 42 43
3 21 22 27
3 21 27 39
3 22 27 42
3 27 28 42
3 27 28 39
3 28 42 47
3 28 39 40
3 1 36 41
3 15 45 46
3 1 2 41
3 14 15 46
3 28 29 40
3 28 29 47
3 2 40 41
3 14 46 47
3 2 29 40
3 14 29 47
3 2 3 29
3 13 14 29
3 29 30 31
3 29 30 35
3 3 29 31
3 13 29 35
3 30 32 33
3 30 33 34
3 30 31 32
3 30 34 35
3 3 4 31
3 12 13 35
3 4 5 48
3 11 12 54
3 5 6 48
3 10 11 54
3 6 48 59
3 10 54 55
3 6 7 59
3 9 10 55
3 7 58 59
3 9 55 56
3 8 57 58
3 8 56 57
3 7 8 58
3 8 9 56
3 4 31 48
3 12 35 54
3 31 48 49
3 35 53 54
3 31 49 50
3 35 52 53
3 31 32 50
3 34 35 52
3 32 33 50
3 33 34 52
3 33 50 51
3 33 51 52
3 48 49 60
3 49 60 50
3 50 60 61
3 50 51 61
3 51 52 61
3 61 62 52
3 52 53 62
3 53 54 62
3 54 55 63
3 55 56 63
3 56 63 64
3 56 57 64
3 64 65 57
3 57 58 65
3 58 59 65
3 48 59 65
