ply
format ascii 1.0
element vertex 66
property float x
property float y
property float z
property float u
property float v
element face 91
property list uchar int vertex_indices
end_header
-19.1633 -5.63011 20.7579 485.877 446.149
-18.6427 -0.454509 20.2952 485.198 468.777
-17.797 4.68131 19.8706 485.975 491.419
-16.4511 9.68212 18.1432 488.701 513.096
-14.4642 14.3529 13.3935 493.683 532.19
-11.608 18.519 7.88462 502.568 549.164
-7.91715 22.0244 3.10123 515.648 564.044
-3.49984 24.6232 -0.896932 532.599 575.731
1.62202 25.1664 -4.59355 553.839 578.963
6.60959 23.7712 -0.785513 577.376 577.335
10.4857 20.3943 3.30389 597.203 566.618
13.6076 16.3477 8.09969 614.265 552.931
15.911 11.8286 13.5859 628.17 537.094
17.3336 6.91986 18.3785 638.263 518.758
18.0627 1.73091 20.1806 644.748 497.378
18.2438 -3.54121 20.6411 648.552 474.694
18.0813 -8.82136 21.0128 650.836 451.752
-15.0226 -15.3376 0.223349 504.38 395.917
-13.272 -17.1595 -1.56628 512.617 388.005
-10.8983 -18.0879 -2.92876 523.195 384.525
-8.34811 -18.246 -4.25998 534.13 384.514
-5.84444 -17.7827 -5.45753 544.552 387.254
3.44042 -18.5889 -5.35409 585.69 388.624
5.91001 -19.4755 -4.15131 597.287 386.63
8.52686 -19.7239 -2.77633 609.219 387.581
11.0773 -19.0957 -1.37036 620.386 392.338
13.085 -17.4333 0.417674 628.699 401.511
-0.940044 -11.8262 -5.00624 562.867 416.019
-0.787637 -9.10376 -7.66752 561.392 426.677
-0.626594 -6.39294 -10.3556 559.955 437.275
-0.459508 -3.69627 -12.9328 558.579 447.869
-2.83372 -0.0568884 -5.99329 547.859 465.903
-1.51553 0.0800084 -6.93551 553.329 466.726
-0.155212 0.0580385 -7.89107 559.068 466.872
1.21898 -0.122441 -6.90463 565.426 467.283
2.52147 -0.457353 -6.01945 571.53 466.932
-10.6508 -10.7082 -1.29633 520.615 417.651
-9.32687 -11.8743 -1.15587 527.09 413.322
-7.5101 -12.1119 -0.964318 535.225 413.325
-5.98701 -11.3315 -0.577494 541.561 417.712
-7.41832 -10.3848 -0.949595 534.68 420.916
-9.0995 -10.1679 -1.05171 527.172 420.936
4.51243 -12.2338 -0.528415 588.059 419.269
5.90095 -13.2468 -0.883553 594.612 415.399
7.73627 -13.2832 -0.994606 602.645 416.142
9.23013 -12.3356 -1.0866 608.645 421.01
7.77729 -11.5583 -0.882539 601.903 423.744
6.07675 -11.5178 -0.831892 594.444 423.06
-4.39887 10.0466 -2.73585 536.234 510.763
-3.18414 8.27834 -4.98443 541.983 502.582
-1.60133 6.66182 -6.61762 549.409 495.555
0.49865 6.6652 -8.2038 558.222 495.889
2.59258 6.3037 -6.53684 567.996 496.217
4.39706 7.61288 -4.87758 575.582 503.68
5.86403 9.12317 -2.58933 581.732 512.152
4.83043 10.9781 -4.09429 575.819 518.971
3.24039 12.4089 -5.38364 567.755 523.756
0.996932 13.056 -6.79796 557.229 524.72
-1.28648 12.8121 -5.46147 547.685 523.119
-3.11238 11.7222 -4.17693 540.598 518.04
-1.08313 8.73113 -4.87251 550.964 505.707
0.639735 8.29346 -7.07288 558.218 503.619
2.39947 8.41504 -4.86586 566.394 506.145
2.49145 9.83916 -4.38159 566.131 512.643
0.783678 10.4874 -6.15733 557.863 513.715
-0.994738 10.1729 -4.43 550.665 512.26
3 20 21 23
3 21 22 23
3 0 1 36
3 15 16 45
3 0 17 36
3 16 26 45
3 17 18 37
3 25 26 44
3 17 36 37
3 26 44 45
3 18 19 38
3 24 25 43
3 18 37 38
3 25 43 44
3 19 20 38
3 23 24 43
3 20 21 39
3 22 23 42
3 20 38 39
3 23 42 43
3 21 22 27
3 21 27 39
3 22 27 42
3 27 28 42
3 27 28 39
3 28 42 47
3 28 39 40
3 1 36 41
3 15 45 46
3 1 2 41
3 14 15 46
3 28 29 40
3 28 29 47
3 2 40 41
3 14 46 47
3 2 29 40
3 14 29 47
3 2 3 29
3 13 14 29
3 29 30 31
3 29 30 35
3 3 29 31
3 13 29 35
3 30 32 33
3 30 33 34
3 30 31 32
3 30 34 35
3 3 4 31
3 12 13 35
3 4 5 48
3 11 12 54
3 5 6 48
3 10 11 54
3 6 48 59
3 10 54 55
3 6 7 59
3 9 10 55
3 7 58 59
3 9 55 56
3 8 57 58
3 8 56 57
3 7 8 58
3 8 9 56
3 4 31 48
3 12 35 54
3 31 48 49
3 35 53 54
3 31 49 50
3 35 52 53
3 31 32 50
3 34 35 52
3 32 33 50
3 33 34 52
3 33 50 51
3 33 51 52
3 48 49 60
3 49 60 50
3 50 60 61
3 50 51 61
3 51 52 61
3 61 62 52
3 52 53 62
3 53 54 62
3 54 55 63
3 55 56 63
3 56 63 64
3 56 57 64
3 64 65 57
3 57 58 65
3 58 59 65
3 48 59 65
