ply
format ascii 1.0
element vertex 66
property float x
property float y
property float z
property float u
property float v
element face 91
property list uchar int vertex_indices
end_header
-20.2782 -5.76741 21.0769 481.764 445.677
-19.7796 -0.540929 20.6123 482.312 467.71
-18.9173 4.63904 20.2919 484.436 489.737
-17.5688 9.65552 18.1962 488.619 510.167
-15.3785 14.2819 13.427 496.413 527.613
-11.9842 18.1464 7.85244 509.556 541.706
-7.66417 21.0644 3.19021 526.983 552.592
-2.71977 22.9195 -0.837253 547.426 559.527
2.62153 22.9415 -4.41968 570.136 559.068
7.2496 21.6399 -0.874501 590.479 556.985
11.098 18.892 3.39406 607.948 548.97
14.3854 15.5627 8.18187 623.212 538.631
16.7456 11.5733 13.8177 634.739 525.723
18.0523 7.01101 18.5341 641.891 509.536
18.6802 2.13982 20.7688 646.13 490.38
18.9582 -2.87307 21.0767 648.836 469.387
19.0032 -7.87986 21.5461 650.549 448.446
-16.2134 -15.1345 0.203746 501.124 394.848
-14.1456 -16.8646 -1.47957 510.426 387.123
-11.5327 -17.6346 -2.95554 521.78 383.75
-8.81275 -17.6981 -4.33964 533.385 383.458
-6.16646 -17.1726 -5.60354 544.503 385.714
3.58903 -17.7628 -5.38783 586.444 386.182
6.42139 -18.7559 -4.1344 598.916 383.535
9.40556 -19.1153 -2.69795 611.855 383.727
12.3513 -18.5163 -1.25248 624.342 387.977
14.7125 -16.7141 0.394002 633.975 397.277
-1.39701 -11.4617 -5.07071 563.226 411.633
-1.3546 -8.48604 -7.69983 562.409 422.715
-1.28701 -5.54045 -10.5148 561.701 433.567
-1.17484 -2.61669 -13.2844 561.192 444.366
-3.81936 0.512384 -6.13649 549.224 461.073
-2.36538 0.805666 -7.15498 555.318 462.141
-0.854442 0.837913 -8.16779 561.735 462.121
0.844723 0.541281 -7.18057 569.136 461.94
2.44349 0.00463422 -6.09709 576.184 460.769
-12.1266 -10.1096 -1.16628 517.054 416.539
-10.5185 -11.3318 -1.10754 524.306 411.86
-8.44141 -11.5078 -1.01864 533.253 411.772
-6.69038 -10.6331 -0.696461 540.498 416.181
-8.42537 -9.84624 -0.98867 532.825 418.839
-10.3452 -9.61928 -1.1078 524.535 419.172
5.7974 -11.7177 -1.01341 594.261 415.035
7.46865 -12.7623 -0.935257 601.731 411.139
9.5558 -12.7298 -0.765516 610.662 411.985
11.3018 -11.7046 -0.650134 617.832 416.909
9.54853 -11.0808 -0.876293 610.132 418.91
7.60523 -11.0622 -1.0425 601.801 418.324
-5.74271 9.70799 -2.82306 538.369 501.456
-3.99787 8.15247 -4.98602 546.216 494.095
-2.00788 6.84433 -6.64712 555.058 488.15
0.286445 6.87459 -8.24009 564.805 488.008
2.63755 6.36781 -6.50286 575.09 487.568
4.97059 7.21703 -4.85782 584.888 492.818
7.22464 8.3219 -2.88239 594.285 499.324
5.56978 9.96865 -4.06385 586.66 505.128
3.46386 11.0712 -5.33562 577.264 508.44
1.05595 11.6313 -6.62687 566.737 509.353
-1.46856 11.6989 -5.41376 555.961 509.618
-3.84809 11.0972 -4.24247 546.004 507.063
-1.54062 8.8304 -5.11558 556.525 497.609
0.528451 8.55122 -7.35945 565.373 495.707
2.77218 8.28013 -5.30387 575.142 496.422
2.84868 8.62932 -4.59662 575.393 498.342
0.655643 9.06505 -6.35574 565.804 498.514
-1.4814 9.16222 -4.55301 556.701 499.365
3 20 21 23
3 21 22 23
3 0 1 36
3 15 16 45
3 0 17 36
3 16 26 45
3 17 18 37
3 25 26 44
3 17 36 37
3 26 44 45
3 18 19 38
3 24 25 43
3 18 37 38
3 25 43 44
3 19 20 38
3 23 24 43
3 20 21 39
3 22 23 42
3 20 38 39
3 23 42 43
3 21 22 27
3 21 27 39
3 22 27 42
3 27 28 42
3 27 28 39
3 28 42 47
3 28 39 40
3 1 36 41
3 15 45 46
3 1 2 41
3 14 15 46
3 28 29 40
3 28 29 47
3 2 40 41
3 14 46 47
3 2 29 40
3 14 29 47
3 2 3 29
3 13 14 29
3 29 30 31
3 29 30 35
3 3 29 31
3 13 29 35
3 30 32 33
3 30 33 34
3 30 31 32
3 30 34 35
3 3 4 31
3 12 13 35
3 4 5 48
3 11 12 54
3 5 6 48
3 10 11 54
3 6 48 59
3 10 54 55
3 6 7 59
3 9 10 55
3 7 58 59
3 9 55 56
3 8 57 58
3 8 56 57
3 7 8 58
3 8 9 56
3 4 31 48
3 12 35 54
3 31 48 49
3 35 53 54
3 31 49 50
3 35 52 53
3 31 32 50
3 34 35 52
3 32 33 50
3 33 34 52
3 33 50 51
3 33 51 52
3 48 49 60
3 49 60 50
3 50 60 61
3 50 51 61
3 51 52 61
3 61 62 52
3 52 53 62
3 53 54 62
3 54 55 63
3 55 56 63
3 56 63 64
3 56 57 64
3 64 65 57
3 57 58 65
3 58 59 65
3 48 59 65
