ply
format ascii 1.0
element vertex 66
property float x
property float y
property float z
property float u
property float v
element face 91
property list uchar int vertex_indices
end_header
-19.8822 -6.12497 21.1996 483.4 449.137
-19.2735 -0.756154 20.8241 484.819 472.031
-18.3512 4.55332 20.3241 487.619 494.678
-17.0473 9.71968 18.2904 492.267 515.945
-15.0802 14.4778 13.4975 500.176 534.078
-11.9278 18.4381 7.96421 513.463 548.674
-7.84193 21.4866 3.21254 530.9 560.04
-3.1417 23.5646 -0.849093 551.136 567.794
2.04624 23.8064 -4.60758 573.866 567.986
6.84174 22.4441 -0.797543 594.437 565.475
10.6842 19.347 3.43033 611.255 555.549
13.8797 15.6587 8.22767 625.357 543.256
16.2359 11.4429 13.7458 635.883 528.907
17.6609 6.81604 18.3461 642.591 512.057
18.4035 1.98584 20.5243 646.673 492.809
18.6983 -2.94908 20.9255 649.046 472.006
18.675 -7.90222 21.1965 650.066 450.974
-16.193 -15.0162 0.165578 503.708 400.205
-14.1907 -16.9456 -1.56911 512.983 391.47
-11.5586 -17.9048 -3.01378 524.715 387.202
-8.75793 -18.0608 -4.35935 536.977 386.464
-5.99735 -17.5738 -5.54688 548.899 388.555
3.21883 -17.8264 -5.49566 588.691 389.76
5.88861 -18.7244 -4.23793 600.271 387.28
8.71454 -19.0007 -2.81562 612.362 387.59
11.504 -18.4657 -1.3418 624.102 391.388
13.791 -16.8301 0.334912 633.397 399.884
-0.957879 -11.9978 -5.00304 569.273 413.936
-0.915184 -9.20765 -7.65825 569.104 424.385
-0.86249 -6.44359 -10.4483 568.999 434.649
-0.780293 -3.70012 -13.215 569.023 444.845
-2.49948 0.0566213 -5.97663 559.934 464.554
-1.40928 0.00526721 -7.03276 564.764 464.008
-0.335591 -0.0782598 -8.14258 569.536 463.29
0.802056 -0.141622 -6.993 574.329 463.944
1.94346 -0.246145 -5.9283 579.156 464.374
-11.7985 -10.3195 -1.10511 521.707 420.649
-10.2045 -11.7073 -1.12265 528.905 415.095
-8.03687 -11.9175 -1.09954 538.297 414.74
-6.26201 -10.8498 -0.727115 545.661 419.949
-8.00844 -9.89274 -1.01328 537.94 423.453
-9.99184 -9.66437 -1.05484 529.339 423.92
5.1946 -11.6422 -0.972557 595.271 419.227
6.80387 -12.8112 -1.03685 602.489 414.587
8.93555 -12.8183 -0.855389 611.662 415.18
10.6397 -11.6098 -0.690283 618.711 420.857
8.94098 -10.7981 -0.865707 611.217 423.813
6.97894 -10.8189 -1.02693 602.78 423.154
-5.69392 9.92292 -2.83077 543.519 507.726
-3.9136 8.20871 -5.06598 551.842 499.576
-1.92075 6.61293 -6.71459 560.989 492.315
0.496617 6.6022 -8.23141 571.583 492.008
2.92761 6.22263 -6.45313 581.956 491.98
5.17092 7.43931 -4.82841 591.165 498.644
7.24858 8.84124 -2.78807 599.572 506.293
5.76011 10.6582 -4.14341 592.882 512.937
3.69402 11.9295 -5.35176 583.812 517.188
1.18492 12.5067 -6.73817 573.014 518.263
-1.44628 12.4099 -5.51837 561.555 517.89
-3.82051 11.5364 -4.3124 551.387 514.251
-1.58823 8.79987 -5.09522 561.735 502.657
0.725583 8.46393 -7.21927 572.025 500.594
3.13986 8.37069 -5.0447 582.216 502.008
3.2618 9.17269 -4.44759 582.489 505.802
0.894436 9.63759 -6.26243 572.375 506.191
-1.49221 9.60735 -4.56087 561.902 506.433
3 20 21 23
3 21 22 23
3 0 1 36
3 15 16 45
3 0 17 36
3 16 26 45
3 17 18 37
3 25 26 44
3 17 36 37
3 26 44 45
3 18 19 38
3 24 25 43
3 18 37 38
3 25 43 44
3 19 20 38
3 23 24 43
3 20 21 39
3 22 23 42
3 20 38 39
3 23 42 43
3 21 22 27
3 21 27 39
3 22 27 42
3 27 28 42
3 27 28 39
3 28 42 47
3 28 39 40
3 1 36 41
3 15 45 46
3 1 2 41
3 14 15 46
3 28 29 40
3 28 29 47
3 2 40 41
3 14 46 47
3 2 29 40
3 14 29 47
3 2 3 29
3 13 14 29
3 29 30 31
3 29 30 35
3 3 29 31
3 13 29 35
3 30 32 33
3 30 33 34
3 30 31 32
3 30 34 35
3 3 4 31
3 12 13 35
3 4 5 48
3 11 12 54
3 5 6 48
3 10 11 54
3 6 48 59
3 10 54 55
3 6 7 59
3 9 10 55
3 7 58 59
3 9 55 56
3 8 57 58
3 8 56 57
3 7 8 58
3 8 9 56
3 4 31 48
3 12 35 54
3 31 48 49
3 35 53 54
3 31 49 50
3 35 52 53
3 31 32 50
3 34 35 52
3 32 33 50
3 33 34 52
3 33 50 51
3 33 51 52
3 48 49 60
3 49 60 50
3 50 60 61
3 50 51 61
3 51 52 61
3 61 62 52
3 52 53 62
3 53 54 62
3 54 55 63
3 55 56 63
3 56 63 64
3 56 57 64
3 64 65 57
3 57 58 65
3 58 59 65
3 48 59 65
