ply
format ascii 1.0
element vertex 66
property float x
property float y
property float z
property float u
property float v
element face 91
property list uchar int vertex_indices
end_header
-20.3225 -5.83704 21.1316 486.85 444.713
-19.8103 -0.56994 20.6851 487.424 466.817
-18.9475 4.64884 20.3451 489.511 488.889
-17.6189 9.697 18.1901 493.593 509.222
-15.4501 14.3437 13.4586 501.316 526.47
-12.0292 18.1843 7.86049 514.608 540.134
-7.65252 21.0298 3.18931 532.306 550.47
-2.66985 22.8135 -0.848089 552.93 556.908
2.68549 22.7864 -4.43638 575.707 556.098
7.30434 21.4971 -0.871989 595.908 554.295
11.1655 18.7881 3.40656 613.325 546.73
14.4695 15.5007 8.20619 628.553 536.889
16.8119 11.5284 13.8618 639.906 524.416
18.0781 6.98165 18.518 646.814 508.562
18.6748 2.13907 20.799 650.893 489.748
18.9428 -2.85081 21.1 653.562 468.953
18.9922 -7.83494 21.5605 655.299 448.22
-16.2877 -15.184 0.184147 506.374 393.108
-14.1504 -16.889 -1.46107 515.974 385.497
-11.4914 -17.6252 -2.95296 527.511 382.228
-8.74224 -17.6666 -4.34809 539.223 381.98
-6.07331 -17.1139 -5.61999 550.416 384.296
3.54338 -17.6487 -5.4228 591.636 385.018
6.38392 -18.6395 -4.15919 604.096 382.483
9.37876 -18.9997 -2.71227 617.028 382.773
12.3429 -18.4223 -1.25284 629.543 387.019
14.7393 -16.6422 0.368697 639.274 396.279
-1.37931 -11.4747 -5.08529 568.753 409.837
-1.34529 -8.51021 -7.68775 567.93 420.704
-1.28737 -5.57932 -10.5085 567.214 431.298
-1.18413 -2.67215 -13.3195 566.698 441.812
-3.70811 0.414979 -6.09773 555.171 458.696
-2.30764 0.655693 -7.1465 561.05 459.46
-0.863578 0.669193 -8.19564 567.183 459.277
0.764357 0.406427 -7.17337 574.239 459.302
2.31154 -0.0643803 -6.04447 581.016 458.492
-12.275 -10.0968 -1.15474 521.923 414.924
-10.6244 -11.2889 -1.0924 529.334 410.42
-8.52864 -11.4682 -1.01194 538.337 410.337
-6.75057 -10.6219 -0.706438 545.678 414.632
-8.52278 -9.87535 -0.987366 537.878 417.079
-10.4673 -9.64621 -1.10299 529.504 417.395
5.85368 -11.6755 -1.05704 599.796 413.701
7.55843 -12.6728 -0.937152 607.379 410.073
9.65854 -12.6281 -0.756867 616.336 411
11.4277 -11.6233 -0.643368 623.585 415.839
9.64144 -11.0528 -0.886499 615.78 417.563
7.67961 -11.0486 -1.06647 607.4 416.884
-5.90692 9.74865 -2.85549 543.031 499.512
-4.07388 8.22862 -4.98952 551.263 492.28
-2.0406 6.92542 -6.65021 560.296 486.324
0.28366 6.94968 -8.23785 570.17 486.105
2.6615 6.45155 -6.4958 580.517 485.817
5.03458 7.29338 -4.85386 590.434 491.121
7.36624 8.36207 -2.92329 600.113 497.555
5.64606 9.96315 -4.07982 592.253 503.067
3.48827 11.0136 -5.33026 582.69 506.065
1.06022 11.5554 -6.60069 572.127 506.822
-1.49858 11.6408 -5.41776 561.208 507.177
-3.93342 11.0877 -4.28088 551.012 504.843
-1.69251 8.87325 -5.14818 561.229 495.607
0.52752 8.58342 -7.4021 570.736 493.607
2.92473 8.30791 -5.32089 581.107 494.481
3.0077 8.62927 -4.59524 581.382 496.324
0.661399 9.04851 -6.36523 571.193 496.271
-1.62915 9.1759 -4.5704 561.422 497.272
3 20 21 23
3 21 22 23
3 0 1 36
3 15 16 45
3 0 17 36
3 16 26 45
3 17 18 37
3 25 26 44
3 17 36 37
3 26 44 45
3 18 19 38
3 24 25 43
3 18 37 38
3 25 43 44
3 19 20 38
3 23 24 43
3 20 21 39
3 22 23 42
3 20 38 39
3 23 42 43
3 21 22 27
3 21 27 39
3 22 27 42
3 27 28 42
3 27 28 39
3 28 42 47
3 28 39 40
3 1 36 41
3 15 45 46
3 1 2 41
3 14 15 46
3 28 29 40
3 28 29 47
3 2 40 41
3 14 46 47
3 2 29 40
3 14 29 47
3 2 3 29
3 13 14 29
3 29 30 31
3 29 30 35
3 3 29 31
3 13 29 35
3 30 32 33
3 30 33 34
3 30 31 32
3 30 34 35
3 3 4 31
3 12 13 35
3 4 5 48
3 11 12 54
3 5 6 48
3 10 11 54
3 6 48 59
3 10 54 55
3 6 7 59
3 9 10 55
3 7 58 59
3 9 55 56
3 8 57 58
3 8 56 57
3 7 8 58
3 8 9 56
3 4 31 48
3 12 35 54
3 31 48 49
3 35 53 54
3 31 49 50
3 35 52 53
3 31 32 50
3 34 35 52
3 32 33 50
3 33 34 52
3 33 50 51
3 33 51 52
3 48 49 60
3 49 60 50
3 50 60 61
3 50 51 61
3 51 52 61
3 61 62 52
3 52 53 62
3 53 54 62
3 54 55 63
3 55 56 63
3 56 63 64
3 56 57 64
3 64 65 57
3 57 58 65
3 58 59 65
3 48 59 65
