ply
format ascii 1.0
element vertex 66
property float x
property float y
property float z
property float u
property float v
element face 91
property list uchar int vertex_indices
end_header
-20.2725 -5.94186 21.1945 487.582 444.937
-19.7563 -0.654254 20.7648 488.297 467.171
-18.9031 4.58351 20.4012 490.468 489.329
-17.6241 9.66852 18.183 494.467 509.805
-15.5328 14.3813 13.4913 501.994 527.395
-12.128 18.2443 7.8581 515.355 541.168
-7.71506 21.0399 3.16499 533.341 551.288
-2.71303 22.7659 -0.857224 554.157 557.463
2.62412 22.7387 -4.44945 576.905 556.583
7.23903 21.4441 -0.859218 597.058 554.605
11.1252 18.751 3.40919 614.503 546.934
14.4695 15.4813 8.20918 629.803 537.006
16.8399 11.5017 13.8651 641.156 524.34
18.0994 6.94475 18.4903 647.904 508.287
18.6775 2.13197 20.8291 651.768 489.547
18.9428 -2.81375 21.1411 654.294 468.899
18.9946 -7.75864 21.5581 655.909 448.262
-16.3298 -15.2311 0.167096 506.634 393.684
-14.1709 -16.9232 -1.45344 516.304 386.114
-11.4993 -17.6495 -2.95305 527.897 382.846
-8.7385 -17.685 -4.34949 539.678 382.587
-6.05597 -17.1255 -5.62557 550.961 384.897
3.56861 -17.6674 -5.43319 592.248 385.368
6.41048 -18.6271 -4.17268 604.686 382.873
9.40055 -18.9614 -2.73375 617.586 383.173
12.3494 -18.3589 -1.26738 630.047 387.441
14.7194 -16.5579 0.369366 639.701 396.724
-1.36525 -11.4565 -5.08895 569.429 410.491
-1.33921 -8.52761 -7.6714 568.67 421.28
-1.29112 -5.63378 -10.5005 568.01 431.773
-1.19787 -2.76589 -13.3529 567.551 442.155
-3.57357 0.387966 -6.0539 556.653 459.371
-2.22252 0.593911 -7.14076 562.348 459.938
-0.838608 0.603177 -8.23399 568.239 459.679
0.711242 0.355318 -7.16788 574.952 459.718
2.19345 -0.0744316 -6.03294 581.429 459.012
-12.3954 -10.0223 -1.10144 521.964 416.002
-10.8016 -11.3113 -1.08323 529.137 411
-8.69969 -11.4855 -1.05733 538.169 410.857
-6.96142 -10.5179 -0.75217 545.332 415.616
-8.68966 -9.67558 -1.0188 537.706 418.537
-10.6216 -9.45811 -1.10142 529.387 418.875
5.94565 -11.5633 -1.09861 600.778 414.524
7.58516 -12.6639 -1.00828 608.095 410.376
9.68097 -12.638 -0.767415 617.049 411.211
11.4017 -11.5276 -0.589428 624.095 416.489
9.67458 -10.8452 -0.880685 616.517 418.719
7.73284 -10.8409 -1.08464 608.214 418.078
-6.14453 9.77603 -2.88194 543.095 500.334
-4.21135 8.22204 -5.00487 551.751 492.975
-2.09657 6.86368 -6.66531 561.138 486.781
0.32496 6.86182 -8.23806 571.457 486.461
2.79672 6.36733 -6.49046 582.193 486.134
5.25585 7.23306 -4.8528 592.49 491.487
7.67953 8.32133 -2.92147 602.58 497.953
5.88238 9.94744 -4.08124 594.422 503.616
3.63186 11.0023 -5.32092 584.485 506.689
1.12788 11.5505 -6.5839 573.606 507.535
-1.51187 11.6452 -5.42761 562.32 507.929
-4.05467 11.1143 -4.30462 551.624 505.683
-1.66704 8.82123 -5.16656 562.454 496.107
0.585548 8.54149 -7.40473 572.116 494.153
3.00993 8.24648 -5.31581 582.599 494.868
3.11057 8.61956 -4.58388 582.939 496.928
0.730361 9.03298 -6.33009 572.618 496.938
-1.59398 9.17934 -4.58086 562.677 498.005
3 20 21 23
3 21 22 23
3 0 1 36
3 15 16 45
3 0 17 36
3 16 26 45
3 17 18 37
3 25 26 44
3 17 36 37
3 26 44 45
3 18 19 38
3 24 25 43
3 18 37 38
3 25 43 44
3 19 20 38
3 23 24 43
3 20 21 39
3 22 23 42
3 20 38 39
3 23 42 43
3 21 22 27
3 21 27 39
3 22 27 42
3 27 28 42
3 27 28 39
3 28 42 47
3 28 39 40
3 1 36 41
3 15 45 46
3 1 2 41
3 14 15 46
3 28 29 40
3 28 29 47
3 2 40 41
3 14 46 47
3 2 29 40
3 14 29 47
3 2 3 29
3 13 14 29
3 29 30 31
3 29 30 35
3 3 29 31
3 13 29 35
3 30 32 33
3 30 33 34
3 30 31 32
3 30 34 35
3 3 4 31
3 12 13 35
3 4 5 48
3 11 12 54
3 5 6 48
3 10 11 54
3 6 48 59
3 10 54 55
3 6 7 59
3 9 10 55
3 7 58 59
3 9 55 56
3 8 57 58
3 8 56 57
3 7 8 58
3 8 9 56
3 4 31 48
3 12 35 54
3 31 48 49
3 35 53 54
3 31 49 50
3 35 52 53
3 31 32 50
3 34 35 52
3 32 33 50
3 33 34 52
3 33 50 51
3 33 51 52
3 48 49 60
3 49 60 50
3 50 60 61
3 50 51 61
3 51 52 61
3 61 62 52
3 52 53 62
3 53 54 62
3 54 55 63
3 55 56 63
3 56 63 64
3 56 57 64
3 64 65 57
3 57 58 65
3 58 59 65
3 48 59 65
