ply
format ascii 1.0
element vertex 66
property float x
property float y
property float z
property float u
property float v
element face 91
property list uchar int vertex_indices
end_header
-18.9161 -5.46661 20.6508 484.289 449.315
-18.3676 -0.494363 20.1351 484.152 471.071
-17.4978 4.43306 19.7631 485.471 492.869
-16.1836 9.32526 18.0766 488.631 513.978
-14.3154 14.0929 13.4157 493.987 533.114
-11.6398 18.4637 7.85143 503.012 550.389
-8.09165 22.136 3.13275 516.33 565.51
-3.7856 24.8555 -0.854985 533.551 577.243
1.19355 25.6066 -4.57871 554.763 580.83
6.1533 24.2177 -0.780034 577.758 579.324
10.0191 20.8037 3.36893 596.98 568.615
13.1743 16.6876 8.0477 613.476 554.786
15.561 12.0659 13.5594 626.92 538.844
17.1017 7.03001 18.3656 636.764 520.273
17.9667 1.80242 20.2291 643.412 498.855
18.3097 -3.45001 20.7262 647.624 476.295
18.3046 -8.72923 21.0076 650.29 453.325
-14.9937 -15.4015 0.190701 504.458 396.025
-13.3341 -17.1128 -1.58216 512.461 388.323
-11.0628 -18.0039 -2.9481 522.793 384.744
-8.5987 -18.1813 -4.29819 533.619 384.395
-6.15723 -17.7804 -5.50049 544.069 386.652
3.04679 -18.5392 -5.39728 585.095 387.863
5.68314 -19.5068 -4.19215 597.348 385.594
8.46055 -19.8065 -2.80386 609.907 386.423
11.1555 -19.1459 -1.39704 621.62 391.43
13.2441 -17.4171 0.367419 630.155 401.026
-1.18715 -12.0334 -5.04688 563.163 414.505
-1.0346 -9.30464 -7.6606 562.187 425.043
-0.871317 -6.58328 -10.303 561.26 435.537
-0.691758 -3.88229 -12.844 560.424 446.008
-2.84088 -0.229954 -5.76787 549.841 465.001
-1.57448 -0.0771054 -6.87786 555.238 465.653
-0.263164 -0.0833179 -7.99207 560.913 465.627
1.10874 -0.318744 -6.88069 567.205 465.897
2.39421 -0.717953 -6.0032 573.174 465.274
-10.6328 -10.6044 -1.43238 521.124 418.235
-9.51285 -11.6656 -1.16648 526.63 414.282
-7.9106 -11.9824 -0.840989 533.898 413.859
-6.48807 -11.5393 -0.591923 539.981 416.634
-7.71632 -10.5513 -0.987393 534.019 420.14
-9.21257 -10.2695 -1.08357 527.261 420.592
4.85472 -12.5943 -0.506561 590.597 417.577
6.17592 -13.3062 -0.846322 596.752 414.907
7.81413 -13.2458 -1.01561 603.936 415.871
9.14138 -12.4474 -1.12542 609.382 419.952
7.79747 -11.8493 -0.83821 603.178 422.082
6.25321 -11.8662 -0.776529 596.376 421.293
-3.64831 10.6223 -2.83557 541.118 513.824
-2.68244 8.74426 -5.02891 546.098 504.815
-1.29194 6.95741 -6.62751 552.968 496.751
0.723157 6.9683 -8.19188 561.695 496.886
2.7689 6.54471 -6.49155 571.118 496.995
4.47169 7.96513 -4.88022 578.09 504.965
5.80443 9.50665 -2.62002 583.435 513.656
4.65295 10.8772 -4.10036 577.505 518.256
3.17581 11.9446 -5.30124 570.32 521.529
1.20826 12.5382 -6.75973 561.181 522.34
-0.723032 12.383 -5.40256 552.876 521.496
-2.36194 11.7557 -4.11664 546.092 518.684
-0.32629 9.02928 -4.82986 556.377 507.323
0.890563 8.61495 -6.91215 561.739 504.911
2.18595 8.69245 -4.9307 567.627 507.011
2.13586 9.53193 -4.4653 567.032 510.93
0.979144 10.1146 -6.05515 561.465 512.013
-0.191403 9.87693 -4.41814 556.589 511.337
3 20 21 23
3 21 22 23
3 0 1 36
3 15 16 45
3 0 17 36
3 16 26 45
3 17 18 37
3 25 26 44
3 17 36 37
3 26 44 45
3 18 19 38
3 24 25 43
3 18 37 38
3 25 43 44
3 19 20 38
3 23 24 43
3 20 21 39
3 22 23 42
3 20 38 39
3 23 42 43
3 21 22 27
3 21 27 39
3 22 27 42
3 27 28 42
3 27 28 39
3 28 42 47
3 28 39 40
3 1 36 41
3 15 45 46
3 1 2 41
3 14 15 46
3 28 29 40
3 28 29 47
3 2 40 41
3 14 46 47
3 2 29 40
3 14 29 47
3 2 3 29
3 13 14 29
3 29 30 31
3 29 30 35
3 3 29 31
3 13 29 35
3 30 32 33
3 30 33 34
3 30 31 32
3 30 34 35
3 3 4 31
3 12 13 35
3 4 5 48
3 11 12 54
3 5 6 48
3 10 11 54
3 6 48 59
3 10 54 55
3 6 7 59
3 9 10 55
3 7 58 59
3 9 55 56
3 8 57 58
3 8 56 57
3 7 8 58
3 8 9 56
3 4 31 48
3 12 35 54
3 31 48 49
3 35 53 54
3 31 49 50
3 35 52 53
3 31 32 50
3 34 35 52
3 32 33 50
3 33 34 52
3 33 50 51
3 33 51 52
3 48 49 60
3 49 60 50
3 50 60 61
3 50 51 61
3 51 52 61
3 61 62 52
3 52 53 62
3 53 54 62
3 54 55 63
3 55 56 63
3 56 63 64
3 56 57 64
3 64 65 57
3 57 58 65
3 58 59 65
3 48 59 65
