ply
format ascii 1.0
element vertex 66
property float x
property float y
property float z
property float u
property float v
element face 91
property list uchar int vertex_indices
end_header
-19.7547 -6.15125 21.0085 483.226 449.613
-19.1504 -0.803836 20.6444 484.501 472.319
-18.2019 4.46865 20.0942 487.286 494.683
-16.835 9.62171 18.2029 491.98 515.839
-14.869 14.4293 13.4238 499.51 533.94
-11.8198 18.5461 7.89475 511.918 548.926
-7.84776 21.8154 3.19173 528.458 561.039
-3.21313 24.124 -0.829097 548.048 569.643
1.9884 24.4928 -4.63818 570.552 570.26
6.83549 23.0683 -0.736247 591.522 567.792
10.6329 19.8023 3.45371 608.424 557.385
13.7515 15.9396 8.17955 622.524 544.585
16.0413 11.5812 13.6763 633.139 529.925
17.462 6.83603 18.3285 640.165 512.886
18.2739 1.88627 20.3528 644.781 493.237
18.6225 -3.14839 20.8388 647.518 472.181
18.6341 -8.21238 21.0772 648.828 450.764
-15.7652 -15.3192 0.171836 503.936 399.058
-13.8941 -17.1668 -1.58755 512.552 390.613
-11.418 -18.081 -3.01351 523.516 386.5
-8.77556 -18.2112 -4.35408 534.992 385.819
-6.172 -17.7241 -5.53026 546.136 387.856
3.2453 -18.0453 -5.44486 586.71 388.965
5.88958 -18.949 -4.23051 598.237 386.529
8.67866 -19.2206 -2.83512 610.216 386.931
11.4105 -18.5959 -1.39791 621.721 391.16
13.5858 -16.8575 0.325654 630.535 400.16
-1.07799 -11.9259 -5.03984 566.554 414.152
-1.05004 -9.4443 -7.65425 566.206 423.153
-1.00926 -6.97908 -10.3313 565.921 432.049
-0.934732 -4.53264 -12.9868 565.785 440.887
-2.02111 -0.129424 -5.82994 559.577 463.665
-1.21153 -0.316723 -6.90556 563.17 462.428
-0.441338 -0.443889 -8.07451 566.584 461.381
0.43207 -0.438958 -6.85378 570.266 462.362
1.33447 -0.387934 -5.82349 574.072 463.432
-11.1485 -10.4829 -1.26945 522.658 419.973
-9.81438 -11.7277 -1.17881 528.703 415.071
-7.93217 -11.9667 -1.01961 536.848 414.633
-6.39303 -11.1119 -0.633203 543.229 418.903
-7.84551 -10.039 -1.00441 536.735 422.873
-9.58584 -9.81219 -1.06134 529.197 423.357
5.19621 -11.9455 -0.847597 593.29 418.209
6.60822 -12.8928 -0.983942 599.609 414.456
8.46988 -12.8245 -0.93051 607.594 415.259
9.91485 -11.7426 -0.854447 613.531 420.284
8.45322 -10.9461 -0.857361 607.046 423.297
6.72266 -10.9891 -0.98862 599.622 422.589
-4.61104 10.4009 -2.84091 545.61 509.637
-3.23121 8.60282 -5.14166 552.134 500.951
-1.6369 6.77029 -6.77675 559.549 492.574
0.529898 6.73166 -8.21913 568.964 492.099
2.74791 6.38908 -6.50029 578.485 492.246
4.66443 7.86786 -4.89344 586.259 500.004
6.40774 9.3612 -2.75793 593.252 508.097
5.12279 10.8839 -4.09828 587.424 513.444
3.40929 12.0116 -5.33971 579.845 517.057
1.23032 12.5918 -6.77033 570.414 518.105
-1.03839 12.4749 -5.53263 560.613 517.768
-3.02475 11.7333 -4.28388 552.183 514.85
-0.926816 8.96063 -4.98599 561.945 503.161
0.760922 8.539 -7.00624 569.43 500.585
2.59227 8.5856 -4.96069 577.171 502.486
2.66012 9.40631 -4.39191 577.222 506.341
0.934739 9.86535 -6.14392 569.792 506.796
-0.788176 9.77864 -4.49468 562.306 506.976
3 20 21 23
3 21 22 23
3 0 1 36
3 15 16 45
3 0 17 36
3 16 26 45
3 17 18 37
3 25 26 44
3 17 36 37
3 26 44 45
3 18 19 38
3 24 25 43
3 18 37 38
3 25 43 44
3 19 20 38
3 23 24 43
3 20 21 39
3 22 23 42
3 20 38 39
3 23 42 43
3 21 22 27
3 21 27 39
3 22 27 42
3 27 28 42
3 27 28 39
3 28 42 47
3 28 39 40
3 1 36 41
3 15 45 46
3 1 2 41
3 14 15 46
3 28 29 40
3 28 29 47
3 2 40 41
3 14 46 47
3 2 29 40
3 14 29 47
3 2 3 29
3 13 14 29
3 29 30 31
3 29 30 35
3 3 29 31
3 13 29 35
3 30 32 33
3 30 33 34
3 30 31 32
3 30 34 35
3 3 4 31
3 12 13 35
3 4 5 48
3 11 12 54
3 5 6 48
3 10 11 54
3 6 48 59
3 10 54 55
3 6 7 59
3 9 10 55
3 7 58 59
3 9 55 56
3 8 57 58
3 8 56 57
3 7 8 58
3 8 9 56
3 4 31 48
3 12 35 54
3 31 48 49
3 35 53 54
3 31 49 50
3 35 52 53
3 31 32 50
3 34 35 52
3 32 33 50
3 33 34 52
3 33 50 51
3 33 51 52
3 48 49 60
3 49 60 50
3 50 60 61
3 50 51 61
3 51 52 61
3 61 62 52
3 52 53 62
3 53 54 62
3 54 55 63
3 55 56 63
3 56 63 64
3 56 57 64
3 64 65 57
3 57 58 65
3 58 59 65
3 48 59 65
