ply
format ascii 1.0
element vertex 66
property float x
property float y
property float z
property float u
property float v
element face 91
property list uchar int vertex_indices
end_header
-19.8702 -6.2595 21.303 482.334 450.915
-19.2518 -0.828541 20.8487 484.03 474.135
-18.2898 4.54871 20.3382 487.24 497.16
-16.9984 9.8094 18.3107 492.1 518.784
-15.0934 14.6839 13.3806 500.079 537.021
-11.9883 18.7575 7.91791 513.503 551.724
-7.96143 21.9366 3.16807 531.019 563.225
-3.26752 24.0336 -0.918867 551.561 570.632
1.91759 24.2987 -4.62409 574.547 570.5
6.76065 22.8426 -0.828242 595.411 567.676
10.582 19.57 3.43307 612.122 557.113
13.6985 15.65 8.205 625.826 543.941
16.0818 11.3001 13.6054 636.343 529.166
17.6011 6.62606 18.2996 643.254 512.362
18.4198 1.81197 20.4908 647.466 493.209
18.7661 -3.08396 20.8698 649.873 472.448
18.7229 -7.99388 21.157 650.6 451.486
-16.2886 -14.7735 0.147835 502.293 401.512
-14.1841 -16.6536 -1.62552 512.042 392.73
-11.4918 -17.5765 -3.01003 524.113 388.44
-8.63368 -17.6803 -4.31498 536.736 387.762
-5.8085 -17.1673 -5.51112 549.083 389.802
3.17798 -17.3744 -5.51478 588.221 390.801
5.83188 -18.2813 -4.23261 599.779 388.275
8.64208 -18.6108 -2.8337 611.889 388.342
11.429 -18.1599 -1.39342 623.741 391.789
13.7743 -16.6464 0.327103 633.43 399.897
-0.830129 -11.4683 -4.97316 569.569 415.728
-0.821387 -8.76669 -7.72502 569.438 425.602
-0.806173 -6.08336 -10.5379 569.346 435.361
-0.763977 -3.41512 -13.2235 569.359 445.142
-3.23432 0.393732 -6.28199 556.978 465.45
-1.74327 0.605254 -7.12263 563.533 466.138
-0.220179 0.626235 -8.01976 570.271 465.976
1.31715 0.408598 -7.07693 576.88 465.965
2.78646 -0.00311621 -6.25264 583.246 465.028
-11.8866 -10.1942 -1.02707 520.709 421.402
-10.1759 -11.3372 -1.1489 528.389 416.765
-8.05186 -11.5241 -1.15853 537.668 416.402
-6.22405 -10.6588 -0.818582 545.409 420.729
-8.06591 -9.96542 -1.00585 537.285 423.206
-10.0438 -9.7636 -1.04079 528.645 423.636
5.20291 -11.4325 -1.09604 595.311 419.628
6.87088 -12.3804 -1.12141 602.755 415.883
8.93642 -12.4238 -0.889942 611.72 416.278
10.7008 -11.4641 -0.603404 619.174 420.964
8.95467 -10.864 -0.851242 611.492 423.022
7.01802 -10.8775 -1.02294 603.091 422.446
-6.22369 9.42597 -2.71698 541.762 505.978
-4.74367 6.90528 -5.04652 548.99 493.951
-2.47277 4.97167 -6.64034 559.45 485.088
0.415791 4.81407 -8.1633 572.245 484.046
3.32158 4.5137 -6.33343 584.71 484.534
5.8646 6.01519 -4.75944 595.28 492.538
7.71025 8.27935 -2.63059 602.597 504.033
6.30132 10.6286 -3.91562 596.177 513.029
4.12124 12.3524 -5.15727 586.518 519.197
1.27678 13.0419 -6.72338 574.211 520.566
-1.71458 12.8755 -5.35706 561.052 520.092
-4.30025 11.5812 -4.10112 549.891 514.778
-2.23172 7.64061 -5.04362 559.776 497.648
0.695415 7.15269 -7.1826 572.882 494.799
3.71911 7.13456 -4.93243 585.751 496.794
3.90995 9.08955 -4.37525 586.13 505.606
0.977486 9.77713 -6.3702 573.496 506.674
-2.01983 9.60988 -4.5478 560.253 506.487
3 20 21 23
3 21 22 23
3 0 1 36
3 15 16 45
3 0 17 36
3 16 26 45
3 17 18 37
3 25 26 44
3 17 36 37
3 26 44 45
3 18 19 38
3 24 25 43
3 18 37 38
3 25 43 44
3 19 20 38
3 23 24 43
3 20 21 39
3 22 23 42
3 20 38 39
3 23 42 43
3 21 22 27
3 21 27 39
3 22 27 42
3 27 28 42
3 27 28 39
3 28 42 47
3 28 39 40
3 1 36 41
3 15 45 46
3 1 2 41
3 14 15 46
3 28 29 40
3 28 29 47
3 2 40 41
3 14 46 47
3 2 29 40
3 14 29 47
3 2 3 29
3 13 14 29
3 29 30 31
3 29 30 35
3 3 29 31
3 13 29 35
3 30 32 33
3 30 33 34
3 30 31 32
3 30 34 35
3 3 4 31
3 12 13 35
3 4 5 48
3 11 12 54
3 5 6 48
3 10 11 54
3 6 48 59
3 10 54 55
3 6 7 59
3 9 10 55
3 7 58 59
3 9 55 56
3 8 57 58
3 8 56 57
3 7 8 58
3 8 9 56
3 4 31 48
3 12 35 54
3 31 48 49
3 35 53 54
3 31 49 50
3 35 52 53
3 31 32 50
3 34 35 52
3 32 33 50
3 33 34 52
3 33 50 51
3 33 51 52
3 48 49 60
3 49 60 50
3 50 60 61
3 50 51 61
3 51 52 61
3 61 62 52
3 52 53 62
3 53 54 62
3 54 55 63
3 55 56 63
3 56 63 64
3 56 57 64
3 64 65 57
3 57 58 65
3 58 59 65
3 48 59 65
