ply
format ascii 1.0
element vertex 66
property float x
property float y
property float z
property float u
property float v
element face 91
property list uchar int vertex_indices
end_header
-19.7103 -6.21085 21.0312 483.48 448.584
-19.119 -0.841727 20.6871 484.546 471.419
-18.1837 4.45256 20.1424 487.128 493.914
-16.8438 9.62507 18.2126 491.582 515.184
-14.9082 14.4614 13.4395 498.896 533.505
-11.8593 18.6076 7.90418 511.244 548.753
-7.85136 21.8756 3.19169 527.903 561.024
-3.15148 24.1234 -0.825685 547.774 569.561
2.09277 24.4372 -4.64411 570.512 570.133
6.89972 22.9848 -0.771874 591.313 567.624
10.6724 19.7384 3.44715 608.144 557.383
13.7736 15.9057 8.19913 622.212 544.768
16.0329 11.5703 13.712 632.746 530.223
17.4183 6.84227 18.3592 639.694 513.24
18.2133 1.90377 20.4496 644.343 493.674
18.5704 -3.13265 20.9412 647.252 472.616
18.6074 -8.20138 21.1597 648.812 451.167
-15.826 -15.2624 0.165431 504.204 398.755
-13.9258 -17.1262 -1.58821 513.022 390.319
-11.4123 -18.0247 -3.02481 524.185 386.36
-8.74198 -18.141 -4.37822 535.798 385.826
-6.12007 -17.6263 -5.57259 547.015 388.061
3.22197 -17.9728 -5.46563 587.279 389.327
5.9039 -18.9359 -4.23517 598.994 386.724
8.74572 -19.2483 -2.81718 611.202 387.05
11.5424 -18.645 -1.37009 622.957 391.281
13.7706 -16.8751 0.332189 631.923 400.469
-1.15427 -11.8896 -5.05858 566.73 414.225
-1.14561 -9.35251 -7.65954 566.244 423.49
-1.12073 -6.83509 -10.3438 565.839 432.626
-1.0575 -4.33852 -13.0215 565.604 441.688
-2.03776 -0.175978 -5.79021 559.709 463.431
-1.2847 -0.400992 -6.90649 563.09 462.025
-0.579692 -0.543606 -8.11308 566.248 460.904
0.257073 -0.522828 -6.87994 569.753 461.964
1.13896 -0.432738 -5.80348 573.443 463.24
-11.4557 -10.3546 -1.26858 521.729 420.06
-10.0145 -11.702 -1.18429 528.298 414.784
-7.98219 -11.9448 -1.04134 537.095 414.418
-6.33427 -10.9954 -0.649839 543.889 419.166
-7.90974 -9.90015 -1.02465 536.834 423.157
-9.7785 -9.65515 -1.07123 528.732 423.638
5.27005 -11.8897 -0.908205 594.061 418.531
6.78089 -12.9505 -1.00016 600.862 414.391
8.79554 -12.8908 -0.898236 609.502 415.283
10.3666 -11.7235 -0.798056 615.925 420.765
8.79024 -10.884 -0.845981 608.915 423.86
6.92538 -10.9204 -1.02228 600.917 423.066
-4.54173 10.4107 -2.85718 545.773 509.547
-3.19674 8.58978 -5.14549 552.229 500.818
-1.63498 6.75216 -6.78005 559.576 492.468
0.491631 6.70511 -8.22854 568.838 492.018
2.67612 6.3507 -6.51458 578.209 492.152
4.58436 7.81497 -4.90999 585.891 499.889
6.33632 9.30814 -2.8056 592.858 508
5.06083 10.8065 -4.14022 587.049 513.224
3.37332 11.9213 -5.37927 579.569 516.753
1.23609 12.5125 -6.78749 570.313 517.823
-0.999293 12.4204 -5.55124 560.637 517.523
-2.97287 11.7187 -4.31249 552.258 514.704
-0.976525 8.94476 -4.96758 561.665 503.072
0.736347 8.51482 -7.01359 569.298 500.517
2.60872 8.52773 -4.99307 577.202 502.309
2.67273 9.28162 -4.4096 577.225 505.885
0.909994 9.74404 -6.11479 569.637 506.337
-0.840985 9.69557 -4.48035 562.003 506.599
3 20 21 23
3 21 22 23
3 0 1 36
3 15 16 45
3 0 17 36
3 16 26 45
3 17 18 37
3 25 26 44
3 17 36 37
3 26 44 45
3 18 19 38
3 24 25 43
3 18 37 38
3 25 43 44
3 19 20 38
3 23 24 43
3 20 21 39
3 22 23 42
3 20 38 39
3 23 42 43
3 21 22 27
3 21 27 39
3 22 27 42
3 27 28 42
3 27 28 39
3 28 42 47
3 28 39 40
3 1 36 41
3 15 45 46
3 1 2 41
3 14 15 46
3 28 29 40
3 28 29 47
3 2 40 41
3 14 46 47
3 2 29 40
3 14 29 47
3 2 3 29
3 13 14 29
3 29 30 31
3 29 30 35
3 3 29 31
3 13 29 35
3 30 32 33
3 30 33 34
3 30 31 32
3 30 34 35
3 3 4 31
3 12 13 35
3 4 5 48
3 11 12 54
3 5 6 48
3 10 11 54
3 6 48 59
3 10 54 55
3 6 7 59
3 9 10 55
3 7 58 59
3 9 55 56
3 8 57 58
3 8 56 57
3 7 8 58
3 8 9 56
3 4 31 48
3 12 35 54
3 31 48 49
3 35 53 54
3 31 49 50
3 35 52 53
3 31 32 50
3 34 35 52
3 32 33 50
3 33 34 52
3 33 50 51
3 33 51 52
3 48 49 60
3 49 60 50
3 50 60 61
3 50 51 61
3 51 52 61
3 61 62 52
3 52 53 62
3 53 54 62
3 54 55 63
3 55 56 63
3 56 63 64
3 56 57 64
3 64 65 57
3 57 58 65
3 58 59 65
3 48 59 65
