ply
format ascii 1.0
element vertex 66
property float x
property float y
property float z
property float u
property float v
element face 91
property list uchar int vertex_indices
end_header
-19.9261 -6.16712 21.2199 482.994 451.382
-19.3376 -0.789513 20.7957 484.584 474.239
-18.4004 4.52867 20.2983 487.702 496.864
-17.0743 9.70757 18.2224 492.692 517.964
-15.0765 14.4911 13.3858 500.947 535.745
-11.8873 18.4804 7.93046 514.567 549.97
-7.79622 21.5749 3.16001 532.183 560.983
-3.08432 23.6681 -0.895599 552.597 568.291
2.12113 23.9091 -4.59399 575.452 568
6.88887 22.498 -0.825414 595.946 565.315
10.6806 19.3469 3.41821 612.491 555.293
13.8245 15.6028 8.23291 626.286 542.97
16.1865 11.3689 13.6597 636.725 528.785
17.6395 6.74123 18.3098 643.387 512.238
18.4124 1.92457 20.5291 647.394 493.198
18.7399 -2.99505 20.9146 649.685 472.459
18.7248 -7.92584 21.2225 650.504 451.554
-16.1335 -14.9984 0.159059 503.228 400.918
-14.0378 -16.8066 -1.58197 512.809 392.487
-11.4003 -17.6927 -3.00369 524.53 388.314
-8.61331 -17.8105 -4.32535 536.744 387.523
-5.86933 -17.3077 -5.52751 548.645 389.453
3.11538 -17.5271 -5.4872 587.544 390.329
5.82782 -18.423 -4.2267 599.312 387.84
8.69012 -18.7084 -2.83239 611.601 388.078
11.5119 -18.165 -1.38957 623.556 391.885
13.8579 -16.5517 0.317481 633.226 400.344
-1.00062 -11.5371 -5.00129 568.577 415.45
-0.979863 -8.82285 -7.69396 568.443 425.351
-0.949087 -6.13122 -10.4871 568.366 435.092
-0.88471 -3.45731 -13.2037 568.43 444.814
-3.00315 0.241442 -6.17732 557.849 464.7
-1.7036 0.329278 -7.07719 563.548 464.76
-0.399613 0.299912 -8.04149 569.294 464.279
0.97499 0.143856 -7.04768 575.165 464.519
2.31846 -0.133758 -6.14699 580.934 464.173
-11.7942 -10.2292 -1.05393 521.237 421.415
-10.1335 -11.364 -1.12049 528.638 416.847
-8.05534 -11.5394 -1.11987 537.66 416.511
-6.29182 -10.6884 -0.779969 545.094 420.72
-8.07457 -9.97486 -0.996845 537.273 423.28
-10.0051 -9.77243 -1.05034 528.89 423.728
5.23446 -11.4793 -1.08227 595.129 419.438
6.86872 -12.4143 -1.09244 602.373 415.756
8.90226 -12.424 -0.861944 611.147 416.267
10.6274 -11.4682 -0.619339 618.406 420.854
8.91376 -10.8749 -0.865168 610.909 422.895
7.01024 -10.8904 -1.03637 602.696 422.341
-6.19779 9.62381 -2.76021 541.933 506.389
-4.64053 7.27405 -5.04976 549.343 495.184
-2.42249 5.37711 -6.64239 559.455 486.493
0.393775 5.21468 -8.17335 571.826 485.383
3.25041 4.91002 -6.36075 584.051 485.804
5.78516 6.36726 -4.79195 594.581 493.545
7.7687 8.40666 -2.71104 602.565 503.993
6.31977 10.7233 -3.9938 596.001 512.799
4.13238 12.4445 -5.21413 586.346 518.95
1.28675 13.1649 -6.70396 574.059 520.515
-1.70958 13.0065 -5.3987 560.992 520.074
-4.2841 11.7308 -4.197 549.968 514.869
-2.23025 7.89964 -5.03531 559.651 498.35
0.665015 7.37779 -7.24191 572.501 495.286
3.69605 7.35807 -4.99734 585.382 497.237
3.90857 9.35852 -4.40298 585.867 506.218
0.957623 10.073 -6.33151 573.171 507.458
-2.03403 9.90318 -4.52461 560.074 507.288
3 20 21 23
3 21 22 23
3 0 1 36
3 15 16 45
3 0 17 36
3 16 26 45
3 17 18 37
3 25 26 44
3 17 36 37
3 26 44 45
3 18 19 38
3 24 25 43
3 18 37 38
3 25 43 44
3 19 20 38
3 23 24 43
3 20 21 39
3 22 23 42
3 20 38 39
3 23 42 43
3 21 22 27
3 21 27 39
3 22 27 42
3 27 28 42
3 27 28 39
3 28 42 47
3 28 39 40
3 1 36 41
3 15 45 46
3 1 2 41
3 14 15 46
3 28 29 40
3 28 29 47
3 2 40 41
3 14 46 47
3 2 29 40
3 14 29 47
3 2 3 29
3 13 14 29
3 29 30 31
3 29 30 35
3 3 29 31
3 13 29 35
3 30 32 33
3 30 33 34
3 30 31 32
3 30 34 35
3 3 4 31
3 12 13 35
3 4 5 48
3 11 12 54
3 5 6 48
3 10 11 54
3 6 48 59
3 10 54 55
3 6 7 59
3 9 10 55
3 7 58 59
3 9 55 56
3 8 57 58
3 8 56 57
3 7 8 58
3 8 9 56
3 4 31 48
3 12 35 54
3 31 48 49
3 35 53 54
3 31 49 50
3 35 52 53
3 31 32 50
3 34 35 52
3 32 33 50
3 33 34 52
3 33 50 51
3 33 51 52
3 48 49 60
3 49 60 50
3 50 60 61
3 50 51 61
3 51 52 61
3 61 62 52
3 52 53 62
3 53 54 62
3 54 55 63
3 55 56 63
3 56 63 64
3 56 57 64
3 64 65 57
3 57 58 65
3 58 59 65
3 48 59 65
