ply
format ascii 1.0
element vertex 66
property float x
property float y
property float z
property float u
property float v
element face 91
property list uchar int vertex_indices
end_header
-19.9549 -6.05751 21.2895 479.933 445.722
-19.3138 -0.76112 20.7217 481.717 468.743
-18.355 4.49086 20.2047 484.897 491.67
-17.0231 9.58966 18.1923 490.039 513.29
-14.9939 14.2629 13.479 498.86 531.907
-11.8747 18.1865 7.94596 512.79 547.108
-7.90968 21.2904 3.03917 530.493 559.23
-3.32289 23.4753 -0.941401 550.945 567.931
1.8218 23.8245 -4.53769 574.17 568.928
6.67656 22.513 -0.913068 595.08 566.099
10.5495 19.4148 3.2288 611.96 555.482
13.7523 15.7035 8.16873 625.875 542.413
16.1923 11.4959 13.6953 636.431 527.28
17.7288 6.8572 18.2636 643.297 509.586
18.5106 1.97508 20.4399 647.363 489.49
18.837 -3.02435 20.8935 649.787 467.94
18.8263 -8.02909 21.3319 650.735 446.279
-16.1173 -14.6479 0.223169 502.733 398.88
-14.0696 -16.4868 -1.48279 512.457 390.501
-11.4632 -17.426 -2.90728 524.387 386.321
-8.69107 -17.5665 -4.23294 536.854 385.719
-5.96827 -17.0914 -5.43963 548.948 387.853
3.08566 -17.3636 -5.42475 588.782 388.807
5.72986 -18.2756 -4.13879 600.346 386.069
8.54101 -18.5861 -2.73652 612.492 386.055
11.3271 -18.0934 -1.27351 624.343 389.575
13.6883 -16.5836 0.372741 634.072 397.527
-0.874067 -11.1727 -5.02742 569.972 415.12
-0.792035 -8.43597 -7.79756 570.279 425.756
-0.705983 -5.71765 -10.631 570.62 436.282
-0.596993 -3.0093 -13.3379 571.04 446.831
-3.49247 0.587922 -6.51126 556.218 465.176
-1.84114 0.958421 -7.23577 563.534 466.833
-0.12877 1.04182 -7.95073 571.178 467.255
1.60095 0.715227 -7.21418 578.705 466.593
3.22434 0.103264 -6.51212 585.833 464.642
-12.0477 -10.0394 -0.942022 519.844 419.414
-10.2633 -11.1723 -1.08656 527.956 414.815
-8.08856 -11.3123 -1.24605 537.572 414.639
-6.24158 -10.4014 -0.898695 545.423 419.224
-8.15247 -9.7944 -1.02637 536.921 421.364
-10.1675 -9.61269 -1.0741 528.038 421.659
5.09748 -11.1912 -1.08048 595.446 418.361
6.791 -12.248 -1.20873 603.14 414.08
8.92196 -12.352 -0.865732 612.458 414.295
10.7971 -11.4525 -0.570166 620.445 418.811
9.00335 -10.8248 -0.892056 612.491 420.975
7.01012 -10.7748 -1.00291 603.745 420.669
-7.19617 8.59014 -2.56196 537.454 501.185
-5.26776 6.48563 -4.84049 546.822 491.339
-2.6337 4.98566 -6.54148 559.048 484.581
0.449433 4.77266 -8.26567 572.974 483.543
3.5505 4.50981 -6.30791 586.276 484.075
6.40259 5.55296 -4.61326 598.253 490.127
8.66077 7.32244 -2.48869 607.38 499.422
7.08458 10.1537 -3.92396 600.123 510.728
4.62061 12.3663 -5.15618 589.059 519.218
1.25358 13.2454 -6.65076 574.366 521.54
-2.25388 12.9431 -5.30101 558.76 520.046
-5.11989 11.1863 -4.04787 546.304 512.3
-3.23786 6.85168 -5.06766 555.706 493.307
0.633698 6.28668 -7.53719 573.316 490.555
4.59385 6.21796 -5.02611 590.243 492.406
5.06241 9.90768 -4.32975 591.37 508.978
1.03626 11.0705 -6.27488 573.808 512.167
-3.09757 10.5694 -4.41487 555.393 509.903
3 20 21 23
3 21 22 23
3 0 1 36
3 15 16 45
3 0 17 36
3 16 26 45
3 17 18 37
3 25 26 44
3 17 36 37
3 26 44 45
3 18 19 38
3 24 25 43
3 18 37 38
3 25 43 44
3 19 20 38
3 23 24 43
3 20 21 39
3 22 23 42
3 20 38 39
3 23 42 43
3 21 22 27
3 21 27 39
3 22 27 42
3 27 28 42
3 27 28 39
3 28 42 47
3 28 39 40
3 1 36 41
3 15 45 46
3 1 2 41
3 14 15 46
3 28 29 40
3 28 29 47
3 2 40 41
3 14 46 47
3 2 29 40
3 14 29 47
3 2 3 29
3 13 14 29
3 29 30 31
3 29 30 35
3 3 29 31
3 13 29 35
3 30 32 33
3 30 33 34
3 30 31 32
3 30 34 35
3 3 4 31
3 12 13 35
3 4 5 48
3 11 12 54
3 5 6 48
3 10 11 54
3 6 48 59
3 10 54 55
3 6 7 59
3 9 10 55
3 7 58 59
3 9 55 56
3 8 57 58
3 8 56 57
3 7 8 58
3 8 9 56
3 4 31 48
3 12 35 54
3 31 48 49
3 35 53 54
3 31 49 50
3 35 52 53
3 31 32 50
3 34 35 52
3 32 33 50
3 33 34 52
3 33 50 51
3 33 51 52
3 48 49 60
3 49 60 50
3 50 60 61
3 50 51 61
3 51 52 61
3 61 62 52
3 52 53 62
3 53 54 62
3 54 55 63
3 55 56 63
3 56 63 64
3 56 57 64
3 64 65 57
3 57 58 65
3 58 59 65
3 48 59 65
