ply
format ascii 1.0
element vertex 66
property float x
property float y
property float z
property float u
property float v
element face 91
property list uchar int vertex_indices
end_header
-20.2453 -6.20081 21.5799 479.603 444.976
-19.5449 -0.744109 20.9159 481.772 468.52
-18.5559 4.68027 20.3569 485.19 492.036
-17.3146 9.9891 18.3406 490.012 514.367
-15.3594 14.8277 13.5234 498.581 533.389
-12.1332 18.7511 7.892 513.037 548.283
-8.03623 21.7934 3.03537 531.321 559.917
-3.31211 23.7907 -1.02481 552.392 567.539
1.88229 23.9922 -4.57189 575.759 567.707
6.78346 22.6026 -0.921468 596.766 564.526
10.699 19.398 3.29028 613.694 553.529
13.8993 15.5336 8.17849 627.486 539.854
16.3877 11.2474 13.7592 638.11 524.546
17.9467 6.59494 18.2832 644.938 506.919
18.6924 1.78971 20.454 648.686 487.27
19.0187 -3.0942 20.8423 650.955 466.292
18.9855 -7.97551 21.3515 651.627 445.311
-16.4378 -14.4616 0.202191 501.893 399.052
-14.2307 -16.2704 -1.51529 512.217 390.777
-11.5057 -17.2113 -2.92572 524.586 386.541
-8.61604 -17.3633 -4.1991 537.501 385.839
-5.75269 -16.9144 -5.36502 550.167 387.799
3.24495 -17.0571 -5.44401 589.577 389.012
5.83972 -17.8647 -4.16208 600.836 386.687
8.58368 -18.1394 -2.7781 612.629 386.762
11.3124 -17.7515 -1.29155 624.211 389.767
13.7146 -16.4546 0.357227 634.164 396.74
-0.649688 -11.1169 -4.9466 571.329 414.288
-0.618591 -8.26802 -7.80969 571.478 425.241
-0.587766 -5.44035 -10.7631 571.648 436.055
-0.537211 -2.62127 -13.5595 571.875 446.916
-4.36229 1.22614 -6.84647 553.136 466.241
-2.22195 1.91567 -7.41567 562.48 469.398
0.0423662 2.12145 -7.97469 572.456 470.483
2.246 1.6363 -7.36612 582.072 469.139
4.25862 0.679706 -6.76575 590.942 465.7
-11.9837 -10.0251 -0.772637 520.737 418.783
-10.1526 -10.9298 -1.11366 528.983 415.057
-8.08856 -11.0372 -1.37353 538.084 414.889
-6.21878 -10.2757 -1.00957 546.053 418.774
-8.16466 -9.95592 -0.973739 537.472 419.778
-10.1105 -9.82299 -1.03093 528.944 419.922
5.27556 -10.9873 -1.30142 596.533 417.925
6.99385 -11.8138 -1.33297 604.212 414.672
8.9764 -11.9314 -0.881744 612.822 414.801
10.8016 -11.2039 -0.405949 620.581 418.586
9.00261 -10.8345 -0.885372 612.732 419.576
7.11959 -10.8006 -1.02342 604.513 419.262
-8.97201 7.58428 -2.42949 530.932 495.164
-6.36945 5.69345 -4.76315 543.119 486.304
-3.09399 4.63393 -6.51339 557.983 481.495
0.393842 4.5001 -8.17195 573.586 480.802
3.85869 4.13623 -6.21078 588.439 480.931
7.22775 4.67735 -4.46147 602.744 484.868
10.0264 6.21875 -2.32888 614.293 493.232
8.06077 9.42669 -3.71754 605.357 506.074
5.03187 11.7623 -4.9536 591.903 514.978
1.1876 12.5977 -6.50979 575.224 517.026
-2.8415 12.3707 -5.15755 557.38 515.882
-6.35169 10.5331 -3.91496 542.128 507.785
-4.0117 6.60389 -5.25146 553.358 490.509
0.614332 6.27641 -7.66233 574.12 488.831
5.26622 5.91792 -5.07525 594.047 489.546
5.79379 9.08605 -4.33266 595.62 503.81
0.978857 10.1556 -6.60385 574.786 506.313
-3.96117 9.82332 -4.5527 552.842 504.874
3 20 21 23
3 21 22 23
3 0 1 36
3 15 16 45
3 0 17 36
3 16 26 45
3 17 18 37
3 25 26 44
3 17 36 37
3 26 44 45
3 18 19 38
3 24 25 43
3 18 37 38
3 25 43 44
3 19 20 38
3 23 24 43
3 20 21 39
3 22 23 42
3 20 38 39
3 23 42 43
3 21 22 27
3 21 27 39
3 22 27 42
3 27 28 42
3 27 28 39
3 28 42 47
3 28 39 40
3 1 36 41
3 15 45 46
3 1 2 41
3 14 15 46
3 28 29 40
3 28 29 47
3 2 40 41
3 14 46 47
3 2 29 40
3 14 29 47
3 2 3 29
3 13 14 29
3 29 30 31
3 29 30 35
3 3 29 31
3 13 29 35
3 30 32 33
3 30 33 34
3 30 31 32
3 30 34 35
3 3 4 31
3 12 13 35
3 4 5 48
3 11 12 54
3 5 6 48
3 10 11 54
3 6 48 59
3 10 54 55
3 6 7 59
3 9 10 55
3 7 58 59
3 9 55 56
3 8 57 58
3 8 56 57
3 7 8 58
3 8 9 56
3 4 31 48
3 12 35 54
3 31 48 49
3 35 53 54
3 31 49 50
3 35 52 53
3 31 32 50
3 34 35 52
3 32 33 50
3 33 34 52
3 33 50 51
3 33 51 52
3 48 49 60
3 49 60 50
3 50 60 61
3 50 51 61
3 51 52 61
3 61 62 52
3 52 53 62
3 53 54 62
3 54 55 63
3 55 56 63
3 56 63 64
3 56 57 64
3 64 65 57
3 57 58 65
3 58 59 65
3 48 59 65
