ply
format ascii 1.0
element vertex 66
property float x
property float y
property float z
property float u
property float v
element face 91
property list uchar int vertex_indices
end_header
-20.298 -5.88029 21.1105 483.276 443.692
-19.7909 -0.651528 20.6612 483.915 465.745
-18.9266 4.52749 20.3261 486.099 487.755
-17.602 9.54628 18.176 490.269 508.172
-15.4451 14.1935 13.4928 498.067 525.793
-12.0464 18.0589 7.88836 511.391 539.924
-7.69037 20.9369 3.21062 529.112 550.678
-2.73031 22.771 -0.827386 549.732 557.549
2.61708 22.7936 -4.41173 572.543 557.111
7.25277 21.5609 -0.88176 592.791 555.247
11.1497 18.9041 3.39819 610.304 547.566
14.4938 15.6497 8.19532 625.635 537.491
16.8631 11.684 13.864 637.017 524.623
18.1185 7.10933 18.5189 643.795 508.271
18.7026 2.23243 20.8023 647.751 489.079
18.9774 -2.78675 21.1322 650.394 468.07
19.0353 -7.80135 21.5908 652.11 447.092
-16.2508 -15.1069 0.162504 502.94 393.668
-14.1214 -16.7965 -1.4731 512.515 386.173
-11.4832 -17.5501 -2.96926 523.997 382.872
-8.74673 -17.6261 -4.36066 535.703 382.532
-6.08283 -17.1214 -5.63348 546.932 384.701
3.36553 -17.6556 -5.41106 587.511 385.271
6.25095 -18.6251 -4.15146 600.157 382.714
9.28172 -18.9627 -2.72207 613.244 382.974
12.2724 -18.3572 -1.26946 625.885 387.235
14.6965 -16.568 0.353129 635.76 396.449
-1.43275 -11.5984 -5.09578 565.225 409.757
-1.37537 -8.66905 -7.68097 564.575 420.703
-1.29398 -5.77413 -10.4987 564.035 431.375
-1.16687 -2.90341 -13.3261 563.697 441.953
-3.73856 0.467369 -6.12585 551.829 459.654
-2.30622 0.715933 -7.15368 557.868 460.526
-0.830317 0.726829 -8.18533 564.162 460.401
0.83528 0.44898 -7.18235 571.385 460.278
2.41559 -0.0493242 -6.10606 578.307 459.238
-12.1844 -10.033 -1.13633 518.837 415.595
-10.5745 -11.1964 -1.09951 526.064 411.145
-8.53094 -11.373 -1.03842 534.858 411.017
-6.77901 -10.586 -0.757479 542.128 415.017
-8.51079 -9.85714 -1.00986 534.504 417.465
-10.4092 -9.61847 -1.1132 526.311 417.874
5.75325 -11.6415 -1.05221 596.044 413.963
7.43991 -12.6026 -0.970032 603.54 410.419
9.49446 -12.5647 -0.776686 612.322 411.279
11.2397 -11.607 -0.624432 619.511 415.927
9.48044 -11.0575 -0.88033 611.821 417.605
7.55383 -11.052 -1.04726 603.575 416.98
-6.14704 9.76159 -2.8374 538.872 500.26
-4.24667 8.18453 -4.9634 547.427 492.894
-2.1146 6.84449 -6.63213 556.911 486.863
0.330584 6.83696 -8.21677 567.348 486.618
2.83464 6.3452 -6.48532 578.232 486.248
5.3206 7.20054 -4.83754 588.644 491.536
7.74482 8.29682 -2.89599 598.726 497.996
5.92113 9.94625 -4.0683 590.425 503.791
3.65044 11.0283 -5.31111 580.376 507.012
1.10672 11.5768 -6.56407 569.315 507.886
-1.55023 11.6744 -5.38765 557.939 508.217
-4.0803 11.1163 -4.24506 547.296 505.784
-1.83429 8.81207 -5.14335 557.561 496.142
0.572816 8.49163 -7.4063 567.916 494.169
3.15783 8.20883 -5.33945 579.09 494.902
3.25191 8.66554 -4.62255 579.371 497.278
0.711652 9.10887 -6.392 568.346 497.41
-1.76709 9.24699 -4.56244 557.731 498.339
3 20 21 23
3 21 22 23
3 0 1 36
3 15 16 45
3 0 17 36
3 16 26 45
3 17 18 37
3 25 26 44
3 17 36 37
3 26 44 45
3 18 19 38
3 24 25 43
3 18 37 38
3 25 43 44
3 19 20 38
3 23 24 43
3 20 21 39
3 22 23 42
3 20 38 39
3 23 42 43
3 21 22 27
3 21 27 39
3 22 27 42
3 27 28 42
3 27 28 39
3 28 42 47
3 28 39 40
3 1 36 41
3 15 45 46
3 1 2 41
3 14 15 46
3 28 29 40
3 28 29 47
3 2 40 41
3 14 46 47
3 2 29 40
3 14 29 47
3 2 3 29
3 13 14 29
3 29 30 31
3 29 30 35
3 3 29 31
3 13 29 35
3 30 32 33
3 30 33 34
3 30 31 32
3 30 34 35
3 3 4 31
3 12 13 35
3 4 5 48
3 11 12 54
3 5 6 48
3 10 11 54
3 6 48 59
3 10 54 55
3 6 7 59
3 9 10 55
3 7 58 59
3 9 55 56
3 8 57 58
3 8 56 57
3 7 8 58
3 8 9 56
3 4 31 48
3 12 35 54
3 31 48 49
3 35 53 54
3 31 49 50
3 35 52 53
3 31 32 50
3 34 35 52
3 32 33 50
3 33 34 52
3 33 50 51
3 33 51 52
3 48 49 60
3 49 60 50
3 50 60 61
3 50 51 61
3 51 52 61
3 61 62 52
3 52 53 62
3 53 54 62
3 54 55 63
3 55 56 63
3 56 63 64
3 56 57 64
3 64 65 57
3 57 58 65
3 58 59 65
3 48 59 65
