ply
format ascii 1.0
element vertex 66
property float x
property float y
property float z
property float u
property float v
element face 91
property list uchar int vertex_indices
end_header
-19.0052 -5.49942 20.6937 485.471 448.273
-18.4477 -0.455 20.1605 485.345 470.461
-17.5544 4.54295 19.7756 486.744 492.674
-16.1976 9.45445 18.137 490.054 514.156
-14.2688 14.1199 13.4329 495.577 533.424
-11.5489 18.3546 7.89028 504.688 550.796
-8.00985 21.9672 3.13645 517.836 566.19
-3.72106 24.672 -0.869074 534.85 578.3
1.27333 25.3545 -4.57133 556.029 582.003
6.21517 23.9511 -0.778234 579.076 579.953
9.99037 20.4805 3.384 598.056 568.43
13.0603 16.3825 8.0953 614.313 554.062
15.4539 11.8943 13.5695 627.888 538.005
17.082 7.02683 18.3641 638.177 519.601
18.0021 1.89704 20.1779 645.049 498.336
18.3592 -3.29907 20.6483 649.279 475.893
18.3479 -8.51951 20.9497 651.872 453.088
-15.0189 -15.572 0.189494 505.176 396.526
-13.3224 -17.2777 -1.56312 513.265 389.043
-11.0359 -18.1563 -2.93765 523.599 385.652
-8.57321 -18.3347 -4.29428 534.365 385.431
-6.13686 -17.9297 -5.49734 544.746 387.83
3.08201 -18.6097 -5.38895 585.788 389.326
5.66582 -19.5382 -4.1786 597.826 387.044
8.39342 -19.8124 -2.78311 610.198 387.792
11.0515 -19.177 -1.36995 621.814 392.511
13.1341 -17.4863 0.374112 630.411 401.741
-1.14762 -12.1821 -4.99064 563.976 415.716
-1.01821 -9.43862 -7.63476 562.807 426.62
-0.878189 -6.70638 -10.3047 561.686 437.467
-0.719631 -3.9918 -12.8689 560.671 448.294
-2.75029 -0.0761069 -5.80259 550.759 467.764
-1.52129 0.0335184 -6.90166 555.973 468.333
-0.253842 -0.00308161 -7.99583 561.431 468.28
1.07035 -0.188453 -6.87916 567.526 468.615
2.31441 -0.527954 -5.99281 573.311 468.128
-10.7141 -10.8006 -1.36578 521.579 418.848
-9.51376 -11.9159 -1.11549 527.468 414.64
-7.81397 -12.2159 -0.830518 535.16 414.27
-6.33821 -11.6453 -0.599977 541.422 417.592
-7.65149 -10.6538 -0.989071 535.077 421.139
-9.23253 -10.3903 -1.06971 527.956 421.499
4.73513 -12.6293 -0.554586 590.791 418.616
6.08949 -13.4372 -0.824364 597.133 415.594
7.80973 -13.3948 -0.943247 604.687 416.553
9.19988 -12.5291 -1.03331 610.379 420.984
7.80807 -11.8702 -0.821382 603.938 423.307
6.19473 -11.8812 -0.797823 596.826 422.494
-3.67143 10.5153 -2.82422 541.842 515.225
-2.56227 8.85872 -5.03877 547.248 507.463
-1.17714 7.22878 -6.66597 553.943 500.221
0.727957 7.28048 -8.24542 562.102 500.64
2.65834 6.84333 -6.48756 571.088 500.454
4.32377 8.11331 -4.85834 578.037 507.583
5.75054 9.43713 -2.61376 583.993 515.116
4.72562 11.022 -4.14579 578.463 520.884
3.25762 12.2471 -5.34861 571.204 525.009
1.24487 12.8646 -6.7942 561.808 526.091
-0.755906 12.6861 -5.48328 553.252 524.945
-2.43584 11.8886 -4.20331 546.416 521.22
-0.289576 9.36219 -4.85962 557.054 510.851
0.914434 9.01013 -6.9475 562.247 508.925
2.19178 9.03934 -4.91185 568.159 510.602
2.17551 9.57771 -4.45651 567.883 513.168
0.992409 10.1234 -6.08836 562.159 514.248
-0.204574 9.91554 -4.45767 557.21 513.508
3 20 21 23
3 21 22 23
3 0 1 36
3 15 16 45
3 0 17 36
3 16 26 45
3 17 18 37
3 25 26 44
3 17 36 37
3 26 44 45
3 18 19 38
3 24 25 43
3 18 37 38
3 25 43 44
3 19 20 38
3 23 24 43
3 20 21 39
3 22 23 42
3 20 38 39
3 23 42 43
3 21 22 27
3 21 27 39
3 22 27 42
3 27 28 42
3 27 28 39
3 28 42 47
3 28 39 40
3 1 36 41
3 15 45 46
3 1 2 41
3 14 15 46
3 28 29 40
3 28 29 47
3 2 40 41
3 14 46 47
3 2 29 40
3 14 29 47
3 2 3 29
3 13 14 29
3 29 30 31
3 29 30 35
3 3 29 31
3 13 29 35
3 30 32 33
3 30 33 34
3 30 31 32
3 30 34 35
3 3 4 31
3 12 13 35
3 4 5 48
3 11 12 54
3 5 6 48
3 10 11 54
3 6 48 59
3 10 54 55
3 6 7 59
3 9 10 55
3 7 58 59
3 9 55 56
3 8 57 58
3 8 56 57
3 7 8 58
3 8 9 56
3 4 31 48
3 12 35 54
3 31 48 49
3 35 53 54
3 31 49 50
3 35 52 53
3 31 32 50
3 34 35 52
3 32 33 50
3 33 34 52
3 33 50 51
3 33 51 52
3 48 49 60
3 49 60 50
3 50 60 61
3 50 51 61
3 51 52 61
3 61 62 52
3 52 53 62
3 53 54 62
3 54 55 63
3 55 56 63
3 56 63 64
3 56 57 64
3 64 65 57
3 57 58 65
3 58 59 65
3 48 59 65
