ply
format ascii 1.0
element vertex 66
property float x
property float y
property float z
property float u
property float v
element face 91
property list uchar int vertex_indices
end_header
-20.27 -5.79976 21.0961 484.213 444.381
-19.7809 -0.598679 20.6508 484.829 466.271
-18.932 4.55165 20.3213 486.998 488.116
-17.6141 9.55016 18.1546 491.204 508.346
-15.4401 14.1907 13.4688 499.155 525.784
-12.0146 18.0484 7.85843 512.673 539.703
-7.64487 20.924 3.18516 530.513 550.29
-2.67748 22.7585 -0.843539 551.208 557.023
2.66647 22.7774 -4.41042 574.03 556.452
7.27752 21.5285 -0.886828 594.125 554.571
11.1607 18.8704 3.39015 611.512 546.972
14.5022 15.6214 8.1896 626.753 537.035
16.8685 11.6558 13.8684 638.033 524.319
18.1029 7.06897 18.5351 644.642 508.049
18.667 2.18577 20.8287 648.452 488.91
18.9336 -2.83248 21.1542 651.015 467.933
18.9914 -7.8453 21.6161 652.685 447.002
-16.21 -15.2553 0.196299 504.111 392.917
-14.1085 -16.8749 -1.44809 513.545 385.659
-11.5186 -17.5668 -2.95401 524.805 382.548
-8.84545 -17.6121 -4.34918 536.24 382.264
-6.24722 -17.1026 -5.62444 547.197 384.381
3.56 -17.6827 -5.40022 589.301 384.8
6.41972 -18.6495 -4.14745 601.811 382.258
9.41884 -19.0007 -2.7157 614.745 382.47
12.379 -18.4056 -1.25776 627.245 386.693
14.7645 -16.6224 0.376981 636.952 395.892
-1.46693 -11.4229 -5.09324 566.034 410.084
-1.4165 -8.53006 -7.67856 565.413 420.792
-1.34075 -5.67103 -10.4978 564.909 431.223
-1.21774 -2.83698 -13.323 564.613 441.559
-3.86773 0.510925 -6.12993 552.382 459.317
-2.40145 0.786129 -7.16385 558.567 460.271
-0.887354 0.809995 -8.20088 565.028 460.171
0.828268 0.509932 -7.19909 572.456 459.982
2.45248 -0.021443 -6.11015 579.559 458.841
-12.1404 -10.059 -1.11574 520.033 415.267
-10.5843 -11.2526 -1.09022 527.025 410.663
-8.57129 -11.4095 -1.04069 535.678 410.591
-6.87565 -10.5593 -0.744203 542.69 414.843
-8.55344 -9.78556 -0.996134 535.295 417.499
-10.4149 -9.56603 -1.10203 527.272 417.844
5.88422 -11.6454 -1.06058 597.559 413.619
7.51351 -12.6613 -0.979549 604.815 409.822
9.538 -12.626 -0.768163 613.463 410.664
11.2342 -11.6282 -0.603796 620.435 415.462
9.52931 -11.0178 -0.874966 612.97 417.407
7.63974 -10.9995 -1.05001 604.883 416.851
-6.23758 9.70426 -2.83359 539.667 499.561
-4.2998 8.16257 -4.96976 548.375 492.291
-2.14453 6.8634 -6.64039 557.948 486.388
0.303853 6.87388 -8.21702 568.405 486.169
2.81665 6.35578 -6.50102 579.308 485.709
5.33361 7.16106 -4.84815 589.854 490.815
7.81254 8.20325 -2.89416 600.173 497.095
5.97211 9.91088 -4.06305 591.811 503.108
3.6643 11.0215 -5.31677 581.62 506.412
1.09371 11.5849 -6.56656 570.459 507.328
-1.59138 11.6865 -5.39369 558.957 507.713
-4.16137 11.1142 -4.25235 548.137 505.258
-1.78852 8.8465 -5.14858 558.919 495.781
0.551117 8.56458 -7.41208 568.989 493.88
3.07424 8.24056 -5.36433 579.884 494.444
3.16926 8.62574 -4.63628 580.186 496.539
0.682393 9.06416 -6.40297 569.415 496.639
-1.73578 9.2093 -4.5696 559.046 497.679
3 20 21 23
3 21 22 23
3 0 1 36
3 15 16 45
3 0 17 36
3 16 26 45
3 17 18 37
3 25 26 44
3 17 36 37
3 26 44 45
3 18 19 38
3 24 25 43
3 18 37 38
3 25 43 44
3 19 20 38
3 23 24 43
3 20 21 39
3 22 23 42
3 20 38 39
3 23 42 43
3 21 22 27
3 21 27 39
3 22 27 42
3 27 28 42
3 27 28 39
3 28 42 47
3 28 39 40
3 1 36 41
3 15 45 46
3 1 2 41
3 14 15 46
3 28 29 40
3 28 29 47
3 2 40 41
3 14 46 47
3 2 29 40
3 14 29 47
3 2 3 29
3 13 14 29
3 29 30 31
3 29 30 35
3 3 29 31
3 13 29 35
3 30 32 33
3 30 33 34
3 30 31 32
3 30 34 35
3 3 4 31
3 12 13 35
3 4 5 48
3 11 12 54
3 5 6 48
3 10 11 54
3 6 48 59
3 10 54 55
3 6 7 59
3 9 10 55
3 7 58 59
3 9 55 56
3 8 57 58
3 8 56 57
3 7 8 58
3 8 9 56
3 4 31 48
3 12 35 54
3 31 48 49
3 35 53 54
3 31 49 50
3 35 52 53
3 31 32 50
3 34 35 52
3 32 33 50
3 33 34 52
3 33 50 51
3 33 51 52
3 48 49 60
3 49 60 50
3 50 60 61
3 50 51 61
3 51 52 61
3 61 62 52
3 52 53 62
3 53 54 62
3 54 55 63
3 55 56 63
3 56 63 64
3 56 57 64
3 64 65 57
3 57 58 65
3 58 59 65
3 48 59 65
