ply
format ascii 1.0
element vertex 66
property float x
property float y
property float z
property float u
property float v
element face 91
property list uchar int vertex_indices
end_header
-20.3002 -5.80149 21.1061 488.059 444.759
-19.7796 -0.564146 20.6616 488.6 466.732
-18.9158 4.62383 20.3094 490.62 488.663
-17.5977 9.65954 18.16 494.606 508.984
-15.4513 14.322 13.451 502.214 526.412
-12.0404 18.1764 7.86115 515.459 540.285
-7.66775 21.0212 3.1934 533.135 550.773
-2.70395 22.8231 -0.837448 553.67 557.443
2.6283 22.8193 -4.43022 576.357 556.885
7.23283 21.5225 -0.867035 596.43 555.066
11.0815 18.798 3.41309 613.745 547.432
14.4074 15.5222 8.20277 629.015 537.623
16.7821 11.5508 13.8448 640.462 525.109
18.0642 6.98943 18.4918 647.431 509.148
18.6751 2.14475 20.7818 651.606 490.326
18.9622 -2.83496 21.1091 654.424 469.62
19.0364 -7.81413 21.5492 656.335 448.919
-16.2265 -15.1736 0.182229 508.193 393.596
-14.0992 -16.8609 -1.47913 517.78 386.124
-11.4659 -17.6136 -2.9745 529.226 382.855
-8.73345 -17.6843 -4.35543 540.878 382.563
-6.07148 -17.1642 -5.60668 552.043 384.821
3.49438 -17.7162 -5.40328 592.985 385.628
6.34501 -18.6929 -4.16147 605.458 383.173
9.34344 -19.0355 -2.72822 618.36 383.557
12.3033 -18.4423 -1.26406 630.799 387.894
14.7051 -16.6738 0.370159 640.486 397.116
-1.40784 -11.5455 -5.09812 570.127 410.295
-1.37585 -8.57499 -7.6818 569.287 421.235
-1.31884 -5.63845 -10.4944 568.563 431.899
-1.21545 -2.72627 -13.3073 568.044 442.474
-3.57717 0.400238 -6.06451 557.057 459.388
-2.24865 0.605915 -7.1263 562.641 460.017
-0.88382 0.61079 -8.20235 568.445 459.803
0.67106 0.363162 -7.15724 575.161 459.893
2.15663 -0.0685595 -6.03709 581.641 459.232
-11.9988 -10.112 -1.16165 524.578 415.44
-10.4553 -11.2661 -1.10384 531.525 411.094
-8.4734 -11.4443 -1.02068 540.028 411.017
-6.79294 -10.6419 -0.703501 546.936 415.126
-8.45334 -9.88883 -0.982211 539.617 417.607
-10.2895 -9.66663 -1.10585 531.72 417.89
5.88888 -11.7255 -1.04367 601.321 414.336
7.49989 -12.6756 -0.951663 608.491 410.893
9.48828 -12.6228 -0.766824 616.949 411.855
11.1539 -11.6504 -0.639455 623.738 416.558
9.46693 -11.0884 -0.878138 616.367 418.25
7.61042 -11.0855 -1.04657 608.453 417.574
-6.11547 9.79981 -2.8606 543.271 500.204
-4.20284 8.28093 -5.00005 551.884 493.08
-2.10556 6.94469 -6.64957 561.231 487.086
0.301797 6.94822 -8.21239 571.472 486.893
2.76793 6.44844 -6.48998 582.159 486.625
5.21504 7.30227 -4.85837 592.332 492.003
7.63325 8.34566 -2.91419 602.324 498.364
5.83487 9.97955 -4.08226 594.126 503.967
3.60013 11.0635 -5.30334 584.244 507.08
1.08661 11.6284 -6.55973 573.339 507.896
-1.55096 11.7133 -5.39267 562.085 508.145
-4.06509 11.1544 -4.27572 551.561 505.687
-1.70243 8.87998 -5.15364 562.347 496.297
0.548668 8.57614 -7.3929 572.013 494.341
2.9805 8.2979 -5.33619 582.486 495.203
3.07357 8.7242 -4.59745 582.755 497.486
0.689233 9.1635 -6.36352 572.435 497.498
-1.63775 9.28996 -4.56425 562.497 498.411
3 20 21 23
3 21 22 23
3 0 1 36
3 15 16 45
3 0 17 36
3 16 26 45
3 17 18 37
3 25 26 44
3 17 36 37
3 26 44 45
3 18 19 38
3 24 25 43
3 18 37 38
3 25 43 44
3 19 20 38
3 23 24 43
3 20 21 39
3 22 23 42
3 20 38 39
3 23 42 43
3 21 22 27
3 21 27 39
3 22 27 42
3 27 28 42
3 27 28 39
3 28 42 47
3 28 39 40
3 1 36 41
3 15 45 46
3 1 2 41
3 14 15 46
3 28 29 40
3 28 29 47
3 2 40 41
3 14 46 47
3 2 29 40
3 14 29 47
3 2 3 29
3 13 14 29
3 29 30 31
3 29 30 35
3 3 29 31
3 13 29 35
3 30 32 33
3 30 33 34
3 30 31 32
3 30 34 35
3 3 4 31
3 12 13 35
3 4 5 48
3 11 12 54
3 5 6 48
3 10 11 54
3 6 48 59
3 10 54 55
3 6 7 59
3 9 10 55
3 7 58 59
3 9 55 56
3 8 57 58
3 8 56 57
3 7 8 58
3 8 9 56
3 4 31 48
3 12 35 54
3 31 48 49
3 35 53 54
3 31 49 50
3 35 52 53
3 31 32 50
3 34 35 52
3 32 33 50
3 33 34 52
3 33 50 51
3 33 51 52
3 48 49 60
3 49 60 50
3 50 60 61
3 50 51 61
3 51 52 61
3 61 62 52
3 52 53 62
3 53 54 62
3 54 55 63
3 55 56 63
3 56 63 64
3 56 57 64
3 64 65 57
3 57 58 65
3 58 59 65
3 48 59 65
