ply
format ascii 1.0
element vertex 66
property float x
property float y
property float z
property float u
property float v
element face 91
property list uchar int vertex_indices
end_header
-20.1882 -5.85326 21.0469 481.206 445.454
-19.6653 -0.561658 20.5996 481.778 467.944
-18.7773 4.6798 20.2414 483.94 490.382
-17.4089 9.72664 18.2105 488.182 511.207
-15.2437 14.3261 13.427 495.914 528.835
-11.9057 18.1793 7.895 508.905 543.225
-7.6479 21.1354 3.20807 526.159 554.54
-2.74794 23.057 -0.827355 546.52 562.002
2.60772 23.0766 -4.44275 569.452 561.723
7.26662 21.7637 -0.859243 590.012 559.552
11.0646 18.925 3.4046 607.368 550.985
14.2784 15.5368 8.21281 622.398 540.196
16.5856 11.5508 13.8031 633.739 527.012
17.8966 7.0356 18.4971 640.934 510.764
18.5576 2.17325 20.6701 645.369 491.432
18.8481 -2.8579 21.0017 648.211 470.239
18.89 -7.88662 21.4513 649.985 449.046
-16.1116 -15.1583 0.182245 501.072 395.391
-14.0326 -16.9275 -1.50808 510.525 387.542
-11.4156 -17.7346 -2.97629 521.996 384.087
-8.6898 -17.8229 -4.35574 533.711 383.782
-6.03746 -17.3025 -5.60849 544.923 386.123
3.44322 -17.8221 -5.39893 585.882 386.944
6.23135 -18.8072 -4.14451 598.223 384.299
9.17949 -19.1521 -2.70661 611.057 384.536
12.1007 -18.5725 -1.26301 623.484 388.713
14.4791 -16.8104 0.370026 633.209 397.873
-1.34955 -11.7148 -5.06312 563.35 411.712
-1.3136 -8.75125 -7.69039 562.498 422.905
-1.25319 -5.81847 -10.481 561.755 433.883
-1.14889 -2.90427 -13.2258 561.209 444.821
-3.36682 0.402205 -6.08084 550.832 462.224
-2.11158 0.562148 -7.10153 556.152 462.725
-0.822333 0.539763 -8.12949 561.677 462.454
0.65284 0.338913 -7.10873 568.116 462.62
2.06242 -0.0294752 -6.01425 574.328 462.092
-11.9281 -10.2801 -1.19221 517.498 416.729
-10.3084 -11.4677 -1.10643 524.842 412.209
-8.23856 -11.6533 -0.998665 533.809 412.115
-6.496 -10.8033 -0.680409 541.048 416.456
-8.23318 -10.0283 -0.992836 533.321 419.053
-10.153 -9.79935 -1.10535 524.986 419.376
5.63257 -11.84 -0.99656 593.546 415.594
7.29368 -12.8459 -0.898778 601.012 411.868
9.36957 -12.8045 -0.753487 609.934 412.766
11.1125 -11.8074 -0.675137 617.122 417.601
9.36854 -11.1965 -0.873848 609.421 419.559
7.43122 -11.187 -1.0471 601.078 418.906
-5.44663 9.87248 -2.83153 538.998 503.799
-3.78396 8.30324 -5.01707 546.583 496.399
-1.91378 6.90902 -6.67133 555.02 490.106
0.292782 6.91275 -8.25527 564.467 489.92
2.55732 6.46164 -6.5047 574.402 489.667
4.76662 7.42959 -4.8708 583.649 495.388
6.91273 8.58298 -2.89075 592.577 502.073
5.40601 10.2651 -4.1049 585.53 508.11
3.42801 11.4413 -5.35655 576.615 511.822
1.07039 12.0182 -6.65072 566.253 512.836
-1.41152 12.041 -5.44901 555.602 512.838
-3.67947 11.3298 -4.28537 546.101 509.752
-1.46269 8.95131 -5.0813 556.364 499.844
0.532808 8.60635 -7.31492 564.994 497.743
2.70564 8.4328 -5.2323 574.456 498.832
2.7929 8.89736 -4.55072 574.705 501.221
0.676424 9.33639 -6.31235 565.411 501.461
-1.39591 9.40098 -4.53477 556.526 502.087
3 20 21 23
3 21 22 23
3 0 1 36
3 15 16 45
3 0 17 36
3 16 26 45
3 17 18 37
3 25 26 44
3 17 36 37
3 26 44 45
3 18 19 38
3 24 25 43
3 18 37 38
3 25 43 44
3 19 20 38
3 23 24 43
3 20 21 39
3 22 23 42
3 20 38 39
3 23 42 43
3 21 22 27
3 21 27 39
3 22 27 42
3 27 28 42
3 27 28 39
3 28 42 47
3 28 39 40
3 1 36 41
3 15 45 46
3 1 2 41
3 14 15 46
3 28 29 40
3 28 29 47
3 2 40 41
3 14 46 47
3 2 29 40
3 14 29 47
3 2 3 29
3 13 14 29
3 29 30 31
3 29 30 35
3 3 29 31
3 13 29 35
3 30 32 33
3 30 33 34
3 30 31 32
3 30 34 35
3 3 4 31
3 12 13 35
3 4 5 48
3 11 12 54
3 5 6 48
3 10 11 54
3 6 48 59
3 10 54 55
3 6 7 59
3 9 10 55
3 7 58 59
3 9 55 56
3 8 57 58
3 8 56 57
3 7 8 58
3 8 9 56
3 4 31 48
3 12 35 54
3 31 48 49
3 35 53 54
3 31 49 50
3 35 52 53
3 31 32 50
3 34 35 52
3 32 33 50
3 33 34 52
3 33 50 51
3 33 51 52
3 48 49 60
3 49 60 50
3 50 60 61
3 50 51 61
3 51 52 61
3 61 62 52
3 52 53 62
3 53 54 62
3 54 55 63
3 55 56 63
3 56 63 64
3 56 57 64
3 64 65 57
3 57 58 65
3 58 59 65
3 48 59 65
