ply
format ascii 1.0
element vertex 66
property float x
property float y
property float z
property float u
property float v
element face 91
property list uchar int vertex_indices
end_header
-19.4438 -6.08795 20.6136 482.967 449.81
-18.9017 -0.834787 20.3079 483.647 473.059
-17.9102 4.33364 19.7962 486.319 495.975
-16.2834 9.4243 18.067 491.658 518.175
-14.0057 14.2853 13.1773 499.492 538.092
-10.9623 18.6885 7.81376 510.803 555.999
-7.17884 22.4326 3.13969 525.716 571.534
-2.68233 25.1994 -0.833587 544.214 583.291
2.53625 25.7871 -4.50459 566.661 585.771
7.23353 24.0665 -0.713186 588.641 581.347
10.7662 20.483 3.36916 606.087 568.466
13.5229 16.252 8.10224 620.391 552.789
15.5455 11.6102 13.4486 631.656 535.358
16.9358 6.72167 18.3128 640.12 516.42
17.7825 1.72605 20.0347 645.738 495.387
18.0798 -3.26461 20.4791 648.723 473.617
17.9982 -8.26634 20.8193 650.014 451.635
-14.9736 -15.6634 0.194709 502.861 399.364
-13.1943 -17.4883 -1.61733 511.08 390.996
-10.7533 -18.4011 -2.95575 522.018 387.08
-8.11287 -18.4643 -4.28408 533.569 386.986
-5.52632 -17.8798 -5.50921 544.69 389.787
3.33917 -18.5146 -5.32971 584.3 389.754
5.92407 -19.364 -4.13996 596.231 387.334
8.62227 -19.57 -2.80527 608.481 387.861
11.1821 -18.7587 -1.49387 619.786 392.833
13.0468 -16.8724 0.40314 627.747 402.618
-1.10187 -11.8539 -5.01792 562.485 418.001
-1.02452 -9.34345 -7.64359 561.635 427.907
-0.931426 -6.83245 -10.24 560.858 437.834
-0.814671 -4.34505 -12.7561 560.207 447.702
-2.94721 -0.351132 -6.05348 550.449 467.82
-1.72834 -0.223163 -6.84785 555.704 468.388
-0.480162 -0.225441 -7.76121 561.114 468.333
0.849267 -0.411562 -6.7977 567.222 468.36
2.10103 -0.713156 -5.94436 573.006 467.802
-10.5119 -10.7862 -1.44937 520.874 421.52
-9.22698 -11.9513 -1.25702 526.983 416.848
-7.41232 -12.1742 -0.936979 535.163 416.561
-5.92849 -11.4122 -0.392218 541.591 420.633
-7.33051 -10.3577 -0.880629 534.952 424.644
-9.00508 -10.1256 -1.04152 527.416 425.087
4.40434 -12.1636 -0.535411 587.709 420.38
5.80338 -13.0502 -0.864154 594.159 416.732
7.62423 -13.0055 -1.06094 602.203 417.391
9.02078 -11.9738 -1.1711 608.06 422.326
7.58868 -11.1943 -0.897953 601.489 425.464
5.90745 -11.2369 -0.890273 594.036 424.769
-3.31205 10.8692 -2.67431 545.735 518.886
-3.07138 8.19158 -5.07062 547.306 506.009
-1.90262 5.76752 -6.62156 553.044 494.927
0.264717 5.62779 -8.11115 562.495 494.277
2.48925 5.37473 -6.49042 572.698 494.584
4.06801 7.50991 -4.95142 579.255 505.217
4.81211 10.0523 -2.65205 582.087 517.75
4.09356 11.5753 -3.93888 578.217 523.669
2.96473 12.8719 -5.33746 572.579 528.411
1.11352 13.5778 -6.83955 563.907 530.274
-0.865827 13.2905 -5.44578 555.414 529.049
-2.29272 12.2583 -4.16719 549.596 524.645
-0.681925 8.23739 -4.70605 557.96 507.106
0.490684 7.53948 -6.87021 563.071 503.373
1.83053 7.93985 -4.69775 569.216 506.557
1.87613 10.1487 -4.30855 568.769 516.517
0.803224 10.9046 -6.16881 563.485 518.671
-0.317264 10.4143 -4.40089 558.927 516.983
3 20 21 23
3 21 22 23
3 0 1 36
3 15 16 45
3 0 17 36
3 16 26 45
3 17 18 37
3 25 26 44
3 17 36 37
3 26 44 45
3 18 19 38
3 24 25 43
3 18 37 38
3 25 43 44
3 19 20 38
3 23 24 43
3 20 21 39
3 22 23 42
3 20 38 39
3 23 42 43
3 21 22 27
3 21 27 39
3 22 27 42
3 27 28 42
3 27 28 39
3 28 42 47
3 28 39 40
3 1 36 41
3 15 45 46
3 1 2 41
3 14 15 46
3 28 29 40
3 28 29 47
3 2 40 41
3 14 46 47
3 2 29 40
3 14 29 47
3 2 3 29
3 13 14 29
3 29 30 31
3 29 30 35
3 3 29 31
3 13 29 35
3 30 32 33
3 30 33 34
3 30 31 32
3 30 34 35
3 3 4 31
3 12 13 35
3 4 5 48
3 11 12 54
3 5 6 48
3 10 11 54
3 6 48 59
3 10 54 55
3 6 7 59
3 9 10 55
3 7 58 59
3 9 55 56
3 8 57 58
3 8 56 57
3 7 8 58
3 8 9 56
3 4 31 48
3 12 35 54
3 31 48 49
3 35 53 54
3 31 49 50
3 35 52 53
3 31 32 50
3 34 35 52
3 32 33 50
3 33 34 52
3 33 50 51
3 33 51 52
3 48 49 60
3 49 60 50
3 50 60 61
3 50 51 61
3 51 52 61
3 61 62 52
3 52 53 62
3 53 54 62
3 54 55 63
3 55 56 63
3 56 63 64
3 56 57 64
3 64 65 57
3 57 58 65
3 58 59 65
3 48 59 65
