ply
format ascii 1.0
element vertex 66
property float x
property float y
property float z
property float u
property float v
element face 91
property list uchar int vertex_indices
end_header
-20.3672 -5.71686 21.083 482.306 444.299
-19.8244 -0.512673 20.6686 483.01 466.188
-18.9364 4.63816 20.3035 485.198 487.985
-17.5952 9.6299 18.1892 489.348 508.28
-15.4485 14.248 13.4189 497.014 525.772
-12.0738 18.1086 7.89346 510.13 540.023
-7.76554 21.0235 3.25653 527.519 551.061
-2.84545 22.9112 -0.802834 547.831 558.272
2.48293 22.9791 -4.49001 570.445 558.135
7.17406 21.7453 -0.86241 590.818 556.366
11.1088 19.0448 3.42276 608.43 548.544
14.4849 15.7372 8.19145 623.857 538.258
16.8694 11.7127 13.8143 635.295 525.12
18.1174 7.07578 18.5282 642.077 508.549
18.7332 2.12059 20.7937 646.244 489.088
19.0307 -2.97808 21.1743 649.082 467.88
19.1007 -8.08073 21.5963 650.955 446.609
-16.305 -14.8791 0.206678 502.211 395.317
-14.2515 -16.7106 -1.54375 511.494 387.246
-11.634 -17.5875 -3.02194 522.886 383.524
-8.88067 -17.7329 -4.37274 534.632 382.999
-6.18931 -17.2579 -5.57897 545.925 385.153
3.38752 -17.7875 -5.38718 586.835 385.936
6.26967 -18.8036 -4.16755 599.421 383.201
9.30961 -19.1461 -2.75105 612.473 383.465
12.3113 -18.5332 -1.29272 625.07 387.771
14.7611 -16.7313 0.365327 634.953 397.036
-1.36509 -11.5967 -5.06809 564.712 410.784
-1.29594 -8.60305 -7.70634 564.059 421.973
-1.20237 -5.63999 -10.5163 563.519 432.945
-1.0668 -2.69621 -13.2734 563.163 443.877
-3.09854 0.453604 -6.05395 553.618 460.547
-1.95177 0.533565 -7.10522 558.462 460.65
-0.793356 0.491965 -8.18403 563.393 460.229
0.565651 0.317984 -7.1304 569.239 460.492
1.89533 0.0338699 -6.01216 574.994 460.317
-11.8932 -10.0034 -1.16432 519.466 416.468
-10.307 -11.2131 -1.14852 526.588 411.855
-8.26085 -11.4046 -1.07561 535.353 411.71
-6.52491 -10.5788 -0.731855 542.487 415.912
-8.23309 -9.79606 -1.00305 534.976 418.544
-10.1267 -9.55307 -1.10427 526.844 418.938
5.73047 -11.6611 -1.009 594.958 414.918
7.39324 -12.6764 -0.973899 602.346 411.16
9.45872 -12.6259 -0.807851 611.119 412.093
11.193 -11.6273 -0.673192 618.192 416.908
9.44891 -11.0325 -0.879559 610.586 418.772
7.52383 -11.0171 -1.04304 602.39 418.161
-5.91758 9.74522 -2.84856 538.794 500.663
-4.06389 8.19665 -5.03428 547.137 493.483
-2.03922 6.82961 -6.66806 556.156 487.426
0.305239 6.84073 -8.20266 566.113 487.336
2.70843 6.37168 -6.53585 576.497 487.011
5.07017 7.31046 -4.91089 586.272 492.589
7.41255 8.40537 -2.90785 595.919 499.03
5.63292 9.98004 -4.10286 587.852 504.47
3.44889 11.0267 -5.32459 578.226 507.544
0.996272 11.5615 -6.60497 567.615 508.346
-1.54987 11.6245 -5.38799 556.774 508.511
-3.95962 11.0626 -4.23121 546.706 506.049
-1.70712 8.8137 -5.12514 556.973 496.752
0.517963 8.50708 -7.32493 566.513 494.916
2.90926 8.27052 -5.31955 576.779 495.756
2.97161 8.64017 -4.58893 576.937 497.739
0.624178 9.02547 -6.33007 566.815 497.686
-1.66908 9.16572 -4.52249 557.032 498.582
3 20 21 23
3 21 22 23
3 0 1 36
3 15 16 45
3 0 17 36
3 16 26 45
3 17 18 37
3 25 26 44
3 17 36 37
3 26 44 45
3 18 19 38
3 24 25 43
3 18 37 38
3 25 43 44
3 19 20 38
3 23 24 43
3 20 21 39
3 22 23 42
3 20 38 39
3 23 42 43
3 21 22 27
3 21 27 39
3 22 27 42
3 27 28 42
3 27 28 39
3 28 42 47
3 28 39 40
3 1 36 41
3 15 45 46
3 1 2 41
3 14 15 46
3 28 29 40
3 28 29 47
3 2 40 41
3 14 46 47
3 2 29 40
3 14 29 47
3 2 3 29
3 13 14 29
3 29 30 31
3 29 30 35
3 3 29 31
3 13 29 35
3 30 32 33
3 30 33 34
3 30 31 32
3 30 34 35
3 3 4 31
3 12 13 35
3 4 5 48
3 11 12 54
3 5 6 48
3 10 11 54
3 6 48 59
3 10 54 55
3 6 7 59
3 9 10 55
3 7 58 59
3 9 55 56
3 8 57 58
3 8 56 57
3 7 8 58
3 8 9 56
3 4 31 48
3 12 35 54
3 31 48 49
3 35 53 54
3 31 49 50
3 35 52 53
3 31 32 50
3 34 35 52
3 32 33 50
3 33 34 52
3 33 50 51
3 33 51 52
3 48 49 60
3 49 60 50
3 50 60 61
3 50 51 61
3 51 52 61
3 61 62 52
3 52 53 62
3 53 54 62
3 54 55 63
3 55 56 63
3 56 63 64
3 56 57 64
3 64 65 57
3 57 58 65
3 58 59 65
3 48 59 65
