ply
format ascii 1.0
element vertex 66
property float x
property float y
property float z
property float u
property float v
element face 91
property list uchar int vertex_indices
end_header
-21.1044 -7.45948 21.6184 482.057 530.559
-20.5532 -1.78511 21.2663 482.507 556.124
-19.7563 3.85551 20.72 484.128 581.635
-18.6001 9.51091 18.4773 487.901 607.388
-16.7596 14.9609 13.5729 495.675 632.544
-13.3884 19.3288 7.82273 510.951 653.458
-8.82487 22.312 3.31124 531.651 668.6
-3.72664 24.102 -0.839353 555.06 678.603
1.60836 24.5211 -4.84513 579.989 682.565
6.77885 23.1932 -0.823799 602.201 678.462
11.3688 20.3781 3.37078 622.326 667.495
15.2568 16.6155 7.84467 639.586 652.025
18.0939 11.9571 13.4917 652.113 632.132
19.616 6.78713 18.2028 659.28 609.486
20.1912 1.73597 20.5438 662.962 587.077
20.1847 -3.22179 20.9707 664.647 564.914
19.8257 -8.19442 21.1951 664.833 542.56
-17.0272 -13.918 -0.0315454 509.753 503.764
-14.7264 -16.2655 -1.7525 521.447 494.177
-11.5767 -17.4612 -3.09894 536.37 490.044
-8.16259 -17.5071 -4.3457 552.008 491.144
-4.79158 -16.7402 -5.4633 567.108 495.855
2.52399 -16.9833 -5.38711 599.768 497.497
5.23513 -18.0624 -4.1577 611.847 493.658
8.13952 -18.4842 -2.86587 624.521 492.825
11.0132 -18.1223 -1.4513 636.724 495.479
13.4361 -16.664 0.32468 646.39 502.854
-0.29737 -11.1508 -5.03893 584.902 522.493
-0.157853 -8.5252 -7.72551 585.425 534.341
-0.0253872 -5.90847 -10.5492 585.964 546.151
0.101425 -3.32159 -13.3906 586.496 557.826
-2.88519 0.0795297 -6.11241 569.525 571.726
-1.19577 0.383994 -7.05266 577.248 573.74
0.540549 0.469169 -8.09657 585.295 574.794
2.08904 0.194838 -6.92787 591.913 574.117
3.547 -0.309171 -6.03163 598.302 572.387
-11.9484 -8.94652 -1.20124 530.906 527.898
-10.4068 -9.95179 -1.41723 538.222 523.987
-8.49404 -10.2758 -1.36539 546.848 523.252
-6.64823 -9.78505 -0.924092 554.743 526.123
-8.31429 -9.01456 -1.09697 547.089 528.947
-10.1387 -8.76618 -1.1304 538.878 529.377
4.90976 -10.4064 -0.78677 606.427 527.656
6.5894 -11.0523 -1.21991 614.294 525.408
8.46107 -11.1124 -1.23739 622.661 525.838
10.0689 -10.3001 -0.946819 629.426 530.06
8.37489 -9.81406 -0.923541 621.689 531.599
6.58662 -9.85494 -0.889735 613.725 530.748
-7.08611 8.78476 -2.79283 546.462 608.967
-4.95811 6.80478 -4.94451 557.391 600.969
-2.36463 5.26895 -6.55297 570.049 595.115
0.682208 5.28985 -7.89564 584.057 596.379
3.6025 4.87186 -6.30804 596.703 595.562
6.24134 6.01339 -4.72807 607.514 601.607
8.38289 7.81233 -2.65561 615.702 610.391
6.29815 9.17654 -3.85391 606.297 615.738
3.73485 9.84387 -5.14068 595.05 617.795
1.06644 10.1404 -6.63738 583.542 618.161
-1.70141 10.1539 -5.27861 570.758 617.155
-4.48768 9.82261 -3.95297 558.032 614.602
-2.13075 7.42265 -5.25897 569.86 604.792
0.878198 7.29063 -7.06842 583.91 605.37
3.78231 7.06538 -4.94114 596.235 605.394
3.85609 7.52309 -4.44847 596.23 607.455
0.976521 7.79321 -6.4808 583.967 607.637
-1.99868 7.90038 -4.66699 570.075 606.961
3 20 21 23
3 21 22 23
3 0 1 36
3 15 16 45
3 0 17 36
3 16 26 45
3 17 18 37
3 25 26 44
3 17 36 37
3 26 44 45
3 18 19 38
3 24 25 43
3 18 37 38
3 25 43 44
3 19 20 38
3 23 24 43
3 20 21 39
3 22 23 42
3 20 38 39
3 23 42 43
3 21 22 27
3 21 27 39
3 22 27 42
3 27 28 42
3 27 28 39
3 28 42 47
3 28 39 40
3 1 36 41
3 15 45 46
3 1 2 41
3 14 15 46
3 28 29 40
3 28 29 47
3 2 40 41
3 14 46 47
3 2 29 40
3 14 29 47
3 2 3 29
3 13 14 29
3 29 30 31
3 29 30 35
3 3 29 31
3 13 29 35
3 30 32 33
3 30 33 34
3 30 31 32
3 30 34 35
3 3 4 31
3 12 13 35
3 4 5 48
3 11 12 54
3 5 6 48
3 10 11 54
3 6 48 59
3 10 54 55
3 6 7 59
3 9 10 55
3 7 58 59
3 9 55 56
3 8 57 58
3 8 56 57
3 7 8 58
3 8 9 56
3 4 31 48
3 12 35 54
3 31 48 49
3 35 53 54
3 31 49 50
3 35 52 53
3 31 32 50
3 34 35 52
3 32 33 50
3 33 34 52
3 33 50 51
3 33 51 52
3 48 49 60
3 49 60 50
3 50 60 61
3 50 51 61
3 51 52 61
3 61 62 52
3 52 53 62
3 53 54 62
3 54 55 63
3 55 56 63
3 56 63 64
3 56 57 64
3 64 65 57
3 57 58 65
3 58 59 65
3 48 59 65
