ply
format ascii 1.0
element vertex 66
property float x
property float y
property float z
property float u
property float v
element face 91
property list uchar int vertex_indices
end_header
-20.5379 -6.97352 21.3664 483.908 531.297
-19.9184 -1.49001 20.9433 485.05 556.601
-18.9988 3.95086 20.4805 487.59 581.807
-17.6843 9.33825 18.51 492.356 606.746
-15.7815 14.4628 13.5286 500.702 630.368
-12.7201 18.8223 7.90213 514.776 650.807
-8.63585 22.1642 3.32425 533.591 667.031
-3.88918 24.3978 -0.83829 555.693 678.439
1.32509 25.0394 -4.77978 580.402 682.729
6.53334 23.787 -0.810315 603.607 679.144
10.9374 20.7924 3.40193 623.639 667.327
14.5149 16.8262 7.90638 640.129 650.808
17.1911 12.1907 13.4363 652.441 631.022
18.8019 7.13498 18.3636 660.174 608.89
19.5595 2.01172 20.4377 664.78 585.869
19.7312 -3.09723 20.8687 667.136 562.548
19.51 -8.22032 21.1237 667.744 539.013
-16.9317 -14.1889 0.0407349 508.464 497.242
-14.7907 -16.4535 -1.69016 519.472 487.401
-11.8145 -17.5489 -3.03324 533.817 483.242
-8.6076 -17.5629 -4.36663 548.859 484.119
-5.46066 -16.8189 -5.53627 563.332 488.467
2.60514 -17.1136 -5.44276 600.334 489.836
5.36476 -18.2381 -4.19158 613.007 485.736
8.32268 -18.6848 -2.84445 626.34 484.82
11.2532 -18.2423 -1.45777 639.243 487.976
13.643 -16.5909 0.346772 649.161 496.535
-0.544511 -11.6847 -4.95371 583.994 513.717
-0.331024 -8.8155 -7.77721 584.776 526.653
-0.126215 -5.94622 -10.5663 585.509 539.591
0.0763646 -3.0928 -13.2066 586.197 552.47
-2.68129 0.128346 -6.04007 570.605 567.046
-1.11399 0.440065 -7.05821 577.949 568.897
0.515481 0.508992 -8.07152 585.656 569.657
2.00793 0.228155 -6.94112 592.281 568.987
3.37401 -0.310064 -6.07095 598.482 567.067
-12.4284 -9.48289 -1.26321 527.877 520.197
-10.7698 -10.6721 -1.29174 535.871 515.299
-8.64274 -11.0427 -1.1615 545.697 514.328
-6.66984 -10.4462 -0.911196 554.467 517.751
-8.47221 -9.54564 -1.14562 545.98 521.25
-10.4771 -9.24562 -1.12885 536.697 521.954
4.60979 -11.0744 -0.693009 606.26 518.684
6.40862 -11.899 -1.07767 614.87 515.468
8.51643 -11.9318 -1.16374 624.554 516.017
10.3124 -11.0151 -1.0172 632.436 520.839
8.47602 -10.4364 -0.898643 623.806 522.887
6.48031 -10.4719 -0.870291 614.673 522.057
-4.95861 9.1093 -2.79564 556.356 607.787
-3.53507 7.11823 -4.96302 564.106 598.915
-1.59425 5.5514 -6.59239 573.941 592.217
0.824639 5.61205 -8.1284 585.404 593.15
3.15914 5.22109 -6.35738 595.751 592.324
5.21002 6.45829 -4.76126 604.309 598.849
6.74145 8.28424 -2.61743 610.15 607.955
5.30174 9.64503 -3.92808 603.458 613.575
3.39767 10.4661 -5.24824 594.82 616.564
1.20856 10.8328 -6.83068 585.096 617.347
-1.02077 10.7297 -5.39232 574.541 616.273
-3.1058 10.2028 -3.98576 564.795 613.301
-0.962324 7.7313 -5.09392 575.718 602.577
1.00511 7.56612 -6.95737 585.275 602.29
2.91114 7.48416 -4.87127 593.475 602.768
2.9295 7.83757 -4.42515 593.324 604.441
1.08218 8.16893 -6.17828 585.223 605.159
-0.831667 8.09379 -4.55476 576.053 604.338
3 20 21 23
3 21 22 23
3 0 1 36
3 15 16 45
3 0 17 36
3 16 26 45
3 17 18 37
3 25 26 44
3 17 36 37
3 26 44 45
3 18 19 38
3 24 25 43
3 18 37 38
3 25 43 44
3 19 20 38
3 23 24 43
3 20 21 39
3 22 23 42
3 20 38 39
3 23 42 43
3 21 22 27
3 21 27 39
3 22 27 42
3 27 28 42
3 27 28 39
3 28 42 47
3 28 39 40
3 1 36 41
3 15 45 46
3 1 2 41
3 14 15 46
3 28 29 40
3 28 29 47
3 2 40 41
3 14 46 47
3 2 29 40
3 14 29 47
3 2 3 29
3 13 14 29
3 29 30 31
3 29 30 35
3 3 29 31
3 13 29 35
3 30 32 33
3 30 33 34
3 30 31 32
3 30 34 35
3 3 4 31
3 12 13 35
3 4 5 48
3 11 12 54
3 5 6 48
3 10 11 54
3 6 48 59
3 10 54 55
3 6 7 59
3 9 10 55
3 7 58 59
3 9 55 56
3 8 57 58
3 8 56 57
3 7 8 58
3 8 9 56
3 4 31 48
3 12 35 54
3 31 48 49
3 35 53 54
3 31 49 50
3 35 52 53
3 31 32 50
3 34 35 52
3 32 33 50
3 33 34 52
3 33 50 51
3 33 51 52
3 48 49 60
3 49 60 50
3 50 60 61
3 50 51 61
3 51 52 61
3 61 62 52
3 52 53 62
3 53 54 62
3 54 55 63
3 55 56 63
3 56 63 64
3 56 57 64
3 64 65 57
3 57 58 65
3 58 59 65
3 48 59 65
