ply
format ascii 1.0
element vertex 66
property float x
property float y
property float z
property float u
property float v
element face 91
property list uchar int vertex_indices
end_header
-20.3031 -6.73797 21.3015 491.484 529.153
-19.6657 -1.41763 20.9294 491.923 553.843
-18.716 3.85084 20.4735 493.837 578.451
-17.411 9.05578 18.4273 497.846 603.042
-15.5027 14.029 13.6011 505.494 627.044
-12.4576 18.3028 7.99992 518.891 648.442
-8.42571 21.6243 3.35708 536.993 665.892
-3.74446 23.9024 -0.840446 558.445 678.848
1.43937 24.5328 -4.66065 582.888 684.479
6.54672 23.424 -0.918757 605.731 681.616
10.9096 20.6276 3.34597 625.844 670.635
14.4848 16.8753 7.94909 642.727 654.877
17.1079 12.3991 13.5237 655.341 635.283
18.5651 7.408 18.3863 663.072 612.816
19.2253 2.28855 20.5511 667.97 589.554
19.4354 -2.84625 21.053 671.278 566.114
19.296 -8.00035 21.3145 673.066 542.432
-16.8756 -14.4518 0.0676592 516.761 496.869
-14.6611 -16.5008 -1.61424 528.34 488.663
-11.7226 -17.4326 -3.01782 542.609 485.903
-8.61121 -17.4306 -4.38521 557.206 487.499
-5.56961 -16.7493 -5.59696 571.112 492.161
2.47475 -17.1261 -5.43975 608.015 494.297
5.25859 -18.256 -4.16057 620.931 490.381
8.23494 -18.7515 -2.79476 634.395 489.456
11.2205 -18.4402 -1.37635 647.496 492.225
13.7477 -16.946 0.366974 657.839 500.169
-0.721612 -11.761 -4.98445 590.682 517.292
-0.459844 -8.85734 -7.74639 591.236 530.892
-0.202242 -5.96698 -10.5833 591.799 544.434
0.0561641 -3.09628 -13.3355 592.351 557.881
-2.81649 0.380254 -6.12967 575.544 571.946
-1.21994 0.656274 -7.13134 582.984 574.043
0.425918 0.694881 -8.11385 590.759 575.076
1.98828 0.409696 -7.05509 597.744 574.454
3.44283 -0.125485 -6.1916 604.412 572.647
-12.6508 -9.58592 -1.084 534.031 521.255
-10.9262 -10.9845 -1.21618 542.627 515.69
-8.64134 -11.2779 -1.22601 553.214 515.448
-6.62932 -10.3853 -1.00849 561.916 520.489
-8.52853 -9.47826 -1.16527 552.841 523.737
-10.6371 -9.18061 -1.10436 543.043 524.081
4.52696 -11.0849 -0.740021 613.167 522.637
6.34488 -12.2724 -1.1284 622.158 518.101
8.62666 -12.3956 -1.08012 632.632 518.632
10.5627 -11.3187 -0.826888 640.888 524.478
8.66785 -10.5465 -0.857257 631.863 527.104
6.5413 -10.52 -0.865539 622.134 526.202
-5.70992 9.30163 -2.78166 557.073 611.181
-4.01117 7.31382 -4.92344 566.392 603.037
-1.82326 5.76676 -6.57816 577.598 597.115
0.814025 5.77855 -8.16286 590.084 598.541
3.38023 5.38266 -6.4232 601.522 597.851
5.71613 6.55769 -4.79498 611.178 604.249
7.60415 8.28784 -2.65857 618.377 612.94
5.88067 9.7814 -4.0211 610.154 619.037
3.6598 10.6637 -5.25969 599.92 622.088
1.19962 11.048 -6.67279 588.881 622.755
-1.28074 10.996 -5.32833 577.199 621.236
-3.63754 10.4678 -4.01541 566.32 617.598
-1.56326 7.92346 -5.12262 577.339 607.019
0.977161 7.69404 -7.13356 589.617 607.323
3.46973 7.55318 -5.02564 600.493 607.74
3.50112 8.07779 -4.55304 600.252 610.126
1.04784 8.42469 -6.25663 589.343 610.645
-1.44996 8.4443 -4.55726 577.448 609.422
3 20 21 23
3 21 22 23
3 0 1 36
3 15 16 45
3 0 17 36
3 16 26 45
3 17 18 37
3 25 26 44
3 17 36 37
3 26 44 45
3 18 19 38
3 24 25 43
3 18 37 38
3 25 43 44
3 19 20 38
3 23 24 43
3 20 21 39
3 22 23 42
3 20 38 39
3 23 42 43
3 21 22 27
3 21 27 39
3 22 27 42
3 27 28 42
3 27 28 39
3 28 42 47
3 28 39 40
3 1 36 41
3 15 45 46
3 1 2 41
3 14 15 46
3 28 29 40
3 28 29 47
3 2 40 41
3 14 46 47
3 2 29 40
3 14 29 47
3 2 3 29
3 13 14 29
3 29 30 31
3 29 30 35
3 3 29 31
3 13 29 35
3 30 32 33
3 30 33 34
3 30 31 32
3 30 34 35
3 3 4 31
3 12 13 35
3 4 5 48
3 11 12 54
3 5 6 48
3 10 11 54
3 6 48 59
3 10 54 55
3 6 7 59
3 9 10 55
3 7 58 59
3 9 55 56
3 8 57 58
3 8 56 57
3 7 8 58
3 8 9 56
3 4 31 48
3 12 35 54
3 31 48 49
3 35 53 54
3 31 49 50
3 35 52 53
3 31 32 50
3 34 35 52
3 32 33 50
3 33 34 52
3 33 50 51
3 33 51 52
3 48 49 60
3 49 60 50
3 50 60 61
3 50 51 61
3 51 52 61
3 61 62 52
3 52 53 62
3 53 54 62
3 54 55 63
3 55 56 63
3 56 63 64
3 56 57 64
3 64 65 57
3 57 58 65
3 58 59 65
3 48 59 65
