ply
format ascii 1.0
element vertex 66
property float x
property float y
property float z
property float u
property float v
element face 91
property list uchar int vertex_indices
end_header
-20.4999 -6.95957 21.2782 480.338 527.499
-19.8673 -1.49964 20.8613 481.089 553.021
-18.9034 3.90931 20.3762 483.413 578.448
-17.5001 9.25988 18.4751 488.253 603.841
-15.4952 14.3365 13.493 496.997 628.331
-12.4386 18.7118 7.92578 511.079 650.043
-8.45163 22.1827 3.30704 529.52 667.93
-3.78391 24.5752 -0.843817 551.401 681.101
1.42319 25.2854 -4.73175 576.392 686.712
6.56567 23.9349 -0.859262 599.399 682.49
10.8201 20.8002 3.34694 618.954 669.635
14.2564 16.7572 7.90654 635.004 652.225
16.8999 12.1395 13.3964 647.334 631.791
18.5959 7.13689 18.3095 655.647 609.201
19.439 2.05115 20.3401 661.01 585.971
19.66 -3.02239 20.8075 664.015 562.593
19.4649 -8.116 21.0686 665.178 538.954
-16.6985 -14.1981 0.0313229 507.913 496.398
-14.5994 -16.3849 -1.69119 519.081 487.233
-11.6875 -17.4329 -3.03229 533.392 483.66
-8.55415 -17.434 -4.3807 548.284 485.02
-5.47764 -16.7116 -5.56453 562.555 489.695
2.62367 -17.0208 -5.43605 600 491.665
5.29114 -18.1472 -4.16501 612.357 487.533
8.1562 -18.6336 -2.79536 625.322 486.439
11.0146 -18.2916 -1.41225 637.903 489.172
13.3835 -16.7801 0.346886 647.61 497.091
-0.555629 -11.6396 -4.94119 582.907 515.188
-0.357161 -8.86591 -7.77291 583.585 528.196
-0.164075 -6.09043 -10.5463 584.218 541.208
0.0285919 -3.33061 -13.1587 584.802 554.141
-2.74604 0.098621 -6.0914 568.236 568.573
-1.17216 0.431878 -7.05351 575.669 570.81
0.469231 0.511842 -8.0099 583.519 571.904
1.99032 0.215449 -6.93327 590.304 571.134
3.37855 -0.346674 -6.10012 596.668 569.089
-12.3969 -9.63524 -1.25275 526.246 519.346
-10.7153 -10.8675 -1.27346 534.527 514.356
-8.53749 -11.2313 -1.15889 544.685 513.586
-6.55569 -10.573 -0.903819 553.462 517.452
-8.38595 -9.63986 -1.13627 544.705 521.005
-10.4297 -9.33706 -1.12007 535.148 521.546
4.58685 -11.2349 -0.684841 605.048 519.067
6.38691 -12.1321 -1.04102 613.844 515.688
8.54904 -12.1791 -1.10366 623.855 516.382
10.3808 -11.2261 -0.96893 631.855 521.553
8.53411 -10.5783 -0.867275 623.033 523.767
6.49543 -10.5997 -0.85479 613.637 522.811
-4.78653 9.0978 -2.73385 553.927 609.197
-3.52563 7.0046 -4.92862 561.346 600.13
-1.63989 5.37363 -6.57003 571.269 593.441
0.777327 5.40683 -8.13932 582.918 594.667
3.1183 5.03817 -6.33862 593.275 593.882
5.12782 6.34801 -4.73298 601.461 600.723
6.5252 8.29491 -2.58508 606.376 610.234
5.25638 9.86161 -3.95383 600.315 616.992
3.4504 10.9085 -5.27814 591.982 621.121
1.22291 11.3727 -6.85512 582.034 622.387
-1.05733 11.1878 -5.40663 571.121 620.522
-3.07995 10.4254 -3.99055 561.65 616.097
-1.04383 7.56836 -5.02798 572.585 603.782
0.957952 7.35175 -6.95571 582.541 603.691
2.90995 7.30572 -4.8215 590.859 604.222
2.97432 8.16478 -4.402 590.655 608.205
1.08546 8.65419 -6.15115 582.315 609.737
-0.888855 8.43687 -4.51389 572.764 607.844
3 20 21 23
3 21 22 23
3 0 1 36
3 15 16 45
3 0 17 36
3 16 26 45
3 17 18 37
3 25 26 44
3 17 36 37
3 26 44 45
3 18 19 38
3 24 25 43
3 18 37 38
3 25 43 44
3 19 20 38
3 23 24 43
3 20 21 39
3 22 23 42
3 20 38 39
3 23 42 43
3 21 22 27
3 21 27 39
3 22 27 42
3 27 28 42
3 27 28 39
3 28 42 47
3 28 39 40
3 1 36 41
3 15 45 46
3 1 2 41
3 14 15 46
3 28 29 40
3 28 29 47
3 2 40 41
3 14 46 47
3 2 29 40
3 14 29 47
3 2 3 29
3 13 14 29
3 29 30 31
3 29 30 35
3 3 29 31
3 13 29 35
3 30 32 33
3 30 33 34
3 30 31 32
3 30 34 35
3 3 4 31
3 12 13 35
3 4 5 48
3 11 12 54
3 5 6 48
3 10 11 54
3 6 48 59
3 10 54 55
3 6 7 59
3 9 10 55
3 7 58 59
3 9 55 56
3 8 57 58
3 8 56 57
3 7 8 58
3 8 9 56
3 4 31 48
3 12 35 54
3 31 48 49
3 35 53 54
3 31 49 50
3 35 52 53
3 31 32 50
3 34 35 52
3 32 33 50
3 33 34 52
3 33 50 51
3 33 51 52
3 48 49 60
3 49 60 50
3 50 60 61
3 50 51 61
3 51 52 61
3 61 62 52
3 52 53 62
3 53 54 62
3 54 55 63
3 55 56 63
3 56 63 64
3 56 57 64
3 64 65 57
3 57 58 65
3 58 59 65
3 48 59 65
