ply
format ascii 1.0
element vertex 66
property float x
property float y
property float z
property float u
property float v
element face 91
property list uchar int vertex_indices
end_header
-20.5224 -7.20949 21.5568 485.475 531.852
-19.8488 -1.52701 21.1103 487.158 558.138
-18.9104 4.11947 20.5756 490.086 584.321
-17.6406 9.68364 18.5943 494.858 610.074
-15.827 14.8729 13.5521 502.858 633.95
-12.7589 19.1568 7.8994 516.992 653.938
-8.59988 22.3209 3.27236 536.228 669.168
-3.80318 24.3575 -0.873761 558.597 679.428
1.42489 24.8114 -4.82025 583.327 682.541
6.60653 23.462 -0.767897 606.679 678.123
10.9033 20.3282 3.42334 626.406 665.27
14.3736 16.3105 7.97438 642.493 648.161
16.976 11.7011 13.4736 654.551 628.189
18.6278 6.79405 18.2849 662.459 606.523
19.4192 1.86099 20.3619 666.978 584.239
19.5869 -3.07407 20.7314 668.981 561.612
19.3465 -8.02062 20.9855 669.135 538.81
-17.2677 -14.0701 0.0399975 506.679 499.062
-14.9772 -16.5595 -1.68496 518.225 488.056
-11.7721 -17.765 -3.01324 533.556 483.243
-8.31932 -17.7379 -4.32832 549.695 484.17
-4.93779 -16.8748 -5.49429 565.255 488.939
2.51305 -16.9628 -5.50136 599.541 490.542
5.27389 -18.1061 -4.21685 612.275 486.15
8.2588 -18.5644 -2.85154 625.841 484.979
11.2258 -18.1231 -1.44325 639.078 487.947
13.6468 -16.4258 0.352591 649.392 496.585
-0.311301 -11.7151 -4.9899 585.058 513.978
-0.182504 -8.88205 -7.79723 585.476 526.776
-0.0663792 -6.05095 -10.5801 585.832 539.563
0.0471976 -3.23393 -13.2435 586.155 552.297
-2.66619 -0.035191 -6.09884 571.362 566.981
-1.08283 0.299796 -7.06357 578.753 568.855
0.568804 0.376516 -8.05159 586.53 569.557
2.02615 0.133611 -6.92514 593.064 568.942
3.35382 -0.381252 -6.04711 599.125 567.016
-12.3344 -9.56006 -1.25306 528.434 521.018
-10.6122 -10.6499 -1.28843 536.649 516.464
-8.48658 -10.9994 -1.17479 546.493 515.44
-6.5074 -10.3948 -0.859346 555.368 518.786
-8.36295 -9.59811 -1.11034 546.677 521.928
-10.3772 -9.33815 -1.1233 537.348 522.58
4.67344 -10.8962 -0.7965 606.901 519.499
6.46023 -11.6172 -1.09563 615.369 516.634
8.52268 -11.656 -1.14407 624.873 517.006
10.289 -10.768 -0.999321 632.73 521.583
8.46292 -10.256 -0.935863 624.185 523.453
6.50561 -10.3232 -0.934364 615.202 522.616
-5.4505 8.97791 -2.78546 555.49 608.028
-3.91101 6.92192 -4.97788 563.565 598.768
-1.83039 5.285 -6.60221 573.899 591.638
0.751232 5.27778 -8.1344 586.087 592.151
3.23411 4.96748 -6.28321 597.206 591.573
5.38003 6.27694 -4.69799 606.401 598.332
6.93674 8.2403 -2.60823 612.609 607.99
5.56704 9.84018 -3.89017 606.15 614.857
3.62336 10.8889 -5.21853 597.208 619.03
1.24084 11.3152 -6.855 586.475 620.189
-1.25723 11.1488 -5.42723 574.74 618.89
-3.50136 10.3597 -4.0336 564.343 614.79
-1.3221 7.45656 -5.16446 575.366 601.908
0.956413 7.19463 -7.04452 586.298 601.134
3.17495 7.21656 -4.79986 596.033 602.051
3.30552 8.23731 -4.32153 596.265 606.83
1.13613 8.67771 -6.23609 586.566 608.085
-1.14676 8.50403 -4.60024 575.778 606.83
3 20 21 23
3 21 22 23
3 0 1 36
3 15 16 45
3 0 17 36
3 16 26 45
3 17 18 37
3 25 26 44
3 17 36 37
3 26 44 45
3 18 19 38
3 24 25 43
3 18 37 38
3 25 43 44
3 19 20 38
3 23 24 43
3 20 21 39
3 22 23 42
3 20 38 39
3 23 42 43
3 21 22 27
3 21 27 39
3 22 27 42
3 27 28 42
3 27 28 39
3 28 42 47
3 28 39 40
3 1 36 41
3 15 45 46
3 1 2 41
3 14 15 46
3 28 29 40
3 28 29 47
3 2 40 41
3 14 46 47
3 2 29 40
3 14 29 47
3 2 3 29
3 13 14 29
3 29 30 31
3 29 30 35
3 3 29 31
3 13 29 35
3 30 32 33
3 30 33 34
3 30 31 32
3 30 34 35
3 3 4 31
3 12 13 35
3 4 5 48
3 11 12 54
3 5 6 48
3 10 11 54
3 6 48 59
3 10 54 55
3 6 7 59
3 9 10 55
3 7 58 59
3 9 55 56
3 8 57 58
3 8 56 57
3 7 8 58
3 8 9 56
3 4 31 48
3 12 35 54
3 31 48 49
3 35 53 54
3 31 49 50
3 35 52 53
3 31 32 50
3 34 35 52
3 32 33 50
3 33 34 52
3 33 50 51
3 33 51 52
3 48 49 60
3 49 60 50
3 50 60 61
3 50 51 61
3 51 52 61
3 61 62 52
3 52 53 62
3 53 54 62
3 54 55 63
3 55 56 63
3 56 63 64
3 56 57 64
3 64 65 57
3 57 58 65
3 58 59 65
3 48 59 65
