ply
format ascii 1.0
element vertex 66
property float x
property float y
property float z
property float u
property float v
element face 91
property list uchar int vertex_indices
end_header
-20.3206 -7.49639 21.4205 480.387 531.568
-19.7818 -1.8505 21.0894 481.286 558.452
-18.9679 3.75686 20.5734 483.548 585.255
-17.7657 9.33685 18.4332 488.132 612.211
-15.945 14.7057 13.6019 496.495 638.627
-12.7891 19.1805 7.92799 511.684 661.307
-8.49445 22.4463 3.28389 532.313 678.512
-3.58856 24.5794 -0.80288 556.011 690.493
1.7313 25.1173 -4.80982 582.132 695.05
6.86885 23.7763 -0.803034 605.601 689.863
11.2694 20.784 3.32289 626.066 676.635
14.8662 16.8438 7.93985 642.887 658.634
17.4094 12.1057 13.5435 654.691 636.443
18.7872 6.94828 18.2261 661.398 612.009
19.3411 1.85765 20.436 664.928 587.891
19.3406 -3.17845 20.8488 666.358 564.045
18.9865 -8.22069 21.0923 666.171 540.079
-16.5866 -13.882 -0.0541004 506.329 504.68
-14.4385 -16.2722 -1.77034 517.709 494.205
-11.4262 -17.5544 -3.11189 532.715 489.192
-8.12526 -17.6932 -4.39332 548.711 489.665
-4.86168 -17.0214 -5.55747 564.247 493.946
2.31141 -17.2018 -5.48056 598.125 495.257
5.04677 -18.1894 -4.21539 610.961 491.289
7.95914 -18.4927 -2.90516 624.409 490.605
10.8007 -17.9445 -1.51927 637.237 493.917
13.1207 -16.3072 0.263662 647.151 502.179
-0.442212 -11.8023 -5.04106 583.336 519.902
-0.27189 -9.17927 -7.7135 584.121 532.621
-0.109268 -6.56201 -10.4554 584.892 545.318
0.0506064 -3.97053 -13.2071 585.661 557.894
-2.76821 -0.423857 -6.05592 569.151 573.084
-1.17007 -0.185159 -6.96822 576.888 574.788
0.4647 -0.139558 -7.97879 584.886 575.601
1.94621 -0.376196 -6.85862 591.618 574.818
3.34669 -0.815838 -5.98085 598.102 573.075
-11.77 -9.23603 -1.26544 527.98 528.221
-10.2088 -10.1769 -1.37188 535.668 524.258
-8.30517 -10.5188 -1.28947 544.731 523.21
-6.45757 -10.1766 -0.923815 553.234 525.349
-8.13364 -9.43087 -1.11461 545.153 528.386
-9.96031 -9.13913 -1.13501 536.45 529.214
4.58253 -10.734 -0.789717 605.457 526.044
6.30384 -11.2404 -1.1655 613.846 524.21
8.17894 -11.2516 -1.22055 622.713 524.73
9.80652 -10.5154 -1.03694 630.111 528.684
8.08312 -10.1309 -0.950557 621.836 529.971
6.27782 -10.2112 -0.923078 613.334 529.042
-6.34889 9.16234 -2.75164 548.321 616.979
-4.72355 6.74569 -4.89765 557.37 606.265
-2.36583 4.83878 -6.49104 569.554 598.125
0.647957 4.73431 -7.9202 584.229 598.688
3.56921 4.44662 -6.27162 597.614 598.047
6.05666 5.9944 -4.70858 608.41 605.958
7.81436 8.27328 -2.64787 615.391 617.055
6.13893 9.99877 -3.90839 607.326 624.831
3.86908 11.105 -5.23826 596.669 629.507
1.18251 11.5667 -6.78768 584.308 631.032
-1.61946 11.4245 -5.35521 570.708 629.367
-4.14714 10.6107 -3.99581 558.631 624.618
-2.09134 7.21457 -5.05528 569.692 609.294
0.843604 6.82906 -7.0267 584.242 608.559
3.72617 6.85578 -4.79013 597.173 609.333
3.87412 8.45906 -4.38187 597.255 616.915
1.05992 8.99846 -6.35198 584.394 618.811
-1.8733 8.82468 -4.55397 570.075 616.92
3 20 21 23
3 21 22 23
3 0 1 36
3 15 16 45
3 0 17 36
3 16 26 45
3 17 18 37
3 25 26 44
3 17 36 37
3 26 44 45
3 18 19 38
3 24 25 43
3 18 37 38
3 25 43 44
3 19 20 38
3 23 24 43
3 20 21 39
3 22 23 42
3 20 38 39
3 23 42 43
3 21 22 27
3 21 27 39
3 22 27 42
3 27 28 42
3 27 28 39
3 28 42 47
3 28 39 40
3 1 36 41
3 15 45 46
3 1 2 41
3 14 15 46
3 28 29 40
3 28 29 47
3 2 40 41
3 14 46 47
3 2 29 40
3 14 29 47
3 2 3 29
3 13 14 29
3 29 30 31
3 29 30 35
3 3 29 31
3 13 29 35
3 30 32 33
3 30 33 34
3 30 31 32
3 30 34 35
3 3 4 31
3 12 13 35
3 4 5 48
3 11 12 54
3 5 6 48
3 10 11 54
3 6 48 59
3 10 54 55
3 6 7 59
3 9 10 55
3 7 58 59
3 9 55 56
3 8 57 58
3 8 56 57
3 7 8 58
3 8 9 56
3 4 31 48
3 12 35 54
3 31 48 49
3 35 53 54
3 31 49 50
3 35 52 53
3 31 32 50
3 34 35 52
3 32 33 50
3 33 34 52
3 33 50 51
3 33 51 52
3 48 49 60
3 49 60 50
3 50 60 61
3 50 51 61
3 51 52 61
3 61 62 52
3 52 53 62
3 53 54 62
3 54 55 63
3 55 56 63
3 56 63 64
3 56 57 64
3 64 65 57
3 57 58 65
3 58 59 65
3 48 59 65
