ply
format ascii 1.0
element vertex 66
property float x
property float y
property float z
property float u
property float v
element face 91
property list uchar int vertex_indices
end_header
-20.248 -7.06189 21.3812 480.404 526.038
-19.6721 -1.50585 21.0126 481.112 552.423
-18.8173 4.00841 20.4818 483.2 578.746
-17.6297 9.4621 18.4481 487.394 605.204
-15.8479 14.6407 13.5929 495.462 631.143
-12.778 18.9882 7.94073 510.162 653.809
-8.59936 22.2307 3.27965 530.137 671.496
-3.75492 24.3351 -0.866467 553.488 683.98
1.53427 24.8112 -4.73109 579.447 688.923
6.69868 23.5546 -0.860131 602.789 684.156
11.058 20.5845 3.36705 622.886 670.974
14.6213 16.702 7.98994 639.461 653.135
17.1989 12.107 13.5675 651.356 631.398
18.6374 7.07339 18.3154 658.366 607.345
19.261 1.97524 20.4756 662.483 583.199
19.3758 -3.13025 20.9545 664.803 559.163
19.1364 -8.25255 21.1714 665.559 534.969
-16.6128 -14.2852 0.0161313 507.641 497.649
-14.3916 -16.4212 -1.6754 519.458 488.765
-11.4224 -17.4313 -3.04099 534.238 485.38
-8.25905 -17.4543 -4.36857 549.538 486.697
-5.15668 -16.7642 -5.56696 564.236 491.316
2.42709 -17.0157 -5.48674 599.856 492.908
5.14186 -18.0995 -4.19792 612.547 488.561
8.05449 -18.5539 -2.83283 625.899 487.228
10.9688 -18.2192 -1.41872 638.94 489.594
13.431 -16.7256 0.305002 649.312 497.176
-0.600611 -11.7636 -5.04549 583.504 516.38
-0.4395 -9.00688 -7.73437 584.144 529.92
-0.282472 -6.26419 -10.5272 584.806 543.412
-0.121567 -3.54336 -13.2936 585.486 556.798
-2.85674 0.0949588 -6.10741 568.773 571.468
-1.28344 0.353773 -7.06374 576.383 573.451
0.338603 0.393206 -8.05033 584.315 574.427
1.85662 0.143172 -6.97112 591.151 573.598
3.27655 -0.337305 -6.11275 597.692 571.694
-12.1689 -9.63133 -1.17314 527.112 521.38
-10.4829 -10.9263 -1.2964 535.553 515.941
-8.28694 -11.2045 -1.2554 545.939 515.434
-6.33682 -10.3519 -0.891051 554.628 520.085
-8.18358 -9.48822 -1.10949 545.718 523.506
-10.2243 -9.22341 -1.10985 536.05 523.999
4.57215 -11.0066 -0.782395 605.98 520.999
6.32365 -12.0619 -1.16315 614.726 516.761
8.48632 -12.1662 -1.12383 624.891 517.059
10.3108 -11.1268 -0.881187 632.963 522.564
8.49572 -10.4057 -0.886555 624.18 525.285
6.47115 -10.409 -0.902531 614.696 524.528
-5.96685 9.25006 -2.76067 549.534 612.674
-4.25221 7.1713 -4.93262 559.122 603.967
-2.01655 5.52566 -6.5941 570.809 597.385
0.716557 5.48587 -8.0891 584.157 598.498
3.38161 5.13559 -6.35925 596.182 597.492
5.75449 6.40149 -4.72524 606.253 603.989
7.6219 8.26312 -2.62318 613.565 613.008
5.92873 9.79846 -3.95677 605.506 619.86
3.71879 10.7446 -5.23222 595.23 623.743
1.18996 11.1489 -6.7045 583.733 625.003
-1.40716 11.0944 -5.36656 571.113 623.528
-3.83883 10.5 -4.0274 559.474 619.578
-1.78668 7.6835 -5.10723 570.545 607.314
0.906578 7.3769 -7.0681 583.971 607.25
3.56937 7.30405 -4.9147 595.732 607.463
3.66009 8.23289 -4.4391 595.637 611.766
1.04523 8.63869 -6.30411 583.873 613.078
-1.6394 8.62446 -4.56761 570.689 611.682
3 20 21 23
3 21 22 23
3 0 1 36
3 15 16 45
3 0 17 36
3 16 26 45
3 17 18 37
3 25 26 44
3 17 36 37
3 26 44 45
3 18 19 38
3 24 25 43
3 18 37 38
3 25 43 44
3 19 20 38
3 23 24 43
3 20 21 39
3 22 23 42
3 20 38 39
3 23 42 43
3 21 22 27
3 21 27 39
3 22 27 42
3 27 28 42
3 27 28 39
3 28 42 47
3 28 39 40
3 1 36 41
3 15 45 46
3 1 2 41
3 14 15 46
3 28 29 40
3 28 29 47
3 2 40 41
3 14 46 47
3 2 29 40
3 14 29 47
3 2 3 29
3 13 14 29
3 29 30 31
3 29 30 35
3 3 29 31
3 13 29 35
3 30 32 33
3 30 33 34
3 30 31 32
3 30 34 35
3 3 4 31
3 12 13 35
3 4 5 48
3 11 12 54
3 5 6 48
3 10 11 54
3 6 48 59
3 10 54 55
3 6 7 59
3 9 10 55
3 7 58 59
3 9 55 56
3 8 57 58
3 8 56 57
3 7 8 58
3 8 9 56
3 4 31 48
3 12 35 54
3 31 48 49
3 35 53 54
3 31 49 50
3 35 52 53
3 31 32 50
3 34 35 52
3 32 33 50
3 33 34 52
3 33 50 51
3 33 51 52
3 48 49 60
3 49 60 50
3 50 60 61
3 50 51 61
3 51 52 61
3 61 62 52
3 52 53 62
3 53 54 62
3 54 55 63
3 55 56 63
3 56 63 64
3 56 57 64
3 64 65 57
3 57 58 65
3 58 59 65
3 48 59 65
