ply
format ascii 1.0
element vertex 66
property float x
property float y
property float z
property float u
property float v
element face 91
property list uchar int vertex_indices
end_header
-20.3584 -6.69186 21.3529 487.144 526.523
-19.7414 -1.32038 20.9537 487.734 551.625
-18.8393 4.01091 20.5162 489.665 576.671
-17.6016 9.25539 18.4618 493.66 601.757
-15.7621 14.2253 13.6099 501.378 626.347
-12.726 18.4504 7.99479 515.16 648.156
-8.64412 21.6646 3.35736 533.91 665.577
-3.91156 23.8194 -0.838416 555.992 678.312
1.29443 24.3722 -4.69196 580.858 683.803
6.50378 23.327 -0.874763 604.164 680.526
10.9815 20.5808 3.37806 624.722 669.014
14.6605 16.8558 7.97255 641.934 652.582
17.319 12.3635 13.5561 654.493 631.994
18.7558 7.34447 18.4152 661.876 608.585
19.3796 2.17048 20.5847 666.384 584.604
19.5372 -3.04223 21.0559 669.268 560.554
19.3464 -8.26839 21.3242 670.615 536.329
-16.9496 -14.0397 0.0409035 512.411 498.01
-14.7587 -16.2125 -1.65651 523.959 489.245
-11.7986 -17.2378 -3.03651 538.447 486.042
-8.64421 -17.2829 -4.39109 553.39 487.438
-5.55147 -16.6397 -5.59367 567.701 491.953
2.51785 -17.0013 -5.48589 604.972 493.735
5.32836 -18.1122 -4.20162 618.018 489.587
8.33262 -18.5825 -2.83055 631.647 488.46
11.3412 -18.22 -1.41362 644.914 491.165
13.8745 -16.652 0.318733 655.369 499.166
-0.65158 -11.7429 -5.01068 587.923 516.528
-0.400249 -8.88727 -7.76781 588.64 530.305
-0.155077 -6.04467 -10.5914 589.354 544.031
0.0877855 -3.21738 -13.313 590.034 557.667
-2.7782 0.281787 -6.11013 573.157 571.25
-1.18199 0.55864 -7.11758 580.682 573.397
0.467026 0.595951 -8.10392 588.55 574.458
2.01731 0.322341 -7.03484 595.489 573.668
3.46076 -0.203436 -6.16173 602.105 571.705
-12.5854 -9.5613 -1.12327 530.872 520.745
-10.8609 -10.8849 -1.23149 539.426 515.404
-8.62469 -11.1932 -1.2105 549.849 514.94
-6.61924 -10.3902 -0.991287 558.661 519.464
-8.50446 -9.53286 -1.15922 549.655 522.637
-10.5855 -9.23426 -1.11573 539.931 523.111
4.6306 -11.0998 -0.735083 610.682 520.982
6.44814 -12.19 -1.11324 619.642 516.806
8.67948 -12.2928 -1.10157 629.955 517.289
10.5959 -11.2846 -0.890738 638.27 522.723
8.70968 -10.5933 -0.885775 629.281 525.098
6.61617 -10.5773 -0.874318 619.633 524.27
-5.72378 9.23734 -2.8117 554.668 610.668
-4.00264 7.25246 -4.928 564.095 602.644
-1.81565 5.71125 -6.58266 575.334 596.781
0.804166 5.71921 -8.15345 587.857 598.231
3.34947 5.34678 -6.41902 599.222 597.292
5.6638 6.53604 -4.78153 608.864 603.47
7.53917 8.27974 -2.66256 616.097 611.928
5.79905 9.70749 -3.99078 607.853 618.004
3.58655 10.5325 -5.25907 597.681 621.089
1.13937 10.8712 -6.71001 586.698 621.863
-1.31861 10.8401 -5.34345 574.991 620.413
-3.65599 10.3545 -3.98457 564.042 616.922
-1.60119 7.83209 -5.14911 574.959 606.389
0.951375 7.58414 -7.1139 587.403 606.702
3.44899 7.48583 -5.02009 598.321 606.94
3.47153 8.02763 -4.51791 598.036 609.356
1.01398 8.33967 -6.2518 587.102 610.055
-1.49614 8.37667 -4.55545 575.026 608.836
3 20 21 23
3 21 22 23
3 0 1 36
3 15 16 45
3 0 17 36
3 16 26 45
3 17 18 37
3 25 26 44
3 17 36 37
3 26 44 45
3 18 19 38
3 24 25 43
3 18 37 38
3 25 43 44
3 19 20 38
3 23 24 43
3 20 21 39
3 22 23 42
3 20 38 39
3 23 42 43
3 21 22 27
3 21 27 39
3 22 27 42
3 27 28 42
3 27 28 39
3 28 42 47
3 28 39 40
3 1 36 41
3 15 45 46
3 1 2 41
3 14 15 46
3 28 29 40
3 28 29 47
3 2 40 41
3 14 46 47
3 2 29 40
3 14 29 47
3 2 3 29
3 13 14 29
3 29 30 31
3 29 30 35
3 3 29 31
3 13 29 35
3 30 32 33
3 30 33 34
3 30 31 32
3 30 34 35
3 3 4 31
3 12 13 35
3 4 5 48
3 11 12 54
3 5 6 48
3 10 11 54
3 6 48 59
3 10 54 55
3 6 7 59
3 9 10 55
3 7 58 59
3 9 55 56
3 8 57 58
3 8 56 57
3 7 8 58
3 8 9 56
3 4 31 48
3 12 35 54
3 31 48 49
3 35 53 54
3 31 49 50
3 35 52 53
3 31 32 50
3 34 35 52
3 32 33 50
3 33 34 52
3 33 50 51
3 33 51 52
3 48 49 60
3 49 60 50
3 50 60 61
3 50 51 61
3 51 52 61
3 61 62 52
3 52 53 62
3 53 54 62
3 54 55 63
3 55 56 63
3 56 63 64
3 56 57 64
3 64 65 57
3 57 58 65
3 58 59 65
3 48 59 65
