ply
format ascii 1.0
element vertex 66
property float x
property float y
property float z
property float u
property float v
element face 91
property list uchar int vertex_indices
end_header
-20.0541 -7.02963 21.3736 488.934 530.795
-19.4427 -1.45554 20.9326 489.695 557.09
-18.5762 4.08543 20.4031 491.682 583.337
-17.3601 9.5934 18.4684 495.716 609.679
-15.6285 14.8495 13.5965 503.098 635.281
-12.7174 19.2796 7.87415 516.548 657.557
-8.71287 22.6193 3.22456 535.218 675.09
-4.04442 24.8574 -0.843274 557.251 687.695
1.09536 25.5098 -4.86431 582.097 693.08
6.36572 24.1391 -0.712138 606.003 688.426
10.7334 20.8922 3.36826 626.469 674.665
14.2387 16.7029 7.92283 643.156 656.128
16.8272 11.8761 13.499 655.53 634.173
18.4415 6.73953 18.1911 663.742 610.46
19.2049 1.64613 20.2218 668.739 586.824
19.3062 -3.40084 20.6353 671.098 563.272
18.9767 -8.46352 20.8552 671.511 539.493
-16.3424 -14.3472 0.0213647 515.284 499.787
-14.3535 -16.7311 -1.71195 525.997 489.578
-11.4763 -18.0292 -3.01239 540.294 484.754
-8.29896 -18.1827 -4.28993 555.526 485.388
-5.14979 -17.5238 -5.43229 570.266 489.792
2.54658 -17.7159 -5.4696 606.214 491.926
5.11823 -18.6937 -4.20395 618.22 488.272
7.88062 -18.9853 -2.87255 630.824 487.892
10.5779 -18.4565 -1.47276 642.778 491.311
12.7584 -16.8744 0.299186 651.799 499.413
-0.268687 -11.9594 -4.95768 590.661 517.649
-0.107481 -9.28147 -7.70606 591.139 530.43
0.0387972 -6.60321 -10.4508 591.546 543.206
0.173264 -3.9455 -13.1353 591.889 555.878
-2.38077 -0.262485 -5.98049 576.466 571.499
-0.869441 -0.0536798 -6.95642 583.705 573.145
0.684713 -0.0139623 -7.98182 591.226 574.023
2.02813 -0.208441 -6.81588 597.227 573.551
3.28432 -0.591832 -5.96733 602.988 572.188
-11.7241 -9.56008 -1.31158 535.283 524.054
-10.1791 -10.6069 -1.32562 542.902 519.776
-8.21587 -10.9926 -1.17208 552.158 518.736
-6.3472 -10.552 -0.839258 560.594 521.502
-8.01761 -9.65309 -1.11856 552.534 525.063
-9.89323 -9.36111 -1.11551 543.678 525.688
4.47719 -11.0814 -0.669842 611.19 523.274
6.16664 -11.6785 -1.08954 619.42 521.185
8.08587 -11.6934 -1.22101 628.406 521.88
9.70038 -10.8591 -1.13726 635.573 526.403
8.0055 -10.3445 -0.941469 627.415 528.123
6.17031 -10.4305 -0.893616 618.885 526.996
-4.99479 9.4273 -2.78562 559.515 615.449
-3.55561 7.42758 -4.97023 567.644 606.853
-1.63907 5.71959 -6.59685 577.721 599.763
0.829471 5.74702 -8.07973 589.639 600.979
3.18909 5.43588 -6.31539 600.249 600.315
5.15422 6.86774 -4.70966 608.374 607.645
6.55865 8.79364 -2.55527 613.532 617.017
5.18665 10.1207 -3.93959 607.01 622.781
3.35739 10.9716 -5.23263 598.521 626.136
1.15863 11.3449 -6.86206 588.597 627.143
-1.10155 11.1622 -5.42451 577.725 625.287
-3.1512 10.5417 -4.0219 568.018 621.474
-1.15402 7.87438 -5.04198 578.677 609.889
0.991441 7.62732 -6.92868 589.315 609.729
3.0414 7.68889 -4.67636 598.193 610.644
3.09444 8.48643 -4.3042 598.016 614.359
1.11069 8.89281 -6.20508 589.159 615.626
-0.99682 8.70236 -4.56494 578.943 613.778
3 20 21 23
3 21 22 23
3 0 1 36
3 15 16 45
3 0 17 36
3 16 26 45
3 17 18 37
3 25 26 44
3 17 36 37
3 26 44 45
3 18 19 38
3 24 25 43
3 18 37 38
3 25 43 44
3 19 20 38
3 23 24 43
3 20 21 39
3 22 23 42
3 20 38 39
3 23 42 43
3 21 22 27
3 21 27 39
3 22 27 42
3 27 28 42
3 27 28 39
3 28 42 47
3 28 39 40
3 1 36 41
3 15 45 46
3 1 2 41
3 14 15 46
3 28 29 40
3 28 29 47
3 2 40 41
3 14 46 47
3 2 29 40
3 14 29 47
3 2 3 29
3 13 14 29
3 29 30 31
3 29 30 35
3 3 29 31
3 13 29 35
3 30 32 33
3 30 33 34
3 30 31 32
3 30 34 35
3 3 4 31
3 12 13 35
3 4 5 48
3 11 12 54
3 5 6 48
3 10 11 54
3 6 48 59
3 10 54 55
3 6 7 59
3 9 10 55
3 7 58 59
3 9 55 56
3 8 57 58
3 8 56 57
3 7 8 58
3 8 9 56
3 4 31 48
3 12 35 54
3 31 48 49
3 35 53 54
3 31 49 50
3 35 52 53
3 31 32 50
3 34 35 52
3 32 33 50
3 33 34 52
3 33 50 51
3 33 51 52
3 48 49 60
3 49 60 50
3 50 60 61
3 50 51 61
3 51 52 61
3 61 62 52
3 52 53 62
3 53 54 62
3 54 55 63
3 55 56 63
3 56 63 64
3 56 57 64
3 64 65 57
3 57 58 65
3 58 59 65
3 48 59 65
