ply
format ascii 1.0
element vertex 66
property float x
property float y
property float z
property float u
property float v
element face 91
property list uchar int vertex_indices
end_header
-20.279 -6.96787 21.2767 478.918 528.166
-19.6535 -1.49559 20.8728 479.744 554.175
-18.7134 3.92838 20.3929 482.09 580.092
-17.3577 9.28306 18.4786 486.908 606.036
-15.4246 14.3532 13.5665 495.587 631.26
-12.4238 18.7038 7.95454 509.807 653.622
-8.44367 22.107 3.30168 528.672 671.805
-3.79241 24.4496 -0.835625 550.938 685.21
1.3912 25.115 -4.70792 576.294 690.915
6.5292 23.8001 -0.828032 599.565 686.305
10.775 20.6881 3.35967 619.285 672.855
14.2035 16.6835 7.94307 635.405 654.833
16.8037 12.0905 13.4582 647.562 633.594
18.46 7.12607 18.2971 655.684 610.319
19.2679 2.0824 20.3275 660.835 586.69
19.4618 -2.95924 20.7713 663.659 563.029
19.2493 -8.02008 21.0123 664.656 539.14
-16.6297 -14.2899 0.00693963 506.389 497.97
-14.5403 -16.5014 -1.67116 517.668 488.636
-11.6223 -17.5688 -3.01838 532.245 484.968
-8.48119 -17.5891 -4.38291 547.444 486.31
-5.39488 -16.8865 -5.58969 562.035 491.006
2.58603 -17.1813 -5.47608 599.512 492.813
5.24921 -18.2541 -4.18472 611.983 488.678
8.10375 -18.6942 -2.80374 625.061 487.58
10.9418 -18.3104 -1.4133 637.719 490.345
13.2658 -16.7556 0.326781 647.368 498.358
-0.543298 -11.8994 -4.96756 582.506 516.301
-0.350599 -9.16352 -7.73555 583.245 529.586
-0.164774 -6.43066 -10.4972 583.951 542.852
0.0197448 -3.71621 -13.1574 584.624 556.019
-2.67311 -0.0733591 -6.01472 568.037 571.131
-1.12367 0.212052 -7.02595 575.531 573.224
0.485094 0.266219 -8.03272 583.395 574.254
1.96063 0.00566109 -6.90419 590.025 573.478
3.31369 -0.500704 -6.02917 596.269 571.531
-12.3924 -9.77067 -1.25679 524.827 521.063
-10.7427 -11.0771 -1.24471 533.089 515.587
-8.54943 -11.4397 -1.12322 543.472 514.75
-6.58412 -10.6997 -0.874979 552.291 518.984
-8.39307 -9.70391 -1.13901 543.498 522.969
-10.4406 -9.39725 -1.11801 533.771 523.584
4.52946 -11.3274 -0.659963 604.548 520.473
6.29783 -12.2906 -1.01985 613.354 516.705
8.46914 -12.3455 -1.09307 623.576 517.329
10.2721 -11.3071 -0.989024 631.561 522.918
8.45558 -10.5903 -0.875649 622.717 525.541
6.41797 -10.6254 -0.861742 613.179 524.555
-4.64965 9.46681 -2.7847 553.743 614.736
-3.35273 7.45404 -4.93849 561.392 606.079
-1.53206 5.78672 -6.59353 571.18 599.191
0.822442 5.82336 -8.16492 582.742 600.511
3.09523 5.46287 -6.35456 592.912 599.498
5.03737 6.81534 -4.73751 600.897 606.424
6.44254 8.68719 -2.62459 605.981 615.51
5.16298 10.0915 -4.00322 599.887 621.77
3.391 10.9991 -5.31883 591.668 625.49
1.24558 11.4142 -6.85332 581.976 626.775
-0.952089 11.2604 -5.45781 571.259 624.99
-2.93116 10.6281 -4.05671 561.76 621.045
-0.902635 7.93922 -5.04374 572.709 609.356
1.00243 7.70237 -6.96788 582.4 609.256
2.85697 7.69746 -4.81509 590.345 609.701
2.89358 8.34589 -4.41124 590.111 612.71
1.11805 8.76723 -6.14446 582.219 614.199
-0.738338 8.59627 -4.54365 573.036 612.444
3 20 21 23
3 21 22 23
3 0 1 36
3 15 16 45
3 0 17 36
3 16 26 45
3 17 18 37
3 25 26 44
3 17 36 37
3 26 44 45
3 18 19 38
3 24 25 43
3 18 37 38
3 25 43 44
3 19 20 38
3 23 24 43
3 20 21 39
3 22 23 42
3 20 38 39
3 23 42 43
3 21 22 27
3 21 27 39
3 22 27 42
3 27 28 42
3 27 28 39
3 28 42 47
3 28 39 40
3 1 36 41
3 15 45 46
3 1 2 41
3 14 15 46
3 28 29 40
3 28 29 47
3 2 40 41
3 14 46 47
3 2 29 40
3 14 29 47
3 2 3 29
3 13 14 29
3 29 30 31
3 29 30 35
3 3 29 31
3 13 29 35
3 30 32 33
3 30 33 34
3 30 31 32
3 30 34 35
3 3 4 31
3 12 13 35
3 4 5 48
3 11 12 54
3 5 6 48
3 10 11 54
3 6 48 59
3 10 54 55
3 6 7 59
3 9 10 55
3 7 58 59
3 9 55 56
3 8 57 58
3 8 56 57
3 7 8 58
3 8 9 56
3 4 31 48
3 12 35 54
3 31 48 49
3 35 53 54
3 31 49 50
3 35 52 53
3 31 32 50
3 34 35 52
3 32 33 50
3 33 34 52
3 33 50 51
3 33 51 52
3 48 49 60
3 49 60 50
3 50 60 61
3 50 51 61
3 51 52 61
3 61 62 52
3 52 53 62
3 53 54 62
3 54 55 63
3 55 56 63
3 56 63 64
3 56 57 64
3 64 65 57
3 57 58 65
3 58 59 65
3 48 59 65
