ply
format ascii 1.0
element vertex 66
property float x
property float y
property float z
property float u
property float v
element face 91
property list uchar int vertex_indices
end_header
-20.4773 -6.88438 21.3064 480.813 526.465
-19.8597 -1.39521 20.8736 481.714 552.107
-18.9204 4.04644 20.3884 484.132 577.655
-17.5575 9.42082 18.4749 488.961 603.207
-15.5962 14.5005 13.4913 497.588 627.958
-12.5453 18.8471 7.90405 511.701 649.793
-8.53626 22.2601 3.28279 530.294 667.565
-3.84355 24.5796 -0.861097 552.309 680.485
1.36594 25.2407 -4.75976 577.261 685.908
6.54861 23.8951 -0.816511 600.481 681.185
10.8318 20.7474 3.38757 620.156 667.771
14.2857 16.6848 7.94359 636.246 649.782
16.9245 12.0464 13.4369 648.512 628.726
18.6079 7.03342 18.3265 656.696 605.65
19.4423 1.93421 20.3611 661.86 582.174
19.6524 -3.1634 20.8015 664.626 558.648
19.4428 -8.27758 21.0543 665.519 534.91
-16.6523 -14.2421 0.027744 507.667 496.231
-14.5447 -16.393 -1.68443 518.718 487.265
-11.6532 -17.4208 -3.02217 532.846 483.739
-8.54926 -17.4256 -4.3677 547.569 485.02
-5.50065 -16.7153 -5.55473 561.719 489.568
2.66751 -16.9788 -5.47762 599.465 491.381
5.3425 -18.0788 -4.20202 611.832 487.153
8.21182 -18.5398 -2.82647 624.824 485.939
11.0699 -18.1676 -1.43753 637.444 488.57
13.4354 -16.6325 0.310385 647.244 496.351
-0.561836 -11.7194 -4.93739 582.417 514.423
-0.383865 -8.93511 -7.75994 583.037 527.665
-0.212623 -6.15025 -10.5345 583.61 540.903
-0.040166 -3.38075 -13.1579 584.15 554.053
-2.77009 0.069529 -6.07551 568.114 568.201
-1.20128 0.397107 -7.04836 575.519 570.406
0.434375 0.474627 -8.01347 583.324 571.479
1.95036 0.187269 -6.92709 590.096 570.596
3.33541 -0.362896 -6.08748 596.438 568.476
-12.3808 -9.64547 -1.25851 526.015 519.203
-10.6889 -10.8127 -1.26687 534.262 514.44
-8.53929 -11.1766 -1.13676 544.273 513.544
-6.56015 -10.5848 -0.893274 553.103 516.988
-8.39024 -9.69123 -1.12986 544.396 520.462
-10.4206 -9.39246 -1.11876 534.917 521.086
4.67494 -11.2336 -0.734847 605.115 518.154
6.48292 -12.0373 -1.04845 613.852 515.147
8.60868 -12.0595 -1.11026 623.682 515.843
10.4231 -11.1576 -0.981966 631.669 520.671
8.57697 -10.5799 -0.886932 622.908 522.643
6.56083 -10.6195 -0.886345 613.625 521.71
-4.81568 9.08214 -2.75498 554.265 608.721
-3.53791 6.98503 -4.93677 561.611 599.746
-1.6458 5.3551 -6.57815 571.45 593.099
0.765671 5.38596 -8.13909 583.031 594.311
3.11018 5.02376 -6.3184 593.43 593.309
5.12971 6.33061 -4.70928 601.763 599.922
6.54535 8.27821 -2.58065 606.911 609.214
5.26795 9.84566 -3.93169 600.835 616.13
3.45708 10.8934 -5.25775 592.487 620.444
1.22295 11.348 -6.86574 582.498 621.89
-1.06558 11.1772 -5.42113 571.572 620.091
-3.10265 10.4207 -4.00256 562.035 615.681
-1.04543 7.58114 -5.03427 572.909 603.438
0.954141 7.36503 -6.94906 582.791 603.395
2.91455 7.32134 -4.80921 591.202 603.687
2.97607 8.11778 -4.37983 591.055 607.343
1.08014 8.58716 -6.16908 582.674 609.003
-0.896357 8.39068 -4.52869 573.138 607.179
3 20 21 23
3 21 22 23
3 0 1 36
3 15 16 45
3 0 17 36
3 16 26 45
3 17 18 37
3 25 26 44
3 17 36 37
3 26 44 45
3 18 19 38
3 24 25 43
3 18 37 38
3 25 43 44
3 19 20 38
3 23 24 43
3 20 21 39
3 22 23 42
3 20 38 39
3 23 42 43
3 21 22 27
3 21 27 39
3 22 27 42
3 27 28 42
3 27 28 39
3 28 42 47
3 28 39 40
3 1 36 41
3 15 45 46
3 1 2 41
3 14 15 46
3 28 29 40
3 28 29 47
3 2 40 41
3 14 46 47
3 2 29 40
3 14 29 47
3 2 3 29
3 13 14 29
3 29 30 31
3 29 30 35
3 3 29 31
3 13 29 35
3 30 32 33
3 30 33 34
3 30 31 32
3 30 34 35
3 3 4 31
3 12 13 35
3 4 5 48
3 11 12 54
3 5 6 48
3 10 11 54
3 6 48 59
3 10 54 55
3 6 7 59
3 9 10 55
3 7 58 59
3 9 55 56
3 8 57 58
3 8 56 57
3 7 8 58
3 8 9 56
3 4 31 48
3 12 35 54
3 31 48 49
3 35 53 54
3 31 49 50
3 35 52 53
3 31 32 50
3 34 35 52
3 32 33 50
3 33 34 52
3 33 50 51
3 33 51 52
3 48 49 60
3 49 60 50
3 50 60 61
3 50 51 61
3 51 52 61
3 61 62 52
3 52 53 62
3 53 54 62
3 54 55 63
3 55 56 63
3 56 63 64
3 56 57 64
3 64 65 57
3 57 58 65
3 58 59 65
3 48 59 65
