ply
format ascii 1.0
element vertex 66
property float x
property float y
property float z
property float u
property float v
element face 91
property list uchar int vertex_indices
end_header
-20.2708 -6.72554 21.3335 491.334 528.291
-19.6209 -1.40377 20.9506 491.84 553.053
-18.6728 3.86892 20.4982 493.755 577.741
-17.3955 9.08071 18.4438 497.646 602.461
-15.5295 14.0637 13.6172 505.104 626.68
-12.5066 18.3363 7.99709 518.422 648.271
-8.47221 21.6325 3.35721 536.577 665.772
-3.78819 23.8788 -0.839531 558.093 678.725
1.38698 24.4892 -4.67349 582.551 684.373
6.5088 23.3982 -0.913551 605.506 681.459
10.8924 20.6109 3.34966 625.763 670.36
14.488 16.8633 7.94931 642.784 654.446
17.1092 12.3764 13.5414 655.427 634.579
18.5489 7.37546 18.3948 663.11 611.857
19.1971 2.25263 20.5717 667.961 588.456
19.4071 -2.88615 21.0682 671.274 564.934
19.2718 -8.04487 21.332 673.078 541.177
-16.9908 -14.3026 0.0698414 515.851 497.149
-14.7825 -16.425 -1.62261 527.456 488.633
-11.8132 -17.399 -3.02356 541.911 485.721
-8.65971 -17.4013 -4.38856 556.729 487.353
-5.57422 -16.7173 -5.59674 570.861 492.085
2.49769 -17.0937 -5.45637 607.974 494.21
5.30562 -18.2381 -4.17335 621.037 490.181
8.30922 -18.7444 -2.80201 634.662 489.165
11.3222 -18.4196 -1.37688 647.914 491.961
13.8587 -16.883 0.367428 658.309 500.057
-0.689672 -11.6983 -5.00221 590.641 517.393
-0.433912 -8.84409 -7.76053 591.187 530.875
-0.182813 -6.00267 -10.5891 591.737 544.304
0.067931 -3.17964 -13.3296 592.271 557.639
-2.80621 0.334472 -6.11613 575.43 571.689
-1.20658 0.619642 -7.13031 582.896 573.861
0.444775 0.662047 -8.12901 590.712 574.943
2.00528 0.375504 -7.05666 597.704 574.272
3.45682 -0.165998 -6.18062 604.374 572.399
-12.6217 -9.55792 -1.08779 533.883 521.12
-10.9312 -10.9294 -1.21859 542.325 515.65
-8.6927 -11.2289 -1.2273 552.725 515.349
-6.71009 -10.3729 -1.01718 561.333 520.206
-8.5705 -9.46984 -1.1669 552.417 523.472
-10.6407 -9.17353 -1.10538 542.775 523.834
4.64438 -11.0915 -0.749969 613.611 522.322
6.43449 -12.2376 -1.12894 622.469 517.957
8.66957 -12.3521 -1.08336 632.748 518.498
10.5664 -11.2968 -0.836545 640.857 524.224
8.70428 -10.5468 -0.861946 631.973 526.776
6.61769 -10.5248 -0.869077 622.408 525.878
-5.79712 9.28209 -2.79365 556.491 610.986
-4.05442 7.30636 -4.92918 566.014 602.962
-1.8408 5.7623 -6.58158 577.352 597.098
0.81655 5.77198 -8.15764 589.95 598.567
3.39951 5.3798 -6.42738 601.496 597.838
5.75241 6.55379 -4.79802 611.257 604.194
7.66841 8.27303 -2.66485 618.616 612.793
5.91206 9.75758 -4.01311 610.223 618.893
3.66424 10.6237 -5.25867 599.85 621.909
1.18477 10.9983 -6.68152 588.703 622.578
-1.31267 10.9517 -5.32652 576.916 621.037
-3.69398 10.4398 -4.00009 565.894 617.421
-1.57693 7.90184 -5.14565 577.132 606.901
0.974994 7.67305 -7.1381 589.477 607.266
3.47409 7.53759 -5.04205 600.414 607.639
3.50551 8.07459 -4.55145 600.163 610.071
1.04339 8.41311 -6.25759 589.19 610.609
-1.46753 8.4379 -4.56094 577.213 609.357
3 20 21 23
3 21 22 23
3 0 1 36
3 15 16 45
3 0 17 36
3 16 26 45
3 17 18 37
3 25 26 44
3 17 36 37
3 26 44 45
3 18 19 38
3 24 25 43
3 18 37 38
3 25 43 44
3 19 20 38
3 23 24 43
3 20 21 39
3 22 23 42
3 20 38 39
3 23 42 43
3 21 22 27
3 21 27 39
3 22 27 42
3 27 28 42
3 27 28 39
3 28 42 47
3 28 39 40
3 1 36 41
3 15 45 46
3 1 2 41
3 14 15 46
3 28 29 40
3 28 29 47
3 2 40 41
3 14 46 47
3 2 29 40
3 14 29 47
3 2 3 29
3 13 14 29
3 29 30 31
3 29 30 35
3 3 29 31
3 13 29 35
3 30 32 33
3 30 33 34
3 30 31 32
3 30 34 35
3 3 4 31
3 12 13 35
3 4 5 48
3 11 12 54
3 5 6 48
3 10 11 54
3 6 48 59
3 10 54 55
3 6 7 59
3 9 10 55
3 7 58 59
3 9 55 56
3 8 57 58
3 8 56 57
3 7 8 58
3 8 9 56
3 4 31 48
3 12 35 54
3 31 48 49
3 35 53 54
3 31 49 50
3 35 52 53
3 31 32 50
3 34 35 52
3 32 33 50
3 33 34 52
3 33 50 51
3 33 51 52
3 48 49 60
3 49 60 50
3 50 60 61
3 50 51 61
3 51 52 61
3 61 62 52
3 52 53 62
3 53 54 62
3 54 55 63
3 55 56 63
3 56 63 64
3 56 57 64
3 64 65 57
3 57 58 65
3 58 59 65
3 48 59 65
