ply
format ascii 1.0
element vertex 66
property float x
property float y
property float z
property float u
property float v
element face 91
property list uchar int vertex_indices
end_header
-20.2692 -7.08764 21.3215 481.401 531.359
-19.6838 -1.52511 20.8877 482.474 557.582
-18.7957 3.99725 20.415 484.982 583.719
-17.5448 9.42001 18.4324 489.727 609.733
-15.7239 14.5282 13.572 498.21 634.895
-12.6918 18.8534 7.91997 512.857 656.902
-8.56318 22.1213 3.27199 532.615 674.162
-3.75288 24.271 -0.851557 555.731 686.336
1.53991 24.7671 -4.70358 581.539 690.898
6.72519 23.5641 -0.816582 604.763 686.316
11.0823 20.6258 3.3761 624.586 673.326
14.6011 16.7496 7.96288 640.674 655.633
17.1403 12.1937 13.5202 652.088 634.311
18.5984 7.22076 18.3121 658.862 610.82
19.2597 2.13132 20.3899 662.884 586.947
19.3995 -2.99666 20.81 665.054 562.982
19.174 -8.13093 21.0966 665.57 538.894
-16.5604 -14.5581 -0.000452174 508.357 500.882
-14.3579 -16.6275 -1.64241 519.847 492.16
-11.4564 -17.6058 -2.99997 534.144 488.709
-8.375 -17.6163 -4.35241 548.963 489.831
-5.36257 -16.914 -5.57396 563.185 494.241
2.50718 -17.1609 -5.46226 599.89 495.54
5.19748 -18.2044 -4.17532 612.323 491.316
8.07872 -18.6087 -2.81812 625.415 490.125
10.948 -18.1945 -1.43822 638.179 492.75
13.3519 -16.642 0.289898 648.286 500.49
-0.651889 -11.8293 -5.0127 583.292 519.376
-0.464011 -9.00106 -7.75211 584.183 533.058
-0.283107 -6.18128 -10.5223 585.055 546.702
-0.0975155 -3.37718 -13.2053 585.924 560.261
-2.75085 0.133202 -6.06375 569.995 574.735
-1.22081 0.410558 -7.04699 577.368 576.659
0.366472 0.456945 -8.02065 585.079 577.522
1.84972 0.199149 -6.93131 591.702 576.618
3.21375 -0.302908 -6.07422 597.927 574.571
-12.3498 -9.76372 -1.25436 526.847 524.78
-10.6852 -10.8697 -1.25017 534.958 520.137
-8.60483 -11.1923 -1.12423 544.712 519.265
-6.69632 -10.5964 -0.892959 553.331 522.61
-8.48753 -9.79401 -1.14246 544.811 525.833
-10.4563 -9.5186 -1.13309 535.547 526.5
4.66026 -11.2203 -0.7493 606.391 523.238
6.41098 -12.0109 -1.05284 614.907 520.142
8.46483 -12.0495 -1.10704 624.506 520.614
10.2431 -11.1985 -0.971655 632.469 525.125
8.45154 -10.6536 -0.904492 623.923 527.096
6.4961 -10.6853 -0.909016 614.825 526.336
-4.99138 9.44686 -2.80721 555.431 617.026
-3.59253 7.36766 -4.96122 563.354 608.083
-1.66543 5.68615 -6.60888 573.438 601.087
0.779921 5.65772 -8.1707 585.371 601.958
3.16542 5.33489 -6.35286 595.97 600.923
5.25255 6.66732 -4.74675 604.715 607.555
6.82691 8.56208 -2.654 610.723 616.578
5.37956 9.912 -3.92693 603.976 622.621
3.48367 10.7608 -5.20756 595.305 626.184
1.26049 11.1331 -6.73409 585.346 627.457
-1.0253 11.0671 -5.36909 574.254 626.224
-3.12477 10.5277 -4.03074 564.193 622.844
-1.16234 7.85279 -5.06073 574.553 611.126
0.975351 7.53317 -7.01783 585.281 610.602
3.09998 7.54747 -4.8559 594.439 611.006
3.14952 8.2501 -4.4057 594.289 614.234
1.10702 8.61042 -6.1707 585.257 615.544
-0.98847 8.5567 -4.54154 574.958 614.388
3 20 21 23
3 21 22 23
3 0 1 36
3 15 16 45
3 0 17 36
3 16 26 45
3 17 18 37
3 25 26 44
3 17 36 37
3 26 44 45
3 18 19 38
3 24 25 43
3 18 37 38
3 25 43 44
3 19 20 38
3 23 24 43
3 20 21 39
3 22 23 42
3 20 38 39
3 23 42 43
3 21 22 27
3 21 27 39
3 22 27 42
3 27 28 42
3 27 28 39
3 28 42 47
3 28 39 40
3 1 36 41
3 15 45 46
3 1 2 41
3 14 15 46
3 28 29 40
3 28 29 47
3 2 40 41
3 14 46 47
3 2 29 40
3 14 29 47
3 2 3 29
3 13 14 29
3 29 30 31
3 29 30 35
3 3 29 31
3 13 29 35
3 30 32 33
3 30 33 34
3 30 31 32
3 30 34 35
3 3 4 31
3 12 13 35
3 4 5 48
3 11 12 54
3 5 6 48
3 10 11 54
3 6 48 59
3 10 54 55
3 6 7 59
3 9 10 55
3 7 58 59
3 9 55 56
3 8 57 58
3 8 56 57
3 7 8 58
3 8 9 56
3 4 31 48
3 12 35 54
3 31 48 49
3 35 53 54
3 31 49 50
3 35 52 53
3 31 32 50
3 34 35 52
3 32 33 50
3 33 34 52
3 33 50 51
3 33 51 52
3 48 49 60
3 49 60 50
3 50 60 61
3 50 51 61
3 51 52 61
3 61 62 52
3 52 53 62
3 53 54 62
3 54 55 63
3 55 56 63
3 56 63 64
3 56 57 64
3 64 65 57
3 57 58 65
3 58 59 65
3 48 59 65
