ply
format ascii 1.0
element vertex 66
property float x
property float y
property float z
property float u
property float v
element face 91
property list uchar int vertex_indices
end_header
-20.3756 -6.87188 21.2785 480.618 527.763
-19.8182 -1.39044 20.8678 481.29 553.556
-18.9438 4.04744 20.4004 483.47 579.275
-17.6584 9.38548 18.4073 488.142 605.107
-15.7627 14.4105 13.5317 496.803 630.517
-12.6984 18.666 7.91266 511.443 652.974
-8.59919 21.909 3.27034 530.916 670.817
-3.84338 24.086 -0.84966 553.651 683.79
1.39869 24.6425 -4.71165 579.159 689.33
6.60679 23.4554 -0.811808 602.376 684.559
10.9976 20.5385 3.36426 622.352 671.378
14.576 16.6902 7.94897 638.76 653.464
17.1974 12.1498 13.4937 650.643 631.723
18.7268 7.15644 18.3081 657.89 607.694
19.4286 2.03066 20.4049 662.323 583.524
19.5623 -3.12981 20.8439 664.728 559.46
19.3058 -8.29933 21.1034 665.39 535.267
-16.5043 -14.562 0.0334267 509.118 499.401
-14.371 -16.5945 -1.62856 520.382 491.181
-11.5338 -17.5404 -2.98557 534.394 488.175
-8.51931 -17.5357 -4.33712 548.869 489.649
-5.57071 -16.8524 -5.55649 562.735 494.217
2.64587 -17.1345 -5.45854 600.941 495.796
5.28982 -18.1992 -4.16533 613.148 491.42
8.12448 -18.6473 -2.79999 625.983 489.957
10.9605 -18.2949 -1.41075 638.513 492.21
13.3482 -16.8093 0.298777 648.421 499.479
-0.622945 -11.6815 -4.99427 583.551 519.85
-0.428249 -8.96744 -7.73377 584.417 533.31
-0.239967 -6.26044 -10.5023 585.268 546.742
-0.0495149 -3.57013 -13.1855 586.103 560.074
-2.72815 0.140249 -6.07396 569.718 574.358
-1.1893 0.399177 -7.04523 577.112 576.383
0.401488 0.439525 -8.00862 584.826 577.408
1.89377 0.186191 -6.92541 591.458 576.454
3.27524 -0.299711 -6.08117 597.75 574.447
-12.3301 -9.68074 -1.22342 527.106 523.927
-10.6688 -10.8754 -1.24303 535.273 518.969
-8.53766 -11.1846 -1.1367 545.243 518.259
-6.62495 -10.4856 -0.8892 553.768 522.117
-8.41912 -9.58396 -1.14751 545.194 525.744
-10.4239 -9.3104 -1.12722 535.78 526.298
4.68981 -11.1369 -0.714426 606.465 523.058
6.43032 -12.0516 -1.0525 615.009 519.52
8.53971 -12.1126 -1.10069 624.839 519.999
10.3381 -11.1862 -0.96283 632.788 524.905
8.55134 -10.5055 -0.902193 624.217 527.417
6.55533 -10.5161 -0.903523 614.957 526.659
-4.94642 9.44242 -2.80708 554.747 615.885
-3.58417 7.33185 -4.96115 562.638 607.168
-1.67448 5.62147 -6.60951 572.738 600.362
0.76984 5.60637 -8.17268 584.65 601.602
3.15834 5.28392 -6.36837 595.208 600.441
5.22435 6.67017 -4.75212 603.695 607.161
6.7577 8.60356 -2.64224 609.325 616.095
5.33249 9.99833 -3.95889 602.659 622.445
3.44063 10.8852 -5.25289 594.009 626.262
1.20493 11.2677 -6.77956 584.038 627.677
-1.07115 11.1725 -5.40797 573.017 626.039
-3.14313 10.5827 -4.03353 563.128 622.173
-1.15975 7.83034 -5.0488 573.734 610.371
0.947024 7.52841 -6.99893 584.327 610.267
3.03276 7.54724 -4.85164 593.228 610.488
3.06806 8.30219 -4.42126 592.953 613.888
1.06373 8.67529 -6.18915 584.146 615.41
-0.998539 8.58788 -4.54338 574.016 613.806
3 20 21 23
3 21 22 23
3 0 1 36
3 15 16 45
3 0 17 36
3 16 26 45
3 17 18 37
3 25 26 44
3 17 36 37
3 26 44 45
3 18 19 38
3 24 25 43
3 18 37 38
3 25 43 44
3 19 20 38
3 23 24 43
3 20 21 39
3 22 23 42
3 20 38 39
3 23 42 43
3 21 22 27
3 21 27 39
3 22 27 42
3 27 28 42
3 27 28 39
3 28 42 47
3 28 39 40
3 1 36 41
3 15 45 46
3 1 2 41
3 14 15 46
3 28 29 40
3 28 29 47
3 2 40 41
3 14 46 47
3 2 29 40
3 14 29 47
3 2 3 29
3 13 14 29
3 29 30 31
3 29 30 35
3 3 29 31
3 13 29 35
3 30 32 33
3 30 33 34
3 30 31 32
3 30 34 35
3 3 4 31
3 12 13 35
3 4 5 48
3 11 12 54
3 5 6 48
3 10 11 54
3 6 48 59
3 10 54 55
3 6 7 59
3 9 10 55
3 7 58 59
3 9 55 56
3 8 57 58
3 8 56 57
3 7 8 58
3 8 9 56
3 4 31 48
3 12 35 54
3 31 48 49
3 35 53 54
3 31 49 50
3 35 52 53
3 31 32 50
3 34 35 52
3 32 33 50
3 33 34 52
3 33 50 51
3 33 51 52
3 48 49 60
3 49 60 50
3 50 60 61
3 50 51 61
3 51 52 61
3 61 62 52
3 52 53 62
3 53 54 62
3 54 55 63
3 55 56 63
3 56 63 64
3 56 57 64
3 64 65 57
3 57 58 65
3 58 59 65
3 48 59 65
