ply
format ascii 1.0
element vertex 66
property float x
property float y
property float z
property float u
property float v
element face 91
property list uchar int vertex_indices
end_header
-20.298 -7.10511 21.5558 478.405 525.352
-19.6411 -1.40783 21.1446 479.609 552.659
-18.7463 4.2547 20.5596 482.011 579.929
-17.5906 9.84021 18.5251 486.19 607.319
-15.8741 15.051 13.636 494.167 633.903
-12.7943 19.2869 7.92337 509.231 656.559
-8.57994 22.3578 3.23905 529.713 673.804
-3.73909 24.2967 -0.907647 553.372 685.757
1.50355 24.6426 -4.74435 579.392 690.219
6.66814 23.3089 -0.793971 602.884 684.582
10.9683 20.2047 3.39457 622.84 670.204
14.4618 16.2452 8.02271 639.135 651.383
17.0282 11.6628 13.5951 650.936 629.041
18.5494 6.75322 18.2121 658.253 605.056
19.2136 1.8379 20.3421 662.403 581.431
19.3236 -3.08235 20.7473 664.547 558.065
19.0505 -8.01809 20.9836 664.946 534.541
-16.7372 -14.337 0.00844865 505.484 498.196
-14.4939 -16.5394 -1.65847 517.472 488.985
-11.4814 -17.6182 -3.01171 532.581 485.27
-8.25987 -17.6651 -4.32469 548.293 486.499
-5.08237 -16.9841 -5.49822 563.485 491.122
2.83098 -17.1453 -5.51633 600.958 493.049
5.35367 -18.0825 -4.217 612.759 489.114
8.06249 -18.4519 -2.83864 625.208 487.909
10.7738 -18.1646 -1.39523 637.409 489.796
13.0969 -16.8237 0.309248 647.304 496.468
-0.276123 -11.822 -5.00089 584.174 517.055
-0.168651 -9.06873 -7.7254 584.66 530.869
-0.0723267 -6.33065 -10.5602 585.138 544.637
0.0197228 -3.6122 -13.3627 585.59 558.302
-2.76191 0.153732 -6.16132 568.532 573.223
-1.13448 0.440756 -7.10004 576.455 575.39
0.549584 0.504918 -8.06878 584.737 576.53
2.03615 0.279707 -6.96302 591.453 575.667
3.42088 -0.181017 -6.06763 597.846 573.711
-12.1618 -9.91044 -1.1116 525.92 521.011
-10.4921 -11.1906 -1.25505 534.324 515.556
-8.3223 -11.4706 -1.24921 544.68 514.965
-6.41012 -10.5331 -0.856663 553.243 519.946
-8.23703 -9.6732 -1.07164 544.374 523.455
-10.2571 -9.45027 -1.07546 534.746 523.826
4.73056 -11.0683 -0.825517 606.089 521.185
6.40539 -12.1069 -1.14473 614.493 516.923
8.50263 -12.2196 -1.08924 624.428 517.086
10.2363 -11.1215 -0.864427 632.149 522.812
8.49584 -10.3845 -0.901706 623.67 525.721
6.54 -10.4134 -0.929212 614.444 524.928
-6.26626 9.15404 -2.76349 547.525 613.717
-4.29296 7.35518 -4.95475 558.278 606.468
-1.97959 5.88234 -6.6447 570.343 600.741
0.721925 5.90582 -8.13772 583.635 602.176
3.30985 5.55543 -6.33849 595.356 600.905
5.64959 6.68528 -4.67671 605.421 606.595
7.58219 8.35043 -2.59485 613.219 614.567
5.90167 9.85852 -3.92403 605.205 621.498
3.66642 10.7446 -5.18372 594.767 625.278
1.13803 11.0938 -6.67987 583.22 626.48
-1.50728 11.0198 -5.38612 570.283 624.88
-4.02484 10.419 -4.07451 558.132 620.824
-1.78091 7.91744 -5.22536 570.047 610.056
0.912734 7.71484 -7.14679 583.535 610.535
3.52487 7.62996 -4.84698 595.098 610.393
3.64194 8.30791 -4.34903 595.231 613.506
1.04933 8.63889 -6.33297 583.56 614.734
-1.65175 8.62726 -4.64769 570.197 613.303
3 20 21 23
3 21 22 23
3 0 1 36
3 15 16 45
3 0 17 36
3 16 26 45
3 17 18 37
3 25 26 44
3 17 36 37
3 26 44 45
3 18 19 38
3 24 25 43
3 18 37 38
3 25 43 44
3 19 20 38
3 23 24 43
3 20 21 39
3 22 23 42
3 20 38 39
3 23 42 43
3 21 22 27
3 21 27 39
3 22 27 42
3 27 28 42
3 27 28 39
3 28 42 47
3 28 39 40
3 1 36 41
3 15 45 46
3 1 2 41
3 14 15 46
3 28 29 40
3 28 29 47
3 2 40 41
3 14 46 47
3 2 29 40
3 14 29 47
3 2 3 29
3 13 14 29
3 29 30 31
3 29 30 35
3 3 29 31
3 13 29 35
3 30 32 33
3 30 33 34
3 30 31 32
3 30 34 35
3 3 4 31
3 12 13 35
3 4 5 48
3 11 12 54
3 5 6 48
3 10 11 54
3 6 48 59
3 10 54 55
3 6 7 59
3 9 10 55
3 7 58 59
3 9 55 56
3 8 57 58
3 8 56 57
3 7 8 58
3 8 9 56
3 4 31 48
3 12 35 54
3 31 48 49
3 35 53 54
3 31 49 50
3 35 52 53
3 31 32 50
3 34 35 52
3 32 33 50
3 33 34 52
3 33 50 51
3 33 51 52
3 48 49 60
3 49 60 50
3 50 60 61
3 50 51 61
3 51 52 61
3 61 62 52
3 52 53 62
3 53 54 62
3 54 55 63
3 55 56 63
3 56 63 64
3 56 57 64
3 64 65 57
3 57 58 65
3 58 59 65
3 48 59 65
