ply
format ascii 1.0
element vertex 66
property float x
property float y
property float z
property float u
property float v
element face 91
property list uchar int vertex_indices
end_header
-20.6213 -7.04605 21.4173 483.712 528.355
-19.9563 -1.49772 20.9705 484.941 553.914
-18.9902 4.00751 20.4864 487.569 579.381
-17.6449 9.45468 18.5406 492.348 604.67
-15.7297 14.6034 13.5244 500.673 628.701
-12.6599 18.9538 7.89684 514.709 649.471
-8.5759 22.2855 3.3153 533.434 665.975
-3.82519 24.4856 -0.847514 555.476 677.556
1.38961 25.0813 -4.76463 580.123 681.979
6.55822 23.739 -0.806127 603.064 677.777
10.8711 20.6359 3.40703 622.644 665.241
14.3606 16.609 7.91439 638.71 648.206
17.0232 11.9873 13.4208 650.938 628.198
18.7178 7.00913 18.3126 659.045 606.203
19.5469 1.98607 20.3706 664.002 583.614
19.7602 -3.0224 20.7796 666.6 560.827
19.5597 -8.04798 21.0473 667.356 537.812
-16.9932 -14.091 0.0127742 508.592 496.791
-14.8291 -16.39 -1.70274 519.728 486.995
-11.8144 -17.5109 -3.03515 534.229 482.888
-8.56243 -17.5213 -4.37058 549.427 483.937
-5.36444 -16.7675 -5.54013 564.067 488.461
2.73229 -17.039 -5.45641 601.053 490.054
5.42589 -18.1368 -4.19195 613.367 486.02
8.31779 -18.5831 -2.82747 626.331 485.034
11.1899 -18.1858 -1.4366 638.905 487.896
13.5487 -16.6056 0.343437 648.621 495.992
-0.447429 -11.6655 -4.94117 584.549 513.501
-0.272935 -8.82251 -7.78592 585.141 526.459
-0.107291 -5.97837 -10.58 585.679 539.421
0.0557533 -3.14888 -13.2097 586.164 552.32
-2.70208 0.124906 -6.06854 570.488 566.527
-1.12023 0.470459 -7.06809 577.856 568.628
0.532327 0.560057 -8.0634 585.633 569.584
2.02421 0.274189 -6.93718 592.224 568.835
3.38076 -0.281187 -6.06221 598.361 566.799
-12.5169 -9.57488 -1.26714 527.785 518.943
-10.8363 -10.7284 -1.28141 535.851 514.261
-8.70691 -11.1175 -1.14582 545.657 513.233
-6.72162 -10.5484 -0.903146 554.445 516.533
-8.54232 -9.66757 -1.13628 545.902 519.913
-10.5579 -9.36947 -1.12464 536.606 520.57
4.74705 -11.1719 -0.728068 606.901 517.7
6.55043 -11.9365 -1.04271 615.475 514.828
8.64888 -11.958 -1.12369 625.072 515.461
10.4367 -11.0529 -0.994817 632.874 520.224
8.598 -10.5122 -0.890115 624.274 522.053
6.60675 -10.5646 -0.881233 615.211 521.119
-4.88389 9.07603 -2.7842 556.53 606.747
-3.50093 7.09445 -4.96467 564.123 598.114
-1.59031 5.53169 -6.59894 573.827 591.594
0.797927 5.59645 -8.14321 585.118 592.677
3.09039 5.21263 -6.33201 595.204 591.781
5.08758 6.45251 -4.7359 603.44 598.191
6.5363 8.30886 -2.61149 608.816 607.24
5.18627 9.6791 -3.90701 602.542 612.987
3.35789 10.5258 -5.22968 594.276 616.174
1.21084 10.9047 -6.83376 584.798 617.105
-1.00401 10.7775 -5.39274 574.347 615.795
-3.0589 10.205 -3.9888 564.79 612.505
-0.9255 7.68874 -5.11191 575.7 601.724
0.990878 7.5335 -6.96576 585.001 601.628
2.83923 7.46247 -4.83286 592.866 602.015
2.87303 7.87473 -4.38017 592.752 603.923
1.09053 8.23526 -6.16646 584.992 604.892
-0.776515 8.11673 -4.56551 576.08 603.747
3 20 21 23
3 21 22 23
3 0 1 36
3 15 16 45
3 0 17 36
3 16 26 45
3 17 18 37
3 25 26 44
3 17 36 37
3 26 44 45
3 18 19 38
3 24 25 43
3 18 37 38
3 25 43 44
3 19 20 38
3 23 24 43
3 20 21 39
3 22 23 42
3 20 38 39
3 23 42 43
3 21 22 27
3 21 27 39
3 22 27 42
3 27 28 42
3 27 28 39
3 28 42 47
3 28 39 40
3 1 36 41
3 15 45 46
3 1 2 41
3 14 15 46
3 28 29 40
3 28 29 47
3 2 40 41
3 14 46 47
3 2 29 40
3 14 29 47
3 2 3 29
3 13 14 29
3 29 30 31
3 29 30 35
3 3 29 31
3 13 29 35
3 30 32 33
3 30 33 34
3 30 31 32
3 30 34 35
3 3 4 31
3 12 13 35
3 4 5 48
3 11 12 54
3 5 6 48
3 10 11 54
3 6 48 59
3 10 54 55
3 6 7 59
3 9 10 55
3 7 58 59
3 9 55 56
3 8 57 58
3 8 56 57
3 7 8 58
3 8 9 56
3 4 31 48
3 12 35 54
3 31 48 49
3 35 53 54
3 31 49 50
3 35 52 53
3 31 32 50
3 34 35 52
3 32 33 50
3 33 34 52
3 33 50 51
3 33 51 52
3 48 49 60
3 49 60 50
3 50 60 61
3 50 51 61
3 51 52 61
3 61 62 52
3 52 53 62
3 53 54 62
3 54 55 63
3 55 56 63
3 56 63 64
3 56 57 64
3 64 65 57
3 57 58 65
3 58 59 65
3 48 59 65
