ply
format ascii 1.0
element vertex 66
property float x
property float y
property float z
property float u
property float v
element face 91
property list uchar int vertex_indices
end_header
-20.3041 -6.64554 21.3849 489.912 528.088
-19.6659 -1.25368 20.9867 490.705 553.257
-18.7499 4.09671 20.531 492.809 578.357
-17.5227 9.35165 18.4796 496.778 603.391
-15.7095 14.3082 13.5976 504.265 627.728
-12.6892 18.5078 7.98198 517.805 649.182
-8.61986 21.7006 3.34887 536.351 666.273
-3.90138 23.8397 -0.862902 558.219 678.707
1.29499 24.3666 -4.72124 582.872 683.853
6.52901 23.3386 -0.854637 606.443 680.653
11.0135 20.5779 3.39873 627.189 669.102
14.6654 16.8156 7.98992 644.436 652.544
17.2675 12.2925 13.5729 656.922 631.898
18.6523 7.27229 18.4251 664.191 608.578
19.2557 2.10207 20.5686 668.591 584.667
19.4122 -3.11165 21.0246 671.368 560.634
19.2157 -8.33597 21.2988 672.568 536.436
-17.0464 -14.1811 0.0718901 513.287 497.989
-14.8156 -16.378 -1.63644 524.891 489.04
-11.8096 -17.3896 -3.01232 539.488 485.818
-8.61832 -17.3984 -4.36278 554.516 487.289
-5.49807 -16.709 -5.56492 568.889 491.924
2.48096 -16.9879 -5.50686 605.723 493.886
5.30414 -18.1198 -4.21452 618.872 489.622
8.32838 -18.6077 -2.84221 632.66 488.395
11.3637 -18.2519 -1.42358 646.136 491.054
13.9204 -16.6644 0.31769 656.817 499.143
-0.594607 -11.7123 -5.00242 589.246 516.864
-0.346465 -8.86296 -7.77007 589.885 530.525
-0.107125 -6.02651 -10.596 590.502 544.131
0.128626 -3.20375 -13.3122 591.082 557.655
-2.74425 0.317665 -6.13426 574.626 571.6
-1.14305 0.600312 -7.1247 582.123 573.709
0.512746 0.63744 -8.09792 589.97 574.706
2.05926 0.374475 -7.03197 596.936 573.96
3.49592 -0.145797 -6.15306 603.55 572.013
-12.5451 -9.65433 -1.1017 532.416 520.868
-10.8097 -10.961 -1.22253 540.978 515.573
-8.57674 -11.2493 -1.20437 551.373 515.153
-6.58209 -10.4181 -0.97449 560.153 519.762
-8.47408 -9.58556 -1.14253 551.138 522.853
-10.5535 -9.30521 -1.09636 541.438 523.289
4.63482 -11.0694 -0.754852 612.008 521.304
6.44116 -12.1569 -1.11897 620.865 517.085
8.65902 -12.2605 -1.11302 631.117 517.512
10.5625 -11.251 -0.903694 639.408 522.909
8.68619 -10.5645 -0.90035 630.484 525.306
6.60647 -10.5517 -0.895532 620.904 524.515
-5.72824 9.24919 -2.81625 556.358 611.027
-4.00672 7.2507 -4.95405 565.64 602.851
-1.82487 5.69876 -6.60166 576.735 596.845
0.788587 5.70904 -8.16429 589.147 598.2
3.32861 5.3596 -6.42285 600.557 597.357
5.6273 6.58436 -4.78994 610.228 603.686
7.48345 8.3665 -2.66211 617.508 612.327
5.75282 9.7848 -3.9699 609.273 618.359
3.5471 10.5911 -5.23713 599.095 621.371
1.11204 10.9066 -6.71323 588.117 622.059
-1.34048 10.8715 -5.34377 576.505 620.685
-3.6684 10.3755 -3.99002 565.661 617.24
-1.60214 7.86542 -5.16822 576.507 606.698
0.932177 7.6125 -7.12189 588.76 606.869
3.41292 7.55086 -5.00499 599.685 607.27
3.42858 8.05137 -4.50458 599.426 609.505
0.993708 8.31823 -6.28265 588.543 610.016
-1.49475 8.36767 -4.57784 576.647 608.965
3 20 21 23
3 21 22 23
3 0 1 36
3 15 16 45
3 0 17 36
3 16 26 45
3 17 18 37
3 25 26 44
3 17 36 37
3 26 44 45
3 18 19 38
3 24 25 43
3 18 37 38
3 25 43 44
3 19 20 38
3 23 24 43
3 20 21 39
3 22 23 42
3 20 38 39
3 23 42 43
3 21 22 27
3 21 27 39
3 22 27 42
3 27 28 42
3 27 28 39
3 28 42 47
3 28 39 40
3 1 36 41
3 15 45 46
3 1 2 41
3 14 15 46
3 28 29 40
3 28 29 47
3 2 40 41
3 14 46 47
3 2 29 40
3 14 29 47
3 2 3 29
3 13 14 29
3 29 30 31
3 29 30 35
3 3 29 31
3 13 29 35
3 30 32 33
3 30 33 34
3 30 31 32
3 30 34 35
3 3 4 31
3 12 13 35
3 4 5 48
3 11 12 54
3 5 6 48
3 10 11 54
3 6 48 59
3 10 54 55
3 6 7 59
3 9 10 55
3 7 58 59
3 9 55 56
3 8 57 58
3 8 56 57
3 7 8 58
3 8 9 56
3 4 31 48
3 12 35 54
3 31 48 49
3 35 53 54
3 31 49 50
3 35 52 53
3 31 32 50
3 34 35 52
3 32 33 50
3 33 34 52
3 33 50 51
3 33 51 52
3 48 49 60
3 49 60 50
3 50 60 61
3 50 51 61
3 51 52 61
3 61 62 52
3 52 53 62
3 53 54 62
3 54 55 63
3 55 56 63
3 56 63 64
3 56 57 64
3 64 65 57
3 57 58 65
3 58 59 65
3 48 59 65
