ply
format ascii 1.0
element vertex 66
property float x
property float y
property float z
property float u
property float v
element face 91
property list uchar int vertex_indices
end_header
-20.2714 -7.47525 21.5818 487.152 530.617
-19.6608 -1.66464 21.1637 488.435 557.798
-18.8032 4.11556 20.5981 490.908 584.907
-17.6187 9.84318 18.5791 495.255 611.834
-15.9082 15.2305 13.5871 502.839 637.271
-12.8588 19.6295 7.85527 517.096 658.479
-8.64281 22.8048 3.21867 536.86 674.352
-3.78895 24.8002 -0.863133 559.791 684.934
1.45615 25.2334 -4.90232 584.973 688.365
6.65872 23.7562 -0.694564 608.563 683.066
10.9553 20.466 3.41461 628.485 669.078
14.3987 16.2873 7.96996 644.592 650.724
16.9398 11.5108 13.5122 656.448 629.353
18.5481 6.50275 18.1815 664.242 606.621
19.2882 1.58776 20.2761 668.583 584.023
19.3504 -3.28614 20.602 670.18 561.386
18.9844 -8.1686 20.8152 669.818 538.585
-16.839 -14.2003 -0.00147083 510.071 499.895
-14.6724 -16.727 -1.72906 521.255 488.732
-11.5674 -18.0468 -3.03248 536.355 483.455
-8.16928 -18.1121 -4.3068 552.452 484.096
-4.8149 -17.3145 -5.45545 568.072 488.739
2.64483 -17.35 -5.52181 602.737 490.703
5.24933 -18.3482 -4.23692 614.814 486.831
8.05747 -18.6708 -2.8941 627.63 486.16
10.8096 -18.1544 -1.48638 639.932 489.375
13.0211 -16.5067 0.311938 649.311 497.703
-0.149742 -11.8307 -4.98298 588.066 515.578
-0.0711127 -9.17735 -7.72993 588.322 527.881
-0.00774253 -6.52483 -10.4794 588.508 540.177
0.0493037 -3.89336 -13.1867 588.661 552.373
-2.59953 -0.38084 -6.02283 573.681 568.092
-1.01509 -0.127468 -6.97565 581.19 569.704
0.618242 -0.0725259 -8.00886 589.002 570.405
2.01359 -0.260566 -6.82004 595.255 569.953
3.312 -0.663027 -5.92042 601.188 568.47
-11.8859 -9.48659 -1.30949 532.039 523.199
-10.2565 -10.4445 -1.3438 539.885 519.21
-8.27269 -10.815 -1.19249 549.167 518.057
-6.36529 -10.3814 -0.810852 557.812 520.625
-8.11006 -9.57557 -1.0904 549.546 523.868
-10.0191 -9.31651 -1.11646 540.614 524.527
4.64392 -10.811 -0.807647 609.055 521.771
6.37113 -11.2986 -1.10903 617.285 519.991
8.27569 -11.3007 -1.20223 626.152 520.523
9.89076 -10.4885 -1.08407 633.393 524.763
8.15991 -10.0605 -0.96404 625.206 526.261
6.32974 -10.1778 -0.963498 616.74 525.193
-5.51447 9.18536 -2.79019 556.668 611.802
-3.99551 7.0368 -4.99405 564.849 602.202
-1.92359 5.25854 -6.60384 575.354 594.493
0.716965 5.25033 -8.04385 587.956 595.18
3.23913 4.95819 -6.24992 599.33 594.578
5.35199 6.43 -4.67798 608.354 602.056
6.8229 8.54709 -2.5998 614.094 612.361
5.48552 10.104 -3.87888 607.742 619.192
3.56806 11.1059 -5.22409 598.869 623.276
1.21781 11.5111 -6.90333 588.235 624.455
-1.27856 11.331 -5.46479 576.356 622.934
-3.53404 10.5534 -4.06508 565.775 618.703
-1.39053 7.60131 -5.11721 576.814 605.568
0.940105 7.33261 -6.95987 588.146 604.947
3.18992 7.39672 -4.65783 598.034 605.934
3.31038 8.36191 -4.26032 598.226 610.464
1.13081 8.77935 -6.29757 588.465 611.741
-1.18994 8.60105 -4.63309 577.348 610.283
3 20 21 23
3 21 22 23
3 0 1 36
3 15 16 45
3 0 17 36
3 16 26 45
3 17 18 37
3 25 26 44
3 17 36 37
3 26 44 45
3 18 19 38
3 24 25 43
3 18 37 38
3 25 43 44
3 19 20 38
3 23 24 43
3 20 21 39
3 22 23 42
3 20 38 39
3 23 42 43
3 21 22 27
3 21 27 39
3 22 27 42
3 27 28 42
3 27 28 39
3 28 42 47
3 28 39 40
3 1 36 41
3 15 45 46
3 1 2 41
3 14 15 46
3 28 29 40
3 28 29 47
3 2 40 41
3 14 46 47
3 2 29 40
3 14 29 47
3 2 3 29
3 13 14 29
3 29 30 31
3 29 30 35
3 3 29 31
3 13 29 35
3 30 32 33
3 30 33 34
3 30 31 32
3 30 34 35
3 3 4 31
3 12 13 35
3 4 5 48
3 11 12 54
3 5 6 48
3 10 11 54
3 6 48 59
3 10 54 55
3 6 7 59
3 9 10 55
3 7 58 59
3 9 55 56
3 8 57 58
3 8 56 57
3 7 8 58
3 8 9 56
3 4 31 48
3 12 35 54
3 31 48 49
3 35 53 54
3 31 49 50
3 35 52 53
3 31 32 50
3 34 35 52
3 32 33 50
3 33 34 52
3 33 50 51
3 33 51 52
3 48 49 60
3 49 60 50
3 50 60 61
3 50 51 61
3 51 52 61
3 61 62 52
3 52 53 62
3 53 54 62
3 54 55 63
3 55 56 63
3 56 63 64
3 56 57 64
3 64 65 57
3 57 58 65
3 58 59 65
3 48 59 65
