ply
format ascii 1.0
element vertex 66
property float x
property float y
property float z
property float u
property float v
element face 91
property list uchar int vertex_indices
end_header
-20.1931 -7.46889 21.2732 481.473 530.692
-19.7162 -1.7943 20.9177 481.748 557.496
-18.9447 3.84677 20.4162 483.457 584.26
-17.7281 9.4313 18.4424 487.71 611.032
-15.8969 14.7521 13.5956 495.792 637.01
-12.8004 19.2334 7.88751 510.358 659.574
-8.5687 22.5776 3.26663 530.323 677.131
-3.6671 24.776 -0.780354 553.669 689.512
1.70172 25.2951 -4.79268 579.801 694.184
6.89747 23.9396 -0.774096 603.405 689.386
11.2753 20.8674 3.31193 623.786 676.239
14.8242 16.8716 7.89891 640.474 658.427
17.348 12.1444 13.5259 652.32 636.736
18.7642 7.01028 18.2498 659.402 612.809
19.3476 1.86175 20.3037 663.39 588.721
19.3145 -3.25945 20.7289 664.969 564.666
18.9119 -8.38444 20.987 664.872 540.473
-16.1804 -14.3401 -0.0113371 509.107 501.563
-14.1619 -16.6363 -1.73765 519.903 491.656
-11.3094 -17.8604 -3.07239 534.094 487.045
-8.18709 -17.9892 -4.35808 549.135 487.663
-5.10732 -17.331 -5.5253 563.655 491.945
2.61515 -17.6566 -5.39476 599.87 493.184
5.18659 -18.6296 -4.1461 611.883 489.449
7.93845 -18.9336 -2.83693 624.479 488.912
10.6308 -18.4088 -1.46033 636.474 492.234
12.816 -16.8205 0.323905 645.589 500.327
-0.495794 -11.9629 -5.04305 583.138 518.733
-0.333412 -9.34628 -7.70377 583.742 531.265
-0.174973 -6.73341 -10.4066 584.341 543.781
-0.0184853 -4.1447 -13.1184 584.942 556.183
-2.70937 -0.322943 -6.00843 568.837 572.585
-1.17399 -0.128268 -6.9351 576.228 574.121
0.401023 -0.112384 -7.94279 583.893 574.84
1.8418 -0.31526 -6.81123 590.37 574.319
3.19776 -0.706798 -5.93678 596.596 572.903
-11.3911 -9.4224 -1.38422 530.14 526.446
-9.89126 -10.3815 -1.39711 537.51 522.49
-8.0207 -10.7263 -1.21471 546.334 521.531
-6.22229 -10.3516 -0.807792 554.491 523.903
-7.82865 -9.50027 -1.10785 546.755 527.34
-9.6277 -9.21716 -1.15575 538.248 528.025
4.36491 -10.9439 -0.641779 604.197 524.917
6.03131 -11.5015 -1.07032 612.325 522.935
7.88298 -11.5178 -1.22229 621.041 523.536
9.4685 -10.766 -1.13656 628.161 527.623
7.80567 -10.2633 -0.943943 620.14 529.368
6.02154 -10.3224 -0.888314 611.796 528.445
-5.39756 9.39706 -2.73981 551.748 616.938
-3.90389 7.33172 -4.92072 560.14 607.96
-1.89914 5.58939 -6.56195 570.644 600.639
0.67909 5.57101 -7.99445 583.143 601.59
3.16673 5.2408 -6.34851 594.411 600.808
5.28797 6.65918 -4.73917 603.341 608.096
6.87746 8.58718 -2.62192 609.445 617.543
5.42296 10.0424 -3.94628 602.505 623.945
3.46922 10.9664 -5.30628 593.434 627.68
1.13754 11.3732 -6.82467 582.829 628.867
-1.28427 11.2549 -5.42486 571.122 627.334
-3.4731 10.6027 -4.03063 560.701 623.382
-1.4416 7.84242 -5.0017 571.5 611.246
0.865896 7.51906 -6.92459 582.989 610.707
3.12033 7.55407 -4.74817 592.875 611.513
3.20877 8.44806 -4.37904 592.854 615.708
1.01223 8.8657 -6.30296 582.999 617.025
-1.28222 8.74773 -4.54659 571.781 615.512
3 20 21 23
3 21 22 23
3 0 1 36
3 15 16 45
3 0 17 36
3 16 26 45
3 17 18 37
3 25 26 44
3 17 36 37
3 26 44 45
3 18 19 38
3 24 25 43
3 18 37 38
3 25 43 44
3 19 20 38
3 23 24 43
3 20 21 39
3 22 23 42
3 20 38 39
3 23 42 43
3 21 22 27
3 21 27 39
3 22 27 42
3 27 28 42
3 27 28 39
3 28 42 47
3 28 39 40
3 1 36 41
3 15 45 46
3 1 2 41
3 14 15 46
3 28 29 40
3 28 29 47
3 2 40 41
3 14 46 47
3 2 29 40
3 14 29 47
3 2 3 29
3 13 14 29
3 29 30 31
3 29 30 35
3 3 29 31
3 13 29 35
3 30 32 33
3 30 33 34
3 30 31 32
3 30 34 35
3 3 4 31
3 12 13 35
3 4 5 48
3 11 12 54
3 5 6 48
3 10 11 54
3 6 48 59
3 10 54 55
3 6 7 59
3 9 10 55
3 7 58 59
3 9 55 56
3 8 57 58
3 8 56 57
3 7 8 58
3 8 9 56
3 4 31 48
3 12 35 54
3 31 48 49
3 35 53 54
3 31 49 50
3 35 52 53
3 31 32 50
3 34 35 52
3 32 33 50
3 33 34 52
3 33 50 51
3 33 51 52
3 48 49 60
3 49 60 50
3 50 60 61
3 50 51 61
3 51 52 61
3 61 62 52
3 52 53 62
3 53 54 62
3 54 55 63
3 55 56 63
3 56 63 64
3 56 57 64
3 64 65 57
3 57 58 65
3 58 59 65
3 48 59 65
