ply
format ascii 1.0
element vertex 66
property float x
property float y
property float z
property float u
property float v
element face 91
property list uchar int vertex_indices
end_header
-20.3202 -6.6597 21.3014 488.674 528.363
-19.6977 -1.34044 20.9053 489.131 553.091
-18.7715 3.93249 20.4674 491.013 577.753
-17.4984 9.12903 18.4249 494.951 602.365
-15.6261 14.0803 13.6028 502.495 626.372
-12.603 18.3307 7.9938 515.85 647.768
-8.56977 21.6196 3.35466 534.024 665.139
-3.87914 23.8628 -0.84842 555.583 677.98
1.31023 24.4772 -4.6754 580.091 683.548
6.4866 23.4197 -0.903654 603.286 680.778
10.9248 20.659 3.36179 623.768 669.808
14.5687 16.9224 7.95212 640.983 653.962
17.2293 12.4403 13.529 653.779 634.152
18.6812 7.42141 18.4078 661.478 611.377
19.3257 2.24309 20.5662 666.284 587.732
19.5167 -2.96655 21.0644 669.474 563.876
19.357 -8.19333 21.3335 671.126 539.798
-16.8357 -14.3358 0.0486096 513.946 496.616
-14.621 -16.3906 -1.62759 525.506 488.366
-11.6904 -17.3281 -3.01915 539.743 485.55
-8.58935 -17.3387 -4.38363 554.319 487.064
-5.55718 -16.6759 -5.5975 568.222 491.622
2.46239 -17.0867 -5.45154 605.109 493.459
5.26153 -18.2158 -4.17352 618.118 489.471
8.25375 -18.7067 -2.80946 631.689 488.493
11.2565 -18.3786 -1.396 644.909 491.274
13.8022 -16.8603 0.339203 655.391 499.274
-0.718645 -11.7149 -4.98989 587.891 516.583
-0.451059 -8.84495 -7.74819 588.508 530.115
-0.188506 -5.98867 -10.58 589.128 543.588
0.0727685 -3.14959 -13.3173 589.726 556.973
-2.78725 0.389961 -6.11098 573.028 571.254
-1.1964 0.664382 -7.12184 580.457 573.342
0.445768 0.699289 -8.10559 588.226 574.352
2.00058 0.416935 -7.04401 595.196 573.688
3.44665 -0.118241 -6.19049 601.842 571.832
-12.628 -9.58189 -1.09411 531.292 520.485
-10.9158 -10.9226 -1.21302 539.796 515.142
-8.6777 -11.2261 -1.20681 550.189 514.791
-6.68201 -10.4086 -1.02107 558.896 519.455
-8.55725 -9.53522 -1.173 549.937 522.602
-10.6345 -9.23617 -1.10926 540.265 523.001
4.57234 -11.1361 -0.728984 610.71 521.332
6.38124 -12.2612 -1.11528 619.628 517.046
8.62095 -12.3756 -1.08938 629.934 517.561
10.5442 -11.3645 -0.854723 638.205 523.075
8.66387 -10.6439 -0.863108 629.256 525.507
6.56547 -10.6157 -0.859623 619.63 524.659
-5.64366 9.29057 -2.80663 554.874 610.472
-3.9453 7.30999 -4.92767 564.154 602.361
-1.77667 5.77403 -6.5791 575.252 596.467
0.827345 5.78475 -8.15996 587.599 597.866
3.36099 5.3946 -6.4293 598.923 597.106
5.67324 6.56248 -4.79788 608.528 603.398
7.5534 8.27936 -2.65551 615.758 611.964
5.82321 9.7358 -4.00758 607.511 617.959
3.61289 10.5828 -5.25135 597.323 620.924
1.17525 10.9403 -6.67593 586.371 621.553
-1.26471 10.907 -5.32495 574.848 620.146
-3.5931 10.4183 -3.99565 564.056 616.705
-1.53237 7.9347 -5.12618 574.966 606.368
0.98213 7.70157 -7.11346 587.126 606.642
3.44282 7.57214 -5.02809 597.898 607.012
3.45515 8.0099 -4.54769 597.62 608.985
1.03267 8.32273 -6.24943 586.834 609.44
-1.4322 8.37172 -4.55392 575.066 608.37
3 20 21 23
3 21 22 23
3 0 1 36
3 15 16 45
3 0 17 36
3 16 26 45
3 17 18 37
3 25 26 44
3 17 36 37
3 26 44 45
3 18 19 38
3 24 25 43
3 18 37 38
3 25 43 44
3 19 20 38
3 23 24 43
3 20 21 39
3 22 23 42
3 20 38 39
3 23 42 43
3 21 22 27
3 21 27 39
3 22 27 42
3 27 28 42
3 27 28 39
3 28 42 47
3 28 39 40
3 1 36 41
3 15 45 46
3 1 2 41
3 14 15 46
3 28 29 40
3 28 29 47
3 2 40 41
3 14 46 47
3 2 29 40
3 14 29 47
3 2 3 29
3 13 14 29
3 29 30 31
3 29 30 35
3 3 29 31
3 13 29 35
3 30 32 33
3 30 33 34
3 30 31 32
3 30 34 35
3 3 4 31
3 12 13 35
3 4 5 48
3 11 12 54
3 5 6 48
3 10 11 54
3 6 48 59
3 10 54 55
3 6 7 59
3 9 10 55
3 7 58 59
3 9 55 56
3 8 57 58
3 8 56 57
3 7 8 58
3 8 9 56
3 4 31 48
3 12 35 54
3 31 48 49
3 35 53 54
3 31 49 50
3 35 52 53
3 31 32 50
3 34 35 52
3 32 33 50
3 33 34 52
3 33 50 51
3 33 51 52
3 48 49 60
3 49 60 50
3 50 60 61
3 50 51 61
3 51 52 61
3 61 62 52
3 52 53 62
3 53 54 62
3 54 55 63
3 55 56 63
3 56 63 64
3 56 57 64
3 64 65 57
3 57 58 65
3 58 59 65
3 48 59 65
