ply
format ascii 1.0
element vertex 66
property float x
property float y
property float z
property float u
property float v
element face 91
property list uchar int vertex_indices
end_header
-20.3733 -6.56179 21.3053 488.509 528.318
-19.7376 -1.26419 20.9115 489.117 553.031
-18.7985 3.98612 20.4805 491.152 577.668
-17.5036 9.15857 18.4343 495.311 602.306
-15.5982 14.0815 13.5877 503.176 626.415
-12.5571 18.3077 7.99247 516.787 647.922
-8.52402 21.581 3.36318 535.121 665.372
-3.84098 23.8165 -0.842912 556.795 678.287
1.3375 24.4208 -4.67527 581.387 683.873
6.4983 23.3566 -0.889063 604.519 680.834
10.9216 20.596 3.37857 624.903 669.598
14.5553 16.8645 7.96895 642.013 653.498
17.206 12.3856 13.5416 654.672 633.395
18.661 7.37296 18.4371 662.272 610.381
19.3182 2.19965 20.5913 667.052 586.606
19.5225 -3.00469 21.0771 670.233 562.689
19.3783 -8.2255 21.3548 671.88 538.565
-16.9395 -14.1869 0.0605245 513.743 497.392
-14.7383 -16.3075 -1.63456 525.302 488.834
-11.7835 -17.2846 -3.02499 539.715 485.84
-8.64575 -17.303 -4.38971 554.522 487.337
-5.57589 -16.639 -5.59834 568.661 491.924
2.51975 -17.0518 -5.46731 606.006 493.656
5.36453 -18.1889 -4.19254 619.237 489.548
8.40133 -18.6764 -2.82196 633.026 488.504
11.4392 -18.3049 -1.40639 646.415 491.408
13.9824 -16.7111 0.339411 656.879 499.673
-0.721406 -11.7171 -4.99046 588.542 516.686
-0.457427 -8.84117 -7.7574 589.217 530.38
-0.198015 -5.97791 -10.5869 589.895 544.021
0.0603496 -3.13112 -13.31 590.546 557.573
-2.8041 0.340728 -6.1121 573.775 571.373
-1.21882 0.6242 -7.12461 581.213 573.516
0.419408 0.663638 -8.11273 588.999 574.557
1.97581 0.378845 -7.05214 595.982 573.818
3.42234 -0.160936 -6.17947 602.629 571.878
-12.6451 -9.56521 -1.10477 531.686 520.738
-10.9251 -10.9097 -1.21382 540.234 515.339
-8.67846 -11.2191 -1.19923 550.693 514.926
-6.67149 -10.4124 -1.00459 559.489 519.518
-8.55534 -9.53595 -1.16064 550.478 522.722
-10.641 -9.23041 -1.10762 540.741 523.182
4.62612 -11.1462 -0.734788 611.652 521.198
6.45255 -12.2575 -1.10737 620.656 516.953
8.70281 -12.3563 -1.08994 631.034 517.51
10.63 -11.3362 -0.874326 639.361 523.046
8.73342 -10.635 -0.874323 630.327 525.418
6.62623 -10.6153 -0.868816 620.636 524.559
-5.62816 9.26718 -2.80789 555.79 610.771
-3.95283 7.28496 -4.92683 564.989 602.665
-1.79793 5.7486 -6.57359 576.055 596.769
0.796183 5.76543 -8.15638 588.409 598.21
3.32331 5.37458 -6.43273 599.714 597.337
5.62395 6.55249 -4.80166 609.286 603.594
7.48555 8.27655 -2.66495 616.449 612.103
5.76381 9.72691 -4.0026 608.252 618.166
3.57084 10.5763 -5.26588 598.144 621.242
1.14306 10.9398 -6.70158 587.228 621.998
-1.28959 10.8982 -5.33563 575.687 620.543
-3.59922 10.3987 -3.99328 564.927 617.038
-1.53734 7.88529 -5.13621 575.871 606.542
0.945134 7.65216 -7.12364 587.941 606.832
3.37948 7.53045 -5.04438 598.596 607.113
3.39207 8.02174 -4.54368 598.288 609.317
1.00004 8.3489 -6.25328 587.63 609.956
-1.43585 8.375 -4.55095 575.948 608.769
3 20 21 23
3 21 22 23
3 0 1 36
3 15 16 45
3 0 17 36
3 16 26 45
3 17 18 37
3 25 26 44
3 17 36 37
3 26 44 45
3 18 19 38
3 24 25 43
3 18 37 38
3 25 43 44
3 19 20 38
3 23 24 43
3 20 21 39
3 22 23 42
3 20 38 39
3 23 42 43
3 21 22 27
3 21 27 39
3 22 27 42
3 27 28 42
3 27 28 39
3 28 42 47
3 28 39 40
3 1 36 41
3 15 45 46
3 1 2 41
3 14 15 46
3 28 29 40
3 28 29 47
3 2 40 41
3 14 46 47
3 2 29 40
3 14 29 47
3 2 3 29
3 13 14 29
3 29 30 31
3 29 30 35
3 3 29 31
3 13 29 35
3 30 32 33
3 30 33 34
3 30 31 32
3 30 34 35
3 3 4 31
3 12 13 35
3 4 5 48
3 11 12 54
3 5 6 48
3 10 11 54
3 6 48 59
3 10 54 55
3 6 7 59
3 9 10 55
3 7 58 59
3 9 55 56
3 8 57 58
3 8 56 57
3 7 8 58
3 8 9 56
3 4 31 48
3 12 35 54
3 31 48 49
3 35 53 54
3 31 49 50
3 35 52 53
3 31 32 50
3 34 35 52
3 32 33 50
3 33 34 52
3 33 50 51
3 33 51 52
3 48 49 60
3 49 60 50
3 50 60 61
3 50 51 61
3 51 52 61
3 61 62 52
3 52 53 62
3 53 54 62
3 54 55 63
3 55 56 63
3 56 63 64
3 56 57 64
3 64 65 57
3 57 58 65
3 58 59 65
3 48 59 65
