ply
format ascii 1.0
element vertex 66
property float x
property float y
property float z
property float u
property float v
element face 91
property list uchar int vertex_indices
end_header
-20.2367 -6.96055 21.3324 481.46 529.323
-19.6674 -1.42674 20.93 482.264 555.559
-18.8158 4.07145 20.4584 484.424 581.74
-17.6105 9.46096 18.4298 488.756 607.888
-15.8041 14.527 13.5918 496.88 633.367
-12.7503 18.795 7.93798 511.383 655.72
-8.59906 22.0068 3.27569 531.1 673.273
-3.78025 24.1277 -0.847208 554.171 685.817
1.51749 24.5963 -4.71515 579.999 690.72
6.74044 23.4584 -0.832201 603.678 686.298
11.1806 20.603 3.33657 624.22 673.488
14.7841 16.7914 7.96488 641.047 655.801
17.3286 12.2358 13.5695 652.881 634.038
18.6876 7.21295 18.3351 659.588 609.868
19.2536 2.05449 20.4488 663.442 585.393
19.3253 -3.15027 20.8876 665.511 560.914
19.0491 -8.35949 21.1832 665.996 536.326
-16.5577 -14.3381 0.0331571 507.863 500.854
-14.4258 -16.4387 -1.64731 519.116 492.122
-11.5761 -17.4496 -3.01591 533.244 488.675
-8.53892 -17.499 -4.3586 547.897 489.796
-5.56292 -16.8597 -5.56344 561.974 494.093
2.78211 -17.1948 -5.46495 601.147 495.373
5.40049 -18.2086 -4.18029 613.38 491.228
8.20432 -18.6103 -2.81678 626.237 489.999
11.0073 -18.2404 -1.41187 638.802 492.378
13.3817 -16.7601 0.306847 648.864 499.745
-0.580831 -11.7108 -5.02332 583.294 519.828
-0.372203 -8.93882 -7.76042 584.115 533.521
-0.170226 -6.17717 -10.5424 584.922 547.174
0.0303279 -3.42977 -13.2391 585.702 560.74
-2.71558 0.138594 -6.10131 569.375 574.899
-1.17262 0.389486 -7.06592 576.806 576.827
0.421187 0.427081 -8.02548 584.551 577.771
1.90595 0.182252 -6.9582 591.266 576.891
3.29104 -0.286382 -6.07192 597.649 574.968
-12.2295 -9.70406 -1.1957 526.846 524.353
-10.582 -10.8769 -1.25585 535.002 519.435
-8.48999 -11.175 -1.19297 544.887 518.743
-6.60507 -10.4695 -0.915993 553.377 522.637
-8.38065 -9.63041 -1.13562 544.827 526.01
-10.3503 -9.36738 -1.12107 535.504 526.562
4.72001 -11.1323 -0.738126 606.599 523.389
6.43621 -12.056 -1.08127 615.073 519.727
8.51052 -12.1272 -1.10909 624.822 520.113
10.2916 -11.2123 -0.962959 632.79 524.983
8.52371 -10.5665 -0.915281 624.264 527.392
6.56199 -10.5658 -0.910714 615.075 526.718
-5.51669 9.25067 -2.78531 551.97 615.904
-3.89439 7.2699 -4.93546 560.938 607.665
-1.81353 5.68813 -6.60048 571.761 601.345
0.723725 5.67501 -8.15411 584.124 602.511
3.18665 5.34961 -6.40242 595.239 601.434
5.38887 6.60601 -4.75996 604.599 607.709
7.14186 8.39638 -2.65106 611.52 616.227
5.56725 9.85858 -3.95437 604.02 622.838
3.50237 10.7567 -5.24858 594.424 626.633
1.1199 11.1224 -6.73197 583.589 627.865
-1.31683 11.0498 -5.3677 571.785 626.375
-3.55827 10.4462 -4.01505 561.09 622.465
-1.51488 7.79368 -5.09368 571.942 610.977
0.881059 7.49999 -7.07921 583.877 610.877
3.23531 7.48703 -4.89974 594.24 611.13
3.30727 8.30745 -4.42053 594.135 614.893
0.993899 8.66632 -6.21042 583.721 616.187
-1.38961 8.62005 -4.53515 572.061 614.767
3 20 21 23
3 21 22 23
3 0 1 36
3 15 16 45
3 0 17 36
3 16 26 45
3 17 18 37
3 25 26 44
3 17 36 37
3 26 44 45
3 18 19 38
3 24 25 43
3 18 37 38
3 25 43 44
3 19 20 38
3 23 24 43
3 20 21 39
3 22 23 42
3 20 38 39
3 23 42 43
3 21 22 27
3 21 27 39
3 22 27 42
3 27 28 42
3 27 28 39
3 28 42 47
3 28 39 40
3 1 36 41
3 15 45 46
3 1 2 41
3 14 15 46
3 28 29 40
3 28 29 47
3 2 40 41
3 14 46 47
3 2 29 40
3 14 29 47
3 2 3 29
3 13 14 29
3 29 30 31
3 29 30 35
3 3 29 31
3 13 29 35
3 30 32 33
3 30 33 34
3 30 31 32
3 30 34 35
3 3 4 31
3 12 13 35
3 4 5 48
3 11 12 54
3 5 6 48
3 10 11 54
3 6 48 59
3 10 54 55
3 6 7 59
3 9 10 55
3 7 58 59
3 9 55 56
3 8 57 58
3 8 56 57
3 7 8 58
3 8 9 56
3 4 31 48
3 12 35 54
3 31 48 49
3 35 53 54
3 31 49 50
3 35 52 53
3 31 32 50
3 34 35 52
3 32 33 50
3 33 34 52
3 33 50 51
3 33 51 52
3 48 49 60
3 49 60 50
3 50 60 61
3 50 51 61
3 51 52 61
3 61 62 52
3 52 53 62
3 53 54 62
3 54 55 63
3 55 56 63
3 56 63 64
3 56 57 64
3 64 65 57
3 57 58 65
3 58 59 65
3 48 59 65
