ply
format ascii 1.0
element vertex 66
property float x
property float y
property float z
property float u
property float v
element face 91
property list uchar int vertex_indices
end_header
-19.7032 -7.09727 21.0919 490.021 524.877
-19.1983 -1.69299 20.7673 490.012 550.843
-18.3598 3.65886 20.2921 491.658 576.748
-17.0731 8.97187 18.3096 495.949 603.059
-15.2038 14.1302 13.5844 503.983 629.606
-12.278 18.6585 7.98542 517.608 653.86
-8.35513 22.2542 3.25942 536.104 673.907
-3.73869 24.8108 -0.795417 558.149 689.157
1.46813 25.6105 -4.71075 583.762 696.295
6.60467 24.3197 -0.84365 607.432 691.462
10.8729 21.214 3.26864 627.747 677.562
14.299 17.1633 7.94547 644.32 658.653
16.7779 12.4269 13.5048 656.429 635.837
18.2036 7.26013 18.2476 664.015 610.718
18.8535 2.05421 20.3385 668.821 585.753
18.9447 -3.12641 20.8408 671.493 561.07
18.6529 -8.32263 21.0422 672.457 536.219
-15.8643 -14.4432 -0.0111243 518.634 497.182
-13.9744 -16.446 -1.69672 529.084 488.955
-11.3562 -17.4903 -3.05896 542.434 485.52
-8.50564 -17.626 -4.40858 556.46 486.5
-5.68468 -17.1061 -5.62841 569.997 490.545
2.51921 -17.4521 -5.48624 609.006 492.533
5.10079 -18.3848 -4.19791 621.252 488.926
7.8347 -18.7027 -2.85032 633.914 488.29
10.5165 -18.2369 -1.47267 645.956 491.343
12.7138 -16.747 0.268894 655.103 498.948
-0.713235 -12.0096 -5.01328 590.996 516.803
-0.48676 -9.48625 -7.68429 591.784 529.574
-0.264707 -6.96639 -10.3813 592.561 542.334
-0.0414644 -4.47127 -13.0557 593.347 554.972
-2.69002 -0.428891 -5.98052 576.565 571.147
-1.16704 -0.269859 -6.9377 584.029 572.83
0.380017 -0.264114 -7.93748 591.693 573.808
1.84305 -0.499271 -6.84899 598.378 573.064
3.23282 -0.904239 -6.03414 604.885 571.552
-11.8564 -9.64951 -1.27043 535.827 522.057
-10.32 -10.8398 -1.28207 543.668 517.096
-8.28531 -11.176 -1.17823 553.436 516.383
-6.43748 -10.6155 -0.910811 561.848 519.8
-8.1135 -9.6432 -1.14869 553.529 523.728
-10.0267 -9.32001 -1.12134 544.299 524.4
4.32205 -11.2682 -0.655493 613.079 521.445
6.02182 -12.0887 -1.08856 621.662 518.422
8.05713 -12.1307 -1.15496 631.354 519.149
9.76916 -11.2277 -1.02715 639.009 524.169
8.04704 -10.5639 -0.887222 630.489 526.514
6.11572 -10.6003 -0.859723 621.34 525.471
-4.99989 9.73677 -2.73614 559.815 617.534
-3.85209 7.2302 -4.89214 567.137 606.706
-1.90916 5.18458 -6.52384 577.84 598.286
0.774338 5.08455 -8.05701 591.118 599.407
3.40653 4.79698 -6.34353 603.162 598.775
5.565 6.50327 -4.74166 612.072 607.426
6.96935 8.833 -2.60341 616.939 618.56
5.62185 10.5256 -4.02028 610.234 626.36
3.71129 11.7059 -5.33299 601.063 631.449
1.29653 12.2302 -6.85076 589.874 633.251
-1.15883 12.0283 -5.4211 577.852 630.825
-3.25933 11.1586 -4.02535 567.835 625.396
-1.48663 7.60693 -4.87356 578.171 609.547
0.951849 7.15857 -6.92091 590.619 609.038
3.37319 7.25628 -4.74715 601.332 610.022
3.45884 8.91803 -4.42142 600.859 617.865
1.1459 9.54418 -6.16005 590.179 620.254
-1.25709 9.26263 -4.4567 578.351 617.402
3 20 21 23
3 21 22 23
3 0 1 36
3 15 16 45
3 0 17 36
3 16 26 45
3 17 18 37
3 25 26 44
3 17 36 37
3 26 44 45
3 18 19 38
3 24 25 43
3 18 37 38
3 25 43 44
3 19 20 38
3 23 24 43
3 20 21 39
3 22 23 42
3 20 38 39
3 23 42 43
3 21 22 27
3 21 27 39
3 22 27 42
3 27 28 42
3 27 28 39
3 28 42 47
3 28 39 40
3 1 36 41
3 15 45 46
3 1 2 41
3 14 15 46
3 28 29 40
3 28 29 47
3 2 40 41
3 14 46 47
3 2 29 40
3 14 29 47
3 2 3 29
3 13 14 29
3 29 30 31
3 29 30 35
3 3 29 31
3 13 29 35
3 30 32 33
3 30 33 34
3 30 31 32
3 30 34 35
3 3 4 31
3 12 13 35
3 4 5 48
3 11 12 54
3 5 6 48
3 10 11 54
3 6 48 59
3 10 54 55
3 6 7 59
3 9 10 55
3 7 58 59
3 9 55 56
3 8 57 58
3 8 56 57
3 7 8 58
3 8 9 56
3 4 31 48
3 12 35 54
3 31 48 49
3 35 53 54
3 31 49 50
3 35 52 53
3 31 32 50
3 34 35 52
3 32 33 50
3 33 34 52
3 33 50 51
3 33 51 52
3 48 49 60
3 49 60 50
3 50 60 61
3 50 51 61
3 51 52 61
3 61 62 52
3 52 53 62
3 53 54 62
3 54 55 63
3 55 56 63
3 56 63 64
3 56 57 64
3 64 65 57
3 57 58 65
3 58 59 65
3 48 59 65
