ply
format ascii 1.0
element vertex 66
property float x
property float y
property float z
property float u
property float v
element face 91
property list uchar int vertex_indices
end_header
-20.4441 -7.25123 21.2955 479.932 531.928
-19.8591 -1.67358 20.9235 480.854 558.281
-18.9599 3.85905 20.4188 483.3 584.54
-17.6154 9.32915 18.414 488.309 610.787
-15.6599 14.5322 13.5342 497.147 636.238
-12.5336 18.9351 7.92261 511.957 658.403
-8.36928 22.2702 3.28798 531.687 675.836
-3.57349 24.5221 -0.804256 554.577 688.366
1.713 25.1067 -4.72415 580.283 693.239
6.83297 23.7582 -0.788247 603.471 688.33
11.1327 20.7104 3.33557 623.356 675.167
14.6195 16.7504 7.93032 639.611 657.415
17.1632 12.0954 13.4608 651.413 636.008
18.675 7.05057 18.2396 658.756 612.487
19.365 1.98649 20.3017 663.098 588.829
19.4579 -3.05191 20.7264 665.142 565.228
19.17 -8.09741 21.0141 665.451 541.477
-16.4834 -14.1639 -0.0236283 507.363 502.729
-14.3471 -16.4383 -1.72005 518.652 492.95
-11.3967 -17.6244 -3.05624 533.26 488.514
-8.18761 -17.7151 -4.36685 548.691 489.294
-5.02773 -17.0234 -5.54556 563.582 493.71
2.50579 -17.3085 -5.42364 598.851 494.93
5.18335 -18.2954 -4.16995 611.322 491.112
8.03655 -18.6155 -2.85039 624.363 490.471
10.8271 -18.0873 -1.48452 636.804 493.778
13.1047 -16.4782 0.304339 646.345 501.936
-0.50549 -11.9 -5.00669 582.782 519.198
-0.314647 -9.15701 -7.73585 583.563 532.342
-0.130608 -6.41605 -10.4769 584.316 545.476
0.0508561 -3.69557 -13.1603 585.047 558.508
-2.69737 -0.201291 -6.098 568.832 573.333
-1.14706 0.0681934 -6.99182 576.259 575.199
0.453597 0.125222 -7.93764 584.01 576.092
1.9123 -0.124868 -6.86882 590.586 575.326
3.26516 -0.596523 -6.03127 596.815 573.506
-11.9065 -9.52063 -1.31082 527.544 526.143
-10.3038 -10.5198 -1.32836 535.385 522.01
-8.32553 -10.872 -1.19128 544.71 521.023
-6.451 -10.4536 -0.85816 553.224 523.592
-8.17156 -9.6569 -1.10949 544.985 526.759
-10.0596 -9.36243 -1.13991 536.069 527.498
4.42601 -11.0149 -0.682133 604.199 524.651
6.16568 -11.621 -1.06832 612.657 522.438
8.12327 -11.6393 -1.1839 621.848 523.029
9.81379 -10.8627 -1.08422 629.45 527.233
8.05914 -10.4028 -0.939631 621.047 528.777
6.18594 -10.4669 -0.888249 612.298 527.835
-5.37472 9.33368 -2.73692 551.996 616.787
-4.0442 7.0364 -4.90772 559.673 606.668
-2.00906 5.17889 -6.52172 570.321 598.8
0.67668 5.10692 -8.03937 583.363 599.507
3.28038 4.82109 -6.30923 595.1 598.907
5.45498 6.35154 -4.72951 604.251 606.679
6.92418 8.534 -2.61946 609.717 617.22
5.50511 10.0687 -3.90478 602.948 624.034
3.57199 11.1058 -5.2394 593.965 628.347
1.18672 11.5671 -6.78325 583.13 629.827
-1.29728 11.3924 -5.36186 571.146 628.042
-3.47123 10.6142 -4.00231 560.838 623.541
-1.55776 7.38092 -5.02115 571.21 609.137
0.858325 6.99067 -7.0121 583.246 608.303
3.23596 7.08251 -4.76572 593.638 609.35
3.35557 8.59792 -4.35304 593.548 616.452
1.06674 9.14733 -6.23537 583.238 618.407
-1.32961 8.8991 -4.51726 571.597 616.282
3 20 21 23
3 21 22 23
3 0 1 36
3 15 16 45
3 0 17 36
3 16 26 45
3 17 18 37
3 25 26 44
3 17 36 37
3 26 44 45
3 18 19 38
3 24 25 43
3 18 37 38
3 25 43 44
3 19 20 38
3 23 24 43
3 20 21 39
3 22 23 42
3 20 38 39
3 23 42 43
3 21 22 27
3 21 27 39
3 22 27 42
3 27 28 42
3 27 28 39
3 28 42 47
3 28 39 40
3 1 36 41
3 15 45 46
3 1 2 41
3 14 15 46
3 28 29 40
3 28 29 47
3 2 40 41
3 14 46 47
3 2 29 40
3 14 29 47
3 2 3 29
3 13 14 29
3 29 30 31
3 29 30 35
3 3 29 31
3 13 29 35
3 30 32 33
3 30 33 34
3 30 31 32
3 30 34 35
3 3 4 31
3 12 13 35
3 4 5 48
3 11 12 54
3 5 6 48
3 10 11 54
3 6 48 59
3 10 54 55
3 6 7 59
3 9 10 55
3 7 58 59
3 9 55 56
3 8 57 58
3 8 56 57
3 7 8 58
3 8 9 56
3 4 31 48
3 12 35 54
3 31 48 49
3 35 53 54
3 31 49 50
3 35 52 53
3 31 32 50
3 34 35 52
3 32 33 50
3 33 34 52
3 33 50 51
3 33 51 52
3 48 49 60
3 49 60 50
3 50 60 61
3 50 51 61
3 51 52 61
3 61 62 52
3 52 53 62
3 53 54 62
3 54 55 63
3 55 56 63
3 56 63 64
3 56 57 64
3 64 65 57
3 57 58 65
3 58 59 65
3 48 59 65
