ply
format ascii 1.0
element vertex 66
property float x
property float y
property float z
property float u
property float v
element face 91
property list uchar int vertex_indices
end_header
-20.233 -6.91155 21.2573 479.667 526.365
-19.6193 -1.39419 20.8625 480.48 552.698
-18.6984 4.07481 20.3469 482.802 578.95
-17.3569 9.46905 18.4511 487.633 605.347
-15.4201 14.5538 13.5571 496.475 631.244
-12.3948 18.8865 7.92473 511.006 654.194
-8.38894 22.2628 3.27205 530.179 672.774
-3.71479 24.5772 -0.850849 552.729 686.478
1.49113 25.1829 -4.72053 578.375 692.271
6.63874 23.8265 -0.799351 601.709 686.9
10.8625 20.6515 3.36088 621.342 672.546
14.2526 16.5951 7.9648 637.247 653.61
16.7811 11.9528 13.513 648.992 631.353
18.3822 6.96642 18.2624 656.804 607.312
19.1591 1.9196 20.257 661.762 583.341
19.316 -3.12349 20.6931 664.367 559.529
19.0643 -8.18275 20.9467 665.123 535.528
-16.3759 -14.4509 0.0199401 508.539 497.482
-14.3201 -16.6216 -1.66158 519.691 488.451
-11.4567 -17.683 -3.00209 534.071 484.874
-8.37233 -17.7197 -4.35039 549.082 486.212
-5.3379 -17.0437 -5.54952 563.518 490.854
2.66581 -17.2839 -5.48548 601.236 492.778
5.24101 -18.3062 -4.18815 613.288 488.632
8.00218 -18.7173 -2.80331 625.938 487.417
10.749 -18.3566 -1.40688 638.207 489.831
13.0168 -16.8845 0.300445 647.662 497.224
-0.478757 -11.9098 -4.97853 584.103 516.774
-0.316397 -9.26135 -7.71094 584.794 529.982
-0.160787 -6.61753 -10.4608 585.461 543.17
-0.00688303 -3.99381 -13.1419 586.103 556.246
-2.69863 -0.127996 -6.04343 569.316 571.705
-1.14793 0.135092 -7.00711 576.853 573.774
0.458653 0.18173 -7.9899 584.747 574.849
1.93243 -0.0542534 -6.87575 591.37 574.032
3.29439 -0.517875 -5.9892 597.64 572.154
-12.07 -9.92113 -1.27967 527.444 520.798
-10.4313 -11.161 -1.26199 535.643 515.579
-8.28534 -11.5007 -1.1148 545.82 514.766
-6.35647 -10.7849 -0.794282 554.488 518.801
-8.14225 -9.8309 -1.08492 545.811 522.683
-10.1567 -9.54108 -1.09848 536.225 523.279
4.51962 -11.377 -0.653936 605.83 520.15
6.26294 -12.2773 -0.998951 614.517 516.66
8.37934 -12.3204 -1.10103 624.525 517.294
10.1344 -11.3139 -1.03535 632.352 522.695
8.35124 -10.6299 -0.895112 623.639 525.2
6.35899 -10.6747 -0.876093 614.28 524.22
-4.71941 9.55912 -2.76301 554.73 615.783
-3.38666 7.62325 -4.94086 562.566 607.701
-1.57971 5.98089 -6.60943 572.33 601.061
0.751121 6.03191 -8.14582 583.829 602.569
3.00136 5.68556 -6.36116 593.905 601.366
4.91186 7.04773 -4.72348 601.75 608.12
6.32021 8.87009 -2.61713 606.878 616.736
5.02099 10.1876 -3.98889 600.736 622.781
3.26416 11.0269 -5.3034 592.612 626.381
1.14908 11.4145 -6.83186 583.063 627.768
-1.03268 11.265 -5.45858 572.363 625.893
-2.99752 10.6658 -4.07111 562.859 621.977
-1.07905 8.07762 -5.04571 573.275 610.753
0.917183 7.82435 -6.98015 583.468 610.796
2.86824 7.85113 -4.78273 591.837 611.137
2.90253 8.50247 -4.38127 591.591 614.122
1.03656 8.90634 -6.21463 583.317 615.755
-0.917615 8.7389 -4.56055 573.593 613.814
3 20 21 23
3 21 22 23
3 0 1 36
3 15 16 45
3 0 17 36
3 16 26 45
3 17 18 37
3 25 26 44
3 17 36 37
3 26 44 45
3 18 19 38
3 24 25 43
3 18 37 38
3 25 43 44
3 19 20 38
3 23 24 43
3 20 21 39
3 22 23 42
3 20 38 39
3 23 42 43
3 21 22 27
3 21 27 39
3 22 27 42
3 27 28 42
3 27 28 39
3 28 42 47
3 28 39 40
3 1 36 41
3 15 45 46
3 1 2 41
3 14 15 46
3 28 29 40
3 28 29 47
3 2 40 41
3 14 46 47
3 2 29 40
3 14 29 47
3 2 3 29
3 13 14 29
3 29 30 31
3 29 30 35
3 3 29 31
3 13 29 35
3 30 32 33
3 30 33 34
3 30 31 32
3 30 34 35
3 3 4 31
3 12 13 35
3 4 5 48
3 11 12 54
3 5 6 48
3 10 11 54
3 6 48 59
3 10 54 55
3 6 7 59
3 9 10 55
3 7 58 59
3 9 55 56
3 8 57 58
3 8 56 57
3 7 8 58
3 8 9 56
3 4 31 48
3 12 35 54
3 31 48 49
3 35 53 54
3 31 49 50
3 35 52 53
3 31 32 50
3 34 35 52
3 32 33 50
3 33 34 52
3 33 50 51
3 33 51 52
3 48 49 60
3 49 60 50
3 50 60 61
3 50 51 61
3 51 52 61
3 61 62 52
3 52 53 62
3 53 54 62
3 54 55 63
3 55 56 63
3 56 63 64
3 56 57 64
3 64 65 57
3 57 58 65
3 58 59 65
3 48 59 65
