ply
format ascii 1.0
element vertex 66
property float x
property float y
property float z
property float u
property float v
element face 91
property list uchar int vertex_indices
end_header
-20.505 -7.01647 21.2804 480.709 531.364
-19.886 -1.51334 20.8647 481.612 557.186
-18.9427 3.94271 20.3913 484.052 582.916
-17.573 9.31648 18.4487 488.952 608.557
-15.6042 14.3956 13.546 497.653 633.321
-12.5236 18.7357 7.91459 512.011 655.138
-8.44261 22.1022 3.30941 531.059 672.716
-3.69419 24.3889 -0.832137 553.466 685.49
1.57243 24.9894 -4.71361 578.837 690.605
6.73556 23.7242 -0.817863 602.04 686.317
11.0658 20.7278 3.35991 621.955 673.652
14.5611 16.7925 7.91208 638.245 656.281
17.142 12.204 13.4637 650.238 635.443
18.6861 7.19883 18.3285 657.797 612.344
19.412 2.09036 20.3386 662.485 588.716
19.5718 -3.02368 20.7793 665.036 564.991
19.347 -8.14784 21.0932 665.847 541.086
-16.6325 -14.4333 0.013337 508.031 500.3
-14.4586 -16.591 -1.65875 519.44 491.248
-11.5186 -17.629 -3.0125 533.874 487.654
-8.37276 -17.6349 -4.35913 548.868 488.929
-5.29499 -16.8992 -5.55777 563.218 493.608
2.63336 -17.2685 -5.40827 600.047 494.856
5.31587 -18.3355 -4.15067 612.494 490.795
8.18688 -18.7493 -2.80696 625.54 489.83
11.0333 -18.3179 -1.43048 638.14 492.777
13.3847 -16.7443 0.338603 647.891 500.806
-0.583 -11.8118 -4.96763 582.932 518.945
-0.365343 -9.00328 -7.74746 583.729 532.318
-0.153931 -6.19773 -10.5189 584.495 545.674
0.0552322 -3.40859 -13.1874 585.226 558.944
-2.7062 0.134094 -6.08964 568.895 573.716
-1.15562 0.437589 -7.04579 576.258 575.794
0.457745 0.497696 -8.00213 584.006 576.765
1.94561 0.227337 -6.92312 590.67 575.97
3.30688 -0.29598 -6.06713 596.912 573.974
-12.2606 -9.62309 -1.26816 526.852 524.391
-10.6224 -10.7009 -1.27365 534.854 520.002
-8.57306 -11.0595 -1.14108 544.445 519.094
-6.65692 -10.5603 -0.908154 553.062 522.11
-8.41753 -9.71842 -1.14168 544.656 525.379
-10.3663 -9.42244 -1.13152 535.511 526.021
4.53993 -11.1871 -0.678252 605.109 523.381
6.31003 -11.9154 -1.02614 613.694 520.696
8.3493 -11.9437 -1.13577 623.188 521.34
10.1115 -11.1232 -1.03505 631.009 525.801
8.31405 -10.5961 -0.907097 622.441 527.563
6.36881 -10.6314 -0.876682 613.432 526.666
-4.93264 9.26758 -2.76708 554.079 614.989
-3.54628 7.2903 -4.9266 561.92 606.523
-1.64688 5.69289 -6.57133 571.836 599.968
0.754084 5.71599 -8.13043 583.432 601.117
3.07412 5.3612 -6.37191 593.775 600.181
5.0958 6.63814 -4.76042 602.159 606.724
6.60595 8.45852 -2.62439 607.805 615.55
5.21476 9.8412 -3.93116 601.236 621.566
3.36074 10.7139 -5.25141 592.721 625.041
1.16878 11.106 -6.76846 582.883 626.176
-1.08171 10.9857 -5.37201 572.071 624.647
-3.12567 10.3857 -4.00947 562.409 620.971
-1.111 7.82032 -5.06168 573.044 609.91
0.92733 7.57458 -7.01109 583.183 609.71
2.91566 7.55736 -4.84702 591.735 610.181
2.96332 8.17878 -4.41494 591.586 613.046
1.03564 8.56483 -6.20259 583.059 614.276
-0.964403 8.4447 -4.53961 573.325 612.817
3 20 21 23
3 21 22 23
3 0 1 36
3 15 16 45
3 0 17 36
3 16 26 45
3 17 18 37
3 25 26 44
3 17 36 37
3 26 44 45
3 18 19 38
3 24 25 43
3 18 37 38
3 25 43 44
3 19 20 38
3 23 24 43
3 20 21 39
3 22 23 42
3 20 38 39
3 23 42 43
3 21 22 27
3 21 27 39
3 22 27 42
3 27 28 42
3 27 28 39
3 28 42 47
3 28 39 40
3 1 36 41
3 15 45 46
3 1 2 41
3 14 15 46
3 28 29 40
3 28 29 47
3 2 40 41
3 14 46 47
3 2 29 40
3 14 29 47
3 2 3 29
3 13 14 29
3 29 30 31
3 29 30 35
3 3 29 31
3 13 29 35
3 30 32 33
3 30 33 34
3 30 31 32
3 30 34 35
3 3 4 31
3 12 13 35
3 4 5 48
3 11 12 54
3 5 6 48
3 10 11 54
3 6 48 59
3 10 54 55
3 6 7 59
3 9 10 55
3 7 58 59
3 9 55 56
3 8 57 58
3 8 56 57
3 7 8 58
3 8 9 56
3 4 31 48
3 12 35 54
3 31 48 49
3 35 53 54
3 31 49 50
3 35 52 53
3 31 32 50
3 34 35 52
3 32 33 50
3 33 34 52
3 33 50 51
3 33 51 52
3 48 49 60
3 49 60 50
3 50 60 61
3 50 51 61
3 51 52 61
3 61 62 52
3 52 53 62
3 53 54 62
3 54 55 63
3 55 56 63
3 56 63 64
3 56 57 64
3 64 65 57
3 57 58 65
3 58 59 65
3 48 59 65
