ply
format ascii 1.0
element vertex 66
property float x
property float y
property float z
property float u
property float v
element face 91
property list uchar int vertex_indices
end_header
-20.2941 -6.71572 21.3451 490.842 527.777
-19.6811 -1.33008 20.9527 491.393 552.861
-18.7792 4.01251 20.4978 493.304 577.881
-17.5411 9.26867 18.4244 497.192 602.878
-15.6993 14.2517 13.607 504.639 627.271
-12.6542 18.4786 7.98013 518.142 648.822
-8.57002 21.6982 3.32773 536.622 666.049
-3.8439 23.8702 -0.858792 558.397 678.671
1.35995 24.4276 -4.6927 582.987 684.024
6.55511 23.3659 -0.865996 606.384 680.837
11.0123 20.5981 3.37026 627.04 669.43
14.6579 16.8484 7.97603 644.308 653.104
17.2813 12.341 13.5615 656.975 632.714
18.6863 7.31993 18.3822 664.456 609.546
19.2879 2.16153 20.5458 668.954 585.779
19.433 -3.03001 21.0117 671.783 561.904
19.2302 -8.23277 21.2844 673.066 537.854
-16.7827 -14.3761 0.0494523 515.508 497.101
-14.582 -16.417 -1.62097 526.918 488.904
-11.6814 -17.3645 -3.01097 540.994 485.996
-8.609 -17.3928 -4.36799 555.449 487.384
-5.60022 -16.7511 -5.57602 569.282 491.804
2.60126 -17.0993 -5.47712 607.081 493.725
5.34022 -18.1543 -4.19648 619.813 489.873
8.26236 -18.5892 -2.83382 633.094 488.94
11.1864 -18.2404 -1.4159 646.027 491.602
13.6685 -16.749 0.317611 656.352 499.283
-0.647682 -11.7418 -4.9924 589.692 516.89
-0.394857 -8.87991 -7.74567 590.269 530.55
-0.149783 -6.03203 -10.5782 590.835 544.154
0.0930007 -3.20115 -13.3246 591.378 557.667
-2.77835 0.31786 -6.12439 574.895 571.584
-1.17524 0.580025 -7.11871 582.385 573.622
0.475396 0.61525 -8.09257 590.189 574.635
2.02075 0.347436 -7.03028 597.146 573.919
3.46459 -0.160666 -6.16246 603.789 572.081
-12.5628 -9.64572 -1.09707 533.097 520.835
-10.8458 -10.9408 -1.21306 541.579 515.637
-8.63128 -11.234 -1.20509 551.878 515.243
-6.65269 -10.4278 -0.987798 560.56 519.772
-8.52417 -9.58619 -1.14973 551.634 522.858
-10.5872 -9.3029 -1.10127 542.022 523.264
4.59072 -11.0912 -0.749572 612.436 521.536
6.3858 -12.1626 -1.12331 621.242 517.437
8.58913 -12.2671 -1.10365 631.403 517.904
10.4821 -11.2733 -0.884457 639.609 523.258
8.61965 -10.5868 -0.889659 630.755 525.613
6.55096 -10.5727 -0.883445 621.245 524.784
-5.78535 9.26977 -2.80541 556.352 610.977
-4.04469 7.28506 -4.93052 565.734 602.904
-1.83841 5.74141 -6.58713 576.948 596.993
0.801468 5.74793 -8.16061 589.453 598.386
3.36654 5.37944 -6.41468 600.972 597.549
5.70126 6.56942 -4.77745 610.776 603.794
7.59499 8.31692 -2.65283 618.191 612.344
5.85342 9.77618 -3.98146 609.876 618.492
3.62272 10.6218 -5.23147 599.563 621.596
1.15642 10.9667 -6.67682 588.435 622.324
-1.33247 10.9284 -5.3314 576.693 620.883
-3.69649 10.4161 -4.0086 565.737 617.32
-1.65315 7.88527 -5.14126 576.507 606.725
0.95495 7.63761 -7.13491 589.08 606.995
3.50933 7.5374 -4.99401 600.336 607.331
3.54252 8.10079 -4.50583 600.123 609.866
1.02674 8.4166 -6.26037 588.856 610.483
-1.54174 8.44938 -4.5648 576.632 609.285
3 20 21 23
3 21 22 23
3 0 1 36
3 15 16 45
3 0 17 36
3 16 26 45
3 17 18 37
3 25 26 44
3 17 36 37
3 26 44 45
3 18 19 38
3 24 25 43
3 18 37 38
3 25 43 44
3 19 20 38
3 23 24 43
3 20 21 39
3 22 23 42
3 20 38 39
3 23 42 43
3 21 22 27
3 21 27 39
3 22 27 42
3 27 28 42
3 27 28 39
3 28 42 47
3 28 39 40
3 1 36 41
3 15 45 46
3 1 2 41
3 14 15 46
3 28 29 40
3 28 29 47
3 2 40 41
3 14 46 47
3 2 29 40
3 14 29 47
3 2 3 29
3 13 14 29
3 29 30 31
3 29 30 35
3 3 29 31
3 13 29 35
3 30 32 33
3 30 33 34
3 30 31 32
3 30 34 35
3 3 4 31
3 12 13 35
3 4 5 48
3 11 12 54
3 5 6 48
3 10 11 54
3 6 48 59
3 10 54 55
3 6 7 59
3 9 10 55
3 7 58 59
3 9 55 56
3 8 57 58
3 8 56 57
3 7 8 58
3 8 9 56
3 4 31 48
3 12 35 54
3 31 48 49
3 35 53 54
3 31 49 50
3 35 52 53
3 31 32 50
3 34 35 52
3 32 33 50
3 33 34 52
3 33 50 51
3 33 51 52
3 48 49 60
3 49 60 50
3 50 60 61
3 50 51 61
3 51 52 61
3 61 62 52
3 52 53 62
3 53 54 62
3 54 55 63
3 55 56 63
3 56 63 64
3 56 57 64
3 64 65 57
3 57 58 65
3 58 59 65
3 48 59 65
