ply
format ascii 1.0
element vertex 66
property float x
property float y
property float z
property float u
property float v
element face 91
property list uchar int vertex_indices
end_header
-21.1001 -7.27801 21.5593 482.793 531.063
-20.536 -1.67567 21.1912 483.178 556.13
-19.7102 3.88816 20.6437 484.799 581.134
-18.5017 9.48732 18.4303 488.701 606.474
-16.595 14.9156 13.553 496.72 631.378
-13.2277 19.3033 7.81193 511.922 652.266
-8.73028 22.3641 3.29391 532.205 667.705
-3.69329 24.2429 -0.843796 555.207 678.113
1.59892 24.731 -4.82795 579.838 682.457
6.72499 23.3277 -0.823484 601.597 678.224
11.2395 20.422 3.36466 621.189 667.083
15.065 16.5917 7.84882 638 651.563
17.9059 11.9057 13.491 650.382 631.837
19.4955 6.71915 18.185 657.78 609.407
20.1377 1.67077 20.505 661.797 587.248
20.1814 -3.26526 20.9446 663.805 565.377
19.858 -8.22022 21.179 664.273 543.278
-16.7843 -13.9752 -0.0374596 512.363 503.439
-14.5335 -16.2698 -1.75554 523.847 494.195
-11.4498 -17.4744 -3.09512 538.439 490.109
-8.08924 -17.5633 -4.33466 553.772 491.079
-4.7603 -16.8445 -5.44894 568.596 495.615
2.49268 -17.1173 -5.37468 600.724 497.306
5.19794 -18.167 -4.152 612.654 493.715
8.0864 -18.5526 -2.86191 625.103 493.141
10.927 -18.1607 -1.45099 636.986 495.993
13.3136 -16.7221 0.308542 646.318 503.298
-0.336491 -11.214 -5.00251 585.728 522.338
-0.203074 -8.58125 -7.69411 586.239 534.105
-0.0750718 -5.95702 -10.5276 586.781 545.834
0.0480992 -3.36519 -13.3832 587.323 557.418
-2.96451 0.115974 -6.13458 569.994 571.531
-1.26111 0.442824 -7.0511 577.722 573.676
0.492724 0.542193 -8.07425 585.802 574.834
2.07018 0.247218 -6.93349 592.476 574.14
3.55316 -0.283561 -6.06413 598.926 572.366
-11.8941 -8.95626 -1.18895 532.379 527.663
-10.3583 -9.95887 -1.41142 539.646 523.836
-8.44612 -10.2934 -1.36614 548.212 523.118
-6.59069 -9.8461 -0.929835 556.073 525.836
-8.25537 -9.0715 -1.08932 548.466 528.607
-10.0791 -8.80727 -1.1217 540.314 529.049
4.91642 -10.5021 -0.802493 607.131 527.53
6.61382 -11.1155 -1.22129 615.028 525.496
8.49038 -11.1611 -1.22421 623.338 526.045
10.0972 -10.3546 -0.928558 630.008 530.258
8.39102 -9.89793 -0.912511 622.281 531.6
6.59785 -9.94864 -0.887157 614.369 530.657
-7.04318 8.79333 -2.76441 547.282 608.314
-4.96203 6.81683 -4.92134 558.049 600.419
-2.3818 5.29412 -6.52941 570.641 594.726
0.661679 5.32375 -7.8769 584.564 596.096
3.5857 4.88874 -6.29208 597.083 595.312
6.21851 6.01383 -4.7074 607.692 601.328
8.32835 7.80152 -2.62326 615.544 610.065
6.2609 9.19771 -3.85562 606.297 615.446
3.7192 9.91613 -5.13013 595.241 617.634
1.05126 10.2509 -6.62914 583.862 618.075
-1.7114 10.2393 -5.26446 571.167 616.896
-4.47974 9.86773 -3.94932 558.607 614.121
-2.16473 7.43123 -5.22215 570.272 604.266
0.856343 7.31714 -7.07111 584.335 604.998
3.77623 7.06086 -4.92396 596.561 604.996
3.85006 7.58184 -4.44462 596.505 607.328
0.955516 7.91372 -6.49523 584.326 607.673
-2.03614 7.97395 -4.65435 570.417 606.715
3 20 21 23
3 21 22 23
3 0 1 36
3 15 16 45
3 0 17 36
3 16 26 45
3 17 18 37
3 25 26 44
3 17 36 37
3 26 44 45
3 18 19 38
3 24 25 43
3 18 37 38
3 25 43 44
3 19 20 38
3 23 24 43
3 20 21 39
3 22 23 42
3 20 38 39
3 23 42 43
3 21 22 27
3 21 27 39
3 22 27 42
3 27 28 42
3 27 28 39
3 28 42 47
3 28 39 40
3 1 36 41
3 15 45 46
3 1 2 41
3 14 15 46
3 28 29 40
3 28 29 47
3 2 40 41
3 14 46 47
3 2 29 40
3 14 29 47
3 2 3 29
3 13 14 29
3 29 30 31
3 29 30 35
3 3 29 31
3 13 29 35
3 30 32 33
3 30 33 34
3 30 31 32
3 30 34 35
3 3 4 31
3 12 13 35
3 4 5 48
3 11 12 54
3 5 6 48
3 10 11 54
3 6 48 59
3 10 54 55
3 6 7 59
3 9 10 55
3 7 58 59
3 9 55 56
3 8 57 58
3 8 56 57
3 7 8 58
3 8 9 56
3 4 31 48
3 12 35 54
3 31 48 49
3 35 53 54
3 31 49 50
3 35 52 53
3 31 32 50
3 34 35 52
3 32 33 50
3 33 34 52
3 33 50 51
3 33 51 52
3 48 49 60
3 49 60 50
3 50 60 61
3 50 51 61
3 51 52 61
3 61 62 52
3 52 53 62
3 53 54 62
3 54 55 63
3 55 56 63
3 56 63 64
3 56 57 64
3 64 65 57
3 57 58 65
3 58 59 65
3 48 59 65
