ply
format ascii 1.0
element vertex 66
property float x
property float y
property float z
property float u
property float v
element face 91
property list uchar int vertex_indices
end_header
-20.4013 -6.47601 21.2315 488.319 528.187
-19.8248 -1.20834 20.8612 488.695 552.77
-18.9384 4.01186 20.4436 490.532 577.28
-17.6606 9.14082 18.353 494.669 601.782
-15.7238 14.0286 13.5775 502.681 625.849
-12.6341 18.2281 7.97791 516.533 647.374
-8.5483 21.4683 3.34221 535.14 664.781
-3.82685 23.7001 -0.854494 557.006 677.761
1.39121 24.3095 -4.6719 581.786 683.43
6.59576 23.3159 -0.889877 605.151 680.618
11.1185 20.6766 3.35529 625.994 669.853
14.847 17.0272 7.96546 643.539 654.028
17.4928 12.5422 13.5747 656.205 633.73
18.8356 7.45422 18.447 663.349 610.181
19.3946 2.17434 20.6137 667.712 585.787
19.529 -3.1474 21.1113 670.596 561.251
19.3356 -8.47854 21.407 672.032 536.555
-16.6547 -14.4012 0.0494053 514.925 496.359
-14.4318 -16.3693 -1.60696 526.495 488.512
-11.5435 -17.2444 -3.00573 540.563 485.961
-8.50607 -17.2444 -4.37567 554.915 487.504
-5.54679 -16.5926 -5.60575 568.575 491.996
2.42463 -17.0343 -5.46102 605.417 493.475
5.25987 -18.1642 -4.18386 618.625 489.342
8.28188 -18.6497 -2.82335 632.378 488.25
11.3111 -18.2938 -1.4178 645.773 491.032
13.8834 -16.7524 0.293783 656.447 499.031
-0.802149 -11.6969 -4.99731 588.032 516.574
-0.508348 -8.84389 -7.71915 588.841 530.242
-0.218649 -6.00677 -10.5439 589.665 543.849
0.0697261 -3.18775 -13.3024 590.474 557.363
-2.82833 0.343913 -6.10819 573.578 571.323
-1.25139 0.616737 -7.10474 580.984 573.422
0.375894 0.649701 -8.07339 588.722 574.434
1.946 0.360985 -7.03261 595.793 573.651
3.41014 -0.175709 -6.16057 602.534 571.702
-12.5444 -9.54646 -1.08908 531.959 520.717
-10.8542 -10.8343 -1.2068 540.351 515.549
-8.66765 -11.118 -1.2014 550.539 515.21
-6.71481 -10.3569 -1.01944 559.132 519.557
-8.55332 -9.50908 -1.1659 550.329 522.67
-10.5896 -9.21192 -1.10852 540.809 523.128
4.64657 -11.1071 -0.726814 611.673 521.097
6.44501 -12.1894 -1.10973 620.542 516.962
8.64764 -12.2853 -1.10316 630.719 517.496
10.5514 -11.3269 -0.89628 638.99 522.727
8.68736 -10.6418 -0.893053 630.103 525.057
6.61805 -10.6082 -0.88 620.561 524.292
-5.75434 9.29437 -2.82129 555.175 610.801
-4.05643 7.2857 -4.90204 564.464 602.596
-1.87117 5.73866 -6.54671 575.668 596.671
0.757527 5.73448 -8.12839 588.198 598.044
3.33343 5.36171 -6.43977 599.759 597.227
5.68675 6.55748 -4.8031 609.601 603.546
7.61429 8.284 -2.68231 617.112 612.054
5.81427 9.73057 -4.00971 608.539 618.112
3.55763 10.5664 -5.26309 598.12 621.143
1.08437 10.9181 -6.66047 586.962 621.867
-1.37896 10.8952 -5.32153 575.271 620.477
-3.71191 10.4097 -4.00425 564.394 617.016
-1.66039 7.88043 -5.10536 575.277 606.428
0.888988 7.6186 -7.13858 587.682 606.643
3.40213 7.51251 -5.05082 598.724 606.97
3.40859 8.06523 -4.56441 598.372 609.45
0.934851 8.37793 -6.28236 587.317 610.04
-1.5697 8.42308 -4.54138 575.295 608.888
3 20 21 23
3 21 22 23
3 0 1 36
3 15 16 45
3 0 17 36
3 16 26 45
3 17 18 37
3 25 26 44
3 17 36 37
3 26 44 45
3 18 19 38
3 24 25 43
3 18 37 38
3 25 43 44
3 19 20 38
3 23 24 43
3 20 21 39
3 22 23 42
3 20 38 39
3 23 42 43
3 21 22 27
3 21 27 39
3 22 27 42
3 27 28 42
3 27 28 39
3 28 42 47
3 28 39 40
3 1 36 41
3 15 45 46
3 1 2 41
3 14 15 46
3 28 29 40
3 28 29 47
3 2 40 41
3 14 46 47
3 2 29 40
3 14 29 47
3 2 3 29
3 13 14 29
3 29 30 31
3 29 30 35
3 3 29 31
3 13 29 35
3 30 32 33
3 30 33 34
3 30 31 32
3 30 34 35
3 3 4 31
3 12 13 35
3 4 5 48
3 11 12 54
3 5 6 48
3 10 11 54
3 6 48 59
3 10 54 55
3 6 7 59
3 9 10 55
3 7 58 59
3 9 55 56
3 8 57 58
3 8 56 57
3 7 8 58
3 8 9 56
3 4 31 48
3 12 35 54
3 31 48 49
3 35 53 54
3 31 49 50
3 35 52 53
3 31 32 50
3 34 35 52
3 32 33 50
3 33 34 52
3 33 50 51
3 33 51 52
3 48 49 60
3 49 60 50
3 50 60 61
3 50 51 61
3 51 52 61
3 61 62 52
3 52 53 62
3 53 54 62
3 54 55 63
3 55 56 63
3 56 63 64
3 56 57 64
3 64 65 57
3 57 58 65
3 58 59 65
3 48 59 65
