ply
format ascii 1.0
element vertex 66
property float x
property float y
property float z
property float u
property float v
element face 91
property list uchar int vertex_indices
end_header
-19.9078 -7.23374 21.314 479.359 527.373
-19.2605 -1.65272 20.8773 480.181 554.333
-18.3313 3.88873 20.3627 482.389 581.236
-17.0649 9.35729 18.5226 486.686 608.144
-15.3125 14.5094 13.6227 494.483 634.233
-12.4484 18.907 7.96806 508.154 657.311
-8.52584 22.3163 3.27888 526.958 675.968
-3.90617 24.6455 -0.828591 549.346 689.674
1.26268 25.2623 -4.71223 575.009 695.409
6.42221 23.9351 -0.823121 598.802 690.634
10.606 20.6965 3.33938 618.682 676.287
13.9558 16.6087 7.93286 634.812 657.471
16.5028 12.0008 13.4482 647.03 635.69
18.1713 7.09981 18.1966 655.457 612.263
18.9918 2.14194 20.1963 660.815 588.644
19.1808 -2.82317 20.6377 663.706 564.973
18.9524 -7.8111 20.8492 664.698 541.053
-16.5952 -14.4214 0.017134 505.527 497.868
-14.5598 -16.6582 -1.67272 516.758 488.325
-11.689 -17.7659 -3.01615 531.359 484.464
-8.5856 -17.8065 -4.37226 546.61 485.792
-5.52414 -17.1312 -5.56294 561.296 490.491
2.68645 -17.3456 -5.47744 600.432 492.912
5.19085 -18.3685 -4.1715 612.344 488.88
7.89122 -18.7998 -2.78189 624.904 487.739
10.5955 -18.4963 -1.37245 637.159 490.101
12.85 -17.0783 0.359791 646.682 497.538
-0.410418 -11.9976 -5.01336 583.228 517.042
-0.253265 -9.31812 -7.76852 583.764 530.325
-0.105476 -6.64071 -10.4976 584.248 543.591
0.0401721 -3.97891 -13.1202 584.692 556.764
-2.50277 -0.160368 -5.97704 568.493 572.771
-0.984767 0.0785219 -7.00509 575.967 574.713
0.588004 0.114072 -8.03446 583.789 575.708
1.99034 -0.103952 -6.86592 590.156 575.073
3.27948 -0.547593 -5.99929 596.185 573.362
-12.0539 -10.0202 -1.30806 525.694 520.982
-10.4932 -11.2672 -1.24882 533.639 515.682
-8.40927 -11.6272 -1.09077 543.657 514.818
-6.5439 -10.8921 -0.819788 552.124 519.066
-8.2544 -9.90277 -1.12617 543.662 523.113
-10.205 -9.62425 -1.12101 534.258 523.619
4.49484 -11.4768 -0.61904 604.84 520.893
6.138 -12.3871 -0.987003 613.178 517.301
8.17887 -12.4555 -1.08097 622.952 517.849
9.86552 -11.4525 -1.00647 630.52 523.331
8.17734 -10.7159 -0.86144 622.119 526.111
6.25711 -10.7548 -0.835077 612.989 525.112
-4.53377 9.66286 -2.78375 553.494 618.261
-3.19274 7.71929 -4.98063 561.468 609.905
-1.4086 6.02299 -6.65301 571.264 602.831
0.911509 6.048 -8.21759 582.831 604.176
3.13283 5.71555 -6.34941 592.905 603.228
5.00592 7.10041 -4.72697 600.664 610.364
6.37789 8.93561 -2.60419 605.674 619.358
5.16993 10.3147 -4.01125 599.813 625.651
3.45883 11.221 -5.28895 591.717 629.456
1.3369 11.6251 -6.84064 581.977 630.736
-0.851454 11.4587 -5.46106 571.161 628.802
-2.80957 10.816 -4.0623 561.64 624.69
-0.762914 8.14578 -5.06 572.875 612.974
1.1023 7.86752 -6.94034 582.516 612.731
2.90448 7.93088 -4.75802 590.316 613.445
2.96138 8.63994 -4.36541 590.147 616.789
1.24049 9.05482 -6.09065 582.37 618.317
-0.580565 8.87495 -4.55163 573.253 616.448
3 20 21 23
3 21 22 23
3 0 1 36
3 15 16 45
3 0 17 36
3 16 26 45
3 17 18 37
3 25 26 44
3 17 36 37
3 26 44 45
3 18 19 38
3 24 25 43
3 18 37 38
3 25 43 44
3 19 20 38
3 23 24 43
3 20 21 39
3 22 23 42
3 20 38 39
3 23 42 43
3 21 22 27
3 21 27 39
3 22 27 42
3 27 28 42
3 27 28 39
3 28 42 47
3 28 39 40
3 1 36 41
3 15 45 46
3 1 2 41
3 14 15 46
3 28 29 40
3 28 29 47
3 2 40 41
3 14 46 47
3 2 29 40
3 14 29 47
3 2 3 29
3 13 14 29
3 29 30 31
3 29 30 35
3 3 29 31
3 13 29 35
3 30 32 33
3 30 33 34
3 30 31 32
3 30 34 35
3 3 4 31
3 12 13 35
3 4 5 48
3 11 12 54
3 5 6 48
3 10 11 54
3 6 48 59
3 10 54 55
3 6 7 59
3 9 10 55
3 7 58 59
3 9 55 56
3 8 57 58
3 8 56 57
3 7 8 58
3 8 9 56
3 4 31 48
3 12 35 54
3 31 48 49
3 35 53 54
3 31 49 50
3 35 52 53
3 31 32 50
3 34 35 52
3 32 33 50
3 33 34 52
3 33 50 51
3 33 51 52
3 48 49 60
3 49 60 50
3 50 60 61
3 50 51 61
3 51 52 61
3 61 62 52
3 52 53 62
3 53 54 62
3 54 55 63
3 55 56 63
3 56 63 64
3 56 57 64
3 64 65 57
3 57 58 65
3 58 59 65
3 48 59 65
