ply
format ascii 1.0
element vertex 66
property float x
property float y
property float z
property float u
property float v
element face 91
property list uchar int vertex_indices
end_header
-21.071 -7.0583 21.4737 483.348 531.69
-20.5414 -1.56445 21.1007 483.535 556.136
-19.7412 3.88801 20.5724 484.987 580.516
-18.5214 9.3919 18.3269 488.917 605.336
-16.5587 14.776 13.5296 497.133 629.995
-13.1697 19.1529 7.7921 512.39 650.826
-8.70333 22.244 3.2599 532.452 666.409
-3.71812 24.2035 -0.847327 555.101 677.209
1.52795 24.7892 -4.82099 579.414 682.057
6.65026 23.4025 -0.820679 600.958 677.977
11.1914 20.5249 3.33675 620.509 667.08
15.0624 16.7109 7.83699 637.375 651.769
17.9423 12.0054 13.5 649.814 632.091
19.5287 6.74563 18.1602 657.185 609.456
20.1611 1.62962 20.5102 661.189 587.111
20.1974 -3.36018 20.9646 663.247 565.119
19.8695 -8.36809 21.2052 663.794 542.901
-16.4072 -14.1709 -0.0262465 514.992 502.762
-14.2745 -16.2731 -1.7336 525.882 494.419
-11.3939 -17.4146 -3.08383 539.523 490.612
-8.24308 -17.5571 -4.32086 553.892 491.319
-5.10758 -16.9456 -5.42906 567.832 495.34
2.6126 -17.2541 -5.35863 601.838 497.18
5.25372 -18.2237 -4.15107 613.378 493.974
8.05313 -18.5465 -2.87114 625.318 493.683
10.7889 -18.1371 -1.4598 636.624 496.59
13.102 -16.7848 0.276029 645.558 503.471
-0.416464 -11.1318 -4.97054 585.845 522.904
-0.260626 -8.53483 -7.66043 586.478 534.479
-0.110003 -5.94586 -10.5002 587.149 546.019
0.0365166 -3.39146 -13.3639 587.826 557.406
-2.97371 0.137674 -6.12096 570.375 571.549
-1.27673 0.442234 -7.04115 578.052 573.617
0.461588 0.542967 -8.06247 586.035 574.805
2.04772 0.2339 -6.93076 592.697 574.074
3.55184 -0.288678 -6.07479 599.193 572.375
-11.8103 -8.95397 -1.16279 533.448 527.692
-10.3389 -9.9307 -1.38887 540.402 524.002
-8.49443 -10.261 -1.36064 548.629 523.31
-6.69959 -9.87009 -0.948878 556.192 525.768
-8.29219 -9.07705 -1.08767 548.921 528.607
-10.055 -8.81045 -1.112 541.078 529.052
5.01531 -10.5657 -0.802457 607.873 527.557
6.67183 -11.14 -1.23186 615.551 525.722
8.49235 -11.1649 -1.22079 623.552 526.367
10.0497 -10.3955 -0.921036 629.958 530.398
8.39186 -9.95341 -0.909232 622.489 531.659
6.6473 -10.0002 -0.879463 614.835 530.729
-7.10249 8.78924 -2.75966 547.367 607.898
-5.00354 6.8273 -4.90339 558.218 600.169
-2.3947 5.32925 -6.51166 570.911 594.684
0.673754 5.37153 -7.86555 584.887 596.174
3.63613 4.9179 -6.28959 597.483 595.367
6.31613 6.01725 -4.69817 608.189 601.288
8.48099 7.75749 -2.60653 616.176 609.81
6.35465 9.19767 -3.86741 606.721 615.305
3.75567 9.95303 -5.11524 595.469 617.586
1.04059 10.3117 -6.61051 583.968 618.075
-1.74691 10.2878 -5.24679 571.215 616.783
-4.53923 9.89631 -3.94681 558.618 613.869
-2.2245 7.45112 -5.18174 570.27 604.078
0.854155 7.36501 -7.0773 584.55 605.019
3.83816 7.06308 -4.92808 596.96 604.876
3.90848 7.64521 -4.45642 596.847 607.461
0.941915 8.02137 -6.47782 584.434 607.935
-2.11271 8.0509 -4.62851 570.301 606.756
3 20 21 23
3 21 22 23
3 0 1 36
3 15 16 45
3 0 17 36
3 16 26 45
3 17 18 37
3 25 26 44
3 17 36 37
3 26 44 45
3 18 19 38
3 24 25 43
3 18 37 38
3 25 43 44
3 19 20 38
3 23 24 43
3 20 21 39
3 22 23 42
3 20 38 39
3 23 42 43
3 21 22 27
3 21 27 39
3 22 27 42
3 27 28 42
3 27 28 39
3 28 42 47
3 28 39 40
3 1 36 41
3 15 45 46
3 1 2 41
3 14 15 46
3 28 29 40
3 28 29 47
3 2 40 41
3 14 46 47
3 2 29 40
3 14 29 47
3 2 3 29
3 13 14 29
3 29 30 31
3 29 30 35
3 3 29 31
3 13 29 35
3 30 32 33
3 30 33 34
3 30 31 32
3 30 34 35
3 3 4 31
3 12 13 35
3 4 5 48
3 11 12 54
3 5 6 48
3 10 11 54
3 6 48 59
3 10 54 55
3 6 7 59
3 9 10 55
3 7 58 59
3 9 55 56
3 8 57 58
3 8 56 57
3 7 8 58
3 8 9 56
3 4 31 48
3 12 35 54
3 31 48 49
3 35 53 54
3 31 49 50
3 35 52 53
3 31 32 50
3 34 35 52
3 32 33 50
3 33 34 52
3 33 50 51
3 33 51 52
3 48 49 60
3 49 60 50
3 50 60 61
3 50 51 61
3 51 52 61
3 61 62 52
3 52 53 62
3 53 54 62
3 54 55 63
3 55 56 63
3 56 63 64
3 56 57 64
3 64 65 57
3 57 58 65
3 58 59 65
3 48 59 65
