ply
format ascii 1.0
element vertex 66
property float x
property float y
property float z
property float u
property float v
element face 91
property list uchar int vertex_indices
end_header
-20.462 -6.80468 21.1475 479.998 528.223
-19.8622 -1.47912 20.7573 480.468 553.189
-18.9086 3.78896 20.3171 482.616 578.052
-17.4748 9.00087 18.4066 487.514 602.947
-15.4107 13.9963 13.5064 496.453 627.277
-12.3587 18.3857 7.94231 510.46 649.283
-8.4028 21.9219 3.33518 528.705 667.699
-3.75786 24.4121 -0.822802 550.457 681.559
1.45516 25.1951 -4.69258 575.516 687.752
6.58039 23.9349 -0.898401 598.467 684.053
10.8749 20.9431 3.32743 618.223 671.931
14.3661 17.0126 7.88708 634.582 655.078
17.009 12.436 13.4187 646.983 634.797
18.6273 7.38318 18.379 655.064 611.872
19.4237 2.19364 20.4172 660.416 588.088
19.6521 -2.992 20.9275 663.667 564.141
19.4948 -8.19896 21.1976 665.228 539.932
-16.5716 -14.3718 0.0347653 508.695 496.002
-14.4776 -16.4511 -1.65867 519.903 487.406
-11.6117 -17.4042 -3.02496 534.05 484.363
-8.55278 -17.3783 -4.40228 548.645 485.944
-5.56513 -16.6562 -5.61647 562.536 490.71
2.45241 -17.077 -5.41074 599.701 492.396
5.21442 -18.2687 -4.14384 612.571 488.067
8.17454 -18.7968 -2.77463 626.018 486.897
11.1308 -18.4387 -1.40062 639.04 489.831
13.5675 -16.8619 0.345495 648.977 498.156
-0.772167 -11.6694 -4.95893 582.174 515.96
-0.523503 -8.89634 -7.74766 583.014 529.062
-0.27602 -6.12423 -10.508 583.84 542.157
-0.0256842 -3.37044 -13.1387 584.642 555.162
-2.74523 0.111069 -6.02439 568.038 569.695
-1.22745 0.41266 -7.03648 575.261 571.834
0.35128 0.469932 -8.02986 582.87 572.868
1.8669 0.167092 -6.94159 589.637 572.099
3.25401 -0.390908 -6.08799 596.007 570.101
-12.4799 -9.56803 -1.25926 525.848 520.184
-10.8292 -10.8525 -1.25773 534.062 514.984
-8.6473 -11.215 -1.13562 544.266 514.29
-6.67519 -10.5632 -0.937156 553.012 518.197
-8.47838 -9.58051 -1.16673 544.31 521.941
-10.5177 -9.25226 -1.13139 534.726 522.533
4.56055 -11.3122 -0.639754 605.164 519.821
6.3732 -12.2733 -1.02086 614.109 516.212
8.56977 -12.3163 -1.0972 624.304 517.016
10.43 -11.3544 -0.972371 632.416 522.312
8.56999 -10.6684 -0.853635 623.467 524.639
6.5015 -10.6702 -0.836377 613.905 523.689
-4.53008 9.31068 -2.76577 554.464 611.341
-3.32005 7.26504 -4.91397 561.729 602.522
-1.52528 5.64227 -6.55523 571.328 595.903
0.801282 5.68192 -8.13977 582.604 597.225
3.073 5.28532 -6.38989 592.679 596.332
5.04504 6.57534 -4.7819 600.647 603.124
6.48183 8.40831 -2.63504 605.709 612.161
5.1523 9.84164 -4.01407 599.385 618.267
3.35892 10.7747 -5.32761 591.124 621.841
1.21693 11.2222 -6.82865 581.54 623.016
-0.93685 11.0822 -5.40554 571.163 621.316
-2.87531 10.4664 -4.0059 562.007 617.51
-0.889369 7.80708 -4.9889 572.737 606.143
0.967538 7.58758 -6.94924 582.091 606.069
2.79583 7.51246 -4.90318 589.869 606.449
2.8083 8.09851 -4.49172 589.517 609.149
1.05048 8.54308 -6.13325 581.756 610.493
-0.755672 8.38746 -4.48977 572.917 608.867
3 20 21 23
3 21 22 23
3 0 1 36
3 15 16 45
3 0 17 36
3 16 26 45
3 17 18 37
3 25 26 44
3 17 36 37
3 26 44 45
3 18 19 38
3 24 25 43
3 18 37 38
3 25 43 44
3 19 20 38
3 23 24 43
3 20 21 39
3 22 23 42
3 20 38 39
3 23 42 43
3 21 22 27
3 21 27 39
3 22 27 42
3 27 28 42
3 27 28 39
3 28 42 47
3 28 39 40
3 1 36 41
3 15 45 46
3 1 2 41
3 14 15 46
3 28 29 40
3 28 29 47
3 2 40 41
3 14 46 47
3 2 29 40
3 14 29 47
3 2 3 29
3 13 14 29
3 29 30 31
3 29 30 35
3 3 29 31
3 13 29 35
3 30 32 33
3 30 33 34
3 30 31 32
3 30 34 35
3 3 4 31
3 12 13 35
3 4 5 48
3 11 12 54
3 5 6 48
3 10 11 54
3 6 48 59
3 10 54 55
3 6 7 59
3 9 10 55
3 7 58 59
3 9 55 56
3 8 57 58
3 8 56 57
3 7 8 58
3 8 9 56
3 4 31 48
3 12 35 54
3 31 48 49
3 35 53 54
3 31 49 50
3 35 52 53
3 31 32 50
3 34 35 52
3 32 33 50
3 33 34 52
3 33 50 51
3 33 51 52
3 48 49 60
3 49 60 50
3 50 60 61
3 50 51 61
3 51 52 61
3 61 62 52
3 52 53 62
3 53 54 62
3 54 55 63
3 55 56 63
3 56 63 64
3 56 57 64
3 64 65 57
3 57 58 65
3 58 59 65
3 48 59 65
