ply
format ascii 1.0
element vertex 66
property float x
property float y
property float z
property float u
property float v
element face 91
property list uchar int vertex_indices
end_header
-20.3429 -6.94853 21.2518 480.96 530.971
-19.7451 -1.5274 20.8596 481.617 556.467
-18.8297 3.84524 20.3773 483.801 581.868
-17.5144 9.16121 18.4295 488.366 607.167
-15.5854 14.2271 13.5524 496.887 631.543
-12.5243 18.5827 7.97059 511.202 653.082
-8.47187 21.9785 3.32587 530.201 670.567
-3.74426 24.291 -0.839019 552.622 683.292
1.49881 24.9203 -4.66819 578.022 688.393
6.60112 23.6661 -0.924282 600.964 684.695
10.8783 20.6887 3.33145 620.614 672.631
14.3889 16.825 7.93351 636.954 656.12
17.0315 12.3085 13.4658 649.215 636.211
18.6057 7.32491 18.3251 656.938 613.679
19.3422 2.22394 20.4357 661.758 590.238
19.5415 -2.8839 20.9474 664.632 566.535
19.3756 -8.01396 21.1917 665.91 542.575
-16.6047 -14.3282 0.0264178 508.643 498.071
-14.4278 -16.4108 -1.67285 520.201 489.272
-11.5072 -17.3851 -3.04476 534.64 485.947
-8.39546 -17.3974 -4.39489 549.56 487.182
-5.34622 -16.7119 -5.5939 563.849 491.641
2.33861 -17.0482 -5.41806 599.623 493.28
5.07349 -18.1965 -4.14322 612.368 489.079
8.00933 -18.7053 -2.77735 625.749 487.939
10.9563 -18.4121 -1.38033 638.838 490.54
13.4517 -16.9464 0.347619 649.23 498.414
-0.716751 -11.7327 -5.00957 583.083 516.764
-0.510387 -8.89745 -7.75268 583.8 530.043
-0.304661 -6.07194 -10.5446 584.535 543.276
-0.0934647 -3.26635 -13.246 585.273 556.419
-2.8621 0.22418 -6.09646 568.519 571.551
-1.29511 0.517552 -7.07339 576.01 573.567
0.330003 0.566681 -8.04988 583.871 574.469
1.88063 0.278917 -6.98469 590.829 573.78
3.31319 -0.265338 -6.15132 597.425 571.846
-12.2852 -9.68689 -1.19789 527.196 521.483
-10.6089 -11.0192 -1.26934 535.56 515.977
-8.39395 -11.325 -1.20213 545.953 515.477
-6.42814 -10.4991 -0.911962 554.641 520.144
-8.27208 -9.59871 -1.13018 545.777 523.568
-10.3225 -9.30807 -1.1217 536.129 524.066
4.48417 -11.2231 -0.693999 605.554 521.325
6.25617 -12.3189 -1.08768 614.374 516.959
8.46197 -12.4219 -1.07741 624.659 517.399
10.3308 -11.3932 -0.865317 632.84 522.97
8.48879 -10.6545 -0.840508 623.968 525.642
6.42763 -10.6368 -0.835502 614.385 524.865
-5.4078 9.27784 -2.74638 551.787 612.669
-3.86843 7.25483 -4.9207 560.521 603.88
-1.78786 5.66399 -6.57654 571.412 597.332
0.786268 5.66096 -8.12776 583.9 598.384
3.29735 5.2697 -6.3724 595.126 597.617
5.53551 6.47948 -4.75269 604.466 604.192
7.27237 8.26272 -2.62418 611.065 613.23
5.72165 9.8105 -4.0066 603.691 619.786
3.65459 10.7979 -5.26551 594.109 623.517
1.2473 11.242 -6.71979 583.24 624.575
-1.19891 11.1537 -5.35929 571.45 623.149
-3.46019 10.5289 -4.0133 560.746 619.302
-1.4166 7.80248 -5.06127 571.73 607.452
0.970598 7.53648 -7.03641 583.603 607.201
3.32864 7.42908 -4.94455 593.886 607.693
3.39205 8.20422 -4.49251 593.704 611.331
1.08416 8.64764 -6.22463 583.392 612.427
-1.27957 8.5819 -4.52796 571.86 611.142
3 20 21 23
3 21 22 23
3 0 1 36
3 15 16 45
3 0 17 36
3 16 26 45
3 17 18 37
3 25 26 44
3 17 36 37
3 26 44 45
3 18 19 38
3 24 25 43
3 18 37 38
3 25 43 44
3 19 20 38
3 23 24 43
3 20 21 39
3 22 23 42
3 20 38 39
3 23 42 43
3 21 22 27
3 21 27 39
3 22 27 42
3 27 28 42
3 27 28 39
3 28 42 47
3 28 39 40
3 1 36 41
3 15 45 46
3 1 2 41
3 14 15 46
3 28 29 40
3 28 29 47
3 2 40 41
3 14 46 47
3 2 29 40
3 14 29 47
3 2 3 29
3 13 14 29
3 29 30 31
3 29 30 35
3 3 29 31
3 13 29 35
3 30 32 33
3 30 33 34
3 30 31 32
3 30 34 35
3 3 4 31
3 12 13 35
3 4 5 48
3 11 12 54
3 5 6 48
3 10 11 54
3 6 48 59
3 10 54 55
3 6 7 59
3 9 10 55
3 7 58 59
3 9 55 56
3 8 57 58
3 8 56 57
3 7 8 58
3 8 9 56
3 4 31 48
3 12 35 54
3 31 48 49
3 35 53 54
3 31 49 50
3 35 52 53
3 31 32 50
3 34 35 52
3 32 33 50
3 33 34 52
3 33 50 51
3 33 51 52
3 48 49 60
3 49 60 50
3 50 60 61
3 50 51 61
3 51 52 61
3 61 62 52
3 52 53 62
3 53 54 62
3 54 55 63
3 55 56 63
3 56 63 64
3 56 57 64
3 64 65 57
3 57 58 65
3 58 59 65
3 48 59 65
