ply
format ascii 1.0
element vertex 66
property float x
property float y
property float z
property float u
property float v
element face 91
property list uchar int vertex_indices
end_header
-20.2072 -7.41859 21.3007 480.796 530.141
-19.6994 -1.85311 20.9932 481.242 556.58
-18.8831 3.6639 20.449 483.232 582.93
-17.6119 9.17423 18.3091 487.886 609.605
-15.6945 14.5316 13.5689 496.484 636.108
-12.5303 19.0552 7.89631 511.554 659.244
-8.29647 22.4295 3.22334 531.746 677.228
-3.45325 24.708 -0.798934 554.992 690.19
1.8453 25.3358 -4.80068 580.977 695.537
6.90935 23.914 -0.815261 603.999 690.174
11.2107 20.8448 3.25553 624.013 676.767
14.7229 16.857 7.91915 640.46 658.676
17.2147 12.0798 13.5453 652.085 636.384
18.5936 6.87546 18.174 658.962 611.8
19.1762 1.76256 20.3788 662.855 587.655
19.1899 -3.27204 20.8396 664.616 563.886
18.8433 -8.31507 21.0871 664.756 539.973
-16.1829 -14.3116 0.000661934 509.209 501.698
-14.1014 -16.5323 -1.70808 520.368 492.191
-11.2213 -17.7311 -3.06981 534.791 487.743
-8.06589 -17.8497 -4.34804 550.085 488.473
-4.95293 -17.1782 -5.52209 564.856 492.897
2.37694 -17.4213 -5.42964 599.37 494.375
5.04265 -18.4056 -4.17082 611.85 490.543
7.87972 -18.7059 -2.87023 624.87 489.989
10.6369 -18.1551 -1.47786 637.173 493.406
12.8842 -16.581 0.299407 646.578 501.413
-0.531671 -11.7081 -5.05352 583.478 520.199
-0.363697 -9.18863 -7.6864 584.205 532.448
-0.200293 -6.67328 -10.3995 584.937 544.686
-0.0367171 -4.18973 -13.1767 585.704 556.781
-2.87625 -0.503352 -6.1067 568.691 572.27
-1.27379 -0.295144 -6.94865 576.422 573.929
0.353152 -0.258305 -7.91259 584.372 574.804
1.85829 -0.497672 -6.86151 591.191 574.089
3.29833 -0.915619 -6.04143 597.845 572.538
-11.5316 -9.08515 -1.28223 529.576 528.146
-9.9688 -9.93834 -1.38589 537.269 524.701
-8.09881 -10.2605 -1.3053 546.151 523.845
-6.26904 -10.0249 -0.902331 554.533 525.564
-7.93253 -9.2935 -1.10323 546.511 528.436
-9.73853 -8.99768 -1.13863 537.925 529.185
4.44473 -10.5944 -0.785123 605.065 526.716
6.1793 -11.0085 -1.18892 613.503 525.437
8.03012 -11.0162 -1.23863 622.222 526.072
9.65745 -10.3715 -1.05993 629.577 529.672
7.93516 -10.0076 -0.964028 621.316 530.756
6.13979 -10.0857 -0.931189 612.894 529.739
-6.42733 9.19799 -2.68363 547.319 616.282
-4.91933 6.63579 -4.85436 556.058 605.017
-2.54517 4.61144 -6.44767 568.482 596.526
0.579262 4.44845 -7.89594 583.702 597.057
3.63212 4.18844 -6.26279 597.614 596.73
6.1793 5.84278 -4.69408 608.467 605.249
7.88857 8.25405 -2.60362 614.933 616.969
6.24837 10.1547 -3.91527 606.955 625.493
3.98803 11.4788 -5.24192 596.278 631.079
1.18594 12.0587 -6.77471 583.395 632.99
-1.73968 11.8403 -5.33358 569.251 630.736
-4.27522 10.8217 -3.99743 557.269 624.864
-2.46623 6.96538 -4.96688 567.505 607.464
0.769025 6.47293 -7.06749 583.58 606.562
3.97751 6.53884 -4.7582 597.883 607.745
4.19301 8.90505 -4.37303 597.901 618.923
1.05388 9.66202 -6.37981 583.524 621.604
-2.21768 9.33529 -4.50574 567.653 618.662
3 20 21 23
3 21 22 23
3 0 1 36
3 15 16 45
3 0 17 36
3 16 26 45
3 17 18 37
3 25 26 44
3 17 36 37
3 26 44 45
3 18 19 38
3 24 25 43
3 18 37 38
3 25 43 44
3 19 20 38
3 23 24 43
3 20 21 39
3 22 23 42
3 20 38 39
3 23 42 43
3 21 22 27
3 21 27 39
3 22 27 42
3 27 28 42
3 27 28 39
3 28 42 47
3 28 39 40
3 1 36 41
3 15 45 46
3 1 2 41
3 14 15 46
3 28 29 40
3 28 29 47
3 2 40 41
3 14 46 47
3 2 29 40
3 14 29 47
3 2 3 29
3 13 14 29
3 29 30 31
3 29 30 35
3 3 29 31
3 13 29 35
3 30 32 33
3 30 33 34
3 30 31 32
3 30 34 35
3 3 4 31
3 12 13 35
3 4 5 48
3 11 12 54
3 5 6 48
3 10 11 54
3 6 48 59
3 10 54 55
3 6 7 59
3 9 10 55
3 7 58 59
3 9 55 56
3 8 57 58
3 8 56 57
3 7 8 58
3 8 9 56
3 4 31 48
3 12 35 54
3 31 48 49
3 35 53 54
3 31 49 50
3 35 52 53
3 31 32 50
3 34 35 52
3 32 33 50
3 33 34 52
3 33 50 51
3 33 51 52
3 48 49 60
3 49 60 50
3 50 60 61
3 50 51 61
3 51 52 61
3 61 62 52
3 52 53 62
3 53 54 62
3 54 55 63
3 55 56 63
3 56 63 64
3 56 57 64
3 64 65 57
3 57 58 65
3 58 59 65
3 48 59 65
