ply
format ascii 1.0
element vertex 66
property float x
property float y
property float z
property float u
property float v
element face 91
property list uchar int vertex_indices
end_header
-20.1145 -7.05038 21.2757 480.622 526.963
-19.5625 -1.53143 20.9435 481.098 553.374
-18.7038 3.94062 20.4253 483.104 579.716
-17.4456 9.35081 18.3919 487.531 606.183
-15.5843 14.5046 13.533 495.857 632.156
-12.5299 18.879 7.96134 510.378 655.032
-8.4359 22.2124 3.27258 529.94 673.238
-3.69152 24.464 -0.8541 552.827 686.483
1.55192 25.0404 -4.71922 578.667 691.946
6.67944 23.7229 -0.847743 602.14 687.072
10.9553 20.6539 3.34021 622.194 673.513
14.4354 16.6944 7.99296 638.694 655.343
16.9806 12.0558 13.4982 650.767 633.441
18.4653 7.01337 18.2497 658.244 609.336
19.1367 1.93035 20.394 662.767 585.163
19.2395 -3.14673 20.8577 665.162 561.081
18.9578 -8.23931 21.0571 665.835 536.819
-16.3911 -14.252 -0.00669391 508.269 497.968
-14.234 -16.3736 -1.69972 519.893 489.064
-11.3198 -17.3948 -3.04843 534.532 485.61
-8.1986 -17.422 -4.38152 549.74 486.944
-5.13034 -16.7516 -5.59445 564.374 491.539
2.42023 -16.9993 -5.51533 600.132 493.338
5.08007 -18.0483 -4.20999 612.693 489.199
7.92585 -18.4878 -2.84291 625.863 488.008
10.764 -18.1509 -1.44705 638.672 490.488
13.1524 -16.695 0.27886 648.79 498.032
-0.559357 -11.7667 -5.03774 583.763 516.858
-0.393229 -9.15139 -7.71077 584.379 529.766
-0.231803 -6.5457 -10.4581 585.002 542.639
-0.0693291 -3.96315 -13.1771 585.629 555.399
-2.84769 -0.226527 -6.08207 568.605 570.783
-1.25859 0.0140686 -6.99969 576.324 572.707
0.373499 0.0488589 -7.96688 584.347 573.683
1.8932 -0.194407 -6.89962 591.271 572.949
3.32056 -0.654498 -6.0649 597.925 571.192
-12.0033 -9.70176 -1.21083 527.559 521.458
-10.3461 -10.9194 -1.28316 535.91 516.359
-8.20745 -11.211 -1.2036 546.109 515.81
-6.29534 -10.473 -0.859977 554.731 520.003
-8.09993 -9.60769 -1.09607 545.929 523.427
-10.0987 -9.33019 -1.10409 536.373 523.952
4.47928 -11.0989 -0.725977 605.861 521.276
6.20979 -12.0383 -1.10038 614.547 517.575
8.31985 -12.1256 -1.12172 624.562 518
10.1054 -11.1577 -0.949381 632.549 523.26
8.32383 -10.4762 -0.893592 623.834 525.773
6.33894 -10.4967 -0.886356 614.459 524.89
-5.61868 9.51089 -2.76073 550.438 615.233
-4.26466 7.02855 -4.92828 558.572 604.383
-2.13722 5.05451 -6.54378 569.97 596.152
0.674201 4.94768 -8.05069 583.804 597.015
3.42273 4.66665 -6.32056 596.329 596.475
5.72295 6.29113 -4.7312 606.008 604.806
7.27249 8.62076 -2.63169 611.681 616.093
5.80035 10.3217 -3.97171 604.48 623.795
3.74427 11.4641 -5.26824 594.732 628.614
1.21687 11.9463 -6.78199 583.098 630.157
-1.38914 11.7929 -5.39362 570.38 628.162
-3.68755 10.9597 -4.03486 559.402 623.076
-1.79078 7.44885 -5.01232 570.121 607.366
0.866454 7.00919 -7.00774 583.525 606.676
3.50182 7.09364 -4.80585 595.209 607.741
3.59979 8.69692 -4.40692 594.887 615.305
1.07144 9.24615 -6.28413 583.342 617.227
-1.55669 9.05698 -4.53828 570.415 614.993
3 20 21 23
3 21 22 23
3 0 1 36
3 15 16 45
3 0 17 36
3 16 26 45
3 17 18 37
3 25 26 44
3 17 36 37
3 26 44 45
3 18 19 38
3 24 25 43
3 18 37 38
3 25 43 44
3 19 20 38
3 23 24 43
3 20 21 39
3 22 23 42
3 20 38 39
3 23 42 43
3 21 22 27
3 21 27 39
3 22 27 42
3 27 28 42
3 27 28 39
3 28 42 47
3 28 39 40
3 1 36 41
3 15 45 46
3 1 2 41
3 14 15 46
3 28 29 40
3 28 29 47
3 2 40 41
3 14 46 47
3 2 29 40
3 14 29 47
3 2 3 29
3 13 14 29
3 29 30 31
3 29 30 35
3 3 29 31
3 13 29 35
3 30 32 33
3 30 33 34
3 30 31 32
3 30 34 35
3 3 4 31
3 12 13 35
3 4 5 48
3 11 12 54
3 5 6 48
3 10 11 54
3 6 48 59
3 10 54 55
3 6 7 59
3 9 10 55
3 7 58 59
3 9 55 56
3 8 57 58
3 8 56 57
3 7 8 58
3 8 9 56
3 4 31 48
3 12 35 54
3 31 48 49
3 35 53 54
3 31 49 50
3 35 52 53
3 31 32 50
3 34 35 52
3 32 33 50
3 33 34 52
3 33 50 51
3 33 51 52
3 48 49 60
3 49 60 50
3 50 60 61
3 50 51 61
3 51 52 61
3 61 62 52
3 52 53 62
3 53 54 62
3 54 55 63
3 55 56 63
3 56 63 64
3 56 57 64
3 64 65 57
3 57 58 65
3 58 59 65
3 48 59 65
