ply
format ascii 1.0
element vertex 66
property float x
property float y
property float z
property float u
property float v
element face 91
property list uchar int vertex_indices
end_header
-20.551 -7.13614 21.3503 479.803 529.198
-19.9392 -1.5847 20.9146 480.839 555.322
-19.0175 3.9248 20.44 483.341 581.362
-17.6878 9.36053 18.4685 488.263 607.465
-15.759 14.4907 13.5445 497.058 632.879
-12.6519 18.8086 7.91891 511.845 655.038
-8.51379 22.0801 3.30675 531.451 672.495
-3.7346 24.2558 -0.822317 554.259 684.983
1.50937 24.8173 -4.70255 579.711 690.071
6.64318 23.5277 -0.814243 602.715 685.114
10.95 20.5192 3.37368 622.383 671.823
14.465 16.6153 7.9203 638.569 654.032
17.1129 12.0729 13.442 650.626 632.8
18.7541 7.13243 18.2547 658.384 609.5
19.5285 2.12716 20.342 663.046 586.093
19.6963 -2.87861 20.7499 665.448 562.779
19.4693 -7.89576 21.0282 666.065 539.301
-16.7061 -14.3153 -0.00633782 507.294 500.917
-14.5602 -16.4838 -1.68239 518.581 491.853
-11.6432 -17.565 -3.03016 532.959 488.052
-8.5018 -17.6146 -4.36569 548.012 489.127
-5.40938 -16.9293 -5.54835 562.529 493.578
2.62593 -17.1667 -5.42851 599.895 495.178
5.2723 -18.1896 -4.15952 612.124 491.088
8.10305 -18.5803 -2.80932 624.96 489.988
10.9101 -18.1813 -1.42611 637.398 492.55
13.2511 -16.6833 0.319144 647.164 500.004
-0.53067 -11.7824 -4.97816 583.191 519.086
-0.351373 -8.95963 -7.76028 583.957 532.783
-0.179216 -6.1402 -10.5411 584.692 546.462
-0.00539234 -3.33811 -13.2069 585.402 560.04
-2.74472 0.0959369 -6.07656 569.097 573.816
-1.16851 0.39619 -7.05146 576.638 575.923
0.46725 0.461843 -8.02971 584.538 576.959
1.96843 0.191544 -6.92028 591.237 576.011
3.34692 -0.328531 -6.06493 597.537 573.905
-12.3185 -9.66419 -1.28152 526.463 524.282
-10.6653 -10.7649 -1.27275 534.526 519.719
-8.58988 -11.1232 -1.12882 544.244 518.729
-6.65794 -10.5785 -0.871989 552.941 521.874
-8.44325 -9.74638 -1.12697 544.441 525.187
-10.4103 -9.45719 -1.1373 535.206 525.867
4.63509 -11.1827 -0.701772 605.551 522.864
6.4005 -11.9185 -1.02571 614.117 520.097
8.44687 -11.9476 -1.10724 623.659 520.67
10.2069 -11.0948 -0.985989 631.495 525.214
8.40835 -10.568 -0.893683 622.925 527.039
6.45977 -10.6151 -0.871388 613.883 526.155
-5.01407 9.32566 -2.78505 554.217 615.413
-3.60567 7.30021 -4.95341 562.193 606.852
-1.65968 5.66077 -6.59462 572.354 600.177
0.802398 5.68025 -8.14527 584.299 601.381
3.18146 5.32161 -6.32364 594.869 600.192
5.24782 6.62236 -4.7294 603.479 606.662
6.77017 8.49931 -2.63762 609.194 615.539
5.35448 9.8553 -3.92948 602.572 621.601
3.47042 10.7048 -5.21848 593.951 625.147
1.25911 11.0886 -6.76846 584.061 626.461
-1.0245 10.9839 -5.37742 573.028 624.949
-3.13059 10.4224 -4.01562 562.99 621.377
-1.10919 7.80255 -5.0882 573.657 610.062
0.997921 7.55642 -7.00084 584.167 609.974
3.06302 7.52688 -4.83708 593.049 610.15
3.11412 8.17022 -4.39844 592.914 613.082
1.12831 8.56266 -6.18307 584.147 614.555
-0.931533 8.45234 -4.55721 574.077 613.051
3 20 21 23
3 21 22 23
3 0 1 36
3 15 16 45
3 0 17 36
3 16 26 45
3 17 18 37
3 25 26 44
3 17 36 37
3 26 44 45
3 18 19 38
3 24 25 43
3 18 37 38
3 25 43 44
3 19 20 38
3 23 24 43
3 20 21 39
3 22 23 42
3 20 38 39
3 23 42 43
3 21 22 27
3 21 27 39
3 22 27 42
3 27 28 42
3 27 28 39
3 28 42 47
3 28 39 40
3 1 36 41
3 15 45 46
3 1 2 41
3 14 15 46
3 28 29 40
3 28 29 47
3 2 40 41
3 14 46 47
3 2 29 40
3 14 29 47
3 2 3 29
3 13 14 29
3 29 30 31
3 29 30 35
3 3 29 31
3 13 29 35
3 30 32 33
3 30 33 34
3 30 31 32
3 30 34 35
3 3 4 31
3 12 13 35
3 4 5 48
3 11 12 54
3 5 6 48
3 10 11 54
3 6 48 59
3 10 54 55
3 6 7 59
3 9 10 55
3 7 58 59
3 9 55 56
3 8 57 58
3 8 56 57
3 7 8 58
3 8 9 56
3 4 31 48
3 12 35 54
3 31 48 49
3 35 53 54
3 31 49 50
3 35 52 53
3 31 32 50
3 34 35 52
3 32 33 50
3 33 34 52
3 33 50 51
3 33 51 52
3 48 49 60
3 49 60 50
3 50 60 61
3 50 51 61
3 51 52 61
3 61 62 52
3 52 53 62
3 53 54 62
3 54 55 63
3 55 56 63
3 56 63 64
3 56 57 64
3 64 65 57
3 57 58 65
3 58 59 65
3 48 59 65
