ply
format ascii 1.0
element vertex 66
property float x
property float y
property float z
property float u
property float v
element face 91
property list uchar int vertex_indices
end_header
-20.8979 -7.05124 21.5447 479.966 529.685
-20.2597 -1.4773 21.1649 480.824 555.298
-19.3632 4.05243 20.6025 482.94 580.831
-18.1204 9.58588 18.4445 487.254 606.715
-16.2362 14.8963 13.5319 495.646 632.179
-12.978 19.2195 7.827 510.957 653.784
-8.62957 22.3033 3.27706 531.231 670.028
-3.72603 24.2517 -0.895457 554.312 681.278
1.49311 24.75 -4.81378 579.289 686.029
6.63256 23.3733 -0.799536 601.506 681.228
11.065 20.3829 3.41178 621.075 668.802
14.76 16.4719 7.90842 637.553 651.876
17.5114 11.7928 13.4909 649.633 630.963
19.1122 6.6864 18.2118 657.011 607.78
19.8123 1.6787 20.4493 661.255 585.015
19.9307 -3.24722 20.8748 663.55 562.629
19.6678 -8.19345 21.1003 664.206 540.031
-16.9399 -14.2273 0.000949988 509.2 501.324
-14.6254 -16.4317 -1.68607 521.205 492.407
-11.5152 -17.4922 -3.03487 536.231 488.946
-8.18024 -17.4689 -4.32341 551.826 490.488
-4.89659 -16.6793 -5.46921 566.833 495.473
2.61944 -16.9015 -5.45766 600.936 497.33
5.31106 -17.9798 -4.20549 613.047 493.3
8.19228 -18.4303 -2.87 625.737 492.183
11.0547 -18.1091 -1.44563 638.006 494.555
13.4671 -16.6844 0.308697 647.675 501.725
-0.319043 -11.3043 -4.99475 585.263 521.576
-0.181496 -8.6295 -7.71507 585.914 534.124
-0.0536695 -5.96235 -10.542 586.566 546.647
0.0684761 -3.32261 -13.3482 587.195 559.04
-2.85881 0.0718793 -6.10945 569.757 572.427
-1.18865 0.410786 -7.06415 577.561 574.725
0.538707 0.512811 -8.08714 585.744 575.977
2.07684 0.22615 -6.94007 592.366 575.116
3.507 -0.306982 -6.04739 598.695 573.127
-12.1463 -9.33802 -1.17593 529.45 525.512
-10.5664 -10.3918 -1.32759 537.073 521.347
-8.58837 -10.7211 -1.25953 546.129 520.597
-6.72291 -10.1695 -0.890403 554.211 523.768
-8.43254 -9.37466 -1.07125 546.233 526.75
-10.3095 -9.12259 -1.09222 537.647 527.181
4.94348 -10.7697 -0.793564 607.215 525.481
6.6355 -11.4598 -1.15974 615.288 523.038
8.5661 -11.5038 -1.18681 624.055 523.578
10.2055 -10.6416 -0.957006 631.047 528.092
8.48912 -10.1395 -0.916118 623.066 529.712
6.6553 -10.1942 -0.895264 614.778 528.761
-6.47176 8.98092 -2.80102 548.611 611.101
-4.5828 6.97809 -4.95275 558.795 602.996
-2.18297 5.40506 -6.56366 570.909 596.969
0.699008 5.43619 -7.98272 584.503 598.39
3.47068 5.0385 -6.30108 596.54 597.428
5.92867 6.24709 -4.71266 606.565 603.655
7.8389 8.09747 -2.62783 613.664 612.526
5.9619 9.45831 -3.86123 605.123 618.148
3.61742 10.189 -5.12507 594.724 620.733
1.09119 10.5258 -6.65487 583.762 621.492
-1.52847 10.4735 -5.2982 571.389 620.083
-4.10039 10.0523 -3.99118 559.396 617.023
-1.83739 7.51768 -5.23343 571.121 606.53
0.888116 7.36657 -7.08606 584.249 607.118
3.52636 7.20959 -4.9043 595.391 607.135
3.58579 7.8067 -4.4106 595.231 609.808
1.00166 8.14153 -6.41048 584.193 610.596
-1.68066 8.13479 -4.65746 571.362 609.32
3 20 21 23
3 21 22 23
3 0 1 36
3 15 16 45
3 0 17 36
3 16 26 45
3 17 18 37
3 25 26 44
3 17 36 37
3 26 44 45
3 18 19 38
3 24 25 43
3 18 37 38
3 25 43 44
3 19 20 38
3 23 24 43
3 20 21 39
3 22 23 42
3 20 38 39
3 23 42 43
3 21 22 27
3 21 27 39
3 22 27 42
3 27 28 42
3 27 28 39
3 28 42 47
3 28 39 40
3 1 36 41
3 15 45 46
3 1 2 41
3 14 15 46
3 28 29 40
3 28 29 47
3 2 40 41
3 14 46 47
3 2 29 40
3 14 29 47
3 2 3 29
3 13 14 29
3 29 30 31
3 29 30 35
3 3 29 31
3 13 29 35
3 30 32 33
3 30 33 34
3 30 31 32
3 30 34 35
3 3 4 31
3 12 13 35
3 4 5 48
3 11 12 54
3 5 6 48
3 10 11 54
3 6 48 59
3 10 54 55
3 6 7 59
3 9 10 55
3 7 58 59
3 9 55 56
3 8 57 58
3 8 56 57
3 7 8 58
3 8 9 56
3 4 31 48
3 12 35 54
3 31 48 49
3 35 53 54
3 31 49 50
3 35 52 53
3 31 32 50
3 34 35 52
3 32 33 50
3 33 34 52
3 33 50 51
3 33 51 52
3 48 49 60
3 49 60 50
3 50 60 61
3 50 51 61
3 51 52 61
3 61 62 52
3 52 53 62
3 53 54 62
3 54 55 63
3 55 56 63
3 56 63 64
3 56 57 64
3 64 65 57
3 57 58 65
3 58 59 65
3 48 59 65
