ply
format ascii 1.0
element vertex 66
property float x
property float y
property float z
property float u
property float v
element face 91
property list uchar int vertex_indices
end_header
-20.3402 -6.94986 21.1988 479.72 527.302
-19.7569 -1.55285 20.8124 480.3 552.712
-18.8329 3.79273 20.371 482.502 578.03
-17.4594 9.05986 18.4592 487.324 603.356
-15.478 14.0649 13.5498 496.095 628.097
-12.4533 18.4234 7.9671 510.21 650.344
-8.46735 21.8846 3.3431 528.838 668.685
-3.78845 24.2881 -0.807349 550.966 682.326
1.44828 24.986 -4.69163 576.308 688.223
6.5997 23.7785 -0.886516 599.441 684.226
10.9153 20.8244 3.33132 619.285 671.704
14.4158 16.9356 7.90627 635.613 654.45
17.0292 12.3964 13.4499 647.766 633.681
18.6025 7.3945 18.3789 655.492 610.41
19.3561 2.23959 20.4263 660.454 586.462
19.5459 -2.934 20.9152 663.336 562.395
19.3524 -8.12502 21.1736 664.523 538.121
-16.695 -14.3236 0.0412953 506.915 497.2
-14.6054 -16.4794 -1.65948 518.097 488.241
-11.7148 -17.4767 -3.02757 532.401 484.962
-8.62546 -17.4618 -4.40284 547.207 486.475
-5.607 -16.7466 -5.62026 561.336 491.2
2.4754 -17.105 -5.42931 598.95 492.822
5.21845 -18.2796 -4.14496 611.742 488.315
8.16451 -18.8016 -2.77086 625.173 486.918
11.1144 -18.4482 -1.3891 638.253 489.595
13.5478 -16.8589 0.355239 648.295 497.766
-0.7238 -11.7692 -4.9898 581.712 516.29
-0.488519 -9.02034 -7.76131 582.594 529.538
-0.255415 -6.27446 -10.5133 583.461 542.769
-0.019037 -3.54538 -13.1486 584.311 555.908
-2.73035 0.0823243 -6.03092 567.787 570.765
-1.20132 0.357877 -7.0426 575.114 572.805
0.384863 0.395249 -8.03898 582.802 573.758
1.89833 0.119734 -6.94038 589.572 572.955
3.28868 -0.40698 -6.07943 595.956 570.963
-12.4366 -9.60556 -1.26119 525.155 521.075
-10.768 -10.9204 -1.26132 533.453 515.64
-8.55769 -11.2646 -1.14251 543.82 514.929
-6.57793 -10.5358 -0.919727 552.632 519.105
-8.40253 -9.54761 -1.17081 543.831 522.988
-10.4647 -9.23137 -1.13879 534.113 523.61
4.49881 -11.2417 -0.642982 604.265 520.328
6.30297 -12.2588 -1.0253 613.198 516.383
8.51647 -12.3234 -1.09355 623.526 517
10.3857 -11.323 -0.964001 631.743 522.406
8.52943 -10.5841 -0.862633 622.78 525.071
6.44784 -10.5828 -0.84996 613.109 524.221
-4.60426 9.39266 -2.77362 554.082 612.912
-3.3317 7.35571 -4.93075 561.576 604.231
-1.51839 5.71098 -6.58647 571.246 597.532
0.818331 5.73802 -8.16686 582.621 598.82
3.0954 5.36336 -6.39817 592.751 597.783
5.07581 6.67968 -4.78096 600.846 604.514
6.55136 8.51514 -2.64853 606.205 613.389
5.2174 9.94427 -4.02372 599.88 619.67
3.40378 10.8616 -5.34699 591.524 623.366
1.23977 11.2809 -6.84499 581.809 624.623
-0.944734 11.1603 -5.43606 571.238 622.984
-2.9156 10.5511 -4.01992 561.861 619.158
-0.920978 7.90671 -5.01365 572.567 607.795
0.989836 7.65542 -6.95502 582.203 607.66
2.87219 7.61709 -4.8996 590.262 607.989
2.89253 8.17843 -4.48961 589.982 610.557
1.07939 8.57942 -6.14726 581.958 611.893
-0.784005 8.46422 -4.50909 572.798 610.382
3 20 21 23
3 21 22 23
3 0 1 36
3 15 16 45
3 0 17 36
3 16 26 45
3 17 18 37
3 25 26 44
3 17 36 37
3 26 44 45
3 18 19 38
3 24 25 43
3 18 37 38
3 25 43 44
3 19 20 38
3 23 24 43
3 20 21 39
3 22 23 42
3 20 38 39
3 23 42 43
3 21 22 27
3 21 27 39
3 22 27 42
3 27 28 42
3 27 28 39
3 28 42 47
3 28 39 40
3 1 36 41
3 15 45 46
3 1 2 41
3 14 15 46
3 28 29 40
3 28 29 47
3 2 40 41
3 14 46 47
3 2 29 40
3 14 29 47
3 2 3 29
3 13 14 29
3 29 30 31
3 29 30 35
3 3 29 31
3 13 29 35
3 30 32 33
3 30 33 34
3 30 31 32
3 30 34 35
3 3 4 31
3 12 13 35
3 4 5 48
3 11 12 54
3 5 6 48
3 10 11 54
3 6 48 59
3 10 54 55
3 6 7 59
3 9 10 55
3 7 58 59
3 9 55 56
3 8 57 58
3 8 56 57
3 7 8 58
3 8 9 56
3 4 31 48
3 12 35 54
3 31 48 49
3 35 53 54
3 31 49 50
3 35 52 53
3 31 32 50
3 34 35 52
3 32 33 50
3 33 34 52
3 33 50 51
3 33 51 52
3 48 49 60
3 49 60 50
3 50 60 61
3 50 51 61
3 51 52 61
3 61 62 52
3 52 53 62
3 53 54 62
3 54 55 63
3 55 56 63
3 56 63 64
3 56 57 64
3 64 65 57
3 57 58 65
3 58 59 65
3 48 59 65
