ply
format ascii 1.0
element vertex 66
property float x
property float y
property float z
property float u
property float v
element face 91
property list uchar int vertex_indices
end_header
-21.0296 -7.37731 21.6104 480.965 529.151
-20.4049 -1.75248 21.2312 481.665 554.625
-19.522 3.83165 20.6706 483.598 580.032
-18.298 9.43409 18.4944 487.621 605.782
-16.437 14.8278 13.5777 495.545 631.064
-13.1472 19.1944 7.8454 510.547 652.368
-8.73107 22.2691 3.31972 530.661 668.227
-3.76714 24.1824 -0.845322 553.553 679.068
1.48588 24.6849 -4.82344 578.228 683.687
6.63134 23.3352 -0.825821 600.324 679.332
11.1199 20.4109 3.38162 620.034 667.648
14.888 16.5552 7.84915 636.803 651.491
17.711 11.9028 13.4609 649.259 631.303
19.34 6.79498 18.1804 656.879 608.68
20.0305 1.80708 20.4692 661.124 586.422
20.1254 -3.08519 20.9078 663.327 564.506
19.837 -7.9989 21.1269 663.905 542.362
-17.1245 -14.043 -0.010376 508.72 502.532
-14.832 -16.3359 -1.72047 520.473 493.291
-11.7045 -17.4898 -3.07526 535.379 489.45
-8.32119 -17.5106 -4.34284 550.948 490.779
-4.97813 -16.7421 -5.46261 565.972 495.616
2.58246 -16.9449 -5.40461 599.8 497.655
5.25696 -18.0204 -4.16391 611.73 493.783
8.12323 -18.4634 -2.85284 624.241 492.813
10.9699 -18.1561 -1.42568 636.327 495.187
13.3867 -16.7702 0.344699 645.944 502.199
-0.272662 -11.2877 -5.00738 584.669 521.854
-0.127281 -8.62749 -7.74134 585.237 534.046
0.00880726 -5.97325 -10.5718 585.8 546.216
0.138919 -3.34699 -13.3859 586.341 558.256
-2.83911 0.140121 -6.13977 569.088 572.14
-1.13417 0.464508 -7.0814 576.909 574.334
0.622077 0.558906 -8.10559 585.079 575.524
2.17566 0.274345 -6.95074 591.721 574.764
3.62765 -0.254329 -6.0853 598.107 572.893
-12.1104 -9.0717 -1.18819 529.566 526.856
-10.5323 -10.0767 -1.37671 537.079 522.984
-8.58184 -10.4199 -1.32206 545.906 522.204
-6.69657 -9.95177 -0.942614 554.007 525.007
-8.40266 -9.1794 -1.10476 546.139 527.814
-10.2644 -8.91849 -1.12133 537.726 528.258
4.85597 -10.5394 -0.789831 605.782 526.873
6.56719 -11.1613 -1.19409 613.814 524.788
8.47089 -11.2171 -1.21105 622.345 525.282
10.1127 -10.4165 -0.931503 629.262 529.488
8.38799 -9.94559 -0.908034 621.364 530.922
6.56599 -9.99859 -0.876947 613.236 529.971
-6.80587 8.81506 -2.77304 546.745 609.188
-4.76865 6.83923 -4.94116 557.395 601.304
-2.23898 5.30337 -6.56162 569.876 595.539
0.752829 5.33425 -7.95768 583.722 596.957
3.61672 4.92038 -6.29101 596.085 596.089
6.18347 6.06944 -4.70477 606.531 602.113
8.21637 7.88322 -2.61722 614.152 610.866
6.23598 9.27913 -3.85496 605.194 616.445
3.76435 10.0068 -5.11938 594.316 618.841
1.13829 10.3323 -6.64305 583 619.395
-1.58314 10.2975 -5.27345 570.372 618.068
-4.28764 9.89424 -3.94675 557.982 615.099
-1.99471 7.43455 -5.259 569.661 605.079
0.949781 7.30778 -7.0801 583.509 605.806
3.78549 7.096 -4.92133 595.492 605.793
3.86609 7.63606 -4.43607 595.466 608.205
1.0602 7.96227 -6.43755 583.515 608.73
-1.84905 7.99663 -4.66251 569.878 607.607
3 20 21 23
3 21 22 23
3 0 1 36
3 15 16 45
3 0 17 36
3 16 26 45
3 17 18 37
3 25 26 44
3 17 36 37
3 26 44 45
3 18 19 38
3 24 25 43
3 18 37 38
3 25 43 44
3 19 20 38
3 23 24 43
3 20 21 39
3 22 23 42
3 20 38 39
3 23 42 43
3 21 22 27
3 21 27 39
3 22 27 42
3 27 28 42
3 27 28 39
3 28 42 47
3 28 39 40
3 1 36 41
3 15 45 46
3 1 2 41
3 14 15 46
3 28 29 40
3 28 29 47
3 2 40 41
3 14 46 47
3 2 29 40
3 14 29 47
3 2 3 29
3 13 14 29
3 29 30 31
3 29 30 35
3 3 29 31
3 13 29 35
3 30 32 33
3 30 33 34
3 30 31 32
3 30 34 35
3 3 4 31
3 12 13 35
3 4 5 48
3 11 12 54
3 5 6 48
3 10 11 54
3 6 48 59
3 10 54 55
3 6 7 59
3 9 10 55
3 7 58 59
3 9 55 56
3 8 57 58
3 8 56 57
3 7 8 58
3 8 9 56
3 4 31 48
3 12 35 54
3 31 48 49
3 35 53 54
3 31 49 50
3 35 52 53
3 31 32 50
3 34 35 52
3 32 33 50
3 33 34 52
3 33 50 51
3 33 51 52
3 48 49 60
3 49 60 50
3 50 60 61
3 50 51 61
3 51 52 61
3 61 62 52
3 52 53 62
3 53 54 62
3 54 55 63
3 55 56 63
3 56 63 64
3 56 57 64
3 64 65 57
3 57 58 65
3 58 59 65
3 48 59 65
