ply
format ascii 1.0
element vertex 66
property float x
property float y
property float z
property float u
property float v
element face 91
property list uchar int vertex_indices
end_header
-20.0367 -6.89168 21.3044 491.074 528.032
-19.3921 -1.48475 20.9447 491.63 553.631
-18.4398 3.86746 20.4309 493.691 579.136
-17.136 9.17125 18.4315 497.854 604.738
-15.2702 14.2449 13.5919 505.586 629.834
-12.2985 18.6143 7.97944 519.036 652.24
-8.34443 22.0433 3.29216 537.238 670.612
-3.7173 24.4126 -0.863783 558.923 684.289
1.44575 25.078 -4.71166 583.822 690.224
6.53966 23.8044 -0.888751 607.047 686.24
10.7721 20.7389 3.3304 626.985 673.44
14.1833 16.7582 7.9691 643.402 655.936
16.7146 12.1518 13.5188 655.743 634.999
18.222 7.14455 18.3094 663.724 611.794
18.9419 2.08046 20.4277 668.849 588.243
19.1518 -2.97486 20.9242 672.071 564.67
18.9801 -8.05412 21.1433 673.608 540.838
-16.6767 -14.4956 0.0637952 516.619 496.368
-14.5309 -16.5745 -1.62417 528.107 487.84
-11.6249 -17.5307 -3.01066 542.52 484.88
-8.53099 -17.5138 -4.37694 557.343 486.551
-5.49923 -16.8133 -5.59032 571.508 491.37
2.5968 -17.1204 -5.49456 609.377 493.706
5.26553 -18.2153 -4.19442 621.954 489.697
8.12571 -18.7007 -2.80832 635.111 488.615
10.9916 -18.4046 -1.38261 647.913 491.183
13.3935 -16.95 0.358396 657.911 498.912
-0.596304 -11.7672 -4.98907 591.806 517.169
-0.389836 -9.04064 -7.73607 592.292 530.299
-0.189421 -6.32268 -10.5264 592.766 543.392
0.010883 -3.62618 -13.2499 593.23 556.376
-2.7788 0.0417506 -6.09415 576.371 571.437
-1.18958 0.301196 -7.07516 583.949 573.497
0.445643 0.342911 -8.06466 591.847 574.562
1.96635 0.0800359 -6.9885 598.744 573.928
3.38628 -0.413968 -6.12902 605.345 572.191
-12.4382 -9.69649 -1.1308 534.467 520.897
-10.7436 -11.0546 -1.22867 543.04 515.354
-8.49401 -11.3613 -1.21021 553.67 514.97
-6.51375 -10.5054 -0.948664 562.421 519.865
-8.37622 -9.55612 -1.13656 553.343 523.45
-10.4606 -9.26491 -1.08865 543.472 523.832
4.5203 -11.1501 -0.752746 614.12 521.984
6.29884 -12.2442 -1.12077 623.04 517.743
8.52639 -12.3473 -1.08943 633.467 518.298
10.39 -11.2719 -0.876963 641.585 524.169
8.54702 -10.4993 -0.864074 632.622 526.917
6.46702 -10.504 -0.882065 622.931 525.925
-5.5041 9.35395 -2.74871 558.27 613.308
-3.98783 7.20578 -4.92314 566.999 604.215
-1.87609 5.50094 -6.57648 578.141 597.415
0.779413 5.48218 -8.14425 590.997 598.736
3.36028 5.13044 -6.37656 602.675 598.107
5.6128 6.48257 -4.75075 612.058 605.301
7.28609 8.43965 -2.6135 618.303 614.995
5.77758 10.0953 -4.01124 610.899 622.176
3.70203 11.1676 -5.28129 601.09 626.353
1.23948 11.6335 -6.76489 589.825 627.54
-1.27865 11.4843 -5.38592 577.746 625.518
-3.56115 10.7327 -4.0405 567.06 620.796
-1.56744 7.73487 -5.06441 578.077 607.832
0.957946 7.44454 -7.07739 590.586 607.872
3.43675 7.39345 -4.89386 601.523 608.555
3.51997 8.45118 -4.46244 601.283 613.489
1.0988 8.94221 -6.2309 590.284 614.843
-1.40606 8.79896 -4.54503 578.173 612.823
3 20 21 23
3 21 22 23
3 0 1 36
3 15 16 45
3 0 17 36
3 16 26 45
3 17 18 37
3 25 26 44
3 17 36 37
3 26 44 45
3 18 19 38
3 24 25 43
3 18 37 38
3 25 43 44
3 19 20 38
3 23 24 43
3 20 21 39
3 22 23 42
3 20 38 39
3 23 42 43
3 21 22 27
3 21 27 39
3 22 27 42
3 27 28 42
3 27 28 39
3 28 42 47
3 28 39 40
3 1 36 41
3 15 45 46
3 1 2 41
3 14 15 46
3 28 29 40
3 28 29 47
3 2 40 41
3 14 46 47
3 2 29 40
3 14 29 47
3 2 3 29
3 13 14 29
3 29 30 31
3 29 30 35
3 3 29 31
3 13 29 35
3 30 32 33
3 30 33 34
3 30 31 32
3 30 34 35
3 3 4 31
3 12 13 35
3 4 5 48
3 11 12 54
3 5 6 48
3 10 11 54
3 6 48 59
3 10 54 55
3 6 7 59
3 9 10 55
3 7 58 59
3 9 55 56
3 8 57 58
3 8 56 57
3 7 8 58
3 8 9 56
3 4 31 48
3 12 35 54
3 31 48 49
3 35 53 54
3 31 49 50
3 35 52 53
3 31 32 50
3 34 35 52
3 32 33 50
3 33 34 52
3 33 50 51
3 33 51 52
3 48 49 60
3 49 60 50
3 50 60 61
3 50 51 61
3 51 52 61
3 61 62 52
3 52 53 62
3 53 54 62
3 54 55 63
3 55 56 63
3 56 63 64
3 56 57 64
3 64 65 57
3 57 58 65
3 58 59 65
3 48 59 65
