ply
format ascii 1.0
element vertex 66
property float x
property float y
property float z
property float u
property float v
element face 91
property list uchar int vertex_indices
end_header
-20.394 -6.74689 21.37 490.426 528.603
-19.7467 -1.37149 20.9873 491.064 553.722
-18.8009 3.95523 20.5165 493.123 578.759
-17.5024 9.22605 18.4672 497.272 603.861
-15.5989 14.2436 13.5754 505.117 628.361
-12.5222 18.4966 7.97232 518.909 649.937
-8.4516 21.7532 3.3479 537.458 667.265
-3.7518 23.9524 -0.837906 559.261 679.954
1.41265 24.5382 -4.69098 583.846 685.378
6.51745 23.3604 -0.867688 606.814 681.849
10.8553 20.4781 3.38157 626.908 670.07
14.4174 16.6685 7.9635 643.761 653.632
17.0638 12.1634 13.5154 656.444 633.474
18.5947 7.19022 18.3613 664.402 610.729
19.3028 2.13406 20.5297 669.359 587.508
19.5098 -2.92216 20.9912 672.486 564.237
19.3486 -7.99752 21.2389 673.987 540.735
-16.983 -14.2331 0.0728589 515.492 497.818
-14.8251 -16.3966 -1.64735 526.892 488.99
-11.8785 -17.428 -3.03294 541.314 485.704
-8.72366 -17.4622 -4.3791 556.229 487.105
-5.62201 -16.8002 -5.56194 570.537 491.676
2.68839 -17.1217 -5.4623 608.912 493.923
5.44263 -18.2025 -4.19081 621.728 490.047
8.38195 -18.6562 -2.82311 635.084 489.136
11.3126 -18.2986 -1.39874 648.014 491.957
13.7557 -16.767 0.364999 658.07 499.937
-0.601514 -11.6978 -4.98035 591.162 517.404
-0.382644 -8.85373 -7.75927 591.65 530.905
-0.169403 -6.01962 -10.5897 592.132 544.362
0.0437804 -3.2046 -13.3164 592.594 557.721
-2.81255 0.271089 -6.12593 575.851 571.72
-1.20316 0.548825 -7.12252 583.412 573.828
0.455111 0.596961 -8.11972 591.303 574.9
2.00412 0.322979 -7.03456 598.255 574.221
3.4489 -0.193665 -6.15501 604.896 572.398
-12.5332 -9.59359 -1.11917 534.196 521.338
-10.8302 -10.9617 -1.23723 542.692 515.808
-8.57873 -11.2691 -1.21703 553.191 515.402
-6.58122 -10.4035 -0.947216 561.917 520.264
-8.45579 -9.48655 -1.13017 552.921 523.668
-10.5405 -9.19657 -1.09875 543.183 524.064
4.62659 -11.0688 -0.746591 613.759 522.22
6.42389 -12.181 -1.12169 622.645 517.938
8.65688 -12.2803 -1.09334 632.961 518.483
10.534 -11.1991 -0.863362 641.046 524.289
8.66859 -10.4581 -0.872201 632.123 526.868
6.58526 -10.4573 -0.874113 622.533 525.934
-5.72776 9.25881 -2.78249 557.402 611.508
-4.03516 7.26956 -4.9486 566.706 603.321
-1.85188 5.70496 -6.59731 577.93 597.259
0.790457 5.73702 -8.14912 590.513 598.756
3.35297 5.33915 -6.40206 602.003 597.894
5.6593 6.54678 -4.77923 611.616 604.333
7.49117 8.31891 -2.64786 618.646 613.109
5.80469 9.79147 -3.98569 610.585 619.279
3.61779 10.6588 -5.25301 600.477 622.425
1.18157 11.0362 -6.72402 589.501 623.221
-1.29457 10.9691 -5.35525 577.75 621.656
-3.64981 10.4336 -4.01021 566.776 617.988
-1.53438 7.86616 -5.15436 578.004 607.219
0.960935 7.65923 -7.10789 590.131 607.589
3.40224 7.53026 -4.99177 600.837 607.875
3.43787 8.07337 -4.50324 600.617 610.345
1.04579 8.42302 -6.2691 589.94 611.063
-1.40739 8.41322 -4.57761 578.178 609.739
3 20 21 23
3 21 22 23
3 0 1 36
3 15 16 45
3 0 17 36
3 16 26 45
3 17 18 37
3 25 26 44
3 17 36 37
3 26 44 45
3 18 19 38
3 24 25 43
3 18 37 38
3 25 43 44
3 19 20 38
3 23 24 43
3 20 21 39
3 22 23 42
3 20 38 39
3 23 42 43
3 21 22 27
3 21 27 39
3 22 27 42
3 27 28 42
3 27 28 39
3 28 42 47
3 28 39 40
3 1 36 41
3 15 45 46
3 1 2 41
3 14 15 46
3 28 29 40
3 28 29 47
3 2 40 41
3 14 46 47
3 2 29 40
3 14 29 47
3 2 3 29
3 13 14 29
3 29 30 31
3 29 30 35
3 3 29 31
3 13 29 35
3 30 32 33
3 30 33 34
3 30 31 32
3 30 34 35
3 3 4 31
3 12 13 35
3 4 5 48
3 11 12 54
3 5 6 48
3 10 11 54
3 6 48 59
3 10 54 55
3 6 7 59
3 9 10 55
3 7 58 59
3 9 55 56
3 8 57 58
3 8 56 57
3 7 8 58
3 8 9 56
3 4 31 48
3 12 35 54
3 31 48 49
3 35 53 54
3 31 49 50
3 35 52 53
3 31 32 50
3 34 35 52
3 32 33 50
3 33 34 52
3 33 50 51
3 33 51 52
3 48 49 60
3 49 60 50
3 50 60 61
3 50 51 61
3 51 52 61
3 61 62 52
3 52 53 62
3 53 54 62
3 54 55 63
3 55 56 63
3 56 63 64
3 56 57 64
3 64 65 57
3 57 58 65
3 58 59 65
3 48 59 65
