ply
format ascii 1.0
element vertex 66
property float x
property float y
property float z
property float u
property float v
element face 91
property list uchar int vertex_indices
end_header
-20.9163 -7.2296 21.5763 479.813 530.269
-20.2831 -1.64313 21.1927 480.71 555.902
-19.3922 3.90171 20.6551 482.85 581.453
-18.1694 9.44186 18.4793 487.141 607.216
-16.31 14.7575 13.574 495.475 632.382
-13.0501 19.0914 7.86429 510.836 653.668
-8.67194 22.1739 3.31201 531.272 669.613
-3.72907 24.1076 -0.867959 554.553 680.528
1.52863 24.5879 -4.79287 579.708 684.944
6.66211 23.2791 -0.844218 601.869 680.66
11.1271 20.3873 3.3886 621.494 668.918
14.8631 16.5672 7.88937 638.066 652.668
17.6354 11.9557 13.4899 650.145 632.39
19.206 6.87896 18.2396 657.299 609.605
19.8693 1.86961 20.5169 661.301 586.953
19.9819 -3.07385 20.9522 663.513 564.516
19.733 -8.03732 21.1887 664.177 541.867
-17.1386 -14.0189 -0.0121472 508.01 502.302
-14.8226 -16.2711 -1.70071 520.01 493.056
-11.6922 -17.3567 -3.0641 535.123 489.391
-8.33419 -17.3449 -4.36325 550.824 490.79
-5.02808 -16.5688 -5.51168 565.941 495.631
2.60901 -16.8189 -5.44236 600.56 497.354
5.33629 -17.9146 -4.19053 612.819 493.317
8.25581 -18.3807 -2.85583 625.677 492.205
11.1636 -18.0633 -1.43135 638.149 494.641
13.6162 -16.6081 0.329758 647.997 502.051
-0.36955 -11.2387 -5.01917 584.8 521.55
-0.215095 -8.56359 -7.75108 585.564 533.94
-0.0688335 -5.89658 -10.5791 586.331 546.296
0.0736418 -3.25474 -13.3697 587.076 558.534
-2.87054 0.121845 -6.10816 569.606 572.277
-1.19619 0.455827 -7.08606 577.441 574.487
0.533455 0.549606 -8.12261 585.64 575.63
2.08546 0.256771 -6.97032 592.317 574.805
3.53004 -0.28781 -6.0721 598.704 572.813
-12.3172 -9.24678 -1.16883 528.47 525.858
-10.7228 -10.3244 -1.3287 536.156 521.573
-8.72408 -10.6597 -1.28162 545.306 520.797
-6.83707 -10.0987 -0.945308 553.498 524.029
-8.56474 -9.30928 -1.103 545.444 526.977
-10.4589 -9.04933 -1.11066 536.779 527.448
4.95882 -10.7318 -0.801102 607.047 525.567
6.6701 -11.4603 -1.1681 615.211 522.925
8.62924 -11.5158 -1.17012 624.096 523.407
10.3084 -10.654 -0.911753 631.264 527.933
8.56732 -10.144 -0.898801 623.188 529.595
6.70504 -10.1836 -0.882344 614.772 528.716
-6.59598 8.88682 -2.80082 548.12 610.462
-4.62601 6.91092 -4.94492 558.629 602.371
-2.16993 5.38085 -6.56659 570.962 596.452
0.737645 5.40636 -7.99679 584.672 597.754
3.53095 4.99386 -6.31762 596.802 596.816
6.05169 6.13404 -4.72686 607.145 602.832
8.0641 7.92528 -2.65006 614.75 611.581
6.13862 9.33461 -3.87474 605.988 617.342
3.72297 10.0806 -5.14594 595.278 619.909
1.14168 10.4157 -6.6524 584.068 620.564
-1.5287 10.3898 -5.29081 571.459 619.354
-4.16676 9.97935 -3.97034 559.158 616.412
-1.88417 7.48813 -5.25206 570.936 606.041
0.931978 7.34153 -7.10056 584.463 606.555
3.65902 7.14268 -4.96167 596.031 606.531
3.73091 7.6886 -4.44699 595.945 609.003
1.04048 8.0155 -6.38097 584.414 609.608
-1.74004 8.05103 -4.64278 571.134 608.61
3 20 21 23
3 21 22 23
3 0 1 36
3 15 16 45
3 0 17 36
3 16 26 45
3 17 18 37
3 25 26 44
3 17 36 37
3 26 44 45
3 18 19 38
3 24 25 43
3 18 37 38
3 25 43 44
3 19 20 38
3 23 24 43
3 20 21 39
3 22 23 42
3 20 38 39
3 23 42 43
3 21 22 27
3 21 27 39
3 22 27 42
3 27 28 42
3 27 28 39
3 28 42 47
3 28 39 40
3 1 36 41
3 15 45 46
3 1 2 41
3 14 15 46
3 28 29 40
3 28 29 47
3 2 40 41
3 14 46 47
3 2 29 40
3 14 29 47
3 2 3 29
3 13 14 29
3 29 30 31
3 29 30 35
3 3 29 31
3 13 29 35
3 30 32 33
3 30 33 34
3 30 31 32
3 30 34 35
3 3 4 31
3 12 13 35
3 4 5 48
3 11 12 54
3 5 6 48
3 10 11 54
3 6 48 59
3 10 54 55
3 6 7 59
3 9 10 55
3 7 58 59
3 9 55 56
3 8 57 58
3 8 56 57
3 7 8 58
3 8 9 56
3 4 31 48
3 12 35 54
3 31 48 49
3 35 53 54
3 31 49 50
3 35 52 53
3 31 32 50
3 34 35 52
3 32 33 50
3 33 34 52
3 33 50 51
3 33 51 52
3 48 49 60
3 49 60 50
3 50 60 61
3 50 51 61
3 51 52 61
3 61 62 52
3 52 53 62
3 53 54 62
3 54 55 63
3 55 56 63
3 56 63 64
3 56 57 64
3 64 65 57
3 57 58 65
3 58 59 65
3 48 59 65
