ply
format ascii 1.0
element vertex 66
property float x
property float y
property float z
property float u
property float v
element face 91
property list uchar int vertex_indices
end_header
-20.4503 -6.9348 21.2493 480.507 528.781
-19.8875 -1.46416 20.8345 481.089 554.603
-19.0019 3.96365 20.3781 483.205 580.357
-17.6851 9.29168 18.4064 487.865 606.147
-15.746 14.306 13.5315 496.502 631.353
-12.6619 18.5623 7.93712 511.008 653.622
-8.55946 21.8161 3.29349 530.342 671.394
-3.80864 24.0156 -0.834778 552.945 684.384
1.43818 24.5879 -4.66846 578.408 689.908
6.60666 23.3903 -0.851637 601.696 685.456
10.9638 20.4877 3.33647 621.763 672.66
14.5405 16.6866 7.92491 638.421 655.285
17.1983 12.2014 13.4513 650.764 634.161
18.7831 7.25227 18.276 658.527 610.618
19.5133 2.16083 20.3738 663.262 586.687
19.657 -2.96486 20.8233 665.821 562.737
19.4133 -8.10187 21.0935 666.64 538.626
-16.506 -14.4684 0.00710788 508.847 499.853
-14.3483 -16.5321 -1.64705 520.258 491.42
-11.4708 -17.5024 -2.99969 534.486 488.295
-8.40851 -17.5051 -4.35314 549.191 489.753
-5.412 -16.8163 -5.57326 563.271 494.382
2.48809 -17.1195 -5.42489 600.128 495.958
5.13812 -18.2111 -4.13037 612.476 491.595
7.98493 -18.6822 -2.76683 625.471 490.185
10.841 -18.3673 -1.38717 638.191 492.441
13.2655 -16.9208 0.30851 648.349 499.741
-0.626155 -11.6779 -5.0035 583.325 520.052
-0.423695 -8.93191 -7.73798 584.074 533.542
-0.225761 -6.19373 -10.5077 584.817 547.001
-0.0258638 -3.4726 -13.1873 585.546 560.361
-2.74757 0.156991 -6.07635 569.094 574.675
-1.19853 0.437472 -7.04324 576.513 576.789
0.408589 0.484196 -7.99875 584.291 577.834
1.91824 0.217799 -6.92114 591.073 576.931
3.30839 -0.296088 -6.08455 597.475 574.881
-12.3243 -9.72172 -1.23617 526.839 523.866
-10.6664 -10.9436 -1.24334 535.047 518.804
-8.52281 -11.2572 -1.13185 545.116 518.137
-6.60666 -10.5322 -0.883481 553.669 522.196
-8.40491 -9.63367 -1.14789 545.025 525.757
-10.4128 -9.35503 -1.13658 535.561 526.286
4.62694 -11.2083 -0.665837 606.173 523.293
6.36262 -12.17 -1.01888 614.754 519.55
8.49028 -12.2488 -1.07457 624.71 520.009
10.3043 -11.307 -0.94566 632.74 525.067
8.51405 -10.6057 -0.880692 624.104 527.638
6.50785 -10.604 -0.867473 614.757 526.876
-4.89602 9.49585 -2.80356 554.302 616.684
-3.55011 7.40292 -4.95025 562.106 607.913
-1.65258 5.69922 -6.59512 572.159 601.057
0.785075 5.68188 -8.17059 584.034 602.257
3.15984 5.35281 -6.36392 594.629 601.232
5.21129 6.72585 -4.75704 603.108 608.065
6.72725 8.6409 -2.65727 608.715 617.112
5.31747 10.0177 -3.98583 602.04 623.288
3.44252 10.8976 -5.26254 593.379 626.956
1.22063 11.2864 -6.75608 583.369 628.25
-1.04168 11.1896 -5.39541 572.427 626.632
-3.09836 10.6102 -4.0338 562.633 622.842
-1.12527 7.86408 -5.04634 573.245 611.013
0.960903 7.55291 -7.00498 583.726 610.793
3.02114 7.57286 -4.86134 592.607 611.2
3.0555 8.35299 -4.43956 592.318 614.758
1.0807 8.74263 -6.17516 583.538 616.204
-0.954481 8.64533 -4.53631 573.562 614.609
3 20 21 23
3 21 22 23
3 0 1 36
3 15 16 45
3 0 17 36
3 16 26 45
3 17 18 37
3 25 26 44
3 17 36 37
3 26 44 45
3 18 19 38
3 24 25 43
3 18 37 38
3 25 43 44
3 19 20 38
3 23 24 43
3 20 21 39
3 22 23 42
3 20 38 39
3 23 42 43
3 21 22 27
3 21 27 39
3 22 27 42
3 27 28 42
3 27 28 39
3 28 42 47
3 28 39 40
3 1 36 41
3 15 45 46
3 1 2 41
3 14 15 46
3 28 29 40
3 28 29 47
3 2 40 41
3 14 46 47
3 2 29 40
3 14 29 47
3 2 3 29
3 13 14 29
3 29 30 31
3 29 30 35
3 3 29 31
3 13 29 35
3 30 32 33
3 30 33 34
3 30 31 32
3 30 34 35
3 3 4 31
3 12 13 35
3 4 5 48
3 11 12 54
3 5 6 48
3 10 11 54
3 6 48 59
3 10 54 55
3 6 7 59
3 9 10 55
3 7 58 59
3 9 55 56
3 8 57 58
3 8 56 57
3 7 8 58
3 8 9 56
3 4 31 48
3 12 35 54
3 31 48 49
3 35 53 54
3 31 49 50
3 35 52 53
3 31 32 50
3 34 35 52
3 32 33 50
3 33 34 52
3 33 50 51
3 33 51 52
3 48 49 60
3 49 60 50
3 50 60 61
3 50 51 61
3 51 52 61
3 61 62 52
3 52 53 62
3 53 54 62
3 54 55 63
3 55 56 63
3 56 63 64
3 56 57 64
3 64 65 57
3 57 58 65
3 58 59 65
3 48 59 65
