ply
format ascii 1.0
element vertex 66
property float x
property float y
property float z
property float u
property float v
element face 91
property list uchar int vertex_indices
end_header
-20.5199 -6.96202 21.262 481.402 526.754
-19.901 -1.52707 20.8288 482.181 552.107
-18.9538 3.86034 20.3758 484.498 577.373
-17.5621 9.18006 18.4897 489.325 602.535
-15.5764 14.2254 13.507 497.941 626.73
-12.5435 18.5911 7.93138 511.838 648.221
-8.55844 22.0466 3.33074 530.194 665.879
-3.89015 24.4368 -0.821463 551.994 678.885
1.32034 25.1589 -4.73419 576.895 684.405
6.50732 23.8968 -0.850031 600.124 680.605
10.8319 20.8509 3.36146 620.004 668.214
14.3401 16.8737 7.89014 636.404 651.185
17.0218 12.2862 13.3887 648.948 630.986
18.7103 7.2749 18.3569 657.25 608.438
19.5413 2.13909 20.3763 662.548 585.024
19.7566 -2.9987 20.8451 665.481 561.38
19.5671 -8.15432 21.1105 666.618 537.494
-16.8283 -14.1365 0.0391077 507.768 495.528
-14.7357 -16.3596 -1.68876 518.835 486.144
-11.8157 -17.4195 -3.03509 533.127 482.459
-8.67391 -17.4159 -4.39078 548.012 483.775
-5.59437 -16.684 -5.57377 562.263 488.424
2.5653 -17.0151 -5.4242 599.944 490.199
5.30441 -18.1778 -4.16465 612.653 485.916
8.24564 -18.6763 -2.80235 625.992 484.78
11.1766 -18.2841 -1.42451 638.917 487.753
13.5799 -16.6693 0.357054 648.793 496.148
-0.62233 -11.6802 -4.96315 582.955 513.53
-0.399047 -8.88049 -7.79574 583.709 526.601
-0.181302 -6.07753 -10.5521 584.413 539.684
0.0368793 -3.28779 -13.1338 585.071 552.702
-2.6759 0.0930778 -6.04269 569.047 567.078
-1.13421 0.413692 -7.04654 576.325 569.202
0.474451 0.481066 -8.03173 584.008 570.184
1.97363 0.187978 -6.92977 590.699 569.417
3.33649 -0.373357 -6.09512 596.952 567.361
-12.3888 -9.56923 -1.29835 526.775 518.44
-10.7412 -10.7583 -1.27712 534.842 513.617
-8.61738 -11.1365 -1.12625 544.734 512.728
-6.65785 -10.5619 -0.909298 553.463 516.171
-8.44594 -9.63279 -1.15691 544.924 519.741
-10.4474 -9.32176 -1.14255 535.572 520.366
4.55813 -11.2381 -0.642625 605.33 517.588
6.34862 -12.0742 -1.02445 614.034 514.461
8.4662 -12.1061 -1.12491 623.833 515.173
10.2783 -11.2153 -1.01488 631.787 520.018
8.44866 -10.6062 -0.874834 623.068 522.087
6.44149 -10.6269 -0.837331 613.818 521.177
-4.5913 9.12607 -2.76341 555.563 607.946
-3.33767 7.08984 -4.93725 562.825 599.094
-1.5071 5.48261 -6.57855 572.409 592.446
0.839761 5.52151 -8.15822 583.685 593.606
3.11636 5.14561 -6.35351 593.778 592.759
5.08319 6.42539 -4.75073 601.834 599.434
6.48986 8.28969 -2.59873 606.904 608.571
5.21279 9.77745 -3.95789 600.83 614.949
3.43459 10.7614 -5.29078 592.644 618.796
1.2588 11.2022 -6.86956 582.921 619.98
-0.946137 11.0416 -5.41498 572.385 618.318
-2.91124 10.3559 -3.97719 563.173 614.328
-0.845399 7.6405 -5.03591 574.114 602.648
1.01518 7.42316 -6.93185 583.35 602.434
2.83103 7.38213 -4.85928 591.103 602.941
2.87767 8.08336 -4.426 590.901 606.19
1.12162 8.53384 -6.11338 583.141 607.59
-0.703857 8.34823 -4.50345 574.317 605.963
3 20 21 23
3 21 22 23
3 0 1 36
3 15 16 45
3 0 17 36
3 16 26 45
3 17 18 37
3 25 26 44
3 17 36 37
3 26 44 45
3 18 19 38
3 24 25 43
3 18 37 38
3 25 43 44
3 19 20 38
3 23 24 43
3 20 21 39
3 22 23 42
3 20 38 39
3 23 42 43
3 21 22 27
3 21 27 39
3 22 27 42
3 27 28 42
3 27 28 39
3 28 42 47
3 28 39 40
3 1 36 41
3 15 45 46
3 1 2 41
3 14 15 46
3 28 29 40
3 28 29 47
3 2 40 41
3 14 46 47
3 2 29 40
3 14 29 47
3 2 3 29
3 13 14 29
3 29 30 31
3 29 30 35
3 3 29 31
3 13 29 35
3 30 32 33
3 30 33 34
3 30 31 32
3 30 34 35
3 3 4 31
3 12 13 35
3 4 5 48
3 11 12 54
3 5 6 48
3 10 11 54
3 6 48 59
3 10 54 55
3 6 7 59
3 9 10 55
3 7 58 59
3 9 55 56
3 8 57 58
3 8 56 57
3 7 8 58
3 8 9 56
3 4 31 48
3 12 35 54
3 31 48 49
3 35 53 54
3 31 49 50
3 35 52 53
3 31 32 50
3 34 35 52
3 32 33 50
3 33 34 52
3 33 50 51
3 33 51 52
3 48 49 60
3 49 60 50
3 50 60 61
3 50 51 61
3 51 52 61
3 61 62 52
3 52 53 62
3 53 54 62
3 54 55 63
3 55 56 63
3 56 63 64
3 56 57 64
3 64 65 57
3 57 58 65
3 58 59 65
3 48 59 65
