ply
format ascii 1.0
element vertex 66
property float x
property float y
property float z
property float u
property float v
element face 91
property list uchar int vertex_indices
end_header
-20.6415 -7.06488 21.3948 480.668 530.519
-20.049 -1.54974 20.9928 481.456 556.055
-19.1665 3.92429 20.4994 483.615 581.521
-17.8968 9.35333 18.4366 488.098 607.117
-15.9909 14.5271 13.5736 496.542 632.127
-12.8235 18.8434 7.90543 511.347 653.769
-8.59836 22.0509 3.3013 531.035 670.583
-3.7603 24.1592 -0.83599 553.774 682.526
1.49362 24.7073 -4.72749 578.913 687.441
6.64691 23.4459 -0.837715 601.604 683.053
11.0593 20.531 3.3522 621.423 670.782
14.7097 16.6959 7.9075 637.978 653.97
17.4156 12.1226 13.4952 650.139 633.303
18.976 7.0779 18.269 657.519 610.16
19.6572 1.99996 20.4389 661.784 586.87
19.774 -3.05433 20.8865 664.051 563.698
19.52 -8.12312 21.1533 664.69 540.347
-16.7011 -14.1849 -0.00189702 508.654 502.013
-14.5321 -16.3311 -1.68393 519.943 493.181
-11.6006 -17.3975 -3.04665 534.205 489.535
-8.44712 -17.4513 -4.36515 549.088 490.604
-5.3397 -16.7838 -5.53655 563.441 494.942
2.6729 -17.1086 -5.42228 600.142 496.361
5.33074 -18.1375 -4.16453 612.242 492.459
8.1684 -18.5439 -2.82424 624.904 491.464
10.9861 -18.1789 -1.4181 637.164 493.988
13.359 -16.7299 0.320222 646.873 501.275
-0.512165 -11.5956 -4.99822 583.383 520.407
-0.324051 -8.85898 -7.73886 584.16 533.358
-0.141911 -6.1297 -10.5422 584.933 546.281
0.0383491 -3.42185 -13.2854 585.685 559.097
-2.83701 0.144824 -6.11122 568.759 573.492
-1.20978 0.451353 -7.07056 576.409 575.61
0.473372 0.523358 -8.05483 584.412 576.677
2.01889 0.238158 -6.95641 591.206 575.797
3.45382 -0.293302 -6.09703 597.668 573.777
-12.2066 -9.43931 -1.20279 527.835 525.547
-10.6042 -10.5607 -1.29799 535.609 521.005
-8.56937 -10.8943 -1.22942 545.01 520.21
-6.67835 -10.3118 -0.930898 553.332 523.531
-8.41465 -9.47171 -1.12655 545.151 526.772
-10.3377 -9.1934 -1.12691 536.258 527.345
4.74456 -10.973 -0.736698 605.717 524.643
6.46782 -11.7673 -1.11121 614.017 521.679
8.48069 -11.8236 -1.1377 623.246 522.158
10.2053 -10.9505 -0.941495 630.735 526.763
8.4489 -10.3778 -0.896948 622.479 528.741
6.53771 -10.4031 -0.873568 613.746 527.925
-5.9176 9.08295 -2.76996 550.202 612.904
-4.17723 7.1198 -4.91598 559.623 604.812
-1.94427 5.57031 -6.56533 570.97 598.734
0.754902 5.58708 -8.06808 583.814 599.983
3.36186 5.19981 -6.34308 595.282 598.943
5.6933 6.38499 -4.72363 604.941 605.021
7.52956 8.15442 -2.62298 611.954 613.535
5.82292 9.60732 -3.92469 604.057 619.733
3.62357 10.4661 -5.20901 594.125 623.027
1.15894 10.8446 -6.70184 583.231 624.049
-1.36869 10.7742 -5.33523 571.238 622.633
-3.76858 10.2392 -3.98804 560.009 619.138
-1.60866 7.66452 -5.1409 571.235 608.273
0.932583 7.46072 -7.06743 583.584 608.507
3.40754 7.33472 -4.91207 594.205 608.563
3.48048 8.02947 -4.43981 594.117 611.713
1.04283 8.41817 -6.29022 583.465 612.837
-1.47446 8.37083 -4.57699 571.392 611.488
3 20 21 23
3 21 22 23
3 0 1 36
3 15 16 45
3 0 17 36
3 16 26 45
3 17 18 37
3 25 26 44
3 17 36 37
3 26 44 45
3 18 19 38
3 24 25 43
3 18 37 38
3 25 43 44
3 19 20 38
3 23 24 43
3 20 21 39
3 22 23 42
3 20 38 39
3 23 42 43
3 21 22 27
3 21 27 39
3 22 27 42
3 27 28 42
3 27 28 39
3 28 42 47
3 28 39 40
3 1 36 41
3 15 45 46
3 1 2 41
3 14 15 46
3 28 29 40
3 28 29 47
3 2 40 41
3 14 46 47
3 2 29 40
3 14 29 47
3 2 3 29
3 13 14 29
3 29 30 31
3 29 30 35
3 3 29 31
3 13 29 35
3 30 32 33
3 30 33 34
3 30 31 32
3 30 34 35
3 3 4 31
3 12 13 35
3 4 5 48
3 11 12 54
3 5 6 48
3 10 11 54
3 6 48 59
3 10 54 55
3 6 7 59
3 9 10 55
3 7 58 59
3 9 55 56
3 8 57 58
3 8 56 57
3 7 8 58
3 8 9 56
3 4 31 48
3 12 35 54
3 31 48 49
3 35 53 54
3 31 49 50
3 35 52 53
3 31 32 50
3 34 35 52
3 32 33 50
3 33 34 52
3 33 50 51
3 33 51 52
3 48 49 60
3 49 60 50
3 50 60 61
3 50 51 61
3 51 52 61
3 61 62 52
3 52 53 62
3 53 54 62
3 54 55 63
3 55 56 63
3 56 63 64
3 56 57 64
3 64 65 57
3 57 58 65
3 58 59 65
3 48 59 65
