ply
format ascii 1.0
element vertex 66
property float x
property float y
property float z
property float u
property float v
element face 91
property list uchar int vertex_indices
end_header
-20.3739 -6.80054 21.1828 481.174 526.94
-19.7991 -1.42337 20.7673 481.864 552.195
-18.88 3.90336 20.3335 484.176 577.351
-17.4873 9.14637 18.4116 489.169 602.433
-15.4627 14.123 13.5107 498.103 626.788
-12.425 18.4644 7.94239 512.187 648.641
-8.46815 21.9481 3.29674 530.591 666.779
-3.82177 24.3977 -0.836342 552.442 680.33
1.39735 25.1405 -4.72186 577.543 686.145
6.57956 23.9048 -0.86215 600.896 682.056
10.9049 20.8956 3.32914 620.867 669.361
14.4002 16.9416 7.9241 637.234 651.919
17.0215 12.3515 13.4533 649.511 631.098
18.6151 7.30333 18.3749 657.385 607.805
19.3842 2.09958 20.4106 662.371 583.73
19.5699 -3.1231 20.8825 665.131 559.481
19.3609 -8.3584 21.167 666.123 535.038
-16.5034 -14.299 0.0322726 508.48 495.471
-14.4379 -16.38 -1.65802 519.389 486.746
-11.6178 -17.3568 -3.01672 533.266 483.415
-8.60233 -17.3602 -4.38813 547.673 484.686
-5.65278 -16.6758 -5.60494 561.458 489.115
2.5349 -17.0272 -5.45538 599.534 490.629
5.2603 -18.1606 -4.17495 612.232 486.298
8.1784 -18.6406 -2.80179 625.54 485.07
11.0877 -18.2475 -1.42465 638.465 487.897
13.4907 -16.6675 0.307612 648.47 496.014
-0.721969 -11.71 -4.95173 582.192 514.045
-0.484436 -8.96879 -7.75042 583.072 527.129
-0.251064 -6.22805 -10.5044 583.918 540.207
-0.0156905 -3.50238 -13.1192 584.738 553.202
-2.79071 0.0381395 -6.05407 568.335 567.957
-1.23455 0.348853 -7.03607 575.731 570.09
0.384404 0.407603 -7.9945 583.509 571.074
1.92773 0.108853 -6.93235 590.464 570.186
3.34168 -0.453106 -6.0972 596.99 568.044
-12.4229 -9.58314 -1.24958 525.955 519.083
-10.7494 -10.7563 -1.24152 534.175 514.274
-8.61234 -11.1134 -1.12707 544.194 513.429
-6.65046 -10.5602 -0.948758 553.025 516.742
-8.45706 -9.65124 -1.16614 544.354 520.29
-10.4745 -9.33378 -1.13243 534.861 520.984
4.61021 -11.2669 -0.694161 605.464 517.781
6.42639 -12.0995 -1.02845 614.316 514.642
8.5683 -12.1245 -1.0974 624.284 515.358
10.4144 -11.2593 -0.987102 632.476 520.083
8.56029 -10.6638 -0.88331 623.61 522.126
6.52543 -10.6788 -0.871048 614.172 521.27
-4.69393 9.15765 -2.75718 554.939 609.32
-3.47537 7.02409 -4.89857 562.076 600.064
-1.61769 5.37119 -6.54175 571.839 593.245
0.776723 5.37905 -8.14293 583.43 594.349
3.1203 5.02543 -6.35141 593.897 593.449
5.14732 6.35545 -4.7374 602.291 600.27
6.58318 8.29483 -2.60914 607.548 609.649
5.30966 9.9398 -3.9873 601.415 616.928
3.4907 11.0594 -5.31976 592.943 621.55
1.22287 11.5441 -6.87482 582.704 623.067
-1.06919 11.3644 -5.42725 571.702 621.217
-3.06226 10.5489 -4.00395 562.343 616.529
-1.07586 7.60918 -4.97664 573.003 603.717
0.943154 7.3457 -6.9668 583.076 603.45
2.93688 7.31658 -4.85363 591.696 603.895
2.99893 8.26947 -4.44257 591.486 608.312
1.06207 8.78358 -6.14056 582.815 610.106
-0.939909 8.56196 -4.48288 573.111 608.155
3 20 21 23
3 21 22 23
3 0 1 36
3 15 16 45
3 0 17 36
3 16 26 45
3 17 18 37
3 25 26 44
3 17 36 37
3 26 44 45
3 18 19 38
3 24 25 43
3 18 37 38
3 25 43 44
3 19 20 38
3 23 24 43
3 20 21 39
3 22 23 42
3 20 38 39
3 23 42 43
3 21 22 27
3 21 27 39
3 22 27 42
3 27 28 42
3 27 28 39
3 28 42 47
3 28 39 40
3 1 36 41
3 15 45 46
3 1 2 41
3 14 15 46
3 28 29 40
3 28 29 47
3 2 40 41
3 14 46 47
3 2 29 40
3 14 29 47
3 2 3 29
3 13 14 29
3 29 30 31
3 29 30 35
3 3 29 31
3 13 29 35
3 30 32 33
3 30 33 34
3 30 31 32
3 30 34 35
3 3 4 31
3 12 13 35
3 4 5 48
3 11 12 54
3 5 6 48
3 10 11 54
3 6 48 59
3 10 54 55
3 6 7 59
3 9 10 55
3 7 58 59
3 9 55 56
3 8 57 58
3 8 56 57
3 7 8 58
3 8 9 56
3 4 31 48
3 12 35 54
3 31 48 49
3 35 53 54
3 31 49 50
3 35 52 53
3 31 32 50
3 34 35 52
3 32 33 50
3 33 34 52
3 33 50 51
3 33 51 52
3 48 49 60
3 49 60 50
3 50 60 61
3 50 51 61
3 51 52 61
3 61 62 52
3 52 53 62
3 53 54 62
3 54 55 63
3 55 56 63
3 56 63 64
3 56 57 64
3 64 65 57
3 57 58 65
3 58 59 65
3 48 59 65
