ply
format ascii 1.0
element vertex 66
property float x
property float y
property float z
property float u
property float v
element face 91
property list uchar int vertex_indices
end_header
-20.1231 -7.00377 21.4267 478.611 527.631
-19.4441 -1.42276 21.0091 479.743 554.443
-18.5124 4.1187 20.4543 482.134 581.194
-17.307 9.60354 18.5021 486.329 608.074
-15.5822 14.7783 13.6234 494.123 634.297
-12.6154 19.1029 7.94129 508.413 657.133
-8.55959 22.3582 3.27197 527.932 675.106
-3.84601 24.5097 -0.88825 550.826 687.991
1.33693 25.0205 -4.73501 576.488 693.211
6.50778 23.7057 -0.814999 600.121 688.142
10.7858 20.5589 3.38571 620.161 673.985
14.243 16.5312 7.97858 636.533 655.253
16.8126 11.9038 13.5263 648.611 633.137
18.3686 6.94318 18.228 656.32 609.228
19.088 1.9611 20.2925 660.994 585.448
19.256 -3.01353 20.739 663.618 561.83
19.0335 -8.01058 20.9641 664.481 538.002
-16.6415 -14.4462 0.0122754 505.499 498.163
-14.448 -16.6294 -1.6687 517.335 489.006
-11.4785 -17.6981 -3.01712 532.283 485.362
-8.29544 -17.7446 -4.3427 547.827 486.643
-5.15688 -17.0637 -5.51589 562.816 491.323
2.6467 -17.2986 -5.48639 599.83 493.203
5.20805 -18.2917 -4.20157 611.901 489.209
7.95877 -18.6899 -2.83058 624.601 488.091
10.7093 -18.3918 -1.40353 637.003 490.262
13.0494 -17.0179 0.326854 646.927 497.314
-0.363144 -11.9487 -4.98177 583.276 517.308
-0.206919 -9.14117 -7.72548 583.849 531.256
-0.0613408 -6.34478 -10.5373 584.4 545.16
0.0783375 -3.567 -13.2827 584.907 558.961
-2.57618 0.132897 -6.07201 568.362 573.975
-1.02333 0.401764 -7.06307 575.948 576.054
0.586347 0.457194 -8.06846 583.893 577.146
2.01059 0.228979 -6.93165 590.329 576.373
3.32799 -0.228824 -6.04818 596.439 574.523
-12.0815 -9.97614 -1.15755 525.703 521.357
-10.4959 -11.2662 -1.2483 533.753 515.868
-8.38577 -11.5808 -1.19728 543.847 515.177
-6.51668 -10.7182 -0.874332 552.236 519.918
-8.26195 -9.80199 -1.09841 543.689 523.638
-10.2227 -9.55234 -1.08072 534.304 524.065
4.61452 -11.3016 -0.729915 605.097 521.399
6.25288 -12.3198 -1.09725 613.384 517.278
8.31145 -12.4189 -1.10097 623.167 517.599
10.0064 -11.3474 -0.915683 630.696 523.293
8.3077 -10.6087 -0.873851 622.348 526.134
6.38839 -10.6342 -0.874195 613.275 525.276
-5.6263 9.37925 -2.7836 549.096 615.958
-3.85631 7.56456 -4.9703 558.956 608.491
-1.73436 6.04057 -6.63926 570.187 602.43
0.816457 6.08064 -8.1505 582.768 603.917
3.25823 5.71696 -6.36166 593.846 602.756
5.42965 6.90745 -4.72219 603.078 608.892
7.18738 8.57834 -2.59415 609.99 617.045
5.61592 9.97474 -3.96417 602.472 623.35
3.5416 10.7986 -5.19944 592.756 626.718
1.18604 11.1475 -6.6947 581.989 627.78
-1.24522 11.0553 -5.37563 570.062 626.132
-3.55387 10.5197 -4.05914 558.892 622.429
-1.30606 8.11154 -5.16314 570.874 612.106
0.997963 7.91919 -7.06056 582.514 612.476
3.2162 7.85991 -4.83711 592.263 612.582
3.27367 8.30834 -4.38357 592.198 614.635
1.09633 8.61443 -6.24566 582.419 615.64
-1.17613 8.58571 -4.61336 571.109 614.289
3 20 21 23
3 21 22 23
3 0 1 36
3 15 16 45
3 0 17 36
3 16 26 45
3 17 18 37
3 25 26 44
3 17 36 37
3 26 44 45
3 18 19 38
3 24 25 43
3 18 37 38
3 25 43 44
3 19 20 38
3 23 24 43
3 20 21 39
3 22 23 42
3 20 38 39
3 23 42 43
3 21 22 27
3 21 27 39
3 22 27 42
3 27 28 42
3 27 28 39
3 28 42 47
3 28 39 40
3 1 36 41
3 15 45 46
3 1 2 41
3 14 15 46
3 28 29 40
3 28 29 47
3 2 40 41
3 14 46 47
3 2 29 40
3 14 29 47
3 2 3 29
3 13 14 29
3 29 30 31
3 29 30 35
3 3 29 31
3 13 29 35
3 30 32 33
3 30 33 34
3 30 31 32
3 30 34 35
3 3 4 31
3 12 13 35
3 4 5 48
3 11 12 54
3 5 6 48
3 10 11 54
3 6 48 59
3 10 54 55
3 6 7 59
3 9 10 55
3 7 58 59
3 9 55 56
3 8 57 58
3 8 56 57
3 7 8 58
3 8 9 56
3 4 31 48
3 12 35 54
3 31 48 49
3 35 53 54
3 31 49 50
3 35 52 53
3 31 32 50
3 34 35 52
3 32 33 50
3 33 34 52
3 33 50 51
3 33 51 52
3 48 49 60
3 49 60 50
3 50 60 61
3 50 51 61
3 51 52 61
3 61 62 52
3 52 53 62
3 53 54 62
3 54 55 63
3 55 56 63
3 56 63 64
3 56 57 64
3 64 65 57
3 57 58 65
3 58 59 65
3 48 59 65
