ply
format ascii 1.0
element vertex 66
property float x
property float y
property float z
property float u
property float v
element face 91
property list uchar int vertex_indices
end_header
-21.0984 -7.21482 21.5702 481.66 531.236
-20.5058 -1.66654 21.2195 482.187 556.254
-19.6612 3.84232 20.6796 483.918 581.2
-18.4622 9.37375 18.4356 487.81 606.403
-16.5742 14.728 13.5871 495.746 631.114
-13.2295 19.0597 7.86239 510.885 651.852
-8.7673 22.0959 3.33517 531.103 667.246
-3.78235 24.0022 -0.849036 553.985 677.801
1.47926 24.5212 -4.81187 578.579 682.272
6.6421 23.2434 -0.85817 600.705 678.614
11.2281 20.4527 3.35943 620.78 667.966
15.1229 16.7068 7.84672 638.068 652.771
18.0006 12.0721 13.4918 650.783 633.188
19.5503 6.89045 18.2033 658.13 610.635
20.1527 1.808 20.5489 662.042 588.162
20.1978 -3.17812 21.016 664.087 565.91
19.8869 -8.18465 21.2434 664.638 543.425
-16.9802 -13.9675 -0.0274526 510.22 502.914
-14.6705 -16.1705 -1.72597 521.98 494.021
-11.5778 -17.2791 -3.09458 536.671 490.328
-8.24384 -17.3243 -4.35954 551.972 491.48
-4.94783 -16.6078 -5.47952 566.748 496.017
2.53276 -16.9085 -5.3966 600.145 497.688
5.22115 -17.9752 -4.16589 612.116 493.998
8.09265 -18.4161 -2.863 624.625 493.176
10.9501 -18.1413 -1.42881 636.738 495.543
13.4196 -16.8261 0.31782 646.596 502.398
-0.327421 -11.2483 -5.00872 584.998 521.809
-0.143902 -8.57507 -7.71043 585.679 533.843
0.031991 -5.91282 -10.5635 586.382 545.826
0.198976 -3.28078 -13.4299 587.063 557.67
-2.873 0.185161 -6.14246 569.458 571.851
-1.15583 0.498212 -7.0851 577.305 573.949
0.608141 0.587261 -8.11 585.479 575.066
2.18533 0.293742 -6.96932 592.222 574.381
3.67243 -0.235332 -6.09163 598.751 572.611
-12.0489 -8.99035 -1.12881 530.555 527.137
-10.4986 -10.0017 -1.37095 537.948 523.248
-8.57815 -10.3292 -1.36413 546.628 522.559
-6.72113 -9.85966 -0.995525 554.578 525.401
-8.39762 -9.11103 -1.10805 546.852 528.07
-10.2269 -8.84781 -1.11502 538.604 528.508
4.88518 -10.5128 -0.784024 606.442 527.16
6.57912 -11.1816 -1.21663 614.403 524.86
8.47139 -11.2539 -1.21212 622.855 525.3
10.1155 -10.4666 -0.905321 629.752 529.476
8.40323 -9.99071 -0.905281 621.937 530.911
6.59532 -10.0187 -0.861563 613.884 530.057
-7.33233 8.72264 -2.78206 545 608.152
-5.09842 6.78531 -4.90403 556.463 600.418
-2.39966 5.31616 -6.52052 569.632 594.958
0.722144 5.34701 -7.90384 583.999 596.365
3.71426 4.91216 -6.31222 596.943 595.617
6.4484 5.98299 -4.71543 608.13 601.487
8.69408 7.71171 -2.63406 616.709 610.096
6.51694 9.17106 -3.88506 606.863 615.745
3.83538 9.90087 -5.12491 595.062 617.934
1.05086 10.2167 -6.5783 583.042 618.234
-1.80709 10.2126 -5.23597 569.853 617.053
-4.67778 9.83271 -3.94024 556.775 614.189
-2.3101 7.43522 -5.27222 568.744 604.447
0.89553 7.32915 -7.13062 583.705 605.281
3.97834 7.05627 -4.98795 596.795 605.287
4.05143 7.55951 -4.49114 596.745 607.56
0.973791 7.86636 -6.49721 583.617 607.706
-2.20192 7.95762 -4.66223 568.803 606.819
3 20 21 23
3 21 22 23
3 0 1 36
3 15 16 45
3 0 17 36
3 16 26 45
3 17 18 37
3 25 26 44
3 17 36 37
3 26 44 45
3 18 19 38
3 24 25 43
3 18 37 38
3 25 43 44
3 19 20 38
3 23 24 43
3 20 21 39
3 22 23 42
3 20 38 39
3 23 42 43
3 21 22 27
3 21 27 39
3 22 27 42
3 27 28 42
3 27 28 39
3 28 42 47
3 28 39 40
3 1 36 41
3 15 45 46
3 1 2 41
3 14 15 46
3 28 29 40
3 28 29 47
3 2 40 41
3 14 46 47
3 2 29 40
3 14 29 47
3 2 3 29
3 13 14 29
3 29 30 31
3 29 30 35
3 3 29 31
3 13 29 35
3 30 32 33
3 30 33 34
3 30 31 32
3 30 34 35
3 3 4 31
3 12 13 35
3 4 5 48
3 11 12 54
3 5 6 48
3 10 11 54
3 6 48 59
3 10 54 55
3 6 7 59
3 9 10 55
3 7 58 59
3 9 55 56
3 8 57 58
3 8 56 57
3 7 8 58
3 8 9 56
3 4 31 48
3 12 35 54
3 31 48 49
3 35 53 54
3 31 49 50
3 35 52 53
3 31 32 50
3 34 35 52
3 32 33 50
3 33 34 52
3 33 50 51
3 33 51 52
3 48 49 60
3 49 60 50
3 50 60 61
3 50 51 61
3 51 52 61
3 61 62 52
3 52 53 62
3 53 54 62
3 54 55 63
3 55 56 63
3 56 63 64
3 56 57 64
3 64 65 57
3 57 58 65
3 58 59 65
3 48 59 65
