ply
format ascii 1.0
element vertex 66
property float x
property float y
property float z
property float u
property float v
element face 91
property list uchar int vertex_indices
end_header
-20.1624 -7.25082 21.5992 489.374 531.267
-19.4988 -1.58869 21.1241 490.621 557.815
-18.6177 4.04666 20.5685 492.909 584.313
-17.4908 9.66465 18.5363 496.787 610.809
-15.8676 15.0097 13.6601 503.916 636.193
-12.8929 19.3842 7.87075 517.926 657.533
-8.74281 22.5347 3.22362 537.471 673.601
-3.96887 24.5388 -0.858856 560.141 684.563
1.17924 25.0264 -4.86469 585.053 688.607
6.36985 23.6542 -0.747157 608.372 684.069
10.7093 20.4612 3.37897 628.376 670.769
14.2469 16.3844 7.92879 644.842 653.084
16.8851 11.6692 13.5368 657.04 632.122
18.507 6.64854 18.1563 664.928 609.38
19.246 1.72081 20.3165 669.426 586.746
19.3735 -3.15557 20.7019 671.602 564.127
19.0949 -8.0507 20.926 671.95 541.278
-16.8601 -14.2764 0.0395888 513.612 499.642
-14.7427 -16.715 -1.69359 524.804 489.038
-11.7305 -18.0303 -3.02619 539.634 483.97
-8.42135 -18.161 -4.28935 555.408 484.513
-5.13801 -17.463 -5.40866 570.73 488.9
2.6864 -17.5894 -5.46082 607.083 491.049
5.27323 -18.5671 -4.1993 619.045 487.417
8.05617 -18.8794 -2.86726 631.662 486.946
10.7891 -18.4072 -1.42399 643.742 490.105
13.0354 -16.8723 0.359348 653.09 498.036
-0.186438 -11.7292 -4.99036 591.573 517.285
-0.0743158 -9.01974 -7.74618 591.975 529.903
0.0227218 -6.3147 -10.5393 592.32 542.494
0.111622 -3.63064 -13.2846 592.62 554.985
-2.55442 -0.0604392 -6.04819 576.838 570.688
-0.956612 0.192661 -7.03852 584.458 572.418
0.687428 0.251336 -8.09044 592.379 573.26
2.09428 0.0401509 -6.90654 598.623 572.777
3.41152 -0.386697 -6.03709 604.621 571.259
-11.8366 -9.44904 -1.22079 535.608 523.83
-10.3077 -10.4396 -1.31531 543.073 519.761
-8.40225 -10.8006 -1.23814 552.014 518.749
-6.57056 -10.3376 -0.898339 560.247 521.544
-8.22313 -9.53329 -1.11336 552.366 524.703
-10.0451 -9.28075 -1.11249 543.826 525.24
4.774 -10.8661 -0.808928 613.026 523.057
6.40984 -11.4291 -1.16312 620.917 521.01
8.24594 -11.4644 -1.18143 629.451 521.488
9.80622 -10.6541 -0.984327 636.347 525.801
8.15933 -10.1874 -0.925383 628.527 527.395
6.40051 -10.2714 -0.914713 620.395 526.389
-6.1232 9.09584 -2.78567 556.112 612.018
-4.19704 7.24788 -4.98604 566.351 604.09
-1.89954 5.70234 -6.62161 578.038 597.7
0.841726 5.72668 -8.07776 591.181 598.764
3.45351 5.37153 -6.29125 602.884 598.037
5.7611 6.56539 -4.68693 612.69 604.403
7.60093 8.29421 -2.56639 619.985 613.094
5.9489 9.81917 -3.90374 612.191 619.597
3.7516 10.746 -5.15486 602.051 623.129
1.23304 11.128 -6.76251 590.718 624.014
-1.38885 10.9999 -5.36633 578.182 622.509
-3.87612 10.3675 -4.01707 566.461 618.708
-1.58936 7.82249 -5.19611 578.309 607.672
1.04079 7.64006 -7.06369 591.133 607.733
3.56075 7.55862 -4.79048 602.168 608.249
3.68247 8.28433 -4.33016 602.342 611.667
1.17715 8.67342 -6.29483 591.175 612.588
-1.457 8.591 -4.63386 578.487 611.293
3 20 21 23
3 21 22 23
3 0 1 36
3 15 16 45
3 0 17 36
3 16 26 45
3 17 18 37
3 25 26 44
3 17 36 37
3 26 44 45
3 18 19 38
3 24 25 43
3 18 37 38
3 25 43 44
3 19 20 38
3 23 24 43
3 20 21 39
3 22 23 42
3 20 38 39
3 23 42 43
3 21 22 27
3 21 27 39
3 22 27 42
3 27 28 42
3 27 28 39
3 28 42 47
3 28 39 40
3 1 36 41
3 15 45 46
3 1 2 41
3 14 15 46
3 28 29 40
3 28 29 47
3 2 40 41
3 14 46 47
3 2 29 40
3 14 29 47
3 2 3 29
3 13 14 29
3 29 30 31
3 29 30 35
3 3 29 31
3 13 29 35
3 30 32 33
3 30 33 34
3 30 31 32
3 30 34 35
3 3 4 31
3 12 13 35
3 4 5 48
3 11 12 54
3 5 6 48
3 10 11 54
3 6 48 59
3 10 54 55
3 6 7 59
3 9 10 55
3 7 58 59
3 9 55 56
3 8 57 58
3 8 56 57
3 7 8 58
3 8 9 56
3 4 31 48
3 12 35 54
3 31 48 49
3 35 53 54
3 31 49 50
3 35 52 53
3 31 32 50
3 34 35 52
3 32 33 50
3 33 34 52
3 33 50 51
3 33 51 52
3 48 49 60
3 49 60 50
3 50 60 61
3 50 51 61
3 51 52 61
3 61 62 52
3 52 53 62
3 53 54 62
3 54 55 63
3 55 56 63
3 56 63 64
3 56 57 64
3 64 65 57
3 57 58 65
3 58 59 65
3 48 59 65
