ply
format ascii 1.0
element vertex 66
property float x
property float y
property float z
property float u
property float v
element face 91
property list uchar int vertex_indices
end_header
-19.6803 -7.20736 21.3422 490.951 530.286
-19.0906 -1.58057 20.9356 491.564 557.126
-18.2584 4.01399 20.4014 493.366 583.925
-17.1009 9.57163 18.4954 497.071 610.836
-15.4658 14.8892 13.6621 503.881 637.14
-12.6481 19.4162 7.89043 516.827 660.29
-8.6815 22.8506 3.21457 535.347 678.614
-4.00408 25.1557 -0.825127 557.51 691.818
1.18072 25.7954 -4.88 582.74 697.366
6.47391 24.4324 -0.702558 607.162 692.56
10.8329 21.1423 3.34773 627.992 678.302
14.2712 16.8806 7.93656 644.734 659.029
16.7181 11.9752 13.5714 656.793 636.204
18.1826 6.78808 18.2316 664.586 611.77
18.853 1.64705 20.2184 669.308 587.543
18.9015 -3.45344 20.6363 671.488 563.44
18.541 -8.56806 20.8429 671.8 539.131
-16.256 -14.3211 0.0254369 515.473 500.512
-14.3672 -16.7494 -1.71321 525.806 490
-11.5499 -18.067 -3.02445 539.957 485.052
-8.42862 -18.228 -4.32308 555.071 485.684
-5.33483 -17.5914 -5.48142 569.698 490.052
2.72308 -17.814 -5.51271 607.78 492.212
5.24996 -18.7568 -4.23415 619.741 488.621
7.96125 -19.0273 -2.885 632.283 488.269
10.6019 -18.4596 -1.47943 644.138 491.838
12.6849 -16.8079 0.304124 652.829 500.259
-0.291836 -12.1123 -5.00048 591.134 517.866
-0.13185 -9.54146 -7.71402 591.551 530.375
0.0135982 -6.96907 -10.411 591.895 542.883
0.147528 -4.41688 -13.0723 592.184 555.288
-2.31778 -0.523867 -5.90021 577.138 571.861
-0.850051 -0.363248 -6.91712 584.254 573.32
0.653353 -0.346559 -7.99017 591.612 574.12
1.95211 -0.513392 -6.78385 597.489 573.711
3.17475 -0.843114 -5.88006 603.152 572.538
-11.6044 -9.64835 -1.36423 535.873 524.578
-10.1218 -10.7391 -1.34035 543.296 520.016
-8.18573 -11.131 -1.16445 552.535 518.917
-6.36032 -10.6625 -0.814515 560.86 521.815
-7.96856 -9.67648 -1.12173 552.96 525.864
-9.81755 -9.37845 -1.11637 544.123 526.534
4.45703 -11.1881 -0.646725 612.021 523.62
6.10454 -11.8082 -1.07979 620.149 521.398
8.00074 -11.8091 -1.23987 629.13 522.167
9.56128 -10.9212 -1.2008 636.117 526.974
7.9154 -10.3463 -0.951245 628.062 529.004
6.10394 -10.4409 -0.905488 619.55 527.832
-4.74226 9.57765 -2.78246 560.825 618.219
-3.34752 7.62534 -4.96535 568.752 609.809
-1.53728 5.89505 -6.61956 578.411 602.552
0.830158 5.92971 -8.08996 589.937 603.826
3.0881 5.62549 -6.35597 600.255 603.09
4.95399 7.09705 -4.72269 608.035 610.591
6.31458 8.98178 -2.57032 613.131 619.783
5.01368 10.2551 -3.96517 606.846 625.435
3.27064 11.0631 -5.30586 598.649 628.708
1.15591 11.4251 -6.92536 588.953 629.761
-1.02354 11.2434 -5.4825 578.38 627.871
-2.97945 10.6479 -4.04287 569.028 624.117
-0.996198 8.03325 -5.00947 579.682 612.675
0.987179 7.76876 -6.88636 589.624 612.431
2.87999 7.8691 -4.65707 597.93 613.403
2.93161 8.61177 -4.29634 597.78 616.887
1.10547 9.00024 -6.15781 589.496 618.207
-0.84438 8.80368 -4.54507 579.967 616.319
3 20 21 23
3 21 22 23
3 0 1 36
3 15 16 45
3 0 17 36
3 16 26 45
3 17 18 37
3 25 26 44
3 17 36 37
3 26 44 45
3 18 19 38
3 24 25 43
3 18 37 38
3 25 43 44
3 19 20 38
3 23 24 43
3 20 21 39
3 22 23 42
3 20 38 39
3 23 42 43
3 21 22 27
3 21 27 39
3 22 27 42
3 27 28 42
3 27 28 39
3 28 42 47
3 28 39 40
3 1 36 41
3 15 45 46
3 1 2 41
3 14 15 46
3 28 29 40
3 28 29 47
3 2 40 41
3 14 46 47
3 2 29 40
3 14 29 47
3 2 3 29
3 13 14 29
3 29 30 31
3 29 30 35
3 3 29 31
3 13 29 35
3 30 32 33
3 30 33 34
3 30 31 32
3 30 34 35
3 3 4 31
3 12 13 35
3 4 5 48
3 11 12 54
3 5 6 48
3 10 11 54
3 6 48 59
3 10 54 55
3 6 7 59
3 9 10 55
3 7 58 59
3 9 55 56
3 8 57 58
3 8 56 57
3 7 8 58
3 8 9 56
3 4 31 48
3 12 35 54
3 31 48 49
3 35 53 54
3 31 49 50
3 35 52 53
3 31 32 50
3 34 35 52
3 32 33 50
3 33 34 52
3 33 50 51
3 33 51 52
3 48 49 60
3 49 60 50
3 50 60 61
3 50 51 61
3 51 52 61
3 61 62 52
3 52 53 62
3 53 54 62
3 54 55 63
3 55 56 63
3 56 63 64
3 56 57 64
3 64 65 57
3 57 58 65
3 58 59 65
3 48 59 65
