ply
format ascii 1.0
element vertex 66
property float x
property float y
property float z
property float u
property float v
element face 91
property list uchar int vertex_indices
end_header
-19.9695 -6.97851 21.2522 479.528 527.504
-19.2958 -1.46026 20.8318 480.398 554.109
-18.3236 4.01218 20.32 482.735 580.645
-16.9986 9.40366 18.4937 487.204 607.244
-15.178 14.4804 13.5919 495.152 633.252
-12.3068 18.8518 7.97318 508.63 656.522
-8.42247 22.2926 3.29712 527.027 675.596
-3.83092 24.6623 -0.833413 549.082 689.764
1.33453 25.2867 -4.70104 574.553 695.827
6.48049 23.9462 -0.817484 598.318 690.806
10.6442 20.7098 3.35489 618.176 676.288
13.9613 16.6131 7.95777 634.263 657.221
16.4592 11.9927 13.4669 646.405 635.108
18.0895 7.07498 18.234 654.801 611.375
18.9182 2.07742 20.1954 660.332 587.546
19.1404 -2.93396 20.6495 663.475 563.729
18.9425 -7.96929 20.8871 664.705 539.666
-16.4961 -14.4146 0.00796223 506.148 498.44
-14.4199 -16.6842 -1.68336 517.554 488.932
-11.502 -17.8111 -3.01418 532.328 485.135
-8.34958 -17.8647 -4.36583 547.743 486.544
-5.2462 -17.1789 -5.5652 562.546 491.411
2.52466 -17.4389 -5.47674 599.503 493.508
5.09806 -18.4952 -4.17093 611.764 489.306
7.87248 -18.9274 -2.78137 624.674 488.137
10.6451 -18.5895 -1.38431 637.229 490.625
12.9541 -17.119 0.332213 646.977 498.223
-0.445915 -12.1145 -4.98095 582.875 517.414
-0.275043 -9.37925 -7.73431 583.35 531.102
-0.111706 -6.64851 -10.4766 583.788 544.763
0.0476561 -3.93357 -13.1187 584.182 558.324
-2.41463 -0.0940407 -5.99443 568.499 573.906
-0.966511 0.133457 -6.99625 575.59 575.836
0.536355 0.163631 -8.00307 583.031 576.854
1.88788 -0.0406652 -6.86217 589.168 576.21
3.13063 -0.459194 -5.98361 594.968 574.561
-12.0752 -10.0408 -1.28012 525.586 521.419
-10.4735 -11.3225 -1.24359 533.745 516.012
-8.33554 -11.6827 -1.0991 544.003 515.19
-6.43116 -10.931 -0.834205 552.618 519.523
-8.18778 -9.94499 -1.12794 543.938 523.517
-10.1844 -9.64891 -1.1082 534.327 524.058
4.4857 -11.5491 -0.631536 604.624 521.251
6.17818 -12.5002 -0.973268 613.188 517.539
8.28558 -12.5635 -1.07139 623.246 518.169
10.0241 -11.5301 -1.00907 631.014 523.815
8.28224 -10.7976 -0.86645 622.377 526.512
6.30649 -10.8366 -0.858103 613.018 525.472
-4.37159 9.77356 -2.78833 553.784 619.227
-3.12304 7.80644 -4.97957 561.289 610.911
-1.421 6.08452 -6.63433 570.664 603.835
0.832283 6.10779 -8.1983 581.847 605.269
2.99525 5.79141 -6.37552 591.664 604.289
4.79611 7.23238 -4.75794 599.046 611.55
6.09358 9.10122 -2.6244 603.683 620.51
4.90281 10.3915 -4.02603 597.909 626.442
3.2591 11.2416 -5.29901 590.14 630.058
1.22398 11.6313 -6.82453 580.8 631.374
-0.8688 11.4641 -5.44745 570.503 629.367
-2.73041 10.8539 -4.07152 561.501 625.356
-0.757504 8.22287 -5.03198 572.343 613.922
1.00558 7.93366 -6.94625 581.452 613.738
2.71076 8.02784 -4.75558 588.797 614.429
2.72967 8.64343 -4.37325 588.489 617.276
1.1212 9.0213 -6.11976 581.25 618.77
-0.581744 8.85366 -4.5449 572.74 616.885
3 20 21 23
3 21 22 23
3 0 1 36
3 15 16 45
3 0 17 36
3 16 26 45
3 17 18 37
3 25 26 44
3 17 36 37
3 26 44 45
3 18 19 38
3 24 25 43
3 18 37 38
3 25 43 44
3 19 20 38
3 23 24 43
3 20 21 39
3 22 23 42
3 20 38 39
3 23 42 43
3 21 22 27
3 21 27 39
3 22 27 42
3 27 28 42
3 27 28 39
3 28 42 47
3 28 39 40
3 1 36 41
3 15 45 46
3 1 2 41
3 14 15 46
3 28 29 40
3 28 29 47
3 2 40 41
3 14 46 47
3 2 29 40
3 14 29 47
3 2 3 29
3 13 14 29
3 29 30 31
3 29 30 35
3 3 29 31
3 13 29 35
3 30 32 33
3 30 33 34
3 30 31 32
3 30 34 35
3 3 4 31
3 12 13 35
3 4 5 48
3 11 12 54
3 5 6 48
3 10 11 54
3 6 48 59
3 10 54 55
3 6 7 59
3 9 10 55
3 7 58 59
3 9 55 56
3 8 57 58
3 8 56 57
3 7 8 58
3 8 9 56
3 4 31 48
3 12 35 54
3 31 48 49
3 35 53 54
3 31 49 50
3 35 52 53
3 31 32 50
3 34 35 52
3 32 33 50
3 33 34 52
3 33 50 51
3 33 51 52
3 48 49 60
3 49 60 50
3 50 60 61
3 50 51 61
3 51 52 61
3 61 62 52
3 52 53 62
3 53 54 62
3 54 55 63
3 55 56 63
3 56 63 64
3 56 57 64
3 64 65 57
3 57 58 65
3 58 59 65
3 48 59 65
