ply
format ascii 1.0
element vertex 66
property float x
property float y
property float z
property float u
property float v
element face 91
property list uchar int vertex_indices
end_header
-20.3651 -6.62046 21.3189 488.136 528.816
-19.7199 -1.29172 20.9271 488.79 553.649
-18.7753 3.99006 20.4799 490.855 578.406
-17.4801 9.18654 18.4314 495.017 603.073
-15.5794 14.1159 13.5973 502.862 627.034
-12.5364 18.3333 7.99555 516.489 648.303
-8.49677 21.5921 3.35225 534.859 665.524
-3.8125 23.8204 -0.855072 556.533 678.256
1.37297 24.4108 -4.67785 581.144 683.645
6.53228 23.3389 -0.895171 604.257 680.691
10.9461 20.5679 3.36434 624.585 669.545
14.5634 16.8324 7.96811 641.597 653.573
17.1956 12.3568 13.5418 654.15 633.668
18.6411 7.36185 18.4083 661.689 610.904
19.2884 2.20934 20.5549 666.397 587.304
19.4812 -2.97699 21.0403 669.5 563.493
19.326 -8.17884 21.3253 671.068 539.473
-16.9204 -14.3063 0.0583402 513.4 496.933
-14.6702 -16.4085 -1.61787 525.154 488.426
-11.6845 -17.3642 -3.01065 539.686 485.497
-8.52637 -17.361 -4.3766 554.567 487.054
-5.44318 -16.6649 -5.58942 568.746 491.749
2.46724 -17.0569 -5.46226 605.206 493.487
5.27992 -18.1979 -4.18146 618.278 489.387
8.29042 -18.693 -2.81108 631.94 488.338
11.3113 -18.3573 -1.39252 645.26 491.111
13.8668 -16.8169 0.343201 655.807 499.187
-0.677681 -11.7382 -4.98971 588.221 516.494
-0.412232 -8.83739 -7.75188 588.898 530.204
-0.152577 -5.95044 -10.5866 589.575 543.855
0.104392 -3.0803 -13.3277 590.221 557.418
-2.77106 0.343638 -6.12711 573.447 571.224
-1.18391 0.626628 -7.12571 580.885 573.329
0.456546 0.665649 -8.09902 588.672 574.333
2.00115 0.388559 -7.04668 595.594 573.657
3.43622 -0.143453 -6.17467 602.179 571.776
-12.6408 -9.60064 -1.09326 531.235 520.601
-10.9003 -10.921 -1.20644 539.857 515.32
-8.64967 -11.2237 -1.20193 550.326 514.939
-6.63926 -10.4157 -1.00533 559.134 519.54
-8.5398 -9.56982 -1.15831 550.067 522.591
-10.6312 -9.27275 -1.10445 540.315 523.013
4.57061 -11.1166 -0.73592 610.842 521.326
6.39848 -12.2191 -1.10435 619.838 517.11
8.64789 -12.3286 -1.08645 630.21 517.615
10.5834 -11.3253 -0.874817 638.581 523.079
8.68278 -10.6335 -0.879321 629.543 525.408
6.57563 -10.6121 -0.872406 619.857 524.559
-5.71093 9.24761 -2.80301 554.977 610.556
-4.00135 7.28454 -4.9196 564.31 602.486
-1.82139 5.76113 -6.56765 575.472 596.607
0.791013 5.76954 -8.161 587.909 597.963
3.32914 5.3939 -6.42437 599.245 597.218
5.64043 6.56378 -4.79312 608.868 603.49
7.51257 8.28253 -2.66349 616.086 612.043
5.79871 9.76528 -4.00779 607.922 618.214
3.59587 10.6441 -5.25575 597.759 621.379
1.13926 11.0133 -6.6797 586.712 622.103
-1.33391 10.9574 -5.32836 575.004 620.613
-3.66481 10.415 -4.0096 564.179 616.953
-1.62199 7.87386 -5.14188 575.029 606.285
0.937624 7.62681 -7.15362 587.456 606.48
3.44206 7.52227 -5.02567 598.405 606.932
3.47419 8.10953 -4.53149 598.148 609.602
1.00489 8.45128 -6.2614 587.141 610.221
-1.51757 8.4611 -4.55736 575.078 608.98
3 20 21 23
3 21 22 23
3 0 1 36
3 15 16 45
3 0 17 36
3 16 26 45
3 17 18 37
3 25 26 44
3 17 36 37
3 26 44 45
3 18 19 38
3 24 25 43
3 18 37 38
3 25 43 44
3 19 20 38
3 23 24 43
3 20 21 39
3 22 23 42
3 20 38 39
3 23 42 43
3 21 22 27
3 21 27 39
3 22 27 42
3 27 28 42
3 27 28 39
3 28 42 47
3 28 39 40
3 1 36 41
3 15 45 46
3 1 2 41
3 14 15 46
3 28 29 40
3 28 29 47
3 2 40 41
3 14 46 47
3 2 29 40
3 14 29 47
3 2 3 29
3 13 14 29
3 29 30 31
3 29 30 35
3 3 29 31
3 13 29 35
3 30 32 33
3 30 33 34
3 30 31 32
3 30 34 35
3 3 4 31
3 12 13 35
3 4 5 48
3 11 12 54
3 5 6 48
3 10 11 54
3 6 48 59
3 10 54 55
3 6 7 59
3 9 10 55
3 7 58 59
3 9 55 56
3 8 57 58
3 8 56 57
3 7 8 58
3 8 9 56
3 4 31 48
3 12 35 54
3 31 48 49
3 35 53 54
3 31 49 50
3 35 52 53
3 31 32 50
3 34 35 52
3 32 33 50
3 33 34 52
3 33 50 51
3 33 51 52
3 48 49 60
3 49 60 50
3 50 60 61
3 50 51 61
3 51 52 61
3 61 62 52
3 52 53 62
3 53 54 62
3 54 55 63
3 55 56 63
3 56 63 64
3 56 57 64
3 64 65 57
3 57 58 65
3 58 59 65
3 48 59 65
