ply
format ascii 1.0
element vertex 66
property float x
property float y
property float z
property float u
property float v
element face 91
property list uchar int vertex_indices
end_header
-20.9565 -7.25016 21.6983 481.797 530.975
-20.2548 -1.62513 21.3116 482.978 556.518
-19.3223 3.96196 20.7572 485.267 581.977
-18.1279 9.54639 18.5517 489.31 607.538
-16.3268 14.8805 13.6039 497.129 632.225
-13.0695 19.175 7.89326 512.128 652.792
-8.67788 22.1905 3.34783 532.275 668.025
-3.73643 24.0447 -0.873326 555.205 678.241
1.4948 24.4665 -4.79796 579.864 682.126
6.62487 23.1689 -0.847283 601.94 678.175
11.0934 20.2734 3.40992 621.542 666.793
14.8273 16.4475 7.90506 638.115 650.954
17.6051 11.8472 13.4987 650.308 631.268
19.1742 6.81311 18.2267 657.553 609.189
19.8312 1.8763 20.5329 661.526 587.229
19.959 -2.99097 20.949 663.768 565.402
19.7219 -7.8801 21.1874 664.446 543.341
-17.4663 -13.7797 -0.00865734 507.503 503.137
-15.1059 -16.1197 -1.7219 519.553 493.52
-11.898 -17.2682 -3.08839 534.833 489.569
-8.44795 -17.2806 -4.37683 550.747 490.814
-5.03829 -16.5206 -5.49846 566.132 495.513
2.77891 -16.7438 -5.46824 601.225 497.429
5.46755 -17.8011 -4.21528 613.224 493.67
8.34582 -18.257 -2.87296 625.816 492.684
11.2226 -17.9979 -1.42236 638.097 494.91
13.6883 -16.6297 0.34899 648.009 501.962
-0.211843 -11.2845 -5.00315 585.627 520.84
-0.0591963 -8.5233 -7.77888 586.257 533.33
0.0822314 -5.77154 -10.649 586.873 545.775
0.214434 -3.0425 -13.4523 587.433 558.113
-2.83481 0.218839 -6.16663 569.994 571.562
-1.11037 0.571647 -7.13747 577.929 573.801
0.67237 0.677719 -8.16564 586.238 574.953
2.23258 0.387624 -7.01479 592.931 574.221
3.68726 -0.161489 -6.09444 599.329 572.288
-12.4132 -9.28364 -1.10679 528.85 525.238
-10.7836 -10.3715 -1.32046 536.631 520.96
-8.75963 -10.71 -1.31865 545.824 520.195
-6.84257 -10.1061 -0.979642 554.067 523.621
-8.61104 -9.36538 -1.09193 545.908 526.291
-10.5273 -9.11324 -1.09294 537.23 526.708
5.01214 -10.7037 -0.839803 607.349 525.362
6.73246 -11.456 -1.1848 615.457 522.627
8.70468 -11.5307 -1.15938 624.312 523.028
10.4 -10.6448 -0.871214 631.475 527.639
8.64163 -10.1535 -0.897328 623.423 529.191
6.77191 -10.1954 -0.883347 615.058 528.304
-7.08659 8.71297 -2.79383 546.592 608.113
-4.90266 6.80314 -4.94961 557.846 600.366
-2.27705 5.3588 -6.5738 570.719 594.871
0.740638 5.40722 -8.00131 584.721 596.229
3.61427 4.98604 -6.31867 597.16 595.394
6.24579 6.04677 -4.72171 607.992 601.129
8.38631 7.79809 -2.64582 616.198 609.779
6.3504 9.25022 -3.85751 606.961 615.555
3.78841 9.97934 -5.10777 595.652 617.886
1.09886 10.28 -6.61294 584.02 618.246
-1.69589 10.2614 -5.25147 571.028 617.106
-4.49436 9.84967 -3.9481 558.187 614.199
-2.10154 7.45728 -5.34122 570.289 604.355
0.929726 7.36302 -7.16502 584.545 605.081
3.83439 7.12734 -4.98844 596.88 605.086
3.91406 7.56691 -4.44149 596.88 607.086
1.02684 7.84463 -6.42321 584.539 607.274
-1.97128 7.92168 -4.68035 570.466 606.485
3 20 21 23
3 21 22 23
3 0 1 36
3 15 16 45
3 0 17 36
3 16 26 45
3 17 18 37
3 25 26 44
3 17 36 37
3 26 44 45
3 18 19 38
3 24 25 43
3 18 37 38
3 25 43 44
3 19 20 38
3 23 24 43
3 20 21 39
3 22 23 42
3 20 38 39
3 23 42 43
3 21 22 27
3 21 27 39
3 22 27 42
3 27 28 42
3 27 28 39
3 28 42 47
3 28 39 40
3 1 36 41
3 15 45 46
3 1 2 41
3 14 15 46
3 28 29 40
3 28 29 47
3 2 40 41
3 14 46 47
3 2 29 40
3 14 29 47
3 2 3 29
3 13 14 29
3 29 30 31
3 29 30 35
3 3 29 31
3 13 29 35
3 30 32 33
3 30 33 34
3 30 31 32
3 30 34 35
3 3 4 31
3 12 13 35
3 4 5 48
3 11 12 54
3 5 6 48
3 10 11 54
3 6 48 59
3 10 54 55
3 6 7 59
3 9 10 55
3 7 58 59
3 9 55 56
3 8 57 58
3 8 56 57
3 7 8 58
3 8 9 56
3 4 31 48
3 12 35 54
3 31 48 49
3 35 53 54
3 31 49 50
3 35 52 53
3 31 32 50
3 34 35 52
3 32 33 50
3 33 34 52
3 33 50 51
3 33 51 52
3 48 49 60
3 49 60 50
3 50 60 61
3 50 51 61
3 51 52 61
3 61 62 52
3 52 53 62
3 53 54 62
3 54 55 63
3 55 56 63
3 56 63 64
3 56 57 64
3 64 65 57
3 57 58 65
3 58 59 65
3 48 59 65
