ply
format ascii 1.0
element vertex 66
property float x
property float y
property float z
property float u
property float v
element face 91
property list uchar int vertex_indices
end_header
-20.3818 -7.33239 21.4576 486.612 529.156
-19.7766 -1.73357 21.0733 487.721 555.224
-18.8882 3.82445 20.5445 490.189 581.191
-17.6145 9.34759 18.4702 494.848 607.067
-15.7687 14.6272 13.553 502.961 631.904
-12.6836 19.0433 7.90519 517.261 653.122
-8.51584 22.3151 3.26143 536.664 669.43
-3.72954 24.4777 -0.817805 559.129 680.827
1.49281 25.0579 -4.81307 584.09 685.051
6.6261 23.6925 -0.784674 607.18 680.522
10.9462 20.6001 3.34246 627.041 667.75
14.4668 16.5977 7.92758 643.382 650.529
17.0688 11.9027 13.4625 655.456 629.843
18.6439 6.8448 18.2262 663.105 607.124
19.3708 1.83212 20.3938 667.496 584.253
19.4817 -3.1344 20.8115 669.482 561.339
19.1976 -8.11383 21.0421 669.697 538.232
-16.9083 -13.9615 0.0324228 510.311 498.893
-14.7778 -16.3771 -1.71163 521.369 488.348
-11.7486 -17.628 -3.05362 536.1 483.491
-8.4374 -17.6887 -4.35025 551.742 484.23
-5.17375 -16.9409 -5.50698 566.871 488.696
2.61382 -17.1441 -5.46724 602.879 490.257
5.3266 -18.1986 -4.20356 615.412 486.295
8.23261 -18.5741 -2.87189 628.603 485.536
11.0815 -18.0556 -1.46817 641.227 488.896
13.3777 -16.3845 0.353948 650.823 497.421
-0.384372 -11.5912 -5.03144 587.155 514.985
-0.227661 -8.94258 -7.78292 587.748 527.188
-0.0810966 -6.2927 -10.5241 588.291 539.395
0.0621925 -3.66375 -13.1989 588.808 551.506
-2.71667 -0.312196 -6.0956 573.07 566.351
-1.11461 -0.0477654 -7.01476 580.62 568.057
0.529914 0.0120379 -8.0021 588.45 568.828
1.99954 -0.234147 -6.90667 595.029 568.198
3.37575 -0.699337 -6.07537 601.315 566.517
-12.0593 -9.22113 -1.28505 531.529 522.323
-10.4143 -10.217 -1.34239 539.456 518.244
-8.39944 -10.5744 -1.23845 548.845 517.242
-6.47596 -10.158 -0.889547 557.502 519.796
-8.24179 -9.36018 -1.11965 549.155 522.911
-10.1669 -9.07269 -1.14101 540.181 523.622
4.55832 -10.6991 -0.760361 608.584 520.841
6.32659 -11.2772 -1.15054 617.033 518.722
8.30065 -11.3048 -1.20975 626.171 519.226
10.0123 -10.5295 -1.0501 633.784 523.366
8.23038 -10.0729 -0.948754 625.386 524.908
6.33732 -10.1454 -0.912178 616.66 523.967
-5.83073 9.06689 -2.7393 554.836 608.832
-4.38418 6.65571 -4.92818 562.849 598.073
-2.16918 4.75189 -6.52925 574.097 589.927
0.712934 4.65561 -8.03483 587.824 590.356
3.50332 4.37604 -6.27677 600.34 590.019
5.83781 5.92653 -4.70841 610.217 597.99
7.38896 8.22737 -2.59356 616.098 609.198
5.90991 9.96973 -3.88643 609.049 616.736
3.83737 11.1648 -5.22977 599.448 621.551
1.25521 11.6754 -6.84866 587.784 623.028
-1.43739 11.4653 -5.37483 575.037 621.242
-3.79585 10.5551 -3.97476 564.076 616.324
-1.85499 7.01118 -5.07277 574.45 600.524
0.908404 6.61527 -7.03716 587.843 599.514
3.61876 6.68086 -4.78142 599.751 600.763
3.79464 8.57352 -4.33463 599.844 609.586
1.15498 9.21554 -6.24644 587.948 611.643
-1.61827 8.92105 -4.53187 574.794 609.449
3 20 21 23
3 21 22 23
3 0 1 36
3 15 16 45
3 0 17 36
3 16 26 45
3 17 18 37
3 25 26 44
3 17 36 37
3 26 44 45
3 18 19 38
3 24 25 43
3 18 37 38
3 25 43 44
3 19 20 38
3 23 24 43
3 20 21 39
3 22 23 42
3 20 38 39
3 23 42 43
3 21 22 27
3 21 27 39
3 22 27 42
3 27 28 42
3 27 28 39
3 28 42 47
3 28 39 40
3 1 36 41
3 15 45 46
3 1 2 41
3 14 15 46
3 28 29 40
3 28 29 47
3 2 40 41
3 14 46 47
3 2 29 40
3 14 29 47
3 2 3 29
3 13 14 29
3 29 30 31
3 29 30 35
3 3 29 31
3 13 29 35
3 30 32 33
3 30 33 34
3 30 31 32
3 30 34 35
3 3 4 31
3 12 13 35
3 4 5 48
3 11 12 54
3 5 6 48
3 10 11 54
3 6 48 59
3 10 54 55
3 6 7 59
3 9 10 55
3 7 58 59
3 9 55 56
3 8 57 58
3 8 56 57
3 7 8 58
3 8 9 56
3 4 31 48
3 12 35 54
3 31 48 49
3 35 53 54
3 31 49 50
3 35 52 53
3 31 32 50
3 34 35 52
3 32 33 50
3 33 34 52
3 33 50 51
3 33 51 52
3 48 49 60
3 49 60 50
3 50 60 61
3 50 51 61
3 51 52 61
3 61 62 52
3 52 53 62
3 53 54 62
3 54 55 63
3 55 56 63
3 56 63 64
3 56 57 64
3 64 65 57
3 57 58 65
3 58 59 65
3 48 59 65
